<?xml version="1.0" encoding="utf-8"?>
<!-- Generator: Adobe Illustrator 25.0.0, SVG Export Plug-In . SVG Version: 6.00 Build 0)  -->
<svg version="1.1" id="Layer_1" xmlns="http://www.w3.org/2000/svg" xmlns:xlink="http://www.w3.org/1999/xlink" x="0px" y="0px"
	 viewBox="0 0 864 864" style="enable-background:new 0 0 864 864;" xml:space="preserve">
<style type="text/css">
	.st0{fill:#2E3445;}
	.st1{fill-rule:evenodd;clip-rule:evenodd;fill:#2E3445;}
	.st2{fill-rule:evenodd;clip-rule:evenodd;fill:#FBD0C7;}
</style>
<g>
	<path class="st0" d="M351.26,398.28c4.38-1.83,9.94-7.27,13.47-10.97l-4.42-3.2l-14.26,15.95
		C347.27,399.79,348.95,399.25,351.26,398.28L351.26,398.28z M345.96,347.77c-3.86,0.41-17.64,3.06-18.49,5.47l0.26,4.62l18.13,4.79
		L345.96,347.77L345.96,347.77z M344.7,342.2c1.36-0.15,2.67-0.27,3.96-0.36c0.55-5.44,3.58-6.07,9.56-8.74
		c13.06-5.83,11.82-5.34,27.61-5.38l48.22-0.96l90.08,0.4c15.58,0.16,18.76,2.77,21.56,22.74l34.93,0.21
		c7.26,2.85,5.65,18.1-1.02,18.34l-31.73,0c2.29,18.01,6.18,25.79-20.05,32.58c-25.03,6.48-14.69,19.76-10.23,45.03
		c1.18,6.69,9.68,49.16,8.83,53.23c-0.46,2.19-1.97,3.37-3.68,4.89l17.12,13.03c5.47,6.17-4.7,12.54-9.8,15.5
		c-5.82,3.37-15.82-6.29-25.39-13.11l-6.12,2.84c-6.45,0.65-29.43,3.01-35.36-0.16l-16.7-8.84c-4.35-2.73-5.31-7.43,0.61-11.77
		c15.09-11.07,11.63-15.3,6.8-39.81l-3.15-16.37c-13.72,0.58-29.95-3.72-39.93-13.61c-9.79-9.7-1.88-14.53,7.93-25.67l-22.61-5.74
		c-8.34-1.47-19.38-4.41-26.66-9.9c-22.37,23.69-36.99,15.79-26.63,4.66l13.49-15.19c-5.1-4.35-8.19-6.17-8.09-11.34
		c-6.08-0.8-24.24-3.2-25.92-9.15c-1.27-4.5-1.07-9.44,3.37-12.07C330.46,344.64,338.98,342.82,344.7,342.2L344.7,342.2z
		 M464.35,347.73c6.54,0,12.99-1.2,13.81,2.17h14.1c0.52-2.15,2.74-2.16,2.75-2.17h11.24l-0.41-1.95l-41.79-0.07L464.35,347.73
		L464.35,347.73z M489.77,355.58h-9.08l0.04,7.2h9.08L489.77,355.58L489.77,355.58z M578.85,355.58h-32.38l0.81,7.2h31.96
		C579.46,362.17,580.21,356.9,578.85,355.58L578.85,355.58z M423.6,409.24c-11.63,13.25-14.25,13.22-8.8,18.62
		c7.59,7.53,21.82,12.15,32.81,12.06C441.92,420.96,441.77,415.13,423.6,409.24L423.6,409.24z"/>
	<path class="st0" d="M135.17,190.62l7.14,83.21c-32.96,2.83-29.01-0.54-27.74,14.31c0.16,1.86,2.59,2.33,3.94,2.22l66.64-5.72
		c5.21-0.45,3.6-3.68,2.86-12.34c-0.1-1.18-2.06-2.21-3.25-2.11l-27.91,2.4l-7.14-83.21c32.09-2.75,27.83,0.76,26.52-14.54
		c-0.1-1.19-1.87-1.89-2.71-1.81l-64.61,5.55c-3.75,0.32-2.03,6.07-1.49,12.4c0.07,0.84,2.03,1.87,2.88,1.8L135.17,190.62
		L135.17,190.62z M281.04,225.45c0.65,23.59,13.88,53.45,41.53,52.68c18.5-0.51,32.86-15.34,35.07-33.58l0.3-13.59
		c-0.09-3.32-7.66-1.99-12.62-1.86c-4.94,0.13,0.01,8.32-3.73,18.61c-9.76,26.9-44.65,18.92-45.81-23.02
		c-0.44-16.01,5.23-44.47,24.91-45.01c10.69-0.3,17.86,7.32,21.35,16.73c4.15,12.54-3.86,11.99,13.73,11.51
		c1.53-0.04,1.81-2.26,1.78-3.11l-0.96-34.79c-0.08-2.86-8.12-1.64-12.27-1.53c-0.5,0.53-1.51,0.32-1.77,3.45
		c-20.04-13.56-42.49-6.73-53.41,15.23C283.38,199.24,280.67,212.04,281.04,225.45L281.04,225.45z M407.67,219.71
		c15.5,2.17,28.22,31.26,28.59,43.81l0.57,11.2c0.04,1.52,24.01,0.55,26.66,0.53c1.82-0.01,0.97-13.76,0.26-13.75
		c-8.56,0.04-8.52,1.01-11.9-4.18c-2.78-4.27-2.26-14.03-15.97-34.03l-4.45-6.09c39.46-13.58,24.42-53.78-12.01-53.58l-49.23,0.27
		c-0.66,0-1.22,13.59,0.41,13.58l8.66-0.05l0.45,81.31c0.03,5.32-7.74,1.75-8.64,3.95l0.07,12.39l32.6,0.33
		c1.4-0.01,0.62-11.32,0.61-12.9l-0.34-0.51c-0.17-0.17-0.17-0.17-0.17-0.34c-4.39,0.02-8.99,1.11-9.02-4.87l-0.21-37.35
		L407.67,219.71L407.67,219.71z M394.52,204.5l-0.14-26.14c10.09-0.06,24.58-2.23,34.3,1.34c16.44,6.04,18.38,25.01-21.25,25.24
		C405.55,204.95,396.72,204.49,394.52,204.5L394.52,204.5z M507.36,169.37l-25.05,88.97c-12.78-0.36-10.8-2.34-11.2,11.92
		c-0.03,1.19,0.95,2.41,2.14,2.44l29.86,0.83c3.77,0.1,2.69-5.06,2.89-12.32c0.08-3-4.79-2.34-8.08-2.43l4.15-15l29.7,0.82
		l3.99,15.22c-13-0.36-10.8-2.26-11.21,12.26c-0.02,0.85,1.13,2.07,1.98,2.09l31.9,0.88c3.44,0.09,2.58-7.44,2.7-11.81
		c0.1-3.7-5.86-2.88-9.94-2.99l-24.17-90.16C523.87,158.23,510.65,157.96,507.36,169.37L507.36,169.37z M506.22,228.78l10.73-38.08
		l10.65,38.67L506.22,228.78L506.22,228.78z M583.32,181.79l-4.21,83.75c-11.56-0.58-9.58-2.05-10.28,11.89
		c-0.06,1.19,1.59,2.12,2.27,2.15l33.57,1.69c3.74,0.19,2.83-5.64,3.15-12.08c0.17-3.28-8.21-2.62-12.6-2.84l1.81-35.94l19.5,0.98
		c-0.84,16.62-3.15,13.95,10.99,14.66c0.68,0.03,2.09-0.92,2.12-1.59l1.97-39.16c0.13-2.51-6.93-1.88-11.79-2.12
		c-3.05-0.15-2.24,7.43-2.56,13.64l-19.5-0.98l1.67-33.23l48.32,2.43l-1.12,22.21c-0.11,2.23,7.24,1.73,11.29,1.93
		c0.68,0.03,1.59-1.11,1.63-1.96l1.68-33.4c0.03-0.68-0.58-1.9-1.77-1.96l-81.4-3.75c-3.99,0.61-2.93,0.92-3.45,11.21
		C574.51,181.29,581.77,181.71,583.32,181.79L583.32,181.79z M704.14,186.06l-7.38,85.92c-20.83-1.79-17.54-3.95-18.77,10.31
		c-0.1,1.18,1.35,2.16,2.19,2.23l44.65,3.83c3.71,0.32,3.01-5.25,3.55-11.62c0.28-3.21-12.05-3.08-16.57-3.47l7.38-85.92
		c28.17,2.42,24.08-2.58,21.27,30.11c-0.25,2.93,6.25,2.41,11.68,2.88c0.68,0.06,1.78-0.87,1.84-1.55l3.46-40.25
		c0.1-1.18-1.21-1.81-1.87-2.03l-82.17-7.39c-0.85-0.07-2.1,0.67-2.18,1.52l-3.44,40.08c-0.25,2.86,6.74,2.45,11.34,2.85
		c1.18,0.1,2.12-0.84,2.17-1.52C684.19,180.97,681.66,184.13,704.14,186.06L704.14,186.06z"/>
	<path class="st0" d="M79.85,476.31v-4.64c17.22,13.77,38.86,9.58,38.86-9.57c0-10.76-5.76-16.89-15.39-19.73
		c-10.62-3.13-21.21-2.46-18.44-13.51c2.09-8.35,16.2-7.45,23.67,0.2c2.62,2.68,2.17,2.46,2.17,4.73c0,1.76,7.5,1.56,7.5,0.1
		c0-20.32,2.01-17.46-6.21-17.46c-1.67,0-1.28,1.66-1.28,3.45c-0.1-0.1-0.2-0.1-0.2-0.1c-5.75-5.75-34.23-11.08-34.23,12.33
		c0,23.63,33.93,8.98,33.93,30.67c0,14.41-21.59,8.86-29.19-0.69c-4.28-5.38,4.04-6.31-7.69-6.31c-0.39,0-0.99,0.59-0.99,0.99
		c0,23.87-2.28,20.32,6.51,20.32C79.16,477.1,79.85,476.71,79.85,476.31L79.85,476.31z M124.62,454.91
		c6.13,37.38,46.26,30.44,46.26-8.19c0-44.34-46.75-45.54-46.75,0.1L124.62,454.91L124.62,454.91z M133.01,449.38
		c0-39.87,29.19-33.14,29.19-2.47c0,9.75-4.6,23.97-15.29,23.97C137.14,470.89,133.01,457.26,133.01,449.38L133.01,449.38z
		 M229.27,422.75v48.53c-19.22,0-16.77-1.76-16.77,6.9c0,1.08,1.38,1.48,2.17,1.48h38.86c3.03,0,2.27-1.95,2.27-7
		c0-2.51-13.07-1.38-18.05-1.38v-48.53c18.69,0,16.08,1.81,16.08-7.1c0-0.69-0.99-1.18-1.48-1.18h-37.68c-2.32,0-2.35,8.28,0.1,8.28
		H229.27L229.27,422.75z"/>
	<path class="st0" d="M601.35,479.59c14.51,0,10.12,0.98,23.59-1.09c12.57-3.95,19.56-17.77,19.56-32.97
		c0-19.71-8.66-31.69-26.87-31.69l-17.5,0.3c-4.75,0.37-3.45,8.29,0,8.29h5.09l-0.17,48.47c-2.36,0-6.9-0.68-6.9,4.34
		C598.14,477.52,599.62,479.3,601.35,479.59L601.35,479.59z M612.53,422.34c1-0.6,12.29-0.46,17.42,3.36
		c10.57,7.85,10.88,38.57-6.9,44.32c-3.53,1.09-7.15,0.99-10.68,0.99L612.53,422.34L612.53,422.34z M649.01,454.91
		c5.1,37.42,38.54,30.48,38.54-8.19c0-44.41-38.95-45.61-38.95,0.1L649.01,454.91L649.01,454.91z M656,449.39
		c0-39.85,24.33-33.22,24.33-2.47c0,8.67-3.39,23.99-12.74,23.99C659.31,470.91,656,456.96,656,449.39L656,449.39z M697.5,422.74
		v48.96h-4.03l0.17,8c18.42,0,14.63,2.48,14.63-7.6l-0.16-0.39h-3.37v-39.78l19.64,44.81c2.25,3.72,8.46,5.02,8.46-2.96v-51.23
		l4.36-0.3l-0.16-7.9H721.5l0.08,8.19h4.03v40.67l-18.57-42.94c-2.88-6.88-7.47-5.73-14.46-5.73v8.19H697.5L697.5,422.74z
		 M742.7,423.82c0,1.68,0.49,3.06,1.4,3.95c-1.63,2.84-4.02,5.62-2.06,7.21c2.25,1.8,4.43-5.49,5.59-6.61
		C755.23,420.98,742.7,415,742.7,423.82L742.7,423.82z M769.49,421.45v50.14c-10.14,0-8.63-1.39-8.63,6.91
		c0,0.69,0.74,1.19,1.15,1.19c26.67,0,22.93,2.34,22.93-6.91c0-1.83-5.46-1.18-8.14-1.18v-50.14c13.74,0,11.5-2.63,11.5,16.39
		c0,1.77,6.57,1.61,6.57,0.1v-23.49c0-0.69-0.66-0.99-0.99-1.09l-39.94-0.2c-0.41,0-0.99,0.49-0.99,0.99
		c0,28.24-2.05,24.48,5.59,24.48c3.29,0-2.1-17.18,4.36-17.18H769.49L769.49,421.45z"/>
	<path class="st0" d="M53.04,673.47c-10.2-1.09-8.54-2.67-9.63,7.42c-0.09,0.87,0.35,1.43,1.22,1.52l23.57,2.53
		c2.47,0.26,3.27-9.49,1.17-9.72l-5.61-0.6l1.93-17.96l14.06-11.11l13,31.67c-5.06-0.54-4.17-1.2-5.16,8.15
		c-0.07,0.62,0.86,1.35,1.49,1.42c26.85,2.86,22.64,5.18,23.84-5.89c0.24-2.25-3.99-1.94-7.82-2.35l-16.46-40.62l24.28-21.74
		c7.24,0.78,5.97,1.93,7.01-7.7c0.19-1.78-2.51-1.66-4.34-1.85c-25.08-2.69-21.1-4.45-22.22,6.07c-0.22,2.11,3.36,1.87,5.95,2.15
		l-31.95,26.22l3.14-29.31c9.33,1,7.69,2.33,8.75-7.51c0.05-0.5-0.6-1.45-1.22-1.52l-23.7-2.54c-2.24-0.24-3.08,9.51-1.17,9.71
		l6.73,0.72L53.04,673.47L53.04,673.47z M150.13,620.54l-5.14,61.5c-24.35-2.03-21.07-4-21.98,6.97c-0.11,1.38,1.59,2.02,2.59,2.1
		l49.25,4.11c3.85,0.32,3.08-2.24,3.62-8.63c0.07-0.88-1.23-1.86-2.1-1.94l-20.62-1.72l5.14-61.5c23.72,1.98,20.18,4.01,21.12-7.3
		c0.07-0.88-1.12-1.61-1.75-1.66l-47.75-3.99c-2.77-0.23-2.24,4.17-2.63,8.84C129.66,620.03,145.16,620.13,150.13,620.54
		L150.13,620.54z M190.53,695.82l62.17,4.54c0.88-0.06,1.91-0.37,1.97-1.25l1.75-25.4c0.14-2-10.25-2.67-10.39-0.72l-1.13,16.39
		l-36.17-2.49l4.28-62.07c15.48,1.07,13.11,3.15,13.86-7.72c0.04-0.63-0.52-1.55-1.4-1.61l-28.91-1.99
		c-2.35-0.16-2.69,10-0.82,10.13l6.13,0.42l-4.28,62.07c-10.47-0.72-8.77-1.21-9.36,8.15C188.18,695.44,189.88,695.69,190.53,695.82
		L190.53,695.82z M265.72,700.63l62.28,2.61c0.88-0.09,1.9-0.43,1.93-1.31l0.97-25.44c0.07-2-10.33-2.36-10.4-0.39l-0.62,16.42
		l-36.22-1.37l2.36-62.17c15.51,0.59,13.2,2.74,13.61-8.14c0.02-0.63-0.57-1.53-1.45-1.56l-28.95-1.1
		c-2.35-0.09-2.38,10.08-0.51,10.15l6.14,0.23l-2.36,62.17c-10.4-0.4-8.79-0.97-9.11,8.44c0,0.13,0,0.13,0.12,0.13
		C264.1,700.32,264.73,700.47,265.72,700.63L265.72,700.63z M406.06,694.29c-6.25-0.03-4.75-2.09-4.82,9.63c0,0.38,0.12,0.5,0.5,0.5
		l26.97-0.36c0.07-12.17,1.67-9.49-5.59-9.69c-2.89-0.14-2.75-1.52-2.74-3.9l0.13-23.83c9.31,0.05,16.5,1.55,26.6-1.49
		c26.8-8.06,22.65-43.65-13.69-43.85l-29.73,0.09l-0.05,9.91l5.9,0.03l-0.32,60.58C409.2,693.81,407.56,694.18,406.06,694.29
		L406.06,694.29z M420.57,655.49l0.13-23.58l17.56,0.34c15.86,0.85,26.66,23.84-7.65,23.67
		C429.22,655.91,421.95,655.49,420.57,655.49L420.57,655.49z M477.9,632.5l0.99,61.45c-8.13,0.13-6.65,0.17-6.51,8.89
		c0.02,1,2.28,1.47,2.91,1.46l59.82-0.97c0.5-0.01,1.25-0.4,1.23-1.27l-0.41-25.21c-0.03-1.93-9.56-1.56-9.53,0.15l0.26,16.18
		l-35.87,0.58l-0.42-26.21l14.42-0.23c0.2,12.16-1.9,10.19,9.2,10.01c0.38-0.01,1.24-0.52,1.24-1.02l-0.47-28.97
		c-0.03-2.03-10.32-1.84-10.28,0.17l0.15,9.16l-14.42,0.23l-0.4-24.58l35.49-0.57c0.33,20.28-2.13,17.22,8.93,17.04
		c0.38-0.01,1-0.52,0.99-1.02l-0.41-25.46c-0.01-0.38-0.64-1.12-1.02-1.11l-58.82,0.95c-4.78,0.08-3.59,3.29-3.5,8.46
		C471.5,632.54,476.45,632.52,477.9,632.5L477.9,632.5z M546.53,671.55c9.58,47.2,60.25,36.46,58.39-12.63
		c-1.76-46.52-45.67-56.95-56.91-17.93c-1.82,6.31-3.36,22.66-2.24,23.68C545.8,665.68,546.48,670.17,546.53,671.55L546.53,671.55z
		 M556.92,664.13c-1.93-50.66,35.51-43.53,36.98-4.54c0.47,12.4-4.69,30.68-18.27,31.19C563.2,691.25,557.29,674.13,556.92,664.13
		L556.92,664.13z M616.26,689.97c-6.24,0.38-4.87-1.77-4.18,9.93c0.02,0.37,0.15,0.49,0.53,0.47l26.89-2.12
		c-0.73-12.14,1.06-9.58-6.22-9.3c-2.89,0.05-2.84-1.34-2.99-3.71l-1.43-23.79c9.3-0.56,16.57,0.47,26.45-3.23
		c26.21-9.8,19.74-45.04-16.53-42.86l-30.01,2.43c0.71,11.82-1.32,9.63,6.83,9.14l3.64,60.47
		C619.36,689.29,617.76,689.76,616.26,689.97L616.26,689.97z M628.2,650.3l-1.42-23.54l17.54-0.81c15.9-0.19,28.14,22.06-6.09,24.12
		C636.86,650.16,629.58,650.22,628.2,650.3L628.2,650.3z M684.26,694.84l62.14-4.94c0.86-0.2,1.83-0.66,1.76-1.53L746.04,663
		c-0.17-2-10.54-1.09-10.37,0.87l1.37,16.37l-36.12,3.02l-5.18-62c15.47-1.29,13.43,1.13,12.53-9.73c-0.05-0.63-0.75-1.45-1.63-1.38
		l-28.87,2.41c-2.34,0.2-1.14,10.29,0.72,10.14l6.13-0.51l5.18,62c-10.47,0.87-8.79,0.14-8.02,9.48c0.01,0.06,0.02,0.09,0.02,0.11
		C682.04,694.81,682.97,694.79,684.26,694.84L684.26,694.84z M755.41,618.09l7.19,61.04c-8.08,0.95-6.59,0.84-5.57,9.5
		c0.12,1,2.42,1.23,3.04,1.16l59.42-7c0.5-0.06,1.2-0.52,1.1-1.39l-2.95-25.04c-0.23-1.92-9.67-0.59-9.47,1.12l1.89,16.07
		l-35.63,4.2l-3.07-26.03l14.33-1.69c1.43,12.11-0.86,10.32,10.16,9.03c0.37-0.04,1.19-0.64,1.13-1.14l-3.39-28.78
		c-0.24-2.01-10.45-0.79-10.21,1.2l1.07,9.09l-14.33,1.69l-2.88-24.42l35.25-4.15c2.37,20.14-0.38,17.35,10.6,16.05
		c0.37-0.04,0.94-0.62,0.88-1.11L811,602.2c-0.04-0.37-0.75-1.05-1.13-1l-58.42,6.88c-4.75,0.56-3.23,3.64-2.63,8.77
		C749.05,618.8,754.04,618.25,755.41,618.09L755.41,618.09z"/>
	<path class="st1" d="M401.23,436.26c13.81,0,25,11.2,25,25c0,1.28-0.1,2.54-0.28,3.77c-1.78-0.64-3.63-1.05-5.52-1.22
		c0.11-0.84,0.17-1.69,0.17-2.55c0-5.35-2.17-10.19-5.67-13.69c-3.5-3.51-8.35-5.67-13.69-5.67c-5.35,0-10.19,2.17-13.69,5.67
		c-3.51,3.5-5.67,8.35-5.67,13.69c0,5.35,2.17,10.19,5.67,13.7c2.65,2.65,6.06,4.53,9.87,5.3c-0.46,1.83-0.68,3.72-0.65,5.61
		c-11.67-2.11-20.53-12.32-20.53-24.61C376.23,447.46,387.42,436.26,401.23,436.26L401.23,436.26z M413.93,448.57
		c-3.25-3.25-7.74-5.26-12.7-5.26c-4.96,0-9.45,2.01-12.7,5.26c-3.25,3.25-5.26,7.74-5.26,12.7c0,4.96,2.01,9.45,5.26,12.7
		c2.48,2.48,5.68,4.24,9.26,4.93c1.58-4.97,4.95-9.39,9.81-12.21c3.6-2.09,7.54-3.03,11.41-2.95c0.11-0.81,0.17-1.63,0.17-2.47
		C419.19,456.31,417.18,451.82,413.93,448.57L413.93,448.57z M407.3,452.46c1.85,0,3.35,1.5,3.35,3.35c0,1.85-1.5,3.35-3.35,3.35
		c-1.85,0-3.34-1.5-3.34-3.35C403.96,453.96,405.45,452.46,407.3,452.46L407.3,452.46z M395.15,463.38c1.85,0,3.35,1.5,3.35,3.35
		c0,1.85-1.5,3.34-3.35,3.34c-1.85,0-3.34-1.5-3.34-3.34C391.81,464.88,393.31,463.38,395.15,463.38L395.15,463.38z M435.46,475.7
		c5.43,9.34,2.25,21.32-7.1,26.74c-9.34,5.43-21.32,2.25-26.74-7.1c-5.43-9.34-2.25-21.32,7.09-26.74
		C418.06,463.18,430.04,466.36,435.46,475.7L435.46,475.7z M431.65,477.91c2.1,3.62,2.53,7.75,1.54,11.5
		c-1,3.75-3.42,7.12-7.04,9.22c-3.62,2.1-7.75,2.53-11.5,1.54c-3.75-1-7.12-3.42-9.22-7.04c-2.1-3.62-2.54-7.75-1.54-11.5
		c1-3.75,3.42-7.12,7.04-9.22c3.62-2.1,7.75-2.54,11.5-1.54C426.18,471.87,429.55,474.3,431.65,477.91L431.65,477.91z
		 M432.13,489.13c0.92-3.48,0.52-7.3-1.43-10.66c-1.95-3.36-5.07-5.6-8.55-6.53c-3.47-0.92-7.3-0.52-10.66,1.43
		c-3.36,1.95-5.6,5.07-6.52,8.55c-0.92,3.48-0.52,7.3,1.43,10.66c1.95,3.36,5.07,5.61,8.55,6.53c3.48,0.92,7.31,0.52,10.66-1.43
		C428.96,495.73,431.21,492.61,432.13,489.13L432.13,489.13z M426.89,486.18c0.73,1.25,0.3,2.85-0.95,3.58
		c-1.25,0.73-2.85,0.3-3.58-0.95c-0.73-1.25-0.3-2.85,0.95-3.58C424.56,484.5,426.16,484.93,426.89,486.18L426.89,486.18z
		 M414.73,482.24c0.73,1.25,0.3,2.85-0.95,3.58c-1.25,0.72-2.85,0.3-3.58-0.95c-0.73-1.25-0.3-2.85,0.95-3.58
		C412.4,480.57,414,480.99,414.73,482.24L414.73,482.24z"/>
	<path class="st1" d="M554.83,408.68c9.23,2.21-2.09,22.78-3.38,27.53c-1.17,4.33-11.8,54.47-14.27,53.96
		c-1.14-0.24,6.8-37.12,9.63-54.57C547.23,433.07,544.12,406.12,554.83,408.68L554.83,408.68z M549.55,429.11
		c-0.19-0.64-0.25-1.9-0.22-3.33c0.03-1.43,0.13-3.02,0.33-4.64c0.2-1.63,0.49-3.29,0.96-4.63c0.47-1.33,1.11-2.33,1.68-2.85
		c1.06-0.98,2.16-0.73,2.71,0.6c0.3,0.72,0.46,1.89,0.33,3.3c-0.14,1.41-0.57,3.04-1.08,4.6c-0.5,1.56-1.08,3.05-1.65,4.35
		c-0.58,1.31-1.16,2.43-1.6,2.93C550.5,430.01,549.77,429.85,549.55,429.11L549.55,429.11z"/>
	<path class="st1" d="M352.85,546.74c-0.95,2.82,1.19,4.75,4.45,6.12c-0.02,1.03,0.11,2.04,0.34,3.02c0.3,1.29,0.81,2.55,1.56,3.76
		c0.75,1.2,1.74,2.33,3.04,3.38c1.24,0.99,2.75,1.9,4.28,2.69c1.45,0.75,2.97,1.41,4.28,1.95c1.24,0.51,2.27,0.89,3.15,1.22
		c0.91,0.34,1.69,0.63,2.25,0.88c0.55,0.24,1.05,0.51,1.56,0.94c0.56,0.47,1.16,1.14,1.89,2.19c0.79,1.13,1.71,2.65,2.7,4.37
		c-18.32-6.95-34.8-17.63-48.52-31.12c1.82-1.98,3.66-3.91,5.72-5.56c1.17-0.94,2.42-1.79,3.75-2.51c1.32-0.71,2.73-1.29,4.22-1.68
		c1.39-0.36,2.89-0.57,4.36-0.67c1.73-0.11,3.42-0.06,4.85,0.09c1.27,0.13,2.32,0.34,3.19,0.64c0.77,0.27,1.4,0.63,1.91,1.1
		c0.49,0.46,0.88,1.03,1.05,1.66c0.14,0.54,0.14,1.14-0.09,1.79c-0.34,0.97-1.19,2.18-2.06,3.41l-0.12,0.16
		C357.03,543.38,353.93,543.51,352.85,546.74L352.85,546.74z M360.83,554.05c5.17,1.42,11.23,2,13.24,2.62
		c3.63,1.1,44.29,15.97,45.03,13.98c0.34-0.93-29.62-11.77-43.39-17.57c-1.05-0.44-6.46-4.58-11.81-7.15
		c0.88-1.26,1.71-2.5,2.15-3.79c0.47-1.36,0.48-2.66,0.17-3.82c-0.35-1.3-1.1-2.43-2.06-3.32c-0.86-0.79-1.88-1.39-3.1-1.82
		c-1.13-0.4-2.45-0.66-4-0.82c-1.61-0.16-3.49-0.22-5.42-0.1c-1.66,0.11-3.38,0.35-5.01,0.78c-1.79,0.47-3.45,1.15-4.99,1.98
		c-1.53,0.82-2.96,1.8-4.28,2.86c-2.21,1.77-4.12,3.77-5.99,5.8c-3.3-3.41-6.43-6.99-9.37-10.72c-2.31,2.16-4.84,3.96-7.59,5.39
		c3.73,4.75,7.73,9.27,11.99,13.54c27.02,27.02,64.35,43.74,105.59,43.74c9.78,0,19.33-0.94,28.58-2.73
		c-3.64-2.5-7.26-5.06-10.84-7.67c-5.81,0.73-11.73,1.11-17.74,1.11c-15.62,0-30.65-2.56-44.68-7.28c-1.77-3.21-3.47-6.2-4.83-8.14
		c-0.94-1.33-1.74-2.22-2.5-2.86c-0.81-0.68-1.56-1.08-2.38-1.45c-0.82-0.37-1.57-0.64-2.46-0.97c-0.85-0.32-1.85-0.69-3.04-1.17
		c-1.18-0.48-2.58-1.1-4-1.83c-1.34-0.69-2.66-1.47-3.69-2.31c-0.98-0.78-1.72-1.63-2.27-2.5c-0.54-0.86-0.9-1.78-1.13-2.73
		C360.94,554.73,360.88,554.39,360.83,554.05L360.83,554.05z M297,483.57c-3.27-11.87-5.02-24.38-5.02-37.3
		c0-31.44,10.36-60.46,27.86-83.83c-0.4-0.61-0.71-1.26-0.91-1.95c-1.72-6.1-0.93-12.58,4.97-16.06c4.74-2.8,12.17-4.6,18.12-5.44
		c24.33-20.43,55.72-32.74,89.99-32.74c24.45,0,47.44,6.27,67.44,17.28l17.72,0.08c-24.16-16.8-53.51-26.65-85.16-26.65
		c-41.23,0-78.56,16.71-105.59,43.74c-6.29,6.29-12.02,13.13-17.1,20.45H129.98c-27.81,0-50.75,9.04-67.02,23.69
		C45.69,400.4,36,422.22,36,446.28c0,25.58,10.39,46.08,26.49,60.59c17.71,15.95,42.32,24.55,67.5,24.55h138.48
		c-3.36-2.68-6.36-5.81-8.66-9.29H129.98c-22.96,0-45.31-7.75-61.29-22.15c-14.22-12.81-23.4-30.97-23.4-53.69
		c0-21.39,8.58-40.77,23.88-54.54c14.62-13.17,35.42-21.29,60.81-21.29h173.36c-11.68,19.77-18.93,42.46-20.39,66.72l-0.04,0.7
		l-0.04,0.7l0,0.04l-0.01,0.18l-0.06,1.38l-0.03,0.67l-0.04,1.23l-0.01,0.37l0,0.12l-0.03,1.62l0,0.18l0,0.11l-0.01,1.82l0.01,1.82
		l0,0.11l0,0.19l0.03,1.62l0,0.11l0.01,0.37l0.04,1.23l0.03,0.67l0.06,1.38l0.01,0.18l0,0.04l0.04,0.7l0.04,0.7
		c0.55,9.14,1.92,18.06,4.05,26.68C290.3,482.26,293.66,482.81,297,483.57L297,483.57z M477.48,588.54
		c22.94-7.33,43.48-20.05,60.1-36.68c6.29-6.29,12.01-13.13,17.1-20.45h179.33c25.18,0,49.79-8.59,67.5-24.54
		c16.1-14.5,26.49-35,26.49-60.59c0-24.05-9.69-45.88-26.97-61.44c-16.26-14.65-39.21-23.69-67.02-23.69H588.78
		c-0.42,3.8-2.01,7.35-4.66,9.29h149.89c25.39,0,46.2,8.12,60.81,21.29c15.29,13.78,23.88,33.16,23.88,54.54
		c0,22.72-9.18,40.88-23.4,53.69c-15.98,14.4-38.33,22.15-61.29,22.15H560.65c11.68-19.77,18.93-42.47,20.39-66.72l0.04-0.7
		l0.04-0.7l0-0.04l0.01-0.18l0.06-1.38l0.03-0.67l0.04-1.23l0.01-0.37l0-0.11l0.03-1.62l0-0.19l0-0.11l0.01-1.82l-0.01-1.82l0-0.11
		l0-0.18l-0.03-1.62l0-0.12l-0.01-0.37l-0.04-1.23l-0.03-0.67l-0.06-1.38l-0.01-0.18l0-0.04l-0.04-0.7l-0.04-0.7
		c-1.42-23.63-8.34-45.78-19.5-65.18l-9.62,0c0.13,0.86,0.26,1.73,0.39,2.62c12.52,20.97,19.71,45.49,19.71,71.68
		c0,38.67-15.67,73.68-41.01,99.02c-16.57,16.58-37.29,29.01-60.46,35.64l0.67,0.73C473.32,583.94,475.41,586.23,477.48,588.54
		L477.48,588.54z M362.51,547.94c-0.31,0.47-0.59,0.93-0.81,1.37c-0.44,0.86-0.71,1.7-0.83,2.53c0.61,0.2,1.25,0.38,1.88,0.54
		c1.34,0.34,2.66,0.59,3.86,0.77c1.2,0.17,2.26,0.26,2.82,0.17c0.64-0.11,0.86-0.7,0.43-1.19c-0.37-0.42-1.25-1.03-2.29-1.65
		c-1.04-0.62-2.22-1.25-3.47-1.84C363.56,548.38,363.03,548.15,362.51,547.94L362.51,547.94z M357.64,550.26
		c0.21-0.84,0.53-1.69,0.96-2.53c0.12-0.23,0.24-0.46,0.37-0.68c-0.58-0.03-1.07,0.02-1.43,0.12c-1.18,0.32-1.49,1.22-0.79,2.21
		C356.95,549.65,357.25,549.95,357.64,550.26L357.64,550.26z"/>
	<path class="st1" d="M484.67,560.53c67.65,17.6-77.73-46.17-79.75-47.11l33.62,34.65L484.67,560.53L484.67,560.53z M369.67,514.87
		c0.02,0.46,0,0.96-0.09,1.46l8.27-0.98c-0.95,12.21-2.69,8.44,4.82,15.81l-16.44-5.61c-4.19,11.17-32.23-12.08-42.82,1.33
		c-26.2,33.15-85.96-8.6-57.89-34.75c15.19-14.15,38.54-3.43,54.87,2.51l48.69,18.1C369.38,513.2,369.62,514.02,369.67,514.87
		L369.67,514.87z M276.92,519.94c26.07,20.21,51.69-2.61,26.44-18.28C282.22,488.54,261.49,508,276.92,519.94L276.92,519.94z
		 M369.82,502.66c-10.54-9.2-48.48-41.46-54.66-50.62c-25.83-38.3,23.12-58.68,48-20.04c10.6,16.47-0.64,28.93-0.03,33.17
		c1.19,8.24,26.88,23.47,21,31.39c10.83,9.31,101.28,102.47,99.58,104.79c-4.45,6.07-92.24-64.64-104.52-76.72
		c0.8-9.61,2.46-12.3-1.67-20.49C374.2,507,373.19,505.59,369.82,502.66L369.82,502.66z M326.75,447.89
		c19.72,19.73,41.2,5.47,22.25-13.85C329.17,413.82,309.69,430.84,326.75,447.89L326.75,447.89z M390.11,521.31
		c0.69-6.24,10.2-5.19,9.51,1.05C398.94,528.58,389.42,527.55,390.11,521.31L390.11,521.31z"/>
	<path class="st2" d="M374.53,502.02c22.52-13.99-22.18-23.68-13.26-43.14c16.45-35.89-49.02-63.13-49.4-26.98
		c-0.21,19.82,24.41,36.12,39.76,49.85L372.15,500C373.28,500.98,374.05,501.65,374.53,502.02L374.53,502.02z M331.76,456.11
		c-31.72-18.54-7.22-52.05,19.76-24.56C368.59,448.95,356.88,470.83,331.76,456.11L331.76,456.11z M366.08,515.8
		c-18.16-7.31-69.43-28.56-83.26-27.13c-33.13,3.44-24.54,42.41,11.39,46.62c30.99,3.63,18-22.91,49.62-14.49l18.58,4.52
		L366.08,515.8L366.08,515.8z M309.88,502.23c19.11,18.02-2.25,39.83-31.22,23.1C249.8,508.66,285.28,479.03,309.88,502.23
		L309.88,502.23z"/>
	<path class="st2" d="M530,525.99c8.41-5.85,8.29-3.34-7.69-15.08l-1.96-1.45l-9.14,7.84C528.28,529.53,525.58,529.06,530,525.99
		L530,525.99z M465.21,353.41l1.5,10.01l5.93,0.01l-0.05-10.02H465.21L465.21,353.41z M497.85,353.41l0.05,10.15l11.68,0.06
		l-2.15-10.21H497.85L497.85,353.41z M432.72,404.77c7.72,2.78,14.86,10.64,17.43,18.4c7.01,21.17,6.34,22.43,10.72,44.76
		c4.09,20.85,5.7,25.96-10.34,38.23c-2.78,2.13-4.1,1.04,7.84,7.14c11.19,5.71,6.85,5.41,24.3,4.52c20.34-1.04,14,1.34,32.3-14.41
		c7.58-6.52,7-2.27,3.28-22.08l-8.7-45.34c-5.12-20.96-7.82-34.03,16.84-40.43c23.39-6.07,17.67-9.64,14.95-34.19
		c-3.58-32.37-3.66-28.46-26.43-28.62c-13.47-0.09-138.66-1.04-145.31,1.68L354.63,341l-0.68,29.06
		c0.69,1.73,18.03,15.89,23.08,18.4c13.45,6.67,14.88,4.85,27.87,7.96L432.72,404.77L432.72,404.77z M516.74,370.15l-54.8-0.28
		l-4.48-29.82l3.29,0.01l49.68,0.09L516.74,370.15L516.74,370.15z"/>
</g>
</svg>
