<?xml version="1.0" encoding="utf-8"?>
<!-- Generator: Adobe Illustrator 25.0.0, SVG Export Plug-In . SVG Version: 6.00 Build 0)  -->
<svg version="1.1" id="Layer_1" xmlns="http://www.w3.org/2000/svg" xmlns:xlink="http://www.w3.org/1999/xlink" x="0px" y="0px"
	 viewBox="0 0 864 864" style="enable-background:new 0 0 864 864;" xml:space="preserve">
<style type="text/css">
	.st0{fill:#2E3445;}
	.st1{fill-rule:evenodd;clip-rule:evenodd;fill:#2E3445;}
</style>
<g>
	<path class="st0" d="M335.8,272.76c3.78,0,6.73-3.05,6.73-6.73v-42.36c0-3.68-2.94-6.73-6.73-6.73c-3.68,0-6.73,3.05-6.73,6.73
		v42.36C329.08,269.71,332.12,272.76,335.8,272.76L335.8,272.76z M360.82,235.13c2.73,0,4.84-2.21,4.84-4.84v-13.46
		c0-2.63-2.1-4.83-4.84-4.83h-2.94c-2.94,0-5.26,2.73-4.73,5.68l2.1,13.35c0.32,2.31,2.42,4.1,4.73,4.1H360.82L360.82,235.13z
		 M420.53,220.72l-13.14,29.78l-13.03-29.78c-1.05-2.31-3.26-3.78-5.78-3.78h-5.36c-3.36,0-6.2,2.84-6.2,6.2v42.89
		c0,3.68,3.05,6.73,6.73,6.73c3.68,0,6.73-3.05,6.73-6.73v-20.55l8.72,19.83c1.05,2.4,3.47,3.98,6.2,3.98h4.1
		c2.63,0,5.05-1.58,6.1-3.98l8.72-19.83v20.55c0,3.68,3.05,6.73,6.73,6.73c3.78,0,6.73-3.05,6.73-6.73v-42.89
		c0-3.36-2.73-6.2-6.2-6.2h-5.36C423.79,216.94,421.47,218.41,420.53,220.72L420.53,220.72z M526.06,272.76
		c4.84,0,8.09-4.8,6.41-9.16l-15.77-40.66c-3.06-7.95-14.18-7.95-17.24,0l-15.77,40.66c-1.68,4.36,1.58,9.16,6.41,9.16
		c2.84,0,5.47-1.77,6.41-4.48l0.95-2.59c0.63-1.77,2.42-3.01,4.31-3.01h12.61c1.89,0,3.68,1.24,4.31,3.01l0.95,2.59
		C520.6,270.99,523.12,272.76,526.06,272.76L526.06,272.76z M503.04,249.95l4.2-11.77c0.32-0.84,1.37-0.84,1.68,0l4.2,11.88
		c0.42,1.16-0.42,2.31-1.68,2.31h-6.73C503.46,252.36,502.62,251.21,503.04,249.95L503.04,249.95z"/>
	<path class="st0" d="M67.89,282.71c-18.05,0-32.89,14.84-32.89,32.85v73.77c0,18.01,14.84,32.85,32.89,32.85
		c4.45,0,8.65-0.74,12.36-2.47c10.63-3.96,13.35-6.68,18.05-17.31c1.48-3.92,2.47-8.12,2.47-12.32v-3.46c0-1.98-1.48-3.46-3.46-3.46
		H82.97c-1.98,0-3.46,1.48-3.46,3.46v3.46c0,5.93-5.19,10.84-11.62,10.84c-6.43,0-11.62-5.15-11.62-11.58v-73.77
		c0-6.43,5.19-11.58,11.62-11.58c6.18,0,11.37,4.9,11.37,10.84v3.46c0,1.98,1.48,3.46,3.46,3.46h14.59c3.83,0,3.21-3.92,3.21-6.68
		c0-4.45-0.74-8.65-2.47-12.57C92.62,289.51,81.73,282.71,67.89,282.71L67.89,282.71z M142.56,303.23c7.67,0,14.09,6.43,14.09,14.09
		v19.78c0,7.67-6.43,14.09-14.09,14.09h-4.2c-3.96,0-4.45-2.47-4.45-23.99s0.49-23.99,4.2-23.99H142.56L142.56,303.23z
		 M178.42,337.36v-19.78c0-19.53-15.83-35.36-35.36-35.36h-22.5c-4.45,0-7.42,2.97-7.42,7.42v125.12c0,4.45,2.97,7.42,7.42,7.42
		h6.43c4.45,0,7.42-2.97,7.42-7.42v-21.02c0-19.04,0.25-21.02,3.21-21.02c2.97,0,4.2,2.23,12.12,22.5
		c8.16,20.03,8.41,23.49,11.87,25.72c0.99,0.74,2.47,1.24,3.96,1.24h6.92c3.21,0,5.44-0.99,6.68-2.72
		c3.71-5.69-0.74-9.64-8.65-29.67c-7.91-20.03-8.65-22.5-6.18-23.99C173.47,358.87,178.42,349.23,178.42,337.36L178.42,337.36z
		 M232.57,353.18c3.19-13.28,3.61-11.75,6.43,0c2.97,12.36,2.47,13.85-3.21,13.85C230.1,367.03,229.6,365.55,232.57,353.18
		L232.57,353.18z M196.96,413.02c-1.48,5.44,1.48,9.15,7.17,9.15h6.43c3.46,0,6.43-2.23,7.17-5.69l3.46-14.09
		c2.97-12.61,4.45-14.09,14.84-14.09c10.14,0,11.62,1.48,14.59,14.09c2.97,12.61,2.47,15.58,5.93,18.3c1.24,0.99,2.97,1.48,4.7,1.48
		h6.43c5.69,0,8.65-3.71,7.17-9.15l-29.43-125.37c-0.74-3.46-3.71-5.69-7.17-5.69h-4.7c-3.46,0-6.43,2.23-7.17,5.69L196.96,413.02
		L196.96,413.02z M295.37,422.17h6.43c4.45,0,7.42-2.97,7.42-7.42v-27.2c0-24.48,0.49-27.2,5.44-27.2h5.19
		c4.45,0,7.42-2.97,7.42-7.42v-6.43c0-4.45-2.97-7.42-7.42-7.42h-5.19c-4.95,0-5.44-1.73-5.44-17.8s0.99-17.8,10.14-17.8h9.89
		c4.45,0,7.42-2.97,7.42-7.42v-6.68c0-4.45-2.97-7.42-7.42-7.42h-33.63c-4.45,0-7.42,2.97-7.42,7.42l-0.25,125.37
		C287.96,419.2,290.92,422.17,295.37,422.17L295.37,422.17z M356.7,303.48h6.43c5.93,0,6.68,5.44,6.68,55.64v55.64
		c0,4.45,2.97,7.42,7.42,7.42h6.43c4.45,0,7.42-2.97,7.42-7.42v-55.64c0-50.2,0.74-55.64,6.43-55.64h6.68
		c4.45,0,7.42-2.97,7.42-7.42v-6.43c0-4.45-2.97-7.42-7.42-7.42h-47.72c-4.45,0-7.42,2.97-7.42,7.42l0.25,6.43
		C349.28,300.51,352.24,303.48,356.7,303.48L356.7,303.48z M446.95,353.18c3.19-13.28,3.61-11.75,6.43,0
		c2.97,12.36,2.47,13.85-3.21,13.85C444.48,367.03,443.98,365.55,446.95,353.18L446.95,353.18z M411.34,413.02
		c-1.48,5.44,1.48,9.15,7.17,9.15h6.43c3.46,0,6.43-2.23,7.17-5.69l3.46-14.09c2.97-12.61,4.45-14.09,14.84-14.09
		c10.14,0,11.62,1.48,14.59,14.09c2.97,12.61,2.47,15.58,5.93,18.3c1.24,0.99,2.97,1.48,4.7,1.48h6.43c5.69,0,8.65-3.71,7.17-9.15
		l-29.43-125.37c-0.74-3.46-3.71-5.69-7.17-5.69h-4.7c-3.46,0-6.43,2.23-7.17,5.69L411.34,413.02L411.34,413.02z M536.21,341.56
		c-11.37,0-12.61-2.47-12.61-25.96v-26.21c0-4.45-2.97-7.42-7.42-7.42h-6.43c-4.45,0-7.42,2.97-7.42,7.42v125.37
		c0,4.45,2.97,7.42,7.42,7.42h6.43c4.45,0,7.42-2.97,7.42-7.42v-26.21c0-23.49,1.24-25.96,12.61-25.96
		c11.13,0,12.36,2.47,12.36,25.96v26.21c0,4.45,2.97,7.42,7.42,7.42h6.43c4.45,0,7.42-2.97,7.42-7.42V289.39
		c0-4.45-2.97-7.42-7.42-7.42h-6.43c-4.45,0-7.42,2.97-7.42,7.42v25.96C548.58,339.09,547.34,341.56,536.21,341.56L536.21,341.56z
		 M615.34,282.46c-18.05,0-32.89,14.84-32.89,32.89v73.93c0,18.05,14.84,32.89,32.89,32.89c18.05,0,32.89-14.84,32.89-32.89v-73.93
		C648.23,297.3,633.39,282.46,615.34,282.46L615.34,282.46z M626.96,389.28c0,6.43-5.19,11.62-11.62,11.62
		c-6.43,0-11.62-5.19-11.62-11.62v-73.93c0-6.43,5.19-11.62,11.62-11.62c6.43,0,11.62,5.19,11.62,11.62V389.28L626.96,389.28z
		 M674.68,282.22h-6.43c-4.45,0-7.42,2.97-7.42,7.42v125.12c0,4.45,2.97,7.42,7.42,7.42h39.07c4.45,0,7.42-2.97,7.42-7.42v-6.43
		c0-4.45-2.97-7.42-7.42-7.42h-12.61c-11.37,0-12.61-5.44-12.61-55.64v-55.64C682.1,285.18,679.13,282.22,674.68,282.22
		L674.68,282.22z M748.62,414.75V289.39c0-4.45-2.97-7.42-7.42-7.42h-6.43c-4.45,0-7.42,2.97-7.42,7.42v125.37
		c0,4.45,2.97,7.42,7.42,7.42h6.43C745.65,422.17,748.62,419.2,748.62,414.75L748.62,414.75z M794.11,282.71
		c-18.05,0-32.89,14.84-32.89,32.85v73.77c0,18.01,14.84,32.85,32.89,32.85c4.45,0,8.65-0.74,12.36-2.47
		c10.63-3.96,13.35-6.68,18.05-17.31c1.48-3.92,2.47-8.12,2.47-12.32v-3.46c0-1.98-1.48-3.46-3.46-3.46H809.2
		c-1.98,0-3.46,1.48-3.46,3.46v3.46c0,5.93-5.19,10.84-11.62,10.84c-6.43,0-11.62-5.15-11.62-11.58v-73.77
		c0-6.43,5.19-11.58,11.62-11.58c6.18,0,11.37,4.9,11.37,10.84v3.46c0,1.98,1.48,3.46,3.46,3.46h14.59c3.83,0,3.21-3.92,3.21-6.68
		c0-4.45-0.74-8.65-2.47-12.57C818.82,289.46,807.81,282.71,794.11,282.71L794.11,282.71z"/>
	<path class="st0" d="M89.42,430.81c-15.45,0-27.96,12.51-27.96,27.91c0,15.5,12.51,28.01,27.96,28.01
		c15.45,0,28.07-12.51,28.07-28.01C117.49,443.32,104.87,430.81,89.42,430.81L89.42,430.81z M89.42,473.28
		c-7.99,0-14.51-6.48-14.51-14.56c0-7.97,6.52-14.45,14.51-14.45c8.09,0,14.51,6.48,14.51,14.45
		C103.93,466.8,97.52,473.28,89.42,473.28L89.42,473.28z M159.96,437.12v25.28l-18.4-27.8c-1.58-2.31-4.1-3.68-6.94-3.68h-2.84
		c-3.47,0-6.2,2.84-6.2,6.2v43.41c0,3.47,2.73,6.2,6.2,6.2h1.05c3.47,0,6.2-2.73,6.2-6.2v-25.28l18.4,27.8
		c1.47,2.31,4.1,3.68,6.83,3.68h2.94c3.36,0,6.2-2.73,6.2-6.2v-43.41c0-3.36-2.84-6.2-6.2-6.2h-1.05
		C162.69,430.92,159.96,433.76,159.96,437.12L159.96,437.12z M264.86,437.64c0-3.68-2.94-6.73-6.73-6.73h-32.48
		c-3.68,0-6.73,3.05-6.73,6.73c0,3.78,3.05,6.83,6.73,6.83h5.47c2.31,0,4.2,1.77,4.2,4.19v31.36c0,3.77,3.05,6.71,6.83,6.71
		c3.68,0,6.73-2.94,6.73-6.71v-31.36c0-2.42,1.89-4.19,4.2-4.19h5.05C261.92,444.48,264.86,441.43,264.86,437.64L264.86,437.64z
		 M308.91,437.64v10.2c0,2.42-1.89,4.31-4.31,4.31h-11.46c-2.42,0-4.31-1.89-4.31-4.31v-10.2c0-3.68-2.94-6.73-6.73-6.73
		c-3.68,0-6.73,3.05-6.73,6.73v42.4c0,3.64,3.05,6.69,6.73,6.69c3.78,0,6.73-3.05,6.73-6.69v-10.16c0-2.4,1.89-4.27,4.31-4.27h11.46
		c2.42,0,4.31,1.87,4.31,4.27v10.16c0,3.64,2.94,6.69,6.73,6.69c3.68,0,6.73-3.05,6.73-6.69v-42.4c0-3.68-3.05-6.73-6.73-6.73
		C311.85,430.92,308.91,433.97,308.91,437.64L308.91,437.64z M377.44,437.64c0-3.68-2.94-6.73-6.73-6.73h-31.85
		c-3.26,0-5.99,2.73-5.99,5.99v43.94c0,3.26,2.73,5.99,5.99,5.99h31.85c3.78,0,6.73-3.05,6.73-6.73c0-3.68-2.94-6.73-6.73-6.73
		h-20.5c-2.1,0-3.89-1.79-3.89-3.89s1.79-3.89,3.89-3.89h12.4c3.68,0,6.73-3.05,6.73-6.73c0-3.68-3.05-6.73-6.73-6.73h-12.4
		c-2.1,0-3.89-1.79-3.89-3.89s1.79-3.89,3.89-3.89h20.5C374.5,444.37,377.44,441.43,377.44,437.64L377.44,437.64z M458.49,465.71
		c5.21-2.66,9.47-8.34,9.88-14.09c0.11-0.74,0.21-1.58,0.21-2.31c0-10-8.24-18.4-18.5-18.4h-21.23c-3.26,0-5.89,2.63-5.89,5.99
		v43.13c0,3.66,3.05,6.69,6.73,6.69c3.68,0,6.73-3.03,6.73-6.69v-8.48c0-4.56,6.77-5.36,9.46-0.72l7.25,12.54
		c1.26,2.09,3.47,3.35,5.89,3.35c5.15,0,8.41-5.55,5.78-10.04L458.49,465.71L458.49,465.71z M436.41,446.16c0-2.31,1.89-4.1,4.2-4.1
		h8.2c3.89,0,7.04,3.15,7.04,7.04v0.53c0,3.89-3.15,7.04-7.04,7.04h-8.2c-2.31,0-4.2-1.89-4.2-4.2V446.16L436.41,446.16z
		 M504.84,430.81c-15.45,0-27.96,12.51-27.96,27.91c0,15.5,12.51,28.01,27.96,28.01c15.45,0,28.07-12.51,28.07-28.01
		C532.91,443.32,520.3,430.81,504.84,430.81L504.84,430.81z M504.84,473.28c-7.99,0-14.51-6.48-14.51-14.56
		c0-7.97,6.52-14.45,14.51-14.45c8.09,0,14.51,6.48,14.51,14.45C519.35,466.8,512.94,473.28,504.84,473.28L504.84,473.28z
		 M582.21,486.73c4.84,0,8.09-4.8,6.41-9.16l-15.77-40.66c-3.06-7.95-14.18-7.95-17.24,0l-15.77,40.66
		c-1.68,4.36,1.58,9.16,6.41,9.16c2.84,0,5.47-1.77,6.41-4.48l0.95-2.59c0.63-1.77,2.42-3.01,4.31-3.01h12.61
		c1.89,0,3.68,1.24,4.31,3.01l0.95,2.59C576.74,484.97,579.27,486.73,582.21,486.73L582.21,486.73z M559.19,463.92l4.2-11.77
		c0.32-0.84,1.37-0.84,1.68,0l4.2,11.88c0.42,1.16-0.42,2.31-1.68,2.31h-6.73C559.61,466.34,558.77,465.19,559.19,463.92
		L559.19,463.92z M620.58,430.92h-14.51c-3.68,0-6.62,2.94-6.62,6.73v42.47c0,3.68,2.94,6.62,6.62,6.62h14.51
		c15.35,0,27.86-12.51,27.86-27.91C648.43,443.43,635.93,430.92,620.58,430.92L620.58,430.92z M620.05,473.28h-2.31
		c-2.73,0-4.84-2.08-4.84-4.82v-19.27c0-2.63,2.1-4.82,4.84-4.82h2.84c8.09,0,14.61,6.59,14.4,14.77
		C634.87,467.1,628.04,473.28,620.05,473.28L620.05,473.28z M739.78,437.64c0-3.68-2.94-6.73-6.73-6.73h-32.48
		c-3.68,0-6.73,3.05-6.73,6.73c0,3.78,3.05,6.83,6.73,6.83h5.47c2.31,0,4.2,1.77,4.2,4.19v31.36c0,3.77,3.05,6.71,6.83,6.71
		c3.68,0,6.73-2.94,6.73-6.71v-31.36c0-2.42,1.89-4.19,4.2-4.19h5.05C736.84,444.48,739.78,441.43,739.78,437.64L739.78,437.64z
		 M772.47,430.81c-15.45,0-27.96,12.51-27.96,27.91c0,15.5,12.51,28.01,27.96,28.01c15.45,0,28.07-12.51,28.07-28.01
		C800.54,443.32,787.92,430.81,772.47,430.81L772.47,430.81z M772.47,473.28c-7.99,0-14.51-6.48-14.51-14.56
		c0-7.97,6.52-14.45,14.51-14.45c8.09,0,14.51,6.48,14.51,14.45C786.98,466.8,780.57,473.28,772.47,473.28L772.47,473.28z"/>
	<path class="st0" d="M250.45,537.46c5.21-2.66,9.47-8.34,9.88-14.09c0.11-0.74,0.21-1.58,0.21-2.31c0-10-8.24-18.4-18.5-18.4H220.8
		c-3.26,0-5.89,2.63-5.89,5.99v43.13c0,3.66,3.05,6.69,6.73,6.69c3.68,0,6.73-3.03,6.73-6.69v-8.48c0-4.56,6.77-5.36,9.46-0.72
		l7.25,12.54c1.26,2.08,3.47,3.35,5.89,3.35c5.15,0,8.41-5.55,5.78-10.04L250.45,537.46L250.45,537.46z M228.37,517.91
		c0-2.31,1.89-4.1,4.21-4.1h8.2c3.89,0,7.04,3.15,7.04,7.04v0.53c0,3.89-3.15,7.04-7.04,7.04h-8.2c-2.31,0-4.21-1.89-4.21-4.2
		V517.91L228.37,517.91z M315.51,509.39c0-3.68-2.94-6.73-6.73-6.73c-10.62,0-21.23,0-31.85,0c-3.26,0-5.99,2.73-5.99,5.99v43.94
		c0,3.26,2.73,5.99,5.99,5.99c10.62,0,21.23,0,31.85,0c3.78,0,6.73-3.05,6.73-6.73c0-3.68-2.94-6.73-6.73-6.73h-20.5
		c-2.1,0-3.89-1.79-3.89-3.89c0-2.1,1.79-3.89,3.89-3.89h12.4c3.68,0,6.73-3.05,6.73-6.73c0-3.68-3.05-6.73-6.73-6.73h-12.4
		c-2.1,0-3.89-1.79-3.89-3.89s1.79-3.89,3.89-3.89h20.5C312.57,516.12,315.51,513.18,315.51,509.39L315.51,509.39z M357.98,543.56
		c-8.85,4.23-19.47-1.54-20.5-11.56c-0.95-8.62,5.89-15.98,14.4-15.98c2.1,0,4.2,0.53,5.99,1.37c2.21,1.05,4.73,0.95,6.73-0.42
		c4.41-2.84,3.89-9.46-0.84-11.77c-17.41-8.26-38.51,3.68-39.73,23.55c-1.05,16.29,11.77,29.75,27.86,29.75
		c4.31,0,8.3-0.95,11.88-2.73c4.73-2.21,5.15-8.83,0.84-11.67C362.61,542.82,360.08,542.61,357.98,543.56L357.98,543.56z
		 M403.92,502.56c-15.45,0-27.96,12.51-27.96,27.91c0,15.5,12.51,28.01,27.96,28.01c15.45,0,28.07-12.51,28.07-28.01
		C431.98,515.07,419.37,502.56,403.92,502.56L403.92,502.56z M403.92,545.03c-7.99,0-14.51-6.48-14.51-14.56
		c0-7.97,6.52-14.45,14.51-14.45c8.09,0,14.51,6.48,14.51,14.45C418.42,538.55,412.01,545.03,403.92,545.03L403.92,545.03z
		 M458.79,558.48c3.78,0,7.25-2.31,8.62-5.89l15.77-40.79c1.68-4.42-1.58-9.25-6.41-9.25c-2.84,0-5.47,1.79-6.41,4.52l-11.56,32.59
		l-11.46-32.59c-1.05-2.73-3.57-4.52-6.52-4.52c-4.84,0-8.09,4.84-6.41,9.25l15.77,40.79C451.54,556.17,455,558.48,458.79,558.48
		L458.79,558.48z M538.57,509.39c0-3.68-2.94-6.73-6.73-6.73h-31.85c-3.26,0-5.99,2.73-5.99,5.99v43.94c0,3.26,2.73,5.99,5.99,5.99
		h31.85c3.78,0,6.73-3.05,6.73-6.73c0-3.68-2.94-6.73-6.73-6.73h-20.5c-2.1,0-3.89-1.79-3.89-3.89c0-2.1,1.79-3.89,3.89-3.89h12.4
		c3.68,0,6.73-3.05,6.73-6.73c0-3.68-3.05-6.73-6.73-6.73h-12.4c-2.1,0-3.89-1.79-3.89-3.89s1.79-3.89,3.89-3.89h20.5
		C535.63,516.12,538.57,513.18,538.57,509.39L538.57,509.39z M584.61,537.46c5.21-2.66,9.47-8.34,9.88-14.09
		c0.11-0.74,0.21-1.58,0.21-2.31c0-10-8.24-18.4-18.5-18.4h-21.23c-3.26,0-5.89,2.63-5.89,5.99v43.13c0,3.66,3.05,6.69,6.73,6.69
		c3.68,0,6.73-3.03,6.73-6.69v-8.48c0-4.56,6.77-5.36,9.46-0.72l7.25,12.54c1.26,2.08,3.47,3.35,5.89,3.35
		c5.15,0,8.41-5.55,5.78-10.04L584.61,537.46L584.61,537.46z M562.54,517.91c0-2.31,1.89-4.1,4.2-4.1h8.2
		c3.89,0,7.04,3.15,7.04,7.04v0.53c0,3.89-3.15,7.04-7.04,7.04h-8.2c-2.31,0-4.2-1.89-4.2-4.2V517.91L562.54,517.91z M640.33,502.56
		c-2.42,0-4.63,1.26-5.89,3.36l-11.35,19.87l-11.46-19.87c-1.26-2.1-3.47-3.36-5.89-3.36c-5.15,0-8.41,5.68-5.78,10.09l15.45,26.8
		c0.53,1.05,0.84,2.21,0.84,3.36v8.93c0,3.68,3.05,6.73,6.83,6.73c3.68,0,6.73-3.05,6.73-6.73v-8.93c0-1.16,0.32-2.31,0.84-3.36
		l15.56-26.8C648.73,508.24,645.48,502.56,640.33,502.56L640.33,502.56z"/>
	<path class="st0" d="M88.98,566.86c-2.42,0-4.42,2-4.42,4.42v20.02c0,3.77-4.56,4.61-6.14,2.07c-0.76-1.24-2.21-1.93-3.73-1.93
		c-3.38,0-5.52,3.87-3.66,6.7c2.87,4.33,8.48,6.53,13.53,4.97c5.11-1.45,8.84-6.14,8.84-11.67v-20.16
		C93.4,568.87,91.47,566.86,88.98,566.86L88.98,566.86z M126.67,566.93c-2.49,0-4.42,2-4.42,4.41v18.95c0,3.16-2.97,5.64-6.56,5.64
		c-3.63,0-6.63-2.32-6.63-5.91v-18.67c0-2.4-1.93-4.41-4.42-4.41c-2.42,0-4.42,2-4.42,4.41v18.95c0,7.38,6.97,13.3,15.46,13.3
		c8.28,0,15.05-5.73,15.33-12.83c0.07-0.14,0.07-12.53,0.07-19.42C131.09,568.93,129.09,566.93,126.67,566.93L126.67,566.93z
		 M156.5,582.53c-2.9-0.69-10.01-1.73-10.01-4.14c0-2.21,3.52-2.97,6.77-2.97c2.97,0,5.45,0.69,7.25,1.59
		c1.52,0.69,3.31,0.41,4.49-0.83c1.93-2.07,1.24-5.52-1.24-6.63c-3.73-1.73-7.39-2.21-12.36-2.21c-7.39,0-13.39,5.38-13.39,10.7
		c0,8.01,6.35,8.77,11.39,10.08c2.76,0.69,9.39,1.45,9.39,4.28c0,3.05-8.24,4.23-14.01,1.17c-1.59-0.83-3.59-0.41-4.76,0.97
		c-1.86,2.14-1.31,5.52,1.17,6.76c3.04,1.45,6.7,2.28,11.53,2.28c7.18,0,14.57-3.8,14.57-10.77
		C167.27,586.74,163.81,584.26,156.5,582.53L156.5,582.53z M201.85,571.35c0-2.42-1.93-4.42-4.42-4.42c-7.11,0-14.22,0-21.33,0
		c-2.42,0-4.42,2-4.42,4.42c0,2.49,2,4.49,4.42,4.49h3.59c1.52,0,2.76,1.16,2.76,2.75v20.59c0,2.47,2,4.41,4.49,4.41
		c2.42,0,4.42-1.93,4.42-4.41v-20.59c0-1.59,1.24-2.75,2.76-2.75h3.31C199.92,575.84,201.85,573.84,201.85,571.35L201.85,571.35z
		 M247.89,584.36l8.42-10.19c2.35-2.89,0.28-7.24-3.45-7.24c-1.31,0-2.55,0.62-3.38,1.66l-8.91,10.75v-7.98c0-2.42-2-4.42-4.42-4.42
		c-2.42,0-4.42,2-4.42,4.42v27.82c0,2.42,2,4.42,4.42,4.42c2.42,0,4.42-2,4.42-4.42v-9.71l10.08,12.47
		c0.83,1.04,2.07,1.66,3.45,1.66c3.66,0,5.73-4.28,3.45-7.17L247.89,584.36L247.89,584.36z M269.78,603.59c2.49,0,4.42-2,4.42-4.42
		v-27.82c0-2.42-1.93-4.42-4.42-4.42c-2.42,0-4.42,2-4.42,4.42v27.82C265.36,601.59,267.36,603.59,269.78,603.59L269.78,603.59z
		 M294.97,566.93h-9.53c-2.42,0-4.35,1.93-4.35,4.42v27.89c0,2.42,1.93,4.35,4.35,4.35h9.53c10.08,0,18.29-8.21,18.29-18.33
		C313.27,575.15,305.05,566.93,294.97,566.93L294.97,566.93z M294.63,594.75h-1.52c-1.79,0-3.18-1.37-3.18-3.16v-12.66
		c0-1.73,1.38-3.16,3.18-3.16h1.86c5.32,0,9.6,4.33,9.46,9.7C304.36,590.69,299.88,594.75,294.63,594.75L294.63,594.75z
		 M333.98,566.93h-9.53c-2.42,0-4.35,1.93-4.35,4.42v27.89c0,2.42,1.93,4.35,4.35,4.35h9.53c10.08,0,18.29-8.21,18.29-18.33
		C352.27,575.15,344.06,566.93,333.98,566.93L333.98,566.93z M333.63,594.75h-1.52c-1.8,0-3.18-1.37-3.18-3.16v-12.66
		c0-1.73,1.38-3.16,3.18-3.16h1.86c5.32,0,9.6,4.33,9.46,9.7C343.36,590.69,338.88,594.75,333.63,594.75L333.63,594.75z
		 M363.52,603.59c2.49,0,4.42-2,4.42-4.42v-27.82c0-2.42-1.93-4.42-4.42-4.42c-2.42,0-4.42,2-4.42,4.42v27.82
		C359.1,601.59,361.11,603.59,363.52,603.59L363.52,603.59z M397.42,571.01v16.6l-12.08-18.26c-1.72-2.57-4-2.42-6.42-2.42
		c-2.28,0-4.07,1.86-4.07,4.07v28.51c0,5.46,8.84,5.46,8.84,0v-16.6l12.08,18.26c1.68,2.59,4.01,2.42,6.42,2.42
		c2.21,0,4.07-1.79,4.07-4.07v-28.51C406.25,565.6,397.42,565.52,397.42,571.01L397.42,571.01z M447.19,586.81
		c0-1.8-1.52-3.31-3.38-3.31h-8.84c-4.4,0-4.51,6.7,0,6.7h3.31c-4.68,7.8-16.82,5.02-17.6-4.14c-0.63-7.38,7.08-12.5,13.53-9.46
		c1.38,0.69,3.04,0.55,4.35-0.28c2.9-1.93,2.55-6.21-0.55-7.73c-10.9-5.25-24.54,1.86-26.02,14.36
		c-1.31,11.18,7.32,20.64,18.22,20.64c5.67,0,11.38-2.88,14.43-7.04C447.57,592.53,447.19,592.03,447.19,586.81L447.19,586.81z
		 M481.43,603.59c2.48,0,4.42-2,4.42-4.42v-27.82c0-2.42-1.93-4.42-4.42-4.42c-2.42,0-4.42,2-4.42,4.42v27.82
		C477.01,601.59,479.01,603.59,481.43,603.59L481.43,603.59z M544.32,569.42l-8.63,19.56l-8.56-19.56
		c-1.35-3.03-4.34-2.48-7.32-2.48c-2.21,0-4.07,1.86-4.07,4.07v28.16c0,2.42,2,4.42,4.42,4.42s4.42-2,4.42-4.42v-13.5l5.73,13.02
		c1.32,3,4.21,2.61,6.77,2.61c1.73,0,3.31-1.04,4-2.61l5.73-13.02v13.5c0,2.42,2,4.42,4.42,4.42c2.48,0,4.42-2,4.42-4.42v-28.16
		c0-2.21-1.79-4.07-4.07-4.07C548.71,566.93,545.55,566.39,544.32,569.42L544.32,569.42z M602.51,566.86
		c-10.15,0-18.36,8.21-18.36,18.33c0,10.18,8.21,18.4,18.36,18.4c10.15,0,18.43-8.21,18.43-18.4
		C620.94,575.08,612.66,566.86,602.51,566.86L602.51,566.86z M602.51,594.75c-5.25,0-9.53-4.26-9.53-9.56
		c0-5.23,4.28-9.49,9.53-9.49c5.32,0,9.53,4.26,9.53,9.49C612.04,590.5,607.82,594.75,602.51,594.75L602.51,594.75z M648.83,571.01
		v16.6l-12.08-18.26c-1.72-2.57-4-2.42-6.42-2.42c-2.28,0-4.07,1.86-4.07,4.07v28.51c0,5.46,8.84,5.46,8.84,0v-16.6l12.08,18.26
		c1.68,2.59,4.01,2.42,6.42,2.42c2.21,0,4.07-1.79,4.07-4.07v-28.51C657.67,565.6,648.83,565.52,648.83,571.01L648.83,571.01z
		 M717.72,571.35c0-2.42-1.93-4.42-4.42-4.42h-21.33c-2.42,0-4.42,2-4.42,4.42c0,2.49,2,4.49,4.42,4.49h3.59
		c1.52,0,2.76,1.16,2.76,2.75v20.59c0,2.47,2,4.41,4.49,4.41c2.42,0,4.42-1.93,4.42-4.41v-20.59c0-1.59,1.24-2.75,2.76-2.75h3.31
		C715.79,575.84,717.72,573.84,717.72,571.35L717.72,571.35z M746.65,571.35v6.7c0,1.59-1.24,2.83-2.83,2.83h-7.52
		c-1.59,0-2.83-1.24-2.83-2.83v-6.7c0-2.42-1.93-4.42-4.42-4.42c-2.42,0-4.42,2-4.42,4.42v27.84c0,2.39,2,4.39,4.42,4.39
		c2.49,0,4.42-2,4.42-4.39v-6.67c0-1.58,1.24-2.81,2.83-2.81h7.52c1.59,0,2.83,1.23,2.83,2.81v6.67c0,2.39,1.93,4.39,4.42,4.39
		c2.42,0,4.42-2,4.42-4.39v-27.84c0-2.42-2-4.42-4.42-4.42C748.58,566.93,746.65,568.93,746.65,571.35L746.65,571.35z
		 M791.66,571.35c0-2.42-1.93-4.42-4.42-4.42h-20.92c-2.14,0-3.93,1.8-3.93,3.93v28.86c0,2.14,1.79,3.93,3.93,3.93h20.92
		c2.49,0,4.42-2,4.42-4.42c0-2.42-1.93-4.42-4.42-4.42h-13.46c-3.35,0-3.35-5.11,0-5.11h8.15c2.42,0,4.42-2,4.42-4.42
		c0-2.42-2-4.42-4.42-4.42h-8.15c-3.35,0-3.35-5.11,0-5.11h13.46C789.72,575.77,791.66,573.84,791.66,571.35L791.66,571.35z
		 M497.88,579.29c1.79,0,3.17-1.45,3.17-3.17v-8.81c0-1.72-1.38-3.17-3.17-3.17h-1.93c-1.93,0-3.44,1.79-3.1,3.72l1.38,8.75
		c0.21,1.51,1.58,2.69,3.1,2.69H497.88L497.88,579.29z"/>
	<path class="st0" d="M58.33,639.75c3.97-2.03,6.63-6.32,6.63-10.77c0-6.56-5.41-12.08-12.15-12.08H38.87
		c-2.14,0-3.87,1.73-3.87,3.93v28.33c0,2.4,2,4.39,4.42,4.39c2.42,0,4.42-1.99,4.42-4.39v-5.57c0-2.99,4.45-3.52,6.21-0.47
		l4.76,8.24c0.83,1.37,2.28,2.2,3.87,2.2c3.38,0,5.52-3.65,3.8-6.59L58.33,639.75L58.33,639.75z M43.84,626.91
		c0-1.52,1.24-2.69,2.76-2.69h5.38c2.67,0,4.62,2.04,4.62,4.97c0,2.55-2.07,4.62-4.62,4.62H46.6c-1.52,0-2.76-1.24-2.76-2.76V626.91
		L43.84,626.91z M88.78,616.83c-10.15,0-18.36,8.21-18.36,18.33c0,10.18,8.22,18.4,18.36,18.4c10.15,0,18.43-8.21,18.43-18.4
		C107.21,625.04,98.92,616.83,88.78,616.83L88.78,616.83z M88.78,644.72c-5.25,0-9.53-4.26-9.53-9.56c0-5.23,4.28-9.49,9.53-9.49
		c5.32,0,9.53,4.26,9.53,9.49C98.3,640.46,94.09,644.72,88.78,644.72L88.78,644.72z M140.62,653.55c3.18,0,5.32-3.15,4.21-6.02
		l-10.35-26.7c-2.01-5.22-9.31-5.22-11.32,0l-10.35,26.7c-1.1,2.86,1.04,6.02,4.21,6.02c1.86,0,3.59-1.16,4.21-2.95
		c0.58-1.62,1.09-3.68,3.45-3.68h8.28c2.36,0,2.87,2.06,3.45,3.68C137.03,652.39,138.69,653.55,140.62,653.55L140.62,653.55z
		 M125.5,638.57l2.76-7.73c0.21-0.55,0.9-0.55,1.1,0l2.76,7.8c0.28,0.76-0.28,1.52-1.1,1.52h-4.42
		C125.78,640.16,125.22,639.4,125.5,638.57L125.5,638.57z M165.82,616.9c-3.18,0-6.35,0-9.53,0c-2.42,0-4.35,1.93-4.35,4.42v27.89
		c0,2.42,1.93,4.35,4.35,4.35h9.53c10.08,0,18.29-8.21,18.29-18.33C184.11,625.11,175.89,616.9,165.82,616.9L165.82,616.9z
		 M165.47,644.72h-1.52c-1.79,0-3.18-1.37-3.18-3.16V628.9c0-1.73,1.38-3.16,3.18-3.16h1.86c5.32,0,9.6,4.33,9.46,9.7
		C175.2,640.66,170.72,644.72,165.47,644.72L165.47,644.72z M244.1,621.32c0-2.42-1.93-4.42-4.42-4.42h-21.33
		c-2.42,0-4.42,2-4.42,4.42c0,2.49,2,4.49,4.42,4.49h3.59c1.52,0,2.76,1.16,2.76,2.75v20.59c0,2.47,2,4.41,4.49,4.41
		c2.42,0,4.42-1.93,4.42-4.41v-20.59c0-1.59,1.24-2.75,2.76-2.75h3.31C242.16,625.8,244.1,623.8,244.1,621.32L244.1,621.32z
		 M265.57,616.83c-10.15,0-18.36,8.21-18.36,18.33c0,10.18,8.22,18.4,18.36,18.4s18.43-8.21,18.43-18.4
		C284,625.04,275.71,616.83,265.57,616.83L265.57,616.83z M265.57,644.72c-5.25,0-9.53-4.26-9.53-9.56c0-5.23,4.28-9.49,9.53-9.49
		c5.32,0,9.53,4.26,9.53,9.49C275.09,640.46,270.88,644.72,265.57,644.72L265.57,644.72z M342.47,621.32c0-2.42-1.93-4.42-4.42-4.42
		h-21.33c-2.42,0-4.42,2-4.42,4.42c0,2.49,2,4.49,4.42,4.49h3.59c1.52,0,2.76,1.16,2.76,2.75v20.59c0,2.47,2,4.41,4.49,4.41
		c2.42,0,4.42-1.93,4.42-4.41v-20.59c0-1.59,1.24-2.75,2.76-2.75h3.31C340.53,625.8,342.47,623.8,342.47,621.32L342.47,621.32z
		 M371.39,621.32v6.7c0,1.59-1.24,2.83-2.83,2.83h-7.52c-1.59,0-2.83-1.24-2.83-2.83v-6.7c0-2.42-1.93-4.42-4.42-4.42
		c-2.42,0-4.42,2-4.42,4.42v27.84c0,2.39,2,4.39,4.42,4.39c2.49,0,4.42-2,4.42-4.39v-6.67c0-1.58,1.24-2.81,2.83-2.81h7.52
		c1.59,0,2.83,1.23,2.83,2.81v6.67c0,2.39,1.93,4.39,4.42,4.39c2.42,0,4.42-2,4.42-4.39v-27.84c0-2.42-2-4.42-4.42-4.42
		C373.32,616.9,371.39,618.9,371.39,621.32L371.39,621.32z M416.4,621.32c0-2.42-1.93-4.42-4.42-4.42h-20.92
		c-2.14,0-3.93,1.79-3.93,3.93v28.86c0,2.14,1.79,3.93,3.93,3.93h20.92c2.49,0,4.42-2,4.42-4.42c0-2.42-1.93-4.42-4.42-4.42h-13.46
		c-3.35,0-3.35-5.11,0-5.11h8.15c2.42,0,4.42-2,4.42-4.42c0-2.42-2-4.42-4.42-4.42h-8.15c-3.35,0-3.35-5.11,0-5.11h13.46
		C414.47,625.74,416.4,623.8,416.4,621.32L416.4,621.32z M467.28,643.75c-5.81,2.78-12.79-1.01-13.46-7.59
		c-0.62-5.66,3.87-10.49,9.46-10.49c3.68,0,5.34,2.62,8.35,0.62c2.9-1.86,2.55-6.21-0.55-7.73c-11.44-5.42-25.29,2.42-26.09,15.46
		c-0.88,14.19,13.78,23.69,26.09,17.74c3.11-1.45,3.38-5.8,0.55-7.66C470.31,643.27,468.66,643.13,467.28,643.75L467.28,643.75z
		 M503.79,639.75c3.97-2.03,6.63-6.32,6.63-10.77c0-6.56-5.41-12.08-12.15-12.08h-13.94c-2.14,0-3.87,1.73-3.87,3.93v28.33
		c0,2.4,2,4.39,4.42,4.39c2.42,0,4.42-1.99,4.42-4.39v-5.57c0-2.99,4.45-3.52,6.21-0.47l4.76,8.24c0.83,1.37,2.28,2.2,3.87,2.2
		c3.38,0,5.52-3.65,3.8-6.59L503.79,639.75L503.79,639.75z M489.3,626.91c0-1.52,1.24-2.69,2.76-2.69h5.38
		c2.67,0,4.62,2.04,4.62,4.97c0,2.55-2.07,4.62-4.62,4.62h-5.38c-1.52,0-2.76-1.24-2.76-2.76V626.91L489.3,626.91z M544.32,653.55
		c3.18,0,5.32-3.15,4.21-6.02l-10.35-26.7c-2.01-5.22-9.31-5.22-11.32,0l-10.35,26.7c-1.1,2.86,1.04,6.02,4.21,6.02
		c1.86,0,3.59-1.16,4.21-2.95c0.58-1.62,1.09-3.68,3.45-3.68h8.28c2.36,0,2.87,2.06,3.45,3.68
		C540.73,652.39,542.38,653.55,544.32,653.55L544.32,653.55z M529.2,638.57l2.76-7.73c0.21-0.55,0.9-0.55,1.1,0l2.76,7.8
		c0.28,0.76-0.28,1.52-1.1,1.52h-4.42C529.47,640.16,528.92,639.4,529.2,638.57L529.2,638.57z M584.91,621.32
		c0-2.42-1.93-4.42-4.42-4.42h-20.02c-2.62,0-4.83,2.21-4.83,4.83v27.43c0,2.39,2,4.39,4.42,4.39c2.49,0,4.42-2,4.42-4.39v-6.94
		c0-1.38,1.17-2.54,2.55-2.54h8.15c2.42,0,4.42-2,4.42-4.42c0-2.42-2-4.42-4.42-4.42h-8.15c-3.35,0-3.35-5.11,0-5.11h13.46
		C582.97,625.74,584.91,623.8,584.91,621.32L584.91,621.32z M621.98,621.32c0-2.42-1.93-4.42-4.42-4.42h-21.33
		c-2.42,0-4.42,2-4.42,4.42c0,2.49,2,4.49,4.42,4.49h3.59c1.52,0,2.76,1.16,2.76,2.75v20.59c0,2.47,2,4.41,4.49,4.41
		c2.42,0,4.42-1.93,4.42-4.41v-20.59c0-1.59,1.24-2.75,2.76-2.75h3.31C620.04,625.8,621.98,623.8,621.98,621.32L621.98,621.32z
		 M670.37,632.5c-2.9-0.69-10.01-1.73-10.01-4.14c0-2.21,3.52-2.97,6.76-2.97c2.97,0,5.45,0.69,7.25,1.59
		c1.52,0.69,3.31,0.41,4.49-0.83c1.93-2.07,1.24-5.52-1.24-6.63c-3.73-1.73-7.39-2.21-12.36-2.21c-7.39,0-13.39,5.38-13.39,10.7
		c0,8.01,6.35,8.77,11.39,10.08c2.76,0.69,9.39,1.45,9.39,4.28c0,3.05-8.24,4.23-14.01,1.17c-1.59-0.83-3.59-0.41-4.76,0.97
		c-1.86,2.14-1.31,5.52,1.17,6.76c3.04,1.45,6.7,2.28,11.53,2.28c7.18,0,14.57-3.8,14.57-10.77
		C681.14,636.71,677.68,634.23,670.37,632.5L670.37,632.5z M715.72,621.32c0-2.42-1.93-4.42-4.42-4.42h-21.33
		c-2.42,0-4.42,2-4.42,4.42c0,2.49,2,4.49,4.42,4.49h3.59c1.52,0,2.76,1.16,2.76,2.75v20.59c0,2.47,2,4.41,4.49,4.41
		c2.42,0,4.42-1.93,4.42-4.41v-20.59c0-1.59,1.24-2.75,2.76-2.75h3.31C713.79,625.8,715.72,623.8,715.72,621.32L715.72,621.32z
		 M737.19,616.83c-10.15,0-18.36,8.21-18.36,18.33c0,10.18,8.22,18.4,18.36,18.4c10.15,0,18.43-8.21,18.43-18.4
		C755.62,625.04,747.34,616.83,737.19,616.83L737.19,616.83z M737.19,644.72c-5.25,0-9.53-4.26-9.53-9.56
		c0-5.23,4.28-9.49,9.53-9.49c5.32,0,9.53,4.26,9.53,9.49C746.72,640.46,742.51,644.72,737.19,644.72L737.19,644.72z M784.27,639.75
		c3.97-2.03,6.63-6.32,6.63-10.77c0-6.56-5.41-12.08-12.15-12.08H764.8c-2.14,0-3.87,1.73-3.87,3.93v28.33c0,2.4,2,4.39,4.42,4.39
		c2.42,0,4.42-1.99,4.42-4.39v-5.57c0-2.99,4.45-3.52,6.21-0.47l4.76,8.24c0.83,1.37,2.28,2.2,3.87,2.2c3.38,0,5.52-3.65,3.8-6.59
		L784.27,639.75L784.27,639.75z M769.77,626.91c0-1.52,1.24-2.69,2.76-2.69h5.38c2.67,0,4.62,2.04,4.62,4.97
		c0,2.55-2.07,4.62-4.62,4.62h-5.38c-1.52,0-2.76-1.24-2.76-2.76V626.91L769.77,626.91z M827,621.32c0-2.42-1.93-4.42-4.42-4.42
		h-20.92c-2.14,0-3.93,1.79-3.93,3.93v28.86c0,2.14,1.79,3.93,3.93,3.93h20.92c2.49,0,4.42-2,4.42-4.42c0-2.42-1.93-4.42-4.42-4.42
		h-13.46c-3.35,0-3.35-5.11,0-5.11h8.15c2.42,0,4.42-2,4.42-4.42c0-2.42-2-4.42-4.42-4.42h-8.15c-3.35,0-3.35-5.11,0-5.11h13.46
		C825.07,625.74,827,623.8,827,621.32L827,621.32z"/>
	<path class="st1" d="M166.27,525.42h29.76c0.83,0,1.5,0.68,1.5,1.5v7.19c0,0.83-0.68,1.5-1.5,1.5h-29.76c-0.83,0-1.5-0.68-1.5-1.5
		v-7.19C164.77,526.1,165.45,525.42,166.27,525.42L166.27,525.42z M116.37,525.42h29.76c0.83,0,1.5,0.68,1.5,1.5v7.19
		c0,0.83-0.68,1.5-1.5,1.5h-29.76c-0.83,0-1.5-0.68-1.5-1.5v-7.19C114.86,526.1,115.54,525.42,116.37,525.42L116.37,525.42z
		 M66.46,525.42h29.76c0.83,0,1.5,0.68,1.5,1.5v7.19c0,0.83-0.68,1.5-1.5,1.5H66.46c-0.83,0-1.5-0.68-1.5-1.5v-7.19
		C64.96,526.1,65.63,525.42,66.46,525.42L66.46,525.42z"/>
	<path class="st1" d="M765.78,525.42h29.76c0.83,0,1.5,0.68,1.5,1.5v7.19c0,0.83-0.68,1.5-1.5,1.5h-29.76c-0.83,0-1.5-0.68-1.5-1.5
		v-7.19C764.28,526.1,764.95,525.42,765.78,525.42L765.78,525.42z M715.87,525.42h29.76c0.83,0,1.5,0.68,1.5,1.5v7.19
		c0,0.83-0.68,1.5-1.5,1.5h-29.76c-0.83,0-1.5-0.68-1.5-1.5v-7.19C714.37,526.1,715.04,525.42,715.87,525.42L715.87,525.42z
		 M665.97,525.42h29.76c0.83,0,1.5,0.68,1.5,1.5v7.19c0,0.83-0.68,1.5-1.5,1.5h-29.76c-0.83,0-1.5-0.68-1.5-1.5v-7.19
		C664.46,526.1,665.14,525.42,665.97,525.42L665.97,525.42z"/>
</g>
</svg>
