<?xml version="1.0" encoding="utf-8"?>
<!-- Generator: Adobe Illustrator 25.0.0, SVG Export Plug-In . SVG Version: 6.00 Build 0)  -->
<svg version="1.1" id="Layer_1" xmlns="http://www.w3.org/2000/svg" xmlns:xlink="http://www.w3.org/1999/xlink" x="0px" y="0px"
	 viewBox="0 0 936 587.72" style="enable-background:new 0 0 936 587.72;" xml:space="preserve">
<style type="text/css">
	.st0{fill-rule:evenodd;clip-rule:evenodd;}
</style>
<g>
	<path d="M131.24,228.8c-1.19-0.86-2.93-0.58-3.79,0.62l-19.88,27.62c-0.92,1.28-2.59,1.48-3.79,0.62l-45.88-33.03
		c-1.19-0.86-2.93-0.58-3.79,0.62L44.21,239c-0.92,1.28-0.58,2.93,0.62,3.79l62.76,45.18c1.19,0.86,2.86,0.67,3.79-0.62l32.96-45.78
		c0.86-1.19,0.58-2.93-0.62-3.79L131.24,228.8L131.24,228.8z M165.22,218.87c0.97-1.11,0.85-2.86-0.27-3.84l-58.11-50.96
		c-1.12-0.98-2.87-0.87-3.84,0.24l-11.26,12.83c-1.04,1.19-0.85,2.86,0.27,3.84l58.11,50.96c1.12,0.98,2.8,0.95,3.84-0.24
		L165.22,218.87L165.22,218.87z M155.64,146.18c-0.96-1.12-0.82-2.87,0.3-3.83l26.63-22.78c1.12-0.96,1.25-2.71,0.3-3.83
		l-10.07-11.77c-0.96-1.12-2.71-1.25-3.82-0.3l-43.73,37.41c-1.12,0.96-1.25,2.71-0.3,3.83l50.27,58.76
		c0.96,1.12,2.71,1.25,3.83,0.3l12.97-11.1c1.12-0.96,1.25-2.71,0.3-3.83l-16.24-18.98c-0.96-1.12-0.82-2.87,0.3-3.83l23.19-19.84
		c1.12-0.96,1.25-2.71,0.3-3.83l-10.29-12.03c-0.96-1.12-2.71-1.25-3.83-0.3l-23.19,19.84c-1.12,0.96-2.87,0.82-3.83-0.3
		L155.64,146.18L155.64,146.18z M223.47,95.48c-0.73-1.28-0.26-2.97,1.02-3.7l30.57-17.37c1.28-0.73,1.74-2.42,1.02-3.7l-7.59-13.37
		c-0.73-1.28-2.42-1.74-3.7-1.02l-50.04,28.42c-1.28,0.73-1.74,2.42-1.02,3.7l38.19,67.24c0.73,1.28,2.42,1.75,3.7,1.02l50.04-28.42
		c1.28-0.73,1.74-2.42,1.02-3.7l-7.71-13.57c-0.73-1.28-2.42-1.74-3.7-1.02l-30.57,17.37c-1.28,0.73-2.97,0.26-3.7-1.02l-2.12-3.74
		c-0.73-1.28-0.26-2.97,1.02-3.7l26.64-15.13c1.28-0.73,1.75-2.42,1.02-3.7l-7.71-13.57c-0.73-1.28-2.42-1.75-3.7-1.02l-26.64,15.13
		c-1.28,0.73-2.97,0.26-3.7-1.02L223.47,95.48L223.47,95.48z M356.91,100.51c1.39-0.47,2.18-2.04,1.71-3.45l-24.5-73.31
		c-0.47-1.41-2.05-2.2-3.44-1.73l-16.19,5.41c-1.5,0.5-2.18,2.04-1.71,3.45l24.5,73.31c0.47,1.41,1.94,2.23,3.44,1.73L356.91,100.51
		L356.91,100.51z M379.13,65.93c-1.36-0.56-2.97,0.06-3.65,1.45l-6.39,13.87c-0.67,1.38-0.14,3.12,1.13,3.82
		c9.68,5.41,21.89,8.88,37.25,6.17c18.93-3.34,30.47-13.41,27.32-31.22c-3.38-19.15-21.32-21.27-32.25-21.4
		c-2.17,0.04-17.51,0.33-18.25-3.9c-0.75-4.23,5.15-5.27,8.49-5.86c5.46-0.96,12.45-0.36,20.75,3.11c1.38,0.67,2.99,0.05,3.67-1.34
		l6.5-13.89c0.69-1.27,0.16-3.01-1.13-3.82c-10.26-5.42-20.37-7.43-32.84-5.23c-14.25,2.51-30.99,11.09-27.38,31.58
		c3.69,20.93,25.79,20.59,35.88,20.53c7.14,0.12,13.65-0.69,14.32,3.1c0.65,3.67-2.58,6.2-9.04,7.33
		C396.75,71.43,388.05,69.64,379.13,65.93L379.13,65.93z M548.98,44.07c-1.3-0.78-1.34-1.8-0.03-2.61c4.04-2.53,8.61-7.4,9.1-14.06
		c1.26-16.8-11.48-23.76-25.8-24.84l-34.05-2.56c-1.47-0.11-2.8,1.04-2.91,2.5l-5.79,77.11c-0.11,1.47,1.04,2.8,2.5,2.91l35.74,2.68
		c14.99,1.13,28.83-3.5,30.29-22.89C558.77,52.62,553.52,47.02,548.98,44.07L548.98,44.07z M518.18,33.02
		c-1.47-0.11-2.61-1.44-2.5-2.91l0.39-5.19c0.11-1.47,1.44-2.61,2.91-2.5l10.71,0.8c1.92,0.14,4.57,2.61,4.36,5.32
		c-0.21,2.82-2.45,5.48-5.38,5.26L518.18,33.02L518.18,33.02z M528.62,52.51c3.95,0.3,6.16,3.98,5.96,6.68
		c-0.22,2.93-3.35,5.42-6.06,5.21l-12.63-0.95c-1.47-0.11-2.61-1.44-2.5-2.91l0.48-6.43c0.11-1.47,1.44-2.61,2.91-2.5L528.62,52.51
		L528.62,52.51z M605.8,39.28c0.4-1.42,1.93-2.28,3.35-1.88L643,46.9c1.41,0.4,2.95-0.46,3.34-1.88l4.15-14.8
		c0.4-1.42-0.46-2.95-1.88-3.35l-55.41-15.54c-1.41-0.4-2.95,0.46-3.35,1.88l-20.89,74.46c-0.4,1.42,0.46,2.95,1.88,3.35
		l55.41,15.54c1.41,0.4,2.95-0.46,3.34-1.88l4.21-15.02c0.4-1.42-0.46-2.95-1.88-3.35l-33.85-9.5c-1.41-0.4-2.28-1.93-1.88-3.35
		l1.16-4.14c0.4-1.42,1.93-2.28,3.35-1.88l29.5,8.28c1.42,0.4,2.95-0.46,3.35-1.88l4.21-15.02c0.4-1.41-0.46-2.95-1.88-3.35
		l-29.5-8.28c-1.42-0.4-2.28-1.93-1.88-3.35L605.8,39.28L605.8,39.28z M716.17,77.81c1.45,0.65,2.98-0.03,3.58-1.37l6.27-14.04
		c0.6-1.34,0.07-2.94-1.37-3.58l-54.51-24.34c-1.34-0.6-2.98,0.03-3.58,1.37l-6.27,14.04c-0.6,1.34,0.03,2.98,1.37,3.58l14.66,6.55
		c1.44,0.65,1.97,2.24,1.37,3.58l-23.05,51.61c-0.6,1.34,0.03,2.98,1.37,3.58l15.48,6.92c1.45,0.65,2.99-0.03,3.58-1.37l23.05-51.61
		c0.6-1.34,2.24-1.97,3.58-1.37L716.17,77.81L716.17,77.81z M785.03,122.81c1.3,0.91,2.94,0.54,3.78-0.66l8.84-12.58
		c0.84-1.2,0.63-2.87-0.66-3.78l-48.85-34.31c-1.2-0.84-2.94-0.54-3.78,0.66l-8.84,12.58c-0.84,1.2-0.54,2.94,0.66,3.78l13.14,9.23
		c1.29,0.91,1.51,2.58,0.66,3.78l-32.49,46.26c-0.84,1.2-0.54,2.94,0.66,3.78l13.88,9.75c1.3,0.91,2.94,0.54,3.78-0.66l32.49-46.26
		c0.84-1.2,2.58-1.51,3.78-0.66L785.03,122.81L785.03,122.81z M816.51,152.04c1.01-1.07,2.77-1.12,3.84-0.11l25.59,24.11
		c1.07,1.01,2.83,0.96,3.84-0.11l10.54-11.19c1.01-1.07,0.96-2.83-0.11-3.84l-41.89-39.46c-1.07-1.01-2.83-0.96-3.83,0.11
		l-53.02,56.29c-1.01,1.07-0.96,2.83,0.11,3.84l41.89,39.46c1.07,1.01,2.83,0.96,3.84-0.11l10.7-11.36
		c1.01-1.07,0.96-2.83-0.11-3.84l-25.59-24.11c-1.07-1.01-1.12-2.77-0.11-3.84l2.95-3.13c1.01-1.07,2.77-1.12,3.84-0.11l22.3,21.01
		c1.07,1.01,2.83,0.96,3.84-0.11l10.7-11.36c1.01-1.07,0.96-2.83-0.11-3.84l-22.3-21.01c-1.07-1.01-1.12-2.77-0.11-3.84
		L816.51,152.04L816.51,152.04z M826.03,249.76c0.86,1.19,2.59,1.48,3.79,0.62l14.86-10.7c1.19-0.86,2.93-0.58,3.79,0.62l1.45,2.02
		c0.86,1.19,1.16,3.35,0.77,4.74c-2.61,7.59-5.09,15.37-7.46,22.92c-0.39,1.39-0.03,3.64,0.83,4.83l12.29,17.07
		c0.86,1.19,2.66,0.59,3.14-0.87c2.42-7.87,5.36-18.48,8.11-27.43c0.48-1.46,1.85-1.89,3.31-1.41c7.83,3.14,18.4,1.38,26.3-4.3
		c14.13-10.17,17-27.28,6.69-41.59l-20.54-28.54c-0.86-1.19-2.59-1.48-3.79-0.62l-62.76,45.18c-1.19,0.86-1.48,2.59-0.62,3.79
		L826.03,249.76L826.03,249.76z M865.35,228.14c-0.86-1.19-0.58-2.93,0.62-3.79l9.73-7c1.19-0.86,2.93-0.58,3.79,0.62l7,9.73
		c3.76,5.23,0.02,10.29-2.36,12.01c-4.68,3.37-9.72,1.01-11.77-1.84L865.35,228.14L865.35,228.14z"/>
	<path d="M100.17,504.02c-18.98,0-21.95-14.41-21.95-24.93c0-4.35,0.46-9.15,1.14-14.41c1.14-5.72,3.89-8.23,9.83-8.69
		c27.44-1.14,47.34-10.06,61.75-21.04c25.16-18.75,36.82-45.28,36.82-66.09c0-23.56-13.04-44.59-40.25-44.59
		c-39.79,0-73.18,45.28-91.02,90.56c-2.29,5.72-6.63,7.09-11.66,3.89c-9.6-6.4-13.95-15.55-13.95-24.7c0-8.46,3.43-16.47,8-22.18
		c6.4-7.78,6.4-10.06,0.69-18.3l-3.89-5.95c-4.12-5.72-9.38-6.4-14.64-1.83C8.46,356.52,0,372.75,0,392.19
		c0,24.93,13.26,45.28,37.51,56.03c5.95,2.74,7.32,5.49,6.4,11.89c-1.14,6.86-1.6,13.26-1.6,18.98c0,29.04,14.86,49.4,48.94,49.4
		c56.91,0,91.44-49.85,112.29-96.51c2.29-5.26,5.95-5.95,10.06-2.06c2.97,2.97,4.8,5.49,4.8,8.23c0,1.14-0.23,3.43-2.06,8
		l-7.32,18.52c-16.24,40.48,2.52,53.74,20.12,53.74c15.97,0,29.14-10.69,41.09-26.19c1.24,14.71,9.88,26.19,25.91,26.19
		c12.35,0,23.1-7.32,29.5-12.81c4.34-3.89,6.17-3.66,9.15,1.37c3.43,5.26,10.29,11.43,23.78,11.43c12.02,0,22.97-4.92,32.97-12.99
		L377.8,539.7c-11.89,29.5-1.14,47.57,21.5,47.57c17.84,0,30.19-10.75,38.88-24.7c8-13.04,12.58-29.04,14.64-42.31
		c0.91-7.09,0.23-12.81,8.92-13.49c15.63-0.89,29.14-6.23,40.66-15.63c-0.04,19,11.65,27.29,27.49,27.29
		c17.22,0,32.35-9.73,45.34-23.84c1.2,16.63,12.11,23.84,25.79,23.84c11.34,0,22.12-5.06,32.13-13.31l-0.11,0.27
		c-2.74,6.4-0.23,10.06,6.86,10.06h14.41c8,0,12.12-2.74,15.09-10.06l24.47-60.37c1.6-4.12,5.03-8.92,8.46-11.89
		c7.55-6.86,15.09-10.06,19.44-10.06c3.43,0,6.17,1.83,6.17,5.03c0,3.43-7.32,20.35-11.66,31.33c-16.24,40.94-6.17,59,17.38,59
		c18.12,0,33.69-10.98,47.42-27.49c0.89,15.43,9.52,27.49,25.31,27.49c9.38,0,17.61-5.49,22.87-10.06c2.52-2.29,3.66-1.37,2.52,1.83
		c-2.29,5.72-5.49,9.15-10.06,11.21c-18.07,8-45.28,17.15-45.51,41.16c0,13.04,9.15,25.16,28.36,25.16
		c29.27,0,43.22-26.76,52.6-50.31c2.29-5.95,5.03-9.15,10.75-11.89c24.01-11.89,45.97-27.44,67.23-64.49
		c4.34-7.55-8.46-16.92-12.81-9.15c-14.18,24.93-27.67,40.02-45.28,50.77c-3.89,2.29-6.17,0.46-4.34-3.89l37.28-91.93
		c2.29-5.72-0.23-8.46-6.17-6.4l-22.87,8.46c-6.86,2.52-9.38,1.6-13.72-4.12c-3.89-5.26-10.98-10.98-22.87-10.98
		c-29.51,0-48.06,31.84-56.99,60.11c-16.01,27.08-30.81,42.11-39.52,42.11c-4.12,0-8.23-3.2,2.06-29.27l10.98-27.21
		c4.8-11.89,7.09-19.44,7.09-25.84c0-12.12-7.55-19.9-21.95-19.9c-12.12,0-23.56,5.72-30.42,10.06c-5.95,3.66-9.6,4.12-16.01,1.6
		l-12.35-4.8c-7.32-2.74-11.43-0.91-14.41,6.17l-19,47.05c-15.82,27.1-30.85,42.14-40.01,42.14c-4.12,0-8-3.2,2.52-29.27
		l24.01-59.69c2.74-6.63,0.23-10.29-6.86-10.29h-14.41c-8,0-12.12,2.74-15.09,10.06l-18.98,46.96
		c-16.04,26.52-31.14,42.23-42.3,42.23c-4.8,0-9.83-3.2,0.91-29.27l24.93-61.97c2.29-5.72,5.49-8,11.89-8h0.69
		c6.17,0,9.6-2.29,12.12-8.23l0.69-1.6c2.29-5.49,0.23-8.46-5.49-8.46h-0.91c-5.49,0-7.55-2.74-5.26-8l3.66-8.92
		c2.52-6.4,0.23-10.06-6.86-10.06h-14.41c-8,0-12.12,2.74-15.09,10.06l-3.66,8.92c-2.52,5.72-5.72,8-12.12,8h-0.69
		c-6.63,0-10.06,2.29-12.58,8.46l-0.69,1.37c-2.29,5.49-0.23,8.46,5.95,8.46h0.91c5.72,0,7.55,2.74,5.49,8l-19.95,49.17
		c-15.46,26.2-32.57,37.5-55.97,37.5c-6.63,0-11.89-1.83-16.01-4.34c-2.74-1.83-3.43-4.35-1.83-8c1.6-3.43,3.2-4.8,7.09-5.03
		c25.84-1.83,34.99-12.12,45.97-32.47c19.21-34.99,25.61-58.54,28.13-68.61c5.03-18.98-1.37-39.79-26.3-39.79
		c-22.18,0-37.51,13.04-51.91,48.25l-29.63,73.76c-15.71,26.26-30.2,40.81-39.2,40.81c-3.89,0-8-3.2,2.52-29.27l24.01-59.69
		c2.29-5.95-0.23-8.69-6.17-6.63l-22.64,8.23c-7.32,2.74-9.15,2.06-13.95-4.12c-3.89-5.03-10.98-10.75-23.33-10.75
		c-29.23,0-47.59,31.77-56.48,60.02c-16.94,28.64-27.59,42.21-33.85,42.21c-3.2,0-8.46-3.43,2.06-29.27l6.17-16.24
		c2.06-5.26,2.74-8.69,2.74-11.43c0-13.95-18.52-24.93-30.42-32.93c-4.8-3.2-6.17-7.32-4.12-12.81l1.14-2.74
		c2.06-5.49,0.91-8.92-4.12-11.89l-2.06-1.14c-3.89-2.29-9.15-2.06-12.81,0.69c-7.32,5.26-13.95,14.41-13.95,23.1
		c0,2.74,0.69,4.8,1.6,7.09c3.89,7.55,3.89,10.06,0.23,17.84c-4.8,10.06-9.38,18.98-13.04,25.61
		C154.14,489.38,119.38,504.02,100.17,504.02L100.17,504.02z M150.94,371.84c0,8.69-5.49,25.38-20.58,38.19
		c-7.55,6.86-18.07,12.35-31.33,15.09c-5.26,0.91-7.55-1.83-5.49-6.63c13.49-30.64,32.7-58.09,48.02-58.09
		C148.65,360.4,150.94,365.89,150.94,371.84L150.94,371.84z M305.53,480.92c0-14.64,16.92-57.4,35.22-57.4c4.12,0,6.63,2.52,8,5.26
		c1.6,2.74,1.83,8.46,0.69,11.43l-11.66,28.13c-1.14,3.43-4.8,8.92-7.32,11.43c-4.34,4.34-10.75,9.38-17.61,9.38
		C308.27,489.16,305.53,487.1,305.53,480.92L305.53,480.92z M496.94,376.18c-2.74,9.38-8.46,26.76-25.38,58.32
		c-5.95,10.75-9.83,17.38-16.01,20.58c-4.35,2.52-7.09,0.23-5.26-4.57l23.33-58.09c6.4-15.78,14.18-31.56,22.18-31.56
		C500.6,360.86,498.77,369.78,496.94,376.18L496.94,376.18z M409.13,564.85c-3.2,0-4.34-2.52-0.46-12.12l18.75-46.2
		c1.83-4.34,7.09-4.12,8.23,0.69c0.69,2.74,0.69,6.63-0.46,11.89C432,534.21,422.62,564.85,409.13,564.85L409.13,564.85z
		 M658.17,366.81c0-10.98-9.38-19.67-20.12-19.67c-10.98,0-19.9,8.69-19.9,19.67c0,10.98,8.92,20.35,19.9,20.35
		C648.79,387.16,658.17,377.78,658.17,366.81L658.17,366.81z M816.42,480.92c0-14.64,16.92-57.4,35.22-57.4
		c4.12,0,6.63,2.52,7.78,5.26c1.37,2.97,1.6,8.46,0.46,11.21l-11.66,28.82c-1.37,2.97-5.03,8.69-7.32,11.21
		c-4.12,4.34-10.29,9.15-17.15,9.15C819.17,489.16,816.42,487.1,816.42,480.92L816.42,480.92z M812.31,543.58
		c4.35-2.29,6.4-0.23,4.35,4.12c-6.63,14.18-13.04,18.07-17.15,18.07c-2.97,0-5.72-1.83-5.72-5.72
		C793.78,552.96,803.16,548.39,812.31,543.58L812.31,543.58z"/>
	<path d="M346.17,203.09c0.28,1.02,1.57,2.13,2.87,2.13h11.93c1.29,0,2.59-0.92,2.96-2.13l10.17-30.79c0.37-1.2,1.57-1.2,1.94,0
		l10.17,30.79c0.37,1.2,1.66,2.13,2.96,2.13h11.93c1.29,0,2.59-0.92,3.05-2.13l22.38-63.15c0.37-1.11-0.18-2.4-1.48-2.4h-14.98
		c-1.29,0-2.59,0.92-3.05,2.03l-10.63,30.98c-0.46,1.2-1.66,1.2-2.03,0l-10.17-30.88c-0.37-1.2-1.66-2.13-2.96-2.13h-12.3
		c-1.29,0-2.59,0.92-2.96,2.13l-10.17,30.7c-0.37,1.2-1.57,1.2-1.94,0l-10.54-30.79c-0.37-1.11-1.66-2.03-2.87-2.03h-15.07
		c-1.29,0-1.94,1.2-1.39,2.68L346.17,203.09L346.17,203.09z M494.76,139.75c0-1.2-1.02-2.22-2.22-2.22h-13.87
		c-1.29,0-2.22,1.02-2.22,2.22v21.91c0,1.2-1.02,2.22-2.22,2.22h-19.05c-1.29,0-2.22-1.02-2.22-2.22v-21.91
		c0-1.2-1.02-2.22-2.22-2.22h-13.78c-1.29,0-2.22,1.02-2.22,2.22v63.25c0,1.2,0.92,2.22,2.22,2.22h13.78c1.2,0,2.22-1.02,2.22-2.22
		v-19.79c0-1.2,0.92-2.22,2.22-2.22h19.05c1.2,0,2.22,1.02,2.22,2.22v19.79c0,1.2,0.92,2.22,2.22,2.22h13.87
		c1.2,0,2.22-1.02,2.22-2.22V139.75L494.76,139.75z M525.73,156.76c0-1.2,1.02-2.22,2.22-2.22h28.76c1.2,0,2.22-1.02,2.22-2.22
		v-12.58c0-1.2-1.02-2.22-2.22-2.22h-47.07c-1.2,0-2.22,1.02-2.22,2.22v63.25c0,1.2,1.02,2.22,2.22,2.22h47.07
		c1.2,0,2.22-1.02,2.22-2.22v-12.76c0-1.2-1.02-2.22-2.22-2.22h-28.76c-1.2,0-2.22-1.02-2.22-2.22v-3.51c0-1.2,1.02-2.22,2.22-2.22
		h25.06c1.2,0,2.22-1.02,2.22-2.22v-12.76c0-1.2-1.02-2.22-2.22-2.22h-25.06c-1.2,0-2.22-1.02-2.22-2.22V156.76L525.73,156.76z
		 M634.29,139.75c0-1.2-1.02-2.22-2.22-2.22h-13.68c-1.2,0-2.22,1.02-2.22,2.22v33.1c0,1.2-1.02,1.39-1.76,0.37l-24.04-33.93
		c-0.74-0.92-2.31-1.76-3.51-1.76h-13.87c-1.2,0-2.22,1.02-2.22,2.22v63.25c0,1.2,1.02,2.22,2.22,2.22h13.78
		c1.2,0,2.22-1.02,2.22-2.22v-33.1c0-1.2,1.02-1.39,1.76-0.46l24.13,33.93c0.74,1.02,2.31,1.85,3.51,1.85h13.68
		c1.2,0,2.22-1.02,2.22-2.22V139.75L634.29,139.75z"/>
	<path d="M334.62,236.04c1.31-2.28,0.24-3.36-1.31-3.36h-21.45c-1.55,0-3.46,1.07-4.29,2.52l-14.54,25.52
		c-0.83,1.31-2.03,1.31-2.86,0l-14.66-25.52c-0.83-1.45-2.74-2.52-4.29-2.52h-21.21c-1.55,0-2.14,1.93-1.31,3.36
		c9.77,16.58,20.02,32.21,29.43,48.43c0.83,1.31,1.43,3.81,1.43,5.36v27.19c0,1.57,1.31,2.88,2.86,2.88h17.99
		c1.55,0,2.86-1.31,2.86-2.88v-27.31c0-1.55,0.71-3.93,1.55-5.38L334.62,236.04L334.62,236.04z M332.12,276.29
		c0,24.9,20.26,45.16,45.04,45.16c24.9,0,45.16-20.26,45.16-45.16c0-24.78-20.26-45.16-45.16-45.16
		C352.38,231.14,332.12,251.51,332.12,276.29L332.12,276.29z M355.71,276.29c0-11.92,9.65-22.4,21.45-22.4
		c11.92,0,21.57,10.48,21.57,22.4c0,12.03-9.65,22.52-21.57,22.52C365.36,298.81,355.71,288.33,355.71,276.29L355.71,276.29z
		 M434.59,283.9c0,22.66,15.13,37.43,38.13,37.43c23,0,38.01-14.77,38.01-37.43v-48.33c0-1.57-1.31-2.88-2.86-2.88h-17.99
		c-1.55,0-2.86,1.31-2.86,2.88v48.33c0,12.41-8.94,15.63-14.3,15.63c-5.36,0-14.42-3.22-14.42-15.63v-48.33
		c0-1.57-1.31-2.88-2.86-2.88h-17.99c-1.55,0-2.86,1.31-2.86,2.88V283.9L434.59,283.9z M531.93,267.36
		c11.91-4.88,17.75-13.46,17.75-23.83c0-7.86-5.24-14.66-13.34-14.3c-6.67,0.24-12.03,5.6-11.68,12.39
		c0.24,3.57,1.67,7.03,4.41,8.82c1.31,0.95,2.14,2.26,1.19,3.57c-1.19,1.55-2.62,3.22-4.29,4.77c-1.19,1.07-1.43,2.98-0.6,4.17
		l2.14,3.1C528.48,267.36,530.5,267.95,531.93,267.36L531.93,267.36z M578.52,319.9c1.55,0,2.86-1.31,2.86-2.86v-19.3
		c0-1.55,1.31-2.86,2.86-2.86h2.62c1.55,0,3.57,1.07,4.53,2.26c4.89,6.91,10.01,13.82,15.01,20.49c0.95,1.19,3.1,2.26,4.65,2.26
		h22.16c1.55,0,2.14-1.91,1.19-3.22c-5.24-6.91-12.51-15.97-18.47-23.83c-0.95-1.31-0.48-2.74,0.83-3.69
		c7.51-4.77,12.51-14.89,12.51-25.14c0-18.35-12.87-31.34-31.45-31.34h-37.05c-1.55,0-2.86,1.31-2.86,2.86v81.5
		c0,1.55,1.31,2.86,2.86,2.86H578.52L578.52,319.9z M584.24,272.96c-1.55,0-2.86-1.31-2.86-2.86v-12.63c0-1.55,1.31-2.86,2.86-2.86
		h12.63c6.79,0,8.82,6.31,8.82,9.41c0,6.08-5.12,8.94-8.82,8.94H584.24L584.24,272.96z M667.05,257.47c0-1.55,1.31-2.86,2.86-2.86
		h37.06c1.55,0,2.86-1.31,2.86-2.86v-16.2c0-1.55-1.31-2.86-2.86-2.86h-60.65c-1.55,0-2.86,1.31-2.86,2.86v81.5
		c0,1.55,1.31,2.86,2.86,2.86h60.65c1.55,0,2.86-1.31,2.86-2.86V300.6c0-1.55-1.31-2.86-2.86-2.86h-37.06
		c-1.55,0-2.86-1.31-2.86-2.86v-4.53c0-1.55,1.31-2.86,2.86-2.86h32.29c1.55,0,2.86-1.31,2.86-2.86v-16.44
		c0-1.55-1.31-2.86-2.86-2.86h-32.29c-1.55,0-2.86-1.31-2.86-2.86V257.47L667.05,257.47z"/>
	<path class="st0" d="M169.15,265.84h59.12c1,0,1.82,0.82,1.82,1.82V283c0,1-0.82,1.82-1.82,1.82h-59.12c-1,0-1.82-0.82-1.82-1.82
		v-15.33C167.33,266.67,168.15,265.84,169.15,265.84L169.15,265.84z M735.73,265.84h59.12c1,0,1.82,0.82,1.82,1.82V283
		c0,1-0.82,1.82-1.82,1.82h-59.12c-1,0-1.82-0.82-1.82-1.82v-15.33C733.9,266.67,734.72,265.84,735.73,265.84L735.73,265.84z"/>
</g>
</svg>
