<?xml version="1.0" encoding="utf-8"?>
<!-- Generator: Adobe Illustrator 25.0.0, SVG Export Plug-In . SVG Version: 6.00 Build 0)  -->
<svg version="1.1" id="Layer_1" xmlns="http://www.w3.org/2000/svg" xmlns:xlink="http://www.w3.org/1999/xlink" x="0px" y="0px"
	 viewBox="0 0 864 864" style="enable-background:new 0 0 864 864;" xml:space="preserve">
<style type="text/css">
	.st0{fill:#333232;}
</style>
<g>
	<path class="st0" d="M295.99,328.2c-1.06-0.8-1.06-2.26-0.13-3.19c1.99-1.73,3.58-4.51,3.58-9.62c0-9.49-7.17-19.44-20.57-19.44
		h-10.88h-11.55c-2.52,0-4.51,1.99-4.51,5.71v50.7c0,5.44,1.99,7.43,4.51,7.43h11.55l0,0c4.38,0,13.8,0,13.8,0
		c12.48-0.66,19.25-10.49,19.25-19.84C301.03,333.88,298.91,330.45,295.99,328.2L295.99,328.2z M267.98,312.56
		c0-1.22,0.93-2.28,2.26-2.28H279c4.11,0,4.38,4.82,4.38,5.77c0,1.75-1.06,5.77-4.38,5.77h-8.76c-1.33,0-2.26-1.06-2.26-2.28V312.56
		L267.98,312.56z M279.67,346.12c0,0-6.11,0-9.42,0c-1.33,0-2.26-0.91-2.26-2.23v-9.2c0-1.19,0.93-2.23,2.26-2.23h9.29
		c4.78,0,5.44,4.73,5.44,6.84C284.97,340.72,284.44,346.12,279.67,346.12L279.67,346.12z M324.26,341.74v-4.78
		c0-1.46,1.33-2.79,2.92-2.79h16.59c1.59,0,2.79-1.19,2.79-2.79v-9.56c0-1.59-1.19-2.92-2.79-2.92h-16.59
		c-1.59,0-2.92-1.19-2.92-2.79v-2.12c0-1.46,1.33-2.79,2.92-2.79h23.09c1.46,0,2.79-1.33,2.79-2.79v-9.69
		c0-1.46-1.33-2.79-2.79-2.79h-37.43c-2.52,0-4.51,1.99-4.51,4.51v54.82c0,2.52,1.99,4.51,4.51,4.51h40.48
		c1.59,0,2.79-1.19,2.79-2.79v-9.56c0-1.59-1.19-2.92-2.79-2.92h-26.15C325.59,344.52,324.26,343.33,324.26,341.74L324.26,341.74z"
		/>
	<path class="st0" d="M200.58,287.34l-18.3-61.12c-0.46-1.53-2.13-2.55-3.8-2.05l-10.86,3.25c-1.67,0.5-2.51,2.27-2.05,3.8
		l18.3,61.12c0.5,1.67,2.13,2.55,3.8,2.05l10.86-3.25C200.2,290.64,201.08,289.01,200.58,287.34L200.58,287.34z M206.14,210.65
		c-4.52,1.08-7.46,5.67-6.34,10.34c0.85,3.53,3.99,6.07,7.37,6.45c1.23,0.15,1.82,1.36,1.14,2.27c-1.57,2.31,0.97,3.38,1.95,2.52
		C221.38,222.47,216.22,208.24,206.14,210.65L206.14,210.65z M262.76,204.3l-24.74,4.49c-2.57,0.47-4.47,3.03-3.98,5.74l10.87,59.03
		c0.49,2.72,3.03,4.47,5.75,3.98l24.6-4.47c5.86-1.06,25.16-7.08,19.34-39.11C288.8,202.08,268.62,203.23,262.76,204.3L262.76,204.3
		z M272.26,256.64l-9.87,1.79c-1.72,0.31-3.24-0.74-3.55-2.46l-5.43-29.89c-0.31-1.72,0.74-3.24,2.46-3.55l9.87-1.79
		c8.35-1.22,11.65,10.44,12.68,16.16C279.91,245.05,279.41,255.34,272.26,256.64L272.26,256.64z M379.38,228.51
		c3.92-4.35,5.86-10.02,5.47-15.75c-0.72-10.37-9.32-20.99-24.11-19.97l-24.35,1.83c-2.76,0.19-4.78,2.52-4.59,5.27l4.26,61.62
		c0.11,1.6,1.52,2.95,3.26,2.83l11.31-0.78c1.74-0.12,2.94-1.66,2.83-3.26l-1.38-20.01c-0.25-3.62,5.22-4.73,7-1.94l13.62,22.08
		c0.51,0.98,1.71,1.48,2.87,1.4l10.44-0.72c2.32-0.16,3.6-2.73,2.44-4.69l-12.96-20.96c-0.81-1.25-0.5-3.02,0.74-3.99
		C377.63,230.52,378.57,229.44,379.38,228.51L379.38,228.51z M350.22,213.43c-0.12-1.72,1.24-3.1,2.97-3.36l8.7-0.6
		c6.5-0.45,7.53,5.18,5.07,7.98c-1.21,1.4-3.35,2.1-6.11,2.29c-2.32,0.16-4.78,0.33-6.96,0.48c-1.74,0.12-3.28-1.06-3.4-2.78
		L350.22,213.43L350.22,213.43z M430.7,191.2l-14.82-0.2c-1.16-0.02-2.19,0.7-2.49,1.71l-19.51,65.87c-0.3,1.01,0.41,2.04,1.43,2.05
		l14.24,0.2c0.73,0.01,1.31-0.42,1.47-1.14l2.45-9.12c0.45-1.3,1.63-2.16,2.94-2.14l12.06,0.17c1.31,0.02,2.46,0.91,2.88,2.22
		l2.05,9.19c0.14,0.73,0.71,1.17,1.44,1.18l14.24,0.2c1.02,0.01,1.76-0.99,1.48-2.01l-17.4-66.38
		C432.87,191.96,431.87,191.22,430.7,191.2L430.7,191.2z M416.74,234.18l4.94-20.57c0.31-1.3,2.05-1.28,2.33,0.03l4.8,20.71
		c0.13,1.02-0.61,1.88-1.62,1.87l-8.87-0.12C417.29,236.08,416.58,235.2,416.74,234.18L416.74,234.18z M467.47,262.37l11.31,0.78
		c1.74,0.12,3.14-1.09,3.26-2.83l3.25-47c0.11-1.6,1.66-2.92,3.4-2.8l13.48,0.93c1.74,0.12,3.14-1.09,3.26-2.83l0.73-10.58
		c0.11-1.6-1.09-3.14-2.83-3.26l-50.6-3.5c-1.74-0.12-3.15,1.24-3.26,2.83l-0.73,10.58c-0.12,1.74,1.09,3.13,2.83,3.26l13.48,0.93
		c1.6,0.11,2.95,1.64,2.84,3.23l-3.25,47C464.52,260.85,465.73,262.24,467.47,262.37L467.47,262.37z M534.59,243.82l11.06,1.69
		c1.58,0.24,2.82,1.76,2.56,3.48l-2.93,19.11c-0.24,1.58,0.83,3.21,2.55,3.48l11.21,1.72c1.72,0.26,3.24-0.97,3.48-2.56l9.63-62.93
		c0.26-1.72-0.81-3.36-2.53-3.62l-11.21-1.72c-1.72-0.26-3.24,0.97-3.5,2.7l-3.26,21.29c-0.24,1.58-1.9,2.77-3.48,2.53l-11.06-1.69
		c-1.72-0.26-2.94-1.9-2.7-3.48l3.26-21.29c0.26-1.72-0.81-3.36-2.53-3.62l-11.21-1.72c-1.72-0.26-3.24,0.97-3.5,2.7l-9.64,62.93
		c-0.24,1.58,0.83,3.21,2.56,3.48l11.21,1.72c1.72,0.26,3.24-0.97,3.48-2.55l2.93-19.11C531.23,244.63,532.87,243.56,534.59,243.82
		L534.59,243.82z M595.77,261.33l1.22-5.09c0.37-1.55,2.12-2.63,3.82-2.22l17.67,4.23c1.7,0.41,3.27-0.56,3.68-2.26l2.44-10.18
		c0.41-1.7-0.53-3.41-2.22-3.82l-17.67-4.23c-1.7-0.41-2.8-2.02-2.4-3.71l0.54-2.26c0.37-1.55,2.12-2.63,3.82-2.22l24.59,5.89
		c1.55,0.37,3.31-0.7,3.68-2.26l2.47-10.32c0.37-1.55-0.7-3.31-2.26-3.68l-39.86-9.55c-2.69-0.64-5.31,0.97-5.96,3.65l-13.99,58.37
		c-0.64,2.69,0.97,5.31,3.65,5.96l43.11,10.33c1.7,0.41,3.27-0.56,3.68-2.26l2.44-10.18c0.41-1.7-0.53-3.41-2.22-3.82l-27.84-6.67
		C596.47,264.64,595.36,263.03,595.77,261.33L595.77,261.33z M686.47,274.42c16.65-8.02,16.75-33.48-3.75-40.11l-23.23-7.52
		c-2.62-0.87-5.38,0.52-6.24,3.14l-19.36,58.66c-0.5,1.52,0.29,3.31,1.94,3.86l10.77,3.55c1.66,0.55,3.35-0.42,3.86-1.94l6.29-19.05
		c1.14-3.44,6.62-2.41,7.22,0.85l4.26,25.59c0.09,1.1,1.02,2.02,2.12,2.38l9.94,3.28c2.21,0.73,4.36-1.16,4.03-3.41l-4.07-24.3
		c-0.28-1.47,0.68-2.99,2.2-3.41C684.08,275.62,685.37,274.98,686.47,274.42L686.47,274.42z M665.18,249.43
		c0.54-1.63,2.32-2.4,4.02-1.99l8.28,2.73c6.18,2.04,5.01,7.64,1.67,9.3c-1.65,0.83-3.9,0.68-6.52-0.19
		c-2.21-0.73-4.55-1.5-6.62-2.19c-1.66-0.55-2.63-2.22-2.09-3.85L665.18,249.43L665.18,249.43z"/>
	<path class="st0" d="M359.09,520.29l-108.03,0.71l-8.22,34.52c-0.84,3.71-1.45,6.61-1.98,9.28l360.22,0.13
		c-0.21-5.08-1.3-11.97-2.23-17.77c-1.06-6.61-2.73-16.28-4.45-26.18c-48.39-0.5-98.26-0.8-147.85-0.86
		c0.62-1.92,1.14-3.87,1.58-5.86c52.04,0.06,104.07,0.4,156.06,0.94c14,0.17,36.48,0.4,48.58,2.01c8.71,1.16,19.92,4.58,26.17,9.85
		c3.32,2.8,7.22,7.7,8.82,11.39c4.17,9.61,9.88,45.47,10.51,53.41c1.09,13.79,0.35,29.35-2.08,42.79
		c-0.15,0.82-2.32,10.41-2.53,10.98c-3.18,12.06-5.88,22.43-22.72,25.79c-9.46,1.89-26.7,1.65-39.4,1.66h-0.03
		c-131.3,0-262.65,0.52-393.93-0.1c-19.73-0.09-36.96-0.27-48.85-0.62c-12.21-0.36-19.08-0.91-23.29-1.82
		c-5.25-1.13-6.99-2.77-8.64-5.08c-3.63-5.08-7.01-15.13-8.41-21.07c-3-12.7-3.87-35.04-3.09-48.04c0.8-13.25,4.73-41.89,10.77-55.4
		c2.87-6.43,8.42-13.03,15.4-16.93c5.89-3.29,13.03-5.43,19.91-6.43c10.79-1.57,43.94-2.4,58.06-2.45l82.92-0.53
		c10.48-0.08,20.96-0.14,31.44-0.19c0.44,1.94,0.94,3.9,1.48,5.85L359.09,520.29L359.09,520.29z M418.57,520.12
		c-5.86,0-11.72,0.01-17.56,0.02c-0.52-1.92-0.97-3.89-1.37-5.85c6.88-0.02,13.75-0.03,20.63-0.03
		C419.79,516.23,419.23,518.19,418.57,520.12L418.57,520.12z M658.61,536l-35.54-1.66c-0.08,0-0.16,0-0.24,0.01
		c-0.3,0.04-0.6,0.17-0.82,0.35c-0.16,0.13-0.27,0.27-0.27,0.38c0,0.02,0,0.04,0,0.06l3.62,17.91c0.11,0.54,0.36,1.01,0.74,1.31
		v0.01c0.19,0.16,0.45,0.26,0.76,0.26h31.92c0.4,0,0.76-0.13,1.02-0.35c0.26-0.22,0.43-0.51,0.43-0.84v-16.24
		c0-0.3-0.15-0.56-0.39-0.76C659.53,536.18,659.1,536.02,658.61,536L658.61,536z M664.06,557.75c-1.35,1.11-3.22,1.79-5.28,1.79
		h-31.92c-2.02,0-3.72-0.66-5.02-1.71l-0.01,0.01c-1.27-1.04-2.1-2.47-2.41-4.01l-3.62-17.91c-0.08-0.38-0.1-0.75-0.07-1.11
		c0.1-1.38,0.86-2.63,2.02-3.57c1.09-0.89,2.55-1.53,4.12-1.74c0.51-0.07,1.02-0.09,1.54-0.07l35.54,1.66
		c2.01,0.09,3.84,0.78,5.15,1.85c1.33,1.09,2.16,2.57,2.16,4.24v16.24C666.26,555.12,665.42,556.64,664.06,557.75L664.06,557.75z
		 M186.26,536l35.54-1.66c0.08,0,0.16,0,0.24,0.01c0.3,0.04,0.6,0.17,0.82,0.35c0.16,0.13,0.27,0.27,0.27,0.38c0,0.02,0,0.04,0,0.06
		l-3.62,17.91c-0.11,0.54-0.36,1.01-0.74,1.31v0.01c-0.19,0.16-0.45,0.26-0.76,0.26H186.1c-0.4,0-0.76-0.13-1.02-0.35
		c-0.26-0.22-0.43-0.51-0.43-0.84v-16.24c0-0.3,0.15-0.56,0.39-0.76C185.35,536.18,185.78,536.02,186.26,536L186.26,536z
		 M180.81,557.75c1.35,1.11,3.22,1.79,5.28,1.79h31.92c2.02,0,3.72-0.66,5.02-1.71l0.01,0.01c1.27-1.04,2.1-2.47,2.41-4.01
		l3.62-17.91c0.08-0.38,0.1-0.75,0.07-1.11c-0.1-1.38-0.86-2.63-2.02-3.57c-1.09-0.89-2.55-1.53-4.12-1.74
		c-0.51-0.07-1.02-0.09-1.54-0.07l-35.54,1.66c-2.01,0.09-3.84,0.78-5.16,1.85c-1.33,1.09-2.16,2.57-2.16,4.24v16.24
		C178.62,555.12,179.46,556.64,180.81,557.75L180.81,557.75z M232.46,644.51l0.61-77.25c0.73-3.72,1.45-7.44,2.67-12.8l7.95-33.42
		c-12.89,0.13-42.28,1.07-51.09,2.35c-5.9,0.86-12.05,2.68-17.08,5.49c-5.72,3.2-10.33,8.79-12.69,14.07
		c-5.77,12.92-9.58,41.05-10.34,53.67c-0.71,11.81-0.04,27.07,1.58,38.92l0.05,0.39c1.08,1.03,2.22,2.04,3.67,2.9
		c5.63,3.33,13.5,3.87,20.8,4.34c15.2,0.99,32.39,1.44,46.72,1.33L232.46,644.51L232.46,644.51z M239.67,644.51h362.11l-0.61-73.69
		l-360.95-0.13L239.67,644.51L239.67,644.51z M608.98,644.51c15.44,0,38.85,0.22,51.42-0.57c9.71-0.61,18.71-2.06,27.26-3.7
		c3.58-14.55,4.59-32.97,3.4-48c-0.58-7.34-6.17-42.73-10.11-51.81c-1.27-2.93-4.55-7.03-7.18-9.25c-5.13-4.33-15.04-7.2-22.16-8.15
		c-11.99-1.59-36.03-1.8-49.9-1.97c2.18,12.6,4.25,23.98,5.67,34.49c0.12,0.9,1.04,11.91,0.97,12.33L608.98,644.51L608.98,644.51z"
		/>
	<path class="st0" d="M84.03,519.85c-14.36-1.83-25.42-10.7-33.2-26.62c-7.62-15.66-12.01-30.59-13.16-44.64
		c-1.1-14.1-1.67-24.07-1.67-29.97c0-16.03,1.72-32,5.22-47.87c6.11-27.46,15.3-47.35,27.51-59.67c6.73-6.32,12.79-9.61,18.11-9.87
		c5.38-0.26,8.61-0.37,9.71-0.37c16.99,0,35.48,7.96,43.59,22.92c6.08,11.21,7.2,22.89,7.2,36.28c0,11.17-1.57,27.93-3.45,38.32
		c-1.15,6.47-2.35,10.23-3.6,11.38c-2.08,1.85-0.02,1.67-2.3,1.67c-1.69,0-9.21-1.42-11.02-2.09c-1.5-0.56-1.51-1.39-1.51-2.98
		l0.16-3.97c0.94-10.49,1.36-20.1,1.36-28.76c0-25.58-3.76-43.9-11.28-55.02c-1.4-2.13-4.92-7.2-7.05-7.2
		c-2.42,0-8.57,4.29-11.02,6.26c-15.19,12.63-25.42,38.68-30.75,78.15c-1.61,11.41-1.05,42.72,0.31,52.62
		c4.38,31.92,12.65,55.51,25.89,65.15c1.78,1.3,1.58,1.24,4.44-0.31c8.96-4.88,13.73-10.51,20.57-18.79
		c4.36-5.28,12.77-15.22,16.08-15.77c2.34-0.38,5.37-0.44,7.67,0c5.17,0.99,4.08,2.68,1.25,6.94c-4.88,7.36-15.84,21.51-21.98,26.73
		c-6.02,5.12-11.71,6.96-19.73,7.57C96.33,520.34,88.72,520.57,84.03,519.85L84.03,519.85z M735.44,579.67
		c-7.1-1.98-12.74-5.95-16.81-11.95c-6.34-9.34-10.7-21.84-10.7-32.89c0-6.94,1.67-13.42,5.06-19.42
		c8.04-14.69,20.9-20.74,35.86-30.28c2.49-1.59,12.22-7.84,12.74-9.03c0.42-0.97-1.53-31.3-3.03-32.58l-0.16-0.16
		c-0.68,0.68,0.23,0.19-1.15,2.24c-2.9,4.35-5.49,8.59-10.02,10.39c-4.64,1.84-9.39,1.69-14.83,1.46
		c-7.94-0.34-14.35-0.75-19.42-5.69c-2.21-2.15-4.06-4.34-5.58-6.6c-3.4,11.21-10.99,37.65-18.01,44.86
		c-4.4,4.29-14.4,4.96-21.98,4.12c-3.97-0.44-8.11-1.75-10.86-4.28c-4.18-4.18-6.84-10.08-7.99-17.65
		c-1.42-9.6-1.98-19.34-1.51-28.4c0.83-16.11,2.02-20.21,3.65-34.87c0.86-7.72,2.36-21.2,2.77-27.98l0.31-7.52
		c-3.41,3.15-5.24,5.62-10.13,12.74c-3.97,5.79-7.47,11.33-10.55,16.65c-6.21,11.43-12.69,26-19.42,43.75
		c-4.53,12.11-3.35,12.37-14.67,12.37c-3.23,0-6.62,0.02-9.5-0.63c-8.12-1.82-12.57-7.22-15.78-14.29
		c-2.14,5.97-6.22,15.47-10.17,19.51c-3.8,3.9-9.44,5.1-14.67,5.43c-3.94,0.25-8.2,0.35-11.22-0.21c-7.2-1.46-10.72-5.3-14.01-10.94
		c-3.26,12.03-8.46,27.25-18.72,30.94c-5.37,1.93-15.79,2.06-20.99,1.25c-7.78-1.21-12.14-3-17.28-8.56
		c-8.25-8.88-13.83-23.91-16.81-45.11c-1.1-7.89-1.81-14.73-2.14-20.59c-14.8,9.16-26.58,15.26-35.34,18.29
		c-0.97,0.33-4.91,1.87-4.91,2.3c0.1,0.05,0.89,0.73,2.3,1.88c1.41,1.2,3.24,2.51,5.38,4.07c7.67,5.63,16.87,14.51,21.87,22.03
		c6,9.02,8.75,19.32,8.72,31.79c-0.1,18.48-5.22,32.68-15.3,42.65c-5.33,4.8-10.86,7.78-16.71,8.98
		c-5.79,1.15-10.08,1.72-12.84,1.77c-5.17-0.05-9.92-1.1-14.2-3.24c-11.02-5.69-18.27-22.45-21.72-50.17l-1.01-12.24
		c-3.31,7.18-7.04,12.5-13.29,15.22c-3.91,1.7-11.38,2.56-15.97,2.56c-11.68,0-18.83-4.53-21.09-16.55
		c-4.59-24.45-0.98-50.99,4.28-74.91l2.71-13c-0.88,0-7.28,13.94-7.99,15.56c-0.89,2.05-3.1,7.75-3.92,8.87
		c-0.55,0.77-8.97,22-14.25,28.61c-3.17,3.97-7.36,3.82-13.73,4.12c-6.15,0.3-12.28,0.25-16.34-2.58
		c-2.55,10.59-5.92,23.17-7.67,27.69c-3.76,9.14-8.41,15.03-13.89,17.59c-7.19,3.09-22.77,3.59-29.7-0.89
		c-2.14-1.36-4.18-3.55-6.11-6.63c-9.35-14.3-10.07-32.45-9.03-50.33c0.63-9.29,1.62-17.54,3.08-24.75c0.13-0.7,0.71-4.18,0.31-4.18
		c-2.64,0-5.96,7.63-23.44,7.52c-8.14-0.1-14.77-2.51-19.84-7.2c-5.43-5.9-8.56-12.06-9.45-18.48c-1.44-10.74-2.06-19.86,0.26-28.92
		c3.55-12.95,9.19-21.72,16.81-26.31c7.14-4.13,20.42-1.45,26.15,2.45c3.45,2.56,5.38,5.38,5.74,8.51c0.63,5.35,0.74,9.4,0.05,14.15
		c-2.04,14.36-7.94,26.62-17.75,36.86l-4.39,4.28l3.97,6.32c1.55,1.64,2.58,0.21,3.97-0.68c2.5-1.42,5.14-4.08,8.04-7.1
		c4.26-4.46,6.65-7.8,10.02-12.69c2.06-2.98,4.65-6.4,6.42-9.4c2.88-4.86,5.78-9.03,11.12-9.03c4.8,0,9.68,2.04,12.79,6.11
		c3.43,4.48,2.95,10.23,2.51,16.13c-0.37,4.9-0.77,6.58-1.51,11.22c-3.91,24.37-7.37,47.12-5.64,70.37
		c1.5,20.05,5.78,18.58,13.89,2.45c4.01-7.99,6.94-18.35,10.44-31.27c1.55-5.76,2.98-11.33,4.31-16.7l-0.08-5.54
		c0-6.06,0.52-10.96,1.57-14.88c2.51-9.76,6.37-16.76,11.54-20.93c6.33-5.14,14.67-7.15,23.18-5.95
		c10.06,1.42,12.16,5.01,16.03,5.01c2.26,0,3.24-2.24,5.27-4.49c5.96-6.61,8.45-7.55,17.38-6.94c6.94,0.37,11.49,2.19,13.63,5.32
		c2.51,2.77,3.81,5.9,3.81,9.4c0,14.81-0.49,17.38-3.39,39.26c-1.65,12.45-5.54,47-2.87,58.42c0.21,0.94,0.31,1.41,0.42,1.51
		c0.34,0,0.56-0.11,1.1-0.89c10.33-14.82,17.81-52.15,22.03-69.22l1.2-10.34c2.45-23.23,6.11-42.76,11.02-58.57
		c1.75-6.05,2.68-9.92,6.11-13.47c1.63-1.68,3.75-1.41,7.05-1.2c3.55,0.21,10.12,1.29,12.58,3.65c1.91,1.83,0.89,7.9,0.31,11.85
		l-7.31,45.89c-1.38,9.53-1.8,15.12-2.71,23.34c10.4-1.38,16.76-2.55,27.15-6.89c11.58-4.84,16.93-8.44,26.58-14.46
		c-0.14-16.91,1.05-26.99,3.07-42.28h-26.15l-1.67-1.67c-2.67-2.83-12.5-24.01-6-24.48c1.34-0.1,3.79,0.34,5.06,0.78
		c5.42,1.9,20.84,2.52,32.11,2.92c1.3-6.77,3.45-18.49,6.11-24.33c1.71-3.76,8.55-3.71,14.25-3.71c8.35,0,12.74,0.99,13.16,2.92
		c1.01,3.11,0.4,15.37-0.16,19.73c-0.55,4.31-0.47,3.8-0.47,7.2c1.14,1.14,22.83,2.26,26.47,3.5c3.58,1.22,3.34,8.74,3.34,11.8
		c-9.06,1.49-18.51,2.47-27.83,3.45c-4.51,0.47-4.14,0.55-4.65,1.98c-0.57,1.6-1.84,17.94-2.09,20.88
		c-1.29,15.5-1.49,47.46-0.31,60.24c1.15,11.22,2.71,20.57,4.75,28.14c0.54,1.89,4.6,13.55,6.26,13.78
		c0.63,0.09,2.42-2.38,2.92-3.08c6.83-8.76,14.12-28.65,21.84-59.63c0.62-7.65,1.53-14.6,2.8-20.82c1.93-9.61,3.76-15.14,5.48-16.65
		c3.99-3.41,24.21-0.84,26.73,3.65c0.75,1.34,0.47,3.02,0.37,4.28c-1.45,17.49-6.57,39.2-5.69,54.45c0.17,2.87,1.16,11.68,2.3,13.31
		c2.58,0,12.64-25.41,14.88-31.22c1.42-3.66,2.7-6.89,3.84-9.68c0.11-0.63-0.3-19.51,0.6-23.21c0.86-3.56,6.96-3.54,11.8-3.18
		c6.9,0.5,18.36,2.19,22.92,6.26c1.05,0.94,1.5,17.52,1.77,22.24c0.19,3.27-0.04,5.9,0.68,5.9l3.5-7.2
		c6.73-15.3,13.68-28.4,20.83-39.36c7.1-10.96,13.1-17.65,17.85-20.1c5.15-2.38,14.21-0.46,20.67,1.67
		c6.42,2.14,10.49,5.27,12.22,9.45c2.86,6.23,3.38,13.76,3.24,24.01c-0.31,11.43-2.14,30.07-5.53,55.86
		c-1.47,11.35-2.94,24.64-1.98,29.65l0.47,3.24c7.37-16.49,12.54-30.31,21.25-56.28l2.67-8.02c0.12-2.71,0.41-5.41,0.88-8.06
		c3.26-19.98,13.71-38.3,36.23-36.07c8.46,0.99,15.14,3.13,20.05,6.42c3.96,2.73,8.77,8.87,10.23,13.42
		c0.73,2.35,1.51,3.65,2.3,3.86c12.66,3.5,17.7,54.24,19.58,56.12c1.74,0,8.88-13.4,10.23-16.08c2.54-5.02,5.66-12.69,7.67-18.17
		c1.81-4.92,4.85-14.42,7.2-15.03c2.86-0.75,7.4-0.42,10.08,0.31c2.3,0.62,2.71,2.81,2.3,5.22c-0.42,2.98-2.19,8.3-5.38,16.08
		c-6.83,17.02-12.81,27.98-25.06,40.51l-5.48,5.64c0.99,11.82,1.43,17.44,1.04,30.12c-0.21,8.51-0.68,15.61-1.36,21.46
		c-4.02,30.07-12.95,48.45-26.94,55.18C756.3,579.97,743.58,581.38,735.44,579.67L735.44,579.67z M740.82,437.1
		c3.4-7.28,11.7-34.64,10.23-42.18c-0.86-4.45-3.76-8.67-6.58-11.95c-3.62,4.86-5.49,7.24-8.25,14.36
		c-4.22,10.89-5.7,20.06-4.75,31.53c0.64,7.72,1.4,10.67,3.39,16.5C738.16,442.06,738.17,441.9,740.82,437.1L740.82,437.1z
		 M752.88,560.98c7.13-18.39,9.16-42.73,9.45-64.16c0.05-3.92-0.05-5.9-0.26-5.9c-0.78,0-8.72,4.96-10.23,5.9
		c-5.42,3.37-8.49,5.82-13.16,10.7c-2.87,3.03-5.01,5.64-6.42,7.88c-7.38,11.9-6.43,24.03-1.36,36.49
		c2.04,5.06,4.44,9.24,7.15,12.63c3.66,4.39,7.27,7.29,9.34,6.42C749.22,570.02,751.05,566.73,752.88,560.98L752.88,560.98z
		 M177.06,380.2c5.19-10.78,9.03-24.66,6.06-34.87c-0.45-1.54-0.77-2.32-3.86,2.56c-4.18,6.57-6.33,13.27-7.26,21.04
		c-1.1,9.19-1.01,11.89,0,19.84C174.1,386.15,175.3,383.71,177.06,380.2L177.06,380.2z M290.81,424.1l9.34-20.2
		c-1.27-1.92-5.92-9.2-6.58-9.45c-1.25-0.46-1.82,0.34-2.77,2.87c-4.23,11.33-5.17,18.85-5.17,30.75
		C285.64,438.05,287.05,431.41,290.81,424.1L290.81,424.1z M414.22,536.97c12.44-14.89,15.92-43.58,8.41-62.7
		c-3.1-7.9-12.44-19.32-19.26-24.8c-2.65-2.12-9.21-7.31-11.02-7.31c-0.91,1.81-0.06,47.95,0.47,53.98
		c2.14,24.28,7.05,38.89,14.67,43.9C410.34,542.02,410.83,541.21,414.22,536.97L414.22,536.97z M536.44,345.33
		c-8.37-2.75-9.61-6.16-9.61-15.87c0-1.68-0.11-7.87,0.47-8.46c1.34-1.34,11.15,0.72,12.53,1.1c2.26,0.62,13.93,4.8,14.83,6.89
		c0.61,2.21-5.23,13.68-7.36,15.92C544.81,347.53,539.95,346.57,536.44,345.33L536.44,345.33z"/>
</g>
</svg>
