<?xml version="1.0" encoding="utf-8"?>
<!-- Generator: Adobe Illustrator 25.0.0, SVG Export Plug-In . SVG Version: 6.00 Build 0)  -->
<svg version="1.1" id="Layer_1" xmlns="http://www.w3.org/2000/svg" xmlns:xlink="http://www.w3.org/1999/xlink" x="0px" y="0px"
	 viewBox="0 0 864 864" style="enable-background:new 0 0 864 864;" xml:space="preserve">
<style type="text/css">
	.st0{fill-rule:evenodd;clip-rule:evenodd;}
</style>
<g>
	<path class="st0" d="M801.94,267.66l-5.77,29.09l0.12,10.94c0,0.32-0.23,0.58-0.54,0.63c-0.6,0.08-1.1-0.33-1.65-0.5
		c-1.97-0.6-2.88,6.56-3.01,7.45c-0.49,3.25,2.16,3.06,3.87,1.27c4.79-5.01,19.24-20.49,21.4-26.12c0.4-1.06,1.18-3.69,2.24-4.24
		c0.66-0.34,1.88-0.22,2.62-0.24c1.99-0.06,3.97-0.47,5.88-1c0.25-0.07,0.5,0.01,0.66,0.22c0.16,0.2,0.18,0.47,0.05,0.69
		c-1.3,2.28-0.53,4.14-3.36,6.09c-4.02,2.77-25.78,30.36-27.57,34.92c-4.2,10.7-11.93,2.64-10.74-0.78c0.72-2.06,1.5-3.58,2.26-5.46
		c0.07-0.33,0.01-1.46,0.02-1.84c0.07-2.71,0.3-5.46,0.54-8.18l3.75-32.17c-0.26-0.35-1.05-0.48-1.43-0.44
		c-1.54,0.16-2.84,1.88-3.56,3.06c-0.3,0.51-0.6,1.02-0.91,1.52c0.98-0.27,2.07-0.48,2.34-0.05c0.53,0.82-2.53,3.55-2.99,4.05
		c-3.37,3.75-6.47,7.79-9.41,11.88c-1.84,2.56-5.56,6.37-5.78,9.56c-0.06,0.94-0.3,2.05-1.15,2.71c-0.23,0.14-0.47,0.26-0.72,0.38
		c-1.49,0.69-3.85,1.18-5.22-0.03c-2.73-2.42,1.68-8.34,3.15-10.25c5.83-7.57,14.26-19.27,21.67-24.99
		c5.42-4.18,1.77-11.45,8.82-10.07c1.12,0.22,2.4,0.34,3.54,0.12c0.2-0.04,0.51-0.17,0.83-0.25c0.03-0.22,0.17-0.41,0.38-0.49
		c0.25-0.1,0.53-0.04,0.7,0.17c4.37,5.03,0.63,15.51-0.07,21.46l-2.99,16.36c-0.04,0.22-0.18,0.39-0.39,0.47
		c-0.21,0.08-0.43,0.05-0.6-0.09c-0.78-0.61,0.23-6.47,0.35-7.39c0.62-4.79,1.26-9.57,1.78-14.38
		C801.5,277.27,802.02,272.27,801.94,267.66L801.94,267.66z M706.37,212.94c0.08,0,0.16,0.02,0.23,0.06
		c0.31,0.14,0.45,0.51,0.31,0.82l-19.47,44.22c-0.12,0.27-0.4,0.42-0.69,0.36c-0.29-0.05-0.5-0.29-0.51-0.59
		c-0.15-3.72,14.75-34.57,18.93-43.27c-0.83,0.08-1.77,0.23-2.45,0.75c-1.28,0.96-3.04,5.49-3.77,7.01
		c-2.85,5.88-13.37,26.19-13.52,31.6c-0.1,3.44-1.03,3.79-2.18,5.83c0.91,0.2,1.37,1.14,1.71,1.17c0.33,0.03,0.59,0.32,0.57,0.65
		c-0.02,0.33-0.3,0.6-0.63,0.59l-3.79-0.07c-0.22,0-0.4-0.11-0.52-0.29c-0.12-0.18-0.13-0.39-0.04-0.59
		c0.91-2.04-6.08-0.05-2.82-7.36c2.44-5.47,5.27-10.84,7.75-16.34c0.53-1.17,7.57-17.05,5.45-17.45c-2.33-0.12-6.34,3.33-7.28,5.43
		l-1.35,3.02l0.48,0.76c0.17,0.27,0.11,0.63-0.14,0.82l-1.23,0.99c0.28-0.18,0.65-0.1,0.84,0.17c0.19,0.27,0.14,0.64-0.12,0.85
		l-4.24,3.34c0.09,0.06,0.17,0.14,0.22,0.24c0.16,0.3,0.05,0.68-0.26,0.84c-1.18,0.63-2.33,1.34-3.48,2.02
		c-0.92,0.55-5.29,3.49-6.26,2.4c-0.54-0.61,0.09-1.54,0.45-2.07c0.09-0.13,0.38-0.56,0.46-0.82c-1.08-0.29-4.17,0.99-5.46-1.16
		c-0.81-1.35-2.14-13.47-2.42-15.6c-0.24-1.82-1.75-13.94-2.59-14.94c-0.45-0.42-1.17-0.99-1.84-0.85
		c-2.11,0.45-4.98,10.69-6.03,13.12c-0.72,1.67-2.93,7.1-4.68,11.78c0.18-0.42,0.55-0.54,0.65-0.75c0.63-1.42,2.84-6.04,3.68-7.16
		c0.77-1.04,2.31-3.83,3.28-4.89c0.55-0.61,1.93-2.19,2.89-1.61c1.78,1.07-2.37,9.84-2.96,11.2c-1.34,3.11-2.93,6.95-4.56,9.91
		c-0.43,0.78-2.77,2.7-3.5,3.19c-1.67,1.11-3.91,2-5.61,0.44c-0.62-0.57-1.85-1.46-2.07-2.28c-0.33-1.22,2.1-5.42,2.65-6.61
		l13.18-25.49c4.41-7.09,0.96-4.37,2.49-10.87c0.18-0.75,0.53-2.02,1.48-2.09c2.99-0.23,5.92,16.43,6.55,19.06
		c1.05,2.72,1.98,5.83,1.89,8.78c-0.05,1.78-0.51,3.06-0.83,4.75c-0.24,1.25-0.17,2.28,0.22,3.5c1.62,5.12,28.42-20.77,34.62-19.38
		c0.82,0.15,2.48,0.84,3.29,1.17C703.93,211.5,705.69,212.14,706.37,212.94L706.37,212.94z M670.55,217.1
		c-1.58-4.48-1.48-16.26-1.49-17.64c0-0.33,0.25-0.6,0.58-0.63c0.33-0.02,0.62,0.21,0.66,0.54l2.51,18.67
		c0.04,0.26-0.09,0.5-0.31,0.63c-0.68,0.38-1.23-0.01-1.67-0.91l0.42,4.09c0.02,0.23-0.07,0.43-0.25,0.57
		c-0.19,0.14-0.41,0.16-0.62,0.06c-1.77-0.79-1.4-3.69-0.76-5.13c0.12-0.26,0.38-0.41,0.67-0.36
		C670.38,217.01,670.47,217.05,670.55,217.1L670.55,217.1z M596.38,228.47c13.75,0.38,23.16-7.38,28.15-19.73
		c2.56-6.33,5.42-20.28,2.31-26.77c-2.88-6.02-5.95-9.64-11.28-13.6c-0.25-0.19-0.32-0.52-0.18-0.79c0.14-0.27,0.46-0.4,0.75-0.3
		c3.84,1.3,7.14,5.23,9.84,8.24c6.37,8.83,4.43,25.66,0.32,35.04c-5.51,12.56-16.01,19.57-29.95,19.15
		c-0.52-0.02-1.05-0.04-1.57-0.07c-0.34-0.02-0.6-0.32-0.58-0.66c0.02-0.34,0.32-0.6,0.66-0.58
		C595.36,228.43,595.87,228.45,596.38,228.47C596.38,228.47,596.38,228.47,596.38,228.47L596.38,228.47z M546.91,209.4
		c0.09,0.2,0.18,0.39,0.28,0.58c2.43,2.3,4.15-2.69,4.45-4.28l12.79-43.53c0.1-0.33,0.44-0.52,0.77-0.42
		c0.33,0.09,0.52,0.44,0.43,0.77l-11.28,40.42c-0.88,2.78-4.02,15.56-8.17,7.79c-0.24-0.26-0.45-0.6-0.47-0.95
		c-3.13-0.3-4.64-10.55-4.63-13c-0.34-2.4-7.36-19.28-9.08-19.64c-2.84,0.23,0.01,4.68-0.34,6.18c-0.14,0.57-0.36,1.09-0.7,1.57
		c-0.83,1.18-2.8,2.47-3.93,3.52c-2.83,2.64-5.09,6.09-6.99,9.44c-1.36,2.4-4.38,7.08-7.76,6.34c-1.74-0.38-3.17-2.44-2.84-4.19
		c1.48-7.91,2.41-46.4,3.91-49.04c0.8-1.4,3.69-4.99,5.55-4.36c0.07,0.02,0.12,0.05,0.18,0.09c0.81,0.62,1.44,1.39,1.79,2.35
		c1.21,3.29-1.73,10.28-2.11,14.18c-0.33,3.34-2.2,21.25-1.67,25.46c2.4-2.71,7.4-9.2,9.05-9.81c3.4-1.26,1.62-1.96,2.91-4.36
		c2.11-3.94,2.3-8.05,7.1-9.89c0.15-0.06,0.56-0.43,0.71-0.55c4.24-3.36,3.01,8.01,2.93,9.1c-0.16,2.24,8.32,14.98,1.54,13.71
		c-0.7,0.56,0.18,4.82,0.84,5.49c0.28,0.28,2.13,2.25,2.52,2.21c0.51-0.19,2.91-8.4,3.16-9.13l6.82-23.77
		c1-5.32,8.07-11.55,9.16-2.74c0.04,0.31,0.04,0.61,0.01,0.92c-0.18,1.66-1.56,3.43-2.46,4.8c-1.64,2.51-2.81,4.89-3.64,7.78
		l-9.55,35.23c-0.01,0.05-0.03,0.08-0.05,0.13C547.87,208.33,547.46,208.99,546.91,209.4L546.91,209.4z M265.45,170.54
		c0.12-0.23,0.38-0.37,0.64-0.33c0.33,0.05,0.56,0.35,0.53,0.68c-0.69,6.5-13.37,7.14-13.82,8.62c1.54,5.44,11.79,38.28,11.08,40.77
		c-0.14,0.75-0.51,1.43-1.29,1.65c-0.25,0.07-0.5-0.01-0.66-0.21c-0.16-0.2-0.18-0.47-0.07-0.64c0.76-2.73-10.29-36.75-11.96-42.64
		c-0.03-0.12-0.03-0.24,0.01-0.36c0.15-0.47,0.62-0.83,1.32-1.12c-0.29,0.02-0.61,0.02-0.86,0.04c-1.07,0.08-2.16,0.26-3.23,0.45
		c1.83,6.52,3.48,13.12,5.29,19.65c1.27,4.57,4.49,17.09,6.92,20.77c1.78,2.7,2.61,3.31-0.23,5.97c-6.65,6.25-8.98-11.86-9.72-15.18
		c-0.66-2.98-6.5-31.86-10.13-30.84c-0.27,0.07-1.64,0.48-1.8,0.78c-0.2,2.23-5.86,3.06-7.44,3.42c-4.51,1.03-11.17-6.47-5.74-8
		l19.64-4.72l11.7-5C260.95,158.99,266.46,166,265.45,170.54L265.45,170.54z M265.33,170.96c-0.32,0.99-0.99,1.82-2.07,2.34
		c-1.91,0.91-3.17,1.46-5.2,0.79c-1.13-0.38-2.6,0.62-3.53,1.19c-0.38,0.21-1.44,0.89-2.21,1.31
		C256.4,175.44,264.23,175.2,265.33,170.96L265.33,170.96z M169.58,233.01c-0.33-0.24-0.56-0.51-0.51-0.81
		c0.15-0.89,3.06-0.75,3.68-0.8c1-0.08,2.32-0.2,3.28-0.52c0.05-0.02,0.08-0.02,0.13-0.03l4.75-0.53c0.32-0.04,0.61,0.17,0.68,0.48
		c0.07,0.31-0.1,0.62-0.41,0.73l-6.33,2.16c2.35,1.93,4.34,7.11,9.89,4.6l3.35-1.14c0.31-0.11,0.66,0.05,0.78,0.36
		c0.12,0.31-0.02,0.66-0.32,0.8c-6.36,2.88-7.62,3.48-13.06-1.89c-1.27-1.26-2.74-1.69-4.3-2.56c-0.07-0.04-0.15-0.08-0.25-0.12
		c0.21,1.38,0.87,3.44,2.44,2.9c3.44-1.16,1.9,4.3,3.73,5.17c6.52,3.1,6.88,4.19,13.86,1.04c12.48-5.64,9.26-20.16-0.79-18.71
		c-12.91,1.86-24.25,10.37-31.61-5.89c-5.19-11.47,10.94-25.56,21.16-23.48c3.87,0.79,8.34,2.35,11.17,5.23
		c1.65,1.67,2.99,4.22,1.92,6.56c-0.2,0.44-0.47,0.83-0.81,1.17c-1.2,1.99-5.05,1.31-5.65-0.63c-0.37-1.2-2.85-2.58-3.93-3.01
		c-2.6-1.02-5.35-0.97-7.84,0.36c-0.66,0.35-1.3,0.74-1.93,1.14c-3.34,2.16-13.36,11.09-5.01,13.66c3.97,1.22,16.34-0.3,20.59-2.53
		c-0.01-0.02-0.02-0.03-0.02-0.05c-0.13-0.28-0.19-0.61-0.11-0.91c0.78-3.04,9.98,2.41,10.98,2.98c0.74,0.42,1.44,0.91,2.08,1.46
		c4.5,3.82,6.17,10.09,4.89,15.76c-1.75,7.73-8.21,12.69-15.38,15.19c-15.98,5.58-29.86-12.45-22.09-14.9
		c-0.12-0.09-0.23-0.19-0.32-0.35C167.83,235.08,168.97,233.74,169.58,233.01L169.58,233.01z M76.21,316.83
		c1.53-1.72,3.56-4.43,2.97-5.26c-1.71-2.37-2.08-4.93-4.14-7.64l-14.62-18.92c-3.33-3.87-6.29-5.93-6.83-11.21
		c-0.1-0.95-0.25-2.8,0.91-3.21c1.3-0.46,2.69,1.33,3.65,1.96c0.06,0.04,0.11,0.09,0.16,0.15l23.95,32.04
		c3.09,5.51,2.35,12.63-2.11,17.18c-5.57,5.68-13.38,4.25-19.44,0.22c-6.25-4.15-5.66-7.25-3.66-13.66
		c0.06-0.18,0.18-0.32,0.36-0.39c0.18-0.07,0.36-0.06,0.53,0.03l1.75,0.94c0.19,0.1,0.31,0.28,0.33,0.49
		c0.02,0.22-0.06,0.41-0.23,0.54c-3.28,2.59,5,8.93,7.67,8.58l7.98-2.33c0.22-0.06,0.43-0.01,0.6,0.14
		C76.12,316.59,76.18,316.71,76.21,316.83L76.21,316.83z M63.54,312.41c1.16,1.47,6.11,2.21,7.57,1.06
		c0.19-0.15,0.42-0.18,0.63-0.08c0.22,0.09,0.35,0.29,0.37,0.52c0.38,4.75-6.71,2.89-8.66,0.82
		C61.45,312.59,62.85,311.54,63.54,312.41L63.54,312.41z M63.32,273.93c4.33,5.49,21.02,24.18,22.1,29.45
		c0.08,0.55,0.24,1.09,0.47,1.6c0.13,0.29,0.03,0.62-0.24,0.79c-0.27,0.16-0.62,0.1-0.81-0.15c-0.94-1.19-0.83-3.24-2.45-5.31
		L62.34,274.7c-0.21-0.27-0.16-0.66,0.11-0.87C62.72,273.62,63.11,273.66,63.32,273.93L63.32,273.93z M56.62,267.1
		c0.09,3.39-4.18,3.53-1.99-0.08c0.49-0.8,1.37-1.19,1.91-0.2C56.59,266.91,56.62,266.99,56.62,267.1L56.62,267.1z M119.29,220.34
		l5.42,4.08c0.11,0.08,0.18,0.19,0.22,0.32c3.23,10.63,7.8,16.89,13.31,26.3c1.62,2.76,5.62,6.96,6.4,9.6
		c1.42,4.82-4.57,11.9-7.29,15.31c-5.37,6.74-19.43,9.95-25.84,3.08c-3.62-3.88-6.76-9.01-9.48-13.57
		c-2.8-4.68-8.15-15.05-11.92-18.51c-7.74-7.12,5.98-17.21,7.54-2.83c0.57,3.01,13.97,23.44,16.6,26.05
		c3.7,3.67-1.89,2.63,6.09,4.95c1.25,0.37,2.84-1.28,5.05,0.53c1.3,0.5,5.74-2.68,6.67-3.52c3.01-2.73,4.9-6.37,3.74-10.49
		c-2.32-8.22-19.46-31.78-19.49-35.67c0-0.08,0.01-0.16,0.04-0.23l2.01-5.13c0.07-0.19,0.22-0.32,0.41-0.37
		C118.94,220.18,119.13,220.22,119.29,220.34L119.29,220.34z M112.51,265.14L96.15,237.2c-0.17-0.29-0.08-0.66,0.2-0.84
		c0.28-0.18,0.65-0.11,0.85,0.16c4.18,5.88,8.37,11.8,12,18.04c3.07,5.28,5.98,10.65,9.08,15.93c0.12,0.21,0.12,0.45-0.01,0.65
		c-0.13,0.2-0.35,0.31-0.59,0.28C115.41,271.17,113.29,267.01,112.51,265.14L112.51,265.14z M127.14,223.76
		c3.79,5.82,7.44,11.81,10.95,17.81c2.59,4.43,8.8,14.8,9.74,19.63c1.69,8.69-5.76,18.11-12.39,22.88
		c-0.27,0.19-0.64,0.14-0.85-0.11c-0.21-0.26-0.18-0.63,0.07-0.85c6.69-6.07,14.28-15.2,10.21-24.8
		c-5.01-11.82-12.32-22.83-18.79-33.9c-0.17-0.29-0.08-0.67,0.21-0.84C126.58,223.39,126.96,223.48,127.14,223.76L127.14,223.76z
		 M184.15,214.09c-3.83,1.4-13.56,6.93-17.03,3.39c-0.67-0.68-1.11-1.51-1.22-2.47c-0.43-3.86,4.18-6.46,7.39-7.22
		c0.77-0.12,1.53-0.3,2.26-0.54c0.32-0.11,0.66,0.05,0.78,0.36c0.12,0.31-0.02,0.66-0.32,0.8c-1.34,0.61-9.08,3.52-5.82,5.71
		c1.2,0.8,3.85,0.1,5.15-0.19c2.9-0.65,5.63-1.25,8.64-1.04c0.3,0.02,0.53,0.24,0.57,0.53C184.6,213.71,184.43,213.99,184.15,214.09
		L184.15,214.09z M193,207.63c0.52-0.88,1.5-1.93,1.79-2.75c0.68-1.9-2.57-5.21-3.68-6.38c-6.83-7.24-11.62-5.42-20.78-4.65
		c-0.31,0.03-0.59-0.17-0.66-0.48c-0.07-0.3,0.09-0.61,0.37-0.72c4.48-1.8,9.49-2.13,14.17-1c1.34,0.32,6.61,1.93,6.54,3.84
		c-0.03,0.7,2.69,0.27,3.1,1.16c0.09,0.19,0.08,0.39-0.03,0.57l-0.5,0.85c3.44,4.93,4.2,4.93,2.39,11.04
		c-0.09,0.31-0.41,0.5-0.73,0.43l-2.22-0.49c-0.25-0.05-0.43-0.24-0.48-0.49c-0.05-0.25,0.05-0.49,0.27-0.63L193,207.63L193,207.63z
		 M194.07,213.03c1.35-1.59,8.03,2.65,8.98,3.44c5.76,4.75,7.41,11.88,6.82,19.08c-0.55,6.66-5.12,11.7-10.51,15.15
		c-0.8,0.51-9.8,5.67-10.45,3.78c-0.31-0.9,1.56-1.41,2.11-1.62c14.73-5.41,23.88-23.09,10.18-34.9c-1.47-1.27-3.2-2.48-5.06-3.13
		c-0.6-0.21-2.17-0.38-2.34-1C193.7,213.51,193.85,213.25,194.07,213.03L194.07,213.03z M392.84,152.01l19.31,39.93
		c1.28,2.39,5.96,4.89,2.5,8.61c-0.88,0.95-2.91,0.95-4.06,0.63c-2.39-0.68-3.67-2.76-4.2-5.06l-3.77-6.29
		c-0.57,0.08-4.09,3.57-6.99,3.2c-3.28-0.42-6.17-0.09-9.32,0.83c-1.42,0.42-4.05,1.53-5.45,0.87c-0.43-0.2-0.76-0.54-1-0.95
		c-0.36-0.6-1.22-0.57-1.02-0.11c0.78,1.86-1.17,12.29-4.24,10.56c-0.44-0.25-0.94-0.49-1.41-0.61c-0.4-0.06-0.79-0.23-1.09-0.55
		c-1.83-1.97,2.86-11.35,3.72-13.7c0.95-2.58,1.92-5.65,1.92-8.42c0-6.82,4.94-13.85,5.65-20.96c0.28-2.79,1.43-3.49,1.9-5.43
		c0.17-0.72-0.09-1.39-0.43-2.01C382.54,148.29,390.22,135.95,392.84,152.01L392.84,152.01z M382.27,197.36
		c0.55,2.9-1.35,5.49-3.3,7.41c-0.18,0.17-0.42,0.23-0.66,0.14c-0.23-0.09-0.38-0.29-0.4-0.54c-0.08-1.11,2.1-3.11,2.61-5.05
		c0.14-0.69,0.34-1.36,0.55-2.03c0.09-0.28,0.34-0.45,0.63-0.43C381.98,196.87,382.22,197.08,382.27,197.36L382.27,197.36z
		 M524.5,159.75c-0.03,1.06,0.03,9.75-0.68,10.59c-1.18,1.39-1.4,2.07-2.04,3.9c-0.11,0.3-0.42,0.47-0.73,0.4s-0.51-0.37-0.47-0.69
		l2.94-22.47c0.04-0.33,0.34-0.57,0.67-0.54c0.33,0.03,0.58,0.31,0.57,0.64L524.5,159.75L524.5,159.75z M517.21,204.09l13.81-18.21
		c0.19-0.25,0.54-0.32,0.81-0.16c0.27,0.16,0.38,0.5,0.26,0.79c-1.71,3.92-12.83,21.16-17.18,20.98c-0.51-0.02-1.3-0.06-1.41-0.7
		C513.33,205.85,516.39,204.82,517.21,204.09L517.21,204.09z M622.17,177.77c4.92,9.45,4.3,20.47,0.38,30.13
		c-2.88,7.08-8.96,16.1-16.46,18.83c-8.15,2.96-17.15-2.19-21.61-8.98c-7.2-10.99-3.75-24.4,2.65-34.86
		c6.96-11.37,15.07-14.8,27.82-10.5c0.27,0.09,1.56,0.5,1.83,0.31c0.11-0.25-0.29-0.79,0.28-1.14c0.66-0.41,1.41,0.68,1.79,1.09
		C620.16,174.11,621.26,176.04,622.17,177.77L622.17,177.77z M752,243.29l-8.6,43.52c-0.42,2.67,1.82,7.49-3.18,8.38
		c-1.28,0.23-2.91-0.99-3.63-1.95c-1.48-1.98-1.26-4.4-0.31-6.56l0.77-7.29c-0.5-0.29-5.41,0.4-7.51-1.65
		c-2.36-2.31-4.87-3.78-7.94-4.94c-1.39-0.52-4.16-1.22-4.88-2.59c-0.22-0.42-0.28-0.88-0.23-1.35c0.07-0.69-0.63-1.19-0.75-0.71
		c-0.5,1.96-8.33,9.11-9.74,5.88c-0.2-0.46-0.46-0.96-0.76-1.33c-0.29-0.28-0.5-0.66-0.54-1.09c-0.28-2.67,9.11-7.35,11.22-8.7
		c2.31-1.49,4.93-3.36,6.59-5.57c4.11-5.45,12.28-8.08,17.13-13.34c1.9-2.06,3.23-1.93,4.78-3.2c0.57-0.47,0.77-1.16,0.87-1.87
		C746.02,234.13,759.58,228.9,752,243.29L752,243.29z M716.28,273.16c-1.31,2.65-4.38,3.57-7.1,3.93c-0.25,0.03-0.47-0.07-0.61-0.28
		c-0.13-0.21-0.13-0.46,0-0.67c0.6-0.93,3.55-1.23,5.12-2.47c0.53-0.46,1.09-0.89,1.66-1.29c0.24-0.17,0.55-0.16,0.76,0.03
		C716.35,272.6,716.41,272.9,716.28,273.16L716.28,273.16z M765.91,312.3l3.71-0.15c0.31-0.01,0.58,0.2,0.64,0.51
		c0.06,0.31-0.12,0.6-0.41,0.7c-0.75,0.25-5.18,2-5.6,0.54C764.02,313.09,765.19,312.39,765.91,312.3L765.91,312.3z M770.53,311.34
		l15.85-23.53c0.18-0.27,0.54-0.35,0.82-0.19c0.28,0.16,0.39,0.51,0.26,0.81c-1.04,2.21-2.27,5.67-3.45,7.68
		c-0.46,0.77-1.17,1.56-1.74,2.25c-1.72,2.08-3.39,4.19-5.04,6.33l-5.69,7.38c-0.2,0.27-0.58,0.32-0.86,0.13
		C770.41,312,770.35,311.62,770.53,311.34L770.53,311.34z M811.17,310.04c2.4-3.11,13.41-17.66,16-18.53c0.27-0.09,0.55,0,0.71,0.23
		c0.16,0.23,0.15,0.53-0.02,0.75c-4.63,5.84-9.11,11.82-13.71,17.69c-2.96,3.77-5.95,7.54-9.04,11.21c-1.75,2.08-4.26,5.16-6.4,6.82
		c-0.25,0.19-0.6,0.17-0.82-0.05c-0.22-0.22-0.25-0.57-0.05-0.82L811.17,310.04L811.17,310.04z M385.59,162.75
		c0.32,0.05,0.61,0.09,1,0.46c0.92,0.87,0.57,2.52,0.27,3.6l-5.52,17.35c-0.01,0.04-0.03,0.08-0.05,0.12
		c-0.15,0.27-1.05,1.97-0.74,2.29c0.89,0.93,7.04-2.54,8.75-2.37l9.37,0.76c4.51,0.5,1.68-5.54,0.52-7.39
		c-0.7-1.33-9.57-18.83-10.93-18.97c-0.12,0.05-2.08,3.47-2.54,4C385.68,162.64,385.64,162.69,385.59,162.75L385.59,162.75z
		 M387.59,181.01c3.01-0.23,3.62-1.5,4.99,2.24c0.09,0.24,0.03,0.49-0.15,0.66c-0.18,0.18-0.44,0.22-0.67,0.12l-4.36-1.83
		c-0.27-0.11-0.42-0.39-0.37-0.67C387.07,181.24,387.3,181.03,387.59,181.01L387.59,181.01z M612.35,179.28
		c-1.97-1.49-7.44-0.59-9.57,0.12c-6.04,2.01-10.12,6.69-12.43,12.51c-8.03,20.27,10.6,39.33,24.32,17.8
		c5.04-7.91,8.16-25.57-2.21-30.36C612.43,179.33,612.39,179.31,612.35,179.28L612.35,179.28z M606.37,181.55
		c-6.07,2.8-10.41,7.86-12.43,14.21c-1.18,3.71-1.9,9.85,0.28,13.35c8.88,14.27-3.74,5.77-4.75-1.52
		c-1.54-11.07,4.37-25.18,16.54-27.21c0.31-0.05,0.61,0.13,0.7,0.43C606.79,181.1,606.65,181.42,606.37,181.55L606.37,181.55z
		 M739.75,247.51c0.23,0.23,0.43,0.44,0.52,0.97c0.21,1.24-1.06,2.36-1.95,3.04l-14.85,10.54c-0.04,0.03-0.07,0.05-0.11,0.06
		c-0.29,0.12-2.02,0.94-1.97,1.38c0.15,1.28,7.16,2.21,8.42,3.37l7.03,6.25c3.3,3.12,4.68-3.42,4.86-5.59
		c0.24-1.48,3.69-20.81,2.68-21.73c-0.13-0.04-3.76,1.51-4.43,1.66C739.9,247.48,739.83,247.49,739.75,247.51L739.75,247.51z
		 M730.37,263.3c2.55,1.63,3.79,0.98,2.64,4.79c-0.07,0.24-0.27,0.41-0.52,0.44c-0.25,0.03-0.48-0.09-0.61-0.31l-2.38-4.09
		c-0.15-0.25-0.1-0.56,0.11-0.76C729.81,263.17,730.12,263.14,730.37,263.3L730.37,263.3z"/>
	<path class="st0" d="M649.55,347.17c-0.43,0.55-0.93,1.14-1.31,1.72c-0.19,0.28-0.56,0.36-0.85,0.19
		c-0.29-0.18-0.38-0.55-0.21-0.84c0.43-0.75,0.84-1.26,1.42-1.88l1.35-1.74c1.19-1.85,2.2-4.05,3.15-6.11l4.28-7.11
		c0.11-0.19,0.3-0.3,0.52-0.3c0.22-0.01,0.41,0.1,0.53,0.28c1.66,2.51-5.71,11.69-7.47,13.96
		C650.54,346.01,650.1,346.59,649.55,347.17L649.55,347.17z M556.75,264.51c0.28,1.46,0.33,2.97,0,4.42
		c-0.07,0.32-0.38,0.53-0.71,0.48c-0.32-0.05-0.55-0.35-0.52-0.67c0.13-1.34,0.13-2.69,0-4.03c-1.08-5.54-6.45-12.63-11.77-14.65
		c-0.72-0.28-3.27-1.09-3.02-2.2c0.07-0.32,0.37-0.52,0.69-0.48C549.89,248.54,555.9,256.3,556.75,264.51L556.75,264.51z
		 M451.98,236.49l11.14,27.48l6.11,9.08c0.18,0.26,0.13,0.61-0.11,0.82c-0.46,0.4-1.12,0.32-1.67,0.49
		c-1.95,0.59,1.21,7.06,1.59,7.88c1.38,2.98,3.48,1.38,3.93-1.06c1.21-6.57,4.79-27.88,3.55-33.58c-0.24-1.11-1.04-3.74-0.45-4.78
		c0.37-0.64,1.45-1.21,2.06-1.64c1.63-1.14,3.05-2.57,4.35-4.06c0.17-0.19,0.43-0.26,0.67-0.18c0.24,0.08,0.4,0.29,0.42,0.55
		c0.17,2.62,1.83,3.75,0.53,6.93c-1.81,4.45-4.87,39.62-3.88,44.32c2.37,11.26-8.52,8.75-9.4,5.24c-0.53-2.11-0.71-3.83-1.11-5.81
		c-0.13-0.31-0.79-1.22-0.99-1.54c-1.43-2.31-2.74-4.73-4.04-7.13l-14.53-28.95c-0.41-0.15-1.14,0.18-1.43,0.42
		c-1.19,0.98-1.34,3.13-1.3,4.52c0.03,0.59,0.06,1.18,0.07,1.77c0.67-0.77,1.46-1.54,1.93-1.33c0.89,0.4-0.17,4.35-0.27,5.02
		c-0.76,4.98-1.13,10.06-1.35,15.1c-0.13,3.15-1.15,8.37,0.42,11.17c0.46,0.83,0.87,1.87,0.52,2.9c-0.12,0.25-0.26,0.49-0.4,0.72
		c-0.87,1.39-2.57,3.08-4.37,2.82c-3.61-0.52-3.17-7.89-2.99-10.3c0.73-9.54,1.34-23.91,4.39-32.78c2.23-6.47-4.81-10.54,1.85-13.26
		c1.06-0.43,2.2-1.04,3.03-1.84c0.14-0.13,0.33-0.42,0.55-0.66c-0.1-0.2-0.08-0.43,0.05-0.62c0.15-0.22,0.42-0.32,0.68-0.25
		c6.42,1.8,9.03,12.61,11.72,17.98l6.48,15.31c0.09,0.2,0.06,0.42-0.07,0.6c-0.13,0.18-0.33,0.28-0.55,0.26
		c-0.99-0.06-3.37-5.53-3.77-6.36c-2.11-4.34-4.2-8.69-6.41-12.98C456.9,244.78,454.59,240.3,451.98,236.49L451.98,236.49z
		 M405.68,289.63c0.13,0.54,0.54,2.11-0.36,2.21c-0.88,0.1-0.57-1.44-0.6-1.99c-0.27-1.11-1.16-2.77-2.36-3.07l-3.9-0.53
		c-0.18-0.02-0.32-0.11-0.43-0.26c-0.1-0.15-0.14-0.32-0.1-0.49c0.82-3.64,7.47-0.86,7.67,3.13
		C405.64,288.96,405.66,289.29,405.68,289.63L405.68,289.63z M275.47,320.47c-0.12,0-0.25-0.01-0.38-0.02
		c-0.28-0.02-0.5-0.23-0.56-0.49c-0.55,0.17-1.14,0.24-1.77,0.19c-4.72-0.42-26.49,12.33-29.85,7.93c-0.03-0.04-0.05-0.08-0.07-0.12
		l-15.59-35.04c-0.9-2.61-2.56-8.93-4.5-10.67c-2.61-2.34-0.37-6.92,2.82-7.03c2.69,0.17,5.44,4.73,4.28,7.07l14.92,36.46
		c0.21,0.42,1.03,2.58,1.3,2.77c0.84,0.58,17.35-6.52,18.55-7c3.7-1.46,7.33-7.07,11.28-3.86c3.26,2.65,2.52,6.66,0.14,8.51
		c2.27-0.5,2.8-3.96,2.59-5.9c-0.04-0.32,0.18-0.62,0.5-0.68c0.32-0.06,0.63,0.13,0.72,0.45
		C280.94,316.98,280.34,320.59,275.47,320.47L275.47,320.47L275.47,320.47z M205.48,343.43c0.35,0.43,1.4,1.67,0.63,2.15
		c-0.75,0.47-1.4-0.96-1.66-1.45c-0.72-0.89-1.97-2.09-3.18-1.85l-4.63,1.49c-0.33,0.11-1.51,0.08-1.7,0.05
		c-0.2-0.03-0.35-0.13-0.45-0.3l-16.15-27.18c-0.18-0.3-0.08-0.68,0.22-0.85c0.29-0.18,0.68-0.08,0.85,0.22l7.33,12.29l9.27,13.9
		c1.26-2.33,7.37-2.34,8.99,0.64C205.15,342.84,205.31,343.14,205.48,343.43L205.48,343.43z M54.78,393.81l-6.88,0.73
		c-0.26,0.03-0.51-0.11-0.62-0.34c-0.12-0.24-0.07-0.51,0.11-0.7c2.56-2.69,10.87-2.53,14.19-1.88c3.4,0.66,6.78,2.13,8.97,4.89
		c1.85,2.33,3.89,5.03,5.22,7.7c0.39,0.78,0.6,1.69,0.9,2.34c1.01,0.15,3.22,0.09,4.42,0.24c11.32,1.48,17.89,17.48,15.28,27.64
		c-0.08,0.31-0.38,0.51-0.7,0.46c-0.32-0.05-0.54-0.33-0.53-0.65c0.52-9.91-0.48-13.5-7.05-21.35c-1.03-1.23-2.53-2.07-4.01-2.64
		c-1.74-0.67-3.63-1.06-5.48-1.31c-0.42-0.06-2.43-0.22-3.03-0.38c-0.96-0.29-0.75-1.82-0.6-2.67c-2.04-4-9.31-12.1-13.87-12.75
		l-4.59,0.48c11.86,4.07,11.96,3.16,16.89,16.2l1.6,0.73c0.23-2.56,5.53,0.66,7.05,1.09c5.54,1.54,9.4,5.28,11.23,10.7
		c0.37,1.1,1.97,7.94,0.44,8.59c-0.58,0.43-2.44,2.96-2.96,3.62c-1.87,2.37-3.77,4.73-5.79,6.97c-2.33,2.6-9.01,10-13.1,7.74
		l-10.86-7.36c-3.45-3.13-21.65-21.54-23.86-22.08c-3.18-0.78,1.14-8.03,1.93-9.26c3.68-5.71,9.13-10.73,14.98-14.22
		c0.31-0.15,1.57-0.79,2.13-1.19c-0.42-0.21-0.89-0.28-1.31-0.9C54.79,394.12,54.76,393.96,54.78,393.81L54.78,393.81z
		 M114.81,333.56l5.92,3.3c0.12,0.07,0.21,0.16,0.26,0.28c4.64,10.1,10.02,15.67,16.76,24.24c1.98,2.52,6.52,6.13,7.64,8.64
		c2.06,4.58-2.91,12.41-5.14,16.16c-4.4,7.4-17.9,12.51-25.18,6.57c-4.12-3.36-7.92-8.01-11.24-12.15
		c-3.41-4.26-10.12-13.8-14.33-16.72c-8.61-5.99,3.61-17.83,7.08-3.83c0.98,2.9,16.99,21.29,19.99,23.55
		c4.17,3.13-1.51,2.86,6.7,4.08c1.29,0.19,2.64-1.65,5.07-0.16c1.36,0.31,5.32-3.43,6.13-4.4c2.61-3.11,3.99-6.98,2.28-10.9
		c-3.42-7.83-23.59-28.84-24.16-32.69c-0.01-0.08-0.01-0.16,0.01-0.24l1.29-5.35c0.05-0.2,0.17-0.34,0.36-0.42
		C114.45,333.45,114.64,333.46,114.81,333.56L114.81,333.56z M114.19,378.87l-20.01-25.46c-0.21-0.26-0.17-0.64,0.08-0.86
		c0.25-0.22,0.63-0.2,0.86,0.05c4.94,5.25,9.9,10.56,14.35,16.24c3.76,4.81,7.37,9.74,11.15,14.55c0.15,0.19,0.18,0.43,0.07,0.65
		c-0.1,0.22-0.31,0.35-0.55,0.36C117.89,384.45,115.22,380.61,114.19,378.87L114.19,378.87z M123.06,335.88
		c4.55,5.25,8.98,10.69,13.27,16.15c3.17,4.04,10.74,13.46,12.32,18.12c2.85,8.38-3.24,18.72-9.16,24.35
		c-0.24,0.23-0.61,0.23-0.86,0c-0.24-0.23-0.26-0.6-0.05-0.85c5.8-6.93,12.08-17,6.75-25.96c-6.57-11.03-15.31-20.94-23.23-31.02
		c-0.21-0.27-0.17-0.65,0.09-0.87C122.45,335.59,122.84,335.62,123.06,335.88L123.06,335.88z M175.38,302.06
		c1.88,0.47,7.19-0.23,6.24,4.28c-1.74,8.23-6.08,3.96-7.92,6.76c-0.13,2.57,17.09,30.56,19.78,34.77c0.07,0.11,0.26,0.39,0.41,0.56
		c0.86-1.19,0.83-4.15,4.29-3.67c0.51,0.07,1.77-0.48,2.28-0.66c4.42-1.61,5.09,1.56,4.97,5.44c-0.01,0.42-0.1,0.83-0.26,1.21
		c-0.83,2.02-3.97,3.27-5.83,4.11c-3.79,1.71-7.21,3.36-10.65,5.76c-5.29,3.7-5.48,0.99-4.69-4.11c0.78-5.06,8.71,1.28,1.34-11.54
		c-2.44-4.25-15.31-27.37-18.96-28.33c-1.23-0.32-6.51,5.4-8.36,0.64c-0.39-1-0.54-2.08-0.11-3.1c0.76-1.76,3.18-2.81,4.81-3.57
		c2.55-1.18,4.96-2.28,7.18-4.05c3.15-2.5,2.51-7.67,5.36-8.01c1.93-0.23,3.02,1.63,1.62,2.48
		C176.64,301.19,175.82,301.7,175.38,302.06L175.38,302.06z M247.75,316.6c-2.22,0.12-3.58-4.76-4.27-6.41l-12.83-32.7
		c-0.12-0.32,0.03-0.68,0.34-0.8c0.31-0.13,0.68,0.02,0.81,0.33l16.49,38.72c0.08,0.19,0.07,0.39-0.04,0.57
		C248.14,316.49,247.96,316.59,247.75,316.6L247.75,316.6z M294.76,261.59c-2.75-11.89,6.55-7.86,13.23-11.46
		c3.95-2.13,12.55-0.85,16.2,1.7c6.82,4.75,14.72,23.55,13.54,31.84c-1.64,11.54-5.48,19.41-17.64,22.22
		c-17.09,3.95-14.75-1.73-18.93-14.8l-5.81-21.42L294.76,261.59L294.76,261.59z M337.14,263.26c5.43,12.12,6.91,30.28-3.96,40.01
		c-3.67,3.29-8.19,4.92-13.08,5.17c-0.32,0.02-0.6-0.21-0.65-0.54c-0.05-0.32,0.16-0.62,0.48-0.69c9.44-2.18,13.96-6.68,18.12-15.38
		c3.62-7.56,0.52-20.51-2.07-28.11c-0.11-0.31,0.05-0.66,0.36-0.78C336.65,262.82,337,262.96,337.14,263.26L337.14,263.26z
		 M399.39,237.39c3,0.73,2.85,4.51,2.47,7.22c-0.04,0.32-0.32,0.55-0.63,0.54c-0.88-0.03-0.08-0.56-1.07,0.73
		c-5.12,6.67-7.2,0.95-10.06,2.68c-1.23,2.25,2.24,34.94,2.85,39.9c0.02,0.13,0.06,0.46,0.12,0.69c1.29-0.7,2.54-3.38,5.45-1.46
		c0.43,0.29,1.8,0.33,2.34,0.39c4.68,0.46,3.92,3.61,2.14,7.05c-0.19,0.37-0.44,0.7-0.76,0.98c-1.63,1.46-4.99,1.23-7.03,1.19
		c-4.16-0.1-7.95-0.08-12.09,0.6c-6.38,1.06-5.36-1.47-2.46-5.73c2.89-4.24,7.31,4.91,6.19-9.83c-0.37-4.88-2.01-31.3-4.89-33.73
		c-0.97-0.82-8.21,2.07-7.82-3.03c0.08-1.08,0.41-2.11,1.24-2.84c1.44-1.26,4.08-1.16,5.88-1.14c2.81,0.03,5.45,0.08,8.22-0.56
		c3.93-0.9,5.51-5.58,8.23-4.94C398.51,236.29,399.29,236.81,399.39,237.39L399.39,237.39z M400.57,242.49
		c-0.07-1.8-0.39-3.64-2.4-3.44c-0.27,0.03-1.23,0.13-1.79,0.28C397.3,240.09,399.61,241.02,400.57,242.49L400.57,242.49z
		 M395.42,267.62l2.42,16.91c0.04,0.3-0.13,0.58-0.42,0.68l-0.89,0.3c-0.19,0.06-0.37,0.04-0.54-0.07
		c-0.17-0.11-0.26-0.27-0.28-0.46l-2.85-31.48c-0.03-0.34,0.22-0.65,0.56-0.68c0.34-0.03,0.64,0.22,0.68,0.56L395.42,267.62
		L395.42,267.62z M446.38,293.57l3.02-2.17c0.26-0.18,0.61-0.15,0.82,0.08c0.21,0.23,0.22,0.58,0.02,0.82l-3.01,3.54
		c-0.17,0.2-0.44,0.27-0.69,0.18c-0.25-0.09-0.41-0.31-0.41-0.58l-0.01-1.37C446.11,293.87,446.21,293.69,446.38,293.57
		L446.38,293.57z M449.71,290.23l0.33-28.37c0-0.33,0.26-0.59,0.58-0.61c0.32-0.02,0.61,0.21,0.66,0.53
		c0.35,2.41,1.22,5.99,1.33,8.33c0.04,0.9-0.12,1.95-0.22,2.85c-0.29,2.67-0.53,5.35-0.73,8.03l-0.71,9.3
		c-0.03,0.33-0.31,0.59-0.65,0.57C449.97,290.85,449.71,290.57,449.71,290.23L449.71,290.23z M482.96,266.84
		c0.3-3.92,1.52-22.12,3.2-24.28c0.17-0.22,0.46-0.3,0.72-0.2c0.26,0.1,0.42,0.36,0.39,0.63c-0.66,7.42-1.12,14.88-1.75,22.32
		c-0.4,4.78-0.83,9.57-1.41,14.33c-0.32,2.7-0.73,6.65-1.6,9.21c-0.1,0.3-0.41,0.47-0.71,0.41c-0.31-0.06-0.52-0.34-0.5-0.66
		L482.96,266.84L482.96,266.84z M549.2,275.45c-2.1,0.63-4.55-2.65-3.5-4.83c0.92-1.9-1.55-6.63-2.76-8.08
		c-3.61-4.36-8.75-4.56-13.79-2.7c-3.93,1.46-8.05,10.25-9.15,13.96c-2.52,8.46-1.29,16.91,5.02,23.4c8.46,8.7,18.48-1.42,16.44-6.2
		c-0.14-0.33-1.1-2.7-1.4-2.85c-0.01,0-2.94,0.81-3.36,0.87c-6.08,0.77-6.69-11.53-0.51-9.7c4.59,1.36,7.81,2.82,11.51-1.11
		c0.19-0.21,0.5-0.26,0.75-0.12c0.25,0.13,0.38,0.41,0.31,0.69c-0.43,1.9,4.17,3.15,1.05,9.27c-1.57,3.09-2.02,12.35-4.03,14.31
		c-3.2,3.13-14.05,6.62-18.51,5.59c-3.25-0.75-6.17-2.27-8.62-4.55c-9.38-8.71-9.12-24.91-4.34-35.86
		c2.22-5.09,5.57-9.69,9.99-13.08c21.98-16.85,39.24,18.09,25.76,20.74L549.2,275.45L549.2,275.45z M531.64,262.06
		c-6.71,7.18-13.41,26.76-0.77,31.66c0.23,0.09,0.37,0.28,0.4,0.52c0.02,0.24-0.09,0.46-0.29,0.59c-1.15,0.72-2.43,2.01-3.82,2.12
		c-2.27,0.18-3.81-2.85-4.62-4.53c-2.3-4.78-2.5-9.48-1.43-14.63c0.85-6.1,4.28-13.52,9.77-16.7c0.27-0.16,0.61-0.09,0.8,0.15
		C531.87,261.49,531.86,261.83,531.64,262.06L531.64,262.06z M538.57,308.05c10.47-6.81,9.21-4.27,12.29-17.61
		c1.26-5.47,1.17-6.6-1.52-11.55c-0.11-0.2-0.28-0.62-0.17-0.82c1.04-1.71,3.02,1.89,3.33,2.78c1.53,4.29,0.34,11.04-0.64,15.31
		c-1.71,7.41-6.04,10.26-12.72,12.99c-0.3,0.12-0.64,0-0.79-0.29C538.21,308.58,538.3,308.23,538.57,308.05L538.57,308.05z
		 M699.07,318.31c0.1,1.1,0.27,2.92-0.23,3.62c-0.31,0.43-1.3,1.07-1.76,1.53c-1.56,1.54-2.95,3.82-4.04,5.7
		c-3.2,5.58-15.9,25.41-16.56,30.08c-0.59,4.19-1.67,4.78-5.5,4.5c-1-0.07-2.42-0.28-2.89-1.31c-0.74-1.61,1.8-4.82,2.67-6.1
		c2.28-3.37,4.3-6.64,5.75-10.47c0.37-0.98,3.05-6.31,3.07-6.83c0.02-0.6-0.56-1.5-1.01-2.14c-3.31,1.26-9.48-3.17-11.86-4.81
		c-0.96-0.66-9.21-6.74-10.09-6.09c-0.16,0.12-0.03,0.94,0,1.09c0.99,5.12-8.52,11.97-8.18,16.48c0.52,6.95-8.34,4.64-8.58,2.39
		c-0.44-4.14,2.53-8.44,4.74-11.71c3.34-4.95,6.49-9.49,8.61-15.15c1.29-3.44,7.88-16.44,10.57-18.29
		c3.41-2.34,12.45,0.1,10.62,3.29l-6.94,11.62c-0.18,0.29-0.56,0.39-0.85,0.22c-0.29-0.17-0.39-0.55-0.22-0.85
		c0.54-0.94,5.88-10.05,5.49-11.09c-0.13-0.08-0.59-0.09-1.08-0.18c-0.11,0.77-0.33,1.49-0.72,2.19c-0.77,1.41-2.19,2.78-3.2,4.07
		c-1.94,2.46-3.37,5.18-4.56,8.08c-0.07,0.16-0.11,0.34-0.14,0.52c-0.4,2.69,2.88-0.96,3.18-1.31c0.21-0.24,0.57-0.28,0.83-0.1
		c0.26,0.19,0.34,0.54,0.18,0.82c-5.43,9.44,10.66,9.12,11.91,12.6c0.25,0.69,1.16,4.2,1.8,4.42c1.46,0.5,6.8-8.88,7.31-9.78
		c6.96-12.12,1.59-9.44,15.44-9.58c0.31,0,0.58,0.22,0.62,0.54C703.96,319.88,700.39,318.18,699.07,318.31L699.07,318.31z
		 M672.98,322.48c-1.63-0.83-5.43-2.47-5.5-4.55c-0.01-0.23,0.1-0.44,0.31-0.56c0.2-0.12,0.44-0.12,0.64,0l10.33,6.2
		c0.28,0.17,0.38,0.52,0.24,0.82c-0.15,0.29-0.5,0.42-0.8,0.29L672.98,322.48L672.98,322.48z M693.97,332.1l4.84-7.97
		c0.18-0.29,0.56-0.39,0.85-0.21c0.29,0.17,0.39,0.55,0.22,0.85l-21.14,36.77c-0.17,0.3-0.55,0.4-0.85,0.23
		c-0.3-0.17-0.4-0.55-0.23-0.85L693.97,332.1L693.97,332.1z M733.3,346.11l-9.17,11.33c0.92,0.69,1.73,1.18,2.8,1.75
		c1.85,0.97,3.42,2.6,4.86,4.07c1.52,1.55,3.19,2.86,5.23,3.63c1.03,0.39,2.53,0.66,3.39,1.3c0.29,0.22,0.53,0.48,0.72,0.79
		c2.59,4.12,1.93,5.75-2.34,8.56c-3.64,2.4-6.78-3.78-8.76-5.33l-10.62-7.63c-2.24,0.06-7.45,9.61-8.62,11.1
		c-1.07,1.36-4.3,2.01-0.68,3.55c7.72,3.27,9.03,11.2,19.67,14.54c11.03,3.46,1.19,15.72-5.8,8.32c-1.78-1.89-3.4-3.91-5.14-5.76
		c-1.96-2.08-6.33-5.05-8.62-6.85c-2.24-1.76-8.54-5.74-9.23-8.52c-0.9-3.61,5.83-12.09,7.77-14.92c1.77-2.58,3.31-4.71,5.81-6.61
		c2.97-2.25,5.25-6.14,7.17-9.26c1.7-2.76,10.43-13.68,13.78-13.16c3.83,0.59,16.31,14.6,22.35,15.54
		c10.29,1.6,3.56,17.74-5.69,7.85c-0.78-0.83-1.63-1.71-2.53-2.41L733.3,346.11L733.3,346.11z M742.11,355.79
		c-1.09-0.6-6.12-3.68-7.35-3.18c-0.9,0.36-1.97,3.15-2.34,3.99c-0.63,1.42,3.45,4.58,4.31,5.4c0.24,0.22,0.26,0.59,0.06,0.85
		c-0.21,0.25-0.57,0.3-0.84,0.12l-9.2-6.51c-0.17-0.12-0.26-0.29-0.26-0.5c0-0.2,0.08-0.38,0.24-0.51c3.11-2.41,4.05-4.7,6.76-7.33
		c0.22-0.22,0.57-0.24,0.82-0.04l8.49,6.67c0.25,0.2,0.31,0.56,0.13,0.83C742.75,355.86,742.39,355.95,742.11,355.79L742.11,355.79z
		 M721.13,368.84c2.13,0.94,5.64,2.44,6.92,4.45c0.16,0.25,0.12,0.57-0.09,0.77c-0.21,0.21-0.52,0.24-0.77,0.09l-6.66-4.22
		c-0.28-0.18-0.37-0.54-0.21-0.82C720.48,368.82,720.83,368.71,721.13,368.84L721.13,368.84z M720.07,366.75
		c-0.77,2.62-1.76,5.04-3.02,7.46c-0.18,0.34-1.35,2.41-1.28,2.73c0.14,0.2,0.14,0.44,0.02,0.66c-0.13,0.21-0.35,0.33-0.6,0.3
		l-3.1-0.34c-0.23-0.02-0.41-0.16-0.5-0.36c-0.09-0.21-0.07-0.43,0.06-0.62l7.32-10.37c0.18-0.25,0.5-0.33,0.78-0.2
		C720.02,366.15,720.16,366.46,720.07,366.75L720.07,366.75z M756.49,424.78c-8.22-2.82,12.07-18.58,14.18-20.59
		c3.44-3.28,20.59-21.81,24.28-20.86c0.11,0.03,0.2,0.08,0.28,0.16l17.05,16.74c3.46,4.92,2.93,12.03,0.02,17.08
		c-3.93,6.8-11.09,9.05-18.58,7.67c-0.5-0.09-1.67-0.38-2.15-0.23c-1.03,0.33-3.7,6.17-4.2,7.13c-0.55,1.07-0.95,2.21-1.26,3.37
		c-1.32,4.91-0.59,15.14-8.24,12.49c-6.11-2.12,9.25-25.29,8.1-29.24c-0.13-0.46-0.33-0.86-0.67-1.2c-0.6-0.59-1.87-1.13-2.63-1.56
		c-1.82-1.03-3.35-2.3-4.79-3.81c-0.34-0.36-2.04-2.27-2.56-2.25c-0.46,0.01-1.9,1.63-2.21,1.95c-2.17,2.23-4.43,4.18-6.93,6.02
		c-3.53,2.61-3.14,7.15-7.01,7.48c3.59,0.79,12.27-11.31,13.91-12.87c4.81-4.57,2.86,0.78,5.23,3.26c2.15,2.25-0.91,7.26-2.99,0.4
		C771.12,418.57,758.08,433.61,756.49,424.78L756.49,424.78z M794.96,429.49l-6.53,12.24c-0.15,0.29-0.49,0.41-0.79,0.28
		c-0.3-0.12-0.45-0.45-0.35-0.76c0.83-2.62,3.38-13.36,5.95-14.62c1.59-0.78,5.34,0.11,7.11,0.33c2.48,0.31,7.78-3.14,9.56-4.68
		c4.67-4.05,6.98-9.41,6.18-15.61c-0.34-2.09-0.78-4.18-1.29-6.25c-0.08-0.33,0.12-0.66,0.45-0.75c0.33-0.08,0.67,0.11,0.76,0.44
		c3.27,11.74,3.1,15.02-4.88,23.95c-2.49,2.79-6.21,4.14-9.81,4.79C799.84,429.11,796.21,429.2,794.96,429.49L794.96,429.49z
		 M778.3,448.7c2.92,0.07,0.33,2.7,6.84-1.58c0.25-0.17,0.58-0.13,0.79,0.09c0.21,0.22,0.24,0.55,0.06,0.79
		c-3.89,5.49-10.84,1.89-7.94,0.74C778.13,448.72,778.21,448.7,778.3,448.7L778.3,448.7z M58.81,429.76
		c0.14,0.36,0.17,0.73,0.1,1.11c0.08,0.9,0.13,2.18,0.47,3c0.19,0.47,0.85,1.27,1.69,2.19c-0.62-1.26-0.96-2.58-0.72-3.95
		c0.04-0.25,0.22-0.44,0.47-0.5c0.25-0.06,0.49,0.03,0.64,0.24c1.94,2.66,4.16,4.89,6.93,6.68c0.92,0.59,3.37,1.73,3.58,2.84
		c0.13,0.71-0.36,1.34-0.82,1.82c-0.26,0.28-0.95,0.57-1.05,0.87c0.36,0.39,0.87,0.88,1.35,0.95c1.49,0.2,4.2-3.93,4.87-4.91
		c0.12-0.17,0.29-0.26,0.42-0.26c2.02-0.57,6.29-4.99,7.47-6.66c3.42-4.86,3.45-9.8-0.41-14.46c-2.59-3.12-13.26-1.23-15.69,1.31
		c-2.61,2.74-5.49,8.04-9.37,9.13C58.77,429.35,58.79,429.55,58.81,429.76L58.81,429.76z M71.74,437.21l3.88-2.28
		c0.29-0.17,0.67-0.08,0.85,0.21c0.18,0.29,0.09,0.67-0.19,0.85l-4.83,3.09c-0.26,0.17-0.59,0.12-0.8-0.11l-6.94-7.72
		c-0.22-0.25-0.21-0.63,0.03-0.86c0.24-0.23,0.62-0.24,0.86,0L71.74,437.21L71.74,437.21z M57.59,430.09
		c-0.73-1.23-4.65-1.83-3.33-4.08c0.03-0.05,0.06-0.09,0.1-0.13l11.35-11.17c0.07-0.07,0.14-0.11,0.23-0.14
		c1.3-0.47,4.79-0.31,4.89-0.37c0.11-0.29-0.31-1.32-0.71-2.21l-0.49,1.41c-0.09,0.27-0.34,0.43-0.62,0.42
		c-0.28-0.01-0.51-0.21-0.57-0.48c-1.12-4.97-4.01-12.14-10.33-11.36c-2.61,0.32-5.08,2.02-6.59,4.14l-4.81,6.46
		c0.19,0.32,0.34,0.69,0.01,1.01c-0.76,0.72-1.64-1.63-3.93,1.62c-0.28,0.4-0.83,1.14-0.83,1.66c0,0.49,1.11,1.75,2.52,3.16
		c-1.45-1.59-2.56-3.3-1.05-3.79c0.61-0.19,1.23-0.14,1.71,0.32c0.61,0.57,1.02,1.02,0.79,1.83c0.55,0.65,4.07,2.71,4.61,3.02
		c1.64,0.97,3.45,0.71,2.93,3.18c-0.04,0.19-0.15,0.33-0.32,0.42c-0.17,0.09-0.35,0.1-0.53,0.03l-4.87-1.98
		c-0.05-0.02-0.09-0.04-0.13-0.07c1.29,1.17,2.37,2.13,2.71,2.45l6.85,6.24c0.22-0.27,0.41-0.58,0.5-0.88L57.59,430.09L57.59,430.09
		z M52.06,410c-4.71,5.55-5.45,4.99-0.19,10.01c0.24,0.23,0.26,0.62,0.03,0.87c-0.23,0.25-0.61,0.28-0.87,0.06l-4.51-3.83
		c-0.04-0.03-0.06-0.06-0.09-0.1c-1.37-1.82,3.39-6.83,4.78-7.9c0.25-0.19,0.61-0.17,0.83,0.07C52.26,409.4,52.27,409.75,52.06,410
		L52.06,410z M56.64,415.26l3.94-3.31c0.26-0.22,0.64-0.19,0.87,0.06c0.22,0.25,0.2,0.64-0.04,0.87l-6.85,6.36
		c-0.25,0.23-0.63,0.22-0.87-0.02c-0.24-0.24-0.24-0.62-0.01-0.87L56.64,415.26L56.64,415.26z M308.96,292.55
		c1.38,2.62,2.29,4.44,1.62,7.24c0.42,0.19,1.33,0.48,1.58,0.57c0.47,0.17,0.92-0.39,0.95-0.77c-0.04-0.18-0.01-0.3,0.1-0.45
		c0.1-0.15,0.25-0.24,0.43-0.27c10.6-1.54,14.45-0.35,17.54-12.34c1.2-4.65,0.19-10.28-1.36-14.73
		c-1.77-5.08-6.65-14.38-12.75-15.07c-7.15-0.81-8.21,4.28-17.21,2.95L308.96,292.55L308.96,292.55z M306.3,262.68l5.91,31.58
		c0.06,0.33-0.15,0.65-0.48,0.72c-0.33,0.07-0.65-0.13-0.74-0.45l-8.14-31.73c-0.08-0.32,0.11-0.66,0.43-0.75l7.1-2.1
		c0.32-0.1,0.67,0.08,0.77,0.41c0.1,0.32-0.07,0.67-0.39,0.78L306.3,262.68L306.3,262.68z M805.22,404.99l-11.56-10.81
		c-0.08-0.07-0.13-0.15-0.17-0.26c-1.5-4.48-6.42,6.85-9.27,7.41c-1.44,0.29-4.48,1.37-1.66,2.55c7.49,3.14,7.2,17.05,19.21,13.63
		C806.79,416.1,809.19,409.16,805.22,404.99L805.22,404.99z M792.1,395.7l3.04,3.85c0.21,0.26,0.17,0.64-0.08,0.86
		c-0.25,0.22-0.63,0.2-0.86-0.04c-1.82-1.91-2.63-2.26-4.41-0.16c-0.21,0.25-0.58,0.29-0.84,0.1c-0.26-0.19-0.33-0.55-0.16-0.83
		l2.29-3.71c0.11-0.18,0.28-0.28,0.49-0.29C791.79,395.45,791.98,395.53,792.1,395.7L792.1,395.7z M788.24,401.43
		c-0.48,2.19,0.93,4.8,2.28,6.44c0.22,0.26,0.18,0.65-0.08,0.87c-0.26,0.22-0.65,0.19-0.87-0.07c-2.02-2.37-3.83-3.49-4.33-6.68
		c-0.04-0.27,0.08-0.52,0.32-0.65l1.87-1c0.22-0.12,0.47-0.1,0.67,0.05c0.2,0.15,0.29,0.39,0.23,0.63L788.24,401.43L788.24,401.43z"
		/>
	<path d="M179.22,721.49L160.35,549.7l254.1-27.91l210.96,15.47c2.37,0.17,4.44-1.62,4.62-3.99l2.6-35.44l37.88-4.16l18.87,171.79
		L179.22,721.49L179.22,721.49z M212.42,611.97l-0.03-0.41l-13.36,1.47c-0.15,6.68,1.25,5.79,0.38,12.48
		c4.25-0.69,8.5-1.37,12.75-2.05c0.28-0.05,1.03-0.13,1.09-0.5c0.03-0.18-0.42,0.14-0.57,0.19c-0.81,0.32-3.23,0.19-4.17,0.12
		c-1.04-0.08-2.22-0.25-3.17-0.44c-0.95-0.19-1.67-0.4-2.18-0.88c-0.51-0.48-0.82-1.24-1.07-2.34c-0.26-1.1-0.46-2.54-0.54-3.5
		c-0.08-0.96-0.02-1.45,0.22-1.8c0.24-0.34,0.67-0.54,1.47-0.76c0.8-0.22,1.96-0.46,3.15-0.69c1.2-0.22,2.43-0.43,3.5-0.64
		C210.96,612.03,211.86,611.83,212.42,611.97L212.42,611.97z M620.07,566.79c-0.15,6.68,1.26,5.87,0.38,12.48
		c2.09-0.37,4.19-0.73,6.28-1.1c2-0.35,4.01-0.68,6-1.05c0.14-0.02,0.81-0.12,0.87-0.22c0.12-0.22-0.29-0.15-0.46-0.14
		c-2.28,0.05-4.08-0.02-6.33-0.46l-0.14-0.03c-0.95-0.19-1.67-0.4-2.18-0.88c-0.51-0.48-0.82-1.24-1.07-2.34
		c-0.26-1.1-0.46-2.54-0.54-3.5c-0.08-0.96-0.02-1.45,0.22-1.8c0.24-0.34,0.67-0.54,1.47-0.76c2.28-0.62,4.98-1.01,7.34-1.45
		c0.28-0.05,0.57-0.1,0.85-0.15c0.11-0.23-0.57-0.07-0.74-0.05c-3.14,0.36-6.29,0.77-9.43,1.15c-0.78,0.1-1.57,0.19-2.35,0.29
		L620.07,566.79L620.07,566.79z M525.4,562.39c-3.14,2.83,4.4,56.05,5.73,64.05c0.24,1.48,0.24,1.87,1.17,3.08
		c1.71,2.22,3.23,0.65,4.76,1.16c1.32,0.44,2.44,1.16,3.51-0.3c0.3-0.41,0.5-0.87,0.68-1.34c1.23-3.2,1.18-8.76,1.1-12.24
		c-0.09-3.96-0.42-7.83-0.61-11.77c-0.01-0.11-0.01-0.22-0.02-0.33c8.1,3.41,5.27-1.72,2.55-1.42c-6.29,0.69-9.39-9.95-3.83,15.65
		c0.57,2.58,2.33,9.57-1.36,10.58c-1.37,0.37-0.92-0.67-0.48-1.35c0.63-0.97,0.83-1.59,0.57-2.78c-0.3-1.35-1.14-2.74-1.72-4.01
		c-0.77-1.78-1.11-3.32-1.1-5.26c0.24-16.47-4.43-15.73,3.86-16.64c15.07-1.66,9.32-13.19,26.67,19.34c1.12,2.09,5.57,9.7,8.4,7.83
		c4.93-3.32,2.69-6.49-0.55-10.03c-3.19-3.48-6.29-6.27-8.37-10.62c-1.06-2.22-2.26-4.58-3.21-6.84c-0.48-1.16-1.12-2.54-0.23-3.64
		c0.51-0.63,1.55-1.45,2.17-2.06c2.9-2.87,4.95-6.75,6.6-10.44c3.77-9.29-4.31-21.03-13.14-23.89c-0.87-0.27-1.51-0.43-2.37-0.78
		c-1.48-0.6-1.5,0.01-2.85,0.33c-2.12,0.5-4.77,0.81-6.94,1.08c-4.39,0.55-8.78,0.97-13.18,1.46
		C531.83,561.34,526.28,561.87,525.4,562.39L525.4,562.39z M553.96,567.22c14.45-1.59,17.26,24.55-6.3,22.32
		c-2.03-0.19-4.3-0.53-6.32-0.59c-2.02-0.06-3.31,0.27-5.06,1.27c-3.4,1.88-3.55,0.06-2.83-2.82c0.12-0.48,0.77-2.61,0.72-2.97
		c-0.07-0.52-0.25-1.25-0.35-1.8c-0.2-1.04-0.39-2.07-0.59-3.11c-0.55-2.9-1.09-5.8-1.64-8.7c0.09-0.21,7.16-0.81,7.72-0.87
		C543.55,569.51,550.06,568.78,553.96,567.22L553.96,567.22z M537.53,579.34c0.46-0.81-1.35-2.53-0.87-3.51
		c0.6-1.22,2.77-0.96,3.96-1.19c-0.1-0.05-5,0.06-5.61,0.07c0.28,0.52,2.54,4.53,2.54,4.65L537.53,579.34L537.53,579.34z
		 M536.66,584.87c1.14,0.83,2.92,1.09,4.31,1.01c1.06-0.06,2.26-0.19,3.32-0.29c1.9-0.19-0.83-0.24-1.18-0.27
		c-2.06-0.19-3.82-0.79-5.34-2.22c-0.87-0.83-1.01-0.91-1.22,0.44c-0.04,0.25-0.12,1.01,0.01,1.22L536.66,584.87L536.66,584.87z
		 M575.33,580.45c-0.19,11.71-8.76,13.53-8.43,16.5c3.27,5.07,6.51,10.2,9.83,15.24c0.57,0.87-0.27-0.53-0.33-0.64
		c-1.95-3.41-4.27-7.44-5.72-11.07c-0.65-1.64-1.16-3.45-0.37-5.13c0.53-1.05,1.76-2.4,2.47-3.44c1.78-2.59,2.78-5.4,3.52-8.43
		c1.25-5.18-0.76-14.9-3.35-18.84c-3.28-4.7-10-8.07-15.26-10.04c-0.54-0.2,0.5,0.33,0.57,0.36c6.82,3.07,13.03,6.22,15.65,13.73
		C575.19,572.38,575.39,576.58,575.33,580.45L575.33,580.45z M581.35,620.54c-0.26,1.16-0.3,2.5-0.53,3.73
		c-0.2,1.05-0.48,2.56-1.65,2.94c-0.65,0.21-1.01,0.21-1.52,0.79c-0.27,0.31-0.09,0.71,0.54,0.46c1.51-0.59,2.83-2.71,3.26-4.2
		c0.3-1.04,0.4-2.49,0.15-3.54C581.55,620.5,581.48,620.2,581.35,620.54L581.35,620.54z M642.16,560.66
		c5.04-0.55,12.75,1.67,13.33-5.59c0.17-2.19-3.06-10.11-10.22-4.99c-5.81,4.15-30.45,3.56-33.38,5.66
		c-2.8,2.01-1.5,18.39-0.47,22.89c4.53,19.93-1.18,9.79,3.59,32.05c3.7,17.28-0.3,14.45,33.27,10.79
		c5.06-0.55,10.45,2.84,15.17-1.17c4.22-3.58,0.86-10.3-1.67-10.7c-3.94-0.63-8.32,4.62-16.05,4.75c-5.92,0.1-14.61-0.94-19.8,1.11
		c-6.99,2.75-1.6-5.02-4.74-8.8c-0.84-1.16-1.08-8.08-1.06-9.68c0.01-0.57,0.08-3.81,0.69-4.08c0.1-0.04,14.29-1.89,15.75-2.08
		c1.05-0.14,2.1-0.28,3.15-0.42c6.28-0.83,9.48,2.71,9.4-6.73c-0.04-4.48-5.66-4.88-8.89-3.22c-7.29,3.74-10.99,0.66-19.16,3.03
		c-0.73,0.27-1.61,0.46-2.64,0.57l-1.87-19.57L642.16,560.66L642.16,560.66z M636.15,594.6c-0.69-0.26-2.7-0.04-3.46,0.09
		c-1.33,0.24-4.29,1.07-5.42,1.73c-0.54,0.31,0.87-0.08,0.95-0.1c2.56-0.57,5.1-1.1,7.66-1.66
		C635.97,594.66,636.08,594.64,636.15,594.6L636.15,594.6z M625.47,609.45l1.6-0.48c-1.01-4.2-1.59-8.89-3.67-12.72
		c-0.61-1.14-0.33,0.02-0.24,0.54c0.49,2.71,1,5.41,1.49,8.12C624.92,606.42,625.2,607.93,625.47,609.45L625.47,609.45z
		 M221.13,606.91c5.04-0.55,12.75,1.66,13.33-5.59c0.17-2.18-3.07-10.11-10.22-4.99c-5.8,4.15-30.45,3.56-33.38,5.66
		c-2.8,2-1.49,18.4-0.47,22.89c4.53,19.94-1.18,9.78,3.59,32.05c3.69,17.2-0.34,14.51,33.27,10.79c5.03-0.56,10.45,2.85,15.17-1.17
		c4.21-3.59,0.86-10.3-1.67-10.7c-3.94-0.63-8.32,4.62-16.05,4.75c-5.89,0.1-14.66-0.92-19.8,1.11c-6.99,2.75-1.6-5.02-4.73-8.8
		c-0.85-1.16-1.08-8.08-1.06-9.68c0.01-0.64,0.07-3.98,0.75-4.09c2.13-0.34,4.38-0.59,6.53-0.87c4.15-0.55,8.31-1.08,12.46-1.63
		c6.16-0.82,9.32,2.72,9.24-6.71c-0.04-4.48-5.67-4.88-8.89-3.22c-7.28,3.74-10.99,0.66-19.16,3.03c-0.73,0.27-1.61,0.46-2.64,0.57
		l-1.86-19.57L221.13,606.91L221.13,606.91z M215.11,640.85c-0.47-0.23-2.35-0.07-2.91,0.01c-1.75,0.26-4.56,1.08-6.14,1.88
		c-0.43,0.25,0.64-0.06,0.71-0.08C207.55,642.5,215.04,640.91,215.11,640.85L215.11,640.85z M204.43,655.69l1.6-0.48
		c-1.07-4.4-1.59-8.93-3.8-12.97c-0.46-0.84-0.21,0.19-0.15,0.52c0.3,1.7,0.63,3.4,0.94,5.1
		C203.49,650.47,203.96,653.08,204.43,655.69L204.43,655.69z M320.18,590.33c-4.13,1.31-7.78,12.9-10.71,17.82
		c-3.57,6.01-12.52,39.4-18.76,17.64c-1.82-6.33-7.83-9.71-12.65-14.83c-1.36-1.44-11.89-13.87-13.41-11.97
		c-2.33,2.91,3.79,6.65,3.89,12.09l0.01,16.93l2.53,30.17c1.16,0.9,3.18,1.58,4.65,1.37c1.94-0.28,3-1.74,3.73-3.43
		c2.83-6.89,1.79-7.91,0.35-19.46c-2.57-20.65-3.19-11.4-5.62-5.14c-0.55,1.57,0.96,11.64,1.23,13.76c0.15,1.17,1.2,8.78,0.61,9.55
		c-0.19,0.25-0.41-1.65-0.42-1.75c-0.97-6.23-1.99-12.46-2.99-18.69c-0.5-3.09-0.99-6.17-1.48-9.26c-0.67-4.18-1.34-8.37-2.01-12.55
		c0.17-1.2,2.57-3.88,6.35,0.16l22.48,27.83c3.14,1.72,7.42-5.72,7.01-0.27c-0.23,3.5,1.27,1.22,2.21-0.28c1.4-2.24,2.66-4.7,3.99-7
		c0.51-0.88,0.88-1.41,0.56-2.4c-0.22-0.69,0-0.93,0.27-1.61c0.58-1.47,3.01-7.47,0.38-2.16c-0.77,1.56-1.62,3.15-2.43,4.7
		c-0.27,0.52-0.64,1.26-1.26,1.38c0.06-0.57,1.21-3.2,1.53-3.98c0.88-2.17,1.86-4.45,2.65-6.64c0.22-0.63,0.28-0.54-0.41-0.94
		c-0.23-0.13-0.47-0.26-0.71-0.38c-0.07-0.11-0.57-5.43-0.6-6.14c-0.08-2.66,0.79-3.59,2.11-5.78c0.21-0.34,0.41-0.69,0.61-1.03
		c2.85-4.86,3.24-2.89,5.05,0.65c5.02,9.81,2.86,45.64,7.47,46.63c1.53,0.28,3.31-0.25,4.44,0.03c0.65,0.17,0.93,0.62,1.05,1.25
		c0.17-0.16,1.98-1.55,1.65-1.71c-0.36-0.17-1.07,0.24-1.21-0.88c-0.16-1.25,0.23-2.86,0.09-4.2c-0.13-1.2-0.64-2.36-1.21-3.41
		l-0.12-0.22c-3.29-6-5.05-40.35-6.07-50.7c0.14-3.31,1.66-3.16,2.95-5.49c0.74-1.34-0.54-1.06-1.48-0.97
		c-1.18,0.11-2.38,0.35-3.55,0.57C321.83,589.82,320.91,590.07,320.18,590.33L320.18,590.33z M292.62,616.56
		c0.23,1.51,1.26,4.31,3.16,4.2c-0.99-1.35-2.03-2.73-2.99-4.09l-0.17-0.21L292.62,616.56L292.62,616.56z M281.19,597.98
		c0.1,0.46,4.91,7.93,5.57,8.92c0.32,0.48,0.64,0.97,0.97,1.45c0.66,0.97,6.12,9.1,7.32,7.44c0.09-0.13-0.22-0.41-0.34-0.55
		c-4.24-5.42-8.41-10.97-12.73-16.32C281.87,598.78,281.3,598.05,281.19,597.98L281.19,597.98z M333.94,633.34
		c-0.36-3.1-0.71-6.2-1.07-9.3c-1.18-10.35-2.16-20.76-3.56-31.07c-0.25-1.89-0.32-0.46-0.22,0.85c0.23,3.06,0.64,5.44,0.91,8.5
		c0.38,4.38,0.74,8.76,1.16,13.14c0.59,6.21,1.23,12.42,1.96,18.62c0.3,2.55,1.54,13.14,2.54,14.81c0.17,0.28-0.12-1.67-0.14-1.84
		C334.97,642.49,334.46,637.91,333.94,633.34L333.94,633.34z M374.38,620.09c2.78,1.03,1.66-0.52,10-0.96
		c10.86-0.57,23.81-6.02,22.22-20.51c-1.57-12.97-8.64-22.03-22.62-20.71l-21.34,2.63c-4.17,1.87-1.78,17.43-1.37,21.21
		c2.6,23.71,3.81,7.35,3.4,34.2c-0.09,5.8-1.6,9.89,5.49,13.05c6.38,2.84,5.51-5.42,2.93-8.29c-2.85-3.17-3.23-16.68-3.33-21.26
		L374.38,620.09L374.38,620.09z M383.76,587.55c7.7-1.2,14.29-2.01,15.61,10.02c0.66,6-6.33,11.94-8.9,12.22
		c-3.29,0.35-6.37,0.31-9.62,0.54c-2.65,0.19-4.74,0.61-7.22,1.6c-4.07,1.57-4.19-0.87-4.18-4.25c0.01-2.41,0.02-4.02-0.28-6.46
		c-0.41-3.33-1-6.27-1.63-9.53c-0.19-1.01-0.7-2.72,0.59-3.07c0.92-0.25,4.48-0.12,5.6-0.14
		C377.14,588.4,380.4,588.06,383.76,587.55L383.76,587.55z M370.39,591.51c-0.5,0.31,0.39,2.48,0.53,2.91
		c1.17,3.69,1.56,6.41,0.64,10.24c-0.26,1.07,0.61-0.74,0.69-0.89c0.69-1.28,1.38-2.55,2.07-3.82l0.11-0.21
		C374.53,598.63,372.71,590.01,370.39,591.51L370.39,591.51z M373.63,622.31c1.33,2.55,2.74,5.18,3.3,8.02
		c0.55,3.06,0.57,6.04,0.99,9.06c0.18,1.32,0.3-1.67,0.3-1.68c-0.34-3.97-1.04-7.91-1.37-11.88c-0.01-0.11-0.02-0.21-0.03-0.32
		c1.04-0.28,2.09-0.55,3.13-0.83c1.13-0.3,5.6-1.39,5.05-1.38c-0.35,0.01-1,0.17-1.41,0.22c-2.19,0.29-5.31,0.3-7.47-0.15
		l-0.07-0.01C375.22,623.17,374.32,622.88,373.63,622.31L373.63,622.31z M410.14,604.93c1.86-5.81,0.65-13.72-1.98-19.13
		c-1.39-2.74-3.73-6.06-6.49-7.54c-1.47-0.79,1.79,2.15,1.84,2.21c3.06,3.11,4.92,6.79,6.08,10.96c2.38,9.15-0.39,19.32-8.47,24.73
		c-0.47,0.33-3.41,2.46-3.55,2.76c0.61,0.03,2.53-0.99,3.11-1.35C404.77,615.03,408.81,609.56,410.14,604.93L410.14,604.93z
		 M453.73,574.32c-7.03-0.18-8.78,7.8-1.97,7.33c7.23-0.5,7.28-2.39,9.99,17.75c1.06,7.92,4.82,27.07,3.36,33.85
		c-1.06,4.91-5.49,0.34-7.51,3.53c-7.63,12.03,4.05,3.01,18.7,4.42c5.55,0.53,8.31-0.29,9.04-6.4c0.3-2.9-0.54-3.63-3.27-3.6
		c-1.2,0.01-2.43,0.12-3.51-0.5c-8.86-5.45-4.8,26.63-12.93-47.81c-0.54-4.9,8.1,0.72,10.93-2.77c1.04-1.27,3.01-3,2.59-4.78
		c-0.31-1.3-1.51-2.78-2.65-3.48c-1.03-0.63-1.64-0.63-2.67-0.98c-0.2-0.07-0.35-0.13-0.49-0.29c-0.45-1.01,2.23-1.78,2.89-1.87
		c1.04-0.14,1.87,0.09,2.68,0.76c1.44,1.55,1.27,4.18,1.57,6.16c0.2,1.29,0.25-2.47,0.25-2.48c-0.04-1.67-0.34-3.53-1.94-4.41
		c-0.89-0.39-0.95-0.27-1.77-0.45c-0.92-0.21,0.51-0.35,0.24-0.9c-0.62-1.23-13.73-0.26-15.67-0.07c-0.98,0.1-1.96,0.21-2.95,0.34
		c-0.69,0.09-2.74,0.37-3.28,0.65c-0.25,0.13,1.43-0.06,1.59-0.07c4.95-0.4,9.89-0.75,14.83-1.26c0.2-0.02,1.82,0.11,1.37,0.71
		c-0.39,0.51-0.83,0.73-1.33,1.33c-0.79,0.95-1.19,1.53-2.18,2.34C465.75,574.39,458.36,574.42,453.73,574.32L453.73,574.32z
		 M474.67,566.77C474.75,566.77,474.81,566.76,474.67,566.77L474.67,566.77z M476.13,626.7l1.09-0.4
		c-1.75-1.7-4.53-26.94-5.15-31.96c0.64,11.09,1.12,18.81,3.9,31.11C476.06,625.86,476.07,626.28,476.13,626.7L476.13,626.7z
		 M481.27,625.72c-1.32-0.22-3.1,0.02-3.48,1.54c-0.16,0.64,0.61,0.85,1.08,0.87c1.11,0.04,2.32-0.23,3.53-0.19
		c2.95,0.15,3.91,1.6,4.73,4.22c0.15,0.47-0.17-0.92-0.17-0.92C486.23,628.42,484.19,626.25,481.27,625.72L481.27,625.72z"/>
	<path d="M200.76,501.8l12.64-172.36l424.97,31.16l-12.64,172.36L200.76,501.8L200.76,501.8z M591.6,408.64l-25.03-2.83
		c-5.71-0.42-1.28,9.66,3.5,10.25c14.74,1.82,5.48-1.51,12.55-0.99c6.36,0.46-1.23,47.01-1.86,50.49
		c-3.16,17.9,8.73,11.92,8.17,8.47l-1.34-6.83l3.62-49.37l6.85,1.35c3,0.22,6.95-2.31,9.62,0.28c2.87,1.84,7.92,0.45,8.68-3.11
		c0.8-4.23-1-12.29-8.75-8.59C604.4,409.32,596.16,408.83,591.6,408.64L591.6,408.64z M595.51,421.12l-3.92,54.74
		c-0.13,1.08,0.9-0.11,1.11-0.48c1.8-3.2,3.64-45.86,4.2-51.9c0.27-2.9,13.93,1.72,18.54-2.81c1.03-1.01-1.31,1.25-5.53,1.37
		C604.85,422.2,596.81,419.6,595.51,421.12L595.51,421.12z M269.53,410.98c3.8,6.88,8.72-3.21,6.18-7.79
		c-1.55-2.8-13.64-17.92-16.24-17.14c-8.48,2.54-28.33-2.86-31.96,33.2c-3.03,30.1,29.41,50.53,43.96,27.23
		c3.52-5.64,6.6-18.25,2.93-19.07c-1.75-0.29-4.12,0.04-4.67,2.03c-2.22,1.25,0.77,13.72-14.35,18.73
		c-18.2,6.03-34.51-35.62-10.73-49.92c4.5-2.71,5.73-2.86,12.77-1.12C272.66,400.88,266.13,407.68,269.53,410.98L269.53,410.98z
		 M279.73,405.48c-3.42-19.83-26.2-26.86-17.91-22.21c17.35,9.72,21.34,28.29,13.94,31.34
		C274.75,415.03,281.74,417.37,279.73,405.48L279.73,405.48z M239.15,411.45c-2.39,6.02-2.28,13.83,0.03,19.85
		c1.32,3.45-7.48-23.42,11.81-31.59C255.63,397.74,243.71,398.23,239.15,411.45L239.15,411.45z M278.81,432.21
		c0.05-1.92-0.26,1.63-0.28,1.82c-1.49,13.05-7.74,18.38-17.86,24.18c-2.82,1.62,3.27-1.25,3.58-1.41
		C274.11,451.66,278.42,443.06,278.81,432.21L278.81,432.21z M316.05,389.57c-3.8,2.18-6.34,64.95-5.94,65.99
		c1.71,4.44,1.98,1.62,6.1,3.96c5.27,3,7.67-21.5,8.2-25.38c7.35,4.82,5.49-0.73,2.76-0.93c-6.3-0.46-7.44-11.49-6.61,14.69
		c0.43,12.99-5.21,10.69-3.72,9.02c3.48-3.89-1.11-5.72,0.22-12.54c3.23-16.14-1.51-16.28,6.82-15.67
		c15.12,1.11,11.56-11.28,22.71,23.86c0.72,2.26,3.72,10.55,6.84,9.22c9.47-4.07-2.25-11.75-4.94-21.63
		c-4.77-17.79-2.17-5.1,9.34-21.93c8.13-12-7.54-28.46-12.81-27.42C340.77,391.66,318.07,388.84,316.05,389.57L316.05,389.57z
		 M343.26,399.51c14.5,1.07,12.51,27.27-10.25,20.8c-4.3-1.23-7.33-2.79-11.31-1.4c-6.39,2.26-0.74-5.46-1.04-6.18l-0.05-13.76
		C320.74,398.57,336.51,400.91,343.26,399.51L343.26,399.51z M323.26,403.43c0.21,0.61,1.49,4.29,1.46,4.58
		c1.53-2.68-3.32-3.89,4.03-3.62L323.26,403.43L323.26,403.43z M329.56,415.72c4.3,0.41-2.62,0.25-5.59-4.18l-1.15,2.07
		C325.21,415.56,326.67,415.46,329.56,415.72L329.56,415.72z M361.88,416.4c-2.31,11.47-11.07,11.72-11.29,14.7l6.75,16.36
		c-0.06-2.03-5.99-13.74-3.01-17.43c2.22-2.75,4.53-2.84,7.96-10.47c2.17-4.86,1.96-14.79,0.13-19.13
		c-2.38-4.85-7.84-9.61-12.5-12.22c-0.9-0.5,9.23,5.47,11.9,13.2C363.47,406.21,362.85,411.5,361.88,416.4L361.88,416.4z
		 M357.23,463.06l-1.07,1.01c4.72-1.42,6.22-12.38,3.37-4.13C359.13,461.09,358.57,462.76,357.23,463.06L357.23,463.06z
		 M392.55,466.08c1.58,0.66,3.83,4.94,7.52-7.81c0.82-2.85-0.51-3.48,1.13-3.75c2.95-0.27,0.43,4.12,7.65,2.05
		c8.4-2.61,11.74,3.75,20.45-1.41c2.72-1.61,3.52,0.78,5.5,6.22c1.25,3.43,0.36,7.7,4.82,8.72c6.59,1.51,5.82-5.01,4.31-6.56
		c-3.93-4.02-12.11-35.59-14.88-43.63c-6.1-17.73-2.14-7.66-4.77-19.99c-1.64-7.65-8.93,1.88-7.46,5.98
		c1.69,4.69-3.03,4.48-3.54,11.51c-0.13,1.79-9.41,15.68-10.44,22.49C401.23,450.53,387.46,464.55,392.55,466.08L392.55,466.08z
		 M429.82,439.32c1.44,3.29,2.14,10.14-0.47,10.32l-14.81-3.19c-16.92,4.85-10.96,2.05,0.69-22.73c1-2.23,1.97-2.86-1.08-4.55
		c-0.72-0.4,2.93-2.5,4.07-5.23C420.31,408.91,429.22,437.56,429.82,439.32L429.82,439.32z M414.4,442.54l4.66,2.76
		c-0.1-0.93-0.41-2.68-1.54-2.88C417.21,442.36,414.38,442.38,414.4,442.54L414.4,442.54z M402.44,462.97
		c-0.37,0.6-3.63,5.55-3.62,5.61c0.23,0.01,4.87-3.62,4.96-6.67C403.81,460.61,402.55,462.79,402.44,462.97L402.44,462.97z
		 M483.48,405.68c-1.48,1.29,1.68,0.98,0.12,8.02l-4.07,49.69c-0.29,3.98,1.03,5.39,6.65,5.21c8.42-0.28-1.09-5.04-0.9-8.6
		c0.34-6.47,4.8-15.88,2.9-14.56c-3.57,2.46-2.39,11.33-3.01-1.96c-0.08-1.74-0.16-3.48-0.24-5.21c2.78,0.27,15.21,4,19.25,2.4
		c2.82-1.15,8.74,3.36,10.89-3.46c0.57-1.8-2.51-3.63-4.87-3.19c-12.02,2.19-17.24-1.25-21.79,1.5c-2.07,1.25-4.06-1.81-2.3-7.21
		c1.46-4.49-1.59-18.42,4.83-17.96l29.18,2.42c1.02,1.65,11.29,3.4,9.37-6.9c-1.39-7.44-9.79,1.48-20.82,0.67L483.48,405.68
		L483.48,405.68z M489.43,423.13c-0.01-0.1,3.63-7.21,1.86-7.95c-5.76-2.29-2.72,19.94-2.3,14.06
		C489.14,427.21,489.28,425.17,489.43,423.13L489.43,423.13z M494.02,416.66c-0.29-0.4-2.61,16.29-0.31,9.04
		c2.25-7.08,2.21-7.96,8.07-7.56L494.02,416.66L494.02,416.66z M501.44,447.4L501.44,447.4L501.44,447.4z M490.78,458.96
		c-0.17,2.41,0.06,7.73-1.27,9.62c-0.69,0.98,1.06,1.4,1.72-3.36c0.61-4.36,2.31-17.84-0.88-20.35L490.78,458.96L490.78,458.96z"/>
</g>
</svg>
