<?xml version="1.0" encoding="utf-8"?>
<!-- Generator: Adobe Illustrator 25.0.0, SVG Export Plug-In . SVG Version: 6.00 Build 0)  -->
<svg version="1.1" id="Layer_1" xmlns="http://www.w3.org/2000/svg" xmlns:xlink="http://www.w3.org/1999/xlink" x="0px" y="0px"
	 viewBox="0 0 864 864" style="enable-background:new 0 0 864 864;" xml:space="preserve">
<style type="text/css">
	.st0{fill:#333232;}
	.st1{fill-rule:evenodd;clip-rule:evenodd;fill:#333232;}
</style>
<g>
	<path class="st0" d="M55.52,497.93C42.8,521,36,546.73,36,571.87c0,53.23,30.17,103.22,95.23,115.93
		c8.28,1.48,17.15,2.37,26.32,2.37c49.98,0,110.91-24.84,139.3-86.65c0.35-0.77,0.63-1.55,0.83-2.32l24.9-52.98
		c16.17,3.65,19.76,16.81,13.01,31.05l-12.42,26.03c-3.85,8.28-5.62,15.97-5.62,23.36c0,17.45,10.06,31.35,25.14,37.56
		c4.73,1.77,9.76,2.66,14.79,2.66c12.77,0,25.87-5.58,35.88-17.09c6.98,10.14,18.41,16.8,33.32,16.8
		c13.01,0.59,26.03-4.73,34.9-14.2c7.46,9.59,19.88,14.65,31.96,14.49l-13.92,28.69c-15.58,33.16-4.35,70.68,35.49,70.68
		c24.55,0,43.77-17.74,55.3-50.57c6.09-17.39,7.74-34.51,4.73-50.57c26.91-0.16,50.75-9.21,69.53-23.53
		c3.95,10.32,11.99,18.33,22.45,22.64c4.73,1.77,9.76,2.66,14.79,2.66c17.15,0,34.9-10.06,44.95-31.05l16.56-33.71
		c3.55-6.51,0.59-14.79-5.92-17.74c-6.51-3.55-14.2-0.59-17.74,5.92l-17.15,33.71c-7.69,15.97-19.52,17.74-26.03,15.38
		c-3.84-1.48-7.99-5.62-7.99-12.72c0-3.25,0.89-7.39,3.25-12.13l53.23-112.09c30,8.44,65.78,8.07,86.95-22.48
		c10.87-15.69-11.52-26.61-18.93-14.2c-8.58,13.01-21.59,17.15-35.49,17.15c-7.39,0-15.08-1.18-22.18-2.96l15.68-32.53
		c3.55-6.51,0.59-14.2-5.92-17.74c-6.51-2.96-14.79,0-17.74,6.51l-16.56,34.9c-28.1-12.42-55.34-29.81-81.92-44.36
		c-17.18-9.4-73.05-23.74-109.56-14.85c-17.24,4.2-33.29,7.35-43.58,18.35c-10.52,11.23,2.58,28.44,16.56,18.04
		c28.82-21.43,96.63-12.18,127.12,2.71c27.23,13.3,52.94,31.05,80.44,42.59l-44.49,93.24c-14.16,26.24-37.99,51.38-82.09,51.38
		c-3.25,0-6.51,0-9.76-0.3c-5.57-8.36-11.81-12.66-19.65-14.45l0.61-1.24c49.75-1.49,88.31-51.61,107.76-102.61
		c3.55-9.17,5.03-17.45,5.03-24.84c0-10.06-3.01-16.66-8.08-23.13c-6.75-8.61-17.33-13.11-27.98-13.11c-8.28,0-16,1.34-23.39,7.25
		c-5.91,4.73-11.83,11.83-15.97,20.41c-4.41,8.13-5.73,10.44-52.63,106.98l-15.69,30.84c-7.69,15.97-18.34,17.74-24.84,15.38
		c-4.14-1.77-8.87-6.21-8.87-13.6c0-3.25,0.89-6.8,2.96-11.24l37.26-76.89c3.55-6.51,0.59-14.2-5.91-17.74
		c-6.51-2.96-14.79,0-17.74,6.51l-4.73,9.46c-3.55-5.32-8.87-9.46-14.79-12.42c-5.92-2.96-11.83-4.14-18.04-4.14
		c-17.74,0-34.9,11.24-42.88,28.39l-22.77,46.64l-15.09,29.66c-7.69,15.97-17.74,19.22-26.03,15.38c-3.84-1.77-7.98-5.92-7.98-12.72
		c0-3.25,0.89-7.39,3.25-12.13l13.6-27.21c4.14-8.28,5.92-16.27,5.92-23.36c0-21-15.08-36.38-32.83-42.59l0.89-1.48
		c2.96-7.1,0-14.79-7.1-17.74c-6.51-3.55-14.2,0-17.15,6.51l-37.86,80.44c-0.22,0.57-0.41,1.14-0.57,1.7
		c-28.7,54.3-72.9,70.46-111.52,70.46c-8.87,0-17.45-0.89-25.73-2.37c-47.91-8.58-72.16-46.14-72.16-89.02
		c0-67.86,60.47-135.75,126.58-137.52c21.89-0.59,52.64,6.8,57.08,35.19c3.84,25.43-21.59,46.14-46.14,46.14
		c-7.39,0-14.49-2.07-21-5.92c-6.8-2.96-15.38-1.48-18.34,5.03c-3.84,5.91-1.48,14.2,4.73,17.74
		c41.95,24.57,106.47-4.03,106.47-56.19c0-2.96,0-6.21-0.59-9.46c-5.62-41.11-45.84-59.74-84.29-58.85
		C137.15,408.91,87.46,439.96,55.52,497.93L55.52,497.93z M414.32,613.62c1.82-3.71,3.87-7.55,5.43-11.34l19.95-41.35
		c5.92-11.83,18.34-15.38,26.03-11.83c5.32,2.66,9.76,7.69,9.76,15.67c0,4.44-1.18,9.46-4.44,15.67l-23.66,48.5
		c-5.91,12.42-17.74,14.79-26.02,11.83c-5.32-2.37-9.76-7.39-9.76-15.38C411.6,621.89,412.45,617.97,414.32,613.62L414.32,613.62z
		 M503.28,709.39c10.94-23.07,20.11-41.4,27.8-57.67c2.96,4.73,7.99,9.17,15.38,11.83c3.25,5.32,4.73,12.13,4.73,18.93
		c0,10.65-2.96,21.59-5.32,27.21c-14.2,34.31-27.21,35.19-36.97,32.24c-2.66-0.89-9.76-5.32-9.76-16.27
		C499.14,721.22,500.32,715.9,503.28,709.39L503.28,709.39z M629.27,509.76c-12.42,35.49-40.81,76.89-70.68,84.88l47.32-95.23
		c7.1-14.79,14.49-12.26,18.33-11.67c3.55,0.59,7.4,2.5,7.4,9.89C631.63,500.89,631.04,504.73,629.27,509.76L629.27,509.76z"/>
	<path class="st0" d="M514.36,385.09c3.22,5.19,10.73,5.01,13.41-0.54c1.86-3.52,1.61-6.82,1.61-10.73v-50.78
		c0-3.47,0.13-7.6-1.43-10.73c-1.43-2.86-3.93-4.47-7.15-4.29c-6.25,0.17-8.4,6.01-8.4,11.27c0,4.5,0.2,17.23-0.18,21.28
		c-0.36,3.4-1.97,5.01-5.19,5.36c-0.36,0-0.89,0.18-1.43,0.18h-25.21c-2.28-0.16-5.62-0.89-6.08-3.4
		c-1.48-8.12,0.06-19.16-1.25-26.82c-1.7-9.92-11.96-9.85-15.2-3.58c-1.46,2.83-1.61,7.6-1.61,10.73c0,6.26-0.22,54.37,0.18,56.86
		c0.36,1.61,0.72,3.22,1.43,4.65c3.71,7.08,15.24,5.2,15.56-5.01c0.07-2.39,0.25-10.42,0.72-12.34c0.36-1.79,1.25-2.86,3.04-3.4
		c1.25-0.18,2.68-0.54,4.11-0.54h23.96c2.49,0,6.14,0.75,6.62,3.76c0.65,4.12,0.57,8.06,0.72,12.34
		C512.58,381.33,513.11,383.3,514.36,385.09L514.36,385.09z M86.34,392.97c12.34,0,22.89-5.54,28.79-14.84
		c7.33-11.44,5.72-27.36-6.08-36.3c-4.38-3.41-8.81-5.39-13.77-7.69c-4.27-1.98-6.59-2.3-9.48-5.19c-2.36-2.36,2.56-8.45,8.05-2.32
		c2.89,3.23,5.15,7.42,10.37,6.44c3.22-0.72,5.72-3.22,6.44-6.44c0.36-2.32,0.18-4.65-0.72-6.79c-1.61-4.65-4.65-8.23-9.12-10.73
		c-8.4-4.65-19.49-3.58-27,2.68c-10.73,9.3-9.66,25.21,2.5,32.54c7.15,4.43,18.52,7.19,23.42,12.7c3.19,3.58,2.94,8.42,0.18,12.16
		c-5.01,7.33-16.27,8.76-23.07,3.04c-6.42-5.67-2.08-12.79-2.68-18.06c-0.89-7.78-12.65-11.69-17.34,1.79
		c-3.58,11.09,0.36,23.42,9.83,30.58C72.75,391.18,79.72,392.97,86.34,392.97L86.34,392.97z M164.3,389.75
		c7.6,0,8.58-8.9,8.58-14.66v-41.84c0-1.61,0.18-3.22,0.54-4.83c1.08-6.26,14.97-1.31,22.17-5.01c5.68-2.91,6.44-11.82-1.79-14.66
		c-2.5-0.89-5.01-0.89-7.51-0.89c-14.36,0-28.73,0-43.09,0c-5.98,0-14.45,0.39-14.66,8.4c-0.18,3.4,1.61,5.72,4.47,7.15
		c1.61,0.89,3.4,1.43,5.19,1.43l13.05,0.36c2.15,0.36,3.75,1.97,4.11,4.11c0.18,1.97,0.18,4.11,0.18,6.08v37.01
		c0,4.17-0.05,8.26,1.25,12.16C157.86,387.78,161.08,389.75,164.3,389.75L164.3,389.75z M269.09,387.96
		c7.19-3.6,4.01-11.36,1.61-16.99l-20.38-50.96c-1.54-3.61-2.96-7.11-5.9-9.83c-2.86-2.86-7.51-3.04-10.55-0.18
		c-3.22,3.12-4.48,6.41-6.44,10.37c-7.15,16.09-14.48,32.19-21.64,48.28c-1.35,2.87-3.74,8.31-4.11,11.44
		c-0.82,6.93,7.44,11.66,12.7,7.15c4.83-4.14,5.05-8.71,9.48-9.48c2.91-0.5,10.72-0.36,13.77-0.36c4.67,0,9.08-0.2,13.77,0.36
		c3.89,0.46,4.41,3.7,6.08,5.9c1.07,1.25,2.15,2.5,3.22,3.58C263.36,389.21,266.22,389.57,269.09,387.96L269.09,387.96z
		 M241.73,360.06c-1.07,0-6.97,0-8.76-0.36c-1.61-0.18-2.68-1.97-2.32-3.58c0.53-2.51,4.36-9.8,5.54-12.52
		c1.14-2.62,3.82-2.39,4.83,0.36l4.83,11.98C246.55,357.98,244.62,360.06,241.73,360.06L241.73,360.06z M317.54,387.06
		c4.83-7.24-0.12-11.68,5.54-21.64l1.61-3.04c7.23-13.14,15.74-26.49,22.71-40.05c2.06-3.9,1.93-9.59-2.5-12.16
		c-7.4-4.3-12.05,3.62-15.2,8.76c-4.11,7.33-8.4,14.66-12.7,21.99c-0.89,1.61-1.79,3.04-2.86,4.65c-1.25,1.61-3.4,1.43-4.65-0.36
		c-0.89-1.43-1.79-3.04-2.68-4.65c-3.22-6.26-6.26-12.34-9.48-18.42c-1.93-3.62-3.91-8.07-6.97-10.91c-2.32-2.32-5.9-2.86-8.76-1.43
		c-3.04,1.43-4.47,3.93-4.47,7.69c0.18,1.07,0.36,2.68,0.89,4.11l3.76,8.23c2.86,5.72,5.9,11.26,8.94,16.99l9.3,18.42
		c4.54,8.77,1.15,13.81,4.47,20.56C306.99,391,313.97,391.71,317.54,387.06L317.54,387.06z M586.43,390.27
		c22.89,0.18,41.31-17.88,41.48-40.59c0.36-22.89-18.24-41.66-41.13-41.84c-22.89-0.18-41.31,18.42-41.31,41.48
		C545.48,372.04,563.72,390.27,586.43,390.27L586.43,390.27z M586.25,373.11c-13.05-0.36-23.42-11.09-23.42-23.96
		c0-13.23,10.73-23.96,23.96-23.96c13.23,0,23.96,11.09,23.78,24.32C610.39,362.74,599.3,373.29,586.25,373.11L586.25,373.11z
		 M652.41,390.1c5.12,0.26,8.23-4.02,8.76-8.76c0.18-1.79,0.18-3.58,0.18-5.54c0-7.69,0-15.56,0.18-23.25
		c0-1.79,0.18-3.58,0.54-5.36c0.18-1.25,1.79-1.79,2.68-1.07c3.42,2.79,11.96,14.08,15.56,18.24c3.74,4.33,8.58,8.72,14.48,5.01
		c3.2-2.01,5.26-4.95,7.69-7.87c3.58-4.11,6.97-8.4,10.55-12.7c0.89-0.89,1.97-1.79,2.86-2.86c0.89-0.72,2.68,0,2.86,1.07
		c0.18,1.07,0.36,2.15,0.54,3.22v17.88c0,3.51-0.25,13.46,0.89,16.45c2.93,7.66,14.25,7.95,15.91-2.32
		c0.36-1.97,0.54-4.11,0.54-6.08v-52.93c0-3.1-0.34-7.24-1.79-10.01c-1.97-3.58-6.26-5.19-10.01-3.58
		c-3.56,1.65-6.09,4.85-8.58,7.87c-4.11,4.83-8.05,9.83-12.16,14.84c-2.5,3.22-5.19,6.44-7.87,9.48c-5.47,6.88-6.64,6.34-11.8,0.18
		l-18.77-22.89c-2.19-2.79-5.48-6.82-8.58-8.76c-3.93-2.68-9.66-0.89-11.62,3.4c-1.63,3.91-1.43,7.2-1.43,11.44V374
		c0,3.57-0.2,8.18,1.43,11.44C646.86,388.31,649.19,390.1,652.41,390.1L652.41,390.1z M766.85,389.02h48.82
		c1.43,0,3.04-0.36,4.65-0.72c6.32-1.4,9.36-9.69,3.22-14.13c-1.43-1.07-2.86-1.61-4.47-1.79c-2.68-0.18-5.36-0.54-8.23-0.54
		c-8.94,0-17.88,0-26.64,0c-3.53,0-10.95,0.81-11.8-3.04c-0.89-3.22-0.89-6.44,0-9.48c1.02-3.19,6.65-2.86,9.3-2.86
		c5.19,0,10.55,0,15.74-0.18c2.5,0,5.01-0.18,7.51-1.07c7.3-2.72,7.07-12.67-0.36-15.02c-8.83-2.79-21.88,0.17-29.86-1.97
		c-3.77-1.01-3.18-8.36-2.5-11.09c0.36-1.43,1.25-2.5,2.68-2.86c4.83-1,29.74-0.72,35.76-0.72c4.22,0,7.48,0.2,11.44-1.43
		c6.48-2.67,5.86-12.82-1.07-14.84c-2.15-0.54-4.47-0.89-6.79-0.89c-15.38-0.18-30.58-0.18-45.95-0.18c-1.61,0-3.22,0.18-4.83,0.54
		c-5.19,0.89-8.05,3.58-8.58,9.12c-0.36,2.15-0.36,4.47-0.36,6.79v51.5C754.51,383.51,756.24,389.02,766.85,389.02L766.85,389.02z"
		/>
	<path class="st0" d="M232.43,181.41c4.72,0.28,7.94-3.87,8.34-7.99c0.54-5.51,0.42-24.29,0.35-31.26
		c-0.17-8.51-0.17-16.85-0.17-25.36c0-6.18,0.38-15.33-7.99-15.8c-4.45-0.25-7.98,3.62-8.16,7.99c-0.17,2.08-0.35,4.34-0.35,6.6
		v50.02C224.56,171.39,224.47,181.41,232.43,181.41L232.43,181.41z M323.09,178.64c19.86,15.32,50.92,3.57,51.4-22.58v-37.34
		c0-1.04-0.17-1.91-0.17-2.95c0-7.03,1.19-18.23-7.99-18.76c-4.74-0.27-7.95,3.91-8.34,7.99c-0.17,2.26-0.17,4.34-0.17,6.6v41.85
		c0,16.92-18.86,18.36-26.05,9.73c-4.21-4.94-3.39-14.6-11.98-13.89c-3.3,0.17-5.38,2.08-6.6,4.86c-1.22,2.78-1.04,5.73-0.35,8.51
		C314.23,169.26,317.71,174.47,323.09,178.64L323.09,178.64z M431.46,182.98c16.5-0.17,34.91-12.16,38.21-32.82
		c1.42-9.2,0.98-23.06,0.87-32.48c-0.04-3.19-0.26-7.63-1.74-10.42c-2.46-4.64-10.47-5.47-13.55,0.69c-1.28,2.56-1.39,6.37-1.39,9.2
		c0,5.57,0.17,23.67-0.52,28.65c-0.52,4.69-2.26,9.03-5.56,12.5c-6.43,6.77-14.07,9.2-23.1,6.95c-8.68-2.08-14.07-7.82-16.67-16.32
		c-0.87-2.78-1.04-5.73-1.04-8.68v-21.88c0-3.3,0.07-7.49-1.56-10.42c-3.72-6.66-13.19-5.91-14.76,3.3
		c-0.81,4.72-0.52,13.58-0.52,18.58l0.35,17.19c1.04,10.07,5.21,18.41,12.5,25.18C410.96,179.68,420.52,182.98,431.46,182.98
		L431.46,182.98z M516.21,185.23c11.98,0,22.23-5.38,27.96-14.41c7.12-11.11,5.56-26.57-5.9-35.25c-4.26-3.31-8.56-5.23-13.37-7.47
		c-4.15-1.92-6.4-2.24-9.2-5.04c-2.29-2.29,2.49-8.21,7.82-2.26c2.81,3.14,5,7.2,10.07,6.25c3.13-0.69,5.56-3.13,6.25-6.25
		c0.35-2.26,0.17-4.52-0.69-6.6c-1.56-4.52-4.52-7.99-8.86-10.42c-8.16-4.52-18.93-3.47-26.22,2.61
		c-10.42,9.03-9.38,24.49,2.43,31.61c9.63,5.96,28.43,9.02,24.49,21.19c-0.35,1.04-0.87,2.08-1.56,2.95
		c-4.86,7.12-15.8,8.51-22.4,2.95c-6.23-5.51-2.02-12.42-2.6-17.54c-0.86-7.55-12.28-11.35-16.85,1.74
		c-3.47,10.77,0.35,22.75,9.55,29.7C503.01,183.5,509.78,185.23,516.21,185.23L516.21,185.23z M591.92,182.11
		c7.39,0,8.34-8.65,8.34-14.24v-40.64c0-1.56,0.17-3.13,0.52-4.69c1.05-6.08,14.54-1.28,21.53-4.86c5.51-2.83,6.26-11.48-1.74-14.24
		c-2.43-0.87-4.86-0.87-7.29-0.87h-41.85c-5.81,0-14.04,0.38-14.24,8.16c-0.22,5.52,5.29,8.28,9.38,8.34l12.68,0.35
		c2.08,0.35,3.65,1.91,3.99,3.99c0.17,1.91,0.17,3.99,0.17,5.9v35.95c0,4.05-0.05,8.03,1.22,11.81
		C585.67,180.2,588.8,182.11,591.92,182.11L591.92,182.11z"/>
	<path class="st0" d="M231.6,290.71c2.95,2.61,7.47,2.61,10.25-0.17c2.91-2.7,4.68-6.6,6.6-10.07c2.26-3.99,4.34-8.16,6.77-12.16
		c1.22-2.08,3.3-2.08,4.69,0.17l7.12,14.24c0.7,1.56,1.39,3.3,2.43,4.69c3.99,6.77,11.29,6.95,15.46,0.35
		c1.56-2.08,2.78-4.52,3.99-6.95c8.68-16.5,17.37-32.82,26.05-49.49c1.64-2.93,3.08-5.85,3.47-9.03c0-6.77-6.43-10.42-11.46-7.47
		c-3.26,1.86-4.69,5.14-6.43,8.34l-17.19,32.3c-0.87,1.74-1.91,3.65-2.95,5.21c-1.39,2.6-3.65,2.78-5.04,0.17l-9.9-19.28
		c-2.08-2.78-4.17-3.3-7.99-3.3c-5.85,0-8.91,6.18-11.29,10.42l-6.25,11.64c-1.25,2.41-3.67,3.12-4.69,1.39
		c-1.04-1.74-2.08-3.47-2.95-5.21c-4.86-10.42-9.73-20.84-14.76-31.26c-2.51-5.59-6.42-14.06-14.07-10.77
		c-3.47,1.56-5.21,5.04-4.52,8.68c0.52,2.78,1.56,5.21,2.78,7.47l23.45,50.02C227.12,284.66,228.48,287.6,231.6,290.71L231.6,290.71
		z M385.64,290.37c6.98-3.49,3.9-11.04,1.56-16.5l-19.8-49.49c-1.5-3.5-2.87-6.91-5.73-9.55c-2.78-2.78-7.29-2.95-10.25-0.17
		c-3.13,3.03-4.35,6.23-6.25,10.07c-6.95,15.63-14.07,31.26-21.01,46.89c-1.31,2.78-3.64,8.07-3.99,11.11
		c-0.79,6.73,7.23,11.32,12.33,6.95c4.69-4.02,4.91-8.46,9.2-9.2c2.83-0.49,10.41-0.35,13.37-0.35c4.53,0,8.82-0.19,13.37,0.35
		c3.78,0.45,4.29,3.6,5.9,5.73c1.04,1.22,2.08,2.43,3.13,3.47C380.08,291.58,382.86,291.93,385.64,290.37L385.64,290.37z
		 M359.07,263.27c-1.04,0-6.77,0-8.51-0.35c-1.56-0.17-2.61-1.91-2.26-3.47c0.51-2.44,4.23-9.52,5.38-12.16
		c1.11-2.55,3.71-2.32,4.69,0.35l4.69,11.64C363.75,261.25,361.87,263.27,359.07,263.27L359.07,263.27z M414.47,292.28
		c8.07-0.4,7.99-9.18,7.99-15.11c0-6.95,0-13.89,0.17-20.67v-5.38c0.17-1.39,0.87-2.61,1.56-2.61c1.22-0.17,2.08,0.52,2.95,1.22
		c1.22,1.39,2.26,2.61,3.47,3.99l18.76,21.88c3.36,3.98,9.82,12.04,13.89,15.11c5.04,3.82,11.81,1.04,12.85-5.04
		c0.35-2.26,0.52-4.52,0.52-6.6v-45.33c0-4.97,0.51-9.91-1.04-14.59c-2.6-7.84-12.7-6.47-14.59,0c-1.03,3.55-0.82,8.89-0.87,12.5
		c-0.17,7.12,0,14.24-0.17,21.36c0,1.39-0.35,2.61-0.52,3.99c-0.12,0.67-1.96,1.92-3.82-0.35c-1.39-1.39-2.78-2.95-3.99-4.52
		c-8.16-9.38-16.15-18.76-24.31-28.31c-2.37-2.68-6.43-7.61-9.55-9.2c-3.99-2.08-8.86-0.52-10.77,3.65
		c-1.39,3.14-1.39,5.62-1.39,9.03v51.41c0,3.47-0.17,6.03,1.39,9.03C408.39,290.71,410.99,292.45,414.47,292.28L414.47,292.28z
		 M504.6,292.28c8.07-0.4,7.99-9.18,7.99-15.11c0-6.95,0-13.89,0.17-20.67v-5.38c0.17-1.39,0.87-2.61,1.56-2.61
		c1.22-0.17,2.08,0.52,2.95,1.22c1.22,1.39,2.26,2.61,3.47,3.99l18.76,21.88c3.36,3.98,9.82,12.04,13.89,15.11
		c5.04,3.82,11.81,1.04,12.85-5.04c0.35-2.26,0.52-4.52,0.52-6.6v-45.33c0-4.97,0.51-9.91-1.04-14.59c-2.6-7.84-12.7-6.47-14.59,0
		c-1.03,3.55-0.82,8.89-0.87,12.5c-0.17,7.12,0,14.24-0.17,21.36c0,1.39-0.35,2.61-0.52,3.99c-0.12,0.67-1.96,1.92-3.82-0.35
		c-1.39-1.39-2.78-2.95-3.99-4.52c-8.16-9.38-16.15-18.76-24.31-28.31c-2.37-2.68-6.43-7.61-9.55-9.2
		c-3.99-2.08-8.86-0.52-10.77,3.65c-1.39,3.14-1.39,5.62-1.39,9.03v51.41c0,3.47-0.17,6.03,1.39,9.03
		C498.52,290.71,501.12,292.45,504.6,292.28L504.6,292.28z M647.87,290.37c6.98-3.49,3.9-11.04,1.56-16.5l-19.8-49.49
		c-1.5-3.5-2.87-6.91-5.73-9.55c-2.78-2.78-7.29-2.95-10.25-0.17c-3.13,3.03-4.35,6.23-6.25,10.07
		c-6.95,15.63-14.07,31.26-21.01,46.89c-1.31,2.78-3.63,8.07-3.99,11.11c-0.79,6.73,7.23,11.32,12.33,6.95
		c4.69-4.02,4.91-8.46,9.2-9.2c2.83-0.49,10.41-0.35,13.37-0.35c4.53,0,8.82-0.19,13.37,0.35c3.78,0.45,4.29,3.6,5.9,5.73
		c1.04,1.22,2.08,2.43,3.13,3.47C642.32,291.58,645.09,291.93,647.87,290.37L647.87,290.37z M621.3,263.27c-1.04,0-6.77,0-8.51-0.35
		c-1.56-0.17-2.6-1.91-2.26-3.47c0.51-2.44,4.23-9.52,5.38-12.16c1.11-2.55,3.71-2.32,4.69,0.35l4.69,11.64
		C625.99,261.25,624.11,263.27,621.3,263.27L621.3,263.27z"/>
	<path class="st1" d="M400.35,463.96c8.92,4.25,5.27,20.45-8.79,17.68c-14.13-2.79-23.79-11.05-28.34-24.79
		c-6.72-20.28,6-41.73,26.89-46.1c9.52-1.73,17.27-1.32,26.95-8.31c9.73-7.03,8.08-12.83,9.84-19.84
		c2.62-10.5,20.54-11.55,18.77,6.98c-2.27,23.84-20.43,28.98-18.69,31.92c0.73,0.94,1.27,2.01,2.04,2.98
		c23.89,31.26-4.47,85.69-53.34,85.52c-28.81-0.1-53.71-20.06-60.05-48.16c-6.33-28.03,7.53-56.79,33.37-69.42
		c8.81-4.15,7.67-2.01,6.54-9.61c-2.62-17.66,11.61-31.74,28.21-30.84c25.01,1.36,33.29,34.45,16.8,36.5
		c-9.15,1.14-10.47-8.12-11.85-12.03c-2.82-7.95-14.44-4.64-13.6,3.13c0.67,6.24,6.36,6.23,10.21,7.47
		c7.81,2.53,11.36,18.32-5.93,18.93c-2.62,0.19-5.26,0-7.92,0.38c-47.43,5.74-50.01,70.66-6.98,82.41
		c36.99,10.1,64.26-30.98,49.16-51.82c-8.68-11.97-30.25-8.53-32.27,6.87c-0.88,7.41,3.01,14.31,9.88,17.23L400.35,463.96
		L400.35,463.96z"/>
</g>
</svg>
