<?xml version="1.0" encoding="utf-8"?>
<!-- Generator: Adobe Illustrator 25.0.0, SVG Export Plug-In . SVG Version: 6.00 Build 0)  -->
<svg version="1.1" id="Layer_1" xmlns="http://www.w3.org/2000/svg" xmlns:xlink="http://www.w3.org/1999/xlink" x="0px" y="0px"
	 viewBox="0 0 864 864" style="enable-background:new 0 0 864 864;" xml:space="preserve">
<style type="text/css">
	.st0{fill-rule:evenodd;clip-rule:evenodd;}
</style>
<g>
	<path class="st0" d="M342.01,204.91c11.55-3.85,9.48-5.21,13.36,2.71c5.72-3.53,28.47-13.33,37.12-17.16l2.43,4.62l0,0.83
		l-29.48,21.15l-4.36,2.18c2.11,4.39,3.38,7.3,3.36,9.27c-0.04,4.08-5.2,3.51-7.65,6.94c-2.57,3.59-3.2,12.29-6.18,16.26
		c-1.43,1.91-3.37,2.63-7.44,4.94c-4.07,2.31-10.27,6.2-15.18,9.04c-4.91,2.84-8.53,4.61-12.02,7.91
		c-3.65,3.45-6.94,8.33-9.77,15.37c6.22,11.53,12.57,19.78,23.07,27.44c5.49,4,10.97,6.82,14.17,9.05c3.2,2.22,4.13,3.85,2.71,3.96
		c-1.42,0.1-5.18-1.32-7.15-1.99c-1.97-0.67-2.16-0.59-4.27,1.44c-6.38,6.13-12.64,12.52-22.04,15.47c-3.35,1.05-7.08,1.72-10,1.8
		c2.99,10.8,12.75,35.66,17.75,45.64c2.73,5.46,4.88,8.37,7.27,9.76c4.19,2.43,9.02,0.04,7.81,9.3
		c-0.91,6.96-4.42,14.98-10.25,19.35c-5.1,3.82-16.59,6.54-23.25,5.7c-4.46-0.56-8.6-2.61-12.08-5.5
		c-3.49-2.89-6.33-6.62-9.44-15.07c-3.12-8.45-6.51-21.61-9.87-34.17c-3.52-13.16-10.98-41.01-14.6-49.12
		c-2.5-5.59-4.91-7.09-10.46-7.6c-9.73-0.9-16.36,6.79-21.73,3.47c-4.4-2.72-6.45-8.55-8.48-8.62c-1.09-0.04-2.71,0.88-4.4-0.42
		c-1.54-1.2-3.14-4.27-5.26-8.22l-27.56,15.38c-2.95-2.43-4.6-5.7-5.49-9.83l27.57-15.38c-1.22-2.14-2.48-4.34-3.75-6.54
		c1.34-0.8,2.69-1.6,4.03-2.4c-1.05-1.91-2.09-3.83-3.14-5.74c6.03-3.26,12.05-6.52,14.91-8.36c6.15-3.96-2.32-1.64,6.42-7.7
		c4.68-3.24,14.3-8.86,23.93-14.48c13.46-7.69,26.92-15.37,39.35-22.56c12.44-7.19,23.85-13.88,31.38-18.07
		c10.41-5.78,13.39-7.22,21.32-8.36C336.86,206.27,339.06,205.89,342.01,204.91L342.01,204.91z"/>
	<path class="st0" d="M161.95,285.88c15.71-16.47,14.1-11,5.24-26.1c-4.79-8.17-6.1-3.69,10.1-20.67c6.47-6.79,0.87-7.14,22.95,4.05
		c2.72,1.38,12.15-10.36,14.26-12.57c2.01-2.11-5.91-4.74-10.84-7.13l-73.56-35.75c-2.57-1.25-6.96,4.95-10.72,8.89
		c-6.95,7.29-6.15,3.45,6.91,27.42l33.61,61.5L161.95,285.88L161.95,285.88z M155.18,237.08c-1.06,1.11-8.29-12.85-9.3-14.62
		c-7.08-12.38-9.35-11.99,4.6-4.86c19.48,9.95,17.18,6.03,8.08,15.82C156.87,235.22,156.91,235.26,155.18,237.08L155.18,237.08z
		 M248.02,207.33c22.8-16.22,20.73-12.7,15.73-19.72c-8.57-12.05-1.86-13.38-30.29,6.83c-6.79,4.83-2.9,6.75-19.31-16.33
		l-27.46-38.48c-1.49-2.1-7.32,3.14-10.92,5.7c-7.44,5.3-7.81,1.09,9.01,24.74l37.75,53.12c1.53,2.15,7.79-3.38,11.64-6.11
		l13.85-9.77L248.02,207.33L248.02,207.33z M307.06,176.55c26.04-10.27,23.17-7.36,20.01-15.37c-5.43-13.78,1.39-13.42-31.04-0.64
		c-7.76,3.06-4.44,5.85-14.83-20.49l-17.42-43.94c-0.94-2.39-7.86,1.29-11.97,2.91c-8.5,3.35-7.84-0.81,2.8,26.18l23.89,60.63
		c0.97,2.45,8.37-1.41,12.77-3.14l15.79-6.16L307.06,176.55L307.06,176.55z M383.37,156.21c9.41-1.19,7.19,1.64,3.66-26.17
		l-8.19-64.65c-0.35-2.78-6.96-0.94-12.38-0.25c-9.13,1.16-7.33-2.33-3.71,26.16l8.23,64.64
		C371.3,158.36,379.07,156.75,383.37,156.21L383.37,156.21z M449.47,152.93l0.39,0.05l5.13-7.84l1.78,6.5l6.65-51.49l22.34,55.79
		c1.13,2.87,14.84,3.42,18.07,3.83c2.84,0.36,2.78-8.72,3.36-13.29l9.87-76.37c0.34-2.64-7.7-2.8-12.06-3.35
		c-9.13-1.16-6.57-3.67-10.07,23.89l-3.94,28.89l-22.24-55.79c-1.12-2.85-14.8-3.31-18.12-3.73c-2.55-0.32-2.89,8.62-3.47,13.17
		l-9.6,76.4c-0.34,2.71,6.65,2.69,11.94,3.36L449.47,152.93L449.47,152.93z M553.05,177.12c29.36,11.57,22.9,11.73,28.3-1.79
		c3.31-8.31,5.57-5.16-21.07-15.65c-15.18-5.98-12.77-2.03-6.86-17c3.43-8.69-2.02-8.31,23.28,1.66c7.93,3.13,5.6,5.21,12.44-12.14
		c1.03-2.62-6.34-4.31-11.01-6.15c-19.36-7.63-16.84-3.79-11.83-16.47c2.97-7.52-0.46-6.47,24.21,3.26
		c15.28,6.03,11.13,7.56,18.5-11.12c1-2.53-7.44-4.83-11.85-6.57l-38.09-15c-2.58-1.01-4.86,7.47-6.64,11.98l-28.15,71.67
		c-1.02,2.58,7.35,4.79,12.06,6.65L553.05,177.12L553.05,177.12z M616.12,211.03c26.57,17.04,20.21,15.92,28.11,3.72
		c4.86-7.52,6.46-3.98-17.64-19.43c-13.73-8.81-12.13-4.45-3.45-18c5.03-7.85-0.38-8.56,22.52,6.13c7.18,4.6,4.49,6.19,14.55-9.51
		c1.52-2.37-5.38-5.45-9.61-8.16c-17.52-11.23-15.79-6.96-8.43-18.44c4.37-6.81,0.81-6.42,23.12,7.88
		c13.83,8.86,9.46,9.58,20.3-7.34c1.47-2.29-6.36-6.17-10.36-8.74l-34.47-22.08c-2.34-1.49-6.21,6.39-8.83,10.47l-41.48,64.88
		c-1.49,2.33,6.28,6.12,10.55,8.86L616.12,211.03L616.12,211.03z M667,254.78c35.79,37.52,83.64-7.11,79.97-38.06
		c-2.09-17.58-17.15-29.92-29.82-43.2c-1.94-2.03-7.05,4.31-10.99,8.07l-55.73,53.14c-1.88,1.79,4.9,7.78,8.24,11.28L667,254.78
		L667,254.78z M680.72,241.69c-6.09-6.38-7.51-1.94,13.08-21.57l21.22-20.32c1.39-1.33,16.02,12.94,12.49,25.32
		C725.13,233.46,702.71,264.77,680.72,241.69L680.72,241.69z"/>
	<path d="M73.96,415.19c6.78,0,4.95,1.27,4.95-17.02l0.01-43.48c0-2.14-10.67-1.22-12.52-1.22c-2.17,0-1.3,11.15-1.3,13.08
		l0.1,47.43C65.21,415.84,72.53,415.19,73.96,415.19L73.96,415.19z M111.74,416.19c23.98,0,32.35-25.25,10.54-35.76
		c-3.44-1.66-23.98-7.3-16.35-13.27c7.47-5.85,18.12,2.55,18.16,2.55c0,0,10.43-7.72,8.62-9.32c-21.91-19.32-51.05-0.18-40.41,17.94
		c6.77,11.54,28.35,11.1,28.35,19.32c0,7.27-13.78,7.54-22.99,0.99c-2.02-1.44-8.97,8.83-8.97,8.83
		C88.67,409.56,101.21,416.19,111.74,416.19L111.74,416.19z M171.82,415.2c16.59,0,12.32,2.48,17.38-13.64l19.65,0.01
		c5.18,16.44,1.14,13.54,17.45,13.54c2.19,0-1.7-8.57-2.94-12.23l-16.49-48.28c-0.63-1.85-10.48-1.07-13.99-1.07
		c-2.06,0-4.71,10.14-5.42,12.23L171,414.05L171.82,415.2L171.82,415.2z M193.71,389.46l5.47-18.32
		c7.36,22.57,7.62,18.15-1.91,18.26C195.5,389.42,195.5,389.46,193.71,389.46L193.71,389.46z"/>
	<path d="M615.07,415.2c17.33,0,14.46,1.7,14.46-8.05c0-6,0.96-4.59-17.07-4.59c-5.17,0-3.73,1.25-3.73-16.35l-0.05-31.55
		c0-1.92-8.77-1.18-10.4-1.18c-1.92,0-1.01,14.92-1.01,16.99l-0.01,43.48c0,2.14,12.48,1.1,14.46,1.1
		C611.98,415.06,615.07,415.2,615.07,415.2L615.07,415.2z M641.46,415.19c5.42,0,4.15,1.4,4.15-13.08l-0.01-47.43
		c0-2.11-8.68-1.22-10.42-1.22c-1.91,0-1.01,14.94-1.01,17.02l0.01,43.48C634.18,415.8,640.1,415.19,641.46,415.19L641.46,415.19z
		 M667.84,415.2c9.19,0,7.37,3.5,7.37-20.93l0.48-28.25c15.96,0,13.3,2.79,13.3-11.35c0-2.15-12.52-1.22-14.52-1.22l-23.54,0.05
		c-1.73,0-1.73,12.62,0,12.62c15.91,0,12.73-2.31,12.73,8.41l-0.04,39.43C663.62,416.04,667.84,414.89,667.84,415.2L667.84,415.2z
		 M708.97,415.2c9.2,0,7.37,3.5,7.37-20.93l0.48-28.25c15.96,0,13.3,2.79,13.3-11.35c0-2.15-12.52-1.22-14.53-1.22l-23.54,0.05
		c-1.73,0-1.73,12.62,0,12.62c15.91,0,12.73-2.3,12.73,8.41l-0.04,39.43C704.75,416.04,708.97,414.89,708.97,415.2L708.97,415.2z
		 M751.79,415.2c17.32,0,14.46,1.7,14.46-8.05c0-6,0.96-4.59-17.07-4.59c-5.17,0-3.73,1.25-3.73-16.35l-0.05-31.55
		c0-1.92-8.77-1.18-10.4-1.18c-1.92,0-1.01,14.92-1.01,16.99l-0.01,43.48c0,2.14,12.48,1.1,14.46,1.1
		C748.69,415.06,751.79,415.2,751.79,415.2L751.79,415.2z M789.34,415.19c18.78,0,15.22,1.51,15.26-8.04
		c0.02-5.92,1.8-4.56-15.06-4.56c-9.51,0-7.58,2.82-7.58-13.01c0-2.21,17.52,1.47,17.52-1.74c0-13,3.9-10.53-16.98-10.53v-11.23
		l20.3-0.05c1.73,0,1.72-12.49,0-12.49l-31.28-0.03c-1.94,0.01-1.05,14.9-1.05,16.96l0.05,43.48c0,2.09,9.9,1.19,11.68,1.19
		L789.34,415.19L789.34,415.19z"/>
	<path class="st0" d="M95.95,570.42c18.1,0,31.43-7.15,42.65-21.11c2.35-2.93-5.44-8.09-10.56-12.58
		c-13.16-11.55-4.06,0.39-22.68,5.65c-22.93,6.48-35.69-10.3-37.92-31.1c-5.54-51.78,34.62-55.18,50.53-38.31
		c2.57,2.72,7.78-4.39,13.07-9.93c6.89-7.22,7.86-6.49-0.74-13.66c-33.09-27.62-95.81-9.37-89.81,62.08
		C43.18,543.52,61.63,570.42,95.95,570.42L95.95,570.42z M147.76,568.17c30.95,0,25.09,1.69,28.84-11.1
		c6.39-21.76,2.14-18.4,15.43-18.4c33.49,0,26.5-2.99,30.3,9.79c6.91,23.24,1.96,19.66,23.76,19.66c13.44,0,11.55,4.4-0.54-33.29
		L216,441.93c-1.13-3.53-5.86-2.25-11.21-2.25c-21.95,0-17.25-3.88-24.19,17.75l-34.43,108.35L147.76,568.17L147.76,568.17z
		 M190.38,514.54c-1.83,0,0.51-5.76,1.37-8.64c10.08-33.91,7.87-34.63,11.53-22.17c10.71,36.48,11.5,30.61,0.94,30.61L190.38,514.54
		L190.38,514.54z M278.36,568c20.41,0,17.12,3.83,17.12-18.2l-0.12-31.61c0-2.62,14.23-1.17,16.46-1.17
		c30.02,0,25.13,2.77,25.13-11.61c0-15.69,5.1-12.75-25.13-12.75c-21.13,0-16.32,3.92-16.32-17.49c0-11.58-5.38-9.44,24.9-9.44
		c30.44,0,26.16,2.5,26.16-9.41c0-20.72,5.55-16.75-26.79-16.75l-48.78,0.2c-3.39,0-2.51,5.07-2.51,10.53l-0.03,115.31
		C268.46,568.73,273.99,568,278.36,568L278.36,568z M376.27,568c20.41,0,17.12,3.83,17.12-18.2l-0.11-31.61
		c0-2.62,14.23-1.17,16.46-1.17c30.02,0,25.13,2.77,25.13-11.61c0-15.69,5.09-12.75-25.13-12.75c-21.13,0-16.32,3.92-16.32-17.49
		c0-11.58-5.38-9.44,24.9-9.44c30.44,0,26.16,2.5,26.16-9.41c0-20.72,5.55-16.75-26.79-16.75l-29.83,0.09
		c-4.65,6.53-12.9,11.14-21.46,9.71l-0.03,116.23C366.37,568.73,371.9,568,376.27,568L376.27,568z M506.75,568.14l33.35-0.17
		c3.92,0,2.31-8.43,2.34-16.57c0.05-11.61,4.87-9.58-27.02-9.58c-31.83,0-25.82,2.68-25.82-9.79c0-23.41-4.32-18.37,16.09-18.37
		c29.29,0,24.7,3.05,24.7-12.24c0-14.98,5.13-12.21-24.7-12.21c-19.91,0-16.26,3.79-16.26-15.18c0-10.5-4.29-8.24,25.08-8.24
		c30.74,0,26.13,2.12,26.13-9.5c0-20.54,5.48-16.63-26.79-16.63L477,439.64c-3.27,0.63-6.12,3.27-14.01,1.25l-0.25,124.72
		c0,3.41,5.12,2.43,10.67,2.43L506.75,568.14L506.75,568.14z M583.87,568.14c13.18,0,9.64,3.55,9.64-35.46l0.03-90.6
		c0-3.61-4.65-2.45-9.67-2.45c-21,0-17.06-4.15-17.06,18.91l0.03,107.07c0,3.26,4.77,2.31,9.67,2.31
		C580.19,567.91,580.19,568.14,583.87,568.14L583.87,568.14z M637.44,568.14c12.26,0,9.81,3.72,9.81-26.67l0.17-48.58l40.6,73.03
		c1.91,3.46,12.9,2,18.26,2c12.56,0,9.73,5.14,9.73-35.26l0.14-90.61c0-3.7-11.13-2.51-17.23-2.51c-12.81,0-9.7-3.92-9.7,34.72
		l0.06,40.22l-8.76-14.41l-32.12-58.34c-1.86-3.38-11.5-1.97-18.29-1.97c-12.33,0-9.64-4.21-9.64,26.99l-0.06,98.85
		c0,3.57,4.79,2.43,9.7,2.43c3.68,0,3.68,0.11,7.36,0.11H637.44L637.44,568.14z M785.93,568.14l33.35-0.17
		c3.92,0,2.31-8.43,2.34-16.57c0.05-11.61,4.87-9.58-27.02-9.58c-31.83,0-25.82,2.68-25.82-9.79c0-23.41-4.32-18.37,16.09-18.37
		c29.29,0,24.7,3.05,24.7-12.24c0-14.98,5.13-12.21-24.7-12.21c-19.91,0-16.26,3.79-16.26-15.18c0-10.5-4.29-8.24,25.08-8.24
		c30.74,0,26.13,2.12,26.13-9.5c0-20.54,5.47-16.63-26.79-16.63h-48.78c-3.43,0.01-2.45,5.55-2.45,10.64l0.11,115.31
		c0,3.41,5.12,2.43,10.67,2.43L785.93,568.14L785.93,568.14z"/>
	<path d="M109.5,663.21c18.85,0,13.89,2.96,19.64-16.49l21.31-0.7c2.41,0,3.53,17.06,7.15,17.06c18.7,0,16.3,4.57,8.66-19.23
		l-17.15-53.92c-0.69-2.17-6.97-1.31-11.16-1.31c-8.18,0-5.6-1.16-12.17,19.31l-17.2,53.88L109.5,663.21L109.5,663.21z
		 M134.24,632.08l6.18-22.16l5.88,22.11L134.24,632.08L134.24,632.08z M189.56,663.19c7.26,0,5.73,2.22,5.73-20.15l0.25-23.43
		l23.38,42.29c1.18,2.15,12.24,1.23,14.85,1.23c2.5,0,1.47-13.53,1.47-15.75V590c0-2.58-12.18-1.44-14.26-1.44
		c-2.66,0-1.38,13.28-1.38,15.45l-0.4,28.13l-23.3-42.32c-1.17-2.13-12.2-1.14-14.89-1.14c-2.61,0-1.32,13.46-1.32,15.66
		l-0.03,57.38c0,2.18,5.82,1.47,9.9,1.47H189.56L189.56,663.19z M271.09,663.21c41.84,0,42.44-52.8,22.3-67.91
		c-11.43-8.57-27.04-6.64-41.84-6.64c-2.25,0-1.41,6.76-1.41,10.91v62.15C250.15,664.1,266.59,663.21,271.09,663.21L271.09,663.21z
		 M271.09,647.91c-7.15,0-5.32,2.81-5.32-19.66l-0.05-23.71c0-1.17,19.58-3.56,23.63,11.31
		C292.73,628.24,291.42,647.91,271.09,647.91L271.09,647.91z M337.31,663.21c18.85,0,13.89,2.96,19.64-16.49l21.31-0.7
		c2.41,0,3.53,17.06,7.15,17.06c18.7,0,16.3,4.57,8.66-19.23l-17.15-53.92c-0.69-2.17-6.97-1.31-11.16-1.31
		c-8.18,0-5.6-1.16-12.17,19.31l-17.2,53.88L337.31,663.21L337.31,663.21z M362.05,632.08l6.18-22.16l5.88,22.11L362.05,632.08
		L362.05,632.08z M457.96,663.21c23.47,0,19.64,2.18,19.64-9.74c0-7.16,2.21-5.48-18.83-5.48c-12.1,0-9.37,2.93-9.37-15.07
		L449.28,590c0-2.39-12.06-1.42-14.12-1.42c-2.1,0-1.46,7-1.46,11l0.07,62.15c0,2.39,19.39,1.41,24.19,1.47V663.21L457.96,663.21z
		 M514.01,664.52c44.98,0,43.7-83.12-4.69-76.93C470.49,592.55,472.3,664.52,514.01,664.52L514.01,664.52z M514.01,648.8
		c-24.3,0-22.56-52.29,4.54-45.44C535.94,607.77,536.01,648.8,514.01,648.8L514.01,648.8z M573.39,663.21c12.71,0,9.9,3.5,9.9-20.55
		v-38.15c0-2.79,18.71,1.73,18.71-2.12c0-16.99,4.62-13.86-19.62-13.86l-31.96,0.07c-2.62,0-1.39,11.78-1.39,13.79
		c0,2.24,5.35,1.38,9.69,1.38c11.65,0,8.96-3.17,8.96,15.03l-0.02,42.92c0,2,3.12,1.47,5.73,1.47V663.21L573.39,663.21z
		 M664.33,664.52c44.98,0,43.7-83.12-4.69-76.93C620.81,592.55,622.62,664.52,664.33,664.52L664.33,664.52z M664.33,648.8
		c-24.3,0-22.56-52.29,4.54-45.44C686.26,607.77,686.33,648.8,664.33,648.8L664.33,648.8z M713.96,663.11
		c12.29,0,9.95,4.83,9.95-24.32c0-7-3.39-5.27,18.28-5.27c7.15,0,5.81,2.21,5.81-12.77c0-2.54-12.5-1.37-14.62-1.37
		c-12.05,0-9.52,3.29-9.52-14.87l23.7-0.76c7.4,0,6.03,2.37,6.03-13.73c0-2.69-13.33-1.46-15.58-1.46
		c-36.58,0.07-29.65-3.78-29.67,15.8l-0.12,57.36C708.21,663.52,711.47,663.11,713.96,663.11L713.96,663.11z"/>
	<path d="M93.49,804.36c17.31,0,30.03-6.84,40.76-20.18c2.25-2.79-5.2-7.73-10.09-12.02c-12.58-11.04-3.88,0.37-21.68,5.4
		c-21.92,6.2-34.11-9.85-36.24-29.72c-5.29-49.45,33.04-52.76,48.29-36.62c2.46,2.6,7.43-4.2,12.49-9.49
		c5.34-5.59,10.29-6.49-6.49-17.18c-23.81-15.17-61.42-8.35-75.01,25.33C31.31,745.1,43.57,804.36,93.49,804.36L93.49,804.36z
		 M158.21,802.21c19.9,0,16.36,3.27,16.36-18.73c0-30.96-3.49-25.6,11.81-25.6c2.18,0,11.61,18.69,13.25,21.62
		c15.72,28.11,8.12,22.49,31.57,22.49c13.56,0,13.94,6.2-9.11-35.14c-13.05-23.41-8.07-7.5,5.59-25.6
		c15.99-21.19,9.16-61.98-38.28-61.98l-38.23,0.03c-3.78,0-2.34,12.29-2.34,18.13l0.03,102.33
		C148.86,803.03,153.57,802.21,158.21,802.21L158.21,802.21z M182.56,734.48c-10.56,0-7.86,3.65-7.96-23.18
		c-0.04-10.34-3.42-8.48,14.81-8.48c10.72,0,20.99,2.05,20.99,14.01C210.4,734.69,194.8,734.48,182.56,734.48L182.56,734.48z
		 M249.01,802.21c29.58,0,23.98,1.61,27.57-10.61c6.11-20.79,2.04-17.59,14.75-17.59c32,0,25.33-2.86,28.96,9.35
		c6.6,22.21,1.86,18.79,22.71,18.79c12.84,0,11.05,4.21-0.52-31.82l-28.25-88.78c-1.15-3.61-11.16-2.15-18.38-2.15
		c-12.27,0-8.79-3.86-17.75,24.38l-30.62,96.14L249.01,802.21L249.01,802.21z M289.74,750.95c-1.75,0,0.49-5.51,1.31-8.26
		c9.63-32.4,7.52-33.11,11.02-21.19c10.23,34.86,11,29.26,0.9,29.26L289.74,750.95L289.74,750.95z M373.83,802.04
		c20.21,0,16.31,4.92,16.31-24.95c0-28.83-2.3-23.86,8.45-23.86c36.72,0,31.25,3.25,31.25-11.02c0-15.01,6.21-12.27-31.25-12.27
		c-10.9,0-8.45,5.12-8.45-24.4c0-2.18,14.26-1.15,16.33-1.15c37.09,0,32.56,2.43,32.56-9.11c0-20.51,6.41-15.87-33.37-15.87
		l-38.85,0.05c-3.24,0-2.4,4.84-2.4,10.06l-0.03,110.21C364.37,802.74,369.67,802.04,373.83,802.04L373.83,802.04z M493.29,802.21
		c21.01,0,16.31,4.08,16.31-25.99v-70.67c0-2.4,12.81-1.28,14.89-1.28c19.31,0,16.09,4.96,16.09-22.6c0-3.74-11.48-2.4-17.45-2.4
		l-67.65,0.08c-3.52,0-2.43,8.62-2.43,15.62c0,12.29-3.58,9.33,29.77,9.33c2.08,0,1.12,4.99,1.12,9.08l-0.08,86.38
		c0,3.3,5.1,2.43,9.43,2.43V802.21L493.29,802.21z M573.39,802.18c12.6,0,9.22,3.39,9.22-33.89l0.03-86.6c0-3.73-9.03-2.4-16.28-2.4
		c-12.23,0-9.27-4.3-9.27,33.87l0.03,86.6C557.12,803,566.97,802.18,573.39,802.18L573.39,802.18z M624.6,802.18
		c11.72,0,9.38,3.55,9.38-25.49l0.16-46.43l38.8,69.8c1.83,3.31,12.34,1.91,17.45,1.91c12.01,0,9.3,4.91,9.3-33.7l0.14-86.6
		c0-3.54-10.63-2.4-16.47-2.4c-12.24,0-9.27-3.75-9.27,33.18l-0.35,38.75l-38.66-69.83c-1.77-3.23-11-1.88-17.48-1.88
		c-11.77,0-9.38-4.73-9.38,33.67l0.11,86.6c0,3.61,9.1,2.43,16.31,2.43H624.6L624.6,802.18z M770.99,804.33
		c33.53,0,50.74-27.81,50.74-58.76c0-16.7,6.51-12.79-35.47-12.79c-22.91,0-18.81-2.34-18.81,11.56c0,14.03-6.13,11.75,26.59,11.75
		c3.64,0-5.6,28.92-30.13,21.46c-29.85-9.08-27.21-85.23,15.9-73.75c11.43,3.04,12.33,12.01,16.06,9.11
		c20.23-15.77,20.32-13.73,11.34-22.25c-30.62-29.04-94.72-13.16-88.15,58.4C721.78,778.86,739.81,804.33,770.99,804.33
		L770.99,804.33z"/>
	<path class="st0" d="M477.9,221.61l6.68-13.25l108.18,15.86l2.6,14.61l2.67,0.39c2.75,0.4,4.67,2.97,4.26,5.73l-2.02,13.78
		c-0.38,2.63-2.74,4.49-5.35,4.31l-8.39,35.21c0.77,0.37,1.42,0.93,1.92,1.66c0.8,1.16,1.07,2.53,0.76,3.9l-15.43,69.06
		c-0.57,2.54-2.99,4.21-5.57,3.84l-0.37-0.05l-8.32,34.94c-0.85,3.58-2.88,6.82-5.83,9.02c-3.01,2.24-6.65,3.18-10.37,2.63l-51-7.48
		c0.3-3.78,0.08-7.7-0.63-11.38l53.25,7.81c0.76,0.11,1.47-0.08,2.08-0.54c0.85-0.63,1.4-1.63,1.64-2.64l8.1-33.99l-80.96-11.87
		l-0.91,15.97c-3.24-2.18-7.18-3.95-10.92-4.78l0.73-12.82l-0.36-0.05c-2.58-0.38-4.42-2.68-4.24-5.27l5.05-70.58
		c0.1-1.41,0.75-2.63,1.84-3.52c0.69-0.56,1.47-0.91,2.31-1.04l2.07-36.13c-2.55-0.57-4.27-3.04-3.88-5.66l2.02-13.78
		c0.4-2.75,2.97-4.67,5.73-4.26L477.9,221.61L477.9,221.61z M479.58,413.9l-4.75-0.7c-3.72-0.55-6.94-2.49-9.18-5.5
		c-2.2-2.96-3.21-6.65-3-10.32l0.5-8.75c3.58,0.56,7.04,2.25,9.63,4.66c0.42,0.39,0.83,0.81,1.22,1.26l-0.2,3.48
		c-0.06,1.04,0.19,2.15,0.82,3c0.45,0.61,1.08,1,1.84,1.11l2.16,0.32c0.39,1.06,0.69,2.11,0.9,3.12
		C480.1,408.47,480.18,411.28,479.58,413.9L479.58,413.9z M480.41,282.46l95.09,13.94l8.33-34.97l-101.36-14.86L480.41,282.46
		L480.41,282.46z"/>
	<path class="st0" d="M407.4,341.78c3.13-1.4,5.9-2.64,8.13-5.3c1.44,1.27,2.55,2.22,3.34,2.96c1.18,1.12,1.61,1.76,2.04,2.41
		c0.61,0.5,3.88,0.79,9.17,6.64c6.51,7.19,11.05,18.4,11.15,28.24c0.06,6.1-1.76,11.59-3.89,17.27c-3.69,9.84-6.14,11.35-7.21,13.83
		c-1.09,2.51,1.41,4.3,3.94,6.02c4.66,3.17,5.36,3.04,9.13,7.42c6.48,7.55,12.77,15.51,23.51,16.93c2.63,0.35,7.01-0.53,9.83-2.07
		c4.93-2.68,9.31-8.11,11.09-13.62c2.15-6.65,1.86-15.33-0.45-22.1c-2.01-5.88-7.49-13.09-12.14-16.97
		c-3.76-3.14-9.13-5.51-13.39-6.1c-4.67-0.65-8.45,0.57-11.03-4c-3.09-5.49-0.97-20.92-17.58-42.45c-1.53-1.98-2.75-3.52-3.98-5.06
		c-0.53-9.03-1.08-17.08-1.67-24.86c3.56-12.66,7.48-25.32,10.85-37.9c4.5-16.81,11.34-40.64,16.11-57.24
		c2.66-9.24,5.64-18.51,5.54-24.33c-0.13-7.19-3.75-19.43-6.18-28.3c-5.91,9.02-9.76,16.01-14.58,27.74
		c-7.15,17.38-12.08,34.64-18,55.12c-1.19-10.01-2.38-20.98-3.74-30.07c-1.32-8.77-2.82-15.9-4.28-22.93
		c-3.18-15.32-4.26-20.82-9.14-34.65c-2.96,10.78-4.14,15.32-5.01,27.16c-1.48,19.97-0.36,37.6,0.87,61.93
		c1.05,20.7,1.96,41.41,2.81,62.12c-3,10.15-6.04,20.29-9.12,30.47c0.39,1.94,0.78,3.88,1.36,6.11c0.9,3.47,2.76,8.78,2.73,11.86
		c-0.1,8.73-10.56,5.32-17.8,6.6c-6.8,1.21-11.76,4.27-16.36,9.37c-9.32,10.32-12.02,19.24-14.98,33.11
		c-2.13,10-3.39,21.99,0.54,31.11c2.34,5.45,6.48,11.91,11.38,15.23c4.84,3.28,11.66,3.75,16.56,1.1c3.07-1.66,6.41-4.22,8.4-7.18
		c2.81-4.17,5.07-13.37,7.62-22.2c3.61-12.49,10.6-35.66,13.5-47.04c1.61-6.32,2.82-12.66,2.36-18.21
		C408.6,347.29,408,344.53,407.4,341.78L407.4,341.78z M421.38,303.17c-1.69,5.91-9.52,7.07-12.9,2.03l12.4-7.27
		C421.67,299.49,421.9,301.35,421.38,303.17L421.38,303.17z M407.87,304.08c-2.42-5.52,2.69-11.49,8.57-9.81
		c1.56,0.45,2.85,1.38,3.76,2.58L407.87,304.08L407.87,304.08z M445.96,409.98c4.2,12.34,21.16,24.73,32.3,13.09
		c4.78-4.99,5.93-11.34,4.53-18.15c-1.02-4.95-4-10.59-7.74-14.07c-5.15-4.79-12.83-6.97-19.41-5.07
		c-4.86,1.41-8.79,6.34-10.13,11.04C444.34,400.97,444.48,405.62,445.96,409.98L445.96,409.98z M396.6,374.82
		c0.36-3.96,0.24-7.53-3.19-10.08c-2.93-2.16-7.74-3.3-11.4-2.58c-4.21,0.83-9.51,4.85-12.84,8.28c-7.75,8-11.37,19.02-13.46,29.89
		c-1.29,6.7-1.72,12.29-0.75,18.57c0.93,5.99,3.51,15.59,9.59,17.84c5.12,1.9,10.74,0.04,13.66-4.57
		c2.51-3.97,5.85-15.38,6.09-20.01c0.25-4.64-0.4-5.62,1.76-10.96C389.69,392.22,395.77,383.98,396.6,374.82L396.6,374.82z"/>
</g>
</svg>
