<?xml version="1.0" encoding="utf-8"?>
<!-- Generator: Adobe Illustrator 25.0.0, SVG Export Plug-In . SVG Version: 6.00 Build 0)  -->
<svg version="1.1" id="Layer_1" xmlns="http://www.w3.org/2000/svg" xmlns:xlink="http://www.w3.org/1999/xlink" x="0px" y="0px"
	 viewBox="0 0 864 864" style="enable-background:new 0 0 864 864;" xml:space="preserve">
<style type="text/css">
	.st0{fill-rule:evenodd;clip-rule:evenodd;fill:#E0C39B;}
	.st1{fill-rule:evenodd;clip-rule:evenodd;}
	.st2{fill-rule:evenodd;clip-rule:evenodd;fill:#A37655;}
</style>
<g>
	<path d="M150.5,126.57c2.2-13.16,10.25-0.67,10.25-17.08c0-20.1-16.3-40.42-36.43-40.42c-11.41,0-31.98,9.79-38.71,27.47
		c-9.59,25.18,3.39,28.79,0.57,34.01c-4.98,9.23-3.48,27.94-3.7,40.99c-0.1,6.08,6.22,9.6,3.99,16.51
		c-4.96,15.32-6.66,48.47,2.13,61.76c12.36,18.7,47.51,25.32,61.34,7.11c15.35-20.22,14.24-56.03,8.11-61.34
		c-4-3.47-19.51-1.27-22.77,1.99c-8.53,8.53,4.81,43.41-13.23,43.41c-9.7,0-11.39-11.45-11.39-19.35V115.76
		c0-24.54,19.19-23.44,19.64-9.96l3.56,34.72c3.26,10.43,28.61,7.57,28.61-12.24C162.46,117.12,151.17,126.23,150.5,126.57
		L150.5,126.57z M104.11,119.46c-4.96,13.22-14.04-3.66-9.96-5.69C98.06,111.81,102.68,112.61,104.11,119.46L104.11,119.46z
		 M253.25,261.77c2.36,7.1-4.95,6.26-13.38,6.26c-13.72,0-14.1-4.64-16.51-21.06l-12.81-62.9c-1.52-1.01-6.26-2.27-6.26,4.84
		l0.28,71.73c0.05,5.66-1.83,7.05-7.12,7.12c-20.76,0.25-20.78,1.66-20.78-19.92l0.85-62.19c1.53-3.82,13.96-2.13,5.41-10.39
		c-6.15-5.94-6.44-11.35-6.26-20.21l-0.28-71.73c0-7.78,3.32-12.05,9.96-12.81c22.18-2.45,47.99-4.77,61.05,13.52
		c7.54,10.56,6.69,32.12,6.69,41.13c0,54.32-21.55,25.6-14.23,63.76L253.25,261.77L253.25,261.77z M226.21,109.78l4.55-3.99
		l-5.12-2.28c-1.13-1.65-2.73-8.54-13.66-8.54c-12.29,0-7.22,6.45-7.4,10.53l0.28,48.39c1.62,6.47,15.77-4.1,16.22-4.55
		C225.23,145.24,226.62,117.13,226.21,109.78L226.21,109.78z M303.91,68.51c-16.13-5.38-23.76,16.78-23.34,28.75
		c1.24,34.65-11.55,117.61-15.66,161.1c-0.87,11.41,5.48,11.39,18.5,11.39c6.34,0,8.64-2.86,9.39-9.11
		c1.71-12.52,3.04-27.7,3.98-45.54c0.86-14.45,11.32-6.36,11.53-6.12c4.03,4.65,1.66,41,5.27,54.22c1.86,6.84,22.68,5.26,25.19,2.56
		c3.7-3.98-0.32-27.23-1.85-39.28c-3.89-30.59-2.8-30.74-3.99-54.36l-10.39-97.77C320.41,68.39,312.55,68.51,303.91,68.51
		L303.91,68.51z M300.5,105.23c6.24,10.41,2.51,23.96,13.09,19.35c7.4-3.22,5.8,16.73-3.98,21.06c-9.94,4.4-2.98,9.5-3.13,19.64
		c-0.1,6.45,0.94,13.68-4.27,12.81c-5.06-0.85,4.61-28.25-1.71-33.02C284.36,132.88,291.24,124.19,300.5,105.23L300.5,105.23z
		 M406.38,95.83c-15.32,0-28.54-7.18-25.62,16.22c3.43,27.45-4.98,43.2,6.26,42.69c24.1-1.09,28.19,3.88,23.91,23.91
		c-1.45,6.81-8.77,3.42-20.49,3.42c-15.03,0-9.05,14.33-9.11,24.19v54.65c0.03,6.06-3.29,7.12-9.68,7.12
		c-22.92,0-15.35,0.88-16.51-68.88c-0.11-6.41-1.5-12.73,2.85-17.08l2.28,5.12c3.45-3.46-4.83-12.65-4.55-19.92
		c1.69-107.11-13.5-99.62,38.42-99.62c29.51,0,28.75-2.42,28.75,14.23C422.88,95.9,422.97,95.32,406.38,95.83L406.38,95.83z
		 M479.24,68.22c-6.69,1.33-43.78-4.83-41.56,14.23c2.66,22.81,21.65,5.53,23.62,15.94c6.17,32.45-5.16,27.68,0.85,58.35
		c4.55,23.22-4.9,30.98,1.14,67.17c1.65,9.88-3.59,11.14-1.99,28.18c1.03,11-2.92,17.15,20.21,15.94c8.26-0.43,6.25-3.67,6.55-17.08
		c0.28-12.72-10.86-2.23-3.13-17.36c4.05-7.93,2.85-10.58,2.85-18.5l-0.28-110.44c-0.09-15.56,10.39-7.71,22.2-10.39
		c7.14-1.62,4.49-22.69,2.7-24.34C509.3,67.07,484.45,68.22,479.24,68.22L479.24,68.22z M574.3,239.85
		c29.96,2.64,19.78,25.87,19.07,26.75c-2.19,2.74-50.85,1.11-58.35,1.14c-11.29,0.03-7.4-3.63-7.4-33.3
		c0-13.72,1.95-16.41,0.57-26.76c-4.32-32.4,5.98-24.93,5.98-30.17c0-2.67-7.22-6.22-7.12-23.91c0.19-15.56,0.28-38.99,0.28-70.3
		c0-17.91,11.3-15.94,31.88-15.94c37.9,0,36.15-4.43,36.15,17.36c0,16.22-13.19,10.25-30.46,10.25c-18.94,0-9.56,15-13.23,19.5
		l-6.97,4.98c2.95,0,9.11,2.01,9.11,6.83c0,31.61-6.43,28.75,15.37,28.75c7.79,0,15.91-3.08,14.23,9.96
		c-1.23,9.55-10.18,18.12-19.92,15.94c-8.22-1.85-11.03,2.13-10.82,10.53C554.1,248.6,544.81,238.3,574.3,239.85L574.3,239.85z
		 M687.87,261.77c2.36,7.1-4.95,6.26-13.38,6.26c-13.72,0-14.1-4.64-16.51-21.06l-12.81-62.9c-1.52-1.01-6.26-2.27-6.26,4.84
		l0.28,71.73c0.05,5.66-1.83,7.05-7.12,7.12c-20.76,0.25-20.78,1.66-20.78-19.92l0.85-62.19c1.53-3.82,13.96-2.13,5.41-10.39
		c-6.15-5.94-6.44-11.35-6.26-20.21l-0.28-71.73c0-7.78,3.32-12.05,9.96-12.81c22.18-2.45,47.99-4.77,61.05,13.52
		c7.54,10.56,6.69,32.12,6.69,41.13c0,54.32-21.55,25.6-14.23,63.76L687.87,261.77L687.87,261.77z M660.83,109.78l4.55-3.99
		l-5.12-2.28c-1.14-1.65-2.73-8.54-13.66-8.54c-12.29,0-7.22,6.45-7.4,10.53l0.28,48.39c1.62,6.47,15.77-4.1,16.22-4.55
		C659.85,145.24,661.24,117.13,660.83,109.78L660.83,109.78z M729.71,107.79c0-15.52,19.88-16.9,21.35-2.99l3.7,7.26
		c-0.81-0.27-5.52,3.95-3.84,10.11c2.66,9.73-7.27,8.68,25.47,8.68c4.24,0,2.37-6.06,2.84-13.66c1.25-19.89-2.68-34.2-19.64-44.54
		c-6.66-4.06-15.13-6.58-21.63-5.27c-24.4,4.93-31.32,14.29-35.72,36.29c-3.2,16.02,6.53,12.86,2.56,19.21
		c-6.93,11.08-1.59,26.8,4.7,37c12.97,21.05,31.92,17.45,39.28,29.6c6.98,11.54,1.74,16.09,1.99,31.88
		c0.11,7.02,2.71,17.84-9.96,18.22c-20.01,0.59-5.59-34.55-13.38-35.29c-38.87-3.72-22.34,6.62-24.19,16.51
		c-7.29,38.83,33.53,59.62,60.48,39.13c14.21-10.8,15.51-22.34,15.51-40.84c0-8.19-6.65-6.86-1.99-12.1
		c8.73-9.81-4.8-45.07-32.16-52.51C725.61,149.17,729.71,132.27,729.71,107.79L729.71,107.79z M154.08,400.47
		c5.75-14.77,14.58-27.62,27.04-37.59C173.26,376.11,164.44,388.96,154.08,400.47L154.08,400.47z M627.02,396.06
		c2.4-7.46,16.6-35.57,23.78-28.39l-0.38,4.03C642.94,380.14,635.84,388.77,627.02,396.06L627.02,396.06z M660.39,466.25
		c12.26,0,25.77-11.87,33.18-20.33c7.7-8.79,52.93-63.75,52.93-76.14c0-5.11-6.95-8.3-10.93-1.53
		c-11.69,19.86-55.58,65.19-72.49,73.64c-4.2-29.54,20.71-72.88,20.71-80.93c0-5.61-6.52-14.69-17.07-6.71
		c-9.32,7.04-10.27-15.92-32.03-2.3c-11.43,7.15-15.51,16.86-24.55,26.47c-5.17,5.5-33.79,35.67-39.89,35.67
		c-11.28,0,5.9-69.39,6.33-80.55c0.39-10.26-9.8-18.07-21.29-10.17c-26.54,18.26-45.44,60.39-50.44,64.06
		c-1.49-5.98,8.66-35.41,8.44-44.88c-0.14-5.73-10.3-17.14-17.84,4.22c-7.89,22.35-3.46,19.4-15.73,32.22
		c-4.58,4.78-34.02,35.29-38.74,35.29c-13.21,0,5.9-68.24,5.56-81.32c-0.25-9.79-10.29-17.45-22.06-9.01
		c-26.55,19.02-42.9,58.17-48.9,61.37c8.89-41.65,24.95-53.05,25.51-68.47c0.21-5.79-6.66-13.88-15.34-8.63
		c-19.5,11.79-27.67,19.73-53.12,32.8c-5.69,2.92-26.27,15.71-26.27,7.29c0-7.03,13.29-11.03,10.74-20.33
		c-2.03-7.42-14.62-10.91-27.04,7.48c-5.17,7.66-22.07,7.87-16.49,28l0.53,6.11c-13.41,7.47-26.77,14.89-39.66,23.43l-5.56,2.3
		c-1.92-4.78,7.19-62.33-16.11-62.33c-12.55,0-12.68,14.37-20.14,9.01c-28.24-20.28-71.36,55.38-69.23,84.19
		c1.29,17.45,17.82,21.83,36.05,4.6c11.74-11.09,17.52-23,21.1-21.86c7.52,2.39,11.32,1.64,15.73-9.01
		c8.52-20.61,4.95-29.39,12.85-34.33c-0.19,14.58-1.72,28-2.49,41.62c-0.38,4.22-2.11,6.9-5.18,9.4
		c-34.36,27.54-77.58,78.42-91.67,121.78c-14.18,43.65,21.1,60.13,49.67,36.25c34.92-29.18,57.95-99.88,64.25-142.11
		c1.92-13.04,6.33-21.67,17.84-28c10.08-5.59,19.55-12.41,29.18-18.95c-16.05,73.88,23.44,81.18,38.33,53.28
		c19.77-37.05,7.48-57.93,7.48-67.89c0-1.73,1.15-2.3,4.6-4.03c15.55-7.53,31.29-19.96,43.34-26.85l-1.15,6.71
		c-10.1,24.83-18.97,79.95-15.92,104.71c1.32,10.66,18.16,20.83,26.85-3.45c7.84-21.91,28.85-84.27,46.99-94.17
		c-3.61,18.97-18.58,81.12,12.27,81.12c16.7,0,37-23.74,47.81-35.58c-1.64,8.69-6.69,43.69-3.32,54.57
		c2.21,7.12,17.25,18.18,26.27-5.95c11.4-30.48,19.08-59.21,38.93-86.49c2.11-2.88,4.03-6.33,7.86-8.63
		c0,11.19-21.11,81.89,12.47,81.89c13.48,0,27.96-14.53,36.87-23.85c-0.81,15.36,9.19,23.08,22.39,18.09
		c10.29-3.9,15.78-13.81,20.52-13.81c-1.75,11.97-4.74,24.06-1.53,36.06C644.47,460.69,651.57,466.25,660.39,466.25L660.39,466.25z
		 M290.63,420.8c-2.18-13.1,0.35-28.59,4.41-41.23C299.55,394.21,297.05,406.75,290.63,420.8L290.63,420.8z M133.95,563.87
		c-13.79,0,5.26-37.81,6.71-40.85c14.19-30.11,32.8-57.15,55.62-81.12c1.73-1.72,2.88-4.22,6.14-4.6
		c-2.88,28.03-18.73,72.45-33.76,96.28C162.46,543.39,147.53,563.87,133.95,563.87L133.95,563.87z M192,589.68
		c3.54-19.1,16.58-1.05,16.58-24.85c0-10.35-3.72-21.33-10.21-31.58c-9.55,18.07-21.21,37.16-37.67,49.41
		c3.79,23.57,1.57,36.02,21.16,36.02c34.58,0,37.32-45.01,16.12-32.31C195.22,588.02,193.22,589.13,192,589.68L192,589.68z
		 M172.76,511.51c-5.46-2.42-10.68-4.04-15.66-4.87c-6.24,11.08-15.58,29.68-19.28,41.54l12.34-1.86
		C159.05,536.98,167.19,523.11,172.76,511.51L172.76,511.51z M109.09,520.79c-10.5,7.04-16.28,11.41-22.12,25.19
		c-15.51,36.6,5.45,41.94,0.92,49.5c-8.08,13.48-5.4,31.94-5.53,47.63c-0.08,9.87-2.19,13.28,3.23,22.37
		c9.69,16.28-3.23,7.8-3.23,51.78c0,34.37-1.07,57.2,40.54,72.9c21.76,8.21,53.21,6.96,68.18-10.77
		c18.2-21.54,23.23-51.95,17.97-79.52c-3.42-17.92-17.92-11.18-28.56-11.18c-37.92,0-0.02,67.51-34.55,67.51
		c-15.11,0-18.43-15.55-18.43-28.16V592.21c-5.69-0.85-10.73-3.02-14.92-6.2c-8.81,3.52-18.13-12.85-11.04-15.26
		C95.69,554.5,102.22,535.81,109.09,520.79L109.09,520.79z M358.29,786.42c3.9,10.53-8.49,8.64-9.67,8.7
		c-32.11,1.45-33.74,0.22-38.7-30.23l-18.89-88.43c-1-4.95-11.98-7.83-11.98,3.94l0.46,104.38c0.08,8.54-3.32,10.26-11.51,10.35
		c-33.42,0.37-33.63,2.57-33.63-28.99c0-11.91-1.33-84.41,1.38-90.5c2.46-5.52,22.55-3.12,8.75-15.12
		c-9.9-8.6-10.43-16.47-10.13-29.41l-0.46-104.38c0-11.32,5.37-17.53,16.12-18.64c34.86-3.47,77.47-7.19,98.81,19.67
		c5.37,6.76,8.37,14.29,8.98,22.57c9.84,132.58-34.55,66.03-21.19,130.06L358.29,786.42L358.29,786.42z M314.53,565.24
		c1.15-3.12,5-4.73,7.37-5.8l-8.29-3.31c-1.94-2.56-4.42-12.42-22.11-12.42c-19.9,0-11.68,9.42-11.98,15.32l0.46,70.41
		c2.6,9.33,25.27-5.74,26.25-6.63C313.27,616.53,315.13,574.94,314.53,565.24L314.53,565.24z M440.29,505.18
		c-25.6-7.67-38.5,23.51-37.77,41.83c2.37,59.57-19.55,166.21-25.34,234.43c-1.68,19.87,14.47,15.37,22.8,16.15
		c12.52,1.19,20.53,0.63,22.34-12.84c2.76-18.23,4.91-40.32,6.45-66.27c0.63-9.44,2.25-12.27,9.67-12.01
		c8.04,0.28,11.83,3.81,11.98,12.01c0.22,11.83,2.66,60.54,5.53,70c2.33,7.67,15.2,6.63,30.4,6.63c9.91,0,13.47-3.43,12.9-13.25
		c-1.97-33.55-11.52-77.61-11.52-114.32c0-28.29-11.69-101.19-14.28-134.61C471.49,507.55,470.62,505.18,440.29,505.18
		L440.29,505.18z M434.76,558.61c10.08,15.12,4.07,34.86,21.19,28.16c11.98-4.69,9.37,24.36-6.45,30.65
		c-16.1,6.4-4.82,13.81-5.07,28.58c-0.17,10.11,1.4,19.89-6.91,18.64c-3.49-0.52-2.42-3.11-2.3-5.8l3.22-36.03
		c0.58-9.46-29.86-12.65-15.66-41.83C424.32,577.94,428.31,570.49,434.76,558.61L434.76,558.61z M606.13,544.94
		c-23.22,0-46.25-10.87-41.46,23.61c2.8,20.14-2.01,56.89,2.99,60.88c7.06,5.64,48.14-7.81,48.14,19.05c0,1.67-1.03,18-4.61,21.75
		c-3.97,4.16-35.22-3.74-43.3,3.52c-7.69,6.91-2.24,21.78-2.31,31.89v79.52c0.05,9.12-5.84,10.35-15.66,10.35
		c-36.67,0-24.81,2.71-26.72-100.23c-0.18-9.61-2.4-18.56,4.61-24.85l3.68,7.46c5.59-5.03-7.82-18.41-7.37-28.99
		c0-25.68-0.15-45.7-0.46-60.06l-0.46-60.89c-0.11-29.06,23.16-24.02,51.13-24.02c59.77,0,58.5-4.69,58.5,20.71
		C632.84,545.15,632.84,544.2,606.13,544.94L606.13,544.94z M724.05,504.77c-10.83,1.96-70.85-7.04-67.26,20.71
		c3.28,25.38,26.93,17.4,31.79,17.4c6.85,0,6.79,7.59,8.29,16.57c5.64,33.83-9.41,33.05-0.46,74.14c6.03,27.69-1.69,32.23-1.38,61.3
		c0.26,24.18-0.57,16.02,3.23,36.45c2.7,14.55-5.85,15.86-3.23,41c1.68,16.09-4.67,24.95,32.71,23.2
		c13.61-0.64,10.19-7.21,10.13-15.32c-0.06-9.48,2.93-17.63-5.3-20.09c-11.03-3.3,6.23-14.67,5.53-33.14l-0.69-169.2
		c-0.15-22.66,16.78-11.2,35.93-15.12c9.65-1.97,6.43-13.88,6.91-26.72c0.55-14.83-11.75-10.46-28.33-10.98L724.05,504.77
		L724.05,504.77z"/>
	<path class="st0" d="M561.55,484.27c-8.66-1.18-35.22,4.47-44.75,3.73l-9.24-0.84l-68.46-1.11l-3.73-0.34l-24.29-0.39
		c-7.24-0.97-16.87-0.82-24.79-0.69c-5.74,0.1-9.09-0.44-13.85-0.23c-6.4,0.34-11.04,0.94-17.6,0.49c-3.43-0.24-6.01,0.67-9.76,0.41
		c-4.57-0.32-9.16,0.7-13.89,0.78c-12.19,0.19-24.41,0.18-36.6,0.45c-2.54,0.06-2.4,0.4-5.47-0.09c-6.27-1-6.98,0.1-13.16-3.31
		c-5.77-3.19-8.6-0.71-14.06-1.29c-14.46-1.53-22.56-0.93-36.79-0.56c-1.92,0-3.52-0.27-5.1-0.44c4.72-15.37,8.27-31.16,10.69-47.31
		c1.59-10.61,4.62-17.53,14.26-22.86c5.49-3.03,10.76-6.4,15.96-9.88c-0.59,4.91-0.94,9.85-0.94,14.82v0.14l0.2,5.12
		c0.21,9.57,1.7,18.9,6.76,27.34c4.54,7.57,12.06,12.64,21.02,12.64c5.84,0,11.49-2.15,16.14-5.63c4.65-3.49,8.39-7.91,11.17-13.01
		c7.38-14.14,11.99-28.9,11.99-44.81c0-2.62-0.01-5.23-0.21-7.84c-0.42-5.38-1.74-10.7-2.8-15.98c-0.02-0.09-0.04-0.19-0.06-0.28
		c0.05-0.02,0.09-0.04,0.13-0.06c9.08-4.25,17.2-10.21,25.95-15.39c0.75-0.44,1.49-0.9,2.22-1.37c-3.12,9.99-5.49,20.2-7.23,30.55
		c-3.05,18.08-5.28,36.32-5.28,54.68v0.21l0.01,0.21c0.2,3.44-0.01,6.78,0.43,10.24c1.03,8.23,6.14,14.95,14.38,16.93l0.24,0.06
		l0.24,0.04c1.55,0.26,3.05,0.48,4.62,0.48c7.28,0,13.03-3.76,16.78-9.91l0.1-0.17c1.7-2.98,3-6.14,4.16-9.37l10.74-29.92
		c4.96-13.83,10.63-27.35,17.87-40.06c-0.24,1.74-0.47,3.48-0.67,5.23c-0.74,6.58-1.58,13.14-1.58,19.78
		c0,4.42,0.45,8.87,1.27,13.21c2.19,12.9,11.02,23.39,24.97,23.39c4.97,0,9.71-1.44,14.16-3.56l0.19-0.09
		c7.7-3.95,14.46-9.19,20.56-15.29c0.86-0.86,1.72-1.73,2.58-2.6c-0.66,6.52-1.03,13.07-1.03,19.65v4.43l0.01,0.21
		c0.23,3.95,0.06,7.37,1.26,11.26c2.28,7.36,7.74,12.06,15.29,13.31c1.27,0.24,2.45,0.3,3.74,0.3c5.82,0,10.69-2.54,14.33-7.04
		c2.97-3.69,4.57-7.69,6.26-12.04l10.81-30.09c4.92-13.71,10.54-27.24,17.72-39.9c-0.26,2.09-0.5,4.19-0.72,6.28
		c-0.65,6.17-1.19,12.36-1.19,18.57c0,4.04,0.21,8.07,0.86,12.07c2.16,13.31,10.96,24.35,25.2,24.35c5.2,0,10.36-1.68,14.95-4.05
		c6.4-3.31,12.2-7.46,17.46-12.31c3.5,7.21,10.28,12.14,19.37,12.14c3.37,0,6.7-0.82,9.86-1.95l0.25-0.09
		c3.2-1.28,5.93-2.94,8.49-4.82c-0.39,2.97-0.73,5.86-0.73,8.8c0,4.5,0.66,9.05,1.75,13.41l0.06,0.23
		c3.39,11.86,12.87,20.09,25.4,20.09c3.45,0,7.05-0.75,10.3-1.9c3.68-1.17,6.92-3.08,10.21-5.05l0.24-0.15
		c6.61-4.34,12.44-9.7,17.69-15.59c15.41-17.94,29.95-36.45,42.99-56.02c3.91-5.86,7.6-11.78,10.26-18.33l0.07-0.17
		c0.79-2.09,1.41-4.05,1.41-6.32c0-4.73-2.4-8.69-6.51-10.97l-0.27-0.14c-1.71-0.86-3.74-1.32-5.65-1.32c-5.18,0-9.19,3.01-11.7,7.4
		c-3.51,5.79-7.52,11.46-12.06,16.73c-14.29,16.55-29.66,32.1-46.38,46.2c-0.37,0.29-0.73,0.58-1.1,0.88
		c0.42-3.7,1.21-7.34,2.14-10.97c3.96-16.61,9.96-32.53,16.87-47.98c1.22-2.73,1.96-5.64,1.96-8.64c0-5.51-2.42-10.3-6.87-13.53
		c-2.82-2.17-6-3.51-9.6-3.51c-4.02,0-7.62,1.56-10.81,3.84c-4.86-4.25-10.48-7.1-17-7.1c-5.61,0-10.98,2.37-15.65,5.3
		c-2.98,1.87-5.85,4.06-8.33,6.55c-4.8,4.8-9.09,10.05-12.83,15.71c-1.57,1.81-3.14,3.62-4.78,5.36
		c-9.95,10.61-20.17,21.09-31.45,30.31l-0.05-1.44c0.02-10.22,2.1-20.42,3.57-30.5c1.97-11.79,5.45-23.23,6.38-35.38l0.21-2.76
		v-0.27c0-7.65-3.08-14.21-9.95-18.06c-2.71-1.63-5.85-2.44-9.21-2.44c-4.85,0-9.3,1.68-13.21,4.5
		c-6.47,4.21-11.92,9.58-17.02,15.34c-5.57,6.3-10.67,12.95-15.44,19.84c0.13-0.6,0.25-1.21,0.38-1.81
		c0.72-2.72,1.15-5.54,1.15-8.35v-0.17l-0.01-0.17c-0.33-6.87-4.58-12.9-11.47-14.43l-0.37-0.08l-2.5-0.28h-0.39
		c-5.42,0-9.75,2.86-12.54,7.39c-1.84,2.99-3.18,6.28-4.29,9.6c-2.66,7.16-5,14.43-7.06,21.79c-2.33,2.66-4.64,5.34-7.09,7.89
		c-9.98,10.38-19.97,20.88-31.11,30.05l-0.07-1.52c0.01-3.72,0.21-7.48,0.7-11.17c1.91-14.13,4.57-28.14,7.4-42.12l0.04-0.19
		c0.89-5.08,2.02-9.8,2.02-15.02v-1.33l-0.01-0.18c-0.55-10.71-8.37-19.37-19.33-19.37c-5.18,0-9.84,1.99-13.96,5.01
		c-6.14,4.3-11.55,9.69-16.63,15.38c-0.16,0.19-0.33,0.38-0.49,0.57c0.26-0.51,0.51-1.02,0.77-1.52l0.12-0.23l0.1-0.24
		c1.47-3.57,2.72-7.29,3.61-11.05l0.13-0.55l0.25-3.5v-0.25c0-5.78-2.86-10.93-7.49-14.33l-0.26-0.18c-2.73-1.82-5.8-2.91-9.1-2.91
		c-3.28,0-6.45,0.97-9.2,2.73c-2.4,1.34-4.63,2.95-6.84,4.56c-14.61,10.12-29.9,19.82-45.86,28c-2.24,1.15-4.53,2.36-6.86,3.55
		c1.3-2.21,2-4.74,2-7.42c0-1.47-0.23-2.84-0.52-4.27l-0.1-0.48l-0.16-0.46c-2.19-6.28-7.27-9.59-13.62-10.6l-0.55-0.09h-1.71
		c-5.24,0-9.82,2.03-13.77,5.35c-4.12,3.04-7.06,6.97-9.91,11.18c-0.28,0.42-0.97,1.59-1.48,1.78
		c-10.39,4.25-17.19,12.12-17.19,23.47c0,2.92,0.32,5.76,1.19,8.55c0.02,0.09,0.03,0.17,0.05,0.26
		c-10.45,5.83-20.85,11.71-30.95,18.12c0.11-4.31,0.31-8.61,0.31-12.92v-3.07c0-9.37-0.55-18.57-4.46-27.26
		c-3.26-7.84-9.73-14.53-18.91-14.53c-6.5,0-12.27,3.52-16.63,8.11c-0.41,0.32-0.8,0.67-1.16,1.05c-3.85-2.35-8.09-3.6-12.7-3.6
		c-5.03,0-9.83,1.35-14.26,3.71c-5.66,3.02-10.53,7.1-14.88,11.77c-15.71,16.83-26.79,36.59-33.96,58.43
		c-1.8,5.48-3.04,11.18-3.04,16.97v0.18l0.21,4.18l0.02,0.17c1.21,12.33,9.33,21.91,22.19,21.91c3.68,0,7.28-0.87,10.68-2.23
		c5.94-2.51,10.53-6.34,15.07-10.62c6.26-5.91,11.75-12.44,17.04-19.2c1.36,0.38,2.77,0.61,4.19,0.61c1.66,0,3.28-0.28,4.82-0.81
		c-19.57,16.47-36.67,35.2-51.65,55.68c-2.18-1-4.22-0.32-7.03-0.73c-4.34-0.64-3.96,2.19-8.14-0.43c-0.5-0.32-5.81,0.23-6.24,0.26
		c-4.18,0.22-3.82,0.21-8.41-2.82c-10.96-7.25-7.78-8.07-8.7-12.58c-1.71-0.63-2.28-0.38-4.16-2.09c-5.25-4.82-2.73-4.69-2.8-10.41
		c-0.26-4.94,1.61-3.41,3.42-7.84l-14.85,0.15c0.27-1.01-8.62-2.03-10.4-1.51c-3.27,0.95-9.2,0.45-12.59-0.42
		c-2.3-0.59-1.11,2.02-3.5,0.09c-0.75-0.6-3.49-0.68-6.29-3.19c-7.32-6.55-1.53-9.95-4.01-10.94c-1.85-0.74-5.11-3.09-7.01-4.31
		c-1.3-1.34-1.27-9.09,2.85-12.98c4.54-4.28,4.73-0.46,5-6.15c3.61-0.21,13.35-3.48,13.42-3.81c-0.57-3.18-1.36-2.56-1.69-5.16
		c-1.03-7.71-0.96-4.5-5.95-6.29c-1.09-0.39-1.83-2.64-3.03-4.11c-1.19-1.45,1.97-6.59,0.5-7.47c-6.56-3.9-4.16-7.46-6.14-9.61
		c-2.3-2.49-5.48-5.18-7.97-7.57c0.17-0.99,0.64-0.94,1.25-2.19c-2.34-8.8,6.12-10.29,8.09-14.17c0.68-1.34-0.1-0.48,1.55-1
		c1.9-0.6,3.63-1.49,5.61-2.06c3.44-0.87,5.08-1.21,8.3-3.48c-5.86-8.74-2.69-13.53,3.3-18.55c1.22-1.02,2.63-3.18,2.65-3.19
		c0.03-0.02,2.53-0.75,3.4-1.38c0.98-0.71,5.86-1.98,7.52-2.76c7.98-3.7,3.94-2.5,6.09-5.81c2.02-0.95,8.24-0.76,11.52-1.6
		c3.54-0.91,16.46-0.39,16.32-3.16c-0.09-1.85,10.91,0.07,9.35-3.72c-0.49-1.19,3.79-1.38,4.36-1.44
		c11.22-1.2,15.76-2.19,27.67-1.45c5.53,0.35,11.34-0.96,17.03-0.9l5.93-0.29c4.16-0.12,10.28,0.28,13.83-0.26
		c5.29-0.57,11.98-0.16,17.39,0.02c4.38,0.14,7.38,1.75,12.01,1.32c3.54-0.33,4.67-0.36,8.11-0.05c0.75,0.07,2.69-1.25,4.59-1.31
		c1.16-0.03,2.77-0.76,4.51-0.82c6.25-0.22,11.29,1.07,17.96,0.18c5.34-0.72,6.89-0.6,12.19,0.07c5.66,0.72,9.22-1.51,14.6-1.14
		c8.09,0.55,14.07,2.51,22.28,0.9c7.59-1.49,11.14,0.13,18.11,0.08c2.75-0.02,6.62-1,9.08-0.44c3.28,0.76,12.16,0.45,15.95,0.51
		c6.02,0.1,12,0.62,17.99,0.12c6.05-0.51,13.12,0.39,19.44,0.31c8.37-0.1,16.74,0.35,25.11,0.71c2.73,0.12,7.85,1.63,10.15,0.16
		c0.78-0.49,0.81,0.35,2.23,0.07l16.91,0.44c5.78,0.37,11.42-0.78,17.4-0.51c7.2,0.32,12.26,1.81,19.59,0.81
		c2.32-0.31,13.92-0.76,15.92-0.2c4.54,1.27,7.4-0.08,11.88,0.32c4.5,0.4,9.27,1.18,13.71,0.28c7.88-1.59,19.3,1.22,27.93,0.96
		c5.18-0.09,9.51,0.15,14.78-0.27c1.93-0.15,10.83-1.26,12.02,0.44c0.62,0.88,10.04-0.42,11.73-0.46
		c13.51-0.26,26.98,0.04,40.47-0.12c4.89-0.06,7.73-0.42,12.76,0.4c3.72,0.61,7.86-0.18,11.64-0.33c0.37,0,7.05,0.5,6.35-1.03
		c17.61,2.73,22.66-0.62,35.27,1.39c3.58,0.59,0.84-0.42,6.02-0.3c10.5,0.25,2.94-1.5,19.32-0.42c7.31,0.49,16.84-0.11,24.35-0.39
		c7.33,0.1,14.61,0.22,21.94,0.19c2.79-0.01,5.4,0.64,8.54,0.57c7.69,0.07,3.99,1.92,10.22,3.66c4.75,1.33,9.34,1.5,13.88,2.69
		c-0.21,3.55,2.53,3.9,4.68,4.51c7.21,1.82,8.06-0.17,15.41,4.71c3.85,2.55,4.6-0.09,5.1,6.28c-1.31,0.43-5.08,1.91-2.98,4.95
		c1.71,1.74,3.94-0.02,2.25,3.88c-3.15,7.26-13.3,2.4,1.56,9.55c2.23,1.08,5.66,1.39,6.39,4.45c0.38,1.6,2.63,2.65,0.74,3.35
		c-0.31,0.12-3.68-0.58-4.5,1.91c-0.77,2.36,5.68,3.56,1.28,9.15c-2.95,3.74-8.04,0.98-8.39,4.41c-0.36,3.61,6.03-0.8,3.73,3.94
		c-0.89,1.83-1.11,0.62-2.91,0.51c-2.15,0.05-15.79,2.57-16.45,4.52c-0.94,2.8,0.06,2.19-3.95,1.77c-3.29-0.35-5.81-0.92-8.98-0.28
		c-3.6,0.73-15.71-0.45-19.8-0.71c-4.01-0.26-4.76-0.17-8.17,2.04c-7.21,4.22,2.09,3.8,5.28,7.26c0.58,0.09,0.8,0.1,0.84,0.1
		c-0.06,0-0.48,0.03-0.4,0.44c4.49-0.11,2.64,1.07,6.28,2.28c4.49,1.49,4.87,2.12,9.26,2.05c3.1,0.01,3.61,0.35,6.49,1.72
		c-0.3,3.37-0.71,2.75,3.59,3.48c7.14,1.18,9.07,1.7,15.78,6.49c5.04,3.6,2.42,5.14,4.1,6.09c1.13,0.64-3.57,1.41-3.31,3.76
		c0.94,4.56,2.59,5.28-2.34,9.09c-2.7,2.09-8.44,0.79-4.14,3.52c1.36,0.87,3.69,2.48,0.97,4.09c-1.36,0.81-1.63-1.05-4.81,1
		c-1.09,0.71-4.89-1.63-7.41,1.1c6.33,6.47-1.68,6.57-1.21,10.14c0.29,2.21,5.09-0.14,4.28,5.7c-2.82,4-9.02,4.82-12.81,4.96
		c-0.94,0.03-8.31,0.55-7.96,2.29c0.34,1.72-2.45,0.05-2.8,1.98c-0.63,3.61-9.62,2.96-11.69,3.05c-1.84,5.83-4.61,3.88,0.65,4.07
		c2.07,0.08,4.91,2.82,7.15,4.09c5.72,3.24,3.84,4.15,5.75,5.82c0.35,0.31,1.23,0.64,0.93,1.99c-0.01,0.05-9.07-1.2-4.72,3.94
		c2.52,2.97,1.44,5.16-0.81,7.66c-1.83,1.34-4.65,0.71-6.73,0.99c-0.91,6.33,2.26,1.69,3.81,3.83c1.47,2.03-1.73,3.91-3.75,3.42
		c-4.27-1.05-9.21,0.26-13.43,1.74c-3.02,1.07-0.85,2.68-4.26,3.38c-2.37,0.49-1.46,0.72-4.36,0.43c-4.82-0.35-7.5,0.47-12.59-0.65
		c-2.7-0.59-6.06,0.33-9.23,0.03c-3.77-0.35-4.44,1.49-8.12,2.75c-0.59,0.2-5.93,2.69-6.42,3.34c-0.71,0.93-0.25,0.64-2.28,0.58
		c-5.54-0.37-7.73-1.86-13.82-1.25c-7.19,0.72-14.28-0.7-21.57-0.91c-6.39-0.18-13.29,0.02-19.6-1.07
		c-10.13-1.75-20.56,0.65-30.74-1.37C609.2,485.49,578.32,486.24,561.55,484.27L561.55,484.27z M185.01,480.03
		c-1.17-0.09-2.28-0.25-3.28-0.48c-1.58-0.37-3.79-0.31-6.6-1.11c5.01-6.96,10.32-13.71,15.93-20.24
		C189.25,465.54,187.27,472.83,185.01,480.03L185.01,480.03z"/>
	<path class="st1" d="M440.32,486.08l-1.22-0.02l-3.73-0.34l-11.25-0.18c0.57-1.11,1.3-2.21,1.94-3.83c2.2-5.58,2.96-7.5,2.13-12.28
		c-3.31-1.41-6.59-2.39-10.75-1.41c-0.15,0.03-0.31,0.09-0.46,0.13l-3.95,1.19c-1.27,0.39-3.72,1-4.85,1.51l-0.79,0.45
		c-5.63,2.91-12.17-0.98-19.49,4.53c-0.45,4.8,0.6,6.3,7.77,8.59l0.45,0.14c-3.37-0.01-6.73,0.04-9.82,0.09
		c-5.74,0.1-9.09-0.44-13.85-0.23c-4.12,0.22-7.52,0.55-11.16,0.63c-1.25-5.05,2.49-10.09,3.68-12.63c0.62-1.32,1.19-2.58,1.75-3.79
		c4.1-1.58,7.46-4.6,9.94-8.68l0.1-0.17c1.51-2.65,2.71-5.44,3.77-8.29l7.11-0.35c11.5,0.16,5.46,0.45,12.85-1.9
		c0.17-0.06,0.35-0.09,0.52-0.15c2.74-0.91,5.27-2.42,7.29-4.41l0.96-0.95c3.7-2.99,9.34-4.03,14.88-3.48
		c2.25,0.93,4.72,1.53,7.39,1.73c5.22,2.01,9.29,5.56,9.88,10.21l1.02,27.49C442.25,481.12,441.33,483.95,440.32,486.08
		L440.32,486.08z M380.62,451.21c0.23-0.17,0.21-0.21,0.06-0.17L380.62,451.21L380.62,451.21z M354.72,484.9
		c-3.37-0.21-5.94,0.68-9.65,0.42c-4.57-0.32-9.16,0.7-13.89,0.78l-1.23,0.02c0.96-0.42,1.98-0.91,3.08-1.49
		c5.64-2.97,2.17-8.93,1.6-9.51c-3.07-3.16-10.31-7.05-16.02-7.77c-2.27-0.28-2.35-0.67-4.29-1.27l-0.03-3.03
		c5.71-3.61,19.34-2.94,25.83,1.35l5,3.42c0.16,0.11,0.62,0.41,0.78,0.52c1.01,0.7,2.47,1.67,3.34,2.34
		c1.8,1.38,2.82,3.71,4.48,5.92c1.37,1.84,1.86,2.64,1.64,5.68C355.28,483.43,355.01,484.29,354.72,484.9L354.72,484.9z
		 M281.28,485.45c-1.38-0.35-2.95-1-5.32-2.31c-5.77-3.19-8.6-0.71-14.06-1.29c-11.07-1.17-18.4-1.1-27.62-0.83
		c0.51-0.42,1.09-0.88,1.77-1.38c2.97-2.2,5.33-1.73,9.36-3.91c0.52-0.28,0.59-0.35,1.32-0.67c5.28-2.3,16.99-0.05,20.24-2.25
		c2.1-1.42,0.55-0.01,1.58-2.16c2.7-5.67,2.98-11.39,3.27-16.31c4.32,4.06,9.87,6.52,16.12,6.52c1.34,0,2.67-0.11,3.97-0.33
		c-0.07,0.66-0.12,1.46-0.15,2.5c-0.09,3.66-0.15,4.14-1.19,6.59c-0.87,2.05-1.27,3.97-2.19,6.16l-4.55,6.92
		C283.05,483.55,282.2,484.49,281.28,485.45L281.28,485.45z M229.9,438.54l0.58-0.21c5.1-1.63,18.3-0.62,23.47,0.06
		c1.39,2.49,0.74,0.73,2,2.62c0.27,2.58,0.51,5.13-0.56,7.52l-1.58,2.34c-3.27,3.94-4.75,8.16-10.69,8.46
		c-2.62,0.13-4.89-0.36-7.32,0.33l-6.03,2.19c-1.4,1.11-1.11,4.3-4.88,9.92c-0.86,1.28-1.84,1.87-3.01,2.71
		C225.22,462.72,227.89,450.74,229.9,438.54L229.9,438.54z M130.53,471.36c-3.15-0.04-3.21,2.03-6.98-0.33
		c-0.5-0.32-5.81,0.23-6.24,0.26c-4.18,0.22-3.82,0.21-8.41-2.82c-10.96-7.25-7.78-8.07-8.7-12.58c-1.71-0.63-2.28-0.38-4.16-2.09
		l-0.67-0.63l21.37-10.2c1.67-0.72,3.15-1.64,4.52-2.69c3.84,5.21,9.75,8.49,17.28,8.49c1.64,0,3.27-0.17,4.87-0.49l-13.9,13.1
		c-3.36,3.02-4.94,1.63-6.92,5.79c2.11,0.37,3.07,1.02,4.9,2.11L130.53,471.36L130.53,471.36z M173.77,431.58
		c-1.15-0.78-2.68-0.95-4.39-0.74c4.24-4.49,8.15-9.25,11.97-14.13c1.36,0.38,2.77,0.61,4.19,0.61c1.66,0,3.28-0.28,4.82-0.81
		C184.62,421.34,179.09,426.37,173.77,431.58L173.77,431.58z M56.11,434.4c-0.21-0.11-0.47-0.29-0.79-0.55
		c-0.75-0.6-3.49-0.68-6.29-3.19c-1.67-1.5-2.66-2.83-3.22-4.01L56.11,434.4L56.11,434.4z M45.97,366.97
		c-2.6-2.9-1.46-5.45-3.01-7.14c-2.3-2.49-5.48-5.18-7.97-7.57c0.17-0.99,0.64-0.94,1.25-2.19c-1.12-4.21,0.23-6.74,2.16-8.67
		c1.95,4.04,2.51,7.64,4.32,11.14l1.05,2.73C44.75,358.06,45.61,362.46,45.97,366.97L45.97,366.97z M53.48,332.34
		c2.23-0.59,3.79-1.19,6.32-2.97c-5.01-7.47-3.42-12.05,0.88-16.36c1.72,0.66,3.88-0.08,7.1-1.57l2.41-1.42
		c3.58-1.99,3.92-1.15,5.42-4.88c0.12-0.3,0.44-1.18,0.53-1.42c0.2-0.08,0.38-0.15,0.53-0.22c7.98-3.7,3.94-2.5,6.09-5.81
		c2.02-0.95,8.24-0.76,11.52-1.6c0.6-0.15,1.46-0.26,2.47-0.36c1.4,6.5-1.13,14.43-5.46,18.66c-2.23,2.18-7.56,3.74-9.6,5.85
		l-1.74,2.07c-4.18,4.57-1.49-0.92-5.56,7.95c-0.08,0.18-0.56,1.19-0.62,1.29c-0.44,0.69-1.21,1.37-1.89,1.82
		C68.41,335.67,58.8,335.15,53.48,332.34L53.48,332.34z M145.08,286.06c2.04,0.01,4.29,0.09,6.89,0.25
		c2.08,0.13,4.19,0.03,6.32-0.15c-2.5,1.86-4.97,3.41-9.73,2.09C147.15,287.86,146.07,287.06,145.08,286.06L145.08,286.06z
		 M193.81,284.59c4.12-0.06,8.54,0.18,12.33,0.3c4.38,0.14,7.38,1.75,12.01,1.32c1.22-0.11,2.15-0.19,2.98-0.23l2.8,3.82
		c0.06,0.12,0.14,0.28,0.2,0.39l4.56,13.28c3.92,4.76,8.79,3.05,7.02,10.2c-1.38,5.55-3.51,6.03-4.75,7.37
		c-2.25,2.44,0.08,1.4-3.06,3.41c-2.92,1.87-4.19,3.24-6.35,3.74c-2.43-1.38-5.18-2.21-8.26-2.3c-0.56-1.03-1.09-2.06-1.44-2.62
		c-0.58-4.07-1.47-1.04-1.52-7.33c-0.03-4.48,0.49-5.66-2.59-8.24l-1.08-0.85c-1.66-1.44-3.19-4.48-8.35-5.16l-3.59,5.62
		c-0.36,0.78-0.14-0.2-0.55,1.35c-0.8,3.04,0.21,8.71-3.43,11.87c-2.06,1.79-0.83-1.16-1.88,2.03c-7.99,1.13-10.28-0.7-16.83,2.35
		c-0.96,0.45-0.04,0.12-1.42,0.63c-4.83,1.75-6.29,3.39-8.12,1.79c-0.99-1.75-2.52-6.94-2.67-9.47c-0.54-8.85,3.88-7.65,11.2-13.09
		c2.73-2.03,3.28-0.75,6-3l0.66-0.63c3.25-2.71,4.36-1.43,10.88-8.98c4.04-4.66,2.47-4.1,4.92-7.27L193.81,284.59L193.81,284.59z
		 M265.54,284.28c5.64,0.71,9.2-1.52,14.57-1.14c8.09,0.55,14.07,2.51,22.28,0.9c7.59-1.49,11.14,0.13,18.11,0.08
		c2.75-0.02,6.62-1,9.08-0.44c3.28,0.76,12.16,0.45,15.95,0.51c0.75,0.01,1.51,0.03,2.26,0.06c0.95,6.19-0.28,13.1-3.47,17.81
		c-3.94,5.81,0.24,1.76-5.53,8.5L337.7,312c-1.04,1.23-0.13,0.47-1.31,1.3c-3.32,2.34-5.67,0.88-8.69,0.36
		c-1.05-0.65-1.35-0.75-2.15-1.44c-1.96-1.68-0.27-0.12-1.57-1.72c-3.14-3.88-0.35-4.21-3.89-7.53l-7.35-4.95
		c-6.78-3.36-13.38-8.98-22.02-4.22l-13.44,9.68c-3.63,3.32-4.04,4.62-3.41,7.99c8.95,4.39,16.68,1.77,26.15,1.53
		c3.33-0.08,4.11-0.35,6.38,1.05c0.82,0.5,1.22,0.78,1.34,0.92l-0.18,0l0-0.15c-2.84-1.11-1.04-0.16-0.17,0.16
		c-5.03,0.13-9.45,2.13-13.28,5.34c-4.12,3.04-7.06,6.97-9.91,11.18c-0.28,0.42-0.97,1.59-1.48,1.78c-3.56,1.45-6.69,3.33-9.28,5.63
		c-2.76,0.08-6.77,0.2-8.91-0.44c-6.6-1.99-11.91-2.59-14.41-5.83l-1.11-1.49c-1.61-2.08-2.15-2.67-2.78-5.6
		c-0.69-3.21-1.51-5.43-1.53-8.96c-0.01-2.96,1.61-9.59,3.72-11.86c0.12-0.14,0.54-0.48,0.69-0.59c9.36-7.73,5.27-6.83,9.84-12.55
		l2.38-2.75C262.66,287.13,264.06,285.63,265.54,284.28L265.54,284.28z M364.26,284.26c5.88-0.38,12.63,0.44,18.7,0.37
		c8.37-0.1,16.74,0.35,25.11,0.71c2.73,0.12,7.85,1.63,10.15,0.16c0.78-0.49,0.81,0.35,2.23,0.07l16.09,0.41
		c-1.16,1.25-2.26,2.84-3.33,5.35c-0.7,1.65-0.28,0.49-0.61,1.2c-1.41,3.09-0.51,5.24-3.73,10.29l-8.28,9.02
		c-1.41,1.28-0.73,0.7-2.35,1.45c-3.48,1.6-6.81,2.66-10.07,3.09c-0.15-5.59-2.98-10.56-7.48-13.86l-0.26-0.18
		c-2.73-1.82-5.8-2.91-9.1-2.91c-3.12,0-6.13,0.87-8.79,2.47c-1.65-6.23,2.43-11.73,1.47-16.2
		C381.37,285.32,370.2,286.01,364.26,284.26L364.26,284.26z M465.39,286.47c2.8,0.23,5.65,0.28,8.96-0.17
		c1.17-0.16,4.69-0.35,8.15-0.43c3.36,1.61,3.48,0.82,6.39,4.24l0.97,1.04c0.1,0.1,0.26,0.21,0.36,0.3c0.1,0.09,0.26,0.2,0.37,0.28
		l3.04,3.28c0.12,0.14,0.45,0.55,0.56,0.69c3.48,4.41,2.84,8.9,2.26,15.8c-0.31,3.77-1.68,6.24-2.64,9.42
		c-3.01,10.1-1,12.75-2.73,16.01l-1.14,1.97c-0.4,0.84-0.02,0.57-0.62,1.59l-3.84-0.03c-2.96-4.25-1.39-4.19-4.52-6.51
		c-3.04-2.25-3-3.86-4-7.71c-1.24-4.76-1.57,1.98-1.92-9.68c-0.15-5.01-0.27-5.59-1.71-9.4c-2.85,0.04-3.36,0.63-4.55,2.92
		c-0.09,0.17-0.33,0.69-0.41,0.87l-0.98,5.58c-0.08,11.17,0.97,9.34,1.43,14.09c0.25,2.62-0.3,2.66,0.88,4.96
		c1.59,3.11,2.15,13.76-0.35,16.63l-2.47,3.13l-5.07-0.13c-1.58-2.2,0.17-1.24-2.33-3.7c-2.96-2.9-3.68-6.59-6.25-9.71l-0.26-0.33
		c0.38-2.41,0.65-4.85,0.65-7.4v-1.33l-0.01-0.18c-0.23-4.54-1.77-8.7-4.3-12l0-2.1c-0.07-19.47,2.65-15.34,7.43-23.62
		c1.27-2.2,0.29-1.67,2.46-3.92L465.39,286.47L465.39,286.47z M509.41,287.07c2.19,0.11,4.36,0.06,6.46-0.36
		c7.88-1.59,19.3,1.22,27.93,0.96c5.18-0.09,9.51,0.15,14.78-0.27l2.06-0.19l-10.52,4.5c-6.09,0.4-13.79,0.38-19.91,0.12
		c-3.76-0.16-5.13-1.08-8.91-1.29c-3.35-0.2-2.95-0.04-5.29-1.23L509.41,287.07L509.41,287.07z M589.14,287.29
		c8.84-0.07,17.67,0.04,26.5,0.01c-0.81,0.56-1.51,1.17-2.22,1.77c-0.13,2.35-0.42,5.27,0.48,7.23l1.37,2.35
		c0.61,1.29,0.63,1.79,1.37,3.18c0.61,1.16,0.79,1.37,1.75,2.19c12.27,10.41,15.48-1.46,23.15,3.52
		c2.42,1.58,10.32,12.98,17.55,6.14l18.41-18.07c0.1-0.1,0.24-0.22,0.33-0.32l3.94-6.8c0.43-0.71,0.75-1.14,1-1.42
		c1.86,0.08,3.83,0.27,6.05,0.62c3.58,0.59,0.84-0.42,6.02-0.3c9.77,0.23,3.91-1.26,16.23-0.6c-0.79,0.55-1.59,1.04-2.12,1.23
		l-9.12,3.8c-2.64,1.34-1.51,1.12-3.02,2.69c-2.1,2.18-4.53,6.26-6.4,7.6c-1.88,1.34-2.73,0.95-4.99,1.34
		c-1.24,0.21-1.83,0.34-2.56,0.57c-0.75,0.23-0.85,0.3-1.5,0.56l-0.96,0.49c0.33,2.69,0.57,2.31,1.82,4.09
		c1.52,2.16,1.25,1.7,1.18,4.86c-1.65,1.31-0.7,0.19-2.03,2.08c-0.54,0.77-1.24,1.81-1.77,2.69c-1.28,2.15-0.68,0.79-1.08,3.56
		c-0.35,2.47-1.33,3.82-2.17,6.03c-0.3,0.8-0.76,1.95-1.33,3.27c-0.72,1.68-1.81,3.66-2.72,5.46l-0.68,1.25
		c-1.49,2.27-2.89,4.8-4.41,7.24c-1.27,0.6-2.48,1.33-3.64,2.16c-4.86-4.25-10.48-7.1-17-7.1c-4.89,0-9.6,1.8-13.82,4.2l-0.51-0.5
		c-1.45-2.64-3.48-3.56-5.3-5.57c-1.8-1.99-3.46-2.76-5.11-5.09c-2.9-4.07-3.87-8.28-6.96-12.27c-1.84-2.38-3.44-5.62-6.24-7.85
		l-2.66-2.42c-3.61-4.11-7.92-4.43-10.81-10.89l-0.66-1.29c-1.8-3.1-4.26-5.18-5.07-8.87C589.29,289.37,589.19,288.37,589.14,287.29
		L589.14,287.29z M720.66,287.16c5.94-0.01,12.43-0.37,17.87-0.57c3.44,0.05,6.87,0.1,10.3,0.14c-0.24,0.97-0.12,1.92-0.11,2.99
		l1.49,1.3c0.94,0.92-0.26,0.07,1.26,1.26c1.23,0.96,2.39,1,4.52,1.32l3.37,1.12c1.33,0.68-0.16-0.09,0.82,0.44l8.42,4.98
		c10.11,7.01,13.77,0.61,16.31-1.98l3.29-2.46c0.77-0.78,1.25-1.71,1.56-2.72c1.12,0.2,2.23,0.43,3.34,0.72
		c-0.21,3.55,2.53,3.9,4.68,4.51c3.11,0.78,5.03,0.86,6.8,1.09c-0.58,3.08-0.21,2.9-0.79,5.72c-0.6,2.95,0.02,0.47-0.71,1.8
		l-8.14,14.79c-2.04,2.21,0.43,0.58-3.34,1.85l-15.7,2.8c-2.63,0.68-0.55,0.22-1.85,0.68c-4.76,1.68-13.66,1.11-19.32,0.7
		c-1.99-0.6,0.21-0.44-2.97-2.22l-5.88-3.23c-3.31-2.24-8.96-1.5-11.96-3.99l-1.43-1.75c-1.78-3.13-2.96-6.74-5.35-9.4l-2.33-2.8
		c-1.55-1.27-3.93-1.66-5.09-3.21l-1.7-3.63c-1.19-5.91,0.89-5.63,2.37-9.39C720.51,287.78,720.59,287.49,720.66,287.16
		L720.66,287.16z M817.98,315.45c0.31,0.33,0.27,0.98-0.42,2.56c-0.99,2.28-2.68,3.37-4.06,4l0.08-0.26L817.98,315.45L817.98,315.45
		z M812.63,324.35c1.19,0.67,3.25,1.66,6.49,3.22c2.23,1.08,5.66,1.39,6.39,4.45c0.38,1.6,2.63,2.65,0.74,3.35
		c-0.31,0.12-3.68-0.58-4.5,1.91c-0.77,2.36,5.68,3.56,1.28,9.15c-2.95,3.74-8.04,0.98-8.39,4.41c-0.36,3.61,6.03-0.8,3.73,3.94
		c-0.89,1.83-1.11,0.62-2.91,0.51c-2.15,0.05-15.79,2.57-16.45,4.52c-0.75,2.22-0.27,2.3-2.05,2.03c-0.27-1.23-0.76-2.37-1.58-3.37
		c-2.1-2.53-8.19-5.14-5.68-12.1c0.54-1.49,0.36-0.68,1.6-2.09l15.04-13.77c2.01-1.66,2.97-1.51,4.88-4.07
		C811.46,326.12,812.19,325.05,812.63,324.35L812.63,324.35z M757.21,363.21c-2.4,1.6-2.06,2.45-0.67,3.18
		c-0.22,0.74-0.48,1.52-0.79,2.36l-2.56,4.13c0.24-0.99,0.38-2.01,0.38-3.1c0-4.73-2.4-8.69-6.51-10.97l-0.27-0.14
		c-1.71-0.86-3.74-1.32-5.65-1.32c-5.18,0-9.19,3.01-11.7,7.4c-0.59,0.98-1.2,1.95-1.82,2.93c-0.95-0.14-1.94-0.27-2.93-0.46
		c-8.45-1.62-2.65-6.54-7.92-9.44c-6.51-3.59-11.55,2.36-11.91,3.59c-1.26,4.26,0.93,6.68,1.43,7.48
		c7.07,11.22,0.23,16.29,3.02,20.66c0.13,0.21,0.29,0.41,0.46,0.59c-2.72,3-5.48,5.97-8.28,8.89l-6.39-1.71
		c-2.27-1.11,1.04,0.88-1.06-0.76l-0.66-0.6c-0.11-0.08-0.25-0.21-0.37-0.29c-2.02-1.39-3.76-1.31-5.96-2.41
		c-0.12-0.06-1.43-0.91-1.53-0.99c-1.03-0.73-0.31-0.32-1.1-0.81l-3.7-1.89c2.52-6.73,5.28-13.37,8.2-19.91
		c1.22-2.73,1.96-5.64,1.96-8.64c0-5.51-2.42-10.3-6.87-13.53c-1.08-0.83-2.22-1.54-3.41-2.1c0.59-2.31,1.66-3.76,3.57-7.25
		c1.41-2.57,6.13-4.03,8.6-5.42l0.81-0.51c2.62-1.63,2.89-1.2,7.46-1.19c0.87,0,2.99-0.04,3.75,0.08c2.29,0.35,4.39,3.28,15.46,1.54
		c5.19-0.81-0.07-1.13,5.03-1.74c1.86-0.22,5.2-0.23,7.12-0.18c1.45,0.05,2.21,0.05,3.35,0.48l6.32,3.9
		c7.36,7.48,0.95,0.68,5.58,8.51l5.77,8.25C755.34,354.96,757.88,357.68,757.21,363.21L757.21,363.21z M802.48,406.08
		c-2.84,1.14-6.64,0.48-2.92,2.85c1.36,0.87,3.69,2.48,0.97,4.09c-1.36,0.81-1.63-1.05-4.81,1c-1.09,0.71-4.89-1.63-7.41,1.1
		l0.45,0.48c-2.42,0.92-4.91,1.48-7.68-1.25c-0.06-0.06-1.33-1.56-1.5-1.68l-4.13-1.64c-2.17-0.52-3.44-0.42-5.61-0.1
		c-0.5,7.05-2.63,10.75-8.52,14.54l-2.22,1.71c-0.87,1.32-0.6,2.16-0.51,3.89c4.43,3.49,4.67,2.08,14.1,2.19
		c1.57,0.02,2.02-0.03,3.19,0.42l4.69,2.1c-0.71,0.07-1.39,0.11-2,0.13c-0.94,0.03-8.31,0.55-7.96,2.29
		c0.34,1.72-2.45,0.05-2.8,1.98c-0.63,3.61-9.62,2.96-11.69,3.05c-1.84,5.83-4.61,3.88,0.65,4.07c2.07,0.08,4.91,2.82,7.15,4.09
		c5.72,3.24,3.84,4.15,5.75,5.82c0.35,0.31,1.23,0.64,0.93,1.99c-0.01,0.05-9.07-1.2-4.72,3.94c0.27,0.32,0.5,0.64,0.7,0.94
		l-0.73,0.5c-0.1,0.08-0.26,0.19-0.36,0.26c-4.21,3.19-10.36,5.77-11.97,6.6c-3.03,1.57-8.9,1.67-11.6-0.07
		c-4.11-2.66-5.53-3.76-8.31-8.32c-1.15-1.9-1.68-3.84-1.31-6.44c0.53-3.67,0.29-1.29,1.36-3.08c0.2-0.34,1.23-2.63,1.23-2.63
		c2.6-7.15-1.29-8.54-5.39-11.88c-2.82-2.3-5.94-3.32-8.84-5.22l-5.7-2.64c5.13-6.42,10.13-12.94,14.97-19.56
		c0.67-0.1-0.09,0.28,0.97-0.53c0.1-0.08,0.24-0.21,0.33-0.3c0.09-0.09,0.2-0.25,0.28-0.35c1.44-1.89,0.64-2,2.36-3.99
		c1.49-1.72,2.31-3.38,3.4-5.14l1.65-2.39c0.31-0.39,0.64-0.79,1.02-1.2c2.74-3.01,2.38-2.71,6.15-4.65
		c0.13-0.07,0.3-0.15,0.42-0.23c7.9-4.41,2.32-1.21,9.96-4.11c3.02-1.15,5.9-0.71,8.83-2.1l0.85-0.41
		c7.14-2.97,18.89-5.19,26.12,0.37l3.93,3.7c0.13,0.14,0.47,0.58,0.6,0.72c1.58,1.8,4.15,3.42,4.89,5.82
		C802.95,400.81,801,403.52,802.48,406.08L802.48,406.08z M717.65,483.98c-1.03,0.06-2.07,0.09-3.09,0
		c-3.77-0.35-4.44,1.49-8.12,2.75c-0.19,0.06-0.83,0.35-1.64,0.73l0.89-0.63c1.15-0.81-0.1,0.24,1.31-1.13
		C709.5,483.27,713.72,483.13,717.65,483.98L717.65,483.98z M597.54,485.75c-9.52-0.08-21.9-0.25-31.52-1.04
		c0.49-0.62,0.93-1.24,1.31-1.88c1.49-2.53,0.7-1.14,0.42-6.35c-0.09-1.73,0-4.75,0.27-6.44c0.25-1.54,0.2-2.05,1.78-3.25
		c0.11-0.08,0.28-0.18,0.39-0.26c0.11-0.08,0.28-0.17,0.4-0.25c2.19-1.39,3.33-3.07,8.28-2.19c3.13,0.55,1.49,0.49,2.49,0.87
		c4.99,1.89,15.49,2.62,21.5,4.3c0.15,0.04,1.93,0.78,2.17,0.91c1.04,0.54,0.08-0.03,1.18,0.69l9.07,4.97l-0.2,5.76
		c-1.88,0.98-1.72-0.07-3.27,1.54C605.8,484.16,602.46,483.68,597.54,485.75L597.54,485.75z M522.33,420.16l-0.52-0.04l-0.14,0.39
		l-4.79,13.33c3.71,2.44,7.09,3.46,10.79,5.52c2.79,1.55,7.07,2.99,8.21,6.58c0.73,2.31,0.31,4.18-0.28,6.43l-9.05,3.13
		c-0.13,0.06-0.28,0.16-0.42,0.22c-1.79,0.71-4.23,0.52-6.18,0.39c-4.01-0.26-3.3-1.03-4.74-1.61c-1.4-0.56-3.23-1.08-5.3-1.52
		c-1.39,3.43-2.9,6.64-5.32,9.64c-3.63,4.5-8.5,7.04-14.33,7.04c-1.29,0-2.47-0.06-3.74-0.3c-7.55-1.25-13.01-5.95-15.29-13.31
		c-1-3.23-1.05-6.15-1.17-9.31c-2.54-5.06-1.62-9.44-1.09-19.53l1.55-1.49c0.13-1.74,0.29-3.48,0.46-5.22
		c-0.86,0.87-1.72,1.73-2.58,2.6c-5.32,5.32-11.13,9.97-17.62,13.69c6.03,12.4,3.28,10.29,3.54,28.8
		c0.2,14.36,12.69,12.72,18.92,15.35c2.29,0.97,0.89,0.88,4.49,1.07c1.91,0.1,3.89,0.19,5.8,0.26c17.02,0.64,7.48-2.1,14.69-2.11
		c6.64-0.01-0.46,4.26,24.96,3.38l15.16-1.59c3.98-0.83,0.57-0.76,4.12-1.44c9.5-1.84,7.31-2.52,11.26-6.14
		c1.25-1.15,2.14-1.62,3.05-2.68l2.94-3.54c2.62-2.65,1.91-2.38,3.98-6.8c0.06-0.12,0.15-0.28,0.2-0.4
		c1.02-2.41,0.82-6.94,0.69-9.49l-0.36-2.77c-0.04-0.14-0.12-0.3-0.16-0.43l-2.39-4.46c-0.5-0.81-0.95-1.52-1.38-2.14
		c-9.34-1.17-15.98-7.39-19.52-15.66C535.3,423.11,527.69,420.37,522.33,420.16L522.33,420.16z M665.79,472.77
		c-4.79,3.15-9.4,2.73-14.6,0.39c-2.2-0.99-3.9-2.22-4.66-3.79c-5.52-3.53-9.56-9.21-11.54-16.13l-0.06-0.23
		c-1.09-4.36-1.75-8.92-1.75-13.41c0-2.21,0.19-4.4,0.45-6.62c-0.55,0.15-1.11,0.36-1.71,0.67l-4.83,2.87
		c-5.38,4.02,1.76,0.8-9.49,5.94l-2.67,1.74c-2.17,2.08-2.03,4.84-0.37,7.49l1.43,2.37c0.5,1.07,0.95,2.43,1.49,3.59
		c1.3,2.8,0.9,3.13,3.41,4.26l6.78,2.1c1.16,0.37,0.95,0.27,1.88,0.73c3.95,1.93,9.65,4.08,12.27,6.9c4.39,4.73,1.43,4.67,7.43,9.84
		c5.29,4.57,19.54,2.76,26.47,5c2.68,0.87,13.17,1.65,17.53-1.15c2.52-1.62,4.31-5.12,5.76-7.66c0.07-0.13,0.16-0.29,0.24-0.41
		c0.07-0.12,0.17-0.29,0.24-0.41c0.1-0.16,0.42-0.61,0.54-0.75c0.09-0.11,0.21-0.25,0.3-0.35c0.09-0.1,0.22-0.24,0.32-0.33
		l11.12-17.03c0.09-0.17,0.4-0.58,0.49-0.74c2.82-5.29-1.93-8.2-5.83-10.9c-1.37-0.95-2.15-1.53-2.63-1.94
		c-1.64,1.95-3.29,3.89-4.95,5.82c-5.25,5.88-11.09,11.25-17.69,15.59l-0.24,0.15c-3.29,1.97-6.54,3.88-10.21,5.05
		C669.12,471.97,667.47,472.44,665.79,472.77L665.79,472.77z M674.36,424.78c-0.26-0.38-0.57-0.79-0.96-1.24
		c-0.71-0.82-1.48-1.52-2.3-2.09c-0.52,2.35-0.94,4.71-1.21,7.09c0.36-0.29,0.73-0.59,1.1-0.88
		C672.12,426.71,673.25,425.75,674.36,424.78L674.36,424.78z M575.65,381.02c1.97-0.1,4.21,0.52,6.82,2.25l4.32,2.82
		c1.24,0.93,1.9,2.22,2.53,3.59c5.37-5.23,10.56-10.66,15.67-16.11c1.64-1.75,3.21-3.56,4.78-5.36c1.76-2.65,3.64-5.22,5.63-7.69
		c-6.35,0.36-11.31,3.74-14.15,2.55l-3.05-3.17c-4.54-4.6-10.73-3.93-15.88-5.81c-0.49-0.18-1-0.32-1.52-0.44
		c-1.27,6.1-2.71,12.15-3.73,18.29C576.62,374.97,576.13,377.99,575.65,381.02L575.65,381.02z M533.5,391.87l3.62,5.37
		c0.23,0.51,0.41,0.96,0.57,1.36c0.21-3.91,0.58-7.82,0.99-11.72c0.22-2.1,0.46-4.19,0.72-6.28
		C537.3,384.29,535.34,388.05,533.5,391.87L533.5,391.87z M583.2,435.17c4.72,1.46,14.91,2.26,21.06-0.44
		c-3.61-2.15-6.43-5.35-8.31-9.22C592.01,429.14,587.77,432.38,583.2,435.17L583.2,435.17z M552.21,303.34
		c0.38,1.86,0.57,0.86,1.16,3.52c6.85,0.67,8.17,2.85,12.52,6.24c2.84,0.19,5.48,0.99,7.82,2.39c6.87,3.85,9.95,10.4,9.95,18.06
		v0.27l-0.21,2.76c-0.23,3-0.61,5.96-1.09,8.89c4.52,0.41,9.35,0.37,11.82-1.42c1.32-0.95,1.6-1.45,2.83-4.16l1.53-3.7
		c0.91-2.94,0.65-9.56-0.45-11.97c-0.07-0.15-0.16-0.3-0.23-0.44l-7.82-8.72c-0.56-0.36-1.36-0.84-2.01-1.22
		c-1.39-0.83-2.92-1.73-4.28-2.67l-7.28-4.83c-2.42-1.41-2.38-2.02-5.8-3.25c-4.35-1.56-7.96-1.71-12.95-1.48
		C552.62,301.83,553.95,303.13,552.21,303.34L552.21,303.34z M542.63,324.29c-1.2-0.19-2.15-0.56-4.02-1.96l0.1-3.84
		c2.29-0.83,2.22,0.15,4.76-1.39l1.87-1.34c1.96-1.66,0.94,0.02,1.66-2.37c-4.4-3.89-29.49-2.26-36.95,0.97
		c-4.63,2-3.78,1.19-6.01,3.54l-2.37,2.05c-0.24,0.19-1.15,0.98-1.3,1.21c-1.32,1.88-1.16,5.17-0.94,7.68
		c1.85-0.91,3.93-1.41,6.19-1.41h0.39l2.5,0.28l0.37,0.08c6.89,1.53,11.15,7.56,11.47,14.43l0.01,0.17v0.17
		c0,0.97-0.05,1.95-0.15,2.92c0.48,1.02,0.95,2.04,1.65,2.97c3.89-5.37,8-10.57,12.41-15.56
		C536.93,329.87,539.69,326.98,542.63,324.29L542.63,324.29z M478.79,369.55c-0.44-0.19-0.83-0.24-1.46-0.52l-0.24-5.12
		c-3.19-2.64-4.05-2.53-9.3-1.68l-4.26,2.11c-0.11,0.08-0.26,0.2-0.37,0.28l-3.72,2.57c-3.37,2.4-3.19,2.97-4.9,6.19l-0.93,1.54
		c-0.25,0.46-0.29,0.16-0.59,1.29c-1.07,4.09,3.28,10.69,4.5,11.85c0.36,0.34,1.12,0.86,2.07,1.44
		c5.12-5.05,10.09-10.24,15.06-15.41C476.06,372.61,477.43,371.09,478.79,369.55L478.79,369.55z M340.05,434.77
		c-1.16-0.69-2.08-1.56-2.68-2.69c-1.49-2.81-1.83-5.15-3.91-8.12l-0.57-0.73c-5.45-7.14-1.15-1.74-5.02-5.34
		c-0.09-0.08-0.22-0.23-0.31-0.32c-0.09-0.09-0.2-0.24-0.29-0.33c-0.09-0.1-0.2-0.25-0.29-0.35c-0.8-0.85-1.34-1.24-1.71-1.5
		c-1.39,6.35-3.46,12.53-6.08,18.58l1.47,1.4c2.79,2.77,6.96,5.4,10.43,6.96c4.52,2.03,1.03,1.15,6.23,2.82
		c1.36,0.44,0.71,0.55,2.76,0.98c-0.02-1.33-0.03-2.67-0.11-4.02l-0.01-0.21v-0.21C339.95,439.39,339.98,437.08,340.05,434.77
		L340.05,434.77z M325.9,412.25c6.63-0.41,11.5,0.24,15.8-0.33c0.7-6.37,1.58-12.73,2.58-19.07c-4.83,0.58-11.44,2.47-15.58,4.29
		l-1.45,0.42C327.23,402.56,326.76,407.45,325.9,412.25L325.9,412.25z M387.71,431.47c4.57-0.03,7.63,0.33,12.07-1.65l0.84-0.41
		c1.52-0.71,2.6-0.92,3.59-2.11c0.09-0.1,0.2-0.25,0.28-0.37l2.58-7.41c0.19-3.5-0.54-2.46-0.77-3.12
		c-0.85-2.43-0.14-2.11-1.78-6.21c-2.37-5.93-0.97-3.04-4.49-7.48c-0.35-0.44-0.66-0.82-0.95-1.16c-2.68,6.22-5.13,12.55-7.43,18.96
		L387.71,431.47L387.71,431.47z M409.21,327.75c-1.16-0.02-2.31,0.05-3.41,0.22c-0.5,1.43-1.04,2.84-1.61,4.23l-0.1,0.24l-0.12,0.23
		c-0.25,0.51-0.51,1.02-0.77,1.52c0.16-0.19,0.32-0.38,0.49-0.57C405.48,331.61,407.32,329.64,409.21,327.75L409.21,327.75z
		 M405.53,387.8c0.12,0.5,0.25,0.95,0.39,1.33l1.7,8.13c0.31-3.87,0.78-7.72,1.22-11.59c0.2-1.75,0.42-3.49,0.67-5.23
		C408.13,382.87,406.81,385.32,405.53,387.8L405.53,387.8z M451.7,397.01c-0.67-3.66-2.05-7.43-3.45-9.89l-2.69-5.18
		c-0.5,3.16-0.97,6.33-1.4,9.5c-0.5,3.69-0.7,7.45-0.7,11.17l0.07,1.52C446.32,401.84,449.04,399.46,451.7,397.01L451.7,397.01z
		 M340.25,376.79c0.61-4.46,1.59-4.27,1.59-9.66c0-1.49,0-2.84,0.05-4.11c-5.75,3.67-11.46,7.33-17.6,10.2
		c-0.04,0.02-0.08,0.04-0.13,0.06c0.02,0.1,0.04,0.19,0.06,0.28c0.26,1.3,0.54,2.61,0.81,3.91l8.27,1.66
		C338.32,379.47,337.13,377.2,340.25,376.79L340.25,376.79z M360.66,316.51c-0.79-0.5-1.57-0.79-3.13,0.08
		c-7.73,4.31-6.76,1.76-14.65,5.71c-1.79,0.9-4.08,0.55-6.23,2.85c-0.68,0.73-1.46,1.95-1.96,3.02c-0.65,1.39-1.07,2.96-2.05,4.87
		C342.23,327.98,351.57,322.39,360.66,316.51L360.66,316.51z M260.92,359.96v2.66c0.17,0.13,0.55,0.58,0.67,0.69
		c1.58,1.58,3.16,2.17,4.72,2.49l0.47-0.26c-0.02-0.08-0.03-0.17-0.05-0.26c-0.71-2.28-1.06-4.6-1.16-6.97
		C260.52,358.48,263.81,358.84,260.92,359.96L260.92,359.96z M256.05,371.58c0.35-3.08-1.23-6.17-1.55-8.49
		c-4.45-0.45,2.24-0.01-7.19-3.46c-6.04-2.21-3.93-0.81-8.72,0.42c-0.71,0.18-1.62,0.46-2.59,0.8c0.1,2.26,0.14,4.53,0.14,6.81v3.07
		c0,4.31-0.2,8.62-0.31,12.92C242.46,379.45,249.23,375.47,256.05,371.58L256.05,371.58z M237.15,416.82
		c3.46,0.96,7.07,1.57,9.15,1.45c1.22-0.07,9.24-1.61,13.68-3.06c0.02-4.84,0.36-9.64,0.93-14.42c-5.2,3.48-10.47,6.85-15.96,9.88
		C241.64,412.51,239.11,414.53,237.15,416.82L237.15,416.82z M80.1,383.12c-0.72,2.94-1.25,3.96-0.19,7.05
		c2.94,8.53,10.45,5.89,16.35,2.79c4.79-2.51,0.32-1.11,9.39-3.49c2.99-0.78,7.35-1.68,10.5-0.93c9.67,2.32,3.82,14.67-1.45,18.36
		c-2.96,2.06-0.78,1.84-6.09,4.1c-5.95,2.53-28.82,1.23-36.2,0.64c-0.19-5.97,4.52-9.19,0.46-12.44c-8.49-6.79-6.58-4.57-10.58-3.7
		c-3.09,1.62,0.7,0.23-4.94,3.27c-3.28,1.77-7.99,4.85-7.98,8.62c0.02,5.45,2.99,3.24,4.91,5.88l6.99,8.42
		c1.85,2.01,0.11,0.67,2.08,1.83c0.02,0.01,2.9,1.28,2.95,1.29c1.83,0.6,5.48,1.55,7.25,1.67c8.95,0.6,29.52-1.01,38.99-3.12
		l3.6-1.04v-0.01c0-5.79,1.24-11.49,3.04-16.97c3.95-12.02,9.08-23.42,15.53-34.04c-1.88-3.55-3.9-6.99-11.9-6.44
		c-6.17,0.42-11.52,5.73-12.92,6.51c-0.17,0.09-0.69,0.33-0.88,0.42l-0.91,0.41c-8.7,3.76-7.38,1.73-14.72,2.44
		c-2.96,0.29-1.86,0.3-3.54,1.06C84.02,378.31,83.16,377.51,80.1,383.12L80.1,383.12z M116.13,313.15c2.11,1.15,1.69,1.1,4.2,2.13
		l3.84,1.9c0.1,0.08,0.24,0.21,0.34,0.29c0.1,0.08,0.24,0.21,0.35,0.29s0.25,0.2,0.36,0.28l2.48,1.34c4.5,2.58,2.08,4.7,1,6.27
		c-3.62,5.26-0.67-0.14-3.43,5.51c-1.08,2.21-7.14,6.08-7.3,6.23c-3.26,3.1-11.68,3.81-13.99,0.61c-1.36-1.89-1.27-4.68,0.41-6.64
		c1.56-1.82,3.18-2.15,5.01-4.59c1.98-2.66,2.5-2.57,1.71-7.01c-5.63-0.15-12.31,2.63-15.9,6.93l-2.81,2.92
		c-2.55,3.56,0.41,2.48-4.92,5.27c-4.19,2.19-6.66,5.15-10.33,7.93c-0.62,4.96-0.93,5.54,2.6,7.91c3.73,2.5,3.69,1.83,8.47,3.04
		c4.06,1.03-1.03,1.3,9.02,1.88c3.93,0.23,7.1,0.98,10.19,1.09c5.18,0.19,16.06-0.35,20.86-1.4c1.3-0.28,0.82-0.16,1.83-0.69
		l1.58-1.03c1.55-1.28,1.56-2.68,3.23-5.08l10.18-9.61c0.95-1.11,1.39-1.84,2.64-3.2c2.25-2.46,5.46-12.21,2.57-17.19
		c-0.91-1.57-1.04-2.03-2.72-3.07c-5.14-3.16-2.83,0.54-10.94-5.64l-1.54-1.04c-0.11-0.07-1.75-1.13-1.97-1.23
		c-3.34-1.62-5.94,0.04-8.69,1.08c-3.32,1.25-7.07,0.52-9.71,1.56C114.33,313.52,113.85,312.58,116.13,313.15L116.13,313.15z"/>
	<path class="st2" d="M424.11,485.55l-13.03-0.21c-4.41-0.59-9.71-0.77-14.97-0.78l-0.45-0.14c-7.17-2.29-8.22-3.79-7.77-8.59
		c7.32-5.5,13.86-1.61,19.49-4.53l0.79-0.45c1.12-0.51,3.58-1.12,4.85-1.51l3.95-1.19c0.15-0.04,0.31-0.1,0.46-0.13
		c4.16-0.99,7.45-0.01,10.75,1.41c0.84,4.78,0.07,6.7-2.13,12.28C425.41,483.33,424.69,484.43,424.11,485.55L424.11,485.55z
		 M329.95,486.12c-11.78,0.17-23.59,0.17-35.37,0.43c-2.37,0.05-2.4,0.35-4.89-0.01c0.16-0.29,0.32-0.55,0.46-0.77l3.84-5.66
		c2.79-4.63,0.28-0.58,4.46-4.51l13.32-7.89c2.6-0.93,2.49,0.24,2.55-1.65c1.94,0.61,2.01,0.99,4.29,1.27
		c5.71,0.72,12.94,4.62,16.02,7.77c0.57,0.58,4.04,6.54-1.6,9.51C331.93,485.21,330.91,485.7,329.95,486.12L329.95,486.12z
		 M234.28,481.02c-2.83,0.08-5.83,0.18-9.18,0.27c-1.92,0-3.53-0.27-5.1-0.44c0.65-2.12,1.28-4.25,1.89-6.38
		c1.17-0.84,2.15-1.43,3.01-2.71c3.77-5.62,3.47-8.8,4.88-9.92l6.03-2.19c2.43-0.69,4.7-0.2,7.32-0.33
		c5.93-0.3,7.41-4.53,10.69-8.46l1.58-2.34c1.07-2.39,0.83-4.94,0.56-7.52c3.09,0.9,5.22,0.51,7.75,0.55
		c0.86,2.27,1.93,4.49,3.23,6.66c1.38,2.29,3.02,4.35,4.9,6.12c-0.29,4.92-0.57,10.65-3.27,16.31c-1.02,2.15,0.53,0.74-1.58,2.16
		c-3.26,2.2-14.97-0.04-20.24,2.25c-0.73,0.32-0.8,0.39-1.32,0.67c-4.03,2.18-6.39,1.71-9.36,3.91
		C235.38,480.14,234.79,480.6,234.28,481.02L234.28,481.02z M138.71,472.2c-2.18-1-4.22-0.32-7.03-0.73
		c-0.43-0.06-0.81-0.09-1.16-0.1l-3.03-2.08c-1.83-1.09-2.8-1.74-4.9-2.11c1.98-4.17,3.57-2.77,6.92-5.79l13.9-13.1
		c1.98-0.39,3.93-0.99,5.81-1.75c5.94-2.51,10.53-6.34,15.07-10.62c1.74-1.65,3.43-3.34,5.07-5.08c1.71-0.21,3.24-0.04,4.39,0.74
		C160.94,444.12,149.3,457.72,138.71,472.2L138.71,472.2z M60.68,313.01c0.73-0.73,1.54-1.46,2.41-2.19
		c1.22-1.02,2.63-3.18,2.65-3.19c0.03-0.02,2.53-0.75,3.4-1.38c0.89-0.64,5-1.76,6.99-2.53c-0.09,0.24-0.41,1.11-0.53,1.42
		c-1.5,3.73-1.84,2.89-5.42,4.88l-2.41,1.42C64.55,312.92,62.4,313.67,60.68,313.01L60.68,313.01z M615.64,287.31
		c2.38-0.01,4.77-0.02,7.15-0.05c4.89-0.06,7.73-0.42,12.76,0.4c3.72,0.61,7.86-0.18,11.64-0.33c0.37,0,7.05,0.5,6.35-1.03
		c14.52,2.25,20.5,0.37,29.22,0.76c-0.25,0.28-0.58,0.71-1,1.42l-3.94,6.8c-0.09,0.1-0.23,0.23-0.33,0.32l-18.41,18.07
		c-7.23,6.84-15.13-4.56-17.55-6.14c-7.67-4.98-10.88,6.89-23.15-3.52c-0.96-0.82-1.14-1.03-1.75-2.19
		c-0.74-1.39-0.76-1.89-1.37-3.18l-1.37-2.35c-0.9-1.95-0.61-4.87-0.48-7.23C614.14,288.48,614.83,287.87,615.64,287.31
		L615.64,287.31z M748.83,286.73c3.88,0.04,7.75,0.07,11.64,0.05c2.79-0.01,5.4,0.64,8.54,0.57c7.69,0.07,3.99,1.92,10.22,3.66
		c3.59,1,7.08,1.35,10.53,1.97c-0.3,1.01-0.78,1.94-1.56,2.72l-3.29,2.46c-2.55,2.59-6.2,8.99-16.31,1.98l-8.42-4.98
		c-0.98-0.53,0.51,0.24-0.82-0.44l-3.37-1.12c-2.13-0.33-3.29-0.37-4.52-1.32c-1.53-1.19-0.32-0.34-1.26-1.26l-1.49-1.3
		C748.72,288.65,748.59,287.69,748.83,286.73L748.83,286.73z M788.77,415.6c5.48,6-2.12,6.19-1.65,9.66
		c0.29,2.21,5.09-0.14,4.28,5.7c-2.37,3.35-7.11,4.47-10.81,4.83l-4.69-2.1c-1.17-0.46-1.63-0.4-3.19-0.42
		c-9.43-0.11-9.68,1.29-14.1-2.19c-0.09-1.73-0.36-2.57,0.51-3.89l2.22-1.71c5.89-3.79,8.02-7.49,8.52-14.54
		c2.17-0.32,3.44-0.42,5.61,0.1l4.13,1.64c0.16,0.12,1.44,1.62,1.5,1.68C783.86,417.08,786.35,416.52,788.77,415.6L788.77,415.6z
		 M611.72,486.01c-1.63-0.19-7.12-0.2-14.18-0.26c4.92-2.06,8.26-1.58,14.27-2.62c-0.13,0.17-0.57,1-0.6,1.16L611.72,486.01
		L611.72,486.01z M469.71,335.61c0.58,1.12,1.02,3.24,1.23,5.61c0.72,0.14,1.39,0.28,2,0.42c2.65,0.65,4.01,1.44,4.99,1.39
		c0.98-0.05,1.6-0.94,2.46-2.09c0.83-1.11,1.9-2.45,3.22-3.72c-0.57-1.27-0.65-1.79-2.65-3.27c-3.04-2.25-3-3.86-4-7.71
		c-1.24-4.76-1.57,1.98-1.92-9.68c-0.15-5.01-0.27-5.59-1.71-9.4c-2.85,0.04-3.36,0.63-4.55,2.92c-0.09,0.17-0.33,0.69-0.41,0.87
		l-0.98,5.58c-0.08,11.17,0.97,9.34,1.43,14.09C469.08,333.26,468.53,333.31,469.71,335.61L469.71,335.61z M188.87,322.57
		l22.98,0.71c-0.58-4.07-1.47-1.04-1.52-7.33c-0.03-4.48,0.49-5.66-2.59-8.24l-1.08-0.85c-1.66-1.44-3.19-4.48-8.35-5.16l-3.59,5.62
		c-0.36,0.78-0.14-0.2-0.55,1.35c-0.8,3.04,0.21,8.71-3.43,11.87C188.68,322.33,189.92,319.38,188.87,322.57L188.87,322.57z
		 M467.78,362.23c5.25-0.85,6.12-0.96,9.3,1.68l0.24,5.12c0.63,0.27,1.02,0.33,1.46,0.52c0.98-1.11,1.96-2.23,2.94-3.35
		c0.91-3.26,1.89-6.51,2.91-9.74c-2.49,0.05-4.93,0.32-6.97,0.99l-4.49,2.42C470.28,362.57,470.04,360.76,467.78,362.23
		L467.78,362.23z M111.12,319.76c0.78,4.44,0.27,4.35-1.71,7.01c-1.83,2.45-3.45,2.78-5.01,4.59c-1.68,1.96-1.77,4.75-0.41,6.64
		c2.31,3.2,10.72,2.49,13.99-0.61c0.16-0.15,6.22-4.02,7.3-6.23c2.76-5.65-0.19-0.25,3.43-5.51c1.08-1.56,3.5-3.69-1-6.27
		l-2.48-1.34c-0.11-0.08-0.25-0.2-0.36-0.28s-0.24-0.21-0.35-0.29c-0.1-0.08-0.24-0.21-0.34-0.29l-3.84-1.9
		c-2.51-1.03-2.09-0.98-4.2-2.13C114.83,316.65,113.09,315.48,111.12,319.76L111.12,319.76z M340.25,376.79
		c2.01-0.14,4.65-0.02,6.94-0.12c1.45-6.82,3.19-13.56,5.27-20.2c-0.73,0.47-1.47,0.93-2.22,1.37c-2.83,1.68-5.59,3.43-8.35,5.19
		c-0.06,1.27-0.06,2.62-0.05,4.11C341.85,372.52,340.86,372.33,340.25,376.79L340.25,376.79z M254.49,363.09
		c0.32,2.32,1.9,5.41,1.55,8.49c3.41-1.95,6.83-3.86,10.26-5.78c-1.55-0.32-3.14-0.91-4.72-2.49c-0.12-0.12-0.5-0.56-0.67-0.69
		v-2.66c-3.28,1.02-0.48,0.41-2.84,1.74C257.4,362.08,255.2,362.9,254.49,363.09L254.49,363.09z M727.61,367.66
		c-0.95-0.14-1.94-0.27-2.93-0.46c-8.45-1.62-2.65-6.54-7.92-9.44c-6.51-3.59-11.55,2.36-11.91,3.59c-1.26,4.26,0.93,6.68,1.43,7.48
		c7.07,11.22,0.23,16.29,3.02,20.66c0.13,0.21,0.29,0.41,0.46,0.59c2.57-2.84,5.11-5.71,7.62-8.61
		C721.15,377.09,724.55,372.44,727.61,367.66L727.61,367.66z M319.77,319.41c1.9,0.15,4.2,0.16,5.7-0.55
		c0.81-0.38,1.3-0.94,2.01-1.63c0.78-0.76,0.07-0.17,0.98-0.97l0.79-0.64c0.1-0.08,0.29-0.21,0.43-0.32l-1.13-1.19
		c-0.1-0.08-0.67-0.34-0.85-0.45c-1.05-0.65-1.35-0.75-2.15-1.44c-1.96-1.68-0.27-0.12-1.57-1.72c-3.14-3.88-0.35-4.21-3.89-7.53
		l-7.35-4.95c-6.78-3.36-13.38-8.98-22.02-4.22l-13.44,9.68c-3.63,3.32-4.04,4.62-3.41,7.99c8.95,4.39,16.68,1.77,26.15,1.53
		c3.33-0.08,4.11-0.35,6.38,1.05c0.82,0.5,1.22,0.78,1.34,0.92l0.15,0h1.71l0.55,0.09C313.92,315.64,317.24,317.05,319.77,319.41
		L319.77,319.41z M307.4,314.96c-0.87-0.32-2.67-1.27,0.17-0.16l0,0.15L307.4,314.96L307.4,314.96z M62.28,395.5
		c3.99-0.87,2.09-3.1,10.58,3.7c4.06,3.25-0.65,6.47-0.46,12.44c7.39,0.59,30.26,1.89,36.2-0.64c5.31-2.26,3.13-2.03,6.09-4.1
		c5.27-3.69,11.12-16.04,1.45-18.36c-3.15-0.75-7.51,0.14-10.5,0.93c-9.07,2.38-4.6,0.98-9.39,3.49c-5.9,3.09-13.41,5.74-16.35-2.79
		c-1.06-3.09-0.53-4.11,0.19-7.05c-1.74,1.08-1,1.77-1.58,4.45l-9.3,3.96C64.81,394.42,63.28,393.11,62.28,395.5L62.28,395.5z
		 M341.69,411.91c-4.3,0.57-9.17-0.07-15.8,0.33c-0.19,1.05-0.4,2.1-0.62,3.14c0.36,0.26,0.91,0.65,1.71,1.5
		c0.09,0.1,0.2,0.25,0.29,0.35c0.09,0.09,0.2,0.24,0.29,0.33c0.09,0.09,0.21,0.23,0.31,0.32c3.88,3.61-0.43-1.8,5.02,5.34l0.57,0.73
		c2.09,2.98,2.42,5.31,3.91,8.12c0.6,1.13,1.52,2,2.68,2.69C340.28,427.13,340.86,419.51,341.69,411.91L341.69,411.91z
		 M646.53,469.36c0.76,1.57,2.46,2.81,4.66,3.79c5.2,2.33,9.81,2.76,14.6-0.39c-1.79,0.35-3.62,0.55-5.4,0.55
		C655.17,473.32,650.47,471.89,646.53,469.36L646.53,469.36z M589.31,389.69c-0.63-1.37-1.29-2.66-2.53-3.59l-4.32-2.82
		c-2.61-1.73-4.84-2.35-6.82-2.25c-1.12,7.11-2.15,14.27-2.16,21.43l0.05,1.44C579.02,399.41,584.25,394.64,589.31,389.69
		L589.31,389.69z M522.33,420.16c-0.01-0.28-0.11-0.51-0.29-0.69l-0.23,0.65L522.33,420.16L522.33,420.16z M470.54,425.73
		l-1.55,1.49c-0.53,10.1-1.45,14.47,1.09,19.53c-0.03-0.64-0.05-1.29-0.09-1.95l-0.01-0.21v-4.43
		C469.98,435.34,470.18,430.53,470.54,425.73L470.54,425.73z M509.92,453c2.06,0.44,3.9,0.96,5.3,1.52
		c1.44,0.57,0.73,1.34,4.74,1.61c1.95,0.13,4.4,0.32,6.18-0.39c0.14-0.05,0.29-0.16,0.42-0.22l9.05-3.13
		c0.58-2.25,1.01-4.12,0.28-6.43c-1.14-3.59-5.42-5.03-8.21-6.58c-3.71-2.06-7.09-3.09-10.79-5.52l-6.02,16.76
		C510.55,451.41,510.24,452.21,509.92,453L509.92,453z"/>
</g>
</svg>
