<?xml version="1.0" encoding="utf-8"?>
<!-- Generator: Adobe Illustrator 25.0.0, SVG Export Plug-In . SVG Version: 6.00 Build 0)  -->
<svg version="1.1" id="Layer_1" xmlns="http://www.w3.org/2000/svg" xmlns:xlink="http://www.w3.org/1999/xlink" x="0px" y="0px"
	 viewBox="0 0 864 864" style="enable-background:new 0 0 864 864;" xml:space="preserve">
<style type="text/css">
	.st0{fill:#2E3445;}
</style>
<g>
	<path class="st0" d="M270.22,292.68c-4.91,0-8.87,3.97-8.87,8.87v52.61c0,4.8,3.97,8.87,8.87,8.87c4.91,0,8.87-4.07,8.87-8.87
		v-52.61C279.09,296.64,275.12,292.68,270.22,292.68L270.22,292.68z M303.07,294.56c-1.88-4.07-6.58-5.85-10.65-4.07
		c-3.97,1.88-5.74,6.58-3.97,10.65c0.21,0.42,0.52,1.25,0.21,1.88c-2.91,5.6,1.25,11.69,6.99,11.69
		C304.25,314.7,306.81,302.86,303.07,294.56L303.07,294.56z M368.7,293.62c-3.76-1.15-7.83,0.42-10.02,3.76l-14.72,23.7l-14.72-23.7
		c-4.64-7.45-16.39-4.12-16.39,4.7v51.04c0,4.91,3.97,8.87,8.87,8.87s8.87-3.97,8.87-8.87v-20.04l5.85,9.39
		c1.84,2.99,4.61,4.18,7.83,4.18h0.94c0.18-0.18,3.83-0.13,6.26-4.18l5.95-9.39v20.04c0,4.91,3.97,8.87,8.87,8.87
		c4.91,0,8.87-3.97,8.87-8.87v-51.04C375.17,298.11,372.45,294.66,368.7,293.62L368.7,293.62z M441.94,340.8
		c0,2.3-1.88,4.07-4.07,4.07h-9.71v-8.04h9.71c0.1,0,0.21-0.1,0.31-0.1C440.27,336.94,441.94,338.71,441.94,340.8L441.94,340.8z
		 M459.69,315.02c0-12.11-9.81-21.82-21.82-21.82h-18.58c-4.91,0-8.87,3.97-8.87,8.87v51.67c0,4.91,3.97,8.87,8.87,8.87h18.58
		c17.86,0,28.14-20.48,17.54-34.76C458.12,324.31,459.69,319.82,459.69,315.02L459.69,315.02z M438.19,318.98h-10.02v-8.04h9.71
		C443.09,310.95,443.28,318.73,438.19,318.98L438.19,318.98z M514.78,293.2c-4.91,0-8.87,3.97-8.87,8.87v32.15
		c0,5.74-4.7,10.33-10.44,10.33c-5.74,0-10.44-4.59-10.44-10.33v-32.15c0-4.91-3.97-8.87-8.87-8.87c-4.91,0-8.87,3.97-8.87,8.87
		v32.15c0,24.96,30.51,37.52,48.02,19.83c5.32-5.32,8.35-12.32,8.35-19.83v-32.15C523.65,297.17,519.58,293.2,514.78,293.2
		L514.78,293.2z M572.68,330.5c-1.95-3.66-4.17-5.5-7.41-7.53l-14.72-7.64c-0.59-0.43-0.77-2.88,0-3.65
		c2.49-2.49,6.01-3.03,7.83,0.52c2.3,4.38,7.62,6.16,12,3.86c4.28-2.19,6.05-7.52,3.86-11.9c-3.03-5.85-7.93-9.92-13.99-11.48
		c-18.3-4.83-34.39,14.61-25.47,30.81c1.81,3.28,4.22,5.89,7.41,7.53l14.72,7.74c0.61,0.32,0.74,3.01,0,3.65
		c-2.64,2.29-5.98,3.09-7.83-0.63c-2.3-4.28-7.62-6.05-12-3.86c-4.38,2.3-6.05,7.64-3.86,12.02c3.85,7.51,11.25,12.25,19.42,12.25
		c6.03,0,12.38-2.78,16.7-7.12C575.62,348.79,577.02,338.37,572.68,330.5L572.68,330.5z M630.48,294.97
		c-4.18-2.71-9.6-1.46-12.21,2.71l-10.02,15.76l-10.02-15.76c-2.61-4.18-8.14-5.43-12.32-2.71c-4.07,2.61-5.32,8.04-2.71,12.21
		l16.18,25.47v21.09c0,4.91,3.97,8.87,8.87,8.87c4.91,0,8.87-3.97,8.87-8.87v-21.09l16.08-25.47
		C635.8,303.01,634.65,297.58,630.48,294.97L630.48,294.97z"/>
	<path class="st0" d="M314.21,642.54h-36.7c-5.41,0-9.78,4.37-9.78,9.78c0,5.41,4.37,9.78,9.78,9.78h8.51v46.7
		c0,5.29,4.37,9.78,9.78,9.78c5.41,0,9.78-4.49,9.78-9.78v-46.7h8.63c5.41,0,9.78-4.37,9.78-9.78
		C323.99,646.91,319.62,642.54,314.21,642.54L314.21,642.54z M370.47,699.48c-9.43,0-17.03-8.51-17.03-18.87
		c0-10.47,7.59-18.87,17.03-18.87c9.32,0,16.91,8.4,16.91,18.87C387.38,690.97,379.78,699.48,370.47,699.48L370.47,699.48z
		 M396.46,653.7c-13.75-15.18-37.73-15.49-52.11,0c-18.25,19.65-11.55,51.84,11.62,62.23c24.32,10.91,50.96-7.91,50.96-35.32
		C406.93,670.49,403.25,660.83,396.46,653.7L396.46,653.7z M453.98,699.48h-10.7v-37.16h10.7c10.24,0,18.52,8.4,18.52,18.64
		C472.5,691.2,464.22,699.48,453.98,699.48L453.98,699.48z M489.07,666.12c-5.6-13.99-19.88-23.35-35.09-23.35h-20.48
		c-5.41,0-9.78,4.37-9.78,9.78v56.71c0,5.41,4.37,9.78,9.78,9.78h20.48c21.06,0,38.08-17,38.08-38.08
		C492.06,675.78,491.14,670.84,489.07,666.12L489.07,666.12z M566.14,706.27l-23.47-58.21c-3.17-8.15-14.95-8.08-18.06,0
		l-23.12,58.32c-2.52,6.37,2.3,13.34,9.09,13.34c3.91,0,7.59-2.3,9.09-6.21l2.19-5.64h23.93l2.3,5.75
		c1.96,4.95,7.71,7.36,12.65,5.41C565.8,716.96,568.21,711.33,566.14,706.27L566.14,706.27z M537.84,688.32h-8.17l4.03-10.24
		L537.84,688.32L537.84,688.32z M623.55,644.72c-4.6-2.99-10.58-1.61-13.46,2.99l-11.04,17.37L588,647.71
		c-2.88-4.6-8.97-5.98-13.57-2.99c-4.49,2.88-5.87,8.86-2.99,13.46l17.83,28.07v23.24c0,5.41,4.37,9.78,9.78,9.78
		c5.41,0,9.78-4.37,9.78-9.78v-23.24l17.72-28.07C629.41,653.58,628.15,647.6,623.55,644.72L623.55,644.72z"/>
	<path class="st0" d="M177.37,338.31c-3.78,0.06-6.18,1.1-9.18,2.88l-12.3,8.76c-0.6,0.3-2.66-0.57-2.96-1.52
		c-0.97-3.02,0-6.13,3.67-6.13c4.51-0.04,8.15-3.62,8.11-8.12c0-4.38-3.58-8.02-8.04-8.07c-5.99,0.03-11.33,2.31-15.11,6.57
		c-8.85,9.77-5.69,25.7,5.31,31.33c5.74,2.94,13.11,2.92,18.27-0.79l12.38-8.71c0.51-0.37,2.75,0.65,2.96,1.52
		c0.76,3.09,0.03,6.12-3.76,6.08c-4.42,0.08-8.07,3.66-8.11,8.12c0.04,4.51,3.68,8.08,8.14,8.12c12.54-0.01,21.3-10,20.04-22.62
		c-0.66-6.57-3.95-12.06-10.25-15.29C183.67,338.97,180.52,338.21,177.37,338.31L177.37,338.31z M218.01,300.76
		c-5.1,5.89-14.52,6.03-20.99,0.43c-6.54-5.66-7.67-14.94-2.57-20.83c5.04-5.82,14.39-6.02,20.93-0.35
		C221.84,285.6,223.05,294.94,218.01,300.76L218.01,300.76z M203.48,259.77c-16.92,0.38-30.08,15.18-28.18,32.54
		c3,27.52,37.56,39.08,54.92,19.04c11.12-12.83,8.68-32.33-4.27-43.55C219.63,262.31,211.6,259.39,203.48,259.77L203.48,259.77z
		 M275.64,238.45c4.87-13.46-3.42-26.88-16.49-29.09c-5.7-0.96-11.43,0.32-16.08,3.62l-11.77,8.37c-3.69,2.62-4.53,7.57-1.74,11.5
		l26.76,37.64c2.53,3.56,7.62,4.49,11.26,1.9c3.64-2.59,4.43-7.7,1.9-11.26l-6.61-9.29l1.32-0.94l16.8,7.88
		c4.19,2.02,9.01-0.16,10.72-3.78c1.85-4.12,0.21-8.89-3.83-10.8L275.64,238.45L275.64,238.45z M258.72,234.98l-5.19,3.69
		l-6.28-8.83l5.19-3.69c2.4-1.71,5.77-1.07,7.48,1.33C261.62,229.88,261.12,233.27,258.72,234.98L258.72,234.98z M331.11,207.86
		c7.37-12.27,1.82-27.04-10.58-31.71c-5.41-2.04-11.28-1.89-16.48,0.46l-13.16,5.95c-4.12,1.86-5.9,6.56-3.91,10.95L306,235.59
		c1.8,3.98,6.62,5.87,10.69,4.03c4.07-1.84,5.83-6.7,4.03-10.69l-4.7-10.39l1.47-0.67l14.97,10.96c3.72,2.79,8.88,1.58,11.25-1.64
		c2.61-3.68,1.91-8.69-1.68-11.34L331.11,207.86L331.11,207.86z M315.17,201.2l-5.8,2.62l-4.46-9.87l5.8-2.62
		c2.68-1.21,5.87,0.06,7.08,2.74C319,196.76,317.85,199.99,315.17,201.2L315.17,201.2z M389.9,151.75
		c-4.26-1.55-8.82,0.67-10.28,4.91l-5.66,16.03l-12.12-11.93c-3.17-3.17-8.33-3.15-11.48,0.11c-3.08,3.15-3.08,8.22,0.09,11.39
		l19.57,19.28l4.32,18.7c1,4.35,5.34,7.06,9.69,6.05c4.35-1,7.06-5.34,6.05-9.69l-4.32-18.7l9.04-25.88
		C396.27,157.79,394.14,153.21,389.9,151.75L389.9,151.75z M456.2,145c-4.46-0.11-8.17,3.41-8.28,7.87l-1.21,47.88
		c-0.11,4.37,3.41,8.17,7.87,8.28c4.46,0.11,8.17-3.5,8.28-7.87l1.21-47.88C464.18,148.82,460.66,145.12,456.2,145L456.2,145z
		 M555.47,203.75c-3.01-3.32-8.16-3.6-11.4-0.57c-1.86,1.7-5.2,2.38-8.14,1.54c-4.84-1.38-8.34-5.43-9.49-10.4l-0.37-5.64
		c1.12-3.95,1.59-7.08,4.84-10.08c8.13-7.53,17.92-4.14,19.66,1.73c1.16,4.28,5.69,6.75,9.97,5.6c4.31-1.25,6.78-5.78,5.51-9.99
		c-3.92-13.48-18.45-20.14-31.37-17.21c-12.03,2.76-21.68,12.76-24.08,24.97c-2.11,10.73,0.64,21.83,8.61,29.51
		c9.63,9.34,25.32,11.35,35.7,1.94C558.23,212.14,558.51,206.98,555.47,203.75L555.47,203.75z M617.5,249.6l7.16-51.35
		c1.08-7.08-7.35-11.96-12.93-7.44l-40.57,32.24c-4.43,3.52-3.85,10.5,1.01,13.3c2.8,1.61,6.38,1.48,9.07-0.71l3.89-3.14l17.13,9.85
		l-0.72,5.07c-0.64,4.35,2.49,8.45,6.84,9.08C612.85,257.11,616.9,254.07,617.5,249.6L617.5,249.6z M604.62,225.09l-5.85-3.36
		l7.1-5.67L604.62,225.09L604.62,225.09z M697.7,251.17c-3.23-3.08-8.34-2.96-11.42,0.27l-14.49,15.2l4.71-30.83
		c1.18-7.89-8.38-12.56-13.81-6.86l-32.06,33.63c-3.08,3.23-2.96,8.34,0.27,11.42c3.23,3.08,8.34,2.96,11.42-0.27l14.36-15.06
		l-4.77,30.9c-1.08,7.72,8.38,12.56,13.87,6.79l32.2-33.77C701.05,259.36,700.93,254.25,697.7,251.17L697.7,251.17z M729.15,290.66
		c2.03-3.54,0.87-7.96-2.6-10.05c-3.49-1.95-7.91-0.79-9.99,2.67c-0.2,0.38-0.65,1.05-1.28,1.15c-5.47,0.76-8.09,6.99-4.98,11.36
		C714.82,302.17,724.96,297.82,729.15,290.66L729.15,290.66z M762.43,344.98L748.61,318c-2.04-3.98-6.9-5.54-10.87-3.51
		c-3.98,2.04-5.54,6.9-3.51,10.87l3.21,6.26l-34.34,17.59c-3.89,1.99-5.54,6.9-3.51,10.87c2.04,3.98,6.98,5.5,10.87,3.51L744.8,346
		l3.25,6.34c2.04,3.97,6.9,5.54,10.87,3.51C762.89,353.81,764.46,348.95,762.43,344.98L762.43,344.98z"/>
	<path class="st0" d="M165.5,601.92c28.14-2.35,53.66-26.9,53.66-56.95c0-16.93-8.35-30.07-24.33-28.73
		c-1.19,0.1-2.38,0.2-3.82,0.56c4.05,13.02-3.34,34.14-18.84,35.44c-12.88,1.07-19.56-7.67-19.56-27.46
		c0-12.16,3.82-29.65,10.02-46.15c6.92,1.33,14.79,2.1,24.56,1.29c29.81-2.49,57.24-23.62,57.24-49.38
		c0-17.41-14.31-31.95-39.83-29.82c-25.52,2.13-47.7,19.25-64.39,42.82c-8.35-2.4-18.36-3.71-32.19-2.56
		C65.09,444.55,36,475.6,36,507.08c0,22.66,15.98,38.25,37.2,36.48c16.93-1.41,33.86-14.04,34.58-39.14
		c-8.01,5.67-20.51,1.7-20.51-11.4c0-11.92,8.11-24.53,28.38-26.22c3.34-0.28,6.92-0.1,10.73,0.3
		c-11.45,23.37-17.89,49.67-17.89,73.51C108.5,579.25,128.53,605,165.5,601.92L165.5,601.92z M185.53,457.15
		c-4.53,0.38-8.59,0.24-12.4-0.4c7.87-13.77,17.65-23.89,28.14-24.77C218.44,430.56,216.38,454.58,185.53,457.15L185.53,457.15z
		 M240.86,590.14c11.45-0.96,28.38-11.43,28.38-31.46v-2.86c-7.15,0.6-6.92-5.15-4.53-14.17l11.21-40.29
		c2.06-5.73,10.87-8.58,8.82,0.69c-0.72,3.4-1.43,6.8-1.43,9.66c0,7.63,3.34,13.31,14.79,12.36c16.93-1.41,25.76-20.51,25.76-39.59
		c0-12.88-5.01-23.43-18.6-22.3c-11.21,0.94-21.7,9.68-30.29,24.23l-0.24,0.02l3.1-11.23c1.43-6.32-0.24-10.71-6.92-10.15
		c-9.78,0.82-36.25,8.27-36.25,20.67c0,6.68,6.44,5.19,4.29,14.43l-11.69,44.86l-2.62,10C219.15,574.54,222.49,591.67,240.86,590.14
		L240.86,590.14z M336.73,582.14c12.16-1.02,23.85-10.81,34.1-31.7c-0.48,2.9-0.72,5.78-0.72,8.41c0,11.69,5.25,20.07,16.22,19.16
		c11.45-0.96,28.38-11.43,28.38-31.46v-2.86c-8.48,0.71-6.37-8.29-4.77-14.15l16.46-61.71c1.89-6.39,0.26-14.09-8.59-13.35
		c-11.92,1-21.94,8.51-27.19,16.58c-2.38-10.06-8.82-15.24-21.7-14.17c-19.32,1.61-34.1,18.83-43.88,55.89l-2.38,8.78
		C312.16,562.49,315.26,583.93,336.73,582.14L336.73,582.14z M361.29,544.08c-5.49,0.46-6.44-4.95-2.39-20.79l2.39-8.78
		c6.44-26.77,11.69-30.07,15.98-30.43c3.82-0.32,5.48,1.69,6.2,5.21l-9.06,37.24C371.78,534.61,366.54,543.64,361.29,544.08
		L361.29,544.08z M414.23,620.74c18.36-1.53,31.48-20.04,36.49-39.53l26.23-103.31l11.69-0.98c6.22-0.52,11.02-8.39,13.31-15.49
		c2.93,3,9.35,3.44,7.68,10.64l-10.73,40.96c-2.48,9.51-5.25,18.16-5.25,27.62c0,17.17,10.49,27.5,26.47,26.17
		c18.84-1.57,33.15-15.17,33.15-31.86v-2.86c-10.73,0.9-21.94-2.94-16.93-22.43l10.73-37.62l8.11-0.68
		c12.06-1.01,18.8-29.57,12.16-27.01c-5.25,2.11-8.82,3.6-13.83,4.49l7.15-25.88c1.67-6.34-0.24-10.71-7.63-10.09
		c-8.32,0.69-40.45,23.91-49.86,38.47c-0.39-1.33-1.2-1.86-2.37-1.43c-6.68,2.7-11.21,4.04-18.12,4.85l5.72-22.42
		c4.05-16.08,7.15-20.15,10.25-20.41c5.17-0.43,0.95,5.87,0.95,11.84c0,4.77,2.62,6.46,7.63,6.04
		c15.02-1.25,27.19-13.72,27.19-27.55c0-12.64-10.26-22.75-27.9-21.28c-27.19,2.27-46.5,19.38-55.57,54.24L445,458.39l-2.62,0.22
		c-9.07,0.76-14.03,24.3-6.68,23.69l3.34-0.28l-21.7,84.09c-4.05,15.36-12.16,23.43-24.8,24.49c-1.19,3.68-1.91,7.31-1.91,10.41
		C390.62,613.41,398.97,622.01,414.23,620.74L414.23,620.74z M609.55,427c14.79-1.23,25.04-12.35,25.04-27.13
		c0-11.92-8.35-19.57-20.27-18.58c-14.79,1.23-25.04,12.35-25.04,27.13C589.28,420.35,597.63,428,609.55,427L609.55,427z
		 M578.31,561.97c11.45-0.96,28.38-11.43,28.38-31.46v-2.86c-7.15,0.6-6.92-5.15-4.53-14.17l18.6-66.9
		c1.67-6.34-0.24-10.71-7.63-10.09c-9.78,0.82-41.02,8.67-41.02,21.07c0,6.68,6.44,5.19,4.29,14.43l-14.31,54.85
		C556.61,546.37,559.95,563.5,578.31,561.97L578.31,561.97z M630.78,557.59c11.45-0.96,28.38-11.43,28.38-31.46v-2.86
		c-7.15,0.6-6.92-5.15-4.53-14.17l10.97-39.55c2.62-3.8,7.15-6.08,10.97-6.4c3.82-0.32,5.49,1.69,4.29,5.84l-12.88,49.01
		c-1.67,5.62-2.38,10.93-2.38,15.7c0,11.92,5.48,20.53,18.6,19.43c11.45-0.96,28.38-11.43,28.38-31.46v-2.86
		c-7.15,0.6-6.92-5.15-4.53-14.17l10.02-38.28c1.43-5.13,2.15-10.2,2.15-15.2c0-12.64-5.49-23.15-20.27-21.92
		c-13.36,1.12-25.52,10.72-35.3,26.56l-0.48,0.04l3.58-13.18c1.43-6.32-0.24-10.71-6.92-10.15c-9.78,0.82-36.25,8.27-36.25,20.67
		c0,6.68,6.44,5.19,4.29,14.43l-14.31,54.85c-1.67,5.62-2.38,10.93-2.38,15.7C612.17,550.08,617.66,558.68,630.78,557.59
		L630.78,557.59z M818.7,420.99c-11.92,1-21.94,8.51-27.19,16.58c-2.38-10.06-8.82-15.24-21.7-14.17
		c-19.32,1.61-34.1,18.83-43.88,55.89l-2.38,8.78c-10.49,40.94-7.39,62.38,14.07,60.59c12.4-1.04,24.33-11.33,34.82-33.19
		c-9.54,32.75-20.99,45.39-36.49,46.69c-6.92,0.58-15.74-2.5-17.41-7.61c-6.2,5.05-10.49,14.95-10.49,24.49
		c0,13.59,8.35,26.25,31,24.36c26.71-2.23,49.37-24.15,65.34-82.48l18.36-69.26c4.05-15.12,5.25-19.28,5.25-21.9
		C828,424.5,825.38,420.43,818.7,420.99L818.7,420.99z M762.18,510.61c-5.49,0.46-6.44-4.95-2.39-20.79l2.39-8.78
		c6.44-26.77,11.69-30.07,15.98-30.43c3.82-0.32,5.49,1.69,6.2,5.21l-10.25,40.21C771.48,503.15,766.95,510.21,762.18,510.61
		L762.18,510.61z"/>
</g>
</svg>
