<?xml version="1.0" encoding="utf-8"?>
<!-- Generator: Adobe Illustrator 25.0.0, SVG Export Plug-In . SVG Version: 6.00 Build 0)  -->
<svg version="1.1" id="Layer_1" xmlns="http://www.w3.org/2000/svg" xmlns:xlink="http://www.w3.org/1999/xlink" x="0px" y="0px"
	 viewBox="0 0 864 864" style="enable-background:new 0 0 864 864;" xml:space="preserve">
<style type="text/css">
	.st0{fill-rule:evenodd;clip-rule:evenodd;}
</style>
<g>
	<path d="M210.52,93.95c21.44-2.17,17.75-5.35,20.06,17.54l7.8,76.36c0.9,6.76-5.01,5.51-15.41,6.56c-7.63,0.77-6.22-0.8-7.94-17.77
		l-7.85-76.93C206.78,96.57,207.33,94.26,210.52,93.95L210.52,93.95z M266.72,89.81c1.78,2.28,3.42,35.8,3.77,40.34
		c0.37,4.86-4.65,3.97-10.35,4.56c-4.42,0.46-4.47-2.5-4.69-5.42c-0.16-2.08-3.43-36.23-2.32-38.17
		C254.61,88.52,265.55,88.46,266.72,89.81L266.72,89.81z M297.18,85.65c2.89-0.12,24.23-1.9,26.88-0.08
		c3.33,2.28,23.34,62.42,26.17,63.83c2.88,1.43,4.36-7.44,5.19-10.81l13.01-46.47c3.35-12.01-0.2-9.31,30.1-10.52
		c4.5-0.18,3.81,4.52,3.96,8.38l3.46,86.5c0.28,7.12-0.2,6.13-12.54,6.62c-9.09,0.36-7.68,0.18-8.19-12.62l-2.23-48.56
		c0,0-0.83-8.09-3.7,0c-3.33,9.39-17.29,59.65-19.45,61.52c-0.95,0.82-15.17,3.53-17.23-0.52c-4.73-9.28-22.26-59.03-25.35-61.16
		c-4.48-3.09,2.28,59.22-0.05,62.95c-1.63,2.62-17.5,2.37-18.87,1.32c-2.01-1.54-1.72-14.48-1.85-17.71
		c-0.1-2.43-3.89-78.44-2.67-80.98C294.59,85.78,297.06,85.72,297.18,85.65L297.18,85.65z M501.89,81
		c40.24,0.52,42.67,29.58,40.32,32.29c-2.04,2.36-18.18,0.6-18.5,0.47c-4.04-1.65-1.61-17.55-24.87-15.64
		c-13.61,1.12-19.35,17.43-1.12,21.94l27.78,8.4c9.12,2.82,16.05,10.61,19,19.46c2.33,6.97-0.52,21.86-6.45,26.76
		c-3.16,2.61-5.26,6.19-12.84,8.81c-7.47,2.58-17.16,4.3-25.19,3.27c-14.3-1.83-26.98-4.23-35.46-18.22
		c-1.37-2.25-7.83-17.51-1.54-18.32l16.69,0.69c4.01,1.91,0.56,20.87,28.9,18.88c17.25-1.21,21.35-18.36,3.75-24.14
		c-23.46-7.7-53.65-10.87-46.36-42.63c2.83-12.31,18.36-21.38,30.55-21.67L501.89,81L501.89,81z M656.71,139.98
		c1.31,5.19-3.35,21.37-6.32,27.03c-21.89,41.65-84.38,28.88-91.53-11.14c-1.51-8.46-2.51-15.87-1-24.38
		c10.37-58.69,72.48-52.26,90.34-23.95C655.4,118.98,656.37,127.67,656.71,139.98L656.71,139.98z M634.29,144.27
		c1.79-3.64,1.11-23.64-9.81-33.32c-12.53-11.1-38.08-6.49-42.94,15.42c-2.81,12.68-2.64,9.79-1.87,22.74
		c0.48,8,6.28,18.94,15.12,22.53c17.3,7.02,32.5-0.36,38.39-20.33L634.29,144.27L634.29,144.27z"/>
	<path d="M145.23,434.05c21.37,2.84,18.5-1.1,15.47,21.7l-10.04,76.1c-0.69,6.78-6.14,4.2-16.51,2.83
		c-7.61-1.01-5.87-2.22-3.62-19.12l10.12-76.66C140.98,435.71,142.04,433.64,145.23,434.05L145.23,434.05z M260.93,445.22
		c40.18,2.22,41.38,31.35,38.92,33.96c-2.14,2.27-18.2-0.17-18.5-0.31c-3.95-1.81-0.87-17.61-24.18-16.68
		c-13.65,0.54-20.06,16.6-2.05,21.87l27.4,9.56c8.98,3.2,15.6,11.28,18.16,20.24c2.03,7.07-1.44,21.81-7.58,26.47
		c-3.29,2.5-5.52,5.96-13.2,8.26c-7.57,2.27-17.32,3.56-25.31,2.2c-14.21-2.44-26.78-5.36-34.66-19.7
		c-1.27-2.31-7.09-17.82-0.77-18.37l16.65,1.39c3.94,2.08-0.35,20.85,28.08,20.09c17.25-0.47,22.14-17.43,4.76-23.96
		c-23.1-8.69-53.14-13.12-44.51-44.55c3.34-12.18,19.25-20.58,31.44-20.36L260.93,445.22L260.93,445.22z M321.09,452.66
		c21.37,0.35,16.8-2.52,21.19,16.98l10.07,45.3c0.18,0.81,0.64,1.6,1.38,2.37c2.89,0.04,4.15-9.5,5.49-13.84l13.28-47.62
		c1.19-3.56,10.07-2.18,15.25-2.1c8.43,0.14,5.59,1.86,9.55,16.22l9.24,39.53c0.27,1.92,1.47,9.55,3.9,9.59
		c2.76-2.69,3.56-10.89,4.79-14.71c16.28-56.35,5.22-50.1,29.88-49.7c7.68,0.12,0.65,10.39-1.56,21.51l-21.09,73.37
		c-2.5,7.18-0.63,5.96-17.58,5.69c-8.74-0.14-5.97-2.65-9.69-16.22l-11.59-47.67c-3.26-4.12-5.72,12.35-6.8,15.95l-12.03,44.87
		c-0.96,2.89-4.4,2.35-6.93,2.3c-20.4-0.33-14.64,1.98-20.06-16.39L322.02,474c-0.54-3.61-5.6-18.21-4.08-20.11
		C319.02,452.53,320.85,452.77,321.09,452.66L321.09,452.66z M471.81,453.66l68.78-1.72c4.28,0.27,2.92,6.48,3.36,11.22
		c0.84,9-2.91,7.12-16.08,7.48c-0.81,0.02-33.57,0-35.93,1.83c-2.41,1.87-1.11,17.32-0.33,19.28c1.13,2.86,9.24,1.67,13.13,1.56
		c0.54-0.01,31.99-1.65,34.27-0.22c1.91,1.21,2.48,14.12,0.28,15.78c-2.79,2.1-42.39-0.06-46.21,2.75c-2.62,1.92-1.07,15.5-1,18.3
		c0.2,7.42,3.16,5.89,14.51,5.58l38.38-0.62c3.2,1.29,2.45,12.24,2.26,15.08c-0.31,4.51-9.89,3.18-16.97,3.38l-56.77,1.33
		c-4.29-0.5-3.03-9.36-3.21-16.34l-2.2-80.99C467.97,453.7,471.67,453.73,471.81,453.66L471.81,453.66z M659.94,538.83
		c2.52,7.67,4.08,6.4-14.12,7.72c-7.53,0.55-5.98-0.8-12.33-14.93c-4.02-8.93-3.31-6.59-30.69-4.63
		c-13.24,0.95-9.2,0.34-14.56,17.44c-2.76,8.79-2.01,6.05-18.05,7.64c-10.11,1-1.13-10.46,1-22.66l22.05-73.84
		c3.43-9.58,0.62-5.92,21.14-8.29c4.5-0.52,5.85,4.66,8.53,10.65L659.94,538.83L659.94,538.83z M620.88,509
		c2.8-1.31,0.82-5.74-0.28-7.82c-2.19-4.14-9.9-26.34-12.49-25.04c-2.13,1.07-5.33,14.56-5.85,16.67
		c-5.2,20.81-9.08,18.46,15.95,16.67C619.25,509.4,620.14,509.24,620.88,509L620.88,509z M655.05,442.64l70.86-8.46
		c10.43-1.25,6.97,0.99,9.35,12.98c1.01,5.06-3.89,4.97-7.58,5.42c-23.79,2.98-22.35,0.95-21.07,11.82l8.19,70.39
		c-0.04,4.09-9.86,3.82-15.71,4.53c-7.48,0.9-5.86-1.1-8.24-21.06l-7.16-57.55c-1.7-5.34-19.9,0.63-28.02,0.34
		c-3.41-0.63-3.16-7.27-3.73-12.01C651.58,445.96,651.28,443.09,655.05,442.64L655.05,442.64z"/>
	<path d="M185.44,354.26c0-8.37-30.5-8.37-30.5,0.27c0,15.92-8.37,30.5-17.27,30.5c-53.98,0-45.07-138.46-4.05-144.93
		c18.08,9.18,10.53,37.24,10.26,47.23c-0.27,5.67,19.7,11.07,22.13,4.32c9.72-26.45,0.54-72.06-34.55-72.06
		c-24.83,0-48.04,21.86-58.03,53.44c-5.13,15.92-7.56,32.39-7.56,49.66c0,32.39,9.18,61,28.34,77.73
		c9.45,8.64,21.32,12.69,35.63,12.69c24.02,0,42.1-16.46,51.28-42.37C183.01,365.59,184.36,359.92,185.44,354.26L185.44,354.26z
		 M83.69,332.13h-8.1c-3.78-27.26,4.32-63.7,20.24-80.97l6.75,4.86C88.01,270.86,83.15,303.25,83.69,332.13L83.69,332.13z
		 M304.74,373.69l-49.93-30.23c42.64-14.03,61-37.79,61-60.46c0-63.43-104.72-72.33-109.58-48.58
		c-6.75,40.75-8.91,128.47,0.27,167.34c1.89,7.56,10.79,11.34,21.86,11.34c14.84,0,21.32-7.29,17.54-14.84
		c-1.89-3.51-3.78-14.84-5.4-30.23c17,11.34,42.1,23.75,50.47,28.07C297.99,399.87,311.48,377.74,304.74,373.69L304.74,373.69z
		 M286.92,281.92c0,11.34-15.66,31.85-49.93,37.25c-1.08-24.56-1.08-49.93,0-69.63C271.54,240.36,286.92,267.62,286.92,281.92
		L286.92,281.92z M217.56,320.79h-8.1c-1.62-27.26-0.27-54.25,3.78-82.05l7.56,0.27C217.02,265.19,215.67,295.15,217.56,320.79
		L217.56,320.79z M354.4,413.09c14.84,0,21.32-7.29,17.54-14.84c-1.89-3.78-4.05-13.22-5.67-25.64l55.87-5.13
		c1.08,15.38,1.62,28.88,1.08,37.78c0,1.08,1.08,1.89,2.97,2.7c1.89,0.54,4.05,0.81,7.02,0.81c8.64,0,17.54-2.43,17.81-6.48
		c0.27-2.97,0.27-8.37,0.27-15.92c0-48.31-6.21-103.91-24.29-140.89c-8.91-18.62-21.05-27.8-36.17-27.8
		c-28.07,0-47.77,27.26-57.22,66.4c-4.86,19.7-7.29,40.21-7.29,62.08c0,20.24,2.16,38.6,6.21,55.6
		C334.42,409.32,343.33,413.09,354.4,413.09L354.4,413.09z M344.41,332.13h-8.1c0-27.26,8.1-63.7,20.24-80.97l6.75,4.86
		C351.7,271.94,343.87,306.49,344.41,332.13L344.41,332.13z M420.25,343.73l-56.14,3.78c-2.43-45.61,2.43-103.91,29.69-103.91
		c2.97,0,5.94,2.43,8.91,7.56C410,264.11,416.74,305.68,420.25,343.73L420.25,343.73z M502.3,335.36
		c17.27-2.16,29.96-3.24,43.72-3.78c7.29-1.89,6.21-23.75-3.51-25.91c-5.4-0.81-28.61,1.89-39.68,2.16
		c-0.54-17.27,4.05-49.12,5.94-52.36c3.51-1.08,16.19-1.62,22.94-1.62c8.37,0,15.65,0.54,21.86,1.89c3.24,0.27,5.4-3.78,5.4-9.18
		c0-7.56-4.05-14.57-11.88-16.73c-4.05-1.08-12.15-1.62-24.29-1.62c-8.37,0-19.97,0.27-34.28,1.08
		c-9.45,0.54-15.11,10.8-20.24,30.77c-3.24,12.15-5.67,37.25-5.94,55.33c0,15.92,1.62,40.22,4.59,53.17
		c2.16,10.8,4.32,21.05,9.18,30.77c9.45,18.08,34.55,13.77,35.09,4.86C507.97,397.17,502.3,351.29,502.3,335.36L502.3,335.36z
		 M480.44,327.54l-8.1-0.54c-0.81-26.72,1.89-54.25,9.45-81.51l7.56,1.08C482.33,272.21,479.09,302.71,480.44,327.54L480.44,327.54z
		 M659.65,222.82c-9.99-0.81-19.7-1.08-29.69-1.08c-10.8,0-31.04,0.54-60.73,1.62c-3.24,0-4.86,4.32-4.86,9.72
		c0,8.64,3.78,16.73,9.99,16.73c1.08,0,4.05,0,9.18-0.27c5.13,0,8.1,0,9.45,0.27h4.59c-5.13,44.26-5.94,118.49,2.16,153.3
		c1.89,7.56,10.8,11.33,21.86,11.33c14.84,0,21.32-7.29,17.54-14.84c-5.67-10.8-12.15-99.05-8.91-149.25h35.36
		c3.51,0,5.67-3.78,5.67-8.91C671.26,232.8,666.13,223.09,659.65,222.82L659.65,222.82z M612.42,332.94h-8.1
		c-1.62-27.26-1.35-54.25,3.78-82.05l7.56,0.27C610.8,277.34,610.53,307.29,612.42,332.94L612.42,332.94z M767.61,231.18
		c-3.24,20.51-14.57,55.06-26.45,86.64c-0.81,0.27-1.62,0.27-2.43,0.54c-18.35,0.54-31.31-41.29-33.47-78
		c0.81-14.03-28.61-15.38-28.61-1.62c-2.16,51.28,12.41,101.21,54.52,104.45c-9.45,23.21-22.13,48.04-26.18,51.82
		c-6.21,5.94-1.89,15.11,12.15,19.43c10.53,3.51,19.97,2.7,24.29-4.05c20.51-34.28,50.2-124.96,56.41-165.72
		C801.35,232.53,771.12,220.66,767.61,231.18L767.61,231.18z M708.23,305.41l-6.21,5.67c-11.34-12.42-17.54-50.2-16.73-70.71
		l7.83,0.27C692.58,264.38,699.87,296.5,708.23,305.41L708.23,305.41z"/>
	<path d="M170.57,672.74l-66.6-6.04c-8.95-1.41-8.94,25-0.76,26.01l21.19,1.39c-1.05,19.01-15.73,38.11-24.14,36.78
		c-54.25-8.54-23.39-146.28,18.86-146.3c16.72,12.08,4.69,39.1,2.84,49.09c-1.17,5.65,18.05,14.24,21.56,7.84
		c13.95-25.05,11.94-72.34-23.32-77.89C95.24,559.7,68.45,578,53.42,608.16c-7.67,15.19-12.72,31.35-15.45,48.71
		c-5.12,32.55-0.43,62.76,16.18,82.6c8.13,10.17,19.42,16.12,33.8,18.38c44.49,7,62.55-37.13,67.02-62l12.38,0.84
		C175.53,697.7,178.7,674.02,170.57,672.74L170.57,672.74z M54.38,669.18l-8.14-1.28c0.52-27.99,14.42-63.33,33.15-78.17l6.01,5.95
		C68.41,608.29,58.4,640.07,54.38,669.18L54.38,669.18z M275.37,744.94c-3.02-0.19-5.48-0.35-7.14-0.18
		c-8.22-0.52-14.25-0.9-17.86-0.31l-17.22,2.49c-3.33-34.33-2.23-121.2,5.83-157.29c0.73-11.51-34.49-11.54-35.3,1.34
		c-9.47,40.95-17.3,129.87-10.48,169.92c0.2,1.11,0.68,2.24,1.18,3.1c0.85,8.31,5.3,16.29,10.09,14.4
		c10.43-4.02,32.02-5.95,60.75-7.71c5.51-0.2,12.14-0.61,20.18-1.47c2.21-0.13,3.41-1.71,3.6-4.72
		C289.47,756.84,282.78,745.14,275.37,744.94L275.37,744.94z M210.09,680.83l-8.22-0.52c0.67-28.02,2.96-55.39,10.76-82.96
		l7.66,0.76C213.12,624.34,210.37,654.71,210.09,680.83L210.09,680.83z M311.55,598.73c-8.31,41.2-13.64,130.31-5.69,170.15
		c1.65,7.75,10.57,11.91,21.82,12.31c15.09,0.53,22.76-6.62,19.19-14.44c-5.89-12.3-7.08-127.19-1.17-170.39
		C346.11,584.83,312,585.83,311.55,598.73L311.55,598.73z M323.05,685.95l-8.24-0.01c-1.21-28.07-0.53-55.52,5.13-83.62l7.67,0.54
		C322.29,629.33,321.5,659.8,323.05,685.95L323.05,685.95z M463.08,589.62c-10.16-0.87-20.04-1.2-30.2-1.25
		c-10.98-0.05-31.58,0.39-61.79,1.34c-3.3-0.02-4.96,4.37-4.99,9.86c-0.04,8.79,3.76,17.04,10.07,17.08
		c1.1,0.01,4.12,0.02,9.34-0.23c5.22,0.03,8.24,0.04,9.61,0.32l4.67,0.02c-5.44,45.01-6.65,120.51,1.42,155.98
		c1.88,7.7,10.93,11.59,22.18,11.64c15.1,0.08,21.73-7.31,17.92-15.01c-5.71-11.01-11.85-100.84-8.3-151.89l35.97,0.18
		c3.57,0.02,5.79-3.82,5.81-9.03C474.84,599.84,469.67,589.93,463.08,589.62L463.08,589.62z M414.47,701.41l-8.24-0.04
		c-1.51-27.74-1.1-55.2,4.26-83.46l7.69,0.31C413.1,644.84,412.68,675.32,414.47,701.41L414.47,701.41z M573.57,585.63
		c-10.18-0.47-20.07-0.39-30.23-0.04c-10.98,0.39-31.54,1.66-61.69,3.81c-3.29,0.12-4.79,4.56-4.59,10.05
		c0.31,8.78,4.44,16.88,10.75,16.66c1.1-0.04,4.12-0.15,9.32-0.6c5.22-0.18,8.23-0.29,9.61-0.06l4.67-0.16
		c-3.64,45.19-1.81,120.68,7.66,155.8c2.19,7.62,11.38,11.14,22.63,10.75c15.09-0.53,21.42-8.17,17.31-15.72
		c-6.15-10.77-15.88-100.28-14.38-151.44l35.95-1.26c3.57-0.12,5.63-4.04,5.45-9.26C585.72,595.37,580.16,585.67,573.57,585.63
		L573.57,585.63z M529.47,699.28l-8.23,0.29c-2.62-27.66-3.31-55.11,0.92-83.56l7.69,0C525.84,642.8,526.63,673.27,529.47,699.28
		L529.47,699.28z M637.86,694.82c17.36-3.48,30.16-5.52,44.08-7.1c7.25-2.46,4.53-24.56-5.49-26.03c-5.54-0.42-28.89,4.05-40.1,5.15
		c-1.84-17.48,0.44-50.14,2.12-53.57c3.48-1.36,16.31-2.85,23.16-3.36c8.49-0.62,15.92-0.62,22.32,0.29
		c3.31,0.03,5.2-4.24,4.79-9.71c-0.56-7.67-5.2-14.49-13.3-16.09c-4.19-0.79-12.45-0.74-24.77,0.17c-8.49,0.62-20.25,1.76-34.7,3.65
		c-9.54,1.25-14.53,12.08-18.24,32.73c-2.38,12.57-2.97,38.21-1.9,56.58c1.19,16.16,4.64,40.68,8.62,53.61
		c3,10.79,5.95,21.04,11.61,30.53c9.99,16.06,19.98,13.4,38.53,10.94c12.54-1.75,35.08-5.88,48.47-11c2.11-1.26,3.95-2.49,4.59-5.02
		c0.7-1.7,1.13-3.39,1.3-4.78c1.04-8.34-2.27-19.66-7.37-17.91c-12.1,3.92-31.22,9.73-54.77,11.46
		C643,738.5,639.05,710.98,637.86,694.82L637.86,694.82z M615.12,685.21l-8.26,0.06c-2.82-27.05-2.13-55.19,3.5-83.41l7.75,0.53
		C612.91,628.93,611.9,660.11,615.12,685.21L615.12,685.21z M825.33,712.91l-55.25-21.76c40.36-21.38,54.7-48.35,50.81-71.08
		c-10.87-63.61-117.42-54.59-118.22-29.94c0.22,42.03,13.09,130.37,28.95,167.77c3.19,7.25,12.77,9.52,23.87,7.62
		c14.89-2.54,20.13-10.96,15.05-17.89c-2.5-3.19-6.33-14.24-10.59-29.39c18.99,8.45,46.29,16.6,55.42,19.5
		C823.05,740.32,832.79,715.81,825.33,712.91L825.33,712.91z M791.74,623.94c1.94,11.37-10.24,34.62-43.69,45.91
		c-5.29-24.45-9.64-49.89-11.93-69.83C769.18,584.89,789.28,609.59,791.74,623.94L791.74,623.94z M728.84,674.8l-8.12,1.39
		c-6.3-27.06-9.57-54.36-10.27-82.93l7.63-1.03C718.76,619.13,722.55,649.41,728.84,674.8L728.84,674.8z"/>
	<path class="st0" d="M110.73,482.24c-3.68-2.11-11.21-4.73-20.32-6.56c-9.11-1.83-19.79-2.86-28.1-2.5
		c-8.31,0.35-14.25,2.08-18.36,3.98c-4.1,1.9-6.37,3.97-7.19,7.25c-0.82,3.28-0.21,7.77,3.19,10.81c3.39,3.04,9.55,4.62,17.59,4.4
		c8.04-0.22,17.95-2.25,25.91-4.05c7.95-1.8,13.95-3.38,18.73-4.68c4.78-1.31,8.35-2.34,10.22-3.65
		C114.25,485.94,114.41,484.35,110.73,482.24L110.73,482.24z M111.3,499.53c-2,0.08-5.5,1.03-10.51,2.84
		c-5.01,1.82-11.53,4.49-16.88,7.52c-5.35,3.03-9.53,6.41-12.02,9.64c-2.49,3.23-3.29,6.3-3.07,8.85c0.22,2.55,1.45,4.58,3.91,5.94
		c2.46,1.35,6.15,2.03,10.64-0.03c4.49-2.06,9.78-6.85,14.2-11.29c4.42-4.44,7.98-8.51,10.62-12.11c2.64-3.6,4.38-6.71,5-8.67
		C113.79,500.25,113.3,499.45,111.3,499.53L111.3,499.53z M117.73,466.42c-1.41-2.84-4.31-7.53-9.01-12.35
		c-4.69-4.82-11.17-9.78-16.44-12.28c-5.27-2.51-9.33-2.57-12.31-1.46c-2.98,1.11-4.89,3.38-5.48,5.6
		c-0.58,2.21,0.16,4.37,3.16,7.31c3,2.95,8.27,6.69,13.88,9.27c5.62,2.58,11.58,3.99,16.21,5.25c4.63,1.26,7.92,2.37,9.61,2.43
		C119.05,470.24,119.14,469.26,117.73,466.42L117.73,466.42z M753.27,482.24c3.68-2.11,11.21-4.73,20.32-6.56
		c9.11-1.83,19.79-2.86,28.1-2.5c8.31,0.35,14.25,2.08,18.36,3.98c4.1,1.9,6.37,3.97,7.19,7.25c0.82,3.28,0.21,7.77-3.19,10.81
		c-3.39,3.04-9.55,4.62-17.59,4.4c-8.04-0.22-17.95-2.25-25.91-4.05c-7.95-1.8-13.95-3.38-18.73-4.68
		c-4.78-1.31-8.35-2.34-10.22-3.65C749.75,485.94,749.59,484.35,753.27,482.24L753.27,482.24z M752.7,499.53
		c2,0.07,5.5,1.03,10.51,2.84c5.01,1.82,11.53,4.49,16.88,7.52c5.35,3.03,9.53,6.41,12.02,9.64c2.49,3.23,3.29,6.3,3.07,8.85
		c-0.21,2.55-1.45,4.58-3.9,5.94c-2.46,1.35-6.15,2.03-10.64-0.03c-4.49-2.06-9.78-6.85-14.2-11.29
		c-4.42-4.44-7.98-8.51-10.62-12.11c-2.64-3.6-4.38-6.71-5-8.67C750.21,500.25,750.7,499.45,752.7,499.53L752.7,499.53z
		 M746.27,466.42c1.41-2.84,4.32-7.53,9.01-12.35c4.7-4.82,11.17-9.78,16.44-12.28c5.27-2.51,9.33-2.57,12.31-1.46
		c2.98,1.11,4.89,3.38,5.47,5.6c0.58,2.21-0.15,4.37-3.16,7.31c-3,2.95-8.27,6.69-13.88,9.27c-5.62,2.58-11.58,3.99-16.21,5.25
		c-4.63,1.26-7.92,2.37-9.61,2.43C744.96,470.24,744.86,469.26,746.27,466.42L746.27,466.42z"/>
</g>
</svg>
