<?xml version="1.0" encoding="utf-8"?>
<!-- Generator: Adobe Illustrator 25.0.0, SVG Export Plug-In . SVG Version: 6.00 Build 0)  -->
<svg version="1.1" id="Layer_1" xmlns="http://www.w3.org/2000/svg" xmlns:xlink="http://www.w3.org/1999/xlink" x="0px" y="0px"
	 viewBox="0 0 792 909.36" style="enable-background:new 0 0 792 909.36;" xml:space="preserve">
<g>
	<path d="M267.31,191.28c-4.62,0-8.36,3.74-8.36,8.36v65.67c0,4.62,3.74,8.36,8.36,8.36c4.62,0,8.36-3.74,8.36-8.36v-65.67
		C275.67,195.02,271.93,191.28,267.31,191.28L267.31,191.28z M353.07,207.99c6.48,0,12.47,3.5,16.48,9.61
		c2.54,3.85,7.72,4.92,11.58,2.39c3.87-2.52,4.95-7.7,2.41-11.58c-7.05-10.72-18.43-17.13-30.46-17.13
		c-20.68,0-37.53,18.47-37.53,41.2c0,22.71,16.85,41.18,37.53,41.18c12.04,0,23.41-6.41,30.46-17.13c2.54-3.87,1.47-9.06-2.41-11.58
		c-3.85-2.56-9.04-1.47-11.58,2.39c-12.28,18.68-37.29,8.16-37.29-14.86C332.26,218.98,341.6,207.99,353.07,207.99L353.07,207.99z
		 M429.33,196.64c-2.75-7.15-12.89-7.12-15.6,0l-24.97,65.28c-2.19,5.71,1.65,11.77,7.64,11.77c3.37,0,6.54-2.06,7.81-5.38
		l2.65-6.91c0.63-1.66,2.25-2.78,4.07-2.78h21.38c1.79,0,3.41,1.09,4.07,2.78l2.49,6.48c1.58,4.09,5.95,6.67,10.15,5.51
		c4.86-1.33,7.37-6.5,5.62-11.07L429.33,196.64L429.33,196.64z M415.19,239.61l5.32-13.92c0.37-0.94,1.73-0.96,2.1,0l5.36,13.92
		c0.42,1.09-0.39,2.25-1.55,2.25h-9.67C415.58,241.87,414.77,240.71,415.19,239.61L415.19,239.61z M523.29,191.39
		c-4.09,0.68-6.96,4.53-6.96,8.71v35.36c0,1.84-2.32,2.63-3.44,1.18l-32.76-41.84c-5.35-6.85-15.19-2.86-15.19,4.84v65.23
		c0,4.16,2.84,8.01,6.96,8.69c5.23,0.85,9.76-3.17,9.76-8.25v-35.82c0-1.84,2.32-2.63,3.46-1.18l32.98,42.17
		c4.86,6.19,14.95,2.83,14.95-5.16v-65.67C533.07,194.56,528.54,190.53,523.29,191.39L523.29,191.39z"/>
	<path d="M320.87,472.39c-3.15,0.04-5.95,2.08-7.4,4.88l-23.41,45.32c-0.88,1.71-3.3,1.71-4.18,0l-23.39-45.32
		c-1.44-2.8-4.25-4.84-7.4-4.88c-4.88-0.09-8.58,3.79-8.58,8.36v65.23c0,4.16,2.84,8.01,6.96,8.69c5.23,0.85,9.76-3.17,9.76-8.25
		v-26.04c0-1.33,1.79-1.77,2.39-0.59l14.92,28.91c1.44,2.76,4.31,4.51,7.44,4.51c3.13,0,6-1.75,7.42-4.51l14.92-28.91
		c0.61-1.18,2.39-0.74,2.39,0.59v25.58c0,4.18,2.87,8.03,6.96,8.71c5.25,0.85,9.78-3.17,9.78-8.25v-65.67
		C329.45,476.18,325.73,472.31,320.87,472.39L320.87,472.39z M380.39,477.75c-1.25-3.24-4.33-5.36-7.79-5.36h-0.02
		c-3.46,0-6.56,2.12-7.79,5.36l-24.97,65.28c-1.51,3.94-0.17,8.62,3.5,10.68c1.33,0.74,2.76,1.09,4.14,1.09
		c3.37,0,6.54-2.06,7.81-5.38l2.65-6.91c0.63-1.66,2.25-2.78,4.07-2.78h21.38c1.79,0,3.41,1.09,4.07,2.78l2.49,6.48
		c1.58,4.09,5.95,6.67,10.15,5.51c4.86-1.33,7.37-6.5,5.62-11.07L380.39,477.75L380.39,477.75z M366.26,520.73l5.32-13.92
		c0.37-0.94,1.73-0.96,2.1,0l5.36,13.92c0.42,1.09-0.39,2.25-1.55,2.25h-9.67C366.65,522.99,365.84,521.83,366.26,520.73
		L366.26,520.73z M476.59,474.12c-3.28-2.56-8.05-2.03-11.09,0.81l-29.61,27.44c-1.2,1.12-3.15,0.26-3.15-1.38v-19.78
		c0-4.18-2.84-8.03-6.96-8.71c-5.23-0.85-9.76,3.17-9.76,8.25v65.23c0,4.16,2.84,8.03,6.96,8.69c5.23,0.85,9.76-3.17,9.76-8.25
		v-16.13c0-1.4,0.59-2.71,1.6-3.65l7.35-6.83c1.33-1.25,3.5-0.9,4.38,0.7l16.54,29.96c1.53,2.76,4.38,4.31,7.33,4.31
		c1.77,0,3.59-0.57,5.14-1.77c3.33-2.56,3.98-7.35,1.95-11.03l-18.51-33.52c-0.92-1.66-0.59-3.72,0.79-4.99l17.88-16.59
		C480.9,483.42,480.77,477.38,476.59,474.12L476.59,474.12z M537.12,489.11c5.08,0,9.1-4.53,8.25-9.76
		c-0.68-4.11-4.53-6.96-8.71-6.96h-38.62c-4.62,0-8.36,3.74-8.36,8.36v65.67c0,4.62,3.74,8.36,8.36,8.36h38.62
		c4.18,0,8.03-2.84,8.71-6.96c0.85-5.23-3.17-9.76-8.25-9.76h-27.83c-1.6,0-2.89-1.29-2.89-2.89v-10.35c0-1.58,1.29-2.87,2.89-2.87
		h19.54c4.16,0,8.03-2.84,8.71-6.96c0.85-5.25-3.17-9.76-8.25-9.76h-20c-1.6,0-2.89-1.31-2.89-2.89V492c0-1.6,1.29-2.89,2.89-2.89
		H537.12L537.12,489.11z"/>
	<path d="M2.36,444.74l77.19-88.9c1.64,6.46,6.43,11.67,12.64,13.88l-70.52,81.22l130.2,149.96c-4.43,4.44-8.34,9.47-11.57,15.12
		L2.27,457.04C-0.83,453.46-0.71,448.18,2.36,444.74L2.36,444.74z M147.88,277.13L385.7,3.22c3.37-3.89,9.26-4.32,13.15-0.95
		c0.37,0.32,0.71,0.67,1.02,1.04L688.8,336.09c-2.96,3.67-5.93,7.31-8.77,11.08c-1.03,1.24-2.05,2.48-3.07,3.73l-47.74-54.99
		c-0.32-2.88-1.35-5.67-3.02-8.26c-2.58-4.45-6.45-7.58-11.42-9.07l-0.17-0.05l-0.17-0.04l-0.45-0.11
		c-75.52-86.98-142-163.54-221.25-254.83c-73.69,84.87-145.23,167.26-218.3,251.42c-7.59-0.09-15.17,0.37-22.92,1.49l-0.25,0.04
		C150.15,276.69,149.02,276.9,147.88,277.13L147.88,277.13z M744.35,400.07l45.37,52.26c3.1,3.58,2.99,8.86-0.09,12.3L602.37,680.32
		c-1.56-4.09-4.46-7.75-8.3-10.26c-1.68-1.1-3.49-1.91-5.37-2.43l39.5-45.5c6.81-1.95,13.51-4.56,20.23-8.02
		c9.39-4.58,12.9-16.12,8.69-25.29l113.2-130.38l-37.44-43.12c3.41-4.23,6.76-8.52,10.01-12.89
		C743.45,401.66,743.94,400.88,744.35,400.07L744.35,400.07z M538.09,754.34L406.3,906.14c-3.37,3.89-9.26,4.32-13.15,0.95
		c-0.37-0.32-0.71-0.67-1.02-1.04L239.24,729.96c2.91-6.19,5.66-12.48,8.37-18.8l24.41,28.11c0.12,1.02,0.31,2.04,0.58,3.07
		c1.19,5,4.36,8.84,8.6,11.66l0.53,0.35l0.57,0.28c1.49,0.74,3.03,1.34,4.6,1.77l112.35,129.4L514.83,752.7
		c4.58,2.88,10.21,4.16,16.72,3.17C533.8,755.52,535.98,755,538.09,754.34L538.09,754.34z M210.63,697.02l-40.04-46.11
		c0-0.18,0.01-0.36,0.01-0.53c0-4.23,0.93-7.71,2.35-11.6c1.27-2.9,3.01-5.46,5.06-7.76l40.72,46.9c-2.41,5.63-4.78,11.3-7.19,16.95
		L210.63,697.02L210.63,697.02z"/>
	<path d="M216.36,319.64c-2.31,0-5.13,1.03-6.93,2.82c-18.47,22.83-29.24,50.27-40.52,76.95c-7.44,17.44-15.65,34.63-26.93,50.01
		c-9.23,11.29-19.75,21.8-34.11,23.85c-7.95,1.28-16.16-1.03-22.57-5.9c-5.9-4.87-8.46-10.77-9.75-17.7c-0.26-3.08-0.26-5.9,0-8.72
		l0.51-1.54c1.33-5.19-1.81-10.56-6.93-11.8c-4.87-1.28-10.77,1.54-11.8,6.67c-2.82,13.08-0.77,26.67,6.67,37.7
		c14.36,23.08,46.42,24.88,67.46,12.82c20.26-11.8,33.34-32.83,43.6-52.58c13.59-27.44,22.57-54.63,36.93-79.51
		c4.87-8.21,8.21-12.31,11.03-16.67c1.8-2.31,2.82-3.85,2.82-6.67C225.85,323.9,221.52,319.64,216.36,319.64L216.36,319.64z
		 M286.38,294.5c-2.82-4.87-8.21-6.16-13.08-3.33c-3.85,1.8-7.18,2.82-11.03,3.59c-8.98,1.03-17.44,0-26.42-1.03
		c-13.34-2.05-26.67-4.62-40.01-6.92c-15.39-2.05-28.73-2.31-42.83-0.26c-22.57,3.85-44.37,14.88-55.91,35.14
		c-5.39,8.98-7.95,18.98-7.95,29.24c0,5.39,4.36,9.75,9.75,9.75c5.13,0,9.49-4.36,9.49-9.75c0-5.9,1.28-10.52,3.08-15.39
		c5.39-12.57,16.67-20.01,26.93-24.88c16.42-6.93,33.34-7.69,50.53-5.39c21.8,3.1,48.84,9.53,68.74,8.98
		c8.98-0.26,17.44-2.05,25.39-6.41C287.4,305.02,289.2,299.37,286.38,294.5L286.38,294.5z M346.84,344.99
		c-0.89,0.46-1.73,1.07-2.49,1.83c-8.98,8.98-20.26,14.36-31.29,18.21c-5.13,1.8-5.64-3.08-6.93-7.95
		c-3.33-15.13-10-27.7-26.93-27.7c-5.64,0.26-11.03,2.56-15.9,6.93c-14.62,7.95-25.65,19.24-34.63,31.8
		c-3.85,5.39-6.67,10.77-8.98,16.16c-5.9,13.08-8.72,26.42-6.67,39.5c2.31,13.08,11.29,22.57,24.37,23.6
		c14.36,0.77,27.44-10.52,36.93-19.24c11.03-11.03,17.95-19.75,22.83-29.75c6.68-13.78,12.76-11.54,25.65-16.42
		c1.04-0.39,2.07-0.79,3.09-1.2c-4.61,8.85-8.63,18.49-10.27,28.13c-3.33,20.26,5.64,38.73,27.96,37.45
		c14.76-0.99,26.89-7.63,37.39-17.14c2.77,9.48,10.24,17.63,20.84,18.17c9.07,0.47,17.2-5.64,18.21-5.9c0.77,0,8.72-5.64,9.49-5.64
		c6.41-4.1,8.72,0.77,15.65,5.64c6.16,4.62,12.82,6.41,20.01,5.39c8.77-1.67,17.38-8.23,25.13-16.53c0.42,2.49,1.16,4.92,2.31,7.3
		c6.16,13.59,24.11,9.75,32.83,3.85c5.87-3.98,11.05-8.66,15.83-13.73c0.29,3.4,1.09,6.68,2.63,9.88
		c6.16,13.59,24.11,9.75,32.83,3.85c2.98-2.02,5.79-4.22,8.45-6.56c2.21,6.37,7.57,12.4,14.89,11.69
		c6.16-0.77,12.05-3.59,17.18-6.67c2.82-1.8,5.13-3.08,7.44-5.13c15.9-13.34,8.98-1.54,4.1,5.39
		c-7.95,11.29-16.67,23.85-29.75,29.75c-6.92,3.33-12.57-0.26-16.93-5.13c-7.74-8.42-22.69,2.84-13.59,13.59
		c5.9,6.41,13.59,11.03,21.54,13.85c10.52,3.33,22.06,2.82,33.09,0c15.39-4.1,29.24-12.31,41.81-22.31
		c20.52-15.39,37.7-34.11,54.12-53.86c5.39-6.41,10.52-12.82,15.65-19.75c3.08-4.1,0.77-11.03-3.33-13.08
		c-4.87-3.33-10.52-0.51-13.34,3.33c-15.13,22.57-35.4,43.6-55.91,61.04c-4.36,4.1-8.98,7.69-13.85,10.77
		c-5.9,3.85-9.23,1.03-4.36-6.41c19.49-32.57,42.58-65.15,65.92-95.16c1.28-1.8,2.31-3.08,3.59-4.36
		c5.81-6.59,2.23-16.42-6.93-16.42c-2.31,0-4.87,0.77-6.67,2.57c-3.85,4.87-7.95,9.75-11.8,14.88
		c-6.41,7.69-17.95,22.83-24.88,28.21c-17.7,14.36-33.34,26.67-49.76,37.7c-5.13,3.33-8.72,1.03-4.87-7.44
		c3.85-7.44,7.95-14.36,13.34-21.29c8.21-10.26,21.8-31.29,26.68-44.37c0.77-2.31,0.26-4.62-1.03-7.44
		c-1.28-2.05-3.33-3.59-5.64-4.36c-4.87-1.28-11.03,1.54-12.05,6.67c0,0.77,0,1.28-0.26,1.54c-6.26,13.93-15.39,25.66-23.88,37.59
		c-1.08,0.76-2.03,1.76-2.79,2.94c-3.85,5.64-7.69,11.29-12.05,16.93c0-0.77-23.85,31.29-30.27,27.96
		c-15.9-8.98,54.12-111.83,58.22-127.99c0.77-2.56,0.26-4.87-1.28-7.18c-4.81-7.88-13.85-5.72-17.44,2.31
		c-13.65,30.81-34.56,57.17-47.75,86.98c-0.26,0.32-0.5,0.65-0.73,1c-3.85,5.64-7.69,11.29-12.05,16.93
		c0-0.77-23.85,31.29-30.27,27.96c-15.9-8.98,54.12-111.83,58.22-127.99c0.77-2.56,0.26-4.87-1.28-7.18
		c-4.81-7.88-13.85-5.72-17.44,2.31c-13.61,30.72-34.44,57.02-47.63,86.71c-0.3,0.39-0.58,0.81-0.84,1.26
		c-9.49,14.11-28.47,44.89-38.99,44.89c-8.21,0-1.03-21.8,0.26-24.88c1.8-3.85,3.59-7.44,5.64-10.77
		c4.68-7.42-3.16-16.52-11.03-14.11c-4.1,1.28-5.9,5.39-8.72,8.46c-3.85,4.62-38.73,48.99-46.17,40.52
		c-4.93-5.7-1.72-16.67,2.97-26.14c3.14-4.58,6.38-11.33,9.34-14.9c11.29-13.59,23.34-23.34,38.47-30.27
		c5.13-2.31,16.67-6.41,20.78-2.31c3.85,3.33,9.49,3.59,13.34-0.26c3.85-3.85,3.85-9.75,0-13.59c-3.08-3.33-7.95-5.13-12.05-5.9
		c-25.14-4.1-51.04,13.85-66.69,30.27c-5.8,6.2-11.92,14.04-16.94,22.54c-14.29,19.77-32.8,41.49-46.41,40.3
		c-8.98-0.77-10.52-5.9-9.75-12.82c0.77-5.9,2.82-11.54,4.87-16.93c4.87-11.03,11.29-21.29,17.7-31.55l12.82-21.55
		c3.59-5.9,8.72-9.23,15.13-10c6.64-0.95,12.98-2.34,19.49-5.13c1.8-0.77,2.57-1.54,4.36-2.31c2.05-1.28,3.59-3.33,4.36-5.64
		c2.39-7.18-6.28-15.64-14.11-11.03c-3.46,2.04-2.73,2.01-6.93,3.08c-5.39,1.28-5.39-0.77-4.1-3.59l2.31-5.39
		c1.03-2.31,1.8-4.36,1.03-7.18c-0.77-2.31-2.31-4.87-4.36-5.9c-2.31-1.03-5.13-1.8-7.44-1.03c-2.31,0.77-4.87,2.31-5.9,4.62
		c-1.8,3.33-3.08,6.67-4.87,10.52c-2.82,5.13-6.41,11.03-12.31,11.8c-3.85,0.77-7.95,1.8-12.05,3.08c-2.31,0.77-4.62,2.05-5.9,4.36
		c-3.53,6.7,1.85,14.27,6.41,13.34C349.62,337.09,349.48,340.75,346.84,344.99L346.84,344.99z M287.15,360.93
		c0,3.85-1.54,7.95-7.69,4.87c-1.8-0.77-3.33-2.57-4.36-3.59c-3.33-3.08-2.82-10.26,3.08-11.54
		C285.61,348.88,287.15,354.78,287.15,360.93L287.15,360.93z M253.55,420.44c-6.16,4.87-21.03,13.08-21.8-0.51
		c-0.77-16.42,5.64-35.14,16.93-46.42c3.85-4.36,7.18-4.62,10.26-0.77c4.87,4.87,8.98,8.98,15.13,11.8
		c4.36,2.82,4.87,7.18,2.82,11.03C270.99,405.56,262.01,413.51,253.55,420.44L253.55,420.44z"/>
	<path d="M268.39,619.08c-2.31,0-5.13,1.03-6.93,2.82c-18.47,22.83-29.24,50.27-40.52,76.95c-7.44,17.44-15.65,34.63-26.93,50.02
		c-9.23,11.29-19.75,21.8-34.11,23.85c-7.95,1.28-16.16-1.03-22.57-5.9c-5.9-4.87-8.46-10.77-9.75-17.7c-0.26-3.08-0.26-5.9,0-8.72
		l0.51-1.54c1.33-5.19-1.81-10.56-6.93-11.8c-4.87-1.28-10.77,1.54-11.8,6.67c-2.82,13.08-0.77,26.67,6.67,37.7
		c14.36,23.08,46.42,24.88,67.46,12.82c20.26-11.8,33.34-32.83,43.6-52.58c13.59-27.44,22.57-54.63,36.93-79.51
		c4.87-8.21,8.21-12.31,11.03-16.67c1.8-2.31,2.82-3.85,2.82-6.67C277.88,623.34,273.55,619.08,268.39,619.08L268.39,619.08z
		 M338.41,593.94c-2.82-4.87-8.21-6.16-13.08-3.33c-3.85,1.8-7.18,2.82-11.03,3.59c-8.98,1.03-17.44,0-26.42-1.03
		c-13.34-2.05-26.67-4.62-40.01-6.93c-15.39-2.05-28.73-2.31-42.83-0.26c-22.57,3.85-44.37,14.88-55.91,35.14
		c-5.39,8.98-7.95,18.98-7.95,29.24c0,5.39,4.36,9.75,9.75,9.75c5.13,0,9.49-4.36,9.49-9.75c0-5.9,1.28-10.52,3.08-15.39
		c5.39-12.57,16.67-20.01,26.93-24.88c16.42-6.93,33.34-7.69,50.53-5.39c21.8,3.1,48.84,9.53,68.74,8.98
		c8.98-0.26,17.44-2.05,25.39-6.41C339.43,604.46,341.23,598.82,338.41,593.94L338.41,593.94z M416.75,681.13
		c-0.45,0.48-0.91,1-1.4,1.56c-4.1,5.9-7.95,11.29-12.31,16.67c-6.93,8.98-13.08,17.7-22.06,23.85c-2.31,1.8-7.95,5.9-9.75,3.85
		c-1.8-2.05,1.03-8.21,2.31-11.29c5.9-13.34,14.36-25.14,21.29-38.22c3.33-6.41,6.16-12.31,7.44-18.47
		c1.28-8.98-1.54-16.67-8.46-20.78c-8.46-4.36-17.19-3.08-25.39,0.26c-6.41,2.31-8.46,0.26-5.64-5.64
		c5.39-11.54,10.26-21.8,14.36-32.83c2.05-4.87-2.31-11.03-6.67-12.05c-7.44-1.8-10.52,3.59-12.82,9.49
		c-5.39,15.39-12.82,28.98-20.01,43.35c-16.42,33.09-33.6,62.84-54.12,91.57c-2.9,4.2-1.28,10.4,3.33,13.08
		c2.56,1.28,5.13,1.8,7.44,1.03c2.82-0.77,3.85-2.31,5.64-4.36c4.1-5.39,7.95-10.77,11.8-16.16c10.19-14.22,23.98-33.24,35.65-45.91
		c8.46-9.23,16.67-18.21,27.7-23.6c4.87-2.31,8.21,0.51,6.41,4.62c-6.16,14.11-14.62,25.14-21.03,37.45
		c-6.16,12.31-14.88,30.52-2.57,42.06c1.28,1.54,2.82,2.82,4.62,3.59c2.82,1.8,5.64,2.31,8.72,2.57c4.87,0.77,9.75-1.54,14.11-3.59
		c5.58-2.79,14.11-10.25,18.54-15.01c2.67,9.65,10.19,18.05,20.96,18.6c9.07,0.47,17.2-5.64,18.21-5.9c0.77,0,8.72-5.64,9.49-5.64
		c6.41-4.1,8.72,0.77,15.65,5.64c6.16,4.62,12.82,6.41,20.01,5.39c8.39-1.6,16.63-7.67,24.12-15.47
		c1.73,8.85,7.33,16.52,17.69,14.95c11.54-1.8,21.29-9.75,29.5-16.93c10-8.98,18.98-18.72,27.19-29.75c1.8-2.31,3.59-4.62,5.39-7.44
		c5.67-8.45-7.41-21.66-16.67-9.75c-1.8,2.31-3.08,4.62-4.87,6.93c-8.98,11.54-18.98,22.31-30.52,31.29c-4.1,3.33-10,8.98-8.72,0.77
		c1.6-9.86,4.44-18.89,7.95-27.84c0.8-1.82,1.19-2.68,1.79-4.35c8.91-20.08,20.49-38.7,32.32-57.07
		c4.87-7.95,12.57-14.62,21.55-14.62c18.47-1.03,33.6-4.1,48.99-12.05c7.64-3.78,5.63-15.24-2.31-17.44
		c-2.31-0.77-4.62-0.51-7.44,0.77c-7.44,3.85-14.88,5.9-22.83,7.69c-8.46,1.28-9.75-2.05-6.41-5.9c1.28-1.54,2.82-3.08,4.36-4.36
		c3.85-3.85,3.85-10,0-13.85c-3.85-3.85-9.75-3.85-13.59,0c-14.36,14.11-25.65,30.52-36.17,45.91
		c-13.59,20.52-26.67,41.04-36.16,63.61c-0.45,1.09-0.89,2.18-1.33,3.28c-9.84,14.81-27.61,42.89-37.65,42.89
		c-8.21,0-1.03-21.8,0.26-24.88c1.8-3.85,3.59-7.44,5.64-10.77c4.68-7.42-3.16-16.52-11.03-14.11c-4.1,1.28-5.9,5.39-8.72,8.46
		c-3.85,4.62-38.73,48.99-46.17,40.53c-6.26-7.24,0.6-22.97,6.95-33.33c1.09-1.64,0.69-0.64,1.81-2.84
		c1.31-1.98,2.54-3.65,3.55-4.86c11.29-13.59,23.34-23.34,38.47-30.27c5.13-2.31,16.67-6.41,20.78-2.31
		c3.85,3.33,9.49,3.59,13.34-0.26c3.85-3.85,3.85-9.75,0-13.59c-3.08-3.33-7.95-5.13-12.06-5.9c-25.14-4.1-51.04,13.85-66.69,30.27
		C425.88,668.64,421.06,674.61,416.75,681.13L416.75,681.13z M480.5,597.28c20.78,2.82,40.78,8.46,61.3,12.82
		c5.13,1.28,10.26-1.28,12.05-6.67c1.28-4.87-1.8-10.77-6.92-11.8c-30.52-6.93-61.3-15.9-92.85-15.13
		c-18.21,0.77-35.14,4.62-51.3,12.82c-4.87,2.31-6.41,8.72-3.59,13.08c2.82,4.87,8.21,5.9,13.08,3.59l5.64-2.82
		c8.46-3.33,16.67-5.39,24.62-6.67C455.11,594.71,467.93,595.48,480.5,597.28L480.5,597.28z"/>
</g>
</svg>
