<?xml version="1.0" encoding="utf-8"?>
<!-- Generator: Adobe Illustrator 21.1.0, SVG Export Plug-In . SVG Version: 6.00 Build 0)  -->
<svg version="1.1" id="Layer_1" xmlns="http://www.w3.org/2000/svg" xmlns:xlink="http://www.w3.org/1999/xlink" x="0px" y="0px"
	 viewBox="0 0 287.9 293.7" style="enable-background:new 0 0 287.9 293.7;" xml:space="preserve">
<style type="text/css">
	.st0{fill-rule:evenodd;clip-rule:evenodd;fill:#333232;}
</style>
<g>
	<path class="st0" d="M74.8,160.6c4.4-15,19.9-64.8,34-67.3c3.4-0.6,6.3,1.9,7.9,4.6c2.1,3.2,2,11.3,1.8,15.1
		c0,25-3.7,49.8-3.7,74.7c0,7.2,4.4,21.1-2.2,22.3c-5,0.9-7.7-5.2-9.3-8.8c-6.3-14.9-0.2-66.5,0.2-85.2
		c-9.5,11.5-21.3,65.1-28.7,81.1c-4.2,8.9-13.8,7.7-17.4-0.5c-5.8-13.4-2.4-74.4-8.7-93c-1.8-5.3-2.4-3.8-4.7,3.6
		c-9.9,32.2-10.5,91.3-10.5,124.3c0,7.2,0,17.2-9.1,18.8C9.5,252.9,0,164.8,0,150.5c0-15.2,20.3-13.6,20.3-3.2c0,14.5,2,44,3.1,60
		c0.9-21.4,5.1-125.4,31.2-130C74.9,73.8,74.9,144.9,74.8,160.6L74.8,160.6z M248.7,124c-4.5,5.6-11.3,24.3-13.6,31.2
		c-1.2,3.7-2.3,8.7-6.6,9.5c-8.8,1.5-8.1-14.5-8.4-19.7c-0.2-5.4-1.7-35.7-5-38.5c-10,2.2-13,47.7-14.4,59.2
		c-0.7,5.5-2.8,16.9-9,17.9c-11,1.9-11.3-16.6-11.1-25.7c-4,4.3-9.7,9.3-14.8,10c-3.9,8.8-10.4,17.4-20.4,19.1
		c-16.1,2.8-20.5-14.3-20.5-26.7c0-5.3,1.5-11.3,6.6-13.3c-1.2-3.2-0.1-7.7,1.2-10.4c4.9-10.1,19.7-14.5,28.1-8.1
		c8.5,6.5,9.4,21.2,7,31.3c6.4-1.7,10.3-10.3,13.3-15.6c0.3-1-1.2-5.7,5.8-6.9c6.3-1.1,5.4,4,5.3,8.3l0,14.1
		c2.8-18.2,6.5-65.2,27.6-68.5c20.5-3.2,14.9,37.5,13.4,49.9c3.3-8.6,11.7-31.5,20.7-33.1c15-2.6,10.5,22.6,9.2,31
		c-0.4,2.5-4.8,25.7-2.6,26.9c0.1,0,0.2,0,0.2,0c3-1.5,14.7-25.4,16.9-30.3c1.6-3.7,2.4-13.8,8.1-13.2c6.4,0.6-4,19.8-5.5,22.6
		L270.2,164c-12.1,20.6-23.1,26.4-23.1-2.8C247.1,152.5,249.8,132.4,248.7,124L248.7,124z M157.8,169.1c-7-0.1-12.9-3.2-17.5-8.4
		c-0.5,4.3-1.2,18.7,6.1,17.4C150.5,177.4,155.7,173.3,157.8,169.1L157.8,169.1z M159.5,160.4c3.1-25.2-4.8-25-8.9-15.6
		c-1.3,3-1.2,6.1,0,9.1C151.9,157.5,155.9,159.3,159.5,160.4L159.5,160.4z"/>
	<path class="st0" d="M71.4,64.6c-2.4,2.4-6.2-0.9-4.1-3.9c1.1-1.5,2-3.4,0.9-5c-2.4-3.5-4.5-7.2-6.9-10.6
		c-2.7-3.8-5.6-7.5-7.9-11.6c-1.4-2.5-0.8-1-4.1-0.9c-2.7,0.1-4-3.5-1.6-5l8.1-5.3c3.9-3.2,8.5-5.1,13.2-6.5
		c8.2-2.6,16.2,3.4,15.4,14.5c-0.1,1.9-1.2,2.7-1.9,4c2.7,0.5,4.6,2.2,6.6,4.2c3.5,3.5,4.3,13.9-4,18.1L71.4,64.6L71.4,64.6z
		 M131,0.1c1.7-0.3,3.1,0.5,3.6,2.2c0.6,2,1.2,4,1.3,6.1c0.4,4.8-5.2,3.5-7,0.4c-1-1.6-3.1-2.6-5.3-2l-7.7,1l1.5,17.6
		c10.6-0.5,7.5-1.4,9.7-4.5c1.6-2.2,4.6-1.5,5.3,2.8c0.4,2,2.6,11-1.3,11.6c-3.7,0.6-1.5-4.1-6.3-4c-2.2,0-4.3,0.4-6.4,0.7l0.9,6.9
		l10.9-1c1.2-0.1,4.3-1.4,4.4-3c0.3-3.2,4.2-5.2,5.7,0.4c0.7,2.8,2.5,8.3-3.1,8.8c-4.9,0.4-27.1,3.3-30.8,1.9
		c-2.4-0.9-2.5-4.4,0.5-5c0.9-0.2,4.3-0.8,4-2.1l-3.1-28.4c0-2.1-0.5-0.7-4-2.7c-2.3-1.3-1.7-4.2,0.9-4.6
		C114.2,1.3,122.2,1.2,131,0.1L131,0.1z M151.9,33.4c0.9-3,4.6-2.6,5.1,0.4l1,4.1c2.5,2.9,5.5,4.6,9.4,4.9c2.3,0.2,6-4.7,1.4-8.9
		c-8.2-7.4-17.8-16.2-7-26.7c1.2-1.2,2.8-1.6,4.4-1.8c7.1-0.7,13.4,1.2,18.6,6.2c2.4,2.2,0.8,5.5-0.2,9.1c-0.9,3.1-4.9,2.1-5.1-1.4
		c-0.2-4.5-6.6-7.2-10.9-7.5c-1.3-0.1-1.9,0.6-2.4,1.7c-1,2.3-0.9,3.1,0.9,4.9c3.8,3.8,13.1,11.3,13.8,16.7
		c1.3,9.2-6.7,17.4-17.1,14.8c-3.1-0.7-15.2-4.6-13.5-10.2L151.9,33.4L151.9,33.4z M203.6,70.1c-2.5,1.5-4.4-1-7.3-3.3l-6.6-5.3
		c-1.5-2.3,1.5-4.7,3.1-4c6,2.4,1.9,1.3,13.2-10.7l2-2.6l8-9.3l-3.6-3.5c-2-2.3-4.5,1.6-6.5-0.5c-2-2.3,1.7-6,3.2-7.2
		c1.8-1.4,2.8-1.5,4.6,0c6.6,5.7,11.7,11,18.8,16.2c3.9,2.9,3.1,4-1.1,8.5c-2.2,2.4-5.3,0.4-4.6-2.3c0.5-1.9-2.2-3.2-4.6-5.1
		c-6,6.6-11.8,14.8-17.7,21.3c-2.1,2.4,0.5,3,0.5,4.8C205.1,68.3,204.8,69.4,203.6,70.1L203.6,70.1z M67.9,38.9
		c14.4-8,6.4-17.8-1.1-15.1c-1.6,0.6-3.1,1.5-4.6,2.3c-2.4,1.2-0.4,3,2.3,7.4L67.9,38.9L67.9,38.9z M76.6,53.8
		c10.3-5.4,3.8-12.2-0.1-11.1l-4.9,2.1c0.6,1.5,3.2,4.6,4.5,7.8C76.2,52.8,76.4,53.4,76.6,53.8L76.6,53.8z"/>
	<path class="st0" d="M61.2,267.7l9.6,5.2c1.1,0.6,4.4,1.2,5.4,0c2-2.5,6.4-2,4.5,3.5c-0.9,2.7-2.5,8.3-7.5,5.6
		c-4.3-2.4-24.4-12.4-26.7-15.6c-1.5-2.1,0.3-5.1,3.1-3.9c0.8,0.3,4.1,1.7,4.6,0.5l13.4-25.4c1.2-1.8,0-0.8-1.8-4.5
		c-1.1-2.3,0.8-4.5,3.3-3.3c7,3.2,13.8,7.2,20.6,10.9c2.9,1.6,5.8,2.2,4.8,5.4c-0.6,2-1.2,4-2.3,5.8c-2.4,4.2-6.3,0-6.1-3.6
		c0.1-1.9-1.1-3.8-3.3-4.6l-7-3.5l-8.6,15.5c9.1,5.5,7,3,10.6,1.7c2.6-1,4.6,1.3,2.9,5.3c-0.8,1.9-4,10.6-7.6,8.9
		c-3.4-1.6,1-4.3-3-6.9c-1.8-1.2-3.8-2.1-5.7-3L61.2,267.7L61.2,267.7z M108.1,254.1c-3.9-0.7-3.7-5.1,0.8-4.9
		c3.8,0.2,7.7,0.5,11.5,0.4c3.8-0.1,4.9,6.1,0.2,6.3c-0.2,0-0.5,0-0.8,0.1c0.1,4.2,4.9,18.2,6,23c0.8-1.7,11.1-19,10.7-20.3
		c-0.2-0.9-4-1.1-3.3-4.3c0.3-1.4,1.3-2.3,2.7-2.2c3.7,0.1,13-0.6,13.3,3c0.1,1.4-0.9,2.5-2.2,2.6c-2,0.3-2.8,2.1-3.8,3.6
		c-3.4,5.5-6,11.4-9.5,16.8c-2.7,4.2-5.5,11.8-7.7,14.2c-5.2,5.9-7.4-10.9-10.3-17.6c-1.1-2.5-1.2-5.1-2.1-7.6
		c-1.4-3.7-2.5-7.5-3.7-11.3C109.6,255,109.2,254.3,108.1,254.1L108.1,254.1z M183.9,278.1l10.2-4c1.1-0.4,3.7-2.6,3.4-4.1
		c-0.6-3.1,2.6-6.2,5.6-1.2c1.5,2.5,4.8,7.3-0.5,9.3c-4.6,1.8-25.1,10.8-29.1,10.4c-2.6-0.2-3.7-3.5-1-4.9c0.8-0.4,3.9-2,3.3-3.2
		l-11-26.5c-0.6-2-0.7-0.5-4.6-1.5c-2.6-0.6-2.8-3.5-0.5-4.7c7-3.3,14.3-6,21.5-8.8c3.1-1.2,5.4-3,7.2-0.2c1.2,1.7,2.2,3.5,3,5.5
		c1.7,4.5-4,4.8-6.7,2.3c-1.4-1.3-3.7-1.6-5.7-0.4l-7.2,3.1l6.4,16.5c10.1-3.5,6.8-3.4,8.1-7.1c0.9-2.6,4-2.7,5.9,1.2
		c0.9,1.8,5.6,9.9,2,11.5c-3.4,1.6-2.7-3.5-7.2-2.1c-2.1,0.6-4.1,1.6-6,2.5L183.9,278.1L183.9,278.1z M201.1,233.7
		c-2.7,1.5-5.3-1.8-3.3-4c1.1-1.2,1.7-2.6,3-3.8c4.4-3.9,8.6-13.6,19.8-13.6c5.5,0,15.3,6.8,14.4,15.6c0,0.2-0.1,0.8,0,1l7.7,1.4
		c5.3,0.8,2.4-1.3,6.6-1.8c1.4-0.2,2.6,0.1,3.2,1.6c0.8,1.9-1.9,3.9-2.8,5.3c-1.7,2.5-3.7,4.8-5.9,6.9c-2.3,2.2-5.2,0.4-4.8-1.8
		l0.3-1.8l-7.8-1.4l-3.2,4.6c6.5,6.5,4.7,1.7,8.8,1.9c3.4,0.1,3.3,2.9,2.2,4.4c-1.2,1.5-2.1,3-3.6,4.2c-2.2,1.8-5.5,9.7-8.6,7
		c-2.6-2.3,0.6-6.1,0.6-6.5c-0.2-1.1-5-4.6-5.7-5.2l-17.4-15C203.5,232.2,201.8,233.4,201.1,233.7L201.1,233.7z M222.5,237.7
		c8.1-6.3,6.7-10.8-1.6-16c-4.9-3.1-8.2,2-10.1,5L222.5,237.7L222.5,237.7z"/>
	<path class="st0" d="M184,217c-25.5,20-50.9,17.2-52.1,17.6c-5,2.8-6.4-0.6-7.1-0.4c-2.1,1.5-5.2,1-6.7-1c-0.7-0.1-1.3-0.3-2-0.4
		c-2.9,2.3-5.9,4.4-9.1,6.4c-1.9,1.1-8.6-2.1-9.1-2.8c-1.3,0.1-7.9-3.1-8.6-4.2c-1.4,0-5.8-3.2-7.1-4c-1.6-1.1-1.4-3.6,0.6-4.1
		c1.6-0.4,10.4-2.7,10.7-4.2c-0.4-3.6-0.5-7.2-0.4-10.8c0.1-1.8,2.1-2.9,3.5-1.9c6.7,4.5,8.7,5.5,16.3,8.1c0.7,0.2,1.2,0.8,1.4,1.5
		c0.9,3.2,2,6.4,3.3,9.4c0.6,0.1,1.1,0.2,1.7,0.3c2-1.3,4.7-0.9,6.3,0.9c0,0,0.1,0,0.1,0c1.9-1.4,4.7-1.3,6.4,0.4c0.3,0,0.7,0,1,0
		c13.1-0.2,23.1-2.6,34.8-8.5c4.2-2.3,8.1-4.7,11.8-7.7c0-0.3,0.1-0.5,0.3-0.8c-1.6-1.9-3.4-3.4-3-5.1c0.2-0.8,0.8-1.3,1.5-1.6
		c5.9-1.6,11.5-4,16.8-7.1c1.7-1,3.8,0.5,3.3,2.5c-1.6,6.8-4,13.4-7.3,19.6c-0.8,1.5-2.8,1.8-3.9,0.5c-0.8-1-1.7-2-2.5-3
		C184.7,217,184.4,217,184,217L184,217z"/>
	<path class="st0" d="M189.9,92.2c-0.2,0.2-0.3,0.3-0.5,0.5c-0.7,1.4-1.1,11.3-4.1,12.1c-1.7,0.5-4.3-2.5-6.1-5.2l-5.2-4.7
		c-8.2-6.5-4.1,0.5-6.1-14.9c-0.5-0.3-1-0.5-1.5-0.8c-2.4,0.7-4.5-0.3-5.5-2.5c0,0,0,0,0,0c-2.2,0.9-4.7,0-5.8-2.1
		c-7.4-2.2-14.1-3.2-21.8-3.3c-10.5,0.1-18.9,1.7-28.5,5.5c-0.1,0.2-0.3,0.5-0.4,0.7c1,2.2,2.3,4.2,1.5,5.7
		c-0.4,0.7-1.1,1.1-1.9,1.1c-5.9-0.2-11.9,0.5-17.7,1.8c-1.9,0.4-3.5-1.6-2.5-3.3c3.3-6,7.4-11.5,12.1-16.5c1.1-1.2,3.2-1,3.9,0.6
		c0.5,1.2,1,2.4,1.6,3.6c0.3,0,0.6,0.1,0.9,0.1c10.5-4.2,19.7-5.9,31.2-6.1c8.5,0.1,15.8,1.2,23.9,3.7c2.3-1,5.1,0,6.2,2.2
		c0.2,0.2,4.1-1.5,6.1,2.7l1.8,1c3.4-1.4,6.9-2.7,10.4-3.7c2.1-0.6,7.7,4.3,8,5.2c1.3,0.2,6.8,5.2,7.1,6.4c1.3,0.4,4.8,4.7,5.8,5.9
		c1.3,1.6,0.3,3.9-1.7,3.8C197.2,91.6,193.5,91.8,189.9,92.2L189.9,92.2z"/>
</g>
</svg>
