<?xml version="1.0" encoding="utf-8"?>
<!-- Generator: Adobe Illustrator 21.1.0, SVG Export Plug-In . SVG Version: 6.00 Build 0)  -->
<svg version="1.1" id="Layer_1" xmlns="http://www.w3.org/2000/svg" xmlns:xlink="http://www.w3.org/1999/xlink" x="0px" y="0px"
	 viewBox="0 0 717.9 507.3" style="enable-background:new 0 0 717.9 507.3;" xml:space="preserve">
<style type="text/css">
	.st0{fill-rule:evenodd;clip-rule:evenodd;fill:#333232;}
</style>
<g>
	<path class="st0" d="M109.6,4.7C78.9,4.7,53.4,25.7,53.4,57c0,31.6,45.9,55,45.9,75.2c0,8.5-4.7,16.4-15.5,16.4
		c-16.1,0-26-20.8-28.1-32.8c-1.5-8.5-27.2,9.4-27.2,23.7c0,14.3,14,40.7,51.8,40.7c32.8,0,57.1-21.4,57.1-46.2
		c0-35.7-48-52.7-48-82.2c0-12.3,9.9-20.5,19-20.5c9.4,0,10.2,13.5,7,20.8c-2.9,5.9,1.8,11.1,12.6,10.5c11.1-0.9,17.3-12,18.1-22.8
		C147.4,29,138.9,4.7,109.6,4.7L109.6,4.7z M676.3,108.4c-2,5.6-22.2,49.6-46.5,63.3c-0.6,0.3-0.9,0.6-1.5,0.9
		c10.5-37.9,27.2-101,27.2-108.6c0-11.9-11.1-16.9-17.6-16.9c-4.7,0-8.8,4.7-11.7,11.1c-0.3,0.3-0.3,0.6-0.6,1.2
		c-3.2-9.7-11.1-18.7-22.5-18.7c-25.7,0-52.1,38-55,82.4c-5.4,10-13.1,20.6-22.8,20.6c-5.3,0-7.6-4.3-7.6-10.8
		c0-13.4,9.1-33.3,12.6-48.4c5.6-24.8-2.3-43.8-20.5-43.8c-10.2,0-20.2,6.7-29,17.2c-2-7-12.6-10.8-17.6-10.8
		c-5,0-9.1,4.7-11.7,11.1c-2.1,4.5-6.3,19.4-10.7,37.3c-5.2,8.6-12.3,16.8-20.9,16.8c-0.9,0-1.8,0-2.3-0.3c1.5-6.4,2-13.8,2-21.1
		c0-33.4-19-50.3-38.6-50.3c-28.4,0-58.2,30.1-63.1,74.5c-5.1,11.2-14.3,28.5-26.7,28.5c-5.3,0-7.6-4.3-7.6-10.8
		c0-23.3,20.8-59.1,20.8-68.8c0-12-11.4-17-17.6-17c-9.1,0-10.8,15.5-19.3,15.5c-11.7,0-3.8-21.1,1.8-27.8
		c5.6-6.4,1.2-21.6-14.6-21.6c-6.1,0-11.1,4.7-14,9.7c-5,8.8-11.1,24-11.1,39.5c0,5.6,0.9,10.2,2,14c0.5,13.3-4.7,28.3-9.5,39
		c-5.8,11.2-16.1,28.3-28.5,28.3c-5,0-9.9-4.3-9.9-10.7c0-9,3.2-22.4,7.6-37.3c7.3,0.6,13.5,1.2,17,1.7c4.7,0.6,5.9-16.9,5-20.7
		c-0.9-2.6-3.2-4.4-5.9-5c-1.2-0.6-4.1-0.9-7.9-1.2c8.8-25.2,17.8-48.3,17.8-53.2C217.3,5,206.2,0,199.7,0c-5,0-9.1,4.7-11.7,11.1
		c-2.3,5-12.3,30.1-20.8,59.1c-2.9,0.3-5.6,0.6-7.9,0.9c-5.6,0.9-7.9,2.6-8.2,11.7c0,4.1,0.3,13.2,2.9,12.9c2-0.3,4.1-0.3,6.1-0.6
		c-4.1,17.5-7.3,34.6-7.3,48c0,18.4,11.4,33.1,29,33.1c16.6,0,33.4-14.4,43.9-29.7c1.3-1.4,1.4-2,2.5-3.9c2.2-3.5,3.9-7,5.3-10.3
		c5.8-12.4,11-27.2,13.3-41.9c0.9,0,1.8,0,2.3,0c7.3,0,12.6-2.9,17-6.7c-5.6,17.5-13.2,40.2-13.2,59.4c0,39.7,39.6,46.1,67.4,5.7
		c5.6,17.4,18.9,27.3,38,27.3c19,0,36.9-13.2,48-33.1c0.6,0,1.2,0,1.8,0c8.6,0,17-3.7,24.5-9.3c-1.3,6.8-2.5,13.4-3.4,19.2
		c-2.3,13.5-2,23.1,13.2,23.1c7,0,11.4-5.3,12.6-12c2.3-13.2,5.9-28.6,9.7-43.8c9.1-31.5,20.2-45.4,29.3-45.4
		c6.7,0,6.1,9.9,3.5,19.8c-3.5,13.9-10.2,30-10.2,48.7c0,37.4,36,45.6,63.8,10.1c4.5,14.8,13.9,22.7,26,22.7c9.9,0,18.4-5.6,26-13.5
		c-1.8,7.6-3.5,14.9-5.3,21.7c-24.6,8.2-47.4,16.1-47.4,45.2c0,19.1,13.5,29.6,28.7,29.6c20.2,0,32.2-26.6,41.8-59.9
		c2.6-0.9,4.7-1.8,6.7-2.3c29.3-10.9,59.7-60.3,59.7-75.5C687.1,113.1,678.4,104,676.3,108.4L676.3,108.4z M588.5,139.8
		c-5.6,0-8.5-6.7-8.5-15.4c0-26.5,15.5-53.6,26.9-53.6c9.1,0,7.9,17.2,3.2,34.4C606.1,120.6,597.9,139.8,588.5,139.8L588.5,139.8z
		 M574.8,238.4c-3.2,0-5-2.6-5-6.4c0-7.9,9.1-14.7,20.2-20.6C585.9,225.2,580.9,238.4,574.8,238.4L574.8,238.4z M359.8,149.2
		c-8.8,0-11.7-7.9-11.7-19.3c0-29.5,18.1-60.6,33.1-60.6c12.6,0,13,17.2,11.1,26.6c-5.6,2-10.2,7.9-10.2,18.7c0,2.9,0.3,6.4,1.5,9.7
		C376.7,138.4,367.4,149.2,359.8,149.2L359.8,149.2z"/>
	<path class="st0" d="M209.1,442.7c-5.2,11.2-14.2,27.8-26.4,27.8c-5.3,0-7.6-4.3-7.6-10.8c0-13.4,18.7-61,23.4-83.5
		c5.3-24.5-4.4-45.6-27.2-45.6c-13.5,0-28.4,12.3-39.8,28.7c-1.2-16.4-11.1-28.7-28.4-28.7c-12.3,0-25.5,9.9-36.3,24
		c1.5-8.2-6.7-11.1-13.2-11.1c-7.6,0-16.4-2.9-19,16.1c-2.6,19-15.2,69.4-33.1,123.5c-3.8,11.1-1.5,15.2,11.1,15.2
		c10.2,0,16.1,1.5,21.1-10.5c4.7-11.7,12.6-46.4,19.3-77.4c9.7-31.2,24.6-45.2,33.6-45.2c8.2,0,9.9,7.9,7.9,18.1
		c-2.3,10.5-19,72.7-23.1,96.6c-2,11.7-1.5,23.1,14,23.1c6.7,0,13.8-5.3,15.2-12c6.4-25.4,14.9-57.5,21.4-82.6
		c9.4-29.7,24-43.2,32.8-43.2c8.5,0,9.9,8.4,7.6,18.4c-3.2,14-21.1,68-21.1,86.6c0,18.4,12,32.8,29.5,32.8
		c15.7,0,30.7-12.9,40.5-27.2c5.6,17.3,18.9,27.2,37.9,27.2c19,0,36.9-13.2,48-33.1c0.6,0,1.2,0,1.8,0c8.8,0,17.5-3.9,25.1-9.7
		c-0.3,3.4-0.5,6.6-0.5,9.7c0,18.4,11.4,33.1,29,33.1c11.8,0,23.7-7.3,33.4-17c-1,10.2,1.2,17,14,17c7,0,11.4-5.3,12.6-12
		c2.6-13.2,5.9-27.7,9.4-42.9c9.1-32,20.2-46.3,29.5-46.3c6.7,0,5.9,9.9,3.5,19.8c-3.5,13.9-10.2,30-10.2,48.7
		c0,38.5,37.5,45.6,65.3,7.9c8,18.5,25.7,29.3,44.1,29.3c28.7,0,46.5-15.5,57.9-34.3c0.2-0.2,0.4-0.5,0.6-0.8
		c8.2-13.9,17-34.6,20.2-55c0.9,0,1.8,0,2.3,0c7.3,0,12.6-2.9,17-6.7c-5.6,17.5-13.2,40.2-13.2,59.4c0,18.4,9.1,33.1,26.6,33.1
		c26.9,0,52.1-38,52.1-55.7c0-8.7-5-14.6-9.1-14.6c-1.8,0-12.9,37.8-31.3,37.8c-5.3,0-7.6-4.3-7.6-10.8c0-23.3,20.8-59.1,20.8-68.8
		c0-12-11.4-17-17.6-17c-9.1,0-10.8,15.5-19.3,15.5c-11.7,0-3.8-21.1,1.8-27.8c5.6-6.4,1.2-21.6-14.6-21.6c-6.1,0-11.1,4.7-14,9.7
		c-5,8.8-11.1,24-11.1,39.5c0,5.6,0.9,10.2,2,14c0.4,10.7-2.9,22.6-6.7,32.4c-0.3,0.1-0.5,0.4-0.6,0.7
		c-8.8,19.9-22.5,42.7-47.7,42.7c-11.1,0-21.1-3.8-24.6-14.6c17.3,1.8,59.4-25.5,61.7-62.6c0.9-19-10.2-34.2-29.8-34.2
		c-26.3,0-61.8,31.7-64.2,82.6c-5.3,9.9-13,20.4-22.7,20.4c-5.3,0-7.9-4.3-7.9-10.8c0-13.4,9.4-33.3,12.9-48.4
		c5.6-24.8-2.6-43.8-20.5-43.8c-10.5,0-20.8,7-29.3,17.8c8.2-30.1,15.8-55.2,19.3-64.9c3.8-11.1-11.1-17.3-17.6-17.3
		c-5,0-9.1,4.7-11.7,11.1c-3.3,7.3-20.9,71-32.7,122.3c-4.8,9.6-16.6,33.9-31.4,33.9c-5,0-9.9-4.3-9.9-10.7c0-9,3.2-22.4,7.6-37.3
		c7.3,0.6,13.5,1.2,17,1.7c4.7,0.6,5.9-16.9,5-20.7c-0.9-2.6-3.2-4.4-5.9-5c-1.2-0.6-4.1-0.9-7.9-1.2c8.8-25.2,17.8-48.3,17.8-53.2
		c0-12.3-11.1-17.3-17.6-17.3c-5,0-9.1,4.7-11.7,11.1c-2.3,5-12.3,30.1-20.8,59.1c-2.9,0.3-5.6,0.6-7.9,0.9
		c-5.6,0.9-7.9,2.6-8.2,11.7c0,4.1,0.3,13.2,2.9,12.9c2-0.3,4.1-0.3,6.1-0.6c-0.3,1.1-0.5,2.2-0.8,3.3c-5,7.5-11.4,14-19.1,14
		c-0.9,0-1.8,0-2.3-0.3c1.5-6.4,2-13.8,2-21.1c0-33.4-19-50.3-38.6-50.3C243.8,367.5,213.7,397.9,209.1,442.7L209.1,442.7z
		 M567.5,397.6c2.6,0,3.8,2,3.5,5c-0.9,14.6-21.4,32.2-31.9,32.2C545.2,409.9,561.6,397.6,567.5,397.6L567.5,397.6z M250.9,476
		c-8.8,0-11.7-7.9-11.7-19.3c0-29.5,18.1-60.6,33.1-60.6c12.6,0,13,17.2,11.1,26.6c-5.6,2-10.2,7.9-10.2,18.7c0,2.9,0.3,6.4,1.5,9.7
		C267.9,465.2,258.5,476,250.9,476L250.9,476z"/>
	<path class="st0" d="M513,188.9l-180,15c-12.4-2-7.4-1.2-20.8,1.7l-146.1,12.2l1.8,6.6l-3,4.1c4.2,9.5,3,10.4-2.1,18.4l5,10.4
		l16,0.1c-8.3,2.9-11.9,4.7-20.2,6c2.6,6.1,0.9,4,7.5,8.7c-5,5.1-4.4,3.8-7.1,9c3,7.3,2.8,4.8,2,11.1l-8.3,2.6l-0.2,3.6l8.9-1.4
		c-4.6,5.1-2.1,3.4-12.7,6.5l-1.1,8l146.9-12.2c14.2,1.4,6,2,19.5-1.6l180.5-15L498,276l2.8-4.3c-4.3-9.4-2.9-10.5,2.1-18.2l-5-10.4
		l-16-0.1c8.3-2.9,11.9-4.7,20.2-6.2c-2.6-6.1-0.9-4-7.5-8.7c5-4.9,4.4-3.6,7.1-8.8c-3-7.3-2.8-4.8-2-11.1l8.3-2.8l0.2-3.4l-8.9,1.2
		c4.6-5.1,2.1-3.4,12.7-6.4L513,188.9L513,188.9z M296.2,247c-5.8,9.5-12.8,24.9-19.9,25.5c-10.9,0.9,9.6-41.7,9.2-47.1
		c-0.3-3.3-6.2-15.3-16.3,1.8c-8.8-22.5-50.8,10.1-47.6,49.2c1.7,20,19.4,26,35.1,1.7c1.3,5.6,5.3,13.7,15.6,12.8
		c16.5-1.4,31.6-34.6,37.8-49.7c1.6,19.3,7.9,40.7-8.1,41c-4.6,0.1-5.7-4-8.5-3.8c-6.6,0.5-2.1,17.6,15.6,16.1
		c15.7-1.3,22.4-16.8,21.6-26.4c-1.6-19.6-6.8-46.7,0.6-55c7.4-8.1-26.5-5.4-26.5,8C304.5,224.7,300.1,237,296.2,247L296.2,247z
		 M459.9,226.7c-6.4,0.5-16.3,31.9-26.6,32.7c-10.9,0.9,9.6-41.7,9.2-47.1c-0.3-3.3-6.2-15.3-16.3,1.8
		c-8.8-22.5-50.8,10.1-47.6,49.2c1.7,20,19.4,26,35.1,1.7c1.3,5.7,5.3,13.7,15.6,12.8C450.7,276,467.7,226.1,459.9,226.7
		L459.9,226.7z M399.5,262.3c-13.6,1.1,3.1-42.3,16.3-43.4c4.4-0.4,5.2,3.2,5.1,6.5c-2.2,5.2-4,10.8-5.4,16.3
		C412.3,249.2,406,261.7,399.5,262.3L399.5,262.3z M242.5,275.3c-13.6,1.1,3.1-42.3,16.3-43.4c4.4-0.4,5.2,3.2,5.1,6.5
		c-2.2,5.2-4,10.8-5.4,16.3C255.3,262.3,249,274.8,242.5,275.3L242.5,275.3z"/>
</g>
</svg>
