<?xml version="1.0" encoding="utf-8"?>
<!-- Generator: Adobe Illustrator 21.1.0, SVG Export Plug-In . SVG Version: 6.00 Build 0)  -->
<svg version="1.1" id="Layer_1" xmlns="http://www.w3.org/2000/svg" xmlns:xlink="http://www.w3.org/1999/xlink" x="0px" y="0px"
	 viewBox="0 0 687.3 389" style="enable-background:new 0 0 687.3 389;" xml:space="preserve">
<style type="text/css">
	.st0{fill:#333232;}
</style>
<g>
	<path class="st0" d="M359.8,90.1c0,1.9,0.1,3.9,0.5,5.5c1.8,6.8,9.6,5.5,9.5-1.1c-0.1-7.5,1.2-14.7,2.4-21.9
		c2.3-12.4,6-24.4,12.1-35.5c3-5.7,10.4-15.1,13.2-3.5c1.2,5,3.2,10.7,3.4,15.9c0.1,12.9-0.6,25.9-0.7,38.9
		c-0.1,3.7-0.8,7.6,0.8,11.1c1.6,3.6,4.5,4.3,7,2.1c1.8-1.8,3.3-4.2,4.1-6.6c0.9-2.3,1-6.3,1.4-8.8c2.9-17.3,7.9-33.6,16.4-48.8
		c1.2-2.1,7.9-11.8,8.6-4.5c0.6,5.1,1.1,10,1.2,15c0.3,10.1-1.6,20.2,0,30.3c1,6,1.7,11.7,5.3,16.6c4.2,5.8,11,8.1,17.3,5.4
		c9.1-3.9,14.6-11.3,18.9-20.5c2.2,9.3,5.8,19,15.7,20.9c6.2,1.2,11.9-0.4,17.1-4.3c10.3-7.6,13.9-18.8,16.6-20.2
		c1.1-0.6,2.4-0.3,4.4,0.3c8.7,2.2,16.4,0.1,23.6-4.9c0,4.1-0.2,21,0.7,24.3c1.8,6.8,9.6,5.5,9.5-1.1c-0.1-7.5,1.2-14.7,2.4-21.9
		c2.3-12.4,6-24.4,12.1-35.5c1.7-3.1,4.2-5.5,6.4-8.1c3.1-3.5,5.9,1,6.7,4.6c1.2,5,3.2,10.7,3.4,15.9c0.1,12.9-0.6,25.9-0.7,38.9
		c-0.1,3.7-0.8,7.6,0.8,11.1c1.6,3.6,4.5,4.3,7,2.1c1.8-1.8,3.3-4.2,4.1-6.6c0.9-2.3,1-6.3,1.4-8.8c2.9-17.3,7.9-33.6,16.4-48.8
		c1.3-2.2,3-4.3,4.8-6.1c1.9-1.9,3.6-1.1,3.8,1.7c0.6,5.1,1.1,10,1.2,15c0.3,10.1-1.6,20.2,0,30.3c1,6,1.7,11.7,5.3,16.6
		c4.2,5.8,11,8.1,17.3,5.4c14.7-6.2,19.3-21.2,24.8-35.6c0.8-2,0.7-7.1-3-8.1c-3.4-0.9-4.8,1.5-5.9,4.3c-3.2,7.1-6.3,14.5-9.8,21.4
		c-2,3.7-5.2,6.6-9,8.5c-2.1,0.9-3.6,0.6-5.2-0.7c-2.7-2.3-3.7-5.4-4.2-8.4c-1.9-10.2-1.6-20.4-0.7-30.5c0.7-8-0.1-15.9-2-23.5
		c-1.7-6.7-8.2-11.8-16.6-5.8c-2.9,2.1-5.6,5-7.5,8.1c-3.4,5.8-6.2,12.1-9.2,18.3c-0.4,0.8-0.8,2.7-1.8,3.5
		c-1.9-0.7-1.9-2.8-2.4-8.1c-0.6-6.1-2.3-12-4.9-17.7c-3-7.1-11.5-11.1-19.8-5c-5.1,3.7-8.4,8.5-11.1,14.2c-0.7,1.7-1.8,3.2-3.8,6.9
		c-0.2-7,0.9-14.6-0.6-20.8c-0.4-1.9-2.7-3.6-4.4-3.4c-2.2,0-4.2,1.9-4.3,4.2c-0.6,5.2-1,10.3-1.1,15.4c-0.1,5-0.1,10,0,15.2
		c-0.5,0.9-0.8,1.7-1.2,2.6c-3.7,7.7-10,10.5-17.6,10.5c-8.9,0-3.7-7.8-2.9-19.5c0.9-10.5-0.7-20.5-5.1-29.8
		c-2.3-4.8-5.7-8.5-11.1-8.5c-5.5-0.1-8.9,3.7-11.4,8.8c-4.2,8.7-4.9,18-3.4,27.7c1.5,8.5,5,16.2,11.1,22c2.3,2.2,2.3,4.3,0.9,7.2
		c-2.4,5.4-5.9,9.4-10.1,12.9c-6.3,5.2-12.1,3-14.8-4.6c-3.2-8.8-3.2-17.8-2.6-26.8c1-14.1,2.5-28.5,12.5-40
		c2.1-2.2,1.9-5.8,0.4-7.6c-1.6-2-7.4-2.2-9.9,1.7c-1.7,2.5-4.7,6.1-6.2,9.3c-5.3,12.2-7.5,25-8.2,40.2c-0.9,1.6-1.6,3.4-2.3,5.1
		c-2.9,6.3-5.4,12.6-8.6,18.7c-2,3.7-5.2,6.6-9,8.5c-2.1,0.9-3.6,0.6-5.2-0.7c-2.7-2.3-3.7-5.4-4.2-8.4c-1.9-10.2-1.6-20.4-0.7-30.5
		c0.7-8-0.1-15.9-2-23.5c-1.7-6.7-8.2-11.8-16.6-5.8c-2.9,2.1-5.6,5-7.5,8.1c-3.4,5.8-6.2,12.1-9.2,18.3c-3.2,6-3.8-0.8-4.2-4.6
		c-0.6-6.1-2.3-12-4.9-17.7c-3-7.1-11.5-11.1-19.8-5c-5.1,3.7-8.4,8.5-11.1,14.2c-0.7,1.7-1.8,3.2-3.8,6.9c-0.2-7.2,1-14.1-0.6-20.8
		c-0.4-1.9-2.7-3.6-4.4-3.4c-2.2,0-4.2,1.9-4.3,4.2c-0.6,5.2-1,10.3-1.1,15.4C359.7,54.9,359.5,72.6,359.8,90.1L359.8,90.1z
		 M522.7,22.4c3.7,8.5,4.4,17.4,3.1,26.5c-0.4,2.2-0.9,4.6-1.7,8.7c-7.9-9.7-9.9-19.8-4.8-35.2C520.4,18.2,521.5,20.2,522.7,22.4
		L522.7,22.4z"/>
	<path class="st0" d="M438.1,196.6c-0.1,0.7-0.3,1.3-0.7,2.8c-1.5-0.6-2.8-0.8-3.4-1.5c-11.2-11.2-12.9-25.5-4.6-38.6
		c1.9-3.2,4.6-2.4,6.5,0.3C442.4,168.4,439.2,186.5,438.1,196.6L438.1,196.6z M359.8,219.5c0.6,6.8,0.2,11,3.3,17.2
		c4.3,8.4,12.4,9.7,19.6,3.6c4.5-3.7,6.6-8.8,9-13.9c0.7-1.7,1.3-3.3,2.1-5c0.7-1.3,2.5-1.3,3.2,0.2c2.1,4.4,3.8,9.1,6.5,13.2
		c6.1,9.9,16.9,12.9,27.4,2.8c5.7-5.2,9.1-11.5,12.1-18.2c1.2-3,2.7-5,7-5.1c5.7-0.1,13.6-2.3,18.4-5.7c0.1,7.5,0.6,14.9,3.2,22.2
		c1.1,2.8,2.2,5.8,4,8.4c5.3,7.4,16,3.6,21.1-3c3.3-4.3,6.8-11.1,9.9-17.8c0.2,2.4,0.4,4.8,0.5,7.3c0.6,11.4,3.7,22.2,7.6,32.8
		c4.9,13.8,21.5,25.1,33.7,14.4c4.3-3.7,7-8.2,7.6-13.9c0.8-7-0.7-13.5-5.5-18.9c-2.1-2.4-2.3-4,0.9-5.8c4.6-2.6,9.1-5.6,13.3-8.7
		c4.5-3.1,8-6.9,11-11.1c1.9,8.6,5.6,16.4,13,22.5c6.9,5.8,17.1,7.9,25.3,3.1c4.5-2.5,8.7-6.1,12.1-9.9c6.1-6.5,9.7-14.5,13.2-22.6
		c1.3-2.8,2.7-5.7,3.5-8.5c1.6-6.2-7.7-8.8-10.6-2.2c-5.3,11.8-9.5,23.9-20.4,32.2c-12.8,9.8-22.3-5.3-24.7-15.6
		c-0.7-3.5-1.2-6.9-1.8-10.3c-0.6-3.9,0.3-4.2,4.5-4.7c7.6-0.7,14.5-3.3,19.6-8.7c11.8-12,8.5-31.7-4.8-41c-3.5-2.4-7.5-3.5-12-1.9
		c-6.7,2.2-10.8,6.9-13.4,13c-4.5,10.6-5.3,21.9-6,34.7c0,0.3,0.1,0.6,0.1,1c-4.5,5.2-2.7,12.7-20.3,24.9c-7.5,5.2-15.9,9.5-26,9
		c-3.2-0.3-7.5,3.3-7.8-1.7c-0.4-7.3-0.9-14.7-1.5-22c-0.7-8.6,10.6,0.5,31.5-20.8c15.1-15.1,24.8-32.7,26.5-53.6
		c0.6-7.3-1.1-14.5-5.5-20.5c-3.4-4.6-8.1-7.2-14.5-7.2c-8.5-0.2-15,3.7-20.4,9.6c-28.5,30.3-27.9,82.3-28.8,84.4
		c-0.4,0.4-0.7,0.7-1,1c-1.2,1.2-5.7,10.5-6.4,11.8c-1.2,2.4-1.9,5-3.2,7.2c-2.4,4.3-4.8,8.5-7.5,12.7c-2.3,3.9-5.3,2.5-6.5-1.2
		c-0.7-3.5-1.6-7-1.9-10.6c-0.3-6.9-0.5-13.9-0.2-21c0.1-6.4,0.9-13,1.2-19.5c0.2-4.1,0.3-8,0.2-11.9c0-2.7-1.9-4.5-4.5-4.6
		c-1.8-0.3-4.4,1.5-5,3.5c-0.6,1.9-1.1,3.7-1.2,5.7c-0.5,8-1.2,15.9-1.6,23.9c-3.6,1.4-5.9,7.5-16.6,9.1c-2.7,0.4-4.2-0.6-3.7-3.1
		c0.8-4.8,1.9-9.6,2.4-14.4c1-11.7,1-27.4-8.5-35.9c-4.8-4.2-9.7-5-15.4-2.2c-5.2,2.4-8.3,6.4-10.5,11.4
		c-7.6,17.4-1.9,36.4,11.4,47.6c3.2,2.9,7.4,3.2,4.8,9.5c-2.1,4.1-4.8,8.3-7.5,12c-1.9,2.5-4.3,4.8-7.9,4.5
		c-3.9-0.4-5.7-4.6-7.2-7.8c-6.1-13-5-23.5-7.2-29.7c-1.5-4.3-6.9-5.2-9.7-1.5c-1.9,2.5-3.3,5.5-4.5,8.7c-3.3,8-6.3,16.2-9.6,24.1
		c-5.8,14.3-8.7-3.1-8.7-9.1c-0.1-11.8,0-23.6,0-35.3c0-6.5,1.8-17,2.3-24.6c0.5-7.9-10.4-8.6-11.1-0.4c-0.4,7.2-1.1,18-1.3,26.1
		C359.8,193.9,359,209.7,359.8,219.5L359.8,219.5z M475.2,152.1c2.7,0,4.4-2.6,4.4-4.8c0-2.5-2.3-4.4-4.6-4.4
		c-2.5,0-4.8,2.5-4.6,4.6C470.5,149.6,472.7,152.3,475.2,152.1L475.2,152.1z M524.4,242c10.5-3.1,19.6,2.8,19.8,13.4
		c0.1,13.4-12.4,15.1-19.3-2.4c-0.9-2.4-1.7-5-2.4-7.5C522,244.4,523.3,242.4,524.4,242L524.4,242z M553.4,114.9
		c5.6,0.1,8.4,2.8,9.7,7.2c1.8,6.4,0.9,12.9-0.8,18.8c-4.6,16.6-13.9,30.4-27.5,41.5c-1.5,1.2-3,2.5-4.8,3.4
		c-3,1.5-6.3,2.7-10.3,4.3c0-4.3-0.2-7.5,0.1-10.6c2.4-22.4,8.5-35.3,19.9-54.1c1.8-3,4.6-5.7,7.5-7.8
		C549.2,116.2,551.3,115.7,553.4,114.9L553.4,114.9z M605.5,165.5c4.2,11.5-3.9,22.3-16.8,22.3c-2.2-0.1-3.9-0.9-3.5-3.6
		c1.2-8.4,1.1-13.6,5-21.6c1.1-2.4,2.5-5.8,6.3-5.7C601.2,157,603.9,161.9,605.5,165.5L605.5,165.5z"/>
	<path class="st0" d="M362.4,354c0.4,7.6,1.8,14.4,4.5,21.6c3.5,9.3,16.4,16,29,7c1.7-1.1,3-2.2,4-3.6c3.7-5.3,5.5-7.9,7.9-13.7
		c1,4.5,3.5,11.2,6.4,14.9c5.8,7.4,17.7,3.6,23.4-3c3.6-4.3,7.5-11,10.9-17.8l1.4,17.2c0,1.6,0,3.1,0.5,4.8c0.7,2.1,3.2,4,6,4.3
		c3.2,0.4,5-0.3,5.9-2.8c2.3-5.8-0.1-11.3,0.5-16.6c1.2-9.9,2.5-19.7,4.2-29.5c1.8-9,4.8-17.7,10.3-25.5c3.8-5.2,6-5,10,0.4
		c3.1,4.1,5,9,8.6,13c2,1.9,6,2.4,8.1,1.2c2-0.9,3.2-3.4,2-5.4c-4-6.6-7.8-13.2-12.8-19.3c-5.1-6.1-15.8-6.9-21.7-1.7
		c-4.5,4.1-8.1,8.2-10.4,13.5c-2.8,5.7-3.7,4.2-4-0.7c-0.3-4.3-0.5-8.7-1.1-13c-0.5-3.7-2.2-5-6.3-5.1c-7.1-0.3-5.9,4.7-5.5,9.1
		c0.8,12.2,1.9,24.3,2.9,36.5c-3.3,6.1-6.9,13-10.4,18.7c-2.7,4.3-5.3,8.5-8.3,12.7c-2.5,3.9-5.9,2.5-7.2-1.2
		c-0.8-3.5-1.8-7-2.1-10.6c-0.4-6.9-0.5-13.9-0.2-21c0.1-6.4,1-13,1.3-19.5c0.2-4.1,0.3-8,0.2-11.9c0-2.7-2.2-4.5-5-4.6
		c-2-0.3-4.9,1.5-5.6,3.5c-0.7,1.9-1.2,3.7-1.3,5.7c-0.7,8.6-1.4,17.2-1.9,25.8c-5,10.2-8.6,20.1-13.2,30.4c-1,2.2-3,4.5-4.8,6.1
		c-5.1,4.6-9.8,0.7-10.4-2.7c-3.6-12.4-3.7-19.3-4.5-31.9c-0.8-13.9-0.3-28-0.1-42.1c0-6.7,1.8-4.7,9.3-5.4c3-0.6,4.6-2.5,4.6-4.9
		c0-2.6-0.6-3.5-4-4.3c-2-0.4-4-0.9-6-0.9c-5.9-0.2-3.3-10.8-4-16.3c-0.4-4-7.8-5-10.1-0.9c-1.8,3.1-1.4,9.8-1.3,13.2
		c0,2.8-1,5-5.1,5.1c-4,0-9.7,1.6-8.8,6.2c0.5,3.8,4.5,4.6,8.3,4.2c3.6-0.4,4.6,1.5,4.5,3.7C360.8,316.6,361,334,362.4,354
		L362.4,354z M413.8,293.4c3.4,0.1,5-3.4,4.8-5.5c-0.4-1.9-1.5-4.4-4.9-4.4c-4.1,0-5.3,3.2-5.1,5.3
		C408.6,290.8,410.5,293.5,413.8,293.4L413.8,293.4z M526.7,328.8c-2.5-0.1-4.3-0.9-3.8-3.6c1.3-8.4,1.3-13.6,5.5-21.6
		c1.3-2.4,2.8-5.9,7-5.7C550.5,298.8,551.5,328.8,526.7,328.8L526.7,328.8z M577,335.2c-4.8,3.3-7.9,23.2-24.7,34.8
		c-14.2,9.8-24.8-5.3-27.4-15.6c-0.8-3.5-1.3-6.9-2-10.3c-0.7-3.9,0.3-4.2,5-4.7c8.5-0.7,16.1-3.3,21.7-8.7c13.1-12,9.5-31.7-5.3-41
		c-3.8-2.4-8.3-3.5-13.3-1.9c-7.5,2.2-12,6.9-14.8,13c-5,10.6-5.8,21.9-6.7,34.7c0.7,4.7,0.8,11,2.2,17.1c1.8,9.7,6,18.6,15,25.3
		c7.6,5.8,18.9,7.9,28,3.1c9.7-5,17.2-12.7,22.4-21.5c0.8,5.6,3.1,10.6,6.3,15.2c6.6,9,21.2,12.7,31.4,3.3c3-2.8,5.8-6.5,8-9.9
		c2.3-4,3.8-8.5,5.8-12.9c1.9-3.3,4.1-0.8,4.1,0.4c1,7.2,3.8,13.8,8.4,19.5c8.8,11.1,23.5,10.6,32-0.8c4.1-5.7,7.2-15.2,9.1-21.7
		c1.8-6.3,3.3-12.6,5-18.8c0.5-2.6-1.3-5.1-3.8-5.8c-3-0.9-6,0-7.3,2.7c-1.2,2.8-2,5.7-2.8,8.6c-2.1,6.5-6.7,24.4-10.4,29.2
		c-3.3,4.5-6.2,4.6-10.6,1.2c-3.6-2.8-5.2-6.9-6.3-10.6c-3.8-12.9-5.5-26-6.5-39.2c-0.8-9.9-1.3-19.6-1.3-29.4
		c0-15.7,0.5-31.3,0.7-46.9c0-1.5-0.3-3-1-4.5c-2.7-6.7-10.6-3.5-10.9,2.1c-1.5,16.1-1.3,27.7-1.3,43.3c0,3.6-0.7,4-4.5,2.7
		c-7.8-2.8-15.1-1.5-21.7,3c-4.8,3.5-9,7.5-11.6,12.6C582.2,313.3,578.5,324.1,577,335.2L577,335.2z M621.4,301
		c3.8,4.9,5.3,10.8,4.6,16.3c-2.3,15.3-6.1,30.3-13.5,44.3c-1.5,2.8-3.3,6-5.8,8.4c-4.1,3.9-7.8,3.6-12-0.2
		c-5.1-4.6-6.1-10.8-6.5-16.5c-1-14.7,1.8-29,8.3-42.5c2.7-5.8,9.2-14.1,17.1-13.8C617.3,296.9,619.6,298.6,621.4,301L621.4,301z"/>
	<path class="st0" d="M53.3,83c-2.3-28.5-31.4-35.1-35-53.7C16.1,15.3,34,16.1,34,22.5c0,4.7,18.1,4.7,18.1,0
		c0-8.4-6.4-20.8-20.8-22.3C2.6-2.5-1.5,21,0.9,34.2c1.6,8,6.1,14.5,11.4,20.4C18,60.9,25,66,30.4,72.7c3.5,4.8,7.2,11.3,3.2,17
		c-9.6,9.5-15.8-1.1-15.8-5.1c0-4.8-17.8-4.8-17.8,0c0,1.6,0.5,5.7,0.8,7.3c0.5,1.6,1.3,3.2,1.9,4.6c2.1,4.7,6.1,8.4,10.3,11.1
		c6.5,4.1,15.6,5.1,22.7,2.1c6.3-2.8,9.4-4.9,13.4-10.8C52.1,94.5,53.6,88.4,53.3,83L53.3,83z M126,3.7c0-4.8-18.1-4.8-18.1,0v68.4
		c0,29.1-25.8,28.9-25.8-0.2V3.6c0-4.8-18.1-4.8-18.1,0v68.4c0,52.9,62,52.5,62,0.2V3.7L126,3.7z M198.6,34.7
		c0.2-12.2-3.2-24.3-14-31.2c-4.9-3.2-11.3-3.3-17-3.3h-16.4c-11.1,0.2-11.3,2.5-11.3,10V108c0,4.8,18.1,4.8,18.1,0V67.6
		c10,0,20.5,1.4,28.9-5.1C197,55,198.4,44.9,198.6,34.7L198.6,34.7z M180.4,38c-0.3,2.5-1.4,11.4-8.7,11.4H158V18h12.1
		c7.3,0,9.5,3,10.2,8.9C180.6,29.9,180.6,36.3,180.4,38L180.4,38z M225,93.4V65.5h15.9c4.8,0,4.8-18.3,0-18.3H225V18.3h22.6
		c4.8,0,4.8-18.1,0-18.1l-31-0.2c-9.7,0.2-9.7,0.2-9.7,8.7v94.1c0,8.6,0,8.6,10.2,8.6h30.7c4.8,0,4.8-18.1,0-18.1H225L225,93.4z
		 M324.9,102.4c-4.9-12.1-10.5-25.9-15.6-38c1-0.6,1.9-1.3,3-1.9c10-7.5,11.4-17.6,11.6-27.8c0.2-12.2-3.2-24.3-14-31.2
		c-4.9-3.2-11.3-3.3-17-3.3h-16.4c-11.1,0.2-11.3,2.5-11.3,10V108c0,4.8,18.1,4.8,18.1,0V67.6h7.8c5.5,13.4,11.5,28.7,17.2,41.8
		C310.5,114.2,328.3,110.4,324.9,102.4L324.9,102.4z M283.4,49.5V18h12.1c7.3,0,9.5,3,10.2,8.9c0.3,3,0.3,9.4,0.2,11.1
		c-0.3,2.5-1.4,11.4-8.7,11.4H283.4L283.4,49.5z"/>
	<path class="st0" d="M53.3,221.7c-2.3-28.5-31.4-35.1-35-53.7c-2.2-14,15.7-13.2,15.7-6.8c0,4.7,18.1,4.7,18.1,0
		c0-8.4-6.4-20.8-20.8-22.3c-28.7-2.7-32.8,20.8-30.4,34c1.6,8,6.1,14.5,11.4,20.4c5.7,6.4,12.7,11.4,18.2,18.1
		c3.5,4.8,7.2,11.3,3.2,17c-9.6,9.5-15.8-1.1-15.8-5.1c0-4.8-17.8-4.8-17.8,0c0,1.6,0.5,5.7,0.8,7.3c0.5,1.6,1.3,3.2,1.9,4.6
		c2.1,4.7,6.1,8.4,10.3,11.1c6.5,4.1,15.6,5.1,22.7,2.1c6.3-2.8,9.4-4.9,13.4-10.8C52.1,233.2,53.6,227.1,53.3,221.7L53.3,221.7z
		 M126,142.5c0-4.8-18.1-4.8-18.1,0v68.4c0,29.1-25.8,28.9-25.8-0.2v-68.4c0-4.8-18.1-4.8-18.1,0v68.4c0,52.9,62,52.5,62,0.2V142.5
		L126,142.5z M198.6,173.4c0.2-12.2-3.2-24.3-14-31.2c-4.9-3.2-11.3-3.3-17-3.3h-16.4c-11.1,0.2-11.3,2.5-11.3,10v97.8
		c0,4.8,18.1,4.8,18.1,0v-40.4c10,0,20.5,1.4,28.9-5.1C197,193.8,198.4,183.6,198.6,173.4L198.6,173.4z M180.4,176.7
		c-0.3,2.5-1.4,11.4-8.7,11.4H158v-31.5h12.1c7.3,0,9.5,3,10.2,8.9C180.6,168.6,180.6,175,180.4,176.7L180.4,176.7z M225,232.1
		v-27.8h15.9c4.8,0,4.8-18.3,0-18.3H225V157h22.6c4.8,0,4.8-18.1,0-18.1l-31-0.2c-9.7,0.2-9.7,0.2-9.7,8.7v94.1
		c0,8.6,0,8.6,10.2,8.6h30.7c4.8,0,4.8-18.1,0-18.1H225L225,232.1z M324.9,241.1c-4.9-12.1-10.5-25.9-15.6-38c1-0.6,1.9-1.3,3-1.9
		c10-7.5,11.4-17.6,11.6-27.8c0.2-12.2-3.2-24.3-14-31.2c-4.9-3.2-11.3-3.3-17-3.3h-16.4c-11.1,0.2-11.3,2.5-11.3,10v97.8
		c0,4.8,18.1,4.8,18.1,0v-40.4h7.8c5.5,13.4,11.5,28.7,17.2,41.8C310.5,252.9,328.3,249.1,324.9,241.1L324.9,241.1z M283.4,188.2
		v-31.5h12.1c7.3,0,9.5,3,10.2,8.9c0.3,3,0.3,9.4,0.2,11.1c-0.3,2.5-1.4,11.4-8.7,11.4H283.4L283.4,188.2z"/>
	<path class="st0" d="M53.3,360.5c-2.3-28.5-31.4-35.1-35-53.7c-2.2-14,15.7-13.2,15.7-6.8c0,4.7,18.1,4.7,18.1,0
		c0-8.4-6.4-20.8-20.8-22.3c-28.7-2.7-32.8,20.8-30.4,34c1.6,8,6.1,14.5,11.4,20.4c5.7,6.4,12.7,11.4,18.2,18.1
		c3.5,4.8,7.2,11.3,3.2,17c-9.6,9.5-15.8-1.1-15.8-5.1c0-4.8-17.8-4.8-17.8,0c0,1.6,0.5,5.7,0.8,7.3c0.5,1.6,1.3,3.2,1.9,4.6
		c2.1,4.7,6.1,8.4,10.3,11.1c6.5,4.1,15.6,5.1,22.7,2.1c6.3-2.8,9.4-4.9,13.4-10.8C52.1,371.9,53.6,365.9,53.3,360.5L53.3,360.5z
		 M126,281.2c0-4.8-18.1-4.8-18.1,0v68.4c0,29.1-25.8,28.9-25.8-0.2V281c0-4.8-18.1-4.8-18.1,0v68.4c0,52.9,62,52.5,62,0.2V281.2
		L126,281.2z M198.6,312.1c0.2-12.2-3.2-24.3-14-31.2c-4.9-3.2-11.3-3.3-17-3.3h-16.4c-11.1,0.2-11.3,2.5-11.3,10v97.8
		c0,4.8,18.1,4.8,18.1,0V345c10,0,20.5,1.4,28.9-5.1C197,332.5,198.4,322.3,198.6,312.1L198.6,312.1z M180.4,315.5
		c-0.3,2.5-1.4,11.4-8.7,11.4H158v-31.5h12.1c7.3,0,9.5,3,10.2,8.9C180.6,307.4,180.6,313.7,180.4,315.5L180.4,315.5z M225,370.8
		V343h15.9c4.8,0,4.8-18.3,0-18.3H225v-28.9h22.6c4.8,0,4.8-18.1,0-18.1l-31-0.2c-9.7,0.2-9.7,0.2-9.7,8.7v94.1
		c0,8.6,0,8.6,10.2,8.6h30.7c4.8,0,4.8-18.1,0-18.1H225L225,370.8z M324.9,379.9c-4.9-12.1-10.5-25.9-15.6-38c1-0.6,1.9-1.3,3-1.9
		c10-7.5,11.4-17.6,11.6-27.8c0.2-12.2-3.2-24.3-14-31.2c-4.9-3.2-11.3-3.3-17-3.3h-16.4c-11.1,0.2-11.3,2.5-11.3,10v97.8
		c0,4.8,18.1,4.8,18.1,0V345h7.8c5.5,13.4,11.5,28.7,17.2,41.8C310.5,391.6,328.3,387.8,324.9,379.9L324.9,379.9z M283.4,326.9
		v-31.5h12.1c7.3,0,9.5,3,10.2,8.9c0.3,3,0.3,9.4,0.2,11.1c-0.3,2.5-1.4,11.4-8.7,11.4H283.4L283.4,326.9z"/>
</g>
</svg>
