<?xml version="1.0" encoding="utf-8"?>
<!-- Generator: Adobe Illustrator 21.1.0, SVG Export Plug-In . SVG Version: 6.00 Build 0)  -->
<svg version="1.1" id="Layer_1" xmlns="http://www.w3.org/2000/svg" xmlns:xlink="http://www.w3.org/1999/xlink" x="0px" y="0px"
	 viewBox="0 0 720 762.9" style="enable-background:new 0 0 720 762.9;" xml:space="preserve">
<style type="text/css">
	.st0{fill-rule:evenodd;clip-rule:evenodd;fill:#FF8D90;}
	.st1{fill-rule:evenodd;clip-rule:evenodd;fill:#73CDD5;}
	.st2{fill-rule:evenodd;clip-rule:evenodd;fill:#F3DF1D;}
	.st3{fill:#333232;}
</style>
<g>
	<path class="st0" d="M108.6,242.8c-63.1,0-61.3-43.4-61.3-91.2h46.9v29.7c0,23.9,17.3,18.4,20.2,14c5.4-8.1,2.7-32.6-7.3-44.6
		C92.4,133.2,64.1,112,53.8,90.8c12.7,0.3,25.8,3.7,38.4,8.6c15.2,5.9,33.3,12.6,50.2,15.6c2.8,3.1,5.3,6.1,7.4,9
		c21,27.8,16.9,78.5,1.2,100.6C142.5,236.8,128.3,242.8,108.6,242.8L108.6,242.8z M49.1,77.9C44,57,49.2,29.9,61.3,16.2
		c20.3-23.1,69.4-20.3,87.2,1.1c9.4,11.4,14.1,29.2,14.1,53.4h-48.5c-0.2-13,2.4-26.6-10.3-26.6c-14.5,0-15.9,18.3,2.2,35.5
		l17.4,16.7C97.4,87.6,79.7,77,49.1,77.9L49.1,77.9z M352.8,119.8c-6.6-2.3-12-6.7-15.7-12.4C336.6,123.2,343.7,134.5,352.8,119.8
		L352.8,119.8z M235,242.8c-41.6,0-57.9-25.2-57.9-66v-64l7.1-4.3l-0.7,26.7c0,12.2,23.9,12.4,26.3,1.1c1.5-6.8,8.2-34,13.6-47.8
		c0,18.2-0.1,26-4.7,44.7c-1,4.1,1.4,6.9,4.7,8.5c0,12.3-1.2,41.3,2.2,51c3,8.6,15.8,8.7,18.8,0.1c4.6-12.8,0.9-54.4,2.2-63.2
		c0.7-4.5,11.1-31.2,15.9-34.4c6,14.7-19.2,87.3,13.8,87.3c6.3,0,11.7-2.1,16.5-5.6C292.9,217.6,276.6,242.8,235,242.8L235,242.8z
		 M177,96.7V2.5h46.3v61.4c-5.8,4.4-10.2,12.8-13.6,21.5c-4.8-7.8-23.2-6.2-25.1,2.5C182.5,91.1,180,94.2,177,96.7L177,96.7z
		 M246.6,70.2V2.5h46.3v150.4c-2,3.3-5,8-7.2,9.5c-4-20,18.2-83.9-12.8-83.9c-9.4,0-16.9,4-22.6,10.2
		C250.1,82.3,249.1,75.5,246.6,70.2L246.6,70.2z M311.2,2.5h62.9c38,0,50.2,24.9,52.6,60.4c-6.5,4.1-11.4,13.1-15,22.5
		c-5.1-8.2-25.2-6-25.2,4c-0.1,8.1-8,16.2-15.2,17.7c0.3-1.9,0.6-3.8,0.8-5.9c12.2-6.9,7.9-42,4.5-48.7c-3.6-7.2-11.2-6.7-18.6-6.7
		v17.6c-12.1-3-22.7,4-25.8,16.3c-11.6-3-18.7,7.6-21.1,18.1V2.5L311.2,2.5z M426.2,94.3c-1.6,15.4-5.8,30.6-13.9,39.5
		c2.4-10.2,9.2-36.7,14.2-48.2C426.5,88.1,426.3,91.2,426.2,94.3L426.2,94.3z M394.6,144.2c-10.5,2.9-24.9,2.1-36.6,2.1v94.3h-46.9
		V152c3-6.3,5.4-12.9,7.3-18.8c12.8,15.2,37.7,12.4,49.2-11.8c7-0.4,13-2.5,18.2-6.4C385.5,132.4,382.3,142,394.6,144.2L394.6,144.2
		z M358.1,84.3l-1.2,22.3c-12.4-4-15.3-29.7-4.2-29.7C355.8,76.9,357.4,80,358.1,84.3L358.1,84.3z M442.1,240.6V142
		c5.7-2.9,5.9-11.8,10.4-23.8c1.3-3.6,8-20.3,12.1-23c5.1,12.5-17.4,85.6,18,85.6c3,0,5.7-0.8,8.1-2.1v15.6h49.9v46.3H442.1
		L442.1,240.6z M442.1,62.6V2.5h95.4v46h-46.9v44.6c-4.9-22.2-27.9-15.5-38.3-4.4C451.9,78.3,449.6,67.1,442.1,62.6L442.1,62.6z
		 M490.9,94.8h44.6v16.4c-13.6,4.8-25.6,13.8-34.8,28.5h-10.1v18.5c-1.1,1.8-2.2,3.3-3.1,4.1C485,149.3,494,112.7,490.9,94.8
		L490.9,94.8z M535.5,126.2v13.5h-17.4C523.1,133.6,529,129.2,535.5,126.2L535.5,126.2z M556.3,2.5h73.2c40,0,43.2,32.7,43.2,66.5
		c0,21.9-3.6,40.6-23.6,47.4c8.2,1.7,13.5,5.9,16.7,12.8c-34.7-0.9-62.9-26-109.6-22.3V2.5L556.3,2.5z M669.2,142.3l-0.1,98.3h-46.6
		v-93.1c0-13-4.2-15.5-18-15.5v108.7h-48.2V120.7C599.4,116.5,626,142.8,669.2,142.3L669.2,142.3z M616.2,90.6
		c13.7,0,11.4-38,6.1-42.3c-3.3-2.7-12.1-1.8-17.5-1.8v44.1H616.2L616.2,90.6z"/>
	<path class="st1" d="M108.6,502.9c-63.1,0-61.3-43.4-61.3-91.2h46.9v29.7c0,23.9,17.3,18.4,20.2,14c5.4-8.1,2.7-32.6-7.3-44.6
		c-9.9-11.8-35-33.9-44.5-45.9c20.3-11.2,45.1-7.1,67.9,1.9c2,0.8,4.1,1.6,6.2,2.4c5.2,5.2,9.6,10.3,13.2,15
		c21,27.8,16.9,78.5,1.2,100.6C142.5,496.8,128.3,502.9,108.6,502.9L108.6,502.9z M54.9,352.9c-12.9-24.4-8.7-59.5,6.4-76.7
		c20.3-23.1,69.4-20.3,87.2,1.1c9.4,11.4,14.1,29.2,14.1,53.4h-48.5c-0.2-13,2.4-26.6-10.3-26.6c-14.5,0-15.9,18.3,2.2,35.5l8.3,7.9
		C94.2,343.4,72.4,343.8,54.9,352.9L54.9,352.9z M448.5,366.5c3.3-3.7,6.6-8.6,7.7-11.7C452.2,357.3,449.8,362.1,448.5,366.5
		L448.5,366.5z M235,502.9c-41.6,0-57.9-25.2-57.9-66v-55.3c14.1,2.9,29.4,4.2,41.9-3.6c-2.2,13.7-3.7,33,4.4,40.9
		c0,15.8-2.9,40.2,11.6,40.2c14.8,0,11.6-25,11.6-41.8c5.1-4.1,9.2-10.2,12.5-16.4c2.9,18.8,13.3,41.6,33.7,32.6
		C292.9,475.2,279.4,502.9,235,502.9L235,502.9z M177,367.8V262.5h46.3v91.9c-3.4,5.2-7.6,10.1-13.2,13
		C200.3,372.4,187.5,370.3,177,367.8L177,367.8z M246.6,395c0-17.2-0.9-21.7,3.3-37.6c1-4.1-0.6-7.1-3.3-9.1v-85.8h46.3v55.2
		c-7.4,7.8-10.7,22.4-9.6,36.6c-6.3-6.2-22.6-6.1-23.9,4.7C258.7,364.3,252.1,383.7,246.6,395L246.6,395z M292.9,382.2v31.4
		c-1.9,1.9-3.9,3.1-6.1,3.1c-6.8-0.6-3-43.7-1.9-51.5C286.6,371.6,289.2,377.5,292.9,382.2L292.9,382.2z M311.2,262.5h62.9
		c18.9,0,32.5,6.1,40.6,18.3c-24,16.2-31.2,71.6-34.1,93.6c-0.4,3.1-0.8,6.2-1.1,9.3c-1.5,4-5.8,14.5-10.7,22.8h-9.4
		c1.1-14,4.6-35.2,6-43.2c14.4-1.8,14.5-14.6,14.5-29.1c0-25.6-5.1-28.3-21.9-28.3V323c-19.1-4.4-19.1,24,0,19.6v9.2
		c-7.2-2.1-16.9,0-18.3,6.6c-2,9.7-9.4,17.5-18.2,19c3.1-18.3,7.2-57.9-10.3-64.5V262.5L311.2,262.5z M425.2,309.5
		c0.9,5.5,1.5,11.6,1.8,18.1c-4.1,10.6-9.7,21.5-15.5,28.6C414.3,342.7,420,322,425.2,309.5L425.2,309.5z M425.5,359.7l-1.9,9.8
		c-4.4,8.4-9.4,14.4-17,19.7c0.5-4.1,1-8.3,1.5-12.4C414.2,373.3,420.1,367.2,425.5,359.7L425.5,359.7z M358.1,436v64.7h-46.9v-88.5
		c3.2-7,5.6-14.3,7.2-20.3c6.3-0.4,12-2.1,17.2-5.2C334,406.3,335,440.2,358.1,436L358.1,436z M442.1,500.6v-64.8
		c31.9,5.3,19.1-66.9,93.4-59.9v23.8h-44.9v54.6h49.9v46.3H442.1L442.1,500.6z M442.1,339.3V328c3.5-9.3,5.6-18.3,5.9-25.2
		c0.3-7-1.5-15.1-5.9-20.5v-19.8h95.4v46h-46.9v46.3h44.9v7.4c-71.1-5.7-77.8,51.3-87,55.8c-2.8-4.2-2.5-24.8-2.4-33.8
		c16.4-7.2,40.3-47.5,7-47.5C449,336.8,445.3,337.7,442.1,339.3L442.1,339.3z M556.3,262.5h73.2c40,0,43.2,32.7,43.2,66.5
		c0,21.9-3.6,40.6-23.6,47.4c2.4,0.5,4.6,1.2,6.5,2.2c-32.8,16.4-66.3-5.8-99.4-13.2V262.5L556.3,262.5z M665.8,389.2
		c2.6,5.5,3.9,12.6,3.9,21.4l-0.6,90.1h-46.6v-93.1c0-4.6-0.6-8.1-1.9-10.4C636.5,398.4,652.4,396.4,665.8,389.2L665.8,389.2z
		 M604.5,394.7v106h-48.2V379.6C575.3,384.3,586.6,390.8,604.5,394.7L604.5,394.7z M616.2,350.7c13.7,0,11.4-38,6.1-42.3
		c-3.3-2.7-12.1-1.8-17.5-1.8v44.1H616.2L616.2,350.7z"/>
	<path class="st2" d="M108.6,762.9c-63.1,0-61.3-43.4-61.3-91.2h46.9v29.7c0,23.9,17.3,18.4,20.2,14c5.4-8.1,2.7-32.6-7.3-44.6
		L69,632.1c29.1,2.6,53,20.2,88.3,24.8c11.6,26,7.7,68.3-6.2,87.9C142.5,756.9,128.3,762.9,108.6,762.9L108.6,762.9z M58.3,618.9
		c-17-26.1-13.3-64,3-82.6c20.3-23.1,69.4-20.3,87.2,1.1c5.9,7.1,9.9,16.7,12.1,28.8c-18.2,4.4-19.4,21.1-10.1,22.5
		c8.7,1.3,5.8-6.2,11.8-8.4c0.2,3.3,0.3,6.8,0.3,10.4h-48.5c-0.2-13,2.4-26.6-10.3-26.6c-14.5,0-15.9,18.3,2.2,35.5
		c11.2,10.7,32.6,30.5,41.8,41.9C115.1,633.5,94.7,617.5,58.3,618.9L58.3,618.9z M385.2,647.7c3.3-3.7,6.6-8.6,7.7-11.7
		C388.9,638.5,386.6,643.4,385.2,647.7L385.2,647.7z M235,762.9c-65.5,0-57.9-58.7-57.9-106.1l15.9-6.8
		c-3.1,21.7-15.5,93.6,13.8,93.6c10.5,0,19.4-11.5,26.2-24.7c6.6,1,10.4-1.9,12.1-7.9c2.9,3.9,7.1,6.4,12.9,6.4
		c15.2,0,26.9-19.8,35.1-39.7c0,25.6,1.3,50.3-14.3,68.5C269.1,757.4,254.6,762.9,235,762.9L235,762.9z M177,643v-63.9
		c8.6,0.3,17.7,1.8,26.3,3.2l-7.3,43.9C191.5,633.8,185.8,640.4,177,643L177,643z M177,564.8v-42.3h46.3v33.9
		c-7.2-1.1-16,1.9-16.9,8.5c-0.2,0.9-0.4,1.9-0.5,2.9C196.4,566.3,186.7,565,177,564.8L177,564.8z M223.3,623.5V695
		c0,3.3,0.1,6.3,0.4,9c-3.2,7.9-6.6,15-9.2,17.9C210.5,705.2,220.6,641,223.3,623.5L223.3,623.5z M246.6,634.5v-45.1l36.3,2.5
		c-12.7,13.7-12.8,44.7,6.4,52.2c-3.1,11-15.6,49.2-27,54.5c-1.6-9.6,4.9-47.7,6.3-55.8C270.4,632.8,254.4,629.7,246.6,634.5
		L246.6,634.5z M246.6,574.5v-51.9h46.3v54.6C280.7,578.5,258.6,576.2,246.6,574.5L246.6,574.5z M292.9,601.9v27.9
		C285.8,624.2,287.9,607.6,292.9,601.9L292.9,601.9z M311.2,522.6h62.9c42.4,0,52.9,31.6,52.9,72.4c0,11.3-0.8,21.2-2.5,29.9
		c-8.6,7.4-13.3,20.4-15,31.7c-6.6,5.8-15.5,9.1-26.8,9.8l0-0.8c16.4-7.2,40.3-47.5,7-47.5c-20.2,0-29.7,21.3-29.7,38.9
		c0,3.3-13,36.4-22.6,41.5c-1-10.9,8.2-52.9,11.6-65c2-6.6-2.6-11-9.1-11c-9.5,0-19,4.8-28.8,7.4v-7c2.6-10,4-21.4,0-29v-7.3
		c17.7-7.8,29.8-32.2,17.3-35.6c-10.3-2.8-6.9,10.9-17.3,19.5V522.6L311.2,522.6z M358.1,697v63.7h-46.9V644.4
		c2.9-0.5,5.8-1.2,8.6-2c-5.8,23.5-15.8,73.9,13,73.9C343.2,716.3,351.7,707.2,358.1,697L358.1,697z M360.8,623.5
		c18.4,0,19.1-11.8,19.1-29.4c0-25.6-5.1-28.3-21.9-28.3v57.7H360.8L360.8,623.5z M442.1,760.7v-69c2.8-1.5,5.5-3.3,7.9-5.3
		c0.1,42.5,28.4,35.4,40.6,18.4v9.6h49.9v46.3H442.1L442.1,760.7z M442.1,674.7v-33.3c0-0.1,2.2-5.1,4.5-3.7
		c2.2,1.3,5.1,12.2,6.3,16.2C453.4,660.6,447.5,669,442.1,674.7L442.1,674.7z M442.1,618.8v-96.3h95.4v46h-22.6
		c1.7-21.9-11.8-35.1-29.6-26.6c-22.7,10.8-27.9,59.5-30.8,81.9C451.1,620.5,446.8,619,442.1,618.8L442.1,618.8z M500.5,568.6h-8
		c2.2-5.5,4.9-9.4,8-10.4L500.5,568.6L500.5,568.6z M490.6,574v27.7c-2.4,5.2-5,10.3-7.8,14.7C484.3,603.8,486.7,586.5,490.6,574
		L490.6,574z M501.1,614.9h34.4v29.5c-11.5,2.4-22.2,7.3-31.4,15.4h-13.6v16.3l-13.2,22.3c-3.3-8,1.3-45.7,2.8-56.4
		C488.3,635.8,495.4,626,501.1,614.9L501.1,614.9z M535.5,658.5v1.3h-4.3C532.6,659.3,534,658.8,535.5,658.5L535.5,658.5z
		 M556.3,522.6h73.2c40,0,43.2,32.7,43.2,66.5c0,21.9-3.6,40.6-23.6,47.4c14.2,2.9,19.1,13.9,20.3,27.6c-15.6,2.7-32.5-0.7-48.6-6.7
		c-0.6-1.2-1.3-2.1-2.2-2.7c-2.4-1.7-6.6-2.6-12.7-2.8c-16.1-5.4-33.3-9.3-49.7-9.5V522.6L556.3,522.6z M669.6,677.4l-0.5,83.3
		h-46.6v-88.1C637.5,677,654.1,679.3,669.6,677.4L669.6,677.4z M604.5,666.2v94.5h-48.2V656.1C572.4,656.4,589.3,660.8,604.5,666.2
		L604.5,666.2z M616.2,610.7c13.7,0,11.4-38,6.1-42.3c-3.3-2.7-12.1-1.8-17.5-1.8v44.1H616.2L616.2,610.7z"/>
	<path class="st3" d="M314.2,110.3C303.8,145,292.1,167,284.5,167c-5.8,0-2.1-24.9-0.8-39.2c2.6-21.4,5.2-45.2-10.8-45.2
		c-11.5,0-20.8,7-27.2,20.3c1.8-19.1-0.2-38.2-13.5-38.2c-12.3,0-20.1,24.3-25.9,44.6l0.5-19.8c0-7.3-18.2-6.1-18.2-0.2
		c-16,24.8-37.3,22.7-91.1,1.7c-32.7-12.8-75-15.1-96.9,13.3c-2.3,3,2.4,6.4,5.2,3.2c11.6-13.3,36.2-32,87.9-11.8
		c62.5,24.5,80.6,19.5,94.7,2.9l-0.9,36.6c0,7,16.9,6.8,18.2,0.2c4.1-19,15.1-58.4,20.1-58.4c6.2,0,0.2,42.9-3.2,57
		c-1.5,6.1,16.4,7.9,18.1,1.5c4.1-16,14.6-44.7,22.3-44.7c6.4,0,4.4,18.8,2.1,36.8c-2.3,25.1-6.3,50.8,11.2,50.8
		c17.9,0,30.1-19.4,40.9-54.9c3.7,8.5,10.7,14.9,21.7,14.9c12.3,0,21.3-9.6,26-21c8.9,0,17.7-2.5,25.1-12.5l-0.7,30.4
		c0,7,16.9,6.8,18.2,0.2c4.1-19.2,15.1-58.5,20.1-58.5c6.2,0,0.2,42.8-3.2,57.1c-1.5,6.1,16.4,7.9,18.1,1.5
		c4.1-16.1,14.6-44.8,22.3-44.8c6.4,0,4.4,18.7,2.1,36.8c-2.4,25.1-2.1,49.1,15.4,49.1c11.6,0,16.7-13.5,25.2-29
		c19.2-35.1,59-40.2,114.8-18.6c33,12.8,75,15.1,96.9-13.3c2.3-3-2.4-6.4-5.2-3.2c-11.6,13.3-36.2,32-87.9,11.7
		c-54.9-21.4-101.7-20.2-124.7,21.7c-5.9,10.8-9.4,20.9-15.4,20.9c-5.8,0-2.1-24.9-0.8-39.2c2.7-21.5,5.3-45.2-10.6-45.2
		c-11.5,0-20.8,7-27.2,20.2c1.8-19-0.2-38.1-13.5-38.1c-12.3,0-20.1,24.3-25.9,44.5l0.5-19.7c0-7.3-18.2-6.1-18.2-0.2l-0.1,3.8
		c-5.6,12.6-13.3,18.9-24.1,18.2c4.2-20.5,4.2-44.6-13.7-44.6c-10.7,0-16.5,8.5-17.2,18.4c-2.4-1.2-5-2-6.5-2
		C318.9,83.2,313.4,96.7,314.2,110.3L314.2,110.3z M360.2,111.2c-20.3,0-25.4-38.3-7.5-38.3C364.6,72.9,363.8,92.9,360.2,111.2
		L360.2,111.2z M344.8,130.7c-12,0-14.6-23.4-8.8-37.1c2,10.9,9.6,21.6,22.8,23.6C355.7,124.3,350.4,130.7,344.8,130.7L344.8,130.7z
		"/>
	<path class="st3" d="M342.9,363.5c-6,12.7-15.5,18.9-26.3,18.2c4.2-20.6,8.6-65.7-10.8-65.7c-24.8,0-25.9,67.1,3.2,71.5
		c-4.6,18.7-12.5,33.2-22.2,33.2c-11.4,0-8.5-40.6-5.2-60.2c1.1-6.4-17.2-9.5-18.2-0.9c-1.4,10.9-15.5,47.3-20.7,47.3
		c-6.2,0,0-38.8,3.3-50.5c2-7.9-15.7-9-17.9-1.8c-16.1,27-37.1,25.4-92.3,3.7c-32.7-12.8-75-15.1-96.9,13.3c-2.3,3,2.3,6.4,5.2,3.2
		c11.6-13.3,36.2-32.1,87.9-11.8c60.2,23.6,79.2,19.8,93.1,4.6c-5.6,27.2-6.5,50.9,7.8,50.9c14,0,22.2-17.2,29-32.6
		c0.8,22.3,6.7,45.4,22.8,45.4c13.5,0,23.8-16.9,30.5-43.3c8.4,0,17.7-2.2,25.5-10.7c-3.4,26.1-2.5,55.1,14.2,55.1
		c10.1,0,19.1-11.3,26.7-27c-3,41.3-0.5,77.7,12.2,77.7c17.3,0,24.2-27.1,24.2-52.3c0-12.2-1.7-24-4.6-33.6c3.8-2.2,9.2-8,14.1-14.7
		c0.4,19.8,3.2,49.7,16.7,49.7c11.5,0,16.7-13.5,25.2-29c19.2-35.1,59-40.2,114.8-18.6c33,12.8,75,15.1,96.9-13.3
		c2.3-3-2.4-6.4-5.2-3.2c-11.6,13.3-36.2,32-87.9,11.7c-54.9-21.4-101.7-20.2-124.7,21.7c-5.9,10.8-9.4,20.9-15.4,20.9
		c-7.3,0-5.9-28.8-5.9-41.1c9.4,0,41.5-40.3,11.1-40.3c-14.2,0-23.7,13.5-25.4,29.5c-5.2,10.3-11.4,17.5-21.6,24
		c4.4,14.6,5.8,20.5,5.8,36.2c0,13.5-6.5,42.3-10.5,42.3c-6.2,0-4-43.5,2.9-98.7c20.1-9.3,38.8-52.2,39.5-71.5
		c0.5-11.1-4.4-22.4-14.6-22.4c-27.1,0-38.5,48.2-44.5,94.6c-0.4,3.2-0.8,6.5-1.2,9.7c-7.9,21-17.5,37.1-25.9,37.1
		c-6.1,0,0.6-40.9,4.1-61c1.2-6.8-16.7-7.6-18-1.5C343.4,360.6,343.1,362.1,342.9,363.5L342.9,363.5z M310.4,381.6
		c-20.2,0-22.5-59.5-4.6-59.5C319.2,322.1,314,363.3,310.4,381.6L310.4,381.6z M355.1,338.8c4.1,0,7.6-2.6,7.6-6.1
		c0-3.5-3.5-6.1-7.6-6.1C345,326.7,345,338.8,355.1,338.8L355.1,338.8z M405.4,366.8c2.7-18.1,16.4-74.1,28.3-76.2
		c4.3-0.8,4.4,6.1,4.1,11.7C436.9,318,421.2,358.8,405.4,366.8L405.4,366.8z M442.5,375.6c2.4-21.8,12.9-25.7,15.3-25.7
		C467.3,349.9,450.5,374.6,442.5,375.6L442.5,375.6z"/>
	<path class="st3" d="M327.4,554.7c-1.7-0.5-3.2,0.6-3.6,2.3c-3.8,15.4-15.8,24.6-37.9,24.6c-21.2,0-40.6-3-58.7-6.1
		c0.6-3.2,1.1-6.4,1.7-9.4c1.1-8.2-17.6-7.1-18.4-0.5c-0.5,2.1-0.8,4.4-1.2,6.8c-12.5-2.1-24.2-3.6-35.1-3.6
		c-12.3,0-22.7,2.4-25.2,12c-1,3.7,4.8,5.8,5.9,1.5c1.7-6.4,10.5-7.5,19.2-7.5c9.1,0.2,21,1.8,34.1,4c-2.3,13.8-5.2,31.5-7.8,48.4
		c-0.3,0.2-0.5,0.5-0.8,0.9c-16.1,27.1-37.1,25.4-92.3,3.7c-32.7-12.8-75-15.1-96.9,13.3c-2.3,3,2.3,6.5,5.2,3.2
		c11.6-13.3,36.2-32.1,87.9-11.8c63.3,24.8,81.1,19.4,95.2,2.1c-2.4,17.3-4.6,32.7-5.3,41.7c-2.7,30.7-3,59.1,13.4,59.1
		c13.8,0,26.5-27.1,35.5-54.9c0.6,16.1,4.7,28.8,15.7,28.8c18.2,0,33-36.8,42.3-70.6c0.1-0.5,0.1-1,0.1-1.4
		c8.8-0.3,17.3-2.3,25.4-5.1c-7.6,28.7-16.8,75.9,7.3,75.9c12.2,0,22.9-16.2,31.5-36.9c0.7,16.7,4,34,19.2,34
		c7.3,0,18.8-11.8,30-34.7c1.4,9.8,5.7,17.1,12.7,17.1c9.6,0,20.5-5.5,28.2-15.9c-0.9,13.9-1.6,38,13.9,38
		c15.4,0,21.2-14.8,29.7-30.3c19.2-35,59-40.2,114.8-18.5c33,12.8,75,15.1,96.9-13.3c2.3-3-2.4-6.4-5.2-3.2
		c-11.6,13.3-36.2,32-87.9,11.7c-54.9-21.4-101.7-20.2-124.7,21.6c-6,10.8-9.5,21-15.4,21c-6.6,0-4.7-30.5-0.2-63.1
		c21.5-15,33.8-54.4,34.5-73.7c0.5-11.1-4.4-22.4-14.6-22.4c-27.4,0-33.2,45.2-39.3,92.1c-3-5.6-5-12.9-16.4-12.9
		c-16.8,0-26,20.1-27.5,38.6c-10.1,25.1-21.8,42-28.5,42c-7.3,0-5.9-28.9-5.9-41.1c9.4,0,41.5-40.3,11.1-40.3
		c-15.8,0-25.7,16.6-25.7,34.8l0,1.3c-8.3,24.4-19.3,44.8-28.6,44.8c-6.2,0,2.6-43.3,9.6-70.7c1.2-4.1-1.5-5.9-5.2-5.9
		c-10.6,0-24,8.1-37.1,9c8.4-22.1,11.6-45.6-6.1-45.6c-21.4,0-27.2,47.1-2.4,51.5c0,0.1,0,0.1-0.1,0.2
		c-8.5,31.5-22.2,61.6-33.8,61.6c-6.1,0,0.6-40.9,4.1-61c1.2-6.8-16.7-7.6-18-1.5c-0.9,4.5-1.8,9.4-2.5,14.4
		c-8,30.6-22.6,72.1-30.6,72.1c-5.5,0-4.1-27.2-2.1-46.2c2-21.3,8.8-64.9,14.6-98.9c18.4,3,37.3,5.9,52.3,5.9
		c26.2,0,45.8-6.7,51.2-29.5C330,556.7,329.1,555.2,327.4,554.7L327.4,554.7z M258,620.1c4.1,0,7.6-2.6,7.6-6.1
		c0-3.5-3.5-6.1-7.6-6.1C248,607.9,248,620.1,258,620.1L258,620.1z M296.2,635.3c-18.3-2.4-13.7-39.5,0.8-39.5
		C308.8,595.8,303.2,618.7,296.2,635.3L296.2,635.3z M379.2,656.9c2.4-21.7,12.9-25.7,15.3-25.7C404,631.2,387.3,655.8,379.2,656.9
		L379.2,656.9z M477,630.1c2.7-18.1,6.1-73.6,23.7-76.2C512.3,552.3,498.9,609.4,477,630.1L477,630.1z M436.7,682.3
		c-3.5,0-5-6.3-5-14.5c0-13.5,6.5-34.4,13.6-34.4c7,0,7.7,8.3,11.7,20.1l-1.1,8C452.3,668.5,443.7,682.3,436.7,682.3L436.7,682.3z"
		/>
</g>
</svg>
