<?xml version="1.0" encoding="utf-8"?>
<!-- Generator: Adobe Illustrator 21.1.0, SVG Export Plug-In . SVG Version: 6.00 Build 0)  -->
<svg version="1.1" id="Layer_1" xmlns="http://www.w3.org/2000/svg" xmlns:xlink="http://www.w3.org/1999/xlink" x="0px" y="0px"
	 viewBox="0 0 720 941.8" style="enable-background:new 0 0 720 941.8;" xml:space="preserve">
<style type="text/css">
	.st0{fill-rule:evenodd;clip-rule:evenodd;fill:#333232;}
	.st1{fill:#333232;}
</style>
<g>
	<path class="st0" d="M112.9,200c-0.8-4.2,12.7-8.7,15-0.8l-0.5,90.9c0,9.3-14.7,10.3-14.7-0.5L112.9,200L112.9,200z M153.2,206.8
		l0.3,38l12.3-1.1c13.3-1.2,17.2,7,6,10.5c-5.5,1.7-12.4,2.1-18.3,2.2c0.1,5.7,0.1,11.3,0.1,17c0,4.4,0.3,8.8,0.2,13.1
		c-0.1,5.5-1.3,10.5-7.8,10.5c-3.6,0-7.2-2.3-7.5-5.6l0.4-84c0-4.9-0.6-8.9,5-10.6c7.7-2.5,31.1-2.7,38.1,0.3
		c7.2,3.1,3.6,10.3-4.5,9.7C168.9,206.2,161.9,206.3,153.2,206.8L153.2,206.8z"/>
	<path class="st0" d="M315.3,241.9c1.9-3.4,8-2.7,8,2.2v23.8c2.8-0.5,6.4-0.9,9.2-0.8l-0.1-23c0-5.8,8.4-6.1,8.6-0.1v49.7
		c-0.4,2.2-4.2,4.1-6.7,2.4c-2.5-1.6-2.3-6-2.3-8.6c0.1-4.3,0.4-8.5,0.5-12.8l-9.1,1.1c0.2,4.4,0.6,9.6,0.3,13.7
		c-0.8,10.9-8.5,6.9-9.1,4.4l0.2-47.7c-2.2,1.9-6.8,1.5-9.5,1.5l0.1,30.7c0,3.7,0.3,7.4,0.3,11.1c0,3.4-0.3,7.8-4.5,7.9
		c-2.2,0.1-4.2-1.3-4.6-2.8l0.3-46.8c-2.5-0.1-10-0.2-10.3-3.6c-0.2-2,2.1-3.1,3.6-3.7c1.2-0.5,10.9-0.9,12.4-1
		C305.5,239.4,313.2,239.2,315.3,241.9L315.3,241.9z M351,243c-0.5-3.2,7.5-5.9,8.8-0.6l-0.2,50.5c-0.1,4-8.7,11.3-8.7-5.2L351,243
		L351,243z M372.1,297.4c-2.2,0.1-4.2-1.4-4.6-2.8l0.2-39.5c-0.1-4.2-1.5-12.9,1.9-15.1c0.4-0.3,0.8-0.4,1.3-0.5
		c3.6-0.7,6.3,3.5,7.8,6.2c3.6,6.6,6.7,17,9.1,24.5l0.1-27.2c0.2-5.1,9.3-5.1,9.3,0.1l-0.7,51.1c-0.6,3.8-5.9,4.3-8.4,0.9
		l-11.8-31.5c0,4,0,7.9,0.1,11.9c0,4.4,0.4,8.8,0.4,13.2C376.8,292,376.6,297.4,372.1,297.4L372.1,297.4z M406.7,297.4
		c-2.1,0.1-4.2-1.4-4.6-2.8l0.2-51.3c0.3-4.7,8.2-4.4,8.6-0.1l-0.1,16.4c3.4-4.8,9.8-15.4,13.6-18.3c2.4-1.8,6.9-1.1,6.9,3.1v0.5
		l-16.6,22.9l16,23c2.8,5.1-4,8.2-7,3.9l-12.9-18.1l-0.1,18C410.3,296.5,408.6,297.4,406.7,297.4L406.7,297.4z M483.9,263.4
		c-0.7,3.6-4.4,25.5-5.1,26.8c-1.8,3.6-7.7,3.7-8.9-1.1l-5-21.4l0,26.7c-0.7,4.2-8.4,3.7-8.8,0l0.2-40.1c0-3.8,0-13.1,4.3-14.8
		c2.3-0.9,5.3,0.9,6.2,2c2.8,3.5,5.7,18.6,7.5,29.3c1.1-8.3,2.7-21.5,6.3-28.7c1.8-3.5,10.1-3.4,10.6,2c1,8.7,1.2,17.3,1.7,26
		c0.3,6.2,1.5,13.9,1.2,19.8c-0.1,2.8-0.7,7.1-4.1,7.6c-2.4,0.3-4.3-1.4-4.5-3.8L483.9,263.4L483.9,263.4z M511,297.3
		c-3.8,0.2-4.5-4.5-4.6-7.4c-0.4-6.4,1.4-19.1,0.3-23.6c-1.6-6.3-11.7-21-7.5-25.6c1-1.2,2.9-1.5,4.3-1.1c2.8,0.8,4.2,4.8,5.1,7.3
		c1.1,3.2,2,6.3,3.2,9.5l6.3-11c1.9-3.2,4.7-7.5,8.9-5.3c6.9,3.6-9.1,18.2-11.6,26.3C513.2,273.6,519.5,297.3,511,297.3L511,297.3z"
		/>
	<path class="st1" d="M238,577.2c1.1,0.2,2,0.8,2.5,1.8c1,1.7,0.5,3.1-0.2,5.7c-3.4,12.7-6.5,24.9-11.5,37.6
		c-3.3,8.3-9,20.8-15.1,23.8c-4,2-9.2,1.4-13.2-1.1c-8.9-5.5-10.4-17.8-9.9-27.4c0.6-11.2,4.7-33.5,6.8-44.7c0.6-3,0.5-3.6-0.1-1.9
		c-4.9,13.9-18.9,45.6-34.6,49.1c-3.1,0.7-6.2-0.1-9.3-2.3c-5.6-4.1-7.5-12.9-7.7-21c-4.2,4.1-8.9,6.7-14.3,7.6l-0.7,2.8
		c-1.5,3.6-3.4,6.8-5.6,9.6c-4.3,5.4-10,8.4-16.9,7.4c-3.3-0.5-6.7-2.2-10.3-5.2c-5.2-4.4-7.7-13.1-7.3-20.1
		c0.1-1.8,0.3-3.7,0.5-5.6l-7.5,1.9c0.4,5.4,0.3,12-0.6,17.1c-2,11.9-8.6,31.3-23.2,31.3c-3.3,0-6.9-1.4-10.7-4.3
		c-6.5-4.8-5.8-15.7-3.7-23.3c3.1-11.3,10.1-21.4,21.4-25.7l-2.2-22.2c-6.6,10.2-16.5,32.7-31.7,33.3c-4.3,0.2-7.6-0.9-9.8-3.4
		c-6.9-7.9-5.9-21.3-3.6-30.7c3.7-16.3,10.4-29.6,19.9-40.1c1.9-2.1,5.9-5.9,8.6-6.3c1-0.4,1.3-0.2,0.9,0.6
		c-0.6,1.1,1.1-0.7,1.7-0.7c0.5,0-0.5,1.3,0.4,0.6c1.3-1.1,0,1.8-0.3,2.5c-0.7,2-2.2,4.6-3.4,6.6c-4,6.4-11.1,18.5-13,24
		c-1,3-1.9,6.1-2.8,9.4c-0.6,2.4-2.1,9.8-1.5,8.3c0.4-1.6,1-3.8,2-6.7c4.7-14.5,8.2-22.1,16.1-35.4l3.7-6.9c0.9-2.1,0.9-1.6,2-0.6
		c1.6,1.5-0.2,5-1.1,6.9c-4.9,9.8-11.1,22.2-15,33.2c-3.3,9.4-5.7,20.3-3.6,30c6.9-5.6,14.9-16.4,20.2-24.5c2.8-4.3,6-9.2,9.6-14.8
		l1.1-4.3c1.3-5,4.2-14.3,7.6-17.1c2.5-2.1,1.7,0,3-1.1c0.7-0.6,1.5-0.9,1.3,0.4c-0.5,3.9-5.4,12.8-5,13.2
		c0.7,0.7,5.6-15.4,7.6-13.9c0.2,0.2,0.2,0.5,0,1h0.4c0.5-0.9,1.4-1,1.2-0.3l-1.6,4.8c0.2,0,0.8-0.7,1.7-2.2c1.5-2,2.2-2.3,2.2-0.9
		c0.1,0.4,0.2,0.6,0.2,0.6c0.4-0.8,1.2,0.2,1.3,0.6c0.3,1.2-1.2,7.2-1.5,8.9c-0.7,5.2-1.2,10.8-1.5,16.8c-0.4,8.6,0.5,16.9,1.3,27.2
		c2.9-0.6,5.4-1.5,7.6-2.5c1.7-0.8,1.4-0.8,1.6-1.7c1.2-5.3,1.7-3.9,0.3-7.7c-2.2-6.1-1.5-11.4,0.7-17c3-7.5,14.8-13.1,23.5-8.8
		c2.7,1.3,6.6,4.1,8.9,6.5c9.7,10.1,10,25.4,8,39.5c3.4-1.4,6.1-3.5,8.4-6.5c1.7-2.3,4.3-6.1,4.8-8.1c0.2-1.4,0.5-2.8,0.8-4.2
		c1.6-8.2,5.2-22.7,10.8-25.9c0,0,3.2-1.4,3.2-0.2c0,0.7-0.6,2.2-1.8,4.4c-3.1,5.7-4.9,15.7-6.2,22.6c0.4,0.3,0.7,0.6,0.9,1
		c1.5-7.5,4.8-20.9,7.9-27.2c0.1-0.2,0.5-0.7,1.1-1.2c0.7-0.7,0.8-0.9,0.4,1.2c-0.3,1.4,0.6-1.7,1.5-1.7c-1.5-0.5,3.8,0.4,4.8,3.5
		c1.8,5.4-1.9,17.5-3,23.8c-2.1,12.7-4.1,20.6-3.5,34.1c9.3-8.7,15.6-19.6,20.8-31.2c2.4-5.5,10.1-21.5,13.7-26.1
		c1.4-1.9,2.6-0.8,2.6-1.6c0.6-0.6,4.9-0.5,5.6-0.2c1.7,0.8,1.7,0,3.3,1.6c0.8,0.8,1.4,1.6,1.8,2.3c3.1,6.4-1,29.9-2.1,38.3
		c-1.5,11.7-2.9,23.7-1.2,35.4c0.4,3,0.9,5.3,1.9,7.7c2.5,1.1,5.3-4.7,7.3-8.8c6.1-12.5,12.3-34.2,15.6-48.1
		C233.7,577.9,235.7,576.8,238,577.2L238,577.2z M152.3,588.2l-0.3,5.1l1.2-6.7C152.9,587.2,152.6,587.7,152.3,588.2L152.3,588.2z
		 M150.6,576.5c0.3-0.1,0.6-0.1,0.9-0.1c1.9-9,3.1-12.4,5-19.1C154.1,561.1,151.5,571.6,150.6,576.5L150.6,576.5z M24.5,570
		c-0.1,0.9-0.1,1.1,0,0.8c0.1-0.3,0.5-1.4,1.1-3.3c1.5-5.5,3.4-10.9,5.6-16.2c3.2-7.7,5.2-10.6,8.6-17c-5.3,7.9-8.9,13-12.1,22.4
		C26.4,560.3,24.8,566.5,24.5,570L24.5,570z M66.6,628.3c1.4-4.5,1.9-9.2,1.6-14.2c-0.3-5-0.6-10-0.8-15.1
		c-4.9,3.3-8.1,7.1-10.3,12.9c-2.5,6.2-4.7,15.7-1.5,22.4c2,4.3,5.5,1,7.9-0.8C64.5,632.8,65.6,631,66.6,628.3L66.6,628.3z
		 M100.3,565.5l4.3-1.9c0,0.7-0.7,2.2-0.2,1.7c-0.2,0,0-0.2,0.7-0.7c0.2-0.1,2.2-2.7,2.2-0.5c0,0.4-0.1-0.4,1-0.8
		c1.3-0.5-0.8,3.3,0.1,2.2c0.4-0.5,0.7-0.4,1.3-0.9c2.3-2.3,0.7,3,2.2-0.2c1.2,1.8,1.4,1.7,1.2,3.7c-0.2,2.1-3.1,15.5-3.8,18.8
		c3.3,4.8,8.2,8.4,14.5,9.5c1.5-6,1.9-8.2,1.9-14.7c-0.1-11.4-3.7-22.9-13.8-26.7c-6.3-2.4-10.9,2-11.5,8.7L100.3,565.5L100.3,565.5
		z M115.2,613.9c1.3-0.8,5.2-7.9,6-9.7c-4.8,0.5-13.1-5.4-12.1-5.4C107.1,598.9,114.1,615,115.2,613.9L115.2,613.9z M341.6,588.9
		c-3.9,3.3-11.1,6.5-15.5,8.1c4.6,7.5,7,13.5,7.4,22.8c0.4,10.8-2.3,21.8-13.1,25.9c-7,2.6-15.6,1.9-20.9-4
		c-6-6.7-5.2-20.6-2.2-28.8c2-5.5,5.3-11,8.8-16.3c-7-8.2-16.1-18.7-17.7-25.7c-3.7-16.1,11.4-29.8,26.5-21.9c3.9,2,5.7,5.1,6.7,9.1
		c0.7,3.1,0.8,5.6-0.3,8.4c-1.2,3-1.8,1.2-2.3,2c-0.5,0.6,0.1-2.8-0.4-3.1l-1.3,3.6c-0.6,0-1.1-0.6-1.5-1.7c-0.3,0.6,0,0.9-0.4,0.9
		c-0.3,0.3-1.3-0.5-1.5-0.9c-1.1-2.5-0.3-12.2-6-14.3c-2.2-0.8-3.4-0.8-4.7,1.1c-1.9,2.7-2.2,8.5-1,11c3.3,6.9,13.3,20.2,19.4,24.8
		c3.6-1.2,7.1-2.7,10.5-4.3c3.4-1.6,6.1-4,7.9-7.3c0.1-0.2,0.2-0.4,0.4-0.5c-0.8-7.9-1-9.8-0.2-18.4c1.4-14.2,6.1-33.6,18.9-41.7
		c5.3-3.3,13.8-4.4,18.6,0.3c6.3,6.1,6.2,17.2,4,25c-1,3.4-2.8,7.5-5.3,12.4c-2.5,4.9-5.9,10.3-10,16.3c-0.1,0.5,1.7,38.4,2.2,40.8
		c0.3,1.5,0.7-1.8,0.9-3c2-13.1,9.1-33.8,18.7-43.2c2.5-2.5,5.3-4.2,8.2-5.2c2.9-1,6.1-0.9,9.4,0.4c3.6,1.1,6.2,3.4,7.7,6.8
		c3.2,7,3,13.7,2.2,21.5c-2.1,22.2-12.2,37.9-13.5,61.3c10.7-12.5,25.2-55.1,29.8-71.5c0.6-2.2,1.3-0.4-0.2-4.5
		c-2.2-6.1-1.5-11.4,0.7-17c3-7.5,14.8-13.1,23.5-8.8c2.7,1.3,6.6,4.1,8.9,6.5c9.7,10.1,10,25.4,8,39.5c3.4-1.4,6.1-3.5,8.4-6.5
		c1.7-2.3,4.3-6.1,4.8-8.1c0.2-1.4,0.5-2.8,0.8-4.2c1.6-8.2,5.2-22.7,10.8-25.9c0,0,3.2-1.4,3.2-0.2c0,0.7-0.6,2.2-1.8,4.4
		c-3.1,5.7-4.9,15.7-6.2,22.6c0.4,0.3,0.7,0.6,0.9,1c1.5-7.5,4.8-20.9,7.9-27.2c0.1-0.2,0.5-0.7,1.1-1.2c0.7-0.7,0.8-0.9,0.4,1.2
		c-0.3,1.4,0.6-1.7,1.5-1.7c-1.5-0.5,3.8,0.4,4.8,3.5c1.8,5.4-1.9,17.5-3,23.8c-2.1,12.7-4.1,20.6-3.5,34.1
		c9.3-8.7,15.6-19.6,20.8-31.2c2.4-5.5,10.1-21.5,13.7-26.1c1.4-1.9,2.6-0.8,2.6-1.6c0.6-0.6,4.9-0.5,5.6-0.2c1.7,0.8,1.7,0,3.3,1.6
		c0.8,0.8,1.4,1.6,1.8,2.3c3.1,6.4-1,29.9-2.1,38.3c-1.5,11.7-2.9,23.7-1.2,35.4c0.4,3,0.9,5.3,1.9,7.7c2.5,1.1,5.3-4.7,7.3-8.8
		c6.1-12.5,12.3-34.2,15.6-48.1c0.1-0.4,0.2-0.7,0.4-1c-0.2-5.8,0-12.1,0.6-18.8c0.6-6.9,2-14,4-21.4c2-7.4,5.4-14.4,10-21
		c1.9-1.9,5-2.7,9.3-2.6c3.4,0.5,6.1,1.8,8.3,4c6.7,6.7,8.3,18.1,6.8,27.1c-2.9,17.7-18.6,39-18.8,39.9l0.7,23.2
		c0.6,9.5,2.7,18.9,7.2,27.2c1.5,2.7,2.8,2.1,5.2-0.5c4.9-5.3,10-20.9,12.4-29.2c0.9-3.2,1.7-6.4,2.5-9.5c-0.2-4.1,0.2-8.2,1.3-12.2
		c2.1-8.5,7-16.9,14.3-21.7c6.8-4.4,14.3-7,22.7-7.5c1.6-3.7,2.2-7.1,3.5-11c3.2-9.6,8.4-26.4,19.3-29.6c4.7-1.4,10.4-1.4,13.5,3
		c3.5,4.9-0.4,12-3.7,17c-2.2,3.4-4.8,6.8-7.7,10.3c-2.9,3.5-5.7,6.9-8.3,10.2l-1.2,46.9c-0.1,13.1,0.1,23.7,1.6,37h0.2
		c2.1-2.1,7.6-16.4,8.7-19.6c0.9-2.9,1.9-5.8,2.9-8.9c3.2-10.5,5.3-21.2,7.5-31.5c0.7-3.5,5-4.8,7.4-1.6c0.7,0.9,0.9,2,0.7,3.1
		c-0.6,2.9-1.2,5.9-1.9,9.1c-2.4,11.7-7.5,30.4-11.5,40.2c-1.9,4.8-3.7,8.6-5.3,11.2c-1.5,3-3.4,5.1-5.8,6.4
		c-7.8,4.3-16.8,0.4-20.7-7.4c-4.5-9-5.5-21.1-4.8-32c-2.6,4-6.4,7.5-11,8.9c-6.2,2-13.6,0.6-17.2-5.2
		c-3.3,11.2-10.7,34.1-22.7,34.1c-4.1,0-7.7-2-11-4.5c-10.5-8-15-24.4-17.1-38.6c-3.3,11.2-11.8,37.5-21.4,42.5
		c-4,2-9.2,1.4-13.2-1.1c-8.9-5.5-10.4-17.8-9.9-27.4c0.6-11.2,4.7-33.5,6.8-44.7c0.6-3,0.5-3.6-0.1-1.9
		c-4.9,13.9-18.9,45.6-34.6,49.1c-3.1,0.7-6.2-0.1-9.3-2.3c-5.6-4.1-7.5-12.9-7.7-21c-4.2,4.1-8.9,6.7-14.3,7.6l-0.7,2.8
		c-1.5,3.6-3.4,6.8-5.6,9.6c-4.3,5.4-10,8.4-16.9,7.4c-3.3-0.5-6.7-2.2-10.3-5.2c-2.8-2.3-4.8-6-6.1-10.1l-6.9,19.1
		c-3.6,9.9-13.8,34.8-27,34.2c-11.9-0.5-15.3-13.9-15.1-23.7c0.2-8.9,5.7-28.3,8.4-37.2c3.2-10.6,9.3-22.8,7.6-33.3
		c-7.7,3-14.1,15.3-16.8,22.9c-4.2,11.9-5.4,26.2-6.6,38.8c-0.4,4.4-1.1,8.8-2,13.3c-0.2,0.7-1.9,3.4-2.8,2.6
		c-0.4-0.4-1.3-0.1-2,0.2l-0.7-0.7c0,1-0.4,1.4-1.1,1.3c-6.6-1.3-12.4-13.2-14.6-19.1C346.4,614.4,343.5,602.5,341.6,588.9
		L341.6,588.9z M311.9,638c3.4-3.4,3.9-8.6,3.9-13.4c0-4.6-0.9-9.7-2.8-15.3c-1.3-4.3-1.3-4.2-2.6-2c-2.3,3.5-2.5,3.9-3.5,7.8
		c-1.7,6-2,19.1,3.5,23.1C310.9,638.5,311.4,638.5,311.9,638L311.9,638z M356.8,527.9c0.1-0.3,1-2.4,0.7-2.4
		c-0.4-0.4-3.4,5.1-3.5,5.4c-2.6,4.9-4.3,21.9-3.5,18.4C352,542.5,354.1,534,356.8,527.9L356.8,527.9z M371.3,521.7
		c-6.5,0-3.5,36.9-5,37.6c0.4,0,5.3-10.3,5.8-11.6c1.8-5,4.3-12.8,2.6-18.3C374.2,528.3,372.4,521.7,371.3,521.7L371.3,521.7z
		 M382.5,578.9l0.7-1.9c-0.8,0-6.1,11.8-6.8,13.7c-2.4,6.4-3.1,10.6-4.4,16.9l0.6-1.5C375.1,595.6,378.4,586.5,382.5,578.9
		L382.5,578.9z M410.8,598.1c-2.4,6.2-3.4,9.8-5,15.9c-1.2,4.5-2.1,6.8-2.3,9.5c-0.1,0.7,0,0.5,0.3-0.7
		C404.5,620,411.7,599,410.8,598.1L410.8,598.1z M387.7,622.5c-1.1,4.9,1.8-5.4,1.9-5.8l2.9-8.5c1.1-3.4,8.4-25.7,7.5-27.5
		c-0.3-0.5-0.9,2.9-1.6,5.3l-6.1,18.6c-2.5,7.8-2.3,6.2-3.9,14.1C388.1,620.6,387.9,621.9,387.7,622.5L387.7,622.5z M390.5,628.1
		c-1,6.7,0.2,0.9,1.5-3.4c1.7-5.7,10.7-36.5,11-40.4l0.4-3.9c-0.2,0-0.4,0.2-0.4,0.6c0,2-3.9,14-5.4,19
		C394.5,610.3,391.8,618.3,390.5,628.1L390.5,628.1z M398,632.4c2-8.6,5.2-21.2,8-29.3c1.5-4.3,2.7-10.1,3.1-14.4
		c0.1-0.7,0-1.1-0.1-1.1c-1.5,5.6-2.8,11.3-4.6,16.8l-3.5,11c-1,3.7-3.1,14.3-3.3,17.1v1.9L398,632.4L398,632.4z M492.4,586.6
		c-1.1,2.3-0.9,1.1-1.1,4.4c-0.1,1.9-0.2,2.6-0.1,2.3L492.4,586.6L492.4,586.6z M489.8,576.5c0.3-0.1,0.6-0.1,0.9-0.1
		c1.9-9,3.1-12.4,5-19.1C493.3,561.1,490.8,571.6,489.8,576.5L489.8,576.5z M439.5,565.5l4.3-1.9c0,0.7-0.7,2.2-0.2,1.7
		c-0.2,0,0-0.2,0.7-0.7c0.2-0.1,2.2-2.7,2.2-0.5c0,0.4-0.1-0.4,1-0.8c1.3-0.5-0.8,3.3,0.1,2.2c0.4-0.5,0.7-0.4,1.3-0.9
		c2.3-2.3,0.7,3,2.2-0.2c1.2,1.8,1.4,1.7,1.2,3.7c-0.2,2.1-3.1,15.5-3.8,18.8c3.3,4.8,8.2,8.4,14.5,9.5c1.5-6,1.9-8.2,1.9-14.7
		c-0.1-11.4-3.7-22.9-13.8-26.7c-6.3-2.4-10.9,2-11.5,8.7L439.5,565.5L439.5,565.5z M454.4,613.9c1.3-0.8,5.2-7.9,6-9.7
		c-4.8,0.5-13.1-5.4-12.1-5.4C446.3,598.9,453.3,615,454.4,613.9L454.4,613.9z M630.2,576.6c0.2,0.1,0.5,0.2,0.7,0.4
		c0.5-1.1,1-2.1,1.5-3.1C631.6,574.5,630.9,575.4,630.2,576.6L630.2,576.6z M497.6,594.2c1.6-8.5,3.3-20.2,5.4-28.5
		c0.2-1,2.7-11.2,1.9-11.2c-1.2,0-5,20.6-5.4,22.8c-0.8,4.5-2.3,14.1-2.4,18v2.8L497.6,594.2L497.6,594.2z M545,581
		c-1.2,8.4-3,18.4-3,24.2c0.5-3.5,5.5-35.9,5-37.8L545,581L545,581z M536.6,602.2c-0.4,3.5-0.5,5.4-0.5,5.8
		c0.5-3.2,7.1-44.5,6.4-45.8c-0.3-0.7-0.8,4.9-1.1,7.1c-1.2,8.9-3.7,20.4-4.5,28.8C536.8,599.3,536.7,600.7,536.6,602.2L536.6,602.2
		z M592.1,575.4l4.4-7.8c4.8-9.7,8.8-19,8.9-30c0.1-5.6-1.6-10.5-5.1-14.4c-0.5-0.6-1.1-0.2-1.9,1.2
		C592.1,535.6,592.1,561.4,592.1,575.4L592.1,575.4z M592.8,578.9c1.4-1.9,6.7-11.6,7.5-13.4c0.5-0.9,4.7-10.3,4.7-11.5
		c-0.4,0-4.1,8.8-4.7,10.1c-1.1,2.4-2.7,5.3-4.8,8.9c-1.5,2.5-2.4,4.2-2.8,5.2V578.9L592.8,578.9z M592.8,582.6
		c1.2-1.4,6.9-10.9,8-13.2c2.9-5.7,4.3-9,6.3-14.3l-0.9,2c-2.5,6.8-13.3,24.6-13.4,25V582.6L592.8,582.6z M655.2,579.7l1.1-4.1
		c0.5-2,0.5-2.2,0-0.7c-1.6,4.7-6.6,19.2-8.5,23.6C650.2,593.4,653.9,585,655.2,579.7L655.2,579.7z M691,526c0.5-1.9,0.2-3-0.4-1.1
		c-0.7,2.5-2.1,5.5-4,9c-3,5.4-4.8,7.4-7.4,11.6c4.5-5.7,6.9-9.1,10.2-15.6C690.2,528.3,690.8,527,691,526L691,526z M687.5,519.7
		c-2.1,0-5.5,8.7-6.3,10.6c-2.6,6.2-2.9,11.5-4,14.5C680.3,540.6,693.5,524.4,687.5,519.7L687.5,519.7z M679.8,523.8
		c-4.7,5.4-8.5,22-9.1,29.1c1-4,1.3-6.2,2.9-10.9L679.8,523.8L679.8,523.8z M677.4,522.3c-0.7-0.7-5.4,8.3-5.9,9.2
		c-2.7,5.6-5.9,16.9-6.8,23.7c-0.2,1.8-0.2,3,0,3.4c1.4-8.8,4.9-20.7,7.1-25.3L677.4,522.3L677.4,522.3z M672.9,525.8
		c-5.8,9.6-9.5,20.2-11,32c1.7-5,3.2-9.9,4.4-14.9c1.2-5,3-9.9,5.5-14.7C672.6,527,672.9,526.2,672.9,525.8L672.9,525.8z M639,608.5
		c7.8-7.8,13.9-26.9,16.9-37.8c0.7-2.5,1.1-4.5,1.4-6.1c0.2-1.2-0.8-0.4-3.4,0.9C637.5,574.2,633.7,591.2,639,608.5L639,608.5z
		 M646.1,605c-0.6,1.1-1,1.7-1,1.9c-0.1,0.1,0.2-0.1,0.8-0.7l5-8.2c2.2-4.7,3.7-9.6,4.5-14.5C653.1,590.5,649.8,599.1,646.1,605
		L646.1,605z M650,605.9c-2.7,6,3.9-5,3.9-5.2c0-1.4,0.1-2.4,0.2-3L650,605.9L650,605.9z M158.4,594.2c1.6-8.5,3.3-20.2,5.4-28.5
		c0.2-1,2.7-11.2,1.9-11.2c-1.2,0-5,20.6-5.4,22.8c-0.8,4.5-2.3,14.1-2.4,18v2.8L158.4,594.2L158.4,594.2z M205.7,581
		c-1.2,8.4-3,18.4-3,24.2c0.5-3.5,5.5-35.9,5-37.8L205.7,581L205.7,581z M197.3,602.2c-0.4,3.5-0.5,5.4-0.5,5.8
		c0.5-3.2,7.1-44.5,6.4-45.8c-0.3-0.7-0.8,4.9-1.1,7.1c-1.2,8.9-3.7,20.4-4.5,28.8C197.6,599.3,197.5,600.7,197.3,602.2L197.3,602.2
		z"/>
	<path class="st0" d="M136.2,692.1c0.7-4.4,8.4-4.2,8.1,0.8c-0.1,1.2,0.3,4,1.8,4.6c3,1.3,6.6-0.5,6.5-3.7
		c-0.1-4.2-5.1-11.3-7.5-14.8c-3.4-4.9-10.7-15.3-6.1-20.9c3.4-4.3,11.2-5.7,16.3-1.4c6.3,5.3,0.6,10.6-4.2,7.3l-0.5-0.5
		c-1.5-2.6-7.6-4.2-3.4,3.6c3.3,6.2,9.3,12.6,12.1,18.8c3.4,7.7,2.4,16.7-7.6,18.7c-3.5,0.7-7.7,0.4-10.8-1.3
		C136.9,700.9,135.7,695.9,136.2,692.1L136.2,692.1z M199.1,660c-2.6,2.5-8,0.4-13.2,0.9l0.1,16.9c12.3-1.9,11,4.2,9.2,5.5
		c-2.4,1.7-6,1.8-9.2,1.8V698c4.7-0.2,5.5-0.5,9.8-1.6c4.9-1.3,6.9,5,2.3,6.7c-3.6,1.3-11.8,2.2-15.6,1.8c-2.1-0.2-4.7-1.5-4.6-3.9
		c0.5-13.1,0.3-27.4,0.2-40.6c0-2.8-0.2-4.8,3.1-5.9c3.9-1.2,14.4-1.2,17.2,1C200,656.7,200.6,658.6,199.1,660L199.1,660z
		 M238.7,660c-2.6,2.5-8,0.4-13.2,0.9l0.1,16.9c12.3-1.9,11,4.2,9.2,5.5c-2.4,1.7-6,1.8-9.2,1.8V698c4.7-0.2,5.5-0.5,9.8-1.6
		c4.9-1.3,6.9,5,2.3,6.7c-3.6,1.3-11.8,2.2-15.6,1.8c-2.1-0.2-4.7-1.5-4.6-3.9c0.5-13.1,0.3-27.4,0.2-40.6c0-2.8-0.2-4.8,3.1-5.9
		c3.9-1.2,14.4-1.2,17.2,1C239.5,656.7,240.2,658.6,238.7,660L238.7,660z M299.7,676.5l-3.8,21.1c-0.4,2.1-2.2,3.3-4.4,3.3
		c-4-0.1-3.9-2.8-4.7-5.8l-3.2-14.2l0,21.6c-1.1,3.2-6.3,3.4-7.8,0.2l-0.1-0.7c0.2-7.4,0.2-14.8,0.2-22.2c0-4.7-0.2-15.7,0.5-19.8
		c0.9-5.1,3.9-8.1,8.7-4.9c3.1,2.1,5.8,20.5,6.5,25c0.8-6.4,2.6-18.5,5.4-24.1c1.7-3.4,9.2-2.9,9.6,1.7c0.9,7.7,1.1,15.3,1.4,23
		c0.3,6.7,0.9,13.4,0.8,20.1c0,5.3-7.5,5.7-7.7,0.8L299.7,676.5L299.7,676.5z M342.4,677.6c-0.6,8.2,0.5,16.9-0.3,24.3
		c-0.3,3.1-6,4.8-7.7,0.4c-0.3-0.8,0.1-23.8-0.1-24.7c-1.5-3-2.8-6.3-4-9.4c-0.5-1.3-3.8-10.1-3.7-11.1c0-1.1,1.9-3.3,4.1-3.3
		c1.9,0,3.5,1,4,2.7c1.5,4,2.7,8,4.2,12l7.8-13c2.8-3.5,9.2-0.7,6.9,3.5c-1.4,2.5-3,4.9-4.4,7.3
		C346.8,669.9,344.6,673.7,342.4,677.6L342.4,677.6z"/>
	<path class="st1" d="M216.1,776.5c0.5,0.1,1,0.3,1.4,0.5c2.8-9.5,6.8-21.5,10.4-29.3c1.7-3.6,1.1-3-1.8,1.8
		c-5.5,9.5-9.3,18.4-11.5,26.8C215.1,776.3,215.6,776.4,216.1,776.5L216.1,776.5z M206.6,832.1l-11,30.5
		c-3.7,10.1-6.4,18.7-11.5,30.1c-7.2,16-16.9,35.4-31.7,45.2c-4.3,2.9-8.9,4.2-13.7,4c-5.8-0.2-10.5-1.9-14.2-4.9
		c-7.8-6.3-12.1-15.7-13.7-25.6c-2.3-13.9-1.3-22.2,2-37.8c3.5-16.8,8.4-34.1,13-49.3c4.6-15.2,7.9-21.6,12.1-36.4
		c2.6-9.1,4.2-18.6,2.7-27.9c-15,5.8-27.3,29.6-32.4,44.3c-5.8,16.4-8.1,32.6-10.1,49.7c-1,8.4-1.9,16.9-2.7,25.4
		c-0.8,8.5-2.1,17.1-3.8,25.7c-0.5,1.4-1.4,2.8-2.7,4.1c-2.5,2.5-2.1,0.5-4,0.5c-0.4,0-1.3,0.2-2.7,0.7l-1.4-1.4
		c0,1.9-0.7,2.8-2.2,2.5c-12.8-2.6-24-25.5-28.3-36.9c-7.7-20.4-13.4-41.5-16.9-62.5c-2.8-16.6-4.7-33.3-5.9-50.1
		c0-5.3,0.4-11.6,1.1-18.9c2.1-21.7,8.3-48.1,21.2-66.1c4.3-6,9.4-10.9,15.3-14.6c5.9-3.7,12.8-5.6,20.7-5.6
		c6.5,0.5,11.6,2.5,15.3,6.1c8,7.8,10.7,19.6,10.3,31c-0.6,15.6-4.7,25.7-12.8,41.2c-4.9,9.5-11.3,20-19.3,31.5
		c-0.3,1,3.4,74.3,4.3,78.9c0.6,3,1.4-3.4,1.8-5.8c3.2-20.8,12.3-47.3,22.9-65.9c6.8-12,16.6-23.4,29.2-27.7
		c5.6-1.9,11.7-1.7,18.2,0.7c7,2.2,11.9,6.5,14.9,13.1c3,6.6,4.7,14.1,5.2,22.5c0.5,10.8-1.8,28.7-4,39.6
		c-2.7,13.4-9.6,34.6-13.7,48.3c-4.9,16.2-8.4,32.7-9.4,49.7c12.4-14.5,24.5-44.1,32-63.4c8-20.4,17.7-48.4,23.6-68.2l1.1-5
		c3.2-19.7,11-41.4,23.6-56c6-7,12.9-12.5,20.7-16.7s16.6-5,26.5-2.3c7.6,2.1,13,8.1,13,15.8c0,16-17.7,37.8-29.2,48.8
		c-4,3.9-9.4,9.1-11.9,12.6c-1,1.3-1.4,2.9-1.4,4.9c0,15.4-0.8,31.6,0,47c0.4,7.6,1.9,13.3,5,19.6c1.4,2.9,2.6,4.6,3.6,5
		c2.9,1.4,6.3,0.5,10.3-2.7c17.8-14.5,33.6-43.6,41.8-64.5c1.2-3.2,2.3-5.9,3.2-8.1c1-7,2.5-14,4.6-20.9
		c6.3-20.8,17.5-35.5,35.7-46.3c9.1-5.4,18.2-8.6,27.4-9.5c14.3-1.7,24.1,0,35.1,5c4.4,2,4.9,5.8,6.7,4c0.5-0.5,1.6-0.1,3.4,1.3
		c1.8,1.3,3.1,2.9,3.8,4.9c1.2,1.9,2,4.4,2.5,7.6c0.5,3.1,0.5,6.1,0,9c0,2.6-0.5,6.7-1.4,12.1c-4.6,25.6-11.1,53.9-15.5,79.6
		c-1,5.6-1.4,9.9-1.4,12.8c-0.3,5.7-1.9,14.2,1.4,18c0.7,1,1.6,1.3,2.7,0.9c2.4-0.8,4.6-2.8,6.3-4.9c1-1.2,1.8-2.3,2.5-3.2
		c2.2-3.8,4.2-7.8,6.1-11.9c6.3-13.4,14.2-40.6,18.1-55.8c-7.4-3.1-12.3-7.3-14.8-16c-4.3-14.5-3.3-31.5,2.3-45.4
		c4.1-10.3,8.9-15,18.4-15.7c6.1-0.5,12.1,0.5,17.1,4c2.4,1.7,4.1,3.7,5,6.1c3.5,9.1,1.7,23.4-1.8,33.1c3.1-2.6,6.4-5.4,9.7-8.3
		c3.4-2.9,6.2-4.6,8.6-5c11.5-2.2,19.2-1.3,23,2.5c3.8,3.8,4,12.1,0.4,24.8c-8.2,28.5-16.4,52.3-18.7,83.2c-0.7,9.6,0,18.4,2.2,26.3
		c4.5-3.8,7.6-6.6,11.3-12.1c13.4-19.6,23.3-43.6,31.7-65.9l5.8-16c0.8-8.2,2-16.8,3.4-25.8c1.4-9,3.2-17.8,5.4-26.5
		c0.5-2.4,0.7-3.6,0.7-3.6c-6.4,0-10.7,1-19.3,0.2c-4-0.4-7.5-1.1-10.6-2.2c-3.1-1.1-4.9-3.1-5.4-5.9c0.2-2.2,2.2-4,5.9-5.6
		c7.9-3.3,18.4-5.1,27.2-5.9c4.8-0.5,8.3-1,10.4-1.4c6.9-14.6,13.9-30,26.5-39.8c9.2-7.2,19.8-11,30.4-7.9
		c10.3,3,14.7,11.9,14.9,22.9c0.1,6.2-1.5,13.6-4.9,22c11.6,0,54-0.8,58.9,9.9c1.3,3-2.4,4.1-4.9,4.5c-1.4,0.2-5.2,0.2-11.2,0
		c-4.6-0.1-52.1,0.7-52.9,1.8c-2.2,4.1-4.4,8-6.7,11.7L601,758c-3.1,4.7-6.6,9.9-10.4,15.7c-2.6,15.8-4.7,29.9-6.1,42.3
		c-2.3,19.6-4.4,41.1-4.1,58.5c0.1,7.4,0.5,14.2,1.3,20.2l2.2,10.4c6.5-3.9,15.5-27.7,18.2-35.6c2.5-7.4,5.1-15.4,7.7-23.8
		c3.4-10.3,6.8-20.6,10.3-30.8c3.5-10.2,6.9-20.9,10.3-32.2c1.6-7.3,14.2-8.3,15.3-2.5c0.4,1.9,0.3,3.8-0.2,5.8
		c-2.6,8.4-5.3,17.4-8.1,27c-6.6,22.8-24.6,88.8-40.9,103c-3.8,3.4-7.3,5.5-10.4,6.5c-7,1.4-12.8,0.7-17.5-2.2
		c-10.6-6.5-16.1-19.4-18.7-32c-3.5-16.7-4.7-33.2-4.7-49.9c-7.8,19.1-17,39.6-30.7,53.9c-5,5.3-10.3,8.3-15.8,9
		c-29.3,3.3-40.7-17.9-40.7-43.8c0-17.8,3.9-36.1,10.1-52.9c3.1-8.5,6.5-15.9,10.1-22.1c1.2-1.9,2.2-3.9,2.9-5.9
		c0.7-2,1-3.1,0.7-3.1c-0.8,6.8-9.9,14-17.2,16.4c-2.2,7.5-4.9,15.6-7.5,24.7c-5,17.9-7.7,34.1-16.2,49.5
		c-12.4,22.5-27.9,28.4-49.9,17.1c-6.4-3.3-9.4-8.7-11.9-16c-3.5-10.2-5.8-24.6-7.6-37.3c-1.9,4.9-3.4,8.9-5.8,13.7
		c-2.3,4.6-8.9,11-14.6,12.2c-5.4,1.1-8.8,1.1-14,1.1c-3.3,0-8.6-2.5-10.8-3.8c-8.9-5.3-13-14.3-15.1-26.3c-1.1,2.2-2.2,4.4-3.4,6.7
		c-8.2,14.4-16.3,25.6-24.3,33.5c-8,7.9-16.3,12.2-24.7,13c-11.8-0.7-21.5-4-29.2-9.7C217.4,859,210.3,846.6,206.6,832.1
		L206.6,832.1z M580.1,707.4c2.4-7.3,5.8-13.6,8.6-20.2c0.7-1.7,1.3-2.9,1.8-3.6c-1.2,1.4-3.5,4.6-6.8,9.4
		c-3.4,4.8-5.6,9.7-6.8,14.8C577.6,707.5,578.7,707.4,580.1,707.4L580.1,707.4z M591.3,706.6c3.2-9,7.5-16.3,10.1-25.2
		c-1.5-0.8-5.7,7.8-6.5,9.4c-2.6,5-4.2,10.2-6.1,15.8H591.3L591.3,706.6z M593.2,747.6c1.4-2,14.7-22.8,14.7-23.6
		c0-1.1-9.3-0.9-10.1,0.4C595.8,727.3,593.8,746.4,593.2,747.6L593.2,747.6z M619,705.6c3.1-7.9,4.9-14.9,5.4-20.9s-0.4-10.3-2.5-13
		c-0.7-1.2-1.3-1.8-1.8-1.8c-6.8,0-17.5,30.4-18.7,36L619,705.6L619,705.6z M60.9,682.2c0.3-0.7,2-4.7,1.4-4.7
		c-0.7-0.7-6.6,9.9-6.8,10.4c-5.3,10-8.3,42.3-6.8,35.7C51.3,711.1,56,693.1,60.9,682.2L60.9,682.2z M89,670.3
		c-2.2,0-3.8,1.8-4.9,5.4c-4.9,16.3-3.4,44.2-4,61.6c-0.1,3.6-0.4,5.5-0.9,5.8c0.6,0,7.8-14.9,8.6-16.6c3.4-6.9,5.8-15,7.6-22.9
		c1.4-6.4,1.4-12.4,0-18.2c-1.4-3.9-2.8-9.2-4.7-13C90,671,89.4,670.3,89,670.3L89,670.3z M110.6,780.8l1.4-3.6
		c-1.2,0-8.3,15.4-9.4,17.6c-6.5,13.5-9.6,27.1-12.2,41.4c-1.1,5.4,0.1,1.4,1.1-2.9C96.3,813,102.6,795.5,110.6,780.8L110.6,780.8z
		 M165.3,817.9c0-0.5-0.4-0.7-0.4,0.4c0,1.1-2.6,6.9-3.6,10.1c-2.2,7.4-4.1,14.2-5.8,20.3c-2.4,8.6-4,13.1-4.5,18.4
		c-0.1,1.3,0.1,0.9,0.5-1.3l3.6-11.9l5.6-17.6C161.7,833.2,166.6,819.2,165.3,817.9L165.3,817.9z M120.6,865.1
		c-2.1,9.4,3.4-10.4,3.6-11.2c0.5-1.7,1.2-3.8,2.2-6.3c1-2.5,2.1-5.9,3.4-10.1l11.5-36.9c0.9-3.1,3.8-14.8,3.1-16.2
		c-0.2-0.5-0.6,0.4-1.1,2.5c0,0.7-0.7,3.3-2,7.7c-1.3,4.4-2.9,9.4-4.9,14.9c-0.7,2.6-1.7,5.9-3.1,9.7l-9.2,28.1L120.6,865.1
		L120.6,865.1z M126.1,875.9c-0.5,3.5-1.2,8.8,0,4c1.9-7.4,5.1-17.7,7.6-26.5c2.8-9.7,16.1-55.1,16.6-62.1c0.1-1.4,0.3-6.7,0.7-7.6
		c-0.5,0-0.7,0.4-0.7,1.1c0,3.8-7.5,27.1-10.4,36.7c-2.2,7.4-4,13.7-5.6,18.9C129.8,854.7,127.8,861.6,126.1,875.9L126.1,875.9z
		 M140.5,884.2c3.8-16.6,10-40.9,15.5-56.7c2.8-8.2,5.2-19.4,5.9-27.9c0.1-1.4,0.1-2.2-0.2-2.2c0,1.3-1.3,5.4-1.8,7.2l-5,19.1
		c-0.5,1-0.7,1.8-0.7,2.5l-2.5,7.2l-3.4,10.8c-3.3,9.5-5,18.4-6.7,28.1c-1,5.8-1.6,9.7-1.8,11.9v3.6L140.5,884.2L140.5,884.2z
		 M324.6,777.7c1.1,0.7,2,1.9,2.6,3.3c1.4-5.5,4.1-14.7,5.9-19.6c3.2-8.3,1.6-6.3-2.2,0.7C327.7,768,325.7,772.1,324.6,777.7
		L324.6,777.7z M324.5,794.7c-0.3,0.7-0.6,1.5-0.9,2.3C324,797.4,324.4,795,324.5,794.7L324.5,794.7z M246.7,758.1l-2.5,9.4
		c5-5,12.9-14,18-21.1c3.6-4.9,6.4-9.7,8.3-14.4c3.2-7.9-0.8-11.9-2-11.5c-0.4,0.1-1.4,1-3.1,2.7
		C257.5,731.3,250.6,746.8,246.7,758.1L246.7,758.1z M230.5,764.6c-1.6,4-2.9,11.9-3.6,16.2c-0.2,1.4-0.4,2.3-0.4,2.5
		c1,1,2.5-2.2,4.7-9.4c2.3-7.4,6.4-21.1,9-27.7c1.7-4.3,1.1-3.8-1.8,1.4C235.3,753,232.6,758.6,230.5,764.6L230.5,764.6z
		 M412.7,748.1c-4.5,21.5-8,44.4-10.4,66.3c-0.7,6.5-1.1,11-1.1,13.7c0,1.7,0.1,2,0.4,1.1c0.5-4.3,1.1-9.4,2-15.1
		c1.7-11.8,3.6-24.2,5.9-36c1.2-6,2.4-11.5,3.6-16.6c0.5-2.9,1-5.9,1.6-9c1.4-7.4,2-5.9,2-12.6C415.3,738.4,412.9,747,412.7,748.1
		L412.7,748.1z M338.9,791.3c2.1-11.6,7-22.4,9.7-33.5c-3.6,0-6.7,11.6-7.7,15.3c-1.4,5.2-3.6,14.2-3.8,18.5
		c-0.5,5.3-0.6,7.9-0.4,7.9C336.9,799.5,337.7,796.8,338.9,791.3L338.9,791.3z M352.6,829.1c6.3-8.4,16.8-35.3,22.3-45.7
		c2.2-3.8,3.7-7.8,4.7-11.9c3.2-13.8,4.2-25.4,10.8-38.2c0.6-1.1-2.5-0.5-4.7,0.7c-10.6,6.1-16.5,12.6-22.7,23.8
		c-3.7,6.7-9.3,23-11.2,30.8c-2.7,11.1-2.9,15.4-2.9,27.2c0,6.5-0.4,11.2,0.7,16.6L352.6,829.1L352.6,829.1z M454.8,769.3
		c1.2-8.4,2.6-16.6,4.1-24.7c1.6-8,1-15.2-1.6-21.4c-1.2,2.6-2.1,4.9-2.7,6.7c-1.8,5.3-2.6,5.6-3.4,12.1
		C450.5,747.3,449.1,766.8,454.8,769.3L454.8,769.3z M507,765.3c-2.1-5.3-13.7,32.8-14,33.8c-3.1,7-5.7,12.8-7.7,17.6
		c-7.4,17.5-7.7,23.4-7.7,41.1l0.4-5c1.9-9.8,4.7-20.7,8.3-32.6c3.6-11.9,9.2-26.3,16.9-43.4C503.8,775.2,507.7,766,507,765.3
		L507,765.3z M474.3,820.4c-5.8,15.1-4.6,16.3-6.5,29.2c-0.5,3.3,0,3.1,0,5.8v2.5c1.5,1.5,1.6-4.7,2.2-9.4
		c2.5-18.2,11.8-48.4,20.5-66.6c2.1-4.2,2.9-6.9,4.3-10.1c0.7-1.4,1.3-2.9,1.8-4.3C495.7,767.5,476.4,814.5,474.3,820.4L474.3,820.4
		z"/>
	<path class="st1" d="M186.9,370.8c1.1,0.8,2,2,2.5,3.3c1.3-5.3,4-14.4,5.8-19.1c3.1-8.1,1.6-6.1-2.1,0.7
		C189.9,361.4,188,365.4,186.9,370.8L186.9,370.8z M315.9,161.5c-7.2,3.6-15.4,5.4-23.3,7c0.5,6.8,0.3,11.9,0.4,17.3
		c0.3,6.2-0.3,13.4-1.7,21.5c-3.8,21.8-13.7,51.8-32.5,64.8c-5.9,4.1-12.6,6.1-20,6.1c-7.5,0-15.5-3.2-24.3-9.7
		c-14.8-10.8-13.1-35.6-8.4-52.8c3.4-12.7,9.1-24.3,17.3-35c8.2-10.7,18.6-18.4,31.2-23.2l-2.5-25.7c-0.6-3.9-1-8.2-1.3-12.9
		c-0.3-4.6-0.7-8.5-1.3-11.6c-3.1,4.8-7,11.3-11.6,19.6c-4.6,8.3-10,16.6-16,24.9c-6.1,8.3-12.8,15.5-20.3,21.5
		c-7.5,6.1-15.4,9.2-23.8,9.5c-9.8,0.6-17.2-2-22.2-7.6C145,163,142.6,145,143.8,128.7c0.7-9,1.9-16.7,3.6-23.2
		c8.4-36.9,23.5-67.1,45.2-90.8c4-4.4,11.4-11,16-13.1c2.1-1,1.1-0.8,3.4-1.3c2.2-0.8,3-0.4,2.1,1.3c-1.3,2.6,2.5-1.7,3.8-1.7
		c0.6,0,0.6,0.4,0,1.3c0,0.6,0.3,0.6,0.8,0c1.7-1.1,1.8-0.1,0.4,3l-2.1,5.9c-0.6,0.8-1.5,2.5-2.7,4.9c-1.3,2.4-2.6,4.7-4,7
		c-8.9,14.4-25.1,41.9-29.5,54.5c-2.3,6.8-4.4,13.9-6.3,21.3c-2,7.5-3.1,13-3.4,16.7c-0.6,2.2-0.6,3,0,2.1c0.8-3.7,2.3-8.7,4.4-15.2
		c10.8-33,18.6-50,36.5-80.2c2.5-4.1,7-12.1,8.4-15.6c1.1-2.3,1.8-3.4,2.1-3.4c0,0,0.8,0.7,2.5,2.1c3.7,3.4-0.4,11.3-2.5,15.6
		c-1.7,3.4-3.9,7.9-6.8,13.5c-3.9,8.2-8.4,17.6-13.5,28.3c-10.1,21.4-18.9,44.7-22.6,68.2c-1.8,11.7-1.6,22.7,0.6,33.1
		c15.7-12.6,33.8-37.2,45.8-55.5c6.3-9.7,13.6-20.9,21.7-33.6l2.5-9.7c2.3-9,4.9-17,8-24.1c3.1-7,6.2-12,9.3-14.8
		c2.5-2,4.1-2.7,4.6-2.1c1,1.4,2.7-1.8,4.4-1.5c0.7,0.1,0.9,0.8,0.6,1.9c-0.7,5.7-5.6,16-8.4,22.4c-0.8,2-1.6,3.7-2.3,5.1
		c-1.3,2.6-1,4.7,1.7-1.3c3-6.7,5.4-14.3,9.1-21.1c1.9-3.6,4.2-7.8,5.9-6.5c0.6,0.4,0.6,1.2,0,2.3h0.8c1-2,3.1-2.3,2.7-0.6
		c-0.1,0.3-1.6,5.4-3,8.2c-0.1,0.3-0.2,0.7-0.2,1.3c-0.3,0.6-0.4,1-0.4,1.3c0.6,0,1.8-1.7,3.8-5.1c3.4-4.5,5.1-5.2,5.1-2.1
		c0.3,0.8,0.4,1.3,0.4,1.3c0.9-1.8,2.8,0.5,3,1.3c0.6,2.7-2.6,15.6-3.4,20.3c-1.7,11.8-2.8,24.5-3.4,38c-0.6,13.5,0.1,30.4,2.1,50.7
		l0.8,11c6.5-1.4,12.2-3.3,17.3-5.7c5.1-2.4,8.7-6.4,11-12c0.6-1.5,1.3-1.7,1.1-3.4c-0.7-4.3-4.2-9.2-4.9-20.9
		c-0.3-5.2,0.3-10.1,1.7-14.6c2.6-8.6,2.6-9.8,7.6-16.5c7.4-9.9,21.6-16,34.2-16c9.4,0,15.5,3.6,24.1,9.3c4.2,2.8,7.7,5.8,10.6,8.9
		c11.8,12.1,18.6,29.4,20.3,51.9l-0.2,19c-0.2,6.4-1.1,12.9-1.9,18.6c7.6-3.1,13.9-8,19-14.8c4.2-5.3,7.3-10.2,9.3-14.6
		c0.7-1.5,1.2-2.7,1.7-3.8c0.5-3.1,1.1-6.3,1.7-9.5c3.4-16.9,7.1-30.1,11.2-39.7c4.1-9.6,8.5-15.9,13.3-19c0.6-0.3,1.9-0.7,4-1.3
		c2.1-0.6,3.2-0.3,3.2,0.8c0,1.7-1.3,5-4,9.9c-4.8,8.8-6.9,17.3-9.3,28.3l-4.7,23c0.8,0.6,1.5,1.3,2.1,2.2c3.4-17,10.8-47.3,18-61.7
		c0.3-0.6,1.1-1.5,2.5-2.7c1.4-1.3,1.8-1.3,1.3-0.2c0,0.6-0.1,1.5-0.4,3c-0.3,1.4,0,1,0.8-1.3c1.1-1.7,2-2.5,2.5-2.5
		c-3.3-1.1,8.6,0.9,11,8c2.5,7.4,0.5,18.4-1.1,26.6c-1.8,9.2-4.2,18.7-5.7,27.4c-4.8,28.7-9.2,46.7-8,77.2
		c7.3-6.8,15.9-16.5,21.5-24.5c9.8-14.6,18.4-30,25.5-46.2c7.2-16.2,15.3-32.3,24.3-48.3c3.1-5.3,5.3-8.9,6.8-10.8
		c3.3-4.3,5.9-1.9,5.9-3.6c1.4-1.4,6.3-0.6,8.4-0.8c4.7-0.5,4.7,1.3,6.8,1.3c3.2,0,7.7,5.5,8.9,8c2.5,5.6,3.2,15.2,2.1,28.7
		c-0.6,9.8-1.5,19.6-3,29.1c-2.8,19.3-5.4,38.7-7.4,58.3c-1.9,18.7-1.7,43.1,2.5,60.8c4.1-2,9.5-3.1,14-3.3
		c12.1-21.6,22.3-53.6,29.7-78.3c2.3-7.6,4.1-14.3,5.5-20c1.4-5.8,2.6-10.5,3.6-14.1c1.6-6,1.9-9,5.5-11.2c4.2-2.5,10.1-1.3,12.7,3
		c2.3,3.9,1.1,7.1-0.4,12.9l-9.3,34.8c-2.1,7.7-4.6,15.7-7.4,23.8c-3.1,9.8-6.2,18.7-9.3,26.6c-4.3,10.8-8.8,21.3-14.1,30.6
		c2.3,3.8,2.7,8.3,1.2,13.4c-3.7,12.3-14.5,26.6-23.4,37.4c-5.5,6.7-10.7,13.1-15.7,19.2c-0.5,19-0.9,35.6-1.4,49.7
		c-1.3,37.9-1.9,71.7,2.1,108.9h0.4c2.8-2.8,9.3-18.9,10.9-22.6c3.8-8.6,7.9-21.7,10.9-31.4c5.9-19.3,10.1-40.6,14.1-59.5
		c0.3-1.1,0.7-2.2,1.3-3.1c-6.3-10.1-8.9-19.3-6.8-30.1c2.1-10.9,8.3-20.2,18.1-25.5c4.9-2.7,10.6-4.1,16.9-4.1
		c5.6,0.5,10.8,1.9,15.5,4.4c7.4,3.9,10.8,9.6,12.7,17.3c1.4,5.8,1.6,10.5-0.5,15.9c-2.2,5.6-3.3,2.2-4.4,3.7
		c-0.8,1.4,0.1-5.4-0.7-5.8c-0.2-0.1-0.6,0.9-1.1,3c-0.9,2.6-1.4,3.9-1.4,3.9c-1.2,0-2.1-1.1-2.8-3.2c-0.7,1.5,0.1,1.4-0.7,1.8
		c-1,0.4-2.6-1.2-2.8-1.8c-2.1-4.7-0.6-23.1-11.3-27.1c-2.1-0.7-3.5-1.1-4.2-1.1c-4.2,0.3-6.7,5.9-7.4,9.9c-0.7,4.1-1,10.6,0.7,14.1
		c6.3,13,25.1,38.2,36.6,46.9c6.8-2.3,13.4-5.1,19.9-8.1c6.5-3.1,11.5-7.6,15-13.7c5.3-8.8,18.6-0.3,13.4,8.1
		c-4.7,7.5-10.7,13.3-18,17.3c-7.3,4-14.4,7.3-21.5,9.9c3.5,5.7,8,14.5,10.2,20.8c4.2,12.3,5.1,32.2,1.8,44.8
		c-1.7,6.3-5.7,14.1-10.2,18.7c-10.3,10.1-27.3,13.5-40.5,8.3c-9.3-3.7-14.7-9.9-17.8-19.7c-2.9-9.2-2.7-19.8-1.4-29.2
		c2.1-15.7,10.9-30.4,19.9-44.2c-6.1-7.1-11.2-13.3-15.5-18.7c-3.5,15.8-6.6,30-10.9,45.8c-4.5,15.7-8.5,28.2-12.2,37.4
		s-7,16.2-10,21.1c-2.8,5.6-6.5,9.7-10.9,12.2c-14.7,8.1-31.7,0.8-39.1-13.9c-8.5-17-10.4-40.1-9.2-60.6c-1.6,2.6-3.5,4.9-5.6,7
		c-4.2,4.7-9.3,8-15.2,9.9c-9.3,3-19.9,1.8-27.4-4c-4.5,22.4-10.8,49.1-24.7,65.2c-5.4,6.2-11.7,9.3-19,9.3
		c-23.5,0-37.9-23.7-41.6-44.8c-4.9-28.3-0.4-59.3,5.5-87.4c2-9.6,3.9-19.1,5.8-28.5c0.7-4.2,1.5-8.2,2.3-11.8
		c2.5-10.9,2.6-20.7-1.9-31.2c-13.2,12.2-20.7,31.2-25.4,49.3c-3.9,15.1-5,27-7,42.3c-0.9,7-1.9,14.2-3,21.3
		c-1.1,7.2-2.5,14.3-4.4,21.3c-1.9,4.2-4.5,6.9-7.8,7.9c-11.5,3.7-23.5-6.2-29.6-15.3c-7.1-10.7-13-25.2-17.2-37.9
		c-5.2,17.8-8.4,36.6-16.8,51.9c-12.2,22-27.3,27.8-48.8,16.7c-6.3-3.2-9.2-8.5-11.6-15.7c-3.4-10-5.7-24-7.4-36.5
		c-1.9,4.8-3.3,8.7-5.6,13.4c-2.2,4.5-8.7,10.8-14.3,12c-5.3,1.1-8.6,1.1-13.7,1.1c-3.2,0-8.4-2.4-10.6-3.7
		c-6.4-3.9-10.6-10-13.1-18.2L164.6,454c-3.6,9.8-6.3,18.3-11.3,29.4c-7,15.7-16.6,34.6-31,44.2c-4.2,2.8-8.7,4.1-13.4,3.9
		c-5.6-0.2-10.3-1.8-13.9-4.8c-7.6-6.1-11.8-15.4-13.4-25c-2.2-13.6-1.2-21.7,1.9-37c3.4-16.5,8.2-33.3,12.7-48.3
		c4.5-14.9,7.7-21.1,11.8-35.6c2.5-8.9,4.1-18.2,2.6-27.3c-14.6,5.6-26.7,29-31.7,43.3c-5.6,16-8,31.9-9.9,48.6
		c-0.9,8.2-1.8,16.5-2.6,24.8c-0.8,8.3-2.1,16.7-3.7,25.2c-0.5,1.4-1.4,2.8-2.6,4.1c-2.5,2.5-2.1,0.5-3.9,0.5
		c-0.4,0-1.2,0.2-2.6,0.7l-1.4-1.4c0,1.9-0.7,2.7-2.1,2.5c-12.5-2.5-23.5-25-27.7-36.1c-7.5-20-13.1-40.6-16.6-61.1
		c-2.7-16.2-4.6-32.5-5.8-49c0-5.2,0.4-11.3,1.1-18.5c2.1-21.2,8.1-47.1,20.8-64.7c4.2-5.9,9.2-10.6,15-14.3
		c5.8-3.6,12.5-5.5,20.3-5.5c6.3,0.5,11.3,2.5,15,6c7.9,7.6,10.5,19.2,10,30.3c-0.6,15.2-4.6,25.1-12.5,40.3
		c-4.8,9.3-11.1,19.6-18.9,30.8c-0.3,0.9,3.3,72.7,4.2,77.2c0.6,2.9,1.4-3.4,1.8-5.6c3.1-20.3,12-46.3,22.4-64.5
		c6.7-11.8,16.2-22.9,28.5-27.1c5.5-1.9,11.5-1.6,17.8,0.7c6.8,2.1,11.7,6.4,14.6,12.9s4.6,13.8,5.1,22c0.5,10.6-1.8,28-3.9,38.8
		c-2.7,13.1-9.4,33.9-13.4,47.2c-4.8,15.8-8.2,31.9-9.2,48.6c18.3-21.4,39.7-83.1,49.2-112.1c2-6,3.6-11.1,4.8-15.1
		c0.9-7.9,2.5-15.8,4.9-23.6c6.2-20.4,17.1-34.7,34.9-45.3c8.9-5.3,17.9-8.4,26.8-9.3c14-1.7,23.6,0,34.4,4.9c4.3,2,4.8,5.6,6.5,3.9
		c0.5-0.5,1.6-0.1,3.3,1.2c1.8,1.3,3,2.9,3.7,4.8c1.2,1.9,2,4.3,2.5,7.4c0.5,3.1,0.5,6,0,8.8c0,2.6-0.5,6.5-1.4,11.8
		c-4.5,25.1-10.9,52.7-15.2,77.9c-0.9,5.5-1.4,9.7-1.4,12.5c-0.3,5.5-1.8,13.9,1.4,17.6c0.7,0.9,1.6,1.2,2.6,0.9
		c2.4-0.8,4.5-2.7,6.2-4.8c0.9-1.2,1.8-2.2,2.5-3.2c2.1-3.8,4.1-7.6,6-11.6c6.8-14.4,15.6-45.4,19.4-61.7c0.1-0.3,0.2-0.6,0.3-0.9
		c-1.1-7.4-1.8-15-2-22.8c-0.4-14.5,0.9-26.1,6.5-37.9c2.2-4.7,4.8-8,7.6-9.9c3.3-2.3,4.1-2.8,3.2,1.1c1.9-3,2.5-4.6,4.6-4.6
		c0.9,0,0.6,0.7-0.4,2.8c-2.8,6.6-4.2,18.9-4.2,26.4l0.4,2.8c0.2-2.7,3-14.5,4.1-18.1c1.1-3.6,2.1-6.9,3.2-9.9
		c2.2-6.2,4.1-4.4,4.1-3.3c0,0.5,1.2-0.9,1.8-1.1c1.6,0,2.6,1.9,2.8,5.6c0.9-2.6,1.8-3.9,2.5-3.9c2.8,0,5.2,2.5,7,7.6
		c10,26.8,6.3,94.4,10.2,101c1.2-5.4,2.3-11.7,3.3-18.9c2.2-14.9,4.8-30.2,9.2-44.9c4.1-13.9,10.6-27,21.8-35.8
		c9.6-7.4,26.5-11,37.2-4.1c10,6.5,14.7,17.5,16.9,29.2c3.2,17.2,3.4,28.3,1.6,45.6c-1.6,16.1-4.8,33.7-7.9,53
		c-1.9,11.7-3.3,23.1-4.4,34.2c-1.1,11,0.4,22.3,4.4,33.8c1.4-0.2,3.2-1.6,5.5-4.2c5-5.8,10.5-20.5,13.4-29.8
		c4.8-15.7,8.2-31.8,11-48l0.1-0.4c-0.6-2.8-1-5.8-1.2-8.8c-1.7-24.2,8.7-52.8,29.4-66.2c5.9-3.8,12.3-6.9,19.4-9.5
		c7-2.6,14.9-4.1,23.6-4.6c3-6.9,4.3-13.5,6.7-20.8c3-9.1,7-20.6,11.2-29.5c-13.6-8.9-19.7-27.7-20.8-43.3
		c-1.2-17.1,0.8-33.9,3.8-53.2c3.3-21.6,7.9-47.2,11.4-66.1c1.3-6.8,1.2-8.2-0.2-4.2c-9.3,26.2-21.9,53.3-38.4,77.2
		c-9.9,14.4-23.9,30.4-40.1,34c-7,1.5-14.1-0.2-21.1-5.3c-12.8-9.3-17-29.1-17.4-47.5c-9.4,9.4-20.2,15.1-32.4,17.1l-1.7,6.3
		c-3.4,8.2-7.6,15.4-12.7,21.7c-9.7,12.1-22.7,19-38.2,16.7c-7.5-1.1-15.3-5.1-23.4-11.8c-11.9-9.9-17.5-29.6-16.5-45.6L315.9,161.5
		L315.9,161.5z M604.6,274.3c-0.8,1-1.7,2-2.5,2.9c-1.4,3.5-3.3,7.4-5.6,11.7c-3.6,6.7-7.6,12.9-11.8,18.5c-0.5,0.9-0.9,1.7-1.4,2.3
		s-0.7,1-0.7,1.2c8.5-10.9,13-17.2,19.2-29.6C603.1,278.5,604.1,276.1,604.6,274.3L604.6,274.3z M597,281.8
		c-1.1,0.9-2.3,1.6-3.4,2.2c-2.9,1.3-6.1,2.1-9.3,2.4c-1.4,4.1-3.1,10.8-4.1,15.4c-0.9,4.2-1.5,6.7-1.8,7.6
		C585.1,300.7,591.9,292,597,281.8L597,281.8z M577.6,286.5c-0.9-0.1-1.7-0.2-2.6-0.4c-3.7,9.8-7.9,28.7-8.8,38.5
		c1.9-7.6,2.5-11.8,5.5-20.6L577.6,286.5L577.6,286.5z M569.8,284.7c-0.6-0.2-1.2-0.5-1.8-0.7c-5.2,10.9-11.2,32.1-13,45.1
		c-0.5,3.4-0.5,5.6,0,6.5c0-0.7,0.1-1.4,0.4-2.1c0.2-0.7,0.4-1.5,0.4-2.5c4-18.6,8.2-33,12.7-43.3
		C568.8,286.7,569.3,285.7,569.8,284.7L569.8,284.7z M566,283c-0.2-0.1-0.4-0.2-0.6-0.3c-8.1,15.7-13.3,32.9-15.7,51.6
		c3.3-9.4,6-18.8,8.3-28.2C559.8,298.2,562.5,290.6,566,283L566,283z M490.9,370.3L490.9,370.3c1-2.1,1.9-4.1,2.8-5.8
		c-1.4,1.2-2.8,2.9-4.1,5.2L490.9,370.3L490.9,370.3z M537,375.4c0.5-1.2,0.8-2.4,1.1-3.7c0.2-1,3-11.2,1.1-5.5l-10.9,31.2
		c-1.9,5.4-3.6,9.9-5.2,13.4C527.4,401.4,534.4,385.6,537,375.4L537,375.4z M506.3,430c14.9-14.9,26.3-51.3,31.9-71.5
		c1.3-4.7,2.2-8.6,2.6-11.6c0.5-2.3-1.6-0.8-6.3,1.8c-19,9.9-29.7,25.8-32.1,47.9C501.3,406.6,502.6,417.8,506.3,430L506.3,430z
		 M519.7,423.3c-1.2,2.1-1.8,3.3-1.9,3.5c-0.1,0.2,0.4-0.2,1.6-1.4c1.2-1.6,2.8-4,4.8-7c7-10.7,11.4-24,13.2-35.9
		C533,395.9,526.7,412.1,519.7,423.3L519.7,423.3z M527.1,425.1c-1.2,2.6-1.6,3.7-1.2,3.3c1.3-1.3,4.5-6.1,6-8.6
		c0.8-1.4,1.7-2.9,2.6-4.6c0-2.6,0.1-4.5,0.4-5.6L527.1,425.1L527.1,425.1z M652.6,485.7c3.1-3.1,5.1-6.8,6-11.3
		c3.1-14.6,1.1-27.2-3.9-43c-2.5-8.1-2.4-7.9-4.9-3.9c-6.6,9.7-7.3,15.7-8.5,27.1c-0.9,8.5-0.2,16.6,3.2,24.1c1.6,3.6,3.4,6,5.3,7.2
		C650.7,486.8,651.6,486.6,652.6,485.7L652.6,485.7z M32.8,277.4c0.4-0.9,1.9-4.4,1.4-4.6c-0.9-0.4-6.3,9.5-6.7,10.2
		c-5.2,9.7-8.1,41.4-6.7,34.9C23.4,305.7,28,288.2,32.8,277.4L32.8,277.4z M60.3,265.8c-2.1,0-3.7,1.8-4.8,5.3
		c-4.8,16-3.3,43.2-3.9,60.3c-0.1,3.5-0.4,5.4-0.9,5.6c0.6,0,7.7-14.6,8.5-16.2c3.4-6.7,5.7-14.7,7.4-22.4c1.4-6.2,1.4-12.2,0-17.8
		c-1.4-3.8-2.7-9-4.6-12.7C61.3,266.5,60.7,265.8,60.3,265.8L60.3,265.8z M81.4,374l1.4-3.5c-1.2,0-8.1,15.1-9.2,17.3
		c-6.4,13.2-9.4,26.6-12,40.5c-1.1,5.3,0.1,1.4,1.1-2.8C67.4,405.5,73.6,388.3,81.4,374L81.4,374z M135,410.3c0-0.4-0.4-0.6-0.4,0.4
		c0,1.1-2.5,6.7-3.5,9.9c-2.1,7.3-4,13.9-5.6,19.9c-2.3,8.4-3.9,12.8-4.4,18c-0.1,1.3,0.1,0.9,0.5-1.2l3.5-11.6l5.5-17.3
		C131.5,425.2,136.2,411.5,135,410.3L135,410.3z M91.3,456.4c-2,9.2,3.3-10.2,3.5-10.9c0.5-1.6,1.2-3.7,2.1-6.2
		c0.9-2.5,2.1-5.8,3.3-9.9l11.3-36.1c0.9-3,3.7-14.5,3-15.9c-0.2-0.5-0.6,0.4-1.1,2.5c-0.5,4.6-4.8,16.1-6.7,22.2
		c-0.7,2.6-1.7,5.8-3,9.5l-9,27.5L91.3,456.4L91.3,456.4z M96.5,467c-0.5,3.5-1.2,8.6,0,3.9c1.8-7.2,5-17.4,7.4-25.9
		c2.7-9.4,15.8-53.9,16.2-60.8c0.1-1.4,0.3-6.6,0.7-7.4c-0.5,0-0.7,0.4-0.7,1.1c0,3.7-7.4,26.5-10.2,35.9
		c-2.1,7.3-3.9,13.4-5.5,18.5C100.3,446.3,98.3,453.1,96.5,467L96.5,467z M110.6,475.1c3.8-16.3,9.8-40,15.2-55.5
		c2.8-8.1,5.1-19,5.8-27.3c0.1-1.4,0.1-2.1-0.2-2.1c0,1.3-1.3,5.3-1.8,7l-4.9,18.7c-0.5,0.9-0.7,1.8-0.7,2.5l-2.5,7l-3.3,10.6
		c-3.3,9.3-4.9,18-6.5,27.5c-0.9,5.6-1.5,9.5-1.8,11.6v3.5L110.6,475.1L110.6,475.1z M273.1,341.9c-4.4,21-7.8,43.4-10.2,64.8
		c-0.7,6.3-1.1,10.8-1.1,13.4c0,1.6,0.1,2,0.4,1.1c0.5-4.2,1.1-9.2,1.9-14.8c1.7-11.5,3.5-23.7,5.8-35.2c1.2-5.9,2.3-11.3,3.5-16.2
		c0.5-2.8,1-5.8,1.6-8.8c1.4-7.3,1.9-5.8,1.9-12.3C275.6,332.5,273.3,340.9,273.1,341.9L273.1,341.9z M200.8,384.2
		c2.1-11.3,6.8-22,9.5-32.8c-3.5,0-6.6,11.5-7.6,15c-1.4,5.1-3.5,13.9-3.7,18.1c-0.5,5.2-0.6,7.8-0.4,7.8
		C199,392.3,199.7,389.6,200.8,384.2L200.8,384.2z M214.2,421.2c6.2-8.2,16.4-34.5,21.8-44.8c2.1-3.8,3.6-7.6,4.6-11.6
		c3.2-13.5,4.1-24.8,10.6-37.3c0.6-1.1-2.4-0.5-4.6,0.7c-10.4,6-16.2,12.3-22.2,23.3c-3.6,6.5-9.1,22.5-10.9,30.1
		c-2.6,10.9-2.8,15-2.8,26.6c0,6.4-0.4,10.9,0.7,16.2L214.2,421.2L214.2,421.2z M365.1,426.1c0.5-6.1,2.4-16.2,3.5-23.1
		c2.7-16.7,5.9-34.3,10-49.5c2-7.3,4.3-13.6,6.9-19c0.2-0.6,2-4.6,1.4-4.6c-2.8,5.1-5.7,11.8-7.8,17.3c-6,15.6-12.1,58.7-15,79.6
		c-0.4,2.6-0.5,4.1-0.5,4.6c-0.5,0.9-0.4,1.4,0.4,1.4c0-1.7,0.7-2.3,0.7-4.1C364.7,428,364.8,427.1,365.1,426.1L365.1,426.1z
		 M389.7,337.3c1.6-2.4,1.8-5.5-0.5-0.5c-2.2,4.6-6.3,15.7-7.6,20.6c-3.4,13.3-6,29.2-7.9,42.8c-0.6,4.1-0.9,6.8-0.9,7.9l1.4-8.1
		c1.9-12.7,4.2-24.4,6.9-35.2C383.8,354,386.7,344.9,389.7,337.3L389.7,337.3z M437.3,370.8l-2.8,19.4c-1.2,7.3-2.3,14.4-3.3,21.5
		c-1.6,10.7-4.8,34.8-4.8,44c0,1.4,0.1,1.6,0.2,0.7c0.1-0.9,0.8-5.2,1.9-12.7c1.6-10.6,9.2-61.5,9.5-69.4l0.4-9.5L437.3,370.8
		L437.3,370.8z M426.7,342.6c-0.7,0-2.2,13.9-2.5,16.2L419,392c-3.3,19-5.1,33.9-5.3,44.8l-0.4,7.4l0.7-6.3c0.5-1.9,1-4.9,1.6-9.2
		c0.6-4.2,1.2-8.3,1.9-12.3c0.7-5.2,1.4-9.2,1.9-12.2c1.2-5.8,1.7-10.1,2.5-15.9c0.4-2.7,0.9-6.3,1.6-10.7c0.7-4.9,2.8-27,2.8-32.1
		C426.4,344.5,426.5,343.6,426.7,342.6L426.7,342.6z M411.9,392.3l-3,18.5l-1.2,10.7c0.2,1.4,1.2-3.3,3-14.1
		c1.8-10.8,4.5-27.6,8.3-50.4c0.5-2.1,0.8-4.1,0.9-6c0.1-1.9,0.2-3.1,0.2-3.5c-0.2-0.5-0.6,0.9-1.2,4.1c-0.6,3.2-1.2,7.2-1.9,12.2
		c-0.9,4.9-1.9,10.2-2.8,15.9C413.1,385.3,412.4,389.5,411.9,392.3L411.9,392.3z M158.8,111.4c-0.3,2-0.3,2.6,0,1.9
		c0.3-0.7,1.1-3.2,2.5-7.4c3.4-12.4,7.6-24.6,12.7-36.7c5.1-12.1,10.6-23.1,16.5-32.9c1.7-2.2,0.9-1.4,2.1-3.8l0.8-1.7l-10.3,15.6
		c-1.5,2.5-2.9,4.6-4,6.3c-3.1,5.6-5.7,10.8-7.8,15.4c-4.4,9.6-7.5,19-9.9,29.5C159.9,103.8,159.1,108.3,158.8,111.4L158.8,111.4z
		 M254.2,243.6c3.1-10.1,4.3-20.8,3.6-32.1c-0.7-11.3-1.3-22.7-1.9-34.2l-10.1,8c-5.6,5.9-10.1,12.9-13.3,21.1
		c-5.6,14.1-10.6,35.6-3.4,50.9c1.3,2.7,3.2,4.3,5.7,4.9c0.8,0.3,2.7-0.4,5.7-2.1c3-1.7,5.1-3.2,6.5-4.6
		C249.6,253.7,252,249.7,254.2,243.6L254.2,243.6z M456.4,149.2c-0.6,1.2-1.3,2.4-2,3.7l-0.7,11.6L456.4,149.2L456.4,149.2z
		 M450.5,126.3c0.7-0.1,1.4-0.2,2.1-0.2c3.1-14.6,6.2-26.5,9.2-35.8c0.6-2.3,1.1-4.1,1.7-5.5s0.7-2.1,0.4-2.1
		C458.5,91.4,452.6,115.1,450.5,126.3L450.5,126.3z M336.5,101.3c2-0.9,8.8-4.2,9.7-4.2c0,1.5-1.7,5.1-0.4,3.8c-0.6,0,0-0.6,1.7-1.7
		c1-0.8,4-4.9,4.9-2.3c0.5,1.5-0.1,2.2,0.6,0.6c0.2-0.3,3-2.4,3-0.8c0,1.9-2.2,6.3-0.8,4.6c0.9-1.1,1.7-0.8,3-2.1
		c1.5-1.5,2.7-2,3.2,0c0.4,1.7-0.2,3.8,1.9-0.4c2.7,4.1,3.1,3.8,2.7,8.4c-0.1,2-0.6,4.9-1.5,8.7c-0.8,3.8-2,9.4-3.4,16.7l-3.8,17.3
		c3.1,4.5,7.3,8.9,12.7,13.1c5.3,4.2,12.1,7,20.3,8.4c1.7-6.7,3-11,3.6-17.7c0.4-4.5,0.6-9.7,0.6-15.6c-0.2-22.5-6.8-44.8-21.7-55.5
		c-8.7-6.2-20.2-10.2-28.9-1.5C337.8,86.9,337.3,93.2,336.5,101.3L336.5,101.3z M370.3,211.1c2.8-1.9,11.6-17.3,13.5-22
		c-10.6,1.1-29.5-12.1-27.5-12.2c-3,0.1,3.5,15.8,4.5,18.1C361.7,197.3,368.6,212.8,370.3,211.1L370.3,211.1z M468.2,166.3l5.9-33.6
		c1.6-8.8,4.4-23.3,6.3-31c0.8-3,6.1-25.3,4.2-25.3c-0.6,0-1.4,1.8-2.5,5.5c-1.7,6.8-3.4,14.1-5.1,22.2c-3.2,15.2-6.2,31.8-8.2,46.9
		c-1,7.2-1.6,13.2-1.9,17.9v6.3L468.2,166.3L468.2,166.3z M575.4,136.3c-2.3,15.2-4,27.4-5.3,36.7c-1.3,9.3-1.8,15.1-1.5,17.3v0.8
		l2.3-15.6c1-6.8,2-14.2,3.2-22.4c1.4-8.2,2.5-16,3.4-23.4c0.8-7.5,1.5-12.3,2.1-14.6l0.4-9.7c-0.3-0.6-0.4-0.1-0.4,1.3L575.4,136.3
		L575.4,136.3z M556.4,184.5c-0.8,7.9-1.2,12.2-1.1,13.1c0.1,0.8,0.6-2.4,1.5-9.7c0.6-3.4,1.4-8.8,2.5-16.3l6.3-41.4
		c1.9-11.7,2.4-19.4,3.8-29.8c1.4-9.8-0.2-7.8-0.8-2.1c-0.7,9.5-2.6,20.7-4.6,32.1l-5.5,34.4C557.4,172.3,557,177.2,556.4,184.5
		L556.4,184.5z"/>
	<path class="st0" d="M311.7,537.4v0.5h-3.2v0c-3.9-0.1-7.7-0.2-11.5,0.2c-2.5,0.3-4.2-1.7-4.2-3.1c0.2-7.8,0.2-15.6,0.2-23.4
		l0-24.2c0.7-3.7,5.6-4.6,7.2-0.3l0.1,0.6v42.2c3.1,0,7.6-0.1,10.5,0.5C314.5,531.2,314.5,535.8,311.7,537.4L311.7,537.4z
		 M335,537.4v0.5h-3.2v0c-3.9-0.1-7.7-0.2-11.5,0.2c-2.5,0.3-4.2-1.7-4.2-3.1c0.2-7.8,0.2-15.6,0.2-23.4l0-24.2
		c0.7-3.7,5.6-4.6,7.2-0.3l0.1,0.6v42.2c3.1,0,7.6-0.1,10.5,0.5C337.8,531.3,337.8,535.8,335,537.4L335,537.4z M277.6,530.2
		c0.9-0.2,3.7-4.5,3.9-5.9c0.8-5.7,0.7-11.9,0.7-17.7c0-3.2,0.1-6.5,0.1-9.7l0.1-9.1c0.4-5.7,7-3.7,7.2-0.1
		c0.6,14.9-0.3,30.6-0.3,45.6c0,5.4-5.2,6.7-6.9,2.1c-3.5,3.7-7.9,3.8-10.9-0.5c-4.5-6.1-4.2-17.2-4.4-24.6
		c-0.1-3.5-0.1-19.3,0.3-22.8c0.6-4.9,7.7-4.1,7.7,0.4l-0.5,6.6c-0.6,8-0.9,27.7,2.3,34.8C277,529.4,277.3,530.1,277.6,530.2
		L277.6,530.2z M253.3,491.5l0.1,17.9c2.9-0.5,9-1.4,9.2,2.9c0.2,3.8-5.6,4.6-9.1,4.8l0,17.3c-0.5,5.3-7.2,4.5-7.5,0.1l0-0.1
		c0.4-14.2,0.2-29,0.1-43.2c0-2.5-0.3-5,2.4-6.2c5.2-2.3,18.3-1,16.9,4.4c-0.4,1.8-2.5,3-4.3,2.6
		C258.5,491.5,255.9,491.3,253.3,491.5L253.3,491.5z M229.1,490.5c-2.4,2.8-7.1,0.6-11.8,1l0.1,17.8c10.9-1.8,9.8,4.4,8.2,5.8
		c-2.1,1.8-5.3,2-8.2,2v13.7c3.4-0.2,5.4-0.5,8.4-1.6l0.1,0c4.6-1.4,6.5,5.2,2.3,7c-3.3,1.4-10.6,2.3-14.1,1.9
		c-2-0.2-4.3-1.7-4.2-4.2c0.4-14.6,0.2-28.4,0.2-42.9c0-2.8-0.2-5,2.8-6.2c3.6-1.4,13.1-1.3,15.6,1.1
		C229.9,487.1,230.4,489.1,229.1,490.5L229.1,490.5z M191.6,524.7l0,10.8c0,2.3-2,2.3-3.5,2.2c-4.4-0.1-4.1-3.7-4.1-6.6l0.2-16.1
		v-27.3l0.6-1.6c9.1-9,21.9,0.4,18.9,13.8c-1.4,6.2-4.6,12-9,16.7c3.2,3.6,9,11.7,10.9,16.2c1.5,3.7-2.6,7.1-6.1,4.2L191.6,524.7
		L191.6,524.7z M170.2,519.5c-1.2-0.3-2.6-0.2-3.7,0.2c-0.6,4.8-0.9,9.7-1.2,14.6c-0.3,5.1-7.8,4.1-7.5-0.7
		c1.1-15.6,3.4-31.2,6.3-46.6c0.8-4,7.9-3.7,8.5,0.1c0.9,5.7,7.5,44.5,7.5,46.7c0,5.3-6.7,5.6-7.4,1.1c-0.4-2.7-0.8-5.4-1.2-8.1
		L170.2,519.5L170.2,519.5z M191.6,490.1c0,2.5-0.1,5-0.1,7.4l0.1,11.6c3.4-3.4,5-8.8,5.3-13.3C197.2,491.5,194.4,487.7,191.6,490.1
		L191.6,490.1z M167.6,512.4c0.5,0,1-0.1,1.5-0.1l-0.8-4.9L167.6,512.4L167.6,512.4z"/>
	<path class="st0" d="M488.4,654.6c3.5-5.5,8.2-9.1,13.8-11c9.1-2.4,18.9,0.1,24.1,8.5c8.4,12.9,4,25.7-7.9,34.4
		c-17.5,11.4-21.7,3.8-39.2,23.6c-0.3,0.3-0.4,0.4-1.1,0.7c-0.5-0.5-0.5-0.6-0.7-1c-9.1-23.8-16.4-19.5-28.4-35.9
		c-8.2-12.3-7.7-25.8,4.7-35c7.9-6,17.9-4.9,25.6,0.5C483.9,643.2,487,648.2,488.4,654.6L488.4,654.6z M470,640
		c-8.2-0.8-14.3,1.9-17.8,7.4c-3.1,5-4.3,10.7-3,15.6c0.1-4.2,3.1-11.1,4.9-14.5C456.6,644.2,461.2,641.7,470,640L470,640z"/>
	<path class="st1" d="M198.2,301.8c-20.2,13.9-37,19.4-61.6,19.9c-2.2,3.2-4.6,6.2-7.1,9.1c-0.5,0.6-1.2,0.9-2,0.8
		c-9.4-0.4-18.9-1.6-28.2-3.2c-2.4-0.4-3.5-2.7-1.7-4c3.6-2.5,7-5.2,10.3-8c0-0.3,0.1-0.6,0.1-0.9c-2.3-3.6-4.6-7.2-6.9-10.8
		c-1.1-1.7,0.6-3.5,2.8-3.2c8.2,1.4,16.5,2.4,24.8,2.8c0.7,0,1.3,0.4,1.6,1c2,3.1,4,6.3,6.2,9.3c23.1-0.4,38.7-5.5,57.7-18.6
		c0.1-0.3,0.2-0.7,0.4-1c-0.9-1.2-1.7-2.4-2.6-3.6c-0.9-1.3-0.4-3.1,1.1-3.3c6.7-1.2,13.3-2.9,19.8-4.8c1.9-0.6,3.5,1.4,2.6,3.2
		c-3.2,6.3-6.4,12.6-9.9,18.7c-0.8,1.4-2.8,1.5-3.8,0.2c-0.9-1.2-1.7-2.4-2.6-3.6C199,301.8,198.6,301.8,198.2,301.8L198.2,301.8z"
		/>
</g>
</svg>
