<?xml version="1.0" encoding="utf-8"?>
<!-- Generator: Adobe Illustrator 21.1.0, SVG Export Plug-In . SVG Version: 6.00 Build 0)  -->
<svg version="1.1" id="Layer_1" xmlns="http://www.w3.org/2000/svg" xmlns:xlink="http://www.w3.org/1999/xlink" x="0px" y="0px"
	 viewBox="0 0 714.7 466.9" style="enable-background:new 0 0 714.7 466.9;" xml:space="preserve">
<style type="text/css">
	.st0{fill:#333232;}
	.st1{fill-rule:evenodd;clip-rule:evenodd;fill:#F6589C;}
	.st2{fill-rule:evenodd;clip-rule:evenodd;fill:#50B830;}
</style>
<g>
	<path class="st0" d="M197.9,227.5c-28.7,0-40,74.1-48.5,167.7c-1.8,23.9-3.2,35.9-4.3,35.9c-0.7,0-1.5-5-2.7-15.2
		c-3.5-44.6-5.2-72-5.2-82.2c0.1-13.3,1-33.5-2-41.3c-1.5-3.5-3.4-5.8-5.9-7c-0.5,0-1.1,0.5-2.2,1.5c-4.3,5.6-6.5,19.8-6.5,42.6
		c0,15.5,1,33.1,3,52.3c4.7,41.6,12.7,83.5,22.5,83.5c5.9,0,9.7-2.8,11.7-8.3c0.9-1.3,1.4-4.7,1.9-10.2c0-19.6,0.6-39.7,2-60.6
		c2.9-40.3,8.2-90.2,16-114.4c2.7-8,5-12,6.8-12h0.7c2.3,0,4.7,5.4,7,16c1.8,10,3.6,24.9,5.2,44.6c1.5,18.4,2.7,45.4,3.8,81.2
		c0,12.9,1.2,22.2,3.5,27.9c3.2,7.7,6.4,10.7,10.5,10.7c2.5,0,4.8-2,6.7-6.2c1.4-4.2,4.3-15.9,8.9-35.4
		c7.4-32.6,14.2-57.5,20.7-74.9c6.8-17,11.2-25.5,13-25.5c1.4,0,1.4,3.8,1.4,6.3c0,2.3-0.2,5.4-0.3,9c-3.6,35.9-5.5,64.8-5.5,86.9
		c0,23.2,2.2,40.3,6.4,50.7c4.9,12.5,10.3,19.8,19.2,13.4c-7.3-13-4-56.8-2.3-80.2c3.1-43.7,4.3-64.6,4.3-81.7
		c0-10.7-1-18.1-2.9-22.2c-3.5-5.6-7.4-8.5-11.2-8.5l-2.7,0.2c-22,5.7-42.4,87.8-50.1,122.2h-0.2v-0.2c3.6-35.9,5.5-64.1,5.5-84.7
		v-4.3C226.3,276.8,223,227.5,197.9,227.5L197.9,227.5z M357.3,308.6c-5.2,0-10,2.3-14.5,7.2c-4.7,5.9-7,12.7-7,20.9
		c0,5.8,1.5,12.5,4.3,20c3.4,8.7,8.6,17,17.7,26.2c6.3,5.5,12.2,9.2,17.5,10.7c-3.1,12.8-7.3,26.2-17.2,36.7
		c-4.8,4.3-9.1,6.5-12.2,6.5c-5.5,0-10.7-5.6-15.2-17c-5.2-15.2-7.8-30.9-7.8-47.4v-4c0-10.7,1.3-21,4.2-31.1
		c2.2-6.5,4.7-11.7,7.7-15.5c2.6-3,5.9-6.7,4.5-8.8c-2.4-3.7-10.2-1.2-14,0.6c-6.9,3.2-13.1,10.9-18.4,22.7
		c-5.8,14.2-8.8,28.6-8.8,43.1v2.5c0,17.8,4.8,34.9,15.5,47.4c2.9,2.6,5.2,5,7.1,7c7,6.8,14.5,10.1,22.3,10.1
		c7.2,0,14.4-2.9,21.2-8.5c4.7-4.5,7.5-7.9,8.4-9.7c2.2-3.2,4-6.5,5.8-10.4c2.5-4.8,5-12.2,7.5-22.3l2.7,0.2
		c11,0,21.9-5.2,32.4-15.4c0.2-0.2,0.4-0.5,0.6-0.7c2.4,20.9,8.5,48.5,18.5,61.4c4.7,5.8,8.5,8.7,11.3,8.7c7.1,0,5.7-18,5.7-24.7
		c0-20.9,2.5-45.6,7.3-73.8c5.4-27,10.5-40.5,15.6-40.5c5,0,9,15.3,12,45.9c1.8,25.3,2.9,41.6,2.9,49.4c0.2,4.5,1.1,8.6,3,12.4
		c2.7,4.5,5.7,6.8,8.9,6.8h0.6c2.2,0,4.2-1.3,6-4c1-2.2,3.3-8.8,7.2-20.1c7.9-24.9,15-42.6,21.4-53.1c5-8.4,8.3-13.7,10-13.1
		c1.7,0.9,0.7,8.3,0.5,10.4c-1.2,8.5-13.9,90.4,8.2,90.4c5.8,0,14-5.7,24.7-17c15.3-17.4,31.9-39.9,33.1-50.5
		c0.1-1.2-0.4-2.2-1.5-2.2c-2.9,0-6.8,4.2-11.9,12.5c-4.3,6.5-9.7,14.2-16.2,22.7c-10.2,12.7-17,19-20.2,19c-3.4,0-3.5-5.5-3.5-10.3
		c0-20.8,13.5-76.2,4.7-86.5c-3.2-3.7-6.8-5.2-10.5-5.2c-7.7,0-16.2,8.6-25.8,25.4c-7.5,14-14.7,31.5-21.4,52.5V396
		c3.4-22.9,5-41.3,5-55c0-22-4.2-51-25.5-51h-1c-13.5,0-23.9,11.5-31.1,34.4c-4.8,14.8-8.2,40.6-10,71.2
		c-0.7,16.3-0.7,24.2-1.9,24.2c-0.8-2.1-1.8-7.1-3-15.1c-1.8-8.4-3.7-26.7-5.5-55.3c0-7.2-0.9-12.5-2.3-16.4
		c-3.2-6-8.2-9.2-12.9-3.8c-3.9,4.5-4.1,28.6-3.2,41.9c-0.2,0.2-0.4,0.3-0.6,0.5c-10,9.2-19.2,13.7-27.6,13.7
		c-1.1,0-2.9-0.2-4.7-0.3c2.1-14.9,1.6-29.9-2-44.4c-4.2-17.2-13.7-32.1-27.5-32.1H357.3L357.3,308.6z M346.5,337
		c0-6.6,4.2-13.5,11.2-13.5c5,0,9.5,3.4,13.5,9.9c4.8,9.4,7.4,20.7,7.4,33.9c0,4.5-0.3,9.9-1.1,15.7c-10.5-4.2-19-12.9-25.6-26.1
		c-3.5-8-5.3-14.2-5.3-18.7V337L346.5,337z"/>
	<path class="st0" d="M69.8,231.2l-49.1-10.1c-4.7-0.3-10.2,12.9-6.6,16l41.8,27.6L7.1,253.5c-4.6-1.1-11.2,15.2-3.7,16.8l93.2,21.1
		c7.5,1.6,11.1-13,7.2-15.4l-44.3-29.7l52.3,10.6c4.5,0.9,12.2-11.7,5.8-16l-80.7-51.2c-6.4-4.1-13.3,12.1-9.3,14.6L69.8,231.2
		L69.8,231.2z M104.5,127.6c-11-6.5-22.2-6-31.7,4.7l-2.5,3c-8.9,11-7.7,22.3,0.6,32c1.1,1.3,47.8,40.7,50,41.7
		c10.7,5.3,21.6,3.9,29.8-5.7l2.5-3c8.3-9.8,7.8-20.8,0.7-30.3C152.5,168.1,106,128.3,104.5,127.6L104.5,127.6z M135.4,193.4
		c-4.4,2-8.9-0.9-11.8-3.1l-36-30.5c-2.8-2.3-6.2-6.4-5-11.1c0.6-2.8,2.8-5.4,5.4-6.4c4.4-2,9,0.8,11.8,3.1l36,30.5
		c2.7,2.4,6.2,6.4,5,11.1C140.2,189.8,138.1,192.4,135.4,193.4L135.4,193.4z M217.3,132.2c-10.5-6.4-22.6-13.8-33.2-20.1
		c0.4-1,0.7-2,1.2-3.2c3.4-11.3-1.2-19.9-6.8-27.7c-6.8-9.4-16.1-16.7-28.2-15.8c-5.5,0.4-10.5,3.8-14.8,7L123,81.7
		c-8.4,6.4-7.2,8.3-2.9,14l55,74.3c2.7,3.6,16.5-6.6,13.8-10.2l-22.7-30.7l5.9-4.4c11.7,7.1,24.9,15.4,36.6,22.1
		C213,149.3,224.3,136.4,217.3,132.2L217.3,132.2z M156,115.3l-17.7-23.9l9.2-6.8c5.6-4.1,9-3.1,12.7,1c1.9,2.1,5.5,7,6.4,8.4
		c1.2,2.1,5.4,9.5-0.2,13.6L156,115.3L156,115.3z M244,110.5l-32.8-78.2c-1.2-2.8-17,3.9-15.8,6.6l36.2,86.3
		c3.2,7.6,3.2,7.6,11.1,4.3l27.9-11.7c2.8-1.2-3.8-16.8-6.6-15.7L244,110.5L244,110.5z M272.8,10c-8.8,1.9-8.8,1.9-7.2,9.9l17.3,87
		c1.6,8.1,1.6,8.1,10.9,6.3l21-4.2c23.9-4.8,2.6-107.9-22.1-103L272.8,10L272.8,10z M290,23.9c10.2-2,24.6,67.6,14.9,69.6
		c-7.1,1.4-7.1,1.7-8.2-4L285,30.7C283.9,25.1,283.9,25.1,290,23.9L290,23.9z M360.4,1.6c-2.1-2.1-10.1-2.2-12.2,0
		c-2.1,2.1-2.1,10.1,0,12.2c0.4,0.3,0.9,0.6,1.6,0.8c-0.3,0.7-0.8,1.5-1.1,2.2c-2.2,4.5,5,9.1,7.8,4.6C362.9,11,363.4,4.1,360.4,1.6
		L360.4,1.6z M427.1,87.3c2.2-26.9-24-37.6-24.4-55.5c0.1-13.4,16.7-9.9,15.7-4c-0.7,4.4,16.2,7.2,16.9,2.8c1.3-7.9-2.8-20.4-16-24
		c-26.4-6.9-33.8,14.4-33.6,27.1c0.5,17.2,15.8,29.5,21.7,40.4c2.6,5,5,11.6,0.4,16.4c-10.4,7.4-14.6-3.5-14-7.2
		c0.7-4.5-15.9-7.2-16.6-2.7c-0.2,1.5-0.4,5.4-0.4,6.9c0.2,1.6,0.7,3.2,1.1,4.6c1.3,4.7,4.4,8.8,7.9,12c5.4,4.8,13.8,7.2,20.8,5.4
		c6.3-1.6,9.5-3.1,14.2-8C424.3,97.8,426.5,92.4,427.1,87.3L427.1,87.3z M542.2,51.7c-7.6-4.9-7.6-4.9-12.1,1.9l-49.4,73.7
		c-4.6,6.9-4.6,6.9,3.3,12.1l22.7,15.2c7.6,5.1,25.3-6.6,33.1-19.1c4.8-7.7,4.2-13.3,3.3-22.6c7.2-2.1,11.8-2.2,16.4-8.6
		c9-12.3,13.2-32.2,4.5-38.1L542.2,51.7L542.2,51.7z M539.5,70.4l12.5,8.4c0.4,15.6-13.8,23.3-20.1,19.1l-7.5-5L539.5,70.4
		L539.5,70.4z M515,106.9l7.5,5c6.2,4.2,4.5,20.2-10.1,26l-12.5-8.4L515,106.9L515,106.9z M556,174l19.8-17.3l9.9,11.3
		c3,3.4,16-8,13-11.4l-9.9-11.3l20.6-18l14.1,16.1c3,3.4,15.9-7.9,12.9-11.3l-19.2-22.2c-6.2-6.8-6.2-6.8-12.3-1.4l-67,58.7
		c-6.1,5.4-6.1,5.4,0.2,12.6l19.1,21.8c3,3.4,15.9-7.9,12.9-11.3L556,174L556,174z M616.4,242.2c22-15.6,13.4-42.5,26.8-54.4
		c10.3-8.6,18.3,6.4,13.1,9.5c-3.9,2.3,4.9,17,8.8,14.7c6.9-4.1,13.9-15.2,8-27.7c-11.7-24.6-32.8-16.6-42.4-8.3
		c-12.8,11.4-12.5,31.1-17,42.6c-2.2,5.2-5.7,11.3-12.3,10.8c-12.4-3.2-6.7-13.4-3.5-15.3c3.9-2.3-4.7-16.8-8.6-14.5
		c-1.3,0.8-4.4,3.2-5.6,4.2c-1.1,1.2-2,2.6-2.8,3.8c-2.8,4-3.9,9-4.1,13.8c-0.2,7.2,3.3,15.2,9.3,19.4c5.3,3.8,8.5,5.3,15.3,5.7
		C606.5,246.8,612.1,245.1,616.4,242.2L616.4,242.2z M696.9,233c-1.3-4.3-17.4,0.7-16.1,5l6,20.5l-81,25.1
		c-4.3,1.3,0.8,17.7,5.1,16.4l81-25.1l6.6,20.3c1.3,4.3,17.4-0.7,16.1-5L696.9,233L696.9,233z"/>
	<path class="st1" d="M452.6,283.5c-20.1,2.1-38.3-10.6-43.8-29.4c4.6-3.6,8.7-7.8,12.1-12.5l0,0
		C420.6,261.3,433.8,278.6,452.6,283.5L452.6,283.5z M431.6,204.9c5.9-2.6,12.5-3.9,19.4-3.4c-7.7,2.4-14.5,6.9-19.7,12.9
		L431.6,204.9L431.6,204.9z M474.6,245.9c-0.8,12.3-7.2,23.4-17.2,30.3c-6.2-3.1-11.6-7.8-15.5-13.7
		C454.8,262.2,466.8,256.1,474.6,245.9L474.6,245.9z M454.9,256.9c-4.7,1.8-9.7,2.7-14.8,2.6c-4.1-7.6-5.6-16.2-4.3-24.7
		c4.4-0.8,8.8-0.9,13.1-0.3C448.8,242.6,450.9,250.3,454.9,256.9L454.9,256.9z M471,245.7c-3.7,4.3-8.2,7.7-13.2,10.1
		c-3.8-6.1-5.9-13.2-5.9-20.6C459,236.8,465.6,240.4,471,245.7L471,245.7z M438.8,224.4c2.9-1.8,6-3.3,9.3-4.4
		c6-1.9,12.1-2.3,17.9-1.4c3.4,4.3,5.9,9.2,7.3,14.3c0.7,2.5,1.1,5.1,1.3,7.6c-0.6,0.9-1.1,1.8-1.8,2.6
		c-9.7-9.4-23.2-13.7-36.5-11.6C436.9,229.2,437.7,226.8,438.8,224.4L438.8,224.4z M450.8,279.8c-6.8-2.3-12.8-6.4-17.3-11.7
		c-6.1-7.1-9.7-16.5-9.6-26.5c2.2-5,5.4-9.4,9.4-13c0.3-0.3,0.7-0.6,1-0.9c-6.2,19.4,2.2,40.5,20.1,50.3
		C453.2,278.7,452,279.3,450.8,279.8L450.8,279.8z M487.1,228.9c1.8,5.2,2.7,10.9,2.2,16.8c-1.3,17.3-13.1,31.2-28.6,36.1l-5.5-0.8
		c22.3-11.9,29.3-40.5,15.3-61.5C476.7,221.3,482.4,224.5,487.1,228.9L487.1,228.9z M459.2,202.9c11,3,20,10.4,25.3,20
		c-18.4-12.8-43.7-9.2-57.8,8.5c1.5-3.3,2.6-6.8,3.5-10.4c2.1-3.3,4.6-6.2,7.6-8.7C443.7,207.1,451.1,203.8,459.2,202.9L459.2,202.9
		z"/>
	<path class="st2" d="M277.3,144c10-0.2,20.1,2.9,28.3,9.6c-1.2,7.6-0.6,15.3,1.7,22.5c-5.8-3.7-15.5-6.7-22.2-7
		C279.9,161.6,277.3,152.8,277.3,144L277.3,144z M474.9,164.9c-0.2,12.3-5.6,24.4-15.8,32.8c-4.6-1-10-1.5-15.1-1
		c3.2-7.4,4.4-15.6,3.6-23.7C455.8,167.1,465.4,164.4,474.9,164.9L474.9,164.9z M429.3,145.1c14.8,12.9,19.3,34.3,10.5,52.1
		c-3,0.6-5.9,1.4-8.7,2.5c-0.2-1.5-0.5-3-0.8-4.5l-5.8-15.6c-1.9-3.4-4-6.6-6.5-9.5C419,160.6,423.1,151.9,429.3,145.1L429.3,145.1z
		 M324.3,127.9c7.5,8.5,11.7,19.9,10.8,32.1c-0.1,1.2-0.2,2.4-0.4,3.6c-7,6.1-12.5,13.8-16,22.6c-1.7-2.1-3.6-4.1-5.6-5.8
		c-3.3-6.7-4.8-14.3-4.2-22.3C309.8,145.8,315.6,135.2,324.3,127.9L324.3,127.9z"/>
	<path class="st1" d="M287.1,256.1c-2.4,0.2-4.9,0.3-7.4,0.1c-22.7-1.7-39.7-21.5-37.9-44.2c1.7-22.5,21.2-39.4,43.7-38
		c-16.5,5.1-28.6,19.8-30,37.6l-0.3,2.5l0.2,0.1C255.1,233.9,268.3,251.2,287.1,256.1L287.1,256.1z M309.1,218.5
		c-0.8,12.3-7.2,23.4-17.2,30.3c-6.3-3.2-11.5-7.7-15.5-13.7C289.3,234.8,301.3,228.7,309.1,218.5L309.1,218.5z M289.4,229.5
		c-4.7,1.8-9.7,2.7-14.8,2.6c-4.1-7.6-5.6-16.2-4.3-24.7c4.4-0.8,8.8-0.9,13.1-0.3C283.3,215.2,285.4,222.9,289.4,229.5L289.4,229.5
		z M305.5,218.3c-3.7,4.3-8.2,7.7-13.2,10.1c-3.8-6.1-5.9-13.2-5.9-20.6C293.5,209.4,300.1,212.9,305.5,218.3L305.5,218.3z
		 M273.3,197c2.9-1.8,6-3.3,9.3-4.4c6-1.9,12.1-2.3,17.9-1.4c3.4,4.3,5.9,9.2,7.3,14.3c0.7,2.5,1.1,5.1,1.3,7.6
		c-0.6,0.9-1.1,1.8-1.8,2.6c-9.7-9.4-23.2-13.7-36.5-11.6C271.4,201.8,272.2,199.4,273.3,197L273.3,197z M285.3,252.4
		c-6.8-2.3-12.8-6.4-17.3-11.7c-6.1-7.1-9.7-16.5-9.6-26.5c2.2-5,5.4-9.4,9.4-13c0.3-0.3,0.7-0.6,1-0.9
		c-6.2,19.4,2.2,40.5,20.1,50.3C287.7,251.3,286.5,251.9,285.3,252.4L285.3,252.4z M320.1,232.6c-4.9,10.4-14,18.4-24.9,21.9
		l-5.5-0.8c22.3-11.9,29.3-40.5,15.3-61.5c3.8,1,7.4,2.6,10.7,4.7C313.3,209.2,315,221.7,320.1,232.6L320.1,232.6z M293.7,175.5
		c9.6,2.6,17.7,8.6,23.1,16.4c-0.2,0.6-0.3,1.2-0.5,1.9c-19.4-11.4-44.3-5.9-57,12.8C262.9,189.9,276.8,177.3,293.7,175.5
		L293.7,175.5z"/>
	<path class="st1" d="M378.7,261c-33.2,3.4-61.5-24-58.9-57.3c2.2-29.3,27.6-51.3,56.9-49.4c-21.4,6.6-37.2,25.8-39,48.8l-0.4,3.3
		l0.3,0.1C337.1,232.1,354.2,254.5,378.7,261L378.7,261z M407.3,212.1c-1,16-9.4,30.5-22.4,39.4c-8.1-4.1-15-10.1-20.1-17.8
		C381.5,233.2,397.2,225.3,407.3,212.1L407.3,212.1z M381.8,226.4c-6.1,2.3-12.6,3.5-19.3,3.4c-5.3-9.8-7.3-21.1-5.7-32.1
		c5.7-1.1,11.4-1.2,17-0.3C373.7,207.7,376.6,217.8,381.8,226.4L381.8,226.4z M402.6,211.7c-4.8,5.6-10.6,10-17.2,13.1
		c-4.9-7.9-7.6-17.2-7.7-26.8C387,200.2,395.6,204.8,402.6,211.7L402.6,211.7z M360.8,184.1c3.7-2.4,7.8-4.3,12.2-5.7
		c7.8-2.5,15.7-3,23.2-1.8c4.4,5.6,7.6,11.9,9.5,18.7c0.9,3.2,1.4,6.6,1.7,9.9c-0.7,1.2-1.5,2.3-2.3,3.4
		c-12.6-12.3-30.2-17.8-47.4-15.1C358.3,190.3,359.4,187.2,360.8,184.1L360.8,184.1z M376.3,256.2c-8.9-3-16.6-8.3-22.5-15.2
		c-8-9.3-12.7-21.4-12.4-34.4c2.9-6.5,7.1-12.2,12.2-16.9c0.4-0.4,0.9-0.8,1.3-1.2c-8,25.2,2.9,52.6,26.1,65.4
		C379.5,254.7,378,255.5,376.3,256.2L376.3,256.2z M423.6,189.9c2.4,6.8,3.5,14.2,2.9,21.9c-1.7,22.5-17,40.6-37.3,47l-7.2-1
		c29-15.5,38.2-52.7,19.8-79.9C410,180,417.5,184.2,423.6,189.9L423.6,189.9z M387.3,156.1c14.3,3.9,26,13.5,32.9,26
		c-25.4-17.6-60.2-11.1-77.6,14.4C347.2,174.8,365.3,158.5,387.3,156.1L387.3,156.1z"/>
</g>
</svg>
