<?xml version="1.0" encoding="utf-8"?>
<!-- Generator: Adobe Illustrator 21.1.0, SVG Export Plug-In . SVG Version: 6.00 Build 0)  -->
<svg version="1.1" id="Layer_1" xmlns="http://www.w3.org/2000/svg" xmlns:xlink="http://www.w3.org/1999/xlink" x="0px" y="0px"
	 viewBox="0 0 720 740.8" style="enable-background:new 0 0 720 740.8;" xml:space="preserve">
<style type="text/css">
	.st0{fill:#333232;}
</style>
<g>
	<path class="st0" d="M100,202.6c-29.7,0-50.7,50.1-61.4,105.2c2.2-29.5,6.1-50.1,7.7-65.3c0-5.5-4.7-9.4-11.8-9.4
		c-14,0-15.4,10.5-18.2,31.1c-6.8,51-3.9,71.4-0.8,124.2c0.8,14.6,6.3,24.5,15.1,24.5c5.9,0,7.8-3.1,7.7-8
		c-3-75.2,25.6-192.8,60.3-192.8c16.3,0,14.1,38.4,11.8,54c-45.3,6.7-74.8,94.2-32.8,94.2c32,0,57.6-47.1,57.6-103.6
		C135.2,222.5,122.3,202.6,100,202.6L100,202.6z M88.7,349.2c17.4-19.3,32.2-66.7,32.2-105.8c0-8.8-1.1-16.5-3-22.6
		C136.8,246.3,123.8,332.1,88.7,349.2L88.7,349.2z M24.2,388c-3.1-53.3-5.9-71.9,0.8-122.6c2.8-22,3.6-23.4,9.4-23.4
		c1.4,0,2.8,0.3,3,0.3c-2.5,21.8-9.6,56.2-9.6,113.5c0,14.3,0.6,30.3,1.7,47.9C27.2,402.3,24.8,396.6,24.2,388L24.2,388z
		 M73.5,348.9c-19.2,0,0.7-66.8,35.5-74.4C102.2,311.7,85.6,348.9,73.5,348.9L73.5,348.9z M254,286.7c-3.1,10.7-17.3,61.6-50.1,61.6
		c-12.9,0-21.5-17.6-21.5-45.2c0-2.5,0-5,0.3-7.4c44.3-16.7,61.1-84.3,23.4-84.3c-28.6,0-49.9,36.1-49.9,82.1
		c0,40.5,17.1,64.7,46,64.7c26.6,0,42.2-23.3,51.1-44.2c2.5,28.6,16,45.3,37.3,45.3c24.2,0,40.5-33.3,45.2-71.1
		c15.3,1.5,27.3-0.4,36.6-9.7c-4.5,42.2-1.8,63.8,0.9,110c0.8,14.6,6.3,24.5,15.2,24.5c5.9,0,7.8-3.1,7.7-8
		c-3-75.2,25.6-192.8,60.3-192.8c16.3,0,14.1,38.4,11.8,54c-45.3,6.7-74.8,94.2-32.8,94.2c32,0,57.6-47.1,57.6-103.6
		c0-34.4-12.9-54.3-35.3-54.3c-29.7,0-50.7,50.1-61.4,105.2c2.2-29.5,6.1-50.1,7.7-65.3c0-5.5-4.7-9.4-11.8-9.4
		c-12.7,0-15,8.6-17.4,25.5c-4.3,15.1-14.4,21.6-30.5,21.6c-2.8,0-5.2-0.3-7.7-0.6c0.3-4.7,0.6-9.4,0.6-14
		c0-45.5-14.6-77.4-39.1-77.4c-23.5,0-26.1,27.2-20.7,47.1C265.4,246.2,256.9,264.5,254,286.7L254,286.7z M210.2,222.2
		c13.7,0,2.9,47.6-26.7,63.6C187.3,254.1,200.5,222.2,210.2,222.2L210.2,222.2z M165,293.5c0-34.7,12.9-62.5,30.3-70.8
		c-18.3,23.6-30.9,89-13.5,120.1C171,334,165,317.2,165,293.5L165,293.5z M285.4,218.9c0-12.4,4.4-22,12.7-22
		c16.8,0,30,28.1,30,68.9c0,4.1-0.3,8.3-0.6,12.4c-17.1-4.7-28.6-17.1-35.3-30.6c6.6-13.5,11.8-17.3,20.9-13.2
		c3.5,1.5,7.9-2.3,4.7-5.5c-7.2-7.2-22.7-4.6-31.7,0.3C285.6,225.5,285.4,222.2,285.4,218.9L285.4,218.9z M261.7,304
		c0-25.9,7.2-47.1,19-59.5l1.7,3.9c-6.9,16.3-11.3,39.1-11.3,63.1c0,15.2,2.2,27.5,6.6,35.5C267.4,340.9,261.7,326,261.7,304
		L261.7,304z M293.9,349.4c-8.3,0-14-14.3-14-38c0-18.7,3.3-38.3,8.3-53.2c8.8,12.9,21.8,24,38.8,28.4
		C323.1,320.2,310.4,349.4,293.9,349.4L293.9,349.4z M446.5,349.2c17.4-19.3,32.2-66.7,32.2-105.8c0-8.8-1.1-16.5-3-22.6
		C494.6,246.3,481.6,332.1,446.5,349.2L446.5,349.2z M382,388c-3.1-53.3-5.9-71.9,0.8-122.6c2.8-22,3.6-23.4,9.4-23.4
		c1.4,0,2.8,0.3,3,0.3c-2.5,21.8-9.6,56.2-9.6,113.5c0,14.3,0.6,30.3,1.7,47.9C385.1,402.3,382.6,396.6,382,388L382,388z
		 M431.3,348.9c-19.2,0,0.7-66.8,35.5-74.4C460,311.7,443.5,348.9,431.3,348.9L431.3,348.9z M601.7,287.2
		c-12.8,42.7-27.6,68.9-41.2,69.1c-11.3,0-20.4-17.6-24.2-46.6c27.5-38.8,50.1-96.1,50.1-130.8c0-20.7-8-32.5-22.3-32.5
		c-35,0-57.3,47.4-57.3,115.1c0,63.4,20.4,104.4,53.7,104.4c19.3,0,33.9-31.4,42.2-55.1c4.3,30,20.3,47.4,44.8,47.4
		c41.3,0,56.2-56.2,60.3-72.4c-1.1-1.7-7.7-1.4-8.3,0c-2.5,8.3-16.5,62.5-50.4,62.5c-12.9,0-21.5-17.6-21.5-45.2c0-2.5,0-5,0.3-7.4
		c44.3-16.7,61.1-84.3,23.4-84.3C624.1,211.4,603.6,244.3,601.7,287.2L601.7,287.2z M567.4,155.8c6.1,0,9.9,7.2,9.9,21.5
		c0,29.5-18.7,81.8-42.4,119.5c-0.3-5.8-0.6-12.1-0.6-18.7C534.4,219.7,550.9,155.8,567.4,155.8L567.4,155.8z M515.6,261.6
		c0-52.6,13.5-90.6,34.2-102.5c-14.3,21.5-24.2,68.6-24.2,119c0,28.4,3.9,52.1,11,66.9C523.4,329.9,515.6,300.7,515.6,261.6
		L515.6,261.6z M655.6,222.2c13.7,0,2.9,47.6-26.7,63.6C632.7,254.1,645.9,222.2,655.6,222.2L655.6,222.2z M610.4,293.5
		c0-34.7,12.9-62.5,30.3-70.8c-18.3,23.6-30.9,89-13.5,120.1C616.5,334,610.4,317.2,610.4,293.5L610.4,293.5z"/>
	<path class="st0" d="M300.9,660.8c-14.3,45.5-29.4,69.8-42.6,69.8c-5.5,0-8.5-9.9-8.5-25.3c0-29.5,10.2-73.8,10.2-87.6
		c0-13.5-6.6-20.4-19.8-20.4c-15.4,0-30.3,20.7-42.4,44.3c3.3-15.7,6.1-31.4,6.1-44.9c0-28.9-9.4-42.4-30.9-42.4
		c-37.2,0-53.4,83.5-57.6,135.5c-0.6-7.2-0.8-16.3-0.8-28.9c0-19,3-31.1,3-33.3c0-5.2-5-8.5-12.4-8.5c-16,0-16,14.6-16,28.9
		c0,51.5,6.3,85.1,22.6,85.1c6.1,0,12.7-3.3,12.1-7.2c-0.6-2.8-0.8-6.6-0.8-11.8c0-42.7,15.4-149.6,46.8-149.6
		c7.4,0,10.5,8.3,10.5,21.8c0,27.8-13.2,74.4-20.4,103.8c-2.2,9.8,21,17,23.4,9.9c8.3-28.1,37.7-90.6,49.3-90.6
		c1.4,0,1.9,1.1,1.9,2.8c0,19.6-39.3,128.6,21.5,128.6c20.6,0,34.9-28.1,43.9-52.2c2.6,31.8,17.8,51.9,40.4,51.9
		c26.7,0,39.7-40.8,39.7-81.3c0-19.2-2.9-38.6-8.5-54.2c6-1,12-2,17.6-2c18.5,0,26.4,17.1,26.4,57.8c0,16.3-1.1,34.4-1.7,53.2
		c-0.3,8,12.4,9.1,14.9,9.1c4.7,0,9.9-2.8,10.2-5.8l0.8-16c4.7-54.5,23.1-136.9,51.5-136.9c7.4,0,10.5,8.3,10.5,21.8
		c0,27.8-13.2,74.4-20.4,103.8c-2.2,9.8,21,17,23.4,9.9c8.3-28.1,37.7-90.6,49.3-90.6c1.4,0,1.9,1.1,1.9,2.8
		c0,19.6-39.3,128.6,21.5,128.6c30.3,0,47.1-60.9,53.2-80.4c-0.6-1.4-6.9-1.4-8.3,0c-14.3,45.7-29.5,70.2-42.7,70.2
		c-5.5,0-8.5-9.9-8.5-25.3c0-29.5,10.2-73.8,10.2-87.6c0-13.5-6.6-20.4-19.8-20.4c-15.4,0-30.3,20.7-42.4,44.3
		c6.2-29.4,16.6-87.3-23.1-87.3c-28.9,0-46.3,42.7-55.9,87.9c-3.3-28.1-14.6-47.9-45.5-47.9c-8.8,0-18,1.8-26.3,3.2
		c-16.2-34.4-44.8-26.2-44.8-10.7c0,11.6,13.2,20.4,30.3,20.4c3.1,0,6.3-0.3,9.6-0.8c4.7,13.3,7.5,31.4,7.5,52
		c0,43-13.5,72.2-26.2,72.2c-25.6,0-21.2-111.3,3.3-111.3c3.6,0,5.5,1.4,6.3,1.4c3.8,0,5.4-3.7,3-5.8
		C346.2,605,308.6,607.9,300.9,660.8L300.9,660.8z M176.3,693.7c-3-0.6-7.2-1.9-7.7-1.7c7.2-29.5,20.7-76.9,20.7-105.8
		c0-8.3-1.1-14.9-3.6-20.1c16.3,12,7.7,56.4,1.7,81.5L176.3,693.7L176.3,693.7z M231.1,695.7c0-32,12.4-72.7,12.4-83.5
		c0-2.2-0.6-4.1-1.4-6.1c6.6,0.6,9.1,3.6,9.1,11.6c0,17.4-18,87.3-6.1,112.4C235.5,726,231.1,715.2,231.1,695.7L231.1,695.7z
		 M98,648c0-17.4,1.1-20.1,7.2-20.1c1.4,0,2.8,0.3,3.3,0.6c0,1.1-2.8,12.7-2.8,32.5c0,37.2,5.2,55.9,8,63.4h-1.9
		C104.9,724.3,98,695.9,98,648L98,648z M353.9,599.2c-22.4,0-22.1-16-11.6-16c7,0,13.1,5.7,17.9,15.5
		C358,599.1,355.9,599.2,353.9,599.2L353.9,599.2z M308.5,678.9c0-27.8,8.5-48.2,22-55.9c-14.1,22.7-16.7,82.6-2.5,105.5
		C315.9,721.5,308.5,703.9,308.5,678.9L308.5,678.9z M497.7,693.7c-3-0.6-7.2-1.9-7.7-1.7c7.2-29.5,20.7-76.9,20.7-105.8
		c0-8.3-1.1-14.9-3.6-20.1c16.3,12,7.7,56.4,1.7,81.5L497.7,693.7L497.7,693.7z M552.5,695.7c0-32,12.4-72.7,12.4-83.5
		c0-2.2-0.6-4.1-1.4-6.1c6.6,0.6,9.1,3.6,9.1,11.6c0,17.4-18,87.3-6.1,112.4C557,726,552.5,715.2,552.5,695.7L552.5,695.7z
		 M422.8,713.6c0.9-31.8,6-82.5-8.3-105.8c12.4,7.7,17.9,25.3,17.9,56.7c0,15.2-1.1,32-1.9,49.6
		C427.2,714.7,423.9,714.1,422.8,713.6L422.8,713.6z"/>
	<path class="st0" d="M48,110.4L15.9,82.6c2-1.1,5-2.3,3.5-5.2c-0.7-1.4-2.3-2-3.9-1.2L1.5,83.8c-3.4,1.8-0.5,6.9,2.7,5.2l1.9-1.1
		c0.1,0.2,0.1,0.3,0.1,0.5l0.1,0c12,26.9,24.1,54,37.4,79.7c-2.3,1.2-7.1,2.5-5.3,6c0.7,1.4,2.4,2,3.9,1.2l17.7-9.1
		c3.4-1.7,1-6.9-2.6-5.1l-3.5,1.7c-7-17.1-21.5-46.2-32-67.2l27.8,24.2c2,1.7,5.2,0.1,4.8-2.5c-0.9-6.8-5.4-46.4-4.4-46.9
		c1.6-0.8,9.3,16.7,9.8,17.8c8.9,19.4,17.8,37.2,26.4,57.1c-4.2,2.2-9.5,3.8-7.8,7.2c0.8,1.5,2.5,2.1,3.9,1.3l17.8-9.1
		c3.4-1.7,0.6-6.9-2.7-5.2l-6.1,3.1c-8.8-20.1-17.3-37.4-26.3-57c-3.2-7.1-8-16.7-11.7-21.5c2.1-1.2,5.6-2.4,4-5.5
		c-1.9-3.6-6.8,0.5-11.5,3c-4.2,2.2-9.4,3.9-7.6,7.3c1.6,3.1,4.5,1,5.9,0.2C44,77.9,46.7,99,48,110.4L48,110.4z M85,49l4.1-1.1
		c0.4,0.6,1.1,1.6,2.3,2.7c18.3,20.4,28.6,32.1,31,34.6c0.1,0.2,9.4,37.3,12.2,44.2c-3.8,1.1-8.5,1.5-7.5,5.1c0.5,1.6,2,2.4,3.5,2
		l21.3-6c3.6-1,2.1-6.6-1.6-5.5l-5.3,1.5l-11.3-43.9l12.4-51.4l9.2-2.7c3.8-1.1,2.2-6.6-1.6-5.5l-21.4,6c-3.5,1-1.9,6.5,1.7,5.5
		c1.8-0.5,3.7-1.1,5.7-1.5l-10.3,42.7l-26.1-32c2.1-0.6,6-1.2,5.1-4.4c-0.4-1.5-2.1-2.4-3.6-1.9l-21.2,6C79.9,44.5,81.5,50,85,49
		L85,49z M235.2,69.6l-0.8,0.1l-5.7-52.2l27.2-4l1.2,12.4c0.4,3.8,6.2,3.1,5.8-0.6c-2.2-20.1-0.1-18.6-8.7-17.4
		c-9,1.3-31,4.6-34.7,5.5c-1.4,0.3-2.5,1.6-2.4,3c1.9,31.5,5.3,58.3,8.8,89.5c-1.9,0.2-5.7,0.2-5.3,3.6c0.5,3.9,5,2.3,8.8,1.9
		l11.7-1.4c3.8-0.5,3.2-6.3-0.7-5.8l-3.2,0.4c0.1-5.2-1.5-23.7-2-29l12.8-1.7c0.3,3,0.1,7.9,3.6,7.5c4.1-0.5,2.3-6,1.8-11.2
		c-0.6-5,0.1-10.6-4.1-10.1c-3.4,0.4-2.2,4.8-2,8.1C244.1,68.4,239.9,69,235.2,69.6L235.2,69.6z M325.8,101.1l17.1-1
		c3.9-0.2,3.4-5.8-0.1-5.7l-2.1,0.1c-1.6-19.1-11.1-77.9-21.4-90.4c-9.4-11.3-16.2,6.7-18.9,15.6c-6.8,22.8-11.3,62.2-12.7,77.1
		c-3.2,0.1-7.8-0.5-7.7,3.2c0.1,1.5,1.4,2.8,3.1,2.8l15.7-0.7c3.7-0.1,3.6-5.8-0.1-5.7l-5.2,0.2c0.5-5.5,1.5-14,2.8-23.5
		c8.2,0.2,20.3-0.6,28.5-1.1l3.1,23.3c-1.7,0.1-5.2-0.2-5.1,3.1C322.8,100,324.2,101.2,325.8,101.1L325.8,101.1z M297,67.2
		c2.1-15.8,5.2-33.4,8.9-45.9c3.5-11.9,4.7-12.7,8.3-0.7c5.1,16.8,7.9,32.6,9.7,45.6L297,67.2L297,67.2z M415.7,6.2
		c4.7,0.2,9.4,1.4,9.5-2.5c0.1-4.2-6.2-3-12.2-3.3c-5.1-0.3-10.8-1.6-10.9,2.4c-0.1,3.8,4.3,3.1,7.9,3.2
		c-1.3,11.3-5.8,33.2-11.7,52.7c-12.5,41.8-19.6,47.5-22.8,0.4c-0.9-12.8-0.4-34.7,1.2-48.2l0.1-3c3,0.1,7.5,1,7.7-2.6
		c0.1-1.6-1.2-2.9-2.8-3l-22.4-0.9c-3.4-0.1-3.9,5.6,0,5.7l3.9,0.1c-1.2,3.1-1.6,14.9-1.8,19.1c-0.6,17.8-0.3,55,10.3,68.9
		c15.1,19.9,27.9-20.4,32.2-34.8C409.9,40.4,414.5,17.8,415.7,6.2L415.7,6.2z M454.7,99c-15.6,8.1-6.8-39.9-5.2-48.7
		c1.5-7.9,3.6-15.4,6.2-22c6.8-17,17.1-22.3,19.8-2c1.6,11.8-5.1,44.6-8.5,55.1C464,90.6,459.5,96.5,454.7,99L454.7,99z M475.5,10.1
		c-9.6-10.5-23.9-1.2-30.6,12.3c-7.6,15.2-10.9,38.3-11.3,55.6c-0.7,35.5,28.6,36.9,38.9,5.1c4.1-12.5,10.4-43.6,8.8-57.5
		C480.6,18.6,478.4,13.5,475.5,10.1L475.5,10.1z M503.9,18.4c2.2,0,4.2,0.1,6.3,0.4c-7,26.4-15.9,60.6-21.4,87.5
		c-3.2-0.7-7.4-2.3-8.2,1.2c-0.8,3.9,5.6,4.2,11.1,5.3c3.7,0.8,7.3,1.6,10.6,2.3c3.7,0.8,4.9-4.9,1.2-5.7l-3.6-0.7
		c2.7-12.5,6.3-24.5,9.2-36.7c4.8,0.3,9.3,0,13.3-0.7l2.8,40.3c-3-0.6-7.7-2.6-8.5,1.1c-0.3,1.6,0.7,3.2,2.2,3.5l19.6,4.1
		c3.7,0.8,4.8-5,1.2-5.7l-8.7-1.8c-0.1-2.6-0.3-4.2-0.3-6c-0.7-8.9-1.5-22.7-2.6-36.8c31.2-9.3,33.2-47.1-8.1-55.6
		c-4.8-1-10-1.6-15.9-1.7C501,12.6,499.4,17.5,503.9,18.4L503.9,18.4z M510.5,66.2c3.1-12.6,6.9-28.4,10.7-45.7
		C559.7,29.9,549.7,67.8,510.5,66.2L510.5,66.2z M579.7,37.8l3.2,0.9c-8.5,27.1-17.6,54.8-26,81.4l-0.1,0.2
		c-2.5-0.7-7.6-2.9-8.5,0.6c-1,3.9,5,4.4,10.3,5.9l12.1,3.5c3.7,1.1,5.2-4.6,1.6-5.6l-5.8-1.6c8.9-27.3,17.1-55.7,26.7-81.5
		c3,0.9,7.1,2.8,8.1-0.7c0.5-1.6-0.4-3.2-1.9-3.6l-18.2-5.1C577.7,31.3,576,36.7,579.7,37.8L579.7,37.8z M614.2,40.4
		c-0.6,0.2-1.2,0.7-1.5,1.5l-6.1,14.4c-1.5,3.6,3.9,5.6,5.3,2.3l5.1-12.3L634,53l-34.8,82.5c-2.6-1.1-6.1-3.3-7.5,0.3
		c-1.4,3.5,4.3,4.7,9.5,6.8l9.6,3.8c3.5,1.4,5.7-4,2.1-5.4l-4.4-1.7c12.2-26.6,22.3-56.8,35.8-82.1l17.2,6.8l-5,12
		c-1.4,3.5,3.9,5.7,5.3,2.3l6.3-14.7c0.6-1.5-0.2-3.1-1.7-3.7l-49.7-19.5C616,39.7,615,39.9,614.2,40.4L614.2,40.4z M676.5,113.8
		l18.1-30.5l18.4,10.5l-6.5,10.8c-2,3.4,3.1,6.3,5,3l8.1-13.4c1-1.6,0.4-3.5-1.9-4.4l-28.1-15.7c-1.3-0.6-2.9-0.1-3.6,1
		c-11.9,17.7-36,55.7-46.4,75.5c-1.1,2.1-2.9,6.2-0.2,7.8l28,15.7c1.6,0.9,3.1,0.2,4.1-1.3l8-13.2c1.9-3.2-3.1-6.3-5-3l-6.7,11.1
		l-17.7-9.9c5.1-8.5,21.3-35.4,23.5-38.9l13.8,7.3c-1.2,2-4.2,5.6-1.1,7.5c1.3,0.8,3.1,0.4,3.9-0.9l8.2-13.7c1.8-3.2-3.1-6-5-2.8
		l-3.1,5L676.5,113.8L676.5,113.8z"/>
	<path class="st0" d="M179.4,438.3l8.6-0.2c4-0.1,4.1-6.2-0.2-6.2l-5,0.1c0-10.1-9-16.1-18.2-15.1c-4.9,0.6-16.2,3.2-19.8,8.3
		c-11.2,15.8-12.2,52.5-10.2,72.6c1.3,13.2,5.3,20.6,10.2,24.1c2.4,1.8,11.5,2.7,14.2,2.7c8.6,0,16.5-7.9,17.8-16.4
		c4.2-0.2,9.2,0.6,9.2-3.4c0-1.8-1.4-3.2-3.2-3.1l-16.9,0.6c-4.2,0.1-4.1,6.2,0.1,6.2l4.4-0.1c-0.9,3.5-3.4,6.8-6.4,8.5
		c-0.6,0.4-3.7,0.6-4.2,0.6c-7.2,0-12.7-23.9-12.5-37c0.4-25.6,6-56.8,19.1-56.8c3.4,0,5.4-0.6,8.5,3.3c1.1,1.4,1.8,3.2,1.8,5.3
		c-4.1,0.1-8.9-0.7-8.9,3.4C167.7,439.9,174.1,438.5,179.4,438.3L179.4,438.3z M496.1,466l-17-42.7c2.5-0.1,6,0.3,6-3.2
		c0-1.7-1.2-3.1-3.1-3.1l-17.3,0.2c-4.2,0-4,6.4,0,6.3l2.4-0.1c0,0.2,0,0.3-0.1,0.6h0.1c-1.9,31.9-3.8,64-3.8,95.3
		c-2.8,0-8.1-1.2-8.1,3.1c0,1.7,1.3,3.1,3.1,3.1l21.6,0.1c4.1,0,4.4-6.1,0-6.2l-4.2-0.1c1.7-19.9,2.3-55.2,2.7-80.6l14.7,37.1
		c1.1,2.6,5,2.6,5.9,0c2.6-7,17.9-47.3,19.1-47.3c1.9,0,0.6,20.7,0.6,22c-1.1,23.1-1.4,44.6-3.1,68.1c-5.1,0-11.1-1.1-11.1,3.1
		c0,1.8,1.3,3.2,3.1,3.2l21.7,0.1c4.1,0,4-6.3,0-6.3h-7.4c1.6-23.7,2-44.6,3.1-68c0.4-8.4,0.7-20-0.6-26.6c2.6-0.1,6.6,0.5,6.6-3.3
		c0-1.6-1.3-3-3.1-3l-17.4,0.2c-4.1,0.1-3.7,6.4,0.1,6.3l2.4-0.1C508.5,432.6,500.5,454.3,496.1,466L496.1,466z M556.3,463.4
		l0.6-38.4h22.9l-0.3,13.6c-0.1,4.2,6.3,4.2,6.3,0.1l0.4-16.9c0-2.1-1.6-3.5-4.1-3.1l-34.9,0.3c-1.5,0.1-2.8,1.4-2.9,2.9
		c-1.7,23.1-3.9,71.7-3,96c0.1,2.5,0.7,7.4,4,7.4l34.8-0.3c2,0,3.1-1.5,3.1-3.4l0.4-16.7c0.1-4.1-6.3-4.3-6.3-0.1l-0.3,14.1
		l-21.9,0.2c0.2-10.7,1-44.7,1.1-49.3l16.9-0.6c-0.1,2.6-1,7.5,3,7.6c1.7,0,3.1-1.3,3.2-3l0.3-17.3c0-3.9-6.1-3.9-6.2,0l-0.2,6.4
		L556.3,463.4L556.3,463.4z M343,523.3l55.6-0.3c2,0,3.2-1.8,3.2-3.2l0.4-16.9c0.1-4.2-6.1-4.5-6.3-0.2l-0.3,14.1l-36,0.2v-0.2
		c0.6-7,1-18.9,1.3-35.2c0.4-15.8,0.8-35.9,1.1-59.4c3.2-0.1,7.4,0.6,7.4-3.3c0-1.7-1.4-3.1-3.1-3.1l-19.3,0.3
		c-4.2,0.2-4,6.4,0.1,6.3l2.1-0.1c-0.9,15.8-1.2,33.1-1.6,50.4c-0.2,14.8-0.6,29.6-1.2,43.4c-0.1,0.3-0.1,0.8-0.1,1.1
		c-2.5,0-6.5-0.6-6.5,3.2C339.9,521.8,341.2,523.3,343,523.3L343,523.3z M271.9,523.3l55.6-0.3c2,0,3.2-1.8,3.2-3.2l0.4-16.9
		c0.1-4.2-6.1-4.5-6.3-0.2l-0.3,14.1l-36,0.2v-0.2c0.6-7,1-18.9,1.3-35.2c0.4-15.8,0.8-35.9,1.1-59.4c3.2-0.1,7.4,0.6,7.4-3.3
		c0-1.7-1.4-3.1-3.1-3.1l-19.3,0.3c-4.2,0.2-4,6.4,0.1,6.3l2.1-0.1c-0.9,15.8-1.2,33.1-1.5,50.4c-0.2,14.8-0.6,29.6-1.2,43.4
		c-0.1,0.3-0.1,0.8-0.1,1.1c-2.5,0-6.5-0.6-6.5,3.2C268.8,521.8,270.1,523.3,271.9,523.3L271.9,523.3z M238.4,525.5l18.6-0.4
		c4.2-0.1,3.8-6.2,0.1-6.2h-2.3c-1.1-20.7-9.1-84.7-19.9-98.6c-9.8-12.6-17.8,6.6-21,16.2c-8.2,24.5-14.5,67-16.6,83
		c-3.5,0-8.4-0.9-8.4,3.2c0,1.7,1.4,3.1,3.2,3.1l17-0.2c4,0,4.1-6.2,0.1-6.2h-5.6c0.8-6,2.1-15.1,3.9-25.3c8.9,0.6,22,0,30.9-0.1
		l2.5,25.3c-1.8,0-5.6-0.4-5.6,3.2C235.1,524.2,236.6,525.5,238.4,525.5L238.4,525.5z M208.5,487.8c2.9-17,6.9-36,11.3-49.4
		c4.2-12.8,5.5-13.6,9-0.4c4.9,18.4,7.4,35.5,8.9,49.7L208.5,487.8L208.5,487.8z"/>
</g>
</svg>
