<?xml version="1.0" encoding="utf-8"?>
<!-- Generator: Adobe Illustrator 21.1.0, SVG Export Plug-In . SVG Version: 6.00 Build 0)  -->
<svg version="1.1" id="Layer_1" xmlns="http://www.w3.org/2000/svg" xmlns:xlink="http://www.w3.org/1999/xlink" x="0px" y="0px"
	 viewBox="0 0 719.1 409.5" style="enable-background:new 0 0 719.1 409.5;" xml:space="preserve">
<g>
	<path d="M648.6,287.1c2.3-2.9,4.6-5.8,6.8-8.9c2.1-2.9,3.5-6.4,5.8-9.6C662.4,273.8,655.3,284.2,648.6,287.1L648.6,287.1z
		 M634.5,291.7c0-1.3-0.3-2.4,0-3.3c1.7-8.1,4.5-15.6,9.6-22.3c7.9-10.5,16.2-10.9,15.8-7.7c-0.3,1.9-0.5,3.8-1.2,5.7
		c-1.6,4.8-4,9.3-7.4,13.3c-4.2,4.9-9,9.3-14.2,13.1C636.4,291.1,635.6,291.3,634.5,291.7L634.5,291.7z M628.9,276.6
		c0-3.2,1.5-6,2.9-8.7c2.5-4.9,6.4-8.8,10.9-11.8c1.4-1,2.2-0.1,1.3,0.8c-5.7,5.7-10.6,11.9-14.2,19.1
		C629.7,276.3,629.3,276.5,628.9,276.6L628.9,276.6z M534.7,293.9c0-1.3-0.1-2.1,0.1-2.7c1.9-3.5,4-6.8,6.9-9.7
		c0.1-0.1,0.4-0.1,0.5-0.1c0.1,0.7,0.1,1.2-0.1,1.6c-1.9,3.2-3.7,6.2-5.8,9.4C536.2,292.8,535.7,293.1,534.7,293.9L534.7,293.9z
		 M566.5,282.4c-0.2-1.3-1.1-1.5,0.8-4.2l6.8-9.7c0.7-0.8,1.2-1.7,2.4-1.6c0,0.4,0,0.8-0.1,1.2c-2.9,4.4-5.9,8.9-8.7,13.3
		C567.5,281.8,567,281.9,566.5,282.4L566.5,282.4z M622.5,300.1l-9,13.3c-0.3,0.4-0.8,0.9-1.5,0.1c0.4-0.5,0.8-1.2,1.1-1.9l9-13.9
		C622.2,298.6,622.3,299.4,622.5,300.1L622.5,300.1z M608.8,326.8c2.5-1.6,4.9-3.6,6.5-6.1l9.2-14.3c2.5,5.5,6.8,9.9,12.3,13.4
		c6.8,4.3,19,4.3,25.8-0.1c9.5-6.3,15.5-15,22-24.3c1.6-2.4-0.3-3.3-2.1-4.2c-1.1,1.1-2,2.3-2.9,3.5c-4.2,4.9-7.7,9.2-12.3,13.8
		c-0.4,0.4-0.9,0.9-1.6,0c3.1-4.4,7.4-8.9,10.9-13.1c2.1-2.5,2.3-3.2,2.7-6.2c-2.3,0.9-0.6-0.6-3.7,2.9c-4,4.2-7.7,8.5-11.7,12.7
		c-2.5,2.7-5.3,4.8-8.6,6.5c-7.7,4.8-12.5,2.9-14.2,1.7c-2.9-2-5-4.5-5.6-8.2c0.5-0.4,0.9-0.7,1.3-0.8c5.6-2.7,10.8-6.1,15.5-10.1
		c9.9-8.2,17.6-17.5,19-30.6c0.4-3.2-0.1-6.5-2.3-9c-4.2-4.9-9.4-7.8-16.2-7.2c-5.3,0.4-10,2.8-13.7,6.4
		c-11.6,10.7-17.7,23.7-17.4,39.1c-0.5,0.8-1,1.5-1.5,2.4c-3.6,6-11.3,17.1-16.7,21.8c-0.5,0.4-1.3,0.5-2.1,0.7
		c-1.1-2.4-1.6-4.5-1.9-6.8c-0.7-6.5-0.8-13-0.1-19.5c0.8-7.3,1.9-14.6,2.7-21.9c0.4-2.5,0.4-5,0.2-7.7c-0.1-2.7-1.3-5-3.6-6.5
		c-4.5-2.9-9.3-4.5-14.1-1.3c-2.1,1.3-4.4,2.9-6.4,4.8c-3.7,3.3-6.5,7.3-9.4,11.3c-0.7,1.1-1.2,2.4-2.9,2.8
		c-3.9-7.8-5.9-5.5-7.8-6.8c-4.2-2.9-9.3,1.5-11.9,4.4c-2.7,2.9-5.2,6.1-7.8,9.2c-0.5,0.5-1.2,1.1-2.4,2c0.1-1.7,0.1-2.8,0.3-3.8
		c1.1-6.8,2.1-13.7,3.1-20.4c0.3-1.3,0.5-2.8-0.4-4c-0.7-0.9-1.6-1.6-3.1-1.7c-1.2,1.9-2.4,3.7-3.6,5.7c-1,1.9-1.2,4.4-2.9,6.8
		c0-3.6,0.8-7.4,2.6-10.5c0.7-0.9,1.5-2.3,0.7-3.7c-2.8,0-3.5,0.1-4.2,2.3c-1.5,3.1-2.8,6.4-3.6,9.7c-4.1,15.4-4.9,31.3-3.6,47.4
		c0.1,1.6,0.6,5.8,3.2,5c2.6-0.8-0.2,4.5,4.6,0.7c0.7,0.9,1.3,1.6,1.7,2.1c2.1-0.5,2.7-2.1,3.2-3.6c0.9-2.5,1.7-5.2,2.8-7.7
		c3.3-8.9,8.2-17.1,14.3-24.4c0.8-0.9,1.3-1.9,3.1-2.2c0.6,3.8,0.2,11.3,0.7,16.7c0.1,1.2,0.8,2.9,1.9,2.9c2.7-0.1,1,3.3,4.9,1.3
		c0.5,0.5,1.1,1.1,1.5,1.6c2.7,0,3.6-3.5,4.2-5.7c3.5-9.7,8.6-18.3,15.1-26.1c1.5-1.6,3.1-3.2,4.8-4.6c0.4-0.4,0.9-0.4,1.7-0.8
		c0.1,2.1-0.4,3.6-0.9,5.2c-2.2,8.2-3.8,16.6-4.5,25.2c-1.1,11.2,0.7,26.4,11.7,32.5C599.8,329.2,604.3,329.8,608.8,326.8
		L608.8,326.8z M440.7,361.1c-0.4,0.9-0.9,1.7-2.3,1.6c2.7-6.1,4.4-12.5,5.6-19c1.9-9.7,3.2-19.5,4.8-29.3c0.3-1.6,0.3-3.3,1.6-5.4
		c0.1,1.6,0.4,2.4,0.4,3.2c0,10.1-0.8,20.2-2.9,30C446.6,348.7,443.8,354.9,440.7,361.1L440.7,361.1z M414.2,390.3
		c-2.7,3.2-7.8,8.6-12.1,9.3c-2.2-5.4-2.7-7.6-2-13.8c1.3-11.8,4.9-23,10-33.7c7.7-16.1,17.9-30.4,30.2-43.3
		c0.8-0.8,1.7-1.6,2.5-2.3c1.5,0.5,1.2,1.5,1.2,2.4c-0.1,14.5-4.9,35.7-10.2,49C428.9,369.7,422.7,380.7,414.2,390.3L414.2,390.3z
		 M392.7,385.9c-0.1,1.1-0.5,2-0.8,3.1c-3.2-6,2.8-22.9,4.9-28.5c5.7-15.1,13.8-28.8,23.9-41.5c5.6-6.9,11.5-13.5,18.1-19.6l4.1-3.6
		c-0.1,1.9-1.1,2.4-1.7,3.1C418.5,321.3,397.1,353.7,392.7,385.9L392.7,385.9z M385.3,298.9c0,0.4-0.4,0.8-0.7,1.2
		c-0.3-0.1-0.5-0.4-0.5-0.5c0.5-10.4,3.2-20.2,7.9-29.3c2.4-4.5,2.2-3.9,5-5.8c0,0.7,0.1,1.3-0.3,1.9
		C390.9,276.5,387.4,287.4,385.3,298.9L385.3,298.9z M428.4,265.2L408.5,296c-2.2,3-2,3.2-4.9,5.4c0.3-0.9,0.5-1.7,0.9-2.4
		c4.6-7.7,9.4-15.4,14.2-23.1c2.1-3.3,4.5-6.5,6.8-9.6c0.8-1.1,1.9-2,3.3-2.7C428.7,264.3,428.7,264.8,428.4,265.2L428.4,265.2z
		 M484.3,266.1c-0.3-0.3-0.8-0.4-1-0.5c-1.2,0.5-2.3,0.9-3.3,1.5l-0.4-2.9c-2.4-0.3-4,0.9-5.6,2l-12.6,8.8c-1.3,0.9-2.3,2-4.2,2.1
		c-1.5-3-2.8-7.7-4.6-11.5c-2.8-5.8-7-10.1-13.5-11.7c-4-0.8-7.3-0.4-10.2,2c-4.9,4.1-9.5,11.5-13,16.9c-4.2,6.1-8,12.5-12.1,18.6
		c-2.5,3.8-5.3,7.4-7.9,11c-0.4,0.5-1.1,0.9-1.7,1.3c-1-1.8,0.1-7,0.5-9.2c2.1-10.4,4.1-20.7,10.2-29.7c1.7-2.6-1.7-4.1-2.6-4.8
		c-1.6,1.5-3.2,2.8-4.6,4c0.3-0.7,0.5-1.5,0.7-2.1c0.1-0.8,0.9-1.7,0-2.5c-2-0.4-3.5,0.7-4.5,2.1c-1.5,1.9-2.9,3.8-4,6
		c-4.5,8-7.3,16.6-9.2,25.5c-1.2,5.2-1.5,10.5-1.3,15.8c0.1,6.4,3.7,10.1,9.2,12.1c3.5,1.3,7.2,1.5,10.3-1.2
		c8.3-7.1,13.6-15.6,19.2-24.8c4-6.6,8-13.3,12.1-19.8c1.7-2.8,3.8-5.4,5.8-8c0.5-0.7,1.3-0.9,2.4-1.6c0.7,1.6,1.2,2.8,1.6,4
		c1.7,5.6,2.8,11.2,3.5,16.9c0.3,1.9-0.4,3.2-1.7,4.4c-20.8,18.7-36.8,40-47.1,66.1c-4.4,11-9.8,29.5-6.8,41.6
		c2.1,8.4,9.6,11.4,17.5,11.3c11.5-0.1,21.2-10,27.9-18.3c17.6-21.8,26.8-48,28.3-75.9c0.4-7.5-0.5-16.9-1.3-24.6
		c1.1-0.9,2.1-2,3.3-2.9l21-15.8C486.8,270,486.8,268.5,484.3,266.1L484.3,266.1z M337.6,293c-1.3-2.3-1.2-4.4-0.4-6.4
		c3.2-7.4,6.9-14.7,11.9-21.1c1.1-1.5,2.1-2.9,4.2-3.8c-0.1,1.9-1.5,2.9-2.1,4.1c-0.7,1.2-1.6,2.5-2.4,3.7l-9.6,19.5
		C338.7,290.3,338.1,291.7,337.6,293L337.6,293z M332.2,252.9c0.3-1.5,0.2-2.8,1.2-4C333.9,250.5,333.6,251.9,332.2,252.9
		L332.2,252.9z M277.5,329.7c-0.8,0.1-0.8-0.7-0.9-1.1c-1.6-3.7-2.1-7.8-2.4-11.8c-0.6-9.7-0.3-19.6,0.9-29.6
		c2-17.3,6.2-34.4,11.4-51.5c0.4-0.5,0.7-1.2,0.9-2.1c1.2,1.3,0.4,2.4,0.3,3.5c-1.7,6.5-3.6,13.1-5.3,19.9
		c-3.5,15.7-5.8,31.5-6.2,47.1c-0.1,7.8,0.1,15.7,1.3,23C277.6,327.9,278.1,329.1,277.5,329.7L277.5,329.7z M378.4,211.3
		L378.4,211.3L378.4,211.3z M378.4,211.3c-2.5,0.1-11-1.9-14.6-3.2C368.2,204.3,376.1,208.5,378.4,211.3L378.4,211.3z M325.7,209.1
		c-1.6,0.4-3.5,1.6-4.4-0.1c0.9-1.9,2.8-1.6,4.1-1.9c11.3-2.4,22.7-3.5,33.8-2.8c2,0.1,3.7,0.3,5.7,0.8c0,0.1-0.3,0.4-0.3,0.7
		c-1,0.1-2,0.1-2.8,0.3C349.7,205.6,337.8,206.7,325.7,209.1L325.7,209.1z M156.5,227.3c-2,0-3.6,0-5.4-1.2c1.6-1.2,3.2-0.5,4.6-0.7
		c2.9-0.3,5.6-0.1,8.6-0.5c5.9-0.6,11.9-1.2,17.7-2.5c1.5-0.3,3.1-0.5,4.5-0.9c-1.6,2.5-3.5,3.5-5.6,4
		C172.7,226.9,164.3,228,156.5,227.3L156.5,227.3z M277.5,211.3L277.5,211.3L277.5,211.3z M277.5,211.3c-2.5,0.1-11-1.9-14.6-3.2
		C267.3,204.3,275.3,208.5,277.5,211.3L277.5,211.3z M140,300c1.4-2.5,6.6-12.5,7.6-13.7c0.3-0.4,0.9-0.4,1.5-0.5c0,0,0.7,0.6,0.1,2
		C147.3,292.5,144.5,296.8,140,300L140,300z M140.5,272.8c-0.7-4.4,2.5-9.9,6.5-11.8c0.3-0.1,0.7,0,0.9,0c2.3,4.6,2,10.1-0.9,15.6
		C143.3,276.6,140.9,276.4,140.5,272.8L140.5,272.8z M134.6,265.2c-0.7-3.2,0.1-4.4,4-6.4c0.1,0.3,0.4,0.5,0.4,0.7
		C138,261.6,136.5,263.5,134.6,265.2L134.6,265.2z M117,268l-2.7,5.3c0.8-9.5,7.4-20.6,13.8-23.2c-0.3,2.1-1.9,3.2-2.8,4.5
		C120.6,261.2,120.8,260.4,117,268L117,268z M175.2,280c0.8-0.2,1.5-0.4,2.2-0.7c-2.1,14.9-3.2,33.1-0.8,47.7
		c0.1,0.8,0.3,1.3,0.3,2.3c0.2,0-0.1,0.3-0.2,0.4c-0.8,0.1-0.8-0.7-0.9-1.1c-1.6-3.7-2.1-7.8-2.4-11.8
		C172.5,304.7,173.3,292.3,175.2,280L175.2,280z M178.9,269.8c-0.6,0.2-1.3,0.4-2.1,0.7c2.2-11.6,5.3-23.2,8.8-34.7
		c0.4-0.5,0.7-1.2,0.9-2.1c1.2,1.3,0.4,2.4,0.3,3.5c-1.7,6.5-3.6,13.1-5.3,19.9C180.6,261.3,179.7,265.5,178.9,269.8L178.9,269.8z
		 M48.8,301.9c0-0.5,0-1.2,0.3-1.7c3.1-6.4,6.2-12.6,10.2-18.6c0.5-0.8,0.9-1.9,2.1-1.9c-0.1,0.4-0.1,0.8-0.4,1.2
		c-3.5,6.2-6.8,12.6-10.4,18.8C50.2,300.7,50,301.7,48.8,301.9L48.8,301.9z M39.8,306c-1.2-0.1-1-1.1-1.1-1.6
		c-0.3-3.6-0.7-7.2-0.7-10.8c-0.1-13.3,2.1-26.4,4.6-39.6c0.1-0.9,0.1-2.1,1.9-2.4c0,0.5,0.1,1.2,0,1.7c-2.4,7-2.9,14.5-3.3,21.8
		c-0.8,7.7-1.2,15.4-1.6,23.1C39.6,300.8,39.8,303.3,39.8,306L39.8,306z M282.9,222.3c1.5-0.3,3.1-0.5,4.5-0.9
		c-1.6,2.5-3.5,3.5-5.6,4c-8.3,1.5-16.7,2.7-24.5,1.9c-2,0-3.6,0-5.4-1.2c1.5-1.2,10.7-0.8,13.3-1.2
		C273.3,223.9,273,224.3,282.9,222.3L282.9,222.3z M238.1,204.9l-1.8,2.3c-3.8,0.5-7.7,1.1-11.5,1.9c-1.6,0.4-3.5,1.6-4.4-0.1
		c0.9-1.9,2.8-1.6,4.1-1.9C229,206.1,233.6,205.4,238.1,204.9L238.1,204.9z M241.7,206.6c0.2-0.8,0.4-1.4,0.6-2.1
		c5.3-0.4,16.5-0.8,21.8,0.6c0,0.1-0.3,0.4-0.3,0.7c-1,0.1-2,0.1-2.8,0.3C254.5,205.8,248.1,206,241.7,206.6L241.7,206.6z
		 M328.3,295.6c-0.4,0.5-0.8,1-1.2,1.4c0-2.5,0.3-11,0.7-13c0.1-0.4,0.7-0.7,1.1-1.1L328.3,295.6L328.3,295.6z M294.6,338.2
		c1.1-0.8,2.3-1.6,3.3-2.5c5.6-4.8,18.5-18.6,26.7-27.5c0.3,3.9,0.8,7.9,1.4,12.1c0.6,2.7,0.7,3.2,2.8,4.8l1.6-1.6
		c1.4,0.5,0.2,5.6,3.7-0.4c0.5,1.1,0.9,2,1.3,2.9c1.9-0.7,2.1-2.1,2.1-3.5c0-13.7,12.6-47.7,25.4-58.6c0.8-0.7,1.6-1.1,2.5-1.6
		c2.9,2.5,6,6.7,9.6,4.9l2,2.4c3.8-1.6,4.9-2.8,4.2-5.6c-2.2-9.6-11.3-18.3-21.6-14.8c-2.8,0.9-5.2,2.4-7.2,4.5
		c-6,6.3-8.5,9.5-12.7,17c-0.3,0.5-0.9,0.9-1.9,1.9c0.1-1.3,0-2.1,0.1-2.8c0.7-5.6,1.5-11.2,2.3-16.6c0.5-5.2,1.8-8.7-2.8-9.4
		l-2.3,3.6c-0.4,0.5-0.8,1.2-1.6,1.1c0.1-2,0.4-3.8,0.5-5.8c-1.6-0.5-2.5,0.1-3.1,1.3c-0.9,1.9-1.7,3.8-2.3,5.8
		c-3.4,16.3-5.1,29.8-4.9,44.1c-0.2,0.2-0.4,0.4-0.5,0.6c-4.5,4.5-9,9.3-26,27.2c-3.4,3.2-7.2,6.6-11.5,8.2
		c-0.3-1.3-0.7-2.4-0.5-3.3c0.1-5.6,0.1-11.3,0.7-16.7c1.3-10.5,2.9-21,4.5-31.5c2.8-17.1,6.9-33.8,11.5-50.6
		c0.3-1.1,0.7-2.3,1.2-3.6c17.7-4.4,35.6-6.9,53.8-7.4c4-0.1,7.8,0.3,11.8,0.5c4.1,0.3,5.3,1,4.8,4.8h3.1l-0.4,3
		c3.6,0.8,4,0.8,5.7-1.3c0.8-0.9,1.6-1.8,2.1-2.9c3.6-6.7-2.1-9.8-2.4-11.3c-0.5-2.4-2.4-3.5-4.4-4.1c-2.5-0.9-5.2-1.7-7.8-2.1
		c-9-1.7-18.3-1.3-27.5-0.7c-10.1,0.8-20.2,2.1-30.1,4c-1.1,0.3-2,0-3.2,0c0-0.8-0.1-1.3,0.1-1.9c2.1-6.5,4-13,6.2-19.5
		c1-3.1,1-3.2-2-5.6c-1.3,0.7-6.3,6.8-4.6,2.5c0.4-1.1,1.2-2.1,1.7-3.2c0.9-1.9-3-2.9-4.8-0.1c-1.2,2-2.7,3.8-3.5,5.8l-10.1,25.5
		c-1.2,0.4-2.1,0.8-3.1,1.1c-1.9,0.4-3.9,0.7-5.8,1.1c-0.9-1.4-2-2-2.2-2.8c-0.5-2.4-2.4-3.5-4.4-4.1c-2.5-0.9-5.2-1.7-7.8-2.1
		c-9-1.7-18.3-1.3-27.5-0.7c-10.1,0.8-20.2,2.1-30.1,4c-1.1,0.3-2,0-3.2,0c0-0.8-0.1-1.3,0.1-1.9c2.1-6.5,4-13,6.2-19.5
		c1-3.1,1-3.2-2-5.6c-1.3,0.7-6.3,6.8-4.6,2.5c0.4-1.1,1.2-2.1,1.7-3.2c0.9-1.9-3-2.9-4.8-0.1c-1.2,2-2.7,3.8-3.5,5.8l-10.1,25.5
		c-1.2,0.4-2.1,0.8-3.1,1.1c-6.4,1.2-12.6,2.5-18.8,3.6c-4.9,0.8-9.8,1.3-15,1.1c-2.9-0.3-6-0.7-8.7-1.9c-0.4-0.3-0.5-0.7-1.1-1.1
		c0.5-1.2,0.8-2.3,1.3-3.5c-2.2-2.7-1-2.6-5.2-1.7c0.4-1.5,0.7-2.5,1.1-3.7c-4.5-1.9-7.8,4.3-6.9,8.2c0.9,4,2.4,7.7,5.3,10.8
		c10.2,10.7,27.2,8.1,40.2,5.7c1.5-0.3,2.9-0.8,4.4-0.4c0,0.9,0.8,0.3-0.5,4.2c-3.5,11.3-6.7,26.4-8.9,38.4
		c-5.4,1.8-12.7,4.4-14.9,3.7c0-2.7,0-5.3-0.1-7.8c-0.7-6.5-3.5-11.5-10-14.3c-14.7-6.3-26.2,13.6-18.3,24.1
		c6.1,8.1,10.1,6.1,11.9,8.8l-0.8,2.1c-3.4,5.7-9.4,14.7-15,18.5c-4,2.8-6,2.1-7.2-2.7c-0.8-3.3-1.1-6.8-1.1-10.2
		c0-10.8,2.7-21,7.7-30.4c2.3-4.1,4.4-8.4,8.5-11c0.7-0.4,1.1-1.6,1.1-2.4c0.1-1.6-2.2-4.3-4.4-2.8c-1.3,1.3-1.2-1.4-1.2-2
		c-2.5-0.8-4.4,0.1-5.8,1.3c-7.4,6.2-12,14.1-15.1,23.2c-1.6,4.7-2.8,9.4-3.3,14.2c-1,1.1-1.9,2.3-2.8,3.5
		c-3.8,5.4-7.7,11-11.7,16.5c-0.5,0.8-0.9,2-2.5,1.9c-0.3-0.8-0.5-1.6-0.7-2.4c-0.9-6.7-0.9-19.3-0.7-25.8c0.1-3.2-0.4-6.4-1.3-9.3
		c-0.8-2.8-2.4-4.9-5-5.8c-4.8-1.7-9.4-2-13.5,1.7c-8.4,7.6-12.8,16.2-18.4,25.8c-0.4,0.7-0.5,1.7-2,1.9c-0.5-1.6-0.4-3.2-0.1-4.8
		c1-11.5,1.8-23.3,3.9-34.6c0.5-2.7,0-4.5-2.4-5.6c-1.8-0.9-2.5,2-3.2,3.2c-0.5-1.2-0.5-2.1-0.5-2.9c0-3.2-4.6-2-5.8,1.7
		c-0.9,2.8-2,5.7-2.7,8.6c-2.3,11.9-3.8,24-3.8,36.1c-0.1,5.4,0.5,10.8,1.2,16.2c0.4,3.7,2.1,6.2,6.4,7c4.4,0.6,6.5,0.2,8.8-3.5
		c4.5-7.8,8.8-17.5,13.4-25.6c2.4-4.1,5.6-8.1,8.5-12.1c0.7-0.9,1.3-2,3.1-2c1.3,6.3-2.7,21.1,0.7,34.4c1.5,6,4.8,10,10.9,11.2
		c7,1.5,11-2.2,13.9-8.1c2.3-3.9,4.7-7.6,7.1-11.4c0.4,1.9,0.9,3.7,1.6,5.5c3.5,8.5,15.8,15.3,26.3,8.6c9-5.9,16.4-16.5,20.8-26.3
		c1.6-3.5,3.9-2.8,5.4-3.2c1.6-0.4,6.8-1.8,11.6-3.3c-2.1,13.2-3.3,25-3.8,38.4c-0.1,4.1,0.4,8.2,1.6,12.1
		c3.7,12,16.9,12.5,25.7,4.8c7-6.1,25.8-26.4,32-33.3c1.2-1.2,2-2.8,2.6-4.2c0.7-1.9,0.3-2.5-2-3.7c0,0.4-0.8-0.2-1.1,0
		c-2.4,2.2-2.9,4.1-4.1,3.1c0.1-1.3,0.3-2.8,0.5-4.2c-1.2,0-1.7,0.1-2.5,1.2c-4.5,4.5-9,9.3-26,27.2c-3.4,3.2-7.2,6.6-11.5,8.2
		c-0.3-1.3-0.7-2.4-0.5-3.3c0.1-5.6,0.1-11.3,0.7-16.7c1.3-10.5,2.9-21,4.5-31.5c2.8-17.1,6.9-33.8,11.5-50.6
		c0.3-1.1,0.7-2.3,1.2-3.6c11.4-2.9,23.3-5,35-6.2c4.5,9.7,14.9,12.9,24.9,13c6.4,0.1,12.6-0.9,18.8-2.1c1.5-0.3,2.9-0.8,4.4-0.4
		c0,0.9,0.8,0.3-0.5,4.2c-2.8,9.8-5.3,19.9-7.3,30c-3.1,16-10.2,52.9-5.4,68.3C274.6,338.5,285.9,345.1,294.6,338.2L294.6,338.2z"/>
	<path d="M266.7,123.8c-0.9,3.2-2.9,5.8-5.6,7.8c1.5-3.5,3.1-6.8,5.6-10.4C266.9,122.6,267.1,123.3,266.7,123.8L266.7,123.8z
		 M196.6,132.8c1.4-2.5,6.6-12.5,7.6-13.7c0.3-0.4,0.9-0.4,1.5-0.5c0,0,0.7,0.6,0.1,2C203.9,125.4,201.1,129.6,196.6,132.8
		L196.6,132.8z M197.1,105.6c-0.7-4.4,2.5-9.9,6.5-11.8c0.3-0.1,0.7,0,0.9,0c2.3,4.6,2,10.1-0.9,15.6
		C200,109.5,197.5,109.3,197.1,105.6L197.1,105.6z M191.3,98.1c-0.7-3.2,0.1-4.4,4-6.4c0.1,0.3,0.4,0.5,0.4,0.7
		C194.6,94.5,193.2,96.3,191.3,98.1L191.3,98.1z M173.6,100.8l-2.7,5.3c0.8-9.5,7.4-20.6,13.8-23.2c-0.3,2.1-1.9,3.2-2.8,4.5
		C177.3,94.1,177.5,93.2,173.6,100.8L173.6,100.8z M116.7,134.8c-1.3-4.1,0.7-6.6,2-9c2-3.6,2.1-3.6,4-4.4
		C120.8,125.7,118.9,129.8,116.7,134.8L116.7,134.8z M156.3,42.2c-0.4,3.7-1.7,6.5-2.9,9.2c-3.5,7.6-7.7,14.7-13,21
		c-5.8,6.8-11.8,13-17.6,19.6c-0.7,0.7-1.5,1.1-2.3,1.6c-0.1,0-0.1-0.1-0.5-0.3c0.4-0.8,0.8-1.6,1.3-2.1l9.4-10.5
		c9-10.5,16.6-21.9,22.7-34.1C154.9,43.7,154.3,44.1,156.3,42.2L156.3,42.2z M122.8,46.8c3.2-7.6,7.8-13.8,14.3-18.7
		c0.5-0.4,1.2-0.7,2-1.1c0,1.7-0.9,1.8-1.9,3.3c-8.5,8.9-14.3,19.1-18.3,30.5c-1.1,3.1-0.9,3.3-2.7,4.6
		C118.3,59,120.2,52.9,122.8,46.8L122.8,46.8z M147.9,29.2c1.9-1.3,3.7-2.5,6.3-2.4c0.1,0.9,0.5,1.7,0.3,2.5
		c-0.4,2.9-0.8,5.7-1.6,8.5c-2.1,7-5.6,13.5-9.7,19.6c-5.6,8.5-12.1,16.6-19,24.2c-0.9,0.9-1.5,1.7-2.7,1.5c0-0.7,0.1-1.3,0.3-2.1
		c2.1-9.3,4.8-18.6,8.6-27.6C134,44.2,139.6,34.9,147.9,29.2L147.9,29.2z M55.6,111.2c0.3-12.7,2.3-25.2,4.8-37.7
		c2.1-11.1,5.2-22.2,9-33.1c0.1-0.1,0.5-0.3,0.9-0.4c0.8,1.2,0,2.3-0.3,3.3L65.7,59c-3.1,10.5-5.2,21.4-6.9,32.1
		c-0.9,6.6-1.5,13.3-2.3,19.8C56.6,112.8,55.6,114.2,55.6,111.2L55.6,111.2z M7.6,72.8c-3-2,1.9-6.6,3.3-8.1
		c4-4.3,26-24.7,30.9-24.7c-1.1,1.1-2.3,2.6-4.1,3.8c-10,7.2-18.6,15.5-26,25.1C11.2,69.7,8.6,73.4,7.6,72.8L7.6,72.8z M79.4,154.3
		c3.1-0.1,5.8-1.3,8.1-3.6c5-4.5-0.4-6.8-2.5-5.3c-0.4,0.3-0.9,0.4-1.5,0.7c-3.3-4.9-1.3,1.4-10.8,0.9c-4.2-0.3-5.6-1.3-6.2-5.6
		c-0.5-2.9-0.9-5.7-0.8-8.6c0.3-6.6,0.7-13.3,1.6-19.8c1.5-11.7,3.1-23.4,5.2-35c2.4-13.3,5.3-26.5,8-39.8c0.3-1.2,0.7-2.4,1.1-3.7
		c13.9-5.3,28.1-10,42.6-12.9l2.1,1.7c2.8-0.9,4.2-4.1,7.8-2.9l-5.8,5.3c-0.1,0,0,0.4,0,0.7c1.2,1.1,2.4-1.3,3.6,0
		c0,0.2,0,0.4,0,0.5c-1.1,1.1-2.1,2.3-3.1,3.6c-5.4,6.2-9,13.4-12.1,21c-5.7,14.2-8.7,29.1-10.6,44c-0.8,6.4-1.3,12.9-2,19.4
		c-0.7,5.2-0.8,10.2-0.4,15.4c0.4,5.8,3.7,16.3,10.5,17.3c1.3,0.4,2.9,0,4.8,0.1c0.5-1.6,1.1-2.7,1.1-3.8c0.4-3.2,1.3-6.4,2.5-9.3
		c2.5-6.6,6.1-12.9,11.2-18.3c0.5-0.7,1.1-1.5,2.4-1.1c0.1,0.8,0.1,1.7,0.3,2.5c-0.4,3.3-0.8,6.6-0.9,10c-0.5,5.4-2.3,13.3,1.6,17.4
		c5.5,6.1,14,5.4,20,0.7c3-2.6,6.1-5.2,9.2-7.9c3.6,8.3,15.8,14.8,26.1,8.3c9-5.9,16.4-16.5,20.8-26.3c1.6-3.5,3.9-2.8,5.4-3.2
		c1.3-0.3,5.1-1.4,9.1-2.5c-0.4,5.1-0.2,10.3,0.6,15.4c1.2,7.7,4.9,13.7,11.8,17.1c14.8,7.3,24.5-9.8,26.7-10.6c0.4,0,0.7,0,0.7,0.1
		c0.3,1.2,0.7,2.3,0.9,3.5c1.7,6.4,6.1,10.4,12.6,11.8c3.8,1.1,8,1.3,11.8-1.3c4.2-2.8,8.4-5.6,12.5-8.8c2.2-1.8,6.7-6.3,5.2-9.4
		c-0.4-0.7-2.3-0.8-3.5-1.2c-1.3,0.8-1.7,2.8-3.8,2.7c-0.1-0.9-0.3-1.9-0.4-3.3c-5.2,3.7-9.8,9.6-17.7,11.5
		c-2.3-3.8-2.7-4.9-3.3-9.3c-1.6-8.8,0.6-25,1.6-34.8c0.4-3.3-0.1-3.8-3.5-4.8c-0.7,1.2-1.6,2.5-2.3,4c-0.9,1.2-1.2,2.9-2.7,4.6
		c-0.7-3.5,2.5-7.7,1.2-9.7c-2.1-0.1-2.9,1.1-3.5,2.7c-0.8,2.4-1.6,4.8-2.1,7c-0.5,2-0.8,4.1-1.6,6.4c-2.3,5.8-4.9,11.7-8.6,17.3
		c-2,2.9-4.4,5.8-6.6,8.5c-1.6,1.6-3.5,2.8-5.3,4.1c-2.7,2.1-4.2-2.6-4.4-4.6c-0.9-4.8-1.5-9.7-1.2-14.6c0.4-8.2,1.6-15.1,2.9-23.1
		c0.4-2.7,0.9-5.4,1.1-8.1c0.4-1.5,0-2.7-2.1-2.4c-0.3,0-0.5-0.8-1.1-1.2c-5.3,8.8-4.9,9.1-7.9,19.1c-0.4,0.1-0.8,0.3-1.3,0.4
		c1.3-11.8,5.2-15.5,5.6-20c-1.7-0.5-2.6,0.5-3.4,1.3c-0.9,1.6-1.9,3.1-2.4,4.5c-2.3,5.3-4.1,10.6-5.2,16
		c-4.9,1.6-10.2,3.3-12.1,2.7c0-2.7,0-5.3-0.1-7.8c-0.7-6.5-3.5-11.5-10-14.3c-14.7-6.3-26.2,13.6-18.3,24.1
		c6.1,8.1,10.1,6.1,11.9,8.8c-2.2,5.9-10.3,16.9-15.8,20.6c-4,2.8-6,2.1-7.2-2.7c-0.8-3.3-1.1-6.8-1.1-10.2c0-10.8,2.7-21,7.7-30.4
		c2.3-4.1,4.4-8.4,8.5-11c0.7-0.4,1.1-1.6,1.1-2.4c0.1-1.6-2.2-4.3-4.4-2.8c-0.3,0.3-0.8,0.1-1.2,0.1v-2.1c-2.5-0.8-4.4,0.1-5.8,1.3
		c-7.4,6.2-12,14.1-15.1,23.2c-2.9,8.6-4.1,15.7-3.4,24.8c-0.3,0.2-0.5,0.4-0.7,0.6c-3.6,3.8-7.8,7-12.1,10.4
		c-0.8,0.7-1.9,1.5-3.1,0.5c-0.4-2.5,0.3-5,0.5-7.6c0.7-5.6,1.3-11.2,1.2-16.7c-0.4-6.4-2.9-9-9-10.2h-0.4c-3.7-1.2-7.2,0-10.3,2.4
		c-5.1,4-8.1,8.6-11.8,13.7c-0.4,0.5-0.7,1.2-1.7,0.8c-0.4-1.1,0.4-8.4,0.5-10.6c0.1-3.5,1.7-5.9,4.2-8.4c10.9-10,21-20.6,29.5-32.6
		c7.4-10.5,13.7-20.7,15.7-33.3c0.9-5.6,0.1-11-4.4-14.7c-3.4-2.7-7.2-4.4-11.4-4.2c0.6-1.3,0.6-2.9,0.1-4.4
		c-2.8-7.5-6.6-5.8-7.4-7.9c-1.9-4.7-12.1-4.7-16.2-4.1c-4.1,0.4-8.1,1.1-12.1,1.7C93.6,6,73.3,12.8,54,22.4
		c-16,8.1-30.4,18.1-42.5,31.3c-3,3.3-5.7,7-8.3,10.8c-3,4-5,10.9-0.8,14.9c3.7,3.1,7.5,6.9,12.2,2.9c1.1-0.9,6.2-4.7,6.4-5.8v-3.3
		c9.3-10.5,32.1-26.8,41.4-29.5c0,2,0,1.3-0.8,4c-5,14.9-8.8,30.1-10.5,45.8c-1.3,11.1-2.6,29.1-0.4,40.2c0.7,3.2,1.7,6.4,2.9,9.4
		C57.6,152.7,70.3,154.9,79.4,154.3L79.4,154.3z M507.2,132.7c3.3-7.2,6.6-14.5,10.1-21.6c1.5,0,1.3,0.9,1.1,2.1
		c-2,7.3-4.5,14.3-10.2,19.8C507.8,133.3,507.4,133,507.2,132.7L507.2,132.7z M489.2,143c-0.4-1.6-0.8-2.5-0.9-3.6
		c-1.3-11.1,7.2-27.4,14.1-35.3c2.5-2.8,5.2-5.4,8.8-7c3.5,0.8,6.4,0.8,5,5.2c-4.5,15.3-11.4,28.4-23.6,38.8
		C491.7,141.6,490.7,142,489.2,143L489.2,143z M426.4,134.8c-1.3-4.1,0.7-6.6,2-9c2-3.6,2.1-3.6,4-4.4
		C430.5,125.7,428.5,129.8,426.4,134.8L426.4,134.8z M466,42.2c-0.4,3.7-1.7,6.5-2.9,9.2c-3.5,7.6-7.7,14.7-13,21
		c-5.8,6.8-11.8,13-17.6,19.6c-0.7,0.7-1.5,1.1-2.3,1.6c-0.1,0-0.1-0.1-0.5-0.3c0.4-0.8,0.8-1.6,1.3-2.1l9.4-10.5
		c9-10.5,16.6-21.9,22.7-34.1C464.6,43.7,464,44.1,466,42.2L466,42.2z M432.5,46.8c3.2-7.6,7.8-13.8,14.3-18.7
		c0.5-0.4,1.2-0.7,2-1.1c0,0.7,0,0.9-0.1,1.2c-0.7,0.7-1.2,1.3-1.7,2.1c-8.5,8.9-14.3,19.1-18.3,30.5c-1.1,3.1-0.9,3.3-2.7,4.6
		C428,59,429.9,52.9,432.5,46.8L432.5,46.8z M457.6,29.2c1.9-1.3,3.7-2.5,6.3-2.4c0.1,0.9,0.5,1.7,0.3,2.5c-0.4,2.9-0.8,5.7-1.6,8.5
		c-2.1,7-5.6,13.5-9.7,19.6c-5.6,8.5-12.1,16.6-19,24.2c-0.7,0.7-1.3,1.1-1.9,1.6c-0.1,0-0.3,0-0.8-0.1c0-0.7,0.1-1.3,0.3-2.1
		c2.1-9.3,4.8-18.6,8.6-27.6C443.7,44.2,449.2,34.9,457.6,29.2L457.6,29.2z M481,127.6c-3.3-0.8-2.9-0.9-1.6-4.3
		c3.2-9,8-17.3,15-23.9c0.9-0.7,1.9-1.3,2.8-2.1c0.9,1.2,0,1.6-0.4,2.1C490.3,108.4,484.1,116.6,481,127.6L481,127.6z M374.2,183.3
		c0.9-4.4,1.2-4.9,3.3-7.7c1.1,2,0.4,3.8-0.1,5.7C377,182.5,376.1,183.3,374.2,183.3L374.2,183.3z M354.3,176.9
		c-3.1,0.3-1.1-4.4,2.6-6.5c0.1,0.7,0.3,0.9,0.3,1.2L354.3,176.9L354.3,176.9z M362.6,184.2c-1.3,0.1-2.3-0.7-2.5-2
		c-1.2-6.1,6.9-13.6,12.2-16.6c1.2,4.6,0.8,8.8-1.3,12.6C369.3,181.6,366.6,183.8,362.6,184.2L362.6,184.2z M354,107.1
		c-2.3-4.6,4.2-11.7,7.8-13.4C361.1,95.9,356.5,103.9,354,107.1L354,107.1z M712.2,44.2L712.2,44.2L712.2,44.2z M712.2,44.2
		c-2.5,0.1-11-1.9-14.6-3.2C702,37.2,710,41.4,712.2,44.2L712.2,44.2z M659.5,41.9c-1.6,0.4-3.5,1.6-4.4-0.1
		c0.9-1.9,2.8-1.6,4.1-1.9c11.3-2.4,22.7-3.5,33.8-2.8c2,0.1,3.7,0.3,5.7,0.8c0,0.1-0.3,0.4-0.3,0.7c-1,0.1-2,0.1-2.8,0.3
		C683.5,38.5,671.6,39.5,659.5,41.9L659.5,41.9z M593.6,63.7c-7.2,14.8-16.2,30.7-21.6,37c-0.9,0-0.9-0.7-0.7-1.2
		c0.5-1.3,1.1-2.7,2-3.8c6.6-10.4,12.6-21.2,18.1-32.1C592.2,63.6,592.9,63.7,593.6,63.7L593.6,63.7z M596.4,58
		c-0.4,0.8-0.7,1.5-1.1,2.3c-0.7,0-1.5,0-2.2-0.1c0.4-0.7,0.7-1.5,1.1-2.2L596.4,58L596.4,58z M604.8,35.9c-0.5,2.8-2,7.2-4.1,12.3
		c-0.7,0.1-1.3,0.2-2,0.2c1.4-3.1,2.8-6.1,4.1-9.2C603.2,38.4,604,36.4,604.8,35.9L604.8,35.9z M588.4,63
		c-3.7,7.2-7.6,14.2-11.9,21.1c-0.5,1.1-0.9,2.5-2.7,2.5c0.1-0.4-0.1-0.9,0.1-1.3c1.8-8.2,3.9-16.6,6.7-24.7
		C583.3,61.9,585.5,62.5,588.4,63L588.4,63z M590.9,58.2c-0.3,0.6-0.6,1.3-0.9,1.9c-1.4,0-2.7-0.2-4.2-1.2
		C587.2,57.8,588.8,58.3,590.9,58.2L590.9,58.2z M604.1,22.3c1.3,4.7-6.3,21.2-8.8,26.5c-3.4,0.2-6.3,0.2-9.7-0.3
		C587.4,44.6,599.8,21,604.1,22.3L604.1,22.3z M579.6,41.5c3.8-7,10.5-17.1,17.3-22c-0.1,1.7-1.2,2.4-1.7,3.2
		c-0.8,1.1-1.6,2.1-2.4,3.1l-6.2,8.6l-5.4,9c-0.5,1-1.1,2-1.7,3c-0.1-0.1-0.3-0.3-0.5-0.4c0.5-1.2,0.8-2.3,1.3-3.5
		C580.1,42.1,579.9,41.8,579.6,41.5L579.6,41.5z M571.9,60.1c0.5-1.8,1.1-3.5,1.8-5.3l1.1,1.3l-2.6,6.6c-0.4,0.9-0.9,1.9-1.3,2.8
		c-0.1-0.1-0.4-0.1-0.5-0.1L571.9,60.1L571.9,60.1z M608,129.9c0.8-0.9,1.6-1.8,2.4-2.7c-0.8,10.6-0.8,22.6,0.8,32.8
		c0.1,0.8,0.6,2,0,2.7c-1.9,0.3-3.2-11.3-3.3-12.9C607.6,143.2,607.6,136.6,608,129.9L608,129.9z M607.3,47.1
		c2.7-6.7,10.1-26,4.5-32.3c-3.5-3.6-9.4-4.1-14.1-0.9c-1.5,0.9-2.9,2-4.2,3.3c-7.1,7.3-12.2,14.3-17.1,23.3
		c-0.4,0.1-0.8,0.1-1.2,0.2c0.4-1.5,0.7-2.5,1.1-3.7c-4.5-1.9-7.8,4.3-6.9,8.2c0.5,2,1.1,3.9,1.9,5.7c-8.2,18.9-13.3,42.1-16,62
		c-0.9,6.9-1.1,12.5-0.8,19.5l0-0.1c-1.6,0-2.3,1.1-3.1,2c-3.6,3.6-7.4,6.6-11.7,9.4c-0.8,0.5-1.7,0.7-2.7,1.1
		c-1.6-1.6-2.1-3.3-2.7-5c-1.9-5.4-2.7-11.2-2.7-16.9c-0.1-7,0.1-13.9,0.3-21c0-2.5,0-5-0.1-7.6c-0.1-2.5-1.3-4.2-3.6-5.2
		c-1.1,0.4-1.9,0.9-2.8,1.5c-0.5-1.2-0.9-2.3-1.2-3.1c-3.2-0.1-3.2-0.1-5.8,3.7c-0.1,0-0.3,0.1-0.4,0c-0.7-0.3-1.3-0.8-1.9-1.2
		c-5.6-3.7-11.3-4.1-17.1-0.8c-3,1.7-6.4,4.6-8.8,7c-7.8,8-13.5,19.3-16.1,30c-0.6,0.3-1.2,0.6-1.5,1.1c-3.6,3.8-7.8,7-12.1,10.4
		c-0.8,0.7-1.9,1.5-3.1,0.5c-0.4-2.5,0.3-5,0.5-7.6c0.7-5.6,1.3-11.2,1.2-16.7c-0.7-10.6-12.1-13.7-19.8-7.9
		c-5.1,4-8.1,8.6-11.8,13.7c-0.4,0.5-0.7,1.2-1.7,0.8c-0.4-1.1,0.4-8.4,0.5-10.6c0.1-3.5,1.7-5.9,4.2-8.4c10.9-10,21-20.6,29.5-32.6
		c7.4-10.5,13.7-20.7,15.7-33.3c0.9-5.6,0.1-11-4.4-14.7c-7-5.7-13.9-5.2-21.4-0.9c-4.5,2.7-8.5,6.2-11.8,10.5
		c-5.4,6.2-9,13.4-12.1,21c-5.7,14.2-8.7,29.1-10.6,44c-0.8,6.4-1.3,12.9-2,19.4c-0.5,3.6-0.7,7.1-0.6,10.7
		c-5.6,3.5-15,9.6-18.7,11.8c-4.5,2.5-8.9,5-13.4,7.7c-0.7-0.7-1.2-1.1-1.6-1.7c-4.5-7.3-9.2-11.4-13-17.4
		c-8.5-12.7-1.5-27.5,8.3-32.9c1.5-0.8,3.3-1.3,5.1-1.7c3.6-1,4.9,5.5,5.2,7.7c0.2,1.6,0.3,6.1,3.1,4.6c0.3-0.1,0.5,0.1,0.8,0.3
		c0.3,0.8,0.5,1.6,0.9,2.5c0.9-0.7,1.7-1.1,2.4-1.6c0.7,1.1,1.8,3.1,3.2,1.7c1.7-1.3,2.3-3.2,2.3-5.2c-0.5-8-4-14.2-11.2-17.9
		c-5.5-2.8-11.6-3.5-17.5-1.6c-17.3,6-29.1,28.9-15.2,47.9c5.2,7.2,10.6,12.2,14.4,20.7c0.4,0.9,0.5,2,0.8,2.9
		c-1.2,1.1-2.2,1.9-3.3,2.8c-3.6,3.2-7.3,6.2-10.9,9.6c-6.6,6.2-9.5,17.1-1.6,23.7c10.2,8.6,25.9,6.2,32-5.3c2.1-4,3.3-8.1,3.2-12.6
		c-0.1-8.2-1.2-9.3-2.8-16.5l28.7-18.6c1.6,6,4.9,7.3,5,8c0.8,4,6.5,3,9.4,3.2c0.5-1.6,1.1-2.7,1.1-3.8c0.4-3.2,1.3-6.4,2.5-9.3
		c2.5-6.6,6.1-12.9,11.2-18.3c0.5-0.7,1.1-1.5,2.4-1.1c0.6,3.6-0.5,8.6-0.7,12.5c-0.5,5.4-2.3,13.3,1.6,17.4
		c3.5,3.8,10.6,6.1,16.2,3c4.5-2.8,7.2-5.2,11.1-8.6c1.2,5.6,4.4,9.8,10.1,12.5c13.6,6.1,25.1-7,32.3-17.1c0.8-1.1,1.2-2.5,2.9-2.9
		l4,11.4c3.7,8.5,14.6,13.1,22.2,8.1c3.7-2.4,7.2-5.1,10.5-8.1c1.7,8.1,5.4,13.2,14.1,14.5c12.9,1.7,28.1-16.9,35.8-25.5
		c-0.7,6.4-1,12.9-1.2,19.3c-0.1,4.1,0.4,8.2,1.6,12.1c2.3,7.6,13.6,14.2,22.4,7.3c11.7-8.8,25.4-24.7,35.3-35.9
		c1.2-1.2,2-2.8,2.6-4.2c1.3-3.5-3-3.8-3-3.7c-2.4,2.2-2.9,4.1-4.1,3.1c0.1-1.3,0.3-2.8,0.5-4.2c-1.2,0-1.7,0.1-2.5,1.2
		c-4.5,4.5-9,9.3-26,27.2c-3.4,3.2-7.2,6.6-11.5,8.2c-1.1-5.6-0.4-14.3,0.1-20c1.3-10.5,2.9-21,4.5-31.5
		c2.8-17.1,6.9-33.8,11.5-50.6c0.3-1.1,0.7-2.3,1.2-3.6c17.7-4.4,35.6-6.9,53.8-7.4c4-0.1,7.8,0.3,11.8,0.5c4.1,0.3,5.3,1,4.8,4.8
		l2.7,3c4.3,1,5.9-0.3,7.8-4.2c3.6-6.7-2.1-9.8-2.4-11.3c-0.5-2.4-2.4-3.5-4.4-4.1c-2.5-0.9-5.2-1.7-7.8-2.1
		c-9-1.7-18.3-1.3-27.5-0.7c-10.1,0.8-20.2,2.1-30.1,4c-1.1,0.3-2,0-3.2,0c0-0.8-0.1-1.3,0.1-1.9c2.1-6.5,4-13,6.2-19.5
		c1-3.1,1-3.2-2-5.6c-1.3,0.7-6.3,6.8-4.6,2.5c0.4-1.1,1.2-2.1,1.7-3.2c0.9-1.9-3-2.9-4.8-0.1c-1.2,2-2.7,3.8-3.5,5.8l-10.1,25.5
		c-1.2,0.4-2.1,0.8-3.1,1.1C617.4,45.1,612.3,46.2,607.3,47.1L607.3,47.1z M601.5,60.2c0.4-0.9,0.9-1.8,1.3-2.8
		c5.8-0.7,12.8-1.6,18.5-3.1c-1.6,2.5-3.5,3.5-5.6,4C610.9,59.1,606.2,59.8,601.5,60.2L601.5,60.2z M607,121.4c0-0.7-0.5-1.3-0.5-2
		c-1.6,0-1.7,1.1-2.6,2.1c-9.4,9.5-14.3,16.4-26.3,24.4c-1.6,1.1-3.5,2-5.6,3.2c-4.6-4.6-3.6-23.8-3.3-30c0.1-3.3,1.2-6.1,3.3-8.9
		c2.3-2.8,4.2-5.7,6.1-8.6c8.2-12.2,15.3-24.8,21.6-37.7c5.1-0.2,10.1-1.1,15.1-2.1c1.5-0.3,2.9-0.8,4.4-0.4c0,0.9,0.8,0.3-0.5,4.2
		C614.1,80.8,609.2,105.3,607,121.4L607,121.4z M608.8,121.5c2.4-21,6.8-35.1,12.5-55c1.2,1.3,0.4,2.4,0.3,3.5
		c-1.7,6.5-3.6,13.1-5.3,19.9c-2.2,10-4,20-5.1,29.9C611.1,119.8,608.9,121.3,608.8,121.5L608.8,121.5z"/>
	<path d="M510.4,349.3c-0.4-1.6-3.6-1.3-4.9-0.8c-0.7,0.3-1.7,2-2,2.7c-0.3,0.6-3.7,8.1-7.2,16.3l-7.7-17.4c-0.8-1.1-0.8-2-3.7-2
		c-3.4,0-2.7,1.4-3,5v13.4l-0.1,28.4c0,2.6,0.7,3.6,3.2,3.6c3.5,0,2.8-1.5,2.9-5.5l0.2-30.2c2.3,5.2,4.1,9.4,6.3,14.2
		c1.2,1.2,2.7,1.2,3.8,0c2.2-4.8,3.9-9,6.1-13.8V395c0,2.6,0.5,3.6,3.2,3.6c3.4,0,2.7-1.4,2.9-5.5l0.1-18.1l0.3-22.2
		C510.7,351.8,510.9,350,510.4,349.3L510.4,349.3z M516.6,373.4c0,22.2,5.9,25.2,12.3,25.2c6.5,0,12.4-3.2,12.4-25.5
		c0-22.2-5.8-25-12.3-25C522.5,348.1,516.6,351.1,516.6,373.4L516.6,373.4z M522.6,373.4c0-19.5,3.9-19.8,6.4-19.8
		c2.5,0,6.3,0.4,6.3,19.8c0,19.5-3.9,19.8-6.3,19.8C526.4,393.2,522.6,392.8,522.6,373.4L522.6,373.4z M576,349.3
		c-0.4-1.6-3.6-1.3-4.9-0.8c-0.7,0.3-1.7,2-2,2.7c-0.3,0.6-3.7,8.1-7.2,16.3l-7.7-17.4c-0.8-1.1-0.8-2-3.7-2c-3.4,0-2.7,1.4-3,5
		v13.4l-0.1,28.4c0,2.6,0.7,3.6,3.2,3.6c3.5,0,2.8-1.5,2.9-5.5l0.2-30.2c2.3,5.2,4.1,9.4,6.3,14.2c1.2,1.2,2.7,1.2,3.8,0
		c2.2-4.8,3.9-9,6.1-13.8V395c0,2.6,0.5,3.6,3.2,3.6c3.4,0,2.8-1.4,2.9-5.5L576,375l0.3-22.2C576.3,351.8,576.4,350,576,349.3
		L576,349.3z M623.1,394.2c-0.6-1.3-3.2-0.9-5.2-0.9l-11.1-0.1c3.9-8.8,16.3-20.4,16.3-30.3c0-20.2-23.5-18.2-23.5-2.6
		c0,2.1,1.2,2.3,2.9,2.3c2.7,0,3.2-1.1,3.2-3.6c0-6.9,11.3-8.3,11.3,3c0,10.1-14.3,22.3-16.9,32.1c-0.5,1.7-0.4,0-0.4,2.9
		c0,0.5,0,1,0.1,1.4c4.3,0,21.2,0.5,22.6-0.4C623.5,397.4,623.5,395.4,623.1,394.2L623.1,394.2z M648.5,348.3c-1.1-0.2-3,0-3.5,0.7
		c-0.8,1.1-0.5,2.9-0.6,4.2l-0.1,22.3h-11.6c4.2-10.6,6.5-20.8,8.4-25c1.2-2.8-5.3-3.7-6.9,0.8l-7.9,24.7c-0.8,2.1-1.1,1.9-0.6,3
		c0.7,1.7,3.1,1.7,4.8,1.7h14l-0.1,14.3c0,3.6,1.6,3.7,4.6,3.5c0.9-0.1,1.5-1,1.5-2.2l0.1-21.4l0.3-24.5
		C650.9,349.1,649.8,348.5,648.5,348.3L648.5,348.3z M659.1,362.9c-0.8-0.3-3.5-0.5-4.1,1.3l-0.2,2.7c0.1,0.4,0.9,1.9,2.4,1.9
		c2.5,0.1,3.6-0.4,3.6-3.4C660.8,364.3,660.3,363.1,659.1,362.9L659.1,362.9z M659.1,378c-0.9-0.3-3.4-0.4-4.1,1.3l-0.2,2.7
		c0.1,0.5,1,1.9,2.4,1.9c2.4,0.1,3.6-0.3,3.6-3.4C660.8,379.3,660.3,378.4,659.1,378L659.1,378z M670.3,348.3
		c-3.8,0-5.4-0.5-5.4,2.5c0,2.3,1.2,2.7,3.5,2.7l13.4,0.1l-16.4,41.6c-0.2,0.3-0.9,2.2-0.1,3c0.1,0.1,3.2,0.8,4.1,0.2
		c1.1-0.4,1.5-1.1,1.9-2c0,0,12.7-32.4,17.4-43.5C690.9,347.3,692.3,348.1,670.3,348.3L670.3,348.3z"/>
</g>
</svg>
