<?xml version="1.0" encoding="utf-8"?>
<!-- Generator: Adobe Illustrator 21.1.0, SVG Export Plug-In . SVG Version: 6.00 Build 0)  -->
<svg version="1.1" id="Layer_1" xmlns="http://www.w3.org/2000/svg" xmlns:xlink="http://www.w3.org/1999/xlink" x="0px" y="0px"
	 viewBox="0 0 720 443.3" style="enable-background:new 0 0 720 443.3;" xml:space="preserve">
<g>
	<path d="M8.1,106.5c2.6,0,4.2-0.4,4.8-0.9c0.9-8.8,2.8-32.8,5.6-71.8c6.5,6.7,14.6,15,24,24.9c0.9,0,9.9-9,27-27
		c1.2,3,3,27.5,5.6,73.9c5.4,0,10.3-0.1,13.8-1.2c-0.8-18.7-5.3-85.3-9.3-102.1c-5,3.1-30.2,31.6-35.8,37.7c-2.3-2.5-5.3-6-9-10.8
		C20.1,11.8,11.5,3.2,8.7,3.2C7.4,3.2,5.5,20.5,3.2,55L0,104.4c0,1.2,2.6,1.9,8.1,1.9V106.5L8.1,106.5z M138.8,106.9
		c5.5,0,9.2-0.4,11.3-1.1c0.9-0.7,1.4-2.3,1.4-4.6c-0.2-5.1-0.7-16.8-1.9-35.3c1.2-4.1,11.8-24.3,31.7-60.8
		c0.3-1.1-13.5-2.6-14.6-1.6c-4.4,6.7-12.5,21.9-24.3,45.3c-1.6-2.1-4.1-5.8-7.6-11.3c-12.2-18.2-19.9-29.5-23.6-34
		c-1-1.6-13.5,0.3-12.9,2.8c1,4.4,35.3,53.4,35.5,54c1.6,28,2.8,43.4,3.4,46.4L138.8,106.9L138.8,106.9z M277.1,105.6
		c39.8,0,41.1-35.4,31-46.2C292.9,43,259.5,48.1,259.5,34c0-4.1,2.1-7.9,6.2-11.6c6.6-6.1,20.3-7.6,28.2-2.3
		c9.7,6.5,7.7,7.9,10.6,5.1l7.1-8.6c0-3.7-9.3-8.9-13.9-10.6c-13.9-5.1-34.7-2.3-45.3,9.3c-7.4,8-8.6,25.1-1.6,32.3
		c14.8,15.2,49.6,7.4,49.6,27.2c0,16-24.6,21.9-35.8,14.5c-9.7-6.5-8.1-9.9-13.1-5.8c-1.4,1.1-5.6,5.3-5.6,6.5
		c0,0.5,0.9,2.1,2.8,4.4c6.3,7.7,17.5,10.4,29.5,10.4L277.1,105.6L277.1,105.6z M415,120.8c9.4,0,16.6-6.1,10.2-6.9
		c-7.6-1.1-12.9-6.3-16.1-15.7c18.7-9.7,28-25,28-46c0-11.5-3.5-22.2-10.6-32.1c-9-12.2-22-18.3-39.5-18.3
		c-55,0-68.8,60.9-50.3,84.1c14.3,17.9,38.4,23.8,60.8,17.1c3.1,9,6.2,17.8,17.8,17.8H415L415,120.8z M379.4,92.8
		c-14.1,0-25.3-5.4-31-17.6c-5.6-11.9-5-22,0.7-34.9c3.2-7.1,7.6-13.2,13.6-18.7c15.7-14.3,43.9-10,55.7,10.4
		c5.9,10.2,5.6,20.4,2.8,31.6c-2.5,9.3-7.6,16.4-15.2,21.2c-3-12.5-8.3-18.9-15.7-18.9c-2.3,0-5.5,1.2-9.7,3.5
		c0,0.2,0.2,0.5,0.7,0.7c4.8,2.3,9.2,9.3,13.2,20.8c-4.4,1.2-9.3,1.8-14.8,1.8L379.4,92.8L379.4,92.8z M490.7,106.7
		c10.8,0,20.6-4.1,29.3-12.3c8.8-8.3,13.2-23.1,13.8-44.6c0.2-12.4-1.3-41.9-6-49.7c-4.4,0-11.8-0.1-11.8,4.1
		c0,22.6,17,89.4-27.3,89.4c-15,0-22.6-12.3-22.6-37l0.5-52.4c0-2.7-12.9-2.4-13.4,0.5c-1.9,9.3-2.8,27-2.8,52.6
		c0,28.2,12.5,49.4,40.7,49.4L490.7,106.7L490.7,106.7z M611.2,107.1c2.6,0,12.5-3.1,12.5-4.9c0-2.5-39.1-101.8-43.4-101.8
		c-3.4,0-37.2,95-37.2,102.1c0,2.7,11.4,4.1,13.6,4.2c3.2-11.1,5.3-17.6,6.5-19.4c5.6-0.9,18-2.1,37.2-4.1
		c1.5-0.1,8.6,23.8,10.9,23.8H611.2L611.2,107.1z M567.8,74.6c0.3-7.5,12.7-43.9,13.2-43.9c1.6,0,6.7,13.2,15.3,39.9
		C596.6,72.3,571.1,74.6,567.8,74.6L567.8,74.6z M649.8,104.9c13.3,0,29.8-3.4,43.4-10.8c17-9.2,26.8-25.3,26.8-44.8
		c0-14.8-5.3-26.5-15.9-35.1C684.1-1.9,640.7,0.7,640.3,3c-2.2,8-4.1,54.4-4.1,73.2c0,9,0.4,18,0.9,26.8c0,1.1,4.2,1.6,12.7,1.6
		V104.9L649.8,104.9z M650.5,90.8c-0.5-0.5-1.1-10.1-1.2-28.4c0-19.6,0.7-35.5,2.3-47.6c0.1-2.2,28.8-4.7,43,9
		c20,19.3,11.3,50.2-12,60.8C671.8,89.6,660.5,90.8,650.5,90.8L650.5,90.8z"/>
	<path d="M48.3,245.7c13.8,0,25.3-3.4,34.5-12.5c4.3-4.2,7.2-7.6,8.9-10.4c3.4-5.4,4.1-4.1-2-7.9c-3-1.9-5-2.8-5.5-2.8
		c-11.9,13.9-20.7,20.6-36.3,20.6c-19.9,0-34-14.7-34-34.9c0-13.5,4.7-28.5,16.8-36.3c6.1-3.9,13.8-5.8,23.3-5.8
		c17.8,0,26.2,10.9,27.9,10.9c1.7,0,6.4-7.3,6.4-8.6c0-4.3-10.9-10.1-15.6-12.2c-4.7-2.1-10-3.2-16.3-3.2
		C22.3,142.5,0,163.3,0,197.9c0,15.3,6.6,30.7,20.2,39.9c7.3,4.9,17,7.4,29,7.4L48.3,245.7L48.3,245.7z M184,247.3
		c2.7,0,12.7-3.1,12.7-4.9c0-2.5-39.7-101.8-44-101.8c-3.4,0-37.7,95-37.7,102.1c0,2.7,11.5,4.1,13.8,4.2
		c3.2-11.1,5.4-17.6,6.6-19.4c5.7-0.9,18.2-2.1,37.7-4.1c1.5-0.1,8.8,23.8,11.1,23.8H184L184,247.3z M140,214.8
		c0.3-7.5,12.9-43.9,13.4-43.9c1.6,0,6.8,13.2,15.6,39.9C169.2,212.6,143.3,214.8,140,214.8L140,214.8z M235.2,245.4
		c3.9,0,44.5-1.3,44.5-3.5c0-3.7-0.5-7.4-1.6-11.5c0-0.5-1.1-0.9-3.4-0.9l-34.9,2.1c-1.3,0-0.8-70.8-0.7-86.8
		c0-2.3-12.8-0.9-14.5-0.9c-1.6,0,0.2,99.8,0.2,99.8C225.8,244.8,229.1,245.4,235.2,245.4L235.2,245.4z M323.5,245.4
		c3.9,0,44.5-1.3,44.5-3.5c0-3.7-0.5-7.4-1.6-11.5c0-0.5-1.1-0.9-3.4-0.9l-34.9,2.1c-1.3,0-0.8-70.8-0.7-86.8
		c0-2.3-12.8-0.9-14.5-0.9c-1.6,0,0.2,99.8,0.2,99.8C314,244.8,317.4,245.4,323.5,245.4L323.5,245.4z M428.8,245.9
		c40.3,0,41.7-35.4,31.5-46.2c-15.5-16.4-49.4-11.3-49.4-25.4c0-4.1,2.1-7.9,6.3-11.6c6.7-6.1,20.6-7.6,28.6-2.3
		c9.8,6.5,7.9,7.9,10.7,5.1l7.2-8.6c0-3.7-9.5-8.9-14.1-10.6c-14.1-5.1-35.1-2.3-46,9.3c-7.5,8-8.7,25.1-1.6,32.3
		c15,15.2,50.3,7.4,50.3,27.2c0,16-25,21.9-36.3,14.5c-9.8-6.5-8.2-9.9-13.2-5.8c-1.4,1.1-5.7,5.3-5.7,6.5c0,0.5,0.9,2.1,2.9,4.4
		c6.4,7.7,17.8,10.4,29.9,10.4L428.8,245.9L428.8,245.9z M556.8,246.8c2.7,0,4.3-0.4,4.8-0.9c0.9-8.8,2.9-32.8,5.7-71.8
		c6.6,6.7,14.8,15,24.3,24.9c0.9,0,10-9,27.4-27c1.3,3,3,27.5,5.7,73.9c5.4,0,10.4-0.1,14-1.2c-0.8-18.7-5.3-85.2-9.5-102.1
		c-5.1,3.1-30.6,31.6-36.3,37.7c-2.3-2.5-5.4-6-9.1-10.8c-14.8-17.5-23.6-26.1-26.5-26.1c-1.3,0-3.2,17.3-5.5,51.9l-3.2,49.4
		c0,1.2,2.7,1.9,8.2,1.9V246.8L556.8,246.8z M688.9,246.2c20.6,0,30.9-0.7,30.9-2.1v-8.5c0-2.1-0.7-3.2-2.1-3.2l-33.8,1.4
		c-1.9,0-1.4-17.8-1.4-21.9l25.8-0.9c1.6,0,0.2-13.5,0.2-13.9l-26.5,0.2c0-3.9-1-37.4,0.4-38.6c1-0.9,32.9-1.4,37.7-1.6
		c0-5.8-0.5-10.1-1.8-12.7c-0.4-0.4-1.6-0.5-3.8-0.5c-28.4,0.5-43.3,0.7-44.4,0.9c-1.8,0.2-2.7,2.1-2.7,5.5
		c0,36.3,0.9,67.4,2.9,93.1c0.2,1.6,0.2,2.3,0.2,2.5C670.5,246.1,676.5,246.2,688.9,246.2L688.9,246.2z"/>
	<path d="M210.6,356.8c-14.2,45.4-29.3,69.7-42.4,69.7c-5.5,0-8.5-9.9-8.5-25.2c0-29.3,10.1-73.4,10.1-87.1
		c0-13.4-6.6-20.3-19.7-20.3c-15.3,0-30.1,20.5-42.2,44.1c3.3-15.6,6-31.2,6-44.7c0-28.8-9.3-42.2-30.7-42.2
		c-37,0-53.1,83-57.3,134.8c-0.5-7.1-0.8-16.2-0.8-28.8c0-18.9,3-31,3-33.2c0-5.2-4.9-8.5-12.3-8.5C0,315.6,0,330.1,0,344.4
		C0,395.6,6.3,429,22.5,429c6,0,12.6-3.3,12.1-7.1c-0.5-2.7-0.8-6.6-0.8-11.8c0-42.5,15.3-148.8,46.6-148.8
		c7.4,0,10.4,8.2,10.4,21.6c0,27.7-13.2,74-20.3,103.3c-2.2,9.8,20.8,16.9,23.3,9.9c8.2-27.9,37.5-90.1,49-90.1
		c1.4,0,1.9,1.1,1.9,2.7c0,19.5-39.1,127.9,21.4,127.9c20.6,0,34.9-28.2,43.8-52.3c2.6,23.3,14.9,36.6,34.3,36.6
		c17.3,0,28.2-18.4,35.1-37.3c0.8,36.7,10.4,52.9,32.1,52.9c23.3,0,40.5-48.9,47.1-70.4c1.2,36.4,5.7,52.9,18.7,52.9
		c6,0,12.6-3.3,12.1-7.1c0-46.8,15.3-146.8,42.2-146.8c8.5,0,11.2,9.6,11.2,25.2c0,26-9,66-14.8,96.2c-1.1,6.6,8.5,12.3,15.6,12.3
		c4.1,0,8.2-1.6,8.8-3.8c8.2-27.9,31-98.1,46-98.1c3,0,4.1,3,4.1,11c0,21.6-9,69-9,98.1c0,24.9,10.7,37.3,27.7,37.3
		c18.4,0,33.7-21.4,47.9-59.3c2.5,23.7,14.8,37.1,34.3,37.1c17.3,0,28.2-18.4,35.1-37.3c0.8,36.7,10.4,52.9,32.1,52.9
		c28.8,0,48.2-74.5,49.9-80c0.5-1.6-7.7-1.9-8.2,0c-1.4,5.2-20.8,70.1-40.8,70.1c-4.4,0-7.4-8.5-7.4-24.7c0-20.8,6-61.9,6-63.3
		c0-6.8-4.9-11.2-12.9-11.2c-10.4,0-15.6,5.5-16.7,17c-9,40.5-20.3,65.8-34.8,65.8c-7.1,0-11-10.4-11-26c0-39.7,22.2-90.1,38.6-90.1
		c8.8,0,13.4,7.1,13.4,20.5c0,6.5-3,12.6,3.3,12.6c1.9,0,3.3-1.4,3.8-3.6c0.3-1.4,1.1-6,1.1-11.2c0-18.1-8.5-28.8-24.4-28.8
		c-29,0-54.6,32.6-60.6,73c-14,46.2-32,76-43.8,76c-4.4,0-6.3-7.4-6.3-17.5c0-25.5,8.2-72.6,8.2-100.3c0-15.9-5.5-29-22.5-29
		c-16.4,0-29.9,20.3-40,44.4c3.7-31.2,3.9-75.3-29.3-75.3c-31.5,0-46.8,61.4-52.6,112.3c-0.3-4.7-0.3-9.9-0.3-15.6
		c0-18.9,3-31,3-33.1c0-11.4-25-12.3-26.8,2.7c-2.2,12.1-2.2,20-6.3,35.3c-1.4,5.2-20.8,70.1-40.8,70.1c-4.4,0-7.4-8.5-7.4-24.7
		c0-20.8,6-61.9,6-63.3c0-6.8-4.9-11.2-12.9-11.2c-10.4,0-15.6,5.5-16.7,17c-9,40.5-20.3,65.8-34.8,65.8c-7.1,0-11-10.4-11-26
		c0-39.7,22.2-90.1,38.6-90.1c8.8,0,13.4,7.1,13.4,20.5c0,6.5-3,12.6,3.3,12.6c1.9,0,3.3-1.4,3.8-3.6c0.3-1.4,1.1-6,1.1-11.2
		c0-18.1-8.5-28.8-24.4-28.8C242.3,283.8,216.7,316.4,210.6,356.8L210.6,356.8z"/>
</g>
</svg>
