<?xml version="1.0" encoding="utf-8"?>
<!-- Generator: Adobe Illustrator 21.1.0, SVG Export Plug-In . SVG Version: 6.00 Build 0)  -->
<svg version="1.1" id="Layer_1" xmlns="http://www.w3.org/2000/svg" xmlns:xlink="http://www.w3.org/1999/xlink" x="0px" y="0px"
	 viewBox="0 0 720 553.9" style="enable-background:new 0 0 720 553.9;" xml:space="preserve">
<style type="text/css">
	.st0{fill:#333232;}
	.st1{fill-rule:evenodd;clip-rule:evenodd;fill:#333232;}
</style>
<g>
	<path class="st0" d="M105.3,405.3c37.8-6.8,51.8-54.4,37.1-88.8c4.7-2.8,9.1-5.7,13-8.8c-1.3,41.4,4.8,76.4,16.3,74.3
		c15.1-2.7,28.4-31,39.3-63.9c1,17,5,33.1,20.6,30.3c9.8-1.8,26.7-24.6,41.3-65.6c5.7,7.7,15.9,14.2,25.7,21.6
		c-16.8,16-31.2,34.4-31.2,50.7c0,39.7,59.6,9.1,59.6-30.3c0-11.4-3.3-23.2-9.5-30c9.2-8.4,17.7-17.6,23.8-26.9
		c5.3,8.8,16.5,15.8,27.3,23.9c-16.8,16-31.2,34.4-31.2,50.7c0,39.7,59.6,9.1,59.6-30.3c0-11.4-3.3-23.2-9.5-30
		c7.6-6.9,14.6-14.3,20.3-21.9c-3.8,29.2-3.1,61.3,15.2,58c15-2.7,27.8-28,37.5-56.8l-0.5,21.4c-0.3,6.8,17.9,3.8,19.5-2.6
		c4.3-15.9,14.9-63.1,24.4-64.9c7.4-1.3,4.4,16.3,0.5,63c-2.1,21.6-1,43.2,13.8,40.5c15.3-2.8,27.1-34.5,34.7-60.5
		c2.5,6.6,7.2,10.6,14.3,9.3c14-2.5,22-13.7,34.2-39.2c-0.5,15-1.5,25.9-3.3,40.2c-29.5,19.9-59.9,38.3-48.3,64.1
		c10.1,20.8,38.9,15.1,53.4-10c7.2-12,12.5-32.8,15.3-62.7c12.2-10.9,20.4-25,26.8-43.9c5.8,7.5,15.7,13.8,25.3,21
		c-16.8,16-31.2,34.4-31.2,50.7c0,39.7,59.6,9.1,59.6-30.3c0-11.4-3.3-23.2-9.5-30c13.5-12.3,25.5-26.2,30.4-39.9
		c1.8-5-5-5.2-6.1-1.2c-3.4,13.4-15.6,24.5-28.2,36.5c-5.3-5.5-24.6-14.5-24.6-30.7c0-14,20-28.1,21-5.9c0.2,4.9-0.3,7.9,5.3,6.9
		c2.8-0.5,4.3,0,4.4-7.7c0.8-35.7-51.4-28.1-51.4,17.2c0,2.1,0.3,4.1,0.9,5.9c-6.1,19.1-13.7,32.2-21.8,41.7
		c1.5-22.4,1.5-31.8,1.5-59.7c0-10.2-19.1-7.7-19.1,8c-3.9-3.9-9.9-8.2-21.5-6.1c-18.1,3.3-28.9,29.4-29.4,50
		c-2.2,8.3-4.4,16.4-5.9,21.2c-4.6,14.5-14.5,40.2-18.9,41c-4,0.7-1.6-30.4,0.3-50.2c2.8-26.1,5.3-53.5-15-49.8
		c-17.7,3.2-24,24.1-31,46.5l0.5-21.3c0-8.9-19.7-3.7-19.7,3.4l-0.1,5.2c-9.2,33.8-23.2,65.7-35.1,67.8c-6.5,1.2,0.7-44.3,4.4-66.7
		c1.3-7.6-18-5-19.5,1.9c-0.3,1.5-0.6,3.1-0.9,4.7c-4.9,11.1-15.5,20.9-26.4,31.2c-5.3-5.5-24.6-14.5-24.6-30.7c0-14,20-28.1,21-5.9
		c0.2,4.9-0.3,7.9,5.3,6.9c2.8-0.5,4.3,0,4.4-7.7c0.8-35.7-51.4-28.1-51.4,17.2c0,1.5,0.2,2.9,0.5,4.3c-5.3,10.1-15.1,19-25.1,28.6
		c-5.3-5.5-24.6-14.5-24.6-30.7c0-14,20-28.1,21-5.9c0.2,4.9-0.3,7.9,5.3,6.9c2.8-0.5,4.3,0,4.4-7.7c0.8-35.7-51.4-28.1-51.4,17.2
		c0,1.9,0.3,3.7,0.8,5.4c-11.8,37-27.7,64.9-36.1,66.4c-7.9,1.4-6.4-30.1-6.4-43.2c10.2-1.8,44.8-51.6,12-45.7
		c-17.1,3.1-27.7,22.9-27.7,42.6l0,2.7c-8.3,27.5-22.9,68.6-30.6,70c-5.9,1.1-6.4-52.4-2.6-81.5c21.6-13.9,41.8-63.9,42.6-84.9
		c0.5-12.1-4.8-23.3-15.7-21.3c-30.7,5.6-45.6,65.4-48.6,118.5c-4.5,4.4-10.3,8.6-16.2,12.2c-5.7-9.5-14.6-16.9-25.1-19.3
		c55.1-24.7,49-105.8,0.8-97.1c-23.1,4.2-39.7,43.3-50.6,80.6c1.7-38.2-6.9-65.9-39.2-60.1c-44.3,8-18.9,88.8-11.6,100.8
		c2.2,3.5,7.5-1.1,5.7-4.3c-11.2-18-22.8-82.8,0.2-86.9c24.3-4.4,27,31.1,24.6,62.4c-1.2,15-2.6,24.5-10.8,70.9
		c-2,10.5,17.9,8.3,21-9.2c9.9-63.7,29.1-136.8,60.8-142.6c8.2-1.5,17.6,11.3,17.6,25.9c0,28.9-16.3,54.8-39.9,59.1
		c-4.1,0.7-4.5,7.2-0.2,6.6c14.1-1.2,24.4,6.9,30.5,22.6c-33.5,19.5-61.6,37.1-56.8,61.7C69.2,398.1,86.9,408.7,105.3,405.3
		L105.3,405.3z M99.2,398.6c-10.3,2.2-23.8-6.5-26.1-17.9c-4.9-21.1,25.4-38.9,52.3-54.1c3.1,12.9,3.9,21,2.1,33.4
		C125.1,377.1,113.8,395.6,99.2,398.6L99.2,398.6z M178.6,278.6c3-20.1,17.7-83.2,30.5-87.8C223.3,185.6,201.9,262.4,178.6,278.6
		L178.6,278.6z M227,292.5c2.6-24,13.9-30.3,16.6-30.8C253.7,259.9,235.6,289.8,227,292.5L227,292.5z M283.8,365.5
		c-6.9,1.2-9.9-2-9.9-11c0-14.8,12.6-30.2,28.3-45.4C315.8,328.4,299.9,362.5,283.8,365.5L283.8,365.5z M353.8,352.8
		c-6.9,1.2-9.9-2-9.9-11c0-14.8,12.6-30.2,28.3-45.4C385.7,315.8,369.8,349.9,353.8,352.8L353.8,352.8z M423.1,217.2
		c10.9-2,10.8-15.1,0-13.1C412.2,206.1,412.2,219.2,423.1,217.2L423.1,217.2z M576.2,255.9c-9.1,1.6-2-54.2,9.5-56.3
		c7.2-1.3,13.3,4.8,15.9,11.9C593.7,231.8,582.7,254.7,576.2,255.9L576.2,255.9z M555.8,329c-9.6-15.8,15.3-37.3,41.1-52.4
		c-2.8,20.4-6.9,35.2-12.3,44.1C574,338.3,563.6,342.2,555.8,329L555.8,329z M655.7,298.1c-6.9,1.2-9.9-2-9.9-11
		c0-14.8,12.6-30.2,28.3-45.4C687.6,261.1,671.7,295.2,655.7,298.1L655.7,298.1z"/>
	<path class="st0" d="M151.6,125.8c-7.8-16.2-10.4-16.8-3.4-25.9c3.1-4,7.9,1,12.1,3.9l38.6,27.4c4.3,3.3-2.2,12.6-7,9.5l-29.5-21
		c-4.9-3.5,6.9,16.8,6,19.6c-1.7,4.9-29.4-4.2-20.4,2.2l29,20.6c4.3,3.3-2.3,12.5-6.7,9.6l-46-32.7c-3.6-3.8,3.8-12.4,8.8-12
		c1.5,0.1,18.3,2.6,19.2,1.5L151.6,125.8L151.6,125.8z M200.6,88.2c-12.5-27.1-14.8-24.5-5.6-32.5c2.3-2,3.8-0.5,4.8,1.9
		c4.3,10.1,14,37.1,19.6,43.5c-0.2-0.2,1.6,1.9,5.3,6.1c4,4.6-3.8,9.3-5.6,9.3c-4.4,0.1-7.1-8.8-15.9-14c-5-3-15.8-9.3-32.4-19.1
		c-5.4-3.1-1.9-5,2.2-8.5c3.9-3.3,7.3,0,12.3,3.4L200.6,88.2L200.6,88.2z M264,17.9c4.3-0.3,7.2-2.1,13.6,1.2
		c2.5,1.2,6.9,3.8,5.5,6.4c-7.7,14.7-8.7-0.6-17.8,3.7C254,34.4,266.7,63.2,275,67c6.8,3.1,14.3-3.4,9.1-14.5
		c-5,1.3-6.4,3.7-9.3-4.3c-1.7-4.8,6.3-6.3,12.4-8.7c5.1-2,6.1,2.3,7.9,8.7c8.2,29.6-16.5,34.6-27.2,28
		c-12.9-8.1-28.9-45.6-9.2-55.8L264,17.9L264,17.9z M325.4,28.5c-0.6,3.8-3,6.3-7.1,7.4c0.1,0-5.2,1.7-6-2.9L310,20.1
		C308.3,11.6,328,12.8,325.4,28.5L325.4,28.5z M342.3,57.9l-10.7-17c4.9-6.3,7-12.9,4.6-21.1c-6-20.3-23-15.9-36.5-13.5
		c-3,0.5-3.5,3.1-3,5.7l9.1,50.6c1.1,6,2.6,6.4,9.1,4.8c7.8-1.9-3.4-15.8,2.8-19.8c7.4-4.8,9.6,17.4,19.3,15.9
		C341.9,62.8,345.2,62.7,342.3,57.9L342.3,57.9z M350.8,31.1l0.7-27.4c0.2-3.2,2.8-3.7,5.1-3.6l25,0.7c4.7,0.8,4.6,10.6-0.5,11.1
		c-9,0.8-18.1-3.4-18.3,4.3c-0.3,13.2-1.1,11.4,13.7,11.7c5.8,0.1,5.6,10,1.2,11.1c-5.4,1.3-15.3-3.2-15.6,4.2
		c-0.3,10.4-0.5,8.7,17.2,9.2c5.8,0.1,5.6,10.1,1,11.1l-27-0.5c-2.7-0.5-3.3-2.5-3.2-4.9L350.8,31.1L350.8,31.1L350.8,31.1z
		 M418.7,30.8c-1.8-0.6-3.4,4-2.7,2.5c-5.9,12.7-7.5,13.3,0.5,14.6c4.2,0.7,3.3-3,3.4-8.9C419.9,36.4,420.6,30.8,418.7,30.8
		L418.7,30.8z M426.5,7.4c2.5,0.6,4.2,2.9,4.2,5.3l0.3,57c-0.4,4-5.3,2.2-7.6,1.6c-7.4-1.8-1.1-10.5-8-12c-7.9-1.8-9.8-3.4-12.8,3.1
		c-2.3,5-14.4,2.7-11.8-2.7l24.9-50.5C418,4.6,422.9,6.6,426.5,7.4L426.5,7.4z M455.2,55.2l9-20c2.7-6.3-9.3-5.1-7-11.5
		c1.3-3.6,2.8-7,7.3-5l23.2,10.5c5,2.3,0.6,12.6-4.9,10.1c-3.8-1.7-6.2-3-8.4,1.8l-17.7,39.2c-2.4,4.9-12,0.4-11-4.1L455.2,55.2
		L455.2,55.2L455.2,55.2z M486.7,63.8l15.9-22.4c1.9-2.5,4.4-1.5,6.3-0.2l20.4,14.5c3.5,3.3-2.1,11.4-6.6,8.9
		c-7.8-4.3-13.1-12.9-17.6-6.6c-7.6,10.7-7.3,8.8,4.8,17.4c4.7,3.4-0.9,11.4-5.1,9.9c-5.2-1.9-10.9-11.2-15.3-5.2
		c-6.1,8.4-5.3,7,9.1,17.2c4.7,3.4-1,11.5-5.4,9.8l-22.1-15.6c-1.9-1.9-1.4-3.8,0.1-5.9L486.7,63.8L486.7,63.8L486.7,63.8z
		 M518.3,106.3c2,2.3-0.8,2.3,0.5,7.7c2.8,11.9,16.2,8.7,14.6-0.9c-1.8-10.4-7.9-21.4,0.5-30.4c14.2-15.4,36.3,2.5,28.7,20.4
		c-1.1,2.6-11.6,0.7-10.8-4.2c0,0.1,2.6-7-2.4-10.1c-3.1-1.9-10.9-1.2-7.2,11.9c2.6,9.5,6.8,19.2-3.5,27.6
		c-13.7,11.2-32.4-0.8-30.3-20.9C508.7,101.9,517.1,103.8,518.3,106.3L518.3,106.3z M558.2,137l18.5-11.8c5.8-3.8-5-9.4,0.4-13.4
		c3.1-2.3,6.2-4.4,8.8-0.2l13.7,21.4c2.9,4.6-6.4,10.9-9.6,5.8c-2.3-3.5-3.6-5.9-8-3l-36.2,23.2c-4.6,2.8-10.3-6.2-7-9.4L558.2,137
		L558.2,137L558.2,137z"/>
	<path class="st0" d="M202.5,433.6c-2.1,3.3-12.1,1.5-11.2-3.7c0.3-1.6,2.6-5.8-0.9-9.6c-8.6-9.3-32.5,11.9-33.1,21.3
		c-0.4,5.8,3.9,8.2,10,7.8c5.1-0.4,5.2,10.6,1.9,11.4c-15.1,3.7-41.2-18.7-4.4-46.2C194.1,392.5,208.8,421.5,202.5,433.6
		L202.5,433.6z M216,464.2c-1.4-1.3-4.8,2.2-3.5,1.2c-10.6,9.2-12.4,9-5.6,13.4c3.6,2.3,4.2-1.3,6.8-6.6
		C214.8,469.8,217.8,465,216,464.2L216,464.2z M232.8,446.1c2,1.5,2.6,4.3,1.6,6.5l-23.3,52.1c-2,3.4-5.7-0.2-7.6-1.7
		c-6-4.7,3.3-10-2.3-14.2c-6.5-4.9-7.6-7.1-13-2.4c-4.2,3.6-14.2-3.6-9.6-7.3l43.6-35.7C226.2,440,229.9,443.9,232.8,446.1
		L232.8,446.1z M239.8,489l12.3-23.8c3-5.6,10.3-0.2,10.9,1.9c1.1,3.6-18.2,35.9-20.8,42.8c-1.8,7.2,16.3,6.9,13.1,14.3
		c-1.6,3.7-3.2,6.9-7.5,4.6c-8.9-4.6-20.1-9.3-21.1-12.2l0.6-3.7L239.8,489L239.8,489z M278.6,507.2l7-25.9c1.7-6.1,10-2.4,11.1-0.5
		c1.8,3.3-10.1,39-11.2,46.2c-0.2,7.4,17.4,3.3,15.8,11.2c-0.8,4-1.6,7.4-6.4,6.1c-9.7-2.6-21.6-4.8-23.2-7.4l-0.2-3.8L278.6,507.2
		L278.6,507.2z M365.2,507.3c8.1-16,7-18.5,18.5-18.5c5,0,4.1,6.9,4.3,12l1.8,47.3c0,5.4-11.4,5.9-11.8,0.3l-1.4-36.2
		c-0.2-6-9.1,15.8-11.9,16.7c-4.6,1.6-14.6-25-14.2-15.2l1.4,36c0.1,5.4-11.3,5.8-11.7,0.5l-1.5-36.2c-0.8-21.9-3.5-24.2,8.6-23.7
		c6.5,0.3,10,11.8,15.1,18.8C363.7,510.7,364.7,508.3,365.2,507.3L365.2,507.3z M404.4,518.8l-7.3-26.5c-0.7-3.1,1.6-4.4,3.8-5
		l24.2-6.6c4.8-0.7,7.5,8.8,2.7,10.7c-8.4,3.4-18.3,2.1-16.2,9.4c3.5,12.7,2.2,11.2,16.5,7.2c5.6-1.5,8.3,7.9,4.4,10.2
		c-4.8,2.8-15.6,1.4-13.7,8.5c2.7,10,2,8.5,19.1,3.8c5.6-1.5,8.3,8,4.2,10.3l-26,7.3c-2.7,0.3-3.8-1.3-4.5-3.8L404.4,518.8
		L404.4,518.8L404.4,518.8z M483.3,473.3c-1.2-17.9-3.4-19.5,6.4-25.4c4.3-2.6,7,3.8,9.8,8.1l25.8,39.8c2.7,4.6-6.7,10.9-10,6.2
		l-19.7-30.4c-3.3-5.1,0.2,18.2-1.7,20.4c-3.3,3.8-25.4-14.3-20-5.8l19.6,30.2c2.8,4.6-6.8,10.7-9.8,6.4l-30.7-47.4
		c-1.9-4.9,8.2-10.1,12.6-7.9c1.3,0.7,16.1,9.2,17.3,8.5L483.3,473.3L483.3,473.3z M543.4,440.8c-4.7-3.9-13.3-11.8-19.6-7.9
		c-13.3,8.3,13.4,31.2,22.6,31.6c5.3,0.3,11.7-5.6,3.9-16.1C548.9,446.4,546.6,443.9,543.4,440.8L543.4,440.8z M551.5,432.9
		c28.4,27.3,5.8,43.9-6.6,42.7c-14.5-1.4-45-27.3-33.1-45.6C522.8,413.2,538.8,422.1,551.5,432.9L551.5,432.9z M561.2,393.6
		c-9.5-15.3-12.1-15.6-6.2-25.4c2.6-4.3,8,0.1,12.5,2.6l41.4,23.1c4.6,2.8-0.8,12.8-5.9,10.2l-31.6-17.7c-5.2-2.9,8.7,16,8.1,18.8
		c-1.1,4.9-29.2-0.7-20.4,4.2l31.4,17.5c4.6,2.8-1,12.7-5.6,10.2l-49.3-27.5c-4-3.4,2.5-12.8,7.4-12.9c1.5,0,18.5,0.6,19.3-0.6
		L561.2,393.6L561.2,393.6z"/>
	<path class="st1" d="M503.1,354.4c-21.1,0.5-20.8,20-20.9,20.3l-8.4,9.1c3-6.6,1.6-13.8-3-19.8c-10.7,6.4-13.4,18-6.2,28.2
		c-4.4,3.7-9,7.2-13.8,10.4c5.1-6.9,4.8-15.5,0.5-23.3c-12.6,5.3-17.4,17.6-11.2,29.8c-6.3,3.5-12.9,6.6-19.8,9.1
		c7.5-5.9,9.7-15.2,7.1-24.7c-14.9,2.3-23.1,14.2-19.7,28.8c-8,2.2-16.2,3.8-24.7,4.7c9.9-5,14.1-15.3,12.5-26.6
		c-15.9,0.5-26.4,11.6-25.2,27.5c-9,0.2-17.9-0.4-26.5-1.7c12.2-2.6,19.6-12.6,20.7-25.4c-16.9-3.3-30.6,5.9-33.2,22.9
		c-9.2-2.2-18.2-5.3-26.7-9.2c14.9,1.4,26.3-7.9,30.2-22.6c-17.3-6.6-33.4,0.6-39.1,18.2c-12.1-6.5-23.1-14.5-33-23.9l-3.1,4.3
		c10.3,9.8,22.1,18.1,34.7,24.8c-6.8,17,0.9,32.8,18.2,38.9c5.2-11,4.7-23-3-31.9c6.9,2.7,14,5,21.3,6.7c-1.5,17,9.6,29.1,26.8,30
		c1.7-10.6-1.4-20.8-9.7-27c7.8,0.9,15.8,1.3,23.9,1.1c1.8,15.7,14.1,24.5,29.8,22.1c-0.5-10.6-5.6-19.5-15.2-23.2
		c8.2-1,16.1-2.6,23.8-4.8c5.4,13.7,18.6,18.7,32,12.6c-3.1-9.3-10-15.9-19.5-16.7c7.3-2.8,14.2-6,20.9-9.8c7,10.9,19.3,13,30.2,5.9
		c-4-7.8-10.9-12.8-19.4-12.5c4.6-3.1,9-6.4,13.2-9.9c8.4,8.9,20.1,8.7,28.5-0.2c-5.4-6.4-13.2-9.4-20.9-6.7l11-11.6
		C486.2,378.2,505.9,375.5,503.1,354.4L503.1,354.4z"/>
	<path class="st1" d="M243.9,179.5c20.9,2.7,23.6-16.7,23.7-16.9l9.7-7.7c-4,6.1-3.6,13.4,0,20c11.5-4.7,15.9-15.8,10.4-27
		c4.9-3,9.9-5.7,15.2-8.2c-6.1,6-7.1,14.6-4,22.9c13.2-3.4,19.8-14.8,15.6-27.8c6.8-2.5,13.8-4.5,20.9-6.1
		c-8.3,4.7-11.8,13.6-10.8,23.4c15.1,0,25-10.5,23.8-25.5c8.2-1,16.6-1.3,25.2-1c-10.5,3.5-16.3,13-16.4,24.5
		c15.9,1.9,27.9-7.5,29.1-23.4c8.9,1.1,17.6,3.1,26,5.7c-12.5,0.7-21.3,9.5-24.3,22c16.2,5.8,31.2-1.2,36.3-17.7
		c8.8,3.6,17.2,8,25,13.1c-14.5-3.6-27.2,3.9-33.2,17.8c16.1,9.2,33.1,4.4,41.4-12.1c10.9,8.2,20.7,17.8,29,28.6l3.8-3.8
		c-8.7-11.2-19.1-21.3-30.6-29.7c9.3-15.8,4-32.6-12.2-41.2c-6.8,10.1-8.1,22-1.9,32c-6.4-3.7-13.1-7-20.1-9.8
		c4-16.6-5.1-30.3-21.9-33.7c-3.3,10.2-1.7,20.8,5.5,28.1c-7.6-2.1-15.4-3.7-23.4-4.6c0.5-15.8-10.3-26.3-26.1-26.3
		c-1.1,10.5,2.6,20.1,11.5,25.3c-8.5-0.2-16.8,0.2-25,1.3c-3.3-14.4-15.6-21.4-29.8-17.3c1.7,9.8,7.7,17.4,17.1,19.6
		c-7.7,1.7-15.3,4-22.5,6.8c-5.4-11.7-17.2-15.6-28.9-10.2c2.8,8.3,8.8,14.3,17.2,15.3c-4.7,2.2-9.2,4.7-13.6,7.4
		c-6.9-10-18.5-11.6-28.2-4.1c4.4,7.2,11.6,11.3,19.7,9.7l-12.6,9.8C264.3,158.5,244.4,158.2,243.9,179.5L243.9,179.5z"/>
</g>
</svg>
