<?xml version="1.0" encoding="utf-8"?>
<!-- Generator: Adobe Illustrator 21.1.0, SVG Export Plug-In . SVG Version: 6.00 Build 0)  -->
<svg version="1.1" id="Layer_1" xmlns="http://www.w3.org/2000/svg" xmlns:xlink="http://www.w3.org/1999/xlink" x="0px" y="0px"
	 viewBox="0 0 720 680" style="enable-background:new 0 0 720 680;" xml:space="preserve">
<g>
	<path d="M146.7,53.5l1.2-29.3c0.8-0.6,23.3,2.8,20.8-11.9c-2.1-12.4-18.6-5.4-37-9.2c-10.9-2.2-15.3,10.5-20,17.7L86.2,70.8
		L51.2,9.2C46.4-0.2,36,0.4,26.5,0.2C16.1,0,0.1-1.9,0.1,9.8c0,11.8,17.7,7.7,19.3,9.4l0.4,39.7c0.7,13.6,2.1,47.3,0.2,62.2
		c-1.6,0.5-17-1.8-15.8,9.8c1,10.2,12.3,7.9,23.7,8.3c5.9,0.2,22.4,1,27.2-2.3c3.4-2.4,7.6-14.4-7.7-14.4c-12.7,0-7.2,1.3-8.7-34.9
		l-1.2-66.4L68.7,77c6.1,8.9,10.3,23.2,20.2,22c3.3-0.4,6-2.7,7.5-6.2c9-22,21.1-46.9,33.9-67c-1,14.7-3.7,92.4-5.6,95.1
		c-2,2.7-16.9-0.7-15.8,11.6c0.9,10.4,16.7,8.4,24.1,7.9c14.5-0.9,32.8,2.5,31-10.8c-1.6-11.9-15.9-5.4-18.1-7.3
		C141.5,118.5,146.5,63.4,146.7,53.5L146.7,53.5z M268.8,66c-18-42.4-68.2-44.4-84.2-2.7c-6.2,15.6-3.1,30.2,0.6,42.4
		c6.8,22.8,22.1,32.7,46.8,32.7c13.5,0,31.3-9.5,36.8-23.7C275.3,97.6,275.3,81.2,268.8,66L268.8,66z M227.8,119.4
		c-16.2,0-21.9-6.7-26.2-21c-13.4-44.3,26.8-57.3,43.9-38.3c15.6,17.4,15.1,58.8-14.4,59.3C230.3,119.4,229.3,119.4,227.8,119.4
		L227.8,119.4z M453.5,124.4c-1.5-0.2-3.3-0.4-4-0.6c-2.8-11.2,3.4-49.3-7.3-73.4c-10.9-24.7-44.2-24.4-62.8-5.8
		c-16.5-16.5-34.6-23-54.9-7.1c0,0.5-3,2.4-3.5,2.7c-4.9-9.8-12.3-5.6-23.9-5.6c-14.3,0-15.1,17,0.6,17.5l5.8,0.6l-0.8,53.9
		c2.6,23.1-4.2,9-11.6,16.8c-6.1,6.4-2.8,15.6,10,15.8h21.4c13.6,0,18.2-16.8,1.5-17.7c-5-0.3-3.7,0.2-3.7-18.9
		c0-17.3-1.7-36.6,10.6-48.3c16.9-16.1,36.8-2.5,37.9,12.7c1,15.8,1.5,32,1,48c-0.3,8.8-3.5,3.6-8.9,7.7c-4.7,3.5-4.8,13.4,6.4,15.4
		c7.9,1.4,16.3,0.3,24.1,0.4c12.8,0.2,13.2-15.6,2.1-16.6c-3.5-0.4-5.8-2.3-5.8-9.8L387,68.1c-0.2-14.5,26.9-26.4,36.8-13.1
		c9.6,12.9,7.4,41.7,7.7,60.5c0.2,14-5.2,5-10.6,12.5c-3.3,4.5-1.9,12.3,7.7,12.7c8.2,0.3,33.9,3.7,33.9-7.9
		C462.5,127.3,459.5,124.4,453.5,124.4L453.5,124.4z"/>
	<path d="M172.9,188.1c-2.5-2.3-6.4-3.3-12.1-3.1h-30.8c-14.5,0-13.2,17.3-2.5,18.7c12.2,1.7,11.3-2.5,7.3,11.2
		c-7.2,24.4-15.8,48-21.8,72.4c-7.2-14.3-13.8-44.6-25.8-62.2c-5.3-7.7-13.2-5.3-16.6,2.3L48.1,283c-1.9-9.6-16.8-79.1-12.9-82
		c1.8-1.3,16.6,0.7,16-10.6c-0.2-4.2-3.9-7.8-8.3-7.9H9.9C-4,183-2.8,201.1,11.7,200.4c3.5-0.2,4.7,1.7,5,4.8
		c3.7,35.7,9.7,58.8,15.8,92.3c5.9,32.4,21.6,19.6,22.9,14.8c2.9-5,5.4-10.8,7.3-15.8l17.1-46.6l8.1,20.4
		c4.2,12.5,8.9,26.6,15.4,39.9c1.3,5.6,11.8,17.4,18.9,0.6l29.7-94c5.6-22.5,10.1-5.8,21.2-16.2C177,197,176,191.2,172.9,188.1
		L172.9,188.1z M227,301.1c-8.6-1.2-7,0.7-6-13.9c0.6-11.6,1.2-23.7,2.9-35.4c1.7-10.7,5.7-33.8-7.9-35.8
		c-38.4-5.6-26,12.9-23.7,14.4c6.4,3.9,16.9-2.9,15.6,10.2L202,299c-2.1,4-18-2.2-17.7,11.4c0.2,10.7,16.2,8.9,26,8.9
		c10.5,0,22.8,1.9,23.9-8.1C234.9,306.3,232,302.3,227,301.1L227,301.1z M316.4,197.1c-4.2-27.3-52.6-26.8-54.7,12.7l-1.5,41.2
		c-1.1,1.2-13.1-1.6-13.5,9.2c-0.5,11.8,12,8.7,13.5,10.4l1,22.7c0,6.2-0.8,7.7-0.8,7.9c-3.1,3.1-19.2-1.6-17.9,11
		c0.9,9,9.6,8.2,16.4,8.1c7.3-0.1,28.3,0.6,35.4-2.5c5-2.2,10.1-17.3-8.9-16.2l-6.4-0.2l-1.7-31.2c2-0.5,25.1,1.2,21.8-12.3
		c-2.6-10.9-18.9-5.2-20.8-7.1l1.7-43.3c1.9-9.2,7.5-11.6,11.9-12.3c12.3-1.8,4.7,15.5,19.6,12.9
		C314.8,207.5,317.4,201.9,316.4,197.1L316.4,197.1z M423.1,267c-2.9-9.9-18.3-7.3-17.1,5.6c0.9,8.6-5,21.3-15.4,25.2
		c-27.7,10.4-40.4-19.3-40.4-20.8c0-1.1,34.7-10.7,39.7-14.4c6.5-4.8,31.5-7,18.9-29.1c-13.6-24-42.8-30.6-62-15
		c-28.8,23.4-25,55-4.2,80.9c13.6,16.9,31.4,22.3,51.4,16.6c20.6-5.8,25.5-20.5,29.3-39.5C424.4,273.2,424.2,270.1,423.1,267
		L423.1,267z M378,248.5c-4.1,1.8-32.2,13.4-34.3,11.2c-1.7-1.7,9.5-45.3,39.9-29.5c8.2,4.2,11.7,12.1,8.5,12.1L378,248.5L378,248.5
		z M213.5,177.4c1.5,1.6,2.3,2.7,3.2,4.4c1.4-1.4,2.4-2.2,4.4-3.3c9.6-5.3,24.5,9.5,5.4,23.2c-6.1,3.7-10.6,5.8-13.7,6.4l-0.3,0
		c-2.8-1.5-6.5-5-11.1-10.4C187.2,179,206,169.5,213.5,177.4L213.5,177.4z"/>
	<path d="M107,661.9l0.4-19.3c-0.5-12.7-15.3-17-18.1,0.8l-0.4,17.3l-49.5-1.2v-29.5l-1.5-69.3c1.5-1.7,20.4,0.3,18.5-12.3
		c-1.3-8.4-10.6-7.1-17.1-7.3c-7.3-0.2-43.3-3.7-38.7,12.7c3.3,11.9,16.8,4.1,19.6,6.9c2.8,2.8,2.6,95.8,1.7,98.4
		c-1,2.8-19-2-18.5,11.4c0.3,8.9,9.9,6.8,15.8,7.5c9.9,1.2,42.9-0.3,60.5,1.2C100.9,681,109.3,680.3,107,661.9L107,661.9z
		 M161.9,660.8c-8.6-1.2-7,0.7-6-13.9c0.6-11.6,1.2-23.7,2.9-35.4c1.7-10.7,5.7-33.8-7.9-35.8c-38.4-5.6-26,12.9-23.7,14.4
		c6.4,3.9,16.9-2.9,15.6,10.2l-5.8,58.4c-2.1,4-18-2.2-17.7,11.4c0.2,10.7,16.2,8.9,26,8.9c10.5,0,22.8,1.9,23.9-8.1
		C169.8,666,166.9,662.1,161.9,660.8L161.9,660.8z M251.3,556.8c-4.2-27.3-52.6-26.8-54.7,12.7l-1.5,41.2
		c-1.1,1.2-13.1-1.6-13.5,9.2c-0.5,11.8,12,8.7,13.5,10.4l1,22.7c0,6.2-0.8,7.7-0.8,7.9c-3.1,3.1-19.2-1.6-17.9,11
		c0.9,9,9.6,8.2,16.4,8.1c7.3-0.1,28.3,0.6,35.4-2.5c5-2.2,10.1-17.3-8.9-16.2l-6.4-0.2l-1.7-31.2c2-0.5,25.1,1.2,21.8-12.3
		c-2.6-10.9-18.9-5.2-20.8-7.1l1.7-43.3c1.9-9.2,7.5-11.6,11.9-12.3c12.3-1.8,4.7,15.5,19.6,12.9
		C249.7,567.3,252.3,561.6,251.3,556.8L251.3,556.8z M358,626.7c-2.8-9.6-18.3-7.3-17.1,5.6c0.9,8.6-5,21.3-15.4,25.2
		c-27.7,10.4-40.4-19.3-40.4-20.8c0-1.1,34.7-10.7,39.7-14.4c6.5-4.8,31.5-7,18.9-29.1c-13.6-24-42.8-30.6-62-15
		c-28.8,23.4-25,55-4.2,80.9c13.6,16.9,31.4,22.3,51.4,16.6c20.6-5.8,25.5-20.5,29.3-39.5C359.3,633,359.1,629.8,358,626.7
		L358,626.7z M312.9,608.2c-4.1,1.8-32.2,13.4-34.3,11.2c-1.7-1.7,9.5-45.3,39.9-29.5c8.2,4.2,11.7,12.1,8.5,12.1L312.9,608.2
		L312.9,608.2z M147.8,536.8c1.6,1.7,2.4,2.7,3.3,4.6c1.4-1.5,2.5-2.2,4.5-3.4c9.9-5.4,25.3,9.8,5.6,23.9c-6.3,3.8-11,6-14.2,6.6
		l-0.3,0c-2.8-1.6-6.7-5.1-11.5-10.7C120.7,538.4,140.1,528.6,147.8,536.8L147.8,536.8z"/>
	<path d="M107.4,450.1c-2.3-2.9-5.4-5.2-9.4-7.1c37.7-16.2,21.7-64.6,3.7-77.6c-17.3-12.5-69.1-8.2-95.3-2.3
		c-9.1,2-7.8,13.3-1.7,15.6c5.5,2,12.7-1,12.7,0.2l1.2,30c-0.8,10.6,0.3,56.9,2.5,68.2c0.2,0.8,0.2,1.2,0.2,1.5
		c-1.9,0.9-19.6-3.4-19.1,9.6c0.4,11.2,10.9,9.4,18.7,9.2c25.5-0.7,95.7,6.8,91.9-31.8C112.4,459.2,110.5,454.2,107.4,450.1
		L107.4,450.1z M34.6,377.5c-0.2-0.6-0.2-0.8-0.2-1c12.8-1,40.9-2.5,49.9,0.4c16.4,5.2,21.4,21.4,18.5,36.6
		c-3.6,19.1-60.1,28.1-65.5,23.3C33.6,433.4,37.1,393.4,34.6,377.5L34.6,377.5z M38.4,477.7l-1.5-20.8c0-0.9,43.4-2,54.1,2.3
		c4.4,1.8,8.7,10.3,0.2,14.1c-16,7.2-33,6.8-51.2,6.2L38.4,477.7L38.4,477.7z M179.8,487.9c-0.9-10.4-13.3-7.7-14.8-8.7
		c-2.7-1.9,0.2-42.1,0.6-49.7l1-62c-0.3-5.5-3.8-10.3-9.2-9.4c-11.3,1.9-25.4-6.6-27.2,5.4c-2.1,13.9,16.2,10.1,18.3,12.7l-4,103.6
		c-1.2,1.6-14.9,1.1-14.8,10c0.2,8.4,7.5,9.2,13.7,9.2c8.3,0,24.1-0.6,27.5-1C176.9,497.3,180,493.7,179.8,487.9L179.8,487.9z
		 M290.2,445.5c-2.5-8.5-18.3-7.3-17.1,5.6c0.9,8.6-5,21.3-15.4,25.2c-27.7,10.4-40.4-19.3-40.4-20.8c0-1.1,34.7-10.7,39.7-14.4
		c6.5-4.8,31.5-7,18.9-29.1c-13.6-24-42.8-30.6-62-15c-28.8,23.4-25,55-4.2,80.9c13.6,16.9,31.4,22.3,51.4,16.6
		c20.6-5.8,25.5-20.5,29.3-39.5C291.5,451.7,291.3,448.6,290.2,445.5L290.2,445.5z M245.1,427c-4.1,1.8-32.2,13.4-34.3,11.2
		c-1.7-1.7,9.5-45.3,39.9-29.5c8.2,4.2,11.7,12.1,8.5,12.1L245.1,427L245.1,427z M387.8,450c-11.2-19.1-35.1-14.7-50.1-25.3
		c-5.2-3.6-5-8.7,0.4-12.2c12.6-8.3,17.4-5.3,26.8-3.5c8,1.5,4.1,6.8,5.4,12.1c1.5,5.8,18.9,18.1,18.9-27.2c0-7.2-10.3-10-13.3-4
		c-1.9,3.7-3.3,3.5-8.1,1.7c-3-1.1-14.4-2.9-19.1-2.3c-40,4.2-48.4,49.3,2.1,59.8c9.1,1.9,23.4,5.5,24.1,15.5
		c0.9,11.6-19.4,23.2-41.8,8.3c-6.7-4.4-10.6-3.7-8.3-11c3.8-12.2-15.5-15.3-17.3-0.8c-1.7,14.1-5.6,29.8,2.9,33.8
		c8.2,3.8,11.3-6.9,12.3-7.1c2.5-0.6,13.9,15.1,44.9,7.7C391.4,489.7,398.2,467.1,387.8,450L387.8,450z M489.5,450
		c-11.2-19.1-35.1-14.7-50.1-25.3c-5.2-3.6-5-8.7,0.4-12.2c12.6-8.3,17.4-5.3,26.8-3.5c8,1.5,4.1,6.8,5.4,12.1
		c1.5,5.8,18.9,18.1,18.9-27.2c0-7.2-10.3-10-13.3-4c-1.9,3.7-3.3,3.5-8.1,1.7c-1.7-0.7-12.8-2.8-19.1-2.3
		c-40,4.2-48.4,49.3,2.1,59.8c9.1,1.9,23.4,5.5,24.1,15.5c0.9,11.6-19.4,23.2-41.8,8.3c-6.7-4.4-10.6-3.7-8.3-11
		c3.8-12.2-15.5-15.3-17.3-0.8c-1.7,14.1-5.6,29.8,2.9,33.8c8.2,3.8,11.3-6.9,12.3-7.1c2.5-0.6,13.9,15.1,44.9,7.7
		C493.1,489.7,500,467.1,489.5,450L489.5,450z M605.8,445.3c-4.2-8.4-18.2-7.8-16.8,5.8c0.9,8.6-5,21.3-15.4,25.2
		c-27.7,10.4-40.4-19.3-40.4-20.8c0-1.1,34.7-10.7,39.7-14.4c6.5-4.8,31.5-7,18.9-29.1c-13.6-24-42.8-30.6-62-15
		c-28.8,23.4-25,55-4.2,80.9c13.6,16.9,31.4,22.3,51.4,16.6c20.6-5.8,25.5-20.5,29.3-39.5C606.7,453.7,606.4,447.3,605.8,445.3
		L605.8,445.3z M560.8,427c-4.1,1.8-32.2,13.4-34.3,11.2c-1.7-1.7,9.5-45.3,39.9-29.5c8.2,4.2,11.7,12.1,8.5,12.1L560.8,427
		L560.8,427z M720,490c-0.5-10-13.8-7.1-14.8-7.1c-3.6-19.3,1.9-72.8,3.7-91.3c1.1-11.2,4-28-0.6-32.9c-4.6-4.9-26.2-2.3-33.3-1
		c-8.6,1.6-8.7,16.7,8.5,15c11.2-1.1,9.9,1.1,9.6,3.5l-3.5,29.1c-27.6-18.4-50-7.5-64.1,18.1c-8.9,16.3-4.9,48,9.6,59.9
		c15,12.4,31.5,16.5,48.7,8.3c1.2-0.6,2.9-1.5,3.7-1.7c7.8,15.7,10.7,10.7,25.8,8.9C717.7,497.9,720.4,494.4,720,490L720,490z
		 M687.7,439.7l-0.4,22.3c-0.3,18.9-29.4,20.4-41.8,6c-6.5-7.5-8.3-28.4-5-34.5c4.3-13.7,22.3-27.3,36.6-15.8
		C683.6,423,687.7,431.6,687.7,439.7L687.7,439.7z"/>
</g>
</svg>
