<?xml version="1.0" encoding="utf-8"?>
<!-- Generator: Adobe Illustrator 21.1.0, SVG Export Plug-In . SVG Version: 6.00 Build 0)  -->
<svg version="1.1" id="Layer_1" xmlns="http://www.w3.org/2000/svg" xmlns:xlink="http://www.w3.org/1999/xlink" x="0px" y="0px"
	 viewBox="0 0 720 935.6" style="enable-background:new 0 0 720 935.6;" xml:space="preserve">
<style type="text/css">
	.st0{fill-rule:evenodd;clip-rule:evenodd;fill:#333232;}
</style>
<g>
	<path class="st0" d="M169.3,234.9c-20.9-48.9-15.8-103.1-13.8-154.8l8.5-63c-5.2,0-25.4-1.2-27.3-6.7c0,0,0,0,0,0
		c0.2-0.7,0.4-1.3,0.7-1.9c2.9-5.5,11.8-7.1,17.4-7.8c4.6-0.6,9.4-0.7,14-0.7c5.2,0,10.4,0.3,15.6,0.6c7.1,0.5,14.1,1.1,21.2,1.7
		c1.6,0.1,3.3,0.5,4.9,0.8c2.3,0.5,4.6,1,6.9,1.7c4.9,1.5,16.5,5.8,8.3,11.9c-2.5,1.8-5.1,3-8.1,3.7c-3.1,0.7-6.2,0.8-9.4,0.8
		c-3.4-0.1-6.8-0.3-10.2-0.5c0.7,2.1,1.1,4.5,1.4,6.7c0.4,2.9,0.5,5.9,0.6,8.8c0.2,7-0.1,14-0.4,21c-0.3,6.6-0.7,13.2-1.1,19.8
		c-0.2,2.8-0.3,5.6-0.4,8.5c-0.1,2.3-0.1,4.5-0.1,6.8c0.4,8.3,0.6,16.7,0.9,25c0.3,9.6,0.5,19.3,0.7,28.9c0.2,10,0.4,20,0.7,30.1
		c0.2,8.5,0.5,17.1,0.9,25.6l5.4,34.4c3.3,0.6,6.7,1.1,10,1.4c2,0.2,4.1,0.4,6,0.4c3.1,0.7,6,2.3,8.2,4.5c2,2.1,3.4,4.8,3.5,7.7
		c0.1,2.6-0.8,5-2.5,6.9c-2.3,2.7-5.8,4.3-9.2,5.4c-5.5,1.7-11.6,2.2-17.3,2.1c-9,0-18.2-1.2-27-2.8c-2.7-0.4-5.5-0.6-8.2-0.8
		c-3.5-0.2-7-0.4-10.5-0.7c-4.2-0.3-8.5-0.6-12.7-1.2c-2.4-0.3-6.3-1-8.4-2.2l-4.9-1.3c-0.6,0-1.1-0.1-1.6-0.5
		c-1.4-1-1.6-2.9-1.3-4.5c0.5-2.7,2.4-5.1,4.4-6.8C143.5,236.5,158.7,234.9,169.3,234.9L169.3,234.9z M551.8,640.4
		c-7.9,9.9-13.7,22-18.2,33.7c-5.2,13.5-9.1,27.7-12.4,41.7c-3.7,15.3-6.7,30.8-9.8,46.2c-1.4,6.9-2.8,13.7-4.4,20.6
		c-1.4,5.8-2.8,11.7-4.7,17.4c-0.9,2.8-1.5,5.7-2.1,8.5c-0.7,3.3-1.4,6.6-2.2,9.9c-1.9,7.5-5.1,17-12.7,20.5c-1.4,1.4-4.9-1.3-6.3,0
		c-0.4,0.5-2.6,0.7-3.2,0.7c-2.2,0.1-4.5-0.2-6.6-0.9c-7.1-2.4-10.8-8.8-12.2-15.9c-1.8-8.8-3.2-17.7-3.7-26.7
		c-0.4-7-0.1-13.8,0.6-20.8c0.8-7.9,2.1-15.7,3.1-23.6c1.4-10.4,2.3-20.8,2.7-31.3c-4.1,5.4-7.5,11.3-10.4,17.4
		c-3.9,8.5-6.6,17.5-8.6,26.6c-2.3,10.9-3.6,22.1-4.3,33.3c-0.7,10.3-1,20.6-1.4,30.9c-0.2,4.5-0.4,8.9-0.8,13.4
		c-0.3,3.8-0.8,7.7-1.6,11.4c-1.1,5.2-3,11.5-7.3,14.9c-2.2,1.3-1.8,5.8-4.9,5.8c-0.5,0-1.4,0.5-1.8,0.9c0,0,0,0,0,0
		c-0.4,0-0.6-0.4-0.8-0.7c-0.6-0.9-1-2.2-1.4-3.2c-0.2,1.4-0.7,3.2-2,3.9c-1.5,0.8-3.7-0.2-5-0.9c-1.3-0.7-2.6-1.5-3.8-2.3
		c-1.6-1.1-3.3-2.3-4.9-3.4c-20.4-14.9-29.7-66.4-33.1-90.8c-8.2,6.4-17.4,10.6-27.7,12.3c-2.8,10.5-7.7,20.8-14.6,29.3
		c-6.2,7.7-14.3,14.1-23.9,16.9c-6.6,1.9-13.4,2-20.1,0.4c-8.1-2-15.4-6.3-21.7-11.5c-3,12-6.5,24-10.6,35.7
		c-3.4,9.6-7.1,19.1-11.4,28.3c-4,8.6-9.7,16.9-17.5,22.5c-6.1,4.4-13.3,6.9-20.9,6.6c-10.1-0.4-19.1-5.6-25.8-12.9
		c-8.7-9.3-13.7-21.7-16-34.1c-3.2-17.4-4.4-34.9-3.8-52.5c0.6-19.4,3.2-38.7,6.7-57.9c3.8-20.5,8.5-40.8,13.2-61l14.3-76.8
		c-7.9,9.9-13.7,22-18.2,33.7c-5.2,13.5-9.1,27.7-12.4,41.7c-3.7,15.3-6.7,30.8-9.8,46.2c-1.4,6.9-2.8,13.7-4.4,20.6
		c-1.4,5.8-2.8,11.7-4.7,17.4c-0.9,2.8-1.5,5.7-2.1,8.5c-0.7,3.3-1.4,6.6-2.2,9.9c-1.9,7.5-5.1,17-12.7,20.5c-1.4,1.4-4.9-1.3-6.3,0
		c-0.4,0.5-2.6,0.7-3.2,0.7c-2.2,0.1-4.5-0.2-6.6-0.9c-7.1-2.4-10.8-8.8-12.2-15.9c-1.8-8.8-3.2-17.7-3.7-26.7
		c-0.4-7-0.1-13.8,0.6-20.8c0.8-7.9,2.1-15.7,3.1-23.6c1.4-10.4,2.3-20.8,2.7-31.3c-4.1,5.4-7.5,11.3-10.4,17.4
		c-3.9,8.5-6.6,17.5-8.6,26.7c-2.3,10.9-3.6,22.1-4.3,33.3c-0.7,10.3-1,20.6-1.4,30.9c-0.2,4.5-0.4,8.9-0.8,13.4
		c-0.3,3.8-0.8,7.7-1.6,11.4c-1.1,5.2-3,11.5-7.3,14.9c-2.2,1.3-1.8,5.8-4.9,5.8c-0.5,0-1.4,0.5-1.8,0.9c0,0,0,0,0,0
		c-0.4,0-0.6-0.4-0.8-0.7c-0.6-0.9-1-2.2-1.4-3.2l-0.4,2.5c-0.2,0.7-1.4,1-2,1.1c-1.6,0.2-3.4-0.3-4.8-0.8c-6-2.2-11.3-7.7-15-12.7
		c-3.4-4.6-6.2-9.6-8.6-14.7c-3.3-7.1-6-14.6-8.3-22.2c-3-10.2-5.3-20.6-7.1-31c-2.4-13.7-4-27.5-5.2-41.3
		C0,726.5-0.1,718.2,0.1,710c0.2-4.9,0.5-9.8,1-14.7c0.4-4.3,1.1-8.7,2-12.9c0.8-3.5,3-12.7,7.4-13.5c0.8-0.1,1.6,0,2.3,0.3
		c0.3,0.1,0.6,0.2,0.9,0.1c0.7-0.1,1.4-0.5,1.9-1c0.4-0.4,0.8-0.8,1.3-1.2c0.2-0.2,0.7-0.6,1-0.5c0.7,0.2,0.6,2.8,0.6,3.3
		c0,1.5-0.2,3.1-0.3,4.6c-0.2,2.3-0.4,4.6-0.7,6.9l1.2-3.7c0.9-3.7,2.9-10.5,7.5-11c1.6-0.2,3.4,0.5,4.6,1.6c0,0,0,0,0,0
		c1.3,3.1,2.2-1,3.6,0.4c3,2,6.1,4.3,8.3,7.2c1.5,2,2.4,4.3,3.2,6.7c1,3.4,1.7,7,2.2,10.5c0.9,5.5,1.7,11,2.5,16.5
		c1.2,8.3,2.5,16.6,3.9,24.9c0.6,3.6,1.2,7.3,1.8,10.9c0,0.3,0.5,3.3,0.9,3.3c0.3,0,0.7-1.8,0.8-2c0.5-1.8,0.9-3.7,1.4-5.5
		c3.4-13.1,8.4-27,15.9-38.3c4.6-6.9,10.8-13.6,18.4-17.1c5.3-2.4,11.2-3.2,16.8-1.4c4.7,1.5,8.7,4.6,11.1,8.9
		c2.6,4.7,3.9,11,4.8,16.2c0.9,5.4,1.3,10.9,1.7,16.4c0,0.5,0.4,7.5,0.8,7.5c0.7,0,2.8-14.8,2.9-15.6c1.9-12.8,4.3-25.6,7.4-38.2
		c6.4-26.1,21.1-73.2,52.6-78.2c5.1-1,10.2-0.6,14.9,1.4c10.4,4.4,16.2,15.6,19.1,25.9c2.5,9,3.8,18.4,4.3,27.7
		c0.6,10.5,0.3,21.1-0.4,31.5c-0.8,11.4-2.2,22.7-3.8,34c-1.7,11.8-3.7,23.5-5.9,35.2c-2.5,13.5-5.1,27-7.6,40.5
		c-2.4,12.7-4.7,25.5-6.5,38.3c-1.6,11.2-3,22.6-3.4,34c-0.3,9.1-0.1,18.7,1.9,27.6c12.2-4.5,22.9-33.6,26.8-44.9
		c3.9-11.1,7.2-22.5,10.1-33.9c1-4,1.9-7.9,2.8-11.9c0.3-1.2,0.5-2.5,0.7-3.7c0.1-0.5,0.2-1.3,0.2-1.9c-2.5-8-3.7-16.6-3-25
		c0.3-3.4,0.5-6.9,0.9-10.3c0.7-7.1,1.5-14.3,2.6-21.3c0.4-2.9,0.9-5.9,1.4-8.8c0.4-2.2,0.8-4.4,1.4-6.5c0.8-2.5-0.3-6.6-0.9-9
		c-1.1-4.6-2.3-9-3-13.7c-2-13.6,0.9-25.3,9.3-36.3c4.8-6.2,11.1-11,18.4-13.8c9-3.4,18.9-3.7,28.2-1.1c10.6,2.9,19.8,9.2,27,17.4
		c9.2,10.4,14.8,23.5,17.8,37c1.9,8.6,2.9,17.4,3,26.2c0.2,10.5-0.6,21-2.2,31.4c1.5-0.6,3-1.4,4.4-2.2c1.8-1,3.6-2.1,5.3-3.3
		c2.2-1.5,9.6-6.9,9.4-9.9c-0.7-8.1-0.8-16.4-0.5-24.6c0.2-4.9,0.5-9.8,1-14.7c0.5-4.3,1.1-8.7,2-12.9c0.8-3.5,3-12.7,7.4-13.5
		c0.8-0.1,1.6,0,2.3,0.3c0.3,0.1,0.6,0.2,0.9,0.1c0.7-0.1,1.4-0.5,1.9-1c0.4-0.4,0.8-0.8,1.3-1.2c0.2-0.2,0.7-0.6,1-0.5
		c0.7,0.2,0.6,2.8,0.6,3.3c0,1.5-0.2,3.1-0.3,4.6c-0.2,2.3-0.4,4.6-0.7,6.9l1.2-3.7c0.9-3.7,2.9-10.5,7.5-11
		c1.6-0.2,3.4,0.5,4.6,1.6c0,0,0,0,0,0c1.3,3.1,2.2-1,3.6,0.4c3,2,6.1,4.3,8.3,7.2c1.5,2,2.4,4.3,3.2,6.7c1,3.4,1.7,7,2.2,10.5
		c0.9,5.5,1.7,11,2.5,16.5c1.2,8.3,2.5,16.6,3.9,24.9c0.6,3.6,1.2,7.3,1.8,10.9c0,0.3,0.5,3.3,0.9,3.3c0.3,0,0.7-1.8,0.8-2
		c0.5-1.8,0.9-3.7,1.4-5.5c3.4-13.1,8.4-27,15.9-38.3c4.6-6.9,10.8-13.6,18.4-17.1c5.3-2.4,11.2-3.2,16.8-1.4
		c4.7,1.5,8.7,4.6,11.1,8.9c2.6,4.7,3.9,11,4.8,16.2c0.9,5.4,1.3,10.9,1.7,16.4c0,0.5,0.4,7.5,0.8,7.5c0.7,0,2.8-14.8,2.9-15.6
		c1.9-12.8,4.3-25.6,7.4-38.2c6.4-26.1,21.1-73.2,52.6-78.2c5.1-1,10.2-0.6,14.9,1.4c10.4,4.4,16.2,15.6,19.1,25.9
		c2.5,9,3.8,18.4,4.3,27.7c0.6,10.5,0.3,21.1-0.4,31.5c-0.8,11.4-2.2,22.7-3.8,34c-1.7,11.8-3.7,23.5-5.9,35.2
		c-2.5,13.5-5.1,27-7.6,40.5c-2.4,12.7-4.7,25.5-6.5,38.3c-1.6,11.2-3,22.6-3.4,34c-0.3,9.1-0.1,18.7,1.9,27.6
		c16.7-6.1,30.6-55.5,34.8-72c4.7-18.3,8.4-36.9,11.5-55.5c1-6.2,2-12.5,3-18.8c0.3-1.8,0.5-3.5,0.8-5.3c0-0.1,0.2-1.6,0.4-1.9
		c0.4-5.3,5.3-9.9,10.8-8.5c2,0.2,3.9,1,5.4,2.4c2.3,2.1,3.4,5.3,3.2,8.4c-0.2,4.9-0.8,9.9-1.5,14.8c-0.9,6.6-2.1,13.1-3.3,19.6
		c-3,15.8-6.8,31.5-10.9,46.9c-3,11.1-6.3,22.1-10,33c-3.2,9.4-6.7,18.9-10.9,27.9c-4,8.6-9.7,16.9-17.5,22.5
		c-6.1,4.4-13.3,6.9-20.9,6.6c-10.1-0.4-19.1-5.6-25.8-12.9c-8.7-9.3-13.7-21.7-16-34.1c-3.2-17.4-4.4-34.9-3.8-52.5
		c0.6-19.4,3.2-38.7,6.7-57.9c3.8-20.5,8.5-40.8,13.2-61L551.8,640.4L551.8,640.4z M562.9,343c0.6-1.3,1.2-2.6,1.8-3.8
		c2.1-4.4,4.2-8.9,6.5-13.3c2-3.9,4.1-7.8,6.5-11.5c7.6-12.3,18.6-23.7,32.2-29.1c5.2-2,10.7-3.2,16.3-3c4.9,0.2,9.7,1.6,13.8,4.3
		c6.7,4.4,10.3,11.5,11.6,19.3c0.8,5,0.6,10.1-0.2,15.1c-1,6.3-2.9,12.5-5.2,18.4c2.7,0,5.4,0,8.2,0c11.3,0,22.9,0.2,34.2,1.3
		c4.9,0.5,9.8,1.2,14.6,2.3c3.9,0.9,7.9,2.2,11.5,4c1.6,1,5.9,3.8,5.3,6.2c-2.4,10-83,1.1-86.3,6.3c-2.2,4.1-4.4,8.1-6.7,12
		c-4.6,7.9-9.6,15.5-14.6,23.2c-6.4,9.8-13,19.5-19.4,29.2c-2.9,17.4-5.5,34.9-7.7,52.5c-1.7,13.6-3.2,27.3-4.1,41
		c-1.3,18.8-1.6,38.1,0.6,56.9l2.7,12.9c5.1-2.9,10.2-14.1,12.5-19.2l45.2-132.9c1.3-8.9,24-12.9,18.9,4
		c-6.8,22.5-13.2,45.2-20.1,67.7c-3.8,12.2-7.7,24.4-12,36.4c-4,11.2-8.2,22.4-13.1,33.2c-3.9,8.4-9.1,17.6-15.7,24.2
		c-3.7,3.7-7.9,6.6-13,8.1c-7.3,1.5-14.6,1.1-21.2-2.5c-20.9-11.2-26.7-48.5-28.6-70.1c-6.6,18-18.2,40.8-39.2,44.4
		c-10.5,1.8-21.1-1.5-30.4-6.3c-0.9-0.5-1.8-1-2.6-1.5c-7-4.7-10.6-12.8-13.1-20.6c-1.9-6-3.3-12.4-4.5-18.6
		c-1.6-8.4-2.9-16.9-4-25.4c-1.6,4.3-3.1,8.6-5.1,12.8c-2.8,6-6.3,10.6-11.4,14.9c-3.6,2.9-8.6,4.8-13.1,5.6
		c-5.8,1.1-12,0.9-17.7-0.7c-6.7-1.9-12.5-5.8-17-11.2c-6-7.2-9.3-16.4-10.9-25.6c-3.3,9.6-6.6,19.2-10,28.8
		c-4.4,12.2-9,24.3-14.3,36.1c-3.4,7.8-7.1,15.5-11.3,23c-3.8,6.9-8,13.7-12.7,19.9c-7.1,9.3-17.3,19.6-29.6,21
		c-1.3,0.2-2.7,0.2-4.1,0.1c-28.9-1.4-36.3-33.2-36.3-56.9c0.1-3.2,0.5-6.4,0.9-9.5c0.5-3.8,1.1-7.5,1.8-11.2
		c1.6-8.5,3.5-16.9,5.5-25.3c3.1-12.7,6.5-25.3,10.2-37.8c1.2-4.2,2.5-8.4,3.9-12.6c0.2-0.6,1.5-4.8,1.9-5.2
		c3.9-10.7,8-21.2,11-32.1c3.1-11.3,5.2-23.7,3.3-35.4c-7.3,2.7-13.9,9.3-18.8,15.3c-6.4,7.9-11.7,17.1-16,26.3
		c-2,4.4-3.9,8.8-5.5,13.4c-4.9,13.9-7.9,28.2-10.1,42.7c-2,13.6-3.3,27.3-4.7,40.9c-1.5,14-3.1,27.9-5.8,41.7
		c-0.7,2.4-1.8,5.2-4.4,5.9c-1.1,0.3-2.3,0.2-3.4,0.2c-1.3,0-2.5,0.1-3.8,0.6c0,0,0,0,0,0l-1.7-1.7c0,1-0.3,2-1,2.6
		c-0.9,0.8-2.3,0.8-3.5,0.6c-1.9-0.4-3.9-1.6-5.4-2.8c-5.9-4.3-11.1-11.5-14.9-17.6c-3.2-5.1-6-10.4-8.6-15.9
		c-3.3-6.9-6.1-14.1-8.7-21.3c-7-19.7-11.9-40.4-15.7-60.9c-2.8,9.4-5.4,18.8-8.1,28.3c-3.5,12-7.2,23.9-11.4,35.7
		c-2.8,7.9-5.8,15.8-9.1,23.6c-3,7.1-6.4,14.1-10.3,20.7c-5,8.6-13.4,20.7-23.7,23.3c-7.3,1.5-14.6,1.1-21.2-2.5
		c-18.7-10-25-40.7-27.5-59.8c-1.3-10.4-2-20.9-2.2-31.3c-0.2-8.3-0.1-16.7,0.4-25.1c0.4-8.5,1.1-17.1,1.8-25.6
		c1.1-13.5,2.4-27,4.1-40.4c1.2-10.3,2.7-20.6,4.5-30.8c0.8-4.5,1.7-9,2.7-13.4c0.9-3.7,1.8-7.4,3-11c-1.2,0-2.3,0.1-3.5,0.1
		c-1.7,0.1-3.4,0.2-5.1,0.2c-4.3,0.2-8.6,0.3-12.8,0.1c-6.8-0.3-21-1.6-22.4-10.3c0.5-4,5.8-6.5,9.1-7.7c2.8-1.1,5.8-1.9,8.7-2.6
		c3.3-0.8,6.6-1.4,10-1.9c5.1-0.8,10.2-1.5,15.3-2.2c2.1-0.3,4.2-0.6,6.3-0.9c1.6-0.2,3.1-0.5,4.7-0.9c0.6-1.3,1.2-2.6,1.8-3.8
		c2.1-4.4,4.2-8.9,6.5-13.3c2-3.9,4.1-7.8,6.5-11.5c7.6-12.3,18.6-23.7,32.2-29.1c5.2-2,10.7-3.2,16.3-3c4.9,0.2,9.7,1.6,13.8,4.3
		c6.7,4.4,10.3,11.5,11.6,19.3c0.8,5,0.6,10.1-0.2,15.1c-1,6.3-2.9,12.5-5.2,18.4h5.7c9.2-29,27.3-60.4,61.8-60.4
		c7.7,0.5,14.6,3.2,20,8.7c10.2,10.2,12.6,26.9,11.7,40.7c-0.4,6.1-1.4,12.3-3.1,18.2c-1.4,4.6-3.1,9.1-5,13.5
		c-2.4,5.5-5,10.9-7.8,16.2c-7.1,13.5-15.2,26.6-23.9,39.1c0.5,12.6,1.1,25.1,1.7,37.7c0.6,12.9,1.2,25.7,2,38.6
		c0.3,4.7,0.6,9.3,0.9,14c0.1,1.6,0.3,3.2,0.4,4.8c0.1,1,0.2,2,0.4,2.9c0,0.1,0.2,0.9,0.3,0.9c0.5,0,1.7-7.6,1.8-8
		c1.4-8.9,3.4-17.7,5.7-26.4c2.7-9.9,6-19.6,9.8-29.1c8.9-22.1,26.7-56.5,52.5-61.7c6.5-1.3,13.1-0.6,19.3,1.7
		c19.1,5.9,24,26.7,25.1,44.3c0,3.9-0.3,7.8-0.6,11.7c-0.4,5-0.9,10-1.4,15c-0.8,7.5-1.7,15.1-3,22.5c-4.8,21.3-11.8,41.9-17.8,62.9
		c-5.5,19.3-9.8,38.6-10.9,58.7c2.4-2.7,4.6-5.8,6.6-8.9c3.2-4.9,6.1-10,8.8-15.1c3.9-7.4,7.6-15.1,11-22.8
		c4.7-10.5,9.1-21.2,13.3-31.9c8.2-20.9,15.6-42.1,22.6-63.4c2.3-7.1,4.6-14.2,6.7-21.3c0.6-2,1.2-4,1.8-6.1
		c0.2-0.5,0.3-1.1,0.5-1.7c0-0.1,0.2-0.5,0.2-0.6c0.6-2.4,2.1-4.5,4.3-5.7c3.4-10.2,8-20.7,14.5-29.2c2.5-3.3,5.3-6.5,8.2-9.4
		c10.3-10.3,23-18.5,36.7-23.4c13.3-4.8,27.7-6.6,41.7-4.2c4,0.7,8,1.7,11.8,3.1c4,1.5,8.6,3.4,12,6.1c0.7,0.6,1.4,1.2,2,1.9
		c0.2,0.2,0.6,0.7,0.9,0.7c0.4,0,0.9-0.5,1.1-0.7c0.6-0.6,2.3,0.2,2.9,0.5c1.8,1,3.4,2.6,4.6,4.2c4.7,6.5,5.4,15.8,4.7,23.5
		c-0.4,4.3-1.1,8.7-1.8,13c-1,5.7-2.1,11.5-3.2,17.2c-2.7,13.8-5.6,27.6-8.4,41.4c-1.8,9-3.5,18-5.1,27.1
		c-1.4,8.1-2.7,16.2-3.7,24.3c-0.4,3.4-0.8,6.8-1,10.2c-0.2,2.8-0.3,5.7-0.2,8.5c0.1,2.9,0.4,8.1,2.4,10.4
		c3.8,5.3,12.3-6.1,14.3-8.9c1.4-2.2,2.6-4.5,3.7-6.9c1.5-3,2.9-6.2,4.2-9.3c3.2-7.5,6.1-15.1,8.8-22.7c2.7-7.7,5.3-15.5,7.7-23.3
		c1-3.3,1.9-6.5,2.7-9.8c0.6-2.5,1.2-5,1.7-7.6c0.5-3.1,0.9-6.3,1.2-9.4c0.5-4.3,0.9-8.7,1.4-13c1.1-10.7,2.2-21.4,3.6-32.1
		c1-7.5,2.1-15.1,3.5-22.5c1.2-6.4,2.7-12.9,4.7-19.1c-1.2,0-2.3,0.1-3.5,0.1c-1.7,0.1-3.4,0.2-5.1,0.2c-4.3,0.2-8.6,0.3-12.8,0.1
		c-6.8-0.3-21-1.6-22.4-10.3c0.5-4,5.8-6.5,9.1-7.7c2.8-1.1,5.8-1.9,8.7-2.6c3.3-0.8,6.6-1.4,10-1.9c5.1-0.8,10.2-1.5,15.3-2.2
		c2.1-0.3,4.2-0.6,6.3-0.9C559.8,343.7,561.4,343.4,562.9,343L562.9,343z M456.2,52.3c-7.9,9.9-13.7,22-18.2,33.7
		c-5.2,13.5-9.1,27.7-12.4,41.7c-3.7,15.3-6.7,30.8-9.8,46.2c-1.4,6.9-2.8,13.7-4.4,20.6c-1.4,5.8-2.8,11.7-4.7,17.4
		c-0.9,2.8-1.5,5.7-2.1,8.5c-0.7,3.3-1.4,6.6-2.2,9.9c-1.9,7.5-5.1,17-12.7,20.5c-1.4,1.4-4.9-1.3-6.3,0c-0.4,0.5-2.6,0.7-3.2,0.7
		c-2.2,0.1-4.5-0.2-6.6-0.9c-7.1-2.4-10.8-8.8-12.2-15.9c-1.8-8.8-3.2-17.7-3.7-26.7c-0.4-7-0.1-13.8,0.6-20.8
		c0.8-7.9,2.1-15.7,3.1-23.6c1.4-10.4,2.3-20.8,2.7-31.3c-4.1,5.4-7.5,11.3-10.4,17.4c-3.9,8.5-6.6,17.5-8.6,26.7
		c-2.3,10.9-3.6,22.1-4.3,33.3c-0.7,10.3-1,20.6-1.4,30.9c-0.2,4.5-0.4,8.9-0.8,13.4c-0.3,3.8-0.8,7.7-1.6,11.4
		c-1.1,5.2-3,11.5-7.3,14.9c-2.2,1.3-1.8,5.8-4.9,5.8c-0.5,0-1.4,0.5-1.8,0.9c0,0,0,0,0,0c-0.4,0-0.6-0.4-0.8-0.7
		c-0.6-0.9-1-2.2-1.4-3.2l-0.4,2.5c-0.2,0.7-1.4,1-2,1.1c-1.6,0.2-3.4-0.3-4.8-0.8c-6-2.2-11.3-7.7-15-12.7
		c-3.4-4.6-6.2-9.6-8.6-14.7c-3.3-7.1-6-14.6-8.3-22.2c-3-10.2-5.3-20.6-7.1-31c-2.4-13.7-4-27.5-5.2-41.3
		c-0.7-8.1-0.8-16.4-0.5-24.6c0.2-4.9,0.5-9.8,1-14.7c0.4-4.3,1.1-8.7,2-12.9c0.8-3.5,3-12.7,7.4-13.5c0.8-0.1,1.6,0,2.3,0.3
		c0.3,0.1,0.6,0.2,0.9,0.1c0.7-0.1,1.4-0.5,1.9-1c0.4-0.4,0.8-0.8,1.3-1.2c0.2-0.2,0.7-0.6,1-0.5c0.7,0.2,0.6,2.8,0.6,3.3
		c0,1.5-0.2,3.1-0.3,4.6c-0.2,2.3-0.4,4.6-0.7,6.9l1.2-3.7c0.9-3.7,2.9-10.5,7.5-11c1.6-0.2,3.4,0.5,4.6,1.6c0,0,0,0,0,0
		c1.3,3.1,2.2-1,3.6,0.4c3,2,6.1,4.3,8.3,7.2c1.5,2,2.4,4.3,3.2,6.7c1,3.4,1.7,7,2.2,10.5c0.9,5.5,1.7,11,2.5,16.5
		c1.2,8.3,2.5,16.6,3.9,24.9c0.6,3.6,1.2,7.3,1.8,10.9c0,0.3,0.5,3.3,0.9,3.3c0.3,0,0.7-1.8,0.8-2c0.5-1.8,0.9-3.7,1.4-5.5
		c3.4-13.1,8.4-27,15.9-38.3c4.6-6.9,10.8-13.6,18.4-17.1c5.3-2.4,11.2-3.2,16.8-1.4c4.7,1.5,8.7,4.6,11.1,8.9
		c2.6,4.7,3.9,11,4.8,16.2c0.9,5.4,1.3,10.9,1.7,16.4c0,0.5,0.4,7.5,0.8,7.5c0.7,0,2.8-14.8,2.9-15.6c1.9-12.8,4.3-25.6,7.4-38.1
		c6.4-26.1,21.1-73.2,52.6-78.2c5.1-1,10.2-0.6,14.9,1.4c10.4,4.4,16.2,15.6,19.1,25.9c2.5,9,3.8,18.4,4.3,27.7
		c0.6,10.5,0.3,21.1-0.4,31.5c-0.8,11.4-2.2,22.7-3.8,34c-1.7,11.8-3.7,23.5-5.9,35.2c-2.5,13.5-5.1,27-7.6,40.5
		c-2.4,12.7-4.7,25.5-6.5,38.3c-1.6,11.2-3,22.6-3.4,34c-0.3,9.1-0.1,18.7,1.9,27.6c16.7-6.1,30.6-55.5,34.8-72
		c4.7-18.3,8.4-36.9,11.5-55.5c1-6.2,2-12.5,3-18.8c0.3-1.8,0.5-3.5,0.8-5.3c0-0.1,0.2-1.6,0.4-1.9c0.4-5.3,5.3-9.9,10.8-8.5
		c2,0.2,3.9,1,5.4,2.4c2.3,2.1,3.4,5.3,3.2,8.4c-0.2,4.9-0.8,9.9-1.5,14.8c-0.9,6.6-2.1,13.1-3.3,19.6c-3,15.8-6.8,31.5-10.9,46.9
		c-3,11.1-6.3,22.1-10,33c-3.2,9.4-6.7,18.9-10.9,27.9c-4,8.6-9.7,16.9-17.5,22.5c-6.1,4.4-13.3,6.9-20.9,6.6
		c-10.1-0.4-19.1-5.6-25.8-12.9c-8.7-9.3-13.7-21.7-16-34.1c-3.2-17.4-4.4-34.9-3.8-52.5c0.6-19.4,3.2-38.7,6.7-57.9
		c3.8-20.5,8.5-40.8,13.2-61L456.2,52.3L456.2,52.3z M273.2,5.9c0.4-1.7,1.2-3.4,3-3.9c2.2-0.6,4.7,1.1,6.1,2.7
		c1.3,1.5,2.4,3.6,2.1,5.6l-18.8,57.7c-1.3,5.4-4.2,10.4-8.9,13.5c-1.3,0.8-2.9,1.6-4.4,1.9c-0.3,0.1-1.9,0.4-1.9-0.2
		c0-0.1,0-0.2-0.1-0.2c-0.2-0.2-1.5,0.8-1.7,1c-0.9,0.6-2.2,1.5-2.3-0.2c-0.2,0.2-0.4,0.3-0.5,0.5c-1.4,0.9-1.3-1.1-1.3-1.9
		l22.4-78.8c0.3-0.7,1.3-3,2.3-2.8c0.6,0.1,0.8,1,0.9,1.4c0,0.1,0.1,0.6,0.2,0.6C271,3,273.2-4.2,273.2,5.9L273.2,5.9z M261.1,2.7
		c0.6-0.5,2.5-1.8,3.3-1.2c1.8,1.4-2.4,10.7-3.3,12.4c-1,1.9-1.8,4-2.5,6c-0.9,2.5-1.7,5.1-2.4,7.7c-1.7,6.1-3.2,12.3-4.7,18.5
		c-2,8.6-3.8,17.3-5.9,25.8c-0.7,2.8-1.4,5.8-2.4,8.5c-0.2,0.6-1.1,3.3-1.9,3.3c0,0,0,0,0,0c0,0,0,0,0,0l16.1-70.2
		c0-0.1,0.3-1.2,0.3-1.3c-0.1,0-1,1.2-1.1,1.3c-1.1,1.4-1.9,3.4-2.5,5.1c-0.9,2.6-1.7,5.3-2.4,8c-1.7,6.8-3.1,13.8-4.4,20.7
		c-0.8,4.4-1.6,8.7-2.4,13.1c-0.7,3.8-1.4,7.6-2.3,11.4c-0.6,2.7-1.2,5.5-2.1,8.1c-0.2,0.7-1.1,3.1-2.1,3.1c-0.3,0-0.6-0.3-0.8-0.5
		c-1-1,0.5-10.5,0.7-11.9c1.2-7.9,2.7-15.9,4.4-23.7c1.2-5.8,2.5-11.5,3.9-17.2c1.1-4.3,2.2-8.7,3.5-12.9c1.1-3.9,2.9-9,6.2-11.5
		c0.9-0.7,1.7-1.1,2.7-1.5C259.8,3.4,260.6,3.1,261.1,2.7L261.1,2.7z M169,159.2c-0.4,24.6,0.5,48.2,11.2,70.8h0.8l-9.8-48.3
		L169,159.2L169,159.2z M190.4,226.9c2.3,0,3-1.4,2.6-3.5l-9.3-64.3c0,11.1,0,22.2,0.8,33.2C185.4,204,187.1,215.6,190.4,226.9
		L190.4,226.9z M198.4,225.1l-5.6-37.3c1.2,12.5,0.9,25.3,4.8,37.3H198.4L198.4,225.1z M170.6,220.3l-8.3-39.1
		c0,1.2,0.1,2.5,0.2,3.8c0.2,1.8,0.4,3.6,0.6,5.5c0.6,4.4,1.4,8.7,2.4,13c0.7,3.1,1.5,6.3,2.4,9.3
		C168.7,215.3,169.5,217.9,170.6,220.3L170.6,220.3z M528.9,653.2c-1.8,0.2-5.7,9.9-6.3,11.3c-1.6,3.8-3,7.7-4.4,11.7
		c-1.6,4.5-3.1,8.9-4.5,13.4c-2.1,6.4-4,12.9-5.8,19.4c-0.8,2.7-1.5,5.4-2.1,8.2c-0.5,2.1-1,4.2-1.4,6.3l-11.2,59.1c0,0,0,0.3,0,0.3
		c0.4-0.1,2.2-8,2.4-8.6c1.5-6.3,2.8-12.5,4.2-18.8c0.8-3.8,1.6-7.5,2.3-11.3c3.4-17.6,7.4-35.2,12.4-52.4c2.1-7.1,4.4-14.2,7-21.1
		C523.7,664.6,526.1,658.8,528.9,653.2L528.9,653.2z M533,659.9c0.1-0.4,0.3-0.8,0.5-1.2c0-0.1,0.2-0.4,0.1-0.5c0,0-0.1,0-0.1,0
		c0,0,0,0,0,0c0,0,0,0,0-0.1c-0.7,0.1-8.5,18.8-9.3,20.6c-4.6,12.1-8,24.8-10.8,37.4c-2.8,12.2-5.1,24.5-7.5,36.8
		c-1.1,5.5-2.1,11-3.3,16.5c-1,4.7-2.1,9.4-3.4,14c-1.6,5.6-3.1,11.3-4.4,17c-0.1,0.3-1.2,5.4-0.9,5.5c0.3,0.1,1.7-4.1,1.8-4.3
		c1.4-4.2,2.6-8.6,3.7-12.9c1.8-6.8,3.4-13.6,4.9-20.4c2-9,3.8-18,5.5-27c1-5.5,2.2-11,3.5-16.4c1.4-6.2,3-12.3,4.6-18.4
		c2.4-9.2,5-18.3,8-27.4c1.2-3.7,2.5-7.5,3.8-11.1C530.6,665.3,531.7,662.5,533,659.9L533,659.9z M530.5,801.8l23.8-118
		c-2.2,7.8-4.2,15.7-6.1,23.6c-4.8,19.9-8.8,40.1-12.4,60.3c-1.3,7.4-2.5,14.9-3.7,22.3c-0.4,2.6-0.8,5.2-1.1,7.7
		C530.8,799.1,530.6,800.4,530.5,801.8L530.5,801.8z M537.2,834.8c1.3-12.2,3.3-24.3,5.4-36.4c2.4-13.8,5.1-27.5,7.7-41.2
		c2.7-14.4,5.4-28.8,7.7-43.2c2-12.8,3.7-25.7,4.5-38.6c-0.9,5.6-2.1,11.2-3.3,16.8c-2,9.7-4,19.3-6,29c-2.2,10.9-4.4,21.8-6.4,32.8
		c-1.5,8.4-3,16.7-4.3,25.1c-1.9,12.5-3.4,24.9-4.3,37.6C537.8,822.7,537.5,828.7,537.2,834.8L537.2,834.8z M551.9,862.5
		c0.6-4.3,1.3-8.6,2-12.9c1.1-6.9,2.2-13.7,3.3-20.6c2.9-17.5,5.7-35,8.5-52.5c2.5-15.9,5-31.7,7.2-47.6c0.9-6.6,1.8-13.2,2.6-19.8
		c0.5-4.6,1-9.3,1.4-13.9c-2.2,15.7-4.7,31.3-7.3,46.8c-2.5,14.4-5,28.9-7.5,43.3C557.6,810.8,553.4,836.6,551.9,862.5L551.9,862.5z
		 M321.9,770.6c3.9-15.7,5.9-32.5,3.9-48.6c-1.4-11.5-4.9-23.1-11.2-32.9c-4.6-7.1-11-13.5-18.8-16.9c-5.9-2.6-12.7-3.5-18.7-0.7
		c-7.9,3.7-11,12.2-11.5,20.4l-0.4,4.4l10.2-4.4c0,0,0,0,0,0c0,0,0,0,0,0c0,1-0.2,2-0.4,2.9c0,0.1-0.4,1.2-0.3,1.3
		c0.1,0,0.9-0.9,1-0.9c1.1-1.1,2.2-2.2,3.2-3.3c3.3-3.3,3,0.9,3.3,1.1c0.1,0,0.2-0.5,0.3-0.6c0,0,0,0,0,0c0.5-0.5,2.2-2,3-1.5
		c0.2,0.1,0.2,0.4,0.2,0.6c0,1.2-0.2,2.3-0.5,3.5c-0.1,0.2-0.5,1.6-0.3,1.7c0.3,0.2,2.8-2.3,3-2.5c0.5-0.5,1.9-1.8,2.7-1.3
		c1.5,0.9-0.1,6.5,2.7,0.9c0,0,0,0,0,0c0,0,0,0,0,0c1.7,2.5,2.2,5.7,2.3,8.7c0.1,4-0.4,8.3-1.1,12.2c-0.9,5.1-2.1,10.2-3.3,15.3
		c-1.4,6-2.9,11.9-4.2,17.9C295.7,759.9,307.1,768,321.9,770.6L321.9,770.6z M315.2,789.5c-4.4,0.5-9.6-1.3-13.6-3
		c-4-1.7-7.9-4-11.5-6.4c-1.1-0.7-2.1-1.5-3.1-2.3c-0.1-0.1-1.1-0.9-1-1.2c-1.3,0.3,0.1,5.4,0.2,6c0.6,2.1,1.2,4.1,2,6.2
		c0.8,2.3,1.8,4.7,2.7,7c1.8,4.2,3.7,8.6,6,12.5c0.3,0.5,3,5.4,4,4.5C304.5,810.4,313.1,794.1,315.2,789.5L315.2,789.5z
		 M164.8,635.8c-1.8,0.2-5.7,9.9-6.3,11.3c-1.6,3.8-3,7.7-4.4,11.7c-1.6,4.5-3.1,8.9-4.5,13.4c-2.1,6.4-4,12.9-5.8,19.4
		c-0.8,2.7-1.5,5.4-2.1,8.2c-0.5,2.1-1,4.2-1.4,6.3L129.2,765c0,0,0,0.3,0,0.3c0.4-0.1,2.2-8,2.4-8.6c1.5-6.3,2.8-12.5,4.2-18.8
		c0.8-3.8,1.6-7.5,2.3-11.3c3.4-17.6,7.4-35.2,12.4-52.4c2.1-7.1,4.4-14.2,7-21.1C159.6,647.2,162,641.4,164.8,635.8L164.8,635.8z
		 M168.9,642.4c0.1-0.4,0.3-0.8,0.5-1.2c0-0.1,0.2-0.4,0.1-0.5c0,0-0.1,0-0.1,0c0,0,0,0,0,0c0,0,0,0,0-0.1
		c-0.7,0.1-8.6,18.8-9.3,20.6c-4.6,12.1-8,24.8-10.8,37.4c-2.8,12.2-5.1,24.5-7.5,36.8c-1.1,5.5-2.1,11-3.3,16.5
		c-1,4.7-2.1,9.4-3.4,14c-1.6,5.6-3.1,11.3-4.4,17c-0.1,0.3-1.2,5.4-0.9,5.5c0.3,0.1,1.7-4.1,1.8-4.3c1.4-4.2,2.6-8.6,3.7-12.9
		c1.8-6.8,3.4-13.6,4.9-20.4c2-9,3.8-18,5.5-27c1-5.5,2.2-11,3.5-16.4c1.4-6.2,3-12.3,4.6-18.4c2.4-9.2,5-18.3,8-27.4
		c1.2-3.7,2.5-7.5,3.8-11.1C166.5,647.8,167.6,645,168.9,642.4L168.9,642.4z M166.4,784.3l23.8-118c-2.2,7.8-4.2,15.7-6.1,23.6
		c-4.8,19.9-8.8,40.1-12.4,60.3c-1.3,7.4-2.5,14.9-3.7,22.3c-0.4,2.6-0.8,5.2-1.1,7.7C166.7,781.6,166.5,783,166.4,784.3
		L166.4,784.3z M173.1,817.3c1.3-12.2,3.3-24.3,5.4-36.4c2.4-13.8,5.1-27.5,7.7-41.2c2.7-14.4,5.4-28.8,7.7-43.2
		c2-12.8,3.7-25.7,4.5-38.6c-0.9,5.6-2.1,11.2-3.3,16.8c-2,9.7-4,19.3-6,29c-2.2,10.9-4.4,21.8-6.4,32.8c-1.5,8.4-3,16.7-4.3,25.1
		c-1.9,12.5-3.4,24.9-4.3,37.6C173.7,805.2,173.4,811.3,173.1,817.3L173.1,817.3z M187.8,845.1c0.6-4.3,1.3-8.6,2-12.9
		c1.1-6.9,2.2-13.7,3.3-20.6c2.9-17.5,5.7-35,8.5-52.5c2.5-15.9,5-31.7,7.2-47.6c0.9-6.6,1.8-13.2,2.6-19.8c0.5-4.6,1-9.3,1.4-13.9
		c-2.2,15.7-4.7,31.3-7.3,46.8c-2.5,14.4-5,28.9-7.5,43.3C193.5,793.3,189.3,819.1,187.8,845.1L187.8,845.1z M579.9,341.7
		c1.2-3.7,2.7-7.3,4.2-10.9c1.7-4,3.4-7.9,5.3-11.8c0.7-1.5,1.4-2.9,2.1-4.3c0.3-0.7,0.7-1.4,1.1-2.1c-1.9,2.2-3.7,4.7-5.4,7.1
		c-2.7,3.9-5.3,8.1-7.4,12.4c-1.6,3.2-2.9,6.5-3.8,10C577,341.6,578.8,341.7,579.9,341.7L579.9,341.7z M590.7,340.8h3
		c1.7-5,3.9-9.8,6-14.6c2.4-5.4,4.8-11,6.5-16.6c-1.5-0.4-3.7,3.5-4.3,4.5c-2.1,3.5-3.8,7.5-5.4,11.2c-1.3,3-2.5,6-3.6,9.1
		C592.2,336.5,591.4,338.6,590.7,340.8L590.7,340.8z M596.4,391.3c1.9-2.8,3.7-5.5,5.5-8.4c3-4.6,5.8-9.2,8.6-13.9
		c0.3-0.5,3.8-6.4,3.8-6.7c0-1.3-11.2-0.8-12.5,0.5c-0.8,1.8-1.3,3.8-1.8,5.6c-0.5,2.3-1,4.6-1.3,6.9c-0.5,3.5-1,6.9-1.4,10.4
		c-0.2,1.3-0.4,2.6-0.6,3.8C596.7,390,596.5,390.8,596.4,391.3L596.4,391.3z M628.2,339.5c3.1-8.1,5.9-17.2,6.6-25.9
		c0.4-5.1,0.3-12-3.1-16.1c-0.6-0.9-1.5-1.6-2.6-1.8c-1.3-0.1-2.6,0.7-3.6,1.5c-1.5,1.3-2.8,3.1-3.8,4.7c-1.4,2.2-2.7,4.5-3.9,6.9
		c-1.3,2.6-2.5,5.3-3.6,8.1c-1.9,4.6-3.6,9.2-5.2,13.9c-0.6,1.8-1.2,3.7-1.7,5.5c-0.3,1.2-0.7,2.4-1,3.6c0.9,0,1.9,0,2.8,0
		c2.9,0,5.9-0.2,8.8-0.2C621.4,339.5,624.8,339.5,628.2,339.5L628.2,339.5z M499.8,399c-0.1-0.1-0.2-0.1-0.3-0.2
		c-1.7-0.2-4.1,8.8-4.5,10.4c-1.3,6.5-2.5,13-3.6,19.6c-1.3,7.6-2.6,15.2-3.8,22.9c-1.8,11.5-3.5,23-4.9,34.5
		c-0.6,4.5-1.1,9-1.5,13.5c-0.3,2.9-0.6,6-0.6,8.9c0,0.2,0,2,0.1,2.1c0.1,0,0.3-0.6,0.3-0.7c0.7-7.2,1.7-14.5,2.8-21.7
		c1.2-8.5,2.6-16.9,4.1-25.3c2.2-12.4,4.6-24.8,7.4-37.1L499.8,399L499.8,399z M384.5,469.8l11.6-44c0.2-0.4,2.6-6.5,2.1-6.7
		c-0.6-0.3-4.5,7.2-4.7,7.6c-0.8,1.5-1.6,2.9-2.4,4.4c-0.4,0.8-0.9,1.7-1.3,2.5c-0.2,0.5-0.6,1.3-0.4,1.9c0.2,0.4,0.3,0.5,0.4,1
		c0.1,0.9-0.2,2.3-0.4,3.2c0,0,0,0,0,0c-0.2,0.2-4.7,14.7-5,15.7L384.5,469.8L384.5,469.8z M415.3,421.4c-5.3,0.1-10.1,21-11,25
		c-1.4,6-2.5,12.1-3.4,18.2c-0.1,0.5-1.2,8.3-0.6,8.4c0.6,0.1,2.8-9.6,2.9-10.1c1.2-6.7,3.2-13.4,5.3-19.9c1.2-3.8,2.5-7.6,3.7-11.3
		C413.3,428.3,414.4,424.8,415.3,421.4L415.3,421.4z M416.7,513.9c5-5.7,9-12.9,12.3-19.7c4-8,7.4-16.3,11-24.5
		c2.5-5.6,5-11.2,7.9-16.6c1.5-2.7,2.7-5.6,3.8-8.5c3.1-8.6,4.7-17.7,6.6-26.6c2-9.4,4.3-18.5,8.8-27.1c0.1-0.1,0.1-0.3,0-0.4
		c-0.4-0.8-3.2,0.2-3.7,0.4c-2.9,1.1-5.8,2.9-8.3,4.6c-9.2,6.5-16.6,16-21.9,25.8C420.2,445.2,411.3,487,416.7,513.9L416.7,513.9z
		 M153.9,358.5c-1.5,0.1-12.6,0.5-13.2,1.1c-2.2,4.1-4.4,8.1-6.7,12c-4.6,7.9-9.6,15.5-14.6,23.2c-6.4,9.8-13,19.5-19.4,29.2
		c-2.9,17.4-5.5,34.9-7.7,52.5c-1.7,13.6-3.2,27.3-4.1,41c-1.3,18.8-1.6,38.1,0.6,56.9l2.7,12.9c5.1-2.9,10.2-14.1,12.5-19.2
		l46.4-135.4c0.1-0.9,0-2-0.1-2.9c-0.1-1.5-0.3-3-0.5-4.5c-0.6-4.7-1-9.4-1.2-14.2C147.8,393.6,150.1,375.7,153.9,358.5L153.9,358.5
		z M177.1,339.7l2.8,0.1c1.5-5.6,3.2-11.1,5-16.6c1.4-4.3,3-8.7,4.9-12.8c0.6-1.3,1.1-2.7,1.6-4.1c0-0.1,0.5-1.7,0.3-1.7
		c0,0,0,0,0,0c-0.2-0.2-1.8,2-1.9,2.1c-1.3,1.7-2.5,3.6-3.6,5.4c-1.1,1.7-2.1,3.6-3,5.4c-1.4,2.6-2.4,5.7-3.2,8.6
		C178.8,330.6,177.9,335.2,177.1,339.7L177.1,339.7z M214.1,344.1c3.2,1,6.7,2.4,9.4,4.4c1.4,1.1,3.7,3.1,3.3,5.1
		c-0.7,3.9-10.1,4-12.9,3.9c-0.1,6.3,0,12.7-0.2,19c0,1.4-0.1,7.2-0.7,9c1.3-1.8,2.4-3.8,3.5-5.7c1.5-2.6,2.8-5.3,4.1-8
		c3-6.4,5.7-13,7.9-19.6c3.4-10.1,8.1-27.4,4.2-37.8c-0.2-0.4-0.3-0.9-0.5-1.3c-0.3-0.7-0.5-1.5-0.7-2.2c-0.6-2-1.3-4.1-2-6.1
		c-0.5-1.4-3.1-9.2-4.8-9.2c-5.4,0-7.4,11.5-8.1,15.3c-0.8,4.6-1.3,9.3-1.6,13.9c-0.4,5.2-0.6,10.5-0.8,15.8
		C214.1,341.8,214.1,343,214.1,344.1L214.1,344.1z M253.3,428.6c-0.9,0.2-3.4,5.2-3.7,5.8c-2.2,4.2-4.2,8.6-6.3,12.9
		c-0.5,1.1-1,2.1-1.6,3.2c-1.5,3.1-2.8,6.3-4,9.5c-1.3,3.5-2.5,7.1-3.6,10.7c-2.3,7.7-4.4,15.5-6.1,23.4c-0.2,0.8-2.2,10.4-2,11.1
		c0.3-0.4,1.7-6.4,1.8-6.9c5.1-22.7,12.7-44.8,23.7-65.3L253.3,428.6L253.3,428.6z M303.9,534c0.7-2.3,1.5-4.7,2.2-7
		c1.8-5.5,3.6-11.1,5.3-16.6c0.9-2.8,9.4-29.1,8.1-31.2L303.9,534L303.9,534z M266.4,531.4c0.6-2.1,1.3-4.2,2-6.2
		c1.2-3.7,2.4-7.4,3.6-11c3.2-9.8,6.3-19.5,9.4-29.3c2.5-7.8,4.9-15.7,7.1-23.6c1-3.4,1.9-6.8,2.8-10.2c0.7-2.7,1.3-5.4,1.9-8.2
		c0.1-0.3,1.2-5.4,0.8-5.5c-1-0.3-12.5,36.5-13.3,39c-4.1,13.1-8.1,26.3-12.1,39.4L266.4,531.4L266.4,531.4z M269.8,558.5
		c0.2-0.1,0.8-2.2,0.9-2.4c2.3-8.4,4.7-16.9,7.2-25.3c3-10.5,6.1-21.1,9.1-31.6c3.3-11.8,6.6-23.7,9.5-35.7c1.2-5,2.4-10,3.3-15.1
		c0.7-3.8,1.4-7.7,1.8-11.6c-0.4,0.9-1.5,4.7-1.7,5.1c-1.4,4.5-2.8,8.9-4.1,13.4c-4,13.4-7.9,26.9-11.7,40.5
		c-3,10.8-5.9,21.6-8.6,32.5c-1.1,4.4-2.1,8.8-3,13.3c-0.7,3.2-1.3,6.4-1.7,9.6C270.8,551.6,269.7,558.1,269.8,558.5L269.8,558.5z
		 M287.8,565.6l8.9-36.8c1.4-4.9,2.8-9.8,4.2-14.7c2-6.9,3.9-13.7,5.9-20.6c0.7-2.4,11.2-39.5,8.3-39.8l-8.5,32.6
		c-3.2,10.7-6.8,21.3-10,32.1c-2.4,7.9-4.6,16-6.2,24.1C288.9,550,287.9,557.8,287.8,565.6L287.8,565.6z M86.9,341.7
		c1.2-3.7,2.7-7.3,4.2-10.9c1.7-4,3.4-7.9,5.3-11.8c0.7-1.5,1.4-2.9,2.1-4.3c0.3-0.7,0.7-1.4,1.1-2.1c-1.9,2.2-3.7,4.7-5.4,7.1
		c-2.7,3.9-5.3,8.1-7.4,12.4c-1.6,3.2-2.9,6.5-3.8,10C84,341.6,85.8,341.7,86.9,341.7L86.9,341.7z M97.7,340.8h3
		c1.7-5,3.9-9.8,6-14.6c2.4-5.4,4.8-10.9,6.5-16.6c-1.5-0.4-3.7,3.5-4.3,4.4c-2.1,3.5-3.8,7.5-5.4,11.2c-1.3,3-2.5,6-3.6,9.1
		C99.2,336.5,98.4,338.6,97.7,340.8L97.7,340.8z M103.3,391.3c1.9-2.8,3.7-5.5,5.5-8.4c3-4.6,5.8-9.2,8.6-13.9
		c0.3-0.5,3.8-6.4,3.8-6.7c0-1.3-11.2-0.8-12.5,0.5c-0.8,1.8-1.3,3.8-1.8,5.6c-0.5,2.3-1,4.6-1.3,6.9c-0.5,3.5-1,6.9-1.4,10.4
		c-0.2,1.3-0.4,2.6-0.6,3.8C103.7,390,103.5,390.8,103.3,391.3L103.3,391.3z M135.2,339.5c3.1-8.1,5.9-17.2,6.6-25.9
		c0.4-5.1,0.3-12-3.1-16.1c-0.6-0.9-1.5-1.6-2.6-1.8c-1.3-0.1-2.6,0.7-3.6,1.5c-1.5,1.3-2.8,3.1-3.8,4.7c-1.4,2.2-2.7,4.5-3.9,6.9
		c-1.3,2.6-2.5,5.3-3.6,8.1c-1.9,4.6-3.6,9.2-5.2,13.9c-0.6,1.8-1.2,3.7-1.7,5.5c-0.3,1.2-0.7,2.4-1,3.6c0.9,0,1.9,0,2.8,0
		c2.9,0,5.9-0.2,8.8-0.2C128.4,339.5,131.8,339.5,135.2,339.5L135.2,339.5z M433.4,65.1c-1.8,0.2-5.7,9.9-6.3,11.3
		c-1.6,3.8-3,7.7-4.4,11.7c-1.6,4.5-3.1,8.9-4.5,13.4c-2.1,6.4-4,12.9-5.8,19.4c-0.8,2.7-1.5,5.4-2.1,8.2c-0.5,2.1-1,4.2-1.4,6.3
		l-11.2,59.1c0,0,0,0.3,0,0.3c0.4-0.1,2.2-8,2.4-8.6c1.5-6.3,2.8-12.5,4.2-18.8c0.8-3.8,1.6-7.5,2.3-11.3
		c3.4-17.6,7.4-35.2,12.4-52.4c2.1-7.1,4.4-14.2,7-21.1C428.2,76.5,430.6,70.7,433.4,65.1L433.4,65.1z M437.4,71.8
		c0.1-0.4,0.3-0.8,0.5-1.2c0-0.1,0.2-0.4,0.1-0.5c0,0-0.1,0-0.1,0c0,0,0,0,0,0c0,0,0,0,0-0.1c-0.7,0.1-8.6,18.8-9.3,20.6
		c-4.6,12.1-8,24.8-10.8,37.4c-2.8,12.2-5.1,24.5-7.5,36.8c-1.1,5.5-2.1,11-3.3,16.5c-1,4.7-2.1,9.4-3.4,14
		c-1.6,5.6-3.1,11.3-4.4,17c-0.1,0.3-1.2,5.4-0.9,5.5c0.3,0.1,1.7-4.1,1.8-4.3c1.4-4.2,2.6-8.6,3.7-12.9c1.8-6.8,3.4-13.6,4.9-20.4
		c2-9,3.8-18,5.5-27c1-5.5,2.2-11,3.5-16.4c1.4-6.2,3-12.3,4.6-18.4c2.4-9.2,5-18.3,8-27.4c1.2-3.7,2.5-7.5,3.8-11.1
		C435,77.2,436.1,74.4,437.4,71.8L437.4,71.8z M434.9,213.7l23.8-118c-2.2,7.8-4.2,15.7-6.1,23.6c-4.8,19.9-8.8,40.1-12.4,60.3
		c-1.3,7.4-2.5,14.9-3.7,22.3c-0.4,2.6-0.8,5.2-1.1,7.7C435.3,211,435.1,212.3,434.9,213.7L434.9,213.7z M441.6,246.7
		c1.3-12.2,3.3-24.3,5.4-36.4c2.4-13.8,5.1-27.5,7.7-41.2c2.7-14.4,5.4-28.8,7.7-43.2c2-12.8,3.7-25.7,4.5-38.6
		c-0.9,5.6-2.1,11.2-3.3,16.8c-2,9.7-4,19.3-6,29c-2.2,10.9-4.4,21.8-6.4,32.8c-1.5,8.4-3,16.7-4.3,25.1
		c-1.9,12.5-3.4,24.9-4.3,37.6C442.3,234.6,441.9,240.6,441.6,246.7L441.6,246.7z M456.4,274.4c0.6-4.3,1.3-8.6,2-12.9
		c1.1-6.9,2.2-13.7,3.3-20.6c2.9-17.5,5.7-35,8.5-52.5c2.5-15.9,5-31.7,7.2-47.6c0.9-6.6,1.8-13.2,2.6-19.8c0.5-4.6,1-9.3,1.4-13.9
		c-2.2,15.7-4.7,31.3-7.3,46.8c-2.5,14.4-5,28.9-7.5,43.3C462,222.7,457.9,248.5,456.4,274.4L456.4,274.4z M272.7,6.9l-19.2,67.8
		c0.1,0.1,0.2,0.2,0.4,0.2c1.5,0.2,3.6-6.6,4-7.6c1.9-5.7,3.4-11.5,4.9-17.3c1.1-4,2.1-8,3.2-12c0.8-3.1,1.7-6.3,2.8-9.3
		c0.9-2.5,1.8-4.9,2.7-7.4c0.5-1.6,1.1-3.2,1.5-4.8c0.5-1.9,0.7-3.5,0.8-5.4c0-0.2,0-0.5,0-0.7L272.7,6.9L272.7,6.9z"/>
</g>
</svg>
