<?xml version="1.0" encoding="utf-8"?>
<!-- Generator: Adobe Illustrator 21.1.0, SVG Export Plug-In . SVG Version: 6.00 Build 0)  -->
<svg version="1.1" id="Layer_1" xmlns="http://www.w3.org/2000/svg" xmlns:xlink="http://www.w3.org/1999/xlink" x="0px" y="0px"
	 viewBox="0 0 720 389.5" style="enable-background:new 0 0 720 389.5;" xml:space="preserve">
<style type="text/css">
	.st0{fill:#333232;}
	.st1{fill-rule:evenodd;clip-rule:evenodd;fill:#333232;}
</style>
<g>
	<path class="st0" d="M137.8,177.2c-11.4,29.4-30.2,52.9-73,48.3c-30-3.2-44.2-23.3-55.8-48.8C-2.4,151.6-1.8,100.5,4.4,73.6
		c6-26.4,16.8-51.3,42-64.4c48.1-24.9,86.7,24.8,74.4,50.6c-2.2,4.6-12.7,12.3-9.2,3.8c1.6-3.9,2.2-8-1.2-1.2
		c-1.6,3.1-2.3,4.8-4,4.4c-7-1.6-6.6-1.7-9.2-14.4C94.5,39.6,90,35.6,81.5,25.2C58.8,45.9,56.7,152.3,66.1,186.9c2,7.3,5,13,9,17
		c6.7,2.1,13.2,2.1,19.6-0.2c18.2-6.5,26.3-30.8,32.4-49.6L132,136c-2.5-24.3-2-39.8,3.5-65.4C141.8,41.2,159.2-1.3,195,0
		c28.8,1.1,32,37.7,25.6,60.4c-2.1,7.2-5.9,16.1-11.4,26.6c-24.3,46.9-22.2,19-20.4,60.2c0.5,11.1,3,68.3,4.6,62.6l6.4-29.8
		c8.3-29.7,31.5-94,72.8-80c44.2,15,10.9,110.2,2.8,137.1c-5.4,17.9-9.3,36.3-10.4,55.2c20.2-23.5,49.7-104.5,61.3-143.9
		c2.6-21.5,9.6-43,19.5-56c22.1-29.1,61.5-43,94.9-27.6c4.9,2.3,5.4,6.4,7.4,4.4c1-1,12.6,3.4,10.8,25.2
		c-2.3,27.9-28.3,124.9-18.8,135.9c6.3,7.3,18.8-19.5,19.6-21.2c9.7-20.7,22.4-71.4,22.8-72.3c1.5-6.3-10.8-17.3,0-44.3
		c6.4-16.1,31.8-28,50.4-19c38.4,18.6,41.9,60.2,36.4,98.7c19.7-8,24.2-24.9,30.8-36.7C574.9,95,613.6,54.3,650,73.4
		c22.6,11.9,15.1,44.7,10,41.4c-1.5-1-1.6,4-1.6-4.2c0-5.9-2.1,2.7-3.2,5.8c-1.3,0-2.4-1.2-3.2-3.6l-0.8,2l-3.2-2
		c-2.4-5.4-0.6-26.2-12.8-30.8c-8.1-3-11.7,2-13.2,10c-2.3,12.8,1,17.8,8.2,28.8c7.8,11.9,23.2,32.1,34.2,40.4
		c47.5-16.4,34.1-26.2,45-28.8c13.8-3.2,24,22.4-35,44c10,16.2,15,29,15.8,49c2.7,66.1-54.6,67.7-73,47
		c-12.8-14.4-11.1-44.2-4.8-61.8c4.2-11.7,11.3-23.5,18.8-35c-7.8-9.1-14.2-16.9-19.4-23.5l-10.6,16.7
		c-10.4,13.3-22.8,21.2-37.2,23.6c-15.1,56.4-68.5,51.7-83.6,14.2c-10.6,32.5-27.3,61.1-64.7,42.1c-16-8.2-19.2-42-21.6-59.2
		c-8.7,22.7-12.7,30-38.2,30c-11.6,0-22.7-11.6-26.9-24.8c-10.4,30.9-22.6,64.4-34.7,86.7c-32.7,60.6-74,34.1-73-16
		c0.6-26.4,17.6-79.2,26.6-104.9c5-14.3,10.2-31,7.8-46.2c-23.6,9.1-39.1,53.1-43.2,76.6c-3.6,20.5-8.2,73.2-11.2,84.6
		c-0.4,1.5-4,7.3-6,5.6l-4.4,0.4l-1.6-1.6c0,9.6-21-4.2-33.8-38.2C147.3,219.6,141.7,198.8,137.8,177.2L137.8,177.2z M644,264.3
		c18.2-18.2,1.5-67.6-0.4-69c-3.1-2.3-20.8,34.6-8.8,61.2C636.6,260.4,640.7,267.6,644,264.3L644,264.3z M40.3,34.8
		c5.7-9.6,0.6-4.3-3.2,2.6c-7.9,14.2-9.6,23.6-12,38.2C29.5,62.5,34.1,47.2,40.3,34.8L40.3,34.8z M56.7,39.6l2.8-8
		c0,0-5.7,1.9-8.8,16l-4.4,22L56.7,39.6L56.7,39.6z M342.4,133.8c2.1,1.3,3,3.2,3.3,5.4l6.1-23.2
		C358.7,98.7,344.5,123.3,342.4,133.8L342.4,133.8z M167.5,28l1.6-5.2l-7.6,11.6c-5.7,10.7-9.2,46.6-7.6,39.6
		C157.1,59.5,161.7,41,167.5,28L167.5,28z M198.6,14.8c-13.6,0-7.7,76.6-10.6,80.6c2.2-2.7,25-44.5,17.8-63.8
		C204.9,28.9,200.8,14.8,198.6,14.8L198.6,14.8z M188,95.5c0,0.1-0.1,0.1-0.1,0.1C187.9,95.6,187.9,95.5,188,95.5L188,95.5z
		 M222.6,137.6l1.6-4c-2.7,0-16.2,33.2-18.6,41.6l-5.8,26.8c0.3-0.3,0.8-2.3,1.6-6C206.8,173.3,213.8,153.8,222.6,137.6L222.6,137.6
		z M283.4,178.7l-15.2,53.2C269.6,227.9,285,180.4,283.4,178.7L283.4,178.7z M233.8,231.1c4.1-12.7,28.8-84.7,26.4-89.6
		C250.7,173.5,240.3,198.6,233.8,231.1L233.8,231.1z M239.8,243.1c-2.1,14.5,0.5,1.7,3.2-7.2c5-16.7,24-78.6,24-92.8
		c0-0.5,0-0.9,0.1-1.2C258.8,171.5,243.1,216.5,239.8,243.1L239.8,243.1z M255.8,252.3c1.3-4.9,27.6-96.3,23.6-96.3
		c-7.1,24.5-24.4,77.7-24.4,100.3L255.8,252.3L255.8,252.3z M440.1,101.2c-3.9,18.7-12.8,71.2-12.8,88.8L444.5,92
		C443.6,89.7,440.2,100.7,440.1,101.2L440.1,101.2z M358.2,149.1c2.3-12.8,7.7-24.9,10.8-37.2C359.4,112,350.9,182.7,358.2,149.1
		L358.2,149.1z M373.4,191.1c4.7-6.3,28.2-56.4,30-64c3.6-15.3,4.7-28.2,12-42.4c1.4-2.8-28.7,3.3-42.8,61.4
		c-3,12.3-4.9,36.3-2.4,48.6L373.4,191.1L373.4,191.1z M497.3,108.8l9.2-4l-0.4,3.6c0,0,6.4-8.1,6.4-2.6l3.2-1.4
		c0,6-3.2,4.7,0.6,3.4c1-0.3,4.6-5.2,4.6,0.6l1.6-2c3.4,5.2,3.6,5.5,1.2,16.2l-6.8,32.2c7.1,10.4,17.5,18,31.2,20.4
		c21.5-85.9-46.3-113.1-50.4-70.4L497.3,108.8L497.3,108.8z M529.3,212.7l12.8-20.8c-10.1,1-27.5-11.2-26.1-11.6
		C512.1,180.9,526.9,215,529.3,212.7L529.3,212.7z"/>
	<path class="st1" d="M59.6,347.5c0.8-1.1,1.9-1.9,3.3-2.1c1.1-0.2,2.3,0.1,3.2,0.8c0.9,0.7,1.5,1.7,1.6,2.9
		c0.1,0.8,0.3,2.9-0.6,3.3c-0.3,0.2-0.7,0.2-1,0.3c-0.5,0.2-0.8,0.5-1,1c-1,2.1-0.8,7.3-0.7,9.5c0.1,3-0.3,6-1.4,8.8
		c-2.9,7.7-9.7,13.3-17.6,15.3c-8.3,2-16.7,0-22.8-6c-4.6-4.6-7.2-10.8-7.2-17.2c-0.1-25.3-0.2-50.6,0-75.9
		c0.1-9.3,4.6-17.3,13.1-21.3c2.6-1.3,5.5-2,8.4-2.3c3.6-0.4,7.2,0,10.7,1.1c8.1,2.7,13.4,9,15.2,17.2c0.5,2.3,0.5,5,0.5,7.4
		c0,2.2-0.1,4.5,0,6.7c0,0.7,0.1,3.1,0.8,3.5c1.6,0.8,2.6,2.2,2.6,4c0,1.5-0.8,3-2,3.8c-2.1,1.4-4.4,0.2-6-1.4
		c-2,1.2-5.9,2.8-7.7,0.4c-1.4-1.9-0.7-5.5,1.4-6.5c1-0.5,1.2-2.2,1.3-3.1c0.2-1.8,0.1-3.7,0-5.5c-0.1-1.3-0.1-2.6-0.1-3.9
		c-0.1-5.7-2.9-10.4-8.1-12.7c-1.4-0.6-3-1-4.5-1.2c-1.9-0.2-3.8,0-5.6,0.5c-5.3,1.5-8.7,5.7-9.7,11.1l-0.1,78.5
		c0,18.1,27.4,17.5,29.1,1.5l-0.5-12.2c-2.2-1.2-3.3-3.6-2.2-6c0.5-1,1.4-1.8,2.5-2.1c1.2-0.4,2.4-0.4,3.5,0.2
		C58.4,346.3,58.9,347,59.6,347.5L59.6,347.5z M75,369.5c-0.1-27.6,0.1-55.2-0.1-82.8c0-1.1,0.1-2.2,0.2-3.3
		c1.5-10.3,10.3-18.8,20.7-20c5.2-0.6,10.5,0.3,15.1,2.9c4.2,2.3,7.7,5.9,9.9,10.2c1.6,3.2,2.5,6.7,2.5,10.2c0,26.5,0.1,53,0,79.5
		C123.1,395,79.5,398.3,75,369.5L75,369.5z M130.4,369.5c-0.1-27.6,0.1-55.2-0.1-82.8c-0.1-10,5.2-17.3,14.2-21.1
		c3.4-1.4,7.2-2.3,10.8-2.4c1.8-0.1,5.4,0,6.9,1.2c0.1,0.1,0.8,1.3,0.9,1.4c0.7,1.2,1.5,2.3,2.2,3.4c2.2,3.3,4.7,6.5,7.5,9.4
		c1.7,1.7,3.5,3.3,5.5,4.6c0,0,0,0,0,0l0.2,83C178.7,395,135,398.4,130.4,369.5L130.4,369.5z M232.7,321.6c1.2,1.4,2.5,2.8,3.7,4.2
		c1,1.1,1.9,2.3,2.7,3.6c2.1,3.4,2.8,7.4,3.2,11.4c0.9,7.6-0.1,15-1.1,22.5c-0.4,2.8-0.8,5.8-0.7,8.6c0.1,1.9,0.4,4.1,1.7,5.6
		c1.1,1.2,2.7,1.6,4.3,1.7c7,0.4,6.2,9.3,0.5,9.4c-4.8,0.1-9.7-1-12.7-5.1c-3.2-4.4-3.2-11-2.9-16.1c0.2-2.7,0.4-5.4,0.7-8.1
		c0.3-3.7,0.6-7.4,0.7-11.1c0.1-2.7,0-5.4-0.3-8.1c-0.4-3.3-1.3-6.9-3.9-9.1c-2.2-1.8-5.3-2.4-8.1-2.6c-2-0.2-4-0.2-5.9-0.2
		c-2.4,0-4.8,0-7.3,0l-0.7,46.7c-0.1,6.7,12-0.9,12.2,7.8c0,1.2-0.3,2.4-1.1,3.3c-2.3,2.6-7.1,2.2-10,1.4c-2.3-0.6-4.8-1.7-6.5-3.3
		c-0.9,0.7-1.8,1.4-2.7,2.1c-2.4,1.7-4.7,1.9-7.6,1.6c-6.6-0.8-6.7-9.6,0.5-10c4-0.2,4.1-0.1,4.2-4.1l1.1-88.1c0,0,0,0,0,0
		c1.5-0.2,2.8-0.8,4-1.7c2.5-2,3.9-5.2,4.8-8.2c0.5-1.8,0.9-3.7,1.2-5.6c0.2-1.5,0.4-3.1,0.7-4.6c0,0,0,0,0,0l10.1-0.8c0,0,0,0,0,0
		c0,0,0,0,0,0l0.3,9.5c0,0,0,0,0,0s0,0,0,0c-3.1-0.5-6.4,0-9.3,1c-1.7,0.6-1.3,15.5-1.3,17.3c0.1,3.7,0.2,7.4,0.2,11.1
		c0,1.3,0,2.7,0,4c0,0.6,0,1.6-0.2,2.1c0,2-0.1,4-0.1,6c0,0.8,0,2.3,0.7,2.8c0.3,0.2,0.7,0.3,1,0.3c2.3-0.1,4.7-0.1,7-0.3
		c6.9-0.5,11.7-2.7,14.2-9.7c0,0,0,0,0,0c0,0,0,0,0,0l7.4,6.7c0,0,0,0,0,0.1L232.7,321.6L232.7,321.6z M303.2,273.4
		c8.9,7.5,12.4,21.4,13.9,32.5c1.3,9.7,1.5,19.7,1.1,29.5c-0.3,7.8-1,15.8-2.6,23.5c-1.1,5.3-2.7,10.6-5.2,15.4
		c-3.2,6.2-7.9,11.2-14.8,13c-5,1.3-10.2,0.7-15.2-0.4c-1.9-0.4-3.8-0.9-5.6-1.2c-0.8-0.1-2.5-0.4-3.2,0.2c-2.1,1.7-4.8,2.6-7.5,2.6
		c-2.1,0-4.5-0.7-5.7-2.6c-0.6-0.9-0.8-2-0.7-3.1c1-8.7,9.8,0.8,9.8-9.4v-56c0,0,0,0,0,0l10.7-7.6c0,0,0,0,0,0s0,0,0,0l0,17.7
		c0,15.8,0,31.6,0,47.4c0,1.3,0.2,2,1.7,2.2c1.8,0.2,3.5,0.7,5.3,1c5.1,1,9,0.8,12.9-3c4.5-4.2,6.9-12.7,8.2-18.5
		c1-4.5,1.6-9,2.1-13.6c0.5-4.9,0.7-9.9,0.7-14.8c0-9-0.7-18.5-2.6-27.3c-1.3-6-3.6-14-7.9-18.6c0,0,0,0,0,0
		C300.1,279.3,301.6,276.3,303.2,273.4C303.1,273.4,303.1,273.4,303.2,273.4C303.1,273.4,303.1,273.4,303.2,273.4L303.2,273.4z
		 M274.9,269.8c-1.4,2.7-2.9,5.4-4.5,8c0,0,0,0,0,0c0,0,0,0,0,0c0.4-3,0.9-6,1.4-8.9c0,0,0,0,0,0c0,0,0,0,0,0c0.3,0.3,0.7,0.8,1,1
		C273.5,270.2,274.2,270,274.9,269.8C274.9,269.8,274.9,269.8,274.9,269.8C274.9,269.8,274.9,269.8,274.9,269.8L274.9,269.8z
		 M341.4,384.6c-7.9,9.9-20.8,0.7-13.7-4.6c4.2-3.1,8,2.1,8-6c0-31.3,0-62.6,0-93.9c0-8.4-9.5-0.3-9.8-8.8c0-1.2,0.3-2.4,1.1-3.3
		c1.6-1.9,4.5-2.3,6.8-1.9c3.1,0.5,6,2.2,7.9,4.7c1.5-2.9,4.4-4.6,7.7-4.8c2.5-0.2,5.6,0.5,7,2.8c0.4,0.7,0.6,1.6,0.6,2.4
		c-0.4,8.1-9.8,1.7-9.8,8v96.3c0,2.6,0.7,3.3,3.3,3.5c2.4,0.1,6.2,0.8,6.6,3.8c0.2,1.3-0.3,2.5-1.1,3.5c-0.9,1.2-2.3,2.1-3.7,2.5
		c-1.7,0.6-3.5,0.5-5.2,0C344.8,388,342.9,386.4,341.4,384.6L341.4,384.6z M380.1,384.6c-2.7,3.4-6.3,4.5-10.5,4.1
		c-2-0.2-3.7-1.2-4.5-3c-0.6-1.5-0.6-3.3,0.4-4.7c0.4-0.6,1-1.1,1.7-1.4c1.1-0.5,2.3-0.6,3.5-0.6c0.8,0,1.9,0,2.7-0.4
		c1.1-0.6,1.2-2.3,1.2-3.4c0-31.5,0-62.9,0-94.4c0-8.3-8.5-1.4-9.8-9.1c-0.2-0.9-0.1-1.9,0.4-2.7c1.3-2.4,4.6-3.1,7-3
		c3.4,0.2,6.6,2,8.5,4.9c0.5,0.8,1,1.7,1.4,2.6c0.6,1.3,1.2,2.6,1.7,3.9c1.5,3.6,2.8,7.3,4.1,10.9c3.4,9.7,6.7,19.5,9.8,29.2
		c2.7,8.4,5.4,16.8,8.2,25.2c1.1,3.5,2.3,7,3.5,10.4c0.9,2.6,1.8,5.2,2.7,7.8c0.7-2.5,0.3-72.1,0.3-80.3c0-3.3-1-4.5-4.4-4.6
		c-2.1-0.1-4.3-1.1-5.2-3.1c-0.6-1.4-0.4-2.9,0.3-4.2c0.2-0.3,0.4-0.6,0.7-0.9c1.2-1.4,3.2-1.9,5-1.9c2.1,0,4.3,0.5,6.1,1.6
		c1,0.6,2,1.3,2.8,2.2c2.6-2,6.1-3.9,9.4-3.8c2.1,0,4.2,0.9,5.3,2.8c0.4,0.8,0.6,1.7,0.6,2.6c-0.2,7.2-9.4,2.3-9.8,7.3l0,100.7
		c0,3.4-1.8,6.3-5.1,7.4c-1.9,0.7-4,0.6-5.8-0.2c-2.1-0.9-3.5-2.7-4.3-4.9l-22.9-66.7l0.6,50c0,1.6,0,3.3,0,4.9c0,1.3,0,2.7,0,4
		c0,1.3,0.1,3.8,1.3,4.7c0.4,0.3,0.8,0.4,1.3,0.4c2.5,0.1,5.9,0.9,6.4,3.8c0.4,2.6-1.7,5-4,5.9c-1.6,0.6-3.2,0.5-4.8,0
		C383.5,387.9,381.6,386.3,380.1,384.6L380.1,384.6z M492.8,384.3c-3.6,9.4-17.1-0.6-5.2-6.3c-1.8-11.8-3.5-23.5-5.3-35.3
		c-3.9,0-7.9,0-11.8,0c-1.3,0-2.5-0.1-3.7-0.2c-0.7-0.1-1.6-0.1-2.3,0.2c-0.8,0.4-1.2,1.2-1.5,1.9c-0.6,1.5-1,3.5-1.4,5.1
		c-0.7,3.2-1.2,6.4-1.8,9.6c-0.9,5.2-1.9,10.3-2.9,15.5c-0.2,1-0.4,1.9-0.6,2.9c0,0.3-0.2,0.8,0,1c0.1,0.2,0.4,0.3,0.6,0.3
		c0.5,0.2,0.9,0.3,1.4,0.5c7.4,3.5-1.6,15.5-7.2,5.5c-1.1,2.4-3.1,4.8-6,4.4c-1.7-0.2-3.1-1.4-4.1-2.7c-0.9-1.2-1.4-2.8-1.2-4.3
		c0.3-2.5,2.4-3.9,4.6-4.5l20.8-99.2c0.3-1.6,0.4-2.5-1.2-3.4c-1.2-0.7-2.1-1.8-2.5-3.2c-0.5-1.6-0.2-3.4,0.6-4.9
		c0.7-1.3,1.7-2.4,3-3.1c3.3-1.7,6.5,0.4,8.7,2.9c1.9-2.3,4.6-4.1,7.7-3.2c2,0.6,3.9,2.4,4.4,4.5c0.4,1.7,0.5,3.6-0.5,5.2
		c-0.3,0.5-0.7,0.9-1.2,1.3c-0.4,0.3-0.7,0.7-1,1.1c-0.2,0.4-0.3,0.9-0.2,1.4l14.8,95.9c0.1,1,0.2,2.8,0.9,3.6
		c0.4,0.5,1,0.7,1.6,0.9c1.6,0.4,2.9,1.3,3.5,2.9c0.6,1.7,0.1,3.7-0.8,5.2c-0.9,1.4-2.2,2.6-3.9,3
		C496.2,389.3,494,386.7,492.8,384.3L492.8,384.3z M572.7,275.2c1.5,1.5,2.9,3.6,3.1,5.7c0.1,1.5-0.4,2.8-1.5,3.8
		c-0.5,0.4-1.1,0.8-1.8,1c-6.6,2-3.2-5.9-7.8-6c-1.9,0-3.9-0.1-5.8-0.2c-1.5-0.1-3-0.1-4.6-0.2c-1.3,0-4.1-0.1-4.9,1.1
		c-0.2,0.3-0.3,0.7-0.3,1.1l0,93.6c0,3.2,0.8,3.9,3.9,4c8.9,0.4,6.9,9.3,0.9,9.8c-2.5,0.2-5,0-7.1-1.3c-0.7-0.4-1.3-0.9-1.9-1.5
		c-0.5-0.4-1-0.9-1.5-1.2c-2.2,2.8-5.5,4.5-9.2,4.2c-2.4-0.2-5.5-1.5-6.2-4c-0.4-1.5,0.1-2.9,1-4.1c3.8-5,8.7,2.6,8.7-7.2
		c0-30.6,0-61.3,0-91.9c0-2.3,0-2.3-2.3-2.3c-1.9,0-3.9,0-5.8-0.1c-1.4,0-2.7-0.1-4.1-0.1c-1.2,0-3.3-0.1-4.2,0.8
		c-0.5,0.5-0.7,1.2-0.8,1.8c-0.3,1.8-1.4,3.3-3.3,3.7c-2,0.4-4.2-0.7-5-2.5c-1.4-2.9,0.7-6,2.6-7.9c-1.1-1.1-1.9-2.5-2.4-4
		c-0.9-2.6-1.4-6.8,0.9-8.9c0.9-0.9,2.2-1.2,3.4-1.1c6.3,0.4,1.2,7.6,6.5,7.6c13.6,0,27.1,0,40.7,0c1.1,0,2.3-0.2,2.9-1.2
		c0.5-0.7,0.5-1.7,0.6-2.6c0.1-0.8,0.2-1.7,0.6-2.5c0.8-1.3,2.5-1.4,3.8-1.4c0.8,0,1.5,0.3,2.1,0.7c2.2,1.7,2.2,5.5,1.6,8
		C575.1,272,574.2,273.9,572.7,275.2L572.7,275.2z M607.5,263.2c1.5,3.9,3.5,7.6,6.1,10.9c0,0,0,0,0,0c0,0,0,0,0,0
		c-3.5-1.5-7.4-1.4-10.9,0.1c-5.3,2.3-8.6,7.3-8.6,13.1c0,26.2-0.1,52.5,0,78.7c0.1,17.5,28.4,18.8,28.4-1.3c0-25.6,0-51.2,0-76.8
		l-1.7-7.4c0,0,0,0,0,0c0,0,0,0,0,0l11.6,5.6c0,0,0,0,0,0l0,80c0,28.8-43.6,32.2-48.2,3.3l-0.1-82.8c0-2.5,0.4-5,1.3-7.4
		C588.6,269.8,597.5,263.6,607.5,263.2C607.5,263.2,607.5,263.2,607.5,263.2L607.5,263.2z M686.6,321.6c1.2,1.4,2.5,2.8,3.7,4.2
		c1,1.1,1.9,2.3,2.7,3.6c2.1,3.4,2.8,7.4,3.2,11.4c0.9,7.6-0.1,15-1.1,22.5c-0.4,2.8-0.8,5.8-0.7,8.6c0.1,1.9,0.4,4.1,1.7,5.6
		c1.1,1.2,2.7,1.6,4.3,1.7c7,0.4,6.2,9.3,0.5,9.4c-4.8,0.1-9.7-1-12.7-5.1c-3.2-4.4-3.2-11-2.9-16.1c0.2-2.7,0.4-5.4,0.7-8.1
		c0.3-3.7,0.6-7.4,0.7-11.1c0.1-2.7,0-5.4-0.3-8.1c-0.4-3.3-1.3-6.9-3.9-9.1c-2.2-1.8-5.3-2.4-8.1-2.6c-2-0.2-4-0.2-5.9-0.2
		c-2.4,0-4.8,0-7.3,0l-0.7,46.7c-0.1,6.7,12-0.9,12.2,7.8c0,1.2-0.3,2.4-1.1,3.3c-2.3,2.6-7.1,2.2-10,1.4c-2.3-0.6-4.8-1.7-6.5-3.3
		c-0.9,0.7-1.8,1.4-2.7,2.1c-2.4,1.7-4.7,1.9-7.6,1.6c-6.6-0.8-6.7-9.6,0.5-10c4-0.2,4.1-0.1,4.2-4.1l1.1-85.8c0,0,0,0,0,0
		c3.7-0.4,7.4-1.2,10.9-2.4c0,0,0,0,0,0c0,0,0,0,0,0c0,4,0,8.1-0.1,12.1c0,2.5-0.1,5-0.1,7.5c0,0.9-0.1,1.9-0.1,2.8
		c0,0.6,0,1.2-0.1,1.7c0,2-0.1,3.9-0.2,5.9c0,0.8-0.1,2.1,0.5,2.7c0.6,0.7,2,0.6,2.8,0.6c0.9,0,1.9-0.1,2.8-0.2
		c1.3-0.1,2.7-0.2,4-0.3c3.5-0.3,6.7-1.5,9.1-4.1c4.5-4.7,5.4-12.3,4.9-18.5c-0.3-3.9-1.2-8-2.7-11.6c-1.1-2.7-2.8-5.9-5.1-7.7
		c0,0,0,0,0,0c0,0,0,0,0,0l6.4-7.4c0,0,0,0,0.1,0c4.2,3.4,6.8,8.2,8.4,13.3c1.7,5.7,2.8,11.7,2.6,17.7c-0.1,4.2-0.8,8.3-2.3,12.2
		C691.3,315.4,689.1,319.2,686.6,321.6L686.6,321.6z M113.2,288.1c0-19.9-28.5-19.3-28.5-0.6c0,26.2-0.1,52.5,0,78.7
		c0.1,17.5,28.4,18.8,28.4-1.3C113.3,339.3,113.2,313.7,113.2,288.1L113.2,288.1z M140.2,287.5c0,26.2-0.1,52.5,0,78.7
		c0.1,17.5,28.4,18.8,28.4-1.3c0-25.6,0-51.2,0-76.8C168.7,268.2,140.2,268.7,140.2,287.5L140.2,287.5z M465.6,331.7
		c5,0,10,0,15.1,0c-2.1-13.9-4.2-27.8-6.2-41.8c-0.1,0-0.3,0-0.4,0C471.2,303.9,468.4,317.8,465.6,331.7L465.6,331.7z"/>
</g>
</svg>
