<?xml version="1.0" encoding="utf-8"?>
<!-- Generator: Adobe Illustrator 21.1.0, SVG Export Plug-In . SVG Version: 6.00 Build 0)  -->
<svg version="1.1" id="Layer_1" xmlns="http://www.w3.org/2000/svg" xmlns:xlink="http://www.w3.org/1999/xlink" x="0px" y="0px"
	 viewBox="0 0 720 727.8" style="enable-background:new 0 0 720 727.8;" xml:space="preserve">
<style type="text/css">
	.st0{fill:#333232;}
</style>
<g>
	<path class="st0" d="M187.8,0v159.6h100.3v-33.6h-61.4V95h51.2V61.4h-51.2V33.6h61.4V0H187.8L187.8,0z M336.2,0l-38.1,159.6h41.8
		l6.3-32.3h33.2l6.5,32.3h41.5L389.4,0H336.2L336.2,0z M362.8,45l9.8,48.7h-19.6L362.8,45L362.8,45z M496.4,33.6h35.8V0H421.7v33.6
		h35.8v126.1h38.9V33.6L496.4,33.6z"/>
	<path class="st0" d="M116.7,285c22.5,3,25.8,8.7,25.8,18.4c0,7.8-5.5,14.9-18.8,14.9h-2c-13.3,0-19.4-7-19.4-24.6H63.2v1.8
		c0,40.1,20.5,56.3,59.4,56.3c39.1,0,59.4-18.2,59.4-49.5v-2.3c0-31.3-18.6-42.4-53.4-47.1c-22.4-3-24.8-8.1-24.8-18.4
		c0-8.2,5.5-14.5,16.8-14.5h2c14.3,0,19.4,8.6,19.4,26.6h38.9v-4.3c0-38.7-18-55.9-58.3-55.9c-38.5,0-58.3,19.4-58.3,49.1v2.3
		C64.3,269.2,81.9,280.3,116.7,285L116.7,285z M293.5,349v-33.6h-56.3V189.4h-38.9V349H293.5L293.5,349z M306.8,189.4V349h100.3
		v-33.6h-61.4v-31.1h51.2v-33.6h-51.2V223h61.4v-33.6H306.8L306.8,189.4z M425.5,189.4V349h100.3v-33.6h-61.4v-31.1h51.2v-33.6
		h-51.2V223h61.4v-33.6H425.5L425.5,189.4z M583.1,294.2h16.2c27,0,57.5-6.1,57.5-50.3v-4.1c0-44.2-30.5-50.3-57.5-50.3h-55.1V349
		h38.9V294.2L583.1,294.2z M583.1,260.6V223h17.8c7.6,0,16.6,2.9,16.6,18v1.6c0,15.1-9,18-16.6,18H583.1L583.1,260.6z"/>
	<path class="st0" d="M38.9,673h10.8l20.9,54.8h42L88,667.7c14.1-6.3,24.6-19,24.6-45v-4.1c0-44.2-30.5-50.3-57.5-50.3H0v159.6h38.9
		V673L38.9,673z M38.9,639.4v-37.7h17.8c7.6,0,16.6,2.9,16.6,18v1.6c0,15.1-9,18-16.6,18H38.9L38.9,639.4z M130,568.2v159.6h100.3
		v-33.6h-61.4v-31.1H220v-33.6h-51.2v-27.8h61.4v-33.6H130L130,568.2z M287.6,673h16.2c27,0,57.5-6.1,57.5-50.3v-4.1
		c0-44.2-30.5-50.3-57.5-50.3h-55.1v159.6h38.9V673L287.6,673z M287.6,639.4v-37.7h17.8c7.6,0,16.6,2.9,16.6,18v1.6
		c0,15.1-9,18-16.6,18H287.6L287.6,639.4z M375.6,568.2v159.6h100.3v-33.6h-61.4v-31.1h51.2v-33.6h-51.2v-27.8h61.4v-33.6H375.6
		L375.6,568.2z M523.9,568.2l-38.1,159.6h41.8l6.3-32.3h33.2l6.5,32.3h41.5l-38.1-159.6H523.9L523.9,568.2z M550.5,613.2l9.8,48.7
		h-19.6L550.5,613.2L550.5,613.2z M684.2,601.8H720v-33.6H609.5v33.6h35.8v126.1h38.9V601.8L684.2,601.8z"/>
	<path class="st0" d="M234.9,540.3c27.3,0,45.9-29.7,62.5-83.8c5.6,12.9,16.3,22.7,33.1,22.7c18.8,0,32.6-14.6,39.7-32
		c13.6,0,27-3.9,38.4-19.1l-1.1,46.3c0,10.7,25.8,10.4,27.8,0.2c6.3-29,23-89.1,30.6-89.1c9.5,0,0.2,65.4-4.9,87
		c-2.3,9.3,25.1,12.1,27.6,2.3c6.3-24.4,22.2-68.2,34-68.2c9.7,0,6.7,28.5,3.2,56.2c-3.5,38.3-9.6,77.5,17.1,77.5
		c34.1,0,54.5-46.2,74.5-128.3c1.9-7.7,3.2-9.7-2.6-11.4c-5.6-1.6-4.9,2.1-6.7,9.3c-17.6,68-39.4,113-52.9,113
		c-8.8,0-3.2-38.1-1.2-59.9c3.9-32.7,7.9-68.9-16.4-68.9c-17.6,0-31.8,10.7-41.5,30.9c2.7-29-0.2-58.2-20.7-58.2
		c-18.8,0-30.6,37.1-39.4,68l0.7-30.2c0-11.1-27.8-9.3-27.8-0.2l-0.1,5.8c-8.6,19.3-20.4,28.8-36.7,27.8c6.5-31.3,6.5-68-20.8-68
		c-16.3,0-25.1,13-26.3,28.1c-3.7-1.9-7.7-3-10-3c-15.4,0-23.8,20.6-22.4,41.4c-16,52.9-33.9,86.5-45.5,86.5
		c-8.8,0-3.2-38.1-1.2-59.9c3.9-32.7,7.9-68.9-16.4-68.9c-17.6,0-31.8,10.7-41.5,30.9c2.7-29-0.2-58.2-20.7-58.2
		c-18.8,0-30.6,37.1-39.4,68l0.7-30.2c0-11.1-27.8-9.3-27.8-0.2l-1.6,70.1c0,10.7,25.8,10.4,27.8,0.2c6.3-29,23-89.1,30.6-89.1
		c9.5,0,0.2,65.4-4.9,87c-2.3,9.3,25.1,12.1,27.6,2.3c6.3-24.4,22.2-68.2,34-68.2c9.7,0,6.7,28.5,3.2,56.2
		C214.2,501.1,208.1,540.3,234.9,540.3L234.9,540.3z M362.7,437.7c-30.9,0-38.8-58.5-11.4-58.5C369.4,379.3,368.3,409.9,362.7,437.7
		L362.7,437.7z M339.2,467.4c-18.4,0-22.3-35.7-13.5-56.6c3,16.7,14.6,32.9,34.8,36C356,457.7,347.8,467.4,339.2,467.4L339.2,467.4z
		"/>
</g>
</svg>
