<?xml version="1.0" encoding="utf-8"?>
<!-- Generator: Adobe Illustrator 21.1.0, SVG Export Plug-In . SVG Version: 6.00 Build 0)  -->
<svg version="1.1" id="Layer_1" xmlns="http://www.w3.org/2000/svg" xmlns:xlink="http://www.w3.org/1999/xlink" x="0px" y="0px"
	 viewBox="0 0 720 310" style="enable-background:new 0 0 720 310;" xml:space="preserve">
<g>
	<path d="M94.2,251.6c2.5-16.3,5.8-43.9,1.4-59c-1-3.4-1.4-6.6,1.3-9.1c3.4-3.2,9.7-3,11.8,1.3c1.2,2.5,1.5,6.7,1.7,9.9
		c4.5-7.8,11.6-15.9,21.4-15.9c11.1,0,18.9,8.6,21.5,19c1.9-3.5,3.9-6.9,6.1-10.1c4.2-6,12.5-10.6,19.6-8.9
		c10.7,2.5,16.6,13.7,16.6,24.2c0,12.4-3.1,27.7-2.7,37.4c0.1,2.8,0.9,4.3,2.2,4.7c2.3,0.6,4.5-0.1,6.6-2c4.4-4,7.8-10.4,10.3-15.9
		c0.4-0.9,0.8-1.8,1.1-2.5c-0.1-2.9,0.1-5.8,0.5-8.7c2.1-14.5,10.3-28.8,24.4-34.4c4.6-1.8,9.7-2.3,15.4-1.6
		c3.9-1.3,7.2-1.5,10.1-0.8c13.3,3.5,15.1,22.7,14.4,34.4c-0.2,3.3-0.7,7.9-1.3,10.8c4.6-0.2,8.3-1.5,12.2-3.7
		c0.4-8.6,0.2-20.6-1.9-28.1c-1-3.4-1.4-6.6,1.3-9.1c3.4-3.2,9.7-3,11.8,1.3c1.2,2.5,1.5,6.7,1.7,9.9c4.5-7.8,11.6-15.9,21.4-15.9
		c11.1,0,18.9,8.6,21.5,19c1.8-3.5,3.9-6.9,6.1-10.1c4.2-6,12.5-10.6,19.6-8.9c10.7,2.5,16.6,13.7,16.6,24.2
		c0,12.4-3.1,27.7-2.7,37.4c0.1,2.8,0.9,4.3,2.2,4.7c2.3,0.6,4.5-0.1,6.6-2c6.1-5.6,10.2-15.6,13.4-22.9c2.5-5.9,11.8-2,10.5,5
		c-1,4.1-2.4,8.2-4.2,12.3c-5.2,12.2-14.6,22.3-28.9,22.3c-12.3,0-15.7-14.3-15.7-24.1c0-12.5,3.8-21.7,3.8-31.7
		c0-3.5-0.5-10.3-4.2-10.3c-12.9,0-20.6,39.2-22.2,51c-1.2,9-15.6,5.9-15-1.1c0.2-1.1,0.5-3.1,0.8-6c1-7.9,5.4-43.9-7.5-43.9
		c-7.3,0-13,14.3-15.1,20.4c-4.1,12.2-6.7,25.6-7.7,38.3c-0.7,8.3-16.5,6.3-15.6-0.8c0.9-6.2,1.7-11.7,2.2-16.7
		c-5.2,2.2-11.3,3.3-16.8,3.3c-6.3,11.2-16.7,17.6-29.4,17.8c-10.2,0.2-18.2-4.1-23.3-12.4c-5.7,9.5-14,16.1-25.7,16.1
		c-12.3,0-15.7-14.3-15.7-24.1c0-12.5,3.8-21.7,3.8-31.7c0-3.5-0.5-10.3-4.2-10.3c-12.9,0-20.6,39.2-22.2,51c-1.2,9-15.6,5.9-15-1.1
		c0.2-1.1,0.5-3.1,0.8-6c1-7.9,5.4-43.9-7.5-43.9c-7.3,0-13,14.3-15.1,20.4c-4.1,12.2-6.7,25.6-7.7,38.3
		C109.1,260.6,93.5,258.9,94.2,251.6L94.2,251.6z M244.5,194.4c-16.1,3.6-26.8,44.1-4.3,48.5c5.7,1.1,14.1-4.9,16.8-10.5
		C244.7,225,241.4,207.8,244.5,194.4L244.5,194.4z M260.2,195.1c-2.4,1.4-3.7,3.4-4,6c-0.6,5.1,1.1,10.7,3.8,14.9
		c1.3,2.1,2.5,3.4,3.4,3.9C266.5,217.3,265.8,191.9,260.2,195.1L260.2,195.1z M477.7,146.8c12.7,3.2,8.1,24.4,5.2,33.9
		c-5.4,17.9-16.1,37.5-27.8,52.2c2.8,12.5,12.5,10.2,20.4,3.9c2.7-2.2,5.2-4.7,7.5-7.6c1.4-1.7,2.6-3.5,3.6-5.2
		c0.2-4.9,0.6-9.6,1.3-14.2c0.7-4.6,1.7-8.9,2.8-12.9c1.1-4,2.3-7.2,3.5-9.5c1.7-1.7,3.4-2.6,5.2-2.8c6.5-0.8,9.2,5.6,7.8,9.5
		c-0.8,1.8-1.6,4.1-2.4,6.9c-2.5,9.3-5.3,26.1-3,35.3c0.8,3.4,2.8,4.8,5.8,4.1c3.4-0.8,6.4-5.7,8.4-9.5c0.5-1,1.1-2.2,1.6-3.4
		l2.1-25.3c0.5-5.1,4.6-48.6,5.6-51.5c2.3-5,9.8-6.3,13.5-1.4c1,1.3,1.2,2.9,0.8,4.7l-7.8,83.6c12.1-0.8,23-7.5,32.1-15.2
		c0.8-15.1,4.7-38.9,21.1-44.6c12.9-4.5,23.1,3.6,22.7,17.9c-0.4,12.7-6.2,26-17.7,32.3c-3.7,2.1-8,2.9-12.8,2.6
		c0.2,6.3,1.4,15.1,7.9,17.5c4.5,1.7,11.7-1.6,15.7-4.5c7.5-5.4,13.8-14.2,15.9-22.9c1.4-5.9,12.4-1.7,10.8,3.3
		c-1.8,4.9-3.7,9.2-5.5,13c-5.1,10.8-11.7,18.4-23,22.4c-18.2,6.5-32.8-0.5-34.9-20.3c-3.9,2.8-11.2,7.6-15.3,8.7
		c15,16.4,11,65.7-14.9,62.3c-23.7-3.1-18.4-44.5-17.6-60.7c-4.5,4.4-9.5,7.5-16,5.7c-6.2-1.7-9.4-6.7-11.4-12.5
		c-16.7,18.1-41,20.2-48.4-7.1c-2.4-8.8-2.2-17.4-1.7-26.8C439.8,187.3,447,138.9,477.7,146.8L477.7,146.8z M469.5,161.3
		c-8.6-0.5-18.3,43.4-18.3,52c7.5-10.3,17.7-32.5,19.8-44.7C471.5,166.3,472.2,161.5,469.5,161.3L469.5,161.3z M497.8,175.9
		c-6.9-9.3,5.6-18.2,11.8-9.1C514.5,174,503.6,183.8,497.8,175.9L497.8,175.9z M534.4,293.5c13.7-0.5,13.5-38.5-3.4-40.6
		C530.4,258.3,525.6,294,534.4,293.5L534.4,293.5z M591.6,192.3c-7.2-4.7-13.4,18.5-12.5,25.2c3.9-0.8,6.9-2.4,9.2-4.8
		c4.1-4.4,6.3-10.1,5.6-15.6C593.7,194.6,592.9,193,591.6,192.3L591.6,192.3z"/>
	<path d="M46.8,134.9L17,51c-1.1-3-18,3-16.9,6l32.8,92.4c2.9,8.2,2.9,8.2,11.4,5.2L74.1,144c3-1.1-3-17.8-6-16.8L46.8,134.9
		L46.8,134.9z M87.3,31.5c-1.1-4.6-18.6-0.4-17.5,4.2l24.3,100.7c1.1,4.6,18.6,0.4,17.5-4.2L87.3,31.5L87.3,31.5z M156.5,54.4
		l-0.1,38L132.3,21c-1.6-4.9-18.8-0.5-16.8,5.8l32.5,97.1c1.6,4.7,26.5,0.7,26.5-4.3l0-102.4c0.1-6.4-17.6-5.1-17.8-0.2L156.5,54.4
		L156.5,54.4z M216.6,10.8c-0.5-4.7-18.4-2.9-17.9,1.8L209,115.7c0.5,4.7,18.4,2.9,17.9-1.8L216.6,10.8L216.6,10.8z M301,4.6
		c-0.3-4.7-17.6-3.7-17.3,1l3.3,56.5L260.6,7.8c-2.3-4.3-17.8-7-17.1,5.3l5.7,98.4c0.3,4.7,17.8,3.7,17.5-1l-3.3-57l27,56.6
		c1.8,3.8,16.9,2.8,16.5-5.1L301,4.6L301,4.6z M341.7,1.5c-2.2-2.2-10.6-2-12.8,0.4c-1.9,2.1-2.7,12.7,2.2,13.6
		c-0.3,0.8-0.8,1.6-1.1,2.4c-2.1,4.8,5.5,9.4,8.3,4.6C344.6,11.3,344.9,4,341.7,1.5L341.7,1.5z M398.3,1c-4.7-0.2-5.5,17.4-0.8,17.6
		l22.4,1.3l-4,88.9c-0.2,4.7,17.7,5.5,18,0.8l4-88.9l22.4,0.7c4.7,0.2,5.5-17.4,0.8-17.6L398.3,1L398.3,1z M543.6,15.6
		c0.5-4.7-17.5-6.8-18-2.1l-4.9,42.9l-20.2-2.3l4.9-42.9c0.5-4.7-17.3-6.7-17.9-2l-11.7,102.6c-0.5,4.7,17.3,6.7,17.9,2l4.8-42
		l20.2,2.3l-4.8,42c-0.5,4.7,17.5,6.8,18,2.1L543.6,15.6L543.6,15.6z M612.4,27.2c0.1-4.3-24.8-9.2-26.4-4.7l-34,95.6
		c-2.6,7.5,15.1,10.6,16.7,6l6.4-18.1l18.2,3.3l-0.2,19.2c-0.1,5.8,17.6,8.1,17.7,0.1L612.4,27.2L612.4,27.2z M593.5,91.2L581.2,89
		l12.9-36L593.5,91.2L593.5,91.2z M658.5,33.5c-4.5-1.4-9.9,15.4-5.4,16.8l21.2,7.2l-27.2,84.7c-1.4,4.5,15.7,10,17.1,5.5L691.5,63
		l21.4,6.6c4.5,1.4,9.9-15.4,5.4-16.8L658.5,33.5L658.5,33.5z"/>
</g>
</svg>
