<?xml version="1.0" encoding="utf-8"?>
<!-- Generator: Adobe Illustrator 21.1.0, SVG Export Plug-In . SVG Version: 6.00 Build 0)  -->
<svg version="1.1" id="Layer_1" xmlns="http://www.w3.org/2000/svg" xmlns:xlink="http://www.w3.org/1999/xlink" x="0px" y="0px"
	 viewBox="0 0 720 394.9" style="enable-background:new 0 0 720 394.9;" xml:space="preserve">
<g>
	<path d="M221.9,163.3c9.1,13.9,5.6,8.3,18.1,3c10.1-4.3,9.7-12.7,2.4-12.7c-3.8,0-7.7,5.4-10.9,2.6c-4.6-3.9-1.7-6.3-9.6-7.3
		c-3.3-0.4-5.2,4.1-4.7,6.6C217.5,157.7,221.5,162.6,221.9,163.3L221.9,163.3z M257.7,220.6c-1-6.2-6.8,5-16.9,8
		c-3.4,1-11.1,4.2-13.7-3.1c-6.1-17,8-41.9,1.7-45.4c-10.6-5.8-13.1,35.4-13.2,37.9c-0.7,18.6,7.6,25.2,25.4,20.3
		C248.5,236.3,261.7,228.7,257.7,220.6L257.7,220.6z M316.9,212.8c-5.1,1.7-10.6,6.8-20.5,11.1c-13.9,6-14.3,7.8-18.1,3.3
		c-42.2-49.6,0.5-49.5,7.3-32.5c0.5,1.2-0.2,12.5,7.3,8.9c10.2-4.9-5.3-30.8-29.7-25.5c-7,1.5-13.9,7-13.6,15.5
		c0.8,22.9,24.7,37.8,18.1,42.2c-20.2,13.5-14,29.8-9,31.5c0,0,0.2,0,0.2,0.2c9,6,28.9,4.4,30.4-9.7c2.8-25.9-17.1-12.7,23.1-32.3
		c2.3-1.1,8.4-3.4,9.2-5.4C324.6,212.1,319.9,211.6,316.9,212.8L316.9,212.8z M279,258.5c-3.5,6.6-18.9,3.2-16.3-4
		c1.8-5.1,7.2-10.4,11.8-11.5C275.4,242.8,283.4,249.5,279,258.5L279,258.5z M387.1,220.9c-3.5,5.3-17.5,16.8-23.3,7.5
		c-7.7-12.2-5.4-46.6-3.3-53c0.8-2.4,13.3-2,15.5-2.4c5.7-1.2,4.4-7.5,3.1-8c-2.6-1.1-11.3,0-14.8,0.2c-4.4,0.2-3.1-2.9-2.8-9.2
		c0.5-10.4,5.7-21.5-4.9-17.9c-1.9,0.5-2.3,1.7-2.4,7.8c-0.2,4-0.7,5.6-1.2,11.1c-1.5,13.5-6.4,6-18.2,8.2c-2.4,0.5-3.3,1.9-3.1,4.5
		c0.4,6.5,16.4,1.9,18.8,5.2c1.3,1.8-4.8,52.6,8.5,63.8c6.6,5.6,17.7,1.2,24.1-3c0.1,3.8,5.6,11.5,9.4,1.4c6-16,6.9-24.1,18.2-37.9
		c2.1-2.5,8.7-7.2,10.9-5.6c3.8,2.7-4.4,17.9,1.4,34.9c5.2,15.2,27.5,11.4,34.9,2.8c24.7,25.3,58.1-23.1,41.9-25.8
		c-5.6-0.9-4,19.1-23.3,25.2c-8.5,2.7-15.4-6.8-13-9.2c9.5-9.5,14.3-13.3,15.3-29.5c0.7-11.2-9.9-17.5-15.1-12.9
		c-11.3,10-16.4,32-10.6,44.9c-0.3,0.3-0.5,0.5-0.5,0.5c-3,4.5-26.9,14.4-22.4-12.3c2.3-13.6,2.4-17.4-0.5-23.5
		c-4.4-9-15.7-3-20.9,0.9c-11.5,8.6-5.9,8.8-3.3-21.2c0.6-7.3,3.7-38.7-8.9-32c-2.3,1.2-3.1,3.1-2.8,5.7
		C397.6,169.2,394,195.3,387.1,220.9L387.1,220.9z M459.4,211.6c0-8,2.1-17.5,8.2-23.3c3.5-3.5,5.3,13-5.4,23.6
		C461.1,213,459.4,215.4,459.4,211.6L459.4,211.6z"/>
	<path d="M66.8,320.5c11.8-0.9,22.2-1.4,31.1,3.6c17.1,9.5-5.5,19-16.3,19L67,342.6C67.1,333.8,67.1,326.5,66.8,320.5L66.8,320.5z
		 M65.9,378.9l0.8-26c3.3,1.1,19.4,0.8,24.9-0.4c3.9-0.9,19.3,7.1,13.6,19.3C100.8,381.5,79,380,65.9,378.9L65.9,378.9z M50.4,310.4
		c-7.2-0.4-7.4,10.3-0.7,10.6c2,0.1,4.2,0.1,6.5,0.1l-0.1,57.2c-6.6-0.6-15.2-2.8-15.5,4.2c-0.3,6.8,7.7,5.7,16.7,6.4
		c21.1,1.7,58.1,5.7,59.4-19.9c0.5-8.9-3.7-17.8-11.4-22.6c20.2-14.4,7.1-37.6-29.8-37L50.4,310.4L50.4,310.4z M177.9,336.1
		c0-6.8-10.7-6.9-10.6,0.2c0.1,2.3,0.1,4.4,0.1,6.2c-5,0-9.3,0-12.7-0.1c-0.1-7.4-0.6-13.8-1.3-19.1l31.2,0.3
		c2.4,7.2-2.2,25.5,7.4,24.3c6.6-0.8,4.4-9.4,3.9-17.9c-1.3-20.4-2.2-17.6-44-17.2l-19.3,0.1c-6.9-0.6-7.7,10-0.9,10.6
		c1.6,0.1,5.4,0.1,11.2,0.1c2.3,16.7,1.1,37.9,1.1,54.8c-8.2,0.1-17.6-1.4-17,5.9c0.2,3,2.8,5.1,5.7,4.9l56.4-0.8
		c8.8-3.1,7.5-24.7,4.6-27.5c-3.5-3.5-9-0.7-9,3.7l0.1,13.6l-30.2,0.1l0.3-25.3c3.4,0.1,7.6,0.1,12.6,0.1
		c-0.2,5.3-1.8,12.9,4.9,13.3c3,0.2,5.3-2.3,5.4-5.1C178,354.8,178,346.4,177.9,336.1L177.9,336.1z M225.4,370.4
		c-0.6-0.8-1.4-1.5-2.4-1.9c-0.1-6.7,1.3-16.9-5.8-16.5c-2.8,0.2-5.2,2.6-5.1,5.5c0.5,9.7,0.5,20,0,30.8c-0.3,6.9,10.2,7.5,10.6,0.4
		c0.1-1.3,0.1-2.4,0.1-3.5c24.9,29.2,67.2-15,36.2-33.1c-13.4-7.8-32.9-6.9-35.2-18.7c-2.1-11.2,15.8-18.3,26.3-8.7l6.2,6.7
		c-0.1,6.8-1.7,17.2,5.6,16.9c7-0.4,4.7-8.5,5-19.9c0.2-10.1,2.3-19.7-5-19.7c-5.2,0-5.3,4.9-5.3,7.8c-21.5-18.9-57.2,4.8-38.7,28.5
		c11.5,14.8,50.3,9.9,39,30.7c-5.5,10.1-19.7,11.8-26.8,2L225.4,370.4L225.4,370.4z M297,377.9c-7.1,0-7.1,10.4-0.2,10.6l35.7-0.1
		c6.9,0,6.9-10.6,0-10.6c-2.9,0-6.8,0-11.7,0.1c0.1-0.5,0.1-0.9,0.1-1.2c0-34.1,0-52.5-0.1-55.2l20.2,0.3l0.2,24.6
		c0,6.9,10.6,6.9,10.6,0c0-6.9,1.4-29.4-2.6-33.5c-3.2-3.3-8.6-1.9-9-1.6c-8.1,0-49.3-2.7-55.5,3.7c-2.5,2.6-1.3,10.4-1.2,15.4
		c0.2,9.4-1.3,18.5,5.9,18.1c6.8-0.3,4.9-8.4,4.7-18.3c-0.1-3.1-0.1-5.7-0.2-7.6l16.4-1c0.1,2.7,0.1,21,0.1,55.1
		c0,0.4,0,0.9,0.1,1.3C305.3,378,300.8,378,297,377.9L297,377.9z M462.5,360.1c-0.3-7-10.9-6.5-10.6,0.4l0.8,16.3
		c-7.6,0.4-17.8,0.5-30.5,0.3c-1.1-15.9,0-39.8,0.9-55.7c2.6-0.1,15.3,0.6,18-2.2c3.2-3.3,0.7-9.1-4.1-8.9
		c-11,0.5-26.8,0.8-36.3-0.4c-6.9-0.9-8.2,9.6-1.3,10.6c4,0.5,8.4,0.9,13.1,1c-0.7,19-2.1,36.8-0.9,55.6c-7.4-0.1-17.1-2-17.1,5.2
		c0,2.9,2.4,5.3,5.3,5.3c18.3,0,39.8,0.8,58.5-0.3C466.1,386.8,463,370.6,462.5,360.1L462.5,360.1z M477.8,312.7
		c-6.9-0.4-7.4,10.2-0.4,10.6c3.4,0.2,7.3,0.2,11.7,0.2l1.2,55.5c-9.1-0.1-18.3-2-18.3,5.2c0,7,8.8,5.3,17.1,5.3l27.2-0.4
		c6.8-0.4,6.5-10.9-0.7-10.6c-4.6,0.2-9.5,0.4-14.7,0.4l-1.1-55.7c10.4-0.3,19.9,1.5,19.9-5.6c0-7.6-10.6-5.2-23.8-4.8
		C488.5,313,482.5,312.9,477.8,312.7L477.8,312.7z M582.8,333.5c0.4-6.8-10.2-7.5-10.6-0.5c-0.1,3.4-0.2,7.2-0.2,11.6
		c-7.2-0.3-11.8-0.6-13.8-0.8l0.6-23l29.3-0.1l0.4,20.1c0,6.9,10.6,6.9,10.6,0c0-5.2-1.1-16.5,0-21.5c2.1-9.7-7.6-9.2-14-9.3
		l-48.3,0.7c-6.9,0-6.9,10.6,0,10.6c1.1,0,4.9-0.1,11.3-0.2l-1.1,58c-7.3-0.2-15.8-1.9-15.8,5c0,2.9,2.2,5.3,5.2,5.3
		c20.3,0.2,35,2.1,38.1-1c3.5-3.5,0.7-9-3.7-9c-3.9,0-8.3,0-13.1-0.1c0-2.2,0.2-10.5,0.6-24.8c1.6,0.1,6.3,0.4,13.9,0.8
		c0,4.9-1.5,13.4,5.3,13.4c2.9,0,5.3-2.4,5.3-5.3C582.6,346.9,582.7,337,582.8,333.5L582.8,333.5z M660.4,336.1
		c0-6.8-10.7-6.9-10.6,0.2c0.1,2.3,0.1,4.4,0.1,6.2c-5,0-9.3,0-12.7-0.1c-0.1-7.4-0.6-13.8-1.3-19.1l31.2,0.3
		c2.4,7.2-2.2,25.5,7.4,24.3c6.6-0.8,4.4-9.4,3.9-17.9c-1.3-20.4-2.2-17.6-44-17.2l-19.3,0.1c-6.9-0.6-7.7,10-0.9,10.6
		c1.6,0.1,5.4,0.1,11.2,0.1c2.3,16.7,1.1,37.9,1.1,54.8c-8.2,0.1-17.6-1.4-17,5.9c0.2,3,2.8,5.1,5.7,4.9l56.4-0.8
		c8.8-3.1,7.5-24.7,4.6-27.5c-3.5-3.5-9-0.7-9,3.7l0.1,13.6l-30.2,0.1l0.3-25.3c3.4,0.1,7.6,0.1,12.6,0.1
		c-0.2,5.3-1.8,12.9,4.9,13.3c3,0.2,5.3-2.3,5.5-5.1C660.5,354.8,660.5,346.4,660.4,336.1L660.4,336.1z"/>
	<path d="M3.8,55.6C-3.5,58.4,0.7,69.5,8,66.8l8.7-3.8c4.7,16,10.6,36.8,17.8,62.5c-6.3,1.7-15,2.2-13.3,9.6
		c1.7,7.6,11.2,3.4,16.8,1.9l20.8-5.9c7.6-2.1,4.4-13.6-3.2-11.5c-2.2,0.6-5.4,1.5-9.5,2.8c-7.2-25.8-13.1-46.7-17.8-62.8
		c4.6-1.3,32.4,46.4,36.9,53.5c4.6,7.1,9.1,17.4,15.8,14.5c5-2.1,3.9-11.1,4.1-17.1l2.6-64.1c0.1-0.2,0.3-0.4,0.5-0.7
		c2.8,9.2,8.7,29.7,17.5,61.7c-7,1.5-16.7,1.9-15,9.4c1.7,7.6,10.5,3.7,18.1,2.2l21.9-6.4c7.3-2.8,2.9-14.1-4.4-11.2
		c-2.7,1.1-5.7,2.1-8.9,3C108,71.2,101.8,49.7,98.8,40c3.7-1.7,15.5-1.7,13.3-9.9c-0.9-3.1-4.2-5-7.4-4.2
		c-30.1,8.4-29.8,11.7-30.5,41l-0.8,36.7c-8.8-13.6-21.6-36.6-30.6-47.2C28.1,39.1,17.3,51.8,3.8,55.6L3.8,55.6z M208.1,31.4
		c-1.4-9.8-40.9-31.7-63.6-3.7c-17.9,22.1-10.3,74.5,32.3,79.7c11.3,1.4,23.3-3.1,30.8-12.2c2.8-3.4,5.3-8.4,7.5-15.1
		C221.2,61.7,218.9,45.5,208.1,31.4L208.1,31.4z M192.9,32.1c1.9,3.8,20.3,15.8,10.8,44.3c-3.4,10.2-7.9,16.7-18,18.7
		c-41.6,8.1-54.3-66.5-13.4-68.9C179.7,25.7,186.6,27.7,192.9,32.1L192.9,32.1z M228.2,7.7c-7.7,1.3-6,12.9,1.7,11.9l9.3-1.8
		c1.2,16.6,2.6,38.2,4.1,64.9c-6.5,0.4-15.1-1.1-15.1,6.5c0,7.8,10.2,5.7,16,5.4l21.6-1.4c7.9-0.4,7.2-12.4-0.7-12
		c-2.3,0.1-5.6,0.4-9.9,0.7c-1.5-26.7-2.9-48.4-4.1-65.1c4.8-0.3,21.8,52.3,24.8,60.1c3,7.9,5.2,18.9,12.4,17.5
		c5.3-1,6.1-10,7.6-15.9c2-8,14-60.6,16.7-62.6c0.8,9.6,2.2,30.9,4,64c-7.2-0.1-16.7-1.7-16.6,6c0,7.8,9.5,5.9,17.2,6l22.8-1.6
		c7.8-1.2,5.8-13.2-2-11.9c-2.9,0.5-6,0.9-9.4,1c-2-34.4-3.4-56.7-4.3-66.9c4-0.9,15.5,1.6,15-6.9c-0.2-3.2-3.1-5.8-6.3-5.6
		c-31.2,1.8-31.6,5.2-38.5,33.6l-8.5,35.7c-5.7-15.1-13.4-40.4-19.9-52.6C255.4-3.2,242.2,6.9,228.2,7.7L228.2,7.7z M469.5,61
		c0.1-8-11.9-8-12-0.2l-0.2,18.5c-8.7-0.1-20.2-0.6-34.5-1.6c-0.2-18.1,2.6-45,4.6-63c2.3,0,7.7,0.1,16.3,0.3c8,0.1,8-11.9,0.2-12
		c-12.6-0.1-30.3-0.9-41.1-2.9c-7.7-1.4-10,10.3-2.2,11.9c4.5,0.9,9.4,1.5,14.8,2c-2.1,21.4-4.7,41.5-4.6,62.9
		c-8.4-0.6-19.2-3.3-19.7,4.7c-0.2,3.2,2.4,6.1,5.6,6.3c20.8,1.2,45,3.5,66.3,3.4c5.3,0,6-5.2,6.1-9.2L469.5,61L469.5,61z
		 M493.7,10.2c-7.7-1.2-9.6,10.6-1.8,11.9c3.9,0.6,8.2,1.2,13.1,1.7l-5.4,62.7c-10.2-1.2-20.4-4.4-21.3,3.6c-0.9,7.8,9.3,7,18.6,8.1
		l30.7,2.9c7.7,0.4,8.6-11.5,0.5-12c-5.2-0.3-10.7-0.7-16.6-1.3l5.6-63c10,0.7,17.7,2.6,20.9,0.1c4.4-3.5,1.9-10-3.1-10.6
		L493.7,10.2L493.7,10.2z M613.4,50.6c1.8-7.6-9.9-10.4-11.7-2.7c-0.9,3.7-1.7,8-2.6,12.9c-8-1.8-13-3.1-15.3-3.7
		c1.6-8.8,2.6-17,5.4-25.6l32.7,5.9l-3.6,22.5c-1.4,7.7,10.3,9.9,11.8,2.2c1.1-5.8,2.2-18.6,4.4-23.9c4.3-10.4-6.6-11.9-13.7-13.3
		l-54-9.2c-7.7-1.4-9.9,10.4-2.2,11.8c1.3,0.2,5.5,0.9,12.7,2.1L564,94c-8.1-1.7-17.3-5.4-18.7,2.3c-0.6,3.2,1.4,6.4,4.7,7
		c20.5,4.2,33.2,6.8,38.2,7.7c7.7,1.4,9.9-10.4,2.2-11.8c-4.3-0.8-9.2-1.7-14.6-2.8c0.5-2.5,2.4-11.7,5.7-27.6
		c1.8,0.5,6.9,1.8,15.4,3.7c-1,5.5-4.4,14.6,3.1,16c3.2,0.6,6.4-1.6,7-4.8C610.4,65.6,612.5,54.5,613.4,50.6L613.4,50.6z
		 M696.3,75.3c2.3-7.4-9.3-11-11.5-3.3c-0.7,2.5-1.3,4.8-1.9,6.7c-5.4-1.7-10-3.1-13.7-4.3c2.3-8.1,3.9-15.1,4.9-21.2L707.7,64
		c0.2,8.6-10.8,27-0.1,28.8c7.4,1.3,7.9-8.7,10.1-18.1c4.2-17.3,3.4-18.7-11.1-23.9L654.8,35c-7.3-2.9-11.7,8.3-4.5,11.2
		c1.8,0.6,5.8,1.9,12.1,3.8c-3,18.9-11.4,41.5-17,59.8c-8.9-2.6-18.6-7.4-20.4,0.8c-0.7,3.3,1.3,6.4,4.5,7.2l61.4,17.9
		c10.7-0.5,12.5-16.9,14.6-23.8c2.3-7.5-9.2-11-11.5-3.5c-1.1,3.8-2.4,11.3-4.4,14.8l-32.8-9.9l8.7-27.3c3.7,1.2,8.2,2.7,13.6,4.3
		c-1.9,5.7-6.3,13.4,0.9,16c3.2,1.2,6.5-0.7,7.6-3.7C690.2,95.6,693,86.5,696.3,75.3L696.3,75.3z"/>
</g>
</svg>
