<?xml version="1.0" encoding="utf-8"?>
<!-- Generator: Adobe Illustrator 21.1.0, SVG Export Plug-In . SVG Version: 6.00 Build 0)  -->
<svg version="1.1" id="Layer_1" xmlns="http://www.w3.org/2000/svg" xmlns:xlink="http://www.w3.org/1999/xlink" x="0px" y="0px"
	 viewBox="0 0 720 825.6" style="enable-background:new 0 0 720 825.6;" xml:space="preserve">
<style type="text/css">
	.st0{fill-rule:evenodd;clip-rule:evenodd;fill:#0D0D0D;}
</style>
<g>
	<path class="st0" d="M41.5,0.8c9-2.1,16.2,8.8,10.5,16.8c-2.2,3.1-4.5,3.9-7.9,4.5C56.4,63.6,65,114.8,71.7,157.7l6.2,38.4
		c2.1,13.7,4.3,27.3,6.5,41c4.6-12.3,9.3-24.6,14-36.9c3.3-8.5,6.6-17.1,10-25.6c-0.3-2.2,0-4.5,1.1-6.5c3.9-7.7,16.3-8,19.7,1.1
		c8.7,22.9,14.8,46.6,21.5,69.7c13.4-70.2,27.4-136.3,32.1-208.1c-10.2,2.7-17.6-6.8-13-15.3c1.3-2.5,3.4-4.4,6.1-5.2
		c18.9-5.7,38.8-7.8,58.5-7.8c9.8,0,14.4,11.6,7.6,18.4c-1.8,1.8-4,2.9-6.4,3.1c-6.6,84.2-24.2,171-42.4,253.7
		c16.8,2.2,11.5,22.9-1.3,21.7c-17.8-1.8-35.7-3.8-53.4-6.6c-12.2-1.9-11.9-19.1-0.4-21.4c-6.8-21.5-12.5-43.1-18.9-64.6l-0.7,1.8
		l-0.3,0.3c-4.7,11.9-9.6,24-13.8,36.1c-3.2,9.1-6.2,18.3-9,27.6c9.6,0.2,14.1,11.6,7.3,18.4c-2.1,2.1-4.7,3.2-7.6,3.2
		c-5.4,0-21-0.9-25-0.7c-10.4,0.5-14.4-11.5-8.4-17.9c1.9-2.1,4.3-3.2,7-3.3c-4.4-23.2-8.8-49.7-12.3-72.8l-2.1-14.7
		c-0.4-1.5-0.7-3.1-0.7-4.7c-1.1-6.4-2.2-12.8-3.1-19.1c-4-24.5-7.9-49.1-12.8-73.5c-4-20-8.6-40.1-14.3-59.7
		c-4.3,1.5-7.5,3.3-12.2,1.4C2.9,26,2,13,11.5,9.3C21.1,5.5,31.3,2.4,41.5,0.8L41.5,0.8z M340.5,0.1c9-1.1,15.9,10,9.4,17.6
		c-1.8,2.2-4.4,3.7-7.3,4c-4.1,0.4-8.2,0.7-12.3,1.1c-7,81.9-3.9,170-3.8,252.5c4.5,0.1,8.9,0.2,13.4,0.2c9.1,0,14.7,11.3,7.6,18.4
		c-2.1,2.1-4.7,3.2-7.6,3.2c-26.1,0-53.2-2.7-79.2-5.6c-9.7-1.1-13-12.6-6-19c2.3-2.1,5.2-2.9,8.2-2.6c4.2,0.4,8.4,0.9,12.6,1.3
		c0.1-79.7,1.3-159.5,1.4-239.2c-5.9,1.4-10.3,3.4-15.1,0.3c-8.3-5.3-6-17.4,3.3-19.7C289.8,6.6,315,2.3,340.5,0.1L340.5,0.1z
		 M449.4,6.3c13.2-0.4,26.5-0.6,39.7-0.3c10.4,0.3,20.8,0.8,31.1,2c5.3,0.4,9.7,3.6,10.5,8.8c1.1,7.1,1.4,14.1,1.4,21.3
		c0,9.6-12.2,14.6-18.7,7.5c-4.3-4.7-2.4-9.6-3.2-17c-21.1-1.6-50.6-1.3-72.3-0.4l-4.7,0c-1.5,44.4-0.5,89,2.3,133.4l13.5-1.9
		c6.1-0.7,12.3-1.5,18.3-2.6c0-3.5,0.3-6,2.9-9c6.9-7.5,18.4-2.1,18.7,7c0.3,7.8,0.3,15.5,0.3,23.3c0,9.8-11.6,14.4-18.4,7.6
		c-1.9-1.9-3.1-4.3-3.2-7l-16.5,2.3c-3.7,0-10.8,1.2-14.5,2c2.1,29.2,4.8,58.4,8,87.5c3.6-0.1,7.1-0.2,10.7-0.2
		c9.6,0,14.6,12.2,7.5,18.7c-2.1,1.9-4.6,2.9-7.5,2.9c-20.7,0-41.5,1.7-62,4.8c-10.1,1.5-16.1-9.5-10.2-17.1c3.1-4.1,7-4.1,11.9-4.9
		c-7.3-67.1-10.4-176.5-5.1-246.1c-2.8-0.1-5.6-0.2-8.3-0.3c-9.9-0.3-13.7-12.6-7-18.7c2.1-2,5.1-3,8-2.9
		c17.1,0.7,37.5,0.2,54.7-0.3C441.3,6.5,445.3,6.3,449.4,6.3L449.4,6.3z M573.1,28.9c-2.8-0.1-5.6-0.2-8.3-0.3
		c-9.9-0.3-13.7-12.6-7-18.7c2.1-2,5.1-3,8-2.9c34.8,1.4,71.1-1.8,106.5-1c10.4,0.3,20.8,0.8,31.1,2c5.3,0.4,9.7,3.6,10.5,8.8
		c1.1,7.1,1.4,14.1,1.4,21.3c0,9.6-12.2,14.6-18.7,7.5c-4.3-4.7-2.4-9.6-3.2-17c-21.1-1.6-50.6-1.3-72.3-0.4l-4.7,0
		c-1.5,44.4-0.5,89,2.3,133.4l13.5-1.9c6.1-0.7,12.3-1.5,18.3-2.6c0-3.5,0.3-6,2.9-9c6.9-7.5,18.4-2.1,18.7,7
		c0.3,7.8,0.3,15.5,0.3,23.3c0,9.8-11.6,14.4-18.4,7.6c-1.9-1.9-3.1-4.3-3.2-7l-16.5,2.3c-3.7,0-10.8,1.2-14.5,2
		c2.1,28.9,4.8,57.7,7.9,86.5c16.7-2.1,32.8-3.9,49.7-4.6c-0.4-3.7-1.2-7.4-2-10.9c-2.2-9.5,8.1-16.5,16.2-11.3
		c2.4,1.5,4.2,4,4.8,6.8c1.8,8.6,3.2,17.2,3.2,26c0,5.9-4.5,10.8-10.8,10.8c-25.1,0-42.2,2.9-66.6,5.8c-14.3,1.7-28.9,3.4-43.3,4.5
		c-9.4,0.9-15.3-9.7-9.3-17.5c2.1-2.7,5.1-4.1,8.5-4.1C571.1,206.2,567.7,100.2,573.1,28.9L573.1,28.9z M213.9,25.1
		c-3.1,0.3-6.2,0.6-9.3,0.9c-4.4,85.2-23.2,165.3-38.5,248.8c1.8,0.2,3.7,0.4,5.5,0.6C189.3,194,206.6,108.1,213.9,25.1L213.9,25.1z
		 M308.2,25.8c-3.3,0.5-6.5,1.1-9.8,1.7c0,81.9-1.3,163.9-1.4,245.8l7.8,0.6C304.8,192.5,301.9,106.8,308.2,25.8L308.2,25.8z
		 M423,272c-8.9-79.9-13.9-162.7-11.5-243.1c-5.5,65.1-2.1,178.1,5.1,243.8C418.7,272.4,420.9,272.2,423,272L423,272z M606.2,272.5
		c-8.9-80-13.9-163-11.5-243.6c-5.5,65-2.1,178.8,5,244.4C601.9,273,604.1,272.7,606.2,272.5L606.2,272.5z"/>
	<path class="st0" d="M621.2,559.2c-40.5,5.3-44.2,66.2-22.6,90.8c3.4,3.9,7.4,7.3,11.7,10.3C597.6,629.8,593.1,583.1,621.2,559.2
		L621.2,559.2z M600.6,735.9c2.6,22.5,8.2,59.8,36.3,65.6c22,4.5,46.1-11.8,49.6-36.8c3.7-26.7-5.2-42.5-27.7-55.1
		c-43-24.1-105-33.4-93.2-114.9c12.7-88.2,133.6-70.3,137.2,24.5c15.9,2.5,11.4,24.2-2.9,21.3c-14-2.8-32.8,4-33.7-11.4
		c-0.6-10,8.4-11.2,14.8-11.5c-0.9-14-5-27.2-13.8-38.3c-3.7-4.5-8-8.4-12.9-11.6c-10,1.4-18.5,5.5-24.5,13.9
		c-18.8,26-0.3,81.9,16.1,97.5c9,6.9,72.3,21.7,62,88.5C697.9,833,598.4,856,581.4,755.6c-1.1-6.4-1.9-12.8-2.6-19.2
		c-17.9,1.5-17.2-19.4-4-21c9.1-1.1,37.3-6.5,35.1,10.9C609.3,731.2,605.3,735.2,600.6,735.9L600.6,735.9z M456.4,559.2
		c-40.5,5.3-44.2,66.2-22.6,90.8c3.4,3.9,7.4,7.3,11.7,10.3C432.8,629.8,428.3,583.1,456.4,559.2L456.4,559.2z M435.8,735.9
		c2.6,22.5,8.2,59.8,36.3,65.6c22,4.5,46.1-11.8,49.6-36.8c3.7-26.7-5.2-42.5-27.7-55.1c-43-24.1-105-33.4-93.2-114.9
		c12.7-88.2,133.6-70.3,137.2,24.5c15.9,2.5,11.4,24.2-2.9,21.3c-14-2.8-32.8,4-33.7-11.4c-0.6-10,8.4-11.2,14.8-11.5
		c-0.9-14-5-27.2-13.8-38.3c-3.7-4.5-8-8.4-12.9-11.6c-10,1.4-18.5,5.5-24.5,13.9c-18.7,26-0.3,81.8,16.1,97.5
		c9,6.9,72.3,21.7,62,88.5c-10.1,65.4-109.6,88.4-126.6-11.9c-1.1-6.4-1.9-12.8-2.6-19.2c-17.9,1.5-17.2-19.4-4-21
		c9.1-1.1,37.3-6.5,35.1,10.9C444.5,731.2,440.5,735.2,435.8,735.9L435.8,735.9z M313.1,572.7c-7.6,6.4-18.7,0.1-17.8-9.3
		c-43.2,18.3-72.3,135-45.6,196.1c8.9,20.4,23.3,34,45.3,37.6c15.2-10.2,24.2-26.9,30-43.8C342.3,702.7,336.2,619.2,313.1,572.7
		L313.1,572.7z M341.7,586.4c19.2,58.6,24.5,153-11.6,205.2C379.5,762.5,367.1,639.2,341.7,586.4L341.7,586.4z M306.3,539.4
		c4.1-8.4,7.1-22.9,19.3-18.3c11.8,4.4,5.8,15.5,3.6,20.5c62,23.4,98,279.9-25.4,277.9C165.8,817.3,214.3,537.7,306.3,539.4
		L306.3,539.4z M80.8,729.8c2.4,22.7,5.8,45.4,10.3,67.8c22.1-2.9,46-5,57.3-27.3c5.1-10,5.1-22.3-1.7-31.5
		C133.9,721.6,100.5,726.9,80.8,729.8L80.8,729.8z M53,563.6c-2.2,0.2-4.5,0.4-6.7,0.6c0,80.2,0.8,156.9,8.6,237.1
		c4.9-0.4,9.8-0.9,14.6-1.3C53.7,720.3,53.4,644,53,563.6L53,563.6z M74.6,562.8c0.2,47.7,0.5,94.4,4.2,141.8
		C245.2,701,217.4,562.8,74.6,562.8L74.6,562.8z M40.5,824c-9.9,0.9-25.6,5.8-27.2-7.8c-1.5-13,12.4-12.3,20-13.1
		c-7.7-79.7-8.6-156-8.6-235.7c-23.4,4.4-20.5-17.9-8.6-20.3c191.1-39.6,261.4,119.6,135.1,166.9c41.9,26.8,22.4,92.7-34.2,101.6
		L40.5,824L40.5,824z"/>
	<path d="M265,433.2c-15.9,24.4-34.7,46.3-49.4,46.3c-5.7,0-9.7-4.7-9.7-12.9c0-29,32.9-59.4,32.9-88.8c0-18.6-13.2-30.4-33.7-30.4
		c-16.5,0-33.7,15-51.6,36.9c3-21.3-5.6-36.9-30.4-36.9c-16.8,0-34.4,14.7-53.3,36.5l9-22.2c0-15-25-19.7-34.4,2.9
		C38.6,378.5,0,472.9,0,487.4c0,15.7,23.8,20.3,30.4-0.7c26.8-85.6,92.4-134.2,92.4-109.2c0,14.1-35.8,100.1-35.8,110.3
		c0,14.9,24.2,21.3,31.9-3.2c8.2-26.9,24.7-58,38-76.3c12.2-16.5,30.4-37.2,42.2-37.2c25.3,0-25.8,61.6-25.8,93.1
		c0,39.3,47.6,55.2,94.1,6.1c14.6,36.6,67.6,40.3,105.7,10c17.1,4.5,37.2,4,54-3.3c-9.2,28.3,21.5,31.8,28.4,9.8
		c26.8-85.6,92.4-134.2,92.4-109.2c0,14.1-35.8,100.1-35.8,110.3c0,14.9,24.2,21.3,31.9-3.2c8.2-26.9,24.7-58,38-76.3
		c12.2-16.5,30.4-37.2,42.2-37.2c25.3,0-25.8,61.6-25.8,93.1c0,41.1,58.4,66.3,119.6-26.8c5.7-8.7-0.5-18.6-11.1-18.6
		c-6.8,0-11.1,5.4-15.8,12.9c-16.1,25.1-35.4,48-50.5,48c-5.7,0-9.7-4.7-9.7-12.9c0-29,32.9-59.4,32.9-88.8
		c0-18.6-13.2-30.4-33.7-30.4c-16.5,0-33.7,15-51.6,36.9c3-21.3-5.6-36.9-30.4-36.9c-16.8,0-34.4,14.7-53.3,36.5l9-22.2
		c0-15-25-19.7-34.4,2.9c-8.4,20.2-18.1,44.5-27.3,69.2c-13.5,19.9-27.7,28.2-41.8,28.2c-3.2,0-5.7-0.4-8.2-0.7
		c37-46.7,37.9-113.9-30.8-113.9C320.5,347.4,273.7,386,265,433.2L265,433.2z M380.9,396.5c0,16.5-5.4,34-14,48.3
		c-14.7,1-21.6,13.2-16.8,21.1c-23.6,19.5-49.4,12.7-49.4-16.1C300.7,385.6,380.9,340.6,380.9,396.5L380.9,396.5z"/>
</g>
</svg>
