<?xml version="1.0" encoding="utf-8"?>
<!-- Generator: Adobe Illustrator 21.1.0, SVG Export Plug-In . SVG Version: 6.00 Build 0)  -->
<svg version="1.1" id="Layer_1" xmlns="http://www.w3.org/2000/svg" xmlns:xlink="http://www.w3.org/1999/xlink" x="0px" y="0px"
	 viewBox="0 0 720 714.3" style="enable-background:new 0 0 720 714.3;" xml:space="preserve">
<style type="text/css">
	.st0{fill-rule:evenodd;clip-rule:evenodd;fill:#0D0D0D;}
</style>
<g>
	<path d="M543.9,372.7l-28.8-27.8c-11.3,15.1-30.7,39.1-21.7,54.8C504.2,418.4,534.3,384.6,543.9,372.7L543.9,372.7z M535.8,292.1
		c-28.4,39-86.1,72.8-60.7,115c31.3,52,104.6-26,109.9-65.5c-2.2-0.7-5.1-1.7-8.7-3.1c-7.2,24.8-68.2,106.3-91.6,66.3
		C465.6,372,523.3,329.6,535.8,292.1L535.8,292.1z M499.8,317.3c22.8-22.8,51.8-49.7,25.2-76.8c-12.2-12.4-50.4-3-51.3,28.3
		C473.3,285.3,482,301.5,499.8,317.3L499.8,317.3z M612,376.2l24.7-6.6c6.9-2.3,8.9,7.9,3.1,9.7l-8.9,2.6
		c3.9,14.5,5.3,27.9-3.1,39.8c-19.3,27.4-46.4-8.5-60.2-25.8c-27.1,31.6-74.9,60.6-101.5,16.3c-20.7-34.4,2.9-62.3,26.5-87.5
		c-20.1-18-29.8-36.8-29.1-56.4c1-37.4,45.9-54.3,67.6-36c8,6.1,13.3,13.1,15.8,20.9c10,30.2-7.5,58.6-25.8,83.4
		c1.7,1.7,4.4,4.3,8.2,7.9c0.2,0,0.3,0.1,0.3,0.3c9.4,8.8,16.2,15.4,20.4,19.6c6.1-7.9,15-23.1,16.6-29.3c-4-1.3-11-2-9.4-8.2
		c2.4-9.6,24,4,41.1,7.7c7.5,1.7,3,12.9-3.3,9.7c-2.2,13.3-9.2,27.7-20.9,43.4c8.8,8.8,32.2,46.7,45.7,28.1
		c6.1-8.5,4.5-20.2,1.3-31.1C603.7,389.9,606.9,377.5,612,376.2L612,376.2z"/>
	<path class="st0" d="M146,310.2c19.9,9.3,21.1,36.8,1,51.1c-9.8,7-20.5,7.7-32,9.1l-29.8,2.8c-5.4,0.2-13.4,3.3-14.2-3.1
		c-0.7-6.1,6.9-5.5,11.9-6c-4.7-47.8-5.2-93.6-5.2-141.5c-3.8,0.8-8.8,2.4-10.1-2.6c-0.7-2.6,1.1-5,3.7-5.6c32-6.8,75-5.3,99.6,19.4
		c19,19,20.3,45.2-0.6,63.2C163.3,303.1,154.8,307.3,146,310.2L146,310.2z M296.2,215.3c5,50.6,1.9,101.8-7,151.9
		c7.3,0,6.7,9.3,0.7,9.3c-8.6,0-17.5,0.1-26,1c-6.6,0.8-6.3-9.3-0.9-9.3c0.6,0,1.1,0,1.7-0.1c1.1-5.9,1.9-11.8,2.7-17.7
		c-8.6,10.1-19.6,18.3-33,19.8c-34.8,4-34.3-61.5-34.3-82.7c0.1-23.2,1.7-46.3,2.8-69.5c-2.1,0.2-3.7,0.9-5.9-0.8
		c-3.2-2.5-1.5-7.7,2.4-8.2c3.9-0.5,11.2-0.6,14.7-1.4c5.9-1.4,8.1,7.7,2.1,9.1c-1.3,0.3-2.6,0.5-4,0.7c-0.1,9.7-1.2,19-1.4,27.8
		c-1.1,26.1-5.8,93.7,11.6,111.8c8.6,9,24.4,0.6,31.5-5.9c5.7-5.4,11-12.7,15.4-19.2c1-13.1,1.9-26.1,2.4-39.2
		c1-24.9,1.2-49.8,1.2-74.7c-3.2,0.3-8.5,1.6-9.1-3.7c-0.3-2.6,1.5-4.9,4-5.2l27.5-3C301.9,205.3,302.3,214.6,296.2,215.3
		L296.2,215.3z M335.7,229.9c0,46.5,1.2,93.1,1.2,139.7c3,0,6.1,0.7,6.1,4.8c0,5.6-6.4,4.7-11.4,4.6c-4-0.1-7.8,0.3-9.7-1.6
		c-3.1-3.1-0.6-7.9,3.3-7.9c0.8,0,1.6,0,2.4,0c0-50.8-1.2-101.6-1.2-152.3c-6.7,0.9-7.4-4.5-5.9-6.9c1.3-2,2.9-2.1,5-2.5l12.8-1.4
		c6.8-0.4,6.2,9.3,0.4,9.3c8.6,17.4,27.3,47.8,39.2,67c1.4,2.2,2.7,4.4,3.9,6.7c0.2-22.7,0.1-45.4-0.6-68c-9.2,0-6.9-9.3-1.4-9.3
		l32.1-0.4c6,0,6.3,9.3,0,9.3c-1.9,0-3.7,0.1-5.6,0.2c2.2,40.9-0.4,87.4-2.2,128.5c-0.2,5.1-0.4,10.2-0.7,15.2
		c9.7-1.1,8.2,8.9,2.6,9l-19.3,0.6c-4.3-0.1-8.6-0.2-12.9,0c-5.8,0.1-6.8-9.1-0.2-9.3c2-0.1,4.1-0.2,6.1-0.2
		c0.7-18.9,1.3-37.8,1.8-56.7L335.7,229.9L335.7,229.9z M103.6,220.3c0.1,23.7,0.3,47.5,1.4,71.1c0.4,5.1,0.8,10.1,1.2,15.2
		c19.7-0.3,42.7-3.6,58.1-16.8C194.2,264.1,166.2,219.5,103.6,220.3L103.6,220.3z M94.3,220.6c-2.4,0.2-4.8,0.5-7.3,0.7
		c0,48.1,0.5,94.1,5.2,142.1l12.1-1.1C94.5,314.3,94.5,269.2,94.3,220.6L94.3,220.6z M107.1,318.3c1.5,14.4,3.6,28.8,6.5,42.9
		c14.4-2.2,29-2.5,36.4-17.1c3.2-6.4,3.2-14.3-1.2-20.2C140.5,312.8,119.7,316.5,107.1,318.3L107.1,318.3z M286.9,216.1l-4.7,0.6
		c0,43.6-0.5,107.3-8,150.7c1.9-0.1,3.7-0.1,5.6-0.2C288.8,317.5,291.9,266.5,286.9,216.1L286.9,216.1z M389.1,364.9
		c1.7,0,3.4,0,5,0c2-44.3,5.1-101,2.8-143.8c-2.2,0-4.3,0-6.5,0C392.1,268.9,391,317.2,389.1,364.9L389.1,364.9z"/>
	<path d="M266.8,171c-13.8,0-24.4-14-13.5-47.9c6.9-21.6,20-41.2,24.1-63.4c6-31.9-21.6-78-59.5-50.3c-8.5,6.1-15,13.7-21,22.2
		c-1.3-9.1-4.4-17-10-22.5c-24.7-24.3-61.1,4.7-71.4,36.2C114.4,6.5,81.5-6.1,53.7,3.8c-39,13.8-54,75.8,11.6,79.2
		c0-9.9,4.4-19.6-6.9-20.8c-27.8-3-14.8-27.4,0.3-37.7c6.6-4.7,19.1-4.1,26.3,0.6c16,10.5,6,38.3,4.4,53.2
		c-1.6,16.7-4.7,106.1-38.8,93c-17.4-8.8-8.6-44.5,18.5-50.9c8.5-1.8,3.8-14,3.8-20.8c-42,0.3-76.4,64.3-36.3,88.3
		c42.9,24.8,62-24.8,70.2-64.9c4.8-19.9,11.5-36.3,18.2-55.2c5.3-15.2,18.8-48.8,41.3-45.6c17.9,4.1,5,43.8,3.4,55.2l-7.2,39.5h0.3
		c-2.5,16.7-4.1,33-2.2,50.3c33.3-5.2,16.7-0.5,20.7-25.7c1.9-10.5,2.2-21.6,4.1-32.2c3.4-11.7,7.2-27.2,11.3-37.7
		c6-16.4,15.4-29.5,29.4-41.5c22.2-19.9,33.8,3.8,28.5,26c-4.4,19.6-27.3,59.6-29.1,93c-1.3,22.2,12.8,44.4,36.7,44.4
		c18.4,0,30-13.8,38-29.5c7.9,16.9,24.8,29.5,55,29.5c28.4,0,44.4-11.4,54.4-25.3c1.8,17,19,26.7,36.1,25.9
		c31.9,2.4,49.3-9.9,59.9-25.1c2.3,16.4,19.2,25.8,36,25.1c29,2.2,46-7.8,56.8-21c4.2,9.9,12.7,16.8,27.8,16.3
		c15-1.2,27.3-10.2,37.6-23.1c-6,20.5-13.5,42.4-24.7,59.3c-6.3,9.1-25.4,33.6-40.1,21.3c-6.9-7-1.6-24.3,10.3-18.4
		c2.8-6.4,5.3-12.9,7.8-19.3c-32-12-58.9,28.4-35.7,50.9c21.3,22.5,54.8,4.7,69.2-14.6c36.3-47.9,40.1-108.4,54.5-163.7l4.4-9.4
		l-1.9-0.6c0.3-0.3,0.3-0.6,0.3-0.9c-13.8-2.9-20.7-2-20.7-2s-11.3,31.6-14.7,40.9c-5.3,13.4-26.9,52-43.5,56.1
		c-29.1,7.3,5-78.6,10.3-91.2c-15.7-5-20.7-5.3-20.7-5.3s-9.1,21.9-10.3,26.9c-2.8,11.7-6.9,23.1-10.3,34.5
		c-0.6,2.1-1.1,4.2-1.6,6.5c-5.6,14.4-12.7,30.2-21.6,32.9c6.7-28.8-32.3-83.6-19.1-110.8c-6.6-3.5-21.9-6.7-28.5-9.9
		c-4.7,27.7-18.7,67-21.9,75.7l0,0c-6.3,15.8-14.7,41.5-26.3,45c6.7-28.8-32.3-83.6-19.1-110.8c-6.6-3.5-21.9-6.7-28.5-9.9
		c-4.7,27.7-18.7,67-21.9,75.7l0,0c-6.9,17.2-14.7,46.8-53.3,46.8c-17.9,0-27.9-7.6-32.9-17.8c35.1-7.6,70.8-51.2,59.8-81
		c-16.6-40.3-68,3.8-78.6,22.8c-5,9-8.6,20.8-9.7,33.1C288,146.5,279.6,171,266.8,171L266.8,171z M414.5,160.3
		c5.1-9.3,8.2-18.9,11.1-26.6c2.1-5.2,9.5-23.9,12-38.7c3.1,16.4,10,27.8,15.4,45.9c7.8,25.7-9.1,43.6-20,22.2L414.5,160.3
		L414.5,160.3z M362.6,83.9c4.1,10.8-16.9,33.3-24.4,39.8c-5,4.4-11.6,9.6-18.8,11.1c0.3-9.6,2.8-19.3,6.9-26.3
		C334.7,93.8,356,64.6,362.6,83.9L362.6,83.9z M510.7,160.3c5-9.5,8-19.3,10.7-26.8c2.2-5.3,9.5-23.9,11.9-38.6
		c3.1,16.4,10,27.8,15.4,45.9c7.8,25.7-9.1,43.6-20,22.2L510.7,160.3L510.7,160.3z"/>
	<path d="M102.8,479.9c-0.9-11.4-9.9-19.6-20.5-21.9c-29.5-6.1-55,9.6-70.7,45.9C0.8,528.4-4.4,588,36.2,592.7
		c14.3,2,25.7-8.8,34.5-21.3c-3,20.6-15.1,92.2-47.4,79.5c-11.4-4.4-5.8-24.8,7.3-19.3c2.3-6.4,5-12.9,7-19.3
		c-52-20.5-51.2,86.2,9.1,57.3c52.9-22.8,45.3-125.7,55.8-173h-0.3C103.4,493.3,103.4,488.1,102.8,479.9L102.8,479.9z M330.3,574
		c-22.8,0-18.7-52-13.7-85.9l31-4.1l-2.3-20.2c-8.2,0-16.7,0.9-24.8,2c1-7.8,16.7-70.4,12.6-71.3c-20-4.2-16.4-12.2-26.9,39.5
		l-7.9,34.8c-4.4,0.6-8.8,1.2-13.2,1.5c1.5,12.6,4.1,21.6,4.1,21.6s1.8-0.3,4.4-0.6c-2.5,13.5-4.4,27.2-4.7,40.3
		c-6.2,17.3-13.9,42.4-26,42.4c-22.8,0-18.7-52-13.7-85.9l31-4.1l-2.3-20.2c-8.2,0-16.7,0.9-24.8,2c1-7.8,16.7-70.4,12.6-71.3
		c-20-4.2-16.4-12.2-26.9,39.5l-7.9,34.8c-4.4,0.6-8.8,1.2-13.2,1.5c1.5,12.6,4.1,21.6,4.1,21.6s1.8-0.3,4.4-0.6
		c-2.5,13.8-4.4,27.8-4.7,41.2c-6.2,17.4-15,42.7-48.2,42.7c-16.7,0-26-7.6-30.7-17.8c32.7-7.6,66.1-51.2,55.8-81
		c-15.5-40.3-63.4,3.8-73.4,22.8c-16.4,31.6-17,97.3,47.4,97.3c29.1,0,44.3-13.8,53.4-29.5c8.7,27.6,44.4,49.5,67.8,0.9
		c5.1,15.1,18.3,28,32.2,28.6c28.1,1.1,39.2-36.9,47-59.1l0.1,0c0,0,16.4-47.9,33-47.9c14.8,0-42.2,106.1,22.5,107
		c29,0.3,39.8-39.3,47.4-61.1c3.8-10.1,18.3-45.9,32.7-45.9c11.4,0,1.8,35.1-0.6,50.6c-1.2,7.6-2.6,15.2-4.1,22.5
		c-1.8,5.6-3.5,11.1-5,17c1.8,2.9,17,4.7,20.8,5.8l0.6-2c3.8-5.8,7.3-19,9.6-25.4c5.3-14.9,10.8-29.8,17.8-43.8
		c0,0.3,16.4-31,24.3-26.3c8.5,5.3-7.6,44.7-10.5,65.5c-2.9,19.9,1.5,43.3,29.5,43.3c16.1,0,26.6-12.1,34.1-26.6
		c4.6,12,13.3,21.1,28.2,22.8c14.3,2,25.7-8.8,34.5-21.3c-3,20.6-15.1,92.2-47.4,79.5c-11.4-4.4-5.8-24.8,7.3-19.3
		c2.3-6.4,5-12.9,7-19.3c-52-20.5-51.2,86.2,9.1,57.3c52.9-22.8,45.3-125.7,55.8-173H719c1.2-3.2,1.2-8.5,0.6-16.7
		c-0.9-11.4-9.9-19.6-20.5-21.9c-29.5-6.1-55,9.6-70.7,45.9c-3.1,7-5.7,17-7,27.7c-6.3,17.3-14.2,42.5-26.3,42.5
		c-20.2,0-0.3-55,1.8-73.4c3.8-31.9-28.6-46.5-47.6-21c-5,6.7-11.1,16.4-15.8,26.6l0.9-9.4c5.1-40.1-42.8-58.8-74.4,32.1
		c-6.4,17.3-14.6,45.1-27.3,45.1c-17.8,0-10.2-35.1-8.2-43c4.7-17.8,15.5-66.9-13.2-66.9c-30.7,0-50.1,54.2-53.5,64.4l-0.2-0.1
		C351,545.7,343.1,574,330.3,574L330.3,574z M179.1,486.9c3.8,10.8-15.8,33.3-22.8,39.8c-4.7,4.4-10.8,9.6-17.5,11.1
		c0.3-9.6,2.6-19.3,6.4-26.3C153.1,496.8,173,467.6,179.1,486.9L179.1,486.9z M54,558.5c-9.4,13.7-17.5,20.8-24.8,2.3
		c-9.1-22.5,4.7-62,23.7-76.3c26.7-20.8,33.6,0.3,24.3,26.3C71.6,527.5,63.7,543.6,54,558.5L54,558.5z M670.8,558.5
		c-9.4,13.7-17.5,20.8-24.8,2.3c-9.1-22.5,4.7-62,23.7-76.3c26.7-20.8,33.6,0.3,24.3,26.3C688.3,527.5,680.4,543.6,670.8,558.5
		L670.8,558.5z M448.1,422.3c1.3-5.3-6.1-19.8-19-19.3c-8.8,0.3-18.1,8.5-19.3,17C406.3,445.4,442.2,449,448.1,422.3L448.1,422.3z"
		/>
	<path class="st0" d="M121.2,630.9c-17.5,2.4-9.1,30-3,36c3,2.3,21.3,6.5,18.4,27.1c-3,21.4-36,27.5-37.8-10.1v-0.2
		c-1.1,0.1-3.7,0.5-4.1-2.3c-0.2-1.5,0.8-2.9,2.4-3.1c2.9-0.4,10.5-1.9,10,2.7c-0.2,1.4-1.4,2.6-2.9,2.5c0.7,6.8,1.3,12.7,5.9,18.2
		c6.5,7.9,19.7,2.5,21.2-8.6c1.1-8.4-1.5-13.7-8.6-17.9c-13-7.6-31.2-10.4-27.8-35.3c3.8-27.1,39.5-21.3,40.2,8.1
		c5,0.8,3.1,6.3-0.2,5.6c-4.4-1-9.5,1.2-9.7-3c-0.2-3,2.8-2.9,4.5-3C129.4,641.1,127,634.7,121.2,630.9L121.2,630.9z M179.1,626.6
		c-3.3,0-6.6,0-9.9,0.2c-2.2,24.6-2.8,54.6-1,79.3c4.8-0.8,4.5,5.1,1.3,5.4l-14.3,2.2c-3.4,0.4-4.6-5.1-0.3-5.6
		c-1-27.4-1.7-52-0.6-79.5c-4.4,0.9-8.7,2.2-12.7,4.2c0.5,1.8,1.7,5.1-1.4,5.9c-3.3,0.8-3.7-3.6-4.3-6.3c-0.5-2.1,0.1-2.8,1.7-3.7
		c13-7.2,30-7.6,44.6-7.6c3.9,0,2.3,6,2.2,8.4c-0.2,3.9-5.8,3.1-5.4-0.4C178.9,628.2,179,627.4,179.1,626.6L179.1,626.6z
		 M242.6,626.6c2.5,26.9,0.9,54.1-3.6,80.7c3.5,0,3.6,5.6,0,5.6c-4.4,0-9,0.1-13.3,0.5c-3.2,0.4-4.7-5.1,0.1-5.6
		c0.5-2.7,0.9-5.5,1.2-8.2c-6.4,7.5-18.5,14.7-26.4,6.1c-12.6-13.7-6.9-58.2-6.6-77.6c-5.3,0.7-4.6-5-1.5-5.4l7.5-0.7
		c3.5-0.9,4.7,4.6,1.2,5.4c-0.6,0.1-1.2,0.2-1.8,0.3l-0.7,14.7c-0.3,9.4-4.6,63.4,11.2,61.5c4.1-0.5,7.5-2.4,10.4-5.1
		c2.9-2.9,5.6-6.7,7.8-10.1c0.5-7,1-13.9,1.2-20.9c0.5-13.2,0.6-26.4,0.6-39.6c-1.6,0.1-4.3,0.7-4.7-2.3c-0.5-4.3,5.2-3,9.5-4
		C248.3,618.8,245.1,626.1,242.6,626.6L242.6,626.6z M257.8,628.5c-2.3,0-5.7,0.4-5.7-2.9c0-1.6,1.3-2.8,2.8-2.7
		c6.1,0,40.3-1.2,43.1,0.9c1.5,1.2,2,8.7,0.6,10.2c-1.7,1.8-4.6,0.6-4.6-1.9l-0.1-3.5c-9.1-0.8-15.8-0.2-24.2-0.2
		c-0.5,14.3-0.2,28.7,0.7,43l10.7-1.6c0-5.5,5.2-4.4,5.4-1.1c0.1,1.9,0.6,7.8-0.6,9.2c-1.3,1.5-4.7,1.3-4.7-2.5l-10.5,1.6
		c0.6,9.5,1.5,19,2.5,28.5c2.3-0.1,6.4-0.8,6.4,2.7c0,1.5-1.2,2.7-2.7,2.7c-6.3,0-12.5,0.5-18.7,1.5c-3.7,0.5-4.2-4.9-0.8-5.4
		c0.7-0.1,1.3-0.2,2-0.3C257.1,684.9,256.2,650.2,257.8,628.5L257.8,628.5z M322.1,671.3l10.7-1.6c0-5.5,5.2-4.3,5.4-1.1
		c0.1,1.9,0.6,7.8-0.6,9.2c-1.3,1.5-4.7,1.3-4.7-2.5l-10.5,1.6c0.6,9.5,1.5,19,2.5,28.5c2.3-0.1,6.4-0.8,6.4,2.7
		c0,1.5-1.2,2.7-2.7,2.7c-6.3,0-12.5,0.5-18.7,1.5c-3.7,0.5-4.2-4.9-0.8-5.4c0.7-0.1,1.3-0.2,2-0.3c-2.3-21.7-3.2-56.5-1.6-78.2
		c-2.3,0-5.7,0.4-5.7-2.9c0-1.6,1.3-2.8,2.8-2.7c6.1,0,40.3-1.2,43.1,0.9c1.5,1.2,2,8.7,0.6,10.2c-1.7,1.8-4.6,0.6-4.6-1.9l-0.1-3.5
		c-9.1-0.8-15.8-0.2-24.2-0.2C320.9,642.6,321.2,657,322.1,671.3L322.1,671.3z M385.4,630.6c-1.4,0.4-4.6,2-5.5-1.2
		c-0.4-1.4,0.1-3,1.7-3.5c38.4-12.2,76.1,32.1,46.1,69.2c-12.7,15.7-26.2,12.9-42.5,14.8c-3.3,0.4-4.3-5.1-0.6-5.5
		c1.7-0.2,3.3-0.3,5-0.4C386.3,679.8,384.7,655.2,385.4,630.6L385.4,630.6z M469.3,623.3c1.4-2.9,2.1-7,5.3-5.8
		c3.2,1.2,1.2,4.6,0.5,6.2c18.6,5.9,29.7,86.6-6.9,86C427.4,709.1,442.1,622,469.3,623.3L469.3,623.3z M506.4,635.5l0.6,73.2
		c4.3,0,3.9,5.6,0.4,5.6c-4.2,0-9.5,0.8-9.5-2.9c0-2.3,1.9-2.8,3.6-2.8l-0.6-80.9c-4,0.2-5.1-4.7-0.2-5.6c1.7-0.3,7.1-1.5,8.6-0.1
		c1.8,1.6,0.8,4.4-1.3,4.9c6.9,14.4,14.1,24.8,21.4,38c0.1-11.6,0-23.3-0.3-34.9c-4.5,0-3.8-5.6-0.4-5.6l16.5-0.2
		c3.5,0,3.7,5.6,0,5.6c-0.9,0-1.7,0-2.6,0.1c1.1,22-0.3,52.9-1.5,76.3c4.9-0.4,4.3,5.2,1,5.4l-16.6,0.3c-3.4,0.1-3.9-5.4-0.1-5.6
		c1-0.1,1.9-0.1,2.9-0.1c0.4-10,0.7-20,0.9-30L506.4,635.5L506.4,635.5z M598.6,623.2c3.5,0,3.1,5.4,3.1,8.8c0,3.6-5.4,3.8-5.4,0
		l-0.1-3.5c-9.1-0.8-15.8-0.2-24.2-0.2c-0.5,14.3-0.2,28.7,0.7,43l10.7-1.6c0-5.5,5.2-4.3,5.4-1.1c0.1,1.9,0.6,7.8-0.6,9.2
		c-1.3,1.5-4.7,1.3-4.7-2.5l-10.5,1.6c0.6,9.4,1.5,18.8,2.5,28.2l16-1.5c-0.2-2.7-2-6.8,1.4-7.4c1.5-0.3,2.9,0.7,3.2,2.2
		c0.6,2.7,2.7,10.8-1.8,10.8c-8.7,0-23.6,2.3-33.1,3.2c-3.1,0.3-4.9-5.1,0.4-5.6c-2.3-22.4-3.3-56-1.6-78.3c-2.3,0-5.7,0.4-5.7-2.9
		c0-1.6,1.3-2.8,2.8-2.7C569.8,623.1,587.4,621.8,598.6,623.2L598.6,623.2z M113,628.1c-14.3-0.2-16.3,21-9.1,29.5
		c1.5,1.7,3.3,3.2,5.2,4.4C104.5,652,102.6,635.2,113,628.1L113,628.1z M160.2,707.1c0.9-0.1,1.7-0.2,2.6-0.4
		c-1.9-26.4-1.1-53.2,0.9-79.6l-4.1,0.5C158.5,655.2,159.1,679.7,160.2,707.1L160.2,707.1z M237.2,627.2l-1.8,0.3
		c0,23.9-0.2,56.9-4,80.1c0.8,0,1.5-0.1,2.3-0.1C238.1,681,239.7,653.9,237.2,627.2L237.2,627.2z M264.3,628.5c-0.4,0-0.7,0-1.1,0.1
		c-1.7,20.8-0.7,56.6,1.5,77.6c1-0.1,2-0.2,3-0.3C265.1,680.2,263.5,654.2,264.3,628.5L264.3,628.5z M316.4,706.1c1-0.1,2-0.2,3-0.3
		c-2.8-25.6-4.3-51.6-3.5-77.3c-0.4,0-0.7,0-1.1,0.1C313.1,649.3,314.2,685.1,316.4,706.1L316.4,706.1z M395,703.7
		c1.4-0.1,2.8-0.2,4.3-0.3c-3.1-23.9-6.3-49.9-5.9-74c-0.9,0-1.7,0.1-2.6,0.1c0,0.1,0,0.1,0,0.2C390.1,654.5,391.7,679.3,395,703.7
		L395,703.7z M398.8,629.8c-0.4,23.5,2.8,49.7,5.9,73c7.9-1.5,13.7-4.8,18.8-11.1C446.3,663.7,425.3,632.9,398.8,629.8L398.8,629.8z
		 M477,631.8c8.1,18.4,10.5,54.7-2.7,71.4C493.4,695.9,487.9,645.3,477,631.8L477,631.8z M471.2,632.1c-1.9,2.9-6.2,0.2-4.7-2.8
		c-13.8,4.2-23.5,42.5-15.1,62.6c2.7,6.5,7.2,11,14.3,12.1c4.8-3.3,7.7-8.8,9.4-14.1C480.4,673.8,478.6,646.7,471.2,632.1
		L471.2,632.1z M533.9,706.1c0.7,0,1.3,0,2,0c1.2-22.8,2.5-55.2,1.5-76.3c-0.9,0-1.8,0-2.7,0C535.4,655.2,534.8,680.8,533.9,706.1
		L533.9,706.1z M570.1,705.9c-2.8-25.6-4.3-51.6-3.5-77.4c-0.4,0-0.7,0-1.1,0.1c-1.7,20.8-0.7,56.9,1.5,77.8
		C568,706.2,569.1,706,570.1,705.9L570.1,705.9z"/>
</g>
</svg>
