<?xml version="1.0" encoding="utf-8"?>
<!-- Generator: Adobe Illustrator 21.1.0, SVG Export Plug-In . SVG Version: 6.00 Build 0)  -->
<svg version="1.1" id="Layer_1" xmlns="http://www.w3.org/2000/svg" xmlns:xlink="http://www.w3.org/1999/xlink" x="0px" y="0px"
	 viewBox="0 0 576 554.9" style="enable-background:new 0 0 576 554.9;" xml:space="preserve">
<style type="text/css">
	.st0{fill-rule:evenodd;clip-rule:evenodd;fill:#333232;}
</style>
<g>
	<path class="st0" d="M34.6,355.7c48,58.1,133.9,51.5,133.9,51.5s0.9,23.8,0.9,55.9c0,32.1,22.5,49.3,22.5,49.3
		c134.3,78.8,317,28.5,347.8,3.2c30.8-25.3,27.7-61.3,27.7-61.3l8.4-405.5c3.5-24.7-27.7-30.4-27.7-30.4
		c-125-33-315.3-14.5-366.3,0.4c-25.1,8.4-20.3,36.5-20.3,36.5L161,98.6c0,0-74-5.9-122.8,36.5C-10.8,177.6-13.4,297.6,34.6,355.7
		L34.6,355.7z M197.6,438.8V251.4c25,8,50,14.5,75,19.6c0,12.2,0,24.3,0,36.4c-12.4-2.4-24.9-5.1-37.3-8.1c0,10,0,19.9,0,29.9
		c11.8,2.9,23.6,5.4,35.4,7.7c0,12,0,24,0,36c-11.8-2.3-23.6-4.9-35.4-7.7v85C222.7,446.8,210.1,443,197.6,438.8L197.6,438.8z
		 M328,466.8c-32.8-2.4-45.6-25.1-45.6-56.9V272.6c12.1,1.7,24.3,3.2,36.4,4.4v135.7c0,9.1,0.5,19,9.2,19.6c8.7,0.6,9.2-9,9.2-18.3
		V278.4c12.1,0.6,24.3,0.9,36.4,1.1v137.1C373.5,448.1,360.9,469.2,328,466.8L328,466.8z M387.9,466.7V279.3c25-0.9,50-2.8,75-5.7
		c0,12.1,0,24.1,0,36.2c-12.3,1.6-24.6,2.9-36.8,4c0,12.1,0,24.3,0,36.4c11.8-1,23.6-2.3,35.4-3.8c0,11.8,0,23.6,0,35.3
		c-11.8,1.5-23.6,2.8-35.4,3.8c0,14.3,0,28.7,0,43c13.1-1.2,26.2-2.6,39.3-4.3c0,12.1,0,24.3,0,36.4
		C439.5,463.7,413.7,465.8,387.9,466.7L387.9,466.7z M477.8,458.6V271.2c12.5-2.4,25-5,37.5-8.1v155.5c12.9-3.5,25.7-7.4,38.6-11.7
		c0,10.6,0,21.2,0,31.9C528.6,446.9,503.2,453.5,477.8,458.6L477.8,458.6z M221.6,234.1c11.3,3.5,11.4-33.9,14.6-53.9
		c2.9-17.9,7.4-34.1,15.7-32.3c7,1.6,8.4,58.4,8.9,66.3c0.6,10.4,7,19.3,12.5,12.8c0,0,16.4-43.1,22.5-42.3c3.6,0.5-0.8,45-0.8,50.3
		c0,54.3,26.9,11.5,40.8-13.6c5.5,33.4,35.5,35.8,48.7,6.8c6.4,0.8,15.6-5.7,22.1-13.1c-0.7,15.8-0.3,38.5,12.1,37.9
		c11.4-0.6,11.4-37.5,14.6-59c2.9-19,7.5-36.7,15.7-37.6c7.1-0.8,8.4,55.6,8.9,63.4c0.7,11.1,7.4,16.5,12.5,8.6
		c0.2-0.2,16.4-48.6,22.4-49.8c3.7-0.8-0.8,45.3-0.8,50.6c0,33.9,10.3,29.2,26.4,1.1c1.7-2.9,28.5-53.5,21.4-53.1
		c-5.5,0.3-6.4,11.9-8.6,17c-6.4,14.9-19.3,41.3-23,42.1c-13.1,3,19.1-80.6-8.9-73.9c-13.5,3.2-26.7,49.7-29.3,50.1
		c-2.4,0.4,14.9-75.5-14.6-71.8c-31.1,3.9-32.1,90.2-35.7,90.4c-3.1,0.2-1.7-27-1.9-30.9c-0.2-5.7-10.8-5.2-10.7,1.9
		c0.1,3.1-9.9,21.4-21.4,19.9c5.8-17.9,0.8-47.7-22.7-48c-19.8-0.3-22.7,17.2-18.8,22.6c-10.9-0.6-8,12.7-10.2,16.9
		c-6.4,12.6-19.3,34.5-22.9,34.1c-13-1.4,19-74-8.9-76.9c-13.6-1.4-26.6,40.8-29.3,40.3c-2.4-0.4,14.8-70.5-14.6-76.6
		c-15.5-3.2-23.4,16.1-28.1,36.6c-4.6,20.5-5.8,42-7.7,41.5c-3.1-0.9-1.7-27.6-1.8-31.6c-0.2-5.4-10.9-9.4-10.7-2
		C210.3,187.9,204.6,228.9,221.6,234.1L221.6,234.1z M351.6,211c0.5-2.7,6.5,15.3,26.4,17.6c-1.6,6-9.7,12.3-17,12.1
		C350.8,240.4,349.3,223.7,351.6,211L351.6,211z M379,221.8C339.1,206.1,388.1,156.5,379,221.8L379,221.8z M162.5,153.8l4.4,195.1
		c0,0-67.4,32.1-109.2-35.2C5.1,228.8,62.9,136,122.9,148.1C140.5,151.7,162.5,153.8,162.5,153.8L162.5,153.8z M560.8,37.6
		c0,14.3-85.6,26-191.2,26c-105.6,0-191.2-11.6-191.2-26s85.6-26,191.2-26C475.2,11.6,560.8,23.2,560.8,37.6L560.8,37.6z"/>
</g>
</svg>
