<?xml version="1.0" encoding="utf-8"?>
<!-- Generator: Adobe Illustrator 21.1.0, SVG Export Plug-In . SVG Version: 6.00 Build 0)  -->
<svg version="1.1" id="Layer_1" xmlns="http://www.w3.org/2000/svg" xmlns:xlink="http://www.w3.org/1999/xlink" x="0px" y="0px"
	 viewBox="0 0 432 737.3" style="enable-background:new 0 0 432 737.3;" xml:space="preserve">
<style type="text/css">
	.st0{fill-rule:evenodd;clip-rule:evenodd;fill:#006633;}
	.st1{fill-rule:evenodd;clip-rule:evenodd;fill:#F3DF1D;}
	.st2{fill:#F3DF1D;}
</style>
<g>
	<path class="st0" d="M242,120c-1.3-4.7-2.5-9.4-3.6-14.3c-2.7-12.1-6.1-23.4-9.1-35.7c-4.5-18.3-9.7-35.2-14.2-53
		c-1-4.2-3-15.2-5.3-17.1c-2.1,1.5-2,4.1-2.8,8l-20.8,110.8c1.4,2.1,2.8,4.3,4.2,6.4c1.7-0.9,3.6-0.9,5.4-0.1
		c5.1,2.3,7.2,9.5,9.4,14.3c3.4,7.5,7.2,14.9,10.9,22.3l5.2-9.4L242,120L242,120z M150.8,152.7c-3.8-26.8-7.2-48.5-19.9-76.8
		c-1.6-3.6-10.5-18.2-10.5-20.2c8.2,0.8,42.9,41,50.9,51.8c1.1,1.5,7.8,11.5,14.8,22.4c-0.8,1.9-1.9,9.2-2.4,11.7l-7.1,36.9
		l-7.2-7.7C167.6,168.3,153.3,155,150.8,152.7L150.8,152.7z M279.7,143.7c3.4-22.8,7.4-42.7,18.6-67.8c1.6-3.6,10.5-18.2,10.5-20.2
		c-8.2,0.8-42.9,41-50.9,51.8c-2.4,3.2-31.6,48-32.9,50.9c-0.8,1.9-2.8,5.4-5.6,9.9c1,2,1.9,4,2.8,6c2.6,5.9,5.5,11.6,8.2,17.4
		c3.7-3.6,18.2-17.5,20.9-21C253.6,167.7,275.8,147.3,279.7,143.7L279.7,143.7z M97.6,161.4c-8.1-18.4-17.2-35.3-32.5-54.7
		c-2.6-3.3-15.9-16.5-16.5-18.6c8.8-1.3,56.2,32,67.6,41.2c3.4,2.8,46.2,42.3,48.3,45.1c1.6,2.1,5.6,6.2,10.8,11.3l-3,15.4L164,196
		C160.1,193.1,106,165.5,97.6,161.4L97.6,161.4z M320,168.7c9-21.2,18.4-40.1,35.6-62c2.6-3.3,15.9-16.5,16.5-18.6
		c-8.8-1.3-56.2,32-67.6,41.2c-3.4,2.8-46.2,42.3-48.3,45.1c-2.5,3.3-10.7,11.2-20.3,20.6c4.4,1.8,5.5,6.2,7,9.5
		c0.7,1.5,1.4,3.1,2,4.7c5.1-2.8,19.3-10.3,23-13.2C271.8,193.1,313.1,172.2,320,168.7L320,168.7z M111.4,247.9
		c-29.2-36.9-47.1-63.5-86.6-92.3c-4.1-3-23.5-13.7-24.9-15.9c9.7-4.4,74.6,18.5,90.5,25.4c4.8,2.1,66.4,33.5,69.7,36
		c1.9,1.5,5.8,3.7,10.8,6.6c-1.3,7.4-2.4,14.9-3.9,22.3c-1.8,9-2.9,20.1-4.4,29.7c-7.4-1.8-15-3.3-22.3-4.7
		C130.7,252.9,121.1,250,111.4,247.9L111.4,247.9z M317.6,251.6c31-38.8,48.7-66.3,89.5-96.1c4.1-3,23.5-13.7,24.9-15.9
		c-9.7-4.4-74.6,18.5-90.5,25.4c-4.8,2.1-66.4,33.5-69.7,36c-3.4,2.6-13,7.8-24.7,14.1c6,17.8,8.3,36.7,13.4,54.6
		C279.7,264.3,298.1,256.9,317.6,251.6L317.6,251.6z M226.8,198.8c-3.2-7.4-6.9-14.4-10.2-21.9c-5.4-12.2-11.6-23.2-16.9-35
		c-1.3-2.7-3.8-10.1-6.2-11.2c-2,1.2-1.8,3-2.3,5.7l-13.3,69.3c-1.6,8.3-2.8,17.1-4.5,25.4c-1.8,8.9-2.9,20.3-4.4,30l11.9,3.4
		c9.9-16.9,26.8-39.1,38.8-55.5C221.5,206.3,223.9,202,226.8,198.8L226.8,198.8z M266.7,312c12.1-8.1,31.8-18.5,35.4-20.6
		c4.6-2.7,9.3-5.3,13.8-8.1c4.3-2.8,9-5.5,13.4-8.3l36.2-22.8c1.4-0.9,2.5-1.3,2.7-2.3c-1.2-0.5-7.1-2-9-1.7
		c-8,1.5-15.4,3.3-23.7,4.8c-28.9,5.4-51.7,16.2-78.6,23.2c-7-21.4-9.5-49.2-18.8-69.4c-0.7-1.6-1.9-5.9-4.2-6.8
		c-2.8,0.4-8.7,10.3-10.1,12.2c-12.2,16.5-31.2,41.8-40.6,58.7l-10.7-3.1c-9.5-2.7-23.4-5.7-33.2-7.6c-10.8-2.1-21.5-5.5-31.3-7.4
		c-13.3-2.7-27.1-5.8-40.3-8.2c-1.9-0.3-7.8,1.2-9,1.7c0.2,0.9,1.2,1.4,2.7,2.3l36.3,22.7c9,5.6,18.1,10.9,27.2,16.3
		c4.6,2.7,9.1,5.4,13.9,8c3,1.6,18.7,9.8,26.6,13.2c2.7-0.8,5.5-1.5,8.5-2c0.8-0.1,13.3-1.5,13.4-1.5l14.6-0.3
		c0.3,0,18.9,0.8,21,0.9c5.3,0.4,9.8,0.8,15.1,1.4L266.7,312L266.7,312z"/>
	<path class="st1" d="M69,397.1c16.7-27.3,46-51.3,72.6-68c23-14.5,32.9-15,60.7-15.5c3.9-0.1,8.7,0.1,13.7,0.4v7.7l-15-0.6
		c-2.9,1.3-5.6,2.6-8.3,3.8c-1.4-1.1-2.8-2.3-4.3-3.6l-12.4,1.3c3,2.3,5.7,4.4,8.2,6.4c-11.1,5.5-19,10.4-29.5,17.9
		c-2.9-4-5.7-7.9-8.4-11.9l-7.3,4.7c2.8,4.1,5.6,8.2,8.6,12.2c-9.6,7.1-20.4,15.5-29.9,23.8c-2.1-4.9-4.2-10-6.3-15.2
		c-2.3,2-4.6,4-6.9,6.1c2.1,5.2,4.3,10.3,6.4,15.2c-11.4,10.4-21.1,21-31.1,33.2l-4.2-14.4l-5.9,10.7c1.2,4.1,2.4,8.1,3.5,11.9
		l-16.1,21.5L52,466.9l24.4-33.5c3.7,11.6,7.6,22.7,12.2,33.1c-7.3,10.8-19.9,31.2-25.3,42.7c-4.2-9.2-8.8-19.2-13.6-29.8
		c0.6-3.6,1.3-7.2,2-10.7c-3.1,15.6-5.8,32.9-7.6,49.9c0.8-8,1.9-15.9,3.1-23.8l11.7,25.6c-1.1,3.2-2,6.3-2.8,9.5
		c-3.4,12.3-7.5,26.7-10.1,39.3l-3.5-5.6c0.6,10.7,3.9,28.8,7.3,41.6l1.2-11.8l21.8,33.1c-0.5,2.6-0.9,5.4-1.2,8.5l-0.9,15
		c2.6,3.9,5.5,7.7,8.4,11.4l1.1-24.7c10.1,13.3,17.8,20.5,30.2,30.9l-4.7,20.5c2.5,2.1,5.1,4.1,7.7,6c1.2-6.9,2.5-13.7,4.3-20.4
		l31.8,24.9c-2.4,4.4-4.4,8.8-6.3,13.5c2.5,1.2,5.1,2.4,7.9,3.6l5.3-11.9l28.7,21.1c-0.5,0.5-0.9,1-1.4,1.4
		c7.5,1.3,14.4,2.6,21.2,3.3c-2.1-1.9-4.4-3.8-6.8-5.6c6.1-6.1,11.6-11.1,17.9-16.4v30c-26,0.1-53-7.5-76.3-18.8
		c-41.1-19.9-75.5-54.1-92.6-96.9c-5.7-14.2-11.6-43.7-12.2-58.3c-1.4-30.6,4.1-73.9,11.1-103.7C51.6,435.5,56.9,416.9,69,397.1
		L69,397.1z M216,323.9c-5.7,2.5-11.2,4.9-16.2,7.2c6.3,5.7,10,9,16.2,13.9V323.9L216,323.9z M160.9,696.1l30.3,22.3
		c7.2-7.2,13.7-13.1,21.4-19.5l-32.1-26.8C173.6,679.8,165.9,688.6,160.9,696.1L160.9,696.1z M216,635.6
		c-9.9,9.6-20.3,20.1-29.7,30.3l29.7,24.7V635.6L216,635.6z M200.9,638.3c2.9-2.9,6.2-6.1,9.7-9.5c-14.5-13.3-27.6-26-40.7-40.6
		c-9.3,11.5-21.2,26.2-29.3,37.4c12.5,11.7,26.4,23.8,39.1,34.7L200.9,638.3L200.9,638.3z M171.3,664.4
		c-12.2-10.4-23.9-20.7-35.7-31.6c-6.9,10.5-11.5,19.9-15.4,31.7c10.8,8.9,22.3,17.8,33.7,26.5c5.2-7.7,12.9-16.5,19.9-24.3
		C173,665.9,172.1,665.1,171.3,664.4L171.3,664.4z M61.6,593.8c5.1,7.9,9.5,14.8,13.6,20.9c2.9-11.9,7.7-23.8,13.1-35.8
		c-8.3-13-15.1-27.4-24-46.6c-1.3,4.8-12.1,45-11.6,47.7C55.8,584.8,58.8,589.5,61.6,593.8L61.6,593.8z M88.9,600
		c-3.4,8.9-5.3,15.8-7,24.4c10.6,14.8,17.8,22.8,31.2,34.1c4.1-11.7,9.1-21.3,16.1-31.8c-12.8-12.3-24.9-25-35.2-39.3
		C92.1,591.9,90.3,596.2,88.9,600L88.9,600z M106.9,590.1c8.1,10.2,17.8,20.2,27.3,29.4c8.7-11.9,19.6-25.4,29.8-37.9
		c-14.7-16.9-26-32.6-38.1-51.2c-11.9,17.1-19.3,29.4-27.8,47.7C101,582.3,103.9,586.3,106.9,590.1L106.9,590.1z M95,564.8
		c7.6-15.1,15.7-27.7,25.9-42.2c-9-14.1-21-32.8-28-46.9c-7.8,12-19.8,31.1-24.7,44.2c9.7,21.3,16.9,36.6,24.5,49.6
		C93.5,567.9,94.2,566.3,95,564.8L95,564.8z M102.8,476.1c6.2,11.8,15.8,26.8,23.5,38.9c12.6-17.2,25.5-33,40.3-49.4
		c-11-13.4-22.2-25.7-32.2-40.1c-17.5,15.5-22.6,23.7-35.9,41.8C99.9,470.5,101.4,473.3,102.8,476.1L102.8,476.1z M156.2,490.8
		c-9,10.8-17,21.2-24.8,32c12.1,18.7,23.6,34.8,38.3,51.9l44.1-53.7c-16.1-17.7-27.1-30.7-41.6-48.6
		C166.6,478.5,161.3,484.7,156.2,490.8L156.2,490.8z M210.2,538.9l-34.8,42.4c13.1,14.7,26.1,27.3,40.6,40.6v-90.1L210.2,538.9
		L210.2,538.9z M216,427.3c-12.8,12.3-25.5,25.1-38,38.7c12.9,16,23.8,29.1,38,44.7V427.3L216,427.3z M216,359.5
		c-9.7,7-20.1,14.8-30.5,23.1c9.7,9.8,20,19.3,30.5,29V359.5L216,359.5z M194.7,364.5c6.2-4.7,11.7-8.7,16.7-12.2
		c-8.2-6.3-12.7-10.6-20.1-17.2c-12.3,5.9-20.1,10.6-31.4,18.7c6,7.7,12.7,15.3,19.6,22.6C184.9,372.1,190,368,194.7,364.5
		L194.7,364.5z M114.3,390.5c-11.6,10.9-21.4,21.9-31.5,34.7c3.7,11.9,7.2,22.5,11.6,33.1c6.1-8.4,15.7-21.1,22.6-28.1l12.6-11.8
		c-5.7-9-10.3-17.9-15-28.1L114.3,390.5L114.3,390.5z M121.3,384.1c4.7,10.3,9.3,19.4,14.9,28.4l36.5-30.7c-7-7.4-13.9-15.3-19.9-23
		C142.6,366.3,131.3,375.2,121.3,384.1L121.3,384.1z M164.4,399.8l-23.5,20c9.8,14.4,21,26.5,31.6,39.4
		c13.3-14.3,25.6-26.8,39.2-39.7c-11.3-10.4-22.5-20.7-33-31.4C174.1,391.8,169.3,395.8,164.4,399.8L164.4,399.8z"/>
	<path class="st2" d="M232.6,376.7c-2,8.1-10.8,5.3-9.7-2c0.3-2,1.4-3.8,3.5-4.3l-0.2-45.4c-2.6-0.5-4.6-1.4-4.6-4.6
		c0-4.9,10.7-4.4,14-3.7c3.3,0.8,3.8,5.5,1,7.2l-3.4,1.2l0.3,14.8c12.8-6.1,24.5,8.4,23.2,23.7C255.5,377.8,241.3,382.6,232.6,376.7
		L232.6,376.7z M334.2,380.7c-0.2,2.8-2.5,3.1-5.3,3.1c-2.7,0.1-5.3-1.6-5.7-4.4c-10.1,8.3-18.9,1.8-19-11
		c-0.1-12.3,8.6-21.4,19-12.8c0-3.2,1.7-4.1,4.9-4.3c2.7-0.2,5.4,0.3,5.3,3.3c-0.1,3.1-2.1,3.2-4.1,3.2v19.7
		C331.6,377.7,334.2,377.8,334.2,380.7L334.2,380.7z M225.3,391.7c0.3-2.7,4-1.7,3.8,0.4l-0.3,5.1c1.7-6.9,10.6-11.4,12,1.2
		c0.4,3.2,0.1,7-0.9,10c2.1-1.3,4.3-4.3,5.5-6.9c0,0,0.8-7.7,1.8-9.5c1.2-2.1,4-0.4,3.3,2.2c-1.1,3.7-2.1,9.9-1.4,13.7
		c0.3,1.8,1.5,1.8,2.5,0.4c2.8-3.9,2.2-8.5,2.5-13.8c0.2-3.4,3.8-3.4,3.8,0.4v0.9c1.4-2.3,3.6-5.7,6.7-4.9
		c6.4,1.7,1.6,18.4,3.1,18.7c2.2,0.4,4.2-6,4.4-8.3c0.3-3.8,1.3-10.6,5.2-12.3c5.9-2.6,7.5,7.2,3.7,13.6c-1.2,2.1-3.1,3.7-5.7,3.5
		c0.3,11.5,8.8,3.5,10-3.2c0-0.2,0.1-0.4,0.2-0.6c0,0,1.8-13.3,8.4-12.6c1.2,0.1,2.4,0.9,3.6,2.2c0.5-1.9,3.9-0.7,3.3,2
		c-0.5,2.3-3.9,16.2-0.6,16.6c2.9,0.3,4.6-6.5,5-8.8c0.1-0.4,0.2-0.7,0.4-0.9l0.5-8.9c0.2-2.5,4-1.8,3.8,0.4l-0.3,5.1
		c1.7-6.9,10.6-11.3,12,1.2c0.4,3.2,0.1,7-0.9,10c4.2-2.6,5.1-7.3,6-7.2l0.5-9.5c0.2-2.5,4-1.8,3.8,0.4l-0.3,5.1
		c1.7-6.9,10.6-11.3,12,1.2c0.4,3.2,0.1,7-0.9,10c0.9-0.6,1.8-1.4,2.7-2.4c0.8-0.9,1.6-2.1,2.4-3.7c0-1.1,0-2.2,0.1-3.5
		c0.2-5.1,1.7-22.6,9.9-19.9c4.5,1.5,0.7,13.6-0.4,16.7c-0.7,2-1.5,3.9-2.4,5.8c-0.9,1.9-1.9,3.7-2.9,5.3c-0.1,0.4,1,5.5,5.2,1.3
		c1.3-1.3,2.9-3.8,3.3-5.5c0.3-1.1,0.2-11.4,5.3-13.7c5.9-2.6,7.5,7.2,3.7,13.6c-1.2,2.1-3.1,3.7-5.7,3.5c0.3,11.5,8.8,3.5,10-3.2
		c0.4-1.9,3.1-0.5,2.7,1.1c-0.8,3.1-2.5,7.7-4.8,9.8c-3.8,3.6-10.1,3.8-11.2-4c-4.6,6.5-10.6,6.2-12.4-2.2
		c-3.5,6-11.9,10.2-17.4,6.1l-1.2,15.9h0c-0.3,1.4-4,1.8-3.8-0.4l1.4-21.7c-3.4,6.1-11.9,10.3-17.5,6.2l-1.2,15.9h0
		c-0.3,1.4-4,1.8-3.8-0.4l1.1-18.1c-4.2,7.2-8.8,3.5-9.5-1.4c-3.2,5-7.7,5.5-9.5,0.1c-3.5,7.5-12,9.2-13.7,0.8
		c-3.5,6.4-8.7,4.5-8.6-2.4c0.1-3.3,1.1-8.8,0.6-11c-0.4-1.6-2.3-1.9-4,1.6c-1.5,3-2.5,7.4-2.9,10.7c-0.3,2.3,0.2,4.3-2.1,4.6
		c-1.5,0.2-2-1.1-2-2.5c-3.4,5-7.1,2.3-7.8-3.8c-3.5,5.9-11.8,10-17.3,6l-1.2,15.9h0c-0.3,1.4-4,1.8-3.8-0.4
		c0.9-11.3,1.4-24.4,2.1-35.7C225.3,392.3,225.3,391.8,225.3,391.7L225.3,391.7z M232.6,467.2c-2.7,0-4.7-1.4-6.8-3.3
		c-1.6,2.4-6.1,1.2-1.6-7.9c2.2-4.6,4.5-2,4,1.1c-0.2,1.2-0.5,1.4,0.5,2.6c2.5,3.1,7.4,2.1,7.4-3.1c0-6-4.6-1.8-9.2-5.2
		c-5.8-4.2-1.7-17.3,6.6-15c0.9,0.2,1.7,0.6,2.4,1.2c1.8-4.7,4.2-3,4.5-1.6c0.7,3.4-1.7,11.9-4.4,9.4c-0.7-0.6-1.1-1.7-1.1-2.6
		c-2.1-1.3-6.6-1.5-6.5,2.2c0.1,2.7,4,2.6,5.9,2.6C243.3,447.7,241.6,467.2,232.6,467.2L232.6,467.2z M333,426.7
		c4.6,0.2,3.2,5.6,3.1,10.8c0,0.6,4-0.3,4,3.4c0,2.9-2,2.7-4,2.9c0,1.9-0.7,20.4,1.7,21.5c-0.7-5.6,5.4-5.8,5.4-0.3
		c0,5.5-5.5,6.9-8.3,4.3c-2.4-2.2-2.8-8-2.9-12.1c-0.1-3.6,0-8.1,0.1-13.4c0-0.3-4.3,0.5-4.1-2.9c0.1-2.4,1.8-3.5,4.1-3.4l0.2-5
		C329.3,431.7,329.6,426.6,333,426.7L333,426.7z M223,479.8c-0.2-3.5,5.9-4.9,6.4-1.6l1.1,10.1l1.5,10.3l4.8-11.9
		c0.6-1.4,1.2-2.8,2-4.3c1.3-3.4,6.7-1.9,7.5,1.9l3.7,18.2c1.6-5.7,3.3-17,4.1-23c0.6-5.1,7.4-3,6.6,0.6c-0.4,2.4-0.9,5-1.4,7.6
		c-1.6,7.7-3.7,16.1-5.7,23.6c-0.7,2.7-6.8,3.9-7.3,0.3l-4.9-18.4c-3.3,5.5-6,14.4-9.4,19.8c-1.2,1.9-5.1,1.8-5.3-1.3
		C226,500.7,223.5,489.3,223,479.8L223,479.8z M222.4,541.6c0.4-14.3,10.9-24.5,22-17.1c3.3-5.6,7.8-1.9,6.4,2.8
		c-0.7,2.4-3.1,11.6-5.5,12.4c-1.8,0.6-3.9-1-3.8-4.4c0-0.6,0-1.3,0-1.9c-1.2-1.5-2.4-2.3-3.8-2.5c-5.1-0.8-8.2,5.5-8.5,10.5
		c-0.6,9.2,2.6,19.5,12.8,12.6l5.3-3.6c3.2-2,7,6.4-4.2,12.6c-4.5,2.5-9.2,3.3-13.4,0.1C223.6,558.2,222.2,549,222.4,541.6
		L222.4,541.6z M254.4,569.7c-0.1-3,1.5-4.9,4.2-4.9c0.6-9,0-21.7-0.3-30.9c-1.8,1.1-4.7-2.9-4-7.8c1-7,7.8-6.2,10.5-0.8
		c2.6-1.8,7.4-3.7,10.5-1.9c6.5,3.8,6.2,16.6,0.7,18.8c-3.4,1.3-6.5-5.6-3-9.7c-5.1-1.6-7.2,5.1-7.7,9.6c-0.7,6.3-0.6,15.8-0.1,22.1
		c2.4,0,4.4,0,5.3,2.6c0.8,2.3,0.6,6.5-1.7,7.5c-2.6,1.1-7.2,0.5-10.4,0.5C255.5,574.8,254.5,572.6,254.4,569.7L254.4,569.7z
		 M295.2,573.3c-14.5-1.1-15.7-29.6-9.7-42.4c2.2-4.8,5.7-8.8,11.2-8.4c7.8,0.6,11.3,10.3,12.4,17.1c1.6,9.6,0.8,25.8-7.7,32
		C299.7,572.9,297.6,573.4,295.2,573.3L295.2,573.3z M357.5,569.8c0.2,4.7-4,4.5-7.2,4.5c-3.8,0-7.9,0.8-7.9-4.5
		c0-2.5,0.6-4.2,2.7-5.1l-6.2-21.1l-5.8,19.9c2.1,1,2.7,2.6,2.7,5.1c0,4.4-3.5,4.3-6,4.8c-3.4,0.8-9.1,1.5-8.8-3.8
		c0.3-4.9,2.1-4.7,3-5.3c-2.5-9.6-5.7-20.1-8.9-29.5c-0.7-0.1-2.4,1.2-3.3-1.1c-1.4-3.6,0.7-7.1,3.5-9.3c2.1-1.6,5.3-4.8,7-1.4
		c1.1,2.1,0.9,5.3-0.9,7.3c1.6,6.4,4.7,15.5,6.6,22.1c0.3,0.9,0.4,1.5,0.5,1.6l6.2-21.5c1.6-5.7,7.4-3.3,8.4,0.2l6.5,22.5l6-24.9
		c-1.4-1.5-1.4-2.1-1.5-4.1c-0.2-3,1.5-5.9,4.3-4.2c2,1.2,5.4,3.9,6.6,6.1c1.3,2.5,1,8.1-2.5,6.6c-0.5-0.2-0.9-0.3-1.2-0.2l-6.6,30
		C355.1,565,357.2,564.8,357.5,569.8L357.5,569.8z M368.1,561.5c-0.1-2.8,1-4.7,3.7-5l-0.1-24.1c-4.3-0.6-4.9-10.4,1.2-11.2
		c1.9-0.2,3.4,0.7,4.4,2.4c8.7-4.7,15.1-0.5,17.3,8.1c2,7.8,1.9,16.8,1.6,24.7c5.4,0,4.9,5.9,2.1,7.4c-1.7,1-9.2,2.2-11.7-0.4
		c-1.1-1.2-1.4-4.1-0.2-5.2c0.6-0.6,1.6-1.2,2.9-1.6c0.7-5,0.3-20.6-2.7-24.5c-2-2.5-5.1-1.5-7.7,0.5v23.6c4.2,1.7,3.5,5.9,2.1,7.1
		c-2.2,1.9-5.4,1.7-8.1,1.7C370.6,565,368.2,564.2,368.1,561.5L368.1,561.5z M243.4,569.1c12.7,7.1-1.4,26.8-7.9,33.9
		c-2,2.2-3.9,4-5.8,5.5c0,2.9,0.2,10.1,4.3,10.1c3.8,0,8.8-7.7,10.3-10.7c1.5-2.9,0.8-9.7,5.4-9.7c2.7,0,3.3,3.1,3.4,3.2
		c1.2,1.6,3.9,1.1,5.5,0c1-6.1,3.3-14,9.5-16.4c6.5-2.5,11.3,2.2,11.1,9.5c-0.2,8.5-5.4,19.2-14.9,18.5c0.1,4.6,1.3,11.1,7.4,9.1
		c5.8-1.9,10.6-8.5,11.9-14.3c0.7-3.1,6.1-0.9,5.3,1.7c-1,3.6-3.6,9.3-5.6,12.2c-3.3,4.7-9.2,8.1-15,7.8
		c-7.3-0.4-10.1-6.6-10.5-13.4l0-6.8c-1.8,0.3-4,0.2-5.4-0.8c-2.4,6.7-10.5,18.1-18,18.1c-11.8,0-12.6-14.4-11.8-23.3
		C223.3,594.4,228.6,560.7,243.4,569.1L243.4,569.1z M298.5,605.6c-2.9,2-5-0.9-3.5-3.8l11-19.9c1.4-2.6,6.2-2.3,4.9,2.4
		c-0.5,2,3.9,12.5,1.8,21.4c3.6-1.8,5.4-6.8,6.8-10.7c0.4-1,0.4-0.3,0.2-1.4l-1.3-10.6c-0.1-2.6,4.5-3.6,4.9-1.2
		c0.7,4.6,0.9,10.3,2,15.2l3.7-8.9c0.4-1,1-2.1,1.5-3.2c1-2.5,5.2-1.4,5.8,1.4l2.9,13.6c1.3-4.3,2.6-12.7,3.2-17.2
		c0.5-3.8,5.8-2.3,5.2,0.4c-0.3,1.8-0.7,3.7-1.1,5.7l-4.4,17.7c-0.6,2-5.3,2.9-5.7,0.2l-3.8-13.8c-2.5,4.1-4.6,10.8-7.3,14.8
		c-0.9,1.4-4,1.3-4.1-0.9c-0.1-1.3-0.2-2.6-0.3-3.8c-2.6,4.4-6.3,8.3-11.7,8.5c-4.4,0.1-8.4-2.2-10.5-6.2L298.5,605.6L298.5,605.6z
		 M236.6,685.8c-22.6-1.2-19.8-41.1,1.8-40C259.8,647,259.4,686.8,236.6,685.8L236.6,685.8z M257.5,674.7c-0.2-3,1.6-4.5,4.4-4.7
		l-0.1-22.8c-5.1-0.6-5.9-9.8,1.4-10.6c2-0.2,3.9,0.5,5.2,2.3c6.2-2.7,12.6-2.7,17.1,1.7c6.3,6.2,5.7,21,5.4,29.3
		c6.4,0,5.8,5.5,2.5,7c-2.3,1-8.9,1.4-11.7,0.7c-4.1-1.1-3.8-4.9-2.4-6c0.7-0.6,1.9-1.1,3.4-1.5c0.9-4.8,0.4-19.5-3.3-23.1
		c-2.4-2.4-6.1-1.4-9.2,0.5v22.3c5,1.6,4.2,5.6,2.5,6.7c-2.7,1.8-6.6,1.6-9.6,1.6C261,678,257.7,677.5,257.5,674.7L257.5,674.7z
		 M311.8,615.7c5.9-0.4,4.8,4.7,5.3,10.7c0.1,0.6,5.3-0.8,5.7,2.9c0.3,3.1-2.7,3.1-5,3.5c0.2,2.8,1.3,21.1,4.6,22
		c-1.5-5.7,6.5-6.7,7.1-1c0.6,5.6-6.5,7.8-10.5,5.6c-3.4-1.9-4.6-7.6-5.2-12.1c-0.5-3.7-0.9-8.3-1.4-13.8c0-0.3-5.6,1.2-5.8-2.4
		c-0.1-2.8,2.4-3.9,5.1-4.1l-0.3-5.2C307.5,621.4,307.3,616.1,311.8,615.7L311.8,615.7z M226.2,702.3c3-3.4,6.4,0.2,5.4,3.1
		c-1.4,4.2-2,7.5-2.4,12.1c-0.2,2-1.1,10.5,2.6,9.6c2.3-0.6,5.2-7.8,5.2-9.4l-0.6-10.1c-0.1-4.8,5.6-5.5,6.3-0.1l0.1,1.3
		c2.1-3.9,5.2-8.7,10.3-8.1c10.7,1.4,5.2,26.2,7.7,26.3c1.4,0.1,3.4-2,3.4-3.2c0.1-2,2.1-11.9,2.6-14.7l2.5-14.4
		c0.6-3.6,6.3-5.1,6.6,1.1c0,0.7,0.2,1.3,0.6,1.8c3.9,5.9,9.1,15.6,9.8,23.1c3.1-3.1,3.5-8.6,3.7-13.1c0-0.1-1.2-10.5-0.1-14.3
		c0.6-1.7,3.7-3.1,5.4-0.4c1,1.6,0.4,3,0.3,5.7c-0.1,3,0.6,17,3.7,17.9c2.7,0.7,3.8-4.2,4.2-6.8c0.1-0.7,0.5-2.4,0.2-2.9
		c-6.3-10-3.8-27,9.1-24.3l-3.5-19.6c-0.8-3.7,4.7-4.6,5.5-0.8c2.3,9.6,5.7,29.7,10.4,37.5c3,5,5.5,1.3,5.2-3.8
		c-0.1-2.8-0.8-3.1-0.8-4.8l-0.7-1.9c-1.9-5.6-4.6-16.8,0.7-21.3c4-3.4,8.4-1,10.1,4.1c1.9,6,1.2,15.1-5.8,16.9
		c1.2,3.2,3.6,7.7,7.5,4.7c3.6-2.8,5.2-8.8,4.7-13.2c-0.3-2.4,4-2.1,4.1,0c0.2,2.8-0.2,7.6-0.9,10.1c-1.7,6.5-8.7,11.8-14.3,8.6
		c-0.5,5.6-3.7,12.4-10.3,8.4c-1.5-0.9-3-2.3-4-3.7c-1.3,6.2-6.2,10.4-11.8,7.9l-1.1-0.6c-0.6,4.4-2.9,13.1-8.6,12.6
		c-2.6-0.2-4.3-2.1-5.6-4.1c-4,11.1-16,13.8-23.5,6.1c-0.7,1.5-0.9,0.8-1.6,2.2c-1.6,3.2-4.3,6.8-8.2,6.3
		c-11.4-1.4-2.6-24.7-8.2-25.7c-5.9-1.1-7.8,16.3-8,20.1c-0.2,3.8,0.5,4.8-0.9,6c-1.9,1.7-4.8,1.3-5.4-1.4l-0.2-4.4
		c-1.9,3-4.8,6.5-8.6,5.3C219.8,730.9,223.4,708.7,226.2,702.3L226.2,702.3z M333.6,672.4c-3.1-0.9-2.1,8.6-0.9,11.1
		C337.6,680.5,335.7,673,333.6,672.4L333.6,672.4z M314.4,689.6c-7.1-3.5-9.7,5-7.1,11.2c3.2,7.5,9.4,4.2,8.7-3.1
		C315.8,695.6,315.2,691.6,314.4,689.6L314.4,689.6z M290.1,687.7c-3.8-3.6,0.5-8.8,3.9-5.2C296.7,685.3,293.3,690.8,290.1,687.7
		L290.1,687.7z M273.7,704.8l-2,12.5c1.6,2,4.9,5.3,7.8,5.2C280.3,718.7,275.2,708.4,273.7,704.8L273.7,704.8z M227.7,696.9
		c-2.9-4.4,2.3-8.5,4.9-4.2C234.7,696,230.2,700.7,227.7,696.9L227.7,696.9z M331,657c-0.4-2.2,0.8-3.4,2.8-3.7l-3.1-32.1
		c-4,0.4-5.3-7.1,1.2-7.6c3.5-0.3,4.1,3.8,4.4,6.4l1.1,9.8c5.6-3.3,11.5-1.6,14.2,4.4c2.3,5.1,2.8,11.3,3.2,16.7
		c4.7-0.5,4.6,3.6,2.4,4.8c-1.1,0.6-10,3.3-11-0.7c-0.5-1.9,0.8-2.7,2.7-3.4c0.3-3.4-1.2-14.1-4.1-16.5c-2-1.6-4.5-0.5-6.6,1
		l1.7,16.1c3.7,0.8,4.5,4.4,0.2,5.8C338.5,658.7,331.6,660.3,331,657L331,657z M357.4,641c-1.3-12.5,11-19.7,18.6-12.7
		c4.3,3.9,5,11.5,1.6,12l-14.3,2c1.3,9.1,8.9,9.2,11.5,5.5c0.9-1.3-0.3-0.7-0.8-2.9c-0.5-2.4,2.4-3.3,4-2.6c2.5,1.1,8.4,3.8,5.5,7.3
		c-1.2,1.4-2.8,0.3-3.7,0c-2.5,3.1-5.2,5.3-9.4,5.7C362,656.3,358.1,648.3,357.4,641L357.4,641z M373.8,635c-1.3-6.2-9-5.4-10.5,1.6
		C366.5,636.4,370.6,636,373.8,635L373.8,635z M238.1,653.5c-9.3-1.1-11.9,14.5-7.6,21.4c4.3,6.9,16.1,4.9,15.8-8.2
		C246.2,661.5,243.9,654.4,238.1,653.5L238.1,653.5z M307,590.6l-4.8,9c0.8,2,2.5,5.3,4.8,5.9C308.6,602.8,307.2,593.7,307,590.6
		L307,590.6z M363.7,586.5c-0.2,6-3.8,13.5-10.5,13c0.4,11.8,9.5,5.5,12.5-0.6c1.2-2.4,0.9-2.4,1.1-4.8c0.5-4.8,2-12.3,7.1-14.2
		c4.6-1.7,7.9,1.6,7.8,6.7c-0.2,6-3.8,13.5-10.5,13c0.1,3.3,0.9,7.8,5.2,6.4c4.1-1.3,7.4-6,8.4-10.1c0.1-0.4,0.3-0.7,0.6-0.9
		l1.3-10.7h-2.2c-2.4-0.1-2.2-5,0-5.4c1-0.2,1.8,0.1,3.3,0l1.5-9.1c0.5-2.4,5.2-2.6,4.8,0.9l-1.3,8.2h6.4c2.5,0.1,2.1,5,0.2,5.4
		h-7.3c-0.3,3.4-3.9,19.3,1,19.5c4.4,0.2,7.4-3.5,8-7.8c0.4-3.2,4.6-1.6,4.2,0.6c-1.4,7.2-5.5,12.4-13.4,12.4
		c-3.6,0-5.3-2.1-6.1-5.3c-1.7,3.1-3.7,5.3-7.1,6.6c-5.5,2.1-10.2,0.4-11.6-5.4c-5,8-17.8,9.8-18.4-3.2c-0.3-6.2,0.3-19.1,7.2-21.8
		C360.5,578.1,363.8,581.3,363.7,586.5L363.7,586.5z M358.3,585.2c-2.5-1.7-4.6,6.9-4.3,9.4C359.3,593.5,360,586.3,358.3,585.2
		L358.3,585.2z M376.2,585.2c-2.5-1.7-4.6,6.9-4.3,9.4C377.3,593.5,378,586.3,376.2,585.2L376.2,585.2z M239.8,576.4
		c-3.6-1.8-7.7,15-8.3,17.2c-0.4,1.6-0.8,3.1-1.1,4.4C234.7,594.1,243.6,578.5,239.8,576.4L239.8,576.4z M271.5,592.7
		c-3.5-2.5-6.6,9.8-6.1,13.3C273,604.4,273.9,594.2,271.5,592.7L271.5,592.7z M296.5,532.2c-4.3-0.8-6.4,5-7.3,8.7
		c-1.2,5.5-1.6,17.3,3.2,22c2.2,2.1,5.8,1.9,7.8-0.9C305.8,554.4,303.6,533.9,296.5,532.2L296.5,532.2z M281.4,484.3
		c-0.3,7.8-4.7,18.1-13.5,17.4c0.1,4.2,1.1,10.4,6.7,8.5c5.4-1.8,9.6-8.1,10.8-13.5c0.1-0.4,0.2-0.7,0.4-0.9
		c0.2-0.3,1.8-12.9,9-17.9c4.1-2.8,8.2-1.7,11.9,1.9c0.9-2.9,6.8-1.1,5.7,3.1c-1.4,5.4-4.9,18.9-3,23.9c1.6,4.2,8.4,0.5,10.6-11.9
		c0.6-3,1.8-8.3,2.5-12.9c0.9-6.2,7.8-3.8,6.7,1.4c5.1,6.6,9.4,4.2,10.7,7.5c0.8,2-0.8,4.1-1.4,7.9c-0.3,2-1.6,12.3,1.2,12.8
		c4.4,0.9,7.3-9.8,8.4-15c0.8-4,5.7-2.4,5.2,0.4c-4.9,28-18.4,23.7-20.6,16.1c-1.7-5.9-1.2-12,0.2-17.9c-1.7-0.8-4-1.8-5.5-3
		c-1.1,3.8-5.3,20-6.4,21.8c-1.2,2.1-3.8,1-5-0.2c-5.2,4.5-11.7,0.9-13-6.4c-1.9,2.7-5.4,6-8.9,6c-4,0-6.3-2.4-7.6-5.9
		c-2.1,4-4.7,6.8-8.9,8.6c-9.3,3.8-15.1-1.6-15.6-11.5c-0.4-8.1,0.4-25.6,9.3-29.1C277.3,473,281.5,477.5,281.4,484.3L281.4,484.3z
		 M274.3,482.6c-3.2-2.3-5.9,9.2-5.5,12.5C275.7,493.7,276.6,484.1,274.3,482.6L274.3,482.6z M294.1,505.4
		c6.8,0.7,9.1-14.9,9.7-19.6C294.4,476.8,289.2,504.7,294.1,505.4L294.1,505.4z M373.1,513.2c-7.7,0-9.1-8.8-8.6-15
		c0.6-7.8,5.4-22.6,14.9-21.8c2,0.2,4.1,1.3,6.3,3.4c0.9-2.9,6.8-1.1,5.7,3.1c-1.4,5.4-4.9,18.9-3,23.9c1.6,4.3,8.4,0.4,10.6-11.9
		c0.7-4,5.5-1.4,4.6,1.8c-0.3,1.7-0.8,3.6-1.6,5.7c-2,5.5-7.3,15.2-14.4,12.6c-3.2-1.2-5.1-4.4-5.7-7.9
		C380.1,509.9,376.7,513.2,373.1,513.2L373.1,513.2z M373.1,505.4c6.8,0.7,9.1-14.9,9.7-19.6C373.4,476.8,368.2,504.7,373.1,505.4
		L373.1,505.4z M365.1,467.9c-0.1,2.3-1.4,2.7-3.7,2.8c-2.1,0.1-3.7-1.7-3.9-3.9c-8.8,9.2-15-2.5-12.7-15c1.4-7.7,6.5-12.6,12.7-6.1
		c0-2.6,0.9-3.6,3.4-3.8c5.1-0.4,3.9,4.7,2.7,5.4c-0.6,0.3-1.2,0.3-1.8,0.3v17.5C363.6,465.2,365.1,465.4,365.1,467.9L365.1,467.9z
		 M357.5,452.8c-3.4-7.3-8.9-5.6-8.9,3.9c0,4.4,2,10.9,6.6,6.9c0.9-0.8,1.7-1.9,2.3-3.4V452.8L357.5,452.8z M367,467.3
		c0.1-1.8,1.1-2.2,2.6-2.6l0.5-31.3c-2.1,0-3.1-1.3-3.1-3.2c0-4.2,5.2-3.5,6.3-2.7c1.4,0.9,1.4,3.3,1.4,5.1l-0.3,32.2
		c3.4,0.1,3.4,4.7,1,5.5c-1.7,0.5-8.3,1.5-8.5-1.9C367,468,367,467.6,367,467.3L367,467.3z M379.1,467.3c0.1-1.8,1.1-2.2,2.6-2.6
		l0.5-31.3c-2.1,0-3.1-1.3-3.1-3.2c0-4.2,5.2-3.5,6.3-2.7c1.4,0.9,1.4,3.3,1.4,5.1l-0.3,32.2c3.4,0.1,3.4,4.7,1,5.5
		c-1.7,0.5-8.3,1.5-8.5-1.9C379.1,468,379.1,467.6,379.1,467.3L379.1,467.3z M247.4,419.9c2.9,0.2,3.4,2.3,3.4,5.5
		c-0.1,8.2-1.1,5.9,1.8,6.8c2.8,0.9,2.5,5,0.7,5.7c-0.8,0.4-1.8,0.3-2.7,0.4c0,2-0.7,22,1.7,23.2c-0.7-6.1,5.4-6.3,5.4-0.3
		c0,5.9-5.5,7.4-8.3,4.6c-2.4-2.4-2.8-8.7-2.9-13.1c-0.1-3.9,0-8.7,0.1-14.4c0-0.4-4.3,0.6-4.1-3.1c0.1-2.5,1.7-3.8,4.1-3.7l0.2-5.4
		C243.7,425.3,244,419.8,247.4,419.9L247.4,419.9z M279.4,464.3c-0.1,2.4-1.4,2.9-3.7,3c-2.2,0.1-3.7-1.9-3.9-4.2
		c-5.9,6.6-11.1,3.3-12.6-5c-2.4-13.2,4-27.7,12.6-17.8c0-2.7,0.8-3.9,3.4-4.1c5.1-0.5,3.9,5.1,2.7,5.9c-0.6,0.4-1.2,0.3-1.8,0.3
		v18.8C278.1,461.5,279.4,461.7,279.4,464.3L279.4,464.3z M271.9,448c-3.4-7.9-8.9-6.1-8.9,4.2c0,4.7,2,11.7,6.6,7.4
		c0.9-0.8,1.7-2,2.3-3.6V448L271.9,448z M281.4,464.8c-0.1-1.9,0.6-3.4,2.4-3.5l0-17.2c-2.8-0.5-3.2-7.4,0.8-8
		c1.2-0.2,2.2,0.5,2.8,1.7c5.9-3.5,9.9,0,11.3,5.8c1.3,5.6,1.2,12,1,17.6c3.5,0,3.2,4.2,1.4,5.3c-0.8,0.5-7.8,2.4-8.2-1.9
		c-0.2-1.9,0.6-2.6,2.3-3.2c0.5-3.5,0.2-14.7-1.8-17.5c-1.3-1.8-3.3-1.1-5,0.3V461c3,1.4,3.2,6.3-2.3,6.3
		C284.3,467.3,281.5,467.5,281.4,464.8L281.4,464.8z M317.1,463.9c-6.7,6.6-14.4,1.9-14.4-9.7c0-5.9,2.1-14.5,8.4-16.1
		c1.7-0.4,3.4-0.1,5.3,0.9l-0.2-12.8c-3.4-0.7-2.5-4.5-1.9-5.5c0.8-1.2,2.6-0.9,4.5-0.8c2.2,0.1,3.7-0.2,4.4,1.2
		c0.8,1.7,0.8,5.2-2.4,5.1l0.2,32.8c2.9,0.8,3.7,7.2,0.5,8.7C319.2,468.8,317.3,467,317.1,463.9L317.1,463.9z M306.9,454
		c0.1,6,4,8.1,7.9,5.2c0.6-0.5,1.2-1,1.6-1.7v-11.2c-0.2-0.6-3.4-4.1-6.5-1.2C307.7,447.1,306.9,450.9,306.9,454L306.9,454z
		 M236.4,395.8c-2.7-3.1-7.7,7.4-7.2,11.8c0.5,4.2,5,4.2,6.8,1C237.3,406,238.3,398,236.4,395.8L236.4,395.8z M248.1,388.3
		c-1.8-3,1.4-5.9,3-2.9C252.3,387.7,249.6,390.9,248.1,388.3L248.1,388.3z M278.9,393.6c-1.8-1.5-3.4,6-3.2,8.2
		C279.7,400.8,280.2,394.6,278.9,393.6L278.9,393.6z M290.2,408.4c4,0.5,5.3-10,5.6-12.8C290.4,389.8,287.4,407.9,290.2,408.4
		L290.2,408.4z M317.1,395.8c-2.7-3.1-7.7,7.4-7.2,11.8c0.5,4.2,5,4.2,6.8,1C318,406,319,398,317.1,395.8L317.1,395.8z M338.3,395.8
		c-2.7-3.1-7.7,7.4-7.2,11.8c0.5,4.2,5,4.2,6.8,1C339.2,406,340.1,398,338.3,395.8L338.3,395.8z M354.7,383.6
		c-2.3-0.2-4.6,14.4-4.6,16.8c1.8-3.1,5.5-12.8,5.1-16.2C355.2,383.8,355,383.6,354.7,383.6L354.7,383.6z M366.6,393.6
		c-1.8-1.5-3.4,6-3.2,8.2C367.4,400.8,367.9,394.6,366.6,393.6L366.6,393.6z M323.2,363.7c-5-8.3-12.9-6.3-12.9,4.4
		c0,6,3.4,11.9,9.6,7.7c1.3-0.9,2.4-2.1,3.4-3.8V363.7L323.2,363.7z M233.5,368c4.7,5.1,14.9,3.8,16.1-5.1
		c1.4-11.1-6.6-20.1-15.9-13.3L233.5,368L233.5,368z M260.1,358.1c0-9.1,5.4-19.8,15.3-19.8c13.8,0,16.2,21.4,10,21.8l-18.1,0.7
		c0.2,5.3,2.1,11.5,8.3,11.9c3.2,0.2,6.1-2.9,5.8-3.6c-0.1-0.3-3.4-5.3,1.7-6.6c1.9-0.5,3.8,1.3,5.7,2.8c7.2,5.5,2.9,9.4,1.4,9.5
		c-1.6,0.1-2.3-0.8-3.2-1.3c-3.3,3.8-7.1,6.6-12.5,6.6C263.4,380.1,260.1,367.2,260.1,358.1L260.1,358.1z M281.4,352.1
		c-0.8-8.9-10.6-8.9-13.4,0.6C272.1,353,277.4,353,281.4,352.1L281.4,352.1z"/>
</g>
</svg>
