<?xml version="1.0" encoding="utf-8"?>
<!-- Generator: Adobe Illustrator 21.1.0, SVG Export Plug-In . SVG Version: 6.00 Build 0)  -->
<svg version="1.1" id="Layer_1" xmlns="http://www.w3.org/2000/svg" xmlns:xlink="http://www.w3.org/1999/xlink" x="0px" y="0px"
	 viewBox="0 0 720 402" style="enable-background:new 0 0 720 402;" xml:space="preserve">
<style type="text/css">
	.st0{fill-rule:evenodd;clip-rule:evenodd;fill:#FF8D90;}
	.st1{fill:#FF8D90;}
</style>
<g>
	<path class="st0" d="M231.4,148.8h41.2c1.4,0,2.6,1.2,2.6,2.6v7.2c0,1.4-1.2,2.6-2.6,2.6h-41.2c-1.4,0-2.6-1.2-2.6-2.6v-7.2
		C228.8,150,230,148.8,231.4,148.8L231.4,148.8z M454,148.8h41.2c1.4,0,2.6,1.2,2.6,2.6v7.2c0,1.4-1.2,2.6-2.6,2.6H454
		c-1.4,0-2.6-1.2-2.6-2.6v-7.2C451.4,150,452.6,148.8,454,148.8L454,148.8z"/>
	<path class="st1" d="M318.8,133.8c2.4-5.8-8.4-11.5-12,0.3c-1.7,6.3-4.3,29,1.4,40.4c2.7,5.5,6.7,8.7,11.1,9.3
		c9,1,18.6-8.1,26.3-19.8c-0.1,5.4,0.3,11.3,1.5,16.9c2.7,12.5,9.6,13.9,15.6,8.4c6.2-5.5,14.9-42.5,18-52.1
		c3.4-10.1,7.7-13.7,7.4,0.9c-0.2,16.3-1.5,38.6,12.7,39.9c10.1,0.9,21.3-16.1,28.5-31.9H421c-2.2,4.3-5.1,9.4-8.2,13.5
		c-5.5,7.2-12.7,12.2-13.4-1l-1.5-24.5c-0.7-11.3-4.3-15.8-10.6-15.8c-7,0.2-11.7,6.5-14.7,17.7c-4.3,15.6-9.1,29-11.1,38
		c-2.2,9.9-5.1,9.1-5.7,0.2c-0.5-8.6,0.7-17.8,2.9-28.4c1.1-7.2-10.7-7.1-11.6,0.3h-0.1c-6,13-11.8,20.4-17.7,24.9
		c-5.5,4.3-10.6,2.2-12.2-4.6C314.9,156.6,317.4,137.6,318.8,133.8L318.8,133.8z M314.4,99.2c-9.7,7.3-2,21.6,8.1,13.9
		C332.3,105.5,324.1,91.5,314.4,99.2L314.4,99.2z"/>
	<path class="st1" d="M16.3,113.4L1.6,80.8c-2.9-6.6,3.2-7.9,6.1-9.4c3.4-1.7,6.6-0.6,8,3l24.4,53.7c2.2,2.8,4.7,2.3,7.5,1l12.1-5.4
		c6.3-2.1,9.4,8.2,8.3,11c-0.7,1.8-1.9,2.4-3.6,3.2L38,149.9c-3.4,1.2-5.6-0.7-7-3.7L16.3,113.4L16.3,113.4z M85.2,85.6L96.5,119
		c2.3,6.8-1.6,8-8,9.8c-3.4,1-5.5-1.4-6.6-4.4L58.4,54.6c-0.7-5.1,3.6-5.9,8.4-7.4c3.5-1.1,5.8,1,6.9,4.4L85.2,85.6L85.2,85.6z
		 M101,78.9l-9.8-35.9c-0.6-3.9,1.3-5.4,4.7-6.4l33.2-9c5-0.3,5.8,4.2,6.6,8.7c0.7,3.6-1.8,5.3-4.9,6.3L114,47.2
		c-3.6,1.1-4.3,4.1-3.4,7.4c5.5,19.5,3.7,19.6,17.4,15.7c8.5-2.4,12-4.5,14.1,6.7c1.1,5.7-4.9,6.4-9.2,7.6
		c-15.2,4.2-13.4,2.5-7.3,24.7c1.9,6.9-2.4,7.6-7.9,9c-5.4,1.4-6.5-2.4-7.6-6.3L101,78.9L101,78.9z M155.4,65l-7-35.9
		c-0.7-4.1,2.6-5.6,5.6-6.2l32.8-6.3c5.2-0.3,5.7,5.1,6.2,9c0.5,3.7-2.3,5.4-5.6,6l-16.9,3.3c-3.6,0.9-4.5,3.7-3.9,7.2
		c3.4,17.4,2,15.1,21.2,11.4c6.4-1.2,6.9,4.6,7.6,8.8c1.2,7.7-10.7,6.2-18.1,8.6c-5.8,1.9-3.8,7-2.7,12.3c1.5,7,7,4.6,14.1,3.2
		c12.9-2.5,15.7-4.8,17.3,7c0.5,3.4-1.9,5.3-5,5.9c-7.5,1.4-18.2,3.5-32.1,6.2c-4.3,0.8-6.1-1.3-6.9-5.3L155.4,65L155.4,65z
		 M259.7,48.8l3.5,35.1c0.7,7.1-3.4,7.4-10,7.7c-3.6,0.2-5-2.6-5.4-5.8l-7.2-73.2c0.4-5.2,4.8-5,9.8-5.3c3.7-0.3,5.4,2.3,5.7,5.8
		L259.7,48.8L259.7,48.8z M286,64c4.1-0.1,1.7,2.8,8.2,6.2c14.4,7.4,22.8-8.9,11.7-15.5c-12.1-7.2-28.5-10.5-30.5-26.9
		C272.2,0.1,309.5-6.8,321,16.5c0.7,1.4-0.3,3.3-1,3.7c-4.6,3.2-9.1,7.8-12.6,3.6c0.1,0.1-4.8-8.7-12.3-6.3
		c-6,1.9-7.3,10.1,0.9,15.2c10.5,6.4,30.3,8.8,29.8,29.9c-0.3,12.7-7.2,20.3-19.4,22.8c-10.9,2.2-19.6-1.8-28.1-10.2
		C273.2,69.9,282.5,63,286,64L286,64z M403.6,62.7c-2.1,7.5-10.2,7.2-16.6,6.9c-7-0.4-5.2-8.3-4.9-15.8c0.1-2.9,2.5-5.2,4.8-5.2
		C397.4,48.6,407,50.5,403.6,62.7L403.6,62.7z M382.9,24.9c0.1-3.8-0.3-9.7,5.9-9.5c5.2,0.2,11.7,0.9,12.7,6.4
		c2.5,13.6-13.4,15.1-17,11.6C382.2,31.2,382.8,28.5,382.9,24.9L382.9,24.9z M418.9,59c0-0.1,0-0.2,0-0.1
		c-0.3-8.2-6.5-12.7-10.5-17.4c5-3.9,8.2-7.9,8.7-14.9C418.8,4.9,400.7,0.2,382,0.3c-8.3,0-13.7-2.4-14,6.5l-2.2,72.3
		c0.4,3.1,2.4,4.7,5.5,4.8l18.4,0.7C407.7,85.1,419.9,76.2,418.9,59L418.9,59z M430.5,44.1l2.8-36.5c0.4-4.2,4-4.7,7.1-4.5l33.3,2.6
		c5.1,1.1,4.2,6.4,3.6,10.3c-0.5,3.7-3.7,4.6-7,4.3L453.2,19c-3.7-0.1-5.3,2.4-5.6,5.9c-1.3,17.7-2,15.1,17.5,16.6
		c6.5,0.5,5.5,6.3,5,10.5c-0.9,7.7-11.9,3.1-19.7,3.5c-6.1,0.3-5.5,5.7-5.8,11.2c-0.4,7.1,5.6,6.3,12.8,6.8
		c13.1,1,16.4-0.5,14.9,11.3c-0.4,3.4-3.2,4.6-6.4,4.4c-7.6-0.6-18.5-1.4-32.6-2.5c-4.4-0.3-5.6-2.8-5.3-7L430.5,44.1L430.5,44.1z
		 M503.3,58.6l4.2-29c0.8-6-6.3-6.1-8.3-6.4c-6-1-5.2-6.1-4.2-10.8c0.7-3.2,3.4-4.6,6.9-4.1l33.6,4.9c6.9,1,4.4,11.9,1.6,13.8
		c-4.7,3.4-12.6-4.3-14.2,6.3l-8.2,56.7c-1,5.9-7.4,4.3-11.4,3.5c-3.9-0.7-4.5-3.7-4-7.2C499.8,83.3,503.4,58.6,503.3,58.6
		L503.3,58.6z M561.4,68.5l6.3-28.6c1.2-5.9-5.9-6.5-7.8-7c-5.9-1.4-4.8-6.4-3.4-11c0.9-3.2,3.7-4.3,7.1-3.6l33.2,7.3
		c6.8,1.6,3.5,12.2,0.6,13.9c-4.9,3-12.3-5.2-14.6,5.3l-12.3,56c-1.4,5.8-7.7,3.8-11.6,2.7c-3.9-1-4.3-4-3.5-7.5
		C556.2,92.9,561.6,68.5,561.4,68.5L561.4,68.5z M615.9,35.9c1.3-4,4.9-3.7,7.9-2.8l31.9,9.8c4.7,2.2,2.7,7.2,1.3,10.8
		c-1.3,3.5-4.6,3.7-7.8,2.7l-16.5-5c-3.6-0.9-5.7,1.2-6.8,4.5c-5.2,17-5.2,14.3,13.5,20c6.2,1.9,4,7.3,2.6,11.3
		c-2.5,7.4-12.3,0.5-20-0.8c-6-1-6.6,4.4-8.1,9.7c-1.9,6.8,4.1,7.3,11,9.4c12.5,3.8,16.1,3.1,12.1,14.3c-1.2,3.2-4.2,3.8-7.2,2.9
		c-7.3-2.2-17.7-5.4-31.3-9.5c-4.2-1.3-4.8-4-3.6-7.9l10.4-34.2L615.9,35.9L615.9,35.9z M698.9,97.3c-3.6,3.7-8,4.7-13.3,2.8
		c0,0-7-2.1-4.4-7.7l7.1-15.8c3.5-8.2,16.6-0.3,15.7,9.5C703.5,90.5,701.8,94.2,698.9,97.3L698.9,97.3z M695.4,142.4
		c0,0.6,0.3-7.6,0.9-24.7c0-0.1,0-0.8,0.1-2.1c4.6-1.4,7-2.1,11.2-5.5c14.5-12,18.5-38.5-6.8-50.3l-10.3-4.8
		c-3.7-1.3-7.7-4.7-11,2.6l-28,62.5c-3.3,7.4-2,9,6.4,12.1c7.1,2.7,8.1-8.4,12.9-16.9c2.6-4.6,8.6-2.7,9.3-0.3
		c1.6,4.9,0.2,15.3,0.1,21.4c-0.1,6.1,4.2,7.9,9.6,10.1C694.5,148.7,695.2,145.9,695.4,142.4L695.4,142.4z"/>
	<path class="st1" d="M5.5,401.7h12.3c3,0,5.5-2.5,5.5-5.5v-72.4c0-3,2.5-5.5,5.5-5.5h28.7c3,0,5.5-2.5,5.5-5.5v-13.7
		c0-3-2.5-5.5-5.5-5.5H28.7c-3,0-5.5-2.5-5.5-5.5v-47.8c0-3,2.5-5.5,5.5-5.5h36.9c3,0,5.5-2.5,5.5-5.5v-13.7c0-3-2.5-5.5-5.5-5.5
		H5.5c-3,0-5.5,2.5-5.5,5.5v180.3C0,399.2,2.5,401.7,5.5,401.7L5.5,401.7z M648.8,374.1c0,16.1,11.7,27.9,27.9,27.9H692
		c16.1,0,27.9-11.7,27.9-27.9v-53c0-17.8-9.6-27.3-27.3-27.3h-13.7c-3.6,0-5.5-1.9-5.5-5.5v-48.1c0-3,2.5-5.5,5.5-5.5
		c18.3,0,16.4-1.5,16.4,18c0,3.6,1.9,5.5,5.5,5.5c22,0,19.1,2.9,19.1-20.2c0-16.1-11.7-27.9-27.9-27.9h-15.3
		c-16.1,0-27.9,11.7-27.9,27.9v53c0,17.8,9.6,27.3,27.3,27.3h13.7c3.6,0,5.5,1.9,5.5,5.5v48.1c0,3-2.5,5.5-5.5,5.5
		c-18.3,0-16.4,1.5-16.4-18c0-3.6-1.9-5.5-5.5-5.5C646,353.9,648.8,351,648.8,374.1L648.8,374.1z M571.2,401.7h13.7
		c3.6,0,5.5-1.9,5.5-5.5v-75.1c0-3.5,3.9-2.7,7.4-2.7c22.4,0,39.1-16.7,39.1-39.1v-41c0-16.1-11.7-27.9-27.9-27.9h-37.7
		c-3,0-5.5,2.5-5.5,5.5v180.3C565.7,399.8,567.6,401.7,571.2,401.7L571.2,401.7z M590.3,288.3v-47.8c0-3,2.5-5.5,5.5-5.5h10.9
		c3,0,5.5,2.5,5.5,5.5v47.8c0,3-2.5,5.5-5.5,5.5h-10.9C592.7,293.8,590.3,291.3,590.3,288.3L590.3,288.3z M510.4,401.4h15.3
		c16.1,0,27.9-11.7,27.9-27.9V238c0-16.1-11.7-27.9-27.9-27.9h-15.3c-16.1,0-27.9,11.7-27.9,27.9v135.5
		C482.5,389.7,494.3,401.4,510.4,401.4L510.4,401.4z M518.2,378.4c-7.6,0.5-16.6-2-19.9-10.5c-3.4-8.9-4.3-37.3-5.4-49.3
		c-2.1-21.9-8.7-51.2,3.6-70c9.1-13.9,38.4-25.4,47.5-2.4c5.8,14.7,2.4,29.1-2.3,43.8c-0.4-9.4-5.3-23.1-12-28.4
		c-1.3-1-1.9-0.8-1.8-1.7c0.3-3.3-2.4-3.4-3.6-2.3c-1.5,1.4-0.7,1.7-2.7,1.7c-11.4-0.6-25.8,19.4-27.3,31.4
		c-0.4,2.9-0.1,6.1-0.4,9.1c-0.4,4.5-0.9,4.8-0.6,10.1c0.3,5.6,1.1,13,3,17.8c1.7,4.3,6.6,10.3,8.7,6c4.3-8.7-9.6-29.8-8.8-33.4
		c2.2-9.4,20.7-33.2,26.6-30.4c1.8,0.8,5,6.2,6.2,8.5c4.1,7.5,7,17.5,7.4,26c0.2,4.9-10.8,14.6-11.7,25.4c-0.2,2.7,0,4.4,2.2,4.5
		c4.5,0.2,6.9-6.5,8.5-11c0,10.3,1.3,29.3,0.3,38.7C534.4,374.9,525.8,377.9,518.2,378.4L518.2,378.4z M418.5,215.9v180.3
		c0,3.6,1.9,5.5,5.5,5.5h41c3.6,0,5.5-1.9,5.5-5.5c0-22.2,3.1-19.1-21.9-19.1c-3,0-5.5-2.5-5.5-5.5V215.9c0-3-2.5-5.5-5.5-5.5H424
		C421,210.4,418.5,212.9,418.5,215.9L418.5,215.9z M340.8,401.7h12.3c3,0,5.5-2.5,5.5-5.5v-72.4c0-3,2.5-5.5,5.5-5.5h28.7
		c3,0,5.5-2.5,5.5-5.5v-13.7c0-3-2.5-5.5-5.5-5.5H364c-3,0-5.5-2.5-5.5-5.5v-47.8c0-3,2.5-5.5,5.5-5.5h36.9c3,0,5.5-2.5,5.5-5.5
		v-13.7c0-3-2.5-5.5-5.5-5.5h-60.1c-3,0-5.5,2.5-5.5,5.5v180.3C335.3,399.2,337.8,401.7,340.8,401.7L340.8,401.7z M83.2,215.9v180.3
		c0,3.6,1.9,5.5,5.5,5.5h41c3.6,0,5.5-1.9,5.5-5.5c0-22.2,3.1-19.1-21.9-19.1c-3,0-5.5-2.5-5.5-5.5V215.9c0-3-2.5-5.5-5.5-5.5H88.6
		C85.6,210.4,83.2,212.9,83.2,215.9L83.2,215.9z M152.6,215.9v180.3c0,3,2.5,5.5,5.5,5.5h13.7c3,0,5.5-2.5,5.5-5.5V215.9
		c0-3-2.5-5.5-5.5-5.5h-13.7C155.1,210.4,152.6,212.9,152.6,215.9L152.6,215.9z M200.3,401.7h13.7c3.6,0,5.5-1.9,5.5-5.5v-75.1
		c0-3.5,3.9-2.7,7.4-2.7c22.4,0,39.1-16.7,39.1-39.1v-41c0-16.1-11.7-27.9-27.9-27.9h-37.7c-3,0-5.5,2.5-5.5,5.5v180.3
		C194.8,399.8,196.7,401.7,200.3,401.7L200.3,401.7z M219.4,288.3v-47.8c0-3,2.5-5.5,5.5-5.5h10.9c3,0,5.5,2.5,5.5,5.5v47.8
		c0,3-2.5,5.5-5.5,5.5h-10.9C221.9,293.8,219.4,291.3,219.4,288.3L219.4,288.3z"/>
</g>
</svg>
