<?xml version="1.0" encoding="utf-8"?>
<!-- Generator: Adobe Illustrator 21.1.0, SVG Export Plug-In . SVG Version: 6.00 Build 0)  -->
<svg version="1.1" id="Layer_1" xmlns="http://www.w3.org/2000/svg" xmlns:xlink="http://www.w3.org/1999/xlink" x="0px" y="0px"
	 viewBox="0 0 720 346.8" style="enable-background:new 0 0 720 346.8;" xml:space="preserve">
<style type="text/css">
	.st0{fill-rule:evenodd;clip-rule:evenodd;fill:#40C5C0;}
	.st1{fill-rule:evenodd;clip-rule:evenodd;fill:#FF3179;}
</style>
<g>
	<path class="st0" d="M520.3,80.7h17c0.7-2.2,1.4-4.4,2-6.6l-17.9,3C521.1,78.3,520.7,79.5,520.3,80.7L520.3,80.7z M540.3,70.8
		c0.9-3.3,1.8-6.4,2.6-9.5c-5.4,0.1-11-0.2-16.8-0.6c-1.1,4.1-2.2,8.3-3.5,12.7l4.6-0.2C529.9,70.2,535.3,71,540.3,70.8L540.3,70.8z
		 M543.4,59.2c1.4-5.8,2.5-11.2,3.2-16.1c-2-0.1-4-0.3-6.1-0.4c2-0.4,4-0.8,6.3-1.2l0.6-6.9c-5.6,0.1-11.2,0.3-16.9,0.5
		c0.2,6.5-1.5,13.9-3.2,20.9c3.2-0.2,7.6-1.5,8,2.2C535.6,60.2,538.7,60,543.4,59.2L543.4,59.2z M547.3,32.2
		c-0.4-25.1-19.5-31.8-35.1-25.6c-2.6,6.6-5.1-1.9-17.4,14.3c7.7-0.3,10.8-0.7,17.5,1.3c-6,1.8-11.2,0.7-18.7,0.3
		c-2.1,2.9-4.1,6.2-5.9,9.6c7.2,0,14.4,0,21.6,0c8.3-12,19.3-13.3,20.9,0C535.9,32.1,541.6,32.2,547.3,32.2L547.3,32.2z M486.7,34.1
		c-3.7,7.2-6.8,15.2-9.5,23.3l20.5-0.8c2.9-8.1,6.2-15.8,9.9-21.9c-1.4-0.1-2.8-0.1-4.3-0.2c-2,0.2-3.4,0.8-4.2,0.7
		C495,34.4,490.8,34.1,486.7,34.1L486.7,34.1z M476.4,59.8c-1.1,3.5-2.1,7.1-3.1,10.6l19.6,1.2c1.1-3.8,2.3-7.8,3.7-11.8H476.4
		L476.4,59.8z M470.8,80.7h19.6c0.6-2.4,1.3-4.9,2-7.4l-19.5-1.1C472.1,75,471.4,77.9,470.8,80.7L470.8,80.7z M335.4,26.1
		c-0.7,3.1-5.7,0.8-8.9,1.6C325.5,26.2,324.1,26.1,335.4,26.1L335.4,26.1z M177.4,40.5l12.8,1.3c-0.2,0.2-1,0.8-1,0.8
		C185.3,41.9,179.4,44.4,177.4,40.5L177.4,40.5z M295.2,49c-1.7,0-2.5,0.1-3.2,0c-9.9-1.4-9.8-0.4-9.4-2.1c13.1,0,7.4-0.5,20.5,1.5
		C300.9,48.6,298.4,48.8,295.2,49L295.2,49z M341.5,32.2c0.4-7.1,0.2-12.8-0.7-17.5c-4.9-0.1-13.7,0.2-18-1.2
		c2.6-1.9,11.5-0.9,17.6-0.6C338.5,5.8,334-0.3,327.9,0c-4.6,0.3-9.1,0.6-13.5,0.8c-6,2.6-11.4,7.6-16.3,14.4
		c8.5,0.8,6.2,0.1,10.1,2.5c-4.9,1-6.2,0.5-11.7-0.2c-2.6,3.8-5,8.1-7.3,12.7c11.7-1,9.1-2.1,23.7-1.9c6.8-9.8,12.9-10.9,12.9,1.9
		L341.5,32.2L341.5,32.2z M192.6,49.6c-1-19-21.1-24.9-33.2-12.8c11.6,0.3,12-0.9,18,3.3c-6.6-1.3-13.1-1.7-20-1.1
		c-4,5.1-5.7,11.9-7.7,18.3c3.6,0.2,7.1,0.5,10.7,0.7c1.4,0.1,5.8,2.1,3.9,3.6c-0.7,0.6-11.9-1.1-15.4-1.7
		c-1.4,4.6-2.9,9.4-4.5,14.5c5.3-0.1,10.8,0.3,16,0.1c0.6,0,1.3,0.5,1.9,1l7.5-23.9c-0.6-0.3-1.3-0.6-2-0.8
		C179.6,48.4,183,50.7,192.6,49.6L192.6,49.6z M315.2,80.7h17.3c4.3-15.7,7.5-30.7,8.7-44.7c-7.1,0.1-7.9-1.5-15.5-2.3l-3.9,22.5
		l15.4,3.1c-6.8,1.1-7.8,0.3-15.9-0.7C319.5,65.5,317.5,73,315.2,80.7L315.2,80.7z M271.6,80.7h21.9c2.1-8.8,4.5-17.3,7-25l-8.8-2
		c2.6-1.3,4.1-0.4,9.4,0.1l9-21l-22.7,1C281.2,47.2,275.9,63.2,271.6,80.7L271.6,80.7z M172.3,80.7h18.4l1.9-27.8l-19-0.7
		L172.3,80.7L172.3,80.7z M142.5,80.7h18.2l1.2-4l-18.3,0.4L142.5,80.7L142.5,80.7z M526.4,111.9c0.6-1.6,1.2-3.3,1.8-4.9
		c-8.5-0.2-7.2,0.7-11.9-1.6l12.9-1.3c1-2.7,1.9-5.3,2.8-7.9l-16.8-0.1c-2.1,6.1-4.2,12.2-6.4,18.3
		C520,114.2,522.6,111.9,526.4,111.9L526.4,111.9z M536.1,84.5h-17c-1,3.2-2.1,6.4-3.2,9.7h16.9C533.9,90.9,535,87.7,536.1,84.5
		L536.1,84.5z M489.5,84.5h-19.5c-0.6,2.9-1.2,5.8-1.7,8.5c6.4,0.3,12.7,0.7,19.1,1C487.9,91.3,488.6,88.1,489.5,84.5L489.5,84.5z
		 M467.7,95.8c-0.4,2-0.7,3.9-1,5.7c3.1,0.2,6.2,0.6,9.2,1c-3.1,0.4-6.5,0.8-9.6,1.2c-0.3,1.6-0.5,3.2-0.7,4.6l19.5-1.7l1.8-10.4
		C480.4,96.1,474,96,467.7,95.8L467.7,95.8z M465.5,108.6l-1,7c6.4-0.2,12.7,0.1,19,1.5c0.3-2.5,0.7-5.1,1.1-7.6L465.5,108.6
		L465.5,108.6z M510.3,151.2c3-6.9,6-14,8.9-21.2c-1.1-0.3-2.1-0.7-3.2-1h3.6c1.9-4.6,3.7-9.3,5.5-13.9c-5.7,0.3-11.4,0.8-17.1,1.4
		c-1.1,2.9-2.1,5.8-3.2,8.6c0.5,0.1,1.1,0.2,1.6,0.2c-0.8,0.4-1.4,0.8-2.1,1.1c-1.3,3.4-2.6,6.7-3.8,10c1.2,0.2,2.9,0.7,5.5,1.5
		c-1.9,0.1-4,0.2-6.2,0.3c-1.7,4.4-3.4,8.7-5.1,12.8C499.8,150.8,505.1,150.8,510.3,151.2L510.3,151.2z M464.1,118.7
		c-0.9,7.3-1.7,14.7-2.3,22.1l19,0.6c0.3-3.9,0.7-7.8,1.2-11.9l-1.2,0c0.5-0.2,0.9-0.5,1.3-0.8c0.4-3.4,0.8-6.8,1.2-10.2
		L464.1,118.7L464.1,118.7z M270.1,168.9c-2,0.6-4.4,1-6.9,1.3C261.1,168.2,267.4,168.6,270.1,168.9L270.1,168.9z M274.3,113.2
		c-2.2-0.2-3.5-0.4-4.9-0.6c6.4-1.4,3.4-1.4,9.9,0C277.7,112.8,276.2,113,274.3,113.2L274.3,113.2z M322.9,111.8
		c0.7-2.1,1.4-4.3,2.1-6.4c-13.2-1.2-10.3,0.1-17.6,0c-0.8,2.4-1.6,4.8-2.4,7.1C310.9,112.1,316.7,111.9,322.9,111.8L322.9,111.8z
		 M309.2,148.9c4.6-11.5,9-23.3,13-35l-17.9,0.9c-1.2,3.5-2.4,6.9-3.5,10.3c0.7,0.1,1.5,0.4,2.1,0.5l-2.7,1.1
		c-2.8,7.9-5.5,15.5-8.1,22.4L309.2,148.9L309.2,148.9z M130.1,120.3c-3.4,10.6-7,21.3-10.8,32c5.8,0,11.8,0.1,17.9,0.2
		c1.2-3.6,2.5-7.2,3.7-10.8c-0.9-0.1-2.1-0.2-4-0.5c1.4-0.5,3-1.1,4.7-1.6c2-6,4-12,6-17.9L130.1,120.3L130.1,120.3z M159.6,84.5
		h-18.2l-2.1,7c2.8,0.7,5.2,1.5,7.6,2.2l-8.2-0.3c-2.5,8-5.1,16.3-7.8,24.8c4.8,0.3,13.2,1.3,17.3,2
		C152.3,107.6,156.2,95.4,159.6,84.5L159.6,84.5z M190.4,84.5h-18.4c-1.2,19.7-2.6,44.2-3.3,66.9l19.4,0.2c0-9.6,0.2-19.2,0.5-28.4
		l-16.1-0.5c0-2.7,11.9-1.7,16.2-1.6c0.3-9.9,0.8-19.4,1.3-28.3c-6.6-0.1-7.1,0.5-12.3-2.1c6.8-1.7,5-1.2,12.5-1.1L190.4,84.5
		L190.4,84.5z M292.6,84.5H287l5.4,0.6L292.6,84.5L292.6,84.5z M331.4,84.5h-17.4c-1.7,5.8-3.6,11.7-5.5,17.6l17.4,0.4
		C327.9,96.4,329.8,90.4,331.4,84.5L331.4,84.5z M283.7,171h16.4c2.7-6.3,5.4-12.8,8.1-19.4l-17,0.2c-2.2,6-4.3,11.4-6.2,16
		c1.2,0,3.2,0,6.6,0c0.4,2.3-2.8,1.9-7.1,1.3L283.7,171L283.7,171z M259,171h19.8c0.4-5.5,1.1-12,2-19.1l-8.3-0.4
		c4.4-1.7,0-1.4,8.6-1.9c0.8-6.6,1.8-13.7,3-21.1l-8.6-0.2l9-2.4c2-12.5,4.5-25.6,7.3-38.2c-7.3-0.5-14.5-1-21.6-1.5
		c-2,8.6-3.8,17.6-5.3,26.8l1.1,0.1c-0.4,0-0.8,0.1-1.2,0.2c-1.8,10.7-3.2,21.7-4.2,32.8l14.8,0.2l-15,1.5
		C259.8,155.5,259.3,163.2,259,171L259,171z M168.3,171h20c-0.1-5.5-0.2-11-0.2-16.5l-19.5-1C168.5,159.5,168.3,165.4,168.3,171
		L168.3,171z M112.4,171h18.3c1.9-5.2,3.8-10.6,5.7-16c-6.3-0.9-12.1-0.6-17.9-0.1C116.5,160.2,114.5,165.6,112.4,171L112.4,171z
		 M486.3,171h15.2c2.4-5.2,4.8-10.6,7.2-16.2c-5.2-0.2-10.4-0.2-15.7,0.2C490.7,160.9,488.4,166.3,486.3,171L486.3,171z M460.1,171
		h11.6c0.3-1,0.3-0.8,7.3-0.7c0.1-4.1,0.4-8.6,0.7-13.6l-11.7,0.6l11.9-4.1c0.2-3.3,0.5-6.8,0.8-10.3l-19.1,0.7
		C460.9,152.6,460.4,161.8,460.1,171L460.1,171z M661.7,174.8h-27.3c-7.3,2.6-14.2,7.1-20.1,12.8c7.8,0.2,15-1.9,27.7-0.1
		c-1.7,0.6-3.2,1.6-5.2,1.7l-25.1,1.1l-3.8,4.5c5.7-0.3,12.7-0.7,21-1.1c1.6,0,3.1,0,4.6,0c9.1-6.7,20-8,31.5,0.6
		c1.6,1.2,7.9-0.7,10.6-1.1c1-1.8,1.3-4.2,0.5-6.6c-12,1-9.9,1.6-18.1-0.9c8.5-2.1,6.8-1.4,17-1.4
		C672.5,180.3,665.7,176.3,661.7,174.8L661.7,174.8z M499.8,174.8h-15.2c-2.5,5.5-4.5,9.6-5.6,11.7c-0.1-1.7-0.2-3.9-0.2-6.6
		l-6.1-0.5c1-0.9,0.7-1.9,6.1-1.1c0-1.1,0-2.2,0-3.4H460c-0.1,4.1-0.2,8.1-0.2,12.2l33.6,1.6C495.4,184.1,497.6,179.5,499.8,174.8
		L499.8,174.8z M298.4,174.8h-16.3c-1,2.4-1.8,4.3-2.5,5.9c5.4,0.1,11.2-0.8,17-1.6C297.2,177.6,297.8,176.2,298.4,174.8
		L298.4,174.8z M278.6,174.8h-19.7c0,1.3-0.1,2.7-0.1,4c10.5-0.1,12.9,1.5,19.5,1.8C278.3,178.8,278.4,176.9,278.6,174.8
		L278.6,174.8z M188.4,174.8h-20.1c0,3.1,0,6.1,0,8.9l29.6-0.4c-2.9-0.2-6-0.2-9.2-0.1C188.6,180.4,188.5,177.6,188.4,174.8
		L188.4,174.8z M129.3,174.8h-18.4c-1.1,2.7-2.1,5.3-3.2,7.9c2,0.1,4.1,0.2,6.6,0.5l-7.3,1.2c-1,2.4-2,4.7-3,7.1
		c-6.5,1.4-21.7,4.7-30.1,6.8c26.9-0.4,53,2.2,80.3,0.6c5.5-0.6,10.8-1,15.4-1.2l0.1,1.9l19.3,0.7c-0.1-1.3-0.1-2.7-0.2-4
		c16-0.5,20.7,1,28.6,4.4c-0.1,0.1-0.2,0.1-0.2,0.2c1.6,1.1,2.7,2.4,3.6,3.9l12.9-2.4c-3-7.9-10.4-14.7-24.5-17.6
		c-11.2-1.2-36,1.3-49.4,1.3c2.7-1.3,3.6-1.6,4.5-1.8c-19.1,2-23,2.4-40.5,5.5c0.7-1.7,1.3-3.4,2-5.2c-3.3,1-4.4,1.2-7.5,0.7
		c0-0.8,0.5-1.6,1-2.2l6.5,1.4C126.9,181.2,128.1,178,129.3,174.8L129.3,174.8z M189,202.6l-19.3,0.1c0.2,3,0.4,6,0.6,9.2
		c5.7,2.1,12.7,2,19.5,2c-0.1-1.4-0.2-2.8-0.4-4.2c-5.2,0.8-2.2,0.3-6.9-0.4l6.7-1.8C189.2,205.8,189.1,204.2,189,202.6L189,202.6z
		 M123.6,203.6c-11.9,1.5-24,0.3-35.9-0.9c-7.8-0.7-15.9-0.4-23.9-0.3c-5.6,5-3.8,13,3.3,12c3.8-0.3,25.4-5.6,29.5-6.5
		c-2.3,5.2-5.1,11-8.5,16.9c4.2-0.9,6.5-1.5,10.5-0.2c-2.6,1.3-8.9,2.7-12.3,3.3c-2.2,3.7-4.5,7.3-6.9,11c6.2,0.3,12.3,0.6,18.6,0.8
		c7.3-11.6,13.7-23.7,18.8-34.4C118.5,204.8,120.9,204.2,123.6,203.6L123.6,203.6z M1.9,255.1l16.5-0.5c2.7-6.9,8.3-15.1,18.2-24.2
		c7.7-6.8-3.8-15.9-12.7-7.4C11.9,234.2,4.9,245.2,1.9,255.1L1.9,255.1z M68.4,253.6l18.7,1.8c2-2.7,4-5.4,5.9-8.2l-20,0.6
		C71.5,249.8,70,251.7,68.4,253.6L68.4,253.6z M178,257.2c6.2-0.7,12.5-1.4,18.8-2.1c-0.7-2.7-1.3-5.4-1.9-8.1
		c-6.4,0.3-12.8,0.6-19.1,0.6C176.4,250.9,177.2,254.1,178,257.2L178,257.2z M265.6,256.8L265.6,256.8L265.6,256.8
		c0.4,1.5,0.7,3,1.1,4.5h18.5c-3.1-12.5-5-27-5.8-37.7l-19.3-2.2c0.5,5.3,1.1,10.5,1.8,15.6c1.3,0.1,2.6,0.3,3.7,0.5l-3.6,0.2
		c0.4,2.6,0.8,5.3,1.3,7.8c12.9-0.1,4.2-1.4,17.1,0.5l-16.9,1.1C264.2,250.3,264.9,253.6,265.6,256.8L265.6,256.8z M197.7,258.7
		c-8.3-0.1-9.7,1.1-18.9,1.6l0.3,1h19.4C198.2,260.4,197.9,259.6,197.7,258.7L197.7,258.7z M330.5,261.3h16.4
		c2.1-3.5,4.2-7.1,6.1-10.5l2.6,8.4h3.6l-3.3,0.8c0.2,0.4,0.4,0.9,0.6,1.3h16.4c-0.6-0.1-1.3-0.4-1.8-0.5l6.3-1.2
		c-8.5-9.4-9.7-24.2-6.5-36.9l-19.2,1c-3.3,6.7-8.2,16.4-14,26.2c5.7,0.3,9.8,0,12.2,2.3l-14.2,1.1
		C334,255.9,332.3,258.6,330.5,261.3L330.5,261.3z M412.4,261.3h16.9c0.1-0.2,0.3-0.5,0.4-0.7c11.2-3.2,21.9-10.8,30.3-20.1
		l-1.7,1.3c-6.7,0.5-13.4,0.9-20.1,1.2c-1.3,0.8-2.4,1.3-3.2,1.6c0.1-0.5,0.2-1,0.4-1.4l-4.9-0.6l5.4-1.4c1.3-6.7,1.6-13.4,0.7-19.4
		c-4,0.6-8,1-12.1,1.2c2.1,8.3,0.6,16.8-2.4,22.5c-6.2,0.4-11.1-1.2-14.6-4.2l-16.5,0.2c4.4,8.1,12.1,14.8,23.4,17.6
		C413.8,259.8,413.1,260.6,412.4,261.3L412.4,261.3z M464.2,258.8c3.2-0.2,6.4-0.4,9.7-0.6c2.4,3.3,6.3,3.1,9.6,3.1
		c-0.2-1.2-0.3-2.4-0.5-3.6c-2.5,0.4-5.5,0.4-8.4,0.5c2.4-1.4,5-2.6,8-3.5c-1.1-9.3-1.9-19.3-2.4-27l-20-1.5
		c4-3.3,12.8-1.9,19.8-1.5c-0.2-4.7-0.3-8.1-0.2-9.3c3.2-6,7.1-13.6,11.4-22.5c-18.6,0.6-22.4-2.6-31.5-2.4c0,6.6,0.1,13.1,0.3,19.4
		c6.1-1,13.5,0.7,0.1,2.8c0.1,1.8,0.1,3.6,0.2,5.3h0c-4.6,9.6-12.1,17.3-18,22l24.5-2.7c0.7-0.2,1.7,1.1,2.2,2.1
		c-3.7,1.2-4.9,0.3-7.2,0.4C462.6,246.3,463.3,252.7,464.2,258.8L464.2,258.8z M497.2,261.3l14.5-1.2c0.5-1.9,1.1-3.8,1.6-5.7
		c-4.1-0.4-8.9-0.5-14.4,0.1C498.3,256.8,497.7,259,497.2,261.3L497.2,261.3z M538.5,261.3h45.3c1.2-1.5,2.3-3,3.4-4.6
		c0.1,1.6,0.2,3.1,0.4,4.6h19.8c-1-4.4-1.1-9.8-0.3-15.6l-30.6,3.5c0,0-14.9,21.1-20.7,4.2c-6.2,0.9-12.3,1.8-18.6,2.5
		C537.6,257.7,538,259.5,538.5,261.3L538.5,261.3z M622,261.3h3.5c-1.1-0.2-2.1-0.4-3.2-0.6L622,261.3L622,261.3z M623.2,258.8
		c5,1,10.1,1.8,15.1,2.4c4.9-13.2,8.4-29.7,10.8-37.3c2.7-10,5.3-7.4,4.4-0.6c-1.2,7.4-1.5,24.4,0.9,37.9c10.4,0,13.5,0.6,23.4-1.2
		l18.4,0.5c6.5-9.7,12.8-20.3,17.8-30c-4.8-0.2-9.5-0.3-14.3-0.2c-8.3,15.4-18,28.7-23.7,29.6c-10.5,2-5.6-37.9-6.3-44.8
		c-10.2,0.2-7.3,0.6-16.6-1.3c8.5-2.6,6.4-1.6,16-1.8c-4-16.2-26.2-15.3-32.8,6.5l11.8,0.6c-6.6,2.8-2,2.4-12.7,2.6
		c-1.6,5.4-3.9,13.6-6.5,21.5c0.6,0.2,1.1,0.3,1.7,0.5c-0.7,0.2-1.4,0.6-2.1,0.9C626.8,249.7,625,254.7,623.2,258.8L623.2,258.8z
		 M701.4,227.1l14.2,0.3c1.7-3.3,3.1-6.4,4.4-9.3h-14.2C704.4,221,702.9,224.1,701.4,227.1L701.4,227.1z M1,258.2
		c-0.2,1-0.4,2-0.6,3h16.2c0.1-1,0.3-2,0.6-3H1L1,258.2z M82.6,261.3c0.9-1.1,1.7-2.1,2.6-3.2l-19.6-1c-1.3,1.5-2.6,2.9-3.8,4.3
		H82.6L82.6,261.3z M94.9,244.4c0.7-1,1.4-2.1,2-3.1l-19.4,0.3c-0.7,1.1-1.5,2.1-2.3,3.2C81.8,244.7,88.7,244.6,94.9,244.4
		L94.9,244.4z M170.6,214.7c0.6,6,1.4,12.3,2.4,18.7c2.4,0.7,3.4,2,4.7,2.9l-4.1,0.2c0.4,2.2,0.8,4.5,1.3,6.7
		c6.6,0.3,13,0.4,19.3,0.2c-0.3-1.6-0.6-3.3-0.9-4.9c-7.3-0.3-5.3,0.3-10.6-1.8l10.1-0.7c-0.4-2.2-0.7-4.4-1-6.6
		c-1-0.1-1.9-0.5-2.9-0.7c0.9-0.2,1.8-0.5,2.7-0.7c-0.5-3.3-0.9-6.8-1.3-10.2L170.6,214.7L170.6,214.7z M221.9,207.6
		c0.6,2.2,0.7,4.7,0.5,7.5c4,0,8.1,0,12.4,0.1c0.4-3,0.4-6-0.2-9C231.2,207.8,225.7,207.6,221.9,207.6L221.9,207.6z M223.6,220
		c2.2,2.9,6.5,3.9,9.3,0.2C229.8,220.1,226.7,220.1,223.6,220L223.6,220z M605.6,197.9c-4.4,6.1-8.1,13-11,20.1h-0.2
		c-3,6.4-10.1,19.3-15.9,28l28.8-3c1.1-7.1,3.3-14.7,6.4-22l-5.8-1.2l6.9-1.2c3.6-7.8,8.2-15,13.5-20.4
		C620.9,198.1,612.8,198,605.6,197.9L605.6,197.9z M554.9,249.7c-1.4-8-0.1-18.4,0.5-25.9l-19.1-0.2c-0.7,9.4-0.9,19.1,0.2,27.7
		C542.7,251,548.8,250.5,554.9,249.7L554.9,249.7z M555.7,220.6c1.1-17.3,0.1-36.8-17.3-36.6c-5.2,0.1-9.8,2.1-13.8,5.7
		c0.7,0.1,1.4,0.3,2.1,0.4c-3.6,0.5-4,0.5-8.2,7c3.4,0,7.6-0.8,10.7,0.7c-0.7,0.2-1.2,0.8-2,0.8c-3.2,0.1-6.5,0-9.7,0l-8.9,20.5
		c20.8-2.7,9.2,3.7-2.1,6.3c-3.3,10.3-5.2,18.8-7,26.4l14.5-0.1c4.1-14.8,7.8-28.9,10.6-35.4c7.1-17.4,14.8-23.6,12.4,1.2
		c-0.1,1.4-0.3,2.8-0.4,4.2L555.7,220.6L555.7,220.6z M435.8,218.2c-5.4-22.9-27.8-27-40.3-14.8l14.1,1.9l-16.8,1.1
		c-2.3,3-4.1,6.8-5.1,11.1c5.5-0.2,11.1-0.4,16.6-0.5c4.9-6.6,14.4-8.3,18.9,2.1L435.8,218.2L435.8,218.2z M386.9,222.5
		c-0.5,6.1,0.6,11.8,3.2,17.4c5.3,0,10.6-0.1,15.9,0c-3.8-4.2-5.9-11.6-4.4-17.4C396.7,222.4,391.8,222.4,386.9,222.5L386.9,222.5z
		 M371.8,219.2c0.6-1.9,1.3-3.8,2.1-5.6c-9.1,1.6-14.4,0.6-18.5,1.1c-0.4,1.1-0.8,2.2-1.1,3.3h0l-0.2,0.5
		C360.2,218.9,366,219.7,371.8,219.2L371.8,219.2z M375.3,210.9c1-1.9,2.2-3.8,3.4-5.5c-9.8-1.4-10.4-3.1-16.9-3.7
		c-2.1,3.2-3.9,6.6-5.3,10.2C362.9,211.5,369.7,211.2,375.3,210.9L375.3,210.9z M381.2,202.4c15.4-17.4,29.3-5.2,32.6-13.9
		c-8,0.2-15.8,0.5-23.9,0.6c-4.8,0.1-10-0.2-15.9-0.5c-3.6,2.7-6.8,5.9-9.5,9.4C371.1,200.8,373.2,201.6,381.2,202.4L381.2,202.4z
		 M413.9,186.2c-1.8-9.8-24.4-7-36-0.1C389.9,186,401.9,186.1,413.9,186.2L413.9,186.2z M279.2,220c-0.1-1.6-0.1-3-0.1-4.4
		c2.3-4.4,4.7-9.2,7.1-14.2l-27.2,1.4c0.2,5,0.5,10,0.9,14.9C266.2,218.7,272.7,219.4,279.2,220L279.2,220z M288.8,196.1
		c2.3-4.8,4.6-9.8,6.9-15l-17,1.5c-0.2,0.3-0.3,0.6-0.4,0.8l0-0.9c-6.6-0.9-13-1-19.5-0.8c-0.1,4.1-0.1,8.2,0,12.3
		c9.5,0.3,15.6-1.4,22-0.1c-0.7,0.5-1.2,1.3-2.2,1.5l-19.7,1.3c0,1.2,0.1,2.4,0.1,3.6L288.8,196.1L288.8,196.1z M166.4,183.9
		l-1.3,0.1C165.5,184,165.9,184,166.4,183.9L166.4,183.9z M693,265.1h-37.8c5,18.4,19.1,20.1,30.7,8.8c-0.6-0.1-1.2-0.3-1.8-0.4
		C688.5,272.5,688.4,271.5,693,265.1L693,265.1z M636.8,265.1h-17c-3.8,5.6-8.6,5.6-11.2,0h-20.5c2.3,12,9.3,21.1,16,22.6l10.9,0.4
		C624,287,632.5,275.2,636.8,265.1L636.8,265.1z M580.7,265.1h-40.8C547.4,283.6,565.1,282.9,580.7,265.1L580.7,265.1z M510.3,265.1
		l-14.3,0.4l-3.1,9.1l14.6-0.1C508.4,271.4,509.3,268.3,510.3,265.1L510.3,265.1z M484.1,265.1h-18.9l4.3,20.7
		c11.5-0.1,22.9-0.1,34.4-0.1c1-2.7,2-5.7,3-8.9c-4.9-0.1-9.8-0.4-14.5-0.7C488.3,285.9,486.2,278.4,484.1,265.1L484.1,265.1z
		 M426.7,265.1h-19.8c-6.5,3.1-15,3.6-22.3,0h-26.1c1.4,2.3,2.9,4.4,4.6,6.3l8,0.2c-2.8,1.8-0.5,1.3-6,1.9
		c14.7,14.2,38.5,13.6,54.8-0.9c-1.4,0.1-2.8,0.1-3.8,0.1C422.6,270.4,422.3,271.1,426.7,265.1L426.7,265.1z M344.5,265.1h-16.6
		l-0.7,1.1l16.3,0.6L344.5,265.1L344.5,265.1z M286.2,265.1h-18.5l7.3,20.2l19.2-1.9c-2.4-3.1-4.6-7.7-6.4-13.1l-3.8-0.7
		c1-0.4,2.2-1.2,3.1-1.4C286.8,267.1,286.5,266.1,286.2,265.1L286.2,265.1z M199.5,265.1h-19.4c3.9,13.2,9,26.1,15.6,37.6
		c7.6-1.8,1.7-3.7,18.6-3.9c-1.9-3.1-3.7-6.3-5.4-9.7c-6,0-9,0.6-13.6-0.9l12.5-1.5C204.7,280,201.9,272.8,199.5,265.1L199.5,265.1z
		 M79.4,265.1H58c-13.7,13.3-27.7,19.9-37.3,10c-2.4-2.4-4-5.7-4.2-10H0.1c-0.6,12,5,21.3,13.8,25.3c9.7,4.3,11.3,2.6,12.9,2.7
		l10.2,0.3C52.3,290.8,66.7,279.7,79.4,265.1L79.4,265.1z M198.2,306.7c15.7,25.2,39.1,42.6,73.2,39.8c5.2-0.3,9.2-3,10.8-6
		c-7.4-0.4-47.6-1.3-51.3-3.1c13.6-3.3,37.4-1.5,52.2,0.2c0.1-3.6-3.5-6.7-12.6-5.9c-17.2,1.5-32.1-5.1-44.3-17.6l-5.2-1.7l3.5-0.1
		c-1.4-1.5-2.8-3.2-4.1-4.9C213,307.2,205.6,307,198.2,306.7L198.2,306.7z M218.8,305.3c-1-1.3-2-2.7-2.9-4.2
		c-6-0.3-5.6-0.2-12.7,2.9L218.8,305.3L218.8,305.3z M325.9,267.8c-4.2,5.7-8.5,10.7-12.8,14.2c10.8,0.2,10.4,2,17.1,3
		c1-1.2,2-2.4,3-3.7c-1.9,0.2-4.7-0.6-6.7-0.1c-0.9-1.4-2.4-1.6,8-1.6c2.7-3.6,5.3-7.4,7.9-11.2C336.9,268.2,331.4,268,325.9,267.8
		L325.9,267.8z M306.3,286.3c-6.2,2.6-5.7,0-11.1,0.6c-6.2,0.7-12.6,0.5-19.1,0.6c2.8,5.2,6,9.7,9.6,13c9.1-0.1,5.4-0.3,17.3,1.5
		l-15.4,0.1c13.1,9.6,27.2,0.9,40.4-14.4C320.9,286.8,313.6,286.3,306.3,286.3L306.3,286.3z M470.2,288.2
		c7.9,25.2,24.3,21.5,32.7-0.1c-1.8,0.3-3.2,0.8-3.9,0.7C489.5,286.8,479.9,288,470.2,288.2L470.2,288.2z M612.9,269.8
		c1.2,0.6,1.5,1.2,1.7,1.8c-3.7-0.1-7.1-0.2-10.8-0.4C604.8,269.4,602.8,269.8,612.9,269.8L612.9,269.8z M612.9,279.4l-7.9-0.5
		c0.5-0.5,0.7-1.2,1.2-1.2C609.6,277.6,613.9,277.4,612.9,279.4L612.9,279.4z"/>
	<path class="st1" d="M373.1,80.7h17.1c1.5-3.4,7.2-5.5,8.8,0h6.9l-7.6-2.2c4.9-1.8,8.2-0.2,16.3,1.3c4.1-9.7-0.9-11.4-6.4-14.1
		c-6.7-3.3-2.9-7.1-9.4-10.3c-6-2.9-9.7-1.1-12.5,3.1c-4.5,6.8-7.9,3.2-11,7.5C374.1,68,371.7,74.3,373.1,80.7L373.1,80.7z
		 M355.8,62.1c2.9,0.9,1.5,5.3-1.4,4.4C351.6,65.6,353,61.2,355.8,62.1L355.8,62.1z M358.8,67.9c2.9,0.9,1.5,5.3-1.4,4.4
		C354.5,71.4,355.9,67,358.8,67.9L358.8,67.9z M361.7,73c2.9,0.9,1.5,5.3-1.4,4.4C357.4,76.5,358.8,72.1,361.7,73L361.7,73z
		 M357.4,80.7h3.4c-3.2-4.2-7.3-10-8.6-14.4C351.3,63.3,348.3,67.2,357.4,80.7L357.4,80.7z M351.3,80.7h2.2c1.5-0.9,1.8-3.5-0.4-4.2
		C350.3,75.6,348.9,79.5,351.3,80.7L351.3,80.7z M350.1,71.2c2.9,0.9,1.5,5.3-1.4,4.4C345.9,74.6,347.3,70.3,350.1,71.2L350.1,71.2z
		 M348.4,65c2.9,0.9,1.5,5.3-1.4,4.4C344.1,68.4,345.5,64.1,348.4,65L348.4,65z M350.8,59.5c2.9,0.9,1.5,5.3-1.4,4.4
		C346.5,63,347.9,58.6,350.8,59.5L350.8,59.5z M390.6,148.9c0-9.1,3.1-20.1-1-14.5c-3,4-2,11.2-5.3,13.9
		C386.4,148.4,388.5,148.7,390.6,148.9L390.6,148.9z M361,171h22.5c7.6-0.8,7.6-12.8,7.3-18.2c-14.1-1.4-21.8-3.1-36.9-2
		c5.4,3.7,1,10.2,3.1,15.5l13.7-0.1c-6.6,2-4.4,1.9-12.8,1.8L361,171L361,171z M402.3,167.1c7.9,7.3,15.8,2.8,20.8-0.7L402.3,167.1
		L402.3,167.1z M420.1,127.3c7.6,2.5,0.7,5.8,2,9.4c0.7,1.9,3.2,6.2-1.6,7.5c-2.7,0.7-7.6,0.4-9.7,1.5c-1.3,0.8-0.9,1.7-3,0.7
		c-3-1.4-5.6-2.9-6.2-6.5c-0.3-2.2,0.4-10.8-3.6-7.6c-3.5,2.7-4.4,9.7-3.4,17c4.6,0.6,9.2,1.2,13.8,1.8c5.8,0.8,5,2,5.9,3.6l-19-1.7
		c1.1,4.9,3.1,9.5,5.8,12.7l23.3-0.2c5.5-3.4,7.4-1.4,11.2-0.5c6.4,0.5,12.6-0.7,16.1-8.2l-27.5,0.5c0.7-0.6,1.2-1.5,2.2-1.8
		c8.4-3.2,17.1-1.5,25.9-0.3c1.6-5.4-1.1-6.6-1.5-11.7c-13,0-11.8,0.7-24-1.8c12.2-1.7,11.2-1.2,23.9-1c-0.2-4-0.4-7.8-2.1-10.3
		c-8.8-13.4-46.4-7.9-38.7-4.8C414.1,127.2,416.1,126,420.1,127.3L420.1,127.3z M436.5,84.5h-14.7c-3.8,1.8-7.3,4.8-10.2,8.3
		c8.2,0.3,32.1,0.5,38.6,2.1c-0.5,0.4-1.2,0.8-1.7,0.8l-38.8-0.5c-4.4,6.1-6.8,13-6.1,16.9c0.4,2.5,3.4-6.6,9-10.7
		c11.6-8.4,6.9,2.6,12.3,1.8c3.3-0.5,4.2-0.9,6.7,1.9c1.4,1.5,3.5,3.2-0.5,6.1c-2.5,1.7-5.9,1.7-9.7,2c5.7,0.5,12.5,1.8,14,3.3
		l-20.7-1.8c-0.2,0-16,7.5,3.8,4.4c12.8-2,31.4,8,37.8,0l-14.3-1.5c5.4-0.5,10.6-1.1,15.8-1.5c2.3-7-2.8-1,1.2-12.3
		c1-3,1.4-5.7,0.7-8c-3.8-0.1-2.3-0.2-4.9-1.9c1.1-0.3,2.1-0.9,3.2-1.1c-5.9-6.2-14.5-1.7-18-1.8C438.4,88.4,438.3,86.1,436.5,84.5
		L436.5,84.5z M411.8,84.5h-12c0.7,9-2.7,31.4,3.7,12.9c0.4-1.2,0.9-2.4,1.4-3.4c-0.5-0.3-0.9-0.6-1.4-0.8c0.6-0.1,1.3-0.3,2-0.4
		C407.5,89,409.8,86.8,411.8,84.5L411.8,84.5z M386.2,98c1.6,1.8,3.4,3.5,6,4.8c0.4-1,0.1-2.7-0.4-4.9C390,98,388.1,98,386.2,98
		L386.2,98z M389.5,84.5h-15.1c2.3,4.8,5.1,5.5,9.2,10.4l8,1.6C390.7,92.8,389.4,88.2,389.5,84.5L389.5,84.5z M399.4,119.2
		c-11.1-10-3-6.4-17.2-9.1c2.2,2.4,11.7,14.2,14.8,13.5C399.3,123.1,405.1,124,399.4,119.2L399.4,119.2z M388.3,108.4
		c-12.5-12-8.5-10.4-17.2-10.4C381.7,109.9,378.5,108.4,388.3,108.4L388.3,108.4z M363.8,84.5h-3.7l7.6,9.7l5.8,0L363.8,84.5
		L363.8,84.5z M372.7,107.1c-7.3-4.9-27.5-12.2-34.2-3.7L372.7,107.1L372.7,107.1z M357,113.1c0.1-0.7,0.5-1.2,1.2-1.7
		c6.5-5.5,25.3,8.6,21.1,2c-2.9-4.6-4.1-4.6-7.1-4.9l-36.2-2.2c-3.8,3.9-6.5,2.5-7.4,5.2L357,113.1L357,113.1z M336.1,121.3
		c-0.2,5.5-1.7,6.4,0.5,9.2c10.8,10.4,30.1-15.7,37.3-5.1c-5.3,5.4-22.8,3.3-25.9,14.7c-1,3.7-0.4,5.8,1,7.2l29.1,0.3
		c-2-10.1-1.4-5.7-4.9-9.3c-7.9-8.1,6-7.9,8-13.6c0.4-1.1-0.4-1.6-1.3-2.1c-7.9-4.5-20.4,0.3-22.4-7.9c-8.2-0.2-16.4,0.8-24.3-1.3
		c-1.3-0.3-2.9-0.3-4.6-0.2C328.3,118,332.1,119.3,336.1,121.3L336.1,121.3z"/>
</g>
</svg>
