<?xml version="1.0" encoding="utf-8"?>
<!-- Generator: Adobe Illustrator 21.1.0, SVG Export Plug-In . SVG Version: 6.00 Build 0)  -->
<svg version="1.1" id="Layer_1" xmlns="http://www.w3.org/2000/svg" xmlns:xlink="http://www.w3.org/1999/xlink" x="0px" y="0px"
	 viewBox="0 0 717.1 455.8" style="enable-background:new 0 0 717.1 455.8;" xml:space="preserve">
<style type="text/css">
	.st0{fill-rule:evenodd;clip-rule:evenodd;fill:#81CBBE;}
	.st1{fill:#FF8D90;}
</style>
<g>
	<path class="st0" d="M181.1,214.5c2.1,0,6-0.1,10.6,1.6c-11.9,10.2-27.2,19.3-41.7,26.6C158.3,214.2,175.9,214.6,181.1,214.5
		L181.1,214.5z M211,239.1c14.3,41.3-3.2,127-14,169.2c1.3,0.2,2.6,0.5,3.9,0.8c10.6-41.5,29.1-130.2,13.4-172.7
		c7.5-7.8,14.9-9.9,20.6-10c3.4,15.7,13.9,30.5,31.7,31.7c0.4,4.4,0.3,9.5-0.3,15.3c-6.1-1.8-16.9-0.9-23.9-1
		c-5.2-0.1-8.2,4-8.2,9.6l0.3,67.5c0.4,2.9,2.2,5.3,4.8,6.4c-9.3,20.1-19.8,39.9-29.3,56.4c1.3,0.6,2.5,1.2,3.6,1.9
		c9-15.7,20-36.1,29.8-57.5c15.6,0.1,27,2,37.7-12.6c14.3-19.3,10.8-55.2-7.8-67.4c12.5-4.5,21.1,1.3,25.9,5.2
		c-10.8,13.2-11.1,42.1-4.8,57.6c-16.4,26.6-47,58.5-72,81.6c1,1.1,2.1,2.4,2.4,3.5c23.5-21.6,54.5-53.8,71.6-80.8
		c4.9,8.5,12.6,12.8,22.4,13c-0.8,5.1-3.4,11.4-9.4,19c-2.5-1.4-20.3-5.8-20.3,8l0.1,11.5c-25.6,20.3-64.5,41.2-88.1,51.6
		c-9.9,5.7-16.3,13.1-30.6,6.1c-3.1-1.5-6.4-3.7-9.8-6.1c-25.3-11.2-68.1-34.3-93.3-55.9c-41.9-35.9-19.4-55.5-8.5-58.4
		c15.9,30.4,52.3,68.2,78.1,92c0.4-1.2,1.4-2.4,2.4-3.5c-27.6-25.6-99-95.1-83.5-130.3c11.3,5.3,26.8,4.7,39.3,3
		c9.8,39.7,35.2,89.3,53.2,120.5c1.1-0.6,2.3-1.3,3.6-1.9c-19.4-33.5-43.6-82.4-52.8-119.3c13.3-2.2,27.9-6.2,42.3-11.8
		c0.2,38.9,10.1,91.1,19.5,127.8c1.3-0.3,2.6-0.6,3.9-0.8c-9.2-36-19.8-91.3-19.5-128.6C170.4,269.7,194.4,255.5,211,239.1
		L211,239.1z M262.4,294.6l-6.7,21.8l0.4-22.9C256.8,292.6,260.4,293,262.4,294.6L262.4,294.6z M255.7,327.9
		c3.9-10,7.3-19.9,9.8-29.4c4.3,8.6,5.4,38.5-8.7,37.3C255.1,335.7,255.7,330.9,255.7,327.9L255.7,327.9z M95.3,264.3
		c-0.1-30.4,17.4-34.9,22.5-36.4c4.2-1.2,16.9-5,30,8.5c-1,2.7-1.9,5.6-2.6,8.6C130.3,252.3,112.7,259.4,95.3,264.3L95.3,264.3z
		 M250,426.2c0,10.8,2.6,25.7-9.4,25.7h-41C215.7,445.1,234.8,435.1,250,426.2L250,426.2z M162.6,451.9h-41c-12,0-9.4-14.9-9.4-25.7
		C127.4,435.1,146.5,445.1,162.6,451.9L162.6,451.9z"/>
	<path class="st1" d="M256.2,90.1c18.8-26,16.9-51.5,4.3-65.5C246.1,8.7,217.2,0,184,0C133.9,0,72.2,17.8,27,55.9
		C12,68.9,0,87.7,0,106c1.4,27.9,23.1,34.7,35.2,34.7c5.8,0,9.6-1.9,8.7-2.9c-0.5-1-17.8-1-24.6-14.4
		C-2.9,76.1,120.9,22.6,197.9,22.6c20.2,0,36.6,3.4,46.7,12c32.3,24.1-55.4,88.1-103.5,110.3c19.3-27.9,40-54.9,59.2-80.4
		c10.1-12.5,5.3-14.9-8.7-23.6c-10.6,14-43.8,54.4-72.7,98.2c-9.6,14.9-77.1,111.3-35.2,115.6c8.7-26,21.7-52,36.6-77.1
		c15.4-4.8,32.7-8.2,48.2-8.2c11.6,0,22.2,1.4,30.3,5.3c56.8,26-80.4,98.7-139.2,98.7c-11.2,0-15.2-3-13.5,1.9
		c3.9,11.1,15.9,15.9,32.7,15.9c45.3,0,121.8-33.2,144.5-73.7c19.7-37.1-8.7-61.2-54.4-61.2h-3.4
		C197.9,140.6,237.4,115.1,256.2,90.1L256.2,90.1z M269.7,254.8c23,0,45.5-20.9,63.2-42c-2.4,16,0.6,29,12.4,34.3
		c4.6,2.2,5.9,2.9,10.6,1.9c13-5.8,30.3-34.2,44.8-57.8c0,1,0,1.4-0.5,2.9c-1.9,13-3.4,28.9,6.3,38c2.9,2.9,6.3,4.8,10.6,4.8
		c10.7,0,23.7-10.8,35.8-24.5c-1,12.3,1.4,23.5,8.5,32.2c5.3,7.2,13,10.1,22.2,10.1c27.4,0,53.6-28.8,71.9-53
		c-3.7,11.4-6.3,21.6-7.4,29.9c-1.4,10.6,1.4,20.7,15.4,22.6c22.2-36.2,53.9-79.8,80.4-108.4c-9.6,16.5-53,100.2-18.8,106.9
		c1.4,0.5,2.4,1,4.3,1c13,0,48.2-42.1,56.3-53.1c14.4-16.5,26.5-36.4,31.3-42.6c-1.5-6.3-5.6-5.7-6.3-4.9c-1,1.4-14,19.9-26.5,35.4
		l-1,1c-5.8,7.2-40.9,49.4-48.2,49.4c-0.5,0-1-0.5-1-0.5c-4.8-5.8,33.7-78.9,37.6-90.5c2.9-9.2-7.7-19.3-18.8-19.3
		c-4.8,0-10.1,1.9-13.5,6.7c-26,29-47.2,56.1-66.9,86.1c22.2-64,76.1-157.9,96.8-177.2c4.3-3.9-5.8-16.9-18.8-16.9
		c-9.6,0-13,4.8-17.8,12.5C616,68,585.1,125.8,565.5,174.3c-21.1,27.7-53.4,64.5-83,64.5c-31.8-3.9,31.8-107.4,51.5-107.4
		c1,0,2.4,0.5,2.9,1.4c3.9,6.7-8.2,27.9-13.5,33.2c-1.9,2.4-8.2,8.2-3.4,10.1c0.5,0.5,1.4,0.5,1.9,0.5c9.2,0,20.7-19.7,24.1-26.5
		v-0.5c1.4-2.9,1.9-5.8,2.4-8.7c4.5-23.7-19.5-37.5-39.5-24.1c-17.9,12.1-41.5,43.3-51.5,73.6c-11.5,14.2-23.6,27-29.4,27
		c-1,0-1.9-0.5-2.9-1.4c-1-2.9-0.5-7.7,1.9-15.4c1.9-11.6,8.2-32.7,17.8-40.5c3.9-2.4,3.4-2.9,0.5-6.3c-4.8-5.8-10.1-8.2-14.9-8.2
		c-1.9,0-3.9,0.5-6.3,1.4c3.9-14,6.3-29.4-4.3-40.9c-2.9-2.9-7.2-5.8-12-5.8c-5.3,0-11.1,2.9-17.8,8.7
		c-16.1,13.1-39.9,48.9-51.3,81.1c-20.3,24-46.3,48.5-70,48.5c-14-1.4-11.1-18.8-2.9-38.5c2.9,3.9,8.2,5.8,14,5.8
		c16.4-0.5,36.1-25,42.4-40v-1c1.4-2.4,1.9-5.3,2.9-8.7c2.9-15.4-8.2-28.9-23.1-28.9c-5.3,0-11.1,1.4-16.9,5.3
		c-29.9,19.7-66,77.5-37.6,111.7C252.8,251.9,260.5,254.8,269.7,254.8L269.7,254.8z M309.2,146.9c1.9,0,3.4,0.5,4.3,1.9
		c1,2.4,0.5,5.3-0.5,9.2c-7.2,17.3-28.9,37.1-38.5,37.1c-2.4,0-3.9-1-4.8-3.4C281.7,169,300,146.9,309.2,146.9L309.2,146.9z
		 M405.5,134.4c3.9-3.4,6.7-5.8,9.2-5.8c3.9,0,4.8,7.7,2.9,23.6c-4.3,3.4-6.7,8.2-9.2,13c-17.8,24.6-40.5,62.6-47.7,62.6
		C354,222,386.7,154.6,405.5,134.4L405.5,134.4z"/>
	<path class="st1" d="M271.5,321.3c-1,8.6-4.5,19-14.9,18.1c-2.3-0.2-4.2-2.1-4.3-4.5c0-0.7-0.1-2-0.1-4v-35.2c0-1.9,0-3,1.3-4.5
		c0.8-0.9,1.8-1.3,3-1.5C271.8,288.2,272.6,311,271.5,321.3L271.5,321.3z M258.3,275.8c-2.5,0-4.3,0-5.3,0.1L258.3,275.8z
		 M242.5,275.9c-2-0.1-4.1,1.5-4.5,3.7c-0.5,2.4-0.2,20.2-0.2,35h0.1L238,349c0.3,2.5,2.3,4.2,5,4.2l14.8,0.1
		c17.6,0,28.3-18.6,28.5-35.1c0-0.1,0-0.2,0-0.2c0.7-10.4-1.2-19.7-5.6-27.8c-5.2-9.6-12.7-14.3-22.5-14.3L242.5,275.9z
		 M331.6,314.2c-0.4-7.5-0.6-21.9-9.4-24.2c-16.4-4.3-15,26.1-13.9,34.6c0.9,6.8,3.3,15.5,11.4,15.4
		C330.9,339.8,331.4,322.7,331.6,314.2L331.6,314.2z M345.5,314.8c-0.2,15.8-3.7,35.9-22.3,38.2c-13.9,1.7-22.9-5.7-26.9-19
		c-3.9-13.3-3.5-35.3,3.6-46.9c3.5-5.8,8.4-9.3,14.8-10.4c9.1-1.6,18.1,0.9,23.6,8.6C344.2,293.6,344.9,303.1,345.5,314.8
		L345.5,314.8z M365.4,313.1c0,7.5,0,18.7,0,33.7c0,1.9,0.1,3.3-1.3,4.9c-1.7,1.8-4.4,1.7-7,1.5c-4.9-0.3-4.5-4.8-4.5-8.1
		c0-28.1-0.1-49.2-0.1-63.3c0-2.1-0.1-3.4,1.6-5c0.9-0.9,1.9-1.3,3-1.3c5.7,0,9.1-0.3,11.7,5.4c8.2,17.8,13.2,28.6,14.9,32.4
		c0.5,1.2,2,5.7,3.3,5.5c0.6-0.1,0.8-0.9,0.8-2.3v-17.9c0-5.6-0.3-18.2,0.3-19.9c1.3-3.8,4.5-3.4,8.1-3.2c2.9,0.1,4.4,2.6,4.4,5.7
		l0.1,65.6c0,2.1,0,3.3-1.3,4.8c-1.8,1.9-5.2,1.7-7.3,1.5c-3.3-0.3-5.6-2-7-5l-16.6-36.4c-0.5-1.1-1.4-3.9-2.4-3.6
		C365,308.4,365.4,311.6,365.4,313.1L365.4,313.1z M461.9,321.1v-27c0-2.5-2.3-4.7-4.7-4.7c-3.6,0-8.5,0.6-8.9-4.6
		c-0.3-4.7-0.4-9.3,5.7-9.3h31.4c2.6,0,4.6,2,4.8,4.6c0.1,2.2,0.5,5.9-1.5,7.8c-3.5,3.4-9.5-1.1-11.8,4.6c-0.4,0.9-0.3,1.6-0.3,3.1
		v53c-0.1,2.6-2,4.6-4.7,4.7c-6,0.3-9.9,0.6-9.9-6C461.9,343.3,461.9,334.6,461.9,321.1L461.9,321.1L461.9,321.1z M542.8,324
		c-1.1-2-2.1-3-2.9-3c-3.3,0.3-3.5,6.4-3.5,9.2c0,2.3,0,8,0.1,16.9c0,7-4.3,6.4-10.1,6.1c-2.4-0.1-4.2-2-4.3-4.3l-0.1-12.1
		l-0.1-54.8c0-1.8-0.2-3.4,1.2-4.9c1.9-2.1,5.6-1.7,8.6-1.5c1.3,0.1,2.4,0.6,3.2,1.5c1.4,1.4,1.5,2.7,1.5,4.8V298
		c0,1.8,1.7,3.5,3.5,0.5l10.7-18.3c3.4-5.7,8.4-4.9,14.3-4.8c2.7,0,3.9,1.4,2.7,3.7l-14.5,23c-2.1,3.3-2,6.6-0.5,10.2l15.4,37.1
		c0.6,2-0.5,3.5-2.7,3.8l-5.9,0.1c-3,0.1-6.2-2-7.2-4.9L542.8,324L542.8,324z M591.8,314.4V347c0,2.1,0.1,3.2-1.5,4.8
		c-0.8,0.9-1.8,1.3-3,1.4c-1.7,0.1-3.5,0.1-5.4,0c-2.3-0.1-4.3-2.2-4.4-4.4c0-0.2,0-0.7-0.1-1.4c0-19,0-32.1-0.1-39.3l-0.1-26.6
		c0-6.8,4-6.2,9.7-6.1c2.6,0.1,4.6,2.1,4.7,4.5c0,0.2,0,0.6,0,1.4L591.8,314.4L591.8,314.4L591.8,314.4z M605.1,314.2l-0.1-29.4
		c0-4.5-0.5-9.1,5.6-9.2c3.6,0,5.6-0.4,7.4,1.5c1.1,1.1,1.5,2.5,1.3,4l0.1,38.3c0,3.9-0.1,14.9,0.2,16.2c0.8,3.2,3.1,3.7,5.9,3.7
		l12.2,0.1c2.3,0.2,4.1,2.1,4.3,4.4c0.3,5,0.4,9.3-5.6,9.3h-26.9c-3.3-0.3-4.5-2.7-4.5-5.8V314.2L605.1,314.2z M648.4,314.2
		l-0.1-29.4c0-4.5-0.5-9.1,5.6-9.2c3.6,0,5.6-0.4,7.4,1.5c1.1,1.1,1.5,2.5,1.3,4l0.1,38.3c0,3.9-0.1,14.9,0.2,16.2
		c0.8,3.2,3.1,3.7,5.9,3.7l12.2,0.1c2.3,0.2,4.1,2.1,4.3,4.4c0.3,5,0.4,9.3-5.6,9.3h-26.9c-3.3-0.3-4.5-2.7-4.5-5.8V314.2
		L648.4,314.2z M421,278.4c-2.4-6.1,12.3-11,15.2-6.2c6.6,11.2,5.6,20.9-1.3,31.6c-5.1,8-19.6,1.1-15.3-5.4
		c3.3-4.9,5.6-10.1,3.5-15.5C422.4,281.1,421.5,280,421,278.4L421,278.4z"/>
	<path class="st1" d="M325.6,399.6l9.6-17.2c1.8-3.1,4.5-4.7,8-4.7c5.2-0.1,10.1-1,10.6,4.6l0.1,10.3l0.1,56.6
		c0,2.2,0.1,3.6-1.6,5.1c-1.9,1.8-4.7,1.4-7.8,1.3c-3-0.1-5-2.2-5.1-4.9v-44.6c0-1.6-1.1-1.5-1.8-0.4l-12.2,19.5
		c-1,1.4-3.5,1.2-4.7-0.4l-8-14c-1-2-3.1-6.7-4.5-6.6c-1,0-0.9,1.4-0.9,2.4l0.1,42.7c0,2,0.1,3.4-1.5,4.9c-1.9,1.8-5.4,1.4-8.2,1.3
		c-2.7-0.1-4.6-2.1-4.7-4.5c0-0.1,0-0.6-0.1-1.2c0-17.7,0-29-0.1-33.9l-0.1-32.3c0-3.2,1-5.8,4.6-6c5.6-0.2,11.1-0.6,13.9,4.1
		l9.8,17.4C323.2,403.2,323.6,403.4,325.6,399.6L325.6,399.6z M388.9,413.4c0.7,0.7,1.1-2.5,1.7-5.3c1.7-7.6,6.5-24.2,6.5-24.2
		c0.8-3.1,3.2-5.1,6.4-5.2c0.9,0,3,0,6.4,0c2.3,0,3.8,1.2,3.5,3.6c-0.3,1.8-12.3,37.3-15.5,47c-1.3,3.9-1.8,7.5-1.8,11.4
		L388.9,413.4z M396.1,440.5L396.1,440.5L396.1,440.5z M396.1,440.5c0,2.1,0.3,10.8-0.3,12.1c-1.6,3.8-5.2,3-9.1,3.1
		c-2.6,0-4.7-1.8-4.9-4.5c-0.4-8,0.8-14.7-1.9-22.5c-2.3-6.8-7.2-21.5-14.8-43.9c-0.6-1.8-1.3-3.4-0.2-4.9c1.1-1.6,2.7-1.3,5.2-1.3
		c4.5,0,8.6-0.6,10.3,4.9l7.6,28.4c0.3,1.1,0.6,1.6,0.9,1.5L396.1,440.5z M477.7,425.9l1-5l7.4-37.7c0.5-2.8,3-5.2,6.2-5.1
		c1.7,0,5.5-0.2,6.8,0.3c1.9,0.7,2.6,2.1,2.3,4.1c-0.2,0.8-0.6,2.8-1.4,6l-14.2,62c-0.7,3.1-3.6,5.5-6.6,5.3
		c-4.5-0.2-10.7,1.4-12.3-5.3l-15.6-67.7c-0.5-2.5,1.2-4.7,3.7-4.6c2.4,0,4.3,0,5.6,0c2.3-0.1,5.1,2.1,5.6,4.5l8.7,43.6
		C475.4,428.6,477.3,429,477.7,425.9L477.7,425.9z M522.3,416.9v32.6c0,2.1,0.1,3.2-1.5,4.8c-0.8,0.9-1.8,1.3-3,1.4
		c-1.7,0.1-3.5,0.1-5.4,0c-2.3-0.1-4.3-2.2-4.4-4.4c0-0.2,0-0.7-0.1-1.4c0-19,0-32.1-0.1-39.3l-0.1-26.6c0-6.8,4-6.2,9.7-6.1
		c2.6,0.1,4.6,2.1,4.7,4.5c0,0.2,0,0.6,0,1.4L522.3,416.9L522.3,416.9L522.3,416.9z M570.1,435.2c-1.7,6.9-9.2,7-15.1,6.8
		c-2.9-0.1-5-2.1-5-5v-9.4c0-2.6,2.1-4.9,4.3-5c8-0.3,16.4,0,16.3,9.4C570.5,433.1,570.3,434.1,570.1,435.2L570.1,435.2z
		 M549.9,400.8c0-4.1-0.5-7,3.1-8.5c2-0.8,7.1-0.1,7.9,0.1c3,0.8,5.3,1.8,6,5.1c1.7,7.7-3.1,12.5-10.6,12.5c-2.1,0-3.1,0.2-4.7-1.2
		C549.4,406.7,549.9,404.2,549.9,400.8L549.9,400.8z M584.2,431.3c0-0.1,0-0.1,0-0.1c-0.4-6.9-5.7-11.3-10.2-15.8
		c3-2.5,4.8-3.9,6.3-7.8c0.6-1.6,1.3-4.3,1.3-6.2c0.5-6.3-1.1-11.4-5.1-15.6c-8.3-8.7-21-7.6-31.9-7.6c-3.7,0-8.9-0.7-9,4.9
		c0,0.1,0,0.6,0,1.6l0.1,66.8c0.5,2.9,2.3,4.2,5.2,4.3l17,0.1C574.5,455.8,585.5,447.1,584.2,431.3L584.2,431.3z M589.2,416.7v-30
		c0-3.9-0.4-5.8,2-7.5c1.4-1,2.7-0.9,4.2-0.9l28.3-0.1c2.3,0,4,0,5.4,1.6c0.8,0.8,1.2,1.8,1.2,2.9c0.2,3.8,0.7,8.7-4.4,9.3
		c-2.5,0.3-14-0.1-17.6,0.1c-3.4,0.2-4.7,2.6-4.7,5.8c0,4.7-0.1,9,0.3,10.4c0.7,3.1,2.9,3.7,5.8,3.7c5.3,0,11.9-0.4,13.5,0.4
		c3.5,1.7,3.1,4.6,3,8.8c-0.1,3.4-2.6,4.6-5.7,4.6c-0.8,0-4.4,0-10.8,0c-3.8,0-6,1.3-6,5.4c0,2.7-0.2,6.3,0.3,7.6
		c0.8,2.1,2.4,3.1,4.6,3.2h16.5c2.9,0,5.1,1.6,5.3,4.5c0.1,1.5,0.1,3.1,0,4.9c-0.2,3.2-2.7,4.5-5.6,4.5c-7,0-17.1,0-30.2,0
		c-4.1,0-5.3-2.2-5.3-6L589.2,416.7L589.2,416.7L589.2,416.7z"/>
</g>
</svg>
