<?xml version="1.0" encoding="utf-8"?>
<!-- Generator: Adobe Illustrator 21.1.0, SVG Export Plug-In . SVG Version: 6.00 Build 0)  -->
<svg version="1.1" id="Layer_1" xmlns="http://www.w3.org/2000/svg" xmlns:xlink="http://www.w3.org/1999/xlink" x="0px" y="0px"
	 viewBox="0 0 720 722.4" style="enable-background:new 0 0 720 722.4;" xml:space="preserve">
<style type="text/css">
	.st0{fill:#73CDD5;}
	.st1{fill-rule:evenodd;clip-rule:evenodd;fill:#FF8D90;}
</style>
<g>
	<path class="st0" d="M77.6,475.8c-3.4,0.4-7.7-10.5-3-14.7c9-8,0.9-31.2-10.1-27.1c-13.7,5.1,6.9,43.8-17.2,52.1
		c-29,10.1-41.4-35.9-29.2-52.2c8.9-12,17-7.7,16.9,0.2c-0.1,7.2-8.6,6.8-9.4,16.4c-2,21.8,17.3,29.4,20.1,16.8
		c3.5-15.8-6.2-40.8,13.5-47.1C87.7,411.1,102.9,464.8,77.6,475.8L77.6,475.8z M69.3,505l27.3-18.1c5.2-2.6,7.1,0.1,9.7,4.5
		c7.7,12.5-26.3,14.4-17.8,27.9c14.5,23,12.7,23.2,33.9,8c7.2-5.1,15.9,7.6,9.1,12.4l-54.6,36.3c-6.4,4-15-8.2-8.2-12.8l17.8-11.9
		c3.1-2.2,4-6.2,1.8-9.6c-16.2-24.5-11.1-23.4-37.1-6c-7.4,5-15.9-8-8.9-12.6L69.3,505L69.3,505z M140.4,607.7
		c10.3,8.1,9.5,5,19.7-19.1c1.5-3.6-0.7-4.9-3.5-3.2C134.6,598.8,131.1,598.7,140.4,607.7L140.4,607.7z M141.7,649.5
		c-3.9-2.6-4.5-6.5-3.3-10.5c-0.1,0.3,0.7-1.7,2.3-6c3.4-8.8-4.7-13.2-13.8-21c-10.6-9-16.8,9.7-26.7,1.3c-8.5-7.2-5.4-6.9,12.5-17
		c26.2-15,41.3-23.6,45.3-25.9c4-2.3,8.8-2,12,1.3c-0.2-0.1,0.6,0.6,2.4,2.1c3.4,3,4.3,6.7,2.7,10.9L150.5,649
		C147.9,656.2,143.5,651.1,141.7,649.5L141.7,649.5z M203.9,645.3l-8,18.1c-1.4,3.8-0.2,6.4,3.5,7.9c10.2,4.6,20.3,8.6,29.1-0.9
		c9.6-10.5,18-31.6,1.4-41.3C211.9,618.5,213.6,623.8,203.9,645.3L203.9,645.3z M202.2,611c1.8-4,3.7-7,8.8-4.8
		c11.7,5.1,29,13,35.1,18.1c16,13.1,8.6,38.7-2.6,53.1c-19.1,24.5-45.6,6.7-63.3-0.4c-3.7-1.5-5.2-5-3.4-8.8L202.2,611L202.2,611z
		 M295.7,700.9c1.9-11,3.2-14.7,0.2-22.5l-15-39.2c-1.1-6.3,12.3-0.4,13.3,0.5c7.4,6.2,10.1,40.3,18.5,30.2
		c15.7-18.7,17.1-27.3,31.5-23c4.1,1.2,1.7,4.1-0.2,6.3l-25.4,29.3c-11.6,13.5-3.7,39.4-17.1,35.7c-9-2.5-8.4-1.8-5.7-17.3
		L295.7,700.9L295.7,700.9z M406.5,654.9l0,0.3c-8.6,1.5-11.8,2.2-9.1,13.9c2,9.1,11.4,5.1,19.2,3.3c9-2.1,6.6-18.1-2.5-18
		C413.7,654.4,411.2,654.6,406.5,654.9L406.5,654.9z M412.4,685.9c0,0.1,0,0.1,0,0.2c-9.9,1.7-12.8,2.1-9,17.1
		c2,7.5,11.3,3.9,19.9,1.7c9.2-2.3,9.3-19.8-3.4-19.6C419.7,685.2,417.2,685.5,412.4,685.9L412.4,685.9z M427.5,676
		c9.6,1.8,17,4.6,18.2,17.2c2.3,25.3-26.7,24.8-47.1,29c-4.9,1-7.7-1.1-8.5-6.1l-10.8-62.4c-0.6-4,1-6.3,4.8-7
		c7.9-1.4,30.1-6.9,40.5-3.3C437.6,647.8,443.1,664.5,427.5,676L427.5,676z M455.5,640c-1.9-4.2-0.8-7.2,3.3-9.1
		c13.2-6,26.5-12,39.7-18c8.3-3.7,13.5,7.6,5.7,11.4l-25.8,11.7c-6.8,3.1-4.1,9.1-1.6,13.8c2.9,5.4,6.8,4.4,11.4,2.3
		c14.6-6.6,22.1-11.2,25.8-10c4.3,1.4,7.1,9,0.3,12.1c-25.8,11.8-32.4,10.5-23.4,26.1c3.5,6.1,9.9,1.8,16-1
		c13.8-6.2,20.4-9.2,19.7-8.9c8.4-3.8,13.2,7.9,6.1,11.2c-14.7,6.6-29,13.1-43,19.5c-6.5,2.9-8.3-4.1-11.2-10.6L455.5,640L455.5,640
		z M575.5,614.3c9.6-9,6.4-8.6-15.9-22.4c-3.3-2-5-0.1-3.7,3C565.9,618.7,565.3,622.1,575.5,614.3L575.5,614.3z M617.1,619.2
		c-3.2,3.4-7.1,3.5-10.9,1.7c0.2,0.1-1.6-0.9-5.6-3.2c-8.2-4.6-13.8,2.7-22.8,10.6c-10.5,9.2,7.1,18-2.6,26.6
		c-8.3,7.3-7.6,4.3-15-14.8c-10.9-28.2-17.2-44.3-18.9-48.6c-1.7-4.2-0.7-8.9,3.1-11.7c-0.2,0.1,0.7-0.6,2.4-2.1
		c3.5-3,7.3-3.3,11.2-1l59.8,33.8C624.7,614.1,618.9,617.7,617.1,619.2L617.1,619.2z M652,533.4c-1.1-3.2,6.3-16.1,12.8-7.5
		c11.9,15.7,3.5,34.5-9,44.8c-18.1,15-43.4,3.3-55.6-12.4c-18.8-24.4,4.3-53.1,22-55.6c4.5-0.6,9.2,0.3,14.3,2.8
		c1-1.5,0.1,13.6-10.7,12.1c-13.7-1.9-26.4,17.2-13.6,31.4C639,579.2,669.4,553,652,533.4L652,533.4z M659.4,492.7l-31.2-10
		c-5.2-2.5-4.3-5.6-2.6-10.4c5-13.8,27.7,11.6,32.9-3.4c8.9-25.6,10.2-24.4-14.9-31.5c-8.5-2.4-4-17.2,4-14.8l62.4,20
		c7.1,2.6,2.9,16.8-4.9,14.4l-20.4-6.5c-3.7-1.1-7.3,0.7-8.6,4.6c-9,27.9-11.4,23.2,18.5,32.7c8.5,2.7,3.7,17.4-4.3,14.8
		L659.4,492.7L659.4,492.7z M81.3,269.5c10.3,2.4,5.5,15.6-3.1,18.2c-7.4,2.3-21.4,6.7-41.8,13.2c-14.5,4.5,4.9,6.7,16.4,9.4
		l20.2,4.7c6.4,2.2,4.2,14.8-4.6,12.8L8.5,313.9c-6.7-2.4-2.8-15,4.7-17.4l46.3-15c3.3-2.2-1-3.5-3.2-4c-19.9-4.6-31.6-7.3-35-8
		c-9.8-2-6.1-15.5,2.4-13.4L81.3,269.5L81.3,269.5z M64.5,229.5c36.1,18.7,49.4-27.2,10-36.4C51.6,187.8,40.4,216.7,64.5,229.5
		L64.5,229.5z M59.9,243.2c-39.3-19-18.5-68.2,14.3-64.4c21.8,2.5,43.3,21,34.7,46C101.4,246.7,79.3,254.1,59.9,243.2L59.9,243.2z
		 M101.2,130.8l0.2,0.2c-5.7,6-7.6,8.2,0.9,15.6c6.6,5.7,11.4-2.5,16.3-8.2c5.6-6.6-5.1-17.3-11.9-12.1
		C106.4,126.4,104.6,127.9,101.2,130.8L101.2,130.8z M122.9,150.8c0,0,0.1,0.1,0.1,0.1c-6.5,6.8-8.5,8.7,2.8,17.8
		c5.7,4.6,10.7-3.4,16-9.8c5.7-6.9-4.1-20.1-13.5-12.9C128.1,146.3,126.3,147.8,122.9,150.8L122.9,150.8z M128.7,134.9
		c8.2-4,15.4-6,23.3,2.8c15.9,17.8-6.3,33.6-19.3,48.1c-3.1,3.5-6.4,3.5-9.8,0.1L80,145c-5.8-5.7,2.3-10.7,12.9-21.8
		c7.7-8.1,20.5-19,32.4-7.3C131.4,121.9,131,127.5,128.7,134.9L128.7,134.9z M162.3,103c21.8,34.3,56.3,1.4,26.9-26.4
		C172.2,60.5,147.9,79.8,162.3,103L162.3,103z M151.5,112.6c-24.4-36.2,18.3-68.2,44.8-48.5c17.6,13.1,26.8,39.9,6.9,57.2
		C185.5,136.5,162.7,131.8,151.5,112.6L151.5,112.6z M238.9,61.8c4.5,13.3,5.6,23.4,13.5,20.8c10-3.3,19.5-6.9,19.4-19.1
		c0-13.3-7.7-33.2-25.3-29.4C227.5,38.3,232,40.8,238.9,61.8L238.9,61.8z M216,39.2c-1.3-3.9-1.9-7.2,3-8.9
		c11.3-3.9,28.2-9.4,35.6-9.8c19.3-1.1,30.5,21.2,31.9,38.2c2.4,29-27.2,33.5-43.9,39.8c-3.5,1.3-6.8-0.2-8-3.9L216,39.2L216,39.2z
		 M326.3,60.2c-0.8-10.4-0.5-14.1-5-20.5L298.7,7.6c-2.4-5.5,11.1-3.2,12.2-2.6c10.2,4.9,17.5,36.4,24.7,21.3
		c9.2-19.4,8.8-26.8,22.5-26.2c4,0.2,2.5,3.3,1.3,5.7L343,38.2c-9.1,18.2,8.7,36-10.2,36.5c-6.5,0.2-5.7-6-6.3-14.6L326.3,60.2
		L326.3,60.2z M403.8,38.6c7.4-31.9,5.4-35.7,15.9-33.6c5.8,1.2,5.8,4.4,4.7,8.9c-6.5,28.3-9.9,43.1-10.2,44.4
		c-3.8,16.4,36,5.2,28.4,22.1c-1.2,2.6-3.2,3.5-6.2,2.8c-11.2-2.6-22.9-5.3-35.1-8.1c-3.7-0.9-5.1-3.2-4.3-7L403.8,38.6L403.8,38.6z
		 M476.5,59c-7.2,18.3-10.4,30.4-14.7,31.7c-0.7,0.2-13.1,0-9.3-9.8l21.9-55.6c2.9-6.7,16.1-2,13.1,5.6
		C486.7,33.2,483,42.5,476.5,59L476.5,59z M494.6,64c12-20.9,16.1-33.7,23.9-28.4c-0.3-0.3,7.5,3.1,4.2,8.8
		c-1.1,1.8-12.8,19.4-10.8,21.8l4.6-0.1c14.2-5.3,23.1-8.6,26.7-9.9c7-2.7,11.3-0.1,17,3.4c3.3,2,2.4,3.3-0.8,4.4
		c-43.6,15.9-30.1,5.1-30.2,58.2c-0.2,4.8-14.3-1.5-14.6-11c-0.2-4.4-0.5-13.1-1-25.9c-0.4-12.4-10.6-6.7-14.7,0.4
		c-8.1,13.9-8.1,18.2-17.6,12.5c-3.7-2.2-3.1-5.5-1.3-8.7L494.6,64L494.6,64z M581.6,82.9c2.9-3.1,6-3.2,9-0.3
		c9.9,9.4,19.7,18.8,29.6,28.2c6.1,5.9-1.9,14.4-7.9,9c-20.1-18.7-22.3-26.4-31.8-14.8c-8.4,10.2,19.2,20.9,19.7,29.6
		c0.2,4.2-5.3,9.4-10.4,4.5c-19.3-18.3-20.5-24.4-30.9-11.2c-4,5.1,1.9,9.3,6.5,13.6c10.3,9.8,15.2,14.4,14.7,14
		c6.2,5.9-2.3,14.2-7.6,9.2c-10.9-10.4-21.6-20.6-32-30.5c-4.8-4.6,0.7-8.7,5.2-13.5L581.6,82.9L581.6,82.9z M660.7,195.7
		c-2.9,1.3-9.8-7.3-6.7-12.3c5.8-9.6-7.8-28.2-16.5-21.4c-10.9,8.4,18.3,37.3-1,51.4c-26,19.1-56.4-32.4-33.5-48.3
		c2.9-2,12.6,3.6,6,13.1c-7,10.1,6,29,15.5,26.2c17.7-5.3-16.5-38.8,4.3-53.3C651.8,135,680.3,178.9,660.7,195.7L660.7,195.7z
		 M668,281.2c3.3,11.8,4.4,9,25.5-3.6c3.1-1.9,2.3-4.1-0.9-4.4C668.4,271.2,665.8,269.3,668,281.2L668,281.2z M645.9,313.6
		c-1.5-4.1,0.1-7.4,3.3-9.8c-0.2,0.1,1.5-0.9,5.1-3.3c7.4-4.8,3.7-12.6,1-23.5c-3.1-12.7-18.1-1.9-21-13.7c-2.5-10.1-0.3-8.1,18.8-6
		c28.1,3.1,44.3,4.8,48.6,5.2c4.2,0.4,7.7,3.3,8.4,7.6c0-0.2,0.2,0.8,0.7,2.9c0.9,4.2-0.4,7.5-4,9.8L652.8,318
		C646.9,322.1,646.4,315.7,645.9,313.6L645.9,313.6z"/>
	<path class="st1" d="M473.8,577.3c-2.6,17.5-63.9,23.1-137,12.6c-73.1-10.6-130.3-33.3-127.7-50.8c2.1-14.6,45.2-20.9,101.9-16.5
		c10.3-90.7-0.5-170.3-79.2-238.8l-4.8,22.6c-1.6,0-6.3-5.3-7.5-6.6c3.9,8.5,7.5,8.6,7.7,12.1c0.4,6.5,1.8,8.6,3.4,13.9
		c-2.7-0.3-8.7-4.3-10.3-4.1c2.7,5.7,8.7,3.3,12.9,10.3c1.6,2.6,7.7,10.8,8.2,12.4c-3.2,0.3-6.4,0.5-9.7,0.4
		c18.4,5.9,6.2-3,27.1,14.1l-14.9,1.4c17.8,3.4,12.6-3.3,25.7,6.1c3.7,2.6,11.3,7.5,14,10.5c-4.4,5.2-17.2,8.6-24,6.5
		c-7-3.3-10.8-8.3-16.7-13.1c3.2,4.3,8.1,8.6,12.2,12c-2,0.7-14-0.6-18.2-4.6c-7.2-6.9-7.2-11.4-12.2-18.3c3,6.4,4.7,10.9,8.5,17.1
		c-5-1.4-19.3-11.2-22.4-18.4c-2.7-6.4-0.4-18.7-0.8-21c-1.2,6.4-3.2,9.1-2.3,17.9c-7.1-8.1-13.4-28-12.3-38.1
		c0.3-2.4,8-9,10.1-13.2c-3,1.2-7.9,6.3-9.3,6.4c0.9-7.4,2-12.8,6.6-19.2l-7.4,8.8c-1.1-1.5-1.1-8.8-2.4-10.8
		c-3.2,6.3,2.1,9.5-0.9,15.4c-1.5,2.8-5.4,12.2-6.8,13.7c-1.7-2.8-3.4-5.7-4.9-8.6c3.4,16.7,5.8,9.4-1.2,29.9l-6.9-12.5
		c5.4,16.5,7.3,13.7,2.7,25.6c-1.8,4.7-5.1,13.3-8.2,16.9c-5-3.8-10.9-16.2-10.7-22.5c1.3-7,4.6-11.3,6.8-17.9
		c-2.6,3.9-5,9.4-7,13.7c-0.4-0.3-4.2-11.6-2.2-16.2c3.1-7,6.8-8,10.5-16l-11.1,13.1c-1-3,1.2-20.5,5.3-25.6
		c5.5-6.3,11.7-6.6,16.6-9.9c-7.2,1.9-8.5,1.1-15.6,5.9c2.5-7.4,17.6-29,26.1-28.1c-0.2,0-0.3-0.1-0.5-0.1c1.7-2.3,6.9-4.9,8.2-7.4
		c-6.6,0.9-7.5,6.7-13.8,6.5c-2.6-0.1-11.7-0.1-13.3-1c1.3-2.7,2.9-5.3,4.5-7.7c-9.7,7.9-2.8,8.6-22,10.3l6.2-11.3
		c-11.2,10.9-4.3,11.4-16.5,12.9c-3.9,0.5-11.4,1.6-15,1.1c-1-6,3.3-16.5,8.6-19.5c5.9-2.3,10.8-1.3,17.1-2c-4.2-0.8-9.7-0.4-14-0.1
		c0.4-1.4,7.3-9,12.1-9.2c8.4-0.3,10.9,2.7,17.6,3.3c-5.3-1.7-9.4-3.6-15-5.1c2.7-2.1,16.6-6.8,22.5-5c4.9,1.6,12.3,10.2,14,10.9
		c-3.5-3.9-4.1-7-10.6-11.6c6.5-0.8,25.2,3.3,29.6,5.7c2,1.4,2.6,7.9,6.7,11.6c-0.4-2.3-2.7-8.1-2.4-9.6c3,1.2,5.2,2,8.3,3.8
		c-0.1-1.3,0-2.4,0.1-3.1c0.8-0.2,7.3,4.7,8.7,5.5c-2.9-3.1-8.9-9-8.1-13.7c1.3-6.8,3.6-14.4,7.3-20.3c1.2,2.7,1.2,9.3,3.8,11.6
		c1.1-8.2-4.1-11.4,1.6-19.1c2.7-3.6,9.5-11.7,13.7-13c-0.2,3.4-0.2,6.7,0.1,10.1c3-13.2,2.7-14.5,14.5-19.6c2.3-1,5.7-2.3,8.1-2.8
		c-2.3,4.7-4.6,8.6-6.6,13.5c7.8-13.3,9.9-15.7,20.4-15.1c4.3,0.3,12.6,2,15.7,5.2c-1.7,3.6-9.9,12.9-13.6,14.2
		c-3.5,0.9-9.2-0.6-14.7,1.3l12.2,0.1l-7.2,8.2c-2.1,1.1-10.7,0.1-14.8,2.3c3.5-0.8,9.2-0.6,12.9-0.1c-0.1,0.2-7.3,10.1-10.3,11.1
		c-2,0.7-12.5,0.8-14.5,2.3c1.6-0.3,10.7-0.1,13.6-0.2c-4.7,8.9-13.1,11.7-11.4,26.2c1.9-6.9,2.6-14,6.3-16.5
		c6.2-4.2,14.1-8.7,21.2-11.1c-1,2.9-6,8.3-5.7,11.7c7.4-5.9,5.1-11.4,15.6-14.6c5.3-1.5,18-4.3,22.6-2.8c-2.6,2.6-5.1,5.4-7.4,8.3
		c12.5-8.8,14.9-11.8,33.4-5.1c1.6,0.6,3.6,1.3,5.1,2.2c-6.2,1.4-10.7,2.5-16.6,5.3c13.8-4.5,21.7-5.1,29.9,4.7
		c4.2,5.1,8.3,14.2,6.5,21c-1.3-0.2-15.7-4.7-18.2-5.5c-4.2-1.4-7-8.1-15.2-10.8c3.7,2.7,7.4,4.7,10.5,8.8c0,0-10,1.7-12.7,0.4
		c-4.9-2.5-9.2-6.3-14.6-6.9c4.1,1.3,9.2,4.7,12.3,7.7l-18.6,3c-3.3-0.5-13.4-6.2-16.4-6.2l13.5,7.5l-14.5,4.1
		c5.3,1.6,10.4,3.9,15,7c-3,0.8-10.9-0.1-13.5,2.6c12.6,2.5,14.1-5.2,28.9,10.5c2.4,2.5,7.9,8.8,8.6,12.2c-3.6-0.9-7.3-1.7-11.1-2.1
		c14.9,6.4,18.4,7.6,23,28.7c0.2,0.8,0.4,1.7,0.5,2.5l-13.8-10.9c12.1,10.4,16.7,15.6,13.9,29.2c-1.3,5.7-4.2,13.6-9.7,16.6
		c-2.4-2.9-9.3-15.8-9.9-19.3c-0.5-5.2,1.5-11.3-0.5-18.7c-0.1,4.9,0.4,10.1-0.6,15.2c-0.3-0.2-7.9-9-8.4-12.2
		c-0.8-5.7,0-12.1-2.3-16.9c1,4.3,0.9,10.8,0.3,15.1c-0.7-0.5-12.3-11.8-13.1-17.1c-0.5-3.1-1.4-12-3-14.4c0.7,3,0.7,11.2,1,15
		c-7.5-5.8-9.6-9-19-13.4c-1.2-0.7-1.5-8.1-6.2-10.5c0.5,1.5,3.5,7.5,3,8.9l-25.1-6.1c76.2,69.9,91.3,149.7,96.6,240.6
		c13.1-101.5,37.9-190,128.9-263.5l-29.7,5.2c-0.4-1.7,3.4-8.4,4.2-10.1c-5.6,2.5-6.6,11-8,11.8c-11.2,4.5-13.9,8.1-23.1,14.3
		c0.7-4.3,1.3-13.9,2.3-17.4c-5,6.8-0.5,16.5-10.1,24.8c-2.5,2.2-9.5,9.7-11,10.6c-0.4-5.1-0.1-12.7,1.4-17.6
		c-3,5.5-2.5,12.9-3.9,19.5c-0.8,3.6-10.3,13.4-10.7,13.5c-0.7-6,0.2-12,0.4-17.7c-2.9,8.5-1.1,15.8-2,21.8
		c-0.9,4-9.9,18.6-12.9,21.7c-8.9-5.7-14.4-28.9-7.3-38.2c4.4-5.7,9.9-10.4,15.6-14.8l-16.8,11.6c1.1-5.7,7.5-22.5,11-25.8
		c5.9-4.7,11.7-6.3,18.6-8.8c-4.4,0.3-8.7,0.9-13,1.7c1.7-5.7,18.1-21.7,25.8-23.7c6.1-1.4,12.6,1,19.6,0.1c-2.8-3.2-12-2.8-15.5-4
		c5.5-3.2,11.7-5.5,18-7l-16.6-5.9l16.3-7.7c-7.6-0.4-14.8,8.9-27.1,5c-2.6-0.8-12.7-3.2-13.9-3.8c3.8-3.2,10-6.7,14.8-8
		c-10.6,0.5-13.6,8.6-22.7,7.1c-1.5-0.3-8.7-1.2-9.5-1.6c3.8-4.5,8.3-6.5,12.8-9.4c-9.7,2.6-13.4,10.1-18.5,11.5
		c-3.1,0.7-20.1,4.9-21.6,5c-2.2-11.5,10.8-32,23.5-31.8c7.5,0.2,13.9,1.9,20.8,4.6c-6.7-3.7-11.8-5.4-19-7.4
		c5.9-2.8,23-6.3,27.7-4.9c6.9,2.6,11.2,6.7,16.8,11.2c-2.5-3.5-5.2-7-8-10.2c5.4-1.4,26.9,3.6,32.4,8.3c4.5,4.1,5.6,10,10.8,14.8
		c0.6-4-4.8-10.7-5.8-14.1c8.1,3.3,16.9,9.1,23.8,14.5c3.3,2.6,2.9,4.3,3.7,8c1,4,1.8,7.7,2.5,11.8c3.1-16.8-7.8-23.3-11.3-31.3
		c3.4,0.4,13.9,0.8,15.8,1.2c-4.4-3.7-15.8,0.1-20.9-7.6c-1.3-2-6.6-8.7-7-9.8c4.2-0.3,10.9-0.1,14.9,1.1c-7.5-4.5-15.1,0.1-20-6.5
		c-1-1.3-4.7-6.2-4.9-7.4l14.2,0.8c-5.8-2.6-13.1-1.4-17-2.7c-4.2-1.8-13.1-13.2-14.8-17.5c4.6-4.4,26.2-8.2,31.9-1
		c3.1,4,7,10.4,9.3,15.1c-2-5.9-4.4-10.5-6.7-16.2c4.6,1.3,18.3,8.1,20.2,10.9c3.1,5.6,3.5,10.7,4.5,16.8c0.5-3.9,0.8-7.8,0.9-11.7
		c4.7,1.8,16.7,16,17.5,22c0.6,5.5-2.5,10.4-2.1,16.5c3.3-2.5,3.8-10.1,5.3-13.2c3.8,7.1,6,16.2,7,24.1c0.6,5.6-6.9,12-10.4,15.4
		c1.7-0.8,9.5-6,10.5-5.7c0.2,0.9,0.1,2.2-0.1,3.7c3.7-1.9,6.4-2.6,9.9-3.8c0.2,1.8-3,8.3-3.5,10.9c5.1-4.1,6.3-11.5,8.7-13
		c5.3-2.4,27.3-5.8,34.9-4.4c-7.9,4.9-8.9,8.5-13.2,12.7c5.9-2.2,11.8-15.2,26-11.2c4,1.1,14,4.4,16.9,7c-6.7,1.4-11.6,3.2-17.9,4.8
		c8.3-0.3,18.7-6.6,26.8,0.5c1.7,1.5,6.9,6.5,7.3,8.5c-5-0.6-11.3-1.5-16.3-0.9c7.2,1.3,13,0.6,19.7,3.6c5.8,4,10.1,16.5,8.5,23.4
		c-4.3,0.3-12.8-1.6-17.4-2.4c-14.1-2.6-5.9-2.7-18.2-16.2l6.4,13.6c-22.2-3.3-14-3.6-24.8-13.6c1.8,3,3.3,6.1,4.7,9.4
		c-1.3,0.6-16,0.9-19.2-0.7c-4.3-2.3-6.2-6.6-11.9-7.8c1.3,3.1,7.1,6.4,8.9,9.3c-0.2,0-0.4,0-0.5,0.1c1.5-0.1,2.6,0,3.4,0.4
		c8.7,5.3,22,23.4,24.9,34.3c-7.9-6.1-9.5-5.3-17.8-8c11.5,8.8,22.3,4.2,23.3,35c0,1.5,0.1,6.6-0.5,7.9l-11.9-16
		c4.8,12.4,13.5,15.2,11.1,26.5c-0.4,1.7-2.7,11-3.8,11.5c-2-5.2-4.3-11.8-7.1-16.5c2.1,7.9,5.6,13.2,6.6,21.4
		c-0.1,7.3-7.9,21.3-14.1,25.4c-2.8-3.7-12.9-27.7-10.1-34.2c2.4-5.2,4.6-10.4,6.7-15.7l-9,14.1c-6.6-24.3-4.3-15.7,0.8-34.9
		c-2,3.3-4.1,6.5-6.3,9.7c-0.6-0.7-8-17.2-7.9-20.4c0-2.5,3.5-8.5,1.1-14c-1.6,2.2-2.1,10.7-3.5,12.4l-8-10.8
		c4.8,7.8,5.8,14.1,6.3,22.8c-1.6-0.2-7-6.6-10.3-8.2c2.1,5.1,10.7,13.3,10.8,16.2c0.5,11.8-8.3,34.5-17.1,43.5
		c1.8-10.2-0.4-13.5-1.3-21c-1.8,7.5,4.7,21.7-10,32.8c-4.4,3.3-14.8,10.2-19.9,11.4c4.8-7,7.2-12.1,11.1-19.3
		c-7,8.5-10.3,21.3-23.3,23.7c-2.7,0.5-11.4,1.6-13.7,0.7c5.1-3.7,11.1-8.3,15.1-13.1c-7.2,5.3-12,10.7-20.4,14.1
		c-8.1,1.9-22.7-2.9-27.4-9.3c3.3-3.3,12.6-8.4,17.1-11.2c15.9-10,9.3-2.5,30.3-5.2c-5.7,0-11.8-0.6-17.3-2.7
		c25.6-18.4,10.6-9,32.6-14.4c-3.8-0.1-7.5-0.5-11.2-1.1l13.6-17.4c3.4-2.2,10.2-3,12.6-7.5c-1.9-0.3-9.1,3.9-12.3,4
		c2.3-6.1,4.1-8.4,5-16c0.5-4.1,4.7-4,9.9-13.5c-1.5,1.5-7.3,7.2-9.2,7.1l-3.9-26.6c-95.4,72.9-114.6,163.2-110,267.6
		C432.8,542.7,476,562,473.8,577.3L473.8,577.3z"/>
	<path class="st1" d="M43.2,362.2c34.3,0,25.8,3.3,6.2,18.3c11.4,33,5.3,25.7-15.9,12c-28.8,18.4-24.5,12.8-16.4-12
		c-19.4-14.7-28.3-18.3,5.9-18.3C35.2,329.6,35.1,337.4,43.2,362.2L43.2,362.2z M696.7,362.2c34.3,0,25.8,3.3,6.2,18.3
		c11.4,33,5.3,25.7-15.9,12c-28.8,18.4-24.5,12.8-16.4-12c-19.4-14.7-28.3-18.3,5.9-18.3C688.6,329.6,688.6,337.4,696.7,362.2
		L696.7,362.2z"/>
</g>
</svg>
