<?xml version="1.0" encoding="utf-8"?>
<!-- Generator: Adobe Illustrator 21.1.0, SVG Export Plug-In . SVG Version: 6.00 Build 0)  -->
<svg version="1.1" id="Layer_1" xmlns="http://www.w3.org/2000/svg" xmlns:xlink="http://www.w3.org/1999/xlink" x="0px" y="0px"
	 viewBox="0 0 720 667.8" style="enable-background:new 0 0 720 667.8;" xml:space="preserve">
<style type="text/css">
	.st0{fill:#4D4D4D;}
	.st1{fill-rule:evenodd;clip-rule:evenodd;fill:#4D4D4D;}
</style>
<g>
	<path class="st0" d="M23.4,582.3C-15.2,598-3,650.5,37.9,649.2c39-1.3,42.6-44.5,18.1-50c-13.1-2.9-17.9,8.6-18.3,5.4
		c-0.2-1.5,3.7-4.9,6.9-6c13.4-4.7,45.8,3.3,44-11.7c-1-8.7-8.7-0.3-17.4,1c-9.9,1.5-50.1-2.6-43.5,26.8c1.3,5.9,10.2,7.2,12.5,1.5
		c8.4-20.4,33.1-0.1,16.1,18.1c-14.2,15.1-44.6,2.7-39.7-26c3.5-20.4,21.7-20.5,23.3-24.1c2.8-6.5-7.2-3.7-12.1-10.8
		c-3.7-5.5-2.2-11.9,2.9-16.2c-6.3,13.8,26.3,25.3,31.4,8.4c6.3-20.9-39-29.3-47.9-5.4C7.8,577.3,28.9,581.8,23.4,582.3L23.4,582.3z
		 M31.4,556.6c17.6-8.8,30.3,8.6,18.9,10C38.6,567.9,38.1,553.6,31.4,556.6L31.4,556.6z"/>
	<path class="st0" d="M352.2,160.7c17,2.8,14.1,1.6,31.5-0.5c5.9-0.7,14.3-5.6,18.3-9.7c5.3-5.6,5.7-6.8,5.7-16.7
		c0-8.5-1.1-22.6,1.5-30.1c2.2-6.5-1.4-52.1,1.5-64.2c2-8.3-0.6-17-4.3-24.7c-1.5-3.1-17.7-13.1-24.3-13.1
		c-20.2,0-31.5-2.5-48.9,10.8l-6.4,12.7c-1.6,3.9-2.6,82.9-2.7,95.5c0,1.6,0.5,0.4,1.5,2c1.3,2.5,0.4,4.9,0.8,5.9
		c0.5,1.1,2.7-1.7,3.8,0.7c0.9,2.1,4.1,11-1.5,9.2c-2.1-0.7-2.6-2-4,1.1C320.7,148.7,342.7,159.1,352.2,160.7L352.2,160.7z
		 M357.5,78.1l2.3-45.4c0.7-2.5,10-4.3,10-8.8c0-3.4-1.8-5.1,5.3-8.5c2.2-1-1.5,10.5,1.5,17.4c2.6,7.4,2.9,34.9,2.9,44.1
		c0,1.9,2.2-1.5,4.1,2c-2.8,1.7-4.9,2.2-3.2,6.2c1.2,2.9,0.1,2.1-0.5,4.6c-0.7,3.1,1.5,7.9-2,12.5l-0.1,31c-16.8,9.6-6,2.7-12.1,3.4
		c-6,0.7-9.8,1.3-9.8-3.7C355.9,111.4,355,99.8,357.5,78.1L357.5,78.1z M518.7,159.6c5.3,0.4,5.2,1.1,7.5-1.2
		c2.5-2.5,1.9-8.6-1.8-10.7c-3.3-1.8-1.9-0.9-0.6-3.4c3.2-6.4,4-25,4.1-32.6c0-3.1-1.5-2.9-1.9-5.2l1.9-9.1l1.9-53.5
		c-1-2.9-1.9-1.7-2-7.4c-1.3,1-3,2.7-4.6,0.8c-3-4.6-5.6-6.1-0.1-10.7c4.3-3.5,7.8-1.1,5.2-3.6c-3-3-0.7-2.4,0.2-3.9
		c0.8-2.1-4-3.3-2.1-6.2c0.3-0.5,1.4,0.3,1.7-0.4c3.2-9.3,8.1-10.5-6.5-11.4c-21.4-1.3-20.5,2.1-21.4,21l-0.3,64.3
		c-0.4,3.1-8.8,3.6-10.9,3.6c0-18.2,4-9.6-3-32.8l-6-19.3c0.2-4.3-5.6-21.8-7.4-31.2c-1.9-9-33.9-4.4-41.7-3.9
		c-3.3,0.2-2.9,0.9-2.8,4l0.1,53.8c0,2-0.6,5.4,1,6.9c6.2,5.5,7,1.2-0.3,6.8c-1.6,1.2-0.9,7.8,0.1,9.1c2.4,3-0.5-1.8-1.5,8.6
		c-0.4,4.7-2.2,19.6-0.4,23.1c3.1,5.9-2.2,2.8-0.5,6.8c2.3,5.3,1.5,1.9-0.2,9.5c-0.7,3.2-5.1,24.4,0,24.8h29.7
		c0-21.1,3-30.1,1.8-53.8c-0.3-5.6-2.3-28.7-0.9-32.5c1.2-3.3,3.7-4.8,7.3-4.8l4.6,19.8c4.3,26.3,4.8,19.9,10,41.1
		c2.9,9.5,5.8,19,8.7,28.4c0.6,1.9,0.8,2.1,2.8,2.6C498.5,159.1,510,159,518.7,159.6L518.7,159.6z M656.8,96.9l0.4,56.6
		c1.7,1.6,28.5,3.5,30.4-0.5c4.5-9.1,1.1-51.8,2.5-59.9l16.5-48.6c3.9-9.3,7.7-18.6,11.6-27.9c1.7-4.1,1.2-4.8,1.3-9.1
		c0.2-10.7-0.3-7.2-30-5.9c-6.5,0.3-4.5,6.7-9.9,23.5c-1.8,7-3.5,14-5.4,21c-0.6,2.4-3.9,4.5-6-0.8c-4.8-12-3.2-14.8-5.5-21.5
		C656,4,658.9,2.2,650.3,0.8C643.3-0.3,628,0,622.2,2.1l17,47.7C643.1,63.8,651.7,82.1,656.8,96.9L656.8,96.9z M547.4,44.8
		c0,36.1,0.1,72.2,0,108.2c0,2.6,0,2.5,2.7,2.9c12.2,1.8,51.2-1,64.8-1.3c2.2-0.1,2.1,0.3,2.1-2.7c-0.3-26,3.7-22.3-13-22
		c-25,0.4-22.4,0.6-22.9-20.5c-0.5-20.3-0.3-38.2,1.8-58.3c2-20.5-2.8-27-1.7-44.4c0.2-2.9-0.4-2.9-3.4-3
		c-32.1-1.3-32.3-4.9-32.5,7.1C545.1,22.9,544.9,32.9,547.4,44.8L547.4,44.8z M62.6,54.1c0-11.5-4.3-15.4,0.3-22.1
		c3.4-5,0.5-8.3,4.8-10.2c2.2-1,0.4,6.5,1.1,7.1l16,2.1c2.2,0.3,1.9-0.2,1.8-2.4L86.4,3.3l-49,2.4c-17.3,0-8.2-2.2-26.2-2.2
		c-7.1,0-7-0.3-9.6,4.1c-0.9,1.8-4,24.3,4.8,25c11.5,1,10.6-2,15.6-1.8c11.3,0.4,7.1,3.3,6.9,4.6l0,123.6l29.8-1.2
		c4.8-0.6,3.9-1.6,3.9-5.8L62.6,54.1L62.6,54.1z M164.2,139.5c6.1-8.8,10.1-11.8,10.6-22.4c0.2-5.3-3.6-0.2-4.1-1.8
		c-1.7-5.2-3.7-3.6-3.5-5.7c0.1-1.2-0.5-1.1-1.5-2c-3.6-3.1,2.3-1-5.5-4.8c4.1-6.1,9.9,1.3,13,4.6c1.5,1.6,3.2,0.3,2.7-2
		c-2-10.6-1.5-7.5-5.1-8.5c3.4-5.5,7.9-4.1,3.1-7.1c-1.7-1.1-4.4-2.6-3.5-5c0.6-1.1,3,1.9,5.2-2.1c3.8-7-5.9-13.7,0.9-19.3
		c1.9-1.5,1.2-1.3,0.2-3.4c-1.5-2.9,2.3-4.5,1.6-9c-1.3-0.5-2.3-0.3-3.7-0.4c4.6-3.6,3.8-9.5,4.5-15L182,10c-2.4-5.7-24.3-4-29.9-4
		c-0.9,7.8-3.6,51-1.9,54.5c4.8,9.7,6.1,7,4.9,8.6c-3.9,5.1-4.2-2.3-5.2-2.8l-21.7,9.5c4.3-18,0.3-6-1.8-8.4l2-44.9l-0.2-18.4
		c-6-3-22.8-1.8-29.9-1.8c-3.3,9.6-1.9,33.8-2.2,45c-1.2,34.5-2.3,69-3.7,103.5c-0.1,2.1,0.2,2.2,2.2,2.2
		c30.6-0.3,25.4,3.3,26.2-9.7l3.8-54.4c2.1-2.1,11.1-2.6,12.3-4.2c1.4-1.8,1-9.6,7-10.7c2.8-0.5-1.5,2.6-1.8,4.3
		c-0.5,2.4,1,3-1.7,6.9c8.4,4.6,6.2,6.4,7.5,20.9c0.9,9.9-1.8,4.2-1.8,18.9c0,9.3,0,18.6,0,27.9c4.2,1.3,24.2,4.1,27,1
		c2.8-3.1-1.2-4.2-3.4-10.2c-0.6-1.5-1.8,0.6-3.3,0.9C165.7,144,167.1,141.2,164.2,139.5L164.2,139.5z M249.2,158.4
		c11.9,0.4,8.3-1.7,9-19.1c0.3-7.5-14.3,1.3-16,1.8c-3.7,0.9-4.7-0.7-7.1-0.9c-8.9-0.6-7.4,1.4-9.5-1.3c-3.6-4.7-3.8-0.9-3.2-13.3
		l2.8-30.9c1.8-5.1,10.3-2.6,5.9-9c-1-1.6,0-0.3,1.7-2c1.6-1.6,1.1-1.1,3.1,4.2c1.8,4.5,15.6,5.4,20,5.7c2.6,0.2,2.5-0.9,2.4-3.2
		c-0.7-20.6,2.4-21-4.1-20.8c-0.7,0-6.7,0-7,0.3c0.6,0.9,3.6,1.4-0.3,2.1c-18,3.3-8.3,7.4-12.9,7.5c-8.7,0.2,4.4-4.4-6.2-12.8
		c-0.6-0.5-1.1-0.8-1.5-0.9v-33c23.8-9.8,8.2-4.2,12.6-12.2c0.7-1.2,2.7-2.3,3-0.6c0.4,1.8,1.7,1.6,3.3,2.7c2.7,2,2.4,5.3,6.3,6
		c3.2,0.5,6.6-1.5,8.8-3.6l4.1-19.3l-67.9-2c-2.6,0.6-1.4,9.1-3,11.6c-2,3.3,0.9,3.9,0.9,3.9l-1.2,71.4l1.8,36.5
		c0.7,0.4,3.7,0.6,3.5,1.8c-0.2,2-8.4,1.7-4.7,8.9c2.2,4.2-2.8,5.3-3.2,13.4c-0.3,6.2,0.1,5.4,5.3,5.5L249.2,158.4L249.2,158.4z"/>
	<path class="st0" d="M443.6,280.5c1.6-4.7,1.3-5.8,1.4-10.6c0.2-15.2,2.4-29.6,2-45.9c-0.1-3.5-1.2-4.5-1.8-7.4
		c-1.3-6.8-1.9,2.7-6.6-4.6c-5.6-8.6,6.7-10.3,7.4-10.8c1-0.7-3.4-2.3-1.5-4.3c3.2-3.4-3.7-5-1.1-6.9c1.6-0.9,1.5-0.4,2.4-2.5
		c3.7-8,3.6-7.9-1.5-8.8c-4.4-0.8-17.7-1.6-21.2,0.3c-6,3.3-4.4,4.8-5.8,20.1c-0.3,7.4,0.7,63.2-0.9,65.3c0,0-10.5,6.6-10.3-0.6
		c0.6-15.8,3.3-9.1-2.9-29.6l-6-19.3c0.2-4.3-5.6-21.8-7.4-31.2c-1.9-8.9-34.5-4.5-42.1-3.9c-2.5,0.2-2.1,0.4-2.1,3l0.3,60.9
		c2.4,4.4,9.9,1.1,1,7.1c-3,2-1,8.9-0.4,9.6c2.4,3.1-0.7-1.7-1.5,7.6c-0.4,4.7-2.5,21.2-0.3,24.4c2.7,3.6-1.6,3-0.9,5.8
		c1.5,6.1,2.6-1.6-0.1,10.4c-6.3,28.7,0,24.5,8.1,24.5l21.3-0.2l2.2-42.1c0-8.6-3-39.8-1-44.6c1.3-3.3,5.9-5.3,7.2-3.1l4.4,18.7
		c4.3,26.3,4.7,19.9,10,41.1c0.8,2.7,9.2,30,9.2,30.1c1.8,2.3,29.4,3.3,33.3,3.7c6.8,0.7,7.3-6.1,4.9-10.2c-2.7-4.5-5.4-0.5-2.6-5.2
		c3.4-5.8,4.1-25.2,4.2-32.6C445,284.4,441.9,285.8,443.6,280.5L443.6,280.5z M522.5,335.5c9,0.3,6.2-4.1,6.5-16.9
		c0.1-3,1.4-8.9-10.9-3c-9,4.3-4.4,2.7-11.7,1.7c-8.3-1.2-7,2-10.1-1.7c-3.6-4.4-3.5-1.7-3-13l2.8-30.9c1.3-5.3,10.1-1.7,5.6-9.3
		c-0.6-1,0.3-0.4,1.7-1.6c3.6-3-0.3,4.5,7.9,7.4c4.4,1.6,10.3,2,15,2.4c3,0.2,2.8-0.9,2.7-3.6c-0.7-18,2.5-20.6-4.2-20.4
		c-15.1,0.4,0.3,1.4-6.5,2.4c-20.7,3.1-6.4,9.3-16.5,7.3c-1-4.2,5.4-5.7-3.1-12.4c-0.6-0.5-1.1-0.8-1.5-0.9l0.1-32.9
		c0.5-0.7,9.6-4,11-4.6c3.4-1.4,0.7-3.4,1-6.4c0.3-3,3.4-3.4,3.4-2.2c0,2,1.9,1.9,3.6,3.3c2.7,2.5,2.7,6.5,8,5.7
		c8.4-1.3,7.4-8.7,10.3-20.7c0.6-2.4-0.2-2.3-2.6-2.3l-64.6-1.8c-2.6,0.6-1.4,9.1-3,11.6c-2,3.3,0.9,3.9,0.9,3.9l-1.4,63.9l1.7,44
		c0.5,0.4,6.7,0.3,1.7,3.2c-9.3,5.5,2.5,5.9-4.6,15.1c-0.4,0.6-3.6,11,1.3,11.3L522.5,335.5L522.5,335.5z M614,316.3
		c0.2-8.4-13.5,2.7-19.2,1.9c-12.1-1.7-12.3,0.6-16.2-5.6c-1.6-2.6,2.5-40.8,2.5-40.8c1.8-5.2,10.2-2.4,5.6-9.4
		c-0.5-0.7,0.2-0.6,1.1-1.1c2.2-1.2,1.6-3.1,3.5,2.3c2.2,6.6,14.1,6.6,20,7c3,0.2,2.8-1,2.7-3.7l-0.2-20.2
		c-16.7-1.7-6.3,1.3-10.9,2.3c-4.4,0.9-9.2,2-12.7,5.4c0.6,0.7,1.3,1.3,1.9,2c-1.8,0-3.7,0-5.5,0c0.2-6.4,5-6.2-3-12.6
		c-0.6-0.5-1.1-0.8-1.5-0.9v-33c17.3-7.2,12.5-4.2,12.1-10.1c-0.2-2.8,2.7-4.7,3.4-2.7c0.7,2,1.6,1.5,3.3,2.8
		c1.8,1.3,5.4,11.2,14.7,2.6l4-19.4l-65.3-2.1c-5.2-0.2-3,4.8-4.5,10.4c-2.1,7.7,0.7-0.9,0.4,11.4l-1.2,57.6l1.8,43.5
		c0.9,1.1,4.7,1,3.3,2.6c-1.6,1.8-6,2-5.2,6.1c0.5,2.6,3.1,3.2-0.2,8.9c-2.2,3.7-2.4,4.3-2,11c0.1,2,3.5,1.3,6.7,1.4l56.6,1.7
		C615.9,334.1,613.8,328,614,316.3L614,316.3z M632.2,322.1c0,9.2-1.4,7.8,6.5,7.8c18.9,0,37.9,0,56.8,0
		c9.2-0.2,24.9-16.3,21.7-22.4c-2.9-5.5,0.5-2.3-0.2-9.3c-0.7-7.1,0.8-16.5,2.2-23.6c0.4-1.7-1.9-3.6-1.7-5.9
		c1-9.9,3.2-56.6,1.3-62.6c-1.9-5.9-6.4-17.9-10.3-22.4c-1.1-1.3-2-1-3.7-1.5c-3.5-0.9-3.2-3.1-11.1-3.9
		c-18.7-1.7-35.9-2.2-54.6-0.4c-8.3,0.8-6.9-0.4-6.9,7.9C632.2,231.3,632.2,276.7,632.2,322.1L632.2,322.1z M665.8,291.2l1.1-55.4
		l-1.1-6.6c0-7.2,0-14.4,0-21.5c0-6,12.4-16.3,14.4-13.9l5.5,14.7l-0.1,94.2c-0.3,0.4-8.5,2.5-9.7,2.8c-3.5,1.1-5.1,1.7-7.3-1.9
		C666.5,300.4,665.8,295.1,665.8,291.2L665.8,291.2z M279.8,213.7c0.2-5,3.8-33.5,0.3-34.7l-34.4-1.9l2.6,71.4l0,81.1
		c2.2,3.6,14.9,1.4,20.7,1c10.5-0.8,8.7,0.8,8.7-7.3C277.7,286.7,277.5,250.2,279.8,213.7L279.8,213.7z M127.8,335.7
		c14.9,4.1,24.8,1.8,37.9-5.2c8.7-4.8,10.8-11.8,14-20.6c2-5.5,1.1-18.8,0.7-25.3c-0.2-3.5-2.7-10.8-4.1-14.3
		c-2.6-6.5-4.3-6.9-9.5-11.1l-22.5-17.9c-3-1.9-4.7-5.7-7.1-8.4c-3-3.3-4.2-3.6-5.5-8.2c-1.1-4.3-0.8-12.4,2.5-15.9
		c3.9-3.8,7-3,12.7-1.6c7.2,2.2,5.2,7.9,7.4,13.1c1.4,3.5,3.3,3,6.6,3c7.4,0,14.8-0.1,22.2,0.1c2.7,0,2.7-0.2,2.7-3.1
		c-0.1-4.3-0.2-22.6-2.8-26c-12.6-14.9-20.6-13.8-39.1-13.7c-11.6,0.1-20.2-1.8-29.4,4.1c-8,5.1-7.2,2.2-12.8,13.5
		c-1.7,3.5-4.6,20.9-3.5,24.3c2.9,8.8,1,11,7.9,23.2c4.4,7.7,14.7,16.7,21.5,22c8.8,6.9,18.4,7.3,19.8,22.7c0.4,4.3,1.3,11-0.8,14.9
		c-4.8,9-19.5,12.9-21-12.4c-0.1-2.5-1-2.6-3.5-3.1l-25.1-1.6c-2.6,0-2.1,0.8-2,3.2c0.1,5.9-0.7,24.6,3.1,29
		C109.4,333.1,110.7,331,127.8,335.7L127.8,335.7z M0.4,324.4c-0.1,6.5-0.9,5.5,6.1,5.5c18.7,0,37.5,0,56.2,0
		c3.8,0,17.6-10.9,17-22.8c-0.2-4.6,1.8,1.5,2.2-10.8c1.2-40.4-12.2-36.2-16-39.9c0,0-2.3-5.4,1.8-6.9c6.4-2.6,11.2-11.6,13-17.8
		c3.5-12.2,3.5-9.3,1.6-24.9c-1.1-8.3-4.5-15.7-10.3-21.8c-2.9-3.1-14.9-5.9-19.2-6l-52.2,0.2v110c0.6,1.4,4,3.1,2.3,4.7
		c-2,1.9-2.6,0.9-2.5,4.2L0.4,324.4L0.4,324.4z M30.2,276.8c0-14.3,2.5-8.9,1.8-14.6c-0.1-2.5,2.4-3.5,4.6-3.8
		c3.1-0.5,1.8,1.4,3.5,1.6c5.4,0.6,3.7-7,2.3-7.6c-1-0.5-3.2,0.6-5.6-1.4c-0.9-1.2,0.6-1.2,0.8-2.1c-1.5-0.6-3.9,0.8-3.4-2.4
		c0.3-2.1,2-1.6,1.7-2.9c-0.2-1-3.8-0.3-5.1-0.8c-0.1-0.8,1.3-0.9,1.2-2.6c-0.7-7.3-5.5-38.2,10.1-35.9c12.3,1.8,9.6,0.9,10,8.8
		c0.4,9.9,1,19.9-4.3,28.8c-4,6.8,6.8-1.3,12.5-11.6c2.2-4,2-0.5,4.4-2.9c2.5-2.4,5.5-0.9,4,1c-2.8,3.6-6.3,4.6-3.6,4.8
		c11.8,0.8,9.4,9.2,4.7,5.2c-3.2-2.7-7.8-1.2-11.1,1.6c-2.3,2,1.4,6.7-2.8,8.7c-1.5-2.6-5.9-3.5-7.3,0.1l0.4,13.3
		c0.9,0.6,1-0.4,1,1.8c0.3,10.3,2.1-5.8,5.6,0.3c-2.3,3-2.2,2-2.5,6.2l-1.4,32.4c-0.6,1.1-2.9,1.9-4,4.8c-1.2,3.5,0.1,3.9-4.6,3.5
		c-14.3-1.1-11.7-8.5-13.8-18.5C26.6,278.5,30,294.7,30.2,276.8L30.2,276.8z"/>
	<path class="st0" d="M197.2,495.7c0,15.8,3.7,13.1,21.9,13.1c7.6,0,15.4-2.6,35.2-2.1c5.8,0.1,6.1-0.7,10.5-4.2
		c10.4-8.3,4.9-9.3,9.2-18.7c2-4.3,2.8-15.4,1.2-20c-2-5.9,1.7-5.2-3.7-15.2c-7.9-14.8-10.5-7.6-10.9-12.6c-0.3-4.2-0.4-2,5.7-7.1
		c10.1-8.4,12.2-30,9.3-42.1c-1.1-4.8-4.2-9.4-7.1-13.3c-2.5-3.3-13.6-7.7-17.8-7.8l-51.2,0.5c-0.6,0.9,1.4,91.9-0.6,108.8
		L197.2,495.7L197.2,495.7z M231.5,392.1c11.4-10.1,6.7-1.6,12-1.4c5.4,0.2,3.6,25,2.5,26.5c0,0-13.8,14.4-3,9.3
		c7.3-3.5,22.4-19.3,16.6-25c-2-1.9-15,0.4,4.5-8.3c2.6-1.1-1.8,1.9-1.2,7c0.5,4.1-0.8,9.9,9.4,2.9c1.5,1,1.4,3.5,0,4.7
		c-3.9,3-11.7,2.1-13.6,8.7c-0.6,2.3,0.1,4.9-0.2,5.8c-0.5,1.6-4.3-1.8-5.6,1.2c-1.8,4,3.3,6.5,1.6,7.8c-3.3,2.6-7.1-5.1-10.2-0.9
		c-6,8.1-1.5,1.6-8,4.1c-1.2,0.5-1.7,0.7-3.1,0.8c-0.8-3.5,0.3-3.4-3.6-3.8c-0.6-0.1-0.6-0.2-0.5-0.9c0.7-6.1,8.4-0.1,3-5
		C225.6,419.7,225.1,398.1,231.5,392.1L231.5,392.1z M225,467.2c0.8-7.1,0.7-24,9.9-27.7c3,3,6.8,0.4,9.7,4.2
		c1.7,2.3-2.3,8.5,4.1-0.5c0.4,6.3-4.8,8-0.3,30.6c1,5.2-1.8,9.2-5.7,12.4c-2.6,2.1-3.5,1.2-6.2,2.3
		C227.4,492.1,227.1,478.2,225,467.2L225,467.2z M317.8,461c0-17.9-1.6-36.6,1.7-54.1c0.6-3.3,0.1-18.4,1.8-30.3
		c2.1-14.3-1.8-11.9-30-13.2c-5.7-0.3-4.1,2.7-3.9,17.8c0.1,10.5,0.4,24.1,2.7,34.4c0.9,4.2-1,91.3,0.5,92.7l27.1,0.3
		C322.3,491.2,317.9,479.1,317.8,461L317.8,461z M361.7,508.8c4.1,0,2.7-4.5,2.7-16.1c-0.1-44.4-9-39,5.9-44.7
		c5.8-2.2,9.9-2.4,9,3.9c-2.9,0.5-2,1.6-4.7-0.1c-8.5-5.2,3.1,19,3.5,21c0.8,4.8,2.9,19.3,8.5,20.7c6,1.3,6.3-4.5,8.6-7.5
		c-0.1,13.5-8.3,5.4-8.1,14.7c0.2,10.6-0.1,8,25,8.1c1-4.4,2.2-8.7,3.5-12.9c-2-4.8-3.5-8.6-6.2-13.2c-2.6-4.3-2.3-6.3-2.3-11.3
		c-0.1-8-13.3-30.9-9.1-42.3c3.6-9.8,12.8-29.1,13.1-38.4c0.1-3.5,13-22.7,9.1-25.4c-1.3-1-27.9-5.1-31.7,1.8
		c-6.8,12-8.3,21.4-12,34.2c-7.9,26.9-3.4,17.7-2.9,22.9l-3.9,6.6c-2.8-13.4-6.1-8.8-6-15.6l-0.4-49.4l-29.5-0.1
		c-1.6,1.6,1.8,30.1,2.2,34.7c0.4,3.9,5.8,0.5,7.2,2c0.8,0.8,0.9,3.7-0.2,4.7c-2.1,2-6.6-1.2-7-0.7l0,95.6
		C335.8,511,332.2,508.7,361.7,508.8L361.7,508.8z M570.2,509.5c5.6,0.1,4.5,0.6,4.6-7.2c0.2-11.1-3.5,1.8-1-16.6
		c1-7.1,1-13.4,1-20.5c0-3.9-1.1-2.8-1.4-4.8c-0.2-1.4,1-3.4,1.4-4.9c2.1-7.7,4.1-53.7,0-60.3c-0.6-1-2.1,0.9-3.6,0.6
		c-0.5-2.2,3.4-8-1-6.2c-8.6,3.5-7.3,3.7-7.4,1.8c-0.1-1.1-0.6-10.5,2.6-7.9c1.9,1.6,3.7,4.7,5.6,1.2c2.1-3.7,1.8-11.4,1.8-11.5
		c0,0,9.6-8.4,4.2-9.9c-1.6-0.4-25.5-4.2-26,1.8l-1.9,77.4l-3.1,7.6c-1,3-1.6,0.6-3.7,2.8c-1,1-1.5,2.3-3,1.7c0.3-0.7,1.5-2.4,2-3.3
		c4.6-8.3-1.4-7.9-1.6-8.7c-0.7-2.4,5.7,1.6-3.7-27.6L524.1,369c-1.8-6.6-4.4-5.4-10-5.4c-10,0-20.1,0-30.1,0
		c-3.5,0-2.2,0.2-2.3,14.5c0,14.7-0.1,29.3,0,44c0,2.3,0.9,2.2,1.4,4.3c0.9,3.8-0.3,8.3,1.4,11.8c0.8,1.5,0.2,1.3-0.8,2.9
		c-3.3,5.2-2.8,21-2.2,27.3c0.2,2.4-0.3,1.1-1.2,2.5c-0.8,1.5,0.7,3.3,0.9,5.2c0.9,8.1-7.3,29.5-1.9,30.5l29.9-0.1l0.1-81.1l5.9-4
		c0,4.3,3.4,12,4.8,19.5c3.5,19.5,1.7,13.4,8.1,31.6c2.1,6,6.7,31.5,9,34C539.4,509,566.2,509.4,570.2,509.5L570.2,509.5z
		 M462.4,454.8c-0.3-16-1.2-32.4,1.7-47.9c0.6-3.3,0.1-18.4,1.8-30.3c2.1-14.1-1.7-11.9-27.8-13.1c-7.6-0.3-6.1,0.1-6.1,6.1
		c0.1,13.3-0.1,32.2,2.5,45.2l0.3,46.9C441.6,455.8,454.2,450.8,462.4,454.8L462.4,454.8z M441.1,508.8c1.7,0,3.3,0,5,0
		c3.5-10.7,7.3-23.3,7.5-29C448.3,485.6,443.1,501.9,441.1,508.8L441.1,508.8z M683.8,485.4c-3.8,7.5-14.4,6.6-15.8,5
		c-5.4-6.1-4.5-17.8-5.2-18.5l-25.8-1.6c-2.4,1.4-1.9,3.9-2,6.4c-0.4,10.5-0.8,24.5,9.7,30.7c14.8,8.8,23.9,7.3,40.3,7.1
		c8.7-0.1,7.3-0.6,14.9-4.4c6.8-3.4,5.8-6.7,11.7-12.1c4.6-4.2,3.6-34.3,1.7-40.7c-2.9-10-13.2-15.7-20.8-22.4
		c-4.7-4.2-6-7.1-10.8-8.9c-2.3-0.9-11.3-12.5-12.4-14.8c-2.1-4.5-0.8-19.4,10.5-18.7c8.9,0.5,8.6,10.7,10.3,13.1
		c4.6,6.3,14,4.4,24.4,4.3c2.7,0,3.6-0.3,4.6-3c2.4-6.8-0.4-25.5-5.7-30.5c-9.3-8.7-38.5-12.1-49.8-8.1
		c-10.1,3.5-13.2,5.1-20.7,12.5c-4.5,4.5-6,26.3-5.5,27.5c0.6,1.7,1.4,1.7,1.7,4.2c1,8.7,1.4,14.1,9.8,22.7
		c5.7,5.7,16.6,16.6,23.6,20C683.2,460.4,686.5,479.7,683.8,485.4L683.8,485.4z M594.3,363.6c-6-0.1-4.5,0.9-4.5,5.2
		c0.1,11.7-0.1,35.9,2.6,46.6l0.2,93l25.5,0.4c7.7,0.1,2.1-37.9,2.1-48.2c0-18.1-1.5-35.6,1.6-53.6c0.8-4.4,0.3-20.6,2.2-32.5
		C626.1,361.9,615.1,364.1,594.3,363.6L594.3,363.6z M34.2,390.6c0.2-5,3.8-33.5,0.3-34.7L0.2,354l2.6,71.4
		c0.4,26.4-0.2,52.7-0.3,79.1c0,5.9,8.2,4,14.1,3.5c16.4-1.3,15.7,0.1,15.6-3.7C31.3,473.6,32.3,420.2,34.2,390.6L34.2,390.6z
		 M98.9,384.2c9,2.2,4.1,13.8,10.1,16c8.7,0,17.3,0,25.9,0.1c3,0,2.8-1.3,2.7-3.9l-1.2-19.8c-0.7-4.7-1.2-5.2-4.6-8.7
		c-11.9-12.4-22.1-10.3-38.6-10.3c-21.8,0-15.9-1.4-31.2,6.7c-10.3,5.4-13.3,30.3-11.6,36c2.8,9.5,0.2,7.4,6.5,20.3
		c2.1,4.4,11.6,16.3,16.6,19.2c2.7,1.6,4.3,3.8,6.9,5.7c8,5.9,15.7,6.9,18.2,18.2c6,27.3-12.1,28.5-16.9,22.2
		c-6.1-8-1.6-17.2-6-18.6L47,465.3c-0.5,1.9-0.4,27.5,2.6,31.5c8.8,12,17.2,12.7,32.2,16.4c13.7,3.3,23.6,0.8,35.7-5.8
		c23.3-12.6,15.5-59.8,6.4-67.1l-27.4-21.9c-3-1.7-5-5.8-7.4-8.5c-3.1-3.4-4.7-4.3-5.6-9.1c-0.9-4.5-0.5-12,3.1-15.3
		C90.4,381.8,94.2,383,98.9,384.2L98.9,384.2z"/>
	<path class="st1" d="M515.3,551.4c10.1,0,15.3-23.9,3.4-23.9C503.2,527.4,502.1,551.4,515.3,551.4L515.3,551.4z M673.9,632.3
		c24.1-1.6,34.5-22.6,41.6-48.1c0.8-5.1-7.2-4.8-8,1.3c-1.3,12.6-15.4,39.8-29.7,39.8c-22.3,0-23.9-28.5-23.9-38.2
		c2.4,5.6,33.4,7.5,33.4-20.4c0-32.3-52.8-30.4-52.8,19.6c0,5.6-16.1,37.1-21.7,36c-3.7-0.8,7.7-48.7,7.7-58.4
		c0-11-3.2-22.6-16.2-23.7c-21.7-1.6-36.6,66.7-39.8,69.7c-1.6-4-1.3-23.9-0.8-28.5c1.3-9.1-1.6-10-5.6-10.2
		c-14.1-0.9-9.6,13.5-10.1,18c-0.5,4.2-12.2,40.9-22.2,40.9c-13.3,0,9-64-8.2-64c-12,0-17,15.3-16.9,32c-2.3,7-4.8,14.2-7.2,19.6
		c-6.6,14-13.3,21-17,21c-14.3,0,30.5-90.1-11.1-87.9c-24.1,1.1-34.7,59.4-37.4,61.3c-5.3,3.8-4.8-22.6-4.2-26.1
		c10.1-13.2,64.4-128.6,32.3-128.6c-40.2,0-48.4,83.4-46.7,127.2c-0.9,2.7-23.5,17.1-24.6,15.6c-8-8.1-22.5-25.8-19.1-40.6
		c2.5-10.5,16.6-11.2,15.6-3.5c-0.5,4.8-6.9,3.8-7.4,7.8c-0.6,5.2,13.9,9.2,18-4.3c7.2-23.5-45-23.1-41.9,18.6
		c0.6,8.6,3,5.7-0.5,12.9c-7.2,15.9-15.6,32-20.4,31.2c-3.7-0.8,7.7-48.7,7.7-58.4c0-11-3.2-22.6-16.2-23.7
		c-21.7-1.6-36.6,66.7-39.8,69.7c-1.6-4-1.3-23.9-0.8-28.5c1.3-9.1-1.6-10-5.6-10.2c-15-1-9.2,15.9-9.9,21.1
		c-4.6,12.2-18.1,40-22.7,40c-10.6,0,18.6-85-7.7-85c-13.5,0-15.9,33.9-22,57.8c-7.4,29.6-24.9,31.2-21.7,1.6
		c1.3-12.9,8.9-41.4-5.6-41.4c-8.8,0-9,17.8-10.5,20.6c-1.3,2.4-22.4,15.8-23.4,14.4c-8-8.1-22.5-25.8-19.1-40.6
		c2.5-10.5,16.6-11.2,15.6-3.5c-0.5,4.8-6.9,3.8-7.4,7.8c-0.6,5.2,13.9,9.2,18-4.3c7.2-23.5-45-23-41.9,18.6
		c1.3,17.8,16.7,28.5,19.1,32.5c-42.1,36.8-24.4,57-2.1,57c35.5,0,37.1-39.3,22-61.9c4.7-2.6,11.9-6.9,18.1-11.3
		c-4.4,54.9,35.6,57.1,46.6,11.1c1.3-5.6,4.9-29.8,7.2-29c3.9,1.3-12.8,69.7,9,69.7c11.2,0,23.5-26.4,30-42.4
		c1.1,6,5.2,21.7,10.9,21.7c12.7,0,24.4-72.9,35.5-72.9c15.6,0-14.3,84.5,8.2,84.5c10.5,0,26.4-28.6,33.4-45.3
		c5.1,9.8,13.4,16.1,15.1,19c-42.2,36.8-24.4,57-2.1,57c35.5,0,37.1-39.3,22-61.9c5.4-2.9,14.1-8.2,20.8-13.3
		c0.9,12.6,3.8,36.2,16.3,31.8c11.1-4,17.2-60.2,36.6-62.1c8.7-0.8-23.9,89,9.8,89c9,0,21.1-19.7,29.6-37.6
		c8.3,45.5,33.6,27.7,48.1-7.4c1.1,5.4,5.1,19.2,10.4,19.2c12.7,0,24.4-72.9,35.5-72.9c15.6,0-14.3,84.5,8.2,84.5
		c9.4,0,23.1-22.9,30.9-39.8C637.7,614.7,646.7,632.1,673.9,632.3L673.9,632.3z M668.6,556.2c12.7,0,14.3,32.6-14.6,25.8
		C654,568.9,662.7,556.2,668.6,556.2L668.6,556.2z M455.7,474.7c10.6,1.1-26.5,92.3-31.8,101.1C422.8,569.4,439.5,473.1,455.7,474.7
		L455.7,474.7z M374.3,616.7c11.7,14,6.4,43.8-10.6,43.8C352.3,660.6,345.4,637.4,374.3,616.7L374.3,616.7z M140.5,616.7
		c11.7,14,6.4,43.8-10.6,43.8C118.5,660.6,111.6,637.4,140.5,616.7L140.5,616.7z"/>
</g>
</svg>
