<?xml version="1.0" encoding="utf-8"?>
<!-- Generator: Adobe Illustrator 21.1.0, SVG Export Plug-In . SVG Version: 6.00 Build 0)  -->
<svg version="1.1" id="Layer_1" xmlns="http://www.w3.org/2000/svg" xmlns:xlink="http://www.w3.org/1999/xlink" x="0px" y="0px"
	 viewBox="0 0 684 675.4" style="enable-background:new 0 0 684 675.4;" xml:space="preserve">
<style type="text/css">
	.st0{fill:#333232;}
	.st1{fill-rule:evenodd;clip-rule:evenodd;fill:#ECBB1C;}
	.st2{fill-rule:evenodd;clip-rule:evenodd;fill:#333232;}
</style>
<g>
	<path class="st0" d="M676.6,327.4l-0.2,0c-0.1-2.9,0.1-4.3-1.2-5.7c-1.5-1.6-4.2-1.4-6.6-1.2c-2.8,0.2-4.5,2.2-4.3,5
		c0.1,1.9,0.3,4.1,0.5,6.6c0.3,3.9,4,4.6,7.3,4.1C676.6,335.5,676.2,331.9,676.6,327.4L676.6,327.4z M656.9,328.2c0,0-0.1,0-0.1,0
		c-0.1-2.7,0.4-7-3.8-7.3c-1.9-0.1-3.9-0.1-6,0.2c-2.2,0.2-3.5,1.9-3.4,4c0.1,2.3,0.3,5,0.5,8.2c0.3,2.7,2.7,5,6.4,4.9
		C656.9,338.1,656.6,333.5,656.9,328.2L656.9,328.2z M661.7,338.4c-1.2,3.6-1.8,6-5.1,8c-3.3,2-7.8,2.1-11.6,0.8
		c-6.3-2.2-8.7-8.9-8.8-15.4l-0.5-15.6c-0.2-3.1,1.4-4.7,4.6-4.7l39.6-1c2.5,0,3.8,1.2,3.9,3.6l0.2,18c-0.1,6.6-4,13.5-11.8,13.5
		C666.6,345.9,664.1,343,661.7,338.4L661.7,338.4z M680.1,360.5c2.8,0.4,4.1,1.9,3.7,4.7c-1.2,9-2.3,18.1-3.5,27.1
		c-0.4,2.8-1.9,4-4.7,3.7c-2.5-0.4-3.6-1.8-3.3-4.3l2.2-17.6c0.6-4.7-3.5-5.2-6.8-5.4c-3.8-0.2-4.6,2.2-5,5.3
		c-1.1,8.5-1.7,13.2-1.8,14.2c-0.2,2.4-2.1,3.9-4.4,3.6c-2.7-0.4-3.8-2-3.5-4.6l2-15.3c0.3-2.4-0.5-4.6-2.9-5.1
		c-9.5-1.9-9.1,0.2-10.1,8.2c-1.2,9.4-1.8,13.9-1.7,13.4c-0.4,3-2.6,4.4-5.4,3.5c-1.9-0.6-2.8-1.9-2.5-3.9c1.3-10,2.6-19.8,3.8-29.4
		c0.6-4.4,4.9-3.1,9.3-2.5L680.1,360.5L680.1,360.5z M642.8,424.7c-0.6,2.6-1.2,4.2,0,5.6c0.6,0.6,1.4,1,2.5,1
		c2.4,0,6.9-0.2,13.6-0.4c2.4-0.1,2.6-1.7,0.9-2.8l-11.2-7.4c-1.9-1.2-3.8-0.8-4.7,1.3C643.7,422.1,643.3,423,642.8,424.7
		L642.8,424.7z M619.3,436.5c0.5-2.9,2.5-4.3,5.1-4.6c-0.2,0,1.2-0.1,4-0.3c2.9-0.2,4.8-1.7,5.7-4.5c0.9-3,1.8-6,2.6-8.9
		c2.3-8.4-9.9-7-7.8-14.8c0.5-2,1.2-5.7,4.4-3.5c0.9,0.6,3.8,2.7,8.6,6.1c15.4,10.9,24.3,17.2,26.7,18.9c2.3,1.6,3.5,4.4,2.4,7.2
		c0-0.1-0.1,0.5-0.6,1.9c-0.8,2.8-2.6,4.2-5.5,4.4l-43,3c-4.3,0.4-3.3-3.3-3-3.7C619,437.6,619.1,437.3,619.3,436.5L619.3,436.5z
		 M625.6,494.2c-7.4-3.9-11.5-6-12.4-6.6c-5.6-3.2-9.5-8.3-8.7-15.2c0.7-5.7,4.1-12.1,7.6-16.1c7.1-8.1,15.1-5.3,23.6-1
		c3,1.5,9.7,5,20,10.4c4.1,2.1,3.1,4.4,1.1,7.7c-1.5,2.4-3.6,1.8-5.6,0.7c-10.4-5.4-15.8-8.2-16.3-8.5c-4.9-2.5-7.8-4.2-11.8-4.7
		c-5-0.6-8.2,4.5-9.5,8.7c-1.7,5.7,2.6,9,7,11.3c1.9,1,8.9,4.7,21.1,11c4.3,2.2,3.5,4,1.6,7.6c-1.5,2.7-3.5,2.2-5.8,1l-12-6.2
		L625.6,494.2L625.6,494.2z M599.4,514.7c-8-5.8-12.2-8.8-12.5-9c-3.4-2.5-1.7-5.5,0.5-7.7c2-2,3.5-1.1,5.4,0.2l25.9,18.6
		c2.1,0.9,3.8,0.5,5.2-1.3c1.5-2,2.7-3.6,3.5-4.9c3.2-4.7,9.5,0.4,7.1,4.1c-0.1,0.1-0.3,0.4-0.7,1l-17.4,24.1
		c-1.8,2.7-4.5,2.3-6.4,0.4c-1.4-1.5-1.6-3.1-0.4-4.7c-0.2,0.3,1-1.4,3.6-5c1.8-2.5,1.4-4.7-1.1-6.5L599.4,514.7L599.4,514.7z
		 M582.4,543.2c-8.5-7.5-13.5-11.9-15.1-13.2c-4.2-3.7,1.6-8,2.9-8.3c1.7-0.4,2.6,0.4,3.8,1.5l29.2,25.7c3.1,2.8,2.5,4.4-0.4,7.4
		c-1.7,1.8-3.5,1.9-5.3,0.2C596.3,555.5,591.3,551,582.4,543.2L582.4,543.2z M575.3,552.1c7.6,8.1,12.2,13,13.6,14.5
		c1.9,2,1.8,4-0.2,5.9c-7.1,6.6-13.2,12.4-18.4,17.3c-4.2,3.9-9.3-2-5.9-5.4l11.6-10.9c1.9-1.7,2.2-4.6,0.2-6.6
		c-2.3-2.4-3.3-4.3-5.9-4.3c-1.3,0-2.5,0.5-3.5,1.5c-0.8,0.8-3.6,3.5-8.5,8c-3.7,3.5-7-0.7-6.9-2.9c0-2,2-3.3,5.2-6.3
		c3.4-3.2,5.1-4.8,5.1-4.7c2.1-2,2.2-4.4,0.2-6.5c-2.3-2.5-4.8-5.1-7.4-7.9c-2.4-2.5-0.5-4.8,1.8-6.8c1.8-1.6,3.5-1.5,5.2,0.2
		C562.3,538.2,566.9,543.2,575.3,552.1L575.3,552.1z M515.9,607.9c-4.8-6.8-7.4-10.7-8-11.6c-3.5-5.4-4.6-11.7-0.7-17.5
		c3.2-4.7,9.2-8.8,14.2-10.8c10-3.9,15.9,2.3,21.4,10.1c2,2.8,6.3,8.9,12.9,18.5c2.7,3.8,0.7,5.3-2.6,7.3c-1.5,0.9-3.3,0.6-4.4-0.7
		c-0.1-0.2-0.4-0.6-0.9-1.2c-6.7-9.6-10.2-14.6-10.5-15.1c-3.2-4.5-5-7.4-8.3-9.7c-4.2-2.9-9.4,0.2-12.4,3.3
		c-4.2,4.3-1.9,9.1,1,13.3c1.2,1.8,5.7,8.3,13.6,19.5c2.7,3.9,1.3,5.2-2.1,7.4c-2.5,1.7-4,0.5-5.6-1.8l-7.7-11.1L515.9,607.9
		L515.9,607.9z M503.1,608.3c5.4,10.6,8.4,16.6,9,17.8c1.9,3.7-0.6,5.5-3.6,6.7c-3.1,1.2-4.2-0.6-5.4-3
		c-8.7-17.3-13.3-26.4-13.7-27.2c-1.8-3.5-4.3-3.2-7.2-1.7l-11.8,5.9c-2.4,0.8-4.3-0.6-5.1-3.4c-0.5-1.8,0.1-3.2,2-4.1
		c6.9-3.5,14-7.1,21.5-10.8c2.3-1.1,4-0.6,5.2,1.7L503.1,608.3L503.1,608.3z M449.3,633.2c3,10.7,4.8,17.1,5.4,19.2
		c0.7,2.7-0.2,4.4-2.9,5.1c-9.4,2.6-17.5,4.9-24.3,6.8c-5.5,1.5-7.3-6.1-2.8-7.5l15.3-4.2c2.4-0.6,4.1-3.1,3.2-5.7
		c-1-3.2-1-5.3-3.2-6.5c-1.1-0.6-2.4-0.7-3.8-0.3c-1.1,0.3-4.8,1.4-11.3,3.2c-4.9,1.4-5.9-3.8-4.8-5.8c1-1.8,3.3-2,7.5-3.2
		c4.5-1.3,6.7-1.9,6.7-1.9c2.8-0.8,3.9-2.9,3.2-5.7c-0.9-3.3-1.9-6.7-2.9-10.4c-1-3.4,1.8-4.5,4.7-5.2c2.3-0.6,3.8,0.3,4.5,2.6
		C444.2,614.8,446,621.3,449.3,633.2L449.3,633.2z M400.5,645.6c-2-11.1-3.1-17.7-3.5-19.7c-1-5.5,6.2-5.3,7.5-4.6
		c1.5,0.8,1.8,1.9,2.1,3.5l6.7,38.3c0.7,4.1-0.8,5.1-4.9,5.6c-2.5,0.3-3.9-0.7-4.3-3.2C403.7,663.9,402.5,657.3,400.5,645.6
		L400.5,645.6z M391,668c0.2,2.8-1.1,4.4-3.9,4.6c-9.1,0.7-18.2,1.4-27.2,2c-2.9,0.2-4.4-1.1-4.5-3.8c-0.1-2.5,1-3.9,3.6-4.1
		l17.7-1.4c4.7-0.3,4.4-4.5,3.9-7.8c-0.6-3.8-3.1-4-6.2-3.8c-8.5,0.6-13.3,1-14.3,1.1c-2.4,0.3-4.3-1.3-4.4-3.6
		c-0.1-2.7,1.2-4.1,3.8-4.4l15.4-1.2c2.4-0.2,4.4-1.4,4.4-3.8c0-9.7-2-8.8-10-8.2c-9.5,0.7-14,1-13.5,1c-3,0.2-4.8-1.6-4.5-4.6
		c0.2-2,1.3-3.1,3.3-3.3c10.1-0.8,19.9-1.5,29.5-2.2c4.4-0.3,4,4.2,4.3,8.6L391,668L391,668z M324.2,652.8c0,0,0,0,0-0.1
		c-6.4-0.1-10.3-0.9-11.8,3.8c-1.2,3.8-0.9,8.2,3.5,9.6c3,1,6.9,1.4,11.7,1.2c2-0.1,3.1-1.1,3.4-3.1c0.4-2.6,0.6-5.1,0.5-7.5
		c0-2-1.7-3.5-3.7-3.7C327.7,653,326.5,652.9,324.2,652.8L324.2,652.8z M313.6,647.6c-3.3-1.9-5.3-3.3-6.5-6.9
		c-1.2-3.6-2.5-7.9-4-12.8c-1.1-3.7,3.4-2.9,5.5-2.6c4.7,0.5,4.9,4.3,6.4,9.3c1.7,5.7,1.9,9.3,7.7,10.4c1.3,0.3,3.2,0.4,5.8,0.5
		c3,0.1,4.1-2.3,4.3-4.9c0.4-5.2,0.6-8.3,0.7-9.4c0.1-2.5,2.1-4.1,4.3-3.7c1.2,0.2,5.5-0.1,5.3,3.9l-3.1,41.2
		c-0.5,2.1-1.8,3.1-4,2.9c-11.9-0.9-18.8-1.5-20.8-1.7c-9.8-0.9-15.3-7.1-13-17c0.9-3.9,3.4-6.6,7.5-8.1
		C309.9,648.6,311.2,648.2,313.6,647.6L313.6,647.6z M262.4,632.7c-0.7,0.5-1.8,0.6-3.4,0.3c-1.5-0.3-2.5-0.7-3.1-1.3
		c-0.6-0.2-1-0.7-1.3-1.6c-0.5-1.5-0.2-2,0.7-3.3c3.3-5.2,7.9-7.8,13.9-8c5.2-0.1,10,1.1,14.4,3.6c5.7,3.3,8.8,8.3,9.5,15
		c0.7,7.4-0.8,14.2-4.7,20.4c-4.6,7.4-11.4,10.5-20.4,9.4c-6.9-0.9-14.1-4.7-17.1-10.2c-1.3-2.5-1.8-5.5-1.5-9c0,0,1.2-1.6,5.7-0.4
		c5.8,1.5,1.6,7.4,9.5,10.7c13.3,5.5,19.6-9.4,18.9-20.1c-0.5-8.4-7.5-12.7-14.7-11.1C265.6,627.7,264,629.6,262.4,632.7
		L262.4,632.7z M236.4,654.2c-1,2.7-2.9,3.5-5.5,2.5c-8.5-3.3-17-6.6-25.5-9.9c-2.7-1.1-3.5-2.9-2.4-5.4c1-2.3,2.6-3.1,5-2.2
		l16.6,6.4c4.4,1.7,5.9-2.2,6.9-5.3c1.1-3.7-1.1-5-4-6.1c-7.9-3.1-12.4-4.8-13.4-5.2c-2.3-0.8-3.3-3-2.4-5.2
		c1.1-2.5,2.8-3.2,5.3-2.3l14.4,5.6c2.3,0.9,4.6,0.6,5.6-1.6c4.1-8.8,2-8.8-5.5-11.8c-8.8-3.4-13.1-5.1-12.6-4.9
		c-2.8-1.1-3.6-3.5-2.1-6.1c1.1-1.7,2.5-2.2,4.4-1.5c9.4,3.6,18.6,7.2,27.6,10.7c4.2,1.6,1.8,5.5,0.2,9.7L236.4,654.2L236.4,654.2z
		 M166.9,593.6c-2.2-1.4-3.6-2.5-5.3-1.8c-0.8,0.3-1.4,1-1.7,2.1c-0.7,2.3-2.1,6.6-4.1,13c-0.7,2.3,0.7,3,2.4,1.8l10.6-8.3
		c1.7-1.4,2-3.3,0.3-4.9C169.1,595.3,168.3,594.7,166.9,593.6L166.9,593.6z M163.3,567.6c2.6,1.4,3.2,3.7,2.7,6.3
		c0-0.2-0.3,1.1-1,3.9c-0.8,2.9,0,5.1,2.4,6.8c2.5,1.8,5.1,3.6,7.6,5.3c7.3,4.9,9.8-7.2,16.5-2.6c1.7,1.2,5,3,1.9,5.3
		c-0.9,0.7-3.7,2.7-8.5,6.2c-15.3,11.1-24.2,17.4-26.5,19.1c-2.3,1.7-5.3,1.8-7.6,0c0.1,0.1-0.4-0.3-1.6-1.1
		c-2.3-1.7-3.1-3.9-2.4-6.6l11.1-41.6c1-4.2,4.2-2.1,4.5-1.6C162.4,567,162.7,567.2,163.3,567.6L163.3,567.6z M123.7,538.8
		c1.6-1.7,3.1-2.7,5-1.4c3.5,2.3,5.4,5.2,4.5,9.4c-1.2,5.1-3.3,14.6-6.4,28.6c-0.4,1.7-0.9,3.2,0,3.9c0.7,0.6,1.9-0.6,2.5-1.3
		l17.9-19.1c2.6-2.3,4.8-0.2,6.6,1.9c1.5,1.8,0.7,3.6-0.7,5.1l-28.1,30c-1.3,1.1-3,1.2-4.3,0.1c-3-2.4-5-4.7-4.2-8.7l6.9-31.8
		c-0.1-1.2-0.9-1.6-1.8-1c-0.4,0.2-0.9,0.7-1.6,1.5c-9.4,10-14.8,15.8-16.4,17.5c-4.5,5-11-1.7-7-5.9L123.7,538.8L123.7,538.8z
		 M94.8,536l10-7.3c1.9-1.6,2.1-3.4,0.6-5.4c-4.1-5.7-8.3-11.1-16-8.7c-5.3,1.6-9.6,4.6-12.9,8.9c-3.2,4.1-3.4,8.5-0.9,13
		c0.6,1.1,1.7,2.8,3.2,5c1.7,2.5,4.3,2.9,6.7,1.1C88.3,540.7,91.4,538.5,94.8,536L94.8,536z M84.9,555.1c-2.4,1.7-4.3,2.5-6.3-0.2
		c-4.7-6.4-11.6-16.2-13.3-20.8c-4.5-12.1,7.5-23.7,18.1-27.9c10.8-4.4,20.1,0.8,26.6,9.8c4.2,5.9,6.8,9.4,7.6,10.4
		c1.5,2,1.2,4.4-0.9,5.9L84.9,555.1L84.9,555.1z M61.3,486.3c-10.1,4.7-16.1,7.4-18.1,8.3c-2.5,1.2-4.4,0.5-5.5-2.1
		c-4.1-8.8-7.6-16.5-10.6-23c-2.4-5.2,4.9-8.1,7-3.9l6.6,14.5c1,2.3,3.7,3.5,6.1,2.3c3-1.5,5.1-1.8,6-4.2c0.4-1.2,0.3-2.5-0.3-3.8
		c-0.5-1-2.1-4.5-4.9-10.6c-2.1-4.6,2.9-6.4,5-5.7c1.9,0.7,2.5,2.9,4.3,6.9c1.9,4.2,2.9,6.3,2.9,6.3c1.2,2.6,3.5,3.4,6.1,2.2
		c3.1-1.4,6.4-2.9,9.8-4.5c3.2-1.5,4.7,1.1,5.9,3.9c0.9,2.2,0.3,3.8-1.9,4.8C78.6,478.4,72.5,481.2,61.3,486.3L61.3,486.3z
		 M36.5,432.6C36.5,432.6,36.5,432.6,36.5,432.6c-2.1-6-2.7-10-7.6-9.8c-4,0.2-8,2-7.8,6.6c0.1,3.2,1.1,7,2.9,11.4
		c0.8,1.8,2.1,2.5,4.1,2.1c2.6-0.6,5-1.3,7.2-2.1c1.9-0.7,2.7-2.8,2.2-4.7C37.5,436,37.2,434.8,36.5,432.6L36.5,432.6z M37.7,420.9
		c0.6-3.7,1.2-6.1,4.2-8.5c3-2.4,6.5-5.1,10.6-8.2c3-2.2,3.8,2,4.4,4.3c1.2,4.5-2.3,6.1-6.5,9.2c-4.7,3.6-8,5.1-7.1,10.9
		c0.2,1.3,0.7,3.2,1.6,5.6c1,2.9,3.6,3.1,6.1,2.3c5-1.4,8-2.3,9-2.6c2.4-0.8,4.5,0.5,5,2.7c0.3,1.2,2,5.1-1.8,6.4l-39.7,11.4
		c-2.2,0.2-3.5-0.6-4.1-2.7c-3.3-11.5-5.2-18.2-5.7-20c-2.6-9.4,1.4-16.8,11.4-18.1c4-0.6,7.4,0.9,10.2,4.2
		C35.5,417.8,36.3,418.8,37.7,420.9L37.7,420.9z M10.4,403c-2.8,0.4-4.4-0.8-4.8-3.6c-1.2-9-2.3-18.1-3.5-27.1
		c-0.3-2.8,0.8-4.4,3.6-4.7c2.5-0.3,3.9,0.8,4.3,3.4l2.3,17.6c0.6,4.7,4.7,4.1,8,3.5c3.8-0.8,3.9-3.3,3.5-6.4
		c-1.1-8.5-1.7-13.2-1.9-14.2c-0.4-2.4,1-4.3,3.4-4.6c2.7-0.3,4.2,0.9,4.6,3.6l2,15.3c0.3,2.4,1.6,4.3,4.1,4.2
		c9.7-0.6,8.7-2.5,7.7-10.5c-1.2-9.4-1.8-13.9-1.7-13.4c-0.4-3,1.4-4.9,4.4-4.7c2,0.1,3.2,1.1,3.4,3.1c1.3,10,2.6,19.8,3.8,29.4
		c0.6,4.4-4,4.2-8.4,4.8L10.4,403L10.4,403z M4.2,352.4c-2.9-0.1-4.3-1.5-4.2-4.3c0.2-9.1,0.5-18.2,0.7-27.3
		c0.1-2.9,1.5-4.2,4.3-4.1c2.5,0.1,3.8,1.4,3.7,4l-0.4,17.7c-0.1,4.7,4,4.8,7.4,4.7c3.8-0.2,4.3-2.7,4.4-5.8
		c0.2-8.5,0.3-13.3,0.3-14.4c0-2.4,1.7-4.1,4-4c2.7,0.2,4,1.6,3.9,4.3l-0.4,15.4c-0.1,2.4,1,4.5,3.4,4.8c9.6,0.9,9-1.1,9.2-9.2
		c0.2-9.5,0.4-14,0.3-13.5c0.1-3,2.1-4.6,5.1-4c2,0.4,3,1.6,2.9,3.6c-0.3,10.1-0.5,19.9-0.8,29.6c-0.1,4.5-4.6,3.6-9,3.4L4.2,352.4
		L4.2,352.4z M654.4,263c6.9,0,12.4,5.6,12.4,12.4s-5.6,12.4-12.4,12.4s-12.4-5.6-12.4-12.4S647.6,263,654.4,263L654.4,263z
		 M39.4,209.1c1.8,1.1,0,4.8-0.9,6.3c-2.3,4-5,0.1-9.1,5.9c-2.8,4-4.7,11.9,0.7,13.5c6.1,1.8,9.6-10.3,17.9-17.5
		c5.9-5.2,14.6-1.5,17.9,3.5c1.6,2.5,2.3,5.6,2,9.2c-0.7,8.6-6,19.9-14.7,22.4c-2.7,0.8-5.3,0.7-8-0.1c-2-0.7-1.8-4.6-0.4-6.4
		c2.8-3.5,6.8-0.1,10.9-4.6c2.9-3.2,4.4-6.9,4.5-11.3c0.1-4.4-4.5-7.8-8.2-4.7c-3.9,3.3-8.9,11.9-13.1,15.9
		c-3.3,3.1-7.1,3.9-11.4,2.4c-12.9-4.6-8.8-21.1-2.1-29.3C28.9,210.1,34.2,207.8,39.4,209.1L39.4,209.1z M54.2,203l-17.6-10.3
		c-2.8-2.2-1.9-4-0.1-6.7c1.4-2.2,3.1-2.6,5.4-1.3c2.2,1.3,5.3,3.1,9.1,5.3c2.4,1.4,4.7,0.3,5.9-1.7c2.2-3.6,4.1-6.9,5.8-9.8
		c1.5-2.6,0.9-4.7-1.8-6.3c-4.6-2.7-7.5-4.4-8.8-5.1c-2.2-1.2-2.8-3.7-1.5-5.6c0.9-1.2,1.3-2.8,3.2-3.3c1.8-0.4,3,0.6,5.6,2.1
		l31.2,18.2c1.4,0.8,2.3,1.3,2.7,2.8c0.4,1.7-0.6,3-1.6,4.7c-1.2,1.9-2.9,2.4-4.9,1.3l-11.6-6.7c-2.1-1.1-4.6-0.5-5.9,1.6
		c-1.8,3.1-3.8,6.4-5.8,10c-1.4,2.4-0.7,4.7,1.6,6c3.1,1.8,6.8,4,11,6.4c4.7,2.7,0.2,8.3-1.7,8.9c-2,0.6-3.5-0.8-7.3-3L54.2,203
		L54.2,203z M64.4,147.7c-2.2-1.8-2.5-3.8-0.7-6c5.7-7.1,11.3-14.2,17-21.3c1.8-2.2,3.7-2.4,5.8-0.7c1.9,1.6,2.1,3.4,0.6,5.4L76,139
		c-2.8,3.6,0.1,6.1,3,8.1c3.2,2.2,5,0.5,7-2c5.3-6.6,8.3-10.4,8.9-11.2c1.5-1.9,3.8-2.2,5.6-0.7c2,1.7,2.2,3.7,0.6,5.8l-9.6,12
		c-1.5,1.9-2,4.2-0.2,5.8c7.1,6.5,7.8,4.5,12.8-1.7c5.9-7.4,8.7-10.9,8.4-10.5c1.9-2.3,4.5-2.4,6.4-0.1c1.3,1.5,1.4,3.1,0.1,4.6
		c-6.3,7.9-12.4,15.5-18.4,23c-2.8,3.5-5.8,0.1-9.2-2.7L64.4,147.7L64.4,147.7z M129.9,104c7.3,8.6,11.6,13.6,13,15.2
		c3.6,4.2-2.7,7.7-4.1,7.8c-1.7,0.1-2.5-0.8-3.6-2l-25.1-29.5c-2.7-3.2-1.9-4.7,1.4-7.3c2-1.5,3.7-1.3,5.3,0.5
		C117.9,90,122.3,95.1,129.9,104L129.9,104z M162.5,65.3c0.9,1.9-2.7,4-4.2,4.8c-4.1,2.1-4.3-2.6-10.8,0c-4.6,1.8-10.4,7.4-6.9,11.7
		c4.1,4.9,13.6-3.4,24.5-4.9c7.8-1.1,13,6.7,13,12.7c0,3-1.1,5.9-3.4,8.7c-5.3,6.8-15.9,13.4-24.6,10.7c-2.7-0.8-4.9-2.3-6.6-4.4
		c-1.3-1.7,1-4.8,3.2-5.5c4.2-1.4,5.8,3.6,11.6,2.1c4.2-1.1,7.5-3.4,10-7c2.5-3.7,0.5-9-4.3-8.4c-5.1,0.6-13.9,5.1-19.7,6.1
		c-4.5,0.8-8.1-0.7-10.8-4.2c-8.3-10.9,4.2-22.5,14.2-25.7C153.2,60.4,158.9,61.4,162.5,65.3L162.5,65.3z M215.6,55.8
		c2.4-1.2,4-1.8,4.3-3.5c0.1-0.8-0.2-1.7-0.9-2.5c-1.6-1.8-4.6-5.2-9-10.1c-1.6-1.8-3-0.9-2.7,1.1l1.6,13.3c0.3,2.2,1.8,3.4,4,2.8
		C213,56.8,213.9,56.4,215.6,55.8L215.6,55.8z M239.6,66.1c-2.5,1.5-4.8,0.8-6.8-0.9c0.1,0.1-0.8-0.9-2.8-2.9c-2-2.1-4.4-2.6-7-1.5
		c-2.9,1.2-5.7,2.5-8.5,3.8c-7.9,3.7,1.1,12-6.3,15.4c-1.9,0.9-5.1,2.7-5.5-1.1c-0.1-1.1-0.4-4.6-0.9-10.5
		c-1.6-18.8-2.5-29.6-2.7-32.4c-0.2-2.8,1.2-5.5,3.9-6.5c-0.1,0.1,0.5-0.2,1.8-0.8c2.6-1.1,4.9-0.7,6.9,1.4L241.6,61
		c3.1,3-0.4,4.7-0.9,4.6C240.7,65.6,240.3,65.8,239.6,66.1L239.6,66.1z M307,49.9c-2.7,0.4-4.6-0.7-5.6-3.2
		c-6.3-14.9-11.5-27.8-12.5-29c-0.5-0.6-1.2-0.4-1.4,0.3c-0.4,1.2-1.1,18.1-1.7,29.1c-0.2,3.5,0.1,6.3-3.9,7.2
		c-3.2,0.7-6.8,1.5-8.6-2.7l-16.8-38.2c-1-3.3,1.5-3.6,4.2-4c2.4-0.4,4.1,0.6,5,2.8l11,28.5c1.2,3,2.4,2.8,2.6-0.4L281,10
		c0.1-2.5,1.9-4.7,4.4-4.9c-0.2,0,0.3-0.1,1.5-0.3c2.5-0.4,4.2,0.5,5.2,2.8c0.5,1.2,2.1,4.7,4.6,10.7c5.3,12.4,7.8,18.2,7.5,17.6
		c1.2,2.9,2.5,2.8,2.6-0.6c0.5-15.7,0.8-25.8,0.9-30.1c0.1-2.4,1.6-4.5,4.2-4.9c1.1-0.1,4.6-1.2,4.5,2.3c0,0.7-0.1,2.3-0.2,4.7
		c-1.1,16.2-1.9,28.4-2.4,36.6C313.5,48.9,311.1,49.2,307,49.9L307,49.9z M340.1,24.3c0.3,11.2,0.5,17.9,0.5,20
		c0.2,5.6-6.9,4.3-8.1,3.5c-1.4-1-1.5-2.1-1.5-3.8l-1-38.7c-0.1-4.2,1.5-4.9,5.7-4.8c2.5,0.1,3.7,1.3,3.8,3.7
		C339.6,5.9,339.8,12.6,340.1,24.3L340.1,24.3z M351.3,23.8c0.9-11.8,1.4-18.4,1.4-19.8c0.2-4.1,3.3-4.4,6.5-3.8
		c3.2,0.6,3.3,2.6,3.1,5.3c-1.4,19.3-2.2,29.3-2.3,30.3c-0.3,3.9,2,4.9,5.3,5.1l13.1,1c2.4,0.5,3.3,2.7,2.6,5.5
		c-0.5,1.8-1.8,2.6-3.8,2.5c-7.6-0.6-15.6-1.2-23.9-1.8c-2.5-0.2-3.7-1.6-3.5-4.1L351.3,23.8L351.3,23.8z M401.8,29.4l-2.7,12
		c-0.4,2.5,0.7,4,3.1,4.4c6.8,1.6,13.5,2.8,17.7-4.1c2.9-4.7,4.1-9.7,3.8-15.2c-0.6-8.6-6.6-10.1-13.7-11.9
		c-2.9-0.7-5.1,0.7-5.7,3.6C403.6,21.5,402.8,25.2,401.8,29.4L401.8,29.4z M396.7,8.6c0.6-2.7,1.5-4.7,4.8-4
		c7.8,1.7,19.3,4.5,23.6,6.8c11.4,6.1,10,22.6,4.8,32.8c-5.2,10.4-15.6,12.6-26.3,10.2c-7-1.6-11.2-2.6-12.5-2.8
		c-2.5-0.5-3.8-2.5-3.2-5L396.7,8.6L396.7,8.6z M441.8,39.2c4-10.3,6.4-16.5,7.2-18.5c1-2.6,2.8-3.3,5.4-2.3
		c9,3.5,16.8,6.5,23.5,9.1c5.3,2.1,2.2,9.2-2.3,7.6l-14.8-5.8c-2.3-1-5.1,0-6,2.6c-1.1,3.1-2.4,4.8-1.4,7.1c0.5,1.2,1.5,2,2.8,2.5
		c1,0.4,4.7,1.8,10.9,4.2c4.7,1.8,2.4,6.6,0.3,7.5c-1.8,0.8-3.8-0.4-7.9-1.9c-4.3-1.7-6.5-2.5-6.4-2.5c-2.7-1-4.9,0-5.9,2.6
		c-1.2,3.1-2.5,6.5-3.9,10c-1.2,3.3-4.1,2.5-6.9,1.3c-2.2-0.9-2.9-2.5-2-4.7C434.9,56.9,437.4,50.6,441.8,39.2L441.8,39.2z
		 M481.2,54.2c5.8-10.3,9.1-16.1,9.7-17.3c2-3.6,4.9-2.5,7.5-0.7c2.7,1.9,1.8,3.8,0.5,6.1C489.5,59.2,484.5,68,484,68.8
		c-1.9,3.4-0.3,5.3,2.6,6.9l11.4,6.5c1.9,1.5,1.9,3.9,0,6.1c-1.2,1.4-2.7,1.6-4.5,0.6c-6.7-3.8-13.6-7.7-20.9-11.8
		c-2.2-1.2-2.7-3-1.4-5.3L481.2,54.2L481.2,54.2z M525.1,79.6c-4.4,5.7-7,12.2-3.8,18.1c1.2,2.1,2.9,3.7,5.2,4.8
		c11.4,5.6,24-10.2,22.3-19.9C547,72.5,533.9,68.4,525.1,79.6L525.1,79.6z M516.6,74.9c7-9.4,17.8-13.9,28.7-8.2
		c9.4,4.9,15.1,14.7,11.8,25.4c-2.3,7.6-6.8,13.3-13.5,17.2c-6.8,4-13.7,4-20.8-0.1c-9.6-5.4-14.6-15.6-10.5-26.7
		C513.3,79.6,514.8,77.1,516.6,74.9L516.6,74.9z M572.1,157c-1.7-2.1-1.8-4.2-0.2-6.5c9.4-13.2,17.8-24.3,18.3-25.8
		c0.3-0.7-0.3-1.3-1-1.1c-1.3,0.3-16,8.5-25.7,13.8c-3.1,1.7-5.3,3.4-8.2,0.4c-2.3-2.4-4.8-5-2.2-8.8L577,94.9
		c2.3-2.6,3.8-0.6,5.6,1.5c1.6,1.9,1.6,3.8,0.2,5.7l-18.6,24.2c-1.9,2.5-1.1,3.5,1.7,2l26.8-14.4c2.2-1.3,5-0.9,6.5,1.2
		c-0.1-0.1,0.2,0.2,1,1.2c1.6,1.9,1.7,3.9,0.3,5.9c-0.7,1.1-3,4.2-6.7,9.5c-7.8,10.9-11.5,16.1-11.1,15.6c-1.8,2.5-1.1,3.6,1.9,1.9
		c13.7-7.8,22.4-12.7,26.1-14.9c2.1-1.2,4.7-1,6.3,1c0.7,0.9,3.4,3.3,0.4,5.1c-0.6,0.4-2,1.1-4.2,2.3c-14.4,7.5-25.2,13.2-32.5,17
		C576.4,162,574.9,160.2,572.1,157L572.1,157z M624.8,154.3c2.5-1.4,4.4-1,5.8,1.5c4.6,7.8,9.2,15.7,13.7,23.5
		c1.4,2.5,0.9,4.4-1.4,5.7c-2.2,1.2-3.9,0.8-5.2-1.4l-8.9-15.2c-2.4-4-5.9-2-8.7-0.1c-3.2,2.2-2.3,4.5-0.7,7.2
		c4.3,7.3,6.7,11.4,7.2,12.3c1.3,2.1,0.7,4.4-1.3,5.5c-2.4,1.3-4.2,0.8-5.6-1.5l-7.8-13.3c-1.2-2.1-3.2-3.3-5.4-2.3
		c-8.6,4.3-7,5.7-3,12.6c4.8,8.2,7,12,6.8,11.7c1.5,2.6,0.6,5-2.2,6c-1.9,0.7-3.4,0.2-4.4-1.5c-5.1-8.7-10-17.2-14.9-25.4
		c-2.2-3.8,2-5.4,5.8-7.7L624.8,154.3L624.8,154.3z M640.1,220.8C640.2,220.8,640.1,220.8,640.1,220.8c2.7,5.8,3.6,9.7,8.5,9
		c3.9-0.6,7.7-2.8,7-7.3c-0.4-3.1-1.8-6.8-4-11c-0.9-1.7-2.3-2.3-4.2-1.7c-2.5,0.8-4.8,1.7-7,2.8c-1.8,0.9-2.4,3-1.7,4.9
		C638.8,217.6,639.3,218.7,640.1,220.8L640.1,220.8z M640.1,232.5c-0.3,3.7-0.6,6.2-3.3,8.9c-2.7,2.7-5.9,5.7-9.7,9.2
		c-2.8,2.6-4-1.7-4.8-3.8c-1.6-4.4,1.7-6.2,5.5-9.8c4.3-4,7.5-5.8,5.9-11.5c-0.3-1.3-1-3.1-2.1-5.4c-1.2-2.7-3.8-2.7-6.3-1.7
		c-4.8,1.9-7.7,3.1-8.7,3.5c-2.3,1-4.5-0.1-5.2-2.2c-0.4-1.2-2.5-4.9,1.2-6.5l38.2-15.3c2.1-0.4,3.6,0.3,4.4,2.3
		c4.4,11.1,6.9,17.5,7.6,19.3c3.5,9.1,0.3,16.8-9.5,19.1c-3.9,0.9-7.4-0.1-10.5-3.2C642.6,235.4,641.8,234.4,640.1,232.5
		L640.1,232.5z M25.6,267.3c6.9,0,12.4,5.6,12.4,12.4c0,6.9-5.6,12.4-12.4,12.4c-6.9,0-12.4-5.6-12.4-12.4
		C13.2,272.9,18.8,267.3,25.6,267.3L25.6,267.3z"/>
	<path class="st1" d="M248.8,241.2c-20.1-25.4-45.2-47.3-75.7-55.7c-7.1-16.1-10.4-34.7-9.7-55.7c14.7,3.2,27.9,8.6,39.5,16.3
		c0.3,2.1,0.5,4.2,0.8,6.3c4.4,35.7,24.8,62.9,50.9,84.6L248.8,241.2L248.8,241.2z M403.4,604.5c25.3-28.7,22.5-101.9-0.5-149.3
		c-3.3,1.8-6.9,4.5-9.3,6.1c-6.1,4.2-8.5,9.4-19.2,9.2c-8-0.2-14.6,2.2-21.1-0.3c-5.5-2.1-3.7-4.9-13.5-0.1
		c-2.8,27.1,8.3,58.6,34,94.6C382.1,576.4,392,582.7,403.4,604.5L403.4,604.5z M65,322c20.9,32.2,92.7,49.1,144.6,39.4
		c1.9-6.5,7.5-8.7,5-13.5c-2-3.8-3.1-5.8-4.3-9.9c-0.7-2.4-1.3-4.4-2.5-6.6c-1.6-2.3-3.1-4.4-3.2-7.4c-0.3-6.8,8.8-13.2,8.7-15.3
		c0-1.1-3.4-5.6-0.2-11.5c-25.5-10.7-59.3-8.6-101.7,6.8C97.7,309,89,316.8,65,322L65,322z M510.8,548
		c12.7-44.8-21.2-110.5-69.2-119.9c-5.5,8.8-9.2,4.5-14.1,13.9c-0.9,1.7-1.8,3.3-3,4.8C433,511,472.1,537.5,510.8,548L510.8,548z
		 M103.4,435.5c36.9,22.5,102.1,11.1,128.7-25.7c-1.9-2.6-3.8-5.1-6-7.4c-9.6-9.9-7-11.8-7-22.2c0-0.6,0-1-0.2-1.4
		C158,372,123.4,401.9,103.4,435.5L103.4,435.5z M368.9,210c-8.2-49.1,41-124.9,81.3-122.5c-14.2,11.8-7.1,47.6-12.3,61.8
		c-11.2,30.5-25.1,51.3-45.6,66.9C385.3,208.1,378.9,207.8,368.9,210L368.9,210z M466.3,384.2c47.1-9.2,117.7,39.6,111.5,80.7
		c-15.4-8.1-32.9-11.3-47.4-15.6c-33-9.8-55.4-23.4-72.6-44.9c0.8-4.1,1.2-3.6,4.1-6.5C465.4,394.2,467.3,389.1,466.3,384.2
		L466.3,384.2z M260.3,442.8c-4.8,47.5-69.9,101.4-107.5,84.6c11.9-12.6,19.7-28.7,27.7-41.5c19.1-30.4,39-48.6,66-59.2
		C250.4,432.4,248.3,440.1,260.3,442.8L260.3,442.8z M270.5,603.1c-34.5-45.7-31.6-96.2,8.5-151.4c9.9,7.9,20.4,6.3,21.3,6.9
		c1.8,2.3,3.3,3.6,6.5,4.2c9.7,2,9.7,4.7,15.7,8.4c0.8,31.9-5.6,63.5-27.8,89.2C284.4,572.2,273.1,585,270.5,603.1L270.5,603.1z
		 M101.9,194.3c53.6-21.1,101.8-4.5,144.4,49.7c-3.6,5.6-0.6,10.9-1.2,12.2c-1,2.6-11.1,8-12.9,14.5c-1,3.6-0.6,5.7-4.5,11.7
		c-35.6-6.8-69.7-21.3-91.1-53.4C127.9,216,118.6,201.7,101.9,194.3L101.9,194.3z M594.4,229.7c-14.6,52.8-53.4,81.1-116.3,85.2
		c-4.2-7-4.1-1.8-8.3-15c-1-3-2-5.7-3.5-8.4c-3.7-7-6.4-17.6-9.2-21.8c25-20.5,54.2-35.1,88.6-33.1
		C561.5,237.4,578.5,238.6,594.4,229.7L594.4,229.7z M191.9,105.4c58.1,5.3,93.9,42.5,107.3,111.7c-4.3,0.3-12.7-3.9-19.5,2.8
		c-4,3.9-3.5,7.7-7.8,8.4c-7.3,1.3-9.2,1.9-14.5,6.4C232,213.6,211.6,187,207.4,152C205.4,136.4,203.5,119.4,191.9,105.4
		L191.9,105.4z M355.1,205.4c19.5-42.7,13.3-90.3-17.3-143.7c-47.8,40.9-56.9,91.2-27.4,150.8c10.2-4.5,9.2-6,19.7-5.4
		C335.2,207.5,343.2,196,355.1,205.4L355.1,205.4z M529,133.4c-37.3-7.5-77.5,23.9-120.7,94.3c2.7,0.5,9.9-1.6,14.8,3.5
		c2.3,2.4,2.9,5.3,4.8,7.9c2.6,3.4,9.7,6.2,15.1,13.3c38.6-12.9,66.5-36.7,73.6-72.6C520.1,162.9,520.1,151.8,529,133.4L529,133.4z
		 M478.4,335.8c51.7-20.7,96.3-11.1,133.7,28.9c-40.6,26-86.1,24.4-136.7-4.9C476.9,351.3,477.2,344,478.4,335.8L478.4,335.8z
		 M318,604.7c-7.3-16.6-12.7-32.3-16.5-46.9c19.2-25,25.2-54.6,24.7-84.9c3.5,1.1,6.3,0.5,9.6-1c-1.6,21.1,5,42.9,15.8,64
		C347.3,559.4,336,582.3,318,604.7L318,604.7z M79.8,241.2c21.8-3.1,41.4-4,58.9-2.9c21.5,27.4,52.9,40.8,86.2,47.4
		c-3.6,3-5.9,3.6-9.7,8.4c-24-10.3-51.9-8.3-77.8-1.9C115.8,281.7,96.6,264.7,79.8,241.2L79.8,241.2z M457,575.4
		c-12.2-9.9-22.9-19.7-32.1-29.4c1-29.6-5.2-64.5-18.6-92.4c4.7-1.7,10.1-0.2,15-3.6c4.7,31.5,17.2,57.6,39,76.4
		C461.5,541.6,460.4,558,457,575.4L457,575.4z M70.9,382.9c14.6-10.4,28.5-18.9,41.8-25.5c0.2,0,46,16.7,96.3,7.8
		c0.1,3.8,1.9,7.1,4.8,9.4c-33.1-2.5-62.7,5.4-86.6,26.2C108.9,398.7,90.1,392.7,70.9,382.9L70.9,382.9z M456.4,408.4
		c18.8,22.6,42.4,35.2,72.5,44.2c4.6,12.4,4.2,22.7,11.5,39.1c-10.8,1.1-20.8,0.7-30.1-1.1c-10.8-29.7-34.9-59.2-66.9-66l2.4-5.6
		C447.8,415.5,453.4,414.5,456.4,408.4L456.4,408.4z M240.1,419.9c-0.6,2.2-1.2,4.3-1.9,6.4c-26.2,12.2-44.4,31.5-60.9,57.9
		c-17.5,3.4-27.4-1.5-48.3,1.6c2.4-13.6,6.6-25.3,12.7-35.3c34.5,2.3,73-11.3,92.6-37.6L240.1,419.9L240.1,419.9z M474.6,363.6
		c32.6,18.6,67.4,28.4,102.3,20.2c7.3,7.6,13.4,16.3,18.1,25.8c-14.3-0.6-19.1,4.1-28.6,6.3c-1.7,0.4-3.5,0.8-5.2,1.2
		c-22.6-23.3-63.2-43-95.7-36.5l-0.4-0.6C470.7,373.6,472.6,371.8,474.6,363.6L474.6,363.6z M606.2,300.5
		c-10,12.8-20.2,23.5-30.5,31.9c-31.4-15.5-64.4-13.3-96.6-0.8c0.9-4.7,1.8-8.5,0.5-13.1c32-2.2,63.9-11.2,87.5-33.8
		C579.5,288.3,592.5,293.6,606.2,300.5L606.2,300.5z M445.3,255.5c38-12.9,67.8-36.8,75.3-76.8c14.4-2.1,29,0.1,43.7,6.6
		c-5.4,18.6-13.1,34.4-23.1,47.4c-33-0.5-61.6,13.7-86.7,34.2c-4-3-3.2-0.7-6.6-6.9C447.2,258.5,446.3,257,445.3,255.5L445.3,255.5z
		 M267.6,69.1c13.1,10.9,24,22,32.7,33.4c-17.9,36.7-10.9,75.8,6.8,111.6l-4.3,2.1c-7.2-37.1-21.9-70.7-49.4-91.9
		C255.2,107.5,260,89.1,267.6,69.1L267.6,69.1z M188.2,569c16.8,0.2,36.5-9.3,55.1-24c-2.8-34.6,12.3-67.5,33-95.9
		c-1.1-1-4.7-1.9-8.4-4c-1.4-0.8-2.4-1.3-3.8-1.6c-3.6,34-35.8,69.2-66.3,83.4C195.8,538.4,195.8,549.8,188.2,569L188.2,569z
		 M405.6,61.5c-16.1,5-32,20.2-45.2,40.2c7.5,21.3,11.3,43.8,8.8,66.4c7.2-24.1,21.8-48.9,40-65.7C407.4,91.6,404.4,80.9,405.6,61.5
		L405.6,61.5z M365.3,210.8c-1.1-6.6-1.2-13.6-0.6-20.6c-1.8,6.1-4.1,12-6.7,17.7C360.6,210.3,361.9,211.4,365.3,210.8L365.3,210.8z
		 M405.5,225.3c13.9-22.6,30.8-46.7,49.7-65.1c5.8-5.6,12.1-11,18.8-15.8c4.5-21.4,3.1-40.2-6.4-50.5c-7.6,2.1-15,5.8-21.9,10.9
		c-2.7,14.8-0.4,35.2-4.3,45.8c-10.5,28.6-23.9,50.8-46.1,67.9C400.5,220.9,402.1,221.8,405.5,225.3L405.5,225.3z"/>
	<path class="st2" d="M293.4,451.3c-11.8-2.8-10.3-7.3-17.5-9.6c-5-1.5-5.8-3.8-12.2-4.9c-8.8-1.5-7-3.3-10-10.4
		c-2.7-6.4-7-8.3-11-13.4c-3.3-4.3-8.9-12-12-15.2c-7.6-7.8-5.2-7.6-5.1-17.6c-0.1-9.3-8.9-8.3-10-14.3c-1.1-6.2,10.1-10.7,4.7-21
		c-1.8-3.5-2.7-4.8-3.9-8.7c-1-3.2-1.6-5.2-3.3-8.1c-2.7-4-3.2-4.3,0.3-8.7c2.5-3.2,7.3-7.7,6-12.1c-1.4-4.4-2.6-4.8,0.7-8.9
		c5.4-6.8,9.5-5.1,14.8-15.4c6.1-11.8,0.2-8.8,8.1-15.7c7.2-6.3,9.8-7.7,8.2-15c-1.2-5.6,3-6.7,7.1-9.8c7.1-5.3,5.2-5.9,14.6-7.6
		c11.7-2.1,6.8-14.1,19.4-11.9c11.3,2,11-0.2,20.3-4.2c3.4-1.4,9.3-5,12.4-5.1c4.5-0.3,5,1.2,10.3-1.1c9-3.9,10-7.3,18.2,0.5
		c9.2,8.8,13.9,2.4,24.6,2.5c7.9,0.4,8.2,6.3,13.6,8.8c6.3,2.9,6.1,2.7,10.5,7.5c2.6,2.8,5.4,2.6,9.1,2.6c9-0.5,6.7,2.9,11.1,8.8
		c4,5.4,9.6,5.8,16.6,15.2c2.6,3.6,4.8,9.5,8,11.8c4.1,2.9,3.7,1.2,6,6.5c2.1,5.7,4.6,12.7,7.3,18c2.9,5.5,3.1,8.4,5.2,13.8
		c3.8,9.7,10.2,7.7,7.3,20.5c-2.3,10.3-2.9,31.1-6.6,39c-1.5,2.9-4.6,5.9-6.8,8.4c-4.5,5,1.7,6.2,0.2,12.9
		c-1.6,5.7-6.8,5.2-8.3,13.5c-1.3,7.4-7.3,6.5-11.4,13.3c-0.9,1.7-1.7,3.7-2.4,5.5c-4.9,11.4-9.2,4.6-16,17.6
		c-4.7,9-6.8,5.6-15.8,7.8c-5.2,1.2-11.5,5.9-16,9c-6.3,4.3-7.4,8.2-15.4,8c-5.2-0.1-7.2,0.3-12.2,0.8c-12.5,1.3-7.8-8-23.1-1.6
		c-8.9,3.7-8.8,6.6-17.2-0.4c-4.3-3.5-8.5-5.1-13.9-6.3c-4.5-0.9-0.6-4.3-10.5-4.6C296,451.7,295.1,451.6,293.4,451.3L293.4,451.3z
		 M294.1,340.4c-2.3,4.1-8.5,0.7-6.3-3.4C290.1,332.9,296.4,336.3,294.1,340.4L294.1,340.4z M286,355.2c-2.8,5.2-10.7,0.8-7.8-4.3
		C281,345.8,288.8,350.1,286,355.2L286,355.2z M282.9,330c-2.8,5.2-10.7,0.8-7.8-4.3C277.9,320.5,285.8,324.8,282.9,330L282.9,330z
		 M292.8,311.3c-2.8,5.2-10.7,0.8-7.8-4.3C287.8,301.8,295.6,306.1,292.8,311.3L292.8,311.3z M307.8,295.3
		c-2.8,5.2-10.7,0.8-7.8-4.3C302.8,285.8,310.6,290.1,307.8,295.3L307.8,295.3z M327.6,289.5c-2.8,5.2-10.7,0.9-7.8-4.3
		C322.5,280,330.4,284.3,327.6,289.5L327.6,289.5z"/>
</g>
</svg>
