<?xml version="1.0" encoding="utf-8"?>
<!-- Generator: Adobe Illustrator 21.1.0, SVG Export Plug-In . SVG Version: 6.00 Build 0)  -->
<svg version="1.1" id="Layer_1" xmlns="http://www.w3.org/2000/svg" xmlns:xlink="http://www.w3.org/1999/xlink" x="0px" y="0px"
	 viewBox="0 0 598.3 720" style="enable-background:new 0 0 598.3 720;" xml:space="preserve">
<style type="text/css">
	.st0{fill:#73CDD5;}
	.st1{fill:#F3DF1D;}
</style>
<g>
	<path class="st0" d="M213.7,711.5c24.1-21.5,41.1-71.3,41.1-103.6c0-19-4.4-34.5-13.1-46.5c-1-1.2-2.2-2.1-3.7-2.7
		c-1.8-0.8-4.8-1.9-9.1-3.3c-6-4.7-11.5-7.3-16.6-7.7c-14.4-1-26.4,3.9-36.1,14.6c-9.7,10.7-16.7,25.7-21,44.9
		c-2.1,8.3-3.3,14.2-3.5,17.6l-2.1,29.1c-0.4,6.2,0.3,15.5,2.1,27.8c1.4,10.5,7,20.2,16.8,25.5l18.3,10.2c1,0.6,2.4,0.8,4.4,0.8
		c3.2,0.3,7.1-0.3,11.8-1.7C207.6,715.3,211.2,713.6,213.7,711.5L213.7,711.5z M224,613.5c-1,14-3.3,26.4-7.1,37.4l-7.7,19.3
		c-2.2,5.5-5.2,11-8.9,16.3c-3.7,5.3-7.1,7.9-10.2,7.6l-4.4-0.2c-3.5-8.6-5.2-17.9-5.2-27.8c0-2.1,0.3-8.3,1-18.7
		c1.8-26.7,8.7-49.4,20.8-68.1c4.4-7.3,8.5-11,12.2-11C227,568.3,225.1,598.2,224,613.5L224,613.5z M392.8,560.4
		c0-2.4-0.5-3.9-1.5-4.8c-2.1-0.8-4.2-1.4-6.2-1.7c-7.9-1.1-19-2.7-23.5,1.5c-1.9,1.8-2.9,3.8-2.9,6v13.3c0,8.4-1.7,21.8-5,40.1
		c-3.5,18.1-7.4,33.6-11.9,46.3c-4.5,12.7-10.1,23.2-16.9,31.6c-5,6.4-9.8,9.5-14.5,9.5c-8.4,0-12.7-10.2-12.7-30.5
		c0-22.1,5.1-51.8,15.4-88.8l5.2-19.1c0-1-0.2-1.9-0.6-2.9c-1.1-2.6-20.7-13.9-24.1-13.9c-7,0-14.2,33.1-15.6,39.6
		c-7.9,36.9-11.8,62.6-11.8,77c0,18.7,6.2,32.7,18.7,42.1c5.8,3.2,10,5.2,12.7,6c3.5,1.7,6.7,3,9.8,4l15.2,4.3h7.1
		c10.5,0,18.8-2.9,24.7-8.7c3.2-2.6,5.7-5.7,7.5-9.3c14.8-26.4,24.6-63.9,29.3-112.5C392.2,577.1,392.8,567.4,392.8,560.4
		L392.8,560.4z M510.7,575.5c0-1.2-0.5-4.5-1.5-9.8c-0.8-3.7-1-9.5-2.6-13.3c-0.6-1.5-1.9-2.7-3.7-3.4s-4.9-1.1-9-1.1l-24.7,1.9
		c-20.9,1.9-35.8,3.5-44.6,4.8c-8.9,1.2-14.8,3-17.9,5.2l2.4,20.2c0.4,3.8,1.8,10.8,6.1,10.5l10.6-1.7c7.5-1.1,12-1.7,13.7-1.7v1.2
		c-1.8,9.3-3.4,18.8-4.8,28.6l-10.6,84.3c0,3.7,0.7,6.1,2.1,7.1c2.1,1.9,6,3.9,11.6,5.9c5.7,2,10.4,3,14.1,3c3,0,4.8-0.7,5.2-2.1
		c1.1-5.8,1.5-9.9,1.2-12.2l1.9-30.7c0.1-1.4,0.3-4,0.5-8c0.2-3.9,0.8-9,1.8-15c2.2-16.2,3.8-26.9,4.8-32.2
		c3.2-17.4,6.1-28.7,8.7-33.8l6.9-0.6h17.6C507.3,582.6,510.7,580.2,510.7,575.5L510.7,575.5z M197.8,466.1c0-0.1-1-1.6-2.9-4.4
		c-0.2-0.6,0.2-5-2.3-6.9c-6.8-5.1-14.7-7.7-23.9-7.7c-4.6,0-7.6,0.6-9.1,1.7c-1.4,1.2-3.9,1.9-7.5,1.9l-11.8-0.6
		c-6.9,0-10.4,2.1-10.4,6.2c0,2.5,1.2,4.5,3.7,6.1c2.5,1.6,6.2,3.4,11,5.5c3.3,1.8,5,3,5,3.7c0,11-22.7,38-34.9,37.2
		c-1-1.4-1.6-3-1.9-5c-5-36.5,7.4-69.7,36.5-101.3h1.2c0.7,0.7,1,1.3,1,1.9c0,1.2-0.1,4.4-0.4,9.3c-0.3,4.9-1.9,11.7,2,14.7
		c1.7,1.4,5,2.1,9.9,2.1l17.9-0.4c2.8-0.1,4.7-1.2,5.8-3.1c1-1.8,1.5-8.4,1.5-19.7c0-11.5-2.4-21.4-7.3-29.8
		c-4.8-8.4-12.4-12.6-22.6-12.6c-3.5,0-7.8,1-12.9,3c-1.4,8.5-6,15.3-12,21.5c-1.1,1.2-2.5,1.7-4.1,1.6c-1.6-0.1-2.9-0.9-3.8-2.3
		c-0.8-1.2-1.5-2.3-2.1-3.6c-2.3,2.6-4.3,5.1-6.2,7.3c-10.1,13.4-18.6,30.1-25.6,50c-7,19.9-10.5,38-10.5,54.2
		c0,21.7,6.8,34,20.3,36.9l17.6,0.6c11.5,0,22-3.5,31.6-10.6c0.4,3.5,0.6,6.1,0.6,7.9c2.6,2.6,6.6,4.2,11.8,4.8
		c5.3,0.6,11.6,0.8,18.9,0.8c1.1,0,1.8-0.6,2.1-1.7c0.6-5.4,0.8-10.1,0.8-14.1c1.2-10.8,3.3-23.4,6.2-37.8
		c1.4-6.4,2.4-10.1,5.2-14.5C197.3,467.7,197.8,466.6,197.8,466.1L197.8,466.1z M339.4,378.1c0-2.4-0.5-3.9-1.5-4.8
		c-2.1-0.8-4.2-1.4-6.2-1.7c-7.9-1.1-19-2.7-23.5,1.5c-1.9,1.8-2.9,3.8-2.9,6v13.3c0,8.4-1.7,21.8-5,40.1
		c-3.5,18.1-7.4,33.6-11.9,46.3c-4.5,12.7-10.1,23.2-16.9,31.6c-5,6.4-9.8,9.5-14.5,9.5c-8.4,0-12.7-10.2-12.7-30.5
		c0-22.1,5.1-51.8,15.4-88.8l5.2-19.1c0-1-0.2-1.9-0.6-2.9c-1.1-2.6-20.7-13.9-24.1-13.9c-7,0-14.2,33.1-15.6,39.6
		c-7.9,36.9-11.8,62.6-11.8,77c0,18.7,6.2,32.7,18.7,42.1c5.8,3.2,10,5.2,12.7,6c3.5,1.7,6.7,3,9.8,4l15.2,4.3h7.1
		c10.5,0,18.8-2.9,24.7-8.7c3.2-2.6,5.7-5.7,7.5-9.3c14.8-26.4,24.6-63.9,29.3-112.5C338.7,394.8,339.4,385.1,339.4,378.1
		L339.4,378.1z M469.9,382c0-1.4-0.1-2.2-0.2-2.5c-0.6-1.5-3.3-3.2-8.1-5.1c-4.8-1.9-8.9-2.8-12.2-2.8c-4.2,0-6.6,0.8-7.5,2.5
		c-3.3,7.3-6,16-8.1,25.9l-1,6.4c-3.9,23-6.1,36.5-6.6,40.5l-0.6,0.8c-4.8-16.6-15.4-52.5-13.3-64.1c0.9-5.2,0.3-10-3.8-12.1
		c-6.3-3.2-13.9-2.8-21.1-3.4c-2.5-0.3-5.5-1.1-8.5-1.2c-5.4,0-8.9,1.3-10.6,3.9c-10.5,16.8-20.1,72.4-22.6,96.1
		c-1.2,11.8-2.3,22.9-3.2,33.3c-0.9,10.4-1.4,17.2-1.6,20.2c0,6.8,5.7,11.6,17.2,14.3c7.3,1.8,11.4,2.7,12.2,2.7
		c2.8,0,5.6-2.6,5.6-5.4c0-19.9-0.7-24.7,2.5-48c1.5-11.2,7-48,10.8-54.8c5.8,23.2,13.5,55.8,20.6,76.6c3.2,9.4,5.8,15.4,7.9,17.9
		c2.4,1.2,4.3,2,5.8,2.3c1.2,1.1,2.1,1.9,2.5,2.5c3.2,1.1,6.9,2,11.1,2.6s6.9,0.9,8,0.9c4.4,0,6.9-0.8,7.5-2.5v-38
		c0-14.8,2.9-38.1,8.7-69.7L469.9,382L469.9,382z M578.7,410l-2.3-12.7c-4.3-20.9-26.3-31.6-46.1-31.6c-4.8,0-11,1.9-18.5,5.6
		c-17.9,8.9-26.8,22.6-26.8,41.1c0,17.4,6.4,27.5,23.5,33.4c4.9,1.7,10,3,12,2.3c0.4-0.1,0.9-0.2,1.5-0.2c13.7,0,20.6,6.8,20.6,20.3
		c0,13.1-5.7,26-17,38.6c-2.5,2.6-9.9,7.5-13.7,7.5c-4.4,0-6.4-10.2-6.4-13.9V481c0-1.7-1.2-2.6-3.5-2.9l-23.5-1.7l-7.5,1.7
		c0,8.9-0.6,7.7,2.5,21c2.5,11.2,7.4,20,14.8,26.3c34.1,29,87.5-14.1,87.5-52.8c0-10-2.5-18-7.6-24c-5.1-6-13.5-10.2-25.4-12.6
		c-2.1-0.7-11.9-0.3-15.2-2.7c-5.5-4.2-8.3-11.3-8.3-21.6c0-3.7,1.1-8.7,3.3-14.9c3.5-9.8,19.8-25.5,22-2.3c0.6,6.5,1,11.6,1.5,15.4
		c0.7,1.7,4.2,3,10.4,4.2c6.2,1.1,11.7,1.7,16.4,1.7C576.8,415.6,578.7,413.8,578.7,410L578.7,410z M301.3,346.9
		c24.1-21.5,41.1-71.3,41.1-103.6c0-19-4.4-34.5-13.1-46.5c-1-1.2-2.2-2.1-3.7-2.7c-1.8-0.8-4.8-1.9-9.1-3.3
		c-6-4.7-11.5-7.3-16.6-7.7c-14.4-1-26.4,3.9-36.1,14.6c-9.7,10.7-16.7,25.7-21,44.9c-1.3,5-2.2,9.1-2.8,12.4
		c2.2,0.8,4.5,1.7,6.8,2.6c1.5,0.6,2.6,1.8,3,3.4c0.4,1.6,0.2,3.1-0.8,4.4c-2.9,3.9-6.6,7-10.8,9.2l-1.1,14.8
		c-0.4,6.2,0.3,15.5,2.1,27.8c1.4,10.5,7,20.2,16.8,25.5l18.3,10.2c1,0.6,2.4,0.8,4.4,0.8c3.2,0.3,7.1-0.3,11.8-1.7
		C295.2,350.7,298.8,349,301.3,346.9L301.3,346.9z M311.6,248.9c-1,14-3.3,26.4-7.1,37.4l-7.7,19.3c-2.2,5.5-5.2,11-8.9,16.3
		c-3.7,5.3-7.1,7.9-10.2,7.6l-4.4-0.2c-3.5-8.6-5.2-17.9-5.2-27.8c0-2.1,0.3-8.3,1-18.7c1.8-26.7,8.7-49.4,20.8-68.1
		c4.4-7.3,8.5-11,12.2-11C314.6,203.7,312.7,233.6,311.6,248.9L311.6,248.9z M480.4,195.8c0-2.4-0.5-3.9-1.5-4.8
		c-2.1-0.8-4.2-1.4-6.2-1.7c-7.9-1.1-19-2.7-23.5,1.5c-1.9,1.8-2.9,3.8-2.9,6v13.3c0,8.4-1.7,21.8-5,40.1
		c-3.5,18.1-7.4,33.6-11.9,46.3c-4.5,12.7-10.1,23.2-16.9,31.6c-5,6.4-9.8,9.5-14.5,9.5c-8.4,0-12.7-10.2-12.7-30.5
		c0-22.1,5.1-51.8,15.4-88.8l5.2-19.1c0-1-0.2-1.9-0.6-2.9c-1.1-2.6-20.7-13.9-24.1-13.9c-7,0-14.2,33.1-15.6,39.6
		c-7.9,36.9-11.8,62.6-11.8,77c0,18.7,6.2,32.7,18.7,42.1c5.8,3.2,10,5.2,12.7,6c3.5,1.7,6.7,3,9.8,4l15.2,4.3h7.1
		c10.5,0,18.8-2.9,24.7-8.7c3.2-2.6,5.7-5.7,7.5-9.3c14.8-26.4,24.6-63.9,29.3-112.5C479.8,212.5,480.4,202.8,480.4,195.8
		L480.4,195.8z M598.3,210.9c0-1.2-0.5-4.5-1.5-9.8c-0.8-3.7-1-9.5-2.6-13.3c-0.6-1.5-1.9-2.7-3.7-3.4c-1.9-0.8-4.9-1.1-9-1.1
		l-24.7,1.9c-20.9,1.9-35.8,3.5-44.6,4.8c-8.9,1.2-14.8,3-17.9,5.2l2.4,20.2c0.4,3.8,1.8,10.8,6.1,10.5l10.6-1.7
		c7.5-1.1,12-1.7,13.7-1.7v1.2c-1.8,9.3-3.4,18.8-4.8,28.6l-10.6,84.3c0,3.7,0.7,6.1,2.1,7.1c2.1,1.9,6,3.9,11.6,5.9
		c5.7,2,10.4,3,14.1,3c3,0,4.8-0.7,5.2-2.1c1.1-5.8,1.5-9.9,1.2-12.2l1.9-30.7c0.1-1.4,0.3-4,0.5-8c0.2-3.9,0.8-9,1.8-15.1
		c2.2-16.2,3.8-26.9,4.8-32.2c3.2-17.4,6.1-28.7,8.7-33.8l6.9-0.6h17.6C594.9,218,598.3,215.6,598.3,210.9L598.3,210.9z M196.2,45.5
		l-2.3-12.7c-4.3-20.9-26.3-31.6-46.1-31.6c-4.8,0-11,1.9-18.5,5.6c-17.9,8.9-26.8,22.6-26.8,41.1c0,17.4,6.4,27.5,23.5,33.4
		c4.9,1.7,10,3,12,2.3c0.4-0.1,0.9-0.2,1.5-0.2c13.7,0,20.6,6.8,20.6,20.3c0,13.1-5.7,26-17,38.6c-2.5,2.6-9.9,7.5-13.7,7.5
		c-0.1,0-0.2,0-0.3,0c0.2,0.2,0.5,0.4,0.7,0.6c5.9,6,10.2,10.9,13.1,18.4c26.2-6.7,50.5-34.7,50.5-60.8c0-10-2.5-18-7.6-24
		c-5.1-6-13.5-10.2-25.4-12.6c-2.1-0.7-11.9-0.3-15.2-2.7c-5.5-4.2-8.3-11.3-8.3-21.6c0-3.7,1.1-8.7,3.3-14.9
		c3.5-9.8,19.8-25.5,22-2.3c0.6,6.5,1,11.6,1.5,15.4c0.7,1.7,4.2,3,10.4,4.2c6.2,1.1,11.7,1.7,16.4,1.7
		C194.2,51.1,196.2,49.2,196.2,45.5L196.2,45.5z M127.2,149c-3-2.5-4.3-10-4.3-13.1v-19.5c0-1.7-1.2-2.6-3.5-2.9l-23.5-1.7l-7.5,1.7
		c0,8.9-0.6,7.7,2.5,21c2.5,11.2,7.4,20,14.8,26.3c3.4,2.9,7,5.1,10.7,6.6c0.1-6.1,1.7-12,5.6-16.7c1-1.1,2.2-1.7,3.7-1.8
		C126.3,148.9,126.8,148.9,127.2,149L127.2,149z M332.3,13.5c0-2.4-0.5-3.9-1.5-4.8c-2.1-0.8-4.2-1.4-6.2-1.7
		c-7.9-1.1-19-2.7-23.5,1.5c-1.9,1.8-2.9,3.8-2.9,6v13.3c0,8.4-1.7,21.8-5,40.1c-3.5,18.1-7.4,33.6-11.9,46.3
		c-4.5,12.7-10.1,23.2-16.9,31.6c-5,6.4-9.8,9.5-14.5,9.5c-8.4,0-12.7-10.2-12.7-30.5c0-22.1,5.1-51.8,15.4-88.8l5.2-19.1
		c0-1-0.2-1.9-0.6-2.9C256.1,11.3,236.5,0,233.1,0c-7,0-14.2,33.1-15.6,39.6c-7.9,36.9-11.8,62.6-11.8,77c0,18.7,6.2,32.7,18.7,42.1
		c5.8,3.2,10,5.2,12.7,6c3.5,1.7,6.7,3,9.8,4l15.2,4.3h7.1c10.5,0,18.8-2.9,24.7-8.7c3.2-2.6,5.7-5.7,7.5-9.3
		c14.8-26.4,24.6-63.9,29.3-112.5C331.7,30.2,332.3,20.6,332.3,13.5L332.3,13.5z M462.9,17.4c0-1.4-0.1-2.2-0.2-2.5
		c-0.6-1.5-3.3-3.2-8.1-5.1c-4.8-1.9-8.9-2.8-12.2-2.8c-4.2,0-6.6,0.8-7.5,2.5c-3.3,7.3-6,16-8.1,25.9l-1,6.4
		c-3.9,23-6.1,36.5-6.6,40.5l-0.6,0.8c-4.8-16.6-15.4-52.5-13.3-64.1c0.9-5.2,0.3-10-3.8-12.1c-6.3-3.2-13.9-2.8-21.1-3.4
		c-2.5-0.3-5.5-1.1-8.5-1.2c-5.4,0-8.9,1.3-10.6,3.9c-10.5,16.8-20.1,72.4-22.6,96.1c-1.2,11.8-2.3,22.9-3.2,33.3
		c-0.9,10.4-1.4,17.2-1.6,20.2c0,6.8,5.7,11.6,17.2,14.3c7.3,1.8,11.4,2.7,12.2,2.7c2.8,0,5.6-2.6,5.6-5.4c0-19.9-0.7-24.7,2.5-48
		c1.5-11.2,7-48,10.8-54.8c5.8,23.2,13.5,55.8,20.6,76.6c3.2,9.4,5.8,15.4,7.9,17.9c2.4,1.2,4.3,2,5.8,2.3c1.2,1.1,2.1,1.9,2.5,2.5
		c3.2,1.1,6.9,2,11.1,2.6c4.2,0.6,6.9,0.9,8,0.9c4.4,0,6.9-0.8,7.5-2.5v-38c0-14.8,2.9-38.1,8.7-69.7L462.9,17.4L462.9,17.4z
		 M571.7,45.5l-2.3-12.7c-4.3-20.9-26.3-31.6-46.1-31.6c-4.8,0-11,1.9-18.5,5.6C487,15.7,478.1,29.4,478.1,48
		c0,17.4,6.4,27.5,23.5,33.4c4.9,1.7,10,3,12,2.3c0.4-0.1,0.9-0.2,1.5-0.2c13.7,0,20.6,6.8,20.6,20.3c0,13.1-5.7,26-17,38.6
		c-2.5,2.6-9.9,7.5-13.7,7.5c-4.4,0-6.4-10.2-6.4-13.9v-19.5c0-1.7-1.2-2.6-3.5-2.9l-23.5-1.7l-7.5,1.7c0,8.9-0.6,7.7,2.5,21
		c2.5,11.2,7.4,20,14.8,26.3c34.1,29,87.5-14.1,87.5-52.8c0-10-2.5-18-7.6-24c-5.1-6-13.5-10.2-25.4-12.6
		c-2.1-0.7-11.9-0.3-15.2-2.7c-5.5-4.2-8.3-11.3-8.3-21.6c0-3.7,1.1-8.7,3.3-14.9c3.5-9.8,19.8-25.5,22-2.3c0.6,6.5,1,11.6,1.5,15.4
		c0.7,1.7,4.2,3,10.4,4.2c6.2,1.1,11.7,1.7,16.4,1.7C569.7,51.1,571.7,49.2,571.7,45.5L571.7,45.5z"/>
	<path class="st1" d="M83.7,221c5.5-3.6,19.9-8.5,26.3-9.9c18.9-4.3,39.2-2,55.5,9.1c5.2,3.6,10.5,9.1,13.5,13.5
		c7.9,11.8,10.4,26.8,8.3,40.6c-1.8,12.2-7.5,27.3-15.3,37.2c-3.5,4.4-7.6,8.3-13,12.1c-5.6,2.9-9.1,5.4-15.8,7.3
		c-18,5.2-37.3,2.8-53.3-7.1c-16.4-10.1-29.6-28.3-29.8-48.1c-0.1-5.1,1.1-12.8,2.1-17.5C65.3,245,71.8,228.8,83.7,221L83.7,221z
		 M155.3,297.7c5.4-6.8,9.8-18,11.5-26.2c3-14.5-0.1-28-11.5-37.9c-11.8-10.2-29.3-15.2-44.3-12.7C92,224,86.1,231.6,79,247.9
		c-0.4-0.1-2.9,11-3,12.2c-0.7,7.1-0.7,15.1,1.8,21.9c7,18.7,28.4,33.8,48.1,32.6C132,314.4,149.5,305,155.3,297.7L155.3,297.7z
		 M180.6,194.4c3.9-7.1,7.3-16.4,5.3-24.6c-8.5,0.9-16,9.6-19.8,16.6c-3.7,7-7.5,17-2.1,24.1C172.3,207.1,176.2,201.9,180.6,194.4
		L180.6,194.4z M214.9,224.7c12.4-6.6,15.2-12.7,21-16.3c-1.3-1.4-3-2-4.8-2.4c-2.4-0.7-4.5-0.8-7-0.7c-6.4,0.2-11.3,1.7-16.9,4.7
		c-7.5,4-17.3,11.6-18.9,20.5C196.3,233.2,207.8,228.5,214.9,224.7L214.9,224.7z M222.4,273.7c8.7-0.4,17.1-4.2,22.4-11.3
		c-7.7-3.1-14.8-5.7-23.2-5.3c-4.7,0.2-8.8,1.3-13.1,3.1c-3.5,1.9-7.3,3.9-9.9,7c2.8,2.9,7.3,3.5,11,4.9
		C214.1,273.3,217.7,273.8,222.4,273.7L222.4,273.7z M202.2,318.9c6.5,4.1,19.2,9.3,26.6,4.7c-3.4-8.2-10.4-14.1-17.7-18.8
		c-7.2-4.4-13.4-7.7-21.9-6C186.5,307.2,196.2,315,202.2,318.9L202.2,318.9z M173.8,351.8c5.6,6.4,12,11.1,16.5,17
		c7-10.4,1.1-24.1-7.6-31.4c-3.8-3.2-7.5-5.4-12.4-6.6c-1.7-0.6-3.1-1-4.9-1.2l-2.8-0.9c-0.4,0.8,0,2.5,0.2,3.3
		c0.3,1.9,0.9,3.4,1.7,5.1c1.5,4.4,3.8,7.8,6.5,11.4C172,349.5,172.9,350.7,173.8,351.8L173.8,351.8z M124.2,363.5
		c-0.7,7.9,1.2,16,5.6,22.6c5.8-6,10.2-12.6,11-21.1c0.8-9.2-3-18-10.2-23.8C128.1,348.2,124.8,355.9,124.2,363.5L124.2,363.5z
		 M70.2,350.2c-4.9,6.4-7.2,12.8-6.5,20.8c7.7,1.2,15.3-5,19.7-10.7c5.2-6.7,8-14.7,8-23.2C83,337.7,75.2,343.6,70.2,350.2
		L70.2,350.2z M39.5,310.3c-5.6,1.4-10.1,3.3-14.5,7c-2.1,1.6-3.7,3.2-5.1,5.5c-1,1.2-2.1,3.4-1.7,5c1.3-0.4,3-0.4,4.4-0.5
		c2.2,0.3,4.1,0.4,6.2,0.3c5.1,0.3,9.4-0.2,14.4-1.3c0.3-0.1,0.8-0.2,1.1-0.3c6.8-1.8,19.6-4.7,22.1-12.2
		c-3.7-7.5-19.3-5.1-25.8-3.9C40.3,310.2,39.9,310.3,39.5,310.3L39.5,310.3z M29.7,258.7c-8.7-1.7-23.7-1.9-29.7,6
		c9.7,5.5,15.3,7.9,26.5,10.3c7.9,1.4,19.7,3,25.6-3.8C46.6,263.4,38.7,260.7,29.7,258.7L29.7,258.7z M45.6,211.5
		c-9.1-4.1-20.1-5.3-29.6-2c10.8,12.1,30,24.7,46.9,20.3C60.9,221.3,53.4,215,45.6,211.5L45.6,211.5z M87.6,180
		c-4.6-6.4-12.1-13.5-20.4-14c-3.1,14.4,12.5,36.3,26.9,37.7C96.3,195.7,92.1,186.4,87.6,180L87.6,180z M139.1,173.9
		c-2.5-8.8-6.9-13.6-13.1-19.9c-5.5,6.5-5.1,16.8-2.9,24.5c2.9,9.2,6.3,13.3,11.2,21.2C141.1,193.2,141.5,182.4,139.1,173.9
		L139.1,173.9z"/>
</g>
</svg>
