<?xml version="1.0" encoding="utf-8"?>
<!-- Generator: Adobe Illustrator 21.1.0, SVG Export Plug-In . SVG Version: 6.00 Build 0)  -->
<svg version="1.1" id="Layer_1" xmlns="http://www.w3.org/2000/svg" xmlns:xlink="http://www.w3.org/1999/xlink" x="0px" y="0px"
	 viewBox="0 0 720 510.8" style="enable-background:new 0 0 720 510.8;" xml:space="preserve">
<style type="text/css">
	.st0{fill:#F3DF1D;}
	.st1{fill:#81CBBE;}
</style>
<g>
	<path class="st0" d="M173.7,0c8.7,0.8,13.2,2.3,13.2,4.7c0,2.2-0.3,8.8-1,19.7c0,4.9,0.3,9.3,1,13.2
		c-4.4,126.1-6.6,208.8-6.6,248.1v2.9c-4.4,0.3-7.6,3.5-9.8,7.2c-0.5,0.1-1,0.2-1.5,0.2c-10.7,0-16-4.7-16-14.1
		c1.2-14.5,1.8-23.7,1.8-27.2v-2.9l-3.8-47.9c1.3-17.6,1.9-27.3,1.9-29.2c-13,6.3-19.9,9.5-20.7,9.5c-5.9,1.2-16.3,4.3-31,9.4
		c-0.3,7.5-0.6,14.6-0.8,21.3c-2.2,0.2-4.5,0.6-6.7,1c0-14.6,1.1-13.9-3.7-13.9c0,1.4-0.3,2.6-1,3.8c-0.1,0.4,0.1,10.7,0.1,11.1
		c-5.2,1.3-10.4,2.9-15.4,4.8c-0.9-9.8-0.7-13.5-0.7-23.4c-6.9,0-10.3-5.3-10.3-16c8.1,0,12.2-2.8,12.2-8.4v-40.4
		c0-15.2,3.1-45.9,9.4-92.2V28.2c0-3.6,2.8-6.7,8.5-9.4c1.6-0.4,15-0.3,15,4.7c0,4-0.6,8.7-1.8,14.1l1,9.4c0,8.1-1.6,49.2-4.7,123.1
		l51.7-15.1c-0.6-17.2-0.9-29.1-0.9-35.7c0-10.7,2.8-40.4,8.4-89.3c0-17.6,1.6-26.3,4.7-26.3C169.1,1.2,171.6,0,173.7,0L173.7,0z
		 M99.5,241.9c-0.7,19.5-1,33.8-1,42.9l-10.3,1.8c-10,0-15-4.1-15-12.2c1.5-12,2.4-20.5,2.7-25.4C83.5,245.5,91.5,242.9,99.5,241.9
		L99.5,241.9z M93.7,122.2c0,17.1,0.1,31.2,1.9,47h1.8c-0.6-9.4-0.9-16.3-0.9-20.7v-21.6l-1-6.6C94.4,120.5,93.7,121.1,93.7,122.2
		L93.7,122.2z M168,200.2c0,1.8-0.3,2.8-0.9,2.8l0.9,4.7c1.2,13.4,0,27.1,0,40.4v13.2c0,1.7,0.6,3.6,1.9,5.6c2.5-1,3.8-1.9,3.8-2.8
		v-38.6c0-16.9-1.6-25.3-4.7-25.3H168L168,200.2z M288.6,3.8h3.8c6.3,5,9.4,9.1,9.4,12.2c0,7.1,0.8,14.1-12.2,14.1
		c-7.2,0-20.7,3.1-40.4,9.4c-1.8,0-4.6,19.7-8.5,59.2v8.5c17.6,0,14.5-4.7,35.7-1.9l3.8-0.9c1.9,2.3,3.1,7.9,3.8,16.8
		c-7.6,2.4-22.4,5.2-44.2,8.5l-0.9,1.8v22.6c0.7,66.7,9.9,103.1,27.3,109c1.2,0.6,2.2,1,2.8,1c3.3,0,9.9-2.6,19.7-7.5
		c8.1,3.3,12.2,9.9,12.2,19.7v2.8c-5.3,8.2-13.8,12.3-25.3,12.3h-4.7c-26,0-45.4-21-58.2-63c-3.8-14.4-5.7-49.8-5.7-106.2v-6.6
		c4.6-65.8,12.7-98.7,24.5-98.7C259.5,8.1,278.5,3.8,288.6,3.8L288.6,3.8z M215.3,88.3l0.9,17.9c8.2,0,7.5,0.8,7.5-4.7
		c0-2.2-0.3-5-0.9-8.4c0.7-5.6,1-10.9,1.8-16.9C219.5,73.6,217,77,215.3,88.3L215.3,88.3z M222.8,165.4c0,32,3.7,48,11.2,48h2.8
		c0-0.6,0.3-1.6,1-2.8c-1.3,0-2.8-9.4-4.7-28.2c0.6-1.2,1-2.2,1-2.8l-1-4.7l1-1.8c-1-5.6-2.2-8.4-3.8-8.4L222.8,165.4L222.8,165.4z
		 M336.2,0.9c10,0.6,15.1,2.2,15.1,4.7c0,4.1-0.3,8.2-1,12.2c0.6,22.6,1.3,37.3,1.9,44.2c-0.6,13.3-1,21.2-1,23.5
		c-0.6,90.6-1,146-1,166.4c0.5,7.3,0.8,12.5,0.9,15.5c-8,2.9-14.8,12.9-18.9,20l-9.2-1.7c-2.3-4.7-0.1-11.4,0-14.1l-0.9-4.7
		c0.6-14.3,0.9-24.9,0.9-32c0-3.5-1.5-16.4-4.7-38.5c0.6-23.7,0.9-40.6,0.9-50.8c0-3.9-0.6-16.1-1.8-36.7c0-5.8,2.5-34,7.5-84.6v-16
		C325.6,6.4,329.3,3.9,336.2,0.9L336.2,0.9z M364.8,269.3c15.6-1.1,30.9-4.1,45.7-8.9c3.1,5.5,4.7,11.1,4.7,16.9
		c0,1.5-5.4,3.4-16,5.6c0,3.2-10.5,5.7-31.4,7.6C369,283.9,369.9,274.4,364.8,269.3L364.8,269.3z M326.8,85.5
		c0,40.1,1.9,60.2,5.7,60.2h0.9c0-1.2,0.3-1.8,1-1.8c-1.9-12.5-1.8-33.7-1.8-52.7c0-4.7-1-7.1-2.9-7.5L326.8,85.5L326.8,85.5z
		 M449.7,0.9c10,0.6,15.1,2.2,15.1,4.7c0,4.1-0.3,8.2-1,12.2c0.6,22.6,1.3,37.3,1.9,44.2c-0.6,13.3-1,21.2-1,23.5
		c-0.6,90.6-1,146-1,166.4c0.6,10,1,16,1,17.9c2.1,0,4.2,0,6.3-0.1c-6.7,4.7-12.2,13.6-15.6,19.5l-18.9-3.5
		c-2.3-4.7-0.1-11.4,0-14.1l-0.9-4.7c0.6-14.3,0.9-24.9,0.9-32c0-3.5-1.5-16.4-4.7-38.5c0.6-23.7,0.9-40.6,0.9-50.8
		c0-3.9-0.6-16.1-1.8-36.7c0-5.8,2.5-34,7.5-84.6v-16C439.1,6.4,442.8,3.9,449.7,0.9L449.7,0.9z M487.9,268.4
		c12.3-1.5,24.3-4.1,36.1-8c3.1,5.5,4.7,11.1,4.7,16.9c0,1.5-5.4,3.4-16,5.6c0,2.6-6.8,4.7-20.5,6.4
		C493.3,282.6,493.9,272.8,487.9,268.4L487.9,268.4z M440.3,85.5c0,40.1,1.9,60.2,5.7,60.2h0.9c0-1.2,0.3-1.8,1-1.8
		c-1.9-12.5-1.8-33.7-1.8-52.7c0-4.7-1-7.1-2.9-7.5L440.3,85.5L440.3,85.5z M599,9.9c5.9,0,14,2.9,14,5.6c0,3.3-0.9,2.5-0.9,4.7h0.9
		c0-4,4.8-6.6,10.3-6.6c15.2,0,24.9,21.6,29.2,64.8c1.8,10,3.4,33.5,4.7,70.5c0,44.7-10.7,86.6-31.9,125.9
		c-3.6,4.6-7.3,8.4-11.1,11.3c-1.8-3-3.4-4.8-6.8-4.8c-7,0-11.5,5.7-14.4,12.4c-39.3-0.4-48.5-67.8-48.5-107.2
		c0-48.1,9.4-97.6,28.2-148.6C582.5,19.3,591.3,9.9,599,9.9L599,9.9z M611.2,23c0,2.6-4.4,7.9-13.2,16c-6.9,9.9-13.5,31.8-19.7,65.8
		c-2.5,23.2-4.4,45.5-5.6,66.7c0,51.1,6.9,82.8,20.6,95c8.7,0,18-19.4,28.2-58.3c6.9-33.9,10.3-64,10.3-90.2
		c0-43.2-6.6-72-19.7-86.5c0-0.6,0.3-1.5,0.9-2.8l-0.9-5.6H611.2L611.2,23z M635.7,80.4c0,1.2-0.3,1.8-1,1.8
		c1.3,6.9,1.8,14.8,1.8,23.5v25.3l1,4.7c3.8,0,6.6,0.7,6.6-1.8v-31C644.1,87.8,641.3,80.4,635.7,80.4L635.7,80.4z M558.6,184.6
		c1.5,2.9,1,2.8,0,4.7c2.5,5.9,3.7,4.7,9.4,4.7c-3.4-6.8-1-6.8-1-10.3C564.4,182.4,558.6,181.7,558.6,184.6L558.6,184.6z
		 M560.4,203.5v1c1.8,14,3.9,22.9,6.6,26.3h5.7c-2.9-19-5.1-29-6.6-30.1C562.3,201,560.4,201.9,560.4,203.5L560.4,203.5z"/>
	<path class="st1" d="M106.8,218.3c19.3,0,31.1,8.9,35.4,26.7c0.5,3.9-0.6,12.2-3.6,12.9c-7.2,0-9.3-20.2-31.8-20.2
		c-20.6,0-43.9,10.8-70,32.5c-13,13.1-19.5,24.4-19.5,33.9v3.6c0,12,19.8,23.8,59.2,35.4c11.8,4.8,24.1,11.8,36.8,20.9
		c21.2-13,37.7-21.2,49.7-24.9c4.2-31.6,10-47.6,18.5-47c5.9,0.4,7.2,5.5,6.5,9.4c-9.6,28.2-14.5,47.9-14.5,59.2v1.5
		c0,9.1,2.9,13.7,8.7,13.7c7.1-1.8,14.1-9.6,21-23.1c4.9-31.3,11-47,18.1-47h2.2c1.8,0,3.3,2.9,4.3,8.6c-0.1,2.5-32.1,97.5-5.1,97.5
		c10.6-0.1,22.7-17.2,36.3-51.4c2.7-37.2,8.7-55.9,17.9-55.9c3.7,0,6.5,3,6.5,7.9c0,1.9-2.9,13-8.7,33.2l-0.7,8.7h0.7
		c6.9-15.9,13.6-23.8,20.3-23.8c5.5,0,9.6,7.9,12.3,23.8v0.7h0.7c19-56.8,34.9-85.2,47.6-85.2c7.6,0,9.4,3,9.4,12.3
		c0,7.5-5.7,34.2-17.3,80.2c-1.4,7.5-2.4,14.7-2.9,21.6c0.9,7.2,2,10.8,3.6,10.8c14.9,0,28.9-28.3,35.2-39.3c2.8-34,8.7-51,17.5-51
		c3.7,0,6.5,3,6.5,7.9c0,1.9-2.9,13-8.7,33.2l-0.7,8.7h0.7c6.9-15.9,13.6-23.8,20.3-23.8c5.5,0,9.6,7.9,12.3,23.8v0.7h0.7
		c19-56.8,34.9-85.2,47.6-85.2c7.6,0,9.4,3,9.4,12.3c0,7.5-5.7,34.2-17.3,80.2c-1.4,7.5-2.4,14.7-2.9,21.6c0.9,7.2,2,10.8,3.6,10.8
		c15.3,0,30.1-30.3,36.5-41.6v-3.6c0-21.3,14.8-67.2,41.2-67.2c9.1,1.4,13.7,6,13.7,13.7c0,9.4-9.9,19.5-29.6,30.4
		c-6.7,1.5-10.1,4.7-10.1,9.4c-1,6.4-1.4,12.6-1.4,18.8c0,8.5,0.2,18.1,7.9,18.1h2.2c11.4,0,30.9-15,58.5-44.8c1.9-2.7,3.6-4.7,5-6
		c-2.9-3.3-4.3-7.5-4.3-12.8c3.2-16.3,8.3-24.5,15.2-24.5c1.8,0,3.3,1.9,3.6,2.9c0.7,2.5-2.2,19.1-2.2,23.1c0,1.9,3.1,3.1,9.4,3.6
		c10.3,0,43.4-9.6,43.4,4.4v3.6c0,1.4-8.7,27.9-26,79.4c-4.4,16.6-6.5,29.9-6.5,39.7c0.2,8.2,1.7,12.8,4.4,13.7
		c8.6,0,26.2-21.9,52.7-65.7l30.3-53.4c0.9-0.9,2.7-0.7,3.6-0.7v2.2c-3.6,12.6-16.6,37.6-39,75.1c-20.2,35.2-36.1,52.7-47.6,52.7
		c-40.2,0,12.3-132.6,12.3-139.4c-14.5,3.1-32.9,6.7-44.7-0.3c-30.7,40.2-54.3,60.2-70.8,60.2c-10.5,0-18-9.5-20.2-21.7
		c-5.6,10.1-12.7,20.3-21.3,30.7c-8.9,9.8-26.7,12.3-26.7-9.4v-5.1c0-10,5.3-39.1,15.9-87.4c0.9-6.2,1.4-9.7,1.4-10.8h-0.7
		c-4.9,4.4-11.1,16-18.8,34.6L438,378.6c-3,4.8-5.9,7.2-8.6,7.2c-2,0-3.6-9.9-5.1-29.6c-2.1-10.1-4-15.2-5.8-15.2
		c-4.1,1.5-10.6,14.9-19.5,40.4c-4.5,14.2-5,14.5-9.4,14.5c-4.3,0-6.5-3.9-6.5-11.6c-0.6-10.3-1-4.1-0.4-14.8
		c-5.1,8.4-11.2,17-18.4,25.6c-8.9,9.8-26.7,12.3-26.7-9.4v-5.1c0-10,5.3-39.1,15.9-87.4c0.9-6.2,1.4-9.7,1.4-10.8h-0.7
		c-4.9,4.4-11.1,16-18.8,34.6l-21.7,61.4c-3,4.8-5.9,7.2-8.6,7.2c-2,0-3.6-9.9-5.1-29.6c-2.1-10.1-4-15.2-5.8-15.2
		c-4.1,1.5-10.6,14.9-19.5,40.4c-4.5,14.2-5,14.5-9.4,14.5c-6.6,0-6.1-8-6.8-14.3c-11.6,27.8-23.3,40.7-36.5,40.7
		c-15.5,0-22.4-13.4-22.4-39l0.7-8.7h-0.7c-5.6,8.2-11.9,12.3-18.7,12.3c-13-2.4-19.5-11-19.5-26l0.8-14.1
		c-5.3,2.7-12.5,6.1-21.4,10.2c-13.4,8.1-20.8,12.4-22.4,13c12,13.7,18.1,32,18.1,54.9c0,40.3-18.3,68.2-54.9,83.7
		c-26.1,7.4-70-2.4-70-36.1c0-30.4,59.5-83.4,88.1-99c-7.3-7-30.4-16.8-69.3-29.6C10.1,334.7,0,321.9,0,305.6v-2.2
		c0-24.2,20.2-48.2,60.6-72.2C79.4,222.6,94.8,218.3,106.8,218.3L106.8,218.3z M105.4,378.6c-55.9,40.7-83.1,71.7-83.1,95.3
		c0,17.8,28,30.5,54.7,22.3c14.6-4.5,27.7-15.3,38.4-34.5c4.8-11.5,7.2-23.4,7.2-35.4C122.7,404.9,117,389,105.4,378.6L105.4,378.6z
		 M528.6,321.9c16.6-9.7,25.3-17.8,26-24.6c0-2.9-1.4-4.3-4.3-4.3c-9.1,0-16.6,9.6-22.4,28.9H528.6L528.6,321.9z"/>
</g>
</svg>
