<?xml version="1.0" encoding="utf-8"?>
<!-- Generator: Adobe Illustrator 21.1.0, SVG Export Plug-In . SVG Version: 6.00 Build 0)  -->
<svg version="1.1" id="Layer_1" xmlns="http://www.w3.org/2000/svg" xmlns:xlink="http://www.w3.org/1999/xlink" x="0px" y="0px"
	 viewBox="0 0 720 508.6" style="enable-background:new 0 0 720 508.6;" xml:space="preserve">
<style type="text/css">
	.st0{fill:#81CBBE;}
	.st1{fill-rule:evenodd;clip-rule:evenodd;fill:#81CBBE;}
</style>
<g>
	<path class="st0" d="M66.1,143.7c4.4,15.3,0.4,29.5-9.3,32.3c-9,2.6-16.9-3.8-18.9-10.4c-4.8-16.7-20-8-17.2,1.4
		c4.4,15.1,23.1,26,37.5,21.9c21.2-6.1,30.6-26,23.6-50.3c-5.6-19.3-25.4-34.1-48.5-36.1c-8.4-0.6-13.2-4-16.1-14.3
		c-2.2-7.8-0.9-23.5,8.5-26.2c5.9-1.7,9.6,3.9,9.7,6.1c2.3,5.2,6,7.5,10.5,6.2c4.7-1.4,7.6-5.5,6.4-9.5c-2.9-10.1-18.8-18.1-29.6-15
		C3,55.6-3.5,76.2,1.8,94.6C11.7,129,54.1,102.2,66.1,143.7L66.1,143.7z M187.7,30.2c-0.8-5.8-0.8-10.6-8.6-9.4
		c-6.3,0.9-8.8,4.3-7.9,10.6c4.5,30.9,6.8,62.5,11.3,93.2c2.5,17.5-1,24-14.6,25.9c-10.7,1.5-15.4-1.5-18.1-12
		c-4.5-29.6-6.7-47.7-10.2-72c-0.6-3.9-1.6-7.5-2.1-11.1c-1-7-0.7-24-11.9-22.3c-3.6,0.5-6,2.9-7.2,6.5l13.7,94.3
		c3.3,22.6,15.1,32.1,36,29c9.7-1.4,20.5-5.5,24.7-9.5c5-4.7,8.4-15.4,7.3-23.4C195.3,97.8,193.6,72.5,187.7,30.2L187.7,30.2z
		 M337.6,135.3c-1.6-4.4-2.2-9-2.5-17.9c-0.6-22.8,0.2-45.5-0.4-68l-1.1-39.5c-1.4-5.6-5.1-7.7-8.8-7.6c-2.9,0.1-6.1,1.6-8.2,3.7
		c-5.9,7.5-20.8,46.5-24.3,43.7c-3.3,2.7-16.8-53-37.4-44.9c-9,3.2-3.5,104.5-3.1,119c0.2,5.6-0.3,25.3,8.8,25.1
		c5.4-0.2,8.2-4.2,8-11.3c-1.2-43.9-1.4-75.4-0.9-104.1c4.1,6.3,15,34.5,23.1,34.2c12.5-0.4,21.6-26.2,27.2-35.9l0.7,96.5
		c0.3,10.3,6.5,20.7,12.6,20.5c4.2-0.1,8-3.7,7.9-7.3C339.2,139.5,338.1,137.3,337.6,135.3L337.6,135.3z M468.3,138.2
		c-1.2-4.5-1.4-9.2-0.8-18c1.5-22.8,4.4-45.2,5.9-67.8L476,13c-0.9-5.7-4.4-8.2-8.1-8.4c-2.9-0.2-6.2,1.1-8.6,2.9
		c-6.6,6.9-25.1,44.4-28.3,41.2c-3.6,2.4-11.7-54.3-33-48.2c-9.3,2.3-13.2,103.7-14.2,118.2c-0.4,5.6-2.6,25.2,6.4,25.8
		c5.4,0.4,8.6-3.4,9.1-10.5c2.9-43.9,5.7-75.2,8.8-103.8c3.5,6.6,11.7,35.7,19.8,36.2c12.5,0.8,24-24,30.5-33.2l-8.3,96.2
		c-0.7,10.3,4.5,21.2,10.6,21.6c4.2,0.3,8.3-2.9,8.6-6.6C469.5,142.5,468.6,140.2,468.3,138.2L468.3,138.2z M543.4,75.9
		c2.9-15.4,5.6-31.2,7.6-46.8c8.3,1.1,12.6,1.9,17,2.7c4.8,0.9,10.4,2,17.5,3.8c2.2-0.2,19.8-11-8.9-16.4c-2.7-0.5-5.1-0.7-6.3-0.9
		l-25.8-4.9c-7.3,2.9-7.5,6.8-8.8,13.8c-5.9,31.1-10.8,62.4-16.6,93.6c-2.1,11.1-8.5,33.4,7.6,36.4c5.1,1,10.1,0.9,15.1,1.9
		c5.7,1.1,25.7,8,27.6-1.8c0.6-3.1-0.9-5.7-4.9-8.4c-1.7-0.7-33.3-3-32.2-6.6c3.2-18.4,5.3-33.7,7.8-50.5c1.4-2,2.7-2.2,3.9-2
		c1.2,0.2,2.6,1,4,1.3c6.5,1.2,25.2,7,26.9-1.9c0.8-4.1-2-7.9-6.4-8.7l-20.8-3.9C546.1,76.2,544.8,76.2,543.4,75.9L543.4,75.9z
		 M644.8,168.5l19-51.9c3.8,3.2,11.3,8.6,13.9,12.4c3.6,6,3.1,28.9-1.2,49.5c-4,19.8,13,18.7,14.5,14.2c3.3-9.5,6.3-43.9,4.7-53.5
		c-1.5-10.4-8.2-21.1-12.8-22.9c10.3,0.2,31.8-12.8,36-24.8c5-14.4-7.4-37.5-23.4-43.1c-7.4-2.6-36.7-5.3-38.9,1.2
		c-1.1,3.2,1.7,9.2,11.1,9.1l-18.5,50.5c-6,16.4-12.3,32.9-18.1,49.4c-3.4,9.7-4.7,14.2,0.8,16.2C636.8,176.4,642.5,175,644.8,168.5
		L644.8,168.5z M668.8,103l13-43.8c2.6,0.7,4.8,1.2,6.7,1.8c17.8,6.3,17.2,19.3,14.2,27.9C698.6,100.2,678.5,102.8,668.8,103
		L668.8,103z"/>
	<path class="st1" d="M242.7,183c0.2-0.2,2.5-1.3,0.7,1.6c-2.9,4.6,2.9-1.6,4.5-1.6c2,0,0.4,3.7,2.1,2c1.1-1.1,1.7-1.2,1.8-0.2
		c0.1,1,0.7,1.8,1.8,2.5c0.4,1.3,1,1.8,1.6,1.3c1.7-0.5,5.7,4.5,5.9,6.9c0.2,2.4-4.5,6.1-4.3,7.9c0.3,2.2-2.8,4.1-4,3.3
		c-2-1.3-1.7,3.3-4-0.3c-1.7-2.8,0,3.8-3.3,1c-1.3-1.1-0.9,0.1-3.3-1c-14.2-6.6-5.4-24.9-1-23.1C241.8,183.6,242.3,183.4,242.7,183
		L242.7,183z M632.2,270.4c3.4,2.1,4.9,6.3,2.6,9.9c-4.4,7-10,12.4-16.8,16.2c-6.8,3.7-13.5,6.8-20.1,9.2c8.2,13.3,12.4,24,13,40.4
		c0.8,19.1-4,38.6-23.2,45.8c-12.5,4.7-27.7,3.3-36.9-7.1c-10.6-11.9-9.1-36.5-4-51c3.5-9.7,9.3-19.4,15.5-28.9
		c-6.2-7.3-11.5-13.6-15.7-19c-8.4,21.8-22.1,48.9-37.9,64.5c-7.4,7.3-14.9,11.2-22.6,11.9c-10.8-0.7-19.7-3.6-26.7-8.9
		c-17.1-12.8-23.1-33-23.6-54.1c-7.3,5.7-14.3,9.1-24.6,11.2c-2.4,26.9-5.8,64.9-34.3,68.6c-19.7,2.5-28.1-14.3-26.9-32.2
		c0.7-10.6,2.7-16.8,9.2-25.1c7.6-9.7,15.5-14.1,26.2-19.5c4.4-2.2,4.6,0.6,4.6-10.7c0-5.2-1-29.7-4-32.6c-1.3-1.3-7.9,5.3-9.6,6.9
		c-18.5,18.8-29.6,56-32.8,83.9c-0.7,5.9-1.7,23.9-3.8,28.5c-0.8,1.7-3.5,4.8-4.6,3.6c-1.1-1.1-1.4,0.9-2.6,0.3
		c-5.4,2.7-6.6-2.3-9.9-1c-16.8-14.7-23.9-40.1-27.2-62.7c-5.7,14.9-11.8,28.7-24.8,39c-13.3,10.5-35.1,5-45.8-4.8
		c-9.3-8.5-13.2-20.6-13.3-34.5c-9.9,9.2-23,12.3-36,9.3c-4.3,10.4-4.7,12.2-12,23.6c-6.5,10.1-11,15.4-21.8,18.1
		c-15,3.8-29.7-3.9-37.9-16.3c-10.5-15.9-12.3-35.5-14.7-55.2c-1.7-13.8-5.5-44.7-4.9-55.7c0.5-10.8,7.9-14,7.9-13
		c0.5,0.5-2.3,11.6,0.3,3c1.7-5.5,3.5-5.1,3.3-3l1,6.9c0.4-2,2.6-11.7,4.6-8.9c0.6,0.8,4.8-1.3,5.3,1.3c1.1-2.2,8.7,3.3,11.2,8.2
		c12.4,24.7,15.7,92.2,24.4,116.1c7.9-9.7,12.6-17,17.8-28.4c-17.1-14.5-21.2-42.7-20.4-64.8c0.7-18.8,5.9-39.2,27-42
		c10.4-1.4,21.6,4.7,25.2,14.5c5.7,15.6,0.8,40.1-3.5,55.2l-6.9,26.9c16.4,3.7,32.1-16.5,34.6-29c3.6-17.8,5.3-21.5,10.2-38.1
		c1.1-3.8,5.9-19.5,8.2-21.6c2.8-2.6,7.5,0.5,8.6-0.3c1.6-1.2,1.3-1.3,1.3,1.6c4-4.7,3.2-2.5,9.6,0.7c1.1,21.7-0.2,30.6-4.6,52.3
		c-2.4,11.9-13.1,60.3,3.3,68.4c7,3.5,16.5-8.2,20.3-14.8c10.2-17.9,16.1-40.7,20.4-59.8c0.1-3.1,0.3-6.2,0.5-9.3
		c2.7-35.4,12.4-81.9,45.5-101.1c14.4-8.4,43.4-3.9,46,18.5c1.8,15.2-6.7,29.9-15.5,43.7c-10,15.8-20.3,27.6-33.5,40.7
		c-1.8,1.8-3.1,3-4,3.6c-0.9,15.4-1.2,30.8-0.3,46.2c5.6-20,10.8-35.8,23.2-52.4c9.5-12.7,23.3-24.8,38.9-17.1
		c17.3,8.4,18,32.1,18,49.1c8.6-2.7,14.8-6.7,20.1-12.9c2-2.2,3.6-4.4,4.8-6.7c1.7-9.9,4.3-19.3,8-28.3
		c6.9-16.8,17.1-29.8,32.5-38.1c14.2-7.6,47.9-4.5,31.7,27.9c-13.4,26.7-34.5,35.5-34.5,45.2c0,12.9-1.7,42.5,1.6,53.4
		c0.8,2.8,3.8,11,6.3,12.2c10.1,5.1,30.9-27.6,35-35c7.7-13.8,12.3-25.3,17.5-38.9c0.3-0.8,0.7-1.4,1.2-2
		c-8.7-13.9-9.6-28.6-0.5-41.8c14-20.5,43.1-15.7,50.8-0.7c7.4,14.5,1.4,26.6-1,25.1c-1.2-0.8-1.3,3.3-1.3-3.5
		c0-4.8-1.7,2.3-2.6,4.8c-1.1,0-2-1-2.6-3c-0.6,1.1-0.1,1.6-0.7,1.6c-0.5,0.5-2.3-0.9-2.6-1.6c-2-4.4-0.5-21.6-10.6-25.4
		c-3.9-1.5-6.1-1.4-8.4,2c-3.3,4.8-3.9,15.1-1.8,19.5c5.9,12.2,23.5,35.8,34.3,43.9c6.4-2.2,12.6-4.7,18.6-7.6
		c13.8-6.5,12.1-14.7,18.5-16.2C628.6,269,630.4,269.3,632.2,270.4L632.2,270.4z M572.8,378.2c15-15,1.2-55.7-0.3-56.9
		c-1.1-0.9-6.1,8.9-6.4,9.7c-3.2,7.9-5,21.3-3.8,29.7c0.8,6.1,3.2,14.5,7.9,17.8C571,379.2,571.9,379.1,572.8,378.2L572.8,378.2z
		 M475.2,252.9l-2.3,8.6c6.2-6.2,32.1-33.5,23.4-42.5c-1-1-1.6-0.5-4,2C485.1,228.4,478.8,242.5,475.2,252.9L475.2,252.9z
		 M460.4,258.9l-3.6,17.1c1.8,1.8,7.7-19.4,8.7-22.8l3.8-11.2c1.5-4,1-3.5-1.6,1.3C464.7,248.2,462.3,253.4,460.4,258.9L460.4,258.9
		z M444,291.5c0.3,1.4,0.7,0.9,0.9-1.1C444.6,290.8,444.3,291.1,444,291.5L444,291.5z M448.4,270.6c2.5-8.8,6.3-20,9.7-27.3
		c1.5-3.3,1-2.7-1.6,1.6c-5.1,8.8-8.6,17.1-10.6,24.8L448.4,270.6L448.4,270.6z M376.3,204.8c7.9-21-6.2,15.2-27.7,41.2l5.3-5.6
		C361.5,230.5,371.6,215.5,376.3,204.8L376.3,204.8z M373.3,197.5c-0.2,0-0.9,1.2-2,3.6c-8.4,17.9-25.5,41-37.9,56.4
		c15.9-18.5,30-35.7,37.6-54.1C372.5,199.9,373.3,198,373.3,197.5L373.3,197.5z M366,171.1c-9.1-8-21.7,24.9-23.7,30.3
		c-7.8,20.6-8.6,27.3-9.9,49.5c14.7-17.1,35.2-43.8,37.9-66.8C371,178.6,369.6,174.2,366,171.1L366,171.1z M313.3,212.7
		c0-2.1,24.9-42.1,19.8-37.3C324.9,183.1,314.8,211.1,313.3,212.7L313.3,212.7z M388.1,319.9l-10.2,8.9
		c-13.9,14.4-8.2,37.3-7.3,37.3c1.2,0,6.3-5,7.3-6.3c2.4-3.5,4.4-8.1,5.9-13.7C384.6,343.2,388.1,327.1,388.1,319.9L388.1,319.9z
		 M219.6,309.7c-3.2,4.1-0.3,23.4,1.6,23.4C219.9,321.5,219.6,321.1,219.6,309.7L219.6,309.7z M187.9,260.2
		c-0.9,8.4-3.3,20.1-7.3,35.3l-2.3,9.2c-1.5,4.1-1,6.6,0.5,1.6c5.5-17.7,8.1-26.8,10.1-45.8C189.7,253.2,188.8,253.1,187.9,260.2
		L187.9,260.2z M183.7,253.9c-0.6-1.8-0.1-0.2-1,6.3c-1.3,9.9-4.6,24.9-7.3,34.6c-2.6,9.5-1.9,13,2.3-3c2.4-8.8,5.5-22.4,5.9-30.3
		V253.9L183.7,253.9z M169.2,229.5c-4.1,7.2-4.1,17-3.6,27.7c0.7,12.1,2,22.5,4,31.3c1.8,7,1.6,4.3,4.3-6.9
		c3.5-14.8,8.2-42.4-1.3-52.9C171.4,227.5,170.3,227.7,169.2,229.5L169.2,229.5z"/>
	<path class="st0" d="M244.8,420.3c-7,7.5-6,42.4-6,53.4c0,22.7,6.8,34.8,19.7,34.8c27.2,0,25.1-43.1,25.1-60.9
		C283.6,402.8,249.3,413,244.8,420.3L244.8,420.3z M257.9,500c-10.7,0-8.4-31.2-8.4-38.3c0-23.2-1.3-36.7,10-38.6
		c9.7,0.3,13.4,7.2,13.4,21c0,10-0.8,44.7-6.2,50.9C264.2,497.9,260.4,500,257.9,500L257.9,500z M310.7,419.1
		c0,4.8,0.5,9.4,0.5,14.1c0,18-0.8,39.1-2.1,65.8c-0.3,4.3-1.7,9.5,4.9,9.5c5.4,0,5.7-5.7,5.7-9.9c0.3-17,1.3-34.2,1.7-51.2
		c4.3,10.2,9.5,20.3,13,30.8c1.9,6.5,7.9,27.3,15.7,28.1c5.7-1,5.6-12.1,5.6-16.2l0.6-59.6c0.1-7.7,5.1-17.5-5.6-17.5v0.5
		c-5.2,0-7.2,43.1-6,61.8c-4.9-11.8-14.1-32.2-17.3-42.8c-1-3.3-1.7-7.3-3.3-10.5C321.2,416.4,313.6,412.8,310.7,419.1L310.7,419.1z
		 M382.8,454.2c0,12.7-7.5,54.4,11.1,54.4h7.3c4,0,19.1-2.2,19.1-6c0-7.4-14.7-2.2-18.6-2.2h-7.3c-1.6-4.6-1-36.1-1-43.2
		c0-10.8,1.7-21.5,1.7-32.1c0-6.4-1.4-8.9-5.2-8.9s-5.6,2.2-5.6,7C384.4,433.5,382.8,443.7,382.8,454.2L382.8,454.2z M482.5,422.7
		c0-4.6-7.9-5.2-10.5-1.3l-9.7,23.2c-4.1-5.7-7.8-11.8-11.3-18.4c-4-7.7-12-8-12.6-2.9c0,4.6,15.7,28.5,20,32.7
		c-0.4,8.6-13.4,44.1-13,48.3c0.3,3.5,7.6,8.5,11.9-3c1.6-4,2.1-8.3,3-12.4C465.5,466,473.6,444.7,482.5,422.7L482.5,422.7z"/>
</g>
</svg>
