<?xml version="1.0" encoding="utf-8"?>
<!-- Generator: Adobe Illustrator 21.1.0, SVG Export Plug-In . SVG Version: 6.00 Build 0)  -->
<svg version="1.1" id="Layer_1" xmlns="http://www.w3.org/2000/svg" xmlns:xlink="http://www.w3.org/1999/xlink" x="0px" y="0px"
	 viewBox="0 0 716.4 424.1" style="enable-background:new 0 0 716.4 424.1;" xml:space="preserve">
<style type="text/css">
	.st0{fill-rule:evenodd;clip-rule:evenodd;fill:#FF8D90;}
	.st1{fill:#FF8D90;}
</style>
<g>
	<path class="st0" d="M526.5,143.3c13.5,0,12.2,12.8,7.6,13.3c0,12.4-14.8,8-16.5,2.5c0-5.2,2.3-10.5,7-15.8H526.5L526.5,143.3z
		 M110.9,61.3c13.1,2.2,14.7,9.9,13.9,20.3c-0.7,4.6-10.4,28.7-17.1,18.4c2.5-10.4,3.8-18.3,3.8-23.5c-15.1,0-62.8,30.7-62.8,45
		c5.9,3.3,25.1,7.9,57.7,13.9c11.7,3,22.1,9.1,31,18.4c26.2-15,51.3-28.9,51.3-23.4c0,0.6-1,1.9-3.1,3.8c2.1,0.1,3.1,0.8,3.1,1.9
		l-44.3,29.8c6,27.8-15.6,65.2-52.6,104.5c-23.9,24.8-43.6,34.2-61.4,34.2c-15,0-29-12.3-30.4-29.8
		c-3.4-42.4,115.5-110.2,118.4-110.2c-6.1-7-26.4-13.1-60.8-18.4c-19.4-5-29.1-13.3-29.1-24.7c0-17.8,18.4-35.6,55.1-53.2
		C93.5,63.6,102.6,61.3,110.9,61.3L110.9,61.3z M21.6,274.7c0,4.6,5.3,8.3,12.1,8.3c11.3,0,28.4-11.4,51.3-34.2
		c24.9-32,38-55,39.3-69C57.3,224.6,23.1,256.3,21.6,274.7L21.6,274.7z M52,291.2v0.6c15.9-5.7,11.4-4.5,11.4-7
		c7.6-2.8,11.4-6.1,11.4-10.2c4.8-4.3,9.8-8.5,15.2-12.6h7.6v-0.6c-1-0.9-1.6-3.2-1.9-7c0.6,0,2.9-2.5,6.9-7.6
		c-2.7-1.4-4,1.1-17.1,13.9l-12.6,12C65.5,278,58.6,284.1,52,291.2L52,291.2z M215.3,168.7h5.7c3.5,0,6.5,8.4,6.3,9.5
		c-12.3,40.3-18.4,65.4-18.4,75.4v4.4c10.1-10.4,19.9-24.2,29.8-41.2c0.8-1.5,1.6-2.8,2.4-4c0.6-4.9,2.3-11.3,5.2-19
		c0.1-7.2,3.9-21.1,11.7-41.8c2.3-3.1,4.1-7.7,5.4-13.9c4.2-1.8,18.5,3.3,18.5,7.6c0,0.4-3.9,12.6-11.6,36.8l0.6,1.2l-8.9,28.5
		c0.1,0.9,0.6,1.3,1.3,1.3c13.5-27.7,24.1-39.3,35.6-39.3c25.8,0,7.5,60.8,7.5,69.1h0.6c18.7-29.2,32.1-49.2,33.9-49.2
		c-3.2-9.3-2.4-13.4-1.8-21.6c1.2-16.9,12-26.1,32.2-27.6c11.9-0.1,21.1,8.7,20.1,19.9c-0.6,7.3-4.6,13.8-12.2,19.5l-4.2-0.3l-1,2.7
		l-2-0.2l1.7-5.2h-0.7c-0.1,1.7-0.9,2.5-2.4,2.5c0.1-0.5-0.1-0.8-0.7-0.8c6.9-8.6,10.5-14.9,10.7-18.8c0.8-11.3-24.5-9.3-25.4,5.2
		l-1.2,4.6c-0.9,13.2,7.2,28.5,24.2,45.9c7.6,12.2,11.3,21.8,10.8,28.8c-1.4,0-3.9-1.1-1.9-4.1l-2.9-0.8c1.7,3.4,1.6,1.9,0.3,6.1
		l-2-0.8l-1.7,2.5c2.3,0.2,6.1,5.4,6.4-0.2h1.5l-3.2,14.7l-1.4-0.2c0.1-1.7-0.3-3-1.2-4.1l1.7-3.9c-1.9,2.1-3.5,3.2-4.6,3.2
		c0.5,0.6,0.6,1.9,0.5,3.9l0.6,0.2c0.1-1.8,0.7-2.7,1.7-2.7l0.2,6.2c-0.3,4.5-6.5,10.6-18.5,18.4c-6.6,2.1-12,3.1-16.1,3
		c-16.5-3.8-24.1-14.6-22.9-32.5c0.7-10.3,4.9-19,12.5-26.1c2.8,0.3,5.6,0.6,6.9,5.2c-5,6.4-7.9,12.8-7.8,19
		c0.5,37.6,33.3,17.4,34.7-3.2c1.3-18.3-17.3-28.9-28-50.4c-10,20.4-24.6,45.1-39.3,67.1c-8,11.8-18.3,6.7-18.5-1.2
		c7.3-43,10.9-68.3,10.9-76.1l-0.6-3.1c-7.9,0-43.2,62-43.2,67.8c0,0.7-2,3.9-6.1,9.5c-21,0-18-6.4-13.2-25
		c-4.5,7.3-9.8,15.7-16,25.3c-7.1,9.4-20.5,11.1-24.1-7c-2.2-17.5,1.9-31.9,1.9-35.5h-0.6c-10.3,18.9-19.5,28.7-27.9,27.9
		c-30.3-4.2-15.2-52.9-5.7-74.1l5.7-0.6c5.1,0,8.5,3.4,10.2,10.1c0,0-14.9,37.3-8.9,49.5c9.2-7.2,17.6-16.5,25.4-27.9
		c7.2-9.8,11.1-17.8,11.4-24.1C208.8,174,212,168.7,215.3,168.7L215.3,168.7z M299.8,241.9c4,6.4-1.5,7.3-3.4,10.8
		c1.8,0,2.7,1.1,2.7,3.2c0.7,0,1.8-1.7,3.4-5.1l-1.3-0.6c0.9-5.3,1.3-8.3,1.3-8.9C302,241,299.8,239.9,299.8,241.9L299.8,241.9z
		 M292.2,266.6c1.8,0,2.6-1.1,4.1-7C295,259.6,293.7,261.9,292.2,266.6L292.2,266.6z M450.5,33.5c8.5,0,13.9,6.9,13.9,17.1
		c0,17-16.1,59-48.1,126.1l-1.9,33h0.6C429,177,441,162.7,456.9,164c16.2,1.3,15.8,19.1,15.8,31c0,5.6-1.7,23.6-5,53.8
		c0.4,1.6,0.6,3.3,0.6,5.1c12.1-11.7,22.9-31.1,32.4-49.3c0,0,5.4-26.5,9.9-27.7h4.4c4.6,0,8.1,3.1,10.2,9.5
		c-0.1,1.4-8.3,14.8-8.3,48.1c0,3.8,0.4,7.4,1.3,10.8c9.5-11.4,18.3-23.8,26.2-37.4c0.6-4.9,2.2-11.2,4.8-19
		c0.1-7.2,3.6-21.1,10.8-41.8c2.1-3.1,3.8-7.7,5-13.9c3.9-1.8,17.1,3.4,17.1,7.6c0,0.4-3.6,12.6-10.8,36.8l0.6,1.2l-8.2,28.5
		c0.1,0.9,0.5,1.3,1.2,1.3c12.5-27.6,22.3-39.3,33-39.3c23.9,0,7,60.1,7,69.1h0.6c11.1-18.7,18.9-31.6,23.4-38.7
		c2.8-16.5,10-31.7,21.4-45.6c16-16,37.4-6.6,37.4,15.2c0,26.2-43.7,44.7-43.7,48.8c0,12.6,2.3,19,7,19c8.6-1.1,22.8-10.6,42.4-28.5
		c5.8-2.2,14.5-14.3,17.1-15.2c0,0,6-1.1,5.7,1.9c-1.3,6.8-14.4,21.7-39.3,45c-23.7,20.3-48.6,15.6-49.4-19.1
		c-7,13.9-14.9,28.2-24,43.1c-7.9,12-17,6.4-17.1-1.2c6.8-43,10.1-68.3,10.1-76.1l-0.6-3.1c-7.5,0-39.9,62.4-39.9,67.8
		c0,0.7-1.9,3.9-5.7,9.5c-5.3,0-13.8-1.1-15.2-5l2.7-18.8c-6.6,11.4-13.2,24.5-21.6,24.5c-8.2,0-13.8-9.8-16.9-29.6
		c-23.8,52.4-47.6,44.5-47.6,14.8c0-4.1,1.5-23.5,4.4-58.3l-1.3-8.9c-9.4,0-23.3,20.5-41.8,61.5c-1.4,7.6-4.3,11.4-8.9,11.4
		c-2.9,0-6-5.1-9.5-15.2l0.7-4.4c0-80.1,11.6-141.6,34.8-184.3C438.1,38.5,444.9,33.5,450.5,33.5L450.5,33.5z M418.9,149.4v0.6h0.6
		c21.9-49.3,32.9-82.4,32.9-99.5c-0.5-2.9-3.1-2.7-3.8-2.5C436.5,57.8,426.6,91.6,418.9,149.4L418.9,149.4z M418.9,91.1l-8.2,36.1
		h0.6c0-1.5,1-3.1,3.1-5c-1.7-3.7,2.3-4.6,1.9-7.6c-1.9-5.6,2.3-14.6,5-14.6v-0.6c-4.2-2.2-1.9-4.2-1.9-8.3H418.9L418.9,91.1z
		 M598.7,237.1c3.7,6.4-1.4,7.3-3.2,10.8c1.7,0,2.5,1.1,2.5,3.2c0.7,0,1.7-1.7,3.1-5.1l-1.2-0.6c0.9-5.3,1.2-8.3,1.2-8.9
		C600.7,236.2,598.7,235,598.7,237.1L598.7,237.1z M591.7,261.8c1.7,0,2.4-1.1,3.8-7C594.3,254.8,593.1,257.1,591.7,261.8
		L591.7,261.8z M666.9,161.7c-8.1,4.8-14.6,16.6-19.7,35.5c-0.8,3-1.2,5.3-1.2,7c20.7-17,27.2-24.3,27.2-34.9
		C673.3,164.3,671.2,161.7,666.9,161.7L666.9,161.7z"/>
	<path class="st1" d="M106.2,295.6c12.8,0,18,0,24,11.3c0,3.8,1.1,4.7,1.1,8.7c-0.4,2.5-0.4,6.1-4.6,5.3c-3.7-0.7-1-17.8-15.5-17.8
		c-31.7,0-40.5,34.9-27.9,33.5c4.5-1,19-12,19-3.1c0,6.1-3.5,5-14.5,12.2c-9.8,7.8-18.1,17.5-25,29.1c-3.4,7-3.9,13.5-3.9,18.2
		c0,6.6,5.7,11.3,9.4,11.3c2.9,0,2.5-1.1,6.7-0.4c18,0,29.3-12.2,34.1-36.5c0.8,0,1.5-2.3,2.2-6.9c-12.6,0-13.3,8-12.2,15.6
		c-3.5,0.7-8.3,2.7-7.8-5.1c1.2-10.4,6-15.7,14.5-15.7c0-2,20.2,0.2,22.3,0c9.2-1,13.1-14.3,2.8-13.4c-1.5,0.3-2.8,0.4-3.9,0.4
		c-4.5-4.3,0.7-6.5,7.2-6.5c8.8,0,10.7,6.5,10.7,13c0,5.9-5.4,10-16.2,12.2h-6.7v5.2c0,15.3-7.1,28.9-21.1,40.8
		c-9.7,4.9-17.7,7.4-24,7.4c-14,0-23.3-3.9-27.8-11.7c-8.6-18.4,4.8-40.6,21.7-56.8c0.5,0,2.3-1.5,5.6-4.4
		C54.4,331.4,77.4,297.4,106.2,295.6L106.2,295.6z M62.1,360.2c0.4,0.6,0.6,1,0.6,1.3c-3.9,0-4.6,12.2-11.1,12.2
		c1.9,2.5,2.2,1.7,0,6c0.5,0,5.5-7.5,14.9-22.5L62.1,360.2L62.1,360.2z"/>
	<path class="st0" d="M230.8,21.2c2.3-0.6,4.6,0.8,5.2,3l5.4,20c1.5,5.4-6.8,7.7-8.3,2.2l-5.4-20C227.1,24.1,228.5,21.8,230.8,21.2
		L230.8,21.2z M298.6,96.8c0,3.9-2.8,3.9-4.4,7c1.7,0,2.5,1.1,2.5,3.2c0.6,0,1.7-1.7,3.1-5.1l-1.2-0.6c0.9-5.3,1.2-8.3,1.2-8.9
		C295.4,90.2,298.6,95.2,298.6,96.8L298.6,96.8z M293.2,107.8c-1.2,0-2.4,2.3-3.8,7C291.1,114.8,291.8,113.7,293.2,107.8
		L293.2,107.8z M198.2,18.9L218,52.7c2.8,4.9-4.6,9.2-7.4,4.3l-18.9-32.8c-0.9-1.6-0.7-3.5,0.4-4.9c1.7-0.1,3,0.5,3.8,1.8
		C196.7,20.2,197.5,19.5,198.2,18.9L198.2,18.9L198.2,18.9z M176.9,52.3c1.7-1.7,4.4-1.7,6.1,0l14.7,14.7c4,4-2.1,10-6.1,6.1
		l-14.7-14.7C175.3,56.6,175.3,53.9,176.9,52.3L176.9,52.3z M143,68.6c2.8-4.9,8.6,0,13.9,3.1l-3.4,3.8c1.7,0,2.5,1.1,2.5,3.2
		c0.6,0,1.7-1.7,3.1-5.1l-1.2-0.6l0.1-0.7l23.6,13.6c4.9,2.8,0.6,10.2-4.3,7.4l-32.8-18.9C142.6,73.3,141.9,70.6,143,68.6L143,68.6z
		 M145.8,106.1c0.6-2.3,3-3.6,5.2-3l20,5.4c5.4,1.5,3.2,9.7-2.2,8.3l-20-5.4C146.6,110.7,145.2,108.4,145.8,106.1L145.8,106.1z
		 M124.7,137.2c0-2.4,1.9-4.3,4.3-4.3l38.4,0c-5.3,2.7-10.9,5.7-16,8.5H129C127.3,140.9,124.7,139,124.7,137.2L124.7,137.2z
		 M399,137.2c0,2.4-1.9,4.3-4.3,4.3h-37.8c-5.6,0-5.6-8.6,0-8.6h37.8C397.1,132.9,399,134.8,399,137.2L399,137.2z M377.9,106.1
		c0.6,2.3-0.8,4.6-3,5.2l-20,5.4c-5.4,1.5-7.7-6.8-2.2-8.3l20-5.4C374.9,102.5,377.2,103.8,377.9,106.1L377.9,106.1z M380.7,68.6
		c1.2,2,0.5,4.7-1.6,5.8l-19.5,11.3c0.5-2.4,1.3-4.4,2.4-6.1c-0.6,0-1.3-0.6-2.2-1.7c0.4-0.7,0.8-1.6,1.2-2.9l13.8-8
		C376.8,65.8,379.5,66.6,380.7,68.6L380.7,68.6z M357.8,86.7c-7.3,4.2-14.3,10.3-17.3,5.1c-1.2-2-0.5-4.7,1.6-5.9l14.9-8.6
		C357.3,81.7,355.3,76.7,357.8,86.7L357.8,86.7z M346.8,52.3c1.7,1.7,1.7,4.4,0,6.1L332.1,73c-1.5,1.5-3.7,1.6-5.4,0.5
		c0.5-1.7,1.2-3.2,2.1-4.6c-0.6,0-1.3-0.6-2.2-1.7c2.9-4.9,10-10.8,14.2-15C342.4,50.6,345.1,50.6,346.8,52.3L346.8,52.3z
		 M330.4,18.4c5.4,3.1-1.5,11.1-6.5,19.8l-0.2-0.2c-1.5,0.6-2.6,0.9-3.4,0.9l0.6,4.3l-8,13.8c-2.8,4.9-10.2,0.6-7.4-4.3l18.9-32.8
		C325.8,17.9,328.4,17.2,330.4,18.4L330.4,18.4z M292.9,21.2c2.3,0.6,3.6,3,3,5.2l-5.1,19.2c-0.7-0.2-1.3-0.5-1.7-1
		c-1.5,0.6-2.6,0.9-3.4,0.9l0.6,4.1c-2.7-0.1-4.7-2.7-4-5.4l5.4-20C288.3,21.9,290.7,20.6,292.9,21.2L292.9,21.2z M261.9,0
		c2.4,0,4.3,1.9,4.3,4.3v37.8c0,5.6-8.6,5.6-8.6,0V4.3C257.6,1.9,259.5,0,261.9,0L261.9,0z M261.9,50.4c11.5,0,10.7,0,9.9,6.3
		c-9.9-1.2-20-0.6-29.5,1.8c0.5-0.6,1.1-1.1,1.6-1.4c-1.7-2.5-0.6-3.9-14.1,1.7l-0.5-1.6l-5.6,6.4c2.2-0.4,3.5-0.3,3.9,0.2
		c-24.8,11.6-42.5,35.2-46.1,62.9c-1.8,0.6-3.8,1.5-6,2.5C179.5,84.9,216.7,50.4,261.9,50.4L261.9,50.4z M241.2,58.8
		c-3,0.8-5.9,1.7-8.7,2.8C235.5,55.5,239.7,57.2,241.2,58.8L241.2,58.8z M274.8,51.4c4.2,0.6,8.2,1.5,12.2,2.7l0.9,6.3
		c-4.2-1.4-8.6-2.5-13.1-3.2L274.8,51.4L274.8,51.4z M290.3,55.1c35.3,12.2,60.2,46.6,58.3,86.4c-0.2,3.2-3.6,2.7-5.6,2.7
		c0-1.3,0.2-13.1-0.2-13.1c-2.4-32.1-23.4-58.9-52.1-69.8C290.4,59.1,290.3,57,290.3,55.1L290.3,55.1z M184.6,144.2h15.6
		c0.1-6.2,0.7-12.2,1.6-18.1l0.6-38.1c-8.9,10.7-14.7,23.6-16.8,37.5c5.9-1.1,8.7,3.7,6.3,7.7c3.4,5-2.9,7.5-7.2,10.4L184.6,144.2
		L184.6,144.2z M205.1,144.2h52.6c1.2-3.3,1.7-11.7,7.8-10.6c5.7,1.1,18.6,3.4,20.1,10.6h53.5c1-35-14.8-64.1-46.5-77.9
		c1.3,2.9,0.7,4.9-0.8,7.6c0.9,1.2,1.7,1.7,2.2,1.7c-1.5,2.2-2.4,5-2.7,8.3h-1.1c-0.8-2.8-1.3-5.4-1.7-7.9c0.4-0.6,0.6-1,0.6-1.3
		c0-1.8-0.4-4.5-1.1-8.3l0.6-1.8c-4.4-1.6-9-2.8-13.7-3.6l-0.5,10.1c-2,0-2.4-6.1-1.7-10.5c-26.2-3.7-52.2,6.2-69.5,26.3l0.8-0.3
		c0.8,6.4,1,9.8,0.6,10.2c2.9,2.4,5,3.6,6.3,3.5l0.5,0.5l-5.3,5.5c-0.8,6.7-1.3,13.3-1.5,19.7c2.9,2.8,2.7,7.9-0.7,15.3
		C205.1,142.7,206.3,141,205.1,144.2L205.1,144.2z"/>
	<path class="st1" d="M441.1,268.8h4.2c2.6,0,5,3,7.2,9c-0.1,2.3-40.7,86.8-39,117.1l0.6,4.9h0.6c9.6-6.7,20.4-17.4,32.4-32.1
		c0.6-0.6,1.1-1.2,1.6-1.7c0.3-0.4,5-14.7,8.7-15.3c5.7-0.5,11,0.3,13.8,6.2c-6.3,10.3-7.8,19.3-7.8,31.2c0,2.5,0.4,4.8,1.2,7
		c9-7.4,17.3-15.5,24.8-24.3c0.5-3.2,2.1-7.3,4.5-12.3c0-4.7,3.4-13.7,10.2-27.1c2-2,3.6-5,4.8-9l1.2-0.4c10,1.4,15,3.1,15,5.3
		c0,0.3-3.4,8.2-10.2,23.9l0.6,0.8l-7.8,18.5c0.1,0.6,0.5,0.8,1.2,0.8c11.9-18.1,21.2-25.5,31.2-25.5c8.7,0,12,5.1,12,14.4
		c0,13.2-5.4,29.4-5.4,30.4h0.6c10.5-12.1,17.9-20.5,22.2-25.1c2.7-10.7,9.4-20.6,20.3-29.6c6.3-3.6,11.7-5.3,16.2-5.3
		c8.8,0,15,3.5,18.6,10.7c0.4,1.5,0.6,3,0.6,4.5c0,17-41.4,29-41.4,31.7c0,8.2,2.2,12.3,6.6,12.3c8.2-0.7,21.6-6.9,40.2-18.5
		c6.2-1.8,8.9-6.1,15.9-9.7c-2.8-6-2.1-8.7-1.5-13.9c1.1-11,10.6-16.9,28.5-17.9c10.4-0.1,18.7,5.6,17.8,12.9
		c-0.5,4.7-4.1,8.9-10.8,12.7l-3.7-0.2l-0.9,1.8l-1.8-0.1c0-1.8-0.2-1,1.5-3.4H675c-0.1,1.1-0.8,1.6-2.1,1.6
		c0.1-0.4-0.1-0.5-0.6-0.5c6.1-5.6,9.3-9.7,9.5-12.2c0.7-7.3-21.7-6.1-22.5,3.4l-1,3c-0.8,8.6,6.3,18.5,21.4,29.8
		c6.8,7.9,10,14.2,9.6,18.7c-0.9,0-3.6-0.6-1.6-2.7l-2.6-0.5l1.2,1.8l-0.9,2.2l-1.8-0.5l-1.5,1.2v0.4c2,0.1,5.4,3.5,5.7-0.1h1.3
		l-2.8,9.5l-1.2-0.1c0.1-1.1-0.3-2-1-2.7c1.6-1.5,1.3-0.9,1.5-2.6c-1.7,1.4-3.1,2.1-4,2.1c0.4,0.4,0.6,1.3,0.5,2.6l0.6,0.1
		c0.1-1.2,0.6-1.8,1.5-1.8l0.2,4c-0.3,2.9-5.8,6.9-16.4,11.9c-5.9,1.4-10.6,2-14.2,2c-14.6-2.5-21.3-9.5-20.3-21.1
		c0.6-6.7,4.3-12.3,11.1-16.9c1.2-0.3,5,0.5,6.1,3.4c-4.4,4.1-7,8.3-6.9,12.3c0.4,24.4,29.5,11.2,30.8-2.1
		c0.6-6.1-4.7-13.5-15.8-22.2c-3.8-3.8-6.9-7.4-9.2-10.8c-5,5.3-16.5,13.7-34.5,25.2c-18.2,11.2-45.9,12.7-46.8-12.4
		c-6.6,9-14.2,18.3-22.7,28c-3.2,3-6.4,4.5-9.6,4.5c-3.4,0-5.6-1.8-6.6-5.3c6.4-27.9,9.6-44.3,9.6-49.3l-0.6-2h-0.6
		c-8,5.3-16.2,13.7-24.6,25.1c-8.4,11.4-12.6,17.7-12.6,18.9c0,0.5-1.8,2.5-5.4,6.1c-5.8,0-10.9-0.2-14.4-3.3
		c0-5.4-0.4-3.8,2.5-12.2c-5.1,6-9.4,10.5-12.7,13.4c-2.8,1.6-5.4,2.5-7.8,2.5c-7.9,0-13.3-6.7-16.2-20.1v-3.5
		c-6.1,7.2-13.2,14.4-21.1,21.8c-12.5,9.7-24.9,5.2-25.8-13.5c-1.1-21.9,5-48.5,17.4-81.4h0.6c0-0.2-0.2-0.4-0.6-0.4
		c1.6-4.9,2.8-7.4,3.6-7.4c4.4,0.8,2.9,4.4,1.8,7.8l1.2,0.4c5.2-13.3,9.4-23.3,12.6-30c1.6-2.6,2.4-4.7,2.4-6.2
		c-1.4,0-4.8,3.8-6,4.9l0.6,2.1c-1.3,0-2.7,1.9-4.2,5.8l0.6,2.5c-2.9,7.7-5.7,11.5-8.4,11.5l-0.6-0.8c2.8-9,7.2-18.6,13.2-28.8
		C436.6,269.4,439,268.8,441.1,268.8L441.1,268.8z M419.5,314.8c-0.8,0-1.8,3.7-1.8,7.4h0.6c0-0.9,1.2-2.9,3.6-5.8
		C421.6,315.7,420.8,315.1,419.5,314.8L419.5,314.8z M472.4,329c12.8,0,11.6,8.3,7.2,8.6v1.2c0,1.7-2,3.1-6,4.1
		c-4,0-7.2-1.2-9.6-3.7c0-3.4,2.2-6.8,6.6-10.3H472.4L472.4,329z M540.8,389.9c3.5,4.1-1.3,4.7-3,7c1.6,0,2.4,0.7,2.4,2.1
		c0.6,0,1.6-1.1,3-3.3l-1.2-0.4c0.8-3.4,1.2-5.4,1.2-5.8C542.7,389.3,540.8,388.6,540.8,389.9L540.8,389.9z M534.2,405.9
		c1.5,0,2.2-0.6,3.6-4.5C536.7,401.4,535.5,402.9,534.2,405.9L534.2,405.9z M605.5,341c-7.6,3.1-13.8,10.8-18.6,23
		c-0.8,1.9-1.2,3.4-1.2,4.5c17.2-9.7,25.8-16.5,25.8-20.6C611.5,344.4,611.6,341,605.5,341L605.5,341z"/>
	<path class="st1" d="M206,277.6c4.8,0,8,3.2,9.6,9.5c-5.2,9.4-9.8,19.8-13.8,31.2c4.5,0,27.6-4.9,27.6-4.9h5.4
		c9.5,8.5-4.1,7.7-27,11.9c-6.8,1.5-10.2,2.6-10.2,3.3c-11.2,28.9-16.8,50.2-16.8,63.7c0.4,4.7,1,8.1,1.8,10.3
		c8.7-6.2,16.9-13.2,24.6-21.2c-1.2-11.4,11.8-34.3,28.7-34.3c7.3,0,14.2,5.5,13.8,6.6c-0.5,1.3-4.5,2.9-6,2.5
		c-3-1.9-5.4-2.9-7.2-2.9c-12.2,0-20.3,34.2-12.6,32.9c8.6-3,18.4-9.7,29.4-20.1c3.5-9.2,7.5-15.5,12-18.9c2.8-0.9,9.9,2.2,9.6,4.1
		c-6.8,14.2-11.2,25.3-13.2,33.3v7.8c1.2,4.6,1.8,7.2,1.8,7.8c5.7-4.1,15.5-12.2,29.4-24.2c3.3-2.4,6.2-4.8,8.9-7.1
		c0.8-2.4,2-5.2,3.5-8.3c0.1-4.7,3.4-13.7,10.2-27.1c2-2,3.6-5,4.8-9l1.2-0.4c10,1.4,15,3.1,15,5.3c0,0.3-3.4,8.2-10.2,23.9l0.6,0.8
		l-7.8,18.5c0.1,0.6,0.5,0.8,1.2,0.8c11.9-18.1,21.2-25.5,31.2-25.5c8.7,0,12,5.1,12,14.4c0,13.2-5.4,29.4-5.4,30.4h0.6
		c16.4-19,25.2-28.7,26.4-29.2c1.4-0.3,5.9,0.4,5.4,2c-8.7,13.8-19.9,28.4-33.6,44c-3.2,3-6.4,4.5-9.6,4.5c-3.4,0-5.6-1.8-6.6-5.3
		c6.4-27.9,9.6-44.3,9.6-49.3l-0.6-2h-0.6c-8,5.3-16.2,13.7-24.6,25.1c-8.4,11.4-12.6,17.7-12.6,18.9c0,0.5-1.8,2.5-5.4,6.1
		c-5.8,0-10.9-0.2-14.4-3.3c0-6-0.2-4.4,3.7-15.7c-2.7,2.3-5.7,4.9-8.9,7.7c-1.9,0.7-31.1,32.6-37.8,0.4c-3.4,0-0.6-13.5-0.6-13.6
		c-2.6,0-10.2,12.7-27.6,12.7c-4.9,0-8.5-1.7-10.9-5.2c-18.2,20.4-42.5,37.1-42.5-10.4c0-12.2,2.6-28.6,7.8-48.9l-22.2,1.6
		c-0.8-0.9-1.4-2.4-1.8-4.5c-0.4-4.3,21.9-3.8,26.4-5.8c8.1-22.9,14.7-37.4,19.8-43.6C200.5,278,203.3,277.6,206,277.6L206,277.6z
		 M222.3,317.5c0.4,0,0.6,0.1,0.6,0.4l13.2-2.1v-0.4C230.1,315.4,222.3,316.7,222.3,317.5L222.3,317.5z M214.4,318.3v0.4h2.4v-0.4
		H214.4L214.4,318.3z M201.2,320.4v0.4l12.6-1.6v-0.4L201.2,320.4L201.2,320.4z M263.6,356.1c0,0.9-0.2,1.6-0.6,2.1h1.2v-2.1H263.6
		L263.6,356.1z M260.7,359.4v0.4c1.2,0,1.2-0.6,1.2-1.2C261.1,358.7,260.7,358.9,260.7,359.4L260.7,359.4z M258.9,370.9
		c0,1.1-1.2,2-3.6,2.9c0.8,0.9,1.2,1.7,1.2,2.5h0.6c0-1.2,1-2.4,3-3.7C260.1,371.7,260.2,370.9,258.9,370.9L258.9,370.9z
		 M258.9,374.2c0.4,1,0.6,2.3,0.6,3.7h0.6l0.6-2.9L258.9,374.2L258.9,374.2z M352.3,391.7c3.5,4.1-1.3,4.7-3,7
		c1.6,0,2.4,0.7,2.4,2.1c0.6,0,1.6-1.1,3-3.3l-1.2-0.4c0.8-3.4,1.2-5.4,1.2-5.8C354.2,391.1,352.3,390.4,352.3,391.7L352.3,391.7z
		 M345.7,407.7c1.5,0,2.2-0.6,3.6-4.5C348.2,403.2,347,404.7,345.7,407.7L345.7,407.7z"/>
</g>
</svg>
