<?xml version="1.0" encoding="utf-8"?>
<!-- Generator: Adobe Illustrator 21.1.0, SVG Export Plug-In . SVG Version: 6.00 Build 0)  -->
<svg version="1.1" id="Layer_1" xmlns="http://www.w3.org/2000/svg" xmlns:xlink="http://www.w3.org/1999/xlink" x="0px" y="0px"
	 viewBox="0 0 720 597" style="enable-background:new 0 0 720 597;" xml:space="preserve">
<style type="text/css">
	.st0{fill-rule:evenodd;clip-rule:evenodd;fill:#FF8D90;}
	.st1{fill-rule:evenodd;clip-rule:evenodd;fill:#F6914D;}
	.st2{fill-rule:evenodd;clip-rule:evenodd;fill:#F3DF1D;}
	.st3{fill-rule:evenodd;clip-rule:evenodd;fill:#69DED9;}
	.st4{fill-rule:evenodd;clip-rule:evenodd;fill:#2E3445;}
</style>
<g>
	<path class="st0" d="M261.3,13.7c1.2,0.2,2.8,0.6,5.3,1.4c-1.5,0.8-2.9,2.2-4.6,2.6c-4.7,0.9-9.4,0.7-14,0.1
		c-26.2,8.6-51.1,20.1-74.3,34.1c1.7,0.3,2.8,0.5,4.1,0.9c-2.9,1.8-6.5,2.8-10.1,2.8c-7.5,4.7-14.7,9.7-21.8,14.9
		c9.3,0.2,18.7,0.6,28,1.2c2,0.2,3.7,2.8,5.4,4.9c-8.8-2.8-17.3-3.2-26.8,0c-3.7,1.2-8.7-0.1-13.2-1c-20.8,16.1-39.7,34.5-56.5,54.8
		c3.9-0.5,7.4-1.3,11-1.8c0.2,0,1.2,2.2,1,2.4c-8,5.8-6.5,5.2-16.8,5.3c-2.1,2.6-4.2,5.3-6.2,8h317.9c-1.9-1.3-4.3-3-5-4.6
		c-4.8-0.4-13.9-7.6-16-10.2c-7.2,0.9-24-10.9-28.5-16.3c-5.5-6.6,15.5-16.9,21.9-19c6.1-2,12.1-3.8,18-1.3
		c2.1-3.1,11.7-1.2,16.1-0.6c3.8,0.6,15.2,2.8,17.7,5.1c1.3,1.2,2.5,2.4,3.5,3.7c3.5-2.6,12.4,2.9,13.4,3.2l28.2,1
		c1,0,1.7,0.8,2.7,1.4c-1,0.4-2,1.2-2.9,1.2c-7.2,0-14.6,0-21.8,0.1c5.7,3.7,13.3,9,15.6,14.7c1.4-0.5,2.9-0.3,4,0.8
		c6,5.7,11.1,13.2,15.2,20.8h30.7c3.4-1.9,6.9-3.6,10.5-5.3c-3,0.2-6.1,0.4-9,0.7c-1.2,0.2-2.4-0.8-3.9-1.2c1-1,1.7-2.4,2.9-2.6
		c6.3-1.4,12.4-2.6,19.5-4c1.7,0,2.9,0.2,3.2,0c2.9-5.5,8.8-3.4,13.9-4.3c16.1-2.6,31.7-0.8,47.6,0.2c7.8,0.4,15.9,0,23.9,0.2
		c1.5,0,2.7,1,4.1,1.6c-1.5,0.8-2.7,2.2-4.1,2.2c-3.2,0-6.3-1.2-9.5-1c-5.7,0.4-14,1.7-21.3,2.4c4.7,1.1,15.6,6.6,17.9,10.1
		c4.1,0.2,3.5,0.7,4.8,1h45.7c-8.9-11.9-18.5-23.2-28.8-33.9c-0.3,1.2-0.6,2.5-1.3,2.8c-6.6,2-13.7,3.8-20.5,5.3
		c-1.5,0.4-3.4-0.8-5.1-1.4c1.5-0.4,3.2-0.6,4.6-1.2l18.1-7.3c0.7-0.2,1.6-0.1,2.5,0c-14.7-15.1-30.8-28.9-47.9-41.3
		c-3.6-1.5-43.5,0.7-49.3,0.9c-5.6,0.2-11.7-0.6-18.8-1c-2,0.4-3.4,1.4-4.1,1.2c-12-4.2-24.2,0-36.4-1.2c-1.5-0.2-2.9-1-4.4-1.4
		c1.5-0.8,3.2-2.4,4.6-2.4c34.4-0.4,68.8-0.5,103.2,0.4c-19.9-13.8-41.2-25.6-63.7-35.2c-5,1.3-11,1.3-15.6-0.4
		c-8.3-3-16.6-5.5-25.6-4.2c-5,0.7-15.8,6.1-18.8,5.1c-3.2-1.2-5.4-3.8-8.1-6.1c1-0.4,2.4-1.4,2.9-1.2c4.9,2.8,8.5,0.4,13.4-1
		c6.7-1.9,14.2-2.4,22-3.3C403.6-4.4,330-5.8,261.3,13.7L261.3,13.7z M473.1,18.2c5.1,1.7,10.1,3.5,15,5.3
		C482.8,23.2,476.2,23.9,473.1,18.2L473.1,18.2z M509.6,109.6c-12,0-23.2,0-34.4,0c-2.2,0-4.4-0.6-6.6-1.4c-1-0.2-1.5-1.2-2.2-1.8
		c1-0.2,1.7-0.8,2.7-0.8c4.1,0,8.1,0.2,12.2,0c4.4-0.2,8.5-1,12.9-1.2c5.4-0.2,10.7,0,16.1-0.2c4.9-0.2,9.8-1.2,14.4-1
		c3.2,0.2,8.3-3,8.8,3.6c0.6,7,11.8-1.3,25.1-2.4c14.4-1.4,28.8-0.8,43,1.2c1.2,0.2,2.2,0.6,3.2,1c-0.7,0.6-1.7,1.4-2.4,1.6
		c-20.3,1.4-40.8,3.2-61,3.8C531.4,112.4,520.9,110.4,509.6,109.6L509.6,109.6z M265.3,92.9c-6.1-0.8-11.2-1.8-16.4-2.2
		c-4.9-0.4-9.5-0.2-14.4-0.4c-3.7-0.2-7.1-0.4-10.7-0.6c-13.2-0.7-10.2-2.2-19,4.5c2.7,0.6,5.4,1.4,8.1,1.6
		c8.8,0.6,17.6,0.8,26.4,1.4c2,0.2,3.7,1.6,5.4,2.4c-1.7,0.4-3.4,1.4-5.1,1.2c-22-1.2-43.9-2.6-65.7-4c-1.5,0-2.7-1.4-4.1-2.2
		c1.5-0.6,2.7-1.4,4.1-1.6c11.4-1.1,22.1,2.9,28.6-4.9c1.7-2,7.1-2.8,11-2.8c25.7-0.5,31.6-1.1,57.4,3.6c2,0.4,3.9,1.4,5.6,2.2
		C268.4,93.3,273,92.9,265.3,92.9L265.3,92.9z M356.4,69c-6.6,0.2-12.2,1-17.8,0.8c-3.4-0.2-6.3-2.6-9.8-3.2
		c-10.7-2-21.7-3-32.9-1.2c-6.6,1.2-13.4,0.8-20.3,1c-0.7,0-1.5-0.6-2.4-1c1-1,1.7-2.6,2.7-2.8c5.9-1.2,12-1.8,17.8-2.8
		c3.4-0.6,6.6-2.4,9.8-2.4c7.8,0,15.6-1.2,22.9,3.2c7,4.3,22.9,2.7,30.3,3.2c2.7,0.2,5.1,1.8,7.6,2.6C362,67.4,359.8,68.2,356.4,69
		L356.4,69z M376.9,65.4c16.6,2.8,32.9,7.1,49.3,7.1c12.9,0,21,6.9,32,8.9c1,0.2,1.5,2,2.2,3c-1.2-0.2-2.7-0.4-3.9-0.6
		c-8.3-2.4-16.4-5.5-24.9-7.3c-7.8-1.4-15.9-1.2-23.9-2c-10.5-1.2-21-2.4-31.5-4c-2-0.4-3.4-2.6-5.1-4
		C372.7,65.8,374.7,65.4,376.9,65.4L376.9,65.4z M150.1,109.7c-11,0.2-21.7-2-31.7,2.2c-2.2,0.9-13.1-2-15.6-2.6
		c10-1.3,23.8-4.8,30.8-4.9c9.5-0.2,19.3,1.2,28.8,2.2c1.4,0.2,5.7,3.5,3.9,6.1C165.5,113.8,152,110.2,150.1,109.7L150.1,109.7z
		 M308.5,100.8c8.5,1.8,16.6,3.4,24.4,5.5c1.7,0.4,2.9,1.8,4.4,2.6c-1.5,0.4-3.2,1.4-4.6,1c-6.6-1.2-12.9-2.4-19.5-3.8
		c-6.3-1.6-12.4-3.4-18.8-5.3c-0.7-0.2-1.2-1-2-1.4c0.5-0.4,1-1.2,1.5-1.2C298.5,99,303.2,100,308.5,100.8L308.5,100.8z
		 M131.4,138.1c9.8-6.1,20.7-3.2,31-3.8c0.7,0,1.7,1.4,2.4,2.4c0.2,0.2-1,1.4-1.7,1.4C152.6,138.5,142.1,138.7,131.4,138.1
		L131.4,138.1z M425.4,40.3c-2.8,0.9-7.3,1.4-10,1.4c1.7-1,2.9-2.4,4.9-3c8.8-3,17.3-0.6,25.9,1.4c1.2,0.2,2,1.6,2.9,2.6
		c-1.2,0.4-2.7,1.4-3.7,1.2C438.4,42.6,431.7,40.3,425.4,40.3L425.4,40.3z M218,45.6c-4.1-0.2-7.8-0.6-11.5-1.2
		c8.8-2.7,6.9-3.2,18.3-3.2c1.5,0,2.7,1,4.1,1.4c-1.5,0.8-2.7,2-4.1,2.2C222.6,45.6,220.4,45.2,218,45.6L218,45.6z M485.7,132
		c-4.9-0.4-8.8-0.8-12.9-1.4c-1.2-0.2-2-1.2-2.9-1.8c1.2-0.6,2.4-2,3.7-2c6.6,0.6,12.9,1.6,19.3,2.6c1.1,0.1,1.2,2.5-0.7,2.6
		C490.1,132.2,488.4,132,485.7,132L485.7,132z M240,115.4c-5.9-2-11-3.8-15.9-5.9c-0.7-0.2-1-0.8-1.7-1.4c0.7-0.2,1.5-0.8,2-0.6
		c5.9,1.6,12,3.4,17.8,5.3C241.7,113.6,241.2,114.6,240,115.4L240,115.4z M208,65c9.7,0,6.9-0.9,12.9,1.6c-1.5,0.8-2.7,2.2-4.1,2.2
		c-5.9,0.2-11.5,0.2-17.3,0c-0.7,0-1.7-1-2.4-1.4C199.7,65.9,203.1,65.8,208,65L208,65z M294.7,38.6c-5.4-1.3-2.7,0.2-10-2.2
		c1.2-0.8,2.7-2.6,3.7-2.4c5.9,0.6,11.7,1.4,17.6,2.6c1,0.2,1.7,1.8,2.7,2.8c-1.2,0.4-2.7,1-3.9,1C301.3,40,298.2,39.4,294.7,38.6
		L294.7,38.6z M295.8,91.5c-1.7,0-2.4,0.2-3.2,0c-9.8-2.3-9.7-0.7-9.3-3.4c13,0,7.3-0.8,20.3,2.4C301.5,90.9,299,91.3,295.8,91.5
		L295.8,91.5z M179.2,77.3c2.6-1.1,8.5,1.2,12.7,2.2c-0.2,0.4-1,1.4-1,1.4C187,79.8,181.1,83.8,179.2,77.3L179.2,77.3z M335.6,53.2
		c-0.7,5.3-5.6,1.4-8.8,2.6C325.9,53.5,324.4,53.2,335.6,53.2L335.6,53.2z M426.8,56.1c1.5,0.8,2.2,1.4,2.9,2.2
		c-2.9,0.6-5.6,1.2-8.5,1.8C422.8,57.4,421.2,57.4,426.8,56.1L426.8,56.1z M548.2,77.9c2.7,0.6,4.6,1,6.3,1.6
		c-2,0.8-3.7,2.2-5.6,2.2c-3.4,0.2-6.8-0.6-10.3-0.8C541.6,79.9,544.5,78.9,548.2,77.9L548.2,77.9z M328.2,9.7
		c-12.9,1.4-25.1,2.6-37.6,3.6c-1.5,0.2-2.7-0.4-4.1-0.6c1.2-1,2-2.4,3.4-2.6c14.4-2.5,28.3-5.5,43.2-6.7c4.9-0.4,10,0.8,14.9,1.4
		c0.7,0.2,1.5,1.6,2,2.4c-1,0.4-2.2,1-3.2,1C340.9,8.7,334.8,9.1,328.2,9.7L328.2,9.7z M332.6,30.8c6.1,0.4,11.5,0.8,16.8,1.4
		c1,0,1.7,1,2.4,1.6c-0.7,0.4-1.7,1-2.4,1c-8.3-0.4-16.4-0.8-24.6-1.4c-0.5,0-1-0.6-1.7-1C325,29.9,324.3,30.8,332.6,30.8
		L332.6,30.8z M429.7,25.7c-4.4,1-9,1.8-13.7,2.2c-2.2,0.2-4.4-0.8-6.8-1.2c2.4-0.8,4.6-2.4,7.1-2.4
		C420.7,24.1,424.8,24.9,429.7,25.7L429.7,25.7z M357.7,40.9c3.4-1,6.6-1.8,9.8-2.2c1-0.2,2.4,0.8,3.4,1.2c-0.7,0.8-1.5,2.2-2.2,2.4
		c-5.6,1-11.2,2-16.8,2.8c-1,0.2-2.2-0.6-3.2-0.8C352.5,42,353.3,42.5,357.7,40.9L357.7,40.9z M386.5,22.5
		c-4.6,0.4-8.8,0.4-13.2,0.2c-0.7,0-1.7-0.6-2.4-1c0.7-0.6,1.7-1.4,2.4-1.6c6.3-0.6,12.9-1,19.3-1.4c1.2,0,2.4,0.8,3.7,1.2
		c-1.2,0.4-2.2,1.2-3.7,1.4C390.9,21.6,389,21.8,386.5,22.5L386.5,22.5z M506.5,44.5c2,0.8,3.2,1.6,4.4,2.2
		c-1.2,0.6-2.7,1.6-3.9,1.6c-5.6-0.2-11.2-0.8-16.6-1.2c-0.5,0-1-0.8-1.5-1c1-0.4,1.7-1.4,2.7-1.4C496.2,44.3,500.9,44.5,506.5,44.5
		L506.5,44.5z M348.7,20c0.2-0.8,0.2-1,0.5-1c3.4,0,6.8,0,10,0c-0.2,0.4-0.5,1.2-0.7,1.2C355.3,20.4,351.9,20.6,348.7,20L348.7,20z"
		/>
	<path class="st1" d="M27.6,221.4L34,222c-2.1,0.6-4.6,2.4-7.8,3.1c-5.4,13.4-10,27.2-13.8,41.3c8.6-0.5,16.4,1.8,24.1,2.6
		c0.7,0,1.5,2.8-1,2.4c-9.1-0.9-16.8-1.5-24.4-0.3c-2,8-3.8,16.1-5.3,24.2h123.7c3.8-2.1,12.5-3.3,16.7-3.7c2.5-0.2,7.5,0,9.4,1.2
		c3.3-2.1,14.8,2.2,16.9,2.5h19.9c-0.6-0.2-1.2-0.4-1.8-0.6c4.9-2,3.6-1.9,8.9-1.8c1.4-3.5,6.4-14.7,10.4-14.9
		c1.3-3.7,5-7.2,8.2-10.1c-7.7-0.2-9.6,1.3-12.6,1.1l-48.3-3.8c3.7-5.5,10.2-2.4,15.4-2.4c13.2-0.2,26.4,0.6,39.3,1.2
		c3.4,0.2,6.8,0.4,10.2,0.6c0.1,0,6.8-5.5,10.4-4.8c1.5-2.3,2.2-3,4.9-4.3c-1.6-0.9-2.7-1.7-3.9-2.6c1.5-0.2,2.9-1,4.2-0.8
		c7.8,1.2,2.1,1.9,8.8,0c2.6-0.7,9.2-3,11.5-1.4c7.9-4,27.2,2.6,30.3,8.5c4.5-0.3,9-0.6,13.5-0.8c3.9-0.2,8.3,0.8,12-0.2
		c10.1-2.9,16.1-0.9,25,0c3.5-10.4,13.8-30,23.7-34.8c-0.8-1.5-0.7-3.2,0.4-4.4c3-3.4,6.3-6.4,9.9-9.3c-3.7-0.1-11.3,0.6-13.2-1.4
		c-5,2.3-13.3,2.2-19.5,2.6c-2.6,0.2-9.3,1.1-11.4-0.1c-2.3,1.7-4.2,2-7.2,2.4c-2.5,0.4-9.2,1.8-12.2,1.8c-2.6,3.6-5.7,5.1-7.9,6.4
		l-20.3,12.2c-7.8,3.5-11.1-18.3-4.3-34.9c-2.2,0.4-4.6-0.3-6.4-0.8c5.3-1.9,4.1-2.2,7.2-1c3.4-7.3,7.3-13.6,14.9-16.5
		c-0.9-3.5,4.4-6.5,7.9-8.9c5.2-3.6,21-12.6,26.9-12.3c2.4,0.1,4.7,0.4,6.9,0.8c1.4-7.2,38.7-9.8,48-4.7c0.7-1.4,2.1-2.2,3.7-2.1
		c7,0.5,14.4,2,21.5,4l-2.4-3c-2.4-0.5-4.6-1.7-6.5-3.1H287.7c4.8,0.9,9.6,1.9,14.4,2.9c0.7,0.2,1.2,1,1.7,1.6
		c-2,0.6-3.7,0.8-6.3,1.2c-15.6-1.6-30.5-3.6-45.4-5.1c-5.3-0.5-14.9,0.1-18.4-0.7H67c-2,2.8-3.9,5.5-5.8,8.3
		c14.4-0.9,15.8-1.6,31.4-1.3c1.2,0,2.4,1.2,3.9,1.8c-3.5,1.7-2.9,2-7.1,2c-10.1,0.3-20.2,0.5-30.4,0.9c-2.2,3.4-4.4,6.8-6.5,10.2
		c5.5-2.8,9.9-1.8,16.9-1.6c1,0,1.5,1.6,1.2,2.4c-11.5,1.1-8.9,2.3-18.5-0.3c-4.3,7.1-8.4,14.4-12.3,21.9c7.3-1.8,14.1,0.2,21,2.3
		c0.7,0.2,1.5,0.8,2,1.4c-1,0.4-2,1.2-2.9,1.2H37.4c-1.1,2.1-2.1,4.3-3.1,6.4c4.6,0,9.3,0,13.9-0.2c12.4-0.6,20.9-3.8,34.4-2.2
		c9.3,1.2,18.3,2.6,28.1,3.8c7.3-0.4,13.7-1.2,20-1.2c3.7,0,17.1,2.7,21,3.8c1.2,0.4,2.4,1,3.4,1.4c-1.2,0.4-2.7,1.2-3.9,1
		l-18.8-2.4c-9.3,0-18.8,0.2-28.1-0.2c-7.6-0.4-15.1-2.4-22.7-2.4c-11,0.2-22,2-32.9,2.2c-5.3,0.1-10.6-0.1-15.9-0.4
		C31,213.7,29.3,217.5,27.6,221.4L27.6,221.4z M316.2,295.3h13.9c0.4-6.6,1.7-17.9,3.8-21.2c1.4-2.1,2.9-4,4.4-5.7
		c-1.7-1.5-1.3-3.9-0.9-6.1l-49.8,1c-3,4.3-13.5,13.7-18.1,13.9c-1.9,2.6-6.8,7.4-9.8,8.3l-6,6.2c2,0,1.6-0.1,3.2,1.2
		c-0.1,0-0.1,0.1-0.2,0.1c2-0.5,3.8-1.2,5.5,0.2c2.9-1.8,3.1-1.7,7.2-2.4c5.2-0.9,15.9-2,22.3-0.8l0.4,0l0,0.1
		c1.5,0.3,3,0.8,3.9,1.9c4-1.2,5.4-1.3,9.9-0.2c-1.5-3,2.5-1.2,3.8-1.4c0.7-0.2,2.2,1,3.2,1.6c-1.2,0-2.6,0.2-4.3,0.5
		C311.2,293.3,313.9,294.3,316.2,295.3L316.2,295.3z M382.3,295.3h26c0.9-2.3,1.9-4.6,2.8-6.9c-3.3,0.2-6.5,0.3-9.9,0.4
		c-0.7,0-1.5-0.8-2-1.2c0.7-0.4,1.5-1.2,2-1.2c3.6-0.1,7.1-0.1,10.7-0.1c5.5-13,11.8-25.8,18.8-38.4c-1.6-0.5-3.2-1.1-4.7-1.6
		c2.2-0.5,4.4-1.2,6.6-1.7c2.4-4.3,5-8.6,7.6-12.9c-2.8,1.6-20.3,11.6-22.5,11.5l-1.4,2.6c-6.1,5.1-9.5,8.9-14,15.2
		c11.1,2.5,9.6,1.8,11.5,7.3c-1.2-0.2-2.7-0.6-3.9-0.8c-3.7-0.5-7.4-1-11.1-1.5c-1.6,2.3-3.7,5.9-5.8,6.3
		C392.1,277.2,385.7,288.8,382.3,295.3L382.3,295.3z M440.2,295.3h30.4c0.3-1.7,0.2-1.2,8.7-1.2c0.5,0.4,0.8,0.8,1.1,1.2h4.5
		c0.3-0.7,0.7-1.4,1.2-2.1c-2.8-2.7,1-9.4-1.4-23.5c-2.3,0.5-4.5,1.1-6.8,1.9c-4.2,0.2-7.6,0.6-11,0.8c6.9-4.6,6.7-5.8,16.8-8.5
		l-6.9-14.8c-4,0.1-7.9,0.2-11.9,0.2c-4.2,6.7-8.1,13.3-11.7,20l0.4,0.1c-0.3,0.6-0.8,1.4-1.4,1.8
		C447.8,279.2,443.8,287.3,440.2,295.3L440.2,295.3z M541.6,295.3h23.7c0-0.3-0.1-0.6-0.1-0.9l-2.8-1.8c-15.2,3.8-11.3-0.2-20.6-3.2
		C541.8,291.4,541.8,293.3,541.6,295.3L541.6,295.3z M605.3,295.3h108.9c-0.9-4.7-1.8-9.4-2.9-14.1c-10.5,0.3-20.7,2.4-30.4,6.8
		c-2.2,1-5.6,0.8-8.3,0.8h-69.6L605.3,295.3L605.3,295.3z M541.8,285.6c5.3,4.9,11.8,4.8,18.5,3.8l-9.7-16c-3.2,1.3-5.9,1.2-9.8,1.6
		L541.8,285.6L541.8,285.6z M603.9,284.5c12-0.3,24.1-0.1,36-1.2c12-1.2,23.2-1.2,34.9,1.4c8.6,1.9,3.9-6.9,22-7.7
		c4.3-0.2,8.8-0.3,13.5-0.3c-8.8-37.1-23.3-71.9-42.5-103.5c-1.7-0.6-3.4-1.2-5.1-2c-1.5-0.6-2.9-1.4-4.6-2l6.8-0.7
		c-3-4.7-6.1-9.4-9.2-14c-3.3,0.2-6.7,0.4-10,0.5c-1.5,0-3.2-1.2-4.6-1.8c5-2.8,2.8-2.1,12.2-2.2l-0.2-0.2h-15.4
		c-1.1,0.7-2.1,1.4-3.2,1.8c-1.7,0.2-3.7-0.2-5.9,0.2c-1.7,0.4-3.2,0.6-4.6,0.8l2.5-2.8h-14.7c4.8,4.8,8.7,11.1,10.3,16.8
		c8.6,1.3,5,1.3,10,4.4l-9.3,0.6c-0.2,1.2-1.1,2.2-2.3,2.7c-5.9,2.5-15.9,3.2-22.5,4.1c-4.4,0.6-8.7,1.7-12.7,0.1l-2.4,1.3
		c5.9,0.2,11.6,0.6,17.4,1.1c2.4,0.2,5.1,2.8,7.1,4.7c1,1,0.7,2.8,1,4.5c-1.2-0.6-2.4-1.4-3.9-1.6c-6.6-1.2-13.2-3.2-19.8-3.4
		c-12.1-0.4-24.2-1-36.6,1.3c-1.5,0.4-2.9,0.8-4.2,1.2c5.3,2.5,10.3,5.4,15.3,8.8c4.6,0,9.2,0.1,13.8,0.4
		c18.3,1.2,36.6,3.4,54.7,5.3c0.7,0,1.2,0.8,2,1.4c-0.7,0.4-1.5,1.2-2.2,1.2c-9.3-0.4-18.5-1.2-27.8-1.6
		c-11.3-0.6-22.5-1.1-33.8-1.6c3.7,3.1,16.7,14,15.1,18.6l4.7,4.1c6.1,1,12.8,0.2,19.1,0.2c0.7,0,1.7,0.6,2.4,1
		c-0.7,0.6-1.7,1.6-2.4,1.6c-5.6,0.1-11.2,0.1-16.8,0.1c4.2,5.9,11.1,21.4,12.4,29c4.5,0.4,7.1-0.4,11.5-0.8
		c-4.2,2.5-6.8,5.9-11.1,5.9C603.8,267,604.3,278.2,603.9,284.5L603.9,284.5z M492,150.8h-17.2c2.2,5,1.3,5.1,0.5,9.1
		c1.2,0.1,2.2,0.6,2.8,1.5c2.7-2.2,6.8-6,9.4-5.4C488.5,152.9,489.5,152.5,492,150.8L492,150.8z M541.6,260.2
		c-1.9,0.3-3.6,0.6-5.1,0.8c2.6,2.6,2.9,5.7,3.5,9.2l9.7,0.3c-0.1-1.2-0.2-2.4-0.3-3.7C546.9,266.8,543.9,263,541.6,260.2
		L541.6,260.2z M534.9,254.5c0.7,0,1.3,0,2,0c-1.3-1.7-2.7-3.3-4.1-4.9L534.9,254.5L534.9,254.5z M156.5,265.1
		c-3.7,6.9-12,4.9-16.8,3.6c-12.9-3.4-24.2,1.2-36.1,2.6c-15.4,1.8-31.5,0.6-47.1,0.4c-1.5,0-3.2-1.6-4.6-2.4
		c1.7-0.4,3.4-1.2,5.1-1.4c9.5-0.2,18.8-0.2,28.3,0.8c10.5,1.1,31.9-4.7,36.4-4.7C132.8,264.1,144.5,264.5,156.5,265.1L156.5,265.1z
		 M184.3,164.6c-2.2-1-3.4-2-4.9-3.2c2-0.8,3.9-2,5.9-2c8.3,0.2,16.6,0.2,24.9,1.4c13.9,2.2,27.6,5.1,41.5,7.9
		c4,0.9,4.9,2.3,5.6,4.7c-1,0.2-2,0.6-2.9,0.4c-12.4-2.6-24.9-5.9-37.6-7.7C206.8,164.8,195.8,165,184.3,164.6L184.3,164.6z
		 M651.9,266.3c13.2-0.8,25.6-1.8,38.1-2.4c1.2,0,2.4,1.8,3.7,2.6c-1.2,0.8-2.7,2.2-3.9,2.4c-11.5,0.6-23.2,1-34.7,1.4
		c-2.7,0.2-5.4,1-8.1,1.2c-1.5,0.2-2.9-0.4-4.4-0.6C646,267.5,644.3,267.5,651.9,266.3L651.9,266.3z M467.5,245.1
		c2.5,0.1,5,0.2,7.4,0.2c-1.1-2.2-2.2-4.4-3.3-6.5C470.2,241,468.9,243.1,467.5,245.1L467.5,245.1z M238.2,206.8
		c-8.8-2.2-16.6-4.3-25.1-1.6c-2.2,0.6-5.6-1.2-8.3-1.8c2.4-1,4.6-2.6,7.1-3.2c10.5-2.8,20-0.2,29.3,4c2,0.8,3.4,2.2,5.1,3.4
		C243.9,207.2,241.4,207,238.2,206.8L238.2,206.8z M39.8,243.5c7.1-1.4,13.7-2.6,20.3-3.6c5.8-0.8,7.6,1.8,12.2,4.5
		c-2.7,0.6-5.1,1.8-7.8,1.8c-7.1,0.2-14.4,0.2-21.5,0c-2,0-3.7-1-5.6-1.6C38.1,244.5,38.8,244.1,39.8,243.5L39.8,243.5z
		 M607.3,238.6c10.5-1.4,21.2-2.2,31.7-2.4c2.7,0,5.4,1.4,8.3,2.2c-2.7,1-5.6,2.8-8.3,2.8C628.3,240.8,617.8,239.8,607.3,238.6
		L607.3,238.6z M618.5,258.4c5.1-0.2,11.2-0.6,17.3-0.8c0,0,0.5,2.4,0.2,2.6c-5.1,1.8-10.5,3.4-15.9,4.7c-1.5,0.4-3.4-0.4-5.1-0.6
		C617.8,262.5,619.8,261.1,618.5,258.4L618.5,258.4z M647,197.5c9.5,1.8,18.1,3.4,26.8,5.5c1.7,0.4,2.9,1.6,4.6,2.4
		c-1.7,0-3.4,0.4-4.9,0c-9.5-2.3-24.2-4.6-32.7-8.1C642.7,197.3,644.4,197.3,647,197.5L647,197.5z M139.4,161.7
		c3.7,1.4,6.6,3,9.5,4.5l-13.2-0.6c-2.4-0.4-4.9-1-7.1-1.4C130.5,161.9,127.1,162.3,139.4,161.7L139.4,161.7z M665.8,236.8
		c5.8-1.8,4.7-0.8,11.7,1.8c-5.4,1.1-11.9,2.4-17.3,2.4c-1.7,0-3.2-1.4-4.9-2C663.8,235.5,659.3,238,665.8,236.8L665.8,236.8z
		 M174.3,214.7c0-0.8,0.7-2.4,1.7-2.6c6.1-0.2,12.2-0.2,18.1,0c1.5,0,2.7,1,4.2,1.4c-1.5,0.8-2.7,2.2-4.2,2.2
		c-4.9-0.2-9.5-0.8-14.4-1.2C178.5,214.5,176.7,214.7,174.3,214.7L174.3,214.7z M336.8,242.3c-4.4,0.8-8.1-0.1-12.2-0.8
		c2-1,3.9-2.6,5.9-2.8c4.1-0.4,8.5-0.2,12.7,0c1.2,0,2.4,0.8,3.7,1.2c-1.2,0.4-2.2,1.2-3.7,1.4C341.5,241.4,339.3,241.6,336.8,242.3
		L336.8,242.3z M150.4,246.5c-6.6,0-4.4,0.4-11.2-1c8.5-5,8.2-4.4,15.6-2.6C153.6,244.1,152.3,245.3,150.4,246.5L150.4,246.5z
		 M253.2,294l-1.7-0.1c-0.4,0.4-0.7,0.7-1.1,1C251.3,294.6,252.3,294.3,253.2,294L253.2,294z M99.4,224.1c3.6-1,8.6,1,14.2,2.2
		c-0.2,0.4-1,1.4-1,1.4C107.9,226.5,101.3,230.9,99.4,224.1L99.4,224.1z M128.4,173.2c1.7,0.6,3.2,1,4.4,1.4
		c-2.9,1.4-2.7,1.8-4.9,1.6c-2.9-0.4-5.9-0.8-8.8-1.6c-0.2,0-0.2-1.4-0.2-2.2C122.1,172.6,125,172.8,128.4,173.2L128.4,173.2z
		 M113.8,157.7c2.7,0.4,4.6,0.6,6.3,1c-6.3,2-6.1,2.1-14.2,0.6C108.2,158.9,110.6,158.3,113.8,157.7L113.8,157.7z M203.1,218.6
		c2.8-0.9,9.1,0.7,12.9,1.2c-0.2,0.4-0.5,1-0.5,1C211.4,220.6,207.3,220,203.1,218.6L203.1,218.6z M639.5,172
		c3.7-0.4,7.8-0.6,12-0.6c0,0.4,0,0.8-0.2,0.8C648.9,172.9,651.3,175,639.5,172L639.5,172z M260.7,200.2c-2.2-0.4-3.4-0.6-4.9-1
		c4.1-2.5,4.8-1.9,11.2-0.6C265.1,198.9,263.4,199.6,260.7,200.2L260.7,200.2z M208,253.2c2.7,0.4,4.6,0.6,6.3,1
		c-2.6,2.2-1.7,2.2-9.5,0C205.5,253.8,206.3,253.4,208,253.2L208,253.2z M114,199.8c-2-4.7,2.4-1.2,3.4-2.2c1.5,1,2.9,1.8,4.1,2.8
		C118.7,200.4,117.8,201.1,114,199.8L114,199.8z"/>
	<path class="st2" d="M715.3,301.6H605.5c-0.2,6.4-1.6,13.7-3.8,19.8c2.5,0.1,5.1,0.5,7.7,1.2c3.2,1.2,7.6-0.4,12.2-0.8
		c4.9,0,8.8,0,12.7,0c1.7,0,3.2,0.6,4.9,1c-1.7,1-3.2,2.6-5.1,2.8l-35.4,2.5c-3.4,5.8-5.7,4.6-10.1,0.5c-6.5,0.3-12.9,0.7-19.4,1
		c-4.3,0.3-3.7,2.2-11.5,0.4c1.5-1,2.4-2.4,4.1-3c12.1-4.2,8.2-1.3,21.8-3.6l-15.9-21.9H541c-0.9,6.9-3,16.9-6.1,23.2
		c-0.6,1.1-1.5,1.8-2.7,2c-0.3,5.9-3.2,12-6.5,16.7c-3.1,4.4-17.5,23.9-23.1,22.7c-2.8,4.7-5.3,6.9-10.2,9.5
		c-3.7,2-14.6,7.3-18.5,6.5c-0.7,0.7-1.5,1.4-2.4,2.1c7.2,0.6,14.3,1.6,21.5,2c1.7,0.2,3.7-1.2,5.4-1.8c-1.2-0.6-2.4-1.2-3.4-2
		c-0.7-0.6-1.5-2.2-1.2-2.4c1.7-1.6,17.3-4.8,20.7-5.5c4.6,1,5.1,1.2,2.2,4.9c-4.9,6.1-12.9,6.9-18.8,10.5
		c-2.9,1.8-8.3,0.6-12.7,0.4c-7.3-0.2-14.6-0.8-22-1.4c-0.6-0.1-1.2-0.3-1.8-0.5c-10.4,2.2-23.7,1-30.8-4.1
		c-0.9-0.7-1.5-1.7-1.6-2.8c-4.4,0.7-8.9,0.9-13.5,0.7c-2.7,21.2-3.1,42.4-1.6,63.9h20.2c0.7-0.4,1.5-0.8,1.8-0.7
		c0.5,0.3,0.9,0.5,1.3,0.7h7c1.6-0.5,3.2-1.1,5-1.7c7.1-2,15.1-2.4,23.4-3.4c1.3,2.9,3.3,4.4,5.7,5.1h23l9.3-2.3
		c-0.2,0.7-0.3,1.5-0.6,2.3h112.6c-7.7-2.5-3.7-0.9-7.5-4.7c1.7,0.2,3.4,0,4.9,0.4c5.3,1.8,10.5,3.3,15.8,4.3h31
		c6-0.6,4.8-3.1,14.9-2.1c4.9,0.6,9.3,0.6,13.7,1c1.3,0.1,2.4,0.5,3.5,1.1h10.5l0.3-1.3c-1.2-0.7-2.4-1.4-3.6-2
		c1.5-0.4,3-1.1,4.4-1.5c0.7-3,1.3-6,2-9l0,0c1.2-1.7,5.1-32.3,5.6-37c-13.7-0.8-27.5-2-41.2,1.4c-1.7,0.4-3.9,0-5.9,0
		c1-1.4,1.7-3.4,3.2-4c16.4-6.5,37.8-2.3,39.5-3.4c1.8-1.1,3.5-1.7,5.1-1.9c0.6-7.8,0.9-15.7,1-23.7c-1.6-0.4-2.9-0.8-4.1-1.1
		c1.4-1,2.6-2.3,4.1-3c0-4.7-0.1-9.3-0.3-13.9c-5.7,2.6-10.2,6.8-15.5,8.9c-7.2,2.8-18.1,0.6-28.3,0.6c-2.2-0.9-7.4-4.7-9.5-6.1
		c3.2-0.2,6.6-1.2,9.3-0.4c14.7,4.3,28.4-2.7,44-6.3c-0.1-1.6-0.2-3.2-0.3-4.8c-7.2-0.7-14.3-1.5-21.5-2.4c-2.7-0.2-5.1-1.8-7.6-2.8
		c2.9-1.2,6.1-3.6,9-3.6c6.5,0.4,13,0.9,19.5,1.6c-0.1-1.5-0.3-3-0.4-4.5c-2.4-0.4-5-0.7-7.4-1.3c2.4-0.8,4.6-2,7-2.4
		C717.3,315.1,716.4,308.3,715.3,301.6L715.3,301.6z M482.8,301.6h-45.3c-2.7,6.5-5.2,12.9-7.5,19.4c9.7,0.2,19.4,0.5,29.1,0.9
		c4.7,0.2,9.3,1.7,14,2.3l3.7-2.3C475.4,318.8,481.3,305.8,482.8,301.6L482.8,301.6z M405.9,301.6h-27.4c0,3.8-1.5,6.4-3.1,9.9
		c-0.8,1.9-2.3,6-3.7,8.9c9.2,0,18.4,0,27.7,0.1C401.3,314.2,403.5,307.9,405.9,301.6L405.9,301.6z M329.9,301.6h-3.1
		c0.2,0.3,0.3,0.7,0.3,1c1,0.3,1.9,0.7,2.8,1.1C329.9,303.1,329.9,302.4,329.9,301.6L329.9,301.6z M196.5,301.6h-8.4l2.3,2.2
		c1.7-0.1,4.4,1.7,6,2.6c0.2-0.2,0.4-0.3,0.6-0.5C196.4,304.2,196.1,303.5,196.5,301.6L196.5,301.6z M116.4,301.6H4.7
		c-0.9,5.7-1.7,11.5-2.4,17.3c6.4,0.1,12.8-0.4,19.4-2c11.1-2.5,37.3-1,40-2.2c14.3-6.1,25.9-4.7,40.5-0.9c2.6-3.9,5.8-7.1,9.8-8
		C113,304.5,114.6,303,116.4,301.6L116.4,301.6z M100.2,317.3c-0.2-0.1-0.4-0.1-0.6-0.2c-17.2-6.3-33.8,3-38.6,3.2
		c-9.3,0.4-18.5,0.2-28.8,0.2c-6.8,0.8-12.7,2.4-18.5,2.4c-4,0-7.9-0.1-11.8-0.1c-0.8,7.4-1.3,14.8-1.6,22.4
		c28.9-2.8,64.2-4.2,81.7-4.5c15.4-0.4,31,1.8,46.6,2.2c3.9,0.1,7.9-0.1,11.8-0.3l2.3-2.4c2.7-2.6,5.4-4.8,8.3-6.9
		c-3.4-0.5-7-1.2-8.6-2.2c-2.2,1.4-6.3,0.9-9,0.9c-2.5,0-6.9,0.6-8.5-0.3c-3.6,1.6-21.2,1.1-24.7,0.1
		C94.7,330.5,98.4,321,100.2,317.3L100.2,317.3z M135.7,348.1c-2.8,0.3-5.6,0.8-8.5,1.5c-12.2,3-24.6,0.8-36.9-1.2
		c-6.8-1.1-29.8-0.7-38.8,0c-5.9,0.6-10.7,1.2-15.9,1.8c-1.2,0.2-2.4,0.8-3.7,0.8c-10.7,0.2-21.3,0.5-31.9,0.7
		C0,353.8,0,356,0,358.1l21-1.7c1,0,2.2,0.6,3.2,1c-2.6,2.8-0.5,2.2-3.4,3c-6.9,1-13.9,2.1-20.8,3.1c0.2,24.7,3,48.9,8,72.2
		c20.2-1,40.7-2,60.9-2.6c6.9,0,28.2,5.2,34.2,5.3c15.4,0.2,30,3.2,44.7,6.3c7.8,1.6,17.3-2.6,26.1-4.2c2.5-0.4,4.9-0.9,7.4-1.3
		c-3.1-3.2-6.1-7.2-7.1-11.7c-1.8-0.5-2.7-2.5-3.6-4.2c-8.3-0.4-16.7-1.7-25-2.6c-2.6,5-9.9,20.5-15.3,15.3c-3.3-3.1-6.3-9.5-8-15.7
		c-13.4,0.8-26.7,2.5-40.1,3.3c-5.9,0.4-11.7-0.6-17.6-1.2c-1.2-0.2-2.2-1-3.2-1.6c1-0.8,2-2,3.2-2c12.5-0.3,32-0.4,43.4-1.6
		c4.4-0.6,8.3-1.9,13.1-2.7c-0.4-3.2-0.3-4.8,0.6-7.5c-1.6-2.9-2.8-14.8-0.4-19.3c-1.9-3.9,3.4-24.4,9.4-29.7
		C129.9,355.4,133.9,350.3,135.7,348.1L135.7,348.1z M231.7,434.1c7.4,0.8,14.8,2.2,22.2,3.1c-1.8-5.1-3.9-10.1-6.2-15.1
		c-0.6-0.3-1.1-0.6-1.7-0.8c0.4-0.1,0.8-0.2,1.1-0.3c-6.8-14.8-15.6-29.4-26.7-43.9c-5.4-0.3-10.7-0.6-15.9-1.2l-1.6,4.2
		c0.8,1.8,0.2,5.1,0.6,8.7c4.8-0.9,5.6-1.1,11,0.2c-4.9,2.9-2.3,2.7-10.4,3.5c0.5,2.2,1.5,4.9,0.7,6.7l2.9,5.5
		c6.2,0.2,12.3,0.5,18.4,0.8c1.5,0,2.7,1.4,4.1,2c-6.7,0.9-13,1.3-20.2,1.7c0.9,1.6,2.3,4.2,3.1,6.1c9.9-1,7.2-0.8,17.6,0.7
		c1.5,0.2,2.7,1.2,3.9,1.8c-1.5,0.8-2.7,1.8-4.1,2c-4.1,0.4-8.1,0.8-12.2,1.1c2.4,2.5,10.6,10.3,11,12.4
		C230.3,433.4,231,433.7,231.7,434.1L231.7,434.1z M255.5,442c-5.8,0.1-11.5-1.1-17.3-2.2c2.1,1.9,4.8,4.1,7.3,6.4h11.3
		C256.5,444.8,256,443.4,255.5,442L255.5,442z M186,443.9l-23.1,2.3h25.7C187.7,445.4,186.8,444.7,186,443.9L186,443.9z M281,446.2
		h91.7c-0.6-0.2-1.3-0.6-1.8-0.9c2.9-2.4,3.9-1.8,9.9-2.2l1.1-29.9c-1.1-0.2-1.9-1-2.8-1.6c0.9-0.4,2.1-0.9,3-1
		c0.7-9.9,1.8-19.6,3.2-29.2c-7.1,0.1-14.2,0.3-21.4,0.4c-2.2,0-4.9,1.6-6.3,1c-3.9-1.4-12,4.9-12-4.2c0-0.2-0.2-0.4-0.2-0.6
		c-2-0.8-4.1-1.4-6.1-2.2c3.7-0.4,7.6-0.6,12-1.2c9.3,0.4,18.3,4,27.1-0.8l8.2-0.3c1.1-6.3,2.3-12.6,3.6-18.8
		c-7.7-0.6-16.8-2.3-23.5-6.3c-1.7,6.2-3,13.3-7.7,12c-8.1-2.1-14.7-9.5-19.2-16.9c-13.8-1.7-27.6-2.3-41.8,0.9
		c-2.1,0.5-4.2,0.9-6.3,1.2c4,4.4,9.7,12,11.9,17.8c13.8-2.9,22.4-3.4,35.2,2.2c-11.2,1.4-22.4,2.6-33.5,3.6c3.4,3.3,4.2,6,5.6,11.5
		c3.3,0.2,6.6,0.5,9.9,0.6c7.9,0.5,8.5,1.7,13.4,4c-1.7,0.8-3.7,2.4-5.4,2.4c-5.2-0.1-10.9-0.3-16.6-0.7c0.5,2.9,2.3,10.5,0.2,12.7
		c3.4,9.2-2.9,25.1-10.1,31.5c9.8-1.6,21.1-3.6,30.8-4.3c4.9-0.4,10,0.8,14.9,1.4c0.7,0.2,1.5,1.6,2,2.4c-1,0.4-2.2,1-3.2,1
		c-5.9,0.4-12,0.8-18.5,1.4c-12.9,1.4-25.1,2.6-37.6,3.6c-1.5,0.2-2.7-0.4-4.1-0.6c3.2-2.7,0.6-2.1,6.5-3.3
		c-2.8-4.2-8.7-18.9-8.2-23.9c-2.1-2.4-7.3-11.4-7.7-14.2l-11-14.8c-5.3-1-10.9-1.5-16.7-1.9c5.9,9.1,11.1,18.3,15.7,27.6
		c0.5,0.1,1,0.2,1.4,0.4l-1.2,0.1c2.2,4.4,4.2,8.8,6,13.2l0,0c3-1.8,2.7-0.7,9.8,1l-9,0.9C275.6,429.7,278.5,437.9,281,446.2
		L281,446.2z M10.4,446.2c-0.4-1.7-0.8-3.4-1.2-5h20.4c16.1-3.4,32.7-2.8,49.1-1.2c5.6,0.4,11.7,0.8,16.8,2.8
		c6.1,2.4,11.2,4.7,18.3,2.6c4.6-1.4,9-1.2,13,0.8H10.4L10.4,446.2z M370.8,324.6l-0.3,0.1c0.8,3.4-0.7,11.2-2.5,18.5
		c7,4.6,15.7,4.8,23.5,5.8c1.9-8,4-15.9,6.4-23.7C385,326,384.4,325.4,370.8,324.6L370.8,324.6z M469.2,329.7
		c-2-0.6-4.1-1.2-6.1-1.6c-4.7-0.9-13.3,1.4-15.4,0c-5.8-3.7-12.3-4-18.8-3.8c-5.4,16.2-9.4,32.3-12,48.4c1.4,0.4,2.8,1.2,4.1,2.7
		c1.3,1.4,7.2,1,11.1-0.1c1.8-2.5,3.9-4.9,5.7-7c2.6-3.1,5.4-6.1,8-9.2c3.6-4.3,6.5-8.9,11.5-11.2c-0.6-3,4.9-8.1,8.3-13
		L469.2,329.7L469.2,329.7z M479.4,310c-2.4,0-3.9,0.2-5.4,0c-1,0-1.7-0.6-2.4-0.8c0.5-0.8,0.7-2,1.2-2
		C476.1,307,480.3,306.8,479.4,310L479.4,310z M289,337.4c12.8-5.6,25.5-3.9,38.5-1.9c-3.6-1.6-7.8-2.9-10.3-5.4
		c-2.9,0.2-10.9,0.1-13.2-0.9c-1.5,0.7-16.9,2.2-21.1,1.2c-1.3,1.2-4.3,1.3-6,1.6l4.5,1.7c-0.3,0.3-0.5,0.7-0.8,1.1
		c1.4,1.2,2.8,2.1,2.7,4.2l0.8,0.4C285.8,338.7,287.4,338.1,289,337.4L289,337.4z M233.4,355.5l-0.2,0.1c3.8,4.8,7.4,9.6,10.7,14.4
		l16.6,3.5c-5.1-5.4-7.4-8.2-14.1-12.4l-1.3-1.4L233.4,355.5L233.4,355.5z M651.4,342.1c-8.7-2.5-132.3-0.2-25.1-8.7
		c9.3-0.2,17.3,1.2,25.9,3.8c4.8,1.4,15.9-4.8,27.6-5.9c2-0.2,3.7,0.2,5.6,0.4c-2.7,6.1,1.1,4.1-14.6,7.3c-2.9,0.6-6.8,0.4-8.5,1.8
		C658.8,343.7,655.8,344.3,651.4,342.1L651.4,342.1z M206.9,368.4c2.5,0.3,4.8,0.5,7.1,0.5c-1.7-2.1-3.4-4.1-5.2-6.2
		C208.2,364.6,207.6,366.5,206.9,368.4L206.9,368.4z M473.5,441c7.1-7.3,17.3-10.3,28.1-10.3c20,0,39.5-0.6,58.8-5.5
		c10-2.6,20-6.1,30.3-7.9c10.3-1.8,21-2,31.7-2.6c1.7,0,3.7,1.4,5.6,2.2c-1.7,1-3.7,2.8-5.1,2.6c-16.1-2.2-30.8,3.8-45.9,5.7
		c-4.9,0.6-9,4-13.9,5.3c-11.2,2.8-22.2,5.7-33.7,7.5c-8.3,1.3-21.5-10.2-45.6,1.4C480.8,440.8,477.2,440.6,473.5,441L473.5,441z
		 M562.8,377.8c4.6-0.4,8.8-1.4,12.9-2c0.2,0,1.2,2.2,1,2.4c-2.9,1.8-5.9,4.9-8.8,5.1c-10.5,0.6-21.2,0.2-31.7,0.2
		c-1.2,0-2.7-0.6-3.9-1c1.2-0.8,2.2-2.4,3.7-2.4C544.5,378.8,553.3,378.2,562.8,377.8L562.8,377.8z M690.2,368.2
		c-11.5,0.4-22,1-32.7,1c-2.4,0-4.9-1.4-7.3-2.2c7.7-4,4.2-2.7,10.5-2.8c12-0.4,23.9-0.8,36.1-1.2c5.8-0.1,2.9-1.7,10.5,4.7
		L690.2,368.2L690.2,368.2z M634.4,374.9c5.6,0,5-0.2,11,1c-2,1.4-3.7,4-5.9,4c-9,0.4-20.5,0.7-29.3-1.2c-1.7-0.4-3.2-1.2-4.6-1.8
		c1.7-0.8,3.2-2,4.9-2C618.2,374.7,625.8,374.9,634.4,374.9L634.4,374.9z M356.4,368.2c-1.5,0.2-2.2,0.6-2.9,0.4
		c-3.4-0.4-6.8-1-10.2-1.4c-0.2,0-0.5-0.8-0.7-1.4c9.8-2,25.6-3.1,35.9-4c2.2-0.2,4.4,0.4,6.6,0.8c-1.7,0.6-3.7,1-5.4,1.8
		C373,367.6,365.4,368.8,356.4,368.2L356.4,368.2z M468,409.5c-1.5,0.8-2.9,1.2-4.4,1c-3.4-0.6-3.4-0.8-5.6,2.2
		c-0.2,0.2-0.5,0.8-0.7,0.8c-8.5,1-17.1,1.8-25.6,2.6c-0.7,0-1.5-0.8-2-1.2c0.7-0.4,1.2-1,2-1.2c4.4-1.4,8.5-3,13.2-3.8
		c7.1-1.6,13.9-2.8,21-3.8C466.6,405.7,467.5,407.9,468,409.5L468,409.5z M685.9,319.4c-8.5,1.4-16.6,2.8-24.9,3.4
		c-1.7,0.2-3.9-1.8-5.9-2.8c2-0.8,3.7-2.2,5.6-2.2c8.5-0.2,16.8-0.2,25.4,0C687.2,317.8,686.1,319.1,685.9,319.4L685.9,319.4z
		 M148.7,414.6c6.2,0.1,12.4,0.2,18.4,0.6c-1.2-3.3-2.1-6.6-2.7-9.9c-4,0.1-7.9,0.3-11.9,0.4C148.3,410.9,152.2,407.3,148.7,414.6
		L148.7,414.6z M154.7,400.7c3-0.4,5.9-0.7,8.8-1c-0.4-3.9-0.7-13.3,0.3-16.4c0.3-1.1,1.1-2.2,2.2-3.4c-0.2-0.3-0.4-0.6-0.5-1
		c-1.3,2.2-4.5,7.8-6.6,8.8C159.2,392.8,157.3,395,154.7,400.7L154.7,400.7z M46.4,412.1c5.9-1.6,12.2-4,18.3-4
		c12.4,0,24.7,1.4,37.1,2.2c1.8,0.1,0.9-1.2,5.6-0.2c-0.7,0.6-1.5,1.4-2.4,1.6c-2.9,0.6-5.9,1.2-8.8,1.4c-14.4,0.2-28.8,0-43.2,0
		C50.8,413,48.9,412.6,46.4,412.1L46.4,412.1z M56.4,399.8c-2.7,0.4-4.6,1-6.3,1.4c0.7-2.2,1.2-6.1,2.2-6.3c6.3-0.6,12.7-0.4,19-0.4
		c0,0,2.8,1.6-1.2,2.6C66,398.2,61.6,399,56.4,399.8L56.4,399.8z M54.5,425.9c-6.3-0.2-12.2-0.6-18.1-1c-2.9-0.1-2.4-2.4-1.2-2.4
		c6.6,0,13.2,0.2,19.5,0.6C54.7,423.1,54.7,424.7,54.5,425.9L54.5,425.9z M93.5,384.2c3.7-0.8,5.3-0.4,7.6,0.8
		c-2.6,2.2-8.9,4.6-12.2,5.5c-1.5,0.4-3.7-0.6-5.4-1C89.6,384.5,84.7,387.9,93.5,384.2L93.5,384.2z M348.7,443.6
		c0.2-0.8,0.2-1,0.5-1c3.4,0,6.8,0,10,0c-0.2,0.4-0.5,1.2-0.7,1.2C355.3,444,351.9,444.3,348.7,443.6L348.7,443.6z"/>
	<path class="st3" d="M708,452.5H500.4c-4.2,0.9-9.1,1-13.2,0h-42.5c-4.2,0.5-0.8,0.8-4.3,0h-26c0.4,4.2,0.8,8.4,1.3,12.6
		c1.6-1,2.7-2.3,4.6-2.9c8.8-3,17.3-0.6,25.9,1.4c1.2,0.2,2,1.6,2.9,2.6c-1.2,0.4-2.7,1.4-3.7,1.2c-7.1-1.4-13.7-3.6-20-3.6
		c-2.7,0.8-6.9,1.4-9.7,1.4c1.3,10.2,2.9,20.3,5,30.6c1.8,0.1,3.6,0.2,5.5,0.2c12.9,0,21,6.9,32,8.9c1,0.2,1.5,2,2.2,3
		c-14.5-2.4-21.1-7.9-39-9c2,9.6,4.3,19.3,6.9,29.1l30.6,1c1,0,1.7,0.8,2.7,1.4c-1,0.4-2,1.2-2.9,1.2c-9.7,0-19.6,0-29.3,0.2
		c5.4,19.6,12,39.4,19.7,59.7c0.1,0.1,0.2,0.1,0.4,0.2l-0.2,0.3c0.6,1.7,1.3,3.3,1.9,5H631c5.2-6,10.2-12.1,15.1-18.4
		c-2.1,0.1-3.1-1-5.1-1.8c4.2-2.3,1.8-2,8-2.1c11.6-15.6,22-32.2,31-49.6c-8.5,0.5-17.5,1.8-23.9,1.9c-1.2,0-2.7-1.2-3.9-1.8
		c1.2-0.8,2.2-2,3.4-2c8.6-0.6,17.3-1.1,25.9-1.1c1.1-2.2,2.2-4.3,3.2-6.5c-5.9-0.7-3.4-0.1-6.9-2.3c3.2-2,0-2.4,8.8-1.7
		C695.4,492.7,702.6,473,708,452.5L708,452.5z M380.8,452.5h-98c0.7,2.5,1.3,4.9,1.9,7.4c1.2-0.8,2.6-2.6,3.6-2.4
		c5.9,0.6,11.7,1.4,17.6,2.6c1,0.2,1.7,1.8,2.7,2.8c-1.2,0.4-2.7,1-3.9,1l-19.9-4c2,7.9,3.6,15.9,4.9,24c5.7-0.8,11.4-3.1,13.7-3.1
		c7.8,0,15.6-1.2,22.9,3.2c7,4.3,22.9,2.7,30.3,3.2c2.7,0.2,5.1,1.8,7.6,2.6c-2.2,1-4.4,1.8-7.8,2.6c-6.6,0.2-12.2,1-17.8,0.8
		c-3.4-0.2-6.3-2.6-9.8-3.2c-10.7-2-21.7-3-32.9-1.2c-1.7,0.3-3.5,0.5-5.2,0.7c1.1,7.2,1.9,14.6,2.5,22c2,0.2,3.6,0.7,10.5,2.5
		l-10.2,1.1c0.2,2.2,0.3,4.4,0.4,6.6l39.1,8.1c1.7,0.4,2.9,1.8,4.4,2.6c-1.5,0.4-3.2,1.4-4.6,1c-6.6-1.2-12.9-2.4-19.5-3.8
		l-19.2-5.4c0.9,16.7,0.9,33.8,0.3,51.5c6.2,1.3,7.6,0.7,9.6,3.2c-3.8,1.2-5.8,1.3-9.7,0.9c-0.2,5.7-0.5,11.4-0.8,17.2H341
		c-1.3-0.2-2.6-1.3-3.9-2c1.5-0.6,2.9-1.6,4.6-1.8c9.3-1,18.8-2.2,28.1-2.6c5.4,0,11,1,16.6,1.6c3.4,1.8,6.6,3,9.8,4.5
		c-2.5,0.1-5,0.3-7.6,0.4h9.9c-6.6-33.6-12.3-67.7-15.3-101.9c-10.6-1.5-6.6-0.5-12.1-5.1c4.7-1.7,6.9-0.9,11.6,0
		C381.7,477.5,381,465,380.8,452.5L380.8,452.5z M258.8,452.5h-7.2c5.1,7.7-20.9,15.4-31.5,7.8c-4,0.7-16.7-2.7-21-7.8H12
		c4.3,16.3,9.7,32.1,16.2,47.3c0.6-0.3,1.3-0.7,1.9-0.5l19,1c7.8-0.8,15.6-1.8,23.4-2.4c1.7-0.2,3.7,1,5.6,1.4
		c-5.1,3.5-2.9,3.8-12.2,3.8c-12.4-0.4-24.2-0.8-35.9-1.4c-0.4,0-0.9-0.3-1.4-0.7c8.2,19.2,18,37.6,29.3,55
		c7.2-0.9,14.7-1.3,22.7-1.7c4.6-0.4,8.8-1.4,12.9-2c0.2,0,1.2,2.2,1,2.4c-2.9,1.8-5.9,4.9-8.8,5.1c-8.3,0.5-16.8,0.3-25.2,0.2
		c4.9,7.4,10.1,14.6,15.6,21.5l16.3-0.1c1.2,0,2.4,1.2,3.9,1.8c-3.5,1.7-2.9,2-7.1,2l-9.9,0.3c3.1,3.9,6.3,7.7,9.6,11.4h29.9
		c0-0.3,0-0.7,0-1l10,1h124.2c-12-2.6-24-5.7-36.3-7.4c-10-1.2-21-1-32.5-1.4c-2.2-1-3.4-2-4.9-3.2c2-0.8,3.9-2,5.9-2
		c8.3,0.2,16.6,0.2,24.9,1.4c13.9,2.2,27.6,5.1,41.5,7.9c1.8,0.4,4.5,1.5,5.1,3.1c1.4-6.5,2.7-13,3.9-19.4c-12-1.3-14-1.1-25.9-1.3
		c-1,0-2-0.8-2.7-1.4c1-0.4,2-1,2.9-1.2c8.9-1.6,17.7-2.1,26.6-1.6c3.1-18.5,4.9-36.4,5.1-53.9l-17.8-2.2c-4.9-0.4-9.5-0.2-14.4-0.4
		c-3.7-0.2-7.1-0.4-10.7-0.6c-13.2-0.7-10.2-2.2-19,4.5c2.7,0.6,5.4,1.4,8.1,1.6c8.8,0.6,17.6,0.8,26.4,1.4c2,0.2,3.7,1.6,5.4,2.4
		c-1.7,0.4-3.4,1.4-5.1,1.2c-22-1.2-43.9-2.6-65.7-4c-1.5,0-2.7-1.4-4.1-2.2c1.5-0.6,2.7-1.4,4.1-1.6c11.4-1.1,22.1,2.9,28.6-4.9
		c1.7-2,7.1-2.8,11-2.8c24.4-0.5,31-1,53.4,2.9C266.6,491.5,264.1,471.8,258.8,452.5L258.8,452.5z M509.6,533.2c-12,0-23.2,0-34.4,0
		c-2.2,0-4.4-0.6-6.6-1.4c-1-0.2-1.5-1.2-2.2-1.8c1-0.2,1.7-0.8,2.7-0.8c4.1,0,8.1,0.2,12.2,0c4.4-0.2,8.5-1,12.9-1.2
		c5.4-0.2,10.7,0,16.1-0.2c4.9-0.2,9.8-1.2,14.4-1c3.2,0.2,8.3-3,8.8,3.6c0.6,7,11.8-1.3,25.1-2.4c14.4-1.4,28.8-0.8,43,1.2
		c1.2,0.2,2.2,0.6,3.2,1c-0.7,0.6-1.7,1.4-2.4,1.6c-20.3,1.4-40.8,3.2-61,3.8C531.4,536,520.9,534,509.6,533.2L509.6,533.2z
		 M522.3,555.6c1.7,0,2.9,0.2,3.2,0c2.9-5.5,8.8-3.4,13.9-4.2c16.1-2.6,31.7-0.8,47.6,0.2c7.8,0.4,15.9,0,23.9,0.2
		c1.5,0,2.7,1,4.1,1.6c-1.5,0.8-2.7,2.2-4.1,2.2c-3.2,0-6.3-1.2-9.5-1c-9.5,0.7-25.6,3.7-33.7,2.4c-14.2-2.2-27.3-2-41,3.2
		c-6.8,2.6-15.1,2.4-22.9,3.2c-1.2,0.2-2.4-0.8-3.9-1.2c1-1,1.7-2.4,2.9-2.6C509.2,558.3,515.3,557.1,522.3,555.6L522.3,555.6z
		 M94.5,490c-8.8-0.8-15.9-6.7-24.4-2.6c-0.5,0.2-1.7-0.4-2.7-0.8c0.5-0.8,0.7-2,1.2-2.2c3.7-1,7.6-2.8,10.7-2
		c9.8,2.4,18.8,4.7,29.5,2.6c6.1-1.2,12.9,1.2,19.3,0.8c7.6-0.4,14.9-2,22.5-3c1.5-0.2,3.2,0.4,4.9,0.4c-0.6,0.7-3.3,4-4.4,4
		c-11.7,1.8-23.2,4.2-34.9,5.1C109.1,492.9,102.3,490.8,94.5,490L94.5,490z M538.2,590.6c-2.2,3.4-4.4,4.2-10.3,3
		c-6.8-1.4-14.9,0.8-22.2,0.8c-16.1-0.2-32.5-0.8-48.6-1.4c-1.2,0-2.2-2-3.2-3c1.5-0.8,2.9-2.2,4.4-2c11.7,0.8,23.4,2,35.1,2.8
		c4.9,0.4,9.8-0.2,14.6-0.2C517.9,590.6,527.9,590.6,538.2,590.6L538.2,590.6z M150.1,533.3c-11,0.2-21.7-2-31.7,2.2
		c-2.2,0.9-13.1-2-15.6-2.6c10-1.3,23.8-4.8,30.8-4.9c9.5-0.2,19.3,1.2,28.8,2.2c1.4,0.2,5.7,3.5,3.9,6.1
		C165.5,537.4,152,533.8,150.1,533.3L150.1,533.3z M179.2,500.3c-8.8-2.8-17.3-3.2-26.8,0c-4.4,1.4-10.5-0.6-15.6-1.4
		c-1-0.2-2.2-1.8-2-2.4c0.5-1,2-2.4,2.9-2.4c12,0.2,24.2,0.6,36.1,1.4C175.8,495.7,177.5,498.3,179.2,500.3L179.2,500.3z M85,513.9
		c3.4,0,6.1,0.2,8.8,0c3.7-0.4,3.9,1,4.1,3.6c0.6,7.1-10.4,0.1-17.3-1c-8.5-1.2-17.1-1.8-25.6-2.8c-1.2-0.2-2.4-0.8-3.7-1.2
		c1.2-0.4,2.4-1.4,3.7-1.2L85,513.9L85,513.9z M131.4,561.7c9.8-6.1,20.7-3.2,31-3.8c0.7,0,1.7,1.4,2.4,2.4c0.2,0.2-1,1.4-1.7,1.4
		C152.6,562.1,142.1,562.3,131.4,561.7L131.4,561.7z M620,595.9c-5.1-1-9.5-1.6-13.7-2.8c-1.5-0.4-2.7-2-3.9-3
		c1.5-0.2,3.2-0.8,4.6-0.6c6.6,0.8,12.9,1.4,19.3,2.6c2.2,0.4,3.7,2.4,5.6,3.6C624.4,596.3,626.8,596.5,620,595.9L620,595.9z
		 M600.7,538.4c5.4-2,9.8-4.2,14.6-6.1c1.2-0.4,2.9,0.2,4.6,0.4c-0.5,1.4-0.7,3.8-1.7,4.2c-6.6,2-13.7,3.8-20.5,5.3
		c-1.5,0.4-3.4-0.8-5.1-1.4c1.5-0.4,3.2-0.6,4.6-1.2C598.2,539.4,599,538.8,600.7,538.4L600.7,538.4z M69.1,520.4
		c6.8,0,4.8-0.5,11.2,1c-1.5,1-2.7,2.6-4.4,2.8c-5.4,0.4-10.7,0.2-16.1,0c-1.2,0-2.2-1-3.4-1.4C61.2,520.8,61.7,521.5,69.1,520.4
		L69.1,520.4z M139.4,585.3c3.7,1.4,6.6,3,9.5,4.5l-13.2-0.6c-2.4-0.4-4.9-1-7.1-1.4C130.5,585.5,127.1,586,139.4,585.3L139.4,585.3
		z M218,469.2c-4.1-0.2-7.8-0.6-11.5-1.2c8.8-2.7,6.9-3.2,18.3-3.2c1.5,0,2.7,1,4.1,1.4c-1.5,0.8-2.7,2-4.1,2.2
		C222.6,469.2,220.4,468.8,218,469.2L218,469.2z M485.7,555.6c-4.9-0.4-8.8-0.8-12.9-1.4c-1.2-0.2-2-1.2-2.9-1.8
		c1.2-0.6,2.4-2,3.7-2c6.6,0.6,12.9,1.6,19.3,2.6c1.1,0.1,1.2,2.5-0.7,2.6C490.1,555.8,488.4,555.6,485.7,555.6L485.7,555.6z
		 M240,539c-5.9-2-11-3.8-15.9-5.9c-0.7-0.2-1-0.8-1.7-1.4c0.7-0.2,1.5-0.8,2-0.6c5.9,1.6,12,3.4,17.8,5.3
		C241.7,537.2,241.2,538.2,240,539L240,539z M208,488.6c9.7,0,6.9-0.9,12.9,1.6c-1.5,0.8-2.7,2.2-4.1,2.2c-5.9,0.2-11.5,0.2-17.3,0
		c-0.7,0-1.7-1-2.4-1.4C199.7,489.6,203.1,489.5,208,488.6L208,488.6z M628.5,576.4c-1.7,0.4-3.2,0.6-4.6,0.8c0.7-1,1.2-2,2.2-2.6
		c8.3-5.3,6.4-3.7,13.2-1.2C630.3,578.7,635.8,575.1,628.5,576.4L628.5,576.4z M172.8,475.4c2.2,0.4,3.4,0.6,4.9,1
		c-3,1.9-6.8,2.8-10.5,2.8c-1.2,0-2.7-1-3.9-1.6C167,474.6,165.7,475.4,172.8,475.4L172.8,475.4z M538.9,590.6
		c13.3-3.4,10.1-2.4,12.4,0.2C546.9,592.6,547,591.6,538.9,590.6L538.9,590.6z M179.2,500.9c2.6-1.1,8.5,1.2,12.7,2.2
		c-0.2,0.4-1,1.4-1,1.4C187,503.4,181.1,507.4,179.2,500.9L179.2,500.9z M687.1,468.8c-2.4-0.8-4.4-1.4-6.1-2.2
		c5.5-1.9,7-2.4,12.4-0.6L687.1,468.8L687.1,468.8z M113.8,581.3c2.7,0.4,4.6,0.6,6.3,1c-6.3,2-6.1,2.1-14.2,0.6
		C108.2,582.5,110.6,581.9,113.8,581.3L113.8,581.3z M335.6,476.9c-0.7,5.3-5.6,1.4-8.8,2.6C325.9,477.1,324.4,476.9,335.6,476.9
		L335.6,476.9z M426.8,479.7c1.5,0.8,2.2,1.4,2.9,2.2c-2.9,0.6-5.6,1.2-8.5,1.8C422.8,481.1,421.2,481,426.8,479.7L426.8,479.7z
		 M501.8,491c-2,0.4-3.4,1.4-4.1,1.2c-12-4.2-24.2,0-36.4-1.2c-1.5-0.2-2.9-1-4.4-1.4c1.5-0.8,3.2-2.4,4.6-2.4
		c42.9-0.5,85.8-0.6,128.6,1.2c5.4,0.2,10.7,2.2,16.1,2.4c13.2,0.4,26.1,0,39.3,0.2c3.7,0,7.1,1.8,10.5,2.8
		c-3.4,0.8-7.1,1.8-10.5,2.2c-11.2,1-22.5,2.4-33.7,2.4c-5.9,0-11.7-2.8-17.8-4c-4.7-0.9-13.3,1.4-15.4,0
		c-8.3-5.3-17.8-3.6-26.8-3.6c-10.5,0-20.7,1-31.2,1.2C515,492.2,508.9,491.4,501.8,491L501.8,491z M637.8,505.6
		c7.1,0,13.2,0,19.3,0c0.5,0,1,0.8,1.5,1.2c-0.7,0.4-1.2,1.4-2,1.4c-4.1,0.2-8.5-0.2-12.7,0.2c-6.6,0.6-12.9,1.6-19.5,2.4
		c-2,0.2-3.9-0.4-5.9-0.6C625.5,507.3,628.9,506.8,637.8,505.6L637.8,505.6z M548.2,501.5c2.7,0.6,4.6,1,6.3,1.6
		c-2,0.8-3.7,2.2-5.6,2.2c-3.4,0.2-6.8-0.6-10.3-0.8C541.6,503.5,544.5,502.5,548.2,501.5L548.2,501.5z M610.4,460.4
		c1.2,1,1.5,2,1.7,3c-3.7-0.2-7.1-0.4-10.7-0.6C602.4,459.7,600.4,460.4,610.4,460.4L610.4,460.4z M610.4,476.4
		c-2.4,0-3.9,0.2-5.4,0c-1,0-1.7-0.6-2.4-0.8c0.5-0.8,0.7-2,1.2-2C607.2,473.4,611.4,473.2,610.4,476.4L610.4,476.4z M332.6,454.4
		c6.1,0.4,11.5,0.8,16.8,1.4c1,0,1.7,1,2.4,1.6c-0.7,0.4-1.7,1-2.4,1c-8.3-0.4-16.4-0.8-24.6-1.4c-0.5,0-1-0.6-1.7-1
		C325,453.5,324.3,454.4,332.6,454.4L332.6,454.4z M357.7,464.5c3.4-1,6.6-1.8,9.8-2.2c1-0.2,2.4,0.8,3.4,1.2
		c-0.7,0.8-1.5,2.2-2.2,2.4c-5.6,1-11.2,2-16.8,2.8c-1,0.2-2.2-0.6-3.2-0.8C352.5,465.6,353.3,466.1,357.7,464.5L357.7,464.5z
		 M506.5,468.2c2,0.8,3.2,1.6,4.4,2.2c-1.2,0.6-2.7,1.6-3.9,1.6c-5.6-0.2-11.2-0.8-16.6-1.2c-0.5,0-1-0.8-1.5-1
		c1-0.4,1.7-1.4,2.7-1.4C496.2,468,500.9,468.2,506.5,468.2L506.5,468.2z"/>
	<path class="st4" d="M402.3,597c-6.8-34.6-12.4-68.2-15.3-101.4c6.9,0.9,13.8,1.7,20.7,2.5c3.3,0.3,6.5,0.5,9.8,0.7
		c2,9.7,4.3,19.4,6.9,29.2l-1.3,0c-0.9,0-8.5,5.5-9.3,6.1c2.9-0.2,5.9-0.6,9.5-0.8c0.9-0.1,1.6-0.3,2.3-0.5
		c5.3,19.2,11.7,38.4,19,57.9c-5.1-0.5-10.5-0.8-16.2-1.2c-7.8-0.4-14.6-1-21.5-1.4c-1.2,0-2.7,0.6-3.9,1c1.2,1,2.2,2.4,3.7,2.8
		c3.2,0.8,6.6,1.2,9.8,1.2c9.8,0.2,19.4,0.2,29.1,0.2c0.5,1.3,1,2.5,1.4,3.8H402.3L402.3,597z M289.6,597c0.3-5.9,0.6-11.8,0.9-17.6
		c-8.8-1-17.4-2-25.9-3c-1.2,6.8-2.6,13.7-4.2,20.6H289.6L289.6,597z M304.3,295.3c-1.4-0.3-2.7-0.5-3.7-0.5
		c-0.8,0.1-1.5,0.3-2.2,0.5H304.3L304.3,295.3z M396.1,144.5c-3.3-2.4-7.4-5.2-8.1-6c4.9-2,12.9-4.4,18.1-4.5
		c-6.6-1.5-18.3,2.9-21.7,2.1c-1.9-0.3-3-1-4.5-2.1c-1.6-1.2-7.9-5.6-8.7-6.8c5.6-2.2,11-3.1,16.8-4.4c0,0,0.2,0,0.3-0.1
		c0,0-0.2,0-0.2,0c-9-0.4-12.8,2.7-21,3.4c-5.6-0.5-20.5-10.6-24.2-15c3.1-5.7,14.2-11,20.1-13c5.8-1.8,11.8-4,17.3-0.5
		c5.3,3.5,12.2,9.6,16.9,14.3c-4.7-6.1-9.3-10.8-14.2-16.6c3.6-0.2,8.8,0.5,12.4,1c3.2,0.5,13.1,2.4,15.7,4.2
		c2.5,2.3,4.4,4.8,6.1,7.4c-1.7,1.2-3.2,2.3-3.5,2.5c1.6-0.1,3.1-0.3,4.8-0.4c1.5,2.7,2.9,5.6,4.5,8.7c-0.5-3-1.2-6-2-8.9
		c0.7-0.1,1.5-0.1,2.2-0.2c2.4-0.4,4.2-1.2,5.9-1.2l0.6,0c5.3,3,10.8,7,13.7,9.5c2.3,1.9,3.9,3.4,5.2,6c2.8,6.2,1,13.2,3.9,20.4
		c2.9-4.2,0.6-13.4,1.2-17.7c5.2,5,9.8,11.4,13.5,18.1h-49.2c-0.1-0.2-0.3-0.3-0.5-0.4c-5.4-1.6-10.7-3.4-16.4-4.9
		c-0.7-0.2-2.2,1-3.2,1.6c1.2,0.8,2.7,1.6,4.4,2.6c1,0.3,2.1,0.7,3.1,1H396.1L396.1,144.5z M412.4,295.3c1-2.4,2-4.8,3-7.2
		c1.2-0.1,2.3-0.2,3.5-0.3c6.6-0.4,12.7-0.2,18.8-0.2c0.7,0,1.4-0.1,2.1-0.3c-1.3,2.7-2.5,5.3-3.6,8H412.4L412.4,295.3z
		 M416.1,286.3c5.3-12.4,11.4-24.8,18.4-37.3l1.1,0.3c8.5,0,16.7,0.1,24.8,0c-3.9,6.4-7.6,12.7-11.1,19c-8.1-2-15.9-4-23.6,1
		c-1,0.6-1.5,2-2.2,3c1.2,0.2,2.4,0.6,3.7,0.6c6.8-0.3,13.5-0.7,20.3-1.2c-2.5,4.7-4.9,9.4-7.1,14c-1-0.4-2-0.7-3-0.7
		c-2.9,0-5.9,1-8.8,1C424.5,286.3,420.3,286.3,416.1,286.3L416.1,286.3z M437.2,244.3c4.3-7.5,8.8-14.9,13.7-22.4
		c-5.4,2.9-11.1,5.7-14.5,7.7c-5.5,3-11.1,6.5-16.9,8.9l-1.8,1.1c-0.3-0.4-0.4-1.4-0.4-2.5c0.5-0.1,1-0.2,1.5-0.3
		c-0.5,0-1-0.1-1.5-0.1c0.1-3.6,1.2-9,1.4-10.7c-2.2,2-3.1,4.3-3.7,7.2c-0.1,0.6-0.2,1.9-0.4,3.3c-6.3-0.6-9-1.3-13.4,2.4
		c1.5,0.4,2.7,0.6,4.9,1c2-0.4,2.9-1,3.9-1.4c1.5-0.3,3-0.6,4.6-0.8c-0.2,2.5-0.4,5-0.8,5.5c-8.1,6.8-11.4,11.4-15.6,17.2
		c-2.8-0.6-5.5-1.2-8.3-1.7c-0.9-4.4-1.8-8.8-1.9-11.2c-0.7,2-0.5,6.4-0.1,10.8c-12.2-2.3-24.6-3.7-37.4-2.4
		c-2.6,0.4-5.1,1.5-7.7,2.1c1.8-4.6,4.3-9.6,5.8-12.3c2.1-3.8,4.4-7.3,6.9-10.9c2.3-3.1,3.6-4.8,6.8-6.9c6.7-4,15.3-3.7,23.2-7.5
		c-4.6-2.8-15.3,1.3-19.9,1.3c5.3-5.9,11.7-11,18.6-15.2c-6-0.3-12-0.4-18.7-0.4c-1,0-2.2,0-3.2-0.1c0.3-0.3,3.1-2.5,3.2-2.6
		c2.9-2.6,7.7-7.9,11-11c4.9,1.3,9.7,3.2,14.6,4.1c3.2,0.6,6.6-0.8,10-1.2c-2.4-1-5.1-2-7.6-3c-0.5-0.2-0.7-0.6-2-1
		c-3.7-0.2-6.6,0-9.5-0.2c-9.5-2-18.5-4.5-28.1-6.1c-10.2-1.8-20.5-3-30.8-4c-2-0.2-4-0.4-6-0.4c-7.3-1.1-13.4-1.1-21.2-0.8
		c1.8-1.7,4.3-3.4,6.3-4.8c5.4-3.7,18.2-10.9,24.6-11.7c8.4,0.4,14.7,3.1,22.1,6c-2.4,0.3-4.9,0.6-7.3,0.8c-1.7,0.2-3.2,1.2-4.6,1.8
		c1.5,0.8,2.9,2,4.4,2c14.9,0,29.5,0,44.2,0c3.7,0,7.1-0.2,10.5-0.4c-3.2-1.4-6.3-2.6-9.8-4.5c-5.6-0.6-11.2-1.6-16.6-1.6
		c-6.6,0.3-13.3,1-19.9,1.7c-3.9-2.9-8-5.6-12.2-8.1c5.9-3.7,24.8-4.5,32.8-4.2c3.8,0.1,5.2,0.2,8.7,1.5c6.9,3.2,10.5,9.7,18.5,13.3
		c-0.8-4.9-9.8-10.8-12.2-14.5c10.8,0.8,23.5,4.3,33.7,8c0.5,0.2,1,0.4,1.4,0.6c-4.7-0.3-9.2-0.7-13.7-0.9c-1.2,0-2.7,0.6-3.9,1
		c1.2,1,2.2,2.4,3.7,2.8c3.2,0.8,6.6,1.2,9.8,1.2c2.8,0.1,5.6,0.1,8.4,0.1l0,0c0.6,1.1,1.1,2.1,1.7,3.2c2.7,4.3,5.1,8.4,7.4,13
		c-0.8-6.5-1.4-10.5-4.9-14.2c-0.6-0.7-1.2-1.3-1.8-1.9c6.8,0.1,13.5,0.1,20.3,0.1c0.5,0,1.2-0.8,1.7-1.4c-1-0.4-1.7-1-2.4-1
		c-5.9-0.6-12-1-18.5-1.4c-1.7-0.1-3.4-0.2-5.1-0.3c-3.2-3.1-6.5-5.9-10.5-8.9c-1.2-0.9-3.3-2.4-4.3-3.5c1.8-0.4,5.3-1.3,8.8-2.2
		h53.3c0.2,0.5,0.5,1,0.7,1.5c1.7,3.9,1,3.3,0.3,7c-0.1,0.3-0.3,0.7-0.4,1c-0.6,1.7-1.2,3.3-1.9,4.9c-3.7-0.3-7.3-0.6-11-0.8
		c-1.5-0.2-2.9,1.2-4.4,2c1,1,2,3,3.2,3c3.4,0.1,6.7,0.3,10.1,0.4c-0.7,1.6-1.5,3.1-2.4,4.7c0.7-0.7,2.3-2.6,4.1-4.7
		c5.9,0.2,11.8,0.4,17.8,0.6c-0.1,1.5-0.1,2.8,0,3.7c0.8-1.1,1.3-2.4,1.8-3.6c5.7,0.2,11.4,0.3,17.1,0.3c7.3,0,15.4-2.2,22.2-0.8
		c5.9,1.2,8.1,0.4,10.3-3c-10.2,0-20.3,0-30,0c-4.9,0-9.8,0.6-14.6,0.2c-1.3-0.1-2.6-0.2-3.9-0.3c1.1-5,0.9-9.7,2.4-11.5
		c2.3-1.6,4.6-3.1,6.9-4.5h24.5c-0.9,2.2-1.7,4.4-2.5,6c0.8-0.6,2.3-3,4.2-6H606c5,4,9.7,10.4,11.8,16.2c-3.5-0.5-7.1-0.8-10.7-1.3
		c-1.5-0.2-3.2,0.4-4.6,0.6c1.2,1,2.4,2.6,3.9,3c3.8,1.1,7.7,1.7,12.3,2.6c-5.1,1.9-15.6,3-21.2,3.7c-4.6,0.6-9.4,2.2-13-1
		c-5.1-4.6-8.9-7.8-14.8-11.2c3.9,3,4.6,3.8,8,7.3c2.1,2.1,3.3,3.8,4.8,6.3c-2.9,0.5-6.5,0.7-9.6,1.1c-1.4,0.2-8.7,1.4-9.7,1.1
		c-5.4-2.5-10-6.3-15.3-8.7c3.2,2.9,6.3,6,9.2,9.3c-0.7,0.6-2.6,1.4-4.9,2.2c-8.5,0.5-17,1.1-25.6,1.7c-2.8-1.3-5.8-2.3-9.7-1.9
		c0.8,0.9,2,1.6,3.3,2.4l-1.9,0.2c-1.2,0-2.2,1-3.4,1.4c1,0.8,2.2,2.4,3.2,2.4c3.9,0,7.8,0.2,11.8,0.3c0.5,0.3,0.9,0.6,1.2,0.9
		c-0.2,0.1-0.4,0.2-0.6,0.3c1.7-0.6,3.1-1,4.2-0.9c6.6,2.3,12.2,5,17.7,8.5c-6.6,0.1-13.2,0.2-20.1,0.2c-4.1-0.4-8.5-1.8-10.7,0
		c-7.3,3.8-14.9,3.2-22.5,3.2c-4.1,0-8.8-1.2-10.7,3.8c-0.2,0.8-3.7,1.6-4.6,1.2c-13.8-5.8-27.5-2.2-42.2,0c3.4,1,7.1,2.6,10.7,2.6
		c7.6,0,15.4-1,23.2-1.2c4.6-0.2,9.5,1,13.9,0.2c15.9-2.6,31.5-6.5,48.1-5.7c4.6,0.2,9.3-0.2,13.9,0c2.7,0.1,5.4,0.2,8.1,0.3
		c6.1,4.6,13.8,11.4,17.9,17.7c-11.7-4.1-13.3-2.6-24.1-2.7c7.7,2.7,16,1.2,25.3,6.9c-11-1.5-22-2-33.3-0.2
		c-4.8,0.8-10.8,1.2-16.7,1.3c-0.1-0.1-0.2-0.2-0.3-0.3c0,0.1-0.1,0.2-0.1,0.3c-4.7,0.1-9.4,0.1-13.5,0.1c3.2,1.6,6.3,3.6,9.8,4.7
		c1.1,0.3,2.3,0.2,3.8,0c0.4,4.2,1.3,9.3,0.6,11c-0.1-0.1-0.6-0.4-0.6-0.5c-4.8-3.8-8.1-6.6-13-9.3c5.1,4.4,9.2,9.5,12.7,16.3
		c0.7,1.5,1.4,3,1.9,4.6c0.4,0.8,0.7,1.6,1,2.4l-0.6,0c-1.3-0.1-2.6-0.2-3.9-0.4c-3.4-1.5-7.6-3.6-10.3-3.9c0.7,0.8,1.3,1.4,2.1,2.1
		c0.4,0.3,0.8,0.7,1.3,1l-0.4,0c-1,0-2,0.8-2.9,1.2c1,0.6,1.7,1.2,2.7,1.6c3.3,1.2,6.5,2.4,9.8,3.4c3.1,2.2,5.9,4.2,6.5,5.6
		c0.5,1.7,0.9,3.5,1.3,5.2c-0.9,0-1.8,0.1-2.7,0.2c-1.5,0.2-2.9,1.6-4.4,2.6c1.5,0.8,3.2,2.4,4.6,2.4c1.1,0,2.2,0,3.3-0.1
		c0.2,1,0.3,2.1,0.4,3.2c0.2,1.7,0.3,3.4,0.4,5.1c-0.3,0-0.5-0.1-0.7-0.1c-6.6,0.2-13.4,0.8-20,1.2c-0.7,0-1.5,0.6-2.2,0.8
		c1.9,2.4,2.3,1.1,7.1,1.8c5.2,0.9,10.7,0.4,16,1.2c0,2.3-0.1,4.5-0.2,6.7h-48.6c0.1-0.2,0.3-0.5,0.5-0.7c4-4.9,9.7-6.2,12-13.5
		c0,0,0-0.2,0-0.2c-2.4,0.3-9.3,8.1-13.1,9.5c0.1-2.8,0.5-5.6,0.7-8.4c0.2-4.4,0-8.1-0.9-12.4c0-0.2-0.1-0.4-0.1-0.6
		c10-1.6,19.8-0.9,29.7,0.2c2,0.2,3.9,0.2,5.9,0.4c-1.5-1.8-2.9-3.4-4.6-5.1c-0.5-0.6-1.7-0.6-2.7-0.8c-8.8-1.9-17.5-2.5-26-1.3
		c2-4,3.5-8.3,4.3-12.7c-1.3,2.3-5.9,11.3-8.2,12c-0.2-0.3-4.2-9.7-5.3-11.6c-0.4-0.8-0.8-1.6-1.2-2.5c0.5-0.4,1.1-0.8,1.6-1
		c-0.8-0.2-1.7-0.6-2.5-0.9c-2.3-4.7-4.6-9.3-7.5-14c-3,4.4-6,8.8-8.8,13.2C454.5,244.7,445.8,244.4,437.2,244.3L437.2,244.3z
		 M394.5,265.4c-0.8,1-1.6,2.1-2.4,3.2c-0.2-1-0.4-2.3-0.7-3.7C392.4,265.1,393.4,265.3,394.5,265.4L394.5,265.4z M388.6,264.5
		c0.2,1.6,0.3,3,0.4,3.9c0.1,1.1,0.2,2.3,0,3.3c-0.5,3-1.8,6-3.4,8.6c-1.7,2.9-5.6,10.9-7.7,14.9h-2c-2.2-5.8-4.2-13.7-4.3-19.4
		c-1.2,6.1,0.8,12.8,2.1,19.4h-27.4c1-1.5,2-3,3.1-4.5c-1.5,1.6-2.8,3.1-3.9,4.5H334c0.4-7.2,1.4-15,3.2-19.1
		c4.1-6.2,9-10.2,14.5-14.4c11.7-1.9,23-0.5,34.8,2.3C387.1,264.2,387.9,264.4,388.6,264.5L388.6,264.5z M346.9,262.5
		c-2,1-4,2-6,3.1c0-0.9,0.1-2.1,0.4-3.3C343.2,262.4,345.1,262.6,346.9,262.5L346.9,262.5z M375.5,191.8
		c-5.4,3.5-14.2,11.5-17.8,13.1c-2.9,1.2-6.3,1.7-9.4,1.7c-3.4,0-16.2,1.2-17.9,0.9c1.4-2.3,3.4-4.8,5.5-7.2
		c7.4,2.2,15,0.7,22.6,1.2c0.7,0,1.7-1,2.7-1.4c-1-0.4-2-1-2.9-1.2c-6.4-0.5-12.7-1.2-19.3-1.8c1.9-1.9,3.9-3.5,5.9-4.7
		c-2.8,1-5.1,2.7-7.4,4.6c-2.7-0.2-5.4-0.5-8.3-0.7c-3.5,0.2-6.8,0.3-10.1,0.5c0.4-0.5,0.9-1.1,1.3-1.6c-0.8,0.5-1.6,1.1-2.3,1.7
		c-5.2,0.3-10.1,0.6-15,1.1c-1.5,0-2.7,1.2-3.9,1.8c1.5,0.8,2.9,2,4.4,2c3.4-0.1,6.8-0.4,10.2-0.7c-4.9,5.9-6.8,12.2-10.8,14.8
		l-4.6,2.9c-3.3-0.1-6.7,0-10.4,0.3c-2.9,1.2-5.4,1.8-8.1,2.6c-1.1,0.3-2,1.1-2.9,1.8c-1.5-8.3,0.7-18.4,3.8-25.2
		c3.2-6.7,6.6-12.5,14-14.9c3.2-1,6.3-1.6,9.4-2.1c-0.8,0.8-1.6,1.8-2.4,2.5c2.2,0.6,4.1,1.8,6.3,1.8c2.9,0,5.9-1.4,8.8-1
		c8.3,0.8,16.6,2.6,25.1,3.6c10,1.2,20,1.4,29.8,2.8C373.2,191.2,374.4,191.5,375.5,191.8L375.5,191.8z M334.5,199.7
		c-2.5,2.5-4.9,5.1-7.6,7.5c-2.1,1.8-3.7,1.8-6.2,2.2c-1.9,0.3-10.8,1.9-11.8,1.7c1.7-4.2,4.1-7.3,6.6-10.3c1.6-0.1,3.3-0.3,4.9-0.4
		c4.4-0.4,9.5-2.6,12.7-1.2C333.6,199.3,334.1,199.5,334.5,199.7L334.5,199.7z M290.6,223.4c-5.3,3.2-10.3,6.3-11.2,6.7
		c-1-1.7-1.6-3.7-2.1-5.8c1.2,0.4,2.5,0.9,3.7,0.7C284.2,224.5,287.4,223.9,290.6,223.4L290.6,223.4z M472.9,165.5
		c1-1.1,1.9-1.8,2.2-1.8c0.3,0.5,0.6,1.2,0.8,2L472.9,165.5L472.9,165.5z M478.7,166c2.7-2.4,5.1-4.1,8.1-6.2c0.5,1,0.4,3.9,0.2,6.9
		C484.2,166.5,481.4,166.2,478.7,166L478.7,166z M582.9,227.9c2.1,2.4,3.8,5.1,5.1,7.8c2.3,4.6,4.2,9,6.1,13.8
		c0.4,1.3,1.5,4.5,2.1,7c-1.5-0.2-3-0.4-4.7-0.7c-1.4-0.9-2.9-1.8-4.4-2.7c-3.5-2.8-7.6-5.6-10.9-8.4c3.1,3.8,5.9,6,9.6,9.1
		c0.9,0.5,1.7,1.1,2.4,1.6c-3-0.4-6-0.7-8.9-0.8c-8.6-0.3-17.2-0.3-26.1-0.2c0-1.9,0-3.8-0.1-5.3c-0.4,1.8-0.8,3.5-1.3,5.3
		c-3.3,0-6.7,0-10.1,0h-0.1c-2.7-3.3-5.3-6.6-6.7-8.2c-1.5-1.7-2-2.2-2.8-4.4c-0.5-1.8-0.4-4.4-0.4-6.3c-0.2-2.1-0.5-4.2-1.2-6.1
		c0.5-0.1,0.9-0.1,1.4-0.1c4.6-0.4,8.5-1.2,12.2-1.4c8.8-0.2,17.8,0,26.6,0C574.9,227.9,578.9,227.9,582.9,227.9L582.9,227.9z
		 M595.7,262c0.4,0.4,0.8,0.9,1.2,1.4c2,2.6,2.5,5.3,2.8,8.4c0.2,1.6,0.7,8.9,0.4,12.8c-0.8,0-1.5,0.1-2.3,0.1
		c-4-4.9-8.6-10.7-13-14.5c3.7,5.7,7.7,9.8,11.2,14.6c-1.1,0.1-2.2,0.1-3.2,0.2c-7.9,0.5-15.7,1.6-23.5,2.9
		c0.6-5.8,1.1-11.6,1.5-17.3c-0.8,3.8-1.6,7.6-2.5,11.4c-0.5,2.6-1.1,4.3-1.8,6.4l-2.1,0.4c-3.2-5-10.4-16.7-10.8-17.9
		c-0.4-2.6-0.4-6.6-0.4-10.7C567.5,260.7,581.6,261.6,595.7,262L595.7,262z M598.8,288.8c0.8,1.3,1.5,2.6,2.2,4.1
		c0.2,0.7,0.4,1.5,0.5,2.4h-32.2c-0.3-1.1-0.4-2.3-0.3-3.6l0.1-0.5C578.8,289.4,588.7,288.8,598.8,288.8L598.8,288.8L598.8,288.8z
		 M550.4,260c-0.3,1-0.6,2-0.9,3c-0.7-0.4-1.8-1.6-3.2-3.1c0.4,0,0.8,0,1.2,0C548.4,259.9,549.4,259.9,550.4,260L550.4,260z
		 M487.9,187.2c5.1,0.2,10,0.4,14.9,1c2,0.2,3.7,1.6,5.6,2.4c-2,1-3.9,2.6-5.9,2.6c-11.7-0.2-23.4-0.8-35.1-1.2
		c-1.2,0-2.4-0.8-3.7-1.2c1.2-0.4,2.2-1.2,3.4-1.4C473.8,188.8,480.6,188.2,487.9,187.2L487.9,187.2z M487.4,225.3
		c-5.5,1.3-2.1,0.8-7.8,0.8c1-0.8,1.7-2.2,2.9-2.6c6.3-1.8,12.7-3.2,19-4.9c1-0.2,2.2,0.4,3.4,0.6c-1,0.8-1.7,1.8-2.7,2.2
		C497.7,223,492.8,224,487.4,225.3L487.4,225.3z M361,287.4l9.5-0.2c-2,1-3.7,2.6-5.9,2.8c-4.6,0.4-9.5,0.2-14.2,0
		c-0.7,0-1.5-0.6-2.4-1c0.7-0.6,1.7-1.4,2.4-1.4C353.7,287.4,356.9,287.4,361,287.4L361,287.4z M434.7,204.2
		c-7.1-0.8-13.2-1.8-19.3-2.6c-1-0.2-2-0.8-2.9-1.2c0.5-0.4,0.7-1.2,1.2-1.4C417.9,197.1,432.5,200.6,434.7,204.2L434.7,204.2z
		 M461.6,181.9c0.7-1.2,2-2.8,2.9-2.8c3.4,0.2,6.8,1,10.3,1.8c-3.2,0.6-6.6,1.4-9.8,2C463.8,183,462.8,182.6,461.6,181.9
		L461.6,181.9z M538.9,167c3.2-0.8,6.8-1.6,10.5-2.2c0.5,0,1.2,1.6,2,2.4C546.9,169,547,167.9,538.9,167L538.9,167z M504.5,240.2
		c-3.2,0.4-6.8,0.6-10.2,0.6c-0.2,0-0.7-1.4-0.5-1.6C497.4,236.6,497.6,236.8,504.5,240.2L504.5,240.2z M420,106
		c-0.2-0.5-0.3-1-0.5-1.6c0.7,0,1.5,0.2,2.3,0.4C421.3,105.1,420.7,105.5,420,106L420,106z M510.5,144.5c3.7-1.8,7.6-3.5,11.6-5
		c2.8-1,6.7-2.4,9.6-2.8c-2.2,2.6-3.8,5-5.3,7.8H510.5L510.5,144.5z M529.3,144.5c2.4-3.4,5-6.5,7.4-8c3.2-1.8,7.1-2.7,10.7-2.8
		c5.2-0.2,18.3-0.2,22.7,1.7c-5.4,3-9.5,6-14,9.1H529.3L529.3,144.5z M558,144.5c4.5-2.8,8.2-5.7,16.4-7.5c3-0.7,5.6,0.1,8.3,1.3
		c2.2,1,8.4,4,11,6.2H558L558,144.5z M384.6,442.7c0.1-9.9,0.4-19.8,1.1-29.6h18.8c2-0.2,3.4-0.6,4.9-1c-1-0.6-2-1.6-3.2-1.6
		c-6.8-0.2-13.5-0.1-20.3,0c0.7-9.7,1.8-19.5,3.3-29.2c7,0,14,0.1,20.9,0.6c0.6,0.1,1.1,0.1,1.7,0.1c-2.7,21.4-3.2,42.7-1.7,64.1
		h-24.6l1-0.1c2.4-0.6,4.4-0.8,6.1-1.2c1.5-0.2,2.4-1,3.7-1.4c-1.2-0.4-2.4-1.2-3.7-1.2C390,442.4,387.3,442.6,384.6,442.7
		L384.6,442.7z M277,446.2c-2.5-8.1-5.4-16.2-8.8-24.2l-15.7,1.7c2,4.5,3.8,9.1,5.4,13.7c1.7-0.2,2.8-0.4,8.6,1.4
		c-1.5,0.8-2.9,2.2-4.6,2.6c-0.8,0.2-1.7,0.3-2.5,0.4c0.5,1.5,1,3,1.4,4.5H277L277,446.2z M267.3,419.7c-1.8-4.3-3.8-8.6-5.9-12.9
		l-5.3,0.6c0.5-0.8,1-2.6,1.5-2.6c1,0.1,2,0.1,2.9,0.3c-4.6-9.1-9.8-18.1-15.7-27.1c-6.3-0.3-12.9-0.5-19.3-0.8
		c10.5,14.1,18.9,28.3,25.5,42.7c0.3-0.1,0.7-0.1,1-0.1C257.1,419.8,262.1,419.8,267.3,419.7L267.3,419.7z M238.8,369.4
		c-3.1-4.3-6.4-8.7-9.8-13l-0.3,0c-6.6,0.1-13.2,0.2-19.8,0.7c3.5,3.9,6.9,7.9,10.1,11.9C225.4,369.1,231.7,368.8,238.8,369.4
		L238.8,369.4z M224.7,351.1c-1.2-1.4-2.4-2.8-3.6-4.2c2.8,1,5.8,2.1,8.1,2.9c5.7-2.1,10-5,22-5.1c9-0.1,17.7-1.1,26.3-3.4
		c-3.7-0.5-7.7-0.4-11.7-1.7c2.9-2.3,10.6-0.5,13.8-1c-0.8-0.7-1.7-1.4-2.6-2.1c-2.4,0.5-4.8,0.9-7.2,1.1c-8.8,0.6-17.6,1-26.4,1.4
		c-1.7,0-3.4-0.4-5.1-0.8c1.2-0.6,2.7-1.2,3.9-1.8c7.3-4.9,16.1-1.8,24.9-2.6c1.8-0.2,3.4-0.4,4.9-0.5c-2.1-1.2-4.3-2.3-6.5-3.3
		c4.1-0.8,8.2-1.4,12.8-2c0.7-0.1,1.5-0.2,2.2-0.4c-0.3-0.2-2.4-1.4-2.4-1.5c-2.7-1.9-7.8-6.2-10.2-7.5c3,0.4,12.4,7.2,15.6,8.1
		c2.1,0.6,4.5,0.6,6.6,0.3c2.3-0.3,11.3-0.7,12.4-1.1c-2.8-3.3-7.5-7.3-11.4-9.1c5.3,1.2,9.1,5.5,13.7,8.6c1.6,1,2.7,0.9,4.4,0.9
		c1.4,0,7.6,0.3,8.3,0.1c-2.6-4.4-6.1-6.8-9.4-10c7.8,3.7,9.8,10.7,13.9,12.6c2.5,1.1,16.3,7.2,17.6,7.6c0.1-0.3,0.2-0.6,0.3-0.9
		c0.2,0.4,0.4,0.8,0.6,1.2l0.2,0.4c4.3,0.4,8.6,0.6,13,0.2c5.1-0.4,8.2,1.4,11,3.4c1.4-6.2,2.5-12.4,2.2-14.8l0-0.1
		c-0.1,0-0.2,0-0.3,0c-8.9-3.2-17.9-1.6-26.9-1.1v0c-3.1,0.2-6.3,0.2-9.4-0.1c-1.5-0.2-2.9-1-4.4-1.4c1.5-0.8,3.2-2.4,4.6-2.4
		l7.9-0.1v0c9-0.1,18-0.2,27-0.2c-1.1-3.7-2.4-7.3-3.3-11.1c-0.1-0.5-0.2-1-0.4-1.5c-1,0.4-2.2,0.9-3.1,0.7
		c-6.5-1-12.8-1.6-19.1-1.2c-1.1,2.2-2,4.5-2.9,6.8c-0.2,0.5-0.3,1.1-0.5,1.6c-0.2-0.4-0.4-0.7-0.7-1.1c-1.5-2.3-3-4.4-4.9-6
		c-0.8,0.2-1.5,0.4-2.3,0.6c-5.4,1.6-12.2,0-18.3,0.6c-7.8,0.8-15.6,2.6-23.4,4c-2,0.4-4.1,1.4-5.9,1c-17.1-4.5-33.6,0-50.2,2.1
		c-0.4,1.1-0.8,2.2-1.2,3.3c0-1.1,0-2.2,0-3.1c-1,0.1-2,0.2-3,0.3c-11.7,1.2-23.7-0.2-35.4,0.4c-7.8,0.2-15.6,1.6-23.4,2.4
		c-2,0.2-3.9-0.2-5.9-0.2c5.2-4.3,3.4-2.2,9.3-4c6.8-0.3,13.5-0.2,20.1-0.3c-2.6-4.1-2.7-9.5-4.3-11c-2.5-1.3-5-2.4-7.5-3.5h-16.5
		c0.2,0.4,0.5,0.7,0.7,1.1c1.3,1.9,2.5,4.5,3.6,6.1c-0.9-0.6-3.5-4-6.4-7.2h-22.8c1.6,0.8,3.1,1.6,4.6,2.3l0.5-0.2
		c6.5-2.4,6-1.8,12.4-0.6c-6,4.3-4,4.5-12.2,4.2c-2.9-0.2-5.6-0.4-8.3-0.6c2.1-0.7,4.3-1.5,6.8-2.5c-2.2-0.9-4-1.9-6.2-2.7h-12.2
		l-0.4,0.2c-1.7,1-6.8,4.5-7.5,6.1c4.3,0.2,9.8,0.5,14,1.7c-6.3,0-11.1-1.5-17.3,0c-1.9,0.8-3.8,2.6-5.5,4.8c3,0.3,6.2,0.4,10.3,1.2
		c-1,0.6-2,1.8-2.9,1.8c-3.1,0-6.4,0.4-9.6,0.3c-2,3.5-3.2,7.4-3.1,10.4c3.6,0.9,11.1,0.6,15.1,0.6c3.2,0,6.6,0.6,8.8-1.9
		c3.1-3.6,5.4-6.2,9.1-9c-2.4,2.4-2.8,3-4.8,5.7c-1.2,1.6-1.9,2.9-2.7,4.8c2,0.1,4.5-0.1,6.7-0.1c1,0,6.1,0.1,6.7-0.1
		c3.5-2.2,6.2-5.2,9.7-7.4c-2,2.3-3.8,4.7-5.4,7.2c1.6,1.1,10.6,2.1,13.2,2.5c1.4,0.2,1.8,0.2,3.2-0.1c4-1.3,6.3-4.6,11.3-4.7
		c-1.6,2.4-7,4.4-9,6.5c0.1,0,0.3,0.1,0.4,0.1c-1.2-0.3-2.2-0.4-2.9-0.2c-5.6,2.8-9.9,6.1-14.5,10.2c4.4-0.3,8.8-0.5,13.3-0.4
		c8.3,0.2,16.6,2,24.9,2.4c5.9,0.2,11.7-0.8,17.6-1.2c4.9-0.2,9.8-0.2,14.6,0c0.7,0,2.2,1.4,2.2,1.6c-0.5,0.8-1.5,2-2.2,2.2
		c-11.7,0.6-23.7,1.2-35.4,1.4c-13.5,0.3-26.8-1.5-40.1-0.7c-2.7,3.1-5.2,6.5-6.7,9.6c7.6-3.9,8.9-3,16.3-4.1
		c-5.3,2.7-11.5,2.3-17.7,8c-2.1,2.2-3.6,5.2-4.5,8.1c-1.1,3.4-2.1,6.6-2.9,10c-0.2,1.3-1.1,5.6-0.8,6.8c2-1.7,3.9-3.3,5.9-4.9
		c2.1-2.3,4.7-4.6,6.7-6.8c-1.8,2.9-3.5,4.7-5.7,7.1c-3,2.5-4.6,4.2-6.6,7.6c-1.1,1.9-1.2,3.8-1.2,6c0,1.5,0.6,9.7,1.4,10.4
		c2.5-4.1,5.5-9.4,8.6-12.9c-3,6.4-6.8,10.3-8.9,17.1c-0.2,1.3-0.2,3,0.1,4.8c6.6,0.1,13.2,0.1,19.7,0.2c1.5-2.7,2.7-5.6,2.1-8.6
		c-4.4,0.1-8.7,0.2-13,0.3c-2.2,0-4.1-1-6.3-1.6c1.7-0.8,3.4-2,5.1-2.2c4.3-0.4,8.6-0.7,13.1-0.9c-0.8-3.3-1.6-6.7-2.2-10
		c0.9,2.5,1.8,5.1,2.8,7.6c0.3,0.9,0.6,1.6,0.9,2.3c1.1-0.1,2.2-0.1,3.4-0.2c1.9-4.2,4.6-10.4,4.8-11.2c0.1-3.6-1.4-10.8-1.7-14.9
		c1.2,3.1,2.5,6.2,3.9,9.2c1.5-1.3,6.6-10.2,8.4-12.8c0.9-1.3,1.2-1.7,1.5-3.3c0-0.2,0-0.4,0-0.7c-7.2-1.1-14.2-2.3-21.2-3.6
		c-1.2-0.2-2.2-1.4-3.2-2c1.2-0.6,2.7-1.6,3.9-1.8h20.2c0.2-1.4,0.6-2.7,1.4-3.9c0.4,0.9,0.5,2.8,0.6,4.7c1.2,1.2,2.4,2.2,3.8,3
		c1.7-1.7,3.2-3.1,5.2-4.6c-1.5,1.6-2.8,3.4-3.9,5.3c8.3,4,18.9,1.4,27.7,3c0.5,0.1,1,0.2,1.5,0.3c1.2-3.6,2.3-7,3.7-10.5
		c-6,0.6-12,1.5-17.9,3.2c-1.2,0.4-2.9-0.8-4.6-1.2c1.2-0.4,2.4-0.8,3.4-1.4c11.2-6.5,24.4-4.5,36.6-6.7L224.7,351.1L224.7,351.1z
		 M236.9,352.9c2.4,1,4.8,1.9,7.3,2.5l0.3,0.1c-0.2-0.6-0.4-1.2-0.1-1.4c0.3-0.3,0.7-0.5,1-0.7c-0.3-1.4-0.8-3.1-1.2-4.5
		C241.2,349.1,238.7,350.2,236.9,352.9L236.9,352.9z M245.5,348.7c0.5,0.7,0.8,1.6,1.2,2.5c0.1,0.2,0.2,0.6,0.3,1.1
		c2.3-1.1,4.7-1.4,7.6-2.3c-2.2-0.4-4.6-1.2-6.8-1.2C247,348.7,246.3,348.7,245.5,348.7L245.5,348.7z M247.9,356.2
		c0.2,0.9,0.4,1.6,0.6,1.7c8.8,5.5,10.6,9,17.4,15.6c0.1-3.8,1-12,0.7-15.1c1.3,2.5,1.2,11.5,1.3,14.7c0,0.7,0.1,1.4,0.2,2
		c4.1,0.8,8.3,1.6,12.5,2.2c0-0.2,0-0.5-0.1-0.7c0.1,0.2,0.2,0.5,0.2,0.8c8.6,1.3,17.4,2.3,26.1,3.1c-0.8-2.8-1.6-5.3-2.6-6.8
		c-1.3-1.5-2.7-2.8-4.2-3.9c-4.7,0.4-9.3,0.8-14,1.2c-1.5,0.2-3.2-0.6-4.6-1c1.5-1,2.7-2.6,4.4-2.8c2.7-0.4,5.3-0.9,7.9-1.5
		c-1.3-0.7-2.6-1.5-3.9-2.2c2.1,0.5,4.1,1.1,6.1,1.8l3.9-0.9c-1.5-3.6-4.8-8.4-6.5-10.6c-1.8-2.4-3.7-4.6-5.8-6.8l-0.5-0.5
		c-8.1,1-16.4,1.4-24.5,2.4c-2.9,0.4-9-1.4-3.9,4.3c0.2,0.2-0.5,1.6-1,1.8C254.5,355.3,251.2,355.8,247.9,356.2L247.9,356.2z
		 M271.5,381.3c2,2.6,6.4,9.4,7.5,10.4c0.6-2.4,1.2-5.5,1.5-8.6C277.3,382.6,274.4,382,271.5,381.3L271.5,381.3z M281.3,383.3
		c-0.1,3.4-0.6,7-0.5,10.4c0.1,2.6,1.5,4.3,2.8,6.3c0.7,1.1,3.4,6.3,4.2,6.8c1.5-5,1.7-10.2,2.4-15.1c0.4,2.5,0.4,4.4,0.1,6.9
		c-0.4,4-1.4,7.8-1.8,11.9c0.1,3.5,5.6,17.3,7.6,20.4c5.8-2.4,9.6-9.9,11.6-15.5c1.7-5.3,3.1-10.6,0.5-15.8
		c-2.7-5.1-6.2-9.6-10-13.9C292.4,385.1,286.7,384.3,281.3,383.3L281.3,383.3z M298.4,385.8c3.7,3.2,5.7,5.6,9.2,9.2
		c0.7,0.7,1.3,1.5,2,2.2c0-0.8-0.1-1.8-0.2-2.6c-0.2-2-0.6-4.8-1.2-7.8C305,386.5,301.7,386.2,298.4,385.8L298.4,385.8z
		 M326.5,306.4c-0.6-0.2-1.3-0.4-2-0.5c-6.4-1-12.1-0.5-18.3,0.7c6.2-2.1,10.9-2.8,17.2-3.4c-0.8-0.6-1.7-1.1-2.7-1.6h-35.9
		l-0.2,0.1l0.1-0.1h-25.9c-1.7,2-3.4,4-6,5.6c0-1.7,1.4-3.6,2.9-5.6H244c-2.3,1-4.4,2.1-6.4,3.1c-2.8,1.5-2.1,1.4-3.5,3.8
		c-0.3,0.8-0.6,1.6-0.9,2.3c-0.4,0.8-0.8,1.7-1.1,2.5c2.4-0.3,4.9-0.8,7.4-1.6c10.5-3.2,23.2-5.3,35.1-1.4c8.9,3,19.2-1.6,29.3-2.8
		c5.4-0.6,10.7,0.2,16.1-0.2C322.2,307.2,324.3,306.8,326.5,306.4L326.5,306.4z M229.8,313.7c0.3-1.2,0.8-2.3,1.5-3.4
		c2.3-3.3,4.4-6,6.8-8.7h-37.8c-0.6,2.2-0.1,2,0.6,4.3c0.1,0.2,0.2,0.4,0.4,0.7c1.7,3.2,3.3,5.9,5.4,8.8c1.1-0.1,2.3-0.3,3.4-0.4
		C216.7,314,223.2,314.3,229.8,313.7L229.8,313.7z M206.6,315.3c-1.9-1.6-6.8-6.2-7.6-6.1c-0.3,0.8-0.4,1.8-0.5,3.1
		c-2.8-2.1-5-3.2-7.8-4.7c-0.4,1.2,0.8,5.6,1.2,8.4C196.8,316,201.7,315.9,206.6,315.3L206.6,315.3z M126,420.2
		c1.5,5.3,4.1,10.6,6.7,13.1c2.8-2.7,6.1-8.4,8.6-12.9c-2.9-0.2-5.8-0.4-8.8-0.4C130.4,420.1,128.2,420.1,126,420.2L126,420.2z
		 M172,368.3c-0.5,1.1-0.9,2.2-1.3,3.3c-0.4,1.1-0.7,2.2-0.9,3.4c-0.3,0.9-0.5,1.8-0.7,2.7c1.3,0.1,6.9-4.5,10-5.3
		c-0.4,0.6-0.8,1.1-1.2,1.6c-2.4,2.7-9.7,8.2-10.4,10.4c-0.4,3.2-0.6,6.2-0.5,9.4c0.1,1.9,0.2,3.7,0.4,5.4c1-0.1,1.9-0.2,2.9-0.3
		c6-0.6,7.4,3.3,9.3,5.5c-2,0.2-4.2,0.4-6.1,0.6c-1.7,0.1-3.4,0.1-5.1,0.2c0.7,3.4,1.7,6.8,3,10.4c1.4,0.1,2.9,0.3,4.3,0.4l0.6,0.1
		c0.2-0.8,0.4-1.5,0.7-2.3c0.8-2.9,2-5,2.8-7.4c0.1,1.3-1,5.4-1.6,9.9c10.7,0.8,21.1,0.3,31.5-0.7c-0.8-1.7-2.1-4.2-3.4-6.5
		c-6.4-0.4-12.1-0.7-17.8-1.3c-1.5-0.2-2.7-1.6-3.9-2.4c1.5-0.4,2.9-1.4,4.4-1.4c4.9,0.2,9.9,0.3,14.8,0.5l-0.2-0.4
		c-0.7-1.5-1-2.3-2.2-3.5c-3.2-3-7.1-3.3-9.4-8c-0.5-0.2-0.9-0.4-1.4-0.6c1-0.4,2-1,2.9-1.2c2.2-0.5,4.3-0.9,6.5-1.3
		c-0.3-2.1-0.3-4-0.2-6.2c0.1-1.8-0.1-1.7-1.3-3.5c-1.3-1.7-2.4-3.5-3.3-5.3c-5.8-1.1-11.1-2.7-15.9-5L172,368.3L172,368.3z
		 M177.4,423.5c0.1,1.4,0.2,2.7,0.6,3.9c1,3,2.9,5.9,5.1,8.2c0.7,0.8,1.6,1.7,2.7,2.8c2.7-0.5,5.4-1,8.2-1.5
		c-0.7-2.1-1.3-4.2-2.1-6.6c1.3,2.4,2.2,4.5,2.9,6.4c6-1.1,12.1-2.1,18.1-2.6c-0.7-0.2-1.4-0.4-2.1-0.6c1.3,0.2,2.3,0.4,3.2,0.5
		c1.4-0.1,2.9-0.2,4.3-0.3c2.5-0.1,5-0.1,7.4,0c-2-2-4.1-3.9-6.1-6c-0.9-0.9-5.2-5.9-5.9-6.3l-0.5-0.2
		C201.2,421.9,189.2,423.4,177.4,423.5L177.4,423.5z M190.6,442.9c1.4,1.2,2.7,2.3,4,3.2h2.6c-0.6-1.5-1.2-2.9-1.7-4.3
		c-1,0-2,0.2-3,0.5C192,442.5,191.3,442.7,190.6,442.9L190.6,442.9z M196.7,441.8c0.6,1.4,1.3,2.8,2.3,4.3h11.4c-0.7-1-1.3-2-1.9-3
		c0.9,1,1.8,2,2.7,3h28.6c-1.6-1.4-3.1-2.7-4.2-3.7c-1.4-1.3-2.7-2.7-4.1-3.8c-8-1-19.7-2.7-23.8,0.7
		C203.7,442.6,200.1,441.9,196.7,441.8L196.7,441.8z M193.9,393.1c2.4,1.4,5.7,3.9,7.6,4.4c-0.3-1.6-0.7-3.2-1.1-4.8
		c-2.1,0.2-4.2,0.3-6.3,0.5C194,393.1,194,393.1,193.9,393.1L193.9,393.1z M196.8,374.7c1.3,1.5,2.5,2.8,3.3,2.9
		c0.1-0.1,0.3-1,0.7-2.3C199.5,375.1,198.1,374.9,196.8,374.7L196.8,374.7z M120.6,319c0-1.4,0.5-2.6,1-3.6c2.2,0.8,4.4,1.6,6.6,2.4
		C124.8,319.4,123.7,319.8,120.6,319L120.6,319z M249.5,325.9C221.6,318.4,266.2,322.8,249.5,325.9L249.5,325.9z M390.4,373.1
		c1-6.1,2.2-12.2,3.6-18.4c1,0,2.1,0.1,3.1,0.1c3.9,0.2,8.1-1.2,12-2c-4.4-1-8.5-2.2-12.9-3c-0.3-0.1-0.6-0.1-1-0.2
		c1.9-8.1,4.1-16.3,6.6-24.5c6.3-0.3,12.6-0.7,19-0.7c1.4,0,2.7,0,4.1-0.1c-1.3,3.9-2.5,7.8-3.6,11.8c-1.2-0.3-2.5-0.6-4.1-1
		c-3.7,1-6.6,2-9.5,3c3.4,0.2,6.8,1,10.3,0.8c1,0,1.9-0.4,2.8-0.8c-3.2,11.3-5.7,22.7-7.5,33.9c-1.5,0-2.9,0.1-4.3,0.1
		C402.7,372.4,396.6,372.8,390.4,373.1L390.4,373.1z M403.2,320.6c2-6.3,4.2-12.6,6.7-19h23.5c-2.7,6.5-5.1,12.9-7.3,19.3
		C418.4,320.8,410.8,320.7,403.2,320.6L403.2,320.6z M374.6,301.6c0,3.2-1.5,5.6-2.8,8.5c-0.7,1.7-3.5,9-4.6,10.4l-0.2,0
		c-2.8-6-4.1-12.6-5.7-18.9H374.6L374.6,301.6z M360.9,301.6c0.1,1.9,0.3,3.5,0.6,5.3c-0.8-0.6-1.5-1.4-2.2-1.4
		c-6.1-0.3-12.4-0.8-18.5-0.8c0.5-1,1.1-2.1,1.7-3.1H360.9L360.9,301.6z M363.2,346.9c-1.2,4.3-2.3,8.1-3.2,9.8
		c-6.1-1.6-11.3-6.9-15.2-12.6C350.9,344.9,357,345.9,363.2,346.9L363.2,346.9z M340.7,301.6c-0.7,1-1.5,2-2.3,3.1l-0.6,0
		c-1.4,0.1-2.7,0.2-4.1,0.4c0-1.1,0-2.3,0-3.6H340.7L340.7,301.6z M336.2,307.8c-0.8,1.1-1.5,2.2-2.2,3.3c-0.1-0.9-0.2-1.9-0.2-2.9
		C334.6,308,335.4,307.9,336.2,307.8L336.2,307.8z M601.8,301.6c-0.2,6.4-1.8,14-4,19.8c-3.2,0.2-6.4,0.7-9.6,1.2
		c-4.4-4.9-8.8-11.2-11.7-15.2c-1.4-1.9-2.9-3.9-4.2-5.9H601.8L601.8,301.6z M537.2,301.6c-0.4,3-1,6.1-1.7,9.3
		c-0.9,3.8-2.2,8.7-4,12.2c-0.8-5.3-2-9.4-4.3-14.3c-1.2-2.8-2.6-5-3.9-7.2H537.2L537.2,301.6z M522.5,301.6
		c1.9,6.1,6.9,18.7,5.7,26.9c-0.6,3.7-2.2,7.4-4.2,10.6h-15.6c0.2-1.2,0.5-2.5,0.7-3.8c-0.5,1.3-1,2.6-1.3,3.8h-1
		c-5.6,0.8-10.2,1.6-14.6,2.8c-1.7,0.4-3.2,1.2-4.6,1.8c2,0.2,3.9,0.8,5.9,0.6c4.5-0.6,9-1.2,13.4-1.8c-1.9,7.5-2.3,13.3-8.2,22.8
		c-2,3.2-4.7,5.1-8,6.9c-3,1.6-12.9,6.3-15.9,6.1c4.6-6.3,10-14.1,12.9-21.3c-6.5,9-10.1,17.4-18.8,24.5c-8.8,5.4-28,5.3-36-0.4
		c0.1-0.1,0.1-0.3,0.2-0.4c1-0.2,2-0.5,3-0.7c2.2-0.6,3.9-4.8,1.7-5.9c3.7-4.6,8.3-9.7,11-12.8c3.7-4.4,6.8-9.6,12.5-10.9
		c5.9-1.2,11.1-2.7,16.8-4.8c1.6-0.7,3.1-1.3,4.6-2.1c-5.3,1.7-6.8,2-12.4,3c-3.3,0.6-5.8,0.7-9.2,0.5c2.5-3.4,5.2-6.5,7.7-10
		c0.6-0.9,2.5-3.8,4.3-6.3c2.6,0.7,5.2,1.3,7.9,1.3c11.2,0,22.5-1.4,33.7-2.4c3.4-0.4,7.1-1.4,10.5-2.2c-3.4-1-6.8-2.8-10.5-2.8
		c-11.5-0.2-22.9,0.1-34.4-0.1c4.7-2.4,9.4-4.3,13.9-7.1c-4.5,1.3-9.1,2.3-13.7,3c0.1-2.1,4.6-13.4,6.5-18.8H522.5L522.5,301.6z
		 M522.2,341.9c-4.2,5.8-13.4,17.4-18.9,20.6c2.2-7.5,3.3-13.3,4.4-19.9c1.7-0.2,3.4-0.4,5-0.5C515.9,341.7,519.1,341.9,522.2,341.9
		L522.2,341.9z M455.4,365.9c-1.5-1.2-2.2-2.4-2.7-3.6c3.4-1,6.8-2.2,10.5-2.8c1-0.2,2.4,1.2,3.4,2c0.2,0-0.7,1.4-1.5,1.6
		C462.3,364.3,459.1,365.1,455.4,365.9L455.4,365.9z M291.8,295.3c0.4-0.3,0.8-0.7,1.2-1c-4.4-2-17.5-0.8-22.9,0.2
		c-1.6,0.3-2.5,0.4-3.5,0.8H291.8L291.8,295.3z M239.7,295.3c-3.7-0.4-8.4-1-9.5-0.9c1-0.5,4.7-0.6,5.9-0.7c2.1,0,7.1,0.4,8.9,0
		c0.1,0,0.2-0.1,0.3-0.1c-2.9-0.2-5.9-0.4-8.9-0.8c4-0.5,8-0.9,12-1.1c0.3-0.2,0.5-0.5,0.7-0.7c1.4-1.5,6.9-6.4,7.4-7.3
		c-3.5-0.9-9.2-1.8-12.8-1.4c4.4-1.7,12.8,0.3,15.1-0.6c1.3-0.4,1.9-1,2.9-1.9c1-1,4.9-4.6,5.3-5.5c-4.1-1-7.9-1.1-12-1.5
		c0,0-0.1,0-0.2,0c0,0,0.1,0,0.2,0c6.2-1.1,9,0.7,14.7,0.4c3-0.7,9.5-6.1,13.1-10l-5.2,0.1c-1.5,0-2.9-0.6-4.1-0.8
		c1.2-0.8,2.2-2.4,3.4-2.6c2.2-0.2,4.5-0.4,6.7-0.6c-2.3-2-6.2-3.6-9.6-4.6c-1.1,0.4-2.1,0.7-3.2,0.8c-7.4,0.8-11.3,1.2-14.7,1.2
		c-2.9,2.9-6.1,6.6-8.4,9.6l1.1,0.1c0.7,0,1.5,0.8,2.2,1c-1,0.6-1.7,1.4-2.7,1.4c-5.3-0.2-10.6-0.4-15.9-0.6
		c-0.6,1.6-1.2,3.3-1.8,5.1c0.1-1.7,0.2-3.5,0.4-5.2c-2.4-0.1-4.8-0.2-7.2-0.3c-2.9,2.4-5.7,5.1-7.3,6.8c-1.4,1.5-2.4,2.7-3,4.6
		c-1.2,4,0.1,8-0.4,12.4c0.7-0.1,1.5-0.1,2.3-0.1c0.7,0,1.5,0.6,2.4,1c-0.7,0.6-1.7,1.4-2.4,1.6c-4.2,0.4-8.4,0.7-12.6,0.9l0,0.1
		H239.7L239.7,295.3z M266.3,253.2c-2.2-0.3-4.4-0.3-6.4,0.6C262,253.6,264.1,253.4,266.3,253.2L266.3,253.2z M247.6,266.4
		c2-3.5,4.1-6.5,6.2-9.6c-2.4,0-4.9-0.2-8.6-0.5c-2.9,1-7,2.5-8.2,3.6c-1.5,1.8-2.5,3.6-3.4,5.4C238.3,265.7,243,266.1,247.6,266.4
		L247.6,266.4z M255.5,254.2l0.3-0.4c-1.1,0.1-2.4,0.3-3.6,0.6C253.3,254.3,254.4,254.3,255.5,254.2L255.5,254.2z M231.4,265.2
		c0.1-0.6,0.2-1.2,0.3-1.8c-1,0.2-2.2,0.7-3.6,1.5L231.4,265.2L231.4,265.2z M211.6,291.9c-1.1-3.1-0.7-7.9-1.4-10.2
		c-2.5,3.2-4.7,7-6.5,11C206.6,292.4,209.1,292.1,211.6,291.9L211.6,291.9z M290.6,575c0.7-20.7,0.6-40.8-1-60.6
		c-6.7-1.3-6.6-0.4-6.2-2.8c2.7,0,4.6,0,6-0.1c-0.6-7.3-1.5-14.6-2.5-21.7c-3.7,0.1-7.5,0-11.2,0.2c-0.7,0-1.5-0.6-2.4-1
		c1-1,1.7-2.6,2.7-2.8c3.3-0.7,6.8-1.2,10.2-1.7c-1.8-10.8-4.1-21.4-7.1-32h-16.2c5.3,19.6,7.7,39.6,7.9,60l0.1,0
		c2,0.4,3.9,1.4,5.6,2.2c-4.2,1.2-4.9,1.6-5.8,1.8c-0.1,17.8-2,35.8-5.1,54.3c3.3,0.3,6.6,0.8,9.8,1.3
		C280.5,573,285.5,574,290.6,575L290.6,575z M204.8,452.5c0.9,0.6,2,1,3.1,1.4c2.2,0.8,9.4,3.2,11.5,2.7c-1.2-1.3-2.5-2.7-3.8-4.1
		H204.8L204.8,452.5z M216.8,452.5c2,2.1,4.2,4,6.9,5.8c6.6,2.9,19.7,1.1,24.7-3.7c-0.4-0.6-1.1-1.3-1.8-2.1H216.8L216.8,452.5z
		 M386.5,490.8c-1.1-12.8-1.7-25.6-1.9-38.3h25.9c1.3,14.4,3.4,28.7,6.2,43.2C406.7,494.8,396.7,492.7,386.5,490.8L386.5,490.8z
		 M402.5,567.1c-1.7-1-3.2-1.8-4.4-2.6c1-0.6,2.4-1.8,3.2-1.6c5.6,1.4,11,3.2,16.4,4.9c0.7,0.2,0.7,1.4,1.2,2.2
		c-1.2,0.2-2.4,1-3.4,0.6C411,569.8,406.9,568.5,402.5,567.1L402.5,567.1z"/>
</g>
</svg>
