<?xml version="1.0" encoding="utf-8"?>
<!-- Generator: Adobe Illustrator 21.1.0, SVG Export Plug-In . SVG Version: 6.00 Build 0)  -->
<svg version="1.1" id="Layer_1" xmlns="http://www.w3.org/2000/svg" xmlns:xlink="http://www.w3.org/1999/xlink" x="0px" y="0px"
	 viewBox="0 0 720 485.1" style="enable-background:new 0 0 720 485.1;" xml:space="preserve">
<style type="text/css">
	.st0{fill-rule:evenodd;clip-rule:evenodd;fill:#FF8D90;}
	.st1{fill-rule:evenodd;clip-rule:evenodd;fill:#F3DF1D;}
	.st2{fill-rule:evenodd;clip-rule:evenodd;fill:#69DED9;}
</style>
<g>
	<path class="st0" d="M37.2,203.6l-1.6,0.5c-14.8,4.1-5.6,1.8-12.9,4.1c-2.2,0.7-14.9,1.6-22.7,3.6c4.2,5.3,8.3,6.8,11.9,10.2
		c1.2,1.3-0.4,1.3,2.4,4.6c1.2,1.4,1.3,1.4-0.4,2.9c1.8,2,0.8-1.7-7.8,4.6c6,1.2,4.6,1.7,7.8,3c3.6,1.4,6.8,1.3,11.5,2.5
		c7.1,1.9,5.9,4.5,9.7,6.7l12.5-0.5l-1.6-83.2c-3.3,0.2-2.3,0.6-7.4,0.8c-4.3,0.2-5-0.1-10,0.3c-23.3,2-24.1,0.1-18.2,6
		c2.6,2.6-2.2,4.9,2.1,7.7c7.6,4.7-2.8,6.2,7.5,16.4c3.3,3.3,3-1.6,3.9,7.1c6.1,0.8,2.5,0,7.2,0.5c1.3,0.2,3.6,0.7,7.1,1.3
		L37.2,203.6L37.2,203.6z M95.9,242.6l49.6-1.4c15.2-22.7,9.7-58.1-5.4-78.6l-46.3,1.1c0.4,19.3,0.3,34.9,1.3,54.7
		C95.4,226.3,95.7,234.5,95.9,242.6L95.9,242.6z M160,240.8c8.1-0.1,17.1-0.2,26-0.3c-0.5-22-1.7-44.4-1.1-66.5
		c0.1-4.1,0.2-8.3,0.3-12.5l-30.3,0.8c7.3,12.7,11.7,30.8,12.1,45.6C167.4,219.6,165,230.7,160,240.8L160,240.8z M227.4,240
		l58.4-0.7c-0.3-25.3,1.1-54.5,4-79.7l-61,0.9l-1,20c3.6,0,13.8-4.7,17.8-0.7c3.6,3.6,2.5,9.5-2.9,10.5c-4.7,1.1-9.5,2.2-14.5,2.9
		c-1.1,0.4-1.5,0.7-1.5,1.8C226.5,212.3,226.3,222.9,227.4,240L227.4,240z M298.4,239.2l51.9-0.5c-5.5-25.6-10.8-53.7-14.5-79.7
		l-33.1,0.5C300,181.2,298.4,217,298.4,239.2L298.4,239.2z M399.8,238.2l33.3-0.1c-8.6-21.4-12.4-56.5-13.8-80c-9,0-17.9,0-28.1,0.1
		C394.8,183.6,397.2,212.6,399.8,238.2L399.8,238.2z M476.7,238.2l24.7,0.2c2.8-9.4,4.5-19.1,6.5-28.7c0.4-1.8,0.7-3.6,2.2-4.7
		c4.7-3.7,11.4-0.4,10.2,5.8l-5.6,27.8l32.2,0.5c-1.4-24.7-3.6-52.8-4-77.1l-0.1-2.7l-74.5-1C467.1,186,467.2,211.4,476.7,238.2
		L476.7,238.2z M590.2,239.9c11.7,0.5,23.9,1.6,40.3,3.5c-3-26.3-3.5-55.5-3.3-81.8c-15-0.7-28.5-1.2-42.8-1.5l3.6,60.8
		C588.5,227.2,589.2,233.6,590.2,239.9L590.2,239.9z M643.3,245.1l13.7,1.7c7.4-6.4,18.5-14.5,24.1-20.8c0.7-0.8,1.1,0.2,3.1-3
		c1.8-3,2-1.2-0.3-3.6c9.3-1,0.2-2,16.8-5.8c3.9-0.9,9-2.1,11.1-3.4c-5.4-2.5-6.9-2.5-10.8-4.1c-10.2-4.3-7.1-6.6,4.2-11.5l-4.9-9.7
		c-1.8-0.8-8.1-2.1-9.2-4l-8.2-1.1c-7.9-0.6-6.6-0.9-14.8-2.4l1.1-6.1c-1.7-1.1,0.7-0.1-4.5-0.3l1.8-1.3l-3.7-0.6
		c3.8-2.6,3.9-1.4,9.7-2.6c-7.1-3-23.5-3.5-32.5-4C639.5,189.1,640.3,218.6,643.3,245.1L643.3,245.1z M37.7,461.1l-1.2,0.7l-8.7-5
		l7.2-1c-2.6-1.4-3.7-5.1-3.7-6.7c0-1.4-0.3-1.3,3.3-2.3l-2.4-2.2c3.5-0.7,2.6-0.7,5.5-0.7c-2.5-1.9-3.7-1.5-7.4-2.1
		c-4.3-0.8,0.4-0.5-8.5-1.9c-2.4-0.4-3.6-0.5-0.6-1.6c-0.6-0.1-6.2-0.7-8.1-2.2c-1.5-1.2-1.7-0.2,0.3-1.2c-1.7-1.3-7.5-4.3-11.6-3.9
		l-1.2-1.1l6.8-2.3c-10-9.1,3.3-3.6-2.2-8.6c5.5-0.3-2,0.1,3.8,0.6c0.5-0.6-0.1-0.8,2.2-1.8c2.7,0.6,7.7,0,10.1-0.4
		c1.3-0.2,2.6-0.7,5.2-1.3c4.7-1,5-1.3,3.9-3.7c18.8,1.6,0.3-1.3,11.9-1.5c-1.3-0.6-3.7-0.8-2.2-1.6c1.6-0.7,3.9-0.9,4.4-2.1
		l-3.8,0.3c0-1.3-0.3-1.4,0.1-2.7c-4,0.3-2,0.2-5-0.8c1.9-0.9,2.2,0.1,4.4-1.4c1.1-1.9-0.3-0.4-3.5,0.3c-1.5-1.1-0.8-0.7-2.5-1.3
		c1.9-1,3.2-0.9,5.1-2c-6.7-6.1,1.6-4.4-0.5-7.1c4.5-0.4,4.5,0.9,8.6,0.2c6-1,1.8-0.2,1.5-2.3c5,0.3,11.6-0.3,17.2-0.8
		c9.6-0.7,22.6,0.9,31.2,1.1c0.1,9.4,1.3,29.9-1.3,37.4l1.3,14.2c0.4,10.9,0.8,21.7,1.2,32.6c-6.4-0.8-11.9-2.7-16.7-3.6l-16.9-2.2
		c-0.3-0.8,2.6,0-5.9-1.9c-3.3-0.7-6.8-1.1-9.5-2.2L37.7,461.1L37.7,461.1z M118.6,390.8c2.8-0.1,5.6-0.2,8.5-0.3
		c10,0.7,20.2,1.2,30.2,1.8c-0.9,14.8-5.9,31.9-19.3,40.4c-6.9,4.4-19.2-4.7-23.7-9.6c-1.1-1.3-2.3-3.8-1.7-5.8
		C114.4,408.6,116.4,399.6,118.6,390.8L118.6,390.8z M171.8,393.4c7.4,0.9,7.9-0.2,11.9,0.4c3.1,0.5,2.6,0.8,4.7,1.2
		c1.9,0.4,4.1,0.1,7,0.1c-6.4,12.6-15.3,23.1-27.8,30.7l-4.8,1.2l1.1-4.2C168.3,413.1,170.8,403.3,171.8,393.4L171.8,393.4z
		 M216.6,396.8c4.1-0.8,4.7-1.2,4.5-1.3c10.1-1.7,31.2-0.7,44.2-2.2c2.7-0.4,4.3-0.5,5.5-0.5c-8.3,15.7-14.3,29.6-31.2,38.3
		c-10.2,5.3-15.2,2.1-18.1-6.5C218.7,415.5,216.9,406.2,216.6,396.8L216.6,396.8z M289.7,392.9l33.4-0.7c9.8-0.8,14.4,0.1,24.9-0.2
		c-6.4,14.2-11,27.7-24.6,38.2c-16.1,12.4-28.2-6.2-31.6-19.9C291.3,408.1,288.6,394.8,289.7,392.9L289.7,392.9z M366.7,391.6
		l17.8-0.8c4.1-0.1,3.6-0.9,8.4-0.8l5.2,0c-2.2,9.1-4.2,17.4-8,26c-1.6,3.6-5.6,12.8-8.1,15.7c-2.9,3.3-6.7,3.4-9.2-0.4
		C365.7,420.5,365.6,403.6,366.7,391.6L366.7,391.6z M424.1,389.5c0.7,0,1.5-0.1,2.4,0c13.5,0,3.8,0.4,11.2-0.6l21.6,0.2l13.4-0.5
		l0,0c-5.1,1.7-7.3,11-8.8,14.1c-5,10.2-9.8,20.3-15.1,30.3c-1.7,3.1-5.1,5.6-7.8,7.8c-5.5,4.6-13.8-5.6-14.9-17L424.1,389.5
		L424.1,389.5z M488.3,388.4l11.4-0.3c2.2,0,3.8,0.2,5.5,0.2c6.3,0-1.6-0.5,11.3-0.1c3.1,0.1,3-0.1,5.8-0.2c3.5-0.1,2.2,0.3,5.5,0.3
		c5.2,0,3.2-1.1,8.3-0.2c0.1,0.5,0.1,1,0.2,1.6c-2.2,4.9-5.3,9.4-10.1,12.5c-5.8,3.4-12.1,5.9-18.2,8.8c-2.4,1.1-3.8-0.2-5.1-2.1
		C498,401.9,493.3,395.2,488.3,388.4L488.3,388.4z M562.6,390.2l22.9-1.9c7-0.3,21.7-3.5,28.2-2.8c-5.7,4.2-9.1,29.6-28.6,44.6
		c-16.1,12.4-28.2-6.2-31.6-19.9c-0.9-4.4-1.5-8.8-2.3-13.2C550,390,553.8,392,562.6,390.2L562.6,390.2z M624.6,392.2
		c1.9,0.1,2.8,0.2,5,0.2c0.6,1.3,0.1,1.3,0.7,2.6c4.2,1,3-0.6,5.8,1.5l-3.4,0.7c2.3,1.7,0.7,0.5,3.7,1.6c9.8,3.4,8.6-1.2,17.2,3.1
		c9.8,4.9,2.5,3.1,1,4.8c-2.3,2.6,5.3-1.8-3.1,5c-3.5,2.8-4.5,2.9-9.9,4c2.8,0.3,2.6,0,4.3-0.2c5.5-0.6,1.8,0.2,5,1.2
		c3.3,1,1.8-1.5,6.2,0.7c-4.6,2.2,0,2-4.8,3.3c-0.2,0-0.5,0.1-0.7,0c-0.9-0.4-5.1,1.2-6.1,1.4c1.4,0.8,2,0.9,3.3,2
		c4.9-2.6,7.8-0.2,12.2,1.1c1.5,0.4,0.4-0.4,2.3,1c2.2,1.6,1.9,0.2,2.7,2.1l-6.2-0.4c1,0.7,1.1,0.2,3.4,1c-3.7,0.3-2.4,0.2-6.3,0.4
		c-2,1.2-3.9,0-5.4,0.1c1.2,0.4,0.5,0.6,1.6,1.2c-1.9,0.9,0.5,0.9-0.4,2.4c-0.8,1.2-1.7,0.7-2.3,2.1c-3.8,0.2-3.1-0.2-6.6,0.3
		l-11.9,1.8c-1.4,0.4-2.7,0.9-6.5,1.7l1.2,1.1c3.1-0.6,6.6-1,8.8-0.4c5.6,1.6-5.3,0.7,3,2.2c17.7,3.1,19.9,0.8,28.5,2.4
		c4,0.7,7.7,0.1,10.9,1.4c3.5,1.4,6,3,8.8,1.5c0.9-0.3-0.9-0.9,3.6,0.6l5.5,1.1l-8.9,1.4c3,2.5,14.8,3.8,1.4,3.5
		c-3.8-0.1-1.3,0-5.8,1c4.2,1.5,3.8-1.2,7.9,2.4c-2.4,0.9-5,3.1-4.4,4.5c-3.8,0.4-10.1,0.1-14.6,1.7c-11.4,4.1-8.4,1.1-17.2,2.7
		c-7.8,1.3-21.3,1.9-29.2,2.2c-3.8,0.1-5.3-0.7-12.1-0.3l-21.9,0.7c-7.6,0.7-15.5,0.3-17.6,0.6c-7.2,0.8-13.9,0.4-21.2,1.9
		l-27.1,1.1c-5.5,0-15.7-0.6-20.6,0.2c-7.5,1.3-7.2,0.4-15.9,2.4c-3.9,0.9-8.9,0.6-12.5,1c-6.4,0.7-6.5,1.8-13.6,1.9
		c-8.5,0.2-17.4,1.8-25.8,2.2L411,482c-4,0.4-8.9,0-12.1,0.5L350,485c-4.1,0-8-0.3-12,0l-28.3,0c-6.3-0.3-4.4,0.8-5.7-1.7l-19.2,1
		c-3.4,0.1-5.7-0.1-9.2,0c-9.3,0.2-47.3,0.3-56.2-1l-17.3-0.7c-2.2-0.2-6.1,0.4-11.3,0.1c-20.6-1-48.2-1-67.2-6.8
		c-4.8-1.5-5.5,0.1-11.6-0.2c-0.7-41.4-2.5-27.1,15.1-26c5.3,0.3,19.8,0.7,24.9-0.9c23-7.4,40.2-21,51.9-40
		c0.9,9.2,2.2,17.8,6.9,26.2c13.5,23.9,42,8.9,55.8-8.2c4.1-5.1,7.5-10.4,10.7-16c2.4,11.3,7.2,21.5,16.7,29.4
		c8.8,7.5,21.8,10.1,32.3,4c11.1-6.4,19.8-16.1,25.8-27.3c1.4,8.3,4,16.4,9.1,23.3c7.5,10.5,22,10.1,29.9,2.7
		c10.9-10.6,12.2-21.8,17.6-30.6c2,4.7,0.9,1.7,1.5,7.8c1.1,9.6,3.6,18.7,9.5,26.6c6.3,8.6,21.2,11.9,30.8,5
		c5.7-4,10.3-8.6,13.2-14.2c6.1-12.4,11.9-25.1,17.6-37.7h0.1l0,0c7.5,9.8,5.1,7.2,10.5,16.5c-10.8,7.4-19,11.8-21.8,25.1
		c-1.9,8.6,5,16.9,14.9,15.7c14-1.5,25.6-12,24.3-25.2c-0.2-1.3,0-2.7-0.2-4c-1.1-8.5,12.7-3.7,29.4-19.2c2.2,12.1,7,23.2,17.2,31.6
		c8.8,7.5,21.8,10.1,32.3,4c5.8-3.2,11.1-7.8,15.5-12.6c7.8-8.2,12.4-18.6,16.8-28.9C621.9,399.2,623.6,395.7,624.6,392.2
		L624.6,392.2z M495.6,431.5c3.5,3.5-5.1,12.1-9.8,12.8c-1.1,0.2-2.3-1.5-2.1-2.5c0.6-3.2,7.7-10.7,10.9-10.9L495.6,431.5
		L495.6,431.5z"/>
	<path class="st1" d="M37.7,93.1l-1.2-0.7l-8.7,5l7.2,1c-2.6,1.4-3.7,5.1-3.7,6.7c0,1.4-0.3,1.3,3.3,2.3l-2.4,2.2
		c3.5,0.7,2.6,0.7,5.5,0.7c-2.5,1.9-3.7,1.5-7.4,2.1c-4.3,0.8,0.4,0.5-8.5,1.9c-2.4,0.4-3.6,0.5-0.6,1.6c-0.6,0.1-6.2,0.7-8.1,2.2
		c-1.5,1.2-1.7,0.2,0.3,1.2c-1.7,1.3-7.5,4.3-11.6,3.9l-1.2,1.1l6.8,2.3c-10,9.1,3.3,3.6-2.2,8.6c4,0.2,1.1-0.9,5.9,1.2
		c2.7-0.6,5.7-0.3,8.1,0.1c1.3,0.2,2.6,2.1,5.3,2.6c4.7,1,0.4,4.2-0.8,6.5c18.8-1.6,6.9-2.7,18.5-2.4c-1.3,0.6-3.7,0.8-2.2,1.6
		c1.6,0.7,3.9,0.9,4.4,2.1l-3.8-0.3c0,1.3-0.3,1.4,0.1,2.7c-4-0.3-2-0.2-5,0.8c1.9,0.9,2.2-0.1,4.4,1.4c1.1,1.9-0.3,0.4-3.5-0.3
		c-1.5,1.1-0.8,0.7-2.5,1.3c1.9,1,3.2,0.9,5.1,2c-2.6,2.3-2.9,3.5-2.5,4.3l9.5-0.9l-1.5-66.8L37.7,93.1L37.7,93.1z M93.8,159l42.6-1
		c-8.1-9.1-20.3-16.7-32.2-19.3c-3.3-0.7-6.9-1.5-10.5-2.2L93.8,159L93.8,159z M152.1,157.6l33.2-0.8c0.7-28.9,3.4-56.8,6.9-85.5
		l-42.2,2.3c2.2,9.8,0.6,19.1-4,28.4c-6.9,13.9-19.1,19.7-31.6,26.5C128.9,133.4,143.5,144.8,152.1,157.6L152.1,157.6z M229.1,155.8
		l61.2-0.9c3.1-24.4,10.8-62.6,17.4-85.7c-4,0-2.7-0.6-3.8,1.6l-19.2-1c-3.4-0.1-5.7,0.1-9.2,0l-39.3,0.1l-5.6,58.6L229.1,155.8
		L229.1,155.8z M303.4,154.8l31.8-0.4l-2.2-15.6l-26.2,3.3c-1.5,0-1.8,0.7-1.8,1.8C304.4,147.5,303.9,151.1,303.4,154.8L303.4,154.8
		z M390.4,153.5c10.4-0.1,19.4-0.1,28.5-0.1c-1.3-27.4,0-54.5,12.2-79.7l-57.2-3.2c4.5,21,9.3,39,12.9,60.6
		C388.1,138.6,389.3,146,390.4,153.5L390.4,153.5z M468.5,153.6l74.1,1c-0.3-8.8-0.5-17.6-0.5-26.5c0-14.9,0.4-29.5,0.4-44.4
		l0.1-1.4L522.4,82c1.8,5.4,5.5,18.4-4.6,17.8c-2.9,0-5.5-2.5-5.5-5.5c-0.4-4.3-1.8-8.3-3.2-12.2c-8.3-0.9-13.1-1-20.6-2.9
		c-1.2-0.3-2.6-0.5-4-0.6C474.7,101.7,469.9,128.6,468.5,153.6L468.5,153.6z M602.6,156c8,0.3,16,0.6,24.6,1l0-3.7L602.6,156
		L602.6,156z M640,154.4c7.6-1.6,3.9,2.3,15.1-2.9c7.6-3.5,0.6-2.8-0.5-4c-2.3-2.6,5.3,1.8-3.1-5c-3.5-2.8-4.5-2.9-9.9-4
		c2.8-0.3,2.6,0,4.3,0.2c5.5,0.6,1.8-0.2,5-1.2c3.3-1,1.8,1.5,6.2-0.7c-4.6-2.2,0-2-4.8-3.3c-0.2,0-0.5-0.1-0.7,0
		c-0.9,0.4-5.1-1.2-6.1-1.4c1.4-0.8,2-0.9,3.3-2c4.9,2.6,7.8,0.2,12.2-1.1c1.5-0.4,0.4,0.4,2.3-1c2.2-1.6,1.9-0.2,2.7-2.1l-6.2,0.4
		c1-0.7,1.1-0.2,3.4-1c-3.7-0.3-2.4-0.2-6.3-0.4c-2-1.2-3.9,0-5.4-0.1c1.2-0.4,0.5-0.6,1.6-1.2c-1.9-0.9,0.5-0.9-0.4-2.4
		c-0.8-1.2-1.7-0.7-2.3-2.1l-9.7-0.8L640,154.4L640,154.4z M628,115.8c-0.7-0.2-1.6-0.4-2.6-0.6l1.2-1.1c0.5,0.1,1,0.2,1.5,0.3
		l0.9-28.3c-8.1-0.4-8.3,0.5-16.3,0.2l-21.9-0.7c-2.4-0.2-4.8-0.3-7.1-0.4l-0.5,24.5l0.7,36.4c0.7,0,1.1,0,1.5-0.4l40.4-5.1
		c1.1,0,1.5-0.7,1.5-1.8c0-2.5,0.4-5.1,0.4-7.6C627.8,126.1,627.9,121,628,115.8L628,115.8z M640.9,111.9c15.2-2.4,18.3-0.6,26-2
		c4-0.7,7.7-0.1,10.9-1.4c3.5-1.4,6-3,8.8-1.5c0.9,0.3-0.9,0.9,3.6-0.6l5.5-1.1l-8.9-1.4c3-2.6,14.8-3.8,1.4-3.5
		c-3.8,0.1-1.3,0-5.8-1c4.2-1.5,3.8,1.2,7.9-2.4c-2.4-0.9-5-3.1-4.4-4.5c-3.8-0.4-10.1,0-14.6-1.7c-11.4-4.1-8.4-1.1-17.2-2.7
		l-12.2-1.3L640.9,111.9L640.9,111.9z M137.4,74.9l-13.7,3.2c-4.7,1.4-6.5-0.4-14.9,0.6c-6.3,0.7-6.5-0.5-15.5,1.4
		c0.2,13.8,0,27.5,0.4,41.1l16.4-5.1C126.9,109.8,142.6,94.7,137.4,74.9L137.4,74.9z M320.6,71.8c5.1,17.8,8,36,10.9,54.6
		c-8,0.7-16,1.8-23.6,2.9c0-0.4-0.4-0.4-0.4-0.7C311.2,109.6,314.8,90.3,320.6,71.8L320.6,71.8z M37.2,361.8l-1.6,0.5
		c-14.8,4.1-5.6,1.8-12.9,4.1C20.5,367.1,7.8,368,0,370c4.2,5.3,8.3,6.8,11.9,10.2c1.2,1.3-0.4,1.3,2.4,4.6c1.2,1.4,1.3,1.4-0.4,2.9
		c1.8,2,0.7-1.7-7.8,4.6c6,1.2,4.3,1.4,7.8,1.6c3.7,0.2,6.7-1.7,11.4-0.5c3.5-0.6,5,0.5,13.2-5.6c4.5-0.4,4.5,0.9,8.6,0.2
		c6-1,1.8-0.2,1.5-2.3c5,0.3,11.6-0.3,17.2-0.8c9.6-0.8,22.6,0.9,31.1,1.1c-0.3-17.1-0.9-34.1-1.2-51.3c-0.1-3.9,0.6-10.3,3.7-12.9
		c-14.4,0.3-17.5-1-30.7-1.1l-20.7,0c-5.8,0.2-3.5,0.7-9.4,0.9c-4.3,0.2-5-0.1-10,0.3c-23.3,2-24.1,0.1-18.2,6
		c2.6,2.6-2.2,4.9,2.1,7.7c7.6,4.7-2.8,6.2,7.5,16.4c3.3,3.3,3-1.6,3.9,7.1c6.1,0.8,2.5,0,7.2,0.5c1.3,0.2,3.6,0.7,7.1,1.3
		L37.2,361.8L37.2,361.8z M119.8,386.1c12.5-0.4,25.1,0.9,37.6,1.6c-0.1-14.2,0.6-24.1-6.6-37.8c-4.2-8-7.6-8.6-13.2-1.5
		C128.9,359.9,123.7,372.3,119.8,386.1L119.8,386.1z M172.1,388.8c7.2,0.9,7.5-0.2,11.5,0.4c3.1,0.5,2.6,0.8,4.7,1.2
		c2.4,0.5,5.1-0.1,9.1,0.3l3.3-8.3c0.3-0.7,0.6-1.3,1.1-1.9c-0.1-2.3-0.3-4.5-0.4-6.8c1-16.3,1.1-31.8,2.9-46.9
		c0.3-2.5,0.6-5,0.9-7.6l-97.6,2.5c1.7,1.3,2.7,3.4,2.7,6.4c0.2,9.8,0.2,19.3,0,29.1c0,1.1,0.4,2.4,0.8,5.9
		c10.7-12.7,16.2-33.9,32.7-33.9C168.1,329.2,172.9,371.1,172.1,388.8L172.1,388.8z M216.6,392.1c12.6,1.1,13.6-1.2,14.8-1.3
		l30.2-1.9c4.7-0.2,8.2-1.1,11.7-0.6l1-2.3c0.9-16.5,1.9-30.8,7.7-44.4c5.6-13.4,19.9-22.9,32.4-14.2c17,11.9,21.2,37.1,6.1,52.4
		c-3.3,3.5-7.2,6.1-11.5,7.9c6.8,0.3,10.7-0.5,17.1-0.7l24.5,0c0.5-0.7,1.1-1.3,1.9-1.8c3.2-22.3,11.8-44.5,36.9-50.2
		c18.6-4.2,33.6,5.6,34.5,23c0.5,8.8,0.3,17.8,0.4,26.6c0.8,0,1.5-0.1,2.5-0.1c13.5,0,3.8,0.4,11.2-0.6l21.6,0.2
		c4.3,0,5.1-0.5,10-0.5c-6.8-9.7-11-18.1-12.2-29.9c-2-20,13.6-37.4,30.8-31.4c22,7.6,9.9,41.3,1.3,54.3c-1.8,2.8-3.9,4.7-3.6,6.9
		l14-0.4c2.2,0,3.8,0.2,5.5,0.2c6.3,0-1.6-0.5,11.3-0.1c3.1,0.1,3-0.1,5.8-0.2c3.5-0.1,2.2,0.3,5.5,0.3c5.2,0,3.2-1.1,8.2-0.2
		c1.2-20.5,3.1-51.2,24.6-58.3c5.7-1.9,10.9-0.6,15.3,2.5c17,11.9,21.2,37.1,6.1,52.4c-1.5,1.6-3.2,3.1-5,4.3
		c3.5-0.2,4.5-0.5,8.5-0.6c7.3-0.3,23.1-3.8,29-2.7c0,0,7.9,2.4,8.5,2.7l-3.2,0.7c3.1,0.6,1.3,1.2,3.9,1l0.6,2.2
		c2,0.1,2.9,0.2,5.2,0.2c0.6,1.3,0.1,1.3,0.7,2.6c4.2,1,3-0.6,5.8,1.5l-3.4,0.7c2.3,1.7,0.7,0.5,3.7,1.6c8.5,3,13.7-1.7,24.3,7.7
		c7.4-6.4,14.7-11.2,20.4-17.6c0.7-0.8,1.1,0.2,3.1-3c1.8-3,2-1.2-0.3-3.6c9.3-1,0.2-2,16.8-5.8c3.9-0.9,9-2.1,11.1-3.4
		c-5.4-2.5-6.9-2.4-10.8-4.1c-10.2-4.3,7.8-10.4,19-15.3l-19.8-5.8c-1.8-0.8-1.9-0.6-0.5-2.8l-16.9-2.4c-7.9-0.6-6.6-0.9-14.8-2.4
		l1.1-6.1c-1.7-1.1,0.7-0.1-4.5-0.3l1.8-1.3l-3.7-0.6c3.8-2.6,3.9-1.4,9.7-2.6c-20.9-8.8-260.8-8.4-295-8l-119.7,1.7
		C244,372,218.1,384.6,216.6,392.1L216.6,392.1z M367.3,386.8l17.2-0.8c4.1-0.1,3.6-0.9,8.4-0.8l6.3,0c2.3-9.6,4.4-19.2,6.7-28.9
		c2.6-11.1-13.2-9.4-19.9-5.8C373.6,357.4,369.2,373.9,367.3,386.8L367.3,386.8z M243.3,318.5l-23.9,0.4c-1.1,7.6-3.8,33.4-3.1,41.2
		c0.2,1.9,0.6,4,1.2,7.8c2.7-2.9,6-5.6,6.5-7.5C232.7,347.4,239.2,333.4,243.3,318.5L243.3,318.5z M575.7,349
		c0.4,1.7,0.8,3.6,1.5,7.3c-0.7,12.2-9.8,21.2-21.6,21.2c-2.9-0.2-5-1.1-4.4-4.6c1.6-10.7,1.4-17.3,6.3-27.6c1.5-3.1,3.2-7.4,8-7.3
		C571.7,338.2,574.6,344.3,575.7,349L575.7,349z M486.9,342.3c0,11-7.9,34.2-11.9,25.6c-3.6-7.8-7.4-16.1-3.2-25.1
		c3.2-7.3,9.9-11.8,13.4-6.1L486.9,342.3L486.9,342.3z M314.1,349c0.4,1.7,0.8,3.6,1.5,7.3c-0.7,12.2-9.8,21.2-21.6,21.2
		c-2.9-0.2-5-1.1-4.4-4.6c1.6-10.7,1.4-17.3,6.3-27.6c1.5-3.1,3.2-7.4,8-7.3C310.1,338.2,312.9,344.3,314.1,349L314.1,349z"/>
	<path class="st2" d="M37.2,45.3l-1.6,0.5c-14.8,4.1-5.6,1.8-12.9,4.1C20.5,50.6,7.8,51.5,0,53.5c4.2,5.3,8.3,6.8,11.9,10.2
		c1.2,1.3-0.4,1.3,2.4,4.6c1.2,1.4,1.3,1.4-0.4,2.9c1.8,2,0.7-1.7-7.8,4.6c6,1.2,4.6,1.7,7.8,3c3.6,1.4,6.8,1.3,11.5,2.5
		c8.8,2.3,7.5,8.3,11,6.3c1.7,1,6.2-0.7,7.9-1.2l-0.9-41.6c-0.1-4.2,2.7-5.1,4.4-7.3c1.1-1.8,2.9-2.9,5.1-2.9
		c7.5-0.5,27.2-2.6,32.7-0.7c4.2,1.5,51-2.2,63.1,35l44.2-2.4c1.4-9.5,3.6-20.7,7.7-29.7c3.7-8.2,12.9-6.8,19.3-6.9
		c10.6-0.3,32.3,0.2,41.1-1.5c7.6-1.2,10.1,10.5,2.9,12.4c-4.9,1.3-11.7,1.5-17.1,1.5c-1.8,0-3.6,0.4-5.5,0.4
		c-1.1-0.4-1.5,0.4-1.8,1.5l-2.6,21.1l38.8-0.1c3.5,0.1,5.7-0.1,9.2,0l19.2,1c1.2-2.4-0.5-1.4,5.2-1.6c4.5-14.6,2.4-4.7,3-17.1
		c0.3-6.6,2.1-15,9.8-16c11.8-1.6,18-4.1,32.7-4.7c8.1-0.3,11.9,11,13.5,17.5c1.6,7.1,3.1,14.4,4.7,21.6c6.6,0.5,20.1,0.4,26,1.3
		c3.2,0.5,8.1,0.1,12.1,0.5l22.4,1.7c9.1-16.9,21.1-29.9,41-33c26.9-4.3,37.8,20.3,46.2,41.2l22.1,0.4c0.2-4.9,0.4-9.8,0.4-14.7
		c0.4-8,1.1-16.4,1.5-24.7c0.1-3.2,2.5-8.8,8-8.4c7.9,0.7,11,1.5,19.6,1.1c2.5,0,4.7-0.4,7.3-0.4c7.4,0,7.9,8.2,6.2,13.1
		c-0.7,1.8-0.7,4-0.7,6.2c-0.3,10.1-0.8,20.3-1.2,30.4l28.8,1.1c8,0.3,8.2-0.5,16.5-0.1c0.5-10.3,1.5-41.1,2.8-50.3
		c1-8.2,13-6.8,12.4,1.5c-1.3,16.5-1.4,33-2.3,49.6l20.6,1.7c6.6-5.4,14.1-11.3,18.5-16.1c0.7-0.8,1.1,0.2,3.1-3
		c1.8-3,2-1.2-0.3-3.6c9.3-1-5.2-0.5,11.4-4.4c3.9-0.9,2.2-3.3,4.2-4.5c-5.4-2.5,5.3-2.7,1.4-4.3c-10.2-4.3-2.5-10.6,8.8-15.6
		l-9.5-5.6c-1.8-0.8-1.9-0.6-0.5-2.8l-16.9-2.4c-7.9-0.6-6.6-0.9-14.8-2.4l1.1-6.1c-1.7-1.1,0.7-0.1-4.5-0.3l1.8-1.3l-3.7-0.6
		c3.8-2.6,3.9-1.4,9.7-2.6c-20.9-8.8-260.8-8.4-295-8l-145,2L130.3,4.6c-9.2,0.2-35.5,1.2-41.7,0.8L68.9,4.2l-20.7,0
		c-5.8,0.2-3.5,0.7-9.4,0.9c-4.3,0.2-5-0.1-10,0.3c-23.3,2-24.1,0.1-18.2,6c2.6,2.6-2.2,4.9,2.1,7.7c7.6,4.7-7.2,5.2,3.1,15.4
		c3.3,3.3,7.4-0.6,8.3,8.1c6.1,0.8,2.5,0,7.2,0.5c1.3,0.2,3.6,0.7,7.1,1.3L37.2,45.3L37.2,45.3z M93.2,75.5c9-1.9,9.1-0.7,15.5-1.4
		c14-1.6,4.7,2.5,25-3c0.6-0.2,1.3-0.4,2.2-0.5c-6.5-15.6-22.1-20.4-37.5-22.7c-2.2-0.4-4-0.4-6.5-0.7C92.7,56.6,93,66.1,93.2,75.5
		L93.2,75.5z M486.4,74.2c6.6,0.9,4.1,1.3,14.7,2.3l5.9,0.8c-5.2-12.3-4-9.3-11.4-20.8C491.8,62.1,489.1,67.9,486.4,74.2L486.4,74.2
		z M37.7,251.4l-1.8-0.4l-8.1,4.7l7.2,1c-2.6,1.4-3.7,5.1-3.7,6.7c0,1.4-0.3,1.3,3.3,2.3l-2.4,2.2c3.5,0.7,2.6,0.7,5.5,0.7
		c-2.5,1.9-3.7,1.5-7.4,2.1c-4.3,0.8,0.4,0.5-8.5,1.9c-2.4,0.4-3.6,0.5-0.6,1.6c-0.6,0.1-6.2,0.7-8.1,2.2c-1.5,1.2-1.7,0.2,0.3,1.2
		c-1.7,1.3-7.5,4.3-11.6,3.9l-1.2,1.1l6.8,2.3c-10,9.1,3.3,3.6-2.2,8.6c5.5,0.3-2-0.1,3.8-0.6c0.5,0.6-0.1,0.8,2.2,1.8
		c2.7-0.6,7.7,0,10.1,0.4c1.3,0.2,2.6,0.7,5.2,1.3c4.7,1,5,1.3,3.9,3.7c18.8-1.6,0.3,1.3,11.9,1.6c-1.3,0.6-3.7,0.8-2.2,1.6
		c1.6,0.7,3.9,0.9,4.4,2.1l-3.8-0.3c0,1.3-0.3,1.4,0.1,2.7c-4-0.3-2-0.2-5,0.8c1.9,0.9,2.2-0.1,4.4,1.4c1.1,1.9-0.3,0.4-3.5-0.3
		c-1.5,1.1-0.8,0.7-2.5,1.3c1.9,1,3.2,0.9,5.1,2c-2.6,2.3-2.9,3.5-2.5,4.3c5.8-0.1,7.2-0.9,11.6-1l31.4,0.3c5.4,0.3,3.1,0.5,9,0.8
		c6.2,0.4,32.5-0.6,41.7-0.8l75.5-1.9c1.4-9.5,3.4-18.9,6.6-27.9c-6.6,1-19.6,3.8-22.4-4.6c-5-14.9-4-21.8-4-36.8
		c-9.9,0.1-19.9,0.2-28.6,0.3c-12.3,20.5-33.8,31-57.2,31c-26.4,0-32.1,9.7-45.8,5.5c-10.6-3-6.2-16.9-6.2-17.5
		c-0.2-4.8-0.3-9.4-0.4-14.1C43.7,250.7,41.4,250.4,37.7,251.4L37.7,251.4z M220.2,314.2l24.4-0.4c2.5-10.5,4.6-23.3,1.5-33.8
		l-17.3,3.5C224.8,291.2,221.6,306,220.2,314.2L220.2,314.2z M258.8,313.6l118.6-1.7c56.5-1,112.7-0.1,168.7,1
		c33.7,0.7,57.4,1,88.1,2.7l-1.6-0.3c2.2-1.7,0.7-0.5,3.7-1.6c9.8-3.4,8.6,1.2,17.2-3.1c9.8-4.9,2.5-3.1,1-4.8
		c-2.3-2.6,5.3,1.8-3.1-5c-3.5-2.8-4.5-2.9-9.9-4c2.8-0.3,2.6,0,4.3,0.2c5.5,0.6,1.8-0.2,5-1.2c3.3-1,1.8,1.5,6.2-0.7
		c-4.6-2.2,0-2-4.8-3.3c-0.2,0-0.5-0.1-0.7,0c-0.9,0.4-5.1-1.2-6.1-1.4c1.4-0.8,2-0.9,3.3-2c4.9,2.6,7.8,0.2,12.2-1.1
		c1.5-0.4,0.4,0.4,2.3-1c2.2-1.6,1.9-0.2,2.7-2.1l-6.2,0.4c1-0.7,1.1-0.2,3.4-1c-3.7-0.3-2.4-0.2-6.3-0.3c-2-1.2-3.9,0-5.4-0.1
		c1.2-0.4,0.5-0.6,1.6-1.2c-1.9-0.9,0.5-0.9-0.4-2.4c-0.8-1.2-1.7-0.7-2.3-2.1c-1.2-0.1-2,0-2.6,0c0.7,3.7,1.7,8.7-3.9,10.2
		c-7.5,2.1-8.4-6.8-9.2-11.9l-9.3-2.1l1.2-1.1c2.6,0.5,5.6,0.9,7.8,0.6l-3.4-24.7c-16.3-2-28.5-3-40.1-3.6
		c0.8,5.2,1.7,10.4,2.5,15.6c1.5,6.2,2.5,12.4,3.6,18.5c0,1.1,0.4,2.5,1.1,3.3c1.5,4.7-1.5,9.1-6.2,9.1l-35.6-2.9
		c-3.3-0.4-5.8-2.9-5.8-6.2c-0.7-8.4-1.8-16.7-2.2-25.1c-0.4-4.4-0.8-8.8-1.1-13.1l-33.8-0.6c-3.2,11.5-9.4,25.5-19,33
		c-5.1,4-11.6,5.1-18.2,4.4c-7.3-0.4-13.5-3.3-18.5-8c-11.7-10.2-16.7-16.1-22.7-29.7l-34.8,0.1c2.8,28.6-2.5,26.4-25.4,37.3
		c-6.1,2.9-13.6,4.2-16-4c-3-10.2-5.2-22.2-7.5-32.8l-52.9,0.6c0,10.4,1.2,33.5,0.4,41.7c-0.9,8.2-12.4,7.3-12.4-0.4l-0.6-41.3
		l-58.2,0.7l1.6,17.1c9.4-6,19.3-4.8,25.5,4.1c3.1,0.5,6.2,3.7,4.4,8.4C258.5,276.3,264.7,286.8,258.8,313.6L258.8,313.6z
		 M646.5,269.3c7.5-1.2,14.3,0,20.4-1.1c4-0.7,7.7-0.1,10.9-1.4c3.5-1.4,6-3,8.8-1.5c0.9,0.3-0.9,0.9,3.6-0.6l5.5-1.1l-8.9-1.4
		c3-2.6,14.8-3.8,1.4-3.5c-3.8,0.1-1.3,0-5.8-1c4.2-1.5,3.9,1.2,7.9-2.4c-2.4-0.9-5-3.1-4.4-4.5c-3.8-0.4-10.1-0.1-14.6-1.7
		c-9.2-3.3-7.4-3.4-14.3,2.5l-13.1-1.7C644.7,256.3,645.6,262.8,646.5,269.3L646.5,269.3z M500,243.1l-21.6-0.2L485,258
		c1.1,2.2,2.5,4,4,6.5c1.5-2.2,2.9-3.6,4-5.5C496.2,254.2,498.3,248.8,500,243.1L500,243.1z M141.9,246l-45.8,1.3l0.1,16.6
		C113.7,263.8,130,259.9,141.9,246L141.9,246z"/>
</g>
</svg>
