<?xml version="1.0" encoding="utf-8"?>
<!-- Generator: Adobe Illustrator 21.1.0, SVG Export Plug-In . SVG Version: 6.00 Build 0)  -->
<svg version="1.1" id="Layer_1" xmlns="http://www.w3.org/2000/svg" xmlns:xlink="http://www.w3.org/1999/xlink" x="0px" y="0px"
	 viewBox="0 0 286.4 432" style="enable-background:new 0 0 286.4 432;" xml:space="preserve">
<style type="text/css">
	.st0{fill-rule:evenodd;clip-rule:evenodd;fill:#B6AD81;}
	.st1{fill-rule:evenodd;clip-rule:evenodd;fill:#333232;}
	.st2{fill-rule:evenodd;clip-rule:evenodd;fill:#F8BABD;}
</style>
<g>
	<path class="st0" d="M175.9,219.4c5.7,9.9,22,34.8,28,42.9c4.8,6.5,15.8,16.2,4.8,21.4c-4.4,2.1-15.5,4.7-20.5,5.7
		c-7.4,1.4-9.1,1-17.1,3.7c-9.4,3.1-22.7,8.7-32.2,12.5c-0.2,1.5-0.5,3.1-1,5.1c-1.9,7.7-1.2,8.2-1.5,18.7c-0.2,6.4-0.5,17-0.8,25.2
		c-0.2,8.3-0.3,14.2-0.6,20.6c-0.4,10.1-2,25.7,0.2,33.6c0.5,1.8,1.2,3.6,1.2,5.3c-0.1,3.2-2.6,5-1.4,8.5c0.8,2.3,3.9,6.5-0.5,7.2
		c-1.7,0.3-4.3-0.1-7.6-0.2c-5.1-0.2-16.4,0.3-21.4,1c-3.6,0.5-9.1,2.3-10.9,1.3c-1.2-0.7-0.2-1.7-1.2-1.9c-1.1-0.3-5.6,0-7.5-0.1
		c-3.6-0.1-5.8-0.7-8.8-0.9c-1.7-0.1-5,0.1-5.3-1.2c-0.4-2,4.5-3.5,6.7-3.8c3.7-0.5,6.8,0.7,11.1,0c4.8-0.7,13.9-4.7,19.2-6.8
		c13-5.1,15.9-6,16.7-23.3c0.3-6.1,0.2-14,0.3-21.9c0.1-13,1.3-36.6,0.3-48.3c-0.4-4.9-1.1-8.4-1.7-11.7c-8.7,4-18.9,8.3-21.6,13.2
		c-0.8,1.4-0.9,2.8-0.4,5.4c1.1,6.1,3.9,15.2,4.7,22.3c0.9,8.5-3.6-1.4-5.6-3.3c-3.4-3.2-5.2,7.1-5.5,9c-0.5,3.2,0,6.3-1.8,8.6
		c-3.4,4.2-7.1,1.4-8.6,2.6c-2.6,1.9-4.1,6.8-5.2,6.1c-1.5-1,0-11.4,2-14.6c0.7-1,1.7-2.1,2.7-3.5c7.9-11.2,4.6-20.8,6.4-24.3
		c0.6-1.2,1.8-2.3,2.5-4c1.6-4.1-0.1-7.7,5.1-11.8c4-3.2,15.6-8.8,24.2-13.1c-1-7.8,0-13.5,0.1-23.6c0.1-13.4-0.9-41-4.1-53.1
		c-0.8-3-1.7-5.3-2.7-7.5c3.6,3.9,4.8,5,10.6,5.4c4,0.3,8.5,1,11.7-1.1c-3.4,13.4-3.5,40.2-2.6,55c0.5,8.3,1.3,11.5,2.2,17.4
		c9.7-4.8,25.5-12.7,32.1-15.4c5.3-2.1,18.7-6,21-8.5c0.9-1,0.4-1.9-1-4.2c-5.6-9.1-16.8-26.8-23.3-35.2c-2.1-2.7-8.3-9.7-11.2-12.7
		C161.1,221.7,171.9,223.2,175.9,219.4L175.9,219.4z"/>
	<path class="st1" d="M2,45.2C-0.5,51.4-1.2,58,2.9,63.6c1,1.3,1.9,2.1,3.1,3.6C8.2,70,18.4,85.5,22.2,84c2.4-1,2.3-3.8,1.6-6.3
		c-1.2-4.1-3-6.7-3.4-12.3c-0.2-3.2,0.5-8.6,0.3-13.1c-0.1-1.3-0.2-2.3-0.2-3c-2.9-0.5-7.3,1.2-15.5-2.7L2,45.2L2,45.2z"/>
	<path class="st2" d="M48.5,3C43.4,1,36.2-0.6,30.1,0.2c-5,0.6-13.4,3.4-16.3,6.8c-6.3,7.3-2.5,20.4-5,25.5c-1.2,2.5-4.2,6.8-6,10.8
		c4.2,1.4,6.3,3.6,13,3.9c1.9,0.1,3.9-0.3,5.4,0.1c2.2-2.8,10.2-6.2,19.1-19.6c1.3-2,2-3.2,5-3.3c11.3-0.1,14.4,13.1,12.9,22.3
		C56.4,58,50.7,65.9,43.4,74.8c-12.7,15.7-24.7,31.3-32.8,50c-3.1,7.2-5.4,12.4-6.3,20c-0.8,6.3-1.1,16.6-0.4,22.6
		c2.7,23.8,40.9,35.2,59.6,39.8c20.4,5.1,41.1-5.3,55.4,8.8c3.9,3.9,3.4,4.8,8.6,5.1c10.9,0.7,7.7,0.4,12.4-4.5
		c1.9-2,4.9-1.7,8.2-1.3c6,0.7,14.9,2.2,21.3,1.7c4.4-0.4,3-2,4.7-2.4c1.6-0.4,5.8,0,8.3-1.5c2.7-1.6,2.3-3.8,4.4-4.3
		c4.5-1.1,10.8,0.7,13.2-1c1.3-0.9,1.8-2.5,4.8-1.1c1.3,0.6,3,1.7,5.2,2.8c2.2,1.1,4.9,2.2,9.1,4.1c5.1,2.3,10.8,5.5,15.9,6.2
		c2.8,0.4,6.1,0.4,8.7,0.7c2.7,0.3,4.8,1.1,5.8,0.9c1.1-0.2,1.1-1.3,4.1-0.9c3,0.4,8.9,2.3,12.4,4c5.4,2.6,5.8,5.4,10.2,6.7
		c2.7,0.8,8.8-0.1,9.8-1.8c0.6-1.1-0.4-2.6-0.4-3.5c0-1.8,3.1-0.7-2.9-10.1c-4.4-6.9-2.3-4.6-0.4-8.6c0.8-1.6,0.9-4,0.3-5.9
		c-1.5-4.7-7.2-5.3-11.7-7c-2.5-1-4.5-2.2-6.7-3.3c-7.3-3.9-7.1-3.3-14.9-9c-3.5-2.6-8.2-6.1-13.3-9.5c-5.1-3.5-3.8-3.7-7.6-6
		c-3.8-2.3-5.9-3.5-8.9-5.7c-8.8-6.7-17.8-15.9-29.2-23c-8.7-5.4-29.8-14.7-39.1-18.6c-13.6-5.6-18.2-5-32.7-5.3
		c-11-0.2-18.5-1-28.8,1.7c-9.1,2.4-18.8,8.2-25.5,15c-5.8,5.9-8.8,15-11.1,22.5c-1.7,5.4-2.3,10-6.5,12.8c-3.7,2.5-8,2-11.8,0.3
		c-3.2-1.5-4.9-3.2-5.2-7.2c-0.8-9.4,3.1-24.4,7.5-33.9c11.3-24.3,31.2-43.3,38.4-61.3c5.7-14.2,5.1-31.2-4.3-43.6
		C65.7,13.1,56.2,5.8,48.5,3L48.5,3z"/>
</g>
</svg>
