<?xml version="1.0" encoding="utf-8"?>
<!-- Generator: Adobe Illustrator 21.1.0, SVG Export Plug-In . SVG Version: 6.00 Build 0)  -->
<svg version="1.1" id="Layer_1" xmlns="http://www.w3.org/2000/svg" xmlns:xlink="http://www.w3.org/1999/xlink" x="0px" y="0px"
	 viewBox="0 0 286.4 432" style="enable-background:new 0 0 286.4 432;" xml:space="preserve">
<style type="text/css">
	.st0{fill-rule:evenodd;clip-rule:evenodd;fill:#F8BABD;}
</style>
<g>
	<path class="st0" d="M134.3,392.9c-0.6,16.1,2.4,17.3,2.2,21c-0.1,3.2-2.6,5-1.4,8.5c0.8,2.3,3.9,6.5-0.5,7.2
		c-1.7,0.3-4.3-0.1-7.6-0.2c-5.1-0.2-16.4,0.3-21.4,1c-3.6,0.5-9.1,2.3-10.9,1.3c-1.2-0.7-0.2-1.7-1.2-1.9c-1.1-0.3-5.6,0-7.5-0.1
		c-3.6-0.1-5.8-0.7-8.8-0.9c-1.7-0.1-5,0.1-5.3-1.2c-0.4-2,4.5-3.5,6.7-3.8c3.7-0.5,6.8,0.7,11.1,0c4.8-0.7,13.9-4.7,19.2-6.8
		c13-5.1,15.9-6,16.8-23.3c0.3-6.1,0.2-14,0.3-21.9c0.1-13,1.3-36.6,0.3-48.3c-0.4-4.9-1.1-8.4-1.7-11.7c-8.7,4-18.9,8.3-21.6,13.2
		c-0.8,1.4-0.9,2.8-0.4,5.4c1.1,6.1,3.9,15.2,4.7,22.3c0.9,8.5-3.6-1.4-5.6-3.3c-3.4-3.2-5.2,7.1-5.5,9c-0.5,3.2,0,6.3-1.8,8.6
		c-3.4,4.2-7.1,1.4-8.6,2.6c-2.6,1.9-4.1,6.8-5.2,6.1c-1.5-1,0-11.4,2-14.6c0.7-1,1.7-2.1,2.7-3.5c7.9-11.2,4.6-20.8,6.4-24.3
		c0.6-1.2,1.8-2.3,2.5-4c1.6-4.1-0.1-7.7,5.1-11.8c4-3.2,15.6-8.8,24.2-13.1c-1-7.8,0-13.5,0.1-23.6c0.1-13.4-0.9-41-4.1-53.1
		c-1.8-6.7-6.4-14.4-6.1-16.1c-14-7.2-31.9-0.1-49.7-4.7c-26.5-6.8-36.3-8.4-53.4-27.6c-3.8-4.3-5.6-6.8-6.2-12.2
		c-0.7-6-0.4-16.2,0.4-22.6c0.9-7.6,3.2-12.8,6.3-20c8.1-18.7,20.1-34.3,32.8-50c7.3-9,13-16.9,14.8-28.2
		c1.5-9.2-1.6-22.4-12.9-22.3c-3,0-3.7,1.3-5,3.3c-4.8,7.3-9.1,11.6-16.1,17c-4.3,3.3-3.8,3.2-3.6,7.5c0.3,4.5-0.5,9.9-0.3,13.1
		c0.4,5.7,2.2,8.2,3.4,12.3c1.3,4.5-0.8,8-3.9,5.8C14.3,79.6,9.6,71.7,6,67.2c-1.2-1.5-2.1-2.3-3.1-3.6c-5.3-7.1-2.6-15.9,1.5-23.5
		c5.9-10.9,5.1-5.7,5.5-18.7C10,16.3,10.3,11.1,13.8,7c3-3.5,11.4-6.2,16.3-6.8C36.2-0.6,43.4,1,48.5,3c7.7,2.9,17.1,10.1,22.6,17.3
		c9.5,12.4,10,29.4,4.3,43.6c-7.2,18-27.1,37-38.4,61.3c-4.4,9.5-8.3,24.5-7.5,33.9c0.3,4,2,5.7,5.2,7.2c3.8,1.7,8.1,2.1,11.8-0.3
		c4.2-2.8,4.8-7.4,6.5-12.8c2.3-7.5,5.3-16.6,11.1-22.5c6.6-6.7,16.4-12.5,25.5-15c10.4-2.8,17.9-2,28.8-1.7
		c14.4,0.3,19.1-0.3,32.7,5.3c9.3,3.8,30.4,13.1,39.1,18.6c11.4,7.1,20.3,16.3,29.2,23c3,2.3,5.1,3.5,8.9,5.7c3.8,2.3,2.5,2.5,7.6,6
		c5.1,3.5,9.8,7,13.3,9.5c7.8,5.7,7.6,5.2,14.9,9c2.2,1.1,4.2,2.4,6.7,3.3c4.4,1.7,10.2,2.3,11.7,7c1.8,5.6-2.4,7.8-2.5,9.4
		c-0.1,1.2,1.1,2.7,2.6,5c6,9.4,2.9,8.3,2.9,10.1c0,0.9,1.1,2.5,0.4,3.5c-1,1.7-7.1,2.6-9.8,1.8c-4.4-1.3-4.8-4.1-10.2-6.7
		c-3.5-1.7-9.4-3.6-12.4-4c-3-0.4-3,0.7-4.1,0.9c-1.1,0.2-3.2-0.6-5.8-0.9c-8.3-1.1-8.1,0.6-17.9-3.8c-3.9-1.8-2.6-1.3-6.7-3.2
		c-4.1-1.9-6.8-3-9.1-4.1c-2.2-1.1-3.9-2.2-5.2-2.8c-3-1.3-3.5,0.2-4.8,1.1c-2.4,1.7-8.8-0.2-13.2,1c-2,0.5-1.7,2.7-4.4,4.3
		c-3,1.8-7.8,0.9-8.9,1.8c3.6,7.9,25.4,40.7,30.4,47.4c4.8,6.5,15.8,16.2,4.8,21.4c-4.4,2.1-15.5,4.7-20.5,5.7
		c-7.4,1.4-9.1,1-17.1,3.7c-9.4,3.1-22.7,8.7-32.2,12.5c-0.2,1.5-0.5,3.1-1,5.1c-1.9,7.7-1.2,8.2-1.5,18.7c-0.1,6.4-0.5,17-0.8,25.2
		c-0.2,8.3-0.3,14.2-0.6,20.6C134.8,381.4,134.4,388.2,134.3,392.9L134.3,392.9z M141.6,215.5c-0.2,1.1-0.6,2.3-1,3.6
		c-2.9,9.1-3.4,13.8-4.1,24c-0.7,9.9-0.8,25.8-0.2,36.7c0.5,8.3,1.3,11.5,2.2,17.4c9.7-4.8,25.5-12.7,32.1-15.4
		c5.3-2.1,18.7-6,21-8.5c0.9-1,0.4-1.9-1-4.2c-5.6-9.1-16.8-26.8-23.3-35.2c-3.6-4.7-13.5-15.9-17.9-18.3
		C148.7,215.2,143.5,214.8,141.6,215.5L141.6,215.5z"/>
</g>
</svg>
