<?xml version="1.0" encoding="utf-8"?>
<!-- Generator: Adobe Illustrator 21.1.0, SVG Export Plug-In . SVG Version: 6.00 Build 0)  -->
<svg version="1.1" id="Layer_1" xmlns="http://www.w3.org/2000/svg" xmlns:xlink="http://www.w3.org/1999/xlink" x="0px" y="0px"
	 viewBox="0 0 432 688.1" style="enable-background:new 0 0 432 688.1;" xml:space="preserve">
<style type="text/css">
	.st0{fill-rule:evenodd;clip-rule:evenodd;fill:#B6AD81;}
	.st1{fill-rule:evenodd;clip-rule:evenodd;fill:#F8BABD;}
</style>
<g>
	<path class="st0" d="M365.4,337.3L230.9,678.2c-5.2,13.3-21.6,13.3-26.9,0L69.7,337.9c24.1,4.4,48.4-1.6,67.2-16
		c11.7,33.1,43.3,56.9,80.4,56.9c36.5,0,67.7-23,79.8-55.2C316.7,337.4,341.4,342.7,365.4,337.3L365.4,337.3z"/>
	<path class="st1" d="M217.4,0c100.2,0,180.5,83.3,176.9,183.3c22.8,15.3,37.7,41.3,37.7,70.8c0,69.7-79,109.3-134.8,69.5
		c-12.2,32.3-43.3,55.2-79.8,55.2c-37.1,0-68.7-23.7-80.4-56.9C81.4,364.3,0,325,0,254.1c0-30.6,16.2-57.5,40.4-72.5
		C37.9,82,117.9,0,217.4,0L217.4,0z"/>
</g>
</svg>
