<?xml version="1.0" encoding="utf-8"?>
<!-- Generator: Adobe Illustrator 21.1.0, SVG Export Plug-In . SVG Version: 6.00 Build 0)  -->
<svg version="1.1" id="Layer_1" xmlns="http://www.w3.org/2000/svg" xmlns:xlink="http://www.w3.org/1999/xlink" x="0px" y="0px"
	 viewBox="0 0 432 688.1" style="enable-background:new 0 0 432 688.1;" xml:space="preserve">
<style type="text/css">
	.st0{fill-rule:evenodd;clip-rule:evenodd;fill:#B6AD81;}
	.st1{fill-rule:evenodd;clip-rule:evenodd;fill:#F8BABD;}
</style>
<g>
	<path class="st0" d="M362,346l-14.8,37.6L315,353.7l8.7-9.3C336.2,347.6,349.2,348.1,362,346L362,346z M312.1,340.7l-5.2,5.6
		l-8.1-7.5c0.7-1.2,1.3-2.4,1.9-3.6C304.4,337.3,308.2,339.1,312.1,340.7L312.1,340.7z M342.8,394.6l-10.7,27.1L313.3,442l-43.1-40
		l37.3-40.1L342.8,394.6L342.8,394.6z M316.9,460.3L291,525.8l-21.8-20.3l44.7-48.1L316.9,460.3L316.9,460.3z M286.7,536.8
		l-21.1,53.5l-3.8,4.1L221.5,557l40.3-43.3L286.7,536.8L286.7,536.8z M254.5,618.3l-11.8,29.8l-8.5-7.9L254.5,618.3L254.5,618.3z
		 M238.4,659l-7.5,19.1c-5.2,13.3-21.6,13.3-26.9,0l-1.5-3.9l24.3-26.1L238.4,659L238.4,659z M198,663l-22.4-56.7l2.8-3l40.3,37.4
		L198,663L198,663z M162.8,573.8l-15.6-39.5l15.6-16.8l43.1,40l-28.1,30.3L162.8,573.8L162.8,573.8z M142.8,523l-15.1-38.1
		l27.1,25.2L142.8,523L142.8,523z M115.8,454.7l-21.3-54.1l21.1-22.7l38.4,35.7L115.8,454.7L115.8,454.7z M90,389.3l-16.9-42.8
		c3.1,0.4,6.3,0.7,9.5,0.8l24.9,23.1L90,389.3L90,389.3z M136.2,339.5L115,362.3l-17.1-15.9c12.6-1.7,24.6-5.9,35.5-12.5
		C134.3,335.8,135.2,337.7,136.2,339.5L136.2,339.5z M254.3,602.4L214,565l-28.1,30.3l40.3,37.4L254.3,602.4L254.3,602.4z
		 M248.2,381.5l14,13l37.3-40.1l-6.6-6.1C281.7,363.6,266.1,375.2,248.2,381.5L248.2,381.5z M305.8,450l-43.1-40l-44.7,48.1l43.1,40
		L305.8,450L305.8,450z M253.7,506.1l-43.1-40l-40.3,43.3l43.1,40L253.7,506.1L253.7,506.1z M142.4,348.9L123,369.8l38.4,35.7
		l23-24.8C167.7,374.4,153.1,363.4,142.4,348.9L142.4,348.9z M196.2,384.3L169.5,413l40.5,37.6l44.7-48.1l-18.9-17.6
		C222.7,387.5,209.1,387.3,196.2,384.3L196.2,384.3z M202.6,458.6L162,421l-40.3,43.3l40.5,37.6L202.6,458.6L202.6,458.6z"/>
	<path class="st1" d="M217.4,0c100.2,0,180.5,83.3,176.9,183.3c22.8,15.3,37.7,41.3,37.7,70.8c0,69.7-79,109.3-134.8,69.5
		c-12.2,32.3-43.3,55.2-79.8,55.2c-37.1,0-68.7-23.7-80.4-56.9C81.4,364.3,0,325,0,254.1c0-30.6,16.2-57.5,40.4-72.5
		C37.9,82,117.9,0,217.4,0L217.4,0z"/>
</g>
</svg>
