<?xml version="1.0" encoding="utf-8"?>
<!-- Generator: Adobe Illustrator 21.1.0, SVG Export Plug-In . SVG Version: 6.00 Build 0)  -->
<svg version="1.1" id="Layer_1" xmlns="http://www.w3.org/2000/svg" xmlns:xlink="http://www.w3.org/1999/xlink" x="0px" y="0px"
	 viewBox="0 0 432 432" style="enable-background:new 0 0 432 432;" xml:space="preserve">
<style type="text/css">
	.st0{fill-rule:evenodd;clip-rule:evenodd;fill:#F8EC18;}
	.st1{fill-rule:evenodd;clip-rule:evenodd;fill:#FCFCFC;}
</style>
<g>
	<path class="st0" d="M368.7,368.7C407.8,329.6,432,275.6,432,216c0-59.6-24.2-113.6-63.3-152.7C329.6,24.2,275.6,0,216,0
		C156.4,0,102.4,24.2,63.3,63.3C24.2,102.4,0,156.4,0,216c0,59.6,24.2,113.6,63.3,152.7C102.4,407.8,156.4,432,216,432
		C275.6,432,329.6,407.8,368.7,368.7L368.7,368.7z"/>
	<path class="st1" d="M354.9,354.9c35.6-35.6,57.5-84.7,57.5-138.9c0-54.3-22-103.4-57.5-138.9C319.4,41.5,270.3,19.5,216,19.5
		c-54.3,0-103.4,22-138.9,57.5S19.5,161.7,19.5,216c0,54.3,22,103.4,57.5,138.9c35.6,35.6,84.7,57.5,138.9,57.5
		C270.3,412.5,319.4,390.5,354.9,354.9L354.9,354.9z M44.3,173.4c-11.6,24.1-11.6,61.3,0,85.4c11.9,24.7,136.4-32.8,136.5-44.4
		C181,202.8,56.3,148.7,44.3,173.4L44.3,173.4z M124.7,64.5c-25.3,8.8-51.6,35.1-60.4,60.4c-9.1,25.9,119.6,73.3,127.9,65.2
		C200.6,181.9,150.6,55.4,124.7,64.5L124.7,64.5z M258.6,44.3c-24.1-11.6-61.3-11.6-85.4,0c-24.7,11.9,32.8,136.4,44.4,136.5
		C229.2,181,283.3,56.3,258.6,44.3L258.6,44.3z M367.5,124.7c-8.8-25.3-35.1-51.6-60.4-60.4c-25.9-9.1-73.3,119.6-65.2,127.9
		C250.1,200.6,376.6,150.6,367.5,124.7L367.5,124.7z M387.7,258.6c11.6-24.1,11.6-61.3,0-85.4c-11.9-24.7-136.4,32.8-136.5,44.4
		C251,229.2,375.7,283.3,387.7,258.6L387.7,258.6z M307.3,367.5c25.3-8.8,51.6-35.1,60.4-60.4c9.1-25.9-119.6-73.3-127.9-65.2
		C231.4,250.1,281.4,376.6,307.3,367.5L307.3,367.5z M173.4,387.7c24.1,11.6,61.3,11.6,85.4,0c24.7-11.9-32.8-136.4-44.4-136.5
		C202.8,251,148.7,375.7,173.4,387.7L173.4,387.7z M64.5,307.3c8.8,25.3,35.1,51.6,60.4,60.4c25.9,9.1,73.3-119.6,65.2-127.9
		C181.9,231.4,55.4,281.4,64.5,307.3L64.5,307.3z"/>
</g>
</svg>
