<?xml version="1.0" encoding="utf-8"?>
<!-- Generator: Adobe Illustrator 21.1.0, SVG Export Plug-In . SVG Version: 6.00 Build 0)  -->
<svg version="1.1" id="Layer_1" xmlns="http://www.w3.org/2000/svg" xmlns:xlink="http://www.w3.org/1999/xlink" x="0px" y="0px"
	 viewBox="0 0 432 386.2" style="enable-background:new 0 0 432 386.2;" xml:space="preserve">
<style type="text/css">
	.st0{fill-rule:evenodd;clip-rule:evenodd;fill:#F8EC18;}
	.st1{fill-rule:evenodd;clip-rule:evenodd;fill:#FCFCFC;}
</style>
<g>
	<path class="st0" d="M413,78.4c-6-16.9-16.7-31.7-31.2-43.8C351.5,9.5,304.3-3.7,247.5,0.9C190.6,5.6,134.9,27.2,90.7,58.4
		c-44.2,31.2-76.8,72-87.4,114.9c-5.9,24-3.5,45.7,3.5,65.3C31.2,306.8,86.8,360.3,158.2,379c81.6,21.4,168.3-6.1,222.7-70.6
		C472.5,199.5,413.1,78.6,413,78.4L413,78.4z"/>
	<path class="st1" d="M316.9,245.7c40.2-28.4,69.9-65.5,79.5-104.5c9.6-39.1-2.6-72.7-30.2-95.6C338.6,22.8,295.7,10.8,244,15
		c-51.7,4.2-102.4,23.9-142.6,52.3C61.3,95.6,31.6,132.7,22,171.8c-9.6,39.1,2.6,72.7,30.2,95.6c27.6,22.8,70.5,34.9,122.2,30.6
		C226,293.8,276.7,274.1,316.9,245.7L316.9,245.7z M269.3,258.5c25.6-8.3,55.4-29.3,68.3-48.2c13.2-19.4-101-43.5-110.4-37
		C217.8,179.8,242.9,267,269.3,258.5L269.3,258.5z M365.2,173.8c15.4-18.3,22-45.1,15.2-61.5c-7-16.9-135.8,34.2-138,42.6
		C240.2,163.3,349.4,192.5,365.2,173.8L365.2,173.8z M369.7,78.9c-3.9-17.5-24.3-34.4-46.8-38.8c-23.1-4.5-91,91.8-84.8,97.2
		C244.4,142.7,373.7,96.9,369.7,78.9L369.7,78.9z M280.2,29.5c-20.9-6.5-56.4-3.6-81.4,6.7c-25.7,10.5,7,95.7,18.1,94.9
		C227.9,130.3,301.6,36.2,280.2,29.5L280.2,29.5z M149,54.5c-25.6,8.3-55.4,29.3-68.3,48.2c-13.2,19.4,101,43.5,110.4,37
		C200.5,133.2,175.4,45.9,149,54.5L149,54.5z M53.1,139.2c-15.4,18.3-22,45.1-15.2,61.5c7,16.9,135.8-34.2,138-42.6
		C178.2,149.7,68.9,120.4,53.1,139.2L53.1,139.2z M48.6,234c3.9,17.5,24.3,34.4,46.8,38.8c23.1,4.5,91-91.8,84.8-97.2
		C174,170.2,44.6,216.1,48.6,234L48.6,234z M138.1,283.5c20.9,6.5,56.4,3.6,81.4-6.7c25.7-10.5-7-95.7-18.1-94.9
		C190.4,182.7,116.7,276.8,138.1,283.5L138.1,283.5z"/>
</g>
</svg>
