<?xml version="1.0" encoding="utf-8"?>
<!-- Generator: Adobe Illustrator 21.1.0, SVG Export Plug-In . SVG Version: 6.00 Build 0)  -->
<svg version="1.1" id="Layer_1" xmlns="http://www.w3.org/2000/svg" xmlns:xlink="http://www.w3.org/1999/xlink" x="0px" y="0px"
	 viewBox="0 0 432 417" style="enable-background:new 0 0 432 417;" xml:space="preserve">
<style type="text/css">
	.st0{fill-rule:evenodd;clip-rule:evenodd;fill:#F8EC18;}
	.st1{fill-rule:evenodd;clip-rule:evenodd;fill:#FCFCFC;}
</style>
<g>
	<path class="st0" d="M294.2,0c-35.8-0.5-71.7,12.6-99.4,39.5L217,62.4c-12.3-2.6-24.9-4-37.7-4c-47.7,0-93,18.8-126.8,52.5
		C18.8,144.6,0,190,0,237.7c0,47.7,18.8,93,52.5,126.8c33.7,33.7,79.1,52.5,126.8,52.5c47.7,0,93-18.8,126.8-52.5
		c33.7-33.7,52.5-79.1,52.5-126.8c0-11.1-1-22-3-32.7l34.1,35c27.7-26.9,41.8-62.5,42.3-98.2c0.5-35.8-12.6-71.7-39.5-99.4
		C365.5,14.7,330,0.5,294.2,0L294.2,0z M298.1,118.9C266.5,87.3,224,69.7,179.3,69.7c-44.7,0-87.2,17.6-118.8,49.2
		C28.9,150.5,11.3,193,11.3,237.7c0,44.7,17.6,87.2,49.2,118.8c31.6,31.6,74.1,49.2,118.8,49.2c44.7,0,87.2-17.6,118.8-49.2
		c31.6-31.6,49.2-74.1,49.2-118.8C347.3,193,329.7,150.5,298.1,118.9L298.1,118.9z"/>
	<path class="st1" d="M294,12.7c-32.5-0.5-65.2,11.5-90.4,36l7.2,7.4c7.1-6.9,15.5-12.4,23.7-15.2c8.8-2.9,21.5,18.1,30.9,39.7
		c3.4,1.9,6.7,3.8,9.9,5.9c-10.2-23.9-18.8-53.8-9.3-58.2c15.7-7.3,39.8-7,55.3,0.8c12.4,6.2-6.8,56.3-19.5,78
		c1.4,1.3,2.8,2.6,4.1,4c1.3,1.3,2.6,2.6,3.8,3.9c5.4-23,29.1-77.5,42.8-72.5c16.3,5.9,33.1,23.2,38.5,39.6
		c4.6,13.9-50.7,37.6-73,42.4c2.3,2.8,4.5,5.7,6.7,8.7c21.8-12.6,73.1-32.2,79-19.5c7.3,15.7,7,39.8-0.8,55.3
		c-5.1,10.1-39.6-0.9-63.8-12.2c1.6,3.1,3.1,6.3,4.5,9.6c23.6,9.7,49.4,24.2,45.9,33.8c-3,8.2-8.8,16.5-15.9,23.4l7.2,7.4
		c25.2-24.5,38-56.8,38.5-89.4c0.5-32.5-11.5-65.2-36-90.4C358.9,26,326.5,13.1,294,12.7L294,12.7z"/>
</g>
</svg>
