<?xml version="1.0" encoding="utf-8"?>
<!-- Generator: Adobe Illustrator 21.1.0, SVG Export Plug-In . SVG Version: 6.00 Build 0)  -->
<svg version="1.1" id="Layer_1" xmlns="http://www.w3.org/2000/svg" xmlns:xlink="http://www.w3.org/1999/xlink" x="0px" y="0px"
	 viewBox="0 0 432 251.1" style="enable-background:new 0 0 432 251.1;" xml:space="preserve">
<style type="text/css">
	.st0{fill-rule:evenodd;clip-rule:evenodd;fill:#F8EC18;}
	.st1{fill-rule:evenodd;clip-rule:evenodd;fill:#FCFCFC;}
	.st2{fill-rule:evenodd;clip-rule:evenodd;fill:#529335;}
</style>
<g>
	<path class="st0" d="M158.7,0.1c70.3-2.2,133,35.6,154.9,88.8c13.3,5.1,23.4,17.1,24.7,31.4c1.3,14.3-6.6,26.9-19,32.8
		c-12.4,54.3-68,95.7-138.3,97.9c-70.1,2.2-132.5-35.3-154.7-88.2C12.2,158,1.4,145.7,0.1,130.8C-1.2,116,7.3,103,20.5,97.4
		C33.1,43.5,88.6,2.3,158.7,0.1L158.7,0.1z M204.9,46c49.3,0,89.3,40,89.3,89.3c0,49.3-40,89.3-89.3,89.3c-49.3,0-89.3-40-89.3-89.3
		C115.6,86,155.6,46,204.9,46L204.9,46z"/>
	<path class="st1" d="M114.5,20.2c3.9,0,7,3.1,7,7c0,3.9-3.1,7-7,7c-3.9,0-7-3.1-7-7C107.5,23.4,110.6,20.2,114.5,20.2L114.5,20.2z
		 M86.6,48.6c3.6,0,6.5,2.9,6.5,6.5c0,3.6-2.9,6.5-6.5,6.5c-3.6,0-6.5-2.9-6.5-6.5C80.1,51.5,83,48.6,86.6,48.6L86.6,48.6z
		 M113.1,47.7c3.6,0,6.5,2.9,6.5,6.5c0,3.6-2.9,6.5-6.5,6.5c-3.6,0-6.5-2.9-6.5-6.5C106.5,50.6,109.5,47.7,113.1,47.7L113.1,47.7z
		 M62,66.2c3.6,0,6.5,2.9,6.5,6.5c0,3.6-2.9,6.5-6.5,6.5c-3.6,0-6.5-2.9-6.5-6.5C55.5,69.1,58.4,66.2,62,66.2L62,66.2z M97.3,72.4
		c3.6,0,6.5,2.9,6.5,6.5c0,3.6-2.9,6.5-6.5,6.5c-3.6,0-6.5-2.9-6.5-6.5C90.7,75.3,93.7,72.4,97.3,72.4L97.3,72.4z M142.4,31.4
		c3.6,0,6.5,2.9,6.5,6.5c0,3.6-2.9,6.5-6.5,6.5c-3.6,0-6.5-2.9-6.5-6.5C135.9,34.3,138.8,31.4,142.4,31.4L142.4,31.4z"/>
	<path class="st2" d="M426.2,62.6c-4.6-4.5-12.1-11.6-16.6-12.4c-4.5-0.9-6.1,4.5-9.7,12.7c-8.4,19.3-19,35.5-39.6,43.3
		c-7.2,2.7-12.7,3.1-18.2,3.5c0.1,7.2,0.3,14.3,0.9,17.8c0.6,3.4,1.7,3.2,2.8,2.9c10.2-1.6,20.4-3.3,30.5-7.9
		c10.1-4.6,20.2-12.2,28.4-19.9C412.8,95,419,87.4,423.6,82C433.7,70.4,434.9,71.1,426.2,62.6L426.2,62.6z M391.1,140.5
		c15.2,7.2,26.7,19.1,33.2,32.8c-14.4,3.7-30.6,2.4-45.8-4.9c-15.2-7.2-26.7-19.1-33.2-32.8C359.7,131.9,375.9,133.2,391.1,140.5
		L391.1,140.5z M378,58c4.1-19.4-1.5-38.3-13.9-53.6C346,15.9,333,32.5,328.9,51.9c-4.1,19.4,1.5,38.3,13.9,53.6
		C360.9,94,373.9,77.5,378,58L378,58z"/>
</g>
</svg>
