<?xml version="1.0" encoding="utf-8"?>
<!-- Generator: Adobe Illustrator 21.1.0, SVG Export Plug-In . SVG Version: 6.00 Build 0)  -->
<svg version="1.1" id="Layer_1" xmlns="http://www.w3.org/2000/svg" xmlns:xlink="http://www.w3.org/1999/xlink" x="0px" y="0px"
	 viewBox="0 0 432 216" style="enable-background:new 0 0 432 216;" xml:space="preserve">
<style type="text/css">
	.st0{fill-rule:evenodd;clip-rule:evenodd;fill:#F8EC18;}
	.st1{fill-rule:evenodd;clip-rule:evenodd;fill:#FCFCFC;}
</style>
<g>
	<path class="st0" d="M368.7,152.7C407.8,113.6,432,59.6,432,0H0c0,59.6,24.2,113.6,63.3,152.7C102.4,191.8,156.4,216,216,216
		C275.6,216,329.6,191.8,368.7,152.7L368.7,152.7z"/>
	<path class="st1" d="M354.9,138.9c35.6-35.6,57.5-84.7,57.5-138.9h-16c0,15.3-2.9,30.6-8.7,42.6C375.7,67.3,251,13.2,251.1,1.5
		c0-0.4,0.2-1,0.6-1.5h-71.4c-9,14.4-124.5,66.7-136,42.9C38.5,30.8,35.6,15.4,35.6,0h-16c0,54.3,22,103.4,57.5,138.9
		c35.6,35.6,84.7,57.5,138.9,57.5C270.3,196.5,319.4,174.5,354.9,138.9L354.9,138.9z M307.3,151.5c25.3-8.8,51.6-35.1,60.4-60.4
		c9.1-25.9-119.6-73.3-127.9-65.2C231.4,34.1,281.4,160.6,307.3,151.5L307.3,151.5z M173.4,171.7c24.1,11.6,61.3,11.6,85.4,0
		c24.7-11.9-32.8-136.4-44.4-136.5C202.8,35,148.7,159.7,173.4,171.7L173.4,171.7z M64.5,91.3c8.8,25.3,35.1,51.6,60.4,60.4
		c25.9,9.1,73.3-119.6,65.2-127.9C181.9,15.4,55.4,65.4,64.5,91.3L64.5,91.3z"/>
</g>
</svg>
