<?xml version="1.0" encoding="utf-8"?>
<!-- Generator: Adobe Illustrator 21.1.0, SVG Export Plug-In . SVG Version: 6.00 Build 0)  -->
<svg version="1.1" id="Layer_1" xmlns="http://www.w3.org/2000/svg" xmlns:xlink="http://www.w3.org/1999/xlink" x="0px" y="0px"
	 viewBox="0 0 1117.4 432" style="enable-background:new 0 0 1117.4 432;" xml:space="preserve">
<style type="text/css">
	.st0{fill-rule:evenodd;clip-rule:evenodd;fill:#D1B696;}
	.st1{fill-rule:evenodd;clip-rule:evenodd;fill:#69DED9;}
	.st2{fill-rule:evenodd;clip-rule:evenodd;fill:#ED006C;}
	.st3{fill-rule:evenodd;clip-rule:evenodd;fill:#FF8D90;}
	.st4{fill-rule:evenodd;clip-rule:evenodd;fill:#F6C9C6;}
	.st5{fill-rule:evenodd;clip-rule:evenodd;fill:#5F473B;}
</style>
<g>
	<path class="st0" d="M810.2,321.7V408c0,13.2-10.8,24-24,24h0c-13.2,0-24-10.8-24-24v-86.2H810.2L810.2,321.7z"/>
	<path class="st1" d="M882,214.6H690.4V294c0,15.3,12.5,27.7,27.7,27.7h44h48.1h44c15.3,0,27.7-12.5,27.7-27.7V214.6L882,214.6z"/>
	<polygon class="st2" points="690.4,214.6 882,214.6 882,107.4 690.4,107.4 690.4,214.6 	"/>
	<path class="st3" d="M690.4,107.4H882V95.8c0-51.1-40.5-93.2-91-95.7h-9.5c-50.5,2.5-91,44.6-91,95.7V107.4L690.4,107.4z"/>
	<path class="st0" d="M1043,325v83c0,13.2-10.8,24-24,24h0c-13.2,0-24-10.8-24-24v-83H1043L1043,325z"/>
	<path class="st3" d="M964.1,19.9h109.6c24,0,43.6,19.6,43.6,43.6v237.8c0,13.1-10.7,23.8-23.8,23.8H944.3
		c-13.1,0-23.8-10.7-23.8-23.8V63.5C920.6,39.5,940.2,19.9,964.1,19.9L964.1,19.9z"/>
	<path class="st4" d="M1050,59.3h13.1c6.5,0,11.9,5.3,11.9,11.9v202.5c0,6.5-5.3,11.9-11.9,11.9H1050c-6.5,0-11.9-5.3-11.9-11.9
		V71.2C1038.2,64.7,1043.5,59.3,1050,59.3L1050,59.3z"/>
	<path class="st4" d="M974.8,59.3h13.1c6.5,0,11.9,5.3,11.9,11.9v202.5c0,6.5-5.3,11.9-11.9,11.9h-13.1c-6.5,0-11.9-5.3-11.9-11.9
		V71.2C962.9,64.7,968.3,59.3,974.8,59.3L974.8,59.3z"/>
	<path class="st0" d="M119.8,321.7V408c0,13.2-10.8,24-24,24l0,0c-13.2,0-24-10.8-24-24v-86.2H119.8L119.8,321.7z"/>
	<path class="st3" d="M95.8,0.1c52.7,0,95.8,43.1,95.8,95.8V294c0,15.3-12.5,27.7-27.7,27.7H27.7C12.5,321.7,0,309.3,0,294V95.8
		C0,43.2,43.1,0.1,95.8,0.1L95.8,0.1z"/>
	<path class="st0" d="M349.9,321.7V408c0,13.2-10.8,24-24,24h0c-13.2,0-24-10.8-24-24v-86.2H349.9L349.9,321.7z"/>
	<path class="st2" d="M327.3,21.1c0.1,10.5,7.2,19.8,17.4,22.2c0.9,0.2,1.7,0.3,2.5,0.4c1,0.2,1,0.5,1.2,1.5
		c0.5,2.7,1.3,4.8,2.8,7.1c4.2,6.9,11.5,11,19.6,11.1c2.5,0,4.3-0.3,6.7-1c2.4-0.7,2.4,0.4,4,1.9c3.1,3.1,7.6,5.3,11.9,6
		c1.3,0.2,2.6,0.3,4,0.3c3.8,0,7-0.8,10.4-2.5c1.3-0.6,1.6-0.3,2.8,0.4c2,1,4,1.6,6.2,1.9c1.9,0.3,1.9,1.2,2.3,2.9
		c0.5,2.5,1.1,4.9,1.5,7.4c0.8,5,1.2,10,1.2,15V294c0,15.3-12.5,27.7-27.7,27.7H257.9c-15.3,0-27.7-12.5-27.7-27.7V95.8
		c0-35.4,19.6-67.7,50.7-84.4C294.4,4.2,308,0.7,323.4,0.1c0.9,0,2.9-0.3,3.5,0.1c0.8,0.5,0.8,2.5,1,3.4c0.4,1.9,0.9,2.9,1.8,4.6
		c0.9,1.8,0.1,2.2-0.6,3.9C327.8,15,327.3,18.1,327.3,21.1L327.3,21.1z"/>
	<path class="st0" d="M580.1,321.7V408c0,13.2-10.8,24-24,24h0c-13.2,0-24-10.8-24-24v-86.2H580.1L580.1,321.7z"/>
	<path class="st1" d="M556,0.1c52.7,0,95.8,43.1,95.8,95.8V294c0,15.3-12.5,27.7-27.7,27.7H488c-15.3,0-27.7-12.5-27.7-27.7V95.8
		C460.3,43.2,503.4,0.1,556,0.1L556,0.1z"/>
	<path class="st5" d="M460.3,186.8c20.4,10.6,20.5-33,23.1-45.9c3.9-19.3,16.7-20.4,16.1,0.6c-0.1,5.4,2,16.5,7.6,17
		c7.5,0.6,12.4-11.8,14.1-17.7c2.1-7.2,4.6-41.4,10.2-41.3c3.2,0.1,5.5,12.5,5.8,15.1c1.6,12,1.9,21.6,1.5,36.8
		c-0.3,12.7-9.3,35.8,10.5,37.1c13.3,0.9,14.5-8.3,14.5-22.8c0-15.2,0.5-31,1.5-46.1c0.2-2.6,3-30.4,9.8-30.4
		c6.9,0,10.9,20.4,13.7,34.2c1.7,8.4,4.3,14.2,11.7,14.5c12.1,0.4,10.4-30.8,16.9-30.9c5.8-0.1,10,15.9,10.9,19
		c4.3,15.3-2.6,88.2,23.4,72.2V95.8c0-52.7-43.1-95.8-95.8-95.8c-52.7,0-95.8,43.1-95.8,95.8V186.8L460.3,186.8z"/>
</g>
</svg>
