<?xml version="1.0" encoding="utf-8"?>
<!-- Generator: Adobe Illustrator 21.1.0, SVG Export Plug-In . SVG Version: 6.00 Build 0)  -->
<svg version="1.1" id="Layer_1" xmlns="http://www.w3.org/2000/svg" xmlns:xlink="http://www.w3.org/1999/xlink" x="0px" y="0px"
	 viewBox="0 0 273.8 432" style="enable-background:new 0 0 273.8 432;" xml:space="preserve">
<style type="text/css">
	.st0{fill-rule:evenodd;clip-rule:evenodd;fill:#D60008;}
	.st1{fill-rule:evenodd;clip-rule:evenodd;fill:#FCFCFC;}
	.st2{fill-rule:evenodd;clip-rule:evenodd;fill:#529335;}
</style>
<g>
	<path class="st0" d="M164.3,423.6c8.3-6.1,20.5-17.1,34.2-37.3c13.7-20.2,28.8-49.8,41.7-75.6c3.7-7.5,7.2-14.7,10.5-21.6H17.1
		c6,11.6,12.8,21.4,18.3,29.2c7.1,10.2,11.9,17.1,17.2,26.2c12.4,21.2,18.9,36.9,36.2,56.3c7.7,8.6,17.1,17.4,24.6,22.7
		c7.5,5.3,13.2,6.9,18.5,7.8c5.3,0.9,10.2,1,14.9,0.4C151.5,431,156,429.7,164.3,423.6L164.3,423.6z M273.6,217.5
		c0.7-10.2-0.2-19.8-2.5-29.2c-4.2-16.7-13.3-32.4-24.2-43c-6.5-6.3-13.6-10.7-20.6-13.9c-5.9,3.6-12.6,6.5-19.8,8.7
		c-22.2,6.7-46.3,5.3-68.1-2.7c-21.8,7.9-45.9,9.4-68.1,2.7c-5.7-1.7-11-3.9-15.9-6.5c-3.6,1.6-7.1,3.5-10.5,5.6
		c-14.2,9.2-25.6,23.9-33.1,38.7C4.3,190.6,0.6,203.3,0,217.5H273.6L273.6,217.5z"/>
	<path class="st1" d="M61.5,187.5c-2.1,3.1-5.1,6.6-5.9,10.3c-0.8,3.7,0.4,7.9,3.1,10.6c2.4,2.4,6,3.7,9.3,3.2c3-0.5,5.4-2.4,6.9-5
		c1.5-2.6,2.2-5.6,2-8.5c-0.2-3-1.4-5.8-2.2-8.6c-0.7-2.5-1.2-5-1.9-7.5c-0.6-1.9-1.3-3.5-2.2-5.2c-0.3-0.6-0.9-1-1.6-1
		c-0.7,0-1.3,0.4-1.6,1C65.6,180.4,63.8,184.1,61.5,187.5L61.5,187.5z"/>
	<path class="st1" d="M131,187.5c-1.8,3.3-4.4,7-4.9,10.8c-0.5,3.8,1.2,7.8,4.1,10.2c2.6,2.1,6.3,3.1,9.6,2.2c3-0.8,5.1-2.9,6.4-5.7
		c1.3-2.7,1.7-5.8,1.1-8.7c-0.5-2.9-1.9-5.6-3-8.3c-1-2.4-1.7-4.9-2.6-7.2c-0.7-1.8-1.6-3.3-2.7-5c-0.4-0.6-1-0.9-1.7-0.8
		c-0.7,0.1-1.2,0.5-1.5,1.1C134.4,180,132.9,183.9,131,187.5L131,187.5z"/>
	<path class="st1" d="M196.2,183.1c-1.2,3.6-3.2,7.7-3.1,11.5c0.1,3.8,2.4,7.5,5.7,9.4c2.9,1.7,6.7,2,9.8,0.7
		c2.8-1.2,4.6-3.7,5.4-6.6c0.8-2.9,0.7-6-0.3-8.8c-1-2.8-2.8-5.2-4.3-7.7c-1.3-2.2-2.4-4.5-3.8-6.7c-1-1.7-2.2-3-3.5-4.5
		c-0.5-0.5-1.1-0.7-1.8-0.5c-0.7,0.2-1.1,0.7-1.3,1.4C198.4,175.2,197.5,179.3,196.2,183.1L196.2,183.1z"/>
	<path class="st1" d="M135.9,299.9c-1.8,3.3-4.4,7-4.9,10.8c-0.5,3.8,1.2,7.8,4.1,10.2c2.6,2.1,6.3,3.1,9.6,2.2
		c3-0.8,5.1-2.9,6.4-5.7c1.3-2.7,1.7-5.8,1.1-8.7c-0.5-2.9-1.9-5.6-3-8.3c-1-2.4-1.7-4.9-2.6-7.2c-0.6-1.5-1.4-2.9-2.2-4.2h-3.8
		C139.2,292.7,137.7,296.5,135.9,299.9L135.9,299.9z"/>
	<path class="st1" d="M97.7,350.6c-1.8,3.3-4.4,7-4.9,10.8c-0.5,3.8,1.2,7.8,4.1,10.2c2.6,2.1,6.3,3.1,9.6,2.2
		c3-0.8,5.1-2.9,6.4-5.7c1.3-2.7,1.7-5.8,1.1-8.7c-0.5-2.9-1.9-5.6-3-8.3c-1-2.4-1.7-4.9-2.6-7.2c-0.7-1.8-1.6-3.3-2.7-5
		c-0.4-0.6-1-0.9-1.7-0.8c-0.7,0.1-1.2,0.5-1.5,1.1C101.1,343.2,99.7,347,97.7,350.6L97.7,350.6z"/>
	<path class="st1" d="M174.9,349.9c-0.9,3.7-2.6,7.9-2.2,11.7c0.4,3.8,3,7.3,6.4,8.9c3,1.5,6.9,1.5,9.9-0.1c2.7-1.4,4.3-4.1,4.9-7
		c0.6-2.9,0.3-6-0.9-8.7c-1.2-2.7-3.2-5-4.9-7.4c-1.5-2.1-2.8-4.3-4.3-6.4c-1.1-1.6-2.4-2.8-3.8-4.2c-0.5-0.5-1.2-0.6-1.8-0.4
		c-0.7,0.2-1.1,0.8-1.2,1.5C176.4,341.9,175.9,346,174.9,349.9L174.9,349.9z"/>
	<path class="st1" d="M70.3,296.1c-1.9,3.2-4.7,6.8-5.4,10.6c-0.6,3.8,0.8,7.8,3.7,10.4c2.5,2.3,6.2,3.4,9.5,2.7
		c3-0.6,5.2-2.7,6.7-5.4c1.4-2.6,1.9-5.7,1.5-8.6c-0.4-2.9-1.7-5.7-2.6-8.5c-0.9-2.4-1.4-4.9-2.3-7.3c-0.1-0.3-0.2-0.6-0.3-0.9h-7.1
		C72.8,291.5,71.6,293.8,70.3,296.1L70.3,296.1z"/>
	<path class="st1" d="M216.2,295.8c1.9,3.2,4.8,6.8,5.4,10.6c0.7,3.8-0.8,7.8-3.6,10.4c-2.5,2.3-6.2,3.4-9.5,2.7
		c-3-0.6-5.3-2.7-6.7-5.3c-1.4-2.6-2-5.7-1.6-8.6c0.4-3,1.6-5.7,2.6-8.5c0.8-2.4,1.4-4.9,2.3-7.4c0.1-0.2,0.2-0.5,0.3-0.7h7.3
		C213.8,291.4,214.9,293.7,216.2,295.8L216.2,295.8z"/>
	<path class="st2" d="M120.6,2.5c-4.3,2.2-10.5,5.5-11.5,9.8c-1,4.4,3.2,9.8,6.8,17.8c6.2,13.7,10.1,33.1,11.6,49.3
		c-12.1-18.8-30.5-31.2-50.7-36.2c-2.5,18.2,0.9,37.3,10.8,54.2c-21.5-5.6-44.6-3.7-65.4,4.1c9.1,17.7,25.7,31.8,48.3,38.7
		c22.2,6.7,46.3,5.3,68.1-2.7c21.8,7.9,45.9,9.4,68.1,2.7c22.6-6.8,39.2-21,48.3-38.7c-20.8-7.8-43.9-9.7-65.4-4.1
		c9.9-16.9,13.3-35.9,10.8-54.2c-19.8,4.9-37.9,16.9-50.1,35.2c-1.9-18.1-7.4-43-11.3-57.5c-3.8-14-6.3-18.5-8.8-20.1
		C127.4-0.9,124.9,0.3,120.6,2.5L120.6,2.5z"/>
</g>
</svg>
