<?xml version="1.0" encoding="utf-8"?>
<!-- Generator: Adobe Illustrator 21.1.0, SVG Export Plug-In . SVG Version: 6.00 Build 0)  -->
<svg version="1.1" id="Layer_1" xmlns="http://www.w3.org/2000/svg" xmlns:xlink="http://www.w3.org/1999/xlink" x="0px" y="0px"
	 viewBox="0 0 720 401.6" style="enable-background:new 0 0 720 401.6;" xml:space="preserve">
<style type="text/css">
	.st0{fill-rule:evenodd;clip-rule:evenodd;fill:#73CDD5;}
	.st1{fill-rule:evenodd;clip-rule:evenodd;fill:#FF8D90;}
</style>
<g>
	<path class="st0" d="M49.2,4.4c-33.4,6-59.9,45.1-32,76.4c6.1,6.9,32.1,28.4,36.7,33.9c7.1,8.5-1.8,24.8-21.6,17.8
		c-1.7-0.6-18.6,17.3-19,18.1c-1,2.4,23.1,16.6,49.9,8.1c-1.1-4.6-3-8.9,0.8-11.1c3.9-2.3,7,2,11,5.8c10.6-6.3,17.6-17.3,16.4-28.5
		c-1.8-17.7-24.4-37.1-39.8-48.4c-4.1-3-12.4-11.5-15.1-16.1c-6.9-11.9,4-25.7,13.4-29.6c10.8-4.5,23.1,1.5,28.4,11.1
		c2.6,4.6,3.9,11.4,3.9,16.7h29.2c-1-9.3-1.1-13.7-4.8-22.7C97.3,13.1,73,0.1,49.2,4.4L49.2,4.4z M121.6,18.7
		c-0.3,1.7-0.7,7.2-1.1,16.5c-2,35,3.2,78.7,27,102c17.6,17.3,42.5,17.6,60.1,0.8c20-19,30.8-54.7,32.7-107l0.5-13.6
		c-9.7,0-19.5,0-29.2,0c-1.2,33.8-3.5,71.9-20,95.8c-8.2,11.8-14.9,17-25.5,2.5c-24.1-33.1-14.2-96.2-15-96.9l-27.1-2.5
		C122.2,15.9,121.9,16.7,121.6,18.7L121.6,18.7z M331.8,43l-16.9,43c-0.9-0.8-31.7-76.6-32.4-76.3l-27.6,0.2v137.9h27.9V79.1
		l16.7,40.5c8.7-1.1,22-0.8,33.6-0.8l14.9-36.7l-0.9,70.5l27.2,0.8L376.2,8l-27.6-8L331.8,43L331.8,43z M472.1,43l-16.9,43
		c-0.9-0.8-31.7-76.6-32.4-76.3l-27.6,0.2v137.9H423V79.1l16.7,40.5c8.7-1.1,22-0.8,33.6-0.8l14.9-36.7l-0.9,70.5l27.2,0.8L516.4,8
		l-27.6-8L472.1,43L472.1,43z M561.7,12.6c-18.7,0.5-28.2,0.9-28.3,1.2l1.6,134.3l0.5,9h69.9v-23.3H561v-6.8l24.2-0.8
		c0-10,0.1-14.3-0.9-23.3l-23.8,1l-0.7-67.6l38.2-1.6l-0.2-20.3l-0.7-2.8L561.7,12.6L561.7,12.6z M622.9,24.7l3,126.1l0.5,3.2
		c11.2,0,19.3,0.2,28.6-0.8l-0.5-24.5l5.3-1.4l45,28.1c2.8-3.5,14.9-18,14.9-19.3c0-0.9-28.9-18.4-29.9-19.5
		C687.7,114.6,720,101,720,68c0-29-28.5-51.8-57-55.7c-11.2-1.5-27.1-1.3-40.6-1.3L622.9,24.7L622.9,24.7z M663.8,42.8
		c26.4,7.9,34.2,48-7.1,53.6l-3.2,0.4l-1.8-55C656,41.8,659.7,41.6,663.8,42.8L663.8,42.8z"/>
	<path class="st0" d="M333.8,285.8l-16.9,43l-29.4-69.7c-7.7,7.2-20.9,9.7-30.7,6.2v125.3h27.9v-68.6l16.7,40.5
		c8.7-1.1,22-0.8,33.6-0.8l14.9-36.7l-0.9,70.5l27.2,0.8l2.1-145.3l-27.6-8L333.8,285.8L333.8,285.8z M395.7,317.3
		c-0.3,45.9-0.3,69-0.1,69.3l25.9,1l1.6-137.5c-4.9-1.2-18.9-1.3-27-1.6L395.7,317.3L395.7,317.3z M449.4,262.5l-14.2,0.2l0.9,136.7
		h27.6v-82.9l48.4,85.1l25.8-1.8c0-22.9,0.6-28.2,4.8-76.3c3.2-36,4.6-54.1,4.1-54.4l-28.6-2l-6.9,78.1l-48.2-82.9L449.4,262.5
		L449.4,262.5z M566.6,320.3v72.9c15.5-0.2,27.7,0.3,41.1-2.4c21.5-4.3,40.4-16.1,50.4-34c7.3-13.2,10.1-34.2,7-50.1
		c-5.5-28.3-27.8-49.7-56.2-55.8c-2.2-0.5-4.5-1-6.9-1.3c-3.6,0.4-7.2,0-10.5-1.3l-24.8-0.6V320.3L566.6,320.3z M606.5,279.4
		c32.4,10.2,39.2,50.4,16.7,72.6c-9.6,9.4-17.5,9.9-30.2,10.7V277C598.4,277.3,600.1,277.4,606.5,279.4L606.5,279.4z"/>
	<path class="st1" d="M269.6,221.3c-2.1,2.1-4.7,2.7-6.6,4.4c-10.4,5.9-15,14.6-14.5,23.7c0.7,10.3,9.3,15.5,23.3,13.5
		c10.5-1.8,19-9,20.5-21.4c0.2-6.7-0.2-10.6-2.9-15.5c-1.6-2.8-2.2-3.1,2.8-5.8c5.5-2.7,8.8-5,13.5-7.3c-1.3,9.7-1.9,19.3,2.4,27.4
		c6.1,11.3,20,11.2,29.5,5.8c10.8-6.2,15.1-13.1,21-23c0.4,0.6,0.8,1.1,1.2,1.6c2.9,4.2,7.8,6.8,15.9,6.2
		c6.4-0.5,15.1-6.4,19.5-10.8c1.2-1.3,2.2,11.1,10.4,15.3c3.5,2,8.5,2,12.6,0.5c5.2-1.9,11.7-8.4,15.2-12.9
		c-0.4,12.6,3.7,25.2,17.5,26.5c13.1,1.3,25.3-9.1,31.4-18.5c0.6-1,1.4-2.2,2.3-3.6c1.9,5.2,6,9.4,11,11.4c5.4,2.3,15.4,2.6,23,0.3
		c12.8-4.2,23.5-11.8,31.4-27.9c2.9-4.9,2.1-6.7-0.7-7.1c-2.4-0.3-4.1,2.6-7.6,6.4c-2.8,3.5-4.7,6.2-10.2,10
		c-5.5,3.9-9.2,5-15.7,6.5c-6.2,1.3-11.4,0.2-15.4-5.8c-1.4-2-1-2.6,1.6-3.3c10.9-3.1,17.8-5.1,22.6-17c2.4-6.1,2.2-12.9-0.2-18.2
		c-1.7-3.3-5.7-6.5-13.1-4.6c-11.4,3.3-19.3,10.2-24.3,19.6c-2.4,4.7-4.2,12-4,19.5c-4.2,5.7-6.3,8.9-11.3,14.1
		c-2.4,2.7-6.9,6.8-10.5,8c-5.5,2.1-8.1,0.5-9.8-2.9c-2.2-4.9,1.6-34.1,4.3-46c1.7-7.9,2.2-11.2,4.8-19.1c1-2.1,1.2-2.4,4.5-2.6
		c6.4,0,9.2-0.2,13.3-0.2c3.6,0,5.9-0.2,6.2-3c0.2-3-2.4-3.8-5.5-3.8c-5.2,0-7.9,0.3-11.6,0c-2.9-0.2-2.9-0.2-2.4-3.2
		c1.2-5.8,3.1-11.2,5.5-16.7c1.5-3.5-1-6.5-5.5-5.6c-4.7,1.1-8.3,3.3-10.7,6.8c-3.8,5.3-5.7,10-7.6,15.9c-0.9,2.9-1.2,3.6-5,3.6
		c-5.4,0.5-8.3,1.2-15.2,2c-5.2,0.8-12.1,1.8-13.6,3.3c-1.4,1.2-1.7,3.3-0.5,4.6c1.9,2,6,0.6,8.6,0.2c7.8-1.5,13.6-2.4,21.8-2.6
		c1,0-0.5,4.7-0.7,5.5c-2.2,10.3-5,18.1-6.4,28.8c-0.2,1.8-0.5,3.6-0.8,5.4c-0.1,0.2-0.3,0.4-0.4,0.5c-5.4,7.6-10.7,11.5-15.5,13.2
		c-4.5,1.7-6.6-0.5-8.6-5.5c-6.1-14.9,1.6-16.4-2.8-19c-3-1.7-5.4,0.6-7.1,2.7c-4.5,5.9-9,11.7-15.4,16.2c-2.9,2.1-6,3.9-9.5,4.9
		c-3.1,0.9-6-0.6-6.7-3.3c-0.2-0.9-0.3-2-0.3-2.9c0-6.2,5.5-16.4,10.4-20.3c5.5-4.9,12.3-5.8,18.5-3.2c2.1,1.1,5.4,3.3,7.1,1.8
		c1-0.9,1-2.7-1.4-5.9c-5-5.9-10.4-9-18.8-8.8c-5.2,0-12.1,1.7-16.6,4.9c-4.8,3.3-9.7,7.7-11.7,17.3c-0.7,2.9-1,7.9-0.1,12.7
		c-0.4,0.6-0.7,1.1-1,1.4c-4.5,6.1-6.6,9.3-11.7,14.7c-2.4,2.7-6.9,6.8-10.5,8c-5.5,2.1-8.1,0.5-9.8-2.9c-2.2-4.9,1.6-34.1,4.3-46
		c1.7-7.9,2.2-11.2,4.8-19.1c1-2.1,1.2-2.4,4.5-2.6c6.4,0,9.2-0.2,13.3-0.2c3.6,0,5.9-0.2,6.2-3c0.2-3-2.4-3.8-5.5-3.8
		c-5.2,0-7.9,0.3-11.6,0c-2.9-0.2-2.9-0.2-2.4-3.2c1.2-5.8,3.1-11.2,5.5-16.7c1.5-3.5-1-6.5-5.5-5.6c-4.7,1.1-8.3,3.3-10.7,6.8
		c-3.8,5.3-5.7,10-7.6,15.9c-0.9,2.9-1.2,3.6-5,3.6c-5.4,0.5-8.3,1.2-15.2,2c-3.4,0.5-7.6,1.1-10.5,2c-4.4-2.4-9.9-3.4-16.2-2.9
		c-19.3,2.3-25.6,12.6-25.7,24.1c-0.2,7.9,4.5,16.4,12.3,22.8C261.5,214.9,265.3,217.9,269.6,221.3L269.6,221.3z M710.4,204.6
		c-2.2-0.5-4.8,3.2-12.3,7c-3.8,2-9.5,3-16.1,3.6c-1.9,0.2-5.5,0.5-7.4-0.5c-4.3-2.3-7.2,1.3-6.2,4.6c0.7,2.3,5.9,8.3,6.7,9.6
		c8.3,10.8,14,20.9,13.1,30.9c-0.3,3.6-0.7,5.8-1.7,7.7c-3.5,7-9.8,5.2-14.3,0.9c-4.3-4.2-10-18.5-9.3-35.3
		c1-23.5,4.9-30.8,11.6-52.5c2.9-9.7,6.6-20.2,10.5-31.1c1.4-3.2-0.7-5.8-3.6-5.8c-5.1,0-9.8,3.2-12.6,7
		c-7.8,10.8-8.8,17.4-12.6,28.5c-3.4,9.6-6,19.3-8,29.3c-5.2,3-10.2,5-13.7,5.2c-1.9,0-2.2-0.8-2.1-2.3c2.4-15.8-1-27.5-10-32.2
		c-3.6-1.8-10.2-3-14.2-2.4c-7.4,1.2-11.4,3.6-12.8,10.2c-0.5,2.3-0.9,4.6-0.5,6.8c0.3,2.7-2.8,5.5-5,7.3
		c-12.1,9.8-15.5,33.6,0.3,42.8c6.2,3.6,15,2.7,21.6-1.4c7.3-4.6,11.9-11.7,15.4-19c1.4-3,2.1-3,5.2-3.2c6.1-0.4,10.9-2.2,14.3-4
		c-1.5,8.6-1.3,17.1-0.7,25.9c0.2,1.8,0.2,3.6,0.3,5.6c1,9,3.6,17.6,8.5,25.6c2.8,4.9,5.7,6.8,10.9,9.1c3.5,1.5,12.1,2.7,19-0.6
		c6.9-3.5,9.2-8.8,11.1-15.8c1.7-5.9,1.4-11.8-0.3-17.6c-2.1-7.1-3.6-10.3-8.1-17.1c-3.9-5.8-10-9.1-4.5-9.7
		c6-0.8,13.6-2.6,17.4-4.7C711.3,210.8,713,205,710.4,204.6L710.4,204.6z M620.1,220.2c-3.3,5.2-5,10.3-12.1,12.9
		c-6,2-11.7-0.9-12.4-6.5c-1-7.3,2.4-14.3,2.9-15.8c1.4-4.1,2.6-4.1,5.9-1.5c2.8,2.3,4.8,3.8,8.8,5.8c2.1,1.1,2.8,1.4,6,2.4
		C620.6,218.1,621,218.9,620.1,220.2L620.1,220.2z M624.1,210.1c-0.5,1.7-1,1.7-2.9,1.2c-9.5-2.9-15.2-13.2-12.1-20.8
		c1.9-4.2,6.2-5.2,9.5-3C622.5,189.9,626.9,200.6,624.1,210.1L624.1,210.1z M502,211.1c-2.9,0.2-4.5,0-3.6-4.1
		c2.1-7.9,5.5-15,13.6-19.6c3.6-2,5.4-1.4,6.4,2.3c1.7,4.9-0.7,10-3.1,14C513.2,207,507.2,210.5,502,211.1L502,211.1z M306.7,206.4
		c-9,3-16.9,6.7-22,9.1c-1.6,0.8-2.6,0.3-3.5-0.8c-5.2-5.8-10.4-11.5-15-17.6c-2.1-2.4-3.5-5.3-3.6-8.3c-0.3-4.7,0.7-9.1,5.5-12
		c4.8-2.9,14.5-2.7,19.3,1.7c1.6,1.4,2.9,2.7,2.2,4.7c-1.8,6.1-9.7,2.9-9.7,7.1c0,2,2.6,2.9,4.7,2.7c6.9-0.3,13.3-7.7,11.9-13.8
		c-0.5-2.4-1.5-4.6-2.8-6.5c7-1.3,12.7-2.1,20.2-2.3c1,0-0.5,4.7-0.7,5.5c-2.2,10.3-5,18.1-6.4,28.8
		C306.8,205.3,306.7,205.8,306.7,206.4L306.7,206.4z M277.5,230.5c2.1,3.9,3.6,7.6,3.1,11.5c-0.7,6.7-4.7,9.3-7.9,10
		c-4.5,1.1-7.1-2-6.9-5.3C266.2,240.2,271.5,233.5,277.5,230.5L277.5,230.5z"/>
	<path class="st1" d="M114.7,340.5l18,58.7l18-58.7C138.9,343.3,126.5,343.3,114.7,340.5L114.7,340.5z M134.6,243.9
		c0.6-2.5,1.6-4.6,3.1-6.4l-17.2,1.9c1.8,1.5,3.3,3.3,4.5,5.7C128.1,244.5,131.3,244.1,134.6,243.9L134.6,243.9z M80.1,321.5
		l-13.8,59.9l44.9-41.8C99.5,336.1,88.8,329.8,80.1,321.5L80.1,321.5z M59.3,288.2l-41.5,44.6l59.9-13.8
		c-7.9-8.2-13.9-18.2-17.5-29.3L59.3,288.2L59.3,288.2z M57.7,248.8L0,266.5L57.3,284C53.6,274.2,52.4,257.5,57.7,248.8L57.7,248.8z
		 M77.6,213.9l-59.9-13.8L59.6,245C63.1,233.2,69.3,222.5,77.6,213.9L77.6,213.9z M111.3,193.3l-44.9-41.8l13.8,59.9
		C88.8,203.1,99.5,196.8,111.3,193.3L111.3,193.3z M150.7,192.4l-18-58.7l-18,58.7C126.5,189.6,138.9,189.6,150.7,192.4L150.7,192.4
		z M185.3,211.4l13.8-59.9l-44.9,41.8C166,196.8,176.6,203.1,185.3,211.4L185.3,211.4z M206.9,243.9l40.7-43.8l-59.9,13.8
		c5.4,5.6,9.9,12.1,13.4,19.1C203.7,235.7,205.7,239.3,206.9,243.9L206.9,243.9z M206.7,284.5l45.6-14v-8.1l-44.1-13.5
		c1.3,6,1.7,13.1,0.7,19.3C208.8,273.8,208,279.2,206.7,284.5L206.7,284.5z M187.8,319.1l59.9,13.8l-41.8-44.9
		C202.4,299.7,196.1,310.4,187.8,319.1L187.8,319.1z M154.1,339.6l44.9,41.8l-13.8-59.9C176.6,329.8,166,336.1,154.1,339.6
		L154.1,339.6z M132.7,194.7c25.3,0,47.5,13.1,60.3,32.8c-10.1-4.2-21.8-3.1-32.6-1.4l-64.7,7.2c-10.6,0.6-21.1,2-30.2,7.6
		C75.9,213.9,102.1,194.7,132.7,194.7L132.7,194.7z M202.6,283c-7.5,31.7-35.9,55.3-69.9,55.3c-27.7,0-51.7-15.7-63.7-38.7
		c22.7,15.9,59.3-16.9,58-45.9c2.5-0.5,4.9-0.8,7.4-0.9C139.6,282.4,185.2,306.6,202.6,283L202.6,283z"/>
	<path class="st0" d="M56.9,263c0,0-1,14.7,5.2,24.7s11.6,11.5,13.1,12c1.5,0.5,9.2,3.8,21.7-2.6c12.5-6.3,19.2-17.8,20.8-20
		c1.5-2.2,8-14.9,6.5-25.6c4.2-1,8.3-1.6,12.7-1.6c0.8,10.7,9.9,21.9,11.9,23.6c2,1.7,11.1,11.5,24.6,14.9
		c13.6,3.4,20.4-1.5,21.7-2.3c1.4-0.8,6.3-3.4,10.1-14.6c3.8-11.1-0.4-25.2-0.4-25.2c-3.3-16.4-16.4-20-34.4-19
		c-3.1,0.2-6.4,0.7-9.6,1.4L95.9,236c-3.3,0-6.6,0.3-9.6,0.8C68.5,239.9,56.5,246.2,56.9,263L56.9,263z M136.8,246.6
		c-4.6,0-9.1,0.6-13.6,1.7c-2.3-6.8-7.8-9.2-12.2-10.4l35.4-3.9C142.4,236.1,137.6,239.6,136.8,246.6L136.8,246.6z"/>
</g>
</svg>
