<?xml version="1.0" encoding="utf-8"?>
<!-- Generator: Adobe Illustrator 21.1.0, SVG Export Plug-In . SVG Version: 6.00 Build 0)  -->
<svg version="1.1" id="Layer_1" xmlns="http://www.w3.org/2000/svg" xmlns:xlink="http://www.w3.org/1999/xlink" x="0px" y="0px"
	 viewBox="0 0 720 720" style="enable-background:new 0 0 720 720;" xml:space="preserve">
<style type="text/css">
	.st0{fill-rule:evenodd;clip-rule:evenodd;fill:#40C5C0;}
	.st1{fill-rule:evenodd;clip-rule:evenodd;fill:#FF8D90;}
	.st2{fill:#E8C537;}
	.st3{fill:#FF8D90;}
	.st4{fill:#40C5C0;}
	.st5{fill-rule:evenodd;clip-rule:evenodd;fill:#E8C537;}
</style>
<g>
	<path class="st0" d="M341.3,718.4c-7.6-1.5-16-5.2-15.9-16.1c0.1-6.7,2.7-19.2,4.2-27.9c1.3,3.7,3.4,7.6,7.7,8c3.5,0.4,4.5-2,4.7-5
		c0.2-4.2-1.3-7.5-3.2-11.2c-0.8-1.6-1.8-3.2-2.7-4.8c-0.6-1.1-1.2-2.1-1.8-3.2c-0.4-0.7-0.8-1.5-1.1-2.2c-0.2-0.4-0.2-0.5-0.1-1
		c0.9-4.4,2.8-8.2,4.8-12.1c0.7-1.3,1.3-2.6,2.2-3.8c0.9-1.3,2-2.5,3.1-3.7c1-1.2,5-5.3,6.4-5.6c0.2,0,1.1,0.1,1.4,0.2
		c0.7,0.3,2.6,1.7,3.2,2.2c1,0.8,1.9,1.8,2.8,2.8c0.9,0.9,1.7,1.8,2.5,2.7c1.1,1.4,2.2,2.8,3.3,4.2c1.1,1.4,2.1,2.9,3.1,4.4
		c1.4,2.2,4.5,8.4,4.9,10.9c0,0,0,0,0,0l-3,4.6c-2.8,4.2-6.4,8.4-8.6,13c-1.3,2.7-2.2,6.4-1,9.2c0.7,1.8,2.7,2.8,4.6,2.5
		c3-0.5,6.2-3.5,7.9-5.9c0.8-1.2,1.6-2.7,2.2-4.2c-0.4,1.8-0.8,3.7-1.3,5.8c-0.9,3.7-2,8.1-2.7,11.4c-1.5,6.4-2.8,13.7-6.2,19
		C358.3,719.1,348.9,719.9,341.3,718.4L341.3,718.4z M327.1,638.3c-0.7-3.1-1.3-6.2-1.6-8.8c-0.8-8,0.8-17.3,5.2-23.9
		c2.6-3.9,5.4-6.1,9.8-7.5c4.7-1.5,8.4-1.3,13.3-0.1c5.5,1.4,10,3.2,14.8,6.4c3.8,2.6,7.5,6,9.8,9.8c3,5,4.6,12,4.6,17.8
		c-0.1,8.1-3.9,22.9-6.4,31.5c0.1-1,0.2-1.9,0.2-2.9c0-1.2-0.1-2.5,0-3.7c0.1-2.5,0.7-5,0.7-7.6c0-3.4-1.8-8.5-3.2-11.6
		c-2.9-6.1-8.4-12.7-13.9-16.6c-2.7-1.9-5.1-3-8.3-3.3c-0.1,0-0.3,0-0.5-0.1c-0.3-0.4-0.5-0.8-1-1.2c-1.1-1.1-2.8-1.5-4.3-1
		c-1.5,0.5-2.2,1.5-2.4,2.9c-0.3,0.1-0.7,0.2-1.1,0.4c-2,0.9-4.9,3.2-6.5,4.8c-2.3,2.2-4.7,5.6-6.3,8.3
		C328.7,633.8,327.8,636,327.1,638.3L327.1,638.3z M307.4,718.4c7.6-1.5,16-5.2,15.9-16.1c-0.1-6.7-2.7-19.2-4.2-27.9
		c-1.3,3.7-3.4,7.6-7.7,8c-3.5,0.4-4.5-2-4.7-5c-0.2-4.2,1.3-7.5,3.2-11.2c0.8-1.6,1.8-3.2,2.7-4.8c0.6-1.1,1.2-2.1,1.8-3.2
		c0.4-0.7,0.8-1.5,1.1-2.2c0.2-0.4,0.2-0.5,0.1-1c-0.9-4.4-2.8-8.2-4.8-12.1c-0.7-1.3-1.3-2.6-2.2-3.8c-0.9-1.3-2-2.5-3.1-3.7
		c-1-1.2-5-5.3-6.3-5.6c-0.3,0-1.2,0.1-1.4,0.2c-0.7,0.3-2.6,1.7-3.2,2.2c-1,0.8-1.9,1.8-2.8,2.8c-0.9,0.9-1.7,1.8-2.5,2.7
		c-1.1,1.4-2.2,2.8-3.3,4.2c-1.1,1.4-2.1,2.9-3.1,4.4c-1.4,2.2-4.5,8.4-4.9,10.9c0,0,0,0,0,0l3,4.6c2.9,4.2,6.4,8.4,8.6,13
		c1.3,2.7,2.2,6.4,1,9.2c-0.7,1.8-2.7,2.8-4.6,2.5c-3-0.5-6.2-3.5-7.9-5.9c-0.8-1.2-1.6-2.7-2.2-4.2c0.4,1.8,0.8,3.7,1.3,5.8
		c0.9,3.7,2,8.1,2.7,11.4c1.5,6.4,2.8,13.7,6.2,19C290.4,719.1,299.8,719.9,307.4,718.4L307.4,718.4z M321.7,638.3
		c0.7-3.1,1.3-6.2,1.6-8.8c0.8-8-0.8-17.3-5.2-23.9c-2.6-3.9-5.4-6.1-9.8-7.5c-4.7-1.5-8.4-1.3-13.3-0.1c-5.5,1.4-10,3.2-14.8,6.4
		c-3.8,2.6-7.5,6-9.8,9.8c-3,5-4.6,12-4.6,17.8c0.1,8.1,3.9,22.9,6.4,31.5c-0.1-1-0.2-1.9-0.2-2.9c0-1.2,0.1-2.5,0-3.7
		c-0.1-2.5-0.7-5-0.7-7.6c0-3.4,1.8-8.5,3.2-11.6c2.9-6.1,8.4-12.7,13.9-16.6c2.7-1.9,5.1-3,8.3-3.3c0.1,0,0.3,0,0.5-0.1
		c0.3-0.4,0.5-0.8,1-1.2c1.1-1.1,2.8-1.5,4.3-1c1.5,0.5,2.2,1.5,2.4,2.9c0.3,0.1,0.7,0.2,1.1,0.4c2,0.9,4.9,3.2,6.5,4.8
		c2.3,2.2,4.7,5.6,6.3,8.3C320,633.8,321,636,321.7,638.3L321.7,638.3z"/>
	<path class="st1" d="M340.2,677.3c-0.1,2.3-0.5,3.6-2.8,3.4c-4-0.4-5.8-5-6.9-8.7c-1-3.4-1.9-7.6-2-10.9c0-1.9,0.3-5.1,0.2-5.8
		c-0.2-1.3-0.9-3.2-1.2-5.3c-0.7-5.5,0.8-12.3,3.7-17.2c1.5-2.5,4-6,6-8c1.5-1.5,4.3-3.7,6-4.5c1.4-0.6,2-0.4,2-1.2
		c0-0.8,0.2-1.7,1.3-2c0.9-0.3,1.9,0,2.5,0.6c1.3,1.3,0.5,1.5,2.5,1.7c2.7,0.3,4.8,1.1,7.5,3c5.3,3.7,10.6,10.2,13.3,15.9
		c1.4,2.9,3,7.8,3.1,10.9c0,2.4-0.6,5-0.7,7.5c-0.1,3.8,0.4,4.1-0.6,8.4c-1,4.5-2.6,10.6-5.1,14.3c-1.5,2.2-4.4,4.8-6.8,5.2
		c-1,0.2-2.3-0.4-2.7-1.5c-0.9-2.2-0.3-5.3,1-7.8c2-4.1,5.9-9,8.5-12.8l3-4.6c0.2-0.3,0.4-0.6,0.3-1.2c-0.4-2.6-3.6-9.2-5.2-11.6
		c-1.5-2.4-4.7-6.6-6.5-8.8c-1.2-1.5-4.3-4.6-5.5-5.7c-0.9-0.7-3-2.2-3.7-2.5c-0.5-0.2-1.9-0.4-2.4-0.2c-1.9,0.4-5.8,4.4-7.3,6.1
		c-2.8,3.1-3.7,4.3-5.5,7.9c-2.1,4.2-4,8-4.9,12.6c-0.2,0.9-0.2,1.3,0.2,2c0.8,1.9,4.3,7.7,5.7,10.3
		C339.2,670.7,340.4,673.6,340.2,677.3L340.2,677.3z M308.5,677.3c0.1,2.3,0.5,3.6,2.8,3.4c4-0.4,5.8-5,6.9-8.7
		c1-3.4,1.9-7.6,2-10.9c0-1.9-0.3-5.1-0.2-5.8c0.2-1.3,0.9-3.2,1.2-5.3c0.7-5.5-0.8-12.3-3.7-17.2c-1.5-2.5-4-6-6-8
		c-1.5-1.5-4.3-3.7-6-4.5c-1.4-0.6-2-0.4-2-1.2c0-0.8-0.2-1.7-1.3-2c-0.9-0.3-1.9,0-2.5,0.6c-1.3,1.3-0.5,1.5-2.5,1.7
		c-2.7,0.3-4.8,1.1-7.5,3c-5.3,3.7-10.6,10.2-13.3,15.9c-1.4,2.9-3,7.8-3.1,10.9c0,2.4,0.6,5,0.7,7.5c0.1,3.8-0.4,4.1,0.6,8.4
		c1,4.5,2.6,10.6,5.1,14.3c1.5,2.2,4.4,4.8,6.8,5.2c1,0.2,2.3-0.4,2.7-1.5c0.9-2.2,0.3-5.3-1-7.8c-2-4.1-5.9-9-8.5-12.8l-3-4.6
		c-0.2-0.3-0.4-0.6-0.3-1.2c0.4-2.6,3.6-9.2,5.2-11.6c1.5-2.4,4.7-6.6,6.5-8.8c1.2-1.5,4.3-4.6,5.5-5.7c0.9-0.7,3-2.2,3.7-2.5
		c0.5-0.2,1.9-0.4,2.4-0.2c1.9,0.4,5.8,4.4,7.3,6.1c2.8,3.1,3.7,4.3,5.5,7.9c2.1,4.2,4,8,4.9,12.6c0.2,0.9,0.2,1.3-0.2,2
		c-0.8,1.9-4.3,7.7-5.7,10.3C309.6,670.7,308.3,673.6,308.5,677.3L308.5,677.3z"/>
	<path class="st1" d="M148.5,344.3l-19.8,50.1c-0.3,0.9-1.1,1.5-2,1.5s-1.6-0.6-2-1.5L105,344.4c0.7,0.1,1.5,0.2,2.3,0.2
		c2.9,0,5.5-1,7.6-2.6c1.7,4.9,6.4,8.4,11.8,8.4c5.4,0,9.9-3.4,11.7-8.1c2,1.5,4.6,2.3,7.3,2.3C146.7,344.6,147.6,344.5,148.5,344.3
		L148.5,344.3z"/>
	<path class="st0" d="M126.7,294.7c14.4,0,26,11.7,26,26c0,0.3,0,0.6,0,0.9c3.3,2.3,5.5,6.1,5.5,10.4c0,6.9-5.6,12.5-12.5,12.5
		c-2.7,0-5.2-0.9-7.3-2.3c-1.8,4.7-6.4,8.1-11.7,8.1c-5.5,0-10.1-3.5-11.8-8.4c-2.1,1.6-4.7,2.6-7.6,2.6c-6.9,0-12.5-5.6-12.5-12.5
		c0-4.5,2.4-8.5,5.9-10.7c0-0.2,0-0.4,0-0.7C100.7,306.3,112.4,294.7,126.7,294.7L126.7,294.7z"/>
	<path class="st2" d="M567,435.4c0,14.3-10.3,37.4-22.9,44.6c0-8.2,0.5-11.5,3.4-27.7c2.2-12.5,3.6-19.4,4.1-20.4
		c1.2-2.3,12.7-4.8,14.6-2.3C566.7,430.2,567,432.1,567,435.4L567,435.4z M595.7,574c0-4.7-3.1-11.4-9.5-19.7
		c-11.7-15.4-19.6-34.1-25.5-53.9c2.7-3.1,4.8-5.1,5.8-6.2c6.7-6.7,12.1-14.7,16.1-23.6c4-8.9,6.1-18.8,6.1-29.6
		c0-12.9-5.8-22.7-17-30.2c-4.3-2.9-7.3-5.5-9.2-7.3c-2.7-0.7-6.4-1.1-11.1-1.1c-5.9,0-11.6,0.9-17,2.8c-12.7,4.3-6.8,13-6.7,15.2
		l-11.6,75c-3.5,24.3-6.9,47.7-6.9,68.7c0,4.4,0.7,7.1,2.1,8c12.2,8.3,18.9,12.4,20.1,12.4c2.2,0,2.7-6.2,2.7-7.8
		c0-11.7,0-23.4,0-35c0-2.7,2.3-17.1,3.2-19.5c0.7-1.8,1.4-2.7,2.1-2.9c7.4,13.3,10.4,21.5,16.1,36.7c3.8,10.1,8.7,18.8,14.7,24.9
		c2.9,3,4.8,4.4,5.8,4.4C582.4,585.3,595.7,581.5,595.7,574L595.7,574z M280.7,405c3.8,0,17.7,10.9,17.7,16.6c0-1-0.7,1.8-1.8,8.4
		c-0.7,3.7-1.3,9.4-2.1,17.1c-4,37.7-5.7,72.5-3.5,110.9c0.1,2.4,0.6,6.6,1.4,12.6c0.6,4.7,1.1,7.5,1.1,8.2c0,4.7-1.3,7.1-3.8,7.1
		c-1.8,0-10.3-4.3-12.1-5.3c-2.5-1.5-4.1-3.6-5.3-5.8c-2.5-4.6-3-33.2-2.9-41.2c0.1-8.9,0.5-17.7,0.7-26.6
		c0.2-8.9,0.5-17.8,0.8-26.6c-1.5,1.2-3.4,4.7-5.8,10.4c-7.2,17.1-10.9,34.1-12.7,53.2c-0.2,2.3-0.7,13.1-2.5,15.3
		c-2.3,2.8-5.7,1.1-8.2,0.7c-1.4-0.2-2.9-0.4-4.3-0.7c-1.2,0-5.1,1.1-5.8,1.1c-6.5,0.4-7.8-8.8-8.7-16c-0.8-6.9-1.4-17.1-1.7-30.6
		c-0.3-15.7-0.8-26.7-1.5-33c-1.1,5.5-2.6,13.1-4.5,23c-3.2,17.1-8.2,39.6-9.2,58.8c-0.3,5.1,0.8,22.8-4.6,22.8
		c-3.1,0-17-12.1-18.8-14.6c-4.4-6.2-1.3-25,1-39.2c2.9-18.6,7.7-43.5,12.6-63.6c4.7-19,10.2-39.2,15.8-60.1
		c0.6-2.2,3.4-3.3,8.4-3.3c3.6,0,7.3,0.6,11.1,1.8c2,0.6,3.4,3.9,4.4,5.5c0.8,0,7.1,1.9,7.9,4.4c0.6,1.8,1.2,5,0.8,9.5
		c-1.7,19.4-3.6,35.6-1.5,51.9c11.3-23.2,21.4-46.1,28.2-68.3c1.3-4.3,3.8-1.9,6.3-2.9C280,405.7,281,405,280.7,405L280.7,405z"/>
	<path class="st3" d="M508.7,429.6c0-6.7-6.7-24-11.7-26.2c-1.1-0.5-3.1-0.7-6-0.7c-9.4,0-18.7,2.4-27.9,6.9
		c-4.7,2.3-9.3,2.8-10.5,8.9c-2.7,13.2-5.5,27.7-8.3,43.4c-2.3,12.9-15.6,88.6-15.6,98.9c0,2.6,0.2,4.4,2,6.4
		c7.4,8.1,8.2,6.2,9.4,7.1c1.1,0.8,3.5,9.7,6.7,8.9c3.2-0.8,6.2-2.4,9.3-3.6c7-2.7,11.9-4.7,14.8-5.3c11.4-2.7,19.6-4,26.3-4.2
		c1.9-0.1,3.3-0.7,4.2-2.2c1.2-2.8-5.5-32.9-11.3-32.1c-11.4,1.6-22.8,3.7-34.1,5.5c-0.2-0.3-0.4-0.7-0.4-1.1
		c0.4-4,3.9-26.5,4.9-30.4c0.3-1.1,0.7-1.8,1.3-2c2.5-0.8,5.1-1.3,7.7-2c6-1.2,11.9-2.4,17.9-3.6c0.3-0.4,0.6-0.9,0.9-1.3
		c0-0.7,0-1.3,0-2c0-2.1-0.1-3.8-0.4-5.3c-2.1-9.9-5-17.2-8.7-21.7c-1.5-1.8-8.5,0.6-12.8,0c0.9-7.1,2.1-13.7,3.5-20
		c1.1-4.7,1.7-7.2,2-7.5c2.3-1.6,4.9-3.1,7.6-4.3c2.7-1.3,4.9-2.3,6.6-2.6c7-1.3,14.1-2.2,21.2-3.3
		C508.2,434.1,508.7,432.6,508.7,429.6L508.7,429.6z M79.3,449.6c0,0.1-0.3-2.9-1.1-9.1c-1.1-8.7-2.7-15.9-7.3-22.7
		c-6.4-9.4-16.3-15.4-27.2-15.4c-3.6,0-8.1,2-13.6,6c-13.1,9.5-19.7,24.1-19.7,43.9c0,15.9,3.2,28.6,17.2,35.7
		c8.1,4.1,8.4,2.2,9.9,2.2c10.1,0,15.1,7.2,15.1,21.7c0,14-4.1,27.8-12.5,41.2c-1.6,2.6-7.1,8-10.1,8c-3.5,0-4.7-12-4.7-14.9
		c0-6.9,0-13.9,0-20.8c0-1.8-0.9-2.9-2.6-3.1c-5.8-0.7-11.5-1.2-17.2-1.8c-1.8,0.6-3.7,1.2-5.5,1.8c0,8.8-0.2,9,1.8,22.4
		c1.9,12,5.4,21.3,10.9,28c25.2,31.1,64.3-15.3,64.3-56.4c0-10.6-1.9-19.2-5.6-25.6c-3.7-6.4-9.9-10.9-18.6-13.4
		c-1.8-0.8-8.8-0.4-11.1-2.9c-4.1-4.4-6.1-12.1-6.1-23.1c0-4,0.8-9.3,2.4-16c2.5-10.1,14.5-27.4,16.2-2.4c0.5,6.9,0.7,12.4,1.1,16.4
		c0.8,4.3,15.7,6.2,19.7,6.2C77.9,455.6,79.3,453.6,79.3,449.6L79.3,449.6z"/>
	<path class="st4" d="M404.9,405c3.8,0,17.7,10.9,17.7,16.6c0-1-0.7,1.8-1.8,8.4c-0.7,3.7-1.3,9.4-2.1,17.1
		c-4,36.5-5.6,73.7-3.5,110.9c0.1,2.4,0.6,6.6,1.4,12.6c0.6,4.7,1,7.5,1,8.2c0,4.7-1.3,7.1-3.8,7.1c-1.9,0-10.2-4.2-12-5.3
		c-2.5-1.5-4.2-3.6-5.3-5.8c-2.5-4.7-3-33.1-2.9-41.2c0.1-8.9,0.5-17.7,0.7-26.6c0.2-8.9,0.5-17.8,0.8-26.6
		c-1.5,1.2-3.4,4.7-5.8,10.4c-8.5,20.2-11.4,38.3-13.3,60.9c-0.5,5.3-1.1,9.6-5.8,9.2c-1.5-0.1-5.7-1.3-8.4-1.6
		c-3.3,0-8.5,3.7-11.6-2.6c-3.6-7.3-4.3-29.4-4.5-42.9c-0.3-15.7-0.8-26.7-1.5-33c-1.1,5.5-2.7,13.1-4.5,23
		c-3,16.1-8.3,40.8-9.2,58.8c-0.2,5,0.7,22.8-4.6,22.8c-3.1,0-16.9-12.1-18.8-14.6c-4.4-6.2-1.3-25.1,0.9-39.2
		c2.9-18.5,7.8-43.6,12.7-63.6c4.6-18.8,10.2-39.4,15.8-60.1c0.6-2.2,3.4-3.3,8.4-3.3c3.6,0,7.3,0.6,11.1,1.8c2,0.6,3.4,3.9,4.4,5.5
		c0.7,0,7.1,2,7.9,4.4c0.6,1.8,1.2,5,0.8,9.5c-1.6,19.4-3.6,35.6-1.5,51.9c11-22.5,21.7-46.8,28.2-68.3c1.3-4.3,3.8-1.9,6.3-2.9
		C404.1,405.7,405.1,405,404.9,405L404.9,405z M179.3,415.4c0-2.5-0.4-4.2-1.1-5.1c-1.5-0.9-3-1.5-4.6-1.8c-6.2-1.3-14-2.8-17.2,1.6
		c-1.4,1.9-2.1,4.1-2.1,6.4c0,21.1,0.1,27.9-3.6,57c-2,15.9-5.3,35-8.8,49.4c-3.3,13.6-7.5,24.8-12.4,33.7
		c-3.7,6.8-7.2,10.2-10.7,10.2c-14.4,0-8.4-58.6-6.6-74c2.3-19.7,6.6-42.9,10.8-65.4c2.1-11.3,3.9-10.6-7.1-20
		c-5.1-4.3-8.2-6.4-9.5-6.4c-5.1,0-10.6,36.8-11.4,42.4c-3.8,26.5-8.7,61.2-8.7,82.2c0,20,4.2,35.4,13.8,45c3.8,3.8,7.4,5.3,9.3,6.4
		c6.5,3.8,6.4,4.4,13.8,7.2c6.2,2.3,2.9,1.6,9.7,1.6c7.7,0,13.6-3.2,18.2-9.3c2.2-2.9,4.1-6.2,5.5-10
		c13.1-34.9,18.7-78.4,21.5-120.2C178.8,433.3,179.3,423,179.3,415.4L179.3,415.4z"/>
	<path class="st4" d="M611.9,571.8c-3.1,0.5-5.5,1.5-5.5,2.7c0,3.2,0,6.3,0,9.5c0,1.2,2.4,2,5.5,1.5l98.9-16
		c3.1-0.5,5.5-1.5,5.5-2.7c0-4.1,0-8.1,0-12.2c0-1.2-2.2-2.2-5.4-2.7l-99-16c-3.2-0.5-5.5,0.3-5.5,1.5c0,3.4,0,6.8,0,10.1
		c0,1.2,2.4,2.2,5.5,2.7l71.5,10.4c0,0.2,0,0.4,0,0.6L611.9,571.8L611.9,571.8z M710.8,501.3c3.1-0.5,5.5-1.5,5.5-2.7
		c0-3.3,0-6.7,0-10.1c0-1.2-2.3-2-5.5-1.5l-99.1,16.6c-3.1,0.5-5.3,1.5-5.3,2.7c0,4.1,0,8.1,0,12.2c0,1.2,2.4,2.1,5.5,2.7l98.9,16.6
		c3.1,0.5,5.5-0.3,5.5-1.5c0-3.2,0-6.3,0-9.5c0-1.2-2.3-2.2-5.5-2.7c-4.7-0.7-9.4-1.4-14.1-2.1c0-6.2,0-12.5,0-18.7
		C701.4,502.7,706.1,502,710.8,501.3L710.8,501.3z M639.4,512.9c0-0.2,0-0.4,0-0.6l31.4-4.8c0,3.5,0,6.9,0,10.4L639.4,512.9
		L639.4,512.9z M603.3,461c0,7.9,5.7,14,15.8,18.1c20.7,8.4,63.9,8.4,84.6,0c10.1-4.1,15.8-10.2,15.8-18.1c0-7.1-5.1-12.6-12.6-16.3
		c-7.5-3.7-17.3-5.7-26.7-5.7c-3.9,0-6.3,0.9-6.3,2.4c0,2.5,0,5,0,7.4c0,1.8,2.3,2.7,6.3,3.6c7.1,1.5,13.3,3.9,13.3,8.6
		c0,9.5-21.9,10.7-32.2,10.7c-10.3,0-32.2-1.2-32.2-10.7c0-8.5,18.1-6.9,18.1-11.6c0-2.5,0-5,0-7.4c0-1.5-2.3-2.4-6.3-2.4
		c-9,0-18.5,1.9-25.6,5.4C608.2,448.7,603.3,454,603.3,461L603.3,461z M710.8,400.2c3.1-0.5,5.5-1.5,5.5-2.7c0-3.3,0-6.7,0-10.1
		c0-1.2-2.3-2-5.5-1.5l-99.1,16.6c-3.1,0.5-5.3,1.5-5.3,2.7c0,4.1,0,8.1,0,12.2c0,1.2,2.4,2.1,5.5,2.7l98.9,16.6
		c3.1,0.5,5.5-0.3,5.5-1.5c0-3.2,0-6.3,0-9.5c0-1.2-2.3-2.2-5.5-2.7c-4.7-0.7-9.4-1.4-14.1-2.1c0-6.2,0-12.5,0-18.7
		C701.4,401.7,706.1,400.9,710.8,400.2L710.8,400.2z M639.4,411.9c0-0.2,0-0.4,0-0.6l31.4-4.8c0,3.5,0,6.9,0,10.4L639.4,411.9
		L639.4,411.9z M611.9,346.3c-3.1,0-5.5,0.9-5.5,2.1c0,12.7,0,25.4,0,38c0,1.2,2.4,2.1,5.5,2.1c5.2,0,10.5,0,15.7,0
		c3.1,0,5.5-0.9,5.5-2.1c0-4.1,0-8.3,0-12.5h77.7c3.1,0,5.5-0.9,5.5-2.1c0-3,0-5.9,0-8.9c0-1.2-2.3-2.1-5.5-2.1h-77.7
		c0-4.1,0-8.3,0-12.5c0-1.2-2.4-2.1-5.5-2.1C622.4,346.3,617.1,346.3,611.9,346.3L611.9,346.3z M611.9,314.9c-3.1,0-5.5,0.9-5.5,2.1
		c0,8.1,0,16.2,0,24.3c0,1.2,2.4,2.1,5.5,2.1c5.2,0,10.5,0,15.7,0c3.1,0,5.5-0.9,5.5-2.1c0-1.9,0-3.8,0-5.6h56.5c0,1.9,0,3.8,0,5.6
		c0,1.2,2.4,2.1,5.5,2.1c5.2,0,10.5,0,15.7,0c3.1,0,5.5-0.9,5.5-2.1c0-8.1,0-16.2,0-24.3c0-1.2-2.3-2.1-5.5-2.1
		c-5.2,0-10.5,0-15.7,0c-3.1,0-5.5,0.9-5.5,2.1c0,1.9,0,3.8,0,5.6h-56.5c0-1.9,0-3.8,0-5.6c0-1.2-2.4-2.1-5.5-2.1
		C622.4,314.9,617.1,314.9,611.9,314.9L611.9,314.9z M693.5,285.8c0,9.5-21.9,10.7-32.2,10.7c-10.3,0-32.2-1.1-32.2-10.7
		c0-9.5,21.9-10.7,32.2-10.7C671.6,275.1,693.5,276.3,693.5,285.8L693.5,285.8z M603.3,285.8c0,7.9,5.7,14,15.8,18.1
		c20.7,8.4,63.9,8.4,84.6,0c10.1-4.1,15.8-10.2,15.8-18.1c0-7.8-5.7-14-15.8-18.1c-20.9-8.5-63.7-8.5-84.6,0
		C609,271.8,603.3,277.9,603.3,285.8L603.3,285.8z M669.2,224l-57.3,14.9c-2.3,0.6-5.5,1.8-5.5,3.2c0,3.4,0,6.8,0,10.1
		c0,1.2,2.4,2.1,5.5,2.1c33,0,65.9,0,98.9,0c3.1,0,5.5-0.9,5.5-2.1c0-3,0-5.9,0-8.9c0-1.2-2.3-2.1-5.5-2.1h-57.3c0-0.2,0-0.4,0-0.6
		l57.3-14.8c2.4-0.6,5.5-1.8,5.5-3.3c0-3.3,0-6.7,0-10.1c0-1.2-2.3-2.1-5.5-2.1h-98.9c-3.1,0-5.5,0.9-5.5,2.1c0,3,0,5.9,0,8.9
		c0,1.2,2.4,2.1,5.5,2.1h57.3C669.2,223.6,669.2,223.8,669.2,224L669.2,224z"/>
	<path class="st3" d="M523.3,314.6c-3-0.7-3.6,10.5-3.6,12.8c0,1.2,0.3,2.1,0.7,2.8c1.4,2.2,27,10.8,32.1,12.4c0,3.3,0,6.5,0,9.7
		c0.5,4.9,1,9.8,1.5,14.7c0.1,0.6-0.2,0.9-0.7,0.9c-4.5,0-14.7-4.8-19.9-8.1c-4.8-2.9-5.9-5.2-7.1-5.2c-0.7,0-1.3,0.4-1.5,1.4
		c-1.4,4.6-2,8.2-2,10.9c0,3.1,1.6,5.8,4.9,8.2c11.5,8.5,30.9,15.7,45.2,19.2c6.9,1.7,10.1,1.9,15.6,1.9c1.9,0,1.9,0,2.4-1.4
		c2.8-9,4.3-14.1,4.3-15.6c0-6-6.3-3.5-9.4-3.7l-9-0.9c-3.3-0.6-5.4-1.5-6.4-2.4c-2.2-8.7-3.4-15.9-3.4-21.7c0-1.5,0.1-2.6,0.2-3.3
		c3.6,0.7,7.2,1.5,10.7,2.2c3.6,0.7,7.1,1.6,10.8,2.2c2.7,0.4,3.1-1.9,4.4-7.5c4.8-20-1.2-11.7-22.8-16.2c-2-0.4-4.1-0.7-6.1-1.1
		c-5.2-1.1-21.5-6.2-28.1-8.2C531.6,317.1,527.5,315.6,523.3,314.6L523.3,314.6z M591.7,273.2c-10.8-17.3-47.2-36.4-65.9-17.2
		c-0.6,0.6-0.9,1.4-1.2,2.3c-0.3,1.1-0.9,3-1.5,5.6c-2.1,3.7-3.2,7.1-3.4,10.2c-0.9,18.6,9.8,29.7,26.1,35.1c3.7,1.2,6.2,2,7.7,2.2
		c4.2,0.4,8.5,0.9,12.7,1.3c2.7,0.3,6.8-0.2,12.2-1.3c5.2-1,9.1-5,11.2-10.3l4.5-11.3C595.5,286.8,593.8,276.7,591.7,273.2
		L591.7,273.2z M548.7,266.8c11.8,1.2,15.6,3.8,24.9,9.1c3.4,1.9,10.7,7.3,10.5,11.8c0,0.9-0.1,1.8-0.1,2.7
		c-7,3.9-11.6,3.4-20.4,2.6c-11.7-1.1-21.2-5.1-29.9-12.8c-3.2-2.8-4.8-5.2-4.8-7.5C528.8,265.1,541.1,266.1,548.7,266.8
		L548.7,266.8z M532,178l-6.7,1.4c-2.8,0.5-4.2,1.1-4.9,3.4c-1.1,3.8,0,16.1,0.3,20.8c0.8,12.9,1.5,22,2.1,27.5
		c0.5,5.5,1.3,9.1,2.3,11l8.9-1.5c2.1-0.3,4.8-1.3,4.6-3.8c-0.3-4.1-1.5-11.9-1.5-14.9c0.2,0,0.4,0,0.5,0
		c14.2,3.6,25.7,5.3,41.3,8.1c6.2,1.1,10,2.3,11.4,0.1c2.5-4.1,5.5-18.3,3-19c-2.5-0.8-4.3-0.7-5.4-0.8c-6.1-0.2-10.7-1-17-1.5
		c-3.7-0.3-20.1-3.9-20.7-4c-7.6-2-12.6-3.8-14.8-5.4c-0.1-1.4-0.2-2.8-0.3-4.2c0-3.6,0-7.2,0-10.9C535.1,180.1,534.1,178,532,178
		L532,178z"/>
	<path class="st4" d="M198.7,374.2c0-2.7-0.8-4.8-1.8-4.8c-6.6,0-13.1,0-19.7,0v-67.8c0-2.7-0.8-4.8-1.8-4.8c-2.6,0-5.2,0-7.8,0
		c-1.1,0-1.8,2.1-1.8,4.8v86.3c0,2.7,0.8,4.8,1.8,4.8c9.8,0,19.5,0,29.3,0c1,0,1.8-2,1.8-4.8C198.7,383.4,198.7,378.8,198.7,374.2
		L198.7,374.2z M231.9,387.9c0.4,2.7,1.3,4.8,2.3,4.8c3,0,5.9,0,8.9,0c1,0,1.8-2,1.3-4.8l-14.7-86.5c-0.5-2.7-1.3-4.7-2.3-4.7
		c-3.6,0-7.2,0-10.8,0c-1,0-1.9,2.1-2.3,4.8l-14.7,86.3c-0.5,2.8,0.3,4.8,1.3,4.8c2.8,0,5.6,0,8.4,0c1,0,1.9-2,2.3-4.8
		c0.6-4.1,1.2-8.2,1.8-12.3c5.5,0,11,0,16.5,0C230.7,379.7,231.3,383.8,231.9,387.9L231.9,387.9z M221.7,325.6c0.2,0,0.3,0,0.5,0
		l4.2,27.4c-3.1,0-6.1,0-9.1,0L221.7,325.6L221.7,325.6z M280,324.2c1.1-2.7,2.1-5.5,2.1-11c0-3.9,0-7.8,0-11.6
		c0-2.7-0.8-4.8-1.8-4.8c-10.7,0-21.3,0-32,0c-1.1,0-1.8,2.1-1.8,4.8c0,4.6,0,9.1,0,13.7c0,2.7,0.8,4.8,1.8,4.8c6,0,12,0,18.1,0
		c0,0.5,0,0.9,0,1.4L248,365.3c-1.1,2.6-2.1,5.5-2.1,11c0,3.9,0,7.8,0,11.6c0,2.7,0.8,4.8,1.9,4.8c11,0,22,0,33,0c1,0,1.8-2,1.8-4.8
		c0-4.6,0-9.1,0-13.7c0-2.7-0.8-4.8-1.8-4.8c-6.4,0-12.8,0-19.1,0c0-0.5,0-0.9,0-1.4L280,324.2L280,324.2z M325.5,301.6
		c0.5-2.1,0-4.8-1.3-4.8c-2.7,0-5.4,0-8.1,0c-1.6,0-2.7,2.7-3.1,4.8l-7.9,33.6c-0.2,0-0.3,0-0.5,0l-7.9-33.6
		c-0.5-2.1-1.6-4.8-3.1-4.8c-2.7,0-5.4,0-8.1,0c-1.3,0-1.8,2.7-1.3,4.8l14.9,61c0,8.5,0,16.9,0,25.3c0,2.7,0.8,4.8,1.8,4.8
		c2.6,0,5.2,0,7.8,0c1.1,0,1.9-2,1.9-4.8c0-8.4,0-16.9,0-25.3L325.5,301.6L325.5,301.6z M346.7,392.7c5.5,0,11,0,16.5,0
		c18.3,0,21.5-30.8,21.5-48c0-17.2-3.2-48-21.5-48c-5.5,0-11,0-16.5,0c-1,0-1.8,2.1-1.8,4.8v86.3
		C344.9,390.7,345.7,392.7,346.7,392.7L346.7,392.7z M356.4,370.8v-52.1c2.3,0,4.6,0,6.8,0c8.4,0,9.4,17.2,9.4,26c0,8.8-1,26-9.4,26
		C361,370.8,358.7,370.8,356.4,370.8L356.4,370.8z M419.4,387.9c0.4,2.7,1.3,4.8,2.4,4.8c3,0,5.9,0,8.9,0c1,0,1.8-2.1,1.3-4.8
		l-14.7-86.5c-0.5-2.7-1.3-4.7-2.4-4.7c-3.6,0-7.2,0-10.7,0c-1,0-1.9,2.1-2.3,4.8l-14.7,86.3c-0.5,2.8,0.2,4.8,1.3,4.8
		c2.8,0,5.6,0,8.4,0c1,0,1.9-2,2.3-4.8c0.6-4.1,1.2-8.2,1.8-12.3c5.5,0,11,0,16.5,0C418.2,379.7,418.8,383.8,419.4,387.9
		L419.4,387.9z M409.2,325.6c0.2,0,0.3,0,0.5,0l4.2,27.4c-3.1,0-6.1,0-9.2,0L409.2,325.6L409.2,325.6z M470.6,301.6
		c0.5-2.1,0-4.8-1.3-4.8c-2.7,0-5.4,0-8.1,0c-1.6,0-2.7,2.7-3.1,4.8l-7.9,33.6c-0.2,0-0.3,0-0.5,0l-7.9-33.6
		c-0.5-2.1-1.6-4.8-3.1-4.8c-2.7,0-5.4,0-8.1,0c-1.3,0-1.8,2.7-1.3,4.8l14.9,61c0,8.5,0,16.9,0,25.3c0,2.7,0.8,4.8,1.8,4.8
		c2.6,0,5.2,0,7.8,0c1.1,0,1.9-2,1.9-4.8c0-8.4,0-16.9,0-25.3L470.6,301.6L470.6,301.6z M485.5,324.9c0-10.3,10.4-11,12.3-2.1
		c0.8,3.4,1.6,5.5,3.1,5.5c2.2,0,4.3,0,6.6,0c1.3,0,2.1-2.1,2.1-5.5c0-11.3-4.6-28.8-17.8-28.8c-14.6,0-18.3,18.1-18.3,30.8
		c0,38.4,25.4,25.3,25.4,39c0,4.1-1.8,8.9-7.1,8.9c-9.5,0-6.5-13-10.7-13c-2.2,0-4.4,0-6.5,0c-1.3,0-2.1,2.1-2.1,5.5
		c0,12.8,4.5,30.1,19.4,30.1c15.1,0,19.2-18.5,19.2-31.5C511,325.6,485.5,338.6,485.5,324.9L485.5,324.9z"/>
	<path class="st2" d="M197.4,229.7l-0.7-5.6c-1-7.5-6.2-14-13.5-14c-1.4,0-3.2,0.8-5.4,2.5c-5.2,4-7.9,10-7.9,18.3
		c0,6.6,1.2,11.9,6.9,14.9c3.3,1.7,3.3,0.9,3.9,0.9c4,0,6,3,6,9.1c0,5.9-1.6,11.6-5,17.2c-0.6,1.1-2.8,3.3-4,3.3
		c-1.4,0-1.9-5-1.9-6.2c0-2.9,0-5.8,0-8.7c0-0.7-0.3-1.2-1-1.3c-2.3-0.3-4.6-0.5-6.9-0.7c-0.7,0.2-1.4,0.5-2.2,0.7
		c0,3.6-0.1,3.8,0.7,9.3c3.2,21.5,19.3,20.4,27.4,1.1c3-7.3,4-17.3,0.4-23.6c-1.9-3.5-5.1-5.4-9.8-6c-1-0.1-1.7-0.4-2.1-0.8
		c-5.1-5.7-1.3-22.6,2.9-22.6c2.6,0,2.1,10,2.5,12.2c0.3,1.8,6.3,2.6,7.9,2.6C196.9,232.2,197.4,231.4,197.4,229.7L197.4,229.7z
		 M237.4,215.5c0-2-0.3-2.5-2.2-2.9c-8.8-1.8-7.8,1.3-7.8,9.2c0,9.4-2.5,27.9-5,38.5c-1,4.5-5.1,18.3-9.2,18.3
		c-5.8,0-3.3-24.5-2.6-30.9c0.9-8,2.6-18,4.3-27.3c0.9-4.8,1.5-4.5-2.9-8.3c-4-3.5-4.5-4.4-6.2,3.1c-2.5,11-5.6,36.7-5.6,46.1
		c0,8.3,1.6,14.7,5.5,18.8c1.2,1.3,5.4,3.9,6.6,4.5l4.5,1.9c0.7,0.1,1.4,0,2.1,0c4.9,0,7.9-3.7,9.5-8c5.2-14.4,7.5-32.8,8.6-50.1
		C237.2,222.9,237.4,218.6,237.4,215.5L237.4,215.5z M275.8,217.2c0-1.5-0.2-2-2.5-3.4c-2.1-1.2-5.2-2-5.8-0.1
		c-1.4,4.8-2,8.9-2.7,14.4c-1.1,10.2-1.8,16.2-2,18c-0.1,0.1-0.1,0.2-0.2,0.4c-1.5-7.9-4.5-22.8-3.9-28.6c0.7-7.3-3.3-6.3-7.3-6.9
		c-1.2-0.2-4.5-1.7-5.6,1.2c-3.1,7.5-5.9,32.7-6.6,42.8l-1.4,23.9c0,3,1.7,5.1,5.1,6.4c3.3,1.2,3.9,1.7,4.7,0.5
		c0.3-0.5,0.5-1,0.5-1.7c0-8.8-0.2-11.1,0.7-21.4c0.4-4.7,2.1-21.5,3.2-24.4c1.2,7.2,6.3,39.6,8.4,42.1c0.7,0.6,1.2,0.9,1.7,1
		c0.8,0.5-0.4,1.3,4,2.3c1.5,0.3,4.4,0.9,4.5-0.7c0-5.6,0-11.3,0-16.9c0-12,2.2-29,4.2-42C275.5,219.7,275.8,217.5,275.8,217.2
		L275.8,217.2z M310.4,254.7c0-0.1-0.3-0.7-0.9-1.9c-0.1-0.3,0.1-2.2-0.7-3.1c-3.6-4-8.7-3.9-9.7-2.7c-2,2.4-8.7-1.9-8.7,3.3
		c0,3.8,5.8,5.1,5.8,6.8c0,4.8-6.6,17-10.2,16.5c-0.9-1.7-0.9-7.4-0.9-9.5c0-13.6,3.8-26.1,11-37.8c0.1,0,0.2,0,0.4,0
		c1.1,1.7-1.1,9.4,0.8,11.6c0.5,0.6,1.5,1,2.9,0.9c1.7,0,3.5-0.1,5.2-0.2c0.8,0,1.4-0.5,1.7-1.4c0.5-1.5,2.5-27.6-8.4-27.6
		c-2.4,0-6.3,2.6-7.7,4.8c-6,8.9-9.4,19.1-11.8,29.8c-1.9,8.3-3.1,16-3.1,24.1c0,9.7,1.9,15.5,6,16.5c1.7,0.4,3.5,0.2,5.2,0.3
		c3.3,0.1,6.5-1.6,9.3-4.7c0.1,1.5,0.2,2.7,0.2,3.5c0.8,1.2,1.9,1.9,3.5,2.1c1.6,0.2,3.4,0.4,5.6,0.4c0.3,0,0.5-0.2,0.6-0.7
		c0.2-2.4,0.1-4.5,0.2-6.3c0.2-4,1.5-16.4,2.7-21.4L310.4,254.7L310.4,254.7z M337.5,283.3c0-3.1-0.2-7.3-0.7-12.6
		c-1.3-0.8-3.7-0.4-7.6,0.1c-1.7,0.2-5.2,0.5-6.5,0.3c0-12.1,4-40.8,6.5-54.8c0.3-1.6-0.2-3.4-1-4c-2.9-2-4.9-3.1-5.9-3.1
		c-1.1,0-1.7,0.5-1.9,1.4c-4.2,21.9-7.1,44.9-7.2,66.6c0,4.9,0.3,4.8,5.5,6.4c0.4,1,0.4,1.4,2.7,1.3
		C323.3,284.8,336.9,284.5,337.5,283.3L337.5,283.3z M375.8,218.4c0.3-3.1-5.5-8.2-6.3-8.2l-0.8,0.4c-1.1-0.4-2.2-0.6-3.2-0.6
		c-0.9,0-4.2,0.1-4.6,0.6c-0.4,0.3-1.1,1.5-2.5,3.5c-6.4,9.9-8.8,19.6-12,31.8c-0.9,3.3-7.4,27.6-7.4,30.4c0,2.8,1.2,4.7,3.6,6.7
		c2.7,2.3,5.9,3.1,6.3,0c0.1-0.7,0.1-1.7,0.2-3l1.7-9.9c2.2-9,13.7-14.8,14.1-13.4v22c0,2.7,0.5,4.2,3.3,5.6c1.8,0.9,6,2.4,6-0.6
		l-0.5-3c-0.1-2.2-0.2-4.3-0.3-6.5c0-4,0.1-8.1,0.1-12.1c0-13.3,0.4-27.8,1.8-40.1C375.5,220.9,375.7,219.7,375.8,218.4L375.8,218.4
		z M367.1,221.3l-1.7,19.4c-3.6,2.1-6.4,3.6-8.3,4.6C359,236.6,362,228.1,367.1,221.3L367.1,221.3z M410.8,229.7l-0.7-5.6
		c-1-7.6-6.2-14-13.5-14c-1.4,0-3.2,0.8-5.4,2.5c-5.2,3.9-7.9,10-7.9,18.3c0,6.6,1.2,11.9,6.9,14.9c3.3,1.7,3.3,0.9,3.9,0.9
		c4,0,6,3,6,9.1c0,5.9-1.6,11.6-5,17.2c-0.6,1-2.9,3.3-4,3.3c-1.4,0-1.9-5-1.9-6.2c0-2.9,0-5.8,0-8.7c0-0.7-0.3-1.2-1-1.3
		c-2.3-0.3-4.6-0.5-6.9-0.7c-0.8,0.2-1.5,0.5-2.2,0.7c0,3.6-0.1,3.8,0.7,9.3c3.2,21.3,19.3,20.6,27.4,1.1c3-7.3,4-17.3,0.4-23.6
		c-1.9-3.5-5.1-5.4-9.8-6c-1-0.1-1.7-0.4-2.1-0.8c-3.6-4-3.1-15.2,0.4-20.6c2.4-3.6,4.2-2.4,4.6,3.3c0.2,2.9,0.3,5.2,0.4,6.8
		c0.3,1.7,6.2,2.6,7.9,2.6C410.3,232.2,410.8,231.4,410.8,229.7L410.8,229.7z M444.8,229.7l-0.7-5.6c-1-7.5-6.2-14-13.5-14
		c-1.4,0-3.2,0.8-5.4,2.5c-5.2,4-7.9,10-7.9,18.3c0,6.5,1.2,11.9,6.9,14.9c3.3,1.7,3.4,0.9,4,0.9c4,0,6,3,6,9.1
		c0,5.9-1.6,11.6-5,17.2c-0.6,1.1-2.8,3.3-4,3.3c-1.4,0-1.9-5-1.9-6.2c0-2.9,0-5.8,0-8.7c0-0.7-0.3-1.2-1-1.3
		c-2.3-0.3-4.6-0.5-6.9-0.7c-0.7,0.2-1.4,0.5-2.2,0.7c0,3.6-0.1,3.9,0.7,9.3c3.3,21.9,19.5,20,27.4,1.1c3-7.3,4-17.3,0.4-23.6
		c-1.9-3.5-5.1-5.4-9.8-6c-1-0.1-1.7-0.4-2.1-0.8c-3.5-3.9-3.1-15.2,0.4-20.6c2.4-3.7,4.3-2.4,4.6,3.3c0.2,2.9,0.3,5.2,0.4,6.8
		c0.3,1.8,6.3,2.6,7.9,2.6C444.2,232.2,444.8,231.4,444.8,229.7L444.8,229.7z M479.4,221.4c0-2.8-2.7-9.9-4.7-10.9
		c-0.4-0.2-1.2-0.3-2.4-0.3c-3.8,0-7.5,1-11.1,2.9c-1.9,1-3.7,1.2-4.2,3.7c-1.3,6.7-10.4,56.4-9.5,60.7c0.2,1.1,1.5,2.4,2.9,3.5
		c1.7,1.4,1-0.8,2.6,2.9c1.2,2.6,1.9,1.5,5.4,0.1c2.8-1.1,4.8-1.9,5.9-2.2c4.5-1.1,7.8-1.7,10.5-1.8c0.8,0,1.3-0.3,1.7-0.9
		c0.4-1.1-2.2-13.8-4.5-13.4c-4.6,0.7-9.1,1.5-13.6,2.3c-0.4-0.5,0.4-4.2,0.8-6.8c0.4-2.7,0.9-6.9,1.6-7.2c2.6-0.8,7.5-1.7,10.2-2.3
		c0.5-0.8,0.4-0.2,0.4-1.4c0-4-2.1-9.3-3.7-11.3c-0.6-0.7-3.4,0.3-5.1,0c0.2-1.6,1.7-10.9,2.2-11.5c0.5-0.6,4.6-2.7,5.7-2.9
		c2.8-0.5,5.6-0.9,8.5-1.4C479.2,223.3,479.4,222.6,479.4,221.4L479.4,221.4z M511,229.7l-0.7-5.6c-1-7.5-6.2-14-13.5-14
		c-1.4,0-3.2,0.8-5.4,2.5c-5.2,4-7.9,10-7.9,18.3c0,6.6,1.2,11.9,6.9,14.9c3.3,1.7,3.3,0.9,3.9,0.9c4,0,6,3,6,9.1
		c0,5.9-1.6,11.6-5,17.2c-0.6,1.1-2.8,3.3-4,3.3c-1.4,0-1.9-5-1.9-6.2c0-2.9,0-5.8,0-8.7c0-0.7-0.3-1.2-1-1.3
		c-2.3-0.3-4.6-0.5-6.9-0.7c-0.7,0.2-1.5,0.5-2.2,0.7c0,3.6-0.1,3.8,0.7,9.3c3.2,21.5,19.3,20.4,27.4,1.1c3-7.3,4-17.3,0.4-23.6
		c-1.9-3.5-5.1-5.4-9.8-6c-1-0.1-1.7-0.4-2.1-0.8c-5.1-5.7-1.3-22.6,2.9-22.6c2.6,0,2.1,10,2.5,12.2c0.3,1.7,6.2,2.6,7.9,2.6
		C510.4,232.2,511,231.4,511,229.7L511,229.7z"/>
	<path class="st3" d="M185.3,129.9c-1,0-1.6,1.5-1.8,3.5l-3.8,39.7c-0.1,0-0.3,0-0.4,0l-4.2-39.7c-0.2-2-0.8-3.5-1.8-3.5
		c-2.1,0-4.3,0-6.4,0c-0.6,0-1.2,1.5-1,3.5l7,63.3c0.2,2,0.8,3.5,1.8,3.5c2.7,0,5.3,0,8,0c1,0,1.6-1.5,1.8-3.5l4.2-38.7
		c0.1,0,0.3,0,0.4,0l4.2,38.7c0.2,2,0.8,3.5,1.8,3.5c2.6,0,5.3,0,7.9,0c1,0,1.6-1.5,1.8-3.5l7-63.3c0.2-2-0.4-3.5-1-3.5
		c-2.1,0-4.2,0-6.4,0c-1,0-1.6,1.5-1.8,3.5l-4.2,39.7c-0.1,0-0.3,0-0.4,0l-3.8-39.7c-0.2-2-0.8-3.5-1.8-3.5
		C190,129.9,187.7,129.9,185.3,129.9L185.3,129.9z M236.1,196.7c0.3,2,1,3.5,1.8,3.5c2.2,0,4.5,0,6.8,0c0.8,0,1.4-1.5,1-3.5
		l-11.2-63.4c-0.3-2-1-3.4-1.8-3.4c-2.7,0-5.5,0-8.1,0c-0.8,0-1.4,1.5-1.8,3.5l-11.2,63.3c-0.4,2,0.2,3.5,1,3.5c2.1,0,4.2,0,6.4,0
		c0.8,0,1.5-1.5,1.8-3.5c0.5-3,0.9-6,1.4-9c4.2,0,8.4,0,12.6,0C235.1,190.7,235.6,193.7,236.1,196.7L236.1,196.7z M228.3,151
		c0.1,0,0.3,0,0.4,0l3.2,20.1c-2.3,0-4.7,0-7,0L228.3,151L228.3,151z M272.2,133.4c0-2-0.6-3.5-1.4-3.5c-8.5,0-17,0-25.5,0
		c-0.8,0-1.4,1.5-1.4,3.5c0,3.4,0,6.7,0,10c0,2,0.6,3.5,1.4,3.5c2.8,0,5.6,0,8.4,0v49.8c0,2,0.6,3.5,1.4,3.5c2,0,4,0,6,0
		c0.8,0,1.4-1.5,1.4-3.5V147c2.8,0,5.6,0,8.4,0c0.8,0,1.4-1.5,1.4-3.5C272.2,140.1,272.2,136.8,272.2,133.4L272.2,133.4z
		 M302.9,133.4c0-2-0.6-3.5-1.4-3.5c-8.1,0-16.2,0-24.3,0c-0.8,0-1.4,1.5-1.4,3.5v63.3c0,2,0.6,3.5,1.4,3.5c8.1,0,16.2,0,24.3,0
		c0.8,0,1.4-1.5,1.4-3.5c0-3.3,0-6.7,0-10c0-2-0.6-3.5-1.4-3.5c-5.7,0-11.3,0-17,0c0-3.3,0-6.7,0-10c4.2,0,8.4,0,12.6,0
		c0.8,0,1.4-1.5,1.4-3.5c0-3.3,0-6.7,0-10.1c0-2-0.6-3.5-1.4-3.5c-4.2,0-8.4,0-12.6,0c0-3,0-6,0-9c5.6,0,11.3,0,17,0
		c0.8,0,1.4-1.5,1.4-3.5C302.9,140.1,302.9,136.8,302.9,133.4L302.9,133.4z M330.8,169.1c0,0,5.4-3,5.4-16.1
		c0-9.1-2.7-23.1-12.9-23.1c-4.9,0-9.7,0-14.6,0c-0.8,0-1.4,1.5-1.4,3.5v63.3c0,2,0.6,3.5,1.4,3.5c2,0,4,0,6,0
		c0.8,0,1.4-1.5,1.4-3.5v-20.6c6.4,0,7.5-0.9,8.8,5c1.1,5.2,2.2,10.4,3.4,15.6c0.4,2,1,3.5,2.6,3.5c2,0,4.1,0,6.2,0c1,0,1.3-2,1-3.5
		c-1.1-5.2-2.3-10.4-3.4-15.6c-2-9.1-3.8-11.1-3.8-11.1C330.8,169.8,330.8,169.4,330.8,169.1L330.8,169.1z M316.1,160
		c0-4.7,0-9.4,0-14.1c2.4,0,4.8,0,7.2,0c2.6,0,3.8,3,3.8,7c0,4-1.2,7-3.8,7C320.8,160,318.4,160,316.1,160L316.1,160z M363.2,200.2
		c1.2,0,2-2,2.2-3.5l5.3-33.2c0.1,0,0.3,0,0.4,0v33.2c0,2,0.6,3.5,1.4,3.5c2,0,4,0,6,0c0.8,0,1.4-1.5,1.4-3.5v-63.3
		c0-2-0.6-3.5-1.4-3.5c-2.8,0-5.6,0-8.4,0c-1.2,0-2,2-2.2,3.5l-7,42.7c-0.1,0-0.3,0-0.4,0l-7-42.7c-0.2-1.5-1-3.5-2.2-3.5
		c-2.8,0-5.6,0-8.4,0c-0.8,0-1.4,1.5-1.4,3.5v63.3c0,2,0.6,3.5,1.4,3.5c2,0,4,0,6,0c0.8,0,1.4-1.5,1.4-3.5v-33.2c0.1,0,0.2,0,0.4,0
		l5.4,33.2c0.2,1.5,1,3.5,2.2,3.5C360,200.2,361.6,200.2,363.2,200.2L363.2,200.2z M413,133.4c0-2-0.6-3.5-1.4-3.5
		c-8.1,0-16.2,0-24.3,0c-0.8,0-1.4,1.5-1.4,3.5v63.3c0,2,0.6,3.5,1.4,3.5c8.1,0,16.2,0,24.3,0c0.8,0,1.4-1.5,1.4-3.5
		c0-3.3,0-6.7,0-10c0-2-0.6-3.5-1.4-3.5c-5.7,0-11.3,0-17,0c0-3.3,0-6.7,0-10c4.2,0,8.4,0,12.6,0c0.8,0,1.4-1.5,1.4-3.5
		c0-3.3,0-6.7,0-10.1c0-2-0.6-3.5-1.4-3.5c-4.2,0-8.4,0-12.6,0c0-3,0-6,0-9c5.6,0,11.3,0,17,0c0.8,0,1.4-1.5,1.4-3.5
		C413,140.1,413,136.8,413,133.4L413,133.4z M442.4,186.7c0-2-0.6-3.5-1.4-3.5c-5,0-10,0-14.9,0v-49.8c0-2-0.6-3.5-1.4-3.5
		c-2,0-4,0-6,0c-0.8,0-1.4,1.5-1.4,3.5v63.3c0,2,0.6,3.5,1.4,3.5c7.4,0,14.9,0,22.3,0c0.8,0,1.4-1.5,1.4-3.5
		C442.4,193.4,442.4,190,442.4,186.7L442.4,186.7z M460.4,185.7c-6.4,0-7.2-13.8-7.2-20.6c0-6.8,0.8-20.6,7.2-20.6
		c6.3,0,7.2,13.9,7.2,20.6C467.5,171.8,466.6,185.7,460.4,185.7L460.4,185.7z M460.4,127.9c-14,0-16.3,23.9-16.3,37.2
		c0,13.3,2.4,37.2,16.3,37.2c13.9,0,16.3-24,16.3-37.2C476.7,151.9,474.3,127.9,460.4,127.9L460.4,127.9z M501.8,170.1l-9.9-36.7
		c-0.4-1.5-1.2-3.5-2.2-3.5c-2.3,0-4.5,0-6.8,0c-0.8,0-1.4,1.5-1.4,3.5v63.3c0,2,0.6,3.5,1.4,3.5c2,0,4,0,6,0c0.8,0,1.4-1.5,1.4-3.5
		V160c0.1,0,0.2,0,0.4,0l10,36.7c0.4,1.5,1.2,3.5,2.2,3.5c2.2,0,4.5,0,6.8,0c0.8,0,1.4-1.5,1.4-3.5v-63.3c0-2-0.6-3.5-1.4-3.5
		c-2,0-4,0-6,0c-0.8,0-1.4,1.5-1.4,3.5v36.7C502.1,170.1,501.9,170.1,501.8,170.1L501.8,170.1z"/>
	<path class="st4" d="M56.7,32l-1.2-9C53.6,10.1,43.5,0.6,31.3,0.6c-2.5,0-5.7,1.3-9.7,4c-9.4,6.3-14,16-14,29.2
		c0,10.8,2.4,19.1,12.3,23.7c5.8,2.7,5.9,1.5,7.1,1.5c7.2,0,10.8,4.8,10.8,14.4c0,9.3-2.9,18.5-9,27.4c-1.2,1.7-5.1,5.3-7.2,5.3
		c-2.5,0-3.4-7.8-3.4-9.9c0-4.6,0-9.2,0-13.9c0-1.2-0.6-1.9-1.8-2.1c-4.1-0.5-8.2-0.8-12.3-1.2c-1.3,0.4-2.7,0.8-3.9,1.2
		c0,5.8-0.2,6,1.3,14.9c1.3,7.9,3.9,14.2,7.8,18.6c17.9,20.6,45.8-10.2,45.8-37.5c0-7.1-1.3-12.7-4-17c-2.6-4.3-7.1-7.2-13.3-8.9
		c-1.2-0.5-6.3-0.2-7.9-1.9c-2.9-2.9-4.3-8.1-4.3-15.3c0-2.7,0.6-6.2,1.7-10.6C29,16,37.6,4.2,38.8,20.9c0.3,4.6,0.6,8.2,0.8,10.9
		c0.5,2.9,11.4,4.1,14,4.1C55.6,35.9,56.7,34.6,56.7,32L56.7,32z M150.2,9.1c0-2.2-0.7-3.4-2-3.8c-6.2-2.2-9.6-3.4-10.1-3.4
		c-1.2,0-2.1,0.6-2.5,1.9c-8.5,24.7-14.3,49.8-21,75.7c-3-7.9,1.2-19.7-8.2-23.7l-4.1-2.8c-1.8,0-5.6,4.5-11.1,13.6
		c-4.5,7.4-7.6,13.1-9.7,16.8c-0.3-12.7-0.6-25.3-0.8-38C80.6,32.7,80.2,20,80,7.4c0.3-2.9-3.8-4.9-6.4-6c-3-1.2-4.1-1.4-6.5-0.7
		c-1,0.3-1.4,0.7-1.5,1.3C65,6,64.5,15.4,64.5,19.2c0,9.9,0.1,19.9,0.1,29.8c0,9.9-0.1,19.8,0.2,29.7c0.3,11.6,1.1,32.7,1.6,35.5
		c0.4,2,0.8,3.3,1.5,3.5c3.7,1.3,6.7,1.7,8.7,2.2c3.1,0.8,7.3,4.1,8.6,1.9c1.3-3.5,2.2-6.5,2.9-8.7c2.4-7.4,6.2-15.5,10.8-24.3
		c1.5,6,3.1,12,4.7,18c1.6,6,2.8,9.6,3.7,10.8c0.6,0.8,1.3,1.2,2.2,1.2c2.7,0,5.4,0,8.1,0c0.5,0.2,2.8,2.8,5.3,2.8
		c2.3,0,3.6-0.6,3.7-1.8c1.2-10,1.7-17.8,2.3-23.4c1.8-19.4,9-44.1,13.7-61.7c1.9-7.2,3.5-12.9,4.7-17.1
		C147.9,15.6,150.2,12,150.2,9.1L150.2,9.1z M177.4,9.1c0-2-0.3-3.5-0.7-4.7c-0.6-1.9-10.2-5.2-12.6-3.2c-0.5,0.4-1,1.8-1.6,4
		c-1.1,4.1-1.9,6.8-2.4,8.1c-7.2,19.7-19.1,74.4-19.1,95.3c0,6.9,2.6,8.5,10,10.7c3.9,1.2,4.4,2.1,7.4-0.3
		c1.3-36.1,9.1-72.3,18.9-107.2C177.3,11.7,177.4,10.8,177.4,9.1L177.4,9.1z M241.6,2.4c2.7,0,12.6,7.2,12.6,11
		c0-0.7-0.5,1.2-1.3,5.6c-1.5,7.8-3.4,29.7-3.9,38c-0.9,15.9-1.5,38.4,0.9,55.4c0.5,3.2,0.8,5,0.8,5.5c0,6.1-3.1,5-6.4,3.5
		c-8.9-4-9.4-4.5-10.2-15.9c-0.9-14.1-0.4-21.3-0.1-35.3c0.2-5.9,0.4-11.8,0.6-17.7c-1.1,0.8-2.4,3.1-4.1,6.9
		c-6.1,13.6-8.1,25.2-9.5,40.4c-0.9,9-4.1,5.6-10.1,5.1c-3.9,0-8.4,4.8-10.3-9.9c-1.3-9.6-1.3-34.1-2.3-42.3
		c-0.8,3.6-1.9,8.7-3.2,15.3c-2.2,11-5.9,26.7-6.5,39.1c-0.2,3.4,0.5,15.2-3.3,15.2c-2.2,0-12-7.9-13.4-9.7
		c-3.2-4.1-1-16.6,0.6-26.1c4.9-29.4,11.8-52.9,20.4-82.2c1-3.5,10.4-2,13.9-1c1.5,0.4,2.3,2.6,3.2,3.7c0.5,0,5,1.3,5.6,3
		c0.4,1.2,0.8,3.3,0.6,6.3c-1.2,12.9-2.5,23.7-1.1,34.5c8-15.2,15.4-30.7,20.2-45.4c0.9-2.8,2.7-1.3,4.5-1.9
		C241.1,2.8,241.8,2.4,241.6,2.4L241.6,2.4z M330.2,2.4c2.7,0,12.6,7.3,12.6,11c0-0.7-0.4,1.2-1.3,5.6c-1.5,7.9-3.5,29.6-3.9,38
		c-0.9,15.7-1.5,38.5,0.9,55.4c0.5,3.2,0.8,5,0.8,5.5c0,6.2-3.1,4.9-6.4,3.5c-8.7-3.8-9.5-4.4-10.2-15.9
		c-0.9-14.1-0.4-21.3-0.1-35.3c0.2-5.9,0.4-11.8,0.6-17.7c-3.4,2.4-8.8,18.7-10,23.5c-2.2,8.8-2.8,14.2-3.7,23.9
		c-0.9,9-4.3,5.6-10.2,5.1c-3.8,0-8.5,4.8-10.3-9.9c-1.2-9.3-1.3-34-2.3-42.3c-0.8,3.6-1.9,8.7-3.2,15.3
		c-2.3,11.8-5.7,25.7-6.6,39.1c-0.2,3.5,0.6,15.2-3.3,15.2c-2.1,0-12.1-8-13.4-9.7c-3.2-4.2-0.9-16.5,0.7-26.1
		c4.8-29,11.7-53.2,20.3-82.2c1-3.5,10.4-2,13.9-1c1.7,0.5,2.4,2.7,3.2,3.7c0.5,0,5,1.3,5.6,3c0.4,1.2,0.8,3.3,0.6,6.3
		c-1.2,12.4-2.6,24.1-1.1,34.5c7.9-15,15.4-31,20.1-45.4c0.9-2.8,2.8-1.3,4.5-1.9C329.6,2.8,330.3,2.4,330.2,2.4L330.2,2.4z
		 M384.4,9.1c0-2-0.2-3.5-0.6-4.7c-0.6-1.8-10.3-5.2-12.6-3.2c-0.5,0.4-1,1.8-1.6,4c-1.1,4.1-1.9,6.8-2.4,8.1
		c-7.1,20-19.1,74.2-19.1,95.3c0,6.9,2.7,8.6,10,10.7c4,1.2,4.4,2,7.4-0.3c1.2-33.9,9.2-74.1,18.9-107.2
		C384.4,11.7,384.4,10.8,384.4,9.1L384.4,9.1z M449.9,12.1c0-2.3-0.2-3.2-4.3-5.4c-2.6-1.3-4.7-2-6.4-2c-2.2,0-3.5,0.6-3.9,1.8
		c-1.8,5.2-3.2,11.3-4.2,18.4c-0.2,1.5-0.3,3-0.5,4.6c-2,16.3-3.2,25.9-3.5,28.7c-0.2,0.2-0.3,0.4-0.4,0.6c-2.6-12.1-8-36.9-7-45.5
		c1.4-11.4-5.9-10.2-13-11c-1.7-0.2-7.8-2.7-10,1.9C391,16.3,386.1,56,384.8,72.3c-0.7,8.3-1.2,16.2-1.7,23.6
		c-0.5,7.4-0.8,12.2-0.8,14.4c0,4.8,3,8.2,9,10.2c3.8,1.3,6,1.9,6.4,1.9c1.6,0,2.9-2,2.9-3.8c0-14.3-0.3-17.3,1.3-34
		c0.8-7.9,3.6-34,5.6-38.9c3.2,17,6.9,38.8,10.8,54.4c1.7,6.7,3,10.9,4.1,12.7c1.3,0.9,2.3,1.4,3.1,1.6c0.7,0.8,1.1,1.4,1.3,1.8
		c1.7,0.8,3.6,1.4,5.8,1.8c2.2,0.4,3.6,0.7,4.2,0.7c2.3,0,3.6-0.6,3.9-1.8c0-9,0-18,0-27c0-18.2,3.9-47,7.4-66.9
		C449.3,16.1,449.9,12.5,449.9,12.1L449.9,12.1z M511.7,71.8c0-0.1-0.5-1.1-1.5-3.1c-0.2-0.7,0.1-3.5-1.2-4.9
		c-3.5-3.6-7.7-5.5-12.5-5.5c-6.6,0-3.9,2.7-8.7,2.5c-4.3-0.2-11.7-2.2-11.7,4c0,4,3.6,5.6,7.7,8.2c1.8,1.2,2.6,2.2,2.6,2.6
		c0,7.8-11.8,27-18.3,26.4c-1.5-2.9-1.5-11.6-1.5-15.2c0-21.9,7.1-41.8,19.7-60.3c0.2,0,0.4,0,0.7,0c0.4,0.5,0.6,0.9,0.6,1.3
		L487,39.9c-0.1,4.8,1.7,6.7,6.5,6.6c3.1-0.1,6.2-0.2,9.3-0.3c1.5-0.1,2.5-0.8,3.1-2.2c0.5-1.3,0.8-5.9,0.8-14
		c0-8.2-1.3-15.2-3.8-21.1C500.3,3,496.3,0,491,0c-4.1,0-11.1,4.1-13.8,7.7c-10.7,14.3-16.6,29.9-21.2,47.4
		c-3.4,13-5.5,25.6-5.5,38.4c0,15.4,3.4,24.6,10.6,26.2c3,0.7,6.1,0.4,9.3,0.4c6,0.1,11.5-2.5,16.5-7.5c0.2,2.5,0.3,4.3,0.3,5.6
		c1.4,1.9,3.5,3,6.2,3.4c2.7,0.4,6,0.6,9.9,0.6c0.6,0,1-0.4,1.1-1.2c0.4-3.8,0.3-7.2,0.5-10c0.4-6,2.6-26.6,4.8-34
		C510.1,75.8,511.7,72.5,511.7,71.8L511.7,71.8z"/>
	<path class="st2" d="M434.4,616.8c0-13.2-7.8-21.7-21.9-21.7c-7.4,0-14.8,0-22.2,0c-1.3,0-2.2,1.3-2.2,3v53.6c0,1.7,0.9,3,2.2,3
		c3.2,0,6.3,0,9.5,0c1.3,0,2.2-1.3,2.2-3c0-4.4,0-8.8,0-13.2c3.5,0,7,0,10.5,0C426.5,638.5,434.4,630,434.4,616.8L434.4,616.8z
		 M402,624.9v-16.2c3.5,0,7,0,10.5,0c4.7,0,7.3,3.4,7.3,8.1c0,4.7-2.6,8.1-7.3,8.1C409,624.9,405.5,624.9,402,624.9L402,624.9z
		 M468.6,598.1c0-1.7-1-3-2.2-3c-8.7,0-17.4,0-26,0c-1.3,0-2.2,1.3-2.2,3c0,13-1.2,11.5,8.3,11.5v30.6c-9.5,0-8.3-1.5-8.3,11.5
		c0,1.7,1,3,2.2,3c8.7,0,17.3,0,26,0c1.3,0,2.2-1.3,2.2-3c0-13,1.2-11.5-8.3-11.5v-30.6C469.8,609.5,468.6,611.1,468.6,598.1
		L468.6,598.1z M499.7,593.4c-18.2,0-26,14.1-26,31.5c0,17.5,7.8,31.5,26,31.5c13.6,0,23.5-9.5,23.5-21.3c0-2.1-1-3.4-2.5-3.4
		c-2.7,0-5.3,0-7.9,0c-1.9,0-2.9,1.3-3.8,3.4c-1.6,3.8-4.1,7.2-9.2,7.2c-8.8,0-11.4-8.8-11.4-17.4c0-8.6,2.6-17.5,11.4-17.5
		c9.1,0,7.4,9.8,12.4,9.8c2.6,0,5.3,0,7.9,0c4.7,0,2.6-11.2-3.3-17.3C512.9,596,507.2,593.4,499.7,593.4L499.7,593.4z M562.6,629.1
		l-15.9-31.1c-0.7-1.3-1.9-3-3.5-3c-3.6,0-7.2,0-10.8,0c-1.3,0-2.2,1.3-2.2,3v53.6c0,1.7,1,3,2.2,3c3.2,0,6.3,0,9.5,0
		c1.3,0,2.2-1.3,2.2-3v-31.1c0.2,0,0.4,0,0.6,0l15.9,31.1c0.6,1.3,1.9,3,3.5,3c3.6,0,7.2,0,10.8,0c1.3,0,2.2-1.3,2.2-3v-53.6
		c0-1.7-0.9-3-2.2-3c-3.2,0-6.3,0-9.5,0c-1.3,0-2.2,1.3-2.2,3v31.1C563,629.1,562.8,629.1,562.6,629.1L562.6,629.1z M614.6,598.1
		c0-1.7-1-3-2.2-3c-8.7,0-17.4,0-26,0c-1.3,0-2.2,1.3-2.2,3c0,13-1.2,11.5,8.2,11.5v30.6c-9.4,0-8.2-1.5-8.2,11.5c0,1.7,0.9,3,2.2,3
		c8.7,0,17.3,0,26,0c1.3,0,2.2-1.3,2.2-3c0-13,1.2-11.5-8.3-11.5v-30.6C615.8,609.5,614.6,611.1,614.6,598.1L614.6,598.1z
		 M645.7,593.4c-18.1,0-26,14.1-26,31.5c0,17.4,7.9,31.5,26,31.5c13.6,0,23.5-9.5,23.5-21.3c0-2.1-1-3.4-2.6-3.4c-2.7,0-5.3,0-7.9,0
		c-1.9,0-2.9,1.3-3.8,3.4c-1.6,3.8-4.1,7.2-9.2,7.2c-8.7,0-11.4-8.8-11.4-17.4c0-8.6,2.7-17.5,11.4-17.5c9.2,0,7.4,9.8,12.4,9.8
		c2.6,0,5.3,0,7.9,0c4.8,0,2.6-11.3-3.3-17.3C658.8,596,653.1,593.4,645.7,593.4L645.7,593.4z M689.2,612.5c0-6.5,12.5-6.8,14.9-1.3
		c0.9,2.1,1.9,3.4,3.8,3.4c2.6,0,5.3,0,7.9,0c4.5,0,2.9-10.1-2.8-15.5c-8.3-8-25.5-7.5-33.2,0c-3.6,3.5-5.3,8.3-5.3,13.4
		c0,23.8,30.8,15.7,30.8,24.3c0,2.6-2.2,5.5-8.6,5.5c-11.6,0-7.9-8.1-13-8.1c-2.7,0-5.3,0-7.9,0c-1.6,0-2.6,1.3-2.6,3.4
		c0,12,10.1,18.7,23.5,18.7c13.6,0,23.2-7.2,23.2-19.6C720,613,689.2,621,689.2,612.5L689.2,612.5z"/>
	<path class="st4" d="M419.9,670.3c0-2.3-1.6-7.5-3.9-8.5c-3.6-1.6-13.7,2.1-18.6,3.3c-3.1,0.8-4.8,1.5-5.2,2.1
		c-3.1,4.8-3.5,6.9-5.7,14.1c-1.9,6.2-7.8,27.6-7.8,31.7c0,2.7,1.5,3.4,5.1,4.9c2.3,0.9,4,1.4,5.3,1.4c1,0,1.8-0.2,2.4-0.7
		c1.2-8.8,1.9-13.6,2.3-14.4c0.5-1.2,3.5-1.9,4.9-2.3c6.2-1.8,11.1-3,14.5-3.8c0-2.1-0.6-4.3-2.4-8c-0.7-1.4-2.2-2.4-3.2-2.1
		c-2.9,0.7-5.8,1.3-8.7,2c-0.1,0-0.2-0.1-0.3-0.1c0-2.3,0-2.4,0.9-6.5c0.6-2.8,1.1-5,1.6-6.4c0.4-1.1,2.2-1.6,3.7-2
		c3.4-1,8.2-2.3,13-3C418.6,671.8,419.9,671.4,419.9,670.3L419.9,670.3z M443.8,665.7c0-2.6-0.8-2.8-3.6-3.5
		c-8.5-1.9-6.4,0.2-9.5,5.5c-5.1,9-14.5,35.4-14.5,45.8c0,3.7,2.9,4.3,7.6,5.2c2.7,0.5,3.2,1,5.6-0.1c1-17.3,7.2-35.6,14.3-51.5
		C443.8,667,443.8,666.5,443.8,665.7L443.8,665.7z M488.9,716.4c0-1.5-1.7-3.6-5.1-6.3c-5.9-4.6-10.3-10.3-13.8-17.2
		c5.1-3.4,8-4.4,11.9-9.5c2.2-2.8,3.3-6,3.3-9.4c0-4.1-3.1-7.2-9.2-9.6c-2.3-0.9-3.9-1.8-4.9-2.3c-1.7-0.6-19.6-0.9-19.6,3.3
		c0,0.7,0.8,2,0.8,2.1l-6.2,24c-1.9,7.6-3.8,15.3-3.8,21.9c0,1.4,0.4,2.3,1.2,2.6c6.6,2.6,10.2,4,10.9,4c1,0,1.5-1.7,1.5-2.5
		c0-3.7,0-7.5,0-11.2c0-0.4,1.1-6.9,2.9-7.2c3.7,4.1,5.7,6.8,8.7,11.7c1.9,3.2,5,6.2,8,8c1.6,0.9,2.6,1.4,3.1,1.4
		C480.6,720,488.9,719.1,488.9,716.4L488.9,716.4z M473.4,672.1c0,5.4-6.7,12.3-12.4,14.2c0-2.6,0.3-3.7,1.8-8.9
		c2.2-7.2,1.7-6.7,4.4-7.2c1.4-0.3,4.9-0.6,5.7,0C473.3,670.5,473.4,671.1,473.4,672.1L473.4,672.1z M535.3,670.3
		c0-2.5-3.9-7.7-6.3-8.4c-0.6-0.2-1.7-0.2-3.2-0.2c-5.1,0-10.1,0.8-15.1,2.2c-2.1,0.6-5,0.9-5.7,2.8c-4,11.6-9.1,28.4-12,40.5
		c-1.4,6-1.8,6.3,3.1,8.7c2.5,1.2,1.2-0.7,3.5,2.2c1.7,2.1,3.2,1,7.2,0.1c3.8-0.9,6.4-1.5,8-1.7c6.7-0.9,10.2-1.3,14.2-1.3
		c1,0,1.8-0.2,2.3-0.7c0.6-0.9-3-10.5-6.1-10.3c-6.2,0.5-12.3,1.2-18.5,1.8c-0.5-0.4,0.5-3.2,1-5.2c0.6-2.4,1.2-5.3,2.1-5.5
		l13.9-1.8c0.2-0.1,0.3-0.3,0.5-0.4l-0.3-2.3c-1.1-3.2-2.7-5.5-4.7-6.9c-0.7-0.5-5,0.2-6.9,0c0.3-1.6,2.3-8.3,3-8.8
		c0.8-0.5,6.5-2.1,7.6-2.2c3.8-0.4,7.6-0.7,11.5-1.1C535,671.7,535.3,671.2,535.3,670.3L535.3,670.3z M576.6,670.3
		c0-2.2-1.6-7.5-3.9-8.5c-3.5-1.6-13.8,2-18.6,3.3c-3.1,0.8-4.8,1.5-5.2,2.1c-3,4.7-3.6,7.1-5.7,14.1c-1.9,6.2-7.8,27.6-7.8,31.7
		c0,2.7,1.5,3.4,5.2,4.9c2.3,0.9,4,1.4,5.2,1.4c1.1,0,1.8-0.2,2.4-0.7c1.2-8.8,2-13.6,2.3-14.4c0.5-1.2,3.7-1.9,4.8-2.3
		c6.3-1.8,11.1-3,14.5-3.8c0-2-0.3-3.2-1.9-7.2c-0.6-1.5-2.2-3.3-3.7-3c-2.9,0.7-5.8,1.3-8.7,2c-0.1,0-0.2-0.1-0.3-0.1
		c0-2.4,0-2.3,0.9-6.5c0.6-2.8,1.1-5,1.6-6.4c0.4-1.1,2.2-1.6,3.6-2c3.4-0.9,8.2-2.3,13-3C575.4,671.8,576.6,671.4,576.6,670.3
		L576.6,670.3z M607.2,717.7c0-2.4-0.3-5.6-0.9-9.6c-3-1.1-14.2,0.8-19.1,0.3c0-4.3,0.4-6.7,2.4-16.6c1.6-8.2,4-17.7,6.3-25.4
		c0.3-1-0.1-2.5-1.4-3c-3.5-1.4-9.7-3.8-10.5-1.3c-5.4,16.6-9.6,33.9-9.8,51c0,2.2,0.1,3.2,1.9,3.8c0.8,0.2,2.6,0.6,5.5,1.1
		c0.7,0.4-0.4,1.1,3.7,1C588.1,718.9,605.8,718.7,607.2,717.7L607.2,717.7z M638.9,665.7c0-2.6-0.9-2.9-3.6-3.5
		c-8.5-1.9-6.4,0.1-9.5,5.5c-5.1,9-14.5,35.4-14.5,45.8c0,3.7,2.8,4.3,7.6,5.2c2.7,0.5,3.3,1,5.6-0.1c0.7-11.6,3.9-24.8,8.2-36.5
		l6.2-15.1C638.8,666.9,638.9,666.5,638.9,665.7L638.9,665.7z M677.3,670.3c0-2.5-3.9-7.7-6.3-8.4c-0.6-0.2-1.7-0.2-3.2-0.2
		c-5.1,0-10.1,0.8-15.1,2.2c-2,0.6-5,0.9-5.7,2.8c-3.7,10.9-9.3,29.2-12,40.5c-1.4,6-1.8,6.3,3.1,8.7c2.4,1.2,1.2-0.7,3.5,2.2
		c1.7,2.1,3.2,1,7.2,0.1c3.8-0.9,6.4-1.5,8-1.7c6.7-0.9,10.2-1.3,14.2-1.3c3-0.1,2.7-1,1.6-4c-0.7-2-3-7.1-5.4-6.9
		c-6.2,0.5-12.3,1.2-18.4,1.8c-0.5-0.1,0.5-3.1,1-5.2c0.6-2.4,1.2-5.3,2.1-5.5l13.9-1.8c0.1-0.1,0.3-0.3,0.5-0.4l-0.2-2.3
		c-1.2-3.2-2.7-5.5-4.7-6.9c-0.8-0.5-5,0.2-6.9,0c0.3-1.6,2.3-8.4,3-8.8c1.2-0.6,6.3-2.1,7.6-2.2c3.8-0.4,7.6-0.7,11.5-1.1
		C677,671.7,677.3,671.2,677.3,670.3L677.3,670.3z M720,676.7l-0.9-4.3c-1.8-7.6-11.2-10.8-18.3-10.8c-1.9,0-4.4,0.6-7.3,1.9
		c-7.1,3-10.6,7.7-10.6,14c0,6.3,3,9.5,9.3,11.4c4.5,1.3,4,0.7,5.4,0.7c5.5,0,8.2,2.3,8.2,6.9c0,4.5-2.2,8.9-6.8,13.2
		c-1,1-4,2.6-5.4,2.6c-1.7,0-2.6-3.3-2.6-4.7c0-2.2,0-4.4,0-6.7c0-0.6-0.4-0.9-1.4-1c-3.1-0.2-6.2-0.4-9.3-0.6c-1,0.2-2,0.4-3,0.6
		c0,2.8-0.1,2.9,1,7.2c3.2,12.3,16.6,15.2,27.6,9c6.6-3.7,13-10.6,13-18.1c0-14.1-16.6-11.8-19.1-13.4c-4.9-3.1-4-11.9,0.5-15.8
		c2.8-2.4,5.7-2.4,6.2,2.6c0.2,2.2,0.4,4,0.5,5.2c0.4,1.4,9.2,2,10.6,2C719.2,678.6,720,677.9,720,676.7L720,676.7z"/>
	<path class="st4" d="M24,643.2c0-1.7-0.6-3-1.3-3c-4.8,0-9.5,0-14.3,0v-42.1c0-1.7-0.6-3-1.3-3c-1.9,0-3.8,0-5.7,0
		c-0.8,0-1.3,1.3-1.3,3v53.6c0,1.7,0.5,3,1.3,3c7.1,0,14.2,0,21.3,0c0.8,0,1.3-1.3,1.3-3C24,648.9,24,646,24,643.2L24,643.2z
		 M53.3,598.1c0-1.7-0.6-3-1.3-3c-7.8,0-15.5,0-23.2,0c-0.8,0-1.3,1.3-1.3,3v53.6c0,1.7,0.6,3,1.3,3c7.7,0,15.5,0,23.2,0
		c0.8,0,1.3-1.3,1.3-3c0-2.8,0-5.7,0-8.5c0-1.7-0.6-3-1.3-3c-5.4,0-10.8,0-16.2,0c0-2.8,0-5.7,0-8.5c4,0,8,0,12,0
		c0.8,0,1.3-1.3,1.3-3c0-2.8,0-5.7,0-8.5c0-1.7-0.6-3-1.3-3c-4,0-8,0-12,0c0-2.6,0-5.1,0-7.7c5.4,0,10.8,0,16.2,0
		c0.8,0,1.3-1.3,1.3-3C53.3,603.7,53.3,600.9,53.3,598.1L53.3,598.1z M78.1,654.7c1.1,0,1.9-1.7,2.1-3l5.1-28.1c0.1,0,0.2,0,0.4,0
		v28.1c0,1.7,0.6,3,1.4,3c1.9,0,3.8,0,5.7,0c0.8,0,1.3-1.3,1.3-3v-53.6c0-1.7-0.6-3-1.3-3c-2.7,0-5.3,0-8,0c-1.1,0-1.9,1.7-2.1,3
		L76,634.2c-0.1,0-0.3,0-0.4,0l-6.7-36.2c-0.2-1.3-0.9-3-2.1-3c-2.7,0-5.3,0-8,0c-0.8,0-1.3,1.3-1.3,3v53.6c0,1.7,0.6,3,1.3,3
		c1.9,0,3.8,0,5.7,0c0.8,0,1.3-1.3,1.3-3v-28.1c0.1,0,0.3,0,0.4,0l5.1,28.1c0.2,1.3,1,3,2.1,3C75.1,654.7,76.6,654.7,78.1,654.7
		L78.1,654.7z M114.3,642.3c-8.4,0-7.8-23.6-5-30.5c2.9-7.2,11.9-7.5,11.9,13C121.1,631,120.2,642.3,114.3,642.3L114.3,642.3z
		 M114.3,593.4c-13,0-15.6,19.3-15.6,31.5c0,12.2,2.6,31.5,15.6,31.5c12.9,0,15.6-19.3,15.6-31.5
		C129.9,612.7,127.2,593.4,114.3,593.4L114.3,593.4z M153.9,629.1l-9.5-31.1c-0.4-1.3-1.1-3-2.1-3c-2.2,0-4.3,0-6.5,0
		c-0.8,0-1.3,1.3-1.3,3v53.6c0,1.7,0.5,3,1.3,3c1.9,0,3.8,0,5.7,0c0.8,0,1.3-1.3,1.3-3v-31.1c0.1,0,0.3,0,0.4,0l9.5,31.1
		c0.4,1.3,1.1,3,2.1,3c2.1,0,4.3,0,6.5,0c0.8,0,1.3-1.3,1.3-3v-53.6c0-1.7-0.6-3-1.3-3c-1.9,0-3.8,0-5.7,0c-0.8,0-1.3,1.3-1.3,3
		v31.1C154.2,629.1,154,629.1,153.9,629.1L153.9,629.1z M189,651.7c0.3,1.7,1,3,1.7,3c2.2,0,4.3,0,6.5,0c0.8,0,1.3-1.3,0.9-3
		L187.5,598c-0.3-1.7-1-2.9-1.7-2.9c-2.6,0-5.2,0-7.8,0c-0.8,0-1.4,1.3-1.7,3l-10.7,53.6c-0.3,1.7,0.2,3,1,3c2,0,4.1,0,6.1,0
		c0.8,0,1.4-1.3,1.7-3c0.4-2.6,0.9-5.1,1.4-7.7c4,0,8,0,12,0C188.2,646.6,188.6,649.1,189,651.7L189,651.7z M181.6,613
		c0.1,0,0.3,0,0.4,0l3,17c-2.2,0-4.5,0-6.7,0L181.6,613L181.6,613z M202.5,654.7c4,0,8,0,12,0c12.9,0,15.6-17.9,15.6-29.8
		c0-11.9-2.8-29.8-15.6-29.8c-4,0-8,0-12,0c-0.8,0-1.3,1.3-1.3,3v53.6C201.2,653.4,201.7,654.7,202.5,654.7L202.5,654.7z M209.6,641
		v-32.3c5,0,7.9-0.9,10,4.1c2.4,5.7,2.4,18.4,0,24.2C217.5,641.9,214.6,641,209.6,641L209.6,641z M260.6,598.1c0-1.7-0.6-3-1.4-3
		c-7.7,0-15.5,0-23.2,0c-0.8,0-1.4,1.3-1.4,3v53.6c0,1.7,0.6,3,1.4,3c7.7,0,15.5,0,23.2,0c0.8,0,1.4-1.3,1.4-3c0-2.8,0-5.7,0-8.5
		c0-1.7-0.6-3-1.4-3c-5.4,0-10.8,0-16.2,0c0-2.8,0-5.7,0-8.5c4,0,8,0,12,0c0.8,0,1.3-1.3,1.3-3c0-2.8,0-5.7,0-8.5c0-1.7-0.6-3-1.3-3
		c-4,0-8,0-12,0c0-2.6,0-5.1,0-7.7c5.4,0,10.8,0,16.2,0c0.8,0,1.4-1.3,1.4-3C260.6,603.7,260.6,600.9,260.6,598.1L260.6,598.1z"/>
	<path class="st3" d="M30.8,672.8c0-5-0.3-3.8-3.5-7c-2.4-2.4-3.7-3.6-4.1-3.7c-1-0.2-1.8-0.4-2.3-0.4c-5.5,0-10.7,6.9-13.6,10.7
		c-5.3,7-7.3,15-7.3,24.2c0,8.1,2,16.9,9.3,20.2l6.8,2.3c6.2,0.3,15.3-13.4,12.6-19.1c-0.6-1.3-4.1-4.6-5.4-4.6
		c-3.2,0-4.6,12.4-8.7,15.9c-1,0.8-2.9,1.3-4.1,1c-5.2-14.7-0.6-29,10.9-39.3c1,2.1-2.2,4.5-2.2,6.7c0,1.7,5,5.5,6.6,5.5
		C29.8,685.2,30.8,675.8,30.8,672.8L30.8,672.8z M67.6,667.6c0.3-2.4-5.5-6.3-6.2-6.3l-0.8,0.3c-2.9-0.7-3.5-0.3-5.9-0.3
		c-2,0-1.8,0.2-4.1,3c-6.3,7.6-8.5,14.6-11.7,24.5c-0.8,2.5-7.3,21.1-7.3,23.4c0,3.9,5.6,6.7,7.5,6.7c2.6,0,2.2-2.2,2.4-3.9l1.7-7.6
		c2.1-7,13.4-11.3,13.8-10.3V714c0,2.4,0.8,3.4,3.3,4.3c1.6,0.6,5.9,1.9,5.9-0.4l-0.5-2.3c-0.5-3.7-0.3-10.4-0.3-14.3
		c0.1-10.2,0.3-21.4,1.7-30.8C67.3,669.5,67.5,668.6,67.6,667.6L67.6,667.6z M59,669.8l-1.6,14.9c-3.6,1.6-6.3,2.8-8.2,3.5
		C51.1,681.3,54.1,674.9,59,669.8L59,669.8z M110.5,662c1.5,0,6.9,3.5,6.9,5.3c0-0.3-0.3,0.6-0.7,2.7c-0.8,3.7-1.9,14.4-2.1,18.4
		c-0.5,7.7-0.9,18.5,0.5,26.7c0.3,1.7,1.1,4.9-1.1,4.9l-4.7-1.7c-2.5-1.3-2.7-2.8-3-6.6c-0.6-8.1,0-17.2,0.3-25.6
		c-1.9,1.2-4.8,8.9-5.5,11.3c-1.2,4-1.6,7-2,11.5c-0.5,4.7-2.8,2.4-5.6,2.5c-2.1,0-4.6,2.3-5.7-4.8c-0.7-4.7-0.6-16.2-1.2-20.4
		c-1.5,5.6-5,20.1-5.4,26.2c-0.1,1.8,0.3,7.3-1.8,7.3c-1.2,0-6.6-3.8-7.4-4.7c-1.7-2-0.5-8,0.3-12.6c2.7-14.2,6.4-25.6,11.2-39.7
		c0.6-1.7,6-0.9,7.7-0.5c0.8,0.2,1.2,1.2,1.7,1.8c0.3,0,2.8,0.6,3.1,1.4c1.2,2.8-1.6,11.5-0.3,19.7c4.2-7.1,8.6-15,11.1-21.9
		c0.5-1.4,1.5-0.6,2.4-0.9C110.2,662.2,110.6,662,110.5,662L110.5,662z M153.9,677.1c0-6.3-3.7-8.6-5-10.5c-2.4-3.4-3.9-5-8.2-5
		c-2.6,0-5.2,0.5-7.7,1.4c-4.5,1.8-3.8,3-4.1,4.9c-0.7,2-1.3,3.4-1.5,4.3c-2.8,9.6-4.1,17.8-5.8,28c-1.3,8-1.9,12.6-1.9,14l0.8,2.2
		c1.6,1,8.9,4.1,9.5,1.4c1-5.3,0.5-13.9,2-19c7-0.7,15.3-8.7,19.5-14.7C153.1,681.7,153.9,679.4,153.9,677.1L153.9,677.1z
		 M146.4,672.8c0,2.7-8.3,13.1-12.2,14.1c-1-1.8,3.4-13,3.6-13.2C139.6,672.1,146.4,670.7,146.4,672.8L146.4,672.8z M181.9,669.9
		c0-2-1-7.5-2.8-8.5c-2.6-1.6-9.9,2-13.6,3.3c-2.2,0.8-3.5,1.5-3.8,2.1c-2.4,5.1-3.1,9.2-4.6,16.3c-1.2,5.6-5.2,26.2-5.2,29.7
		c0,2.6,1,3.3,3.7,4.9c1.7,0.9,2.9,1.4,3.8,1.4c0.7,0,1.3-0.2,1.7-0.7c0.9-8.8,1.4-13.7,1.7-14.5c0.4-1.2,2.4-1.8,3.5-2.3
		c4.5-1.8,8.1-3.1,10.6-3.8c0-2.4-0.4-4-1.7-8c-0.4-1.2-1.5-2.4-2.4-2.1c-2.1,0.7-4.2,1.3-6.3,2c-0.1,0-0.2-0.1-0.2-0.1
		c0-3.3,0.9-9.5,1.8-12.9c0.3-1.1,1.5-1.5,2.6-2c2.5-1,5.9-2.3,9.5-3C181.2,671.4,181.9,670.9,181.9,669.9L181.9,669.9z
		 M199.3,665.3c0-2.5-0.5-2.8-2.6-3.5c-6.3-1.9-4.7,0.3-6.9,5.5c-3.9,9.5-10.6,35.7-10.6,46c0,3.4,1.7,4.2,5.5,5.2
		c2.1,0.6,2.4,1,4.1-0.1c0.7-16.7,5.1-35.6,10.4-51.7C199.3,666.5,199.3,666.1,199.3,665.3L199.3,665.3z M232.1,716.2
		c0-1.5-1.2-3.6-3.7-6.3c-4.5-4.9-7.6-10.7-10-17.3c3.9-3.5,5.9-4.7,8.6-9.6c1.6-2.9,2.4-6,2.4-9.5c0-4.1-2.3-7.3-6.7-9.7
		c-1.7-0.9-2.8-1.8-3.6-2.3c-1.3-0.6-14.2-0.9-14.2,3.3c0,0.8,0.6,2,0.6,2.1l-4.5,24c-1.3,7.5-2.7,15.6-2.7,22
		c0,1.4,0.3,2.3,0.9,2.6c4.8,2.6,7.4,4,7.9,4c0.8,0,1.1-1.9,1.1-2.5c0-3.7,0-7.5,0-11.2c0-0.6,0.8-7,2.1-7.2
		c2.5,3.7,4.4,7.4,6.3,11.8c1.4,3.2,3.6,6.2,5.8,8c1.1,1,1.9,1.4,2.3,1.4C226.5,719.8,232.1,718.7,232.1,716.2L232.1,716.2z
		 M220.8,671.8c0,4.9-4.4,12.1-9,14.3c0-2.6,0.2-3.8,1.3-8.9c1.5-7,1.2-6.7,3.2-7.2c1-0.3,3.6-0.6,4.1,0
		C220.7,670.1,220.8,670.7,220.8,671.8L220.8,671.8z M265.8,669.9c0-2.1-2.7-7.7-4.6-8.4c-0.4-0.2-1.2-0.2-2.3-0.2
		c-3.7,0-7.3,0.8-11,2.2c-1.7,0.7-3.7,0.9-4.1,2.8c-1.3,5-10.2,43.4-9.3,46.7c0.2,0.8,1.6,1.9,2.8,2.7c1.8,1.2,0.9-0.7,2.6,2.2
		c1.2,2,2,1.1,5.3,0.1c6.1-1.9,9.2-2.6,13.9-2.9c4.2-0.3,4.5,0.1,3.4-4.2c-0.4-1.6-2.1-7.2-3.9-7c-4.5,0.5-9,1.2-13.4,1.8
		c-0.4-0.5,1.6-9.3,1.8-10.1c0.3-0.9,1.4-0.9,3.5-1.3c2.3-0.4,4.7-0.8,7-1.1c1.4-0.8-1.1-7.7-3.2-9.7c-0.6-0.6-3.4,0.2-5,0
		c0.2-1.2,1.7-8.4,2.2-8.8l5.6-2.2c2.8-0.4,5.5-0.7,8.3-1.1C265.6,671.3,265.8,670.9,265.8,669.9L265.8,669.9z"/>
	<path class="st2" d="M25.7,324.9c-4.6,0-8.8,2.1-12.6,6.3c-1.5,1.6-2.4,3.2-3.5,4.3c-5.7,5.5-7.6,8.8-7.6,17.2
		c0,5.5,0.7,10.9,2.2,16c1.2,4.1,2.5,6.7,3.9,7.9c1.5,0.5,2.7,0.7,3.6,0.7c3.1,1.4,5.2,2.6,6.5,3.1c14.4,5.8,27.1,8.6,42.9,12.1
		c12.2,2.7,19.3,4.1,21.4,4.1c0.6,0,3.2-1.3,3.4-1.7c1.4-3,3.8-11.5,3.8-14.9c0-2.9-0.5-4.6-1.6-4.9c-8.4-2.2-21.4-1-29.1-4.3
		c-1-13.5-12.3-31.1-22.5-40.7C32.7,326.7,29.2,324.9,25.7,324.9L25.7,324.9z M19.1,340.7c4.3,0,20.1,17.6,21.5,25.6
		c-0.4,0.2-0.8,0.4-1.3,0.4c-2.8,0-9.1-2.7-18.9-8c-2-4.3-2.9-8.5-2.9-12.8C17.5,342.4,18.1,340.7,19.1,340.7L19.1,340.7z
		 M86.9,282.8c-10.6-14-36.7-24.8-54.3-24.8c-9,0-17.7,2.2-24.4,7.9c-0.7,0.6-1.1,1.3-1.4,2.2c-0.4,1.1-1,2.9-1.7,5.5
		c-2.5,3.6-3.8,7-4,10c-1.2,19.8,14.2,29.9,31.2,34.5c4.4,1.2,7.4,2,9.2,2.1c5.1,0.4,10.2,0.8,15.2,1.3c3.3,0.3,8.1-0.2,14.6-1.3
		c5.8-0.9,10.7-4.5,13.4-10.2l5.3-11C91.5,296.2,89.6,286.4,86.9,282.8L86.9,282.8z M35.6,276.6c14.1,1.1,18.3,3.7,29.7,8.9
		c3.6,1.7,12.8,7,12.5,11.5c-0.1,0.9-0.1,1.8-0.1,2.6c-8.3,3.8-13.9,3.3-24.4,2.5c-13.5-1-25-4.8-35.7-12.6
		c-3.8-2.7-5.8-5.1-5.8-7.4C11.9,274.9,27.1,275.9,35.6,276.6L35.6,276.6z M86.9,211.1c-10.6-14-36.7-24.8-54.3-24.8
		c-9,0-17.7,2.2-24.4,7.9c-0.7,0.6-1.1,1.3-1.4,2.3c-0.4,1.1-1,2.9-1.7,5.5c-2.5,3.6-3.8,7-4,10c-1.2,19.8,14.2,29.8,31.2,34.4
		c4.4,1.2,7.4,2,9.2,2.1c5.1,0.4,10.2,0.8,15.2,1.3c3.3,0.3,8.1-0.2,14.6-1.3c5.8-0.9,10.7-4.5,13.4-10.1l5.3-11
		C91.5,224.4,89.6,214.6,86.9,211.1L86.9,211.1z M35.6,204.8c14.1,1.1,18.3,3.6,29.7,8.9c3.6,1.7,12.8,7,12.5,11.5
		c-0.1,0.9-0.1,1.8-0.1,2.6c-8.3,3.8-13.9,3.3-24.4,2.5c-13.4-1-25.1-4.8-35.7-12.5c-3.8-2.7-5.8-5.1-5.8-7.4
		C11.9,203.1,27.2,204.1,35.6,204.8L35.6,204.8z M87.6,130.1c-3.6,0-8.6,0.5-14.8,1.4c-0.4,1-0.5,2-0.5,2.9c0,3.9,1.5,21.5,1,26.2
		c-6.6,0-10.2-0.6-25.5-3.6c-11.6-2.3-28.2-6.3-39-9.6c-1.7-0.5-3.9,0.3-4.7,2.1c-2.4,6-3.7,10-3.7,12.2c0,2.2,0.5,3.5,1.6,3.9
		c21.5,7,48.5,13.6,70.1,14.7c2.6,0.1,10.6,0.7,12.5-0.3c0.7-0.4,1.3-1.2,1.6-2.4c0.4-1.2,0.9-4,1.7-8.3c0.4-0.3,0.8-0.7,1.2-1
		c0.9-1.4-0.5-31.1-0.8-34.5C88.2,131.4,87.6,130.2,87.6,130.1L87.6,130.1z"/>
	<path class="st3" d="M115,245.3c-4.6,0-9,1.4-12.1,4.4c-3.1,3-5.1,7.6-5.1,14c0,7.5,0,15,0,22.5c0,1.2,1.3,2.2,3.1,2.2
		c9.3,0,18.6,0,27.8,0c9.3,0,18.6,0,27.8,0c1.8,0,3.1-0.9,3.1-2.2c0-8.3,0-16.7,0-25c0-6.6-2.1-11.3-5.4-14.5
		c-3.3-3.1-7.8-4.6-12.7-4.6c-11.5,0-14.1,9.4-14.1,9.4c-0.3,0-0.6,0-0.9,0C126.5,251.5,123.8,245.3,115,245.3L115,245.3z
		 M134.9,261.2c0-3.1,2.2-4.7,5.3-4.7c3.1,0,5.3,1.6,5.3,4.7c0,4.5,0,9,0,13.4c-3.5,0-7.1,0-10.6,0
		C134.9,270.2,134.9,265.7,134.9,261.2L134.9,261.2z M111.9,263.7c0-2.9,1.8-4.1,4.4-4.1c2.7,0,4.4,1.3,4.4,4.1c0,3.7,0,7.3,0,10.9
		c-2.9,0-5.9,0-8.8,0C111.9,271,111.9,267.4,111.9,263.7L111.9,263.7z M115,192.1c-4.6,0-9,1.4-12.1,4.4c-3.1,3-5.1,7.6-5.1,14
		c0,7.5,0,15,0,22.5c0,1.3,1.3,2.2,3.1,2.2c9.3,0,18.6,0,27.8,0c9.3,0,18.6,0,27.8,0c1.8,0,3.1-0.9,3.1-2.2c0-8.3,0-16.7,0-25
		c0-6.6-2.1-11.3-5.4-14.4c-3.3-3.1-7.8-4.6-12.7-4.6c-11.5,0-14.1,9.4-14.1,9.4c-0.3,0-0.6,0-0.9,0
		C126.5,198.4,123.8,192.1,115,192.1L115,192.1z M134.9,208c0-3.1,2.2-4.7,5.3-4.7c3.1,0,5.3,1.6,5.3,4.7c0,4.5,0,9,0,13.5
		c-3.5,0-7.1,0-10.6,0C134.9,217,134.9,212.5,134.9,208L134.9,208z M111.9,210.6c0-2.9,1.8-4.1,4.4-4.1c2.7,0,4.4,1.3,4.4,4.1
		c0,3.7,0,7.3,0,10.9c-2.9,0-5.9,0-8.8,0C111.9,217.9,111.9,214.2,111.9,210.6L111.9,210.6z M128.7,169.6c-6,0-10.5-1.1-13.5-3
		c-3-1.9-4.6-4.8-4.6-8.2c0-3.4,1.5-6.3,4.6-8.2c3-2,7.6-3.1,13.5-3.1c6,0,10.5,1.1,13.5,3.1c3,2,4.6,4.8,4.6,8.2
		c0,3.4-1.6,6.3-4.6,8.2C139.2,168.5,134.6,169.6,128.7,169.6L128.7,169.6z M128.8,132.7c-10,0-18.2,2.3-23.9,6.6
		c-5.7,4.3-8.9,10.8-8.9,19c0,8.3,3.2,14.7,8.9,19c5.7,4.3,13.9,6.6,23.8,6.6c9.5,0,17.5-2.3,23-6.6c5.6-4.3,8.8-10.8,8.8-19
		c0-8.9,0-17.7,0-26.6c0-1.2-1.3-2.2-3.1-2.2c-2.9,0-5.9,0-8.8,0c-1.8,0-3.1,1-3.1,2.2c0,1.8,0,3.6,0,5.3c-0.3,0-0.6,0-0.9,0
		C144.6,137.1,138.4,132.7,128.8,132.7L128.8,132.7L128.8,132.7z"/>
	<path class="st5" d="M619.7,49.2c29.9,0,54.1,24.3,54.1,54.2c0,29.9-24.2,54.2-54.1,54.2c-29.9,0-54.1-24.3-54.1-54.2
		C565.5,73.5,589.8,49.2,619.7,49.2L619.7,49.2z M619.7,3c3.3,0,5.9,2.7,5.9,5.9v29.3c0,3.3-2.7,5.9-5.9,5.9c-3.3,0-5.9-2.7-5.9-5.9
		V8.9C613.8,5.6,616.4,3,619.7,3L619.7,3z M669.9,16.4c2.8,1.6,3.8,5.3,2.2,8.1l-14.6,25.4c-1.6,2.8-5.3,3.8-8.1,2.2
		c-2.8-1.6-3.8-5.3-2.2-8.1l14.6-25.4C663.4,15.8,667,14.8,669.9,16.4L669.9,16.4z M706.6,53.2c1.6,2.8,0.7,6.5-2.2,8.1l-25.3,14.6
		c-2.8,1.6-6.4,0.7-8.1-2.2c-1.6-2.8-0.7-6.5,2.2-8.1L698.5,51C701.3,49.4,705,50.4,706.6,53.2L706.6,53.2z M720,103.5
		c0,3.3-2.7,5.9-5.9,5.9l-29.2,0c-3.3,0-5.9-2.7-5.9-5.9c0-3.3,2.7-5.9,5.9-5.9l29.2,0C717.4,97.5,720,100.2,720,103.5L720,103.5z
		 M706.6,153.7c-1.6,2.8-5.3,3.8-8.1,2.2l-25.3-14.6c-2.8-1.6-3.8-5.3-2.2-8.1c1.6-2.8,5.3-3.8,8.1-2.2l25.3,14.6
		C707.2,147.2,708.2,150.9,706.6,153.7L706.6,153.7z M669.9,190.5c-2.8,1.6-6.5,0.7-8.1-2.2l-14.6-25.4c-1.6-2.8-0.7-6.5,2.2-8.1
		c2.8-1.6,6.4-0.7,8.1,2.2l14.6,25.4C673.6,185.2,672.7,188.9,669.9,190.5L669.9,190.5z M619.7,203.9c-3.3,0-5.9-2.7-5.9-5.9l0-29.3
		c0-3.3,2.7-5.9,5.9-5.9c3.3,0,5.9,2.7,5.9,5.9V198C625.6,201.3,622.9,203.9,619.7,203.9L619.7,203.9z M569.5,190.5
		c-2.8-1.6-3.8-5.3-2.2-8.1L582,157c1.6-2.8,5.3-3.8,8.1-2.2c2.8,1.6,3.8,5.3,2.2,8.1l-14.6,25.4C576,191.1,572.3,192.1,569.5,190.5
		L569.5,190.5z M532.8,153.7c-1.6-2.8-0.7-6.5,2.2-8.1l25.3-14.6c2.8-1.6,6.4-0.7,8.1,2.2c1.6,2.8,0.7,6.5-2.2,8.1l-25.3,14.6
		C538,157.5,534.4,156.5,532.8,153.7L532.8,153.7z M519.3,103.5c0-3.3,2.7-5.9,5.9-5.9l29.2,0c3.3,0,5.9,2.7,5.9,5.9
		c0,3.3-2.7,5.9-5.9,5.9l-29.2,0C522,109.4,519.3,106.7,519.3,103.5L519.3,103.5z M532.8,53.2c1.6-2.8,5.3-3.8,8.1-2.2l25.3,14.6
		c2.8,1.6,3.8,5.3,2.2,8.1c-1.6,2.8-5.3,3.8-8.1,2.2L535,61.3C532.1,59.7,531.2,56,532.8,53.2L532.8,53.2z M569.5,16.4
		c2.8-1.6,6.4-0.7,8.1,2.2L592.2,44c1.6,2.8,0.7,6.5-2.2,8.1c-2.8,1.6-6.4,0.7-8.1-2.2l-14.6-25.4C565.7,21.7,566.7,18.1,569.5,16.4
		L569.5,16.4z"/>
</g>
</svg>
