<?xml version="1.0" encoding="utf-8"?>
<!-- Generator: Adobe Illustrator 21.1.0, SVG Export Plug-In . SVG Version: 6.00 Build 0)  -->
<svg version="1.1" id="Layer_1" xmlns="http://www.w3.org/2000/svg" xmlns:xlink="http://www.w3.org/1999/xlink" x="0px" y="0px"
	 viewBox="0 0 763.2 325.7" style="enable-background:new 0 0 763.2 325.7;" xml:space="preserve">
<style type="text/css">
	.st0{fill-rule:evenodd;clip-rule:evenodd;fill:#218D36;}
	.st1{fill-rule:evenodd;clip-rule:evenodd;fill:#C1112A;}
	.st2{fill-rule:evenodd;clip-rule:evenodd;fill:#333232;}
</style>
<g>
	<path class="st0" d="M238.3,206.5c0,65.8-53.4,119.2-119.2,119.2C53.4,325.7,0,272.3,0,206.5h17.9c0,55.9,45.3,101.2,101.2,101.2
		c55.9,0,101.2-45.3,101.2-101.2H238.3L238.3,206.5z"/>
	<path class="st1" d="M217.3,206.5c0,54.2-43.9,98.1-98.1,98.1C65,304.6,21,260.7,21,206.5H217.3L217.3,206.5z"/>
	<path class="st2" d="M121.8,272.6c2,3.6,3.4,7.1,3.4,10.1c0,3.5-2.2,6.8-6,6.8c-3.8,0-6-3.3-6-6.8c0-3,1.3-6.3,3.3-9.8
		C118.3,269.6,119.9,269.3,121.8,272.6L121.8,272.6z M189.4,231.7c3.7,1.8,6.8,3.9,8.5,6.4c2,2.9,2,6.9-1.1,9
		c-3.1,2.1-6.8,0.7-8.8-2.2c-1.7-2.5-2.5-5.9-2.8-10C184.8,231.1,185.9,230,189.4,231.7L189.4,231.7z M160.6,262.6
		c3.2,2.6,5.8,5.3,6.9,8.1c1.3,3.3,0.5,7.1-3.1,8.5c-3.5,1.4-6.8-0.8-8.1-4.1c-1.1-2.8-1.2-6.3-0.6-10.3
		C156.3,261,157.7,260.2,160.6,262.6L160.6,262.6z M135.7,238.5c2.6,3.2,4.5,6.4,5,9.4c0.6,3.5-1.1,7.1-4.8,7.7
		c-3.7,0.6-6.4-2.3-7-5.7c-0.5-3,0.2-6.4,1.6-10.2C131.8,236.1,133.3,235.6,135.7,238.5L135.7,238.5z M162.8,226.3
		c3.2,2.5,5.8,5.2,7,8c1.4,3.3,0.6,7.1-2.9,8.6c-3.5,1.5-6.8-0.7-8.1-4c-1.2-2.8-1.2-6.3-0.8-10.3
		C158.4,224.8,159.8,224,162.8,226.3L162.8,226.3z M49,231.7c-3.7,1.8-6.8,3.9-8.5,6.4c-2,2.9-2,6.9,1.1,9c3.1,2.1,6.8,0.7,8.8-2.2
		c1.7-2.5,2.5-5.9,2.8-10C53.5,231.1,52.4,230,49,231.7L49,231.7z M77.7,262.6c-3.2,2.6-5.8,5.3-6.9,8.1c-1.3,3.3-0.5,7.1,3.1,8.5
		c3.5,1.4,6.8-0.8,8.1-4.1c1.1-2.8,1.2-6.3,0.6-10.3C82,261,80.7,260.2,77.7,262.6L77.7,262.6z M102.6,238.5c-2.6,3.2-4.5,6.4-5,9.4
		c-0.6,3.5,1.1,7.1,4.8,7.7c3.7,0.6,6.4-2.3,7-5.7c0.5-3-0.2-6.4-1.6-10.2C106.5,236.1,105,235.6,102.6,238.5L102.6,238.5z
		 M75.5,226.3c-3.2,2.5-5.8,5.2-7,8c-1.4,3.3-0.6,7.1,2.9,8.6c3.5,1.5,6.8-0.7,8.1-4c1.2-2.8,1.2-6.3,0.8-10.3
		C79.9,224.8,78.6,224,75.5,226.3L75.5,226.3z"/>
	<path class="st0" d="M500.7,206.5c0,65.8-53.4,119.2-119.2,119.2c-65.8,0-119.2-53.4-119.2-119.2h17.9
		c0,55.9,45.3,101.2,101.2,101.2c55.9,0,101.2-45.3,101.2-101.2H500.7L500.7,206.5z"/>
	<path class="st1" d="M479.7,206.5c0,54.2-43.9,98.1-98.1,98.1c-54.2,0-98.1-43.9-98.1-98.1H479.7L479.7,206.5z M381.6,213.8
		c21.9,0,39.7,17.8,39.7,39.7s-17.8,39.7-39.7,39.7c-21.9,0-39.7-17.8-39.7-39.7S359.6,213.8,381.6,213.8L381.6,213.8z"/>
	<path class="st2" d="M307.8,221.7c-3.9,1.3-7.2,3-9.3,5.3c-2.3,2.6-2.9,6.6,0,9.1c2.8,2.5,6.6,1.6,9-1.1c2-2.3,3.2-5.5,4.1-9.5
		C312.5,221.7,311.5,220.4,307.8,221.7L307.8,221.7z M333.9,219.6c-3.6,2-6.6,4.2-8.2,6.9c-1.8,3-1.6,7,1.6,8.9
		c3.2,2,6.8,0.3,8.7-2.7c1.6-2.6,2.2-6,2.3-10.1C338.5,218.8,337.3,217.7,333.9,219.6L333.9,219.6z M320.1,244.1
		c-3.6,1.9-6.7,4-8.4,6.6c-1.9,3-1.9,6.9,1.3,9c3.2,2.1,6.8,0.6,8.7-2.4c1.7-2.5,2.4-5.9,2.7-10
		C324.7,243.4,323.5,242.3,320.1,244.1L320.1,244.1z M335,262.7c-3.3,1.7-6,3.6-7.5,5.9c-1.7,2.6-1.7,6.2,1.2,8
		c2.8,1.9,6.1,0.5,7.8-2.1c1.5-2.3,2.1-5.3,2.4-9C339.1,262.1,338,261.2,335,262.7L335,262.7z M430.5,219.6c3.6,2,6.6,4.2,8.2,6.9
		c1.8,3,1.6,7-1.6,8.9c-3.2,2-6.8,0.3-8.7-2.7c-1.6-2.6-2.2-6-2.3-10.1C425.9,218.8,427.1,217.7,430.5,219.6L430.5,219.6z
		 M444.3,244.1c3.6,1.9,6.7,4,8.4,6.6c1.9,3,1.9,6.9-1.3,9c-3.2,2.1-6.8,0.6-8.7-2.4c-1.7-2.5-2.4-5.9-2.7-10
		C439.8,243.4,440.9,242.3,444.3,244.1L444.3,244.1z M456.6,221.7c3.9,1.3,7.2,3,9.3,5.3c2.3,2.6,2.9,6.6,0,9.1
		c-2.8,2.5-6.6,1.6-9-1.1c-2-2.3-3.2-5.5-4.1-9.5C452,221.7,453,220.4,456.6,221.7L456.6,221.7z M429.4,262.7c3.3,1.7,6,3.6,7.5,5.9
		c1.7,2.6,1.7,6.2-1.2,8c-2.8,1.9-6.1,0.5-7.8-2.1c-1.5-2.3-2.1-5.3-2.4-9C425.3,262.1,426.4,261.2,429.4,262.7L429.4,262.7z"/>
	<path class="st0" d="M763.2,206.5c0,65.8-53.4,119.2-119.2,119.2c-65.8,0-119.2-53.4-119.2-119.2h17.9
		c0,55.9,45.3,101.2,101.2,101.2c55.9,0,101.2-45.3,101.2-101.2H763.2L763.2,206.5z"/>
	<path class="st1" d="M742.1,206.5c0,54.2-43.9,98.1-98.1,98.1c-54.2,0-98.1-43.9-98.1-98.1h108.7l0,0l0,0.1l0,0.2l0,0.1l0,0.2
		l0,0.1l0,0l0,0.1l0,0.1l0,0.1l0,0.2l0,0.1l0,0.2l0,0.1v0.1l0,0.1l0,0l0,0.2l0,0.1l0,0.1l0,0.1l0,0.1l0,0.2l0,0.1l0,0.2l0,0.1l0,0.2
		l0,0.1l0,0l0,0.1l0,0l0,0.1l0,0.2l0,0.1c0,0.1,0,0.1,0,0.2l0,0.1l0,0.2l0,0.1c0,0.1,0,0.1,0.1,0.2l0,0.1l0.1,0.2l0,0.1l0.1,0.2l0,0
		l0,0l0,0c0,0.1,0.1,0.2,0.1,0.3l0,0c0,0.1,0.1,0.2,0.1,0.2l0,0l0,0c0,0.1,0.1,0.2,0.1,0.2l0,0c0,0.1,0.1,0.2,0.1,0.2l0,0.1
		c0,0.1,0.1,0.1,0.1,0.2l0,0c0,0.1,0.1,0.2,0.1,0.2l0,0c0,0.1,0.1,0.1,0.1,0.2l0,0c0,0.1,0.1,0.1,0.1,0.2l0,0.1
		c0,0.1,0.1,0.1,0.1,0.2l0,0c0,0.1,0.1,0.2,0.1,0.2l0,0c0,0.1,0.1,0.1,0.1,0.2l0,0l0,0c0,0.1,0.1,0.1,0.1,0.2l0,0.1
		c0,0.1,0.1,0.1,0.1,0.2l0,0l0,0c0.1,0.1,0.1,0.2,0.2,0.2c1.3,1.7,3,2.9,4.9,3.6c0.3,2,1.1,3.9,2.4,5.6c3.9,4.8,10.7,5.8,15.8,2.5
		c4.2,3.9,10.8,4.3,15.4,0.6c1.2-1,2.2-2.1,2.9-3.4c3.4,0.8,7.2,0.1,10.2-2.2c1.7-1.3,2.9-3,3.6-4.9c2-0.3,3.9-1.1,5.6-2.4
		c0.2-0.1,0.3-0.2,0.4-0.4l0,0l0,0c0.1-0.1,0.1-0.1,0.2-0.2l0,0c0.1-0.1,0.1-0.1,0.2-0.2l0,0c0.1-0.1,0.1-0.1,0.2-0.2l0,0
		c0.1-0.1,0.1-0.1,0.2-0.2l0,0c0.1-0.1,0.1-0.1,0.2-0.2l0,0c0.1-0.1,0.1-0.1,0.2-0.2l0,0l0.2-0.2l0,0c0.1-0.1,0.1-0.1,0.2-0.2l0,0
		c0.1-0.1,0.1-0.1,0.2-0.2l0,0l0,0l0,0c0-0.1,0.1-0.1,0.1-0.2l0-0.1c0-0.1,0.1-0.1,0.1-0.2l0,0l0,0l0.1-0.2l0-0.1l0.1-0.2l0-0.1
		l0.1-0.2l0-0.1l0.1-0.2l0.1-0.1l0,0l0.1-0.1l0,0l0-0.1l0.1-0.2l0-0.1l0.1-0.1l0.1-0.1l0-0.1l0.1-0.2l0-0.1l0.1-0.2l0-0.1l0-0.1
		l0-0.1l0,0l0.1-0.2l0-0.1c0.1-0.2,0.1-0.4,0.1-0.5l0,0l0-0.1v0l0-0.1c0.1-0.4,0.2-0.9,0.2-1.3l0,0c0-0.1,0-0.2,0-0.3H742.1
		L742.1,206.5z"/>
	<path class="st2" d="M646.6,272.6c2,3.6,3.4,7.1,3.4,10.1c0,3.5-2.2,6.8-6,6.8c-3.8,0-6-3.3-6-6.8c0-3,1.3-6.3,3.3-9.8
		C643.1,269.6,644.7,269.3,646.6,272.6L646.6,272.6z M714.2,231.7c3.7,1.8,6.8,3.9,8.5,6.4c2,2.9,2,6.9-1.1,9
		c-3.1,2.1-6.8,0.7-8.8-2.2c-1.7-2.5-2.5-5.9-2.8-10C709.6,231.1,710.8,230,714.2,231.7L714.2,231.7z M685.5,262.6
		c3.2,2.6,5.8,5.3,6.9,8.1c1.3,3.3,0.5,7.1-3.1,8.5c-3.5,1.4-6.8-0.8-8.1-4.1c-1.1-2.8-1.2-6.3-0.6-10.3
		C681.1,261,682.5,260.2,685.5,262.6L685.5,262.6z M660.5,238.5c2.6,3.2,4.5,6.4,5,9.4c0.6,3.5-1.1,7.1-4.8,7.7
		c-3.7,0.6-6.4-2.3-7-5.7c-0.5-3,0.2-6.4,1.6-10.2C656.6,236.1,658.1,235.6,660.5,238.5L660.5,238.5z M691.5,229.8
		c1.4,1.5,2.4,3,3.1,4.5c1.4,3.3,0.6,7.1-2.9,8.6c-3.5,1.5-6.8-0.7-8.1-4c-1.1-2.7-1.2-6-0.8-9.9l0.1,0.1l0.1,0.1l0,0l0.1,0.1l0.1,0
		l0.1,0l0.1,0.1l0.1,0.1l0.1,0l0.1,0.1l0,0l0.1,0.1l0.1,0l0,0l0.1,0l0,0l0.1,0l0.1,0l0.1,0l0.2,0.1l0.1,0l0.2,0.1l0.1,0l0.1,0l0.2,0
		l0.1,0l0,0l0.1,0l0.1,0l0,0l0.1,0l0.1,0l0.1,0l0.2,0l0,0l0.2,0l0.1,0l0.1,0l0.1,0l0.1,0l0.1,0l0.1,0l0.1,0l0.2,0l0.1,0l0.2,0l0.1,0
		l0.1,0l0.1,0h0l0.1,0l0.1,0l0,0l0.1,0l0,0l0.1,0l0.1,0l0.1,0l0.2,0l0,0l0.2,0l0.1,0c0.1,0,0.3,0,0.4,0l0,0l0.1,0l0.1,0l0.1,0l0.1,0
		l0.1,0c0.2,0,0.3-0.1,0.5-0.1l0.1,0l0.1,0l0.1,0l0,0l0.1,0l0.1,0L691.5,229.8L691.5,229.8L691.5,229.8z M573.8,231.7
		c-3.7,1.8-6.8,3.9-8.5,6.4c-2,2.9-2,6.9,1.1,9c3.1,2.1,6.8,0.7,8.8-2.2c1.7-2.5,2.5-5.9,2.8-10C578.4,231.1,577.2,230,573.8,231.7
		L573.8,231.7z M602.5,262.6c-3.2,2.6-5.8,5.3-6.9,8.1c-1.3,3.3-0.5,7.1,3.1,8.5c3.5,1.4,6.8-0.8,8.1-4.1c1.1-2.8,1.2-6.3,0.6-10.3
		C606.8,261,605.5,260.2,602.5,262.6L602.5,262.6z M627.5,238.5c-2.6,3.2-4.5,6.4-5,9.4c-0.6,3.5,1.1,7.1,4.8,7.7
		c3.7,0.6,6.4-2.3,7-5.7c0.5-3-0.2-6.4-1.6-10.2C631.4,236.1,629.8,235.6,627.5,238.5L627.5,238.5z M600.4,226.3
		c-3.2,2.5-5.8,5.2-7,8c-1.4,3.3-0.6,7.1,2.9,8.6c3.5,1.5,6.8-0.7,8.1-4c1.2-2.8,1.2-6.3,0.8-10.3
		C604.7,224.8,603.4,224,600.4,226.3L600.4,226.3z"/>
	<path class="st0" d="M184,151.9c-52.5,30.2-119.1,32.4-175.3,0L21.8,129c47.7,27.6,104.4,25.7,148.9,0L184,151.9L184,151.9z"/>
	<path class="st1" d="M168.5,125c-43.2,24.9-98.1,26.7-144.4,0L96.3,0L168.5,125L168.5,125z"/>
	<path class="st2" d="M99.6,110.2c2.5,4.5,4.3,8.8,4.3,12.7c0,4.4-2.8,8.5-7.5,8.5c-4.7,0-7.5-4.1-7.5-8.5c0-3.8,1.6-7.9,4.1-12.3
		C95.2,106.4,97.2,106,99.6,110.2L99.6,110.2z M63.5,104.6c1.4,4.9,2.1,9.6,1.3,13.3c-1,4.3-4.6,7.7-9.3,6.6
		c-4.6-1.1-6.4-5.7-5.4-10c0.9-3.7,3.3-7.3,6.8-11.1C60.2,99.9,62.2,100,63.5,104.6L63.5,104.6z M84.7,69.3
		c1.9,4.7,3.1,9.3,2.6,13.1c-0.6,4.4-3.8,8.1-8.5,7.5c-4.7-0.6-7-5-6.4-9.4c0.5-3.8,2.5-7.6,5.6-11.7C80.9,64.9,82.9,64.8,84.7,69.3
		L84.7,69.3z M129.1,104.6c-1.4,4.9-2.1,9.6-1.3,13.3c1,4.3,4.6,7.7,9.3,6.6c4.6-1.1,6.4-5.7,5.4-10c-0.9-3.7-3.3-7.3-6.8-11.1
		C132.5,99.9,130.5,100,129.1,104.6L129.1,104.6z M107.9,69.3c-1.9,4.7-3.1,9.3-2.6,13.1c0.6,4.4,3.8,8.1,8.5,7.5
		c4.7-0.6,7-5,6.4-9.4c-0.5-3.8-2.5-7.6-5.6-11.7C111.7,64.9,109.7,64.8,107.9,69.3L107.9,69.3z"/>
	<path class="st0" d="M561.7,151.9c-52.5,30.2-119.1,32.4-175.3,0l13.2-22.9c47.7,27.6,104.4,25.7,148.9,0L561.7,151.9L561.7,151.9z
		"/>
	<path class="st1" d="M546.2,125c-43.2,24.9-98.1,26.7-144.4,0L418,96.9h111.9L546.2,125L546.2,125z M441.6,56.1L474,0l32.4,56.1
		H441.6L441.6,56.1z"/>
	<path class="st2" d="M506.8,104.6c-1.4,4.9-2.1,9.6-1.3,13.3c1,4.3,4.6,7.7,9.3,6.6c4.6-1.1,6.4-5.7,5.4-10
		c-0.9-3.7-3.3-7.3-6.8-11.1C510.1,99.9,508.1,100,506.8,104.6L506.8,104.6z M441.2,104.6c1.4,4.9,2.1,9.6,1.3,13.3
		c-1,4.3-4.6,7.7-9.3,6.6c-4.6-1.1-6.4-5.7-5.4-10c0.9-3.7,3.3-7.3,6.8-11.1C437.8,99.9,439.8,100,441.2,104.6L441.2,104.6z
		 M477.2,110.2c2.5,4.5,4.3,8.8,4.3,12.7c0,4.4-2.8,8.5-7.5,8.5c-4.7,0-7.5-4.1-7.5-8.5c0-3.8,1.6-7.9,4.1-12.3
		C472.9,106.4,474.9,106,477.2,110.2L477.2,110.2z M477.2,30.2c2.5,4.5,4.3,8.8,4.3,12.7c0,4.4-2.8,8.5-7.5,8.5
		c-4.7,0-7.5-4.1-7.5-8.5c0-3.8,1.6-7.9,4.1-12.3C472.9,26.3,474.9,26,477.2,30.2L477.2,30.2z"/>
	<path class="st0" d="M368.8,151.9c-52.5,30.2-119.1,32.4-175.3,0l13.2-22.9c47.7,27.6,104.4,25.7,148.9,0L368.8,151.9L368.8,151.9z
		"/>
	<path class="st1" d="M353.3,125c-43.2,24.9-98.1,26.7-144.4,0L281.1,0L353.3,125L353.3,125z M281.1,55.4
		c22.1,0,39.9,17.9,39.9,39.9s-17.9,39.9-39.9,39.9c-22.1,0-39.9-17.9-39.9-39.9S259.1,55.4,281.1,55.4L281.1,55.4z"/>
	<path class="st2" d="M234.6,104.9c0.8,4,0.9,7.7-0.1,10.6c-1.1,3.3-4.3,5.7-7.8,4.5c-3.6-1.2-4.6-5-3.5-8.3c1-2.9,3.2-5.5,6.2-8.2
		C232.3,100.9,233.9,101.2,234.6,104.9L234.6,104.9z M244.5,121.2c0.7,3.6,0.9,6.9,0.1,9.5c-1,3-3.7,5.2-6.9,4.1
		c-3.2-1-4.2-4.4-3.2-7.4c0.8-2.6,2.8-5,5.4-7.4C242.4,117.7,243.8,117.9,244.5,121.2L244.5,121.2z M318.4,121.2
		c-0.7,3.6-0.9,6.9-0.1,9.5c1,3,3.7,5.2,6.9,4.1c3.2-1,4.2-4.4,3.2-7.4c-0.8-2.6-2.8-5-5.4-7.4C320.4,117.7,319,117.9,318.4,121.2
		L318.4,121.2z M328.3,104.9c-0.8,4-0.9,7.7,0.1,10.6c1.1,3.3,4.3,5.7,7.8,4.5c3.6-1.2,4.6-5,3.5-8.3c-1-2.9-3.2-5.5-6.2-8.2
		C330.6,100.9,329,101.2,328.3,104.9L328.3,104.9z M290.6,37.9c-1.5,3.8-2.5,7.4-2.1,10.4c0.4,3.5,3,6.4,6.8,5.9
		c3.7-0.5,5.5-4,5.1-7.4c-0.4-3-2-6-4.4-9.3C293.6,34.4,292,34.4,290.6,37.9L290.6,37.9z M271.7,37.9c1.5,3.8,2.5,7.4,2.1,10.4
		c-0.4,3.5-3,6.4-6.8,5.9c-3.7-0.5-5.5-4-5.1-7.4c0.4-3,2-6,4.4-9.3C268.7,34.4,270.2,34.4,271.7,37.9L271.7,37.9z M283.6,18.5
		c1.9,3.4,3.3,6.7,3.3,9.7c0,3.4-2.1,6.5-5.7,6.5c-3.6,0-5.7-3.1-5.7-6.5c0-2.9,1.2-6,3.1-9.4C280.3,15.6,281.8,15.3,283.6,18.5
		L283.6,18.5z"/>
	<path class="st0" d="M754.5,151.9c-52.5,30.2-119.1,32.4-175.3,0l13.2-22.9c47.7,27.6,104.4,25.7,148.9,0L754.5,151.9L754.5,151.9z
		"/>
	<path class="st1" d="M739,125c-43.2,24.9-98.1,26.7-144.4,0L666.8,0l9.3,16.2c-1.1,1.2-2,2.6-2.6,4.2c-0.8,2.1-0.9,4.3-0.6,6.4
		c-1.6,1.4-2.9,3.2-3.7,5.3c-2.2,6.1,0.6,12.9,6.5,15.6c-1.2,6,2.1,12.1,7.9,14.2c1.5,0.6,3.1,0.8,4.6,0.8c1.1,3.6,3.8,6.6,7.6,7.9
		c2.1,0.8,4.3,0.9,6.4,0.6c1.4,1.6,3.2,2.9,5.3,3.7c0.9,0.3,1.8,0.5,2.7,0.7L739,125L739,125z"/>
	<path class="st2" d="M670.1,110.2c2.5,4.5,4.3,8.8,4.3,12.7c0,4.4-2.8,8.5-7.5,8.5c-4.7,0-7.5-4.1-7.5-8.5c0-3.8,1.6-7.9,4.1-12.3
		C665.8,106.4,667.7,106,670.1,110.2L670.1,110.2z M634,104.6c1.4,4.9,2.1,9.6,1.3,13.3c-1,4.3-4.6,7.7-9.3,6.6
		c-4.6-1.1-6.4-5.7-5.4-10c0.9-3.7,3.3-7.3,6.8-11.1C630.7,99.9,632.7,100,634,104.6L634,104.6z M655.3,69.3
		c1.9,4.7,3.1,9.3,2.6,13.1c-0.6,4.4-3.8,8.1-8.5,7.5c-4.7-0.6-7-5-6.4-9.4c0.5-3.8,2.5-7.6,5.6-11.7
		C651.5,64.9,653.5,64.8,655.3,69.3L655.3,69.3z M699.6,104.6c-1.4,4.9-2.1,9.6-1.3,13.3c1,4.3,4.6,7.7,9.3,6.6
		c4.6-1.1,6.4-5.7,5.4-10c-0.9-3.7-3.3-7.3-6.8-11.1C703,99.9,701,100,699.6,104.6L699.6,104.6z M678.4,69.3
		c-1.9,4.7-3.1,9.3-2.6,13.1c0.6,4.4,3.8,8.1,8.5,7.5c4.7-0.6,7-5,6.4-9.4c-0.5-3.8-2.5-7.6-5.6-11.7
		C682.2,64.9,680.2,64.8,678.4,69.3L678.4,69.3z"/>
</g>
</svg>
