<?xml version="1.0" encoding="utf-8"?>
<!-- Generator: Adobe Illustrator 24.3.0, SVG Export Plug-In . SVG Version: 6.00 Build 0)  -->
<svg version="1.1" id="Layer_1" xmlns="http://www.w3.org/2000/svg" xmlns:xlink="http://www.w3.org/1999/xlink" x="0px" y="0px"
	 viewBox="0 0 864 864" style="enable-background:new 0 0 864 864;" xml:space="preserve">
<style type="text/css">
	.st0{fill-rule:evenodd;clip-rule:evenodd;}
</style>
<g>
	<path d="M397.86,288.16c0.36-0.87,0.14-48.56,0.12-53.01c0-4.47,0.74-8.81,1.12-13.41c3.72,0,7.2-1.12,10.8-1.12
		c3.97,0.12,6.21-2.36,6.46-6.21c0.19-5.79-0.32-10.59-7.45-10.55l-39.85,0.12c-5.84,1.07-5.46,5.72-5.46,10.18
		c0,4.35,3.1,6.58,6.58,6.58c1.7,0,10.01,0.49,10.68,1.49c0.37,3.71,0.99,7.3,0.99,11.05c0,4.91-0.22,53.87,0.25,54.99
		C383.68,294.11,396.5,293.92,397.86,288.16L397.86,288.16z M477.43,247.94c0-5.34,0-10.68,0-16.01c0-2.98-0.25-5.83-1.12-8.69
		c-3.72-13.9-18.12-21.97-30.66-18.62c-13.33,3.61-20.19,13.9-20.36,27.31c0,9.81,0,19.61,0,29.3c0,10.49,2.33,19.24,11.55,25.57
		c8.32,5.71,17.26,6.08,26.19,1.74c9.19-4.48,14.4-14.2,14.4-24.33C477.43,258.86,477.43,253.4,477.43,247.94L477.43,247.94z
		 M460.55,248.06c0,5.21,0,10.3,0,15.52c0,14.47-18.62,15.29-18.62-1.24c0-9.81,0-19.61,0-29.42c0-5.88,2.03-10.83,8.44-12.17
		c2.86-0.62,6.83,1.37,8.44,4.22c1.24,1.99,1.74,4.1,1.74,6.33V248.06L460.55,248.06z"/>
	<path d="M293.52,411.53c5.11-0.34,11.64-1.81,16.25-1.81c12.86-0.68,23.69-5.42,32.49-14.89c11.51-12.41,15.8-26.85,11.73-43.55
		c-4.96-20.53-22.57-34.98-43.78-36.11c-12.41-0.45-24.82,0-37.46-0.23c-4.06,0-7.45,1.35-9.7,4.74c-1.81,3.61-2.26,7.22-2.26,11.06
		c0,43.1,0,85.98,0,129.08c0,3.84,0.45,7.45,2.93,11.51c4.8,7.76,25.35,5.43,27.3-3.16c0.76-9.17,0.53-19.02,0.23-28.21
		C291.27,430.48,291.49,421.23,293.52,411.53L293.52,411.53z M293.52,377.45c-2.98-18.88-2.87-11.36,0-30.46
		c4.36-1.45,7.1-1.25,11.73-1.58c3.84-0.23,7.45,0.68,11.06,2.48c11.41,6.04,11.6,22.75-0.23,29.11
		C308.89,380.87,300.98,379.05,293.52,377.45L293.52,377.45z M465.02,318.56c-2.71-3.84-6.77-4.74-11.51-4.74
		c-22.57,0-45.13,0-67.92,0c-11.5,0-13.09,5.53-13.09,14.89c0,43.33,0,86.65,0,129.75c0,8.39-0.8,7.77,4.96,13.54
		c4.96,1.58,9.25,1.81,13.54,1.81c19.41,0,38.81,0,57.99,0c1.81,0,3.61,0.23,5.42,0c4.06-0.45,8.12-1.35,10.61-4.74
		c2.35-5.1,3.16-11.75,1.35-17.15c-2.66-7.8-7.46-8.35-14.44-8.35c-4.96,0-10.15,0.23-15.12,0c-9.27-0.22-21.35-1.35-29.56-1.35
		c-1.35-0.23-2.71,0-3.84-1.58c0-1.13,0.23-2.71,0-4.06c-1.81-7-1.81-13.99,0-20.99c0.45-1.81-0.68-3.61,1.13-5.19
		c6.52-0.65,12.82-1.81,19.41-1.81c3.44,0,16.11,0.19,18.96-0.23c5.42-0.68,8.8-4.06,9.25-9.48c0.52-10.34,1.4-17.11-5.42-18.96
		c-7.08-2.02-15.59-1.58-23.02-1.58c-6.54,0.23-13.09-0.23-19.63-2.03c-2.71-14.89-2.71-14.89,0.23-30.01
		c6.18-0.56,11.66-1.81,17.83-1.81c10.8,0,22.95,0.18,33.62-0.23c6.77-0.23,11.06-4.29,11.28-10.83
		C467.51,328.71,467.73,323.75,465.02,318.56L465.02,318.56z M546.03,467.04c0.65-1.58,0.26-88.27,0.23-96.36
		c0-8.12,1.35-16.02,2.03-24.37c6.77,0,13.09-2.03,19.63-2.03c7.22,0.23,11.28-4.29,11.73-11.28c0.34-10.52-0.58-19.24-13.54-19.18
		c-22.79,0.23-45.81,0.23-68.6,0.23c-1.35,0-2.48-0.23-3.84,0c-10.62,1.95-9.93,10.39-9.93,18.5c0,7.9,5.64,11.96,11.96,11.96
		c3.09,0,18.2,0.89,19.41,2.71c0.67,6.74,1.81,13.27,1.81,20.08c0,30.01,0,60.03,0,90.04c0,3.16,0.23,6.54,0.45,9.93
		C520.26,478.6,544.61,476.49,546.03,467.04L546.03,467.04z"/>
	<path d="M208.73,612.29c-0.7-4.57-1.76-8.97-2.64-13.36c-1.93-9.14-3.69-18.29-5.45-27.29c-3.56-17.8-7.08-35.62-10.9-53.37
		c-0.7-4.25-1.41-8.29-2.46-12.16c-1.41-5.1-4.22-7.42-9.5-7.77c-2.46,0-5.1,0-7.74,0.18c-6.32,0.35-8.79,5.22-9.67,10.93
		L138.91,615.9c-0.21,4.28,2.27,5.87,6.15,6.59c1.76,0.18,3.52,0.35,5.28,0.53c4.57,0.18,8.26-1.76,11.43-5.22
		c1.58-1.73,1.58-4.34,2.99-5.89c2.46-0.35,4.57-0.88,6.86-1.2c3.55-0.41,8.56,0.48,11.96,1.41c1.93,5.71,5.28,9.99,11.43,10.9
		C203.96,624.3,210.41,622.54,208.73,612.29L208.73,612.29z M169.86,585.04c1.23-6.68,2.46-13.04,3.69-19.37
		c1.58,0.18,1.76,1.23,1.93,2.46c1.06,5.48,2.11,11.11,3.17,17.09C175.84,586.09,172.85,586.09,169.86,585.04L169.86,585.04z
		 M249,596.82c-0.76-5.28-1.41-10.6-1.41-16c0-23.56,0-47.13,0.18-70.87c0-5-1.2-11.8-7.39-12.31c-3.17-0.18-6.51-0.18-9.5,0
		c-4.04,0.35-6.51,3.17-6.86,7.03c-0.18,1.41-0.18,2.81-0.18,4.22c0,33.94,0,67.7,0,101.64c0,4.44,0.06,8.42,4.75,10.55
		c3.34,0.88,6.68,1.06,10.02,1.06c14.77,0,29.72,0,44.67,0c6.29,0,12.07,0.23,14.6-6.51c0-2.64,0.18-5.98,0-9.32
		c-0.35-4.4-3.17-7.21-7.56-7.56c-3.02-0.34-10.43-0.18-13.72-0.18C267.46,598.58,258.49,599.28,249,596.82L249,596.82z
		 M336.05,596.82c-0.76-5.28-1.41-10.6-1.41-16c0-23.56,0-47.13,0.18-70.87c0-5-1.2-11.8-7.39-12.31c-3.17-0.18-6.51-0.18-9.5,0
		c-4.04,0.35-6.51,3.17-6.86,7.03c-0.18,1.41-0.18,2.81-0.18,4.22c0,33.94,0,67.7,0,101.64c0,4.44,0.06,8.42,4.75,10.55
		c3.34,0.88,6.68,1.06,10.02,1.06c14.77,0,29.72,0,44.67,0c3.52,0,7.03,0,10.55-1.41c1.58-0.88,2.99-2.29,4.04-5.1
		c0-2.64,0.18-5.98,0-9.32c-0.35-4.4-3.17-7.21-7.56-7.56c-3.02-0.34-10.43-0.18-13.72-0.18
		C354.51,598.58,345.54,599.28,336.05,596.82L336.05,596.82z M482.32,621.09c8.19,2.82,17.57,2.28,19.56-3.87
		c0.51-1.23,0.2-68.79,0.18-75.09c0-6.33,1.06-12.49,1.58-18.99c5.28,0,10.2-1.58,15.3-1.58c5.63,0.18,8.79-3.34,9.14-8.79
		c0.26-8.2-0.45-15-10.55-14.95c-17.76,0.18-35.7,0.18-53.46,0.18c-1.06,0-1.93-0.18-2.99,0c-8.27,1.52-7.74,8.1-7.74,14.42
		c0,6.15,4.4,9.32,9.32,9.32c2.29,0,4.75,0.18,7.03,0.53c1.41,0,7.34,0.46,8.09,1.58c0.52,5.25,1.41,10.34,1.41,15.65
		c0,23.39,0,46.78,0,70.17C479.19,616.74,478.71,619.68,482.32,621.09L482.32,621.09z M566.24,546c-1.76-5.8-1.76-11.61-1.76-17.59
		c0.18-6.16,0-12.31,0.18-18.46c0-5.2-1.16-11.85-7.56-12.31c-3.17-0.18-6.33-0.18-9.5,0c-3.87,0.35-6.33,3.17-6.68,7.03
		c-0.18,1.41-0.18,2.81-0.18,4.22c0,33.94,0,67.88,0,101.64c0,4.23,0.05,8.93,4.92,10.55c5.98,1.41,11.96,2.11,16.88-2.11
		c1.76-3.17,2.11-5.98,2.11-9.14c-0.18-7.39,0-14.95-0.18-22.51c-0.18-4.92,1.06-9.67,1.58-14.42c13.84-2.6,10.38-1.89,23.56,0
		c0.47,4.68,1.41,9.14,1.41,13.89c0,7.74,0,15.48,0,23.04c-0.18,3.17,0.18,5.98,1.76,8.79c2.46,2.81,5.98,3.52,9.67,3.52
		c3.87,0,7.39-0.53,10.38-3.69c1.23-2.46,1.76-5.28,1.76-8.44V509.59c0-5.79-1.52-11.86-8.44-12.13c-1.93,0-4.04,0-5.98,0
		c-5.74,0-8.03,3.44-9.14,8.44v28.49c0,4.22-0.88,8.09-1.76,11.78C581.36,548.28,573.8,548.46,566.24,546L566.24,546z M699.89,501.5
		c-2.11-2.99-5.28-3.69-8.97-3.69c-17.59,0-35.17,0-52.93,0c-8.92,0-10.2,4.25-10.2,11.61c0,33.76,0,67.53,0,101.12
		c0,6.54-0.63,6.06,3.87,10.55c3.87,1.23,7.21,1.41,10.55,1.41c15.12,0,30.25,0,45.2,0c1.41,0,2.81,0.18,4.22,0
		c3.17-0.35,6.33-1.05,8.27-3.69c1.84-3.98,2.46-9.15,1.06-13.37c-2.07-6.08-5.82-6.51-11.25-6.51c-3.87,0-7.91,0.18-11.78,0
		c-9.38-0.22-24.15,3.41-26.03-5.45c-1.41-5.45-1.41-10.9,0-16.35c0.35-1.41-0.53-2.81,0.88-4.05c1.76-0.18,3.87,0,5.63-0.53
		c5.8-1.84,18.1-0.22,24.27-1.06c4.22-0.53,6.86-3.17,7.21-7.39c0.28-5.56,1.27-11.54-4.22-14.77c-5.52-1.58-12.15-1.23-17.94-1.23
		c-5.1,0.18-10.2-0.18-15.3-1.58c-2.11-11.61-2.11-11.61,0.18-23.39c4.82-0.44,9.09-1.41,13.89-1.41c8.41,0,17.89,0.14,26.2-0.18
		c5.28-0.18,8.62-3.34,8.79-8.44C701.82,509.42,702,505.55,699.89,501.5L699.89,501.5z"/>
	<path d="M193.96,814.68c5.26,3.59,7.66,4.55,12.92,4.55c7.42,0.24,14.6,0,22.01,0c21.07,0,38.4-1.44,52.64-19.86
		c11.07-14.31,11.73-27.85,11.73-45.23c0-15.31-0.24-30.87,0-46.18c0.24-5.98-0.48-11.96-1.91-17.71
		c-5.26-23.45-23.93-39-47.38-40.2c-13.16-0.72-26.32-0.24-39.72-0.48c-4.31,0-7.9,1.67-10.53,5.02c-1.68,3.83-2.15,7.66-2.15,11.96
		c0,45.23,0,90.45,0,135.92C191.57,806.54,191.81,810.61,193.96,814.68L193.96,814.68z M226.75,683.31
		c6.94-1.91,15.55-1.91,21.3,0.24c9.2,3.2,12.92,13.15,12.92,22.25c-0.24,18.9-0.24,37.81,0,56.71c0,10.2-4.37,21.19-15.31,23.45
		c-6.42,1.6-12.94,0.36-19.38-0.72c-0.16-0.35-2.39-16.08-2.39-17.23c0.24-22.25,0.24-44.27,0.24-66.52
		C224.11,698.61,225.15,684.91,226.75,683.31L226.75,683.31z M411.24,734.99c0-10.29,0-20.58,0-30.87c0-5.74-0.48-11.25-2.15-16.75
		c-7.18-26.8-34.94-42.35-59.11-35.89c-25.69,6.96-38.91,26.8-39.24,52.64c0,18.9,0,37.81,0,56.47c0,5.5,0.24,10.77,1.2,16.27
		c2.39,13.88,9.57,25.13,21.06,33.02c16.03,11.01,33.26,11.73,50.49,3.35c10.77-5.26,18.43-13.64,23.21-24.89
		c3.11-6.94,4.55-14.36,4.55-22.02C411.24,756.05,411.24,745.52,411.24,734.99L411.24,734.99z M378.7,735.23
		c0,10.05,0,19.86,0,29.91c0,4.31-0.96,8.38-2.87,12.44c-5.5,10.77-22.49,11.96-29.43,0.48c-3.18-5.17-3.59-9.48-3.59-15.31
		c0-18.9,0-37.81,0-56.71c0-11.33,3.92-20.87,16.27-23.45c5.5-1.2,13.16,2.63,16.27,8.14c2.39,3.83,3.35,7.9,3.35,12.2V735.23
		L378.7,735.23z M527.78,693.6c0.72-2.39,0.72-5.03-0.24-7.66c-7.66-26.32-35.65-40.92-59.58-34.22
		c-14.36,4.07-25.6,12.44-32.3,26.08c-4.31,8.38-5.98,17.23-6.22,26.56c0,17.47,0.24,34.94,0,52.4
		c-0.15,21.38,3.4,40.38,22.49,53.36c9.33,6.22,19.86,9.33,31.35,8.38c13.64-0.96,24.89-6.46,33.98-16.51
		c8.38-9.33,12.44-20.58,12.68-33.02c0-7.58,0-15.16,0-22.73c-0.72-6.22-4.31-9.81-10.53-10.29c-0.96-0.24-2.15-0.24-3.11-0.24
		c-4.17,0-21.66-0.24-24.41,0.24c-4.79,0.72-8.38,3.11-9.57,8.38c-1.2,4.79-1.44,9.57-0.24,14.12c1.68,6.46,5.26,10.53,12.2,11.01
		c0.72,0,1.44,0.24,2.39,0.72c-1.2,5.5-3.35,10.29-7.9,13.4c-4.55,3.35-9.57,3.11-13.4,2.15c-9.02-3.28-13.88-11.69-13.88-21.06
		c0-20.1,0-39.96,0-59.82c0-13.5,6.37-19.79,18.66-22.25c6.46,0.72,11.49,3.59,15.31,8.38c2.03,3.05,6.02,5.95,9.33,7.42
		c4.55,1.67,9.09,1.91,13.64,1.2C522.27,698.86,525.86,697.9,527.78,693.6L527.78,693.6z M642.88,697.66
		c4.31-3.59,4.55-7.66,3.11-12.2c-7.42-24.89-34.22-40.44-58.39-33.98c-14.6,3.83-26.32,11.96-33.26,25.84
		c-5.03,10.53-7.18,21.3-4.79,33.02c2.39,13.4,9.09,23.93,21.3,30.39c10.93,5.89,19.27,7.3,30.39,11.01
		c8.61,3.28,11.13,4.9,13.88,13.16c2.63,5.74-2.39,16.27-8.38,19.38c-5.26,2.63-14.12,2.87-19.62-2.15
		c-2.39-2.39-4.55-4.55-6.7-7.18c-2.15-2.39-5.03-4.55-8.14-4.79c-4.79-0.48-9.81-0.72-14.6,0c-5.98,0.72-8.85,6.22-7.18,11.96
		c3.35,11.73,10.05,21.06,19.86,27.76c16.03,10.77,33.26,11.73,50.73,3.35c5.98-2.87,11.49-6.94,15.55-12.44
		c8.14-10.53,12.68-22.25,11.73-35.89c-1.4-19.28-11.77-33.83-29.91-40.44c-8.38-3.05-16.4-5.14-24.41-7.9
		c-9.95-3.79-14.18-10.18-12.44-20.58c1.48-8.07,11.75-15.86,21.06-12.68c4.31,1.44,7.9,3.35,10.29,7.18
		c3.11,4.31,6.94,7.42,12.44,8.38C631.39,700.06,637.13,700.06,642.88,697.66L642.88,697.66z"/>
	<path class="st0" d="M239.58,236.77h73.68c2.8,0,5.1,2.29,5.1,5.1v5.61c0,2.8-2.29,5.1-5.1,5.1h-73.68c-2.8,0-5.1-2.29-5.1-5.1
		v-5.61C234.48,239.06,236.78,236.77,239.58,236.77L239.58,236.77z M527.65,236.77h73.67c2.8,0,5.1,2.29,5.1,5.1v5.61
		c0,2.8-2.29,5.1-5.1,5.1h-73.67c-2.8,0-5.1-2.29-5.1-5.1v-5.61C522.55,239.06,524.85,236.77,527.65,236.77L527.65,236.77z"/>
	<path d="M119.88,261.73c-0.8-3.09-2.28-5.1-4.1-7.01c-20.52-21.34-40.81-42.68-61.1-64.23c-1.82-1.91-3.86-3.6-6.36-4.22
		c-2.07-0.38-4.06,0.01-5.51,1.18c-2.13,1.81-4.26,3.62-6.06,5.77c-2.37,2.68-2.23,5.97-0.11,8.66c0.74,1.01,1.6,1.9,2.45,2.8
		c20.62,21.67,41.13,43.23,61.74,64.91c1.28,1.35,2.78,2.7,3.86,3.6c2.17,0.71,3.82,0.86,5.59,0.25
		C115.06,270.6,119.3,267.42,119.88,261.73L119.88,261.73z M149.05,206.82c0.75,1.9,1.67,3.15,3.07,4.31
		c4.87,4.33,10.4,7.02,16.72,7.99c9.76,1.64,18.48-0.95,25.91-7.28c10.33-8.74,13.5-22.64,9.5-34.67c-1.24-3.95-3.08-7.71-5.2-11.32
		c-10.34-17.65-20.69-35.3-31.03-52.96c-0.63-1.07-1.25-2.14-2.01-3.13c-1.91-2.65-4.83-3.64-7.87-2.39
		c-2.7,1.22-5.24,2.71-7.62,4.47c-2.31,1.89-3.18,4.38-2.42,7.52c0.54,1.84,1.48,3.44,2.5,5.18c9.87,16.85,19.75,33.7,29.62,50.55
		c2.51,4.28,4.68,7.53,4.73,12.68c-0.17,3.69-1.64,6.71-4.9,8.8c-2.86,1.86-6.09,2.49-9.35,1.52c-1.91-0.5-3.68-1.07-5.59-1.57
		c-2.62-0.8-5.23-0.35-7.51,0.99c-1.61,0.94-3.08,1.8-4.55,2.66C150.64,201.58,149.11,203.56,149.05,206.82L149.05,206.82z
		 M248.5,164.8c-7.72,0.18-11.65-6.4-14.03-12.8c-6.78-18.64-13.9-37.33-20.83-55.92c-0.59-1.6-0.99-3.1-1.68-4.5
		c-1.73-3.32-4.58-4.74-8.32-3.68c-2.29,0.52-4.61,1.39-6.83,2.54c-3.38,1.59-4.55,4.67-3.68,8.32c0.22,0.58,0.49,1.31,0.7,1.89
		c7.9,21.21,15.74,42.27,23.64,63.47c1.03,2.76,2.49,5.36,4.1,7.9c8.99,13.03,27.37,18.42,43.81,8.82
		c7.65-5.66,13.09-12.81,14.36-22.72c0.85-6.6-0.01-12.9-2.28-19c-7.21-19.81-14.63-39.71-21.98-59.46
		c-0.87-2.32-2.02-4.54-3.8-6.19c-1.81-1.31-3.99-1.82-5.93-1.26c-2.72,0.68-5.48,1.71-7.84,2.92c-3.23,1.53-4.4,4.62-3.5,7.92
		c0.74,3.41,2.82,8.02,4.08,11.38c6.22,16.7,12.44,33.41,18.67,50.11c1.68,4.5,2.57,9.13,1.02,13.84
		C255.31,162.34,253.87,164.2,248.5,164.8L248.5,164.8z M348.65,80.93c2.31-2.81,1.97-5.42,0.5-8.14
		c-7.73-14.94-26.67-21.59-41.26-14.56c-8.83,4.2-15.3,10.8-18.04,20.47c-1.92,7.31-1.99,14.42,0.95,21.59
		c3.14,8.24,8.68,14.13,17.23,16.76c7.67,2.42,13.14,2.31,20.67,3.33c5.88,1.05,7.67,1.77,10.42,6.69
		c2.37,3.34,0.45,10.64-2.98,13.35c-3.03,2.31-8.64,3.54-12.75,1c-2.98-2.03-7.29-6.22-10.89-5.82c-3.1,0.27-6.33,0.73-9.29,1.77
		c-3.72,1.18-4.88,5.03-3.12,8.48c3.55,7.06,8.94,12.18,16,15.26c11.5,4.91,22.58,3.44,32.68-4.01c3.46-2.55,6.47-5.81,8.39-9.8
		c3.9-7.68,5.38-15.7,3.12-24.26c-2.14-7.95-6.37-14.41-13.62-18.55c-7.86-4.37-17.96-4.65-26.79-5.63
		c-6.79-1.21-10.25-4.76-10.41-11.59c0.05-5.78,5.95-11.51,11.86-10.62c2.91,0.39,5.43,1.18,7.42,3.32c2.5,2.36,5.31,3.88,8.93,3.82
		C341.63,83.84,345.29,83.14,348.65,80.93L348.65,80.93z M412.31,151.51c0.11-2.33,0.06-4.34,0.02-6.51
		c-0.26-19.84-0.67-39.83-1.24-59.66c-0.12-5.58,0.7-11.02,1.05-16.76c4.65-0.1,8.96-1.58,13.45-1.68c4.96,0.05,7.69-3.11,7.9-7.92
		c-0.07-3.41,0.17-6.67-1.76-9.89c-1.91-2.6-4.72-3.16-7.82-3.09c-15.65,0.48-31.45,0.81-47.1,1.14c-0.93,0.02-1.71-0.12-2.63,0.06
		c-3.09,0.68-5.38,2.13-6.24,5.56c-0.57,2.49-0.36,4.81-0.31,7.29c0.11,5.42,4.05,8.13,8.38,8.04c3.4-0.07,7.51,0.26,10.87,0.86
		c0.93-0.02,1.86-0.19,2.5,0.72c0.56,4.62,1.43,9.09,1.53,13.77c0.43,20.61,0.86,41.22,1.29,61.83c0.05,2.17,0.25,4.49,0.45,6.81
		C394.73,158.22,409.87,158.52,412.31,151.51L412.31,151.51z M551.85,171.09c3.57-2.19,4.77-3.54,5.74-6.98
		c1.82-6.7,3.84-12.97,5.78-19.6c4.34-15.47,9.06-30.87,13.37-46.26c0.73-3.83,3.79-12.67,5.1-16.88c0.88-2.71,1.98-5.41,2.51-8.2
		c0.71-3.23-0.67-6.62-5.96-7.63c-1.83-0.35-3.5-0.67-5.18-0.98c-4.02-0.45-7.1,0.86-8.72,4.36c-4.45,8.48-6.12,16.58-8.67,25.67
		c-0.29,1.52-0.73,3.02-1.02,4.54c-1.16-7.16-0.47-14.13-0.37-20.45c-0.43-3.99-0.82-13.52-3.19-16.41c-3.8-3.25-8-3.57-12.17-4.05
		c-3.26-0.3-5.89,1.09-7.54,3.96c-2.69,5.01-5.53,9.99-7.51,15.45c-1.72,4.91-3.59,9.76-5.46,14.61c-0.34-9.64,1.55-18.84,1.4-28.95
		c0.13-2.34-0.07-4.59-1.52-6.94c-3.49-3.42-10.88-6.05-15.44-3.41c-2.39,1.78-3.07,3.7-3.32,5.86c-0.68,9.52-1.52,19.25-2.47,28.74
		c-1.39,13.95-2.05,28.21-3.75,42.1c-0.73,7.17-1.18,14.5-1.93,21.77c-0.13,2.34-0.05,4.41,0.89,6.95
		c4.51,4.49,10.08,5.07,15.85,4.59c4.6-1.81,6.09-5.47,7.6-9.28c3.75-9.65,7.07-16.1,11.25-25.15c1.51-3.81,3.21-7.75,4.72-11.57
		c1.8,4.52-0.29,9.21,0.86,13.73c2.08,9.91,0.72,19.78,1.29,29.72c0.42,6.1,1.9,8.28,8.18,10.1
		C545.14,171.55,548.18,172.13,551.85,171.09L551.85,171.09z M631.01,200c2.88-6.82,3.34-10.15,4.83-17.42
		c1.56-8.09,3.27-16.12,4.92-24.03c1.59-7.74,3.12-15.37,4.71-23.11c2.28-10.91,5.44-23.76,6.9-34.69c0.6-4.62-0.89-7.47-5.05-9.56
		c-2-0.84-4.14-1.75-6.34-2.51c-3.34-1.24-6.51-0.53-9.03,2.27c-0.91,0.96-1.88,2.07-2.57,3.29c-9.34,13.75-18.74,27.67-28.08,41.42
		c-8.71,12.67-17.35,25.17-25.82,37.67c-0.65,3.19-0.17,5.54,2.74,7.46c1.37,0.75,2.74,1.49,4.1,2.24c3.65,1.71,7.31,1.4,11.07-0.32
		c1.88-0.86,2.77-2.98,4.45-3.76c6.7,1.77,9.61,2.22,15.21,6.61c-0.39,5.3,0.86,9.92,5.55,12.77
		C622.34,200.6,626.36,202.63,631.01,200L631.01,200z M611.18,158.88c3.29-5,6.47-9.75,9.64-14.47c1.23,0.69,1.01,1.6,0.73,2.66
		c-1.02,4.81-2.09,9.74-3.29,14.96C615.67,161.79,613.24,160.76,611.18,158.88L611.18,158.88z M709.3,182.52
		c0.61-2.93,0.96-5.47,1.49-7.72c2.26-9.23,3.2-22.81,5.4-33.43c0.44-2.67,1-5.26,1.36-7.8c0.34-3.66-0.48-6.96-3.48-9.45
		c-2.3-1.86-4.86-3.33-7.42-4.8c-3.16-1.68-6.33-0.77-8.44,1.92c-0.8,0.96-1.48,2-2.15,3.04c-16.26,25.11-32.43,50.09-48.69,75.2
		c-1.01,1.56-1.98,3.34-2.6,4.59c-0.18,2.28,0.05,3.91,1.06,5.49c3.88,3.99,7.97,7.37,13.63,6.61c2.82-1.5,4.43-3.41,5.86-5.62
		c3.07-5.03,6.19-9.84,9.43-14.57c3.51-5.43,8.04-10.71,11.82-16.54c0.42-0.65,1.1-1.13,1.82-1.96c0.05,4.3-2.1,17.37-3.01,22.05
		c-1.49,7.72-2.93,15.65-4.5,23.49c-0.73,3.41-0.6,6.63,0.95,9.66c3.32,4,7.35,6.61,12.7,8.04c5.46-1.7,4.44-0.87,7.79-6.04
		c16.09-24.85,32.18-49.7,48.18-74.42c0.67-1.04,1.48-2,2.02-3.12c2.01-3.68,1.28-7.11-2.15-9.52c-1.61-1.23-3.17-2.24-4.86-3.33
		c-2.34-1.52-4.88-1.87-7.66-0.71c-2.73,2.38-3.05,2.43-5.08,5.57c-5.54,8.56-12.12,16.73-17.34,24.78
		c-1.43,2.21-2.86,4.42-4.3,6.63C710.78,181.08,710.23,181.65,709.3,182.52L709.3,182.52z M741.02,275.49
		c1.71-1.58,3.1-3.04,4.6-4.61c13.79-14.27,27.57-28.75,41.13-43.23c3.85-4.04,8.26-7.33,12.55-11.17c3.37,3.2,7.47,5.19,10.73,8.28
		c3.49,3.53,7.64,3.21,11.18-0.06c2.35-2.47,4.82-4.62,5.71-8.26c0.47-3.19-1.13-5.56-3.37-7.7c-11.45-10.68-22.9-21.57-34.25-32.36
		c-0.67-0.64-1.13-1.29-1.91-1.82c-2.67-1.69-5.32-2.28-8.34-0.45c-2.16,1.37-3.65,3.16-5.36,4.96c-3.74,3.93-2.85,8.62,0.29,11.61
		c1.54,1.46,8.63,9.06,8.38,10.53c-2.86,3.67-5.38,7.46-8.61,10.85c-14.21,14.94-28.42,29.87-42.62,44.81
		c-1.5,1.57-2.99,3.36-4.48,5.15C724.18,266.38,735.04,278.41,741.02,275.49L741.02,275.49z"/>
</g>
</svg>
