<?xml version="1.0" encoding="utf-8"?>
<!-- Generator: Adobe Illustrator 24.3.0, SVG Export Plug-In . SVG Version: 6.00 Build 0)  -->
<svg version="1.1" id="Layer_1" xmlns="http://www.w3.org/2000/svg" xmlns:xlink="http://www.w3.org/1999/xlink" x="0px" y="0px"
	 viewBox="0 0 864 864" style="enable-background:new 0 0 864 864;" xml:space="preserve">
<g>
	<path d="M659.52,259.76c0,28.98,13.17,61.15,46.29,70.56c0.75,0.19,2.07,0.56,2.82,0.56h52.12c5.27,0,12.8-4.89,12.8-9.97
		c0-17.12-2.45-34.25-4.33-51.18c-1.13-12.23,7.9-15.05,7.9-23.71c0-7.53-8.84-7.15-14.87-7.15c-6.58,0-29.35-0.56-29.35,8.28
		c0,4.52,6.77,6.02,6.77,10.54c0,4.33-4.89,4.33-8.47,4.33c-16.37,0-30.48-8.66-30.48-24.46c0-10.16,7.53-25.78,20.51-25.78
		c17.88,0,7.53,18.25,25.21,18.25c13.74,0,13.74-12.98,13.74-22.2c0-6.4-0.94-19.76-10.73-19.76c-3.01,0-7.15,2.26-9.78,3.39
		c-6.96,0.38-15.43-3.39-23.9-3.39C678.15,188.07,659.52,230.78,659.52,259.76L659.52,259.76z M582.74,230.91
		c0-12.39,3.76-23.27,10.73-23.27c14.68,0,21.07,33.96,21.07,43.91c0,7.31-1.69,15.93-11.85,15.93
		C585.57,267.48,582.74,242.36,582.74,230.91L582.74,230.91z M542.85,263.81c0,30.42,15.81,67.08,55.13,67.08
		c19.19,0,38.39-9.22,47.98-24.81c5.27-8.47,7.9-22.36,7.9-37.76c0-36.85-15.99-82.32-53.44-82.32
		C558.47,186,542.85,232.6,542.85,263.81L542.85,263.81z M479.63,209.71c15.62,0,18.06,26.34,18.06,36.5
		c0,9.79-1.69,30.86-16.56,30.86c-7.15,0-8.84-7.71-8.84-12.8v-44.6C472.29,216.48,475.49,209.71,479.63,209.71L479.63,209.71z
		 M428.45,317.15c0,5.83,5.46,10.91,11.67,12.04c3.95,0.75,18.63,2.45,24.27,2.45c51.56,0,72.82-20.13,72.82-66.99
		c0-51.56-28.6-74.89-84.49-74.89c-10.16,0-27.85,1.69-27.85,14.11c0,6.21,4.33,6.77,7.9,10.91c2.82,3.58,3.2,12.23,3.2,19.57
		c0,3.39,0,6.4,0,8.28c0,20.51-7.53,36.13-7.53,47.42V317.15L428.45,317.15z M269.97,252.61c1.88,6.77,2.63,11.85,2.63,15.99
		c0,12.42-6.96,15.05-9.6,20.7c0,0.19-0.56,1.51-0.56,1.69v31.42c0,4.33,6.77,9.97,11.67,9.97h33.87c5.27,0,11.67-5.83,11.67-10.54
		v-30.29c0-7.53-11.29-11.29-11.29-37.82c0-5.08,0.94-9.78,4.33-13.92l17.5-21.64c3.95-4.89,20.7-7.34,20.7-15.43
		c0-12.04-11.1-13.17-21.64-13.17c-10.91,0-28.23,1.13-28.23,14.3c0,7.15,4.52,6.02,4.52,9.41c0,2.63-5.64,18.25-11.29,18.25
		c-6.96,0-9.41-9.41-9.41-14.3c0-5.46,8.47-8.47,8.47-14.68c0-12.8-19-12.98-28.98-12.98c-10.35,0-27.47,1.88-27.47,14.3
		c0,9.78,12.98,10.91,16.94,18.25L269.97,252.61L269.97,252.61z M100.05,229.09c0,21.67-13.17,56.54-13.17,62v29.07
		c0,4.7,5.27,11.1,10.91,11.1h36.32c5.08,0,10.91-6.21,10.91-10.54v-30.3c0-4.7-5.27-8.66-9.6-10.35
		c-7.15-2.26-9.22-8.09-9.22-15.24c0-8.47,2.82-19.01,2.82-27.66c0-1.13,0.38-4.52,2.45-4.52c1.32,0,2.07,1.32,2.63,2.26
		l19.76,48.92c1.32,3.01,3.57,6.59,7.71,6.59c3.76,0,12.79,0.38,13.36-2.26l12.61-50.05c0.56-2.26,5.27-4.33,7.53-4.33
		c0.38,0.19,0.38,0.75,0.56,1.32c1.13,6.59,1.69,12.23,1.69,17.34c0,31.11-19.95,34.12-19.95,39.58v28.66
		c0,4.7,5.27,11.7,10.73,11.7l31.99-1.51c5.08,0,10.91-6.05,10.91-10.57v-30.36c0-0.38-0.38-1.88-0.56-2.26
		c-6.77-8.31-12.8-40.93-12.8-67.84c0-7.53,9.79-11.67,9.79-19.19c0-11.85-18.44-12.23-27.85-12.23c-11.48,0-25.78,1.13-28.79,13.74
		c-0.56,2.63-0.56,5.46-1.13,8.09c-1.51,6.77-3.76,14.11-6.21,20.7c-0.56,1.51-2.26,4.52-4.33,4.52c-3.2,0-6.02-6.02-6.58-8.28
		l-9.41-31.61c-2.07-6.77-12.8-7.15-19.01-7.15c-10.54,0-35.19-0.75-35.19,12.98C88.95,213.29,100.05,208.2,100.05,229.09
		L100.05,229.09z"/>
	<path d="M127.07,387.27c-0.94,5.27-1.13,10.16-1.13,15.05c0,9.41,1.13,18.06,1.13,25.97c0,11.1-2.07,20.89-12.04,28.98
		c-0.56,0.56-1.88,3.2-1.88,3.76v30.29c0,4.7,7.34,10.54,12.23,10.54l35.56-1.32c5.83,0,12.04-6.96,12.04-12.04v-27.1
		c0-8.47-13.36-4.33-14.3-70.94c0-0.94-0.56-4.33,0.94-4.33c9.78,0,7.34,17.12,19.57,17.12c10.16,0,10.91-8.47,10.91-15.62
		c0-8.28-4.71-27.1-16.56-27.1c-3.01,0-5.83,1.88-8.84,1.88H123.5c-1.32-0.38-7.34-1.69-8.47-1.69h-2.63
		c-14.49,0-18.06,21.08-18.06,30.86c0,3.2,0.75,11.67,6.02,11.67c16.18,0,14.87-2.63,21.26-14.49c0.56-1.13,1.51-2.63,3.01-2.63
		C125.38,386.14,127.07,386.7,127.07,387.27L127.07,387.27z M209.12,397.62c0,3.2,0,6.21,0,9.03c0,27.85-0.38,35.56-10.73,50.05
		c-0.94,1.51-2.45,3.76-2.45,5.46v28.6c0,5.64,6.58,11.67,12.79,11.67l31.8,2.63c6.77,0,12.61-6.77,12.61-12.61
		c0-25.22-1.69-35-1.69-44.03c0-2.82,0.19-5.65,0.56-8.66c1.13-8.28,1.32-14.3,12.04-14.3c5.27,0,6.59,3.01,6.77,7.15
		c0.38,4.33,0.38,8.09,0.38,11.85c0,14.11-1.69,25.78-1.69,42.34c0,6.77,3.2,16.56,12.23,16.56l35.19,0.19
		c5.08,0,11.48-5.83,11.48-10.54v-30.3c0-3.95-6.58-10.73-10.91-10.73c-6.02-8.47-8.66-19.94-8.66-31.42
		c0-11.85,2.63-23.71,6.96-33.12c2.07-4.7,7.53-8.47,7.53-13.92c0-12.42-19.19-12.8-28.79-12.8c-10.91,0-27.29,1.69-27.29,14.49
		c0,8.66,9.22,7.34,9.22,18.82c0,3.01-0.94,8.28-5.65,8.28h-18.06c-5.64,0-7.34-5.27-7.34-9.41c0-8.47,9.03-12.04,9.03-19.57
		c0-12.04-18.82-12.42-28.04-12.42c-10.54,0-28.41,1.32-28.41,14.3C198.01,385.01,209.12,379.55,209.12,397.62L209.12,397.62z
		 M347.42,406.27c0,22.2-12.98,52.31-12.98,58.14v28.22c0,5.08,5.83,11.48,11.67,11.48l34.06-0.75c5.83,0,11.48-6.77,11.48-12.04
		v-27.66c0-9.22-9.97-28.23-9.97-53.63c0-8.84-0.19-17.88,5.08-25.59c1.51-1.88,3.39-3.39,4.89-5.27c0.56-0.75,0.56-2.07,0.56-3.01
		c0-13.92-15.99-14.11-27.47-14.11c-11.29,0-23.15,0-28.23,10.54c0,15.62,2.07,6.96,6.59,13.17
		C347.04,391.41,347.42,399.88,347.42,406.27L347.42,406.27z M415.16,403.07c0,26.16-2.82,42.53-11.29,54.76
		c-5.27,0.38-3.76,8.84-5.64,35.56c0,5.08,5.64,11.48,11.48,11.48l41.21-0.38c6.02,0,11.48-6.77,11.48-12.04v-27.1
		c0-7.15-3.2-11.29-9.6-12.61c-2.82-9.97-4.14-22.58-4.14-32.74c0-2.45,1.5-4.33,2.63-6.59c3.58,0.19,10.91,24.65,34.62,74.33
		c3.76,7.53,12.98,15.43,22.58,15.43c17.88,0,18.06-15.24,18.06-27.47c0-3.39,0-6.77-0.75-9.97l-9.6-50.62
		c-2.07-10.73,5.46-28.98,14.68-35.94c0.38-0.75,0.56-1.69,0.56-2.63c0-14.3-15.99-14.49-28.04-14.49
		c-10.73,0-27.85,1.69-27.85,14.49c0,5.46,2.26,8.66,6.21,12.61c7.72,7.53,7.9,20.89,7.9,30.67c0,1.69,0,6.77-3.01,6.77
		c-16.56,0-13.17-64.54-55.32-64.54c-9.97,0-28.04,1.69-28.04,13.92C403.3,386.7,415.16,379.93,415.16,403.07L415.16,403.07z
		 M544.05,385.01c5.27,9.03,7.9,22.2,7.9,34.81c0,10.73-1.88,21.11-6.02,28.07c-4.14,7.18-8.47,11.7-8.47,16.62v25.46
		c0,6.02,5.46,13.2,12.61,13.2l30.48,0.94c6.02,0,12.8-5.49,12.8-11.13v-29.23c0-6.24-5.83-22.64-8.47-38.29
		c-0.19-1.51,0.38-1.69,1.88-1.69c3.76,0,7.9,8.28,9.03,11.1l26.16,61.72c2.07,2.07,5.08,5.46,8.47,5.46h21.45
		c4.7,0,10.91-6.21,10.91-10.35v-31.42c0-4.89-5.83-6.77-10.35-6.77c-3.76,0-6.58,2.45-10.35,2.45c-8.09,0-3.01-4.52-32.36-43.09
		c0-10.73,8.66-22.02,17.69-28.6c0.75-0.56,1.32-0.94,2.45-1.13c7.53-1.51,18.82-0.94,18.82-10.54c0-10.73-7.53-11.67-16.18-11.67
		c-1.69,0-3.58,0-5.46,0c-9.6,0-28.22,0.19-28.22,12.8c0,4.52,4.33,8.09,4.33,12.61c0,7.71-3.76,16.56-13.74,16.56h-2.63
		c-2.26-1.13-2.45-2.82-2.45-4.89c0-17.31,9.78-16.18,9.78-23.9c0-12.98-18.44-13.17-28.6-13.17c-10.16,0-27.85,1.69-27.85,14.11
		C537.66,379.74,541.04,381.62,544.05,385.01L544.05,385.01z M668.43,459.71c0,27.1,21.83,43.84,50.81,43.84
		c31.8,0,50.43-23.9,50.43-51.18c0-14.11-6.4-30.29-20.13-38.01l-32.74-18.63c-2.63-1.51-3.58-4.33-3.58-6.96
		c0-6.59,5.27-9.22,11.85-9.22c13.55,0,13.17,21.07,27.1,21.07c8.47,0,9.6-8.28,9.6-14.3c0-5.46-0.38-20.32-8.09-21.45
		c-10.16-1.51-19.94-3.01-30.11-4.52c-0.94-0.19-2.07,0-3.01,0c-22.96,0-41.4,12.98-41.4,34.81c0,24.46,31.05,32.93,31.05,45.91
		c0,6.96-4.89,11.29-12.61,11.29c-6.77,0-12.04-5.08-18.82-5.08C670.32,447.29,668.43,453.13,668.43,459.71L668.43,459.71z"/>
	<path d="M48.98,579.98c0,22.2-12.98,52.31-12.98,58.14v28.22c0,5.08,5.83,11.48,11.67,11.48l34.06-0.75
		c5.83,0,11.48-6.77,11.48-12.04v-27.66c0-9.22-9.97-28.23-9.97-53.63c0-8.84-0.19-17.88,5.08-25.59c1.51-1.88,3.39-3.39,4.89-5.27
		c0.56-0.75,0.56-2.07,0.56-3.01c0-13.92-15.99-14.11-27.47-14.11c-11.29,0-23.15,0-28.22,10.54c0,15.62,2.07,6.96,6.58,13.17
		C48.61,565.12,48.98,573.59,48.98,579.98L48.98,579.98z M109.01,569.07c0,8.84,5.08,17.69,13.55,21.26c-0.94,1.5-2.07,3.2-3.2,5.46
		c-5.27,2.45-7.53,7.72-3.76,12.23c0-0.19,3.58,2.63,7.15,2.26c17.31-2.45,30.67-23.33,30.67-40.64c0-11.67-8.66-23.33-22.2-23.33
		C117.85,546.3,109.01,557.78,109.01,569.07L109.01,569.07z M178.07,576.03c0,21.67-13.17,56.55-13.17,62v29.07
		c0,4.7,5.27,11.1,10.91,11.1h36.32c5.08,0,10.91-6.21,10.91-10.54v-30.3c0-4.7-5.27-8.66-9.6-10.35
		c-7.15-2.26-9.22-8.09-9.22-15.24c0-8.47,2.82-19.01,2.82-27.66c0-1.13,0.38-4.52,2.45-4.52c1.32,0,2.07,1.32,2.63,2.26
		l19.76,48.92c1.32,3.01,3.57,6.59,7.71,6.59c3.76,0,12.79,0.38,13.36-2.26l12.61-50.05c0.56-2.26,5.27-4.33,7.53-4.33
		c0.38,0.19,0.38,0.75,0.56,1.32c1.13,6.59,1.69,12.23,1.69,17.34c0,31.11-19.95,34.12-19.95,39.58v28.66
		c0,4.7,5.27,11.7,10.73,11.7l31.99-1.51c5.08,0,10.91-6.05,10.91-10.57v-30.36c0-0.38-0.38-1.88-0.56-2.26
		c-6.77-8.31-12.8-40.93-12.8-67.83c0-7.53,9.79-11.67,9.79-19.19c0-11.85-18.44-12.23-27.85-12.23c-11.48,0-25.78,1.13-28.79,13.74
		c-0.56,2.63-0.56,5.46-1.13,8.09c-1.51,6.77-3.76,14.11-6.21,20.7c-0.56,1.51-2.26,4.52-4.33,4.52c-3.2,0-6.02-6.02-6.59-8.28
		l-9.41-31.61c-2.07-6.77-12.79-7.15-19.01-7.15c-10.54,0-35.19-0.75-35.19,12.98C166.97,560.23,178.07,555.15,178.07,576.03
		L178.07,576.03z M379.22,611.41c0,29.92,21.07,65.67,57.96,65.67c28.04,0,42.71-16.18,42.71-40.83c0-5.65-0.56-29.92-9.78-29.92
		c-0.56,0-1.13,0-1.69,0.19c-5.08,2.63-21.08,12.23-25.78,12.23c-15.99,0-19.19-12.61-19.19-24.65c0-2.07,0-4.33,0.19-6.21
		c1.13-9.41,10.73-20.51,22.02-20.51c11.29,0,9.41,15.99,20.7,15.99c5.08,0,13.55-4.52,13.55-9.78v-18.25
		c0-4.89-2.63-12.8-9.22-12.8c-2.63,0-3.58,2.45-5.83,2.45c-4.33,0-12.42-8.47-26.91-8.47
		C399.16,536.52,379.22,581.68,379.22,611.41L379.22,611.41z M485.72,610.75c0,30.42,15.81,67.08,55.13,67.08
		c19.19,0,38.39-9.22,47.98-24.81c5.27-8.47,7.9-22.36,7.9-37.76c0-36.85-15.99-82.32-53.44-82.32
		C501.34,532.94,485.72,579.55,485.72,610.75L485.72,610.75z M525.61,577.85c0-12.39,3.76-23.27,10.73-23.27
		c14.68,0,21.07,33.96,21.07,43.91c0,7.31-1.69,15.93-11.85,15.93C528.44,614.42,525.61,589.3,525.61,577.85L525.61,577.85z
		 M602.39,610.75c0,30.42,15.81,67.08,55.13,67.08c19.19,0,38.39-9.22,47.98-24.81c5.27-8.47,7.9-22.36,7.9-37.76
		c0-36.85-15.99-82.32-53.44-82.32C618,532.94,602.39,579.55,602.39,610.75L602.39,610.75z M642.28,577.85
		c0-12.39,3.76-23.27,10.73-23.27c14.68,0,21.07,33.96,21.07,43.91c0,7.31-1.69,15.93-11.85,15.93
		C645.1,614.42,642.28,589.3,642.28,577.85L642.28,577.85z M719.24,659.39c0,9.79,3.95,16.18,15.24,18.06
		c5.83,0.94,12.23,1.13,18.63,1.13c3.2,0,6.21,0,9.22,0h53.44c6.77,0,12.23-8.84,12.23-14.3v-30.86c0-6.21-5.65-14.49-12.98-14.49
		c-9.97,0-19.95,1.88-29.92,1.88c-6.4,0-17.31,1.13-17.31-7.34v-38.01c0-13.74,10.35-20.13,10.35-23.33
		c0-14.68-15.81-14.87-28.22-14.87c-2.26,0-4.71,0.19-6.96,0.19c-5.27,0-20.51,4.89-20.51,10.54v7.15c0,2.45,6.96,5.83,8.47,9.22
		c3.01,6.96,2.82,15.43,2.82,22.77c0,6.4-2.45,39.33-3.58,44.97C728.27,640.76,719.24,650.36,719.24,659.39L719.24,659.39z"/>
</g>
</svg>
