<?xml version="1.0" encoding="utf-8"?>
<!-- Generator: Adobe Illustrator 24.3.0, SVG Export Plug-In . SVG Version: 6.00 Build 0)  -->
<svg version="1.1" id="Layer_1" xmlns="http://www.w3.org/2000/svg" xmlns:xlink="http://www.w3.org/1999/xlink" x="0px" y="0px"
	 viewBox="0 0 864 864" style="enable-background:new 0 0 864 864;" xml:space="preserve">
<style type="text/css">
	.st0{fill-rule:evenodd;clip-rule:evenodd;}
</style>
<g>
	<path d="M76.36,301.59l-40-100.01c-0.94-2.35-0.01-4.85,2.34-5.79l11.41-4.56c2.12-0.85,4.64,0.42,5.52,2.64l40,100.01
		c0.89,2.22-0.06,4.87-2.18,5.72l-11.41,4.56C79.7,305.1,77.3,303.93,76.36,301.59L76.36,301.59z M152.99,279.27
		c-2.92-0.31-4.83-0.68-7.47-1.65c-1.24-0.46-3.21-1.24-5.94-2.36c-6.38-3.43-10.52-8.55-12.44-15.34c-0.75-2.64,1.17-5.33,3.5-5.99
		l10.25-2.89c2.54-0.72,4.84,0.65,5.53,3.1c1.25,4.43,4.19,6.94,9.02,7.04c5.15,0.11,14.94-3.76,13.19-9.85l-6.71-23.16
		l-18.06-64.04c-0.64-2.27,1.12-4.46,3.4-5.11l9.93-2.8c2-0.56,4.64,0.51,5.25,2.67l23.79,84.37c2.44,8.65,2.21,15.35-0.72,20.09
		c-3.7,5.93-10.34,11.56-17.13,13.47C162.17,278.57,158.16,279.73,152.99,279.27L152.99,279.27z M211.2,246.22
		c-3.82-4.41-6.23-9.51-7.26-15.29l-13.56-75.52c-1.53-8.6,4.33-8.38,11.97-9.73c5.3-0.94,7.55-1.33,8.83,5.87l13.42,74.73
		c1.3,7.27,8.07,12.42,15.27,11.15c3.44-0.61,5.9-0.87,8.76-3.42c3.58-3.19,5.21-7.97,4.36-12.76l-13.07-74.79
		c-0.94-5.35,0.76-7.57,5.91-8.48c9.02-1.6,13.71-3.71,15.22,4.92l13.21,75.58c3.1,17.64-9.2,34.77-26.52,37.83
		c-6.31,1.12-10.8,2.25-17.36,1.07C222.85,256.01,216.14,252.07,211.2,246.22L211.2,246.22z M297.85,240.52
		c-6.34-5.6-10.36-13.27-11.3-21.73c-0.33-2.96,1.91-5.9,4.77-6.22c2.66-0.3,10.62-1.4,12.74-1.24c1.25,0.11,3.76,2.07,4.02,4.4
		c0.45,4.07,1.24,7.25,5.03,9.88c7.44,5.17,20.62-0.03,19.63-10.93c-0.73-8.04,0.31-15.77-8.85-19.3c-9.22-3.55-21.4,2.29-30.82-5
		c-3.66-2.83-6.24-6.33-7.73-10.48c-2.22-6.24-3.08-12.73-3.58-19.69c-0.33-4.62-0.74-8.08,0.52-12.6
		c1.88-6.78,7.11-12.71,13.5-15.88c5.76-2.85,10.55-3.05,16.86-3.75c16.23-1.81,30.4,9.91,32.26,26.71
		c0.32,2.91-1.48,5.34-4.21,5.65l-11.42,1.27c-2.35,0.18-4.54-1.66-4.81-4.15c-0.42-3.8-1.45-6.52-4.91-8.85
		c-2.29-1.54-4.99-2.26-7.83-1.94c-6.69,0.75-11.98,5.25-11.2,12.29l1.07,9.59c1.31,8.06,11.01,7.44,17.86,7.05
		c25.17-1.44,33.05,14.9,33.22,37.59c0.09,11.25-4.37,21.86-13.78,28.52c-6.55,4.63-11.4,4.91-18.62,5.71
		C312.03,248.33,304.25,245.79,297.85,240.52L297.85,240.52z M383.51,236.09l-4.4-92.83l-13.45,0.64c-2.6,0.12-4.89-1.08-5.02-3.76
		l-0.53-11.17c-0.13-2.68,2.04-4.09,4.64-4.22l48.59-2.3c2.35-0.11,4.88,1.38,5,3.76l0.53,11.17c0.11,2.38-2.27,4.1-4.62,4.22
		l-14.14,0.67l4.4,92.83c0.12,2.47-1.55,4.56-4.13,4.68l-12.32,0.58C385.84,240.47,383.63,238.5,383.51,236.09L383.51,236.09z
		 M473.91,235.19l-11.04-110.04c0.16-2.03,2.06-3.31,4.16-3.14l11.94,0.95c2.47,0.2,4.55,2.43,4.8,4.54l5.67,67.38
		c0.15,0.93,1.37,1.05,1.66,0.13l14.2-65.47c0.54-2.2,3.16-4.24,5.51-4.06l13.09,1.04c2.23,0.18,4.6,2.51,4.82,4.54l5.72,68.72
		c0.07,0.83,1.15,0.76,1.33,0.11l14.48-66.78c0.58-2.35,2.9-4.26,5.48-4.06l11.94,0.95c2.05,0.16,4.01,2.26,3.72,3.63l-25.57,105.93
		c-0.69,2.92-2.8,5.3-5.74,5.06l-16.58-1.31c-2.48-0.2-4.54-2.38-4.82-4.57l-5.4-53.98l-12.23,51.25c-0.73,2.81-2.97,5.28-5.92,5.05
		l-16.41-1.3C476.35,239.57,473.87,237.47,473.91,235.19L473.91,235.19z M567.18,245.11l40.62-103.05c1-2.55,4.01-3.68,6.65-3.21
		l20.64,3.66c2.75,0.49,5.26,2.54,5.32,5.33c0.23,10.64,2.83,109.3,2.57,110.74c-0.4,2.27-2.51,3.14-4.76,2.74l-13.93-2.47
		c-2.51-0.44-3.72-1.9-3.62-4.36l-0.19-27.54l-21.12-3.74l-9.64,25.8c-0.97,2.52-2.27,3.31-4.9,2.85l-13.93-2.47
		C568.64,248.99,566.78,247.39,567.18,245.11L567.18,245.11z M621.09,207.33l0.23-42.38c-0.07-1.14-1.19-1.34-1.64-0.29
		l-14.16,39.91L621.09,207.33L621.09,207.33z M654.59,259.28l29.23-103.67c0.68-2.4,3.27-3.76,5.71-3.07l19.06,5.38
		c2.39,0.67,4.69,3.18,4.78,5.68l3.62,76.08l17.92-69.66c0.65-2.39,2.94-3.85,5.39-3.16l12.17,3.43c1.91,0.54,3.64,3.03,3.26,4.38
		l-29.24,103.69c-0.8,2.83-2.91,5.06-5.7,4.27l-16.5-4.65c-2.37-0.67-4.44-3.26-4.63-5.64l-5.92-78.3l-18.48,71.07
		c-0.66,2.43-3.03,3.82-5.56,3.11l-11.85-3.34C655.42,264.2,653.91,261.69,654.59,259.28L654.59,259.28z M750.28,288.8l34.51-86.29
		l-12.5-5c-2.41-0.97-4-3.01-3.01-5.5l4.15-10.38c1-2.49,3.56-2.88,5.97-1.91l45.16,18.06c2.18,0.87,3.87,3.28,2.99,5.49
		l-4.15,10.38c-0.89,2.22-3.77,2.79-5.95,1.92l-13.14-5.25l-34.51,86.29c-0.92,2.3-3.3,3.5-5.7,2.55l-11.45-4.58
		C750.58,293.74,749.39,291.03,750.28,288.8L750.28,288.8z"/>
	<path d="M116.99,546.56c-9.48,0-21.45,1.35-31.84,4.97c-11.06,3.84-9.48,25.29-3.16,21.67c2.94-1.58,5.64-2.93,8.13-4.06
		c-2.26,15.58-11.97,53.74-25.29,94.38c-2.94,8.58-0.9,15.58,8.81,15.58c6.32,0,10.84-1.58,14.45-7c4.97,3.61,11.51,6.55,19.87,6.55
		c24.61,0,51.7-36.35,51.7-80.38C159.66,567.11,143.86,546.56,116.99,546.56L116.99,546.56z M104.8,655.61
		c-4.06,0-7.22-1.35-9.71-2.94c7.48-28.11,17.83-81.5,20.77-87.38c15.13,3.16,20.09,16.93,20.09,31.61
		C135.96,626.26,118.8,655.61,104.8,655.61L104.8,655.61z M257.3,622.82c-3.28,3.81-7.18,6.6-11.61,6.6c-0.68,0-1.35,0-1.81-0.23
		c1.13-4.97,1.58-10.61,1.58-16.26c0-25.74-14.68-38.83-29.8-38.83c-23.93,0-49.22,27.77-49.22,67.28
		c0,23.26,11.74,37.25,31.61,37.25c14.68,0,28.45-10.16,37.03-25.51c7.54,0,13.3-2.04,19.9-6.9c0.6,20.87,9.46,32.41,22.32,32.41
		c7.68,0,14.22-4.29,20.09-10.39c-1.35,5.87-2.71,11.51-4.06,16.75c-18.97,6.32-36.58,12.46-36.58,34.92
		c0,14.71,10.39,22.84,22.13,22.84c15.58,0,24.84-20.55,32.29-46.21c2.03-0.68,3.61-1.35,5.19-1.81
		c22.58-8.39,46.06-46.51,46.06-58.25c0-6.51-6.77-13.51-8.35-10.12c-1.58,4.29-17.16,38.31-35.9,48.88
		c-0.45,0.23-0.68,0.45-1.13,0.68c8.13-29.28,21-77.93,21-83.8c0-9.22-8.58-13.06-13.55-13.06c-3.61,0-6.77,3.61-9.03,8.58
		c-0.23,0.23-0.23,0.45-0.45,0.9c-2.48-7.45-8.58-14.45-17.39-14.45C280.75,574.1,263.46,595.34,257.3,622.82L257.3,622.82z
		 M199.18,657.87c-6.77,0-9.03-6.1-9.03-14.9c0-22.8,14-46.74,25.51-46.74c9.73,0,10.04,13.25,8.58,20.55
		c-4.29,1.58-7.9,6.1-7.9,14.45c0,2.26,0.23,4.97,1.13,7.45C212.27,649.52,205.05,657.87,199.18,657.87L199.18,657.87z
		 M286.33,650.64c-4.29,0-6.55-5.16-6.55-11.89c0-20.47,11.97-41.39,20.77-41.39c7,0,6.1,13.25,2.48,26.53
		C299.87,635.82,293.55,650.64,286.33,650.64L286.33,650.64z M275.72,726.73c-2.48,0-3.84-2.03-3.84-4.97
		c0-6.13,7-11.36,15.58-15.92C284.29,716.53,280.46,726.73,275.72,726.73L275.72,726.73z M564.06,632.13
		c-4.01,8.67-10.95,21.45-20.34,21.45c-4.06,0-5.87-3.35-5.87-8.32c0-10.35,14.45-47.08,18.06-64.42c4.06-18.93-3.39-35.18-21-35.18
		c-10.39,0-21.9,9.48-30.71,22.13c-0.9-12.64-8.58-22.13-21.9-22.13c-9.48,0-19.64,7.68-28,18.51c1.13-6.32-5.19-8.58-10.16-8.58
		c-5.87,0-12.64-2.26-14.68,12.42c-2.03,14.64-11.74,53.58-25.51,95.28c-2.94,8.58-1.13,11.74,8.58,11.74
		c7.9,0,12.42,1.13,16.26-8.13c3.61-9.03,9.71-35.82,14.9-59.72c7.45-24.08,18.97-34.88,25.96-34.88c6.32,0,7.68,6.06,6.1,13.96
		c-1.81,8.09-14.68,56.07-17.84,74.54c-1.58,9.03-1.13,17.84,10.84,17.84c5.19,0,10.61-4.06,11.74-9.26
		c4.97-19.61,11.51-44.4,16.48-63.78c7.23-22.95,18.51-33.3,25.29-33.3c6.55,0,7.68,6.51,5.87,14.19
		c-2.48,10.8-16.26,52.46-16.26,66.87c0,14.22,9.26,25.29,22.8,25.29c12.12,0,23.69-9.98,31.24-21.01
		c4.35,13.37,14.59,21.01,29.27,21.01c14.68,0,28.45-10.16,37.03-25.51c0.45,0,0.9,0,1.35,0c6.66,0,13.15-2.85,18.9-7.16
		c-1.04,5.29-1.94,10.33-2.64,14.84c-1.81,10.39-1.58,17.84,10.16,17.84c5.42,0,8.81-4.06,9.71-9.26
		c1.81-10.16,4.52-22.09,7.45-33.79c7-24.27,15.58-35.07,22.58-35.07c5.19,0,5.42,6.06,3.61,13.92c-1.58,8.32-6.77,27.88-9.93,46.36
		c-1.58,9.03-1.13,17.84,10.61,17.84c5.42,0,8.35-4.06,9.71-9.26c3.61-14.68,6.32-25.48,8.58-34.69
		c7.23-23.59,15.58-34.17,22.35-34.17c5.19,0,4.74,7.64,2.71,15.28c-2.48,10.8-7.9,23.18-7.9,37.55c0,14.22,7,25.29,20.55,25.29
		c20.77,0,40.19-29.31,40.19-43.05c0-6.77-3.84-11.25-7-11.25c-1.13,0-9.93,29.24-24.16,29.24c-3.84,0-5.87-3.35-5.87-8.32
		c0-10.35,7.23-25.66,9.93-37.37c4.29-19.12-2.03-33.79-16.03-33.79c-9.93,0-19.64,8.35-27.32,20.55
		c-0.9-11.97-7.45-20.55-17.61-20.55c-7.9,0-15.58,5.19-22.35,13.32c-1.58-5.42-9.71-8.35-13.55-8.35c-3.84,0-7,3.61-9.03,8.58
		c-1.65,3.49-4.89,15.01-8.23,28.77c-3.99,6.64-9.45,13-16.16,13c-0.68,0-1.35,0-1.81-0.23c1.13-4.97,1.58-10.61,1.58-16.26
		c0-25.74-14.68-38.83-29.8-38.83C590.79,574.1,567.63,597.61,564.06,632.13L564.06,632.13z M596.32,657.87
		c-6.77,0-9.03-6.1-9.03-14.9c0-22.8,14-46.74,25.51-46.74c9.72,0,10.04,13.25,8.58,20.55c-4.29,1.58-7.9,6.1-7.9,14.45
		c0,2.26,0.23,4.97,1.13,7.45C609.42,649.52,602.19,657.87,596.32,657.87L596.32,657.87z"/>
	<path d="M65.83,518.68c-5.19-5.73-8.06-13.1-8.06-20.87c0-2.72,2.33-5.17,4.96-5.17h10.78c0.68,0.28,1.74,0,3.2,1.96
		c1.89,2.56-0.06,4.36,1.84,8.53c4.51,9.9,21.32,7.32,21.56-4.4c0.15-7.38,1.88-14.29-6.08-18.42c-8.01-4.15-19.66-0.08-27.47-7.66
		c-3.04-2.94-5.02-6.38-5.96-10.29c-1.39-5.88-1.51-11.88-1.26-18.23c0.17-4.23,0.15-7.41,1.74-11.39
		c2.4-5.97,7.74-10.82,13.86-13.05c5.52-2.01,9.88-1.7,15.68-1.7c14.95,0,26.58,12.03,26.58,27.65c0,2.51-1.92,4.56-4.4,4.56h-10.49
		c-2.15-0.08-3.95-1.96-3.95-4.25c0-3.49-0.66-6.07-3.57-8.53c-2.65-2.25-4.94-2.55-8.12-2.55c-0.02,0.02-10.19,0.63-10.19,10.03
		v8.81c0.38,7.45,9.25,7.87,15.5,8.2c22.99,1.24,28.5,16.86,26.36,37.48c-1.06,10.22-6.17,19.4-15.4,24.49
		c-6.41,3.54-10.84,3.3-17.48,3.3C77.9,527.21,71.11,524.12,65.83,518.68L65.83,518.68z M143.44,521.53v-84.88h-12.3
		c-2.38,0-4.42-1.19-4.42-3.65v-10.21c0-2.45,2.04-3.65,4.42-3.65h44.43c2.15,0,4.4,1.47,4.4,3.65V433c0,2.18-2.25,3.65-4.4,3.65
		h-12.93v84.88c0,2.26-1.61,4.09-3.97,4.09h-11.26C145.37,525.63,143.44,523.74,143.44,521.53L143.44,521.53z M183.44,522.49
		l20.12-99.15c0.49-2.45,3.02-3.95,5.47-3.95h19.14c2.55,0,5.13,1.45,5.63,3.95l19.96,99.19c0,2.11-1.76,3.22-3.85,3.22h-12.93
		c-2.33,0-3.65-1.11-3.95-3.34l-4.56-24.74h-19.59l-4.56,24.74c-0.47,2.42-1.51,3.34-3.95,3.34h-12.93
		C185.37,525.75,183.44,524.61,183.44,522.49L183.44,522.49z M225.9,479.92l-6.54-38.15c-0.24-1.02-1.28-1.01-1.52,0l-6.38,38.15
		H225.9L225.9,479.92z M278.19,522.12v-43.31c-0.28-2.27-0.99-4.7-2.13-7.31l-17.63-46.05c-1.58-3.58,1.3-6.54,4.72-6.54h9.42
		c2.23,0,3.95,1.05,5.17,3.18l10.17,30.25c0.17,0.28,0.91,0.49,1.22,0l10.49-30.25c0.63-1.87,2.6-3.18,4.56-3.18h9.56
		c3.48,0,6.01,2.92,4.86,6.54l-17.93,46.05c-0.91,2.45-1.52,4.88-1.82,7.31v43.31c0,2.45-2.43,4.11-4.86,4.11h-11.08
		C280.53,526.23,278.19,524.48,278.19,522.12L278.19,522.12z M345.1,522.49l20.12-99.15c0.49-2.45,3.02-3.95,5.47-3.95h19.14
		c2.55,0,5.13,1.45,5.63,3.95l19.95,99.19c0,2.11-1.76,3.22-3.85,3.22h-12.93c-2.33,0-3.65-1.11-3.95-3.34l-4.56-24.74h-19.59
		l-4.56,24.74c-0.47,2.42-1.51,3.34-3.95,3.34h-12.93C347.04,525.75,345.1,524.61,345.1,522.49L345.1,522.49z M387.56,479.92
		l-6.54-38.15c-0.24-1.02-1.28-1.01-1.52,0l-6.38,38.15H387.56L387.56,479.92z M435.48,521.53v-84.88h-12.3
		c-2.38,0-4.42-1.19-4.42-3.65v-10.21c0-2.45,2.04-3.65,4.42-3.65h44.43c2.15,0,4.4,1.47,4.4,3.65V433c0,2.18-2.25,3.65-4.4,3.65
		h-12.93v84.88c0,2.26-1.61,4.09-3.97,4.09h-11.26C437.41,525.63,435.48,523.74,435.48,521.53L435.48,521.53z M504.28,521.51v-98.17
		c0-1.89,1.9-3.95,3.95-3.95h11.26c2.31,0,4.11,1.64,4.11,3.95v37.5l28.69-0.16v-37.34c0-2.05,2.07-3.95,4.25-3.95h10.94
		c2.18,0,4.25,1.9,4.25,3.95v98.17c0,2.36-1.99,4.11-4.25,4.11h-10.94c-2.31,0-4.25-1.83-4.25-4.11v-42.24l-28.69,0.16v42.08
		c0,2.29-1.82,4.11-4.11,4.11h-11.26C506.18,525.63,504.28,523.72,504.28,521.51L504.28,521.51z M587.64,511.83
		c-2.63-4.64-3.95-9.6-3.95-14.89v-49.96c0-16.18,12.69-29.17,29.17-29.17c5.61,0,9.49-0.27,15.03,1.72
		c11.62,4.18,18.98,14.58,19,27.29l0.16,50.12c0.03,15.75-12.97,29.78-29.03,29.78c-5.6,0-9.51,0.27-15.03-1.8
		C596.55,522.5,591.11,517.81,587.64,511.83L587.64,511.83z M615.46,508.73c6.62,0,11.87-5.86,11.87-12.46v-49.63
		c0-12.55-17.02-15.76-23.03-5.96c-1.09,1.78-1.64,3.77-1.64,5.96v49.63c0,6.67,5.45,12.46,12.2,12.46H615.46L615.46,508.73z
		 M659.82,521.56V423.1c0-2.17,1.82-3.95,3.95-3.95h17.34c1.87,0,4.32,0.94,4.72,3.04l13.84,44.67l13.86-44.67
		c0.57-1.98,2.82-3.04,4.86-3.04h17.34c2.3,0,3.95,1.69,3.95,3.95v98.46c0,2.26-1.7,3.95-3.95,3.95h-10.96
		c-2.31,0-3.81-1.67-3.81-3.95v-63.07l-11.55,37.07c-0.46,1.55-2.99,3.04-4.88,3.04h-9.72c-1.8,0-4.04-1.14-4.72-3.04l-11.55-37.07
		v63.07c0,2.01-1.86,3.95-3.81,3.95h-10.96C661.82,525.51,659.82,523.51,659.82,521.56L659.82,521.56z M752.99,521.27v-98.3
		c0-2.38,1.72-3.95,4.11-3.95h44.81c2.27,0,4.11,1.64,4.11,3.97v10.51c0,2.29-1.82,4.11-4.11,4.11h-30.69v23.22h23.26
		c2.26,0,3.79,1.53,3.79,3.79v10.64c0,2.27-1.52,3.81-3.79,3.81h-23.26v27.71h30.69c2.27,0,4.11,1.64,4.11,3.97v10.51
		c0,2.29-1.82,4.11-4.11,4.11h-44.81C754.72,525.38,752.99,523.61,752.99,521.27L752.99,521.27z"/>
	<path class="st0" d="M677.29,345.29h75.76c1.19,0,2.16,0.97,2.16,2.16v12.45c0,1.19-0.97,2.16-2.16,2.16h-75.76
		c-1.19,0-2.16-0.97-2.16-2.16v-12.45C675.12,346.26,676.1,345.29,677.29,345.29L677.29,345.29z M110.76,345.29h75.76
		c1.19,0,2.16,0.97,2.16,2.16v12.45c0,1.19-0.97,2.16-2.16,2.16h-75.76c-1.19,0-2.16-0.97-2.16-2.16v-12.45
		C108.6,346.26,109.57,345.29,110.76,345.29L110.76,345.29z"/>
	<path d="M279.91,347.26c-3.22,6.26-9.19,16.67-16.45,16.67c-2.8,0-5.61-2.45-5.61-6.05c0-5.08,1.81-12.64,4.29-21
		c4.12,0.33,7.59,0.66,9.56,0.96c2.64,0.33,3.3-9.54,2.8-11.68c-0.49-1.48-1.81-2.47-3.3-2.8c-0.66-0.33-2.31-0.49-4.45-0.66
		c4.95-14.18,10.06-27.21,10.06-30.01c0-6.93-6.27-9.73-9.89-9.73c-2.8,0-5.11,2.64-6.6,6.27c-1.32,2.8-6.93,16.98-11.71,33.31
		c-1.65,0.17-3.13,0.33-4.45,0.49c-3.13,0.49-4.45,1.48-4.62,6.6c0,2.31,0.16,7.42,1.65,7.26c1.15-0.17,2.31-0.17,3.46-0.33
		c-2.31,9.84-4.12,19.51-4.12,27.04c0,10.39,6.43,18.63,16.33,18.63c9.05,0,18.21-7.61,24.13-15.88
		c3.08,10.09,10.63,15.88,21.55,15.88c10.72,0,20.78-7.42,27.04-18.63c0.33,0,0.66,0,0.99,0c15.17,0,29.19-20.28,29.19-29.85
		c0-4.45-2.64-7.75-5.11-7.75c-0.82,0-7.09,20.28-17.31,20.28c-0.49,0-0.99,0-1.32-0.16c0.82-3.63,1.15-7.75,1.15-11.87
		c0-18.8-10.72-28.36-21.77-28.36C299.53,305.88,282.85,322.59,279.91,347.26L279.91,347.26z M303.36,367.06
		c-4.95,0-6.6-4.45-6.6-10.88c0-16.66,10.22-34.13,18.63-34.13c5.28,0,6.76,5.61,6.76,9.89c0,1.81-0.16,3.46-0.49,5.11
		c-3.13,1.15-5.77,4.45-5.77,10.55c0,1.65,0.16,3.63,0.82,5.44C312.92,360.96,307.65,367.06,303.36,367.06L303.36,367.06z
		 M450.39,341.42c-2.72,3.95-6.13,7.18-10.16,7.18c-0.66,0-1.32,0-1.81-0.33c1.48-5.44,2.31-11.38,2.31-17.31
		c0-16.16-7.59-25.07-17.31-25.07c-3.3,0-6.27,0.99-9.07,2.8c3.79-13.69,7.26-24.74,8.9-29.35c2.14-6.27-6.27-9.73-9.89-9.73
		c-2.8,0-5.11,2.64-6.6,6.27c-2.47,5.44-18.96,66.21-23.42,93.33c-1.32,7.59-1.15,13.03,7.42,13.03c3.79,0,6.27-2.8,7.09-6.43
		c2.31,3.63,5.94,6.43,10.72,6.43c7.75,0,15.83-6.1,21.93-15.67c0.99,0.16,1.98,0.16,3.13,0.16c5.51,0.06,10.87-2.73,15.45-6.79
		c1.99,15.37,14.26,24.76,27.09,24.76c23.09,0,33.64-17.81,39.08-33.31c0.66-2.14-6.43-9.07-7.42-6.76
		c-4.95,11.21-12.7,24.08-26.88,24.08c-6.27,0-11.87-2.14-13.85-8.25c9.73,0.99,33.48-14.35,34.79-35.29
		c0.49-10.72-5.77-19.29-16.82-19.29C472.27,305.88,455.55,319.24,450.39,341.42L450.39,341.42z M403.29,350.3
		c0.82-3.27,1.65-6.57,2.47-9.87c2.8-9.04,7.42-18.55,12.7-18.55c3.3,0,5.28,4.26,5.28,9.67c0,2.64-0.17,5.28-0.66,7.89
		c-2.47,1.65-4.45,4.95-4.45,10.36c0,0.99,0,1.98,0.16,2.97c-3.46,7.23-8.08,12.31-11.87,12.31
		C405.19,365.21,401.05,363.96,403.29,350.3L403.29,350.3z M483.6,322.87c1.48,0,2.14,1.15,1.98,2.8
		c-0.49,8.25-12.04,18.14-17.97,18.14C471.07,329.79,480.3,322.87,483.6,322.87L483.6,322.87z M619.15,342.57
		c-0.82,0-7.26,21.36-17.64,21.36c-2.8,0-4.29-2.45-4.29-6.07c0-13.16,10.55-33.37,10.55-38.81c0-6.73-6.27-9.54-9.89-9.54
		c-2.64,0-4.95,2.64-6.6,6.27c-0.16,0.17-0.16,0.33-0.33,0.66c-1.81-5.44-6.27-10.55-12.7-10.55c-15.34,0-31.17,24.05-31.17,50.98
		c0,16.3,6.6,25.37,16.33,25.37c6.93,0,12.86-4.78,17.48-11.21c1.98,6.6,6.76,11.21,14.02,11.21c15.17,0,29.35-21.41,29.35-31.44
		C624.26,345.85,621.46,342.57,619.15,342.57L619.15,342.57z M570.01,361.79c-3.13,0-4.78-3.77-4.78-8.68
		c0-14.95,8.74-30.23,15.17-30.23c5.11,0,4.45,9.67,1.81,19.38C579.9,350.96,575.28,361.79,570.01,361.79L570.01,361.79z"/>
</g>
</svg>
