<?xml version="1.0" encoding="utf-8"?>
<!-- Generator: Adobe Illustrator 24.3.0, SVG Export Plug-In . SVG Version: 6.00 Build 0)  -->
<svg version="1.1" id="Layer_1" xmlns="http://www.w3.org/2000/svg" xmlns:xlink="http://www.w3.org/1999/xlink" x="0px" y="0px"
	 viewBox="0 0 864 864" style="enable-background:new 0 0 864 864;" xml:space="preserve">
<g>
	<path d="M36.05,221.6c2.66-24.7,2.52-47.38,2.11-75.61c-0.25-17.24-0.37-28.44-0.37-33.58c0-16.42,0.17-30.59,0.5-42.53
		c0-1.8,0.17-16.08,0.75-16.66c0-1.78,2.34-4.73,5.97-4.48c6.5,0.45,9.28,10.6,11.19,16.17c0.83,2.16,2.49,7.38,4.97,15.67
		c6.89,23.16,14.68,43.13,24.62,67.4c5.64,13.76,9.62,23.88,11.94,30.34l7.46,19.15c0.9-17.06,1.48-23.88,1.99-45.89
		c0.42-17.8,1.44-34.43,2.98-52.11c0.66-9.29,1.2-17.37,1.62-24.25c0.41-6.88,0.62-13.56,0.62-20.02c0-7.62,11.44-7.62,11.44,0
		c0,6.47-0.21,13.18-0.62,20.15c-0.41,6.96-0.95,15.17-1.62,24.62l-1.74,20.39c-0.5,7.13-0.91,17.78-1.24,31.96
		c-0.57,24.36-1.33,32.26-2.49,54.1l-1.49,17.66c-1.63,8.32-8.86,7.48-11.19,3.98c-1.08-1.62-1.39-3.16-1.99-5.47l-2.98-9.95
		c-1.33-3.98-5.06-14.09-11.19-30.34L75.1,151.95l-14.43-36.81c-3.94-10.28-8.47-23.83-11.19-33.83
		c-0.45,24.21-0.32,33.1,0.12,64.29c0.4,27.85,0.37,52.46-2.11,76.98c-0.54,5.31-7.03,7.06-10.2,3.11
		C36.3,224.46,35.89,223.09,36.05,221.6L36.05,221.6z M180.43,57.44c-17.01,18.77-20.29,63.78-18.16,94.02
		c0.83,11.77,2.32,21.64,4.48,29.6c4.14,14.89,13.24,42.02,29.1,38.05c1.99-0.5,4.81-2.57,8.46-6.22
		c9.12-9.45,15.17-22.22,18.16-38.3c3.33-17.28,1.54-40.96-1.74-59.94c-4.5-26-12.91-52-28.23-55.71
		C189.76,58.27,185.74,57.77,180.43,57.44L180.43,57.44z M178.69,46c10.6,0,21.34,1.44,29.35,8.95
		c11.11,9.78,19.15,29.1,24.13,57.95c4.31,25.54,4.89,46.76,1.74,63.67c-3.48,18.24-10.7,33-21.64,44.27
		c-4.97,5.14-9.45,8.21-13.43,9.2c-24.96,6.37-36.78-23.42-43.03-46.01c-5.62-20.04-6.55-48.06-4.73-70.39
		c2.82-32,10.53-54.06,23.13-66.16C175.57,46.27,177.02,46,178.69,46L178.69,46z M366.6,57.44c-17.01,18.77-20.29,63.78-18.16,94.02
		c0.83,11.77,2.32,21.64,4.48,29.6c4.14,14.89,13.24,42.02,29.1,38.05c1.99-0.5,4.81-2.57,8.46-6.22
		c9.12-9.45,15.17-22.22,18.16-38.3c3.33-17.28,1.54-40.96-1.74-59.94c-4.5-26-12.91-52-28.23-55.71
		C375.92,58.27,371.9,57.77,366.6,57.44L366.6,57.44z M364.86,46c10.6,0,21.34,1.44,29.35,8.95c11.11,9.78,19.15,29.1,24.13,57.95
		c4.31,25.54,4.89,46.76,1.74,63.67c-3.48,18.24-10.7,33-21.64,44.27c-4.97,5.14-9.45,8.21-13.43,9.2
		c-24.96,6.37-36.78-23.42-43.03-46.01c-5.62-20.04-6.55-48.06-4.73-70.39c2.82-32,10.53-54.06,23.13-66.16
		C361.73,46.27,363.18,46,364.86,46L364.86,46z M474.17,56.69c-3.84,31.06-5.47,55.05-3.61,85.68c1.28,21.07,6.79,62.16,20.27,74.99
		c8.52,7.95,16.14-4.8,20.15-11.44c5.14-8.29,9.04-23.13,11.69-44.52c0.17-25.7,1-47.59,2.49-65.66l1.74-29.6
		c0-1.61-0.7-6.76,0-7.46c0-5.9,8.76-7.2,10.69-2.24c1.81,4.66,0.96,15.08,0.75,20.89c0,6.63-0.25,16.33-0.75,29.1
		c-0.99,23.88-2.07,41.7-3.23,53.47l-0.5,2.24v61.68c0,7.62-11.44,7.62-11.44,0v-14.67c-0.5,0.99-1,1.91-1.49,2.74
		c-6.3,10.28-12.69,16.5-19.15,18.65c-6.8,2.32-13.1,0.66-18.9-4.97c-7.3-7.13-13.02-19.73-17.16-37.81
		c-3.32-14.26-5.47-29.1-6.47-44.52c-2.09-32.72-0.34-53.85,3.48-88.05c0.54-4.8,6.93-6.94,10.2-2.86
		C473.92,53.59,474.33,55.04,474.17,56.69L474.17,56.69z M560.35,46.5c3.81,0.17,18.99,0.25,45.52,0.25c7.62,0,7.62,11.44,0,11.44
		H589.2c0.66,13.76,0.41,43.86-0.75,90.29c-0.38,15.55,0.1,30.35,1.12,47.13c0.58,9.53,0.95,16.71,1.12,21.51
		c0.09,5.2-5.82,7.96-9.7,4.35c-1.16-1.08-1.74-2.36-1.74-3.86c-0.17-4.81-0.54-12.06-1.12-21.76c-1.02-17.1-1.51-32.02-1.12-47.88
		c1.16-46.59,1.41-76.52,0.75-89.79c-6.8,0-12.77-0.08-17.91-0.25C552.78,57.82,552.12,46.5,560.35,46.5L560.35,46.5z M650.01,46.99
		c4.15,0.17,14.92,0.25,32.33,0.25c7.62,0,7.62,11.44,0,11.44h-28.11c1,9.29,1.33,20.06,1,32.33c8.29,0.33,13.68,0.58,16.17,0.75
		c4.21,0.37,7.66,6.13,3.11,10.07c-1.24,1.08-2.61,1.53-4.1,1.37c-2.49-0.17-7.71-0.41-15.67-0.75c-0.33,7.86-2.19,32.42-2.49,41.04
		c-0.33,8.62-0.41,21.14-0.25,37.56c0.17,16.91,0.08,29.68-0.25,38.3c-0.14,7.25-11.6,7.51-11.44-0.5
		c0.33-8.29,0.41-20.81,0.25-37.56c-0.26-25.6-0.14-37.76,1.24-59.94c1.65-25.04,3.57-39.51,0.75-64.92
		c-0.21-2.35,1.83-6.58,3.61-8.08C647.23,47.45,648.52,46.99,650.01,46.99L650.01,46.99z M723.75,47.99l23.63,0.5
		c7.62,0,7.62,11.44,0,11.44h-6.47c0,21.32-1.04,55.82-1.74,76.36l-3.23,78.84c2.32-0.17,4.56-0.5,6.72-0.99
		c4.01-0.68,8.93,4.1,5.6,8.95c-0.91,1.33-2.11,2.16-3.61,2.49c-6.14,0.99-15.67,1.49-28.6,1.49c-7.62,0-7.62-11.44,0-11.44h8.46
		l1.74-38.05c0.66-17.41,1.16-31.13,1.49-41.16c0.69-21,1.74-55.21,1.74-76.98h-5.72C716.13,59.43,716.13,47.99,723.75,47.99
		L723.75,47.99z M774.86,46.5c3.81,0.17,18.99,0.25,45.52,0.25c7.62,0,7.62,11.44,0,11.44h-16.66c0.66,13.76,0.41,43.86-0.75,90.29
		c-0.38,15.55,0.1,30.35,1.12,47.13c0.58,9.53,0.95,16.71,1.12,21.51c0.09,5.2-5.82,7.96-9.7,4.35c-1.16-1.08-1.74-2.36-1.74-3.86
		c-0.17-4.81-0.54-12.06-1.12-21.76c-1.02-17.1-1.51-32.02-1.12-47.88c1.16-46.59,1.41-76.52,0.75-89.79
		c-6.8,0-12.77-0.08-17.91-0.25C767.3,57.82,766.64,46.5,774.86,46.5L774.86,46.5z"/>
	<path d="M46.52,249.44l20.28,0.43c6.54,0,6.54,9.82,0,9.82h-5.55c0,18.3-0.9,47.91-1.49,65.53l-2.77,67.67
		c1.99-0.14,3.91-0.43,5.76-0.85c3.45-0.59,7.67,3.52,4.8,7.68c-0.78,1.14-1.81,1.85-3.1,2.13c-5.27,0.85-13.45,1.28-24.55,1.28
		c-6.54,0-6.54-9.82,0-9.82h7.26l1.49-32.66c1.24-29.47,1.44-38.91,2.24-67.03c0.36-12.52,0.53-23.98,0.53-34.37h-4.91
		C39.98,259.26,39.98,249.44,46.52,249.44L46.52,249.44z M104.58,368.34c-0.57,7.54,0.78,13.59,4.06,18.14
		c6.42,8.93,17.01,11.19,26.36,5.55c4.48-2.7,7.65-7.19,9.5-13.45c1.99-7.11,1.14-14.12-2.56-21.03
		c-3.7-6.9-10.17-15.62-19.42-26.15c-8.37-10.91-18.65-20.02-24.33-33.09c-6.34-14.58-7.31-33.15,4.8-44.29
		c5.34-4.91,11.28-7.15,17.82-6.72c6.97,0.43,12.56,3.63,16.76,9.61c4.2,5.98,5.87,13.8,5.02,23.48c-0.37,3.7-5.3,6.52-8.64,2.67
		c-0.93-1.07-1.32-2.24-1.17-3.52c0.71-7.4-0.28-12.95-2.99-16.65c-5.57-7.63-13.42-7.74-20.28-1.6c-6.5,5.82-7.3,18.1-5.12,26.36
		c1.14,3.98,3.27,8.29,6.4,12.91c7.42,10.96,8.98,12.74,19.21,24.44c5.28,6.04,13.18,14.91,17.4,22.09
		c2.54,4.33,6.05,11.23,7.04,16.33c2.7,13.88-1.96,29.62-14.19,37.03c-21.63,13.12-48.14-3.7-45.47-32.98
		c0.37-4.08,5.4-6.27,8.65-2.77C104.33,365.7,104.72,366.91,104.58,368.34L104.58,368.34z M273.42,261.18
		c-14.15,3.63-22.08,29.04-25.4,44.61c-3.58,16.79-6.18,45.34-3.42,60.62c2.39,13.18,5.73,32.8,19.85,31.8
		c14.28-1.01,20.89-16.18,28.18-31.16c1.74-3.57,7.36-3.98,9.07,0.43c0.5,1.28,0.46,2.56-0.11,3.84
		c-5.27,10.96-9.39,18.43-12.38,22.41c-6.83,8.82-14.8,13.59-23.91,14.3c-10.25,0.71-18.07-4.27-23.48-14.94
		c-7.75-15.89-8.7-36.01-7.9-53.36c1.06-23.12,5.54-50.14,16.01-68.95c5.83-10.67,12.95-17.01,21.35-19
		C277.46,250.03,280.03,259.86,273.42,261.18L273.42,261.18z M344.93,257.55c-14.6,16.11-17.41,54.74-15.58,80.69
		c0.71,10.1,1.99,18.57,3.84,25.4c3.56,12.78,11.37,36.06,24.97,32.66c1.71-0.43,4.13-2.21,7.26-5.34
		c7.83-8.11,13.02-19.07,15.58-32.87c2.86-14.83,1.32-35.15-1.49-51.44c-3.86-22.32-11.08-44.63-24.23-47.81
		C352.94,258.26,349.49,257.84,344.93,257.55L344.93,257.55z M343.44,247.73c9.1,0,18.32,1.23,25.19,7.68
		c9.53,8.4,16.44,24.97,20.71,49.74c5.91,34.65,5.36,69.49-17.08,92.64c-4.27,4.41-8.11,7.04-11.53,7.9
		c-21.42,5.46-31.56-20.1-36.93-39.49c-4.82-17.2-5.62-41.25-4.06-60.41c2.42-27.46,9.04-46.39,19.85-56.78
		C340.76,247.96,342,247.73,343.44,247.73L343.44,247.73z M405.55,401.42c2.46-37.64,3.94-77.76,8.54-115.27
		c0.43-3.56,1.49-10.39,3.2-20.49l2.35-13.23c0-1.51,2.58-3.37,3.84-3.63c5.07-1.03,9.54,3.88,11.95,8.75
		c1,2.13,3.06,7.12,6.19,14.94c2.57,6.54,4.73,11.35,7.04,13.66c4.69-3.21,8.88-13.14,12.17-21.13c0.48-1.13,3.84-8.11,3.84-8.75
		c0.15-1.05,1.37-4.04,2.13-4.91c1.71-1.85,3.77-2.42,6.19-1.71c3.68,1.07,5.08,5.22,5.98,9.18c1.81,8.02,1.91,22.72,2.13,31.38
		c0.28,5.55,0.93,21.24,1.92,47.07c1,25.83,2.13,45.71,3.42,59.66c0.39,3.86-4.46,7.23-8,4.16c-1.07-0.92-1.67-2.03-1.81-3.31
		c-1.14-13.95-2.24-33.9-3.31-59.87c-1.07-25.97-1.74-41.73-2.03-47.28c-0.1-3.73-0.17-14.58-0.64-19.21
		c-0.14-1.28-0.21-2.49-0.21-3.63l-4.48,10.25c-4.08,9.21-11.79,21.11-20.71,17.5c-5.87-2.38-9.65-11.32-12.81-19.42
		c-2.56-6.69-4.2-10.82-4.91-12.38c-6.12,34.68-8.01,66.58-10.14,103.53c-1.07,18.5-1.74,30.03-2.03,34.58
		c-0.37,4.52-5.5,6.37-8.64,2.99C405.8,403.84,405.41,402.7,405.55,401.42L405.55,401.42z M519.75,258.19
		c-0.14,7.4-0.71,18.36-1.71,32.87c8.68-0.28,15.19-2.35,19.53-6.19c4.34-3.84,6.37-8.04,6.08-12.59c0-4.13-2.03-7.72-6.08-10.78
		C533.52,258.44,527.58,257.34,519.75,258.19L519.75,258.19z M514.63,248.8c11.24-1.85,20.49-0.46,27.75,4.16
		c7.26,4.62,10.96,10.99,11.1,19.1c0.28,7.68-2.85,14.34-9.39,19.96c-6.55,5.62-15.44,8.57-26.68,8.86
		c-2.22,33.28-1.71,64.64-1.71,97.12c0,6.54-9.82,6.54-9.82,0c0-36.1-0.56-70.33,2.35-107.37c0.99-12.68,1.71-23.12,1.71-34.79
		c0-0.85,0.21-1.64,0.64-2.35C510.71,250.79,512.07,249.23,514.63,248.8L514.63,248.8z M584.21,256.06
		c-2.6,32.88-2.13,68.94-2.13,101.6c-0.07,5.94-0.89,29.29,0,33.73l12.38,0.64l19-0.64c6.54,0,6.54,9.82,0,9.82l-18.78,0.64
		c-4.23,0.1-13.09-0.33-16.01-1.07c-2.75-0.7-5.3-2.59-5.98-5.12c-1.25-4.68-0.85-23.83-0.64-30.52
		c0.34-10.93,0.21-14.13,0.21-24.12c0-15.13-0.08-36.07,0.43-52.19c0.27-8.46,0.89-25.02,1.71-33.62c0.39-4.11,5.42-6.25,8.64-2.77
		C583.97,253.43,584.36,254.64,584.21,256.06L584.21,256.06z M643.98,250.72h34.79c6.91,0,6.5,9.72,0.43,9.82
		c-4.27,0.14-14.16,0.14-29.67,0c0.71,7.4,1.14,15.72,1.28,24.97c3.84,0.14,11.17-0.36,21.99-1.49c4.14-0.45,7.08,4.49,4.27,8
		c-0.85,1.07-1.99,1.67-3.41,1.81c-11.1,1.14-18.71,1.64-22.84,1.49c0,0.43-0.14,6.26-0.43,17.5c-0.14,5.55-0.14,33.09,0,82.61
		c11.2,0.83,26.8,0.21,37.99,0.21c6.54,0,6.54,9.82,0,9.82c-13.02,0-30.28,0.72-43.12-0.64c-2.28-0.28-3.7-1.49-4.27-3.63
		c-0.28-0.57-0.43-1.21-0.43-1.92c0-25.96-0.43-60.4,0-86.45c0.43-27.18,0-45.68-1.28-55.5
		C638.55,253.48,640.41,250.72,643.98,250.72L643.98,250.72z M706.31,248.16c3.27,0.14,16.29,0.21,39.06,0.21
		c6.54,0,6.54,9.82,0,9.82h-14.3c0.57,11.81,0.36,37.64-0.64,77.48c-0.33,13.35,0.08,26.05,0.96,40.45
		c0.5,8.18,0.82,14.34,0.96,18.46c0.08,4.46-4.99,6.83-8.32,3.74c-1-0.92-1.49-2.03-1.49-3.31c-0.14-4.13-0.46-10.35-0.96-18.68
		c-0.88-14.68-1.29-27.48-0.96-41.09c1-39.99,1.21-65.67,0.64-77.06c-5.83,0-10.96-0.07-15.37-0.21
		C699.82,257.88,699.25,248.16,706.31,248.16L706.31,248.16z M775.9,250.72h34.79c6.91,0,6.5,9.72,0.43,9.82
		c-4.27,0.14-14.16,0.14-29.67,0c0.71,7.4,1.14,15.72,1.28,24.97c3.84,0.14,11.17-0.36,21.99-1.49c4.14-0.45,7.08,4.49,4.27,8
		c-0.85,1.07-1.99,1.67-3.42,1.81c-11.1,1.14-18.71,1.64-22.84,1.49c0,0.43-0.14,6.26-0.43,17.5c-0.14,5.55-0.14,33.09,0,82.61
		c11.2,0.83,26.8,0.21,37.99,0.21c6.54,0,6.54,9.82,0,9.82c-13.02,0-30.29,0.72-43.12-0.64c-2.83-0.35-4.7-2.75-4.7-5.55
		c0-25.96-0.43-60.4,0-86.45c0.43-27.18,0-45.68-1.28-55.5C770.47,253.48,772.33,250.72,775.9,250.72L775.9,250.72z"/>
	<path d="M59.38,593.85c-1.3-7.62-2.83-15.31-3.87-22.94c-0.69-3.44-1.2-6.87-1.55-10.31c-0.69-6.7-2.75-20.45-6.19-41.25
		c-2.92-17.87-4.81-31.88-5.67-42.02c-2.23-26.29-3.95-43.05-5.16-50.27c-0.69-4.96,5.21-8.62,9.41-5.54c1.29,0.95,2.11,2.28,2.45,4
		c1.2,8.42,2.92,25.35,5.16,50.78c0.86,9.11,2.75,22.77,5.67,40.99c3.09,18.9,5.16,32.82,6.19,41.76c0.52,4.47,1.29,9.8,2.32,15.98
		c7.05-23.54,12.46-45.11,16.24-64.7l4.12-18.82c0.49-2.58,2.31-12.25,3.61-14.18c1.2-1.37,2.66-2.15,4.38-2.32
		c6.62-0.6,8.59,4.97,9.8,10.83c4.3,9.97,8.08,25.18,11.34,45.63c3.78,23.2,6.53,37.89,8.25,44.08c0.17-2.23,0.69-7.91,1.55-17.01
		c3.44-35.92,8.34-79.31,14.69-130.18c0.59-5.03,7.21-7.16,10.57-2.96c1.03,1.29,1.46,2.79,1.29,4.51
		c-6.36,50.87-11.26,94.09-14.69,129.67c-1.32,13.6-3.33,34.83-6.44,42.02c-3.67,8.47-11.04,6.29-13.41,1.8
		c-1.12-2.12-0.75-4.79-0.52-6.96l-4.12-16.24c-1.72-6.02-4.64-21.57-8.76-46.66c-2.41-14.44-4.81-25.69-7.22-33.77l-2.58,13.15
		c-4.81,23.72-11.94,50.7-21.4,80.95c-0.8,5.22-2.1,10.44-7.48,11.6c-1.89,0.34-3.52,0-4.9-1.03
		C57.48,601.34,59.38,597.15,59.38,593.85L59.38,593.85z M210.43,421.65l24.49,0.52c7.9,0,7.9,11.86,0,11.86h-6.7
		c0,22.1-1.08,57.86-1.8,79.14l-3.35,81.72c2.41-0.17,4.73-0.52,6.96-1.03c4.16-0.71,9.26,4.25,5.8,9.28
		c-0.95,1.38-2.19,2.23-3.74,2.58c-6.36,1.03-16.24,1.55-29.65,1.55c-7.9,0-7.9-11.86,0-11.86h8.76l1.8-39.44
		c0.69-18.05,1.2-32.27,1.55-42.66c0.72-21.77,1.8-57.22,1.8-79.79h-5.93C202.53,433.5,202.53,421.65,210.43,421.65L210.43,421.65z
		 M282.85,420.1c3.95,0.17,19.68,0.26,47.18,0.26c7.9,0,7.9,11.86,0,11.86h-17.27c0.69,14.26,0.43,45.46-0.77,93.58
		c-0.4,16.12,0.1,31.46,1.16,48.85c0.6,9.88,0.99,17.31,1.16,22.3c0.09,5.39-6.03,8.25-10.05,4.51c-1.2-1.12-1.8-2.45-1.8-4
		c-0.17-4.98-0.56-12.5-1.16-22.56c-1.06-17.73-1.56-33.18-1.16-49.62c1.2-48.29,1.46-79.31,0.77-93.06
		c-7.05,0-13.23-0.09-18.56-0.26C275.01,431.84,274.33,420.1,282.85,420.1L282.85,420.1z M456.07,429.38
		c-2.13,54.68-1.03,114.35-1.03,169.11c0,7.9-11.86,7.9-11.86,0c0-4.26-0.69-114.78,0-120.64c-0.17,0-6.62,0.26-19.33,0.77
		c-8.94,0.34-16.33,0.34-22.17,0c-0.52,6.87-0.77,12.46-0.77,16.76c-0.52,28.87-0.77,64.62-0.77,107.24c0,7.9-11.86,7.9-11.86,0
		c0-42.62,0.26-78.37,0.77-107.24c0.22-9.07,2.03-38.05,2.19-47.18c0.09-4.98-0.3-12.55-1.16-22.69c-0.52-5.63,5.6-8.67,9.67-5.41
		c1.29,1.03,2.02,2.32,2.19,3.87c1.2,10.66,1.29,24.92,0.26,42.79c5.5,0.17,12.55,0.17,21.14,0c12.72-0.52,19.33-0.77,19.85-0.77
		c0.34-13.06,0.69-25.43,1.03-37.12c0.07-5.06,6.66-7.66,10.18-3.87C455.51,426.2,456.07,427.66,456.07,429.38L456.07,429.38z
		 M534.17,431.44c-17.63,19.46-21.03,66.11-18.82,97.44c0.86,12.2,2.41,22.43,4.64,30.68c4.3,15.44,13.73,43.55,30.16,39.44
		c2.06-0.52,4.98-2.66,8.76-6.44c9.45-9.8,15.73-23.03,18.82-39.7c3.45-17.92,1.6-42.45-1.8-62.13
		c-4.66-26.95-13.38-53.9-29.26-57.74C543.84,432.3,539.67,431.79,534.17,431.44L534.17,431.44z M532.37,419.58
		c10.99,0,22.12,1.49,30.42,9.28c11.51,10.14,19.85,30.16,25.01,60.06c4.47,26.47,5.07,48.46,1.8,65.99
		c-3.61,18.9-11.08,34.2-22.43,45.89c-5.16,5.33-9.8,8.51-13.92,9.54c-25.87,6.6-38.12-24.28-44.6-47.69
		c-5.83-20.77-6.78-49.81-4.9-72.95c2.92-33.17,10.91-56.03,23.97-68.57C529.13,419.86,530.63,419.58,532.37,419.58L532.37,419.58z
		 M665.11,430.67c-3.98,32.2-5.67,57.06-3.74,88.81c1.33,21.84,7.03,64.42,21.01,77.72c2.58,2.41,5.07,3.27,7.48,2.58
		c3.95-1.37,8.42-6.19,13.4-14.44c5.33-8.59,9.37-23.97,12.12-46.14c0.17-26.64,1.03-49.32,2.58-68.06l1.8-19.59v-11.08
		c0-1.93-0.71-6.65,0-7.73c0,0,0-4.48,4.64-5.41c3.44-0.69,6.48,1.48,6.96,4.9l0.26,1.29c0.52,5.33,0.52,11.51,0,18.56
		c0,6.87-0.26,16.93-0.77,30.16c-1.03,24.75-2.15,43.22-3.35,55.42l-0.52,2.32v63.93c0,7.9-11.86,7.9-11.86,0v-15.21
		c-0.52,1.03-1.03,1.98-1.55,2.84c-6.53,10.66-13.15,17.1-19.85,19.33c-7.05,2.41-13.58,0.69-19.59-5.16
		c-7.56-7.39-13.49-20.45-17.79-39.18c-3.44-14.78-5.67-30.16-6.7-46.14c-2.17-33.92-0.35-55.81,3.61-91.26
		c0.55-4.97,7.19-7.19,10.57-2.96C664.86,427.45,665.29,428.95,665.11,430.67L665.11,430.67z M773.89,420.1
		c3.95,0.17,19.68,0.26,47.18,0.26c7.9,0,7.9,11.86,0,11.86h-17.27c0.69,14.26,0.43,45.46-0.77,93.58
		c-0.4,16.12,0.1,31.46,1.16,48.85c0.6,9.88,0.99,17.31,1.16,22.3c0.09,5.39-6.03,8.25-10.05,4.51c-1.2-1.12-1.8-2.45-1.8-4
		c-0.17-4.98-0.56-12.5-1.16-22.56c-1.06-17.73-1.56-33.18-1.16-49.62c1.2-48.29,1.46-79.31,0.77-93.06
		c-7.05,0-13.23-0.09-18.56-0.26C766.05,431.84,765.36,420.1,773.89,420.1L773.89,420.1z"/>
	<path d="M105.59,738.9c-7.03,0-12.66-1.23-16.84-3.75c-9.33-5.79-14.7-13.95-16.2-24.51c-3.54,5.31-7.4,9.98-11.53,14
		c-4.13,3.97-8.85,5.95-14.05,5.95c-2.84,0-5.26-1.02-7.24-3c-2.52-2.41-3.75-5.69-3.75-9.87c0-6.71,2.63-12.71,7.99-17.92
		c4.72-4.29,10.14-6.44,16.2-6.44l2.52,0.16c2.68,0.38,4.08,1.88,4.08,4.4c0,0.59-0.16,1.29-0.38,2.04
		c-0.27,0.7-0.91,1.34-1.93,1.88c-0.97,0.54-1.98,0.75-3.06,0.75l-1.56-0.11c-3.65,0-6.92,1.29-9.76,3.92
		c-3.33,3.33-4.99,7.24-4.99,11.64c0,1.95,0.31,3.43,2.47,3.43c1.61,0,3.11-0.54,4.56-1.56c4.4-3.38,9.28-9.01,14.64-17l3.59-4.99
		c0.64-6.71,3-15.88,7.08-27.46c4.08-11.59,9.01-22.48,14.81-32.78c7.72-13.89,14.81-20.87,21.19-20.87c8.71,0,9.93,8.55,9.6,15.4
		c-2.31,11.1-8.1,23.87-17.38,38.25c-9.28,14.43-17.22,24.68-23.82,30.74c-0.43,1.56-0.64,3-0.64,4.24c0,5.9,1.88,11.21,5.53,16.04
		c4.4,5.53,10.68,8.31,18.88,8.31c8.8,0,17.17-1.66,25.1-5.1c7.99-3.38,14.97-7.19,20.92-11.32c5.61-3.89,9.84-7.17,12.69-9.82
		c0.49-2.55,1.58-5,3.29-7.4c3.92-5.74,9.17-8.64,15.88-8.64c5.58,0,10.25,2.31,14,6.92c2.63,3.86,3.92,8.48,3.92,13.84
		c0,5.63-1.23,11.16-3.76,16.47h2.68c11,0,22.1-2.57,33.31-7.83c11.96-5.74,20.76-10.73,26.39-14.91c0.94-0.47,2.01-0.71,3.06-0.63
		c0.54-0.41,1.09-0.79,1.66-1.14c4.4-2.79,8.26-4.34,11.69-4.61c3.38-0.27,5.47-0.38,6.22-0.38c5.53,0,11,1.72,16.31,5.15
		c2.84-2.68,5.1-4.18,6.71-4.45c2.08-0.35,4.51-0.71,6.49,0.21c5.42,2.1,8.53,7.52,8.53,13.2c0,2.95-0.54,7.94-1.61,14.97
		c29.99-16.04,45.97-24.09,47.96-24.09c2.7,0,4.4,1.96,4.4,4.56c0,1.82-0.86,3.16-2.52,4.13c-15.72,7.51-33.1,16.52-52.19,27.04
		c-5.2,25.43-13.84,46.29-25.91,62.55c-6.81,9.07-14.97,15.45-24.51,18.99c-6.06,1.9-12.49,1.75-18.24-1.07
		c-5.04-2.63-8.37-6.76-10.03-12.44c-1.59-5.55-1.53-11.06,0.43-16.52c1.82-5.31,4.18-9.66,7.08-13.04
		c10.78-12.12,31.86-26.93,63.19-44.31c1.88-9.82,2.84-16.47,2.84-19.79c0-1.51-0.59-5.69-2.68-5.69c-0.86,0-2.58,1.39-5.2,4.13
		c-12.77,14.75-24.46,22.15-35.03,22.15c-1.56,0-3.17-0.11-4.72-0.32c-5.74-1.34-9.12-4.56-10.08-9.6c-0.07-1.4-0.16-2.65-0.01-4.05
		c-4.81,2.69-10.43,5.49-16.84,8.4c-12.45,5.58-23.98,8.42-34.65,8.42c-3.7,0-7.35-0.32-11-0.97c-4.4,4.29-9.44,6.44-15.07,6.44
		c-5.47,0-9.98-2.09-13.52-6.28c-2.2-2.84-3.33-5.85-3.33-8.96c0-1.94,0.34-3.84,1.01-5.68c-1.23,0.89-2.55,1.84-3.96,2.84
		C139.5,733,122.55,738.9,105.59,738.9L105.59,738.9z M81.03,688.96c6.22-7.35,12.87-16.95,20.06-28.81
		c7.19-11.8,11.48-21.78,12.98-29.83c0-1.04,0.15-4.01-0.8-4.4c-2.52,0.32-5.9,4.02-10.19,11.16c-4.29,7.13-8.58,15.5-12.77,25.21
		C86.12,672.01,83.06,680.86,81.03,688.96L81.03,688.96z M179.73,729.46l1.56-0.59c-4.29-2.41-8.15-5.36-11.64-8.8
		c-0.59,1.34-0.91,2.57-0.91,3.75c0,2.48,1.74,5.09,4.24,5.63C175.48,730.11,177.21,730.06,179.73,729.46L179.73,729.46z
		 M188.53,722.27c2.52-4.24,3.75-8.8,3.75-13.84c0-3.59-0.75-6.44-2.36-8.64c-1.56-2.2-3.76-3.33-6.6-3.33c-3,0-5.47,1.18-7.35,3.49
		c-1.29,1.56-2.09,3.16-2.52,4.83c1.13-0.7,2.2-1.07,3.11-1.07c2.31,0,3.81,1.02,4.4,3.16l0.32,1.39c0,1.77-0.86,3.11-2.68,4.08
		c-0.8,0.43-1.61,0.91-2.31,1.39C179.94,717.55,184.02,720.34,188.53,722.27L188.53,722.27z M263.3,808.85
		c7.46-2.74,13.95-7.67,19.53-14.86c5.52-7.19,10.19-15.4,13.95-24.57c3.81-9.23,6.81-18.29,9.12-27.2
		c-26.71,15.29-44.47,27.95-53.27,38.03c-2.41,2.68-4.13,5.58-5.1,8.53c-2.31,6.82-2.69,15.64,4.61,19.58
		C255.82,810.04,259.49,809.94,263.3,808.85L263.3,808.85z M268.67,721.95c6.92,0,14.91-4.94,24.03-14.81
		c-3.43-1.88-6.97-2.79-10.51-2.79c-4.72,0-8.96,1.18-12.71,3.59c-1.93,1.29-3.49,3-4.72,5.2c-0.93,1.59-2.55,5.04-1.61,6.92
		C263.68,721.3,265.5,721.95,268.67,721.95L268.67,721.95z M487.21,740.35h-0.75c-10.78-1.07-16.9-8.42-18.24-22.05
		c-0.11-2.31-0.32-3.97-0.64-5.1c-0.54-1.79-1.12-2.47-3-2.74c-1.74,1.28-7.28,10.51-7.51,10.51c-3.86,7.24-8.26,12.39-13.2,15.4
		c-4.88,2.44-7.4-1.42-7.4-6.12c0-5.36,2.09-13.73,6.28-25.16c5.36-15.5,12.34-31.33,20.92-47.53c8.58-16.2,16.68-27.52,24.35-34.01
		c3.73-2.88,6.38-4.72,11.16-4.72c3.97,0,7.19,1.34,9.6,4.08c2.84,2.56,3.27,5.68,3.27,9.28c-1.56,10.14-8.85,22.42-21.89,36.85
		c-13.09,14.38-25.7,26.66-37.98,36.85l-4.08,12.23l1.39-2.04c2.52-4.29,4.99-7.83,7.4-10.57c2.59-3,5.05-4.18,8.96-4.18
		c5.85,1.07,9.5,4.56,10.84,10.51c0.54,2.41,0.8,4.4,0.8,6.01c0,2.57,0.64,5.47,2.04,8.64c1.34,3.11,3.92,4.72,7.67,4.72
		c5.36,0,12.45-3.33,21.3-9.92c8.85-6.6,16.41-12.82,22.74-18.72c0.43-0.38,0.8-0.66,1.23-1.07c4.72-4.4,10.08-6.6,16.2-6.6
		c4.4,0,6.6,1.56,6.6,4.72c0,1.77-0.7,3.06-2.04,3.92c-1.74,1.09-2.83,0.78-4.72,0.64c-3.7,0-6.97,1.29-9.92,3.92
		c-3.33,3.33-5.04,7.13-5.04,11.32c0,1.96,0.29,3.76,2.52,3.76c4.13,0,8.9-4.4,14.48-13.2c2.95-4.83,6.28-8.96,10.03-12.39
		c2.27-1.65,4.59-1.72,6.92-0.16c2.66,1.75,3.11,3.73,2.52,6.6c-0.75,3.22-1.07,6.17-1.07,8.8c0,4.51,1.13,8.21,3.43,11.16
		c3.49,4.29,9.01,6.44,16.68,6.44c9.17-0.11,18.4-3.49,27.63-10.19c7.42-5.26,13.04-9.84,16.91-13.74c0.84-1.69,1.8-3.4,2.88-5.14
		c0.86-1.45,2.15-2.2,3.81-2.2c1.53,0,4.13,1.57,4.4,3.16c0.57,3.15-0.79,4.42-2.17,6.96c-0.19,0.81-0.57,1.57-1.15,2.26
		c-1.97,4.16-2.95,8-2.95,11.48c0,7.35,3.92,11,11.75,11c3.81,0,8.37-0.97,13.68-2.95c8.42-3.27,16.95-7.62,25.69-13.14
		c7.49-4.69,13.92-9.22,19.21-13.49c-2.04-2.63-3.43-6.18-4.19-10.65c0-5.32,0.42-9.71,2.36-14.75c1.74-5.04,6.68-9.6,12.23-9.6
		c7.11,0,11.32,6.17,11.32,12.93c-0.11,2.79-0.75,6.28-2.04,10.35c-1.13,3.43-2.63,6.6-4.4,9.44c2.31,0.27,5.04,0.43,8.15,0.43
		l6.6-0.11c3.71,0,6.92,2.98,6.92,6.76c0,1.66-0.54,3.11-1.72,4.4c-3.22,3.76-4.88,7.78-4.88,12.07c0,6.63,5.35,8.64,11,8.64
		c14.38,0,37.44-10.67,69.15-32.02c0.75-0.54,1.56-0.8,2.36-0.8c1.72,0,2.95,0.7,3.81,2.04c0.48,0.86,0.75,1.66,0.75,2.52
		c0,1.66-0.59,3-1.88,3.92c-33.53,22.32-58.42,33.47-74.62,33.47c-7.67,0-12.93-2.04-15.72-6.12c-2.63-3.27-3.97-7.03-3.97-11.32
		c0-5.04,1.39-9.82,4.13-14.32h-3.49c-4.47,0-8.94-0.62-13.38-1.93c-3.57,3.53-13.66,10.26-30.29,20.17
		c-13.2,7.99-25.64,12.39-37.23,13.2c-3.59,0-6.81-0.64-9.76-2.04c-7.69-3.7-10.8-10.36-10.67-18.67c-2.44,1.9-5.14,3.88-8.1,5.95
		c-9.28,6.49-19.53,10.19-30.74,11.16c-7.56,0-13.2-1.07-16.95-3.16c-9.23-4.99-13.84-12.98-13.84-23.87l-1.45,2.52
		c-7.19,11.53-14.81,17.27-22.74,17.27c-2.95,0-5.42-0.97-7.4-2.95c-2.16-2.16-3.38-5.1-3.61-8.78c-2.83,2.26-6.08,4.75-9.75,7.49
		C504.8,735.41,495.63,739.49,487.21,740.35L487.21,740.35z M459.74,687.03c12.66-11.69,22.91-22.58,30.79-32.51
		c7.83-9.98,12.02-17.49,12.39-22.64c0-0.86-0.05-1.45-0.16-1.88c-0.7-1.34-1.88-2.04-3.43-2.04c-0.75,0-1.56,0.21-2.52,0.64
		c-5.85,3.22-12.12,10.46-18.77,21.72C471.38,661.6,465.27,673.83,459.74,687.03L459.74,687.03z M646.1,691.42
		c-2.95,0-4.4-1.56-4.4-4.67c0-3.42,2.58-6.76,6.12-6.76c2.95,0,4.4,1.56,4.4,4.67C652.21,688.14,649.68,691.42,646.1,691.42
		L646.1,691.42z M715.73,698.18c1.34-1.88,2.57-4.29,3.59-7.19c1.29-3.81,1.88-6.71,1.88-8.8c0-2.41-0.64-3.65-2.04-3.65
		c-4.78,0-5.16,9.19-5.47,12.87C713.69,694.37,714.33,696.63,715.73,698.18L715.73,698.18z"/>
</g>
</svg>
