<?xml version="1.0" encoding="utf-8"?>
<!-- Generator: Adobe Illustrator 24.3.0, SVG Export Plug-In . SVG Version: 6.00 Build 0)  -->
<svg version="1.1" id="Layer_1" xmlns="http://www.w3.org/2000/svg" xmlns:xlink="http://www.w3.org/1999/xlink" x="0px" y="0px"
	 viewBox="0 0 864 864" style="enable-background:new 0 0 864 864;" xml:space="preserve">
<g>
	<path d="M58.61,344.53c0.45,5.87,0.9,10.23,0.9,14.75c0.3,10.54,0.15,21.07,0.45,31.61c0.3,9.18,5.27,15.65,13.7,18.81
		c14.3,5.42,35.97-8.28,37.93-23.48c0.3-3.31,0.75-7.22-3.76-8.13c-3.76-0.9-5.42,1.81-6.32,4.97c-1.81,6.62-6.02,11.14-11.89,14.3
		c-10.69,5.87-18.66,1.5-18.96-10.84c-0.3-11.59-0.15-23.18,0-34.92c0-2.11-1.35-7.83,1.5-7.07c8.88-2.26,17.46-0.15,26.19-0.45
		c7-0.28,8.61-11.44-0.75-11.44c-4.97,0-9.78,0.15-14.75,0c-3.61-0.15-7.22-0.6-11.89-0.9c-0.15-7.53-0.3-14.3-0.45-20.92
		c-0.15-4.36-1.2-10.39-7.22-9.18c-7.83,1.96-0.45,21.07-6.02,30.7c-5.12,0.3-9.93,0.3-14.75,0.9c-3.61,0.45-7.37,1.96-6.32,6.17
		c0.45,2.11,3.91,4.52,6.32,4.82C47.32,344.98,52.13,344.53,58.61,344.53L58.61,344.53z M135.18,396.61
		c-2.86,0.6-11.29-1.81-12.19,5.72c-0.45,3.76,2.56,5.27,4.21,5.57c8.58,1.05,17.16,1.51,25.89,2.11c3.11,0.11,6.51-3.85,6.47-4.97
		c-0.15-1.96-1.5-4.36-3.01-5.27c-2.41-1.66-5.42-2.11-8.73-3.31c0-8.58-0.9-16.86,0.15-24.98c1.51-11.14,7.83-20.17,17.31-26.64
		c2.56-1.66,6.32-2.56,9.48-2.71c9.78-0.45,14.6,4.06,14.75,14c0.15,10.84-0.15,21.82-0.45,32.66c-0.15,2.56-0.9,5.12-1.35,7.07
		c-4.67,3.61-12.49-0.75-13.4,7.98c-0.3,2.56,2.26,4.67,3.76,4.67c2.86,1.51,29.8,1.51,31.46-0.45c4.06-4.21,3.16-11.59-9.78-11.59
		c0-2.71,0-9.63,0-13.7c0.3-9.33,0.75-18.81,0.6-28.15c-0.15-12.94-5.57-19.27-17.61-22.88c-9.48-2.86-17.61-0.15-25.59,4.97
		c-2.56,1.66-6.02,4.97-8.13,3.16c-2.26-1.81-1.51-16.71-1.35-25.29c0-3.61-0.75-7.68-4.52-8.28c-5.42-0.75-11.14-0.45-16.71,0.15
		c-1.35,0.15-3.46,3.16-3.46,4.82c0,1.66,2.11,3.76,3.91,4.52c2.86,1.35,6.17,1.66,9.03,2.26
		C137.89,331.89,137.44,386.67,135.18,396.61L135.18,396.61z M267.44,400.07c-0.3-4.06-0.75-8.13-0.9-12.19
		c0-13.55-0.15-27.09,0-40.64c0-4.97-1.5-9.03-6.62-10.39c-10.39-2.86-20.92-2.56-31,1.35c-4.97,1.96-5.57,5.57-2.11,9.78
		c3.61,3.31,18.36-5.12,28.3,0.45c1.5,17.16,1.2,34.62,0.3,52.08c-8.88,1.81-16.56,3.61-24.53,1.35c-3.01-0.9-6.32-0.75-7.68,2.71
		c-1.5,4.21,1.51,6.62,4.82,7.53c4.36,1.05,8.88,1.81,13.24,1.66c15.8-0.45,31.46-4.67,47.26-1.66c6.41,1.43,8.72-8.39,0.75-10.08
		C282.34,400.37,275.27,401.42,267.44,400.07L267.44,400.07z M264.73,316.39c0-6.32-5.42-11.14-11.74-10.84
		c-6.02,0.3-10.54,4.82-10.69,10.69c-0.15,6.17,4.97,11.59,11.14,11.59C259.62,327.82,264.88,322.56,264.73,316.39L264.73,316.39z
		 M321.29,344.68c0,18.21,0.75,36.42-0.45,54.48c-4.82,0.9-8.58-1.05-11.44,2.11c-2.56,3.76-2.11,7.07,1.05,8.13
		c9.93,1.35,27.39,1.96,30.85,0.9c4.21-1.51,4.36-6.77,0.45-8.73c-2.56-1.35-5.57-1.81-9.03-2.71c0-22.59-3.64-36.66,16.86-51.93
		c5.87-4.52,12.64-4.67,19.11-1.2c5.87,3.16,6.17,9.03,6.02,14.75c-0.3,9.03-0.75,18.06-1.2,27.09c-0.15,3.61-0.75,7.22-1.05,10.84
		c-3.46,0.9-6.32,1.05-8.43,2.41c-1.96,1.2-4.21,3.91-3.91,5.57c0.15,1.66,3.46,4.06,5.42,4.06c4.06,1.2,24.98,1.81,27.69,0.15
		c6.02-10.39-5.12-9.78-7.83-14.15c0-13.7,0.3-27.24,0-40.79c-0.3-12.79-7.98-21.07-20.62-22.88c-7.68-1.05-14.9,0.3-21.52,4.82
		c-2.71,1.81-5.42,3.61-8.58,5.87c-1.81-4.82-1.51-12.94-4.97-13.4c-9.33,0.75-26.34,0.15-24.08,8.13
		C308.35,347.24,315.12,341.97,321.29,344.68L321.29,344.68z M419.08,315.03c0,27.69,0,54.18,0,80.97c-3.01,0.9-5.72,1.2-7.83,2.56
		c-1.81,1.2-4.36,0.9-4.06,5.27c0.6,1.96,3.31,4.51,5.27,4.67c8.13,0.6,16.41,0.6,24.68,0.15c4.36-0.3,6.62-3.16,4.82-8.43
		c-1.51-3.31-6.47-2.71-10.69-4.36c-0.75-12.94,10.54-16.71,17.16-24.83c7.37,8.13,12.34,16.26,15.8,24.98
		c-3.31,2.71-10.39,2.86-9.48,7.53c-0.6,5.57,4.21,4.97,5.87,4.97c8.58,0.45,17.16,0.6,25.89,0.15c7.22-0.3,9.48-6.92,3.76-8.13
		c-4.67-1.96-9.63-2.56-11.74-5.27c-7.68-10.54-14.45-21.67-20.62-33.41c9.18-9.63,17.91-20.62,29.35-21.52
		c1.96-4.67,0.75-8.28-3.31-8.43c-8.88-0.6-17.91-0.15-26.79,0.3c-1.51,0.15-5.42,1.5-4.21,4.82c1.81,2.86,3.31,5.27,4.97,7.98
		c-7.98,8.43-15.05,17.01-25.89,24.68c-0.6-5.42-1.2-9.33-1.2-13.24c-0.15-12.79,0-25.44-0.15-38.23c0-4.36,0.15-10.84-1.35-12.64
		c-6.62-3.76-12.64-3.31-18.51-2.11c-1.81,0.45-4.52,3.01-4.36,4.21c-1.35,4.36,2.11,4.52,4.06,5.72
		C412.61,314.58,415.47,314.43,419.08,315.03L419.08,315.03z M514.92,396.61c8.73,9.93,26.34,12.79,37.48,7.83
		c9.48-4.06,14-10.84,13.7-21.07c-0.3-11.59-6.77-19.42-18.96-21.97c-7.68-1.51-15.5-1.96-23.33-3.01
		c-3.46-0.45-6.47-2.11-7.38-5.87c-1.05-4.52,0.15-8.28,3.76-10.99c1.51-1.2,3.31-1.81,5.12-2.41c10.99-3.61,19.87,0.15,26.94,11.59
		c1.66,2.86,3.46,5.72,6.77,4.21c1.96-0.9,3.61-3.91,3.76-6.17c0.6-6.32,0.3-12.64,0.15-19.11c-0.15-3.16-1.35-5.87-6.02-6.32
		c-4.06,0-5.12,6.92-3.76,10.99c-9.48-9.03-25.29-7.98-32.51-5.42c-11.29,3.91-17.01,12.79-15.5,24.38
		c1.35,10.39,6.62,14.6,19.57,16.1c7.07,0.9,14.15,1.51,21.07,3.16c6.92,1.66,9.48,5.87,9.03,12.34c-0.3,5.72-3.31,8.88-10.08,10.23
		c-9.93,2.26-18.36-0.6-25.29-8.28c-2.71-2.86-10.08-10.99-13.55-7.68c-2.11,2.71-1.51,16.71,1.05,25.29
		c0.3,1.35,1.81,4.06,4.37,3.31C515.68,406.39,514.62,400.97,514.92,396.61L514.92,396.61z M667.81,320.3
		c6.02-0.3,11.59-0.45,17.16-0.75c3.46-0.3,6.02-1.66,6.17-5.27c0.15-3.91-2.86-4.97-6.02-5.27c-2.71-0.15-5.27-0.15-7.98,0
		c-12.79,0.15-25.59,0.15-38.38,0.6c-2.26,0.15-5.12,1.2-6.77,2.86c-1.05,1.05-0.6,4.82,0.6,7.07c1.96,2.56,13.7,0.75,20.32,1.35
		c3.61,14.9,4.67,67.13,1.66,76.91c-5.12,0.6-10.39,1.2-15.5,2.11c-3.46,0.6-7.37,1.35-6.92,5.87c0.6,6.25,7.17,4.96,12.04,4.82
		c13.09-0.75,26.19-1.35,39.43-1.96c1.81-0.15,3.76,0,5.57-0.15c3.46-0.3,6.32-1.96,5.87-5.42c-0.3-1.81-3.16-3.76-5.27-4.67
		c-1.96-0.9-4.36-0.45-6.62-0.6c-4.52-0.15-8.88-0.3-12.94-0.45C666.75,387.28,664.95,334.75,667.81,320.3L667.81,320.3z
		 M711.42,324.82c4.51-4.52,8.88-9.18,9.93-15.8c0-1.66,0-3.31-0.3-4.82c-0.75-2.71-2.41-4.36-4.82-5.72
		c-4.55-2.15-12.25,1.25-9.93,8.88c0.6,2.71,3.01,4.36,6.17,4.82c1.05,0,1.96,0.3,3.76,0.3c-1.35,1.66-2.11,3.16-3.16,4.52
		C710.76,320.19,706.66,323.33,711.42,324.82L711.42,324.82z M816.29,397.96c0-5.12,0.15-9.93,0-14.9c0-10.54,0.45-21.07-0.3-31.46
		c-0.9-12.94-10.69-18.21-22.43-12.79c-3.31,1.51-6.47,3.31-10.08,5.27c-7.83-11.44-17.31-8.58-26.49-3.46
		c-3.46-2.11-6.02-4.36-9.18-5.57c-4.97-1.66-11.59,1.2-12.34,4.97c-1.05,5.87,3.76,6.32,7.53,7.83c0.6,0.15,0.9,1.05,0.9,1.05
		c0,16.56,0,32.66,0,48.16c-8.13,0.6-15.65,9.03-8.88,12.64c20.17,2.41,30.7,2.26,29.35-4.52c-1.66-4.52-4.52-7.53-8.88-7.83
		c0-9.93-0.3-19.72,0.15-29.5c0.45-9.63,10.53-22.28,14.6-18.81c4.06,2.11,2.56,12.94,2.86,19.87c0.3,6.77,0.45,13.55,0,20.32
		c0,13.09-5.42,8.13-3.91,16.26c2.56,6.47,11.29,5.27,15.95,4.52c5.12-0.6,6.17-4.36,3.31-9.03c-1.51-2.41-3.76-4.97-3.91-7.53
		c-0.45-8.73-0.6-17.31,0-25.89c0.6-10.08,13.25-22.58,18.21-17.01c2.86,2.86,4.36,30.4,1.81,46.36c-6.47,0.45-7.07,5.12-6.47,9.78
		c0.45,4.36,19.87,4.52,23.18,4.52c1.96,0,5.42-1.81,5.87-3.31c1.96-3.31,0.45-5.57-2.71-7.83
		C822.91,398.56,820.65,397.96,816.29,397.96L816.29,397.96z M63.02,452.32c0,30.11,0,58.91,0,88.03c-3.27,0.98-6.22,1.31-8.51,2.78
		c-1.96,1.31-4.75,0.98-4.42,5.73c0.65,2.13,3.6,4.91,5.73,5.07c8.84,0.65,17.84,0.65,26.84,0.16c4.75-0.33,7.2-3.44,5.24-9.16
		c-1.64-3.6-7.04-2.95-11.62-4.75c-0.82-14.07,11.45-18.16,18.65-27c8.02,8.84,13.42,17.67,17.18,27.16
		c-3.6,2.95-11.29,3.11-10.31,8.18c-0.65,6.05,4.58,5.4,6.38,5.4c9.33,0.49,18.65,0.65,28.14,0.16c7.85-0.33,10.31-7.53,4.09-8.84
		c-5.07-2.13-10.47-2.78-12.76-5.73c-8.35-11.45-15.71-23.56-22.42-36.33c9.98-10.47,19.47-22.42,31.91-23.4
		c2.13-5.07,0.82-9-3.6-9.16c-9.65-0.65-19.47-0.16-29.13,0.33c-1.64,0.16-5.89,1.64-4.58,5.24c1.96,3.11,3.6,5.73,5.4,8.67
		c-8.67,9.16-16.36,18.49-28.14,26.84c-0.65-5.89-1.31-10.15-1.31-14.4c-0.16-13.91,0-27.65-0.16-41.56
		c0-4.75,0.16-11.78-1.47-13.75c-7.2-4.09-13.74-3.6-20.13-2.29c-1.96,0.49-4.91,3.27-4.75,4.58c-1.47,4.75,2.29,4.91,4.42,6.22
		C55.98,451.83,59.09,451.67,63.02,452.32L63.02,452.32z M200.56,544.77c-0.33-4.42-0.82-8.84-0.98-13.25
		c0-14.73-0.16-29.45,0-44.18c0-5.4-1.64-9.82-7.2-11.29c-11.29-3.11-22.75-2.78-33.71,1.47c-5.4,2.13-6.05,6.05-2.29,10.64
		c3.93,3.6,19.96-5.56,30.76,0.49c1.64,18.65,1.31,37.64,0.33,56.62c-9.65,1.96-18,3.93-26.67,1.47c-3.27-0.98-6.87-0.82-8.35,2.95
		c-1.64,4.58,1.64,7.2,5.24,8.18c4.75,1.15,9.65,1.96,14.4,1.8c17.18-0.49,34.2-5.07,51.38-1.8c1.47,0.33,3.11-0.33,4.74-0.65
		c3.11-5.56,1.47-9.16-3.93-10.31C216.76,545.1,209.06,546.25,200.56,544.77L200.56,544.77z M197.61,453.79
		c0-6.87-5.89-12.11-12.76-11.78c-6.55,0.33-11.45,5.24-11.62,11.62c-0.16,6.71,5.4,12.6,12.11,12.6
		C192.05,466.23,197.77,460.5,197.61,453.79L197.61,453.79z M255.13,484.56c0,19.8,0.82,39.6-0.49,59.23
		c-5.24,0.98-9.33-1.15-12.44,2.29c-2.78,4.09-2.29,7.69,1.15,8.84c10.8,1.47,29.78,2.13,33.54,0.98c4.58-1.64,4.75-7.36,0.49-9.49
		c-2.78-1.47-6.05-1.96-9.82-2.95c0-24.56-3.96-39.85,18.33-56.45c6.38-4.91,13.75-5.07,20.78-1.31c6.38,3.44,6.71,9.82,6.55,16.04
		c-0.33,9.82-0.82,19.64-1.31,29.45c-0.16,3.93-0.82,7.85-1.15,11.78c-3.76,0.98-6.87,1.15-9.16,2.62
		c-2.13,1.31-4.58,4.25-4.25,6.05c0.16,1.8,3.76,4.42,5.89,4.42c4.42,1.31,27.16,1.96,30.11,0.16c6.55-11.29-5.56-10.64-8.51-15.38
		c0-14.89,0.33-29.62,0-44.34c-0.33-13.91-8.67-22.91-22.42-24.87c-8.35-1.15-16.2,0.33-23.4,5.24c-2.95,1.96-5.89,3.93-9.33,6.38
		c-1.96-5.24-1.64-14.07-5.4-14.56c-10.15,0.82-28.64,0.16-26.18,8.84C241.06,487.34,248.42,481.61,255.13,484.56L255.13,484.56z
		 M400.85,547.88c3.27,2.62,5.56,4.42,7.85,5.89c11.54,7.31,28.1-1.41,24.54-8.67c-2.62-5.24-6.55-2.78-10.47-1.64
		c-12.36,3.38-11.24-8.25-11.29-17.18c-0.33-27,2.78-81-0.33-82.31c-11.45-1.96-21.6-0.16-31.25-0.16c-4.09,0-7.53,1.47-7.36,6.22
		c0.33,4.25,3.76,4.91,7.2,4.91c6.05,0.16,11.95,0.33,18,0.49c2.29,7.53,3.27,20.62,1.47,19.8c-1.8-0.49-4.91-0.49-6.05-0.98
		c-18.16-6.22-36,0.49-44.02,17.51c-7.69,16.36-7.53,33.38-0.33,49.91c5.07,11.45,14.4,16.85,27.33,16.85
		C385.8,558.52,393,553.61,400.85,547.88L400.85,547.88z M381.54,483.74c22.09,6.22,22.74,37.14,10.8,53.67
		c-4.91,6.71-11.45,10.64-19.96,9.16c-8.18-1.47-12.44-7.36-14.73-14.89c-2.62-9.16-3.11-18.49-0.49-27.82
		c0.82-2.29,1.47-4.58,2.62-6.71C364.53,488.48,371.73,483.41,381.54,483.74L381.54,483.74z M502.06,509.27
		c0.16,1.15,0.16,4.42,0.82,7.69c5.4,31.42,41.4,46.8,66.93,28.64c25.53-18.16,23.56-59.4-0.16-76.91
		c-5.89-3.93-13.42-6.55-20.29-7.36C522.52,457.88,501.25,481.28,502.06,509.27L502.06,509.27z M574.06,499.45
		c0.16,1.31,0,11.95-1.64,16.04c-3.27,13.91-12.27,25.36-25.85,26.18c-20.28,1.14-34.51-24.98-29.94-43.85
		c3.93-15.71,16.69-26.67,31.25-25.2C564.24,474.25,571.61,483.9,574.06,499.45L574.06,499.45z M619.64,541.99
		c-4.09,0.33-7.69,0.65-11.29,0.82c-9,0.65-12.44,2.78-11.94,7.2c0.49,4.09,3.76,5.4,12.11,5.07c13.91-0.49,27.82-0.82,41.73-1.31
		c2.45,0,5.07,0.33,7.2-0.65c1.64-0.49,3.44-2.62,3.44-4.25c0.16-1.47-1.15-4.25-2.45-4.91c-2.45-1.15-5.56-1.31-8.35-1.47
		c-4.75-0.33-9.65-0.49-14.07-0.65c-3.93-10.31-4.75-40.09-1.8-52.2c6.22-6.55,21.93,4.91,22.25-6.22
		c1.31-9.98-16.36-4.58-22.58-10.15c-2.29-17.02,8.18-25.36,24.38-18.98c0,1.8-0.16,3.76,0.16,5.73c0.65,5.4,3.27,9.16,9,10.15
		c4.25,0.82,8.18-0.33,10.8-3.93c3.44-4.75,2.29-9.33-0.16-13.91c-0.65-0.98-1.31-2.13-2.29-2.95c-9.49-9.65-21.44-11.62-33.87-8.67
		c-11.45,2.62-18,10.8-20.45,22.09c-0.82,3.44-1.15,7.04-1.96,11.62c-5.56,0.65-10.64,1.47-15.87,1.96c-3.6,0.49-6.55,1.8-6.55,5.73
		c0,4.09,2.95,5.4,6.71,5.56c5.07,0.16,10.31,0.33,15.05,0.49C621.6,499.12,621.93,528.25,619.64,541.99L619.64,541.99z
		 M754.23,481.94c8.02-4.75,15.54-5.07,23.07-1.96c10.46,4.19,14.8,19.51-1.15,23.4c-5.24,1.31-10.64,1.31-15.71,2.45
		c-5.89,1.31-12.11,2.45-17.35,5.24c-8.18,4.42-11.62,12.27-10.64,21.6c0.82,9.16,5.73,15.54,14.07,18.33
		c5.56,1.8,12.11,2.62,17.84,1.64c9.16-1.64,23.73-4.75,27.82-9.49c1.64,0.82,1.96,4.09,4.58,5.07c6.05,2.13,14.56,0,18-5.4
		c1.15-1.96,1.64-5.4,0.65-7.53c-0.33-1.31-3.76-2.78-6.22-1.96c-1.96,0.65-5.4,6.05-7.53,2.45c-0.66-3.93-1.47-7.04-1.8-10.15
		c-0.65-10.96-1.15-21.93-1.64-33.05c-0.16-7.2-2.45-13.58-7.85-18.49c-11.45-10.96-36.16-10.47-47.29,0.82
		c-4.09,4.25-6.71,9.16-5.73,15.38c0.82,4.58,3.76,7.04,8.51,7.04c4.09,0,7.04-1.96,7.85-6.22
		C754.07,488.32,751.45,485.38,754.23,481.94L754.23,481.94z M785.48,515.16c1.8,12.44-0.98,18.98-10.47,22.25
		c-6.38,2.29-13.58,2.95-20.29,3.11c-5.4,0.33-9.16-3.11-10.31-8.51c-2.07-9.12,8.35-13.49,16.2-14.56
		C768.63,516.47,776.65,515.97,785.48,515.16L785.48,515.16z M250.66,241.95c0-6.04,0.18-11.73,0-17.59
		c0-12.44,0.53-24.87-0.36-37.13c-1.07-15.28-12.61-21.5-26.47-15.1c-3.91,1.78-7.64,3.91-11.9,6.22
		c-9.24-13.5-20.43-10.13-31.27-4.09c-4.09-2.49-7.11-5.15-10.84-6.57c-5.86-1.95-13.68,1.42-14.57,5.86
		c-1.24,6.93,4.44,7.46,8.88,9.24c0.71,0.18,1.07,1.24,1.07,1.24c0,19.54,0,38.55,0,56.85c-9.59,0.71-18.48,10.66-10.48,14.92
		c23.81,2.84,36.24,2.67,34.65-5.33c-1.95-5.33-5.33-8.88-10.48-9.24c0-11.73-0.36-23.27,0.18-34.82
		c0.53-11.37,12.44-26.29,17.23-22.21c4.8,2.49,3.02,15.28,3.38,23.45c0.36,8,0.53,15.99,0,23.99c0,15.46-6.4,9.59-4.62,19.19
		c3.02,7.64,13.33,6.22,18.83,5.33c6.04-0.71,7.28-5.15,3.91-10.66c-1.78-2.84-4.44-5.86-4.62-8.88c-0.53-10.3-0.71-20.43,0-30.56
		c0.71-11.9,15.64-26.65,21.5-20.08c3.38,3.38,5.15,35.89,2.13,54.72c-7.64,0.53-8.35,6.04-7.64,11.55
		c0.53,5.15,23.45,5.33,27.36,5.33c2.31,0,6.4-2.13,6.93-3.91c2.31-3.91,0.53-6.57-3.2-9.24
		C258.48,242.66,255.81,241.95,250.66,241.95L250.66,241.95z M289.55,283.53c-2.67-3.02,2.31-5.15,3.02-7.46
		c1.42-4.8,0.53-8.88-4.26-11.19c-4.44-2.13-10.3-0.53-12.97,3.73c-1.42,2.13-2.31,4.8-2.67,7.46c-1.24,8.35,2.49,14.57,9.42,19.01
		c7.82,4.98,16.52,5.69,23.63-0.18c6.4-5.69,12.44-12.61,16.52-20.25c7.11-13.68,12.79-28.25,18.66-42.64
		c6.04-14.75,11.73-29.49,17.59-44.59c2.84-0.71,5.86-0.71,7.82-2.13c2.13-1.6,4.09-4.44,4.44-6.93c0-1.42-3.38-4.44-5.33-4.62
		c-10.48-0.36-21.14-0.53-31.8,0c-2.13,0.18-5.86,3.73-5.69,5.51c0,2.31,3.02,4.97,5.51,6.22c2.49,1.24,5.86,1.07,8.71,1.6
		c-1.42,13.86-15.81,51.7-19.72,47.26c-6.4-14.57-12.44-28.6-18.83-43.17c3.2-1.6,5.15-2.49,7.11-3.38c4.26-1.78,8.71-3.73,6.4-9.59
		c-1.78-4.62-5.86-3.73-10.13-3.2c-7.46,1.07-14.92,1.24-22.39,1.6c-3.02,0.18-6.22-0.36-9.24,0.18c-1.78,0.36-4.09,2.66-4.44,4.09
		c-1.42,4.8,3.55,7.46,7.99,8c7.46,0.71,11.73,4.8,14.57,11.55c6.57,15.99,14.04,31.62,20.61,47.62c1.42,3.02,2.67,7.46,1.42,9.95
		c-3.55,8-8.17,15.63-13.15,22.92C300.03,284.42,296.12,287.26,289.55,283.53L289.55,283.53z M488.69,247.82
		c3.55,2.84,6.04,4.8,8.53,6.4c5.69,3.55,11.73,3.73,17.95,1.78c6.75-2.13,10.66-7.11,8.71-11.19c-2.84-5.69-7.11-3.02-11.37-1.78
		c-7.64,1.95-10.84-0.36-11.9-8c-0.53-3.55-0.36-7.11-0.36-10.66c-0.36-29.32,3.02-87.95-0.36-89.37
		c-12.44-2.13-23.45-0.18-33.93-0.18c-4.44,0-8.17,1.6-8,6.75c0.36,4.62,4.09,5.33,7.82,5.33c6.57,0.18,12.97,0.36,19.54,0.53
		c2.49,8.17,3.55,22.39,1.6,21.5c-1.95-0.53-5.33-0.53-6.57-1.07c-19.72-6.75-39.09,0.53-47.79,19.01
		c-8.35,17.77-8.17,36.24-0.36,54.19c5.51,12.44,15.63,18.3,29.67,18.3C472.34,259.36,480.16,254.03,488.69,247.82L488.69,247.82z
		 M467.72,178.17c23.99,6.75,24.7,40.33,11.73,58.28c-5.33,7.28-12.44,11.55-21.68,9.95c-8.88-1.6-13.5-8-15.99-16.17
		c-2.84-9.95-3.38-20.08-0.53-30.2c0.89-2.49,1.6-4.98,2.84-7.28C449.25,183.32,457.06,177.81,467.72,178.17L467.72,178.17z
		 M530.59,205.89c0.18,1.24,0.18,4.8,0.89,8.35c5.86,34.11,44.95,50.81,72.67,31.09c27.72-19.72,25.58-64.49-0.18-83.5
		c-6.4-4.26-14.57-7.11-22.03-8C552.8,150.1,529.7,175.5,530.59,205.89L530.59,205.89z M608.77,195.23c0.18,1.42,0,12.97-1.78,17.41
		c-3.55,15.1-13.33,27.54-28.07,28.43c-13.5,0.71-24.34-9.06-30.03-22.92c-3.38-7.99-4.44-16.35-2.49-24.7
		c4.26-17.06,18.12-28.96,33.94-27.36C598.11,167.86,606.1,178.35,608.77,195.23L608.77,195.23z M688.34,166.09
		c-13.15-5.69-26.12-8.17-37.67,2.13c-13.33,11.73-10.48,25.94-4.26,40.33c-16.52,9.24-17.59,20.97-7.28,30.2
		c-1.24,1.78-1.78,3.02-2.66,4.09c-12.08,15.28-6.22,35.36,15.46,41.22c14.04,3.73,28.07,3.38,41.93-1.07
		c12.08-3.91,18.48-12.26,18.83-23.1c0.53-12.08-6.4-19.37-16.7-23.1c-8.17-2.84-17.06-4.26-25.76-5.51
		c-6.75-1.07-18.3-1.07-20.25-5.15c-1.24-6.22,10.13-9.06,17.06-9.24c21.68-0.89,30.74-10.66,31.09-32.69
		c0.18-2.84-2.66-9.06,1.95-8.88c2.84,0.53,4.44,0.71,6.04,1.07c3.55,1.07,7.28,1.78,9.24-2.49c2.13-4.62-1.07-8-4.62-9.59
		c-3.55-1.6-7.64-2.31-11.37-2.13C695.98,162.36,691.36,163.07,688.34,166.09L688.34,166.09z M691.89,249.24
		c4.26,1.42,7.82,4.62,7.82,9.77c0,5.69-3.55,9.06-8.35,10.84c-11.37,4.26-23.1,5.51-35.18,1.78c-8.71-2.67-13.32-7.28-12.79-12.97
		c0.53-6.57,8.88-14.39,16.35-15.1C670.44,241.05,681.71,246.52,691.89,249.24L691.89,249.24z M670.22,174.26
		c8.53,0.18,15.28,7.28,14.92,15.46c-0.36,8-8.17,14.92-16.17,14.57c-8-0.53-15.28-8.17-14.92-15.81
		C654.41,180.04,661.98,173.92,670.22,174.26L670.22,174.26z M115.95,622.84c-0.66-9.63-0.66-19.09-0.83-29.22
		c-0.17-4.15-2.16-7.64-6.31-8.13c-5.98-0.66-12.28-0.66-18.43-0.17c-4.87,0.49-6.87,10.94,0.5,12.28
		c3.32,1.49,6.97,0.33,11.45,1.16c0.5,5.48,1,10.79,1,15.94c0.17,25.4,0,50.63,0.17,75.87c0.17,4.65-1,15.11,3.32,15.77
		c5.81,0.5,7.97-3.49,11.62-4.81c22.08,7.8,41.17,0.5,49.14-19.42c6.14-15.27,5.98-30.88-0.17-46.15
		c-6.47-16.27-21.75-22.91-38.51-17.43C125.08,619.68,121.26,621.01,115.95,622.84L115.95,622.84z M115.45,673.97
		c-1.33-9.3-0.5-19.09,2.49-29.22c2.32-7.47,7.64-12.62,15.44-14.77c10.79-2.82,19.09,0.83,23.08,11.12
		c4.48,11.95,4.81,24.4-0.17,36.19c-1.99,4.65-5.98,9.13-10.13,11.95C132.88,698.04,117.11,690.07,115.45,673.97L115.45,673.97z
		 M232.26,692.56c-0.33-4.48-0.83-8.96-1-13.45c0-14.94-0.17-29.88,0-44.82c0-5.48-1.66-9.96-7.3-11.45
		c-11.45-3.15-23.08-2.82-34.2,1.49c-5.48,2.16-6.14,6.14-2.32,10.79c3.98,3.65,20.25-5.64,31.21,0.5
		c1.66,18.92,1.33,38.18,0.33,57.44c-9.79,1.99-18.26,3.98-27.06,1.49c-3.32-1-6.97-0.83-8.47,2.99c-1.66,4.65,1.66,7.3,5.31,8.3
		c4.81,1.16,9.79,1.99,14.61,1.83c17.43-0.5,34.7-5.15,52.13-1.83c1.49,0.33,3.15-0.33,4.81-0.66c3.15-5.64,1.49-9.3-3.98-10.46
		C248.7,692.89,240.9,694.05,232.26,692.56L232.26,692.56z M229.28,600.26c0-6.97-5.98-12.28-12.95-11.95
		c-6.64,0.33-11.62,5.31-11.79,11.79c-0.17,6.81,5.48,12.78,12.28,12.78S229.44,607.06,229.28,600.26L229.28,600.26z M327,619.35
		c-12.28-5.31-24.4-7.64-35.19,1.99c-12.45,10.96-9.79,24.24-3.98,37.68c-15.44,8.63-16.43,19.59-6.81,28.22
		c-1.16,1.66-1.66,2.82-2.49,3.82c-11.29,14.28-5.81,33.04,14.44,38.51c13.11,3.49,26.23,3.15,39.18-1
		c11.29-3.65,17.26-11.45,17.6-21.58c0.5-11.29-5.98-18.09-15.6-21.58c-7.64-2.66-15.94-3.98-24.07-5.15c-6.31-1-17.1-1-18.93-4.81
		c-1.16-5.81,9.46-8.47,15.94-8.63c20.25-0.83,28.72-9.96,29.05-30.55c0.17-2.66-2.49-8.47,1.83-8.3c2.66,0.5,4.15,0.66,5.64,1
		c3.32,1,6.81,1.66,8.63-2.32C356.98,616.33,334.34,612,327,619.35L327,619.35z M300.27,691.73c9.96-2.32,20.09,2.66,30.05,5.31
		c9.36,2.81,10.44,15.18-0.5,19.26c-10.62,3.98-21.58,5.15-32.87,1.66C273.76,710.83,289.54,692.75,300.27,691.73L300.27,691.73z
		 M310.06,626.99c7.97,0.17,14.28,6.81,13.94,14.44c-0.33,7.47-7.64,13.94-15.11,13.61c-7.47-0.5-14.28-7.64-13.94-14.77
		C295.29,632.63,302.1,626.65,310.06,626.99L310.06,626.99z M466.55,695.71c3.32,2.66,5.64,4.48,7.97,5.98
		c11.71,7.42,28.5-1.43,24.9-8.8c-2.66-5.31-6.64-2.82-10.62-1.66c-12.54,3.43-11.4-8.37-11.45-17.43
		c-0.33-27.39,2.82-82.17-0.33-83.5c-11.62-1.99-21.91-0.17-31.71-0.17c-4.15,0-7.64,1.49-7.47,6.31c0.33,4.32,3.82,4.98,7.3,4.98
		c6.14,0.17,12.12,0.33,18.26,0.5c2.32,7.64,3.32,20.92,1.49,20.09c-1.83-0.5-4.98-0.5-6.14-1c-18.43-6.31-36.52,0.5-44.66,17.76
		c-7.8,16.6-7.64,33.87-0.33,50.63c5.15,11.62,14.61,17.1,27.72,17.1C451.28,706.5,458.58,701.52,466.55,695.71L466.55,695.71z
		 M446.96,630.64c22.41,6.31,23.08,37.68,10.96,54.45c-4.98,6.81-11.62,10.79-20.25,9.3c-8.3-1.49-12.62-7.47-14.94-15.11
		c-2.66-9.3-3.15-18.76-0.5-28.22c0.83-2.32,1.49-4.65,2.66-6.81C429.7,635.45,437,630.31,446.96,630.64L446.96,630.64z
		 M588.01,661.51c8.96-7.64-1-42.66-27.23-46.15c-31.87-4.15-50.3,16.43-49.97,47.64c1.16,42.17,60.09,55.45,78.36,23.57
		c2.11-3.5,4.83-10.41,0.5-12.78c-1.66-0.83-3.82-1.49-6.14-0.5c-1,0.33-2.82,4.32-3.49,5.31c-7.64,11.12-18.76,14.11-31.54,12.95
		c-13.45-1.49-26.56-17.76-23.24-28.72C526.09,660.52,582.36,666.33,588.01,661.51L588.01,661.51z M579.21,650.23
		c-18.92,1-36.36,1-54.28-0.17c-1-9.96,3.98-15.11,10.62-18.76c9.46-5.31,19.92-5.48,29.88-2.16
		C574.06,631.8,578.21,638.77,579.21,650.23L579.21,650.23z M624.97,628.81c8.13-4.81,15.77-5.15,23.41-1.99
		c10.61,4.25,15.01,19.79-1.16,23.74c-5.31,1.33-10.79,1.33-15.94,2.49c-5.98,1.33-12.28,2.49-17.6,5.31
		c-8.3,4.48-11.79,12.45-10.79,21.91c0.83,9.3,5.81,15.77,14.28,18.59c5.64,1.83,12.28,2.66,18.09,1.66
		c9.3-1.66,24.07-4.81,28.22-9.63c1.66,0.83,1.99,4.15,4.65,5.15c6.14,2.16,14.77,0,18.26-5.48c1.16-1.99,1.66-5.48,0.66-7.64
		c-0.33-1.33-3.82-2.82-6.31-1.99c-1.99,0.66-5.48,6.14-7.64,2.49c-0.66-3.98-1.49-7.14-1.83-10.29
		c-0.66-11.12-1.16-22.24-1.66-33.53c-0.17-7.3-2.49-13.78-7.97-18.76c-11.62-11.12-36.69-10.62-47.98,0.83
		c-4.15,4.32-6.81,9.3-5.81,15.6c0.83,4.65,3.82,7.14,8.63,7.14c4.15,0,7.14-1.99,7.97-6.31
		C624.8,635.29,622.15,632.3,624.97,628.81L624.97,628.81z M656.68,662.51c1.83,12.62-1,19.26-10.62,22.58
		c-6.47,2.32-13.78,2.99-20.58,3.15c-5.48,0.33-9.3-3.15-10.46-8.63c-2.1-9.25,8.47-13.69,16.43-14.77
		C639.58,663.84,647.71,663.34,656.68,662.51L656.68,662.51z M744.6,687.91c-0.17-5.48-0.5-11.45-0.5-17.6
		c0-23.24,0.33-46.48,0.33-69.56c0-8.63-1.66-11.62-7.8-11.95c-10.29-0.66-20.59-0.5-30.88,0.17c-2.16,0-5.31,2.82-5.98,4.98
		c-1,3.98,2.32,5.98,5.81,6.64c6.7,1,20.44-1.49,24.24,0.33c2.49,1.83,3.32,73.04-0.33,88.81c-1,3.49-25.57,1.16-29.38,3.32
		c-2.99,5.48-1.66,8.8,3.49,9.96c3.15,0.66,6.47,0.5,9.79,0.5c11.62-0.17,23.24-0.33,34.86-0.33c7.47-0.17,14.94,0.17,22.25,0.33
		c4.15,0,7.47-0.83,8.3-6.97C778.63,689.07,744.77,693.55,744.6,687.91L744.6,687.91z"/>
</g>
</svg>
