<?xml version="1.0" encoding="utf-8"?>
<!-- Generator: Adobe Illustrator 24.3.0, SVG Export Plug-In . SVG Version: 6.00 Build 0)  -->
<svg version="1.1" id="Layer_1" xmlns="http://www.w3.org/2000/svg" xmlns:xlink="http://www.w3.org/1999/xlink" x="0px" y="0px"
	 viewBox="0 0 864 864" style="enable-background:new 0 0 864 864;" xml:space="preserve">
<style type="text/css">
	.st0{fill-rule:evenodd;clip-rule:evenodd;}
</style>
<g>
	<path class="st0" d="M265.04,280.47h74.97c1.57,0,2.85,1.28,2.85,2.85v10.58c0,1.57-1.28,2.85-2.85,2.85h-74.97
		c-1.57,0-2.85-1.28-2.85-2.85v-10.58C262.19,281.75,263.47,280.47,265.04,280.47L265.04,280.47z M522,280.47h74.97
		c1.57,0,2.85,1.28,2.85,2.85v10.58c0,1.57-1.28,2.85-2.85,2.85H522c-1.57,0-2.85-1.28-2.85-2.85v-10.58
		C519.16,281.75,520.44,280.47,522,280.47L522,280.47z M427.53,254.27c-9.86,1.85-14.85,11.7-20.11,18.96
		c-7.46,10.28-13.19,11.8-17.51,22c-4.84,11.43,0.66,23.12,9.98,26.16c10.96,3.57,22.25-5.06,34.81-3.52
		c12.06,1.49,20.1,8.64,31.73,1.02c8.62-5.65,9.92-17.89,3.17-28.31c-2.93-4.53-5.86-7.05-9.26-10.5
		C450.01,269.59,445.69,250.86,427.53,254.27L427.53,254.27z M399.96,258.33c-0.06-30.16-32.35-39.12-32.68-5.73
		C366.94,288.05,400.02,287.27,399.96,258.33L399.96,258.33z M466.69,221.66c-0.58-30.81-31.06-21.85-32.99,7.31
		C431.96,255.24,464.09,257.46,466.69,221.66L466.69,221.66z M406.75,203.8c-16.93,5.82-12.07,33.55-3.79,40
		c3.95,3.08,8.83,5.12,15.25,3.57c11.19-2.7,11.14-16.03,9.64-27.68C425.45,210.08,418.28,199.84,406.75,203.8L406.75,203.8z
		 M479.55,231.86c-24.91,9.01-27.19,49.66-4.6,44.55C505.71,269.44,495.22,224.72,479.55,231.86L479.55,231.86z M211.27,263.04
		c0.62-0.82,0.53-2.01-0.27-2.61c-2.51-1.9-2.51-1.9-5.02-3.79c-16.74-12.64-33.48-25.27-50.22-37.91
		c-6.94-5.24-6.92-2.94-2.01-9.45c3.3-4.37,6.61-8.73,9.91-13.1c0.62-0.82,0.46-1.92-0.35-2.54c-2.89-2.18-5.74-4.42-8.64-6.61
		c-6.44-4.86-5.01-5.66-10.66,1.83c-10.75,14.51-21.71,28.89-32.53,43.35c-1.82,2.41-1.87,2.37-3.68,4.77
		c-0.62,0.82-0.48,2.05,0.32,2.65c4.34,3.28,8.75,6.49,13.1,9.78c2.27,1.71,3.7-1.93,5.83-4.74c2.2-2.92,4.54-5.76,6.73-8.66
		c4.84-6.41,2.29-6.27,9.53-0.8c16.76,12.61,33.48,25.27,50.22,37.91c7.31,5.52,5.69,6.13,11.09-1.02
		C204.64,272.13,210.69,263.81,211.27,263.04L211.27,263.04z M244.03,228.91c2.32-1.56,2.25-1.67,4.59-3.23
		c7.6-5.09,6.66-3.32,1.53-10.99c-6.02-8.98-12.04-17.97-18.06-26.95c-0.28-0.42-0.06-1.04,0.35-1.32
		c8.62-5.84,17.24-11.69,25.89-17.48c0.44-0.29,1.11-0.14,1.39,0.28c6.03,8.98,12.06,17.96,18.08,26.94
		c5.24,7.82,3.19,7.78,10.72,2.73l9.38-6.21c0.85-0.57,1.07-1.69,0.5-2.55c-14.02-20.98-28.1-41.9-42.06-62.92
		c-3.52-5.25-7.06-10.43-10.53-15.72c-0.57-0.85-1.74-0.99-2.59-0.42c-4.71,3.11-9.35,6.26-14.03,9.4
		c-0.83,0.56-1.14,1.68-0.56,2.53c5.52,8.08,10.87,16.21,16.31,24.34c4.81,7.18,4.94,4.76-2.2,9.55c-6.91,4.64-13.79,9.37-20.7,14
		c-0.42,0.28-0.97,0.12-1.25-0.29l-16.3-24.37c-1.63-2.43-1.72-2.37-3.35-4.8c-1.6-2.39-4.13,0.64-7.17,2.68
		c-12.45,8.34-12.03,5.38-6.33,13.95c15.07,22.79,30.32,45.49,45.61,68.14C238.14,233.5,236.38,234.13,244.03,228.91L244.03,228.91z
		 M369.04,168.25c9.61-3.06,8.08-1.47,5.57-9.34l-3.2-10.4c-0.31-0.98-1.38-1.51-2.35-1.2c-10,3.19-20.03,6.27-30.03,9.46
		c-8.69,2.77-6.3,3.91-9.1-4.89c-1-3.14-0.96-3.16-1.96-6.3c-1-3.14-1.15-3.1-2.15-6.24c-0.15-0.48,0.16-1.08,0.64-1.23l27.29-8.54
		c0.98-0.31,1.45-1.42,1.14-2.4c-1.13-3.56-1.18-3.55-2.31-7.11c-3.28-10.28-1.26-9.39-9.97-6.61l-16.36,5.15
		c-7.74,2.47-5.88,3.5-8.24-3.91l-3.27-10.19c-0.16-0.5,0.16-1.01,0.64-1.17c9.62-3.09,19.24-6.23,28.87-9.29
		c8.93-2.85,7.82-1.42,5.32-9.28l-3.28-10.37c-0.31-0.98-1.34-1.48-2.32-1.16c-15.82,5.05-31.68,9.98-47.49,15.02
		c-2.96,0.94-2.94,0.98-5.91,1.95c-0.94,0.3-1.5,1.4-1.21,2.33c8.28,26.05,16.69,52.05,24.88,78.13l3.91,11.98
		c0.31,0.98,1.29,1.52,2.26,1.2L369.04,168.25L369.04,168.25z M449.44,163.81c8.87,0.64,15.37,1.33,24.16-1.29
		c4.92-1.47,6.62-2.2,10.72-5.26c6.93-5.17,10.42-11.82,11.04-20.43c0.35-4.93,0.03-7.86-1.89-12.42
		c-3.85-9.14-9.22-9.59-7.58-11.23c9.18-9.18,10.09-25.02,2.64-34.66c-6.38-8.26-17.77-11.72-27.91-12.45L431.25,64
		c-1-0.07-1.87,0.68-1.94,1.7c-1.78,25.14-3.87,50.34-5.36,75.49l-1.4,18.89c-0.07,1,0.67,1.93,1.7,2.01
		C432.62,162.63,441.06,163.21,449.44,163.81L449.44,163.81z M457.49,104.87l-9.39-0.76c-0.52-0.04-0.86-0.48-0.83-0.98
		c0.4-5.64,0.81-11.29,1.21-16.93c0.04-0.5,0.44-0.91,0.96-0.87c6.75,0.48,17.21,0.32,21.76,4.47c3.52,3.21,2.13,9.43-0.75,12.01
		C467.15,104.78,461.54,105.16,457.49,104.87L457.49,104.87z M456.83,144.43c-3.84-0.27-7.69-0.66-11.54-0.94
		c-0.52-0.04-0.91-0.44-0.87-0.96l1.43-19.96c0.04-0.5,0.48-0.82,1-0.78c6.95,0.5,16.83,0.41,22.84,3.1
		c8.89,3.98,7.12,14.75-1.05,18.06C465.28,144.31,460.03,144.66,456.83,144.43L456.83,144.43z M539.49,184.36l18.02,6.51
		c9.46,3.51,7.27,3.83,10.15-3.92l3.89-10.16c0.36-0.96-0.15-2.04-1.11-2.4c-2.95-1.1-2.97-1.03-5.92-2.13
		c-7.85-2.91-15.7-6.02-23.55-8.94c-8.56-3.18-7.42-0.68-4.15-9.47c1.15-3.09,1.19-3.08,2.34-6.17c1.15-3.09,1.01-3.15,2.15-6.24
		c0.18-0.47,0.79-0.75,1.26-0.58l26.75,10.1c0.96,0.36,2.02-0.23,2.38-1.19c1.3-3.5,1.26-3.52,2.56-7.02
		c3.76-10.12,4.8-8.17-3.78-11.35l-16.05-6.03c-7.62-2.83-6.79-0.87-4.08-8.16l3.71-10.04c0.18-0.49,0.75-0.7,1.22-0.53
		c9.48,3.5,18.99,6.96,28.46,10.48c8.78,3.26,7.04,3.7,9.91-4.03l3.81-10.19c0.36-0.96-0.15-1.99-1.11-2.35L555.8,85.51
		c-3.22-1.19-3.07-1.28-6.1-2.41c-2.91-1.08-2.92-1.04-5.86-2.11c-0.92-0.34-2.05,0.17-2.39,1.09
		c-9.54,25.62-18.95,51.27-28.58,76.85l-4.31,11.85c-0.36,0.96,0.08,1.99,1.04,2.34L539.49,184.36L539.49,184.36z M600.6,220.21
		c10.42,7.72,23.35,11.23,35.33,5.01c7.15-3.71,12.73-10.85,14.8-18.59c1.69-6.32,0.95-11.38-1.27-17.44
		c-2.66-7.26-4.45-9.48-8.27-15.75c-1.93-3.17-5.43-9.37-6.28-12.26c-2.4-8.14,5.37-12.61,15.2-5.33c9.84,7.29,7.5,14.28,9.42,15.7
		c1.14,0.84,4.28-0.2,6.81-0.61l10.81-1.53c1.01-0.15,1.73-1.17,1.55-2.17c-1.59-8.93-5-17.24-11.51-23.74
		c-13.41-13.41-36.23-18-48.86-0.95c-4.22,5.69-5.91,11.13-5.08,18.09c2.19,18.39,22.63,34.21,15.62,43.67
		c-5.65,7.63-16.15,0.09-20.34-4.35c-3.68-3.89-6.67-9.72-8.14-14.78c-0.29-1-1.24-1.71-2.23-1.46l-10.58,2.69
		c-2.65,0.68-2.61,0.81-5.27,1.46c-0.97,0.24-1.59,1.16-1.32,2.15c2.78,10.05,7.22,19.16,14.85,26.35
		C597.3,217.74,598.92,218.96,600.6,220.21L600.6,220.21z M660.88,278.19c0.62,0.82,1.79,1.06,2.59,0.46
		c2.51-1.9,2.51-1.9,5.02-3.79c16.74-12.64,33.48-25.27,50.22-37.91c6.94-5.24,4.72-5.85,9.64,0.66c2.21,2.93,4.31,5.93,6.5,8.83
		c1.65,2.18,1.73,2.11,3.38,4.29c0.62,0.82,1.72,0.97,2.54,0.35c2.89-2.18,5.82-4.31,8.72-6.5c6.44-4.86,6.81-3.27,1.16-10.76
		c-11-14.31-21.84-28.8-32.78-43.17c-5.64-7.47-3.76-6.99-10.51-1.89c-2.89,2.18-5.8,4.35-8.7,6.54c-2.27,1.71,0.85,4.09,2.97,6.9
		c2.2,2.92,4.29,5.94,6.49,8.85c4.84,6.42,5.4,3.92-1.84,9.38c-16.72,12.67-33.48,25.27-50.22,37.91
		c-7.31,5.52-7.46,3.79-2.06,10.94C653.95,269.32,660.3,277.42,660.88,278.19L660.88,278.19z M89.87,479.04
		c1.29,0,2.42-0.99,2.42-2.26c0-3.96,0-3.96,0-7.93c0-29.07-0.14-58.15-0.14-87.21c0-0.66,0.58-1.29,1.24-1.29
		c4.73,0,9.08,0,13.79,0c4.59,0,9.19,0.06,13.79,0.06c1.29,0,2.29-0.99,2.29-2.28c0-6.84,0.16-13.73,0.16-20.59
		c0-1.27-1.16-2.37-2.45-2.37l-15.17-0.06c-20.24,0-40.47,0.08-60.7,0.17c-3.8,0-3.8-0.08-7.6-0.08c-1.29,0-2.42,1.07-2.42,2.34
		c0,6.85,0.11,13.74,0.11,20.59c0,1.29,1.02,2.45,2.31,2.45c6.9,0,13.8,0,20.7,0c10.13,0,8.04-2.46,8.04,8.97
		c0.05,26.44,0,52.86,0,79.29c0,11.54-1.84,10.38,9.44,10.38C75.69,479.28,88.65,479.04,89.87,479.04L89.87,479.04z M148.67,479.2
		c3.52,0,3.52-0.17,7.08-0.17c11.52,0,9.3,1.19,9.3-10.43c0-13.63,0-27.26,0-40.88c0-0.63,0.66-1.13,1.29-1.13
		c13.11-0.06,26.26-0.14,39.37-0.14c0.66,0,1.27,0.63,1.27,1.27c0,13.63,0.03,27.26,0.03,40.88c0,11.86-2.12,10.38,9.3,10.38
		l14.18,0.08c1.29,0,2.31-1.02,2.31-2.31c0.04-37.08,0.11-74.17,0.11-111.25c0-3.99,0-3.99,0-7.96c0-1.29-1.13-2.26-2.42-2.26
		c-7.09,0-14.19,0-21.28,0c-1.27,0-2.37,0.96-2.37,2.26c0.11,12.33,0,24.61,0,36.92c0,3.72,0.05,3.72,0.05,7.41
		c0,0.63-0.52,1.21-1.18,1.21c-13.12,0-26.25-0.03-39.37-0.03c-0.63,0-1.1-0.55-1.1-1.18c-0.02-12.32,0.03-24.63,0.03-36.94
		c0-3.69-0.14-3.69-0.14-7.38c0-1.29-0.99-2.45-2.28-2.45c-7.06,0-14.2,0.14-21.28,0.14c-1.29,0-2.28,1.02-2.28,2.31
		c-0.06,37.1,0,74.15,0,111.25c0,3.99-0.17,3.99-0.17,7.96c0,1.29,1.16,2.4,2.45,2.4L148.67,479.2L148.67,479.2z M282.24,479.2
		c1.29,0,2.34-1.16,2.34-2.45l0.14-15.88c0-31.79-0.25-63.55-0.06-95.36c-0.03-3.99-0.17-3.99-0.17-7.96c0-1.29-0.96-2.45-2.26-2.45
		c-7.09,0-14.16,0.04-21.25,0c-1.29,0-2.39,1.16-2.39,2.45c0,3.96,0.11,3.96,0.11,7.93c0,34.4,0.25,68.93-0.17,103.32
		c0,3.99,0.19,3.99,0.19,7.96c0,1.29,0.96,2.23,2.26,2.23C268.09,478.98,275.14,479.2,282.24,479.2L282.24,479.2z M333.97,479.09
		c1.29,0,2.4-1.05,2.4-2.34l-0.14-15.53v-54.37c0-0.31,0.41-0.37,0.58-0.11c13.07,23.38,25.84,46.91,38.87,70.31
		c0.69,1.24,2.04,1.98,3.47,1.98c7.07,0,14.15,0.05,21.23,0.05c1.29,0,2.29-1.05,2.29-2.34c0-3.96,0.08-3.96,0.08-7.96
		c0-37.08-0.08-74.18,0.08-111.27c0-1.27-1.16-2.31-2.42-2.31l-21.28-0.08c-1.29,0-2.28,1.13-2.28,2.39c0,3.88-0.17,3.88-0.17,7.76
		c0,17.87-0.03,35.76-0.03,53.63c0,4.65,0.25,4.38,0.25,8.51c0,0.32-0.56,0.4-0.72,0.17c-1.93-3.52-1.82-3.58-3.74-7.1
		c-11.76-21.03-23.46-42.1-34.99-63.26c-0.69-1.27-2.06-2.06-3.5-2.06c-3.55,0-3.55,0.14-7.07,0.14l-14.18,0.03
		c-1.27,0-2.23,0.94-2.23,2.2c0,3.99-0.03,3.99-0.03,7.96c0,34.43-0.11,68.87-0.11,103.32c0,3.96,0.11,3.96,0.11,7.96
		c0,1.27,0.99,2.42,2.26,2.42C319.82,479.17,326.88,479.09,333.97,479.09L333.97,479.09z M474.67,481.38
		c6.98,0,17.07-2.16,23.15-5.26c12.22-6.22,19.89-16.82,24.17-29.73c3.4-10.24,3.88-18.57,3.88-29.07c0-1.51,0.11-3.41,0.11-5.92
		c0-1.29-1.07-2.42-2.37-2.42c-16.75,0-33.55,0.1-50.3,0.19c-1.29,0-2.34,0.94-2.34,2.23c0,4.71,0.11,4.71,0.11,9.41
		c0,4.74-0.19,4.74-0.19,9.44c0,1.29,1.13,2.4,2.42,2.4c4.1,0,4.1-0.16,8.2-0.16l16.41,0.19c0.61,0,1.1,0.47,0.96,1.07
		c-2.71,12.56-10.48,21.75-24.01,21.75c-7.67,0-14.86-3.74-19.3-9.75c-4.18-5.66-6.57-13.9-7.41-20.95
		c-1.92-16.17,1.35-40.14,19.9-45.01c4.6-1.21,10.99-1.11,15.47,0.08c5.51,1.47,9.69,4.93,12.83,8.81c0.82,1.01,2.39,1.16,3.39,0.39
		c5.51-4.47,11.03-8.91,16.57-13.35c1.02-0.84,0.98-2.4,0.16-3.36c-5.44-6.44-10.45-10.96-18.09-14.62
		c-5.48-2.63-8.77-3.49-14.92-4.24c-19.43-2.38-37.14,3.38-49,19.41c-5,6.75-7.77,13.26-9.94,21.45
		c-5.03,18.98-3.43,43.31,6.11,60.59c2.01,3.64,6.38,9.38,9.28,12.25C449.2,476.36,461.68,481.38,474.67,481.38L474.67,481.38z
		 M582.51,481.21c10.74,0,21.24-2.5,29.68-9.19c8.52-6.76,13.52-17.09,13.52-28.03c0-6.88-2.14-15.2-6.06-20.73
		c-5.7-8.05-15.29-13.28-24.14-17.1c-6.99-3.04-16.63-6.02-22.52-10.46c-8.54-6.45-4.02-16.79,11.4-16.79
		c8.57,0,13.94,2.43,19.68,8.18c0.91,0.91,2.42,0.86,3.33-0.05c4.81-4.93,9.69-9.78,14.54-14.67c0.9-0.91,0.87-2.48-0.06-3.36
		c-3.46-3.27-9.43-7.83-13.52-10.08c-25.4-13.99-66.13-2.83-66.13,30.34c0,15.75,8.13,24.41,21.2,31.41
		c8.95,4.79,19.01,7.53,27.5,12.33c4.29,2.42,8.29,5.97,8.29,10.9c0,11.96-16.28,12.2-23.87,10.85c-6.62-1.18-13.97-4.82-19.33-8.86
		c-1.04-0.8-2.53-0.8-3.36,0.19c-4.32,5.31-8.57,10.84-12.94,16.08c-0.8,0.97-0.74,2.37,0.28,3.17c5.47,4.28,13.51,9.27,19.88,11.81
		C567.2,480.05,574.7,481.21,582.51,481.21L582.51,481.21z M706.42,479.2c1.29,0,2.34-1.16,2.34-2.45
		c0.32-37.05-0.14-74.16,0.08-111.25c-0.03-3.99-0.17-3.99-0.17-7.96c0-1.29-0.96-2.45-2.26-2.45c-7.09,0-14.16,0.04-21.25,0
		c-1.29,0-2.39,1.16-2.39,2.45c0,3.96,0.11,3.96,0.11,7.93c0,34.4,0.25,68.93-0.17,103.32c0,3.99,0.19,3.99,0.19,7.96
		c0,1.29,0.96,2.23,2.26,2.23C692.27,478.98,699.32,479.2,706.42,479.2L706.42,479.2z M758.15,479.09c1.29,0,2.4-1.05,2.4-2.34
		c-0.21-23.29-0.04-46.6-0.14-69.9c0-0.31,0.41-0.37,0.58-0.11c10.44,18.69,20.87,37.44,31.05,56.27l7.82,14.04
		c0.69,1.24,2.04,1.98,3.47,1.98c7.07,0,14.15,0.05,21.23,0.05c1.29,0,2.29-1.05,2.29-2.34c0-3.96,0.08-3.96,0.08-7.96
		c0-23.83,0-47.68,0.06-71.52c0-3.96-0.11-3.96-0.11-7.96l0.14-31.8c0-1.27-1.16-2.31-2.42-2.31l-21.28-0.08
		c-1.29,0-2.29,1.13-2.29,2.39c0,3.88-0.17,3.88-0.17,7.76c0,20.71,0.22,41.42,0.22,62.13c0,0.32-0.56,0.4-0.72,0.17
		c-1.93-3.52-1.82-3.58-3.74-7.1c-11.76-21.03-23.46-42.1-34.99-63.26c-0.69-1.27-2.06-2.06-3.5-2.06c-3.55,0-3.55,0.14-7.07,0.14
		l-14.18,0.03c-1.27,0-2.23,0.94-2.23,2.2c0,3.99-0.03,3.99-0.03,7.96c0,37.1,0,74.19,0,111.27c0,1.27,0.99,2.42,2.26,2.42
		C744,479.17,751.06,479.09,758.15,479.09L758.15,479.09z M178.35,629.12c1.25,0,2.15-1.09,2.15-2.31l0.13-19.9
		c0-1.22-1.04-2.13-2.29-2.13c-3.51,0-3.51-0.13-6.99-0.13l-20.99,0.11l-13.98-0.13c-0.61,0-1.12-0.45-1.12-1.09
		c0-3.83-0.11-3.83-0.11-7.65c0-28.05-0.03-56.12-0.03-84.17c0-1.22-0.88-2.13-2.13-2.13l-13.68-0.05c-3.43,0-3.43-0.11-6.85-0.11
		c-1.25,0-2.26,1.06-2.26,2.28c0,3.85,0.11,3.85,0.11,7.68c0,30.67-0.21,61.35,0,92.03c0,3.85-0.16,3.85-0.16,7.68
		c0,3.83,0.08,3.83,0.08,7.68c0,1.25,0.98,2.18,2.23,2.18C134.44,629.12,156.39,629.01,178.35,629.12L178.35,629.12z M220.22,629.14
		c1.25,0,2.26-1.12,2.26-2.36l0.13-15.33c0-30.69-0.24-61.31-0.05-92.03c-0.03-3.85-0.16-3.85-0.16-7.68c0-1.25-0.93-2.36-2.18-2.36
		c-3.4,0-3.4,0.08-6.83,0.08l-13.68-0.08c-1.25,0-2.31,1.12-2.31,2.36c0.25,35.7,0.38,71.67-0.05,107.36c0,3.85,0.19,3.85,0.19,7.68
		c0,1.25,0.93,2.15,2.18,2.15C206.54,628.93,213.38,629.14,220.22,629.14L220.22,629.14z M256.46,629.01l13.68-0.03
		c1.25,0,2.15-0.96,2.15-2.21c0.03-14.72,0-29.44,0-44.16c0-0.64,0.61-1.22,1.22-1.22l35.28,0.19c1.25,0,2.34-1.12,2.34-2.34
		c0-4.36-0.11-4.54-0.11-8.53c0-5.13,0.05-4.94,0.05-9.67c0-1.25-1.04-2.23-2.28-2.23c-11.76,0-23.52-0.02-35.28,0.03
		c-0.61,0-1.25-0.56-1.25-1.2l0.16-15.09c0-3.8-0.08-3.8-0.08-7.57c0-0.61,0.56-1.09,1.17-1.09c12.28-0.02,24.58-0.13,36.85-0.13
		c11.17,0,9.62,1.54,9.62-8.77l0.05-13.26c0-1.25-1.04-2.34-2.28-2.34c-20.11,0-40.2,0.05-60.31,0.05c-4.06,0-3.96,0.13-7.84,0.13
		c-1.22,0-2.26,0.93-2.26,2.15c0,3.83-0.08,3.83-0.08,7.65c0.27,33.24-0.04,66.46,0.19,99.71c0,3.85-0.21,3.85-0.21,7.68
		c0,1.25,1.12,2.13,2.36,2.13C253.03,628.9,253.03,629.01,256.46,629.01L256.46,629.01z M401.28,628.93c3.88,0,3.88,0.05,7.76,0.05
		c1.25,0,2.36-0.96,2.36-2.21c0-3.29-0.21-3.29-0.21-6.62l0.13-13.23c0-1.25-1.04-2.26-2.28-2.26c-15.32,0-30.64,0-45.96,0
		c-0.61,0-1.2-0.5-1.2-1.14l0.19-16.05c0-4.01-0.19-4.01-0.19-8.02c0-0.61,0.58-1.2,1.2-1.2c3.48,0,3.48,0,6.96,0
		c3.48,0,3.48,0.13,6.96,0.13l20.86,0.05c1.25,0,2.21-1.12,2.21-2.36c0-4.54-0.05-4.54-0.05-9.09c0-13.12,2.01-11.34-9.11-11.34
		c-9.27,0-18.55,0-27.82,0c-0.61,0-1.2-0.53-1.2-1.14l0.03-19.53c0-0.64,0.56-1.12,1.17-1.12c12.28-0.09,24.6-0.11,36.88-0.11
		c11.4,0,9.59,1.24,9.59-8.79l0.03-13.23c0-1.25-1.01-2.21-2.26-2.21c-22.7,0.01-45.45-0.21-68.15-0.05c-1.2,0-2.26,1.06-2.26,2.26
		c-0.03,38.32-0.14,76.72,0.08,115.04c0,1.25,0.93,2.23,2.18,2.23C359.9,629.05,380.55,629.12,401.28,628.93L401.28,628.93z
		 M461.62,629.17c3.59,0,3.59-0.13,7.2-0.13l14.4-0.11c1.33,0,2.63-0.72,3-2.02l6.91-24.2c0.19-0.64,0.88-0.98,1.57-0.98
		c10.87,0,21.76-0.13,32.63-0.13c0.66,0,1.25,0.5,1.43,1.14l7.12,24.15c0.4,1.27,1.57,2.07,2.92,2.07c3.59,0,3.59,0.16,7.17,0.16
		l14.43-0.08c1.06,0,2-1.06,1.65-2.15c-11.68-35.95-23.2-72.01-34.67-108.03c-3.6-11.21-1-9.35-12.65-9.35l-14.93,0.03
		c-1.36,0-2.47,0.85-2.9,2.13c-12.24,38.43-24.61,76.82-36.77,115.28C459.79,628,460.45,629.17,461.62,629.17L461.62,629.17z
		 M501.31,579.22c-0.56,0-0.88-0.61-0.72-1.17c3.26-11.5,6.72-22.93,10.07-34.41c0.11-0.32,0.48-0.29,0.56,0.03
		c3.34,11.43,6.73,22.98,10.18,34.38c0.16,0.56-0.19,1.09-0.74,1.09C514.18,579.14,507.79,579.13,501.31,579.22L501.31,579.22z
		 M583.25,629.17c3.4,0,3.4-0.16,6.83-0.16c10.69,0,9.01,1.57,9.01-10.15c0-10.58,0.08-21.16,0.05-31.75c0-0.61,0.56-1.17,1.17-1.17
		c5.21,0,5.21,0.03,10.39,0.03c0.69,0,1.33,0.4,1.65,1.01c7.51,13.38,15.08,26.68,22.45,40.14c0.66,1.22,2.05,2.05,3.43,2.05
		l16.15-0.21c4.01,0,4.01,0.16,8.05,0.16c0.97,0,1.68-1.1,1.14-2.02c-1.81-3.24-1.78-3.27-3.59-6.48
		c-7.31-12.92-14.47-25.89-21.87-38.76c-0.29-0.53-0.05-1.25,0.5-1.54c12.59-6.72,19.66-19.33,19.66-33.53c0-6-0.4-8.86-2.52-14.32
		c-5.74-14.78-20.04-21.05-34.83-22.5c-13.98-1.4-30.31-0.51-44.53-0.56c-1.25,0-2.23,1.09-2.23,2.34c0,3.83-0.13,3.83-0.13,7.68
		c0.17,33.23,0.16,66.48,0.19,99.71C574.21,630.2,572.36,629.17,583.25,629.17L583.25,629.17z M606.97,563.18
		c-3.35,0-3.35-0.08-6.67-0.08c-0.64,0-1.06-0.48-1.06-1.09c0-9.53-0.02-19.03-0.11-28.56c0-0.61,0.53-1.01,1.17-1.01
		c6.01,0,14.74-0.59,20.51,0.29c4.98,0.76,10.09,2.94,12.09,6.91c1.94,3.86,1.33,11.14-0.13,14.35c-2.03,4.44-7.23,7.4-11.72,8.42
		C616.87,563.36,611.17,563.18,606.97,563.18L606.97,563.18z M741.78,628.93c3.88,0,3.88,0.05,7.76,0.05c1.25,0,2.36-0.96,2.36-2.21
		c0-3.29-0.21-3.29-0.21-6.62l0.13-13.23c0-1.25-1.04-2.26-2.28-2.26c-15.32,0-30.64,0-45.96,0c-0.61,0-1.2-0.5-1.2-1.14l0.19-16.05
		c0-4.01-0.19-4.01-0.19-8.02c0-0.61,0.58-1.2,1.2-1.2c11.59,0,23.18,0.16,34.78,0.19c1.25,0,2.21-1.12,2.21-2.36
		c0-4.54-0.05-4.54-0.05-9.09c0-13.12,2.01-11.34-9.11-11.34c-9.27,0-18.55,0-27.82,0c-0.61,0-1.2-0.53-1.2-1.14l0.03-19.53
		c0-0.64,0.56-1.12,1.17-1.12c12.28-0.09,24.6-0.11,36.88-0.11c11.4,0,9.59,1.24,9.59-8.79l0.03-13.23c0-1.25-1.01-2.21-2.26-2.21
		c-20.19,0.01-40.39-0.13-60.58-0.13c-3.77,0-3.77,0.05-7.57,0.08c-1.2,0-2.26,1.06-2.26,2.26c-0.03,38.32-0.14,76.72,0.08,115.04
		c0,1.25,0.93,2.23,2.18,2.23C700.4,629.05,721.05,629.12,741.78,628.93L741.78,628.93z M45.66,798.01c3.93,0,3.93-0.18,7.89-0.18
		c12.37,0,10.41,1.82,10.41-11.73c0-12.23,0.09-24.47,0.06-36.71c0-0.71,0.64-1.35,1.35-1.35c6.02,0,6.02,0.03,12.01,0.03
		c0.8,0,1.54,0.46,1.9,1.17c7.25,12.87,14.48,25.76,21.66,38.67c6.83,12.2,3.68,9.98,17.6,9.98c6.22,0,12.44,0.06,18.65,0.06
		c1.12,0,1.94-1.28,1.32-2.33c-2.09-3.75-2.06-3.78-4.15-7.5c-5.64-9.97-11.16-19.95-16.74-29.95l-8.54-14.87
		c-0.34-0.61-0.06-1.44,0.58-1.78c8.62-4.6,15.04-11.49,18.92-20.4c2.73-6.27,3.81-11.41,3.81-18.37c0-11.96-3.36-22.1-12.38-30.32
		c-8.61-7.84-19.43-11.14-30.81-12.26c-11.19-1.13-22.97-0.51-34.25-0.49l-17.23-0.15c-1.44,0-2.58,1.26-2.58,2.7
		c0,4.42-0.15,4.42-0.15,8.88c0.2,38.42,0.18,76.86,0.21,115.28C35.21,799.48,33.18,797.91,45.66,798.01L45.66,798.01z
		 M73.09,721.71c-3.87,0-3.87-0.09-7.71-0.09c-0.74,0-1.23-0.55-1.23-1.26c0-11-0.02-22.02-0.12-33.02c0-0.71,0.61-1.17,1.35-1.17
		c7.58,0,16.35-0.78,23.71,0.34c5.76,0.88,11.67,3.4,13.98,7.99c2.25,4.46,1.54,12.88-0.15,16.59c-2.35,5.14-8.36,8.56-13.55,9.74
		C84.53,721.92,77.95,721.71,73.09,721.71L73.09,721.71z M228.95,797.74c4.48,0,4.48,0.06,8.97,0.06c1.44,0,2.73-1.11,2.73-2.55
		c0-3.81-0.25-3.81-0.25-7.65l0.15-15.3c0-1.44-1.2-2.61-2.64-2.61c-14.76,0-29.51-0.15-44.26-0.15c-4.42,0-4.42,0.15-8.88,0.15
		c-0.71,0-1.38-0.58-1.38-1.32c0-4.64,0.15-4.64,0.15-9.28c0-4.64,0.06-4.64,0.06-9.28c0-4.64-0.22-4.64-0.22-9.28
		c0-0.71,0.68-1.38,1.38-1.38c13.39,0,26.82,0.11,40.21,0.22c1.44,0,2.55-1.29,2.55-2.73c0-5.25-0.06-5.25-0.06-10.51
		c0-15.18,2.32-13.12-10.54-13.12c-10.72,0-21.44,0-32.16,0c-0.71,0-1.38-0.61-1.38-1.32l0.03-22.58c0-0.74,0.65-1.29,1.35-1.29
		c14.21,0,28.43-0.12,42.64-0.12c13.18,0,11.09,1.43,11.09-10.17l0.03-15.3c0-1.44-1.17-2.55-2.61-2.55
		c-23.35,0.01-46.7-0.15-70.04-0.15c-4.36,0-4.36,0.06-8.75,0.09c-1.38,0-2.61,1.23-2.61,2.61c-0.03,44.31-0.16,88.71,0.09,133.01
		c0,1.44,1.08,2.58,2.52,2.58C181.08,797.87,205.01,797.74,228.95,797.74L228.95,797.74z M335.05,789.96
		c9.51-7.54,15.08-19.07,15.08-31.27c0-7.68-2.39-16.96-6.76-23.13c-6.36-8.98-17.06-14.82-26.94-19.08
		c-2.61-1.14-5.25-2.06-7.77-3.07c-4.84-1.97-13.97-6.04-17.36-8.6c-3.1-2.33-4.7-4.85-4.7-8.02c0-10.82,17.47-11.92,25.56-9.92
		c5.75,1.42,10.17,4.67,13.82,8.32c1.02,1.02,2.7,0.96,3.72-0.06c5.37-5.5,10.82-10.91,16.22-16.37c1.01-1.02,0.97-2.77-0.06-3.75
		c-3.86-3.65-10.53-8.73-15.08-11.24c-15.43-8.49-36.61-8.87-52.28-0.61c-11.04,5.82-18.14,14-20.64,26.42
		c-2.46,12.24,0,23.68,8.54,32.75c4.77,5.06,8.21,7.12,14.25,10.35c9.98,5.34,21.21,8.41,30.69,13.76c4.78,2.7,9.25,6.66,9.25,12.16
		c0,10.46-10.98,12.66-18.71,12.66c-8.64,0-15.37-1.8-22.76-6.14c-10.95-6.44-7.46-7.52-15.27,1.9c-2.46,2.95-2.46,2.95-4.91,5.9
		c-2.43,2.98-2.27,3.1-4.73,6.05c-0.89,1.09-0.83,2.65,0.31,3.53c6.11,4.77,15.07,10.34,22.18,13.18
		C294.66,802.85,319.35,802.42,335.05,789.96L335.05,789.96z M425.02,800.44c12.33,0,23.46-2.98,33.33-10.29
		c3.53-2.61,9.73-8.88,12.59-12.44c0.93-1.16,0.71-2.82-0.37-3.78l-11-9.77c-2.76-2.43-2.89-2.27-5.68-4.7
		c-1.07-0.96-2.64-0.82-3.47,0.25c-7.88,10.15-20.7,14.07-33.45,10.63c-6.2-1.67-10.22-4.46-14.1-9.46
		c-4.11-5.29-5.48-9.02-7.07-15.6c-3.11-12.93-2.93-29.47,2.73-41.99c3.77-8.34,9.15-13.97,18.4-16.31
		c11.67-2.95,23.8,0.07,31.79,8.54c0.98,1.04,2.61,1.13,3.56,0.12c2.61-2.73,2.58-2.76,5.19-5.47c2.58-2.73,2.7-2.61,5.31-5.35
		c2.61-2.73,2.52-2.8,5.13-5.53c1.03-1.08,0.95-2.72-0.06-3.75c-5.53-5.57-12.23-10.81-19.41-13.88
		c-14.99-6.41-34.12-6.12-48.9,0.71c-13.13,6.07-23.2,18.33-28.57,31.64c-5.21,12.91-6.85,29.02-5.68,42.94
		c1.09,12.9,3.35,22.18,9.52,33.57c8.91,16.45,22.75,26.67,41.44,29.24C419.07,800.16,421.98,800.44,425.02,800.44L425.02,800.44z
		 M536.84,800.41c14.19,0,28.95-4.36,38.31-15.36c9.14-10.76,12.65-25.82,13.55-39.72c0.49-7.65,0.22-17.24,0.22-25.07
		c-0.05-19.35,0.04-38.69-0.03-58.03c0-1.44-1.2-2.67-2.64-2.67l-23.74,0.15c-1.44,0-2.7,1.08-2.7,2.52
		c0.02,19.35,0.18,38.64,0.06,58c0.02,12.43,1.96,38.28-7.8,47.03c-5.17,4.63-16.94,4.83-23.19,3.41c-5.71-1.3-9.31-4.29-11.8-10.04
		c-1.36-3.15-2.95-11.64-3.26-15.76c-0.45-6.18-0.09-10.5-0.09-16.34c0-19.33-0.18-38.66-0.18-58c0-4.15,0.22-4.15,0.22-8.29
		c0-1.44-1.29-2.64-2.73-2.64c-7.91,0-15.83,0.03-23.74,0.03c-1.44,0-2.73,1.17-2.73,2.61c0,4.15,0.25,4.15,0.25,8.29l-0.09,24.85
		c0,4.15-0.12,4.15-0.12,8.29l0.15,33.14c0,9.46,0.59,16.35,2.83,25.31c1.65,6.59,2.68,10.09,6.05,15.88
		C502.98,794.18,518.87,800.41,536.84,800.41L536.84,800.41z M697.4,797.8c1.44,0,2.73-1.11,2.73-2.55c0-3.81-0.25-3.81-0.25-7.65
		l0.15-15.3c0-1.44-1.2-2.61-2.64-2.61c-4.42,0-4.42,0.09-8.85,0.09c-8.87,0-17.66-0.15-26.57-0.06c-5.9,0-11.81-0.03-17.72-0.03
		c-0.71,0-1.38-0.58-1.38-1.32c0-9.28,0-18.55,0-27.83c0-0.71,0.68-1.38,1.38-1.38c13.4,0,26.81,0.11,40.21,0.22
		c1.44,0,2.55-1.29,2.55-2.73c0-5.25-0.06-5.25-0.06-10.51c0-15.18,2.32-13.12-10.54-13.12c-8.05,0-16.06-0.02-24.11-0.09
		c-4.02,0-4.02,0.09-8.05,0.09c-0.71,0-1.38-0.61-1.38-1.32l0.03-22.58c0-0.74,0.65-1.29,1.35-1.29c14.21,0,28.44-0.12,42.64-0.12
		c13.18,0,11.09,1.43,11.09-10.17l0.03-15.3c0-1.44-1.17-2.55-2.61-2.55c-23.35,0.01-46.7-0.15-70.04-0.15
		c-4.36,0-4.36,0.06-8.75,0.09c-1.38,0-2.61,1.23-2.61,2.61c-0.03,44.32-0.16,88.69,0.09,133.01c0,1.44,1.08,2.58,2.52,2.58
		C643.55,797.87,670.47,797.8,697.4,797.8L697.4,797.8z M762.15,798.01c8.16,0,19.03-1.59,26.57-4.39
		c8.7-3.23,15.94-8.24,22.02-15.17c4.56-5.2,6.78-8.76,9.61-15.14c5.07-11.41,6.63-22.58,6.63-35.14c0-7.45-0.33-10.81-1.6-17.97
		c-1.3-7.4-2.23-10.46-5.28-17.17c-4.2-9.24-8.44-14.87-16.59-20.98c-12.46-9.35-27.15-12.32-42.57-12.32
		c-4.36,0-4.36,0.06-8.76,0.06l-17.51-0.28c-4.39,0-4.39,0.21-8.79,0.21c-1.44,0-2.64,1.08-2.64,2.52
		c0.19,44.34-0.12,88.67,0.03,133.01c0,1.44,1.17,2.52,2.61,2.52h9.06C744.04,797.77,753.13,798.01,762.15,798.01L762.15,798.01z
		 M762.15,769.63c-4.3,0-4.3-0.03-8.6-0.03c-0.71,0-1.35-0.55-1.35-1.26c0-4.39,0.09-4.39,0.09-8.79c0-14.64-0.07-29.35-0.15-43.99
		l0.15-17.6c0-4.39-0.09-4.39-0.09-8.79c0-0.74,0.65-1.38,1.35-1.38c9.33,0,16.16-0.48,25.25,2.83c6.47,2.35,10.24,5.23,13.73,11.18
		c3.16,5.38,4.37,10.75,5.07,17.29c1.01,9.46,0.8,17.88-1.54,27c-1.73,6.74-3.7,10.94-8.69,15.54
		C780.36,768.11,771.66,769.63,762.15,769.63L762.15,769.63z"/>
</g>
</svg>
