<?xml version="1.0" encoding="utf-8"?>
<!-- Generator: Adobe Illustrator 23.1.0, SVG Export Plug-In . SVG Version: 6.00 Build 0)  -->
<svg version="1.1" id="Layer_1" xmlns="http://www.w3.org/2000/svg" xmlns:xlink="http://www.w3.org/1999/xlink" x="0px" y="0px"
	 width="864px" height="864px" viewBox="0 0 864 864" style="enable-background:new 0 0 864 864;" xml:space="preserve">
<style type="text/css">
	.st0{fill-rule:evenodd;clip-rule:evenodd;fill:#333232;}
	.st1{fill:#333232;}
</style>
<g>
	<path class="st0" d="M429.591,426.602c-5.201,0.975-7.833,6.174-10.61,10.002c-3.934,5.424-6.96,6.223-9.237,11.606
		c-2.552,6.032,0.351,12.198,5.266,13.799c5.783,1.884,11.738-2.672,18.365-1.855c6.361,0.785,10.607,4.556,16.738,0.54
		c4.547-2.979,5.233-9.437,1.675-14.938c-1.546-2.39-3.09-3.718-4.887-5.541C441.453,434.685,439.174,424.806,429.591,426.602
		L429.591,426.602z M415.049,428.743c-0.032-15.912-17.068-20.636-17.239-3.021C397.63,444.425,415.078,444.012,415.049,428.743
		L415.049,428.743z M450.251,409.399c-0.305-16.254-16.384-11.529-17.403,3.856C431.93,427.116,448.879,428.284,450.251,409.399
		L450.251,409.399z M418.631,399.977c-8.932,3.068-6.369,17.698-1.998,21.104c2.086,1.623,4.657,2.7,8.044,1.884
		c5.906-1.422,5.878-8.458,5.088-14.603C428.497,403.29,424.713,397.888,418.631,399.977L418.631,399.977z M457.037,414.781
		c-13.142,4.755-14.343,26.199-2.428,23.502C470.836,434.609,465.302,411.015,457.037,414.781L457.037,414.781z"/>
	<path class="st1" d="M120.143,204.258c-0.352,8.438-0.879,19.161-1.582,32.17c3.602,0,9.612,0.056,12.13-0.264
		c8.322-1.057,21.453-4.672,26.105-11.338c2.988-4.219,3.603-7.471,1.846-9.757C152.945,207.484,131.542,204.847,120.143,204.258
		L120.143,204.258z M115.924,365.37c20.04-0.176,34.807-3.164,44.3-8.965c13.008-7.736,19.249-20.48,18.721-38.235
		c-0.403-15.537-6.6-31.905-16.612-43.509c-7.911-8.965-17.755-15.557-29.533-19.776c-2.704-1.155-8.082-2.586-10.02-2.901
		c-2.109-0.703-3.78-1.318-5.01-1.846C114.957,300.592,114.342,339.002,115.924,365.37L115.924,365.37z M108.805,191.864
		c14.766-0.528,28.302,1.055,40.607,4.746c9.318,2.813,15.734,6.68,19.25,11.602c4.922,6.855,4.307,14.679-1.846,23.469
		c-4.395,6.328-12.218,11.075-23.469,14.238c28.146,12.458,46.891,40.974,47.728,71.987c0.791,29.303-14.52,49.484-42.849,56.297
		c-13.863,3.334-21.432,3.296-35.994,3.296c-2.461,0-4.307-1.143-5.537-3.427c-1.582-1.056-2.461-2.55-2.637-4.483
		c-1.555-19.74-1.688-46.766-0.923-67.108c1.215-32.311,3.567-67.662,4.878-98.488C100.262,202.054,102.343,191.864,108.805,191.864
		L108.805,191.864z M229.046,196.874c-3.207,40.625-2.637,85.161-2.637,125.515c0,0.527-0.088,3.604-0.263,9.229
		c-0.206,6.589-0.522,28.508,0.263,32.433c1.682,0.421,11.864,0.873,15.294,0.792l23.468-0.792c8.077,0,8.078,12.13,0,12.13
		l-23.205,0.791c-5.228,0.124-16.169-0.404-19.776-1.318c-3.393-0.861-6.545-3.199-7.384-6.329
		c-0.743-2.775-0.709-4.721-0.791-8.174c-0.225-9.461-0.353-18.222,0-29.533c0.422-13.503,0.264-17.455,0.264-29.797
		c0-18.687-0.105-44.559,0.527-64.471c0.332-10.454,1.101-30.907,2.11-41.531c0.483-5.083,6.696-7.718,10.679-3.428
		C228.738,193.622,229.221,195.116,229.046,196.874L229.046,196.874z M302.878,190.282h42.981c5.744,0,8.321,6.293,4.615,10.284
		c-1.143,1.23-2.505,1.844-4.087,1.844c-5.275,0.176-17.492,0.176-36.653,0c0.879,9.141,1.406,19.425,1.582,30.852
		c4.746,0.175,13.8-0.439,27.16-1.846c5.12-0.554,8.751,5.542,5.273,9.888c-1.054,1.319-2.461,2.066-4.218,2.242
		c-13.712,1.406-23.117,2.021-28.215,1.845c0,0.527-0.176,7.735-0.527,21.623c-0.176,6.855-0.176,40.871,0,102.046
		c13.838,1.026,33.113,0.264,46.936,0.264c8.078,0,8.077,12.13,0,12.13c-15.302,0-38.153,0.81-53.265-0.791
		c-2.813-0.352-4.57-1.846-5.273-4.483c-0.352-0.703-0.528-1.494-0.528-2.373c0-32.067-0.526-74.615,0-106.793
		c0.528-33.577,0-56.429-1.582-68.559c-0.457-2.411-0.446-4.565,1.45-6.46C299.67,190.853,301.12,190.282,302.878,190.282
		L302.878,190.282z M404.397,335.573c-0.703,9.317,0.968,16.788,5.011,22.414c7.925,11.026,21.017,13.821,32.565,6.856
		c5.537-3.341,9.449-8.878,11.734-16.613c2.461-8.79,1.406-17.447-3.164-25.973c-4.571-8.526-12.569-19.292-23.996-32.302
		c-3.299-4.301-8.657-10.22-12.393-14.502c-5.407-6.199-14.228-18.458-17.667-26.369c-3.795-8.729-6.541-19.927-5.538-29.796
		c1.056-10.548,4.879-18.854,11.471-24.919c6.592-6.065,13.931-8.833,22.018-8.306c8.614,0.527,15.514,4.482,20.699,11.866
		c5.186,7.383,7.251,17.052,6.197,29.005c-0.456,4.572-6.551,8.059-10.679,3.296c-1.143-1.318-1.627-2.769-1.451-4.351
		c0.879-9.141-0.351-15.997-3.691-20.567c-6.887-9.424-16.579-9.567-25.051-1.978c-4.219,3.78-6.68,9.449-7.383,17.008
		c-1.175,12.176,1.711,20.794,8.966,31.51c9.168,13.545,11.086,15.727,23.732,30.193c6.261,7.163,8.336,9.345,14.766,17.667
		c5.678,7.349,7.866,11.144,11.734,19.249c3.547,7.432,4.614,13.048,4.614,21.095c0,3.867-0.527,7.647-1.582,11.339
		c-2.988,10.898-8.613,18.854-16.876,23.863c-16.956,10.282-37.228,5.953-48.782-10.152c-5.801-8.086-8.262-18.282-7.383-30.588
		c0.46-5.035,6.671-7.744,10.679-3.427C404.09,332.322,404.573,333.816,404.397,335.573L404.397,335.573z M507.499,335.573
		c-0.703,9.317,0.967,16.788,5.01,22.414c7.926,11.026,21.017,13.821,32.565,6.856c5.538-3.341,9.449-8.878,11.734-16.613
		c2.462-8.79,1.407-17.447-3.164-25.973c-4.57-8.526-12.569-19.292-23.995-32.302c-3.299-4.3-8.657-10.22-12.393-14.502
		c-5.407-6.198-14.228-18.46-17.668-26.369c-3.795-8.729-6.541-19.927-5.537-29.796c1.055-10.548,4.878-18.854,11.471-24.919
		c6.591-6.065,13.931-8.833,22.017-8.306c8.614,0.527,15.514,4.482,20.699,11.866c5.186,7.383,7.252,17.052,6.197,29.005
		c-0.455,4.572-6.551,8.059-10.679,3.296c-1.143-1.318-1.626-2.769-1.45-4.351c0.879-9.141-0.352-15.997-3.692-20.567
		c-6.887-9.424-16.578-9.567-25.05-1.978c-4.219,3.78-6.68,9.449-7.383,17.008c-1.176,12.176,1.711,20.794,8.965,31.51
		c9.167,13.542,11.089,15.73,23.732,30.193c6.262,7.164,8.335,9.345,14.766,17.667c5.679,7.349,7.866,11.144,11.735,19.249
		c3.547,7.432,4.614,13.048,4.614,21.095c0,3.867-0.528,7.647-1.582,11.339c-2.989,10.898-8.614,18.854-16.876,23.863
		c-16.957,10.282-37.229,5.953-48.782-10.152c-5.802-8.086-8.263-18.282-7.384-30.588c0.46-5.035,6.672-7.744,10.68-3.427
		C507.192,332.322,507.675,333.816,507.499,335.573L507.499,335.573z M601.635,190.282h42.981c5.744,0,8.32,6.293,4.615,10.284
		c-1.143,1.23-2.505,1.844-4.087,1.844c-5.274,0.176-17.492,0.176-36.653,0c0.879,9.141,1.406,19.425,1.582,30.852
		c4.747,0.175,13.8-0.439,27.16-1.846c5.12-0.554,8.752,5.542,5.274,9.888c-1.055,1.319-2.461,2.066-4.219,2.242
		c-13.712,1.406-23.117,2.021-28.215,1.845c0,0.527-0.176,7.735-0.527,21.623c-0.176,6.855-0.176,40.871,0,102.046
		c13.839,1.026,33.114,0.264,46.936,0.264c8.078,0,8.078,12.13,0,12.13c-15.301,0-38.153,0.81-53.265-0.791
		c-2.812-0.352-4.57-1.846-5.273-4.483c-0.352-0.703-0.528-1.494-0.528-2.373c0-32.067-0.526-74.615,0-106.793
		c0.528-33.577,0-56.429-1.582-68.559c-0.457-2.411-0.446-4.565,1.451-6.46C598.427,190.853,599.877,190.282,601.635,190.282
		L601.635,190.282z M701.045,211.114c-0.175,17.052-0.878,43.377-2.109,78.974c-1.231,35.598-1.846,62.538-1.846,80.82
		c13.888-3.164,24.874-9.141,32.961-17.931c8.086-8.789,13.448-19.425,16.085-31.906c2.636-13.36,2.109-27.687-1.582-42.98
		c-3.692-14.943-9.933-28.831-18.722-41.663C718.193,225.333,711.408,216.693,701.045,211.114L701.045,211.114z M697.881,196.61
		c5.801,1.934,11.206,4.791,16.216,8.57c10.17,7.671,14.088,13.386,21.755,24.391c27.072,38.865,36.827,100.156-0.396,135.14
		c-11.69,10.986-27.379,17.623-47.068,19.906c-6.841,0.74-9.828-8.615-3.428-11.602c0-18.809,0.66-47.199,1.978-85.17
		c1.318-37.971,1.978-66.537,1.978-85.699c0-6.451,6.984-6.474,8.174-5.8C697.266,196.522,697.53,196.61,697.881,196.61
		L697.881,196.61z"/>
	<path class="st1" d="M67.01,493.77c-18.037,19.903-21.507,67.619-19.249,99.674c0.879,12.481,2.461,22.941,4.747,31.379
		c3.516,12.305,7.295,21.886,11.338,28.741c5.977,9.493,12.482,13.36,19.513,11.603c2.109-0.528,5.098-2.725,8.965-6.592
		c9.668-10.02,16.085-23.556,19.25-40.608c3.532-18.325,1.634-43.424-1.846-63.548c-4.767-27.567-13.689-55.13-29.928-59.066
		C76.899,494.649,72.636,494.121,67.01,493.77L67.01,493.77z M593.156,437.456c-14.574,6.492-27.249,11.784-43.593,14.051
		c-5.142,0.709-16.1,0.811-18.559-5.232c-0.494-1.382-0.987-2.764-1.579-4.146c-0.395-0.889-0.099-1.58,0.592-2.271
		c3.85-4.146,7.799-8.292,11.55-12.537c5.917-6.626,13.117-15.531,14.117-24.779c0.79-7.897-5.133-13.722-12.932-12.438
		c-9.086,1.559-15.958,10.238-19.349,18.361c-3.943,9.444-4.873,19.336-3.752,29.419c-1.184-0.889-1.974-1.876-3.06-2.468
		c-4.245-2.567-8.786-3.455-13.722-2.567c-7.305,1.284-12.438,5.627-15.992,12.044c-3.102,5.543-1.893,13.801,5.035,15.993
		c8.028,2.54,16.179-1.569,22.31-6.615c2.566-2.073,5.133-4.344,7.897-6.614c0.296,0.592,0.494,0.987,0.691,1.481
		c5.484,12.994,22.002,12.24,33.565,9.971c11.027-2.164,22.373-5.973,32.658-10.489c-0.447,4.48,0.652,8.854,3.868,12.266
		c4.344,4.442,9.675,5.33,15.4,3.652c6.516-1.777,10.563-6.318,12.735-12.735c0.197-0.494,0.296-1.085,0.592-1.876
		c0.79,0.395,1.284,0.691,1.876,0.988c12.67,6.559,24.732,8.328,38.895,6.91c10.501-1.051,19.602-2.871,29.312-6.83
		c0.175,4.929,3.82,8.746,8.597,9.298c3.948,0.494,7.601-0.296,11.056-2.073c7.088-3.543,11.16-7.4,17.078-12.636
		c0.198,0.79,0.296,1.284,0.296,1.777c-0.197,3.85-0.394,7.798-0.493,11.649c-0.099,0.889-0.691,1.086-1.283,1.382
		c-3.159,1.481-6.318,2.863-9.28,4.442c-7.502,3.752-14.018,8.786-19.448,15.302c-1.344,1.634-2.596,3.375-3.658,5.196h-25.833
		c-1.758,0-3.208,0.571-4.351,1.714c-1.895,1.896-1.907,4.049-1.45,6.46c1.582,12.13,2.11,34.983,1.582,68.559
		c-0.525,32.178,0,74.726,0,106.793c0,3.455,2.304,6.419,5.801,6.856c15.112,1.601,37.964,0.791,53.265,0.791
		c8.078,0,8.078-12.13,0-12.13c-13.823,0-33.097,0.762-46.936-0.263c-0.176-61.175-0.176-95.192,0-102.047
		c0.352-13.888,0.527-21.095,0.527-21.622c5.098,0.175,14.503-0.44,28.215-1.847c1.758-0.175,3.164-0.922,4.219-2.24
		c3.477-4.346-0.154-10.442-5.274-9.888c-13.36,1.406-22.413,2.022-27.16,1.846c-0.175-11.426-0.703-21.711-1.582-30.852
		c5.892,0.054,11.126,0.091,15.704,0.112c0.171,2.106,0.766,4.235,1.897,6.354c3.06,5.627,9.082,7.503,14.906,6.713
		c18.566-2.459,24.782-26.391,27.444-42.153c0.296-1.678,0.987-2.666,2.764-3.06c5.331-1.185,10.761-2.764,16.092-3.85
		c13.551-2.736,34.722-7.392,46.299-15.302c0.592-0.395,1.184-0.888,1.678-1.382c2.887-3.181-0.373-9.002-5.331-6.713
		c-0.494,0.197-0.888,0.592-1.283,0.888c-2.369,1.284-4.541,2.666-6.91,3.752c-8.885,3.751-18.066,6.417-27.346,8.391
		c-7.897,1.777-15.696,3.455-23.593,5.232c-0.296,0.099-0.494,0-0.889,0c0-5.283,0.65-13.897-0.987-18.263
		c-1.185-3.159-4.443-4.442-7.602-3.159c-0.69,0.296-1.283,0.592-1.875,0.888l-1.284-0.888c-3.948-3.258-8.489-4.936-13.623-4.047
		c-5.956,0.945-11.007,3.792-14.979,8.107c-0.36,0.164-0.706,0.334-1.013,0.58c-7.206,4.047-15.006,6.416-23.101,7.996
		c-17.186,3.282-35.01,3.298-49.853-7.305c-3.499-2.567-5.913-7.762-9.674-9.773C605.708,426.656,597.102,432.174,593.156,437.456
		L593.156,437.456z M65.165,481.64c11.238,0,22.626,1.525,31.115,9.493c11.778,10.372,20.304,30.851,25.578,61.439
		c4.571,27.072,5.186,49.573,1.846,67.503c-3.692,19.337-11.338,34.983-22.941,46.937c-5.274,5.45-10.02,8.702-14.239,9.756
		c-12.833,3.34-23.82-2.285-32.961-16.876c-4.746-7.735-8.965-18.37-12.657-31.906c-5.96-21.242-6.94-50.954-5.01-74.623
		c2.989-33.927,11.163-57.308,24.523-70.141C61.853,481.92,63.391,481.64,65.165,481.64L65.165,481.64z M164.311,499.307
		c-0.352,8.438-0.879,19.162-1.583,32.17c3.603,0,9.612,0.056,12.13-0.264c8.322-1.057,21.453-4.672,26.105-11.338
		c2.988-4.219,3.604-7.471,1.846-9.757C197.112,502.535,175.71,499.897,164.311,499.307L164.311,499.307z M160.092,660.42
		c20.04-0.176,34.806-3.164,44.299-8.965c13.008-7.735,19.249-20.48,18.722-38.235c-0.404-15.536-6.601-31.906-16.612-43.508
		c-7.911-8.965-17.755-15.558-29.533-19.777c-2.704-1.155-8.082-2.586-10.021-2.901c-2.109-0.703-3.779-1.318-5.009-1.845
		C159.125,595.641,158.509,634.052,160.092,660.42L160.092,660.42z M152.972,486.914c14.766-0.528,28.302,1.055,40.608,4.746
		c9.317,2.813,15.733,6.68,19.249,11.603c4.922,6.855,4.307,14.678-1.846,23.468c-4.395,6.328-12.218,11.075-23.468,14.239
		c28.145,12.457,46.89,40.973,47.727,71.986c0.791,29.303-14.519,49.484-42.849,56.297c-13.863,3.334-21.431,3.297-35.993,3.297
		c-2.461,0-4.307-1.143-5.537-3.428c-1.583-1.055-2.462-2.549-2.637-4.483c-1.555-19.74-1.688-46.766-0.923-67.108
		c1.215-32.311,3.566-67.662,4.878-98.487C144.429,497.104,146.51,486.914,152.972,486.914L152.972,486.914z M275.85,630.624
		c-0.703,9.317,0.967,16.788,5.01,22.413c7.925,11.027,21.017,13.822,32.565,6.856c5.538-3.34,9.449-8.878,11.734-16.612
		c2.462-8.79,1.406-17.448-3.164-25.973c-4.57-8.526-12.569-19.293-23.995-32.302c-3.301-4.303-8.656-10.219-12.394-14.504
		c-5.407-6.198-14.227-18.457-17.666-26.368c-3.795-8.729-6.542-19.926-5.538-29.796c1.055-10.548,4.878-18.854,11.47-24.919
		c6.593-6.065,13.932-8.834,22.018-8.306c8.614,0.527,15.514,4.482,20.7,11.866c5.186,7.383,7.251,17.052,6.197,29.005
		c-0.457,4.572-6.552,8.059-10.68,3.296c-1.142-1.318-1.626-2.769-1.45-4.351c0.879-9.141-0.352-15.996-3.692-20.567
		c-6.886-9.424-16.578-9.567-25.05-1.978c-4.219,3.78-6.68,9.449-7.384,17.009c-1.175,12.176,1.711,20.793,8.966,31.51
		c9.17,13.546,11.085,15.724,23.732,30.192c6.261,7.163,8.337,9.347,14.766,17.667c5.679,7.349,7.867,11.145,11.735,19.249
		c3.547,7.433,4.614,13.048,4.614,21.095c0,3.868-0.527,7.647-1.582,11.339c-2.989,10.898-8.614,18.853-16.877,23.863
		c-16.956,10.282-37.229,5.953-48.781-10.152c-5.801-8.087-8.262-18.282-7.383-30.588c0.459-5.037,6.671-7.743,10.679-3.427
		C275.542,627.372,276.026,628.865,275.85,630.624L275.85,630.624z M369.986,485.332h42.981c5.744,0,8.32,6.293,4.615,10.283
		c-1.143,1.231-2.505,1.846-4.088,1.846c-5.273,0.176-17.49,0.176-36.652,0c0.879,9.141,1.406,19.426,1.582,30.852
		c4.747,0.176,13.8-0.44,27.16-1.846c5.12-0.554,8.751,5.542,5.274,9.888c-1.055,1.319-2.461,2.066-4.22,2.24
		c-13.711,1.407-23.116,2.022-28.214,1.847c0,0.527-0.176,7.734-0.527,21.622c-0.176,6.855-0.176,40.871,0,102.047
		c13.838,1.025,33.113,0.263,46.936,0.263c8.078,0,8.078,12.13,0,12.13c-15.301,0-38.153,0.81-53.264-0.791
		c-3.498-0.438-5.802-3.402-5.802-6.856c0-32.066-0.525-74.615,0-106.793c0.528-33.576,0-56.429-1.582-68.559
		C363.358,489.139,365.21,485.332,369.986,485.332L369.986,485.332z M471.506,630.624c-0.703,9.317,0.967,16.788,5.01,22.413
		c7.926,11.027,21.017,13.822,32.565,6.856c5.538-3.34,9.449-8.878,11.734-16.612c2.461-8.79,1.407-17.448-3.164-25.973
		c-4.571-8.526-12.569-19.293-23.995-32.302c-3.301-4.303-8.657-10.22-12.394-14.504c-5.406-6.197-14.227-18.458-17.667-26.368
		c-3.795-8.729-6.541-19.926-5.537-29.796c1.055-10.548,4.878-18.854,11.47-24.919c6.593-6.065,13.932-8.834,22.018-8.306
		c8.614,0.527,15.514,4.482,20.7,11.866c5.185,7.383,7.251,17.052,6.196,29.005c-0.456,4.572-6.552,8.059-10.679,3.296
		c-1.143-1.318-1.626-2.769-1.451-4.351c0.88-9.141-0.351-15.996-3.691-20.567c-6.887-9.424-16.578-9.567-25.05-1.978
		c-4.22,3.78-6.68,9.449-7.384,17.009c-1.175,12.176,1.711,20.793,8.966,31.51c9.17,13.546,11.084,15.724,23.732,30.192
		c6.262,7.163,8.336,9.346,14.766,17.667c5.678,7.348,7.867,11.146,11.734,19.249c3.547,7.432,4.614,13.048,4.614,21.095
		c0,3.868-0.527,7.647-1.582,11.339c-2.987,10.898-8.613,18.853-16.875,23.863c-16.957,10.282-37.229,5.953-48.782-10.152
		c-5.802-8.087-8.263-18.282-7.384-30.588c0.459-5.037,6.673-7.743,10.68-3.427C471.198,627.372,471.682,628.865,471.506,630.624
		L471.506,630.624z M574.607,630.624c-0.703,9.317,0.967,16.788,5.01,22.413c7.925,11.026,21.018,13.822,32.566,6.856
		c5.537-3.34,9.448-8.878,11.734-16.612c2.461-8.79,1.406-17.448-3.164-25.973c-4.571-8.526-12.569-19.293-23.996-32.302
		c-3.301-4.303-8.656-10.219-12.394-14.504c-5.406-6.198-14.227-18.457-17.666-26.368c-3.795-8.729-6.542-19.926-5.538-29.796
		c1.055-10.548,4.879-18.854,11.471-24.919c6.592-6.065,13.931-8.834,22.017-8.306c8.615,0.527,15.515,4.482,20.7,11.866
		c5.186,7.383,7.251,17.052,6.197,29.005c-0.456,4.572-6.552,8.059-10.68,3.296c-1.142-1.318-1.626-2.769-1.45-4.351
		c0.879-9.141-0.352-15.996-3.692-20.567c-6.886-9.424-16.578-9.567-25.05-1.978c-4.219,3.78-6.68,9.449-7.384,17.009
		c-1.175,12.176,1.712,20.793,8.966,31.51c9.169,13.544,11.086,15.726,23.732,30.192c6.263,7.165,8.335,9.344,14.767,17.667
		c5.678,7.349,7.866,11.145,11.734,19.249c3.547,7.433,4.614,13.048,4.614,21.095c0,3.868-0.527,7.647-1.582,11.339
		c-2.989,10.898-8.614,18.853-16.876,23.863c-16.956,10.282-37.229,5.953-48.782-10.152c-5.801-8.087-8.262-18.282-7.383-30.588
		c0.459-5.037,6.672-7.743,10.679-3.427C574.299,627.372,574.783,628.865,574.607,630.624L574.607,630.624z M705.073,485.332
		c5.353-6.584,12.453-10.967,20.309-14.772c0.198-0.099,0.296-0.099,0.691-0.198c0,0.395,0.099,0.593,0,0.79
		c-1.608,8.577-5.953,24.295-14.314,29.122c-4.319,2.494-11.142,2.973-11.846-2.666l-0.002-0.016
		c5.704-0.004,9.818-0.048,12.341-0.132c1.582,0,2.944-0.615,4.087-1.846c3.705-3.99,1.129-10.283-4.615-10.283H705.073
		L705.073,485.332z M768.153,506.163c-0.175,17.052-0.879,43.377-2.109,78.975c-1.231,35.598-1.846,62.537-1.846,80.82
		c13.888-3.164,24.875-9.141,32.961-17.93c8.086-8.79,13.448-19.425,16.085-31.906c2.637-13.36,2.109-27.686-1.582-42.98
		c-3.691-14.942-9.933-28.83-18.722-41.663C785.301,520.384,778.515,511.743,768.153,506.163L768.153,506.163z M764.989,491.66
		c5.801,1.934,11.207,4.79,16.217,8.57c10.169,7.671,14.088,13.386,21.754,24.391c27.073,38.865,36.827,100.157-0.396,135.14
		c-11.69,10.987-27.379,17.624-47.067,19.908c-6.842,0.74-9.828-8.615-3.429-11.602c0-18.81,0.66-47.2,1.978-85.171
		c1.319-37.971,1.978-66.537,1.978-85.698c0-6.452,6.984-6.475,8.174-5.801C764.374,491.573,764.637,491.66,764.989,491.66
		L764.989,491.66z M512.149,444.794c-2.863,2.567-5.923,4.936-9.28,6.713c-2.219,1.204-3.838,1.431-6.318,1.382
		c-2.468-0.099-3.06-0.987-2.27-3.356c2.369-6.417,10.464-10.07,16.683-7.306C511.716,442.486,513.743,443.555,512.149,444.794
		L512.149,444.794z M528.24,429.098c-0.198,0-0.296-0.099-0.395-0.099c0.691-10.069,2.665-19.645,10.267-27.049
		c3.695-3.538,9.663-5.185,8.885-0.494c-1.1,6.629-4.913,11.759-9.181,16.881c-2.962,3.554-6.121,7.01-9.181,10.465
		C528.536,428.9,528.338,429,528.24,429.098L528.24,429.098z M605.044,456.443c-11.57,1.723-8.458-15.338,1.086-18.164
		c4.486-1.366,6.762,5.16,7.008,7.897C613.138,451.211,609.486,455.752,605.044,456.443L605.044,456.443z M712.154,447.757
		c-1.481,1.086-3.258,1.974-4.936,2.862c-1.696,0.898-8.01,2.484-6.812-0.987c0.494-1.481,1.184-3.06,2.172-4.244
		c2.863-3.258,6.417-5.331,10.76-5.924c2.074-0.395,4.542,0.593,6.121,2.271C717.188,443.906,714.819,446.077,712.154,447.757
		L712.154,447.757z M162.832,437.995c-0.369,0.172-0.756,0.376-1.096,0.58c-8.194,3.455-16.289,7.108-24.68,10.464
		c-8.012,3.219-20.087,8.595-28.826,5.429c-6.822-2.47-4.457-10.368-3.356-16.189c0.296-1.58,0.099-3.061-1.086-4.344
		c-2.073-2.27-4.541-2.567-7.009-0.691c-2.172,1.58-4.245,3.258-6.516,5.035c-2.764-4.344-6.712-6.516-11.55-6.516
		c-8.884-0.098-16.19,3.357-21.225,10.761c-2.566,3.85-3.652,7.996-2.764,12.635c1.578,8.163,9.659,8.859,16.289,6.319
		c3.949-1.579,7.601-3.851,11.057-6.319c3.104-2.261,10.26-7.85,12.932-9.378c0,1.185-0.098,2.073,0,2.863
		c1.069,10.347,7.828,14.777,17.572,15.401c6.219,0.395,12.241-1.185,18.066-3.258c10.75-3.84,21.22-8.332,31.591-13.024
		c-0.025,4.084,0.529,10.051,1.775,13.912c1.471,4.556,6.814,5.245,10.268,0.099c4.317-6.433,10.457-18.743,17.473-21.916
		c2.172-0.987,2.863-0.691,3.751,1.48c2.762,6.692,4.398,13.165,10.464,17.868c8.943,6.933,21.715,5.717,31.887,2.764
		c9.769-2.757,19.035-6.521,27.848-11.39c-0.543,10.363,9.652,12.973,18.747,9.712c7.153-2.564,12.019-7.669,18.066-12.636
		c0.296,0.592,0.493,0.987,0.691,1.481c5.473,12.97,22.014,12.271,33.564,9.971c9.774-1.975,19.251-4.936,28.431-8.688
		c3.851-1.579,7.7-3.356,11.452-5.034c5.334-2.259,1.987-10.108-3.455-7.799c-2.271,0.987-4.541,2.073-6.812,3.06
		c-11.649,5.035-23.692,9.082-36.427,10.859c-5.142,0.709-16.101,0.811-18.559-5.232c-0.494-1.382-0.987-2.764-1.58-4.146
		c-0.395-0.889-0.098-1.58,0.593-2.271c3.85-4.146,7.798-8.292,11.55-12.537c5.916-6.626,13.116-15.531,14.116-24.779
		c0.79-7.897-5.133-13.722-12.932-12.438c-9.086,1.559-15.957,10.238-19.349,18.361c-3.943,9.444-4.872,19.336-3.751,29.419
		c-1.184-0.889-1.975-1.876-3.061-2.468c-12.441-7.15-22.22,1.106-22.739,1.239c-0.37,0.095-0.999-0.494-3.816,1.031
		c-6.417,3.752-12.735,7.799-19.645,10.663c-11.265,4.602-36.148,14.571-43.437-1.185c-1.718-3.716-3.037-7.612-4.738-11.057
		c-3.503-7.092-11.75-6.423-17.474-2.369c-4.639,3.257-8.094,7.601-11.154,12.241c-0.889,1.481-1.777,2.961-2.765,4.343
		c-0.098,0-0.197,0-0.296-0.098c0-4.514-0.174-8.407,0.987-12.932c1.37-5.339-6.047-7.833-8.095-2.863
		C163.324,435.593,163.029,436.783,162.832,437.995L162.832,437.995z M80.589,445.584c-3.455,2.27-6.812,4.442-10.168,6.614
		c-1.678,1.086-3.653,1.678-5.726,1.777c-1.382,0.099-1.58-0.099-1.58-1.382c-0.098-2.073,0.592-3.949,1.679-5.528
		c3.356-4.64,7.996-6.713,13.524-6.713c2.271,0,3.949,0.987,4.64,3.356C82.267,444.399,81.379,444.992,80.589,445.584
		L80.589,445.584z M292.539,444.794c-2.863,2.567-5.923,4.936-9.279,6.713c-2.22,1.204-3.838,1.431-6.318,1.382
		c-2.468-0.099-3.061-0.987-2.271-3.356c2.369-6.417,10.464-10.07,16.684-7.306C292.106,442.486,294.133,443.555,292.539,444.794
		L292.539,444.794z M308.631,429.098c-0.198,0-0.297-0.099-0.395-0.099c0.691-10.069,2.665-19.645,10.267-27.049
		c3.694-3.538,9.662-5.185,8.884-0.494c-1.1,6.629-4.912,11.759-9.181,16.881c-2.961,3.554-6.12,7.01-9.181,10.465
		C308.928,428.9,308.729,429,308.631,429.098L308.631,429.098z"/>
</g>
</svg>
