<?xml version="1.0" encoding="utf-8"?>
<!-- Generator: Adobe Illustrator 24.3.0, SVG Export Plug-In . SVG Version: 6.00 Build 0)  -->
<svg version="1.1" id="Layer_1" xmlns="http://www.w3.org/2000/svg" xmlns:xlink="http://www.w3.org/1999/xlink" x="0px" y="0px"
	 viewBox="0 0 864 864" style="enable-background:new 0 0 864 864;" xml:space="preserve">
<style type="text/css">
	.st0{fill-rule:evenodd;clip-rule:evenodd;}
</style>
<g>
	<path class="st0" d="M423.34,406.45c-40.51,12.55-40.47,54.44-68.99,84.61c-18.86,19.94-49.28,38.77-63.83,64.25
		c-27.69,48.52-17.05,130.56,89.39,94.55c69.47-28.15,97.41,0.53,141.26,3.47c56.18,3.77,106.69-70.61,46.82-113.5
		c-18.87-13.51-41.12-20.19-55.99-39.05c-15.83-20.08-17.92-61.52-39.61-80.2C462.4,411.99,442.23,400.6,423.34,406.45
		L423.34,406.45z M486.76,491.85c45.26,33.55-29.38,105.21-55.49,127.25c-25.9-22.15-77.74-77.24-63.46-114.43
		c2.26-6.03,6.68-11.21,13.25-15.41c18.65-12.04,45.48,42.01,50.21,51.83C437.13,530.94,468.01,478.81,486.76,491.85L486.76,491.85
		L486.76,491.85z M267.34,338.02c-21.74-3.79-25.48,17.28-34.57,34.7c-44.04,84.32,1.71,143.84,51.49,141.22
		c42.11-2.2,62.79-44.69,55.18-85.88c-3.23-17.51-12.38-32.73-25.46-50.93C305.45,365.3,284.4,340.99,267.34,338.02L267.34,338.02z
		 M483.44,218.39c-42.08,4.48-47.56,57.9-47.64,89.04c-0.12,37.43,12.95,87.45,60.71,78.75c34.35-6.25,66.99-46.41,56.03-85.97
		C548.8,286.7,515.09,215.02,483.44,218.39L483.44,218.39z M315.24,280.57c-9.52,20.41-15.02,43.85-9.02,59
		c17.14,43.24,69.14,65.7,92.04,46.67c33.97-33.4,28.83-99.31,3.15-143.66C371.83,191.55,328.05,253.12,315.24,280.57L315.24,280.57
		z M275.56,320.93c1.68-6.46-1.77-16.67-8.41-24.02c-5.63,7.9-11.85,16.13-14.33,24.71c-1.94,6.7,0.14,11.13,11.01,9.46
		C272.65,329.73,273.26,329.86,275.56,320.93L275.56,320.93z M591.92,338.02c21.74-3.79,25.48,17.28,34.57,34.7
		c44.04,84.32-1.71,143.84-51.5,141.22c-42.1-2.21-62.78-44.69-55.17-85.88c3.23-17.51,12.37-32.73,25.47-50.93
		C553.8,365.3,574.84,340.99,591.92,338.02L591.92,338.02z M476.83,200.78c-1.97-6.39-8.76-14.55-17.63-18.96
		c-2.32,9.42-5.07,19.37-4.23,28.26c0.66,6.92,3.65,11.77,13.16,6.23c3.55-2.09,9.76-3.4,10.81-4.93
		C480.16,209.6,478.32,205.57,476.83,200.78L476.83,200.78z M373.47,200.78c1.99-6.39,8.77-14.55,17.63-18.96
		c2.32,9.42,5.07,19.37,4.23,28.26c-0.66,6.92-3.66,11.76-13.16,6.23c-3.56-2.09-9.76-3.41-10.82-4.94
		C370.15,209.6,371.99,205.57,373.47,200.78L373.47,200.78z M585.46,320.93c-1.68-6.47,1.78-16.67,8.41-24.02
		c5.61,7.9,11.84,16.13,14.33,24.71c1.94,6.7-0.13,11.13-11.01,9.46C588.37,329.73,587.77,329.87,585.46,320.93L585.46,320.93z"/>
	<path d="M198.73,292.96l-13.8,23.99l-18.91,5.1l-17.96-10.33l10.34-17.98l11.99,6.89l6.89-11.99l-65.92-37.91l10.34-17.98
		l71.91,41.35L198.73,292.96L198.73,292.96z M240.83,238.87l-19.08,20.01l-19.55,0.46l-60.03-57.25l14.31-15.01l55.03,52.48l9.54-10
		l-55.03-52.48l14.31-15.01l60.03,57.25L240.83,238.87L240.83,238.87z M295.18,196.62l-23.28,14.92l-19.1-4.18l-7.46-11.64
		l17.46-11.19l3.73,5.82l11.64-7.46l-9.33-14.55l-17.44,11.18l-19.12-4.16l-16.79-26.19l4.18-19.1l23.28-14.92l19.1,4.18l7.46,11.64
		l-17.46,11.19l-3.73-5.82l-11.64,7.46l9.33,14.55l17.44-11.18l19.1,4.12l16.8,26.21L295.18,196.62L295.18,196.62z M332.09,98.98
		l24.37,72.03l-19.64,6.64l-24.37-72.03l-19.62,6.64l-6.65-19.64l58.89-19.92l6.65,19.64L332.09,98.98L332.09,98.98z M463.06,162.39
		l-1.3-13.96l-17.37-1.32l-3.41,13.61l-20.66-1.57L445.56,64l27.59,2.1l10.58,97.86L463.06,162.39L463.06,162.39z M456.93,97.19
		l-7.4,29.5l10.25,0.78L456.93,97.19L456.93,97.19z M568.44,196.4l-24.61-12.6l-6-18.61l31.51-61.53l18.61-6l24.61,12.6l5.99,18.63
		l-9.44,18.44l-18.46-9.45l6.3-12.31l-12.31-6.3l-25.21,49.22l12.31,6.3l4.74-9.25l-6.15-3.15l9.45-18.46l24.61,12.6l-17.33,33.84
		L568.44,196.4L568.44,196.4z M591.64,211.8l59.79-76.1l16.31,12.81l-59.79,76.1L591.64,211.8L591.64,211.8z M642.4,258.23
		l28.74-24.89l-9.05-10.45l-28.74,24.89l-13.58-15.68l73.15-63.36l27.16,31.35l-1.4,19.5l-18.83,16.31l-13.66-1.03l-0.98,13.72
		l-29.23,25.31L642.4,258.23L642.4,258.23z M699.87,208.45L690.82,198l-13.06,11.32l9.05,10.45L699.87,208.45L699.87,208.45z
		 M662.63,285.57l86.14-44.12l9.45,18.46l-67.68,34.66l12.58,24.57l-18.46,9.45L662.63,285.57L662.63,285.57z"/>
	<path d="M85.27,557.4l-5.7-20.69l28.74-13.51l-31.6,3.13L71,505.57l86.07-41.8l5.35,19.42l-47.31,24.2l52.31-6.04l2.86,10.39
		l-48.03,21.59l53.01-3.49l5.36,19.48L85.27,557.4L85.27,557.4z M120.35,626.95l31.82-18.81l-6.84-11.57l-31.82,18.81l-10.26-17.36
		l80.99-47.88l10.26,17.36l-31.82,18.81l6.84,11.57l31.82-18.81l10.26,17.35l-80.99,47.88L120.35,626.95L120.35,626.95z
		 M174.02,694.62l-18.67-19.34l0.33-19l48.34-46.68l19,0.33l18.67,19.34l-0.33,19l-48.34,46.68L174.02,694.62L174.02,694.62z
		 M222.52,638.44l-9.34-9.67l-38.67,37.35l9.34,9.67L222.52,638.44L222.52,638.44z M237.02,744.8l47.27-81.35l17.43,10.13
		l-37.14,63.92l23.2,13.48l-10.13,17.43L237.02,744.8L237.02,744.8z M332.73,788.71l-25.47-8.59l-8.44-17.03l21.46-63.68l17.03-8.44
		l25.47,8.59l8.44,17.03l-21.46,63.68L332.73,788.71L332.73,788.71z M349.97,716.51l-12.74-4.29l-17.17,50.95l12.74,4.29
		L349.97,716.51L349.97,716.51z M414.21,801.25l-26.83-2.05l-10.24-95.14l20.08,1.53l5.97,63.43l15.5-61.79l20.1,1.53L414.21,801.25
		L414.21,801.25z M451.77,801.14l-10.67-93.48l46.69-5.33l2.29,20.03l-26.66,3.04l1.91,16.69l26.66-3.04l2.29,20.03l-26.66,3.04
		l1.91,16.69l26.66-3.04l2.29,20.03L451.77,801.14L451.77,801.14z M563.05,777.66l-25.24,9.25l-17.24-8l-4.62-12.62l18.93-6.93
		l2.31,6.31l12.62-4.62l-5.78-15.78l-18.91,6.93l-17.26-7.99l-10.4-28.4l8-17.24l25.24-9.25l17.24,8l4.62,12.62l-18.93,6.93
		l-2.31-6.31l-12.62,4.62l5.78,15.78l18.91-6.93l17.25,7.95l10.41,28.42L563.05,777.66L563.05,777.66z M667.17,716.31l-31.65,24.98
		l-58.3-73.84l31.65-24.98l18.88,2.22l41.64,52.75L667.17,716.31L667.17,716.31z M616.09,662.45l-10.55,8.33l33.31,42.2l10.55-8.33
		L616.09,662.45L616.09,662.45z M723.61,658.44l-17.34,20.54l-18.94,1.6l-51.35-43.35l-1.6-18.94l17.34-20.54l18.94-1.6L722,639.5
		L723.61,658.44L723.61,658.44z M662.78,615.89l-8.67,10.27l41.08,34.68l8.67-10.27L662.78,615.89L662.78,615.89z M765.13,590.44
		l-11.97,24.07l-18.02,6.05l-60.17-29.93l-6.05-18.02l11.97-24.07l18.04-6.04l18.03,8.97l-8.98,18.05l-12.03-5.99l-5.99,12.03
		l48.13,23.95l5.99-12.03l-9.05-4.5l-2.99,6.02L714,580.02l11.97-24.07l33.09,16.46L765.13,590.44L765.13,590.44z M791,514.88
		l-7.64,25.77l-16.71,9.06l-12.89-3.82l5.73-19.33l6.44,1.91l3.82-12.89l-16.11-4.78l-5.73,19.31l-16.71,9.09l-28.99-8.6
		l-9.06-16.71l7.64-25.77l16.71-9.06l12.89,3.82l-5.73,19.33l-6.44-1.91l-3.82,12.89l16.11,4.78l5.73-19.31l16.67-9.1l29.01,8.61
		L791,514.88L791,514.88z"/>
	<path class="st0" d="M759.71,339.92c12.11-4.65,9.53-21.8-3.6-21.64c-4.53,0.06-9.15,2.48-11.26,7.24
		c-14.11-6.53-24.95,14.71-10.61,20.53c2.6,1.06,6.41,1.28,9.24-0.04c4.29,11.69,7.07,26.31,8.11,38.79
		c0.83,9.96,0.64,40.33-2.19,48.21c-13.1-1.01-18.04,15.77-5.99,21.15c4.14,1.85,9.34,1.57,13.25-1.87
		c10.11,11.87,28.8-2.92,18.25-14.2c-1.98-2.12-4.82-3.55-8.07-3.82C771.75,402.73,770.43,370.16,759.71,339.92L759.71,339.92z
		 M105.43,339.92c-12.12-4.65-9.53-21.81,3.6-21.64c4.53,0.06,9.15,2.48,11.26,7.24c14.11-6.53,24.95,14.71,10.61,20.53l-9.25-0.03
		c-10.41,28.48-9.96,57.11-6.04,86.64l0.04,0.36c13.07-1.14,18.23,15.72,6.08,21.15c-4.14,1.85-9.34,1.57-13.25-1.87
		c-10.11,11.87-28.8-2.92-18.25-14.2c1.98-2.12,4.82-3.55,8.07-3.82C93.39,402.72,94.71,370.17,105.43,339.92L105.43,339.92z"/>
</g>
</svg>
