<?xml version="1.0" encoding="utf-8"?>
<!-- Generator: Adobe Illustrator 24.3.0, SVG Export Plug-In . SVG Version: 6.00 Build 0)  -->
<svg version="1.1" id="Layer_1" xmlns="http://www.w3.org/2000/svg" xmlns:xlink="http://www.w3.org/1999/xlink" x="0px" y="0px"
	 viewBox="0 0 864 864" style="enable-background:new 0 0 864 864;" xml:space="preserve">
<g>
	<path d="M78.25,110.01l-6.08,14.91c-0.25,0.59-0.22,1.25,0.05,1.81l11.47,23.62c0.4,0.83,1.31,1.33,2.25,1.23l36.66-4.21
		c0.95-0.11,1.84,0.38,2.25,1.23l4.06,8.35c0.27,0.56,0.3,1.22,0.05,1.81l-1.49,3.65c-0.2,0.5-0.59,0.91-1.08,1.15l-11.54,5.6
		c-0.49,0.24-1.05,0.28-1.57,0.13l-3.79-1.09c-0.6-0.18-1.12-0.6-1.39-1.16l-3.27-6.73c-0.54-1.1-1.85-1.56-2.96-1.02l-9.22,4.48
		c-1.1,0.53-1.56,1.85-1.02,2.95l6.13,12.62c0.27,0.56,0.77,0.99,1.39,1.16l15.48,4.44c0.54,0.14,1.1,0.09,1.58-0.14l21.63-10.5
		c0.51-0.25,0.89-0.66,1.09-1.16l6.1-14.92c0.23-0.58,0.2-1.24-0.07-1.8l-11.47-23.62c-0.4-0.83-1.3-1.34-2.23-1.24l-36.68,4.22
		c-0.94,0.1-1.85-0.4-2.25-1.23l-4.06-8.36c-0.27-0.56-0.3-1.22-0.05-1.81l1.49-3.65c0.2-0.5,0.59-0.91,1.07-1.15l11.54-5.6
		c0.49-0.24,1.05-0.29,1.57-0.14l3.79,1.09c0.62,0.17,1.12,0.6,1.39,1.16l3.27,6.73c0.54,1.1,1.85,1.56,2.96,1.02l9.22-4.48
		c1.1-0.54,1.56-1.85,1.02-2.96l-6.13-12.62c-0.27-0.56-0.77-0.99-1.39-1.16l-15.48-4.44c-0.52-0.15-1.1-0.09-1.58,0.14l-21.63,10.5
		C78.86,109.09,78.47,109.5,78.25,110.01L78.25,110.01z M141.8,80l-6.15,12.38c-0.64,1.3-0.74,2.81-0.24,4.19l18.61,51.4
		c0.49,1.36,1.54,2.48,2.86,3.07l12.65,5.58c1.25,0.55,2.67,0.59,3.96,0.13l20.36-7.37c1.28-0.47,2.36-1.41,2.96-2.63l6.14-12.38
		c0.66-1.31,0.73-2.83,0.24-4.19l-18.61-51.4c-0.5-1.38-1.52-2.48-2.86-3.07l-12.64-5.58c-1.25-0.55-2.68-0.61-3.97-0.15
		l-20.36,7.37C143.47,77.81,142.41,78.77,141.8,80L141.8,80z M170.07,140.79l-1.5-0.67c-1.35-0.58-2.37-1.69-2.86-3.05l-14.34-39.6
		c-0.49-1.36-0.42-2.86,0.24-4.17l0.72-1.48c0.62-1.25,1.67-2.19,2.95-2.65l9.28-3.36c1.29-0.47,2.71-0.43,3.97,0.14l1.52,0.67
		c1.33,0.59,2.35,1.69,2.84,3.06l14.34,39.6c0.49,1.36,0.42,2.86-0.23,4.17l-0.74,1.49c-0.61,1.22-1.67,2.18-2.95,2.65l-9.28,3.36
		C172.75,141.4,171.34,141.33,170.07,140.79L170.07,140.79z M198.01,60.5l19.8,77.13c0.33,1.27,1.63,2.05,2.91,1.72l9.58-2.46
		c1.29-0.33,2.05-1.65,1.72-2.91l-6.72-26.17c-0.33-1.28,0.46-2.59,1.74-2.92c0.86-0.22,1.76,0.05,2.36,0.7l22.28,24.52
		c0.6,0.65,1.52,0.92,2.38,0.7l10.83-2.78c1.75-0.45,2.39-2.58,1.17-3.93l-18.86-20.75c-1.22-1.35-0.56-3.49,1.17-3.93l2.53-0.65
		c0.62-0.16,1.14-0.56,1.47-1.12l6.63-11.46c0.3-0.53,0.4-1.18,0.25-1.78l-6.74-26.27c-0.16-0.62-0.57-1.16-1.15-1.49l-14.03-8
		c-0.54-0.32-1.19-0.4-1.79-0.25l-35.81,9.19C198.45,57.92,197.68,59.23,198.01,60.5L198.01,60.5z M217.62,68.17l15.81-4.06
		c0.6-0.15,1.25-0.07,1.78,0.23l3.48,1.99c0.56,0.31,0.97,0.85,1.13,1.48l3.7,14.43c0.16,0.61,0.07,1.25-0.24,1.81l-0.53,0.91
		c-0.31,0.56-0.85,0.97-1.48,1.12l-17.88,4.59c-1.28,0.33-2.6-0.43-2.93-1.72l-4.58-17.86C215.55,69.8,216.34,68.5,217.62,68.17
		L217.62,68.17L217.62,68.17z M266.58,43.24l12.74,78.61c0.21,1.29,1.43,2.19,2.74,1.98l9.76-1.58c1.31-0.21,2.19-1.45,1.98-2.74
		l-4.32-26.67c-0.21-1.31,0.69-2.54,2-2.75c0.88-0.14,1.75,0.2,2.29,0.91l19.97,26.44c0.54,0.71,1.43,1.05,2.31,0.91l11.03-1.79
		c1.79-0.29,2.61-2.36,1.52-3.81L311.7,90.37c-1.09-1.45-0.24-3.52,1.52-3.81l2.58-0.42c0.64-0.1,1.19-0.46,1.57-0.99l7.64-10.81
		c0.35-0.5,0.51-1.14,0.41-1.76l-4.34-26.77c-0.1-0.64-0.46-1.21-1.01-1.59l-13.25-9.24c-0.51-0.37-1.14-0.51-1.76-0.41l-36.49,5.92
		C267.25,40.71,266.37,41.93,266.58,43.24L266.58,43.24z M285.42,52.65l16.11-2.61c0.62-0.1,1.25,0.04,1.75,0.39l3.29,2.3
		c0.53,0.36,0.88,0.94,0.99,1.57l2.38,14.7c0.1,0.62-0.04,1.25-0.41,1.78l-0.62,0.85c-0.36,0.53-0.93,0.88-1.57,0.99l-18.22,2.95
		c-1.31,0.21-2.55-0.67-2.76-1.97l-2.95-18.2C283.21,54.09,284.11,52.86,285.42,52.65L285.42,52.65L285.42,52.65z M374.1,112.1
		c0.74-0.05,1.3-0.7,1.25-1.44l-2.67-36.61c-0.02-0.24,0.02-0.47,0.13-0.67l22.25-45.43c0.45-0.94-0.27-2.02-1.29-1.94l-13.88,1.01
		c-0.46,0.03-0.88,0.33-1.09,0.74l-13.65,27.87c-0.46,0.92-1.74,1.01-2.32,0.17l-17.55-25.59c-0.27-0.38-0.73-0.61-1.21-0.58
		l-13.86,1.01c-1.04,0.08-1.6,1.25-1.01,2.11l28.6,41.71c0.13,0.19,0.21,0.41,0.23,0.65l2.67,36.61c0.05,0.74,0.7,1.3,1.44,1.24
		L374.1,112.1L374.1,112.1z M443.84,111.23l7.69,0.33c1.93,0.08,3.56-1.42,3.65-3.34l3.35-77.37c0.08-1.93-1.42-3.56-3.34-3.65
		l-7.69-0.33c-1.93-0.08-3.56,1.42-3.65,3.34l-3.35,77.37C440.41,109.51,441.91,111.15,443.84,111.23L443.84,111.23z M508.8,42.79
		c-0.52,0.38-0.86,0.94-0.94,1.58l-7.51,56.72c-0.09,0.64,0.09,1.27,0.5,1.77l10.2,12.73c0.39,0.46,0.93,0.77,1.53,0.85l23.84,3.16
		c0.59,0.08,1.19-0.09,1.68-0.43l13.16-9.63c0.51-0.38,0.85-0.94,0.94-1.58L554,94.28c0.17-1.28-0.73-2.45-2.01-2.62l-9.94-1.32
		c-1.27-0.17-2.45,0.73-2.62,2.01l-0.99,7.45c-0.08,0.64-0.4,1.2-0.92,1.58l-3.35,2.44c-0.5,0.36-1.1,0.5-1.68,0.43l-12.16-1.61
		c-0.6-0.08-1.15-0.38-1.53-0.85l-2.57-3.22c-0.4-0.5-0.58-1.13-0.5-1.77l5.87-44.28c0.08-0.64,0.42-1.2,0.94-1.58l3.33-2.44
		c0.49-0.36,1.1-0.5,1.7-0.42l12.14,1.61c0.6,0.08,1.15,0.37,1.53,0.85l2.58,3.22c0.4,0.5,0.58,1.15,0.5,1.77l-1.08,8.19
		c-0.17,1.27,0.73,2.45,2,2.62l9.95,1.32c1.27,0.17,2.45-0.73,2.62-2.01l1.91-14.41c0.08-0.64-0.1-1.27-0.5-1.77l-10.2-12.73
		c-0.39-0.46-0.93-0.77-1.51-0.85l-23.86-3.16c-0.58-0.08-1.18,0.07-1.68,0.43L508.8,42.79L508.8,42.79z M594.22,47.6l-37.35,71.87
		c-0.92,1.77,0.08,3.91,2.02,4.36l8.68,1.98c1.35,0.31,2.74-0.33,3.37-1.56l7.91-15.19c0.63-1.24,2.01-1.87,3.37-1.56l17.41,3.96
		c1.35,0.31,2.32,1.48,2.36,2.87l0.54,17.11c0.06,1.39,1.03,2.56,2.36,2.87l8.7,1.98c1.92,0.44,3.77-1.06,3.71-3.05l-2.58-80.96
		c-0.03-1.39-1-2.56-2.34-2.86l-14.78-3.36C596.25,45.73,594.87,46.37,594.22,47.6L594.22,47.6z M595.14,77.69
		c1.45-2.76,5.63-1.81,5.73,1.3l0.45,13.88c0.06,1.99-1.79,3.49-3.71,3.05l-6.86-1.56c-1.92-0.44-2.92-2.58-2-4.35L595.14,77.69
		L595.14,77.69z M673.28,114.81l-5.85-47.59c-0.15-1.11-0.89-2.05-1.94-2.44l-10.45-3.9c-1.54-0.58-3.27,0.2-3.85,1.74l-27.43,73.49
		c-0.58,1.54,0.22,3.28,1.76,3.85l8.14,3.04c1.54,0.58,3.28-0.21,3.85-1.76l13.91-37.27c1.1-2.94,5.39-2.43,5.78,0.67l5.85,47.63
		c0.15,1.11,0.89,2.05,1.92,2.43l10.45,3.9c1.56,0.58,3.27-0.2,3.85-1.74l27.43-73.51c0.58-1.55-0.2-3.27-1.76-3.85l-8.14-3.04
		c-1.54-0.58-3.28,0.21-3.85,1.76l-13.91,37.28C677.96,118.44,673.66,117.91,673.28,114.81L673.28,114.81z M732.03,94.13l-9.64-4.43
		c-0.89-0.41-1.96-0.02-2.37,0.88l-4.39,9.55c-0.41,0.89-0.02,1.96,0.88,2.37l3.33,1.53l-2.41,0.37c-0.99,0.17-1.67,1.07-1.5,2.06
		l0.62,4c0.15,0.97,1.08,1.65,2.05,1.5l6.84-1.06c0.59-0.08,1.1-0.47,1.35-1.02l6.15-13.37C733.34,95.61,732.93,94.54,732.03,94.13
		L732.03,94.13z M752.97,127.76c1.33,0.82,1.74,2.57,0.92,3.9l-33.75,54.49c-0.82,1.32-0.41,3.06,0.93,3.89l7.67,4.75
		c1.33,0.82,3.08,0.42,3.89-0.9l33.74-54.49c0.83-1.33,2.57-1.74,3.89-0.93l12.67,7.85c1.31,0.81,3.06,0.4,3.89-0.93l4.75-7.67
		c0.83-1.33,0.42-3.08-0.9-3.89l-42.61-26.39c-1.33-0.82-3.08-0.41-3.9,0.92l-4.75,7.67c-0.83,1.33-0.42,3.08,0.92,3.9
		L752.97,127.76L752.97,127.76z"/>
	<path d="M291.74,503.09L282,461.41c-0.15-0.66-0.75-1.13-1.43-1.13h-8.51c-0.68,0-1.26,0.47-1.43,1.13l-9.79,41.73
		c-0.36,1.5-2.5,1.5-2.86,0l-9.79-41.73c-0.17-0.66-0.75-1.13-1.43-1.13h-11.09c-0.94,0-1.64,0.88-1.43,1.81l17.86,76.02
		c0.17,0.68,0.75,1.13,1.43,1.13h11.77c0.68,0,1.26-0.45,1.41-1.13l8.18-34.76c0.36-1.5,2.48-1.49,2.84,0l8.14,34.76
		c0.15,0.66,0.73,1.13,1.41,1.13h11.77c0.68,0,1.26-0.45,1.43-1.13l17.86-76.02c0.23-0.92-0.47-1.81-1.43-1.81H305.8
		c-0.68,0-1.26,0.47-1.41,1.13l-9.79,41.68C294.24,504.59,292.09,504.59,291.74,503.09L291.74,503.09L291.74,503.09z M328.15,539.26
		h7.2c1.8,0,3.27-1.47,3.27-3.27v-72.41c0-1.81-1.47-3.27-3.27-3.27h-7.2c-1.81,0-3.27,1.47-3.27,3.27v72.41
		C324.88,537.79,326.34,539.26,328.15,539.26L328.15,539.26z M346.81,474.03h13.91c1.47,0,2.65,1.19,2.65,2.65v59.93
		c0,1.45,1.18,2.63,2.65,2.63h8.44c1.47,0,2.65-1.18,2.65-2.63v-59.93c0-1.47,1.19-2.65,2.63-2.65h13.93c1.45,0,2.63-1.18,2.63-2.65
		v-8.44c0-1.47-1.18-2.65-2.63-2.65h-46.86c-1.47,0-2.65,1.18-2.65,2.65v8.44C344.16,472.84,345.35,474.03,346.81,474.03
		L346.81,474.03L346.81,474.03z M436.37,487.19h-17.44c-1.8,0-3.27-1.47-3.27-3.27v-20.34c0-1.81-1.47-3.27-3.27-3.27h-7.2
		c-1.81,0-3.27,1.47-3.27,3.27v72.41c0,1.81,1.47,3.27,3.27,3.27h7.2c1.8,0,3.27-1.47,3.27-3.27v-31.81c0-1.81,1.47-3.25,3.27-3.25
		h17.44c1.81,0,3.25,1.45,3.25,3.25v31.81c0,1.81,1.47,3.27,3.27,3.27h7.2c1.8,0,3.27-1.47,3.27-3.27v-72.41
		c0-1.81-1.47-3.27-3.27-3.27h-7.2c-1.81,0-3.27,1.47-3.27,3.27v20.34C439.62,485.72,438.17,487.19,436.37,487.19L436.37,487.19z
		 M528.21,501.4l-17.84-38.87c-0.62-1.35-1.98-2.22-3.46-2.22h-7.24c-2.11,0-3.82,1.71-3.82,3.82v71.32c0,2.11,1.71,3.82,3.82,3.82
		h6.11c2.1,0,3.8-1.71,3.8-3.82v-36.22c0-1.28,1.75-1.65,2.29-0.51l10.66,23.27c0.62,1.35,1.97,2.22,3.46,2.22h6.6
		c1.49,0,2.84-0.87,3.46-2.22l10.66-23.27c0.53-1.17,2.27-0.77,2.27,0.51v36.22c0,2.11,1.71,3.82,3.82,3.82h6.11
		c2.11,0,3.82-1.71,3.82-3.82v-71.32c0-2.11-1.71-3.82-3.82-3.82h-7.26c-1.49,0-2.84,0.86-3.46,2.22l-17.82,38.87
		C529.96,502.34,528.63,502.34,528.21,501.4L528.21,501.4z M604.36,539.24c0.7,0,1.26-0.56,1.26-1.26v-34.32
		c0-0.23,0.06-0.43,0.17-0.62l23.84-40.85c0.49-0.85-0.11-1.9-1.07-1.9h-13.01c-0.43,0-0.85,0.24-1.07,0.62l-14.62,25.06
		c-0.49,0.83-1.69,0.83-2.18,0l-14.63-25.06c-0.23-0.38-0.64-0.62-1.09-0.62h-12.99c-0.98,0-1.58,1.05-1.09,1.9l23.84,40.85
		c0.11,0.19,0.17,0.39,0.17,0.62v34.32c0,0.7,0.56,1.26,1.26,1.26H604.36L604.36,539.24z"/>
	<path d="M134.07,568.1V825.7c0,6.78,5.51,12.29,12.22,12.29h117.61c3.16,0,6.25-1.28,8.53-3.43l36.27-35.2
		c2.42-2.28,3.76-5.44,3.76-8.8V603.3c0-3.36-1.34-6.51-3.76-8.8l-36.27-35.2c-2.28-2.15-5.37-3.43-8.53-3.43H146.3
		C139.58,555.88,134.07,561.39,134.07,568.1L134.07,568.1L134.07,568.1z M195.4,604.98h48.63c3.23,0,6.25,1.21,8.53,3.43l7.12,6.85
		c2.35,2.35,3.69,5.51,3.69,8.8v145.76c0,3.29-1.34,6.45-3.69,8.8l-7.12,6.85c-2.28,2.22-5.31,3.43-8.53,3.43H195.4
		c-6.78,0-12.22-5.51-12.22-12.22V617.2C183.17,610.42,188.61,604.98,195.4,604.98L195.4,604.98L195.4,604.98z M385.35,560.78
		l-33.38,31.91c-3.49,3.36-5.51,7.99-5.51,12.9v182.63c0,4.84,2.01,9.54,5.51,12.9l33.38,31.91c3.29,3.16,7.73,4.9,12.29,4.9h72.34
		c4.57,0,9-1.75,12.29-4.9l33.38-31.91c3.56-3.36,5.51-8.06,5.51-12.9V605.59c0-4.9-1.95-9.54-5.51-12.9l-33.38-31.91
		c-3.29-3.16-7.73-4.97-12.29-4.97h-72.34C393.07,555.81,388.64,557.63,385.35,560.78L385.35,560.78z M405.03,783.92l-3.96-3.83
		c-3.56-3.36-5.51-7.99-5.51-12.83V626.54c0-4.84,1.95-9.47,5.51-12.83l3.96-3.83c3.36-3.22,7.72-4.97,12.29-4.97h32.98
		c4.57,0,9,1.75,12.29,4.97l4.03,3.83c3.49,3.36,5.44,7.99,5.44,12.83v140.72c0,4.84-1.95,9.47-5.44,12.83l-4.03,3.83
		c-3.29,3.16-7.72,4.97-12.29,4.97h-32.98C412.75,788.89,408.39,787.08,405.03,783.92L405.03,783.92z M596.33,558.7l-37.95,36.27
		c-2.01,1.95-3.16,4.57-3.16,7.39v189.15c0,2.75,1.14,5.44,3.16,7.39l37.95,36.27c1.88,1.81,4.43,2.82,7.05,2.82h78.39
		c2.62,0,5.17-1.01,7.05-2.82l37.95-36.27c2.01-1.95,3.16-4.57,3.16-7.39V692.3c0-5.64-4.57-10.21-10.21-10.21H641.8
		c-5.64,0-10.21,4.63-10.21,10.21v28.68c0,5.64,4.57,10.21,10.21,10.21h28.82c5.64,0,10.21,4.57,10.21,10.21v29.15
		c0,2.75-1.14,5.44-3.16,7.39l-8.53,8.13c-1.88,1.81-4.43,2.82-7.05,2.82h-39.02c-2.62,0-5.17-1.01-7.05-2.82l-8.53-8.13
		c-2.01-1.95-3.16-4.63-3.16-7.39V623.38c0-2.82,1.14-5.51,3.16-7.39l8.53-8.19c1.88-1.81,4.43-2.82,7.05-2.82h39.02
		c2.62,0,5.17,1.01,7.05,2.82l8.53,8.19c2.01,1.88,3.16,4.57,3.16,7.39v24.11c0,5.64,4.57,10.21,10.21,10.21h28.68
		c5.64,0,10.21-4.57,10.21-10.21v-45.14c0-2.75-1.14-5.44-3.16-7.39l-37.95-36.27c-1.88-1.81-4.43-2.82-7.05-2.82h-78.39
		C600.76,555.88,598.21,556.89,596.33,558.7L596.33,558.7z"/>
	<path d="M284.09,240.86h7.89c1.98,0,3.59-1.61,3.59-3.59v-79.4c0-1.98-1.61-3.59-3.59-3.59h-7.89c-1.98,0-3.59,1.61-3.59,3.59v79.4
		C280.51,239.25,282.12,240.86,284.09,240.86L284.09,240.86z M380.13,183.76H361c-1.98,0-3.59-1.61-3.59-3.59v-22.3
		c0-1.98-1.61-3.59-3.59-3.59h-7.89c-1.98,0-3.59,1.61-3.59,3.59v79.4c0,1.98,1.61,3.59,3.59,3.59h7.89c1.98,0,3.59-1.61,3.59-3.59
		V202.4c0-1.98,1.61-3.57,3.59-3.57h19.13c1.98,0,3.57,1.59,3.57,3.57v34.88c0,1.98,1.61,3.59,3.59,3.59h7.9
		c1.98,0,3.59-1.61,3.59-3.59v-79.4c0-1.98-1.61-3.59-3.59-3.59h-7.9c-1.98,0-3.59,1.61-3.59,3.59v22.3
		C383.69,182.16,382.11,183.76,380.13,183.76L380.13,183.76z M426.88,156.62l-20.98,80.35c-0.51,1.98,0.97,3.9,3.01,3.9h9.13
		c1.42,0,2.66-0.95,3.01-2.33l4.45-16.98c0.35-1.38,1.59-2.33,3.01-2.33h18.3c1.42,0,2.66,0.95,3.01,2.33l4.43,16.98
		c0.37,1.38,1.61,2.33,3.01,2.33h9.15c2.02,0,3.53-1.92,3.01-3.9l-21-80.35c-0.35-1.38-1.59-2.33-2.99-2.33h-15.54
		C428.48,154.29,427.25,155.24,426.88,156.62L426.88,156.62z M431.06,200.25l3.59-13.77c0.82-3.09,5.21-3.09,6.02,0l3.61,13.77
		c0.51,1.98-0.99,3.9-3.01,3.9h-7.21C432.02,204.15,430.55,202.21,431.06,200.25L431.06,200.25z M479.42,155.73
		c-0.23-0.87-0.99-1.46-1.88-1.46h-11.56c-1.26,0-2.19,1.21-1.88,2.43l21.6,82.7c0.23,0.84,0.99,1.44,1.88,1.44h17.33
		c0.89,0,1.65-0.6,1.88-1.44l21.6-82.7c0.33-1.22-0.6-2.43-1.88-2.43h-11.54c-0.89,0-1.67,0.6-1.9,1.46l-14.94,57.24
		c-0.51,1.94-3.26,1.92-3.77,0L479.42,155.73L479.42,155.73z M580.3,240.86c1.75,0,3.19-1.42,3.19-3.17v-8.7
		c0-1.77-1.44-3.19-3.19-3.19h-26.65c-1.75,0-3.17-1.42-3.17-3.17v-20.61c0-1.75,1.42-3.17,3.17-3.17h20.88c1.77,0,3.2-1.44,3.2-3.2
		v-8.7c0-1.75-1.42-3.17-3.2-3.17h-20.88c-1.75,0-3.17-1.42-3.17-3.2v-8.04c0-1.75,1.42-3.17,3.17-3.17h26.65
		c1.75,0,3.19-1.44,3.19-3.2v-8.7c0-1.75-1.44-3.17-3.19-3.17h-41.72c-1.75,0-3.18,1.42-3.18,3.17v80.22c0,1.75,1.42,3.17,3.18,3.17
		H580.3L580.3,240.86z"/>
	<path d="M136.53,277.87v151.31c0,3.99,3.24,7.22,7.22,7.22h14.37c4.03,0,7.26-3.24,7.26-7.22v-48c0-3.99,3.24-7.22,7.22-7.22h44.77
		c1.93,0,3.83-0.79,5.17-2.17l16.74-17.05c1.3-1.34,2.05-3.16,2.05-5.09v-51.16c0-1.93-0.79-3.83-2.17-5.17l-21.32-20.65
		c-1.34-1.3-3.16-2.05-5.05-2.05h-69.04C139.74,270.61,136.53,273.87,136.53,277.87L136.53,277.87z M210.31,305.5
		c1.42,1.38,2.21,3.24,2.21,5.21v27.16c0,1.9-0.75,3.71-2.09,5.05c-1.34,1.38-3.2,2.17-5.17,2.17h-32.65
		c-4.03,0-7.26-3.24-7.26-7.22v-31.18c0-3.99,3.24-7.22,7.26-7.22h28.5c1.9,0,3.71,0.71,5.05,2.05L210.31,305.5L210.31,305.5z
		 M279.59,270.61h-14.72c-3.91,0-7.07,3.16-7.07,7.07v151.66c0,3.91,3.16,7.07,7.07,7.07h77.92c3.91,0,7.07-3.16,7.07-7.07v-14.72
		c0-3.91-3.16-7.06-7.07-7.06h-49.07c-3.91,0-7.07-3.16-7.07-7.07V277.67C286.65,273.77,283.49,270.61,279.59,270.61L279.59,270.61z
		 M391.74,275.07l-40.19,153.87c-0.99,3.79,1.85,7.46,5.76,7.46h17.49c2.72,0,5.09-1.82,5.76-4.46l8.53-32.53
		c0.67-2.64,3.04-4.46,5.76-4.46h35.05c2.72,0,5.09,1.82,5.76,4.46l8.49,32.53c0.71,2.65,3.08,4.46,5.76,4.46h17.53
		c3.87,0,6.75-3.67,5.76-7.46l-40.22-153.87c-0.67-2.65-3.04-4.46-5.72-4.46H397.5C394.81,270.61,392.44,272.42,391.74,275.07
		L391.74,275.07z M399.75,358.64l6.87-26.37c1.58-5.92,9.99-5.92,11.53,0l6.91,26.37c0.99,3.79-1.9,7.46-5.76,7.46h-13.82
		C401.59,366.1,398.78,362.38,399.75,358.64L399.75,358.64z M563.53,357.3l-43.42-83.53c-1.03-1.93-3.04-3.16-5.25-3.16h-21.91
		c-3.24,0-5.88,2.61-5.88,5.84v154.03c0,3.24,2.65,5.88,5.88,5.88H510c3.24,0,5.88-2.64,5.88-5.88v-78.12
		c0-6.16,8.25-8.17,11.09-2.72l43.46,83.61c1.03,1.93,3.04,3.16,5.21,3.16h21.91c3.28,0,5.88-2.61,5.88-5.84V276.49
		c0-3.24-2.61-5.88-5.88-5.88H580.5c-3.24,0-5.88,2.65-5.88,5.88v78.12C574.62,360.77,566.37,362.78,563.53,357.3L563.53,357.3z
		 M649.43,271.71l-23.53,21.12c-0.95,0.83-1.46,2.01-1.46,3.24v51.55c0,1.82,1.19,3.47,2.92,4.11l68.37,24
		c1.78,0.63,2.92,2.25,2.92,4.1v18.24c0,1.22-0.51,2.41-1.46,3.24l-5.76,5.17c-0.79,0.71-1.82,1.11-2.88,1.11h-25.19
		c-1.07,0-2.09-0.39-2.88-1.11l-5.76-5.17c-0.91-0.83-1.46-2.01-1.46-3.24v-14.69c0-2.41-1.93-4.34-4.34-4.34h-20.13
		c-2.41,0-4.34,1.93-4.34,4.34v27.55c0,1.22,0.51,2.41,1.46,3.24l23.53,21.12c0.83,0.71,1.86,1.11,2.92,1.11h47.21
		c1.1,0,2.13-0.39,2.92-1.11l23.57-21.12c0.91-0.83,1.42-2.01,1.42-3.24v-51.55c0-1.82-1.14-3.47-2.88-4.11l-68.41-24
		c-1.74-0.63-2.92-2.29-2.92-4.1v-18.24c0-1.22,0.51-2.41,1.46-3.24l5.76-5.17c0.79-0.71,1.82-1.11,2.88-1.11h25.19
		c1.07,0,2.09,0.39,2.88,1.11l5.76,5.17c0.95,0.83,1.46,2.01,1.46,3.24v14.68c0,2.41,1.93,4.34,4.34,4.34h20.13
		c2.41,0,4.34-1.93,4.34-4.34v-27.55c0-1.22-0.51-2.41-1.46-3.24l-23.53-21.12c-0.79-0.71-1.85-1.11-2.92-1.11h-47.21
		C651.28,270.61,650.26,271,649.43,271.71L649.43,271.71z"/>
</g>
</svg>
