<?xml version="1.0" encoding="utf-8"?>
<!-- Generator: Adobe Illustrator 24.3.0, SVG Export Plug-In . SVG Version: 6.00 Build 0)  -->
<svg version="1.1" id="Layer_1" xmlns="http://www.w3.org/2000/svg" xmlns:xlink="http://www.w3.org/1999/xlink" x="0px" y="0px"
	 viewBox="0 0 864 864" style="enable-background:new 0 0 864 864;" xml:space="preserve">
<style type="text/css">
	.st0{fill-rule:evenodd;clip-rule:evenodd;}
</style>
<g>
	<path d="M161.88,410.3l-1.16,0.28c-7.93,0.34-11.82-1.34-13.35-8.79c-0.73-3.66-1.04-9.16-1.04-16.67
		c0.03-21.21,0.29-33.37-0.1-56.42c-0.16-7.79,1.73-11.96,7.19-16.49c2.58-2.32,8.55,2.15,8.55-2.93c0-2.26-0.4-2.12,0-4.95
		c0.49-3.42,0.77-6-2.19-7.51c-8.61-4.39-16.96,6.04-25.54-1.1c-0.34,1.21-0.82-0.28-6.99,2.38c-10.53,4.55-10.36-0.92-14.91-0.92
		c-2.13,0-4.04,2.01-4.27,3.85c-0.49,3.83,0.37,6.57-1.77,9.16c-2.15,2.61,2.95,3.08,4.07,2.75c0.52-0.18,1.36-0.18,2.4-0.18
		c6.99,0,10.22,7.33,9.91,21.98c-0.1,2.02-0.1,4.95-0.1,8.79c-0.1,9.71-0.31,16.85-0.63,21.8c-0.36,7.6,1.15,19.77,0.52,26.75
		c-0.73,11.17-3.86,16.85-9.18,16.85c-2.82,0-1.37-0.37-3.23-0.37c-3.52,0-3.44,2.22-3.44,4.76c0,0.92,0.21,3.3,0.52,7.33
		c0.28,3.72,2.35,1.47,3.34,2.01c0.63,0.18,1.56,0.37,2.71,0.37c4.83,0,8.52-3.03,13.35-0.37c2.92,1.65,5.63,2.38,8.03,2.38
		c8.02,0,9.5-6.39,15.74-2.38c2.29,1.28,4.07,2.02,5.21,2.02c5.35,0,5.86-9.55,6.78-12.09C162.76,411.31,163.27,411.11,161.88,410.3
		L161.88,410.3z M299.08,360.02c-3.58,1.26-8.52,3.3-11.47,3.3c-3.72,0-9.03-3.76-11.99-1.47c-3.11,2.41-7.27,2.17-10.74,0.73
		c-2.22-0.92-7.55-3.3-8.34-3.3c-0.73,0-1.25,0.55-1.46,1.65c-0.73,5.31-1.04,10.08-0.94,14.29c0.02,1.36,3.27,1.28,4.07,1.28
		c6.25,0,9.38,7.5,9.38,13.74c0,5.82-1.87,10.46-5.11,15.2c-4.56,6.67-10.6,5.41-17.31,5.31c-4.27,0-8.03-2.56-11.36-7.51
		c-8.59-12.54-8.08-28.84-7.72-44.7c0.31-13.52,3.19-29.12,11.99-37.55c6.59-6.32,14.84-6.28,22.42-1.65
		c6,3.66,6.33,15.03,5.11,21.98c3.65-0.18,6.26-0.37,8.03-0.37c5.32,0,10.22,0.55,14.91,1.83c1.63,0.69,3.55-0.02,3.02-3.66
		c-1.65-11.44-1.19-17.3,0-30.96c0.93-10.74,0.97-11.35-5.42-7.69c-3.7,2.12-4.35-1.1-10.43-1.1c-5.49,0-10.92,2.89-13.35,1.28
		c-4.17-3.11-8.65-4.58-13.55-4.58c-8.76,0-21.11,5.78-28.15,11.17c-4.07,3.11-7.4,7.69-10.11,13.74
		c-9.94,22.11-12.29,44.77-6.05,67.41c4.22,15.32,12.07,29.7,25.54,36.27c8.06,3.93,16.5,3.18,26.69,1.83
		c7.12-0.94,12.35-2.09,17.72-5.86c1.56-1.1,7.34-7.13,9.7-8.61c5.49-3.45,8.88,0.81,7.09-8.61c-1.86-9.83-0.97-25.59,10.32-28.03
		c4.12-0.89,5.21-6.62,5.21-10.63c0-5.12-1.62-6.92-5.11-6.05C300.08,359.14,300.12,359.21,299.08,360.02L299.08,360.02z
		 M343.81,299.93c-10.39,2.72-20.67,13.84-24.71,24c-8.79,22.08-9.24,53.79-0.31,75.84c7.21,17.81,17.34,25.24,34.82,26.56
		c3.23,0.18,5.63,0.37,7.3,0.37c17.02,0,27.84-9.11,35.66-23.08c3.13-5.5,5.11-11.72,6.26-18.69c2.45-15.15,3.47-30.39,0.31-43.42
		c-3.04-12.48-6.5-25.62-15.01-33.16c-8.24-7.14-15.74-10.62-22.52-10.62C357.88,297.13,351.54,297.91,343.81,299.93L343.81,299.93z
		 M377.94,341.8c1.95,17.11,3.21,41.17-5.88,55.77c-6.61,10.62-15.93,11.49-24.5,3.48c-4.92-4.51-5.61-15.95-6.57-22.72
		c-0.78-5.51-1.44-11.15-0.94-16.49c1.4-15.06,1.35-34.88,13.45-44.33c6.77-5.29,13.53-2.66,18.45,4.76
		C375.76,327.92,377.38,335.11,377.94,341.8L377.94,341.8z M516.26,299.02c-8.25,0-14.24,1.04-22.21-0.55
		c-4.57-0.91-7.99-1.22-11.36,0.55c-4.55,2.39-8.61,5.78-12.72,1.83c-3.8-3.65-10.26,1.83-14.6,1.83c-2.61,0-8.36-3.48-12.93-3.48
		c-5.72,0-6.44,3.85-9.07,3.85c-2.64,0-2.38-2.38-7.19-2.38c-2.82,0-7.64,1.47-10.53,0.18c-1.08-0.48-2.71-0.18-3.55,1.28
		c-1.02,1.79-0.94,4.82-0.63,6.78c1.29,8.05-0.31,15.12-0.1,22.35c0.18,6.2-1.7,14.62,5,11.91c4.5-1.82,10.56-1.68,14.91,0.18
		c4.24,1.82,4-1.67,4.17-5.86v-5.86c0-4.22,1.28-10.09,4.07-11.72c2.78-1.63,5.66-0.79,7.61-1.28c3.44-0.55,5.63,2.01,6.57,7.69
		c0.93,5.95,1.81,14.19,1.36,17.59c-1.23,11.7-0.87,33.23-0.83,46.9c0,6.23-1.46,10.99-4.27,14.47c-2.96,3.67-9.34-1.44-10.32,3.3
		c-0.6,2.98-0.66,9.83,0.31,12.82c0.75,2.31,3.26,1.68,5.63,1.28l7.61-0.55c8.74-0.31,13.32,6.04,15.53,4.03
		c3.89-3.64,7.01-4.07,11.89-2.93c9.04,2.12,14.49,5.91,14.49-7.33c0-4.1-0.1-8.24-3.75-8.24c-2.71,0-8.55,3.3-10.43-7.14
		c-0.94-5.31-1.46-10.08-1.56-14.66c-0.17-10.88-0.59-56.1,0.63-62.83c0.64-3.56,2.42-3.8,5.63-5.68c3.6-2.11,6.43-1.73,9.07,1.83
		c3.84,5.19,0.63,14.16,0.63,19.05c0,3.66,1.36,5.5,3.96,5.5c6.07-0.15,9.36-0.92,15.54,0.37c3.71,0.66,4.21-4.22,4.28-7.69
		c0-4.58,0-7.88-0.1-10.08c-0.22-7.54-0.08-17.82,0.42-24.36c0.19-2.44-0.18-3.66-2.5-3.66L516.26,299.02L516.26,299.02z
		 M630.22,299.02c-8.25,0-14.24,1.04-22.21-0.55c-4.57-0.91-7.99-1.22-11.36,0.55c-4.55,2.39-8.61,5.78-12.72,1.83
		c-3.8-3.65-10.26,1.83-14.6,1.83c-2.61,0-8.36-3.48-12.93-3.48c-5.72,0-6.44,3.85-9.07,3.85c-2.64,0-2.38-2.38-7.19-2.38
		c-2.82,0-7.64,1.47-10.53,0.18c-1.08-0.48-2.71-0.18-3.54,1.28c-1.02,1.79-0.94,4.82-0.63,6.78c1.29,8.05-0.31,15.12-0.1,22.35
		c0.18,6.2-1.7,14.62,5,11.91c4.5-1.82,10.56-1.68,14.91,0.18c4.24,1.82,4-1.67,4.17-5.86v-5.86c0-4.22,1.28-10.09,4.07-11.72
		c2.78-1.63,5.66-0.79,7.61-1.28c3.44-0.55,5.63,2.01,6.57,7.69c0.93,5.95,1.81,14.2,1.35,17.59c-1.23,11.68-0.87,33.24-0.83,46.9
		c0,6.23-1.46,10.99-4.27,14.47c-2.96,3.67-9.34-1.44-10.32,3.3c-0.6,2.98-0.66,9.83,0.31,12.82c0.75,2.31,3.26,1.68,5.63,1.28
		l7.61-0.55c8.74-0.31,13.31,6.04,15.54,4.03c3.89-3.64,7-4.07,11.89-2.93c9.04,2.12,14.49,5.91,14.49-7.33
		c0-4.1-0.1-8.24-3.75-8.24c-2.71,0-8.55,3.3-10.43-7.14c-0.94-5.31-1.46-10.08-1.56-14.66c-0.17-10.88-0.59-56.1,0.63-62.83
		c0.65-3.56,2.42-3.8,5.63-5.68c3.6-2.11,6.43-1.73,9.07,1.83c3.84,5.18,0.62,14.16,0.62,19.05c0,3.66,1.36,5.5,3.96,5.5
		c6.07-0.15,9.36-0.92,15.53,0.37c3.71,0.66,4.21-4.22,4.28-7.69c0-4.58,0-7.88-0.1-10.08c-0.22-7.54-0.08-17.82,0.42-24.36
		c0.19-2.44-0.18-3.66-2.5-3.66L630.22,299.02L630.22,299.02z M759.19,424.87c-1.32-4.64,0.6-9.22-0.51-11.86
		c-0.96-2.27,0.09-0.04-3.45-0.04c-3.02,0-6.26-1.28-9.49-3.85c-2.29-1.83-4.07-4.21-5.32-7.33c-2.25-5.37-3.51-10.16-5.42-16.49
		c-2.61-8.43-6.36-21.25-11.26-38.65c-2.08-7.88-3.65-13.56-4.8-17.4c-1.25-4.28-0.22-10.99,3.86-10.99c5.06,0,5.02-6.42,5.11-10.81
		c0.09-4.63-0.78-8.79-5.11-9.53c-5.11-0.87-10.16,4.8-15.33,1.65c-9.99-6.08-17.83,1.28-19.91,1.28c-2.61,0-3.13-4.95-9.07-4.95
		c-1.77,0-3.34,0.73-4.69,2.2c-2.34,2.69-4.03,13.5,1.98,15.57c3.64,1.26,4.69,4.77,4.69,8.43c0,3.97-1.35,7.25-2.5,11.17
		c-1.36,4.58-2.4,8.06-3.34,10.81c-1.45,4.24-2.91,9.17-4.27,13.01c-2.79,8.84-6.21,20.86-9.8,28.94c-1.88,4.4-3.23,8.24-4.17,11.54
		c-1.54,5.22-5.71,10.99-11.57,7.88c-6.46-3.61-4.97,6.45-5.21,8.61c-0.8,7.01,1.5,9.61,8.65,6.6c6.77-2.85,5.59-0.05,12.72,0.55
		l11.47,1.28c5.13,0.88,7.18,5.52,9.8,0.92c2.12-3.73,0.39-9.28,2.09-14.66h-5.84c-5.05,0-6.99-4.27-6.99-8.98
		c0-2.41,1.74-12.67,2.92-15.57c0.52-1.28,1.46-1.83,2.81-1.65c6.34,0.77,15.92,0.24,22.94,0.73c3.03,0.21,8.26,0.66,10.43,2.56
		c2.51,2.2,3.23,12.43,3.23,14.11c0,6.25-2.95,8.61-9.28,8.61c-5.59,0-5.02,10.59-3.86,12.82c1.24,2.39,2.65,1.89,5.21,3.11
		c1.15,0.55,2.09,0.73,3.02,0.55c6.88-1.1,12.08-5.22,18.98-2.2c1.89,0.83,6.55,4.75,10.11,2.01c2.7-2.07,6.22-0.93,9.38,0.92
		c4.14,2.43,7.89,0.43,10.32,1.28c0.52,0.18,1.15,0,1.67-0.55C760.07,425.81,759.42,425.68,759.19,424.87L759.19,424.87z
		 M700.6,363.32c-7.5-3.04-17.93,3.42-17.93-3.66c0-1.1,0.31-2.38,0.94-4.03c3.47-8.84,5.6-17.35,8.24-27.84
		c0.95-3.77,1.96-3.91,3.02-0.37c3.17,10.83,6.17,23.06,9.28,30.96C706.38,364.07,702.53,362.47,700.6,363.32L700.6,363.32z"/>
	<path d="M257.16,579.33c-17.81-7.36-34.9-11.16-51.29-11.16c-13.77,0-27.31,2.61-40.6,7.6c-8.31,2.94-10.47-4.04-23.98-4.04
		c-12.09,0-12.4,6.47-23.74,3.56c-9.97-2.61-18.76-3.56-26.12-3.09c-4.04,0.24-6.89,1.42-8.55,4.04c-1.66,2.61-2.37,5.94-2.37,10.21
		c0,6.62,2.22,8.68,8.07,7.12c0.71-0.24,1.37-0.36,2.02-0.42c0.65-0.06,1.31-0.06,2.02-0.06c5.7,0,9.97,1.19,12.82,3.8
		c6.58,6.03,8.35,17.56,8.79,28.49c0.55,13.8,0.23,25.06-0.95,38.94c-1.19,13.06-1.66,22.79-1.42,29.44
		c0.52,15.85-5.04,21.84-20.89,21.84c-6.62,0-9.73,2.56-9.73,9.02c0,8.24,5.06,13.3,13.3,13.3c3.75,0,10.51-1.78,15.43-4.51
		c2.98-1.66,7.5-2.43,10.45-0.71c5.46,3.09,11.16,4.75,17.1,4.75c6.17,0,12.35-1.9,18.52-5.7c3.18-1.77,5.47-1.27,9.5-0.24
		c9.87,2.52,22.78,5.61,31.82,4.99c14.96-1.19,28.73-3.32,40.84-6.41c20.89-5.46,37.04-14.48,48.44-27.07
		c11.4-12.58,17.33-29.92,17.57-51.76c0.24-1.19,0.48-3.32,0.48-5.94c0-4.99-1.19-11.87-3.8-20.42
		C289.67,593.48,263.81,582.18,257.16,579.33L257.16,579.33z M235.31,700.66c-8.31,8.79-19.94,13.53-34.43,14.72
		c-10.68,0-18.52-1.19-23.98-3.32c-11.8-4.62-14.25-14.34-14.25-26.83c0.68-11.95,2.58-27.16,1.9-38.7
		c-0.8-13.67,2.61-25.23,2.61-36.33c0-10.72,18.4-17.56,27.54-18.04c17.1-0.47,30.15,3.32,39.41,11.16
		c9.26,7.84,15.2,20.42,18.28,37.75c0.71,4.99,1.19,9.5,1.19,13.53C253.59,683.31,246.64,686.73,235.31,700.66L235.31,700.66z
		 M389.88,572.45c-17.2,2.56-32.54,10.08-46.06,20.42c-4.04,3.09-7.36,6.65-10.21,10.68c-10.21,14.72-15.43,31.34-15.43,49.62
		c0,18.32,4.33,34.07,14.72,48.67c13.72,19.28,32.35,28.39,55.08,32.05c11.47,1.85,29.74,2.85,40.84,2.85
		c22.79,0,41.79-4.04,56.75-11.87c9.26-4.99,17.57-10.92,24.46-18.04c7.12-7.12,11.63-15.2,14.25-24.22
		c5.6-19.75,7.88-39.44,0.71-56.27c-4.51-10.45-9.02-19.23-14.01-26.12c-4.99-6.89-11.87-12.58-20.18-16.86
		c-18.76-9.26-35.85-13.77-51.29-13.77C422.66,568.89,406.82,569.93,389.88,572.45L389.88,572.45z M468.71,637.98
		c3.9,21.04,1.79,46.14-14.48,61.02c-8.31,7.6-18.28,11.4-29.68,11.4c-9.26,0-17.81-2.37-26.12-6.89c-3.8-1.9-6.89-5.22-9.02-9.73
		c-4.46-8.92-3.85-11.36-5.94-19.71c-1.82-6.69-3.26-14.52-2.14-21.37c1.42-11.16,2.85-19.71,4.27-25.64
		c1.42-5.94,4.27-11.87,8.31-17.81c7.02-10.03,21.44-17.57,34.43-17.57c9.73,0,18.28,3.32,25.64,9.73
		C467.58,612.88,465.89,622.77,468.71,637.98L468.71,637.98z M767.4,650.33c-8.29,1.66-19.44,4.27-26.12,4.27
		c-8.65,0-20.56-4.89-27.31-1.9c-7.59,3.16-16.54,2.81-24.46,0.95c-4.04-0.95-6.41-1.42-7.12-1.66c-3.09-0.93-10.62-2.61-11.87-2.61
		c-1.66,0-2.85,0.71-3.32,2.14c-1.66,6.89-2.37,13.06-2.14,18.52c0.04,1.84,8.17,1.66,9.26,1.66c5.94,0,11.16,1.66,15.2,5.22
		c4.27,3.56,6.17,7.6,6.17,12.58c0,4.04-0.95,7.36-3.09,10.45c-4.74,6.85-11.64,12.95-20.18,14.96c-8.83,2.08-18.46,1.27-27.78,1.19
		c-9.73,0-18.28-3.32-25.88-9.73c-13.74-11.42-18.04-26.37-18.04-44.4c0-3.09,0.24-7.6,0.47-13.53c0.48-11.63,3.09-21.61,8.07-29.92
		c15.06-25.11,43.78-30.11,70.28-20.89c11.72,4.08,15.26,16.7,11.63,28.49c8.31-0.24,14.25-0.47,18.28-0.47
		c12.11,0,23.27,0.71,33.95,2.37c3.11,0.75,8.18,0.38,6.89-4.75c-3.7-13.59-2.62-23.52,0-40.13c0.8-5.21,1.35-9.84,0.47-11.63
		c-1.08-2.21-7.86,0.05-12.82,1.66c-3.31,1.08-5.8,1.2-9.26,0.47c-4.27-1.19-9.02-1.9-14.48-1.9c-4.51,0-11.4,0.71-20.89,1.9
		c-3.53,0.42-6.55,0.88-9.5-0.24c-9.5-4.04-19.71-5.94-30.87-5.94c-18.97,0-46.89,6.98-64.11,14.48
		c-9.26,4.04-16.86,9.97-23.03,17.81c-22.05,27.91-28.33,57.32-13.77,87.38c11.76,24.27,32.24,39.82,58.17,47.01
		c18.5,5.13,37.93,4.09,60.78,2.37c15.34-1.15,27.74-2.55,40.36-7.6c1.19-0.47,4.75-2.37,10.68-5.46c4.27-2.61,8.07-4.51,11.4-5.7
		c10.64-3.8,17.1-0.54,17.1-5.94c0-4.81-2.61-7.04-2.61-16.15c0-15.23,10.32-23.58,25.17-25.41c7.62-0.94,11.87-6.44,11.87-13.77
		c0-7.81-5.39-8.73-11.63-7.84C769.89,649.16,769.98,649.18,767.4,650.33L767.4,650.33z"/>
	<path class="st0" d="M80.03,203.83c2.03-1.93,4.65-4.3,6.97-6.81l2.21,46.32c0.46,17.01-0.9,28.02-9.01,30.81
		c-7.67,2.64-11.41-4.65-11.29-14.26c-0.1-3.15,0.25-4.26-4.57-2.59c-5.48,1.89-6.93,4.1-7.04,7.33
		c-0.07,15.47,11.55,25.7,23.83,22.21c16.31-4.63,22.9-20.39,22.78-47.82l16.88-5.81l0.27,5.06c1.11,23.89,10.95,32.53,23.01,28.37
		c5.33-1.84,9.06-5.41,11.59-10.25c4.06,4.7,9.53,6.28,15.33,4.74c10.53-2.79,17.06-10.76,20.26-23.12c0.73,0.05,1.4-0.13,2.08-0.31
		c5.86-1.55,10.68-4.83,14.18-9.79c3.78,11.69,11.32,18.85,23.43,16.54c9.5-1.81,16.88-6.67,22.2-14.66
		c3.15,6.12,8.78,8.49,15.88,7.39c6.65-1.03,11.65-5.09,15.22-10.81c3.14,5.14,8.38,7.15,15.03,6.12
		c17.41-2.7,22.2-24.8,24.58-50.28c0.4-4.99-0.2-5.84-4.55-5.16c-4.58,0.71-5.08,0.55-5.95,7.02c-2.28,20.07-5,34.33-12.1,35.43
		c-4.58,0.71-6.53-5.79-4.17-22.35l8.88-63.8c1.28-8.84,0.82-7.87-8.74-6.39c-5.5,0.85-6.08,1.65-6.97,9.53
		c-0.53,2.66-1.4,9.13-2.29,17.02l-1.82-1.13c-14.69-5.46-27.74,5.71-31.94,33.11l-2.8,18.27c-0.3,1.86-0.54,3.63-0.71,5.33
		c-3.41,14.81-9.82,20.7-18.46,22.35c-5.01,0.96-9.26-1.54-11.33-9.88c16.94-17.63,24.79-42.03,24.35-64.14
		c-0.33-14.1-5.11-24.28-13.99-22.59c-22.55,4.3-25.14,45.17-26.38,62.16c-0.24,2.96-0.89,4.9-0.99,8.14
		c-0.32,13.28-4.38,20.59-9.98,22.08l-0.9,0.24c0.8-5.87,0.85-16.13,0.83-21.33c-0.29-24.63-7.31-35.73-20.98-32.1
		c-13.45,3.56-23.08,18.83-23.85,43.98c0.09,2.14-0.17,12.04-0.17,12.04c-0.12,4.51,0.17,8.54,0.79,12.08
		c-0.81,6.18-2.6,10.23-5.91,11.37c-4.39,1.51-7.45-4.55-8.06-21.26c-0.64-20.38-2.09-55.93-2.59-69.49
		c-0.42-8.99-0.83-7.81-9.73-4.74c-5.26,1.81-5.62,2.91-5.18,10.61c1.02,21.48,1.46,37.02,1.97,51.31l-16.88,5.81l-2.2-51.97
		c-0.31-8.73-0.66-7.87-8.63-5.12c-3.03,1.04-3.45,2.45-3.99,4.81c-0.92,3.75-4.78,13.17-15.4,22.22
		c-14.47,12.1-25.38,21.74-26.04,36.19c-0.34,10.42,6.18,17.25,12.95,19.82c8.39,3,18.1-0.84,22.31-5.72
		c2.68-2.89,3.4-4.36,0.42-9.46c-2.68-4.23-3.11-3.34-5.14-0.68c-3.48,4.14-8.52,5.88-11.91,4.59c-3.61-1.21-6.14-5.73-5.91-11.46
		C60.18,220.97,66.73,215.77,80.03,203.83L80.03,203.83z M674.93,180.85c-2.39,3.88-6.81,11.27-11.56,19.16
		c-1.12,1.62-4.05,6.37-5.05,8.36c-1.93,3.18-3.82,6.27-5.56,9.07c-2.01,3.17-3.62,6.15-4.86,8.95c-3.99,5.46-7.74,8.39-11.35,7.7
		c-4.78-0.91-3.16-8.16,5.47-24.92c8.94-17.18,17.29-29.99,16.33-36.07c-1.15-6.36-5.43-7.41-16.59-9.54
		c-5.69-1.09-6.15-1.17-1.76-9.31c2.51-4.48,0.79-7.87-4.67-8.92c-5.92-1.13-14.52,4.31-17.31,12.75
		c-2.08,5.98-0.96,9.97,2.57,12.53l-9.91,19.91c-0.57,0.81-1.41,2.29-2.3,4.12c-8.26,18.43-15.17,31.2-22.27,30.1
		c-4.58-0.71-4.47-7.5,2.8-22.56l27.79-58.11c4-8.25,2.82-7.31-6.39-8.73c-5.5-0.85-6.29-0.27-9.53,6.97
		c-1.31,2.38-4.1,8.28-7.34,15.52l-1.39-1.62c-12.35-9.66-28.17-2.96-40.47,21.88c-1.01,1.96-8.2,16.56-8.2,16.56
		c-11.49,22.62-6.85,35.07,6.67,37.17c6.65,1.03,12.64-1.32,17.78-5.69c1.44,5.85,5.82,9.35,12.47,10.38
		c16.37,2.54,27.29-14.63,36.84-36.26c0.32-0.46,0.62-0.97,0.93-1.55l11.7-24.21c4.16,0.79,11.44,1.76,11.5,4.08
		c0.13,5.38-41.83,61.18-10.91,67.09c5.38,1.03,10.23-0.07,14.68-2.75c1.74,8.78,10.94,12.51,18.84,11.43
		c0.62,1.2,6.3,2.61,8.31,3.22c5.81,1.77,6.05,1.05,10.41-5.56l3.24-5.07c14.96-22.11,35.57-46.87,43.78-44.38
		c5.77,1.75-2.78,8.36-17.28,31.34c-12.89,20.08-11.53,32.36,1.78,36.41c1.82,0.55,3.62,0.84,5.38,0.88
		c-0.47,1.46,0.79,2.04,4.07,3.31c8.53,3.3,8.75,4.31,13.12-1.14l6.11-8.08c3.35-4.17,6.92-8.26,10.62-12.05
		c-1.83,20.17,1.94,33.57,12.54,37.66c16.87,6.52,33.36-8.49,48.56-30.45c3.05-4.04,2.96-5.07-1.15-6.66
		c-4.54-1.76-4.67-2.06-8.66,3.12c-12.63,17.24-23.42,26.5-30.55,23.74c-4.11-1.59-6.06-10.05-6.01-20.47
		c41.94-3.68,50.69-36.59,37.81-43.81c-6.59-3.54-15.79-2.87-28.16,4.03l17.27-22.16c5.51-7,4.91-6.31-4.38-9.9
		c-4.97-1.92-5.87-1.52-10.8,4.78c-5.45,7.04-16.45,21.17-27.32,35.15c-1.83,1.86-7.4,9.16-9.03,11.61l-11.81,15.16
		c-3.78,3.66-7.18,5.39-10.19,4.47c-4.22-1.28-3.84-6.5,5.32-20.68c17.53-27.39,21.96-34.77,20.62-40.75
		c-1.33-5.98-9.75-13.38-27.91-1.45c7.31-11.13,7.83-9.74-2.84-12.98c-5.1-1.55-6.04-0.87-10.41,5.56
		c-3.67,5.57-8.89,13.44-14.34,21.61c-1.44,1.83-4.83,7.12-6.13,9.19c-3.39,5.09-6.68,10-9.52,14.26c-4.9,6.22-9.28,9.55-13.19,8.51
		c-4.48-1.19-3.66-7.93,5.15-22.14l22.33-36.3c4.68-7.52,4.78-6.65-5.44-9.36C679.54,173.43,679.25,173.59,674.93,180.85
		L674.93,180.85z M578.12,189.94c-7.92,17.78-15.62,31.13-22.5,30.07c-4.58-0.71-4.24-7.46,3.03-22.53l10.09-21.2
		c4.03-7.82,8.92-13.63,14.65-12.75c4.81,0.75,3.55,7.36-0.13,15.94C581.63,182.88,579.55,186.54,578.12,189.94L578.12,189.94z
		 M795.79,225.83c5.49,5.1-7.54,21.45-34.88,22.07c-1.25,0.01-2.06,0.2-2.5,0.03C774.2,232.15,790.22,220.94,795.79,225.83
		L795.79,225.83z M708.94,158.43c1.43-5.38-1.87-11.05-7.25-12.48c-5.6-1.49-11.27,1.81-12.7,7.19c-1.48,5.6,1.81,11.27,7.41,12.76
		C701.78,167.33,707.45,164.03,708.94,158.43L708.94,158.43z M456.85,150.59c-1.61,4.47-4.58,13.13-7.74,22.24
		c-3.01,7.17-8.09,22.15-9.32,28.37c-2.83,6.34-5.94,10.1-9.68,10.16c-4.17,0.07-5.42-5.01-1.06-21.32
		c8.28-31.45,10.22-39.83,7.12-45.11c-3.58-5.74-15.49-10.64-30.19,11.18c0.82-6.51,0.31-8.82-0.41-10.66
		c-2.39-4.37-13.16-10.44-27.24,7.19c3.51-12.74,4.55-11.67-6.69-11.48c-5.33,0.09-6.01,1.03-8.2,8.49
		c-5.68,20.51-19.25,68.05-19.25,68.05c-2.49,8.58-2.94,7.7,7.78,7.52c6.01-0.1,6.12-0.84,8.2-8.49l1.52-6.06
		c7.45-25.64,20.17-55.31,28.28-55.44c5.33-0.09,0.15,8.58-7.3,34.68c-4.15,14.91-5.7,19.58-7.65,27.26
		c-2.33,8.64-3.23,7.71,7.78,7.52c5.75-0.1,6.06-0.64,8-7.81l3.7-13.26c7.48-23.78,18.42-48.78,26.07-48.91
		c5.8-0.1-0.08,8.81-7.06,35.14c-5.87,23.06-1.04,34.34,12.87,34.11c5.69-0.1,10.35-2.32,14.24-6.11
		c3.85,8.51,14.87,9.85,21.99,6.17c-1.58,3.79-1.86,5.4-2.42,6.38c-13.44-0.45-22.09,0.73-27.57,7.88
		c-7.75,10.75-2.29,22.17,9.28,22.76c13.43,0.69,23.8-6.91,30.83-21.64c17.49-1.43,31.08-13.04,43.97-56.26
		c1.41-4.8,1.22-5.74-3.41-5.98c-4.63-0.24-4.85-0.48-7.02,5.68c-10.4,30.81-18.48,43.64-29.8,47
		c4.83-12.76,27.65-77.53,27.65-77.53c3.09-8.55,3.01-7.51-7.25-8.03c-5.56-0.28-6.03-0.08-8.76,7.91l-14.91,41.96
		c-4.76,11.37-9.6,19.71-15.16,19.43c-4.63-0.24-5.21-7,0.47-22.73l14.36-40.13c3.11-8.56,2.97-7.51-7.25-8.03
		C460.06,142.4,459.58,142.6,456.85,150.59L456.85,150.59z M444.69,252.36c-3.94-0.2-4.63-4.88-1.37-9.59
		c2.03-3.38,6-3.87,13.42-3.73C452.83,247.44,448.86,252.58,444.69,252.36L444.69,252.36z M283.11,188.76
		c-2.16,19.34-5.46,34.4-12.33,35.47c-4.58,0.71-6.3-5.83-3.94-22.38l3.2-23.26c1.47-8.68,4.37-15.7,10.1-16.58
		c4.81-0.75,5.61,5.93,4.71,15.23l-1,7.19C283.53,185.41,283.28,186.86,283.11,188.76L283.11,188.76z M220.27,195.97
		c3.68-35.17,6.7-47.78,11.25-48.65c2.05-0.39,2.79,3.48,2.55,9.66c-1.3,17.95-5.1,36.38-14.55,51.17
		C219.56,204.6,219.73,200.55,220.27,195.97L220.27,195.97z M179.2,208.82l-0.11,0.51c-2.83,2.91-5.81,7.06-6.01,12.63
		c-0.26,5.35,1.82,9.59,4.67,12.2c-0.73,8.11-2.29,13.08-7,14.33c-4.93,1.31-7.17-6.25-6.78-21.95l0.64-14.8
		c0.75-14.35,1.75-23.25,8.25-24.98C177.58,185.5,179.78,193.79,179.2,208.82L179.2,208.82z"/>
	<path d="M265.88,465.39c0.06,17.45,0.03,34.9,0.03,52.35c0,5.93,0.09,12.07-0.06,17.97c-0.17,7.03,0.12,5.7,7.64,5.7
		c9.4,0.03,8.77,1.01,8.71-5.32c-0.03-7.38,0.06-14.76,0-22.14c-0.03-3.3-0.81-5.56,3.27-5.44c5.01,0.14,10.1,0.32,14.3-3.04
		c7.06-5.7,7.15-22.11,5.87-30.15c-3.04-19.59-15.45-16.7-30.12-16.81C265.1,458.45,265.74,457.32,265.88,465.39L265.88,465.39z
		 M283.88,473.58c6.39-0.52,6.08,7.64,5.9,12.07c-0.17,4.08-0.52,7.32-5.24,7.93c-2.26,0.32-2.4,0.06-2.4-2.14
		c0-4.25,0.17-8.71,0.03-12.96C282.12,476.5,281.54,474.1,283.88,473.58L283.88,473.58z M322.08,458.47
		c-1.45-0.06-5.06-0.55-5.87,0.96l-0.26,76.71c-0.09,3.21-0.49,5.5,3.39,5.38l25.67-0.06c3.62,0.09,5.56,0.49,5.41-3.76
		c-0.49-14.41,3.24-12.82-12.96-12.3c-6.31,0.17-4.31-0.61-4.63-14.27c-0.06-3.36-0.49-4.98,3.39-4.98
		c8.74,0.12,12.59,1.74,12.44-3.21c-0.41-13.63,2.31-12.67-9.35-12.27c-7.9,0.29-6.28-0.41-6.4-8.51c-0.03-1.85-0.64-6.22,0.9-7.35
		c1.77-1.27,12.82,0.78,15.08-0.69c0.78-0.69,0.41-4.02,0.38-5.06C348.76,454.57,354.49,459.31,322.08,458.47L322.08,458.47z
		 M370.17,480.15c-0.03,14.44-0.03,28.85,0,43.29c0,3.99,0.12,8.3-0.03,12.27c-0.26,7.47,0.52,5.53,10.48,5.73
		c7.35,0.14,6.28,0.55,6.16-9.95v-51.31c-0.09-5.09-1.13-6.19,6.48-5.76c2.55,0.14,3.53,0.52,3.47-2.23
		c-0.4-19.07,5.5-12.47-30.76-13.72c-1.39-0.03-4.34-0.49-5.24,0.55c-0.72,0.87-0.52,13.25-0.38,14.06c0.55,3.1,8.42,0.09,9.66,1.94
		C370.43,475.63,370.17,479.25,370.17,480.15L370.17,480.15z M445.76,480.15c-0.03,14.44-0.03,28.85,0,43.29
		c0,3.99,0.12,8.3-0.03,12.27c-0.26,7.47,0.52,5.53,10.48,5.73c7.35,0.14,6.28,0.55,6.16-9.95v-51.31
		c-0.09-5.09-1.13-6.19,6.48-5.76c2.55,0.14,3.53,0.52,3.47-2.23c-0.41-19.07,5.5-12.47-30.76-13.72c-1.39-0.03-4.34-0.49-5.24,0.55
		c-0.72,0.87-0.52,13.25-0.38,14.06c0.55,3.1,8.42,0.09,9.66,1.94C446.02,475.63,445.76,479.25,445.76,480.15L445.76,480.15z
		 M482.57,459.14c-0.81,2,0.17,63.37-0.29,75.9c-0.32,8.3,0.12,6.13,11.63,6.45c3.56,0.09,5.06,0.64,5.01-3.44l-0.15-29.72
		c-0.09-3.27-0.41-4.92,3.5-4.89c3.33,0.03,4.57,0.72,4.46,4.08l-0.14,28.56c-0.12,3.62-0.49,5.61,3.76,5.44
		c14.03-0.52,12.82,2.11,12.79-7.38c-0.03-17.3,0-34.64,0-51.94c0-6.31-0.12-12.88,0.06-19.16c0.09-3.21,0.29-4.77-3.39-4.66
		c-10.5,0.32-13.51-1.5-13.28,3.79c0.26,6.22,0.03,12.53,0.12,18.75c0.03,1.74,0.55,5.73-0.84,6.83c-1.16,0.93-5.12,0.72-6.22,0.03
		c-1.3-0.87-0.78-3.91-0.78-5.38c0.09-6.25,0-12.44,0.12-18.69c0.14-6.8-0.75-5.06-9.69-5.24
		C487.89,458.47,483.23,457.98,482.57,459.14L482.57,459.14z M548.4,541.09c0.29-0.23,0.38-0.29,0.55-0.61
		c0.69-1.42-0.12-65.6,0.23-77.47c0.09-3.18,0.29-4.75-3.36-4.63c-14.35,0.43-12.79-2.11-12.73,8.91c0.09,17.04,0,34.15,0,51.19
		c0,6.05,0.14,12.41-0.09,18.43c-0.12,3.13-0.17,4.72,3.39,4.63L548.4,541.09L548.4,541.09z M558.99,516.99
		c0.12,12.96,2.14,23.35,17.16,25c15.92,1.74,22.43-5.9,23.38-21.01c0.98-15.8-4.2-20.4-14.82-30.62c-2.6-2.46-6.22-5.58-8.19-8.45
		c-5.79-8.45,4.34-11.92,5.47-6.16c0.84,4.34-1.88,6.68,4.34,6.6c10.68-0.2,13.37,1.56,12.76-4.66
		c-1.39-13.48-7.09-19.85-20.98-19.97c-13.37-0.03-19.13,8.62-19.13,21.73c0,16.58,18.35,24.08,22.77,33.86
		c1.24,2.81,2.11,8.71,0.98,11.55c-0.98,2.49-4.49,2.63-6.11,0.93c-1.85-2-1.39-7.87-1.27-10.5c0.12-3.01,0.55-4.83-3.01-4.92
		C557.17,510.36,558.94,509.2,558.99,516.99L558.99,516.99z"/>
	<path class="st0" d="M220.41,460.46c0,0.76,0,1.52,0,2.27c1.63,0.07,3.26,0.14,4.9,0.23c1.35,0.07,6.81-0.09,7.52,1.32
		c0.92,1.84-1.2,2.09-2.65,2.29c-3.11,0.44-8.1,0.44-9.49,0.51c-0.09,0-0.19,0.01-0.28,0.02c0,1.22,0,2.44,0,3.66
		c4.19,0.22,8.38,0.41,12.56,0.63c2.21,0.12,13.06,0.46,14.67,1.1c0.57,0.23,0.97,0.76,0.95,1.39c-0.05,1.88-3.44,1.64-4.63,1.69
		c-1.05,0.05-2.11,0.06-3.15,0.12c-6.8,0.38-13.6,0.8-20.4,1.2c0,0.76,0,1.52,0,2.28c3.6,0.16,11.95,0.49,12.73,1.05
		c0.48,0.34,0.96,0.69,1.44,1.03c-0.44,0.39-0.89,0.78-1.33,1.17c-0.81,0.71-7.6,0.8-9.07,0.88c-1.25,0.07-2.51,0.15-3.76,0.22
		c0,1.22,0,2.44,0,3.66c8.7,0.49,17.41,0.92,26.1,1.47c1.05,0.07,2.91,0.01,2.88,1.62c-0.04,2-4.42,1.6-5.66,1.67
		c-2.11,0.11-4.21,0.23-6.32,0.35c-3.09,0.17-6.19,0.34-9.28,0.52c-1.47,0.08-2.94,0.16-4.41,0.25c-1.1,0.06-2.21,0.12-3.31,0.19
		c0,0.78,0,1.55,0,2.33c3.65,0.1,12.03,0.29,12.87,1.12c0.35,0.34,0.7,0.69,1.05,1.03c-0.36,0.33-0.71,0.67-1.07,1
		c-0.82,0.77-9.4,1.04-12.85,1.17c0,1.22,0,2.45,0,3.67c1.1,0.06,2.21,0.13,3.31,0.19c7.33,0.43,14.66,0.76,21.98,1.26
		c1.11,0.08,3.34-0.01,3.3,1.69c-0.04,1.83-3.1,1.6-4.25,1.65c-0.93,0.04-1.88,0.06-2.81,0.11c-5.92,0.33-11.84,0.66-17.76,1
		c-1.26,0.07-2.52,0.14-3.77,0.21c0,0.76,0,1.53,0,2.29c3.84,0.21,7.68,0.41,11.52,0.66c0.94,0.06,2.21,0.15,2.19,1.54
		c-0.02,1.88-3.46,1.56-4.61,1.62c-3.03,0.17-6.06,0.35-9.1,0.52c0,1.23,0,2.46,0,3.69c1.03,0.06,2.05,0.11,3.08,0.17
		c3.02,0.17,6.03,0.34,9.05,0.51c4.62,0.25,9.24,0.39,13.84,0.73c1.03,0.08,2.71,0.09,2.69,1.63c-0.02,1.77-2.73,1.61-3.86,1.67
		c-0.84,0.05-1.68,0.07-2.52,0.12c-2.45,0.14-4.91,0.27-7.36,0.41c-3.02,0.18-6.03,0.35-9.05,0.53c-1.95,0.12-3.91,0.23-5.87,0.34
		c0,0.76,0,1.53,0,2.29c1.76,0.09,3.51,0.17,5.27,0.27c1.54,0.09,3.07,0.17,4.61,0.28c0.94,0.07,2.74-0.01,3.27,0.97
		c0.24,0.44,0.48,0.88,0.72,1.32c-0.45,0.21-0.91,0.42-1.36,0.63c-0.97,0.45-10.24,0.76-12.5,0.88c0,1.23,0,2.46,0,3.68
		c8.34,0.45,16.68,0.77,25.01,1.37c1.11,0.08,3.22,0.03,3.19,1.69c-0.03,1.89-3.48,1.66-4.67,1.72c-1.32,0.06-2.66,0.07-3.98,0.17
		c-4.64,0.26-9.28,0.52-13.92,0.78c-1.88,0.1-3.75,0.2-5.63,0.31c0,0.59,0,1.19,0,1.78c0,1.23,0.76,1.35,1.88,1.35
		c132.23,0,264.45,0,396.68,0c8.07,0,16.14,0,24.21,0c1.12,0,1.88-0.13,1.88-1.35c0-0.59,0-1.19,0-1.78
		c-1.88-0.11-3.75-0.2-5.63-0.31c-4.64-0.26-9.28-0.52-13.92-0.78c-0.04,0-0.07-0.01-0.11-0.01c-0.17-0.01-0.38-0.02-0.6-0.03
		c-1.09-0.06-2.18-0.08-3.27-0.13c-1.19-0.06-4.64,0.17-4.67-1.72c-0.03-1.67,2.09-1.62,3.19-1.69c8.33-0.59,16.68-0.92,25.01-1.37
		c0-1.23,0-2.46,0-3.68c-1.87-0.1-8.53-0.33-11.33-0.66c-4.33-0.51-2.22-2.87,1.46-3.14c1.53-0.11,3.07-0.2,4.61-0.28
		c1.76-0.1,3.51-0.18,5.27-0.27c0-0.76,0-1.53,0-2.29c-1.95-0.11-3.91-0.23-5.87-0.34c-3.02-0.18-6.03-0.35-9.05-0.53
		c-2.45-0.14-4.91-0.27-7.36-0.41c-0.84-0.05-1.68-0.07-2.52-0.12c-1.14-0.06-3.84,0.1-3.86-1.67c-0.02-1.54,1.65-1.56,2.69-1.63
		c4.61-0.34,9.23-0.48,13.84-0.73c3.02-0.16,6.03-0.34,9.05-0.51c1.03-0.06,2.05-0.11,3.08-0.17c0-1.23,0-2.46,0-3.69
		c-3.03-0.18-6.06-0.36-9.1-0.52c-1.16-0.06-4.59,0.27-4.61-1.62c-0.02-1.39,1.26-1.48,2.19-1.54c3.84-0.25,7.68-0.45,11.51-0.66
		c0-0.76,0-1.53,0-2.29c-1.26-0.07-2.52-0.14-3.77-0.21c-5.92-0.33-11.84-0.67-17.76-1c-0.93-0.05-1.88-0.07-2.81-0.11
		c-1.16-0.05-4.21,0.17-4.25-1.65c-0.04-1.7,2.19-1.62,3.3-1.69c7.32-0.5,14.65-0.83,21.98-1.26c1.1-0.06,2.21-0.13,3.31-0.19
		c0-1.22,0-2.45,0-3.67c-2.71-0.1-8.59-0.29-11.38-0.74c-2.72-0.44-3.19-2.26-0.51-2.82c2.5-0.53,8.85-0.68,11.89-0.76
		c0-0.78,0-1.55,0-2.33c-1.1-0.06-2.21-0.12-3.31-0.19c-1.47-0.08-2.94-0.17-4.41-0.25c-3.09-0.17-6.19-0.35-9.28-0.52
		c-2.11-0.12-4.21-0.24-6.32-0.35c-1.24-0.07-5.62,0.33-5.66-1.67c-0.03-1.61,1.83-1.56,2.88-1.62c8.7-0.55,17.4-0.98,26.1-1.47
		c0-1.22,0-2.44,0-3.66c-1.25-0.07-2.51-0.15-3.76-0.22c-1.26-0.07-6.39-0.15-8.37-0.61c-2.18-0.51-2.38-2.2,0.06-2.68
		c2.21-0.44,8.94-0.71,12.07-0.85c0-0.76,0-1.52,0-2.28c-6.8-0.4-13.6-0.81-20.4-1.2c-1.04-0.06-2.1-0.08-3.15-0.12
		c-1.19-0.05-4.59,0.19-4.63-1.69c-0.02-0.64,0.38-1.17,0.95-1.39c1.61-0.64,12.46-0.98,14.67-1.1c4.19-0.22,8.38-0.41,12.56-0.63
		c0-1.22,0-2.44,0-3.66c-0.09-0.01-0.19-0.01-0.28-0.02c-1.69-0.09-8.69-0.07-11.18-0.86c-1.66-0.53-1.62-1.99-0.09-2.6
		c1.79-0.7,5.56-0.61,6.65-0.67c1.63-0.09,3.27-0.15,4.9-0.23c0-0.76,0-1.52,0-2.27c-4.48-0.25-8.97-0.51-13.45-0.75
		c-1.45-0.08-2.9-0.15-4.36-0.22c-0.91-0.04-1.82-0.08-2.73-0.11c-1.79-0.07-3.96-0.01-5.7-0.35c-0.75-0.15-1.41-0.61-1.42-1.48
		c-0.03-2.06,4.53-1.92,5.78-2.02c3.3-0.26,6.6-0.44,9.91-0.61c3.99-0.21,7.97-0.39,11.96-0.6c0-1.03,0-2.07,0-3.1
		c-8.7,0-17.39,0-26.09,0c-132.85,0-265.71,0-398.56,0c0,1.03,0,2.07,0,3.1c3.99,0.21,7.98,0.39,11.96,0.6
		c3.3,0.18,6.61,0.36,9.91,0.61c1.25,0.1,5.81-0.04,5.78,2.02c-0.01,0.87-0.67,1.33-1.42,1.48c-1.74,0.34-3.9,0.28-5.7,0.35
		c-0.91,0.04-1.82,0.07-2.73,0.11c-1.45,0.07-2.91,0.14-4.36,0.22C229.38,459.96,224.9,460.21,220.41,460.46L220.41,460.46z
		 M618.97,555.17c-162.19,0-324.37,0-486.56,0c-2.89,0-5.05-1.37-5.05-4.45c0-3.11,2.29-7.26,3.84-9.86
		c8.44-14.16,16.95-28.27,25.45-42.39c-8.48-15.34-16.94-30.7-25.47-46.01c-1.09-1.96-2.66-4.95-2.66-7.24
		c0-2.35,1.65-3.54,3.89-3.54c162.19,0,324.37,0,486.56,0c38.03,0,76.06,0,114.08,0c2.24,0,3.89,1.2,3.89,3.54
		c0,2.29-1.57,5.28-2.66,7.24c-8.54,15.31-17,30.67-25.47,46.01c8.51,14.12,17.01,28.24,25.45,42.39c1.55,2.6,3.84,6.75,3.84,9.86
		c0,3.08-2.16,4.45-5.05,4.45C695.03,555.17,657,555.17,618.97,555.17L618.97,555.17z M706.17,483.97
		c-0.64,1.16-1.28,2.33-1.93,3.49c-1.05,0.06-2.1,0.12-3.16,0.18c-2.77,0.16-21.65,0.94-22.52,1.53c-1.41,0.95-1.01,1.97,0.37,2.48
		c0.75,0.28,1.77,0.25,2.4,0.29c1.5,0.1,3.01,0.18,4.51,0.26c2.15,0.11,4.31,0.21,6.46,0.33c2.99,0.16,5.98,0.32,8.96,0.49
		c-0.19,0.36-0.38,0.68-0.56,0.91c-0.45,0.6-0.9,1.36-1.3,2.07c-1.28,0.08-2.57,0.16-3.85,0.24c-1.08,0.07-2.17,0.12-3.25,0.19
		c-1.17,0.07-5-0.18-4.95,1.75c0.02,0.69,0.52,1.23,1.17,1.36c1.14,0.23,2.72,0.19,3.92,0.26c2.14,0.11,4.28,0.21,6.43,0.31
		c0.72,1.25,1.45,2.5,2.17,3.75c-6.5,0.35-13,0.65-19.49,1.06c-1.08,0.07-3.08,0-3.06,1.65c0.03,1.79,2.83,1.59,3.97,1.64
		c0.85,0.04,1.71,0.06,2.57,0.1c5.3,0.29,10.6,0.61,15.9,0.92c1.15,0.06,2.29,0.13,3.43,0.2c0.57,0.93,1.14,1.87,1.7,2.8
		c-3.63,0.16-9.79,0.47-10.45,0.91c-1.53,1.04-1.47,1.88,0.44,2.46c1.75,0.53,5.83,0.53,6.84,0.59c1.9,0.11,3.81,0.21,5.71,0.32
		c0.63,1.03,1.25,2.06,1.88,3.09c-0.77,0.05-1.54,0.09-2.31,0.14c-4.2,0.25-8.4,0.45-12.6,0.69c-2.91,0.17-5.83,0.33-8.74,0.53
		c-1.01,0.07-4.37,0.05-5.06,0.89c-0.21,0.25-0.32,0.57-0.33,0.9c-0.01,1.34,1.21,1.48,2.14,1.57c0.7,0.07,1.42,0.12,2.12,0.16
		c0.97,0.06,1.94,0.11,2.91,0.16c2.16,0.12,4.32,0.22,6.47,0.34c1.54,0.09,3.09,0.18,4.63,0.27c3.09,0.18,6.17,0.36,9.26,0.54
		c1.84,0.11,3.67,0.21,5.51,0.32c0.45,0.75,0.9,1.5,1.35,2.25c-0.77,0.04-1.55,0.09-2.32,0.13c-3.09,0.16-6.19,0.21-9.28,0.49
		c-0.94,0.09-2.17,0.26-2.15,1.58c0.02,1.82,3.01,1.63,4.16,1.68c0.95,0.05,1.9,0.08,2.84,0.12c1.92,0.09,3.85,0.18,5.77,0.28
		c1.22,0.06,2.44,0.13,3.65,0.19c0.5,0.82,1,1.64,1.5,2.47c-5.2,0.31-10.4,0.57-15.6,0.89c-4.15,0.25-8.3,0.51-12.45,0.83
		c-1.27,0.1-6.33,0.04-6.94,1.5c-1.04,2.48,3.52,2.27,4.75,2.33c1.16,0.06,2.32,0.1,3.49,0.15c0.88,0.04,1.76,0.08,2.64,0.13
		c1.47,0.09,2.94,0.19,4.41,0.28c1.55,0.09,3.09,0.19,4.64,0.28c1.55,0.09,3.09,0.19,4.64,0.28c5.01,0.3,10.02,0.6,15.02,0.92
		c0.58,0.98,1.17,1.95,1.75,2.93c-23.99,0-47.97,0-71.96,0c0.1-0.76,0.15-1.54,0.15-2.31c0-30.81,0-61.62,0-92.43
		c23.2,0,46.4,0,69.6,0c-0.55,1.01-1.1,2.02-1.65,3.03c-1.29,0.08-2.58,0.16-3.86,0.24c-10.08,0.63-20.16,1.16-30.23,1.86
		c-1.19,0.08-4.13-0.06-4.08,1.79c0.05,1.86,3.3,1.62,4.48,1.67c0.96,0.04,1.93,0.06,2.89,0.12c1.86,0.11,3.71,0.24,5.57,0.35
		c4.63,0.29,9.26,0.58,13.89,0.87c2.43,0.15,4.85,0.3,7.28,0.46c-0.35,0.64-0.7,1.28-1.05,1.92c-1.21,0.07-2.42,0.14-3.63,0.21
		c-3.48,0.19-6.97,0.28-10.44,0.58c-0.88,0.08-1.89,0.33-1.88,1.52c0.01,1.88,3.92,1.7,5.09,1.7c1.39,0.08,2.77,0.15,4.16,0.22
		c1.42,0.08,2.85,0.17,4.27,0.25c-0.53,0.98-1.05,1.95-1.58,2.93c-2.83,0.17-5.67,0.34-8.5,0.51c-2.9,0.17-22.33,0.95-23.28,1.74
		c-2.43,2.03,1.48,2.6,3.03,2.71c1.6,0.11,3.21,0.21,4.81,0.3c2.3,0.13,4.6,0.25,6.89,0.38c1.85,0.11,3.69,0.22,5.54,0.33
		c2.67,0.16,5.34,0.32,8.01,0.47c-0.46,0.85-0.91,1.69-1.37,2.54c-1.28,0.07-2.56,0.14-3.84,0.22c-1.38,0.08-2.76,0.14-4.14,0.21
		c-1.15,0.06-5.2-0.18-5.52,1.45c-0.36,1.85,0.68,1.67,2.49,1.85C699.72,483.73,703.63,483.87,706.17,483.97L706.17,483.97z
		 M159.3,483.97c0.64,1.16,1.28,2.33,1.93,3.49c1.05,0.06,2.1,0.12,3.16,0.18c2.77,0.16,21.65,0.94,22.52,1.53
		c2.68,1.8-1.2,2.67-2.77,2.77c-1.5,0.1-3.01,0.18-4.51,0.26c-2.15,0.11-4.31,0.21-6.46,0.33c-2.99,0.16-5.98,0.32-8.96,0.49
		c0.19,0.36,0.38,0.68,0.56,0.91c0.45,0.6,0.9,1.36,1.3,2.07c1.28,0.08,2.57,0.16,3.85,0.24c1.08,0.07,2.17,0.12,3.26,0.19
		c1.17,0.07,5-0.18,4.95,1.75c-0.02,0.69-0.52,1.23-1.16,1.36c-1.14,0.23-2.72,0.19-3.92,0.26c-2.14,0.11-4.28,0.21-6.43,0.31
		c-0.72,1.25-1.45,2.5-2.17,3.75c6.5,0.35,13,0.65,19.49,1.06c1.08,0.07,3.08,0,3.06,1.65c-0.03,1.79-2.83,1.59-3.97,1.64
		c-0.85,0.04-1.71,0.06-2.57,0.1c-5.3,0.29-10.6,0.61-15.9,0.92c-1.14,0.06-2.29,0.13-3.43,0.2c-0.57,0.93-1.14,1.87-1.7,2.8
		c3.63,0.16,9.79,0.47,10.45,0.91c4.41,3-6.03,2.98-7.28,3.05c-1.9,0.11-3.81,0.21-5.71,0.32c-0.63,1.03-1.25,2.06-1.88,3.09
		c0.77,0.05,1.54,0.09,2.31,0.14c4.2,0.25,8.4,0.45,12.6,0.69c2.91,0.17,5.83,0.33,8.74,0.53c1.01,0.07,4.37,0.05,5.06,0.89
		c0.21,0.25,0.32,0.57,0.33,0.9c0.01,1.34-1.21,1.48-2.14,1.57c-0.7,0.07-1.42,0.12-2.12,0.16c-0.97,0.06-1.94,0.11-2.91,0.16
		c-2.16,0.12-4.32,0.22-6.47,0.34c-1.54,0.09-3.09,0.18-4.63,0.27c-3.09,0.18-6.17,0.36-9.26,0.54c-1.84,0.11-3.67,0.21-5.51,0.32
		c-0.45,0.75-0.9,1.5-1.35,2.25c0.77,0.04,1.55,0.09,2.32,0.13c3.09,0.16,6.19,0.21,9.28,0.49c0.94,0.09,2.17,0.26,2.15,1.58
		c-0.02,1.82-3.01,1.63-4.16,1.68c-0.95,0.05-1.9,0.08-2.84,0.12c-1.92,0.09-3.85,0.18-5.77,0.28c-1.22,0.06-2.44,0.13-3.65,0.19
		c-0.5,0.82-1,1.64-1.5,2.47c5.2,0.31,10.4,0.57,15.6,0.89c4.15,0.25,8.3,0.51,12.44,0.83c1.27,0.1,6.33,0.04,6.94,1.5
		c1.04,2.48-3.52,2.27-4.75,2.33c-1.16,0.06-2.32,0.1-3.49,0.15c-0.88,0.04-1.76,0.08-2.64,0.13c-1.47,0.09-2.94,0.19-4.41,0.28
		c-1.55,0.09-3.09,0.19-4.64,0.28c-1.55,0.09-3.09,0.19-4.64,0.28c-5.01,0.3-10.02,0.6-15.02,0.92c-0.58,0.98-1.17,1.95-1.75,2.93
		c23.99,0,47.97,0,71.96,0c-0.1-0.76-0.15-1.54-0.15-2.31c0-30.81,0-61.62,0-92.43c-23.2,0-46.4,0-69.6,0
		c0.55,1.01,1.1,2.02,1.65,3.03c1.29,0.08,2.58,0.16,3.86,0.24c10.08,0.63,20.16,1.16,30.23,1.86c1.19,0.08,4.13-0.06,4.08,1.79
		c-0.05,1.86-3.3,1.62-4.48,1.67c-0.96,0.04-1.93,0.06-2.89,0.12c-1.86,0.11-3.71,0.24-5.57,0.35c-4.63,0.29-9.26,0.58-13.89,0.87
		c-2.43,0.15-4.85,0.3-7.28,0.46c0.35,0.64,0.7,1.28,1.05,1.92c1.21,0.07,2.42,0.14,3.63,0.21c3.48,0.19,6.97,0.28,10.44,0.58
		c0.88,0.08,1.89,0.33,1.88,1.52c-0.01,1.88-3.92,1.7-5.09,1.7c-1.39,0.08-2.77,0.15-4.16,0.22c-1.42,0.08-2.85,0.17-4.27,0.25
		c0.53,0.98,1.05,1.95,1.58,2.93c2.83,0.17,5.67,0.34,8.5,0.51c2.9,0.17,22.33,0.95,23.28,1.74c2.43,2.03-1.48,2.6-3.03,2.71
		c-1.6,0.11-3.21,0.21-4.81,0.3c-2.3,0.13-4.6,0.25-6.89,0.38c-1.85,0.11-3.69,0.22-5.54,0.33c-2.67,0.16-5.34,0.32-8.01,0.47
		c0.46,0.85,0.91,1.69,1.37,2.54c1.28,0.07,2.56,0.14,3.84,0.22c1.38,0.08,2.76,0.14,4.14,0.21c1.16,0.06,5.2-0.18,5.52,1.45
		c0.21,0.87,0.16,1.28-0.88,1.59C168.58,483.62,162.72,483.84,159.3,483.97L159.3,483.97z"/>
</g>
</svg>
