<?xml version="1.0" encoding="utf-8"?>
<!-- Generator: Adobe Illustrator 24.3.0, SVG Export Plug-In . SVG Version: 6.00 Build 0)  -->
<svg version="1.1" id="Layer_1" xmlns="http://www.w3.org/2000/svg" xmlns:xlink="http://www.w3.org/1999/xlink" x="0px" y="0px"
	 viewBox="0 0 864 864" style="enable-background:new 0 0 864 864;" xml:space="preserve">
<g>
	<path d="M307.58,242.01l-0.41,52.78c0,0.41,0.1,0.92-0.41,1.43c-2.15,0-4.3,0.1-6.56,0.62c-0.2,0.2-0.51,0.51-0.72,0.72
		c-0.21,2.66-0.1,4.92,0.2,6.05c0.2,0,0.41,0.1,0.61,0.1c4.47,0.1,21.1,0.64,23.78,0.1c0.2-0.31,0.41-0.51,0.41-0.82
		c0.06-2.2,0.77-5.91-0.51-6.56c-2.34-1.19-2.79,0.3-7.38-0.72c0-0.51,0-0.92,0-1.43c-0.2-10.76,0-21.52-0.31-32.18
		c-0.21-6.76-0.21-13.63-0.21-20.39c0-1.19,0.39-1.03,1.95-1.03c1.93,0,5.68,0.42,6.46-0.92c0.62-1.74-0.2-3.59,0.41-5.33
		c-0.25-0.5-0.27-1.13-0.92-1.13l-7.89-0.2l-14.14-0.1c-2.95,0.15-2.05,6.76-2.05,6.76c0.41,0.61,0.82,1.03,1.54,1.23
		c2.05-0.31,4.1-0.31,6.15-0.31C307.58,241.29,307.58,241.7,307.58,242.01L307.58,242.01z M344.07,246.31v19.78
		c-0.1,9.63-0.1,19.17-0.41,28.7c0,0.31,0.1,0.61-0.31,1.02c-1.95,0-3.89,0.2-5.84,0.41c-0.41,0.1-0.82,0.31-1.23,0.51
		c-0.72,2.25-0.2,4.41,0,6.66c2.01,1.51,0.19,0.82,4,0.61c5.02,0,9.94,0,14.86,0c5.24,0,6.25,2.21,6.25-6.05
		c0-2.99-2.76-2.25-4.41-2.25l-3.59-0.31l-0.31-18.24c-0.3-8.24-0.2-17-0.2-25.31c0-1.82-0.71-11,0.51-12.09
		c2.66-2.38,1.64-1.99,4.41-1.74c2.87,0.51,4.3,9.43,4.3,12.09c0,0.61,0,1.13,0.62,1.43c1.23,0.41,1.84,0.61,2.66,0.61
		c1.37,0,1.76-0.02,2.66-0.92c0-0.92,0-1.74,0-2.56c-0.31-4.82-0.31-9.43-0.31-14.14c-0.1-0.72-0.1-1.43-0.61-2.05
		c-0.71-0.38-15.4-0.2-17.22-0.2c-1.23,0-2.36,0.2-3.48,0.2l-5.94-0.1c-2.93,0.29-7.9,0.2-10.97,0.2c-0.92,0.92-1.13,0.34-1.13,2.05
		l-0.41,15.58c-0.04,2.4,0.42,2.25,3.48,2.25c1.83,0,2.6-1.1,2.56-2.66c-0.06-2.45,1.28-10.67,2.97-11.38
		c0.23-0.1,2.92-0.6,3.59-0.31C343.66,239.24,344.07,243.65,344.07,246.31L344.07,246.31z M379.22,219.05
		c-0.41-1.02-1.03-1.95-2.36-2.05c-0.99,0.12-4.33,2.51-4.51,4.1c-0.03,0.26,2.3,5.42-1.03,13.94c-0.44,1.13-0.05,1.22,0.1,1.84
		l3.18-0.1c3.18-1.43,4.92-9.22,5.43-12.3C380.35,222.64,379.94,220.79,379.22,219.05L379.22,219.05z M407.81,234.83
		c-1.43-1.03-4-1.95-5.84-1.95c-4.61,0-11.58,4.82-12.61,9.51c-0.69,3.3-1.06,7.18,0.1,10.44c1.84,4.82,4.3,9.02,7.38,13.1
		c2.87,3.59,9.33,12.38,10.35,16.89c1.25,5.49,2.12,7.49,0.61,12.69c-1.12,3.88-6.36,3.22-6.76,3.06
		c-4.71-3.16-5.23-9.31-5.23-14.42c-0.1-1.64,0-3.28,0-5.12c-0.21-0.31-0.51-0.82-0.72-1.33c-0.71-0.31-4.86-2.04-5.53-0.92
		c-1.1,1.83-0.13,19.44-0.61,21.59c-0.31,1.54-0.31,3.07-0.31,4.61c0,0.75,0.52,1.54,1.33,1.54c7.3,0,4.43-0.97,5.23-3.89
		c1.61,1.21,2.35,2.41,5.43,3.28c1.64,0.41,3.38,0.2,5.12,0.61c0.1,0,0.2-0.1,0.31-0.1c2.82-0.18,6.11-1.65,7.69-4.2
		c2.18-3.53,3.48-7.37,3.48-11.46c0-5.11-1.33-10.33-4.1-14.72c-1.7-2.8-2.38-4.58-4.41-7.48c-2.46-3.38-4.92-6.75-7.48-10.13
		c-1.64-2.15-2.66-4.71-3.38-7.26c-0.92-3.07-0.62-5.94,0.51-8.81c1.76-4.43,9.53-6.81,9.53,8.2l0.1,4.59
		c0.48,1.51,5.45,0.69,6.15,0.51c0.17-0.51,0.55-0.84,0.51-1.74l-0.41-17.7c0-2.54-2.48-1.77-4.61-1.64
		c-1.35,0.08-1.33,1.32-1.33,2.46C408.12,234.94,407.92,234.94,407.81,234.83L407.81,234.83z M441.94,302.78
		c0,0.41,0,0.92,0.51,1.23c1.74,0.64,14.24,0.51,16.5,0.51c1.13,0,2.15-0.31,3.18-0.41c1.23-1.74,0.82-3.59,0.82-5.53l-0.62-0.61
		c-0.65-0.27-5.69,0.51-5.94-0.41c-0.54-1.95-0.41-30.47-0.41-34.98l4.61,12.26l4.92,14.23c0.82,2.87,1.64,6.15,2.46,8.9
		c0.39,1.28,1.49,6.36,2.36,6.56l12.71-0.1c0.41,0,0.72,0,1.02-0.41c0.51-2.05,0.41-4.2,0.41-6.25c-0.3-1.1-3.66-0.34-6.56-0.82
		c0-0.51,0-0.92-0.1-1.32l-0.1-30.51c-0.01-4.52-0.58-22.93,0-25.26c2.22-0.56,6.53,0.92,6.66-1.13c0.08-1.16,0.82-5.37-0.82-5.84
		c-1.25-0.36-18.54,0.51-19.27,0.92l-0.41,0.41c-0.2,1.95-0.1,3.69,0,5.53c0,0.31,0.31,0.61,0.51,0.92l5.84-0.31
		c0.2,0.72,0.2,1.33,0.1,1.83l-0.21,29.28c0,0.62,0.1,1.23-0.2,1.84l-7.17-19.97c-2.05-6.03-4.1-11.96-6.05-18
		c-0.31-0.72-0.61-1.54-1.23-2.05c-2.46,0-5.02-0.2-7.48-0.41c-1.2-0.2-4.24-0.24-4.82,1.02c-0.15,0.32-1.51,6.52,0.62,7.07
		c1.12,0.29,4.14-0.98,5.12,0v1.73c-0.31,14.95-0.31,29.79-0.31,44.72v9.12c0,0.39,0.1,0.91-0.51,1.42h-5.02
		c-0.41,0.2-0.72,0.41-1.02,0.61C441.74,300.01,441.84,301.35,441.94,302.78L441.94,302.78z M501.18,230.22
		c-1.84,0-4.2,1.43-5.74,2.36c-1.95,1.33-3.38,3.18-4.2,5.43c-1.02,2.66-2.15,8.2-2.15,11.17c0.09,1.96-0.31,3.42-0.31,4.82
		l-0.1,26.85c0,8.1,0.1,19.37,9.33,22.55c0.58,0.1,2.48,0.96,4.51,0.92c2.31-0.05,6.45-1.06,8.3-2.66
		c5.74-5.74,6.25-13.02,6.56-20.7l0.31-10.15c0-1.02,0.21-2.15,0.21-3.18c0.09-9.63,0.03-13.92-1.54-23.16
		c-1.13-5.94-3.69-12.4-10.25-13.84C503.83,230.22,503.33,230.22,501.18,230.22L501.18,230.22z M504.77,236.27
		c3.48,1.04,3.19,6.35,3.69,9.22c0.51,2.95,0.31,12.37,0.31,15.78c0,4.71-0.1,9.33-0.1,13.94c-0.42,2.11,0.25,4.4-0.31,6.76
		l-0.82,11.99c-0.32,1.75-2.52,4.1-4.41,4.1c-2.36,0-4.51-2.46-5.02-4.61c-1.03-3.07-1.13-8.2-1.13-11.38
		c-0.1-3.07-0.1-6.15,0.1-9.22c0.1-0.82,0.1-1.74,0.1-2.56c0-5.59-0.11-21.23,0.51-26.03c0.51-3.48,1.02-6.05,4.41-7.99
		C503.02,236.27,503.95,236.27,504.77,236.27L504.77,236.27z M537.15,246.31v19.78c-0.1,9.63-0.1,19.17-0.41,28.7
		c0,0.31,0.1,0.61-0.31,1.02c-1.95,0-3.89,0.2-5.84,0.41c-0.41,0.1-0.82,0.31-1.23,0.51c-0.72,2.25-0.2,4.41,0,6.66
		c2.01,1.51,0.19,0.82,4,0.61c5.02,0,9.94,0,14.86,0c5.24,0,6.25,2.21,6.25-6.05c0-2.99-2.76-2.25-4.41-2.25l-3.59-0.31l-0.31-18.24
		c-0.3-8.24-0.2-17-0.2-25.31c0-1.82-0.71-11,0.51-12.09c2.66-2.38,1.64-1.99,4.41-1.74c2.87,0.51,4.3,9.43,4.3,12.09
		c0,0.61,0,1.13,0.62,1.43c1.23,0.41,1.84,0.61,2.66,0.61c1.37,0,1.76-0.02,2.66-0.92c0-0.92,0-1.74,0-2.56
		c-0.31-4.82-0.31-9.43-0.31-14.14c-0.1-0.72-0.1-1.43-0.61-2.05c-0.71-0.38-15.4-0.2-17.22-0.2c-1.23,0-2.36,0.2-3.48,0.2
		l-5.94-0.1c-2.93,0.29-7.9,0.2-10.97,0.2c-0.92,0.92-1.13,0.34-1.13,2.05l-0.41,15.58c-0.04,2.4,0.42,2.25,3.48,2.25
		c1.83,0,2.6-1.1,2.56-2.66c-0.06-2.45,1.28-10.67,2.97-11.38c0.23-0.1,2.92-0.6,3.59-0.31
		C536.74,239.24,537.15,243.65,537.15,246.31L537.15,246.31z"/>
	<path d="M304.69,344.3c-2.2,2.95-7.6,9.33-13.53,10.48c-6.75,1.3-12.5-3.3-15.9-8.7c3.62-4.62,7.09-9.77,9.57-14.98
		c9.81-20.62-15.07-25.8-19.61-7.81c-1.03,4.13-1.14,8.47-0.48,12.7c-0.73-0.13-1.42-0.16-2.14-0.11
		c-12.66,0.9-15.9,22.54-4.96,24.3c4.27,0.71,10.69-6.03,13.28-8.95c4.99,6.92,12.73,11.59,21.47,9.91
		c6.98-1.33,13.14-7.4,17.32-12.79c2.58-3.11,5.71-9.06,4.04-12.57c4.06,1.37,5.23,4.53,4.82,8.9c-0.86,8.88,0.11,14.98,11.25,15.25
		c7.9,0.21,15.72-2.98,21.42-8.21c3.69,11.85,21.06,10.57,32.37,0.49c0.4,2.71,1.01,5.72,1.75,7.45c0.38,0.93,1.3,1.44,2.3,1.3
		c4.6-0.61,2.7-0.23,5.26-5.37c1.52-3.16,4.4-8.26,6.99-10.7c0.86,4.55,2.85,15.9,13.01,16.21c5.48,0.18,11.17-3.32,15.62-7.39
		c0.03,2.97,0.35,5.82,1.2,7.84c1.25,2.94,4.52,3.11,6.2,0.66c1.1-1.62,2.89-3.55,4.4-5.03c12.99,10.69,28.12,5.07,38.4-5.4
		c3.73,11.78,21.06,10.49,32.35,0.43c0.4,2.71,1.01,5.72,1.75,7.45c0.38,0.93,1.3,1.44,2.3,1.3c4.6-0.61,2.7-0.23,5.26-5.37
		c1.52-3.16,4.4-8.26,6.99-10.7c0.86,4.55,2.85,15.9,13.01,16.21c5.37,0.18,10.94-3.18,15.35-7.15c1.31,2.65,3.84,4.43,6.85,4.6
		c5.33,0.28,9.26-4.51,11.79-8.67c0,2.48,0,4.96-0.06,7.4c-7.4,2.37-17.42,7.67-18.69,16c-1.28,8.43,7.4,14.59,15.03,11.25
		c8.27-3.6,9.49-14.32,9.91-22.29c11.7-3.1,23.67-6.31,30.96-16.42c2.14-2.92-3.95-6.47-5.39-3.75
		c-4.55,7.36-13.77,10.36-25.33,13.38c0.14-7.01-0.07-14.07-0.38-21.08c0-0.59-0.07-1.17-0.07-1.76c0-2.82-5.92-3.34-6.44-0.55
		c-0.27,1.52-0.58,3.03-1,4.51c-4.89-2.2-10.35-0.72-14.07,3c-1.47,1.47-2.66,3.34-3.38,5.36c-2.79,3.78-8.42,9.07-13.38,9.75
		c-9.6,1.3-5.3-15.87-13-17.17c-4.99-0.89-9.81,6.78-12.02,10.5c-0.06-0.96-0.09-1.95-0.07-2.95c0.38-0.78,0.38-1.53,0.13-2.19
		c0.11-1.07,0.31-2.12,0.6-3.12c0.86-2.96-5.37-4.76-6.22-1.8c-0.46,1.58-0.73,3.23-0.87,4.89c-7.49,12.06-33.6,19.08-24.02-4.03
		c1.44-3.34-5.67-5.39-6.67-2.47c-0.68,2-1.17,3.85-1.49,5.58c-0.14,0.12-0.26,0.26-0.37,0.43c-9.91,15.28-26.57,16.69-32.59,9.84
		c0.89-0.79,2.34-2,3.24-2.82c1.27-1.14,2.57-2,2.64-3.82c0.14-2.85-3.16-4.62-5.74-2.72c-2.85,2.07-7.95,7.68-10.63,10.47
		c0-2.58,0.2-5.2,0.55-7.78c6.78-2.48,14.59-6.92,18.89-12.59c13.31-17.55-8.09-28.8-19.34-8.99c-3.01,5.33-4.8,12.67-5.74,18.78
		c-1.68,3.44-8.72,11.12-14.77,11.95c-9.6,1.3-5.3-15.87-13-17.17c-4.99-0.89-9.81,6.78-12.02,10.5c-0.06-0.96-0.09-1.95-0.07-2.95
		c0.38-0.78,0.38-1.53,0.13-2.19c0.11-1.07,0.31-2.12,0.6-3.12c0.86-2.96-5.37-4.76-6.22-1.8c-0.46,1.58-0.73,3.23-0.87,4.89
		c-7.49,12.06-33.6,19.08-24.02-4.03c1.44-3.34-5.67-5.39-6.67-2.47c-0.66,1.94-1.14,3.75-1.46,5.43c-0.22,0.19-0.39,0.42-0.5,0.72
		c-3.89,6.51-12.22,10.74-19.86,10.95c-7.71,0.2-4.09-8.16-5.26-14.39c-1.62-8.77-8.99-7.12-15.28-12.14
		c-4.33-3.44-9.9,4.64-5.99,7.12c3.38,2.14,4.86,4.13,0.62,10.16C304.74,344.22,304.72,344.26,304.69,344.3L304.69,344.3z
		 M261.49,351.54c-0.52,0.48-2.16,1.9-3,2.21c-2.13-1-0.95-10.98,4.55-11.39c2.32-0.17,4.48,2.85,4.44,2.96
		C265.66,347.45,263.59,349.65,261.49,351.54L261.49,351.54z M272.16,339.39c-1.48-4.64-1.86-9.77-0.65-14.52
		c1.57-6.13,6.88-7.36,8.49-4.92C282.89,324.36,274.7,335.92,272.16,339.39L272.16,339.39z M358.25,330.69
		c4.63,1.58,7.63-6.32,2.82-8.02C356.33,320.99,353.36,328.95,358.25,330.69L358.25,330.69z M440.81,327.14
		c6.12-10.91,16.64-8.81,8.53,1.89c-2.85,3.76-7.74,6.79-12.38,8.91C437.81,334.17,439.06,330.21,440.81,327.14L440.81,327.14z
		 M485.75,330.69c4.63,1.58,7.63-6.32,2.82-8.02C483.83,320.99,480.86,328.95,485.75,330.69L485.75,330.69z M561.42,347.85
		c0.81-1.08,1.91-2.35,1.77-3.39c1.87-2.09,4.93-3.26,7.66-1.69c-1.25,2.83-2.89,5.54-5.03,7.75
		C562.66,353.83,560.53,351.42,561.42,347.85L561.42,347.85z M573.67,367.44c-1.86,16.07-12.43,12.32-11.56,6.81
		c0.68-4.67,7.87-8.43,11.86-9.95C573.91,365.34,573.81,366.41,573.67,367.44L573.67,367.44z"/>
	<path d="M339.5,387.73c-1.02,5.02-2.15,9.94-3.18,14.96l-6.66,32.69c-0.1,0.51-0.2,1.13-0.61,1.54c-1.95,0.41-4-0.21-5.94,0.92
		c-0.92,0.83-2,5.73-0.21,6.15l6.25-0.1c1.03,0,1.95,0.1,2.87,0.1c2.36-0.1,4.61-0.2,6.97-0.31c0.82,0.1,1.74,0.1,2.66,0
		c1.43-1.33,1.54-3.28,2.05-5.12c-0.21-0.41-0.41-0.72-0.51-0.92c-0.79-0.93-3.52-0.44-4.61-0.72c0-2.12,0.61-4.05,0.82-5.96
		c0-0.31,0.2-0.61,0.31-0.92l12.2-0.29c0.2,0,0.41,0,0.61,0.29l1.03,6.47c-0.49,0.49-2.36,0.31-3.28,0.31
		c-0.61,0-1.13,0.1-1.74,0.72c-0.1,1.74,0,3.59,0.1,5.43c0.41,0.31,0.72,0.51,0.92,0.72c5.61,0,10.83,0,16.4,0
		c0.82,0,1.64,0,2.46-0.72c0-1.95,0.82-3.89,0.41-5.94c-0.31-0.1-0.62-0.41-0.92-0.61c-1.64,0-3.18,0.1-4.82,0.1
		c-0.1-0.31-0.31-0.61-0.41-0.92c-2.15-11.27-4.41-22.55-6.76-33.72c-0.92-4.61-1.74-9.33-2.77-13.94
		c-0.92-4.41-2.05-10.04-2.87-13.63c-0.33-1.78-0.48-2.27-2.46-2.36c-6.48-0.29-7.19,0.31-12.71,0.31
		c-0.72,0.72-0.72,0.72-0.82,1.43c0,1.64,0,3.38,0,5.02c0,2.28,3.85,0.92,5.64,0.92c0.31,0,0.61,0.1,0.92,0.1
		C340.32,382.3,340.01,385.27,339.5,387.73L339.5,387.73z M347.18,399.82l2.87,16.6c0.31,1.84,0.72,3.69,1.02,5.64
		c-0.31,0.1-0.61,0.2-0.82,0.2c-3.07,0-6.15,0-9.12,0c-0.31-1.85,4.18-23.19,4.51-27.47c0-0.2,0.2-0.31,0.41-0.82
		C346.77,396.14,346.88,397.98,347.18,399.82L347.18,399.82z M381.83,443.59c0.1,0,0.2,0,0.31-0.1l23.88,0.2
		c1.8-0.15,2.15-0.74,2.15-2.46c0.06-4.38,0.56-12.74,0.31-16.71c-1.28-0.85-0.23-0.72-2.25-0.72c-2.59,0-3.69,0.28-3.69,2.15
		c0,2.31-0.5,8.9-3.28,9.74c-2.38,0.71-5.54,1.25-5.84-1.84c-0.3-3.04-0.13-6.21-0.1-9.22l0.1-22.44c0.21-6.87,0.31-13.84,0.31-20.7
		c0-0.31,0.1-0.72,0.2-1.13l3.38-0.2c0.85,0,2.93,0.64,3.89-0.41c0.72-1.03,0.72-1.03,0.72-1.95c-0.1-1.64-0.2-3.28-0.41-4.82
		c-0.2-0.41-0.41-0.72-0.61-1.13c-0.7-0.64-3.56,0-4.41,0c-2.01,0-17.57,0.21-18.24-0.2c-0.4-0.25-1.43,0.82-1.43,0.82
		c0,0.01-1.06,5.77,0.21,6.87c0.51,0.44,1.33,0.27,1.74,0.31c1.12,0.11,0.89,0.31,2.66,0.31l2.66,0.2c0,0.31,0.1,0.51,0.1,0.72
		c0.1,2.56,0.2,5.12,0.2,7.6c0.02,2.96,0.28,21.99,0,23.42c-0.2,1.02-0.2,2.15-0.2,3.28c-0.41,5.65-0.41,11.39-0.41,17.05
		c0,5.79-7.38,0.67-7.38,5.53c0,1.23,0,2.66,0,4.1c0,0.51,0.21,0.92,0.82,1.43C378.75,443.38,380.29,443.48,381.83,443.59
		L381.83,443.59z M429.59,369.39c-1.84,0-4.2,1.43-5.74,2.36c-1.95,1.33-3.38,3.18-4.2,5.43c-1.02,2.66-2.15,8.2-2.15,11.17
		c0.09,1.96-0.31,3.42-0.31,4.82l-0.1,26.85c0,8.1,0.1,19.37,9.33,22.55c0.58,0.1,2.48,0.96,4.51,0.92c2.31-0.05,6.45-1.06,8.3-2.66
		c5.74-5.74,6.25-13.02,6.56-20.7l0.31-10.15c0-1.02,0.2-2.15,0.2-3.18c0.09-9.63,0.03-13.92-1.54-23.16
		c-1.13-5.94-3.69-12.4-10.25-13.84c-1.13-0.2-2.36-0.41-3.48-0.61C430.52,369.28,430,369.39,429.59,369.39L429.59,369.39z
		 M433.18,375.43c3.48,1.04,3.19,6.35,3.69,9.22c0.51,2.95,0.31,12.37,0.31,15.78c0,4.71-0.1,9.33-0.1,13.94
		c-0.1,0.51-0.1,0.92-0.1,1.43c0,1.84,0.21,3.59-0.2,5.33l-0.82,11.99c-0.32,1.75-2.52,4.1-4.41,4.1c-2.36,0-4.51-2.46-5.02-4.61
		c-1.02-3.07-1.13-8.2-1.13-11.38c-0.1-3.07-0.1-6.15,0.1-9.22c0.1-0.82,0.1-1.74,0.1-2.56c0-5.59-0.11-21.23,0.51-26.03
		c0.51-3.48,1.02-6.05,4.41-7.99C431.44,375.43,432.36,375.43,433.18,375.43L433.18,375.43z M455.02,441.95c0,0.41,0,0.92,0.51,1.23
		c1.74,0.64,14.24,0.51,16.5,0.51c1.13,0,2.15-0.31,3.18-0.41c1.23-1.74,0.82-3.59,0.82-5.53l-0.62-0.61
		c-0.65-0.27-5.69,0.51-5.94-0.41c-0.54-1.95-0.41-30.47-0.41-34.98l4.61,12.26l4.92,14.23c0.82,2.87,1.64,6.15,2.46,8.9
		c0.39,1.28,1.49,6.36,2.36,6.56l12.71-0.1c0.41,0,0.72,0,1.02-0.41c0.51-2.05,0.41-4.2,0.41-6.25c-0.3-1.1-3.66-0.34-6.56-0.82
		c0-0.51,0-0.92-0.1-1.32l-0.1-30.51c-0.01-4.52-0.58-22.93,0-25.26c2.22-0.56,6.53,0.92,6.66-1.13c0.08-1.16,0.82-5.37-0.82-5.84
		c-1.25-0.36-18.54,0.51-19.27,0.92l-0.41,0.41c-0.2,1.95-0.1,3.69,0,5.53c0,0.31,0.31,0.61,0.51,0.92l5.84-0.31
		c0.2,0.72,0.2,1.33,0.1,1.83l-0.21,29.28c0,0.62,0.1,1.23-0.2,1.84l-7.17-19.97c-2.05-6.03-4.1-11.96-6.05-18
		c-0.31-0.72-0.61-1.54-1.23-2.05c-2.46,0-5.02-0.2-7.48-0.41c-1.2-0.2-4.24-0.24-4.82,1.02c-0.15,0.32-1.51,6.52,0.62,7.07
		c1.12,0.29,4.14-0.98,5.12,0v1.73c-0.31,14.95-0.31,29.79-0.31,44.72v9.12c0,0.39,0.1,0.91-0.51,1.42h-5.02
		c-0.41,0.2-0.72,0.41-1.02,0.61C454.81,439.18,454.91,440.51,455.02,441.95L455.02,441.95z M523.38,433.03
		c-0.12-4.69-0.34-16.34,0.2-21.11c0.1-0.61,0.2-1.23,0.92-1.64c2.05,0,3.28,0.31,3.59,2.77l0.41,5.74
		c0.97,0.73,0.86,1.13,2.97,1.13c0.72,0,1.03-0.2,1.74-0.72c0.1-0.61,0.31-1.23,0.31-1.95v-21.01c-0.51-0.82-1.23-0.92-1.95-1.13
		c-0.61,0.2-1.33,0.31-1.84,0.41c-0.61,0.51-0.61,1.13-0.51,1.64c0,1.33-0.31,2.56-0.51,3.89c-0.31,1.43-0.92,2.66-2.56,3.28h-2.05
		c-0.31-0.2-0.62-0.51-0.92-0.72c-0.33-3.63-0.16-6.03-0.2-9.63c-0.1-4.61-0.1-9.12-0.1-13.73c0-1.48,0.11-1.13,3.18-1.13
		c2.25,0,3.74,0.07,4.92,2.66c0.72,1.33,1.23,5.94,1.23,7.38c-0.14,1.98,1.19,2.25,2.97,2.25c1.93,0,2.97,0.07,2.97-1.33
		l-0.51-17.73c-0.33-0.9-4.28-0.82-5.02-0.82c-3.48,0-6.97,0-10.45,0c-0.92,0-1.74,0.2-2.66,0.2l-9.94,0.1
		c-2.95,0.36-2.97,1.82-2.97,5.84c0,2.5,1.6,2.15,2.97,2.15c1.94,0,3.8-0.61,4.82-0.1l-0.41,53.81c0,2.07-0.2,1.46-4.3,1.84
		c-2.4,0.23-2.07,0.08-3.48,1.02c0,2.15-0.1,4.3,0.2,6.25c0.61,0.72,1.33,0.82,2.05,0.82h11.89c2.77-0.41,5.43-0.41,8.2-0.41
		s5.43-0.1,8.2-0.2c1.13-0.16,1.4-0.6,1.43-1.74l0.41-16.71c-0.1-0.31-0.2-0.61-0.31-1.02c-1.59-0.53-2.45-0.2-3.79-0.2
		c-1.74,0-1.95,1.43-1.95,2.77c0,2.36-0.51,7.99-3.18,9.02c-1.95,0-3.79,0-5.64,0C523.17,434.26,523.38,433.65,523.38,433.03
		L523.38,433.03z"/>
	<path d="M335.93,484.16c-8.25,11.64-33.13,17.83-23.69-4.97c1.46-3.37-5.73-5.45-6.74-2.49c-9.1,26.77,15.14,29.36,30.32,17.02
		c0.31,6.98,1.97,20.32,9.86,19.05c7.14-1.14,9.07-10.48,7.2-17.16c11.97,5.64,26.89,2.83,34.68-8.38c2.96-4.24-3.55-7.2-5.01-4.42
		c-7.37,10.44-20.84,11.72-35.62,2.96c4.11-3.23,7.79-7.16,11.03-11.27c14.86-18.85-6.66-32.14-16.14-14.51
		C338.21,466.71,336.48,475.89,335.93,484.16L335.93,484.16z M311.3,470.99c4.69,1.6,7.72-6.39,2.85-8.11
		C309.36,461.19,306.36,469.23,311.3,470.99L311.3,470.99z M347.59,463.1c5.18-9.53,13.9-3.71,5.18,7.37
		c-2.89,3.73-6.22,7.27-9.94,10.2C343.51,474.61,344.94,468.07,347.59,463.1L347.59,463.1z M344.94,506.2
		c-1.98-2.67-2.6-11.74-2.64-14.96C348.35,495.1,347.79,504.81,344.94,506.2L344.94,506.2z M465.1,482.71
		c-10.82,16.84-42.96,22.86-31.41-8.69c8.91,2.78,16.44,2.68,23.83-4.27c2.26-2.13-2.23-6.92-4.52-4.77
		c-5.35,5.08-10.72,4.77-16.8,2.96c1.66-3.48,3.82-6.6,6.15-9.59c1.95-2.47-3.34-6.72-5.25-4.29c-2.81,3.62-5.22,7.62-7.17,11.79
		c-9.83-3.33-16.69-2.88-21.98,7.52c-1.42,2.79,4.45,5.71,5.84,2.96c3.3-6.53,7.16-6.53,13.67-4.42
		c-12.62,32.45,18.47,38.58,37.91,20.59c0.06,2.88,0.4,5.6,1.19,7.55c1.38,3.43,5.24,3.39,6.58,0.52c9.07-19.38,5.32-1.1,20.77,0.84
		c8.88,1.13,16.08-2.68,21.9-8.21c2.7,7.11,9.76,9.61,16.99,9.74c11.37,0.2,24.01-6.92,30.3-16.22c2.54-3.16-3.76-6.85-5.26-3.89
		c-5.73,9.36-23.02,18.19-33.01,11.37c6.41-2.51,13.43-8.14,11.52-15.48c-2.02-7.86-13.12-8.87-18.93,0.49
		c-0.89,1.43-1.55,2.96-1.99,4.55c-3.99,5.55-12.38,12.24-21.11,11.15c-5.71-0.74-7.73-7.44-11.97-9.84
		c-4.35-2.46-7.98,0.95-10.4,4.31c0.11-2.09,0.31-4.22,0.59-6.26c6.99-1.67,14.93-5.26,19.31-10.76
		c8.44-10.59,2.98-20.54-5.88-20.62c-6.16-0.07-11.07,4.52-13.95,9.43c-3.32,5.64-5.14,14.09-6,20.72
		C465.63,481.99,465.31,482.26,465.1,482.71L465.1,482.71z M521.41,486.9c1.23-1.59,0.75-2.32,0.78-2.71
		c2.49-5.95,8.54-6.61,7.86-2.65c-0.63,3.41-5.43,5.84-8.63,6.96C521.36,487.97,521.35,487.43,521.41,486.9L521.41,486.9z
		 M477.72,464.74c6.36-10.87,17.03-6.85,8.87,3.34c-2.89,3.66-7.97,6.19-12.76,7.72C474.67,471.93,475.95,467.76,477.72,464.74
		L477.72,464.74z"/>
	<path d="M334.35,528.95l0.62,51.35c0,0.41-0.1,0.72-0.1,1.13l-1.84,0.1c-1.64,0-3.28,0.31-5.02,0.41c-1.8,0.05-2.04,1.91-1.74,3.07
		c0.54,2.07-0.14,3.05,0,3.59c0.45,1.69,4.3,0.74,5.74,1.13c1.02,0.2,1.95,0.2,2.97,0.2c3.07-0.2,6.25-0.31,9.33-0.31
		c1.74,0,3.48-0.31,5.12-0.51c3.18-0.61,5.84-2.05,8.3-4c3.28-2.25,5.53-8.61,6.66-12.3c0.68-2.44,1.27-12.68,1.33-15.48
		c0-1.54-0.1-3.18-0.2-4.71c-0.18-5.25,0.26-4.99-0.72-10.56c-1.13-8.2-4.82-18.86-13.12-22.44c-1.54-0.61-2.77-1.02-4.41-1.02
		c-2.87,0-5.74,0-8.51,0c-2.89,0-3.14-0.41-5.74-0.31c-1.3,0.05-5.29,0.21-6.35,0.82c-0.62,3.89-0.72,5.74-0.2,7.28
		c0.81,1.21,7,0.27,7.58,0.72C334.45,527.72,334.35,528.34,334.35,528.95L334.35,528.95z M343.67,580.09l-0.1-20.19
		c0.5-4.1,0.1-1.78,0.1-4.51c0-4.2-0.31-8.3,0.1-12.4c0-0.51-0.1-1.13-0.1-1.64c0-3.65,0.51-8.16,0.1-11.58
		c-0.39-2.12,0.24-2.21,0.61-2.97c0.41-0.1,0.72-0.1,1.13-0.1c8.4,0,9.53,14.04,9.94,20.5c0.21,2.36,0.61,4.71,0.61,7.17
		c0.2,2.77,0.2,5.53,0,8.3c-0.2,3.38-0.61,6.87-1.33,10.15c-0.72,2.77-2.36,5.43-4.92,6.87c-2.36,1.33-2.66,1.43-5.84,1.43
		C343.88,580.71,343.67,580.4,343.67,580.09L343.67,580.09z M385.2,515.83c-1.84,0-4.2,1.43-5.74,2.36
		c-1.95,1.33-3.38,3.18-4.2,5.43c-1.03,2.66-2.15,8.2-2.15,11.17c0.09,1.96-0.31,3.42-0.31,4.82l-0.1,26.85
		c0,8.1,0.1,19.37,9.33,22.55c0.58,0.1,2.48,0.96,4.51,0.92c2.31-0.05,6.45-1.06,8.3-2.66c5.74-5.74,6.25-13.02,6.56-20.7
		l0.31-10.15c0-1.02,0.2-2.15,0.2-3.18c0.09-9.63,0.03-13.92-1.54-23.16c-1.13-5.94-3.69-12.4-10.25-13.84
		c-1.13-0.2-2.36-0.41-3.48-0.61C386.12,515.73,385.61,515.83,385.2,515.83L385.2,515.83z M388.79,521.88
		c3.48,1.04,3.19,6.35,3.69,9.22c0.51,2.95,0.31,12.37,0.31,15.78c0,4.71-0.1,9.33-0.1,13.94c-0.42,2.11,0.25,4.4-0.31,6.76
		l-0.82,11.99c-0.32,1.75-2.52,4.1-4.41,4.1c-2.36,0-4.51-2.46-5.02-4.61c-1.03-3.07-1.13-8.2-1.13-11.38
		c-0.1-3.07-0.1-6.15,0.1-9.22c0.1-0.82,0.1-1.74,0.1-2.56c0-5.59-0.11-21.23,0.51-26.03c0.51-3.48,1.02-6.05,4.41-7.99
		C387.04,521.88,387.97,521.88,388.79,521.88L388.79,521.88z M423.44,582.04c-0.92-1.02-1.74-2.25-2.05-3.69
		c-1.02-5.23-2.05-10.15-2.15-15.48c-0.1-4,0-7.89,0-11.89c0.1-1.95,0.31-3.89,0.31-5.94c0.1-3.79,0.31-7.58,0.72-11.38
		c1.61-15.31,11.07-13.52,11.07-7.48c0,1.09-0.09,8.66,0.21,9.22c0.45,0.86,4.97,1.17,6.46,0.1c0-0.31,0.2-0.72,0.2-1.03v-17.63
		c0-1.67-1.47-1.43-2.97-1.43c-0.77,0-3.73-0.09-4.1,0.92c0,0.51-0.1,1.13-0.1,1.84c-1.97-0.98-2.52-1.64-4.92-1.64
		c-7.17,0-11.99,7.28-13.63,13.43c-1.4,5.13-2.46,17.36-2.46,22.85l0.72,14.55c0.41,8.2,3.79,18.76,11.89,22.44
		c1.13,0.51,1.84,0.72,3.07,0.72c2.15-0.41,4.1-1.13,5.64-2.87c0.21-0.31,0.31-0.72,0.82-0.62c1.26,1.9-2.29,4.46,6.25,2.77
		c1.97-0.39,0.81-4.37,0.92-7.17v-23.26c0-0.31,0.1-0.61,0.1-0.92c2.01-0.5,4.07,0.77,4.2-2.56c0.18-4.75,1.4-4.7-9.12-4.51
		c-2.87,0.1-5.64,0.31-8.51,0.41c-0.61,0-1.23,0.2-1.74,0.72c-0.62,1.84-0.82,3.69-0.62,5.74c0.31,0.2,0.62,0.41,0.82,0.51
		c0.68,0.16,7.79-0.23,7.79,0.1c0.31,0,0.31,0.72,0.31,0.92c0,3.18,0,6.35,0,9.43c0,1.98-0.74,5.64-0.72,6.66
		c0.1,2.15-0.72,4.1-1.74,5.94c-0.72,1.13-1.54,1.84-3.18,2.05C425.6,583.58,424.37,583.07,423.44,582.04L423.44,582.04z
		 M480.55,527.62l-0.41,52.78c0,0.41,0.1,0.92-0.41,1.43c-2.15,0-4.3,0.1-6.56,0.62c-0.2,0.2-0.51,0.51-0.72,0.72
		c-0.21,2.66-0.1,4.92,0.21,6.05c0.2,0,0.41,0.1,0.61,0.1c4.47,0.1,21.1,0.64,23.78,0.1c0.2-0.31,0.41-0.51,0.41-0.82
		c0.06-2.2,0.77-5.91-0.51-6.56c-2.34-1.19-2.79,0.3-7.38-0.72c0-0.51,0-0.92,0-1.43c-0.21-10.76,0-21.52-0.31-32.18
		c-0.21-6.76-0.21-13.63-0.21-20.39c0-1.19,0.39-1.03,1.95-1.03c1.93,0,5.68,0.42,6.46-0.92c0.62-1.74-0.2-3.59,0.41-5.33
		c-0.25-0.5-0.27-1.13-0.92-1.13l-7.89-0.2l-14.14-0.1c-2.95,0.15-2.05,6.76-2.05,6.76c0.41,0.61,0.82,1.02,1.54,1.23
		c2.05-0.31,4.1-0.31,6.15-0.31C480.55,526.9,480.55,527.31,480.55,527.62L480.55,527.62z M525.04,520.45
		c-1.43-1.03-4-1.95-5.84-1.95c-4.61,0-11.58,4.82-12.61,9.51c-0.69,3.3-1.06,7.18,0.1,10.44c1.84,4.82,4.3,9.02,7.38,13.1
		c2.87,3.59,9.33,12.38,10.35,16.89c1.25,5.49,2.12,7.49,0.61,12.69c-1.12,3.88-6.36,3.22-6.76,3.06
		c-4.71-3.16-5.23-9.31-5.23-14.42c-0.1-1.64,0-3.28,0-5.12c-0.21-0.31-0.51-0.82-0.72-1.33c-0.71-0.31-4.86-2.04-5.53-0.92
		c-1.1,1.83-0.13,19.44-0.61,21.59c-0.31,1.54-0.31,3.07-0.31,4.61c0,0.41,0.2,0.72,0.31,1.13c0.31,0.1,0.61,0.41,1.02,0.41
		c7.3,0,4.43-0.97,5.23-3.89c1.61,1.21,2.35,2.41,5.43,3.28c1.64,0.41,3.38,0.2,5.12,0.61c0.1,0,0.21-0.1,0.31-0.1
		c2.82-0.18,6.11-1.65,7.69-4.2c2.18-3.53,3.48-7.37,3.48-11.46c0-5.11-1.33-10.33-4.1-14.72c-1.7-2.8-2.38-4.58-4.41-7.48
		c-2.46-3.38-4.92-6.75-7.48-10.13c-1.64-2.15-2.66-4.71-3.38-7.26c-0.92-3.07-0.62-5.94,0.51-8.81c1.76-4.43,9.53-6.81,9.53,8.2
		l0.1,4.59c0.48,1.51,5.45,0.69,6.15,0.51c0.17-0.51,0.55-0.84,0.51-1.74l-0.41-17.7c0-2.54-2.48-1.77-4.61-1.64
		c-1.35,0.08-1.33,1.32-1.33,2.46C525.35,520.55,525.15,520.55,525.04,520.45L525.04,520.45z"/>
	<path d="M371.01,625.47c-3.7,6.04-13.22,14.36-23.16,13.12c-6.02-0.78-8.14-7.84-12.61-10.37c-4.59-2.59-8.41,1-10.96,4.54
		c0.11-2.2,0.33-4.44,0.63-6.59c7.37-1.76,15.72-5.54,20.34-11.33c8.89-11.16,3.14-21.64-6.19-21.73
		c-6.49-0.08-11.66,4.77-14.7,9.93c-7.06,11.99-11.16,47.58-0.78,43.43c0.95-0.38,1.54-1.03,1.95-1.91
		c9.56-20.42,5.6-1.16,21.88,0.89c9.56,1.21,17.27-3,23.47-9.04c2.84,12.3,17.04,13.33,22.77,4.86c10.72,4.52,23.73,3.67,33.5-5.83
		c0.34,3.63,1.02,7.03,2.01,9.31c1.03,2.45,6.04,1.58,6.55-0.66c0.63-2.89,5.43-15.42,8.39-16.49c1.18,5.53,0.89,10.77,1.33,16.28
		c0.25,3,6.4,3.04,6.89,0.1c0.48-3.22,6.19-11.87,8.36-13.92c1.43,7.77,2.81,15.21,12.9,15.54c6.17,0.21,12.81-4.09,17.79-8.79
		c2.84,7.49,10.28,10.13,17.9,10.27c11.98,0.21,25.29-7.29,31.92-17.09c2.68-3.33-3.97-7.22-5.54-4.1
		c-6.04,9.86-24.26,19.16-34.78,11.98c6.75-2.65,14.15-8.57,12.13-16.31c-2.13-8.28-13.82-9.34-19.94,0.51
		c-1.01,1.63-1.75,3.38-2.2,5.19c-4.52,6.82-20.15,20.35-22.25,4.53c-1.9-14.7-10.45-11.18-17.15-1.1c-0.51-4.14-1.43-11-5.72-11.36
		c-6-0.55-10.37,8.94-11.87,13.09c-0.3-1.91,0.04-6.61,0.95-10.01c0.81-2.96-6.04-4.62-6.93-1.46c-0.31,1.05-0.54,2.3-0.71,3.67
		c-0.41,0.17-0.74,0.48-0.94,0.95c-4.9,8.61-18.9,16.12-30.16,9.9c1.1-5.13,0.4-11.83-3.08-15.76c-5.53-6.15-13.45-3.08-13.81,3.74
		c-0.48-0.7-5.03-3.48-6.42-0.95c-0.38,0.71-0.72,1.44-1.01,2.2C371.5,624.85,371.23,625.12,371.01,625.47L371.01,625.47z
		 M330.37,606.82c6.7-11.45,17.94-7.21,9.34,3.52c-3.04,3.85-8.39,6.52-13.45,8.13C327.15,614.4,328.5,610.01,330.37,606.82
		L330.37,606.82z M379.29,624.92c0.51,4.88,4.18,10.16,8.66,13.27C382.56,644.48,373.21,636.58,379.29,624.92L379.29,624.92z
		 M390.25,632.06c-2.64-2.23-4.98-6.34-4.39-8.64C386.3,621.8,390.76,624.69,390.25,632.06L390.25,632.06z M497.33,629.99
		c1.47-2.14,0.78-1.95,0.8-2.7c2.63-6.24,8.99-6.93,8.27-2.77c-0.66,3.59-5.72,6.15-9.09,7.33
		C497.25,631.23,497.24,630.6,497.33,629.99L497.33,629.99z"/>
</g>
</svg>
