<?xml version="1.0" encoding="utf-8"?>
<!-- Generator: Adobe Illustrator 24.3.0, SVG Export Plug-In . SVG Version: 6.00 Build 0)  -->
<svg version="1.1" id="Layer_1" xmlns="http://www.w3.org/2000/svg" xmlns:xlink="http://www.w3.org/1999/xlink" x="0px" y="0px"
	 viewBox="0 0 864 864" style="enable-background:new 0 0 864 864;" xml:space="preserve">
<style type="text/css">
	.st0{fill-rule:evenodd;clip-rule:evenodd;}
</style>
<g>
	<path class="st0" d="M181.07,378.46h-19.99c-6.83,0-12.05-0.8-16.47,0c-4.02,0.8-4.82,4.42-1.61,6.43
		c2.41,1.61,3.21,2.41,3.61,5.22v111.26c0,11.25,0.8,12.45-3.61,15.26c-3.21,2.01-2.41,5.62,1.61,6.43c4.42,0.8,9.64,0,16.47,0
		c5.22,0,9.24,0.4,12.85,0c4.02-0.8,4.82-4.42,1.61-6.43c-4.42-2.81-3.61-4.02-3.61-15.26v-30.93c0-7.23,0-7.23,7.23-7.23h14.86
		c6.83,0,10.85,0,19.68-8.84c8.84-8.84,8.84-10.44,8.84-20.08v-26.91c0-3.21,0-5.48-0.33-7.43c-4.83,2.23-10.1,3.5-15.81,3.5
		C190.09,403.45,182.97,392.18,181.07,378.46L181.07,378.46z M171.92,430.67v-23.7c0-2.01,0.8-2.81,3.21-3.21h18.88
		c2.01,0.4,2.81,1.2,3.21,3.21v27.71c-0.4,3.21-2.01,3.21-7.23,3.21h-10.84C171.92,437.9,171.92,437.9,171.92,430.67L171.92,430.67z
		 M284.79,463.61c11.25,0,12.45-0.8,15.26,3.62c2.01,3.21,5.62,2.01,6.43-1.61c0.8-4.42,0-9.64,0-16.47c0-5.22,0.4-9.64,0-12.85
		c-0.8-4.02-4.42-5.22-6.43-1.61c-2.81,4.02-4.02,3.62-15.26,3.62h-14.06c-7.23,0-7.23,0-7.23-7.23v-20.08c0-7.23,0-7.23,7.23-7.23
		h25.31c2.41,0.4,3.61,1.2,4.82,3.62c1.61,3.21,5.62,2.41,6.83-1.61c3.21-12.45,5.22-18.88,6.43-23.3c0.8-2.41,1.21-4.42-1.2-4.42
		c-4.42,0-10.04,0.4-16.87,0.4h-43.38c-2.61,0-4.98-0.12-7.16-0.22c-2.33,3.57-4.9,6.95-7.72,10.01c0.18,0.51,0.32,1.12,0.43,1.86
		v111.26c0,11.25,0.8,12.45-3.61,15.26c-3.21,2.01-2.01,5.62,1.61,6.43c4.42,0.8,9.64,0,16.47,0h43.38c6.83,0,12.45,0.4,16.87,0.4
		c2.41,0,2.01-2.41,1.2-4.42c-2.01-6.43-4.42-15.26-6.43-23.3c-1.21-4.02-5.22-4.82-6.83-1.61c-1.21,2.41-2.41,3.62-4.82,3.62
		h-25.31c-5.62,0-6.83,0-7.23-3.21v-23.7c0-5.22,0-6.83,3.21-7.23H284.79L284.79,463.61z M387.62,403.76c12.05,0,12.45,0,16.47,4.42
		c2.41,2.81,5.62,0.8,6.03-3.21c0.4-4.42,0.4-13.26,0.4-19.68c0-7.23-0.8-6.83-4.82-6.83h-75.92c-4.02,0-4.82-0.4-4.82,6.83
		c0,6.43,0,15.26,0.4,19.68c0.4,4.02,3.61,6.03,6.03,3.21c4.02-4.42,4.42-4.42,16.47-4.42c5.22,0,6.83,0,7.23,3.21v104.84
		c-0.4,2.41-1.21,3.21-3.61,4.82c-3.21,2.01-2.41,5.62,1.61,6.43c4.42,0.8,9.24,0,16.47,0c5.22,0,9.24,0.4,12.85,0
		c4.02-0.8,4.82-4.42,1.61-6.43c-4.42-2.81-3.61-4.02-3.61-15.26v-94.39C380.79,403.76,382,403.76,387.62,403.76L387.62,403.76z
		 M492.05,501.37c0.8-2.81,2.01-2.81,7.63-2.81h19.68c2.01,0.4,2.81,0.8,3.62,2.81l2.01,11.25c0,2.01-0.8,2.81-2.81,4.02
		c-2.81,2.01-1.21,5.62,2.81,6.43c4.42,0.8,9.64,0,16.47,0c5.22,0,9.64,0.4,12.85,0c3.62-0.8,4.02-4.42,0.4-6.43
		c-4.82-2.81-4.42-4.02-6.43-15.26c-18.08-102.83-18.48-104.03-19.28-110.06c-0.4-3.21,0-4.42,2.41-6.43
		c2.81-2.01,1.21-5.62-2.81-6.43c-4.42-0.8-9.24,0-16.47,0h-9.24c-6.83,0-12.05-0.8-16.47,0c-4.02,0.8-5.62,4.42-2.81,6.43
		c2.01,1.61,2.81,2.41,2.81,4.42l-19.68,112.07l-1.61,9.24c-0.8,3.21-2.01,4.42-4.82,6.02c-3.61,2.01-3.21,5.62,0.8,6.43
		c4.02,0.8,9.24,0,16.47,0c4.82,0,8.84,0.4,12.85,0c3.61-0.8,5.62-4.42,2.41-6.43c-2.01-1.2-2.81-2.41-2.81-4.82L492.05,501.37
		L492.05,501.37z M509.33,421.84l7.63,45.79c0.8,4.42-1.2,5.62-5.22,5.62h-10.04c-3.21-0.4-4.42-2.01-3.21-7.23l7.63-44.18
		C507.32,415.41,508.12,415.41,509.33,421.84L509.33,421.84z M571.99,501.37c0,11.25,0.4,12.45-3.61,15.26
		c-3.21,2.01-2.41,5.62,1.61,6.43c4.42,0.8,9.24,0,16.47,0h34.95c7.23,0,12.45,0.4,16.87,0.4c1.61,0,2.01-1.61,1.61-3.21l-0.8-2.41
		c-2.41-9.64-4.82-18.08-6.03-22.09c-1.21-4.02-5.22-4.82-6.43-1.61c-1.2,2.41-2.41,3.62-4.82,3.62h-17.27c-7.23,0-7.23,0-7.23-7.23
		v-90.38c0-11.25-0.8-12.45,3.61-15.26c3.21-2.01,2.01-5.62-1.61-6.43c-4.42-0.8-9.64,0-16.47,0c-5.22,0-9.24-0.4-12.85,0
		c-4.02,0.8-4.82,4.42-1.61,6.43c2.41,2.01,3.21,2.81,3.61,6.43V501.37L571.99,501.37z M653.93,501.37c0,11.25,0.4,12.45-3.61,15.26
		c-3.21,2.01-2.41,5.62,1.61,6.43c4.42,0.8,9.24,0,16.47,0h34.95c7.23,0,12.45,0.4,16.87,0.4c1.61,0,2.01-1.61,1.61-3.21l-0.8-2.41
		c-2.41-9.64-4.82-18.08-6.03-22.09c-1.2-4.02-5.22-4.82-6.43-1.61c-1.2,2.41-2.41,3.62-4.82,3.62h-17.27c-7.23,0-7.23,0-7.23-7.23
		v-90.38c0-11.25-0.8-12.45,3.62-15.26c3.21-2.01,2.01-5.62-1.61-6.43c-4.42-0.8-9.64,0-16.47,0c-5.22,0-9.24-0.4-12.85,0
		c-4.02,0.8-4.82,4.42-1.61,6.43c2.41,2.01,3.21,2.81,3.61,6.43V501.37L653.93,501.37z"/>
	<path d="M761.89,510.68c3.21,0.61,6.29-1.87,6.29-5.28c0-2.6-1.87-4.88-4.47-5.32c-1.34-0.24-2.48-0.45-3.33-0.61
		c-5.16-0.9-9.99-1.83-11.29-2.07c-2.52-0.53-5.08-1.42-7.6-1.42c-2.84,0-5.32,2.4-5.32,5.48c0,2.56,1.87,4.84,4.51,5.36
		c0.41,0.04,0.81,0.12,1.26,0.2c5.6,1.06,11.17,2.07,16.77,3.09C759.77,510.27,760.83,510.48,761.89,510.68L761.89,510.68
		L761.89,510.68z M780.2,485.74c3.29,0.28,6.17-2.23,6.17-5.57c0-2.84-2.11-5.28-4.99-5.57c-1.06-0.08-2.16-0.2-3.25-0.28
		c-0.41-0.04-11.17-1.02-15.07-1.34c-5.36-0.4-10.44-0.94-11.78-1.09c-3.17-0.37-6.38-0.94-9.59-0.94c-3.01,0-5.52,2.48-5.52,5.65
		c0,2.76,2.03,5.24,4.87,5.52l3.82,0.33c5.85,0.53,11.66,1.1,17.51,1.58C768.3,484.52,774.27,485.13,780.2,485.74L780.2,485.74
		L780.2,485.74z M783.74,456.38c6.38,0,12.75-0.04,19.17-0.04h3.78c3.05,0,5.44-2.56,5.44-5.6c0-3.04-2.52-5.56-5.56-5.56
		c-3.04,0-6.05,0-9.06,0.08c-6.58,0.16-13.12-0.08-19.7-0.08c-4.51,0-9.01-0.04-13.53-0.04c-6.42,0-12.79,0.08-19.17,0.08h-3.25
		c-3.13,0-5.69,2.48-5.69,5.56c0,3.13,2.56,5.61,5.69,5.61c2.88,0,5.77,0,8.65-0.08c6.41-0.16,12.88,0.08,19.33,0.08
		C771.11,456.38,783.17,456.38,783.74,456.38L783.74,456.38L783.74,456.38z M742.35,430.55c5.97-0.57,11.9-1.18,17.87-1.71
		c5.81-0.49,11.66-1.02,17.51-1.59c1.26-0.12,2.52-0.2,3.78-0.32c2.85-0.28,4.87-2.72,4.87-5.52c0-3.13-2.48-5.6-5.52-5.6
		c-3.17,0-6.38,0.52-9.59,0.89c-1.33,0.16-6.37,0.69-11.78,1.1c-3.86,0.32-14.66,1.3-15.07,1.34c-1.06,0.12-2.15,0.2-3.25,0.32
		c-2.88,0.24-5,2.68-5,5.53C736.18,428.35,739.1,430.83,742.35,430.55L742.35,430.55L742.35,430.55z M741.5,405.53
		c0.33,0,0.65-0.04,0.98-0.08c1.06-0.2,2.11-0.41,3.13-0.61c5.6-0.98,11.21-2.03,16.82-3.05c0.41-0.08,0.81-0.16,1.26-0.24
		c2.64-0.49,4.51-2.76,4.51-5.36c0-0.32-0.04-0.65-0.12-0.97c-0.45-2.56-2.68-4.47-5.2-4.47c-0.32,0-0.65,0.04-0.97,0.08
		c-2.19,0.44-4.43,0.85-6.62,1.34c-1.3,0.24-6.13,1.18-11.29,2.07c-0.85,0.16-2.03,0.37-3.33,0.61c-2.6,0.45-4.47,2.72-4.47,5.28
		c0,0.33,0.04,0.65,0.08,1.01C736.75,403.7,738.98,405.53,741.5,405.53L741.5,405.53L741.5,405.53z M102.94,510.77
		c0.32,0,0.65-0.04,0.98-0.08c1.05-0.2,2.11-0.41,3.13-0.57c5.61-1.02,11.21-2.03,16.81-3.09c0.41-0.08,0.85-0.16,1.26-0.24
		c2.64-0.49,4.51-2.76,4.51-5.36c0-0.32-0.04-0.65-0.08-0.97c-0.49-2.56-2.72-4.47-5.24-4.47c-0.33,0-0.61,0.04-0.94,0.08
		c-2.23,0.45-4.47,0.86-6.66,1.3c-1.3,0.29-6.13,1.22-11.29,2.11c-0.85,0.16-1.99,0.37-3.33,0.61c-2.6,0.45-4.47,2.72-4.47,5.28
		c0,0.32,0.04,0.65,0.08,0.97C98.18,508.94,100.42,510.77,102.94,510.77L102.94,510.77L102.94,510.77z M85.59,485.71
		c5.93-0.57,11.86-1.17,17.83-1.67c5.85-0.53,11.65-1.06,17.5-1.58l3.82-0.37c2.8-0.24,4.87-2.72,4.87-5.52
		c0-3.13-2.52-5.61-5.56-5.61c-3.17,0-6.38,0.57-9.54,0.93c-1.34,0.16-6.42,0.65-11.78,1.1c-3.9,0.29-14.7,1.3-15.07,1.34
		c-1.1,0.08-2.19,0.2-3.29,0.28c-2.84,0.29-4.99,2.72-4.99,5.57C79.38,483.52,82.3,486.03,85.59,485.71L85.59,485.71L85.59,485.71z
		 M82.02,456.39c0.57,0,12.67-0.04,13.93-0.04c6.42,0,12.87-0.2,19.33-0.04c2.88,0.08,5.77,0.08,8.65,0.08
		c3.09,0,5.68-2.48,5.68-5.61c0-3.09-2.6-5.57-5.68-5.57h-3.25c-6.42,0-12.8-0.08-19.17-0.08c-5.69,0-11.37,0.04-17.1,0.04
		c-5.36,0-10.76,0.2-16.13,0.04c-3.01-0.04-6.05-0.04-9.06-0.04c-3.09,0-5.57,2.48-5.57,5.56c0,3.04,2.4,5.6,5.44,5.6h3.78
		c6.37,0,12.75,0.04,19.17,0.04H82.02L82.02,456.39z M123.4,430.55c3.29,0.29,6.21-2.23,6.21-5.56c0-2.84-2.15-5.28-5.04-5.57
		c-1.05-0.08-2.15-0.2-3.25-0.28c-0.41-0.04-11.17-1.02-15.07-1.34c-5.36-0.4-10.44-0.93-11.78-1.1c-3.17-0.37-6.38-0.94-9.59-0.94
		c-3,0-5.52,2.48-5.52,5.65c0,2.8,2.07,5.24,4.87,5.49c1.3,0.12,2.56,0.24,3.82,0.37c5.85,0.53,11.66,1.05,17.5,1.58
		C111.55,429.34,117.47,429.94,123.4,430.55L123.4,430.55L123.4,430.55z M123.32,405.45c3.21,0.61,6.29-1.87,6.29-5.32
		c0-2.56-1.87-4.83-4.51-5.32c-1.3-0.21-2.48-0.45-3.29-0.57c-5.16-0.89-10.03-1.83-11.29-2.11c-2.52-0.53-5.08-1.38-7.59-1.38
		c-2.84,0-5.32,2.36-5.32,5.44c0,2.6,1.87,4.87,4.51,5.36c0.41,0.08,0.81,0.16,1.26,0.24c5.57,1.02,11.17,2.07,16.78,3.05
		C121.21,405.05,122.27,405.25,123.32,405.45L123.32,405.45L123.32,405.45z"/>
	<path d="M125.9,342.2c10.72,0,20.54-5.67,29.03-15.98c2.64,10.59,9.99,15.63,20.84,15.63c5.74,0,10.85-1.65,15.43-4.61
		c-3.2,12.73-5.17,24.37-5.17,32.9c0,18.39,7.07,27.23,19.81,27.23c22.99,0,40.67-26.17,47.75-54.82
		c1.42-6.01,2.12-13.44,2.83-19.81c8.87-1.74,17.59-6.18,25.22-13.21c1.49,21.64,18.76,32.31,36.68,32.31
		c33.25,0,56.95-23.7,68.26-70.03c1.77-5.31,1.41-6.72-3.89-6.72c-5.3,0-6.37,0.71-8.49,7.78c-11.67,39.61-29,53.05-50.22,53.05
		c-12.03,0-23.7-8.49-21.58-29c23.34-1.41,47.04-9.9,56.59-39.61c1.77-5.66,2.83-11.32,2.83-16.27c0-15.21-8.13-25.82-21.22-25.82
		c-18.39,0-35.01,15.56-45.27,38.55c-4.58,10.53-9.01,22.4-11.56,34.06c-7.18,11.01-17.44,18.24-28.05,20.76
		c-2.12-6.37-6.72-11.32-12.38-14.85c17.33-10.96,32.54-30.06,39.97-56.59c3.18-9.55,4.6-18.75,4.6-25.82
		c0-16.62-6.72-27.59-16.98-28.65c-20.16-2.47-40.67,21.93-52.35,60.84c-2.12,8.49-5.66,19.1-7.78,26.88
		c-7.78,1.77-12.03,7.43-12.03,15.21c0,4.24,1.42,8.84,3.89,13.79l-0.16,0.52c-6,15.59-12.73,26.01-20.71,26.01
		c-4.95,0-7.78-3.18-7.78-11.67c0-5.66,1.77-14.86,4.95-25.82l19.1-63.67c3.18-9.2,3.54-9.55-3.54-9.55h-6.37
		c-7.78,0-8.13,0.35-11.32,11.32c-1.42,5.31-4.24,13.09-7.07,22.64c-5.98,19.44-11.44,38.36-14.14,52.41
		c-7.04,14.2-14.68,22.01-21.59,22.93c-8.49,1.42-18.39-4.6-36.78-17.69c4.24-9.55,7.43-20.16,9.9-31.48
		c36.43-6.01,63.67-39.97,63.67-74.63c0-15.56-6.01-27.94-19.45-27.94c-20.87,0-37.14,20.51-49.87,60.13
		c-2.12,6.72-5.66,16.27-7.78,23.7c-8.84-3.89-16.62-9.9-21.58-18.04c-3.18-4.95-4.95-6.37-8.13-3.54
		c-4.6,4.95-7.43,12.03-2.48,19.1c6.72,9.55,15.92,15.56,26.53,19.1c-2.48,9.9-4.6,17.33-7.07,23.7
		c-6.72-2.83-12.73-4.24-17.33-4.24c-15.92,0-28.65,13.09-28.65,27.94c0,12.73,10.96,22.28,21.93,22.28
		c12.38,0,22.99-6.72,32.19-19.81C105.03,336.19,116.35,342.2,125.9,342.2L125.9,342.2z M120.95,231.14
		c10.26-30.42,18.04-47.04,26.53-47.04c4.95,0,6.72,5.31,6.72,12.73c0,26.17-17.33,52.35-41.38,60.48L120.95,231.14L120.95,231.14z
		 M50.92,312.49c3.54-6.37,13.09-7.07,24.76,0c-4.6,9.9-9.55,16.27-15.21,16.27C51.27,328.76,47.38,318.15,50.92,312.49
		L50.92,312.49z M215.38,179.15c0-7.78-6.37-14.15-13.79-14.15c-8.13,0-14.5,6.37-14.5,14.15c0,7.78,6.37,14.5,14.5,14.5
		C209.02,193.65,215.38,186.93,215.38,179.15L215.38,179.15z M238.73,243.52c9.9-31.12,18.75-45.27,25.11-45.27
		c7.07,0,7.43,17.33,1.06,36.78c-7.43,22.64-22.64,50.22-40.32,57.3c6.72-23.7,14.15-48.46,14.15-48.46V243.52L238.73,243.52z
		 M235.9,343.26c-6.01,22.28-14.86,38.2-24.05,38.2c-4.6,0-7.43-3.89-7.43-11.32c0-7.07,2.48-17.33,6.01-30.77l7.78-25.11
		c6.37,3.89,13.44,6.72,21.57,8.49C239.08,328.76,238.02,335.83,235.9,343.26L235.9,343.26z M311.23,266.51
		c7.43-22.28,12.38-35.72,24.41-35.72c8.84,0,7.78,11.67,2.48,27.94c-6.72,19.1-14.86,27.94-33.6,29.71L311.23,266.51L311.23,266.51
		z M610.52,215.22c-38.55,0-60.83,67.56-60.83,96.91c0,19.1,9.9,29.71,23.34,29.71c16.62,0,29-9.2,38.9-26.88
		c1.42,0.71,2.83,0.71,3.89,0.71c7.23,0,13.85-1.7,19.72-5.21c-0.17,2-0.26,3.97-0.26,5.92c0,17.33,7.78,25.47,21.58,25.47
		c10.26,0,18.75-5.66,26.53-15.21c3.89,10.26,11.67,15.21,20.87,15.21c13.85,0,23.75-8.54,31.36-22c3.85,13.33,12.6,22,27.35,22
		c30.42,0,51.64-24.05,63.31-70.03c1.42-5.31,1.06-6.72-3.89-6.72c-5.66,0-7.07,0.71-9.2,7.78c-10.96,39.61-26.17,53.05-44.21,53.05
		c-9.2,0-15.56-5.66-16.27-20.87c31.48-22.28,50.22-56.95,55.88-90.55c0.71-4.6,1.06-9.55,1.06-13.44
		c0-13.79-4.24-22.99-14.15-22.99c-24.41,0-39.61,30.42-48.46,57.3c-6.17,19.42-12.06,38.31-13.47,57.36
		c-6.64,19.48-14.08,33.19-22.96,33.19c-5.31,0-8.13-3.18-8.13-11.67c0-5.66,1.77-14.86,4.95-25.82l19.1-63.67
		c3.18-9.2,3.54-9.55-3.54-9.55h-6.37c-5.3,0-7.43,0.35-9.9,6.37c-6.01-4.6-12.73-6.37-18.04-6.37c-25.82,0-38.55,37.85-44.21,56.95
		c-1.74,5.77-3.49,11.55-4.98,17.24c-5.41,9.49-11.98,14.24-18.71,14.24h-4.24c3.89-10.61,8.13-20.51,10.96-33.96
		c2.48-10.96,4.24-20.87,4.24-28.65C631.74,223.71,625.02,215.22,610.52,215.22L610.52,215.22z M606.99,270.4
		c-4.95,1.77-10.96,7.78-13.44,15.92c-2.12,7.43-0.71,14.5,2.48,19.45c-4.6,13.09-9.9,20.51-18.39,20.51
		c-5.66,0-7.78-3.89-7.78-12.02c0-6.37,1.42-14.5,11.32-47.75c7.43-22.28,12.38-35.72,24.41-35.72c4.95,0,7.43,4.24,7.43,11.67
		c0,6.72-1.77,15.21-4.95,26.17L606.99,270.4L606.99,270.4z M685.51,294.45c-6.37,18.75-14.15,31.48-22.99,31.48
		c-4.95,0-7.78-3.54-7.78-11.32c0-6.01,1.41-14.5,15.92-61.19c4.95-13.79,11.32-24.41,21.58-24.41c7.07,0,8.84,7.43,7.07,18.75
		C694.35,265.45,691.87,275.35,685.51,294.45L685.51,294.45z M766.86,239.63c11.32-33.6,19.1-45.98,25.47-45.98
		c4.6,0,5.31,6.72,2.83,17.69c-7.07,27.23-19.45,55.88-41.74,79.23C757.31,271.11,761.9,255.55,766.86,239.63L766.86,239.63z
		 M528.63,259.29c-11.17,1.2-28.12,5.78-39.49,5.78c-3.59,0-6.78-0.4-8.98-1.6h-0.4c-0.6,0-1,1.2-1,3.19
		c0,5.98,3.79,17.95,15.75,17.95c6.98,0,16.55-3.99,21.74-5.58c-2.39,29.12-23.93,51.05-41.08,51.05
		c-12.36,0-16.55-10.37-16.55-24.13c0-24.53,13.56-60.63,19.34-71.79c7.18-14.16,24.73-37.69,42.28-37.69
		c7.58,0,10.77,6.58,10.77,14.56c0,13.36-7.38,25.73-18.15,31.11c-1,0.2-1.4,0.8-1.4,1.4c0,2.79,4.59,3.99,7.98,3.99
		c19.54,0,30.71-27.52,30.71-43.28c0-16.15-8.77-29.71-25.92-29.71c-59.23,0-88.74,81.96-88.74,122.25
		c0,26.12,11.37,47.46,38.89,47.46c29.51,0,64.01-33.7,64.01-62.42c0-3.19-0.8-5.58-2.19-7.38c1.6,0,3.39-0.2,5.19-0.2
		c1.99,0,4.39,0.2,6.78,0.2c0.6,0,0.8-0.2,0.8-1c0-9.37-9.37-14.36-17.95-14.36C530.23,259.09,529.43,259.29,528.63,259.29
		L528.63,259.29z"/>
	<path d="M133.82,573.05c12.83,0,13.26,0,17.53,4.7c2.57,2.99,5.99,0.86,6.41-3.42c0.43-4.7,0.43-14.11,0.43-20.95
		c0-7.7-0.85-7.27-5.13-7.27H72.24c-4.28,0-5.13-0.43-5.13,7.27c0,6.84,0,16.25,0.43,20.95c0.43,4.28,3.85,6.42,6.41,3.42
		c4.28-4.7,4.7-4.7,17.53-4.7c5.56,0,7.27,0,7.7,3.42v111.6c-0.43,2.57-1.28,3.42-3.85,5.13c-3.42,2.14-2.56,5.99,1.71,6.84
		c4.7,0.86,9.83,0,17.53,0c5.56,0,9.83,0.43,13.68,0c4.28-0.86,5.13-4.7,1.71-6.84c-4.7-2.99-3.85-4.28-3.85-16.25V576.47
		C126.55,573.05,127.83,573.05,133.82,573.05L133.82,573.05z M174.87,676.96c0,11.97,0.86,13.26-3.85,16.25
		c-3.42,2.14-2.57,5.99,1.71,6.84c4.7,0.86,10.26,0,17.53,0c5.56,0,9.83,0.43,13.68,0c4.28-0.86,5.13-4.7,1.71-6.84
		c-4.7-2.99-3.85-4.28-3.85-16.25v-36.77c0-2.14,0.86-2.99,3.42-3.42h15.82c7.7,0,7.7,0,7.7,7.7v43.61
		c-0.43,2.57-1.28,3.42-3.85,5.13c-3.42,2.14-2.57,5.99,1.71,6.84c4.7,0.86,10.26,0,17.53,0c5.56,0,9.84,0.43,13.68,0
		c4.28-0.86,5.13-4.7,1.71-6.84c-4.7-2.99-3.85-4.28-3.85-16.25V558.51c0-2.99,1.28-3.85,3.85-5.56c3.42-2.14,2.57-5.99-1.71-6.84
		c-4.7-0.85-10.26,0-17.53,0c-5.56,0-9.84-0.43-13.68,0c-4.28,0.86-5.13,4.7-1.71,6.84c2.57,1.71,3.42,2.57,3.85,5.56v47.89
		c-0.43,3.42-2.14,3.42-7.7,3.42H209.5c-5.99,0-7.27,0-7.7-3.42v-47.89c0-2.99,1.28-3.85,3.85-5.56c3.42-2.14,2.56-5.99-1.71-6.84
		c-4.7-0.85-10.26,0-17.53,0c-5.56,0-9.83-0.43-13.68,0c-4.28,0.86-5.13,4.7-1.71,6.84c2.57,1.71,3.42,2.57,3.85,5.56V676.96
		L174.87,676.96z M330.09,636.76c11.97,0,13.26-0.85,16.25,3.85c2.14,3.42,5.99,2.14,6.84-1.71c0.85-4.7,0-10.26,0-17.53
		c0-5.56,0.43-10.26,0-13.68c-0.86-4.28-4.7-5.56-6.84-1.71c-2.99,4.28-4.28,3.85-16.25,3.85h-14.97c-7.7,0-7.7,0-7.7-7.7v-21.38
		c0-7.7,0-7.7,7.7-7.7h26.94c2.57,0.43,3.85,1.28,5.13,3.85c1.71,3.42,5.99,2.57,7.27-1.71c3.42-13.26,5.56-20.1,6.84-24.8
		c0.86-2.57,1.28-4.7-1.28-4.7c-4.7,0-10.69,0.43-17.96,0.43h-46.18c-7.27,0-12.83-0.85-17.53,0c-3.85,0.86-5.13,4.7-1.71,6.84
		c2.57,1.71,3.42,2.57,3.85,5.56v118.44c0,11.97,0.86,13.26-3.85,16.25c-3.42,2.14-2.14,5.99,1.71,6.84c4.7,0.86,10.26,0,17.53,0
		h46.18c7.27,0,13.26,0.43,17.96,0.43c2.57,0,2.14-2.57,1.28-4.7c-2.14-6.84-4.7-16.25-6.84-24.8c-1.28-4.28-5.56-5.13-7.27-1.71
		c-1.28,2.57-2.56,3.85-5.13,3.85h-26.94c-5.99,0-7.27,0-7.7-3.42v-25.23c0-5.56,0-7.27,3.42-7.7H330.09L330.09,636.76z
		 M423.73,676.96c0,11.97,0.86,13.26-3.85,16.25c-1.28,1.28-2.14,2.14-2.14,3.85c0,3.85,9.41,3.42,11.12,3.42
		c2.99,0,6.41-0.43,10.26-0.43h34.64c7.7,0,11.97,0,21.38-9.41c9.41-9.83,9.41-11.12,9.41-21.38V576.9c0-10.26,0-11.55-9.41-21.38
		c-9.41-9.41-13.68-9.41-21.38-9.41h-34.64c-7.27,0-12.83-0.85-17.53,0c-3.85,0.86-5.13,4.7-1.71,6.84
		c2.57,1.71,3.42,2.57,3.85,5.56V676.96L423.73,676.96z M450.67,665.41v-84.66c0-5.56,0-7.27,3.42-7.7h20.1
		c2.14,0.43,2.99,1.28,3.42,3.42v93.22c-0.43,2.56-1.28,3.42-3.42,3.42h-15.82C450.67,673.11,450.67,673.11,450.67,665.41
		L450.67,665.41z M593.06,555.52c-9.41-8.98-13.68-9.41-20.95-9.41h-19.67c-7.7,0-11.54,0-20.95,9.41
		c-9.41,9.83-9.84,11.12-9.84,21.38v92.36c0,10.26,0.43,11.55,9.84,21.38c9.41,9.41,13.26,9.41,20.95,9.41h19.24
		c7.7,0,11.97,0,21.38-9.41c9.41-9.83,9.41-11.12,9.41-21.38V576.9C602.47,566.64,602.47,565.35,593.06,555.52L593.06,555.52z
		 M548.59,665.41v-88.94c0-2.14,0.86-2.99,3.42-3.42h15.82c5.56,0,7.27,0,7.7,3.42v93.22c-0.43,2.56-1.28,3.42-3.42,3.42h-19.67
		C548.59,673.11,548.59,671.4,548.59,665.41L548.59,665.41z M650.36,546.11c-7.7,0-11.54,0-20.95,9.41
		c-9.41,9.83-9.84,11.12-9.84,21.38v92.36c0,10.26,0.43,11.55,9.84,21.38c9.41,9.41,13.26,9.41,20.95,9.41h19.24
		c7.7,0,11.97,0,21.38-9.41c9.41-9.83,9.41-11.12,9.41-21.38v-35.49c0-3.85,0-7.7-3.85-11.55c-3.85-3.85-7.7-3.85-11.55-3.85h-11.55
		c-7.7,0-8.55-0.43-13.26-0.43c-2.57,0-2.57,2.14-1.71,4.7c1.28,5.13,4.28,20.95,5.13,23.09c1.28,4.28,2.14,0.86,5.99,0.86
		c2.57,0,3.42,0.86,3.85,4.28v14.54c0,5.99,0,7.27-3.42,7.7h-15.82c-7.7,0-7.7,0-7.7-7.7v-88.94c0-2.14,0.86-2.99,3.42-3.42h20.1
		c2.56,0.43,3.42,1.28,3.42,3.42v27.37c0,3.85,0,3.85,3.85,2.57c3.85-0.86,19.24-5.13,19.24-5.13c3.85-0.85,3.85-0.85,3.85-4.7
		V576.9c0-10.26-0.43-11.55-9.84-21.38c-9.41-9.41-13.26-9.41-20.95-9.41H650.36L650.36,546.11z M785.48,617.95
		c-9.41-9.84-11.12-9.84-21.38-9.84h-17.1c-6.41,0-6.41-0.43-6.41-7.7v-19.67c0-7.7,0-7.7,7.7-7.7h10.26
		c8.12,0,8.98,0.86,8.98,10.26v7.7c0,3.85,0,3.85,3.85,2.57c3.85-0.86,19.24-5.13,19.24-5.13c3.85-1.28,3.85-1.28,3.85-5.13v-6.41
		c0.43-7.7,0.43-17.53,0.43-25.66c0-3.85-3.42-5.13-5.56-1.71c-4.7,8.55-5.56,6.41-7.7,2.99c-3.42-5.13-8.98-6.41-17.96-6.41h-19.24
		c-7.27,0-11.54,0-20.95,9.41c-9.41,9.41-9.41,11.12-9.84,21.38v27.37c0,7.7,0.43,11.97,9.84,21.38c9.41,9.41,11.12,9.41,21.38,9.41
		h17.53c5.56,0,5.56,0.86,5.56,7.7v22.66c0,7.7,0,7.7-7.7,7.7h-11.97c-7.7,0-7.7,0-7.7-7.7v-14.97c0-3.85,0-3.85-3.85-3.85h-19.24
		c-3.85,0-3.85,0-3.85,3.85v18.81c0,10.26,0.43,11.97,9.84,21.38c9.41,9.41,13.68,9.41,20.95,9.41h19.67c7.7,0,11.97,0,21.38-9.41
		c9.41-9.41,9.41-11.12,9.41-21.38v-30.79C794.89,631.21,794.89,626.93,785.48,617.95L785.48,617.95z"/>
</g>
</svg>
