<?xml version="1.0" encoding="utf-8"?>
<!-- Generator: Adobe Illustrator 24.3.0, SVG Export Plug-In . SVG Version: 6.00 Build 0)  -->
<svg version="1.1" id="Layer_1" xmlns="http://www.w3.org/2000/svg" xmlns:xlink="http://www.w3.org/1999/xlink" x="0px" y="0px"
	 viewBox="0 0 864 864" style="enable-background:new 0 0 864 864;" xml:space="preserve">
<g>
	<path d="M109.16,196.18c-1.34,0.57-3.05,1.15-3.05,3.05c0,2.1,1.72,2.48,3.05,2.48h36.46c1.34,0,3.05-0.38,3.05-2.48
		c0-1.91-1.72-2.48-3.05-3.05c-2.86-0.95-4.2-3.44-4.39-6.87v-109c0.19-3.44,1.34-5.73,4.39-6.68c1.34-0.57,3.05-1.15,3.05-3.05
		c0-2.1-1.72-2.48-3.05-2.48h-36.46c-1.34,0-3.05,0.38-3.05,2.48c0,1.91,1.72,2.48,3.05,3.05c3.05,0.95,4.39,3.44,4.39,7.25v108.04
		C113.36,192.55,112.02,195.22,109.16,196.18L109.16,196.18z M170.82,49.38c-0.95-0.38-2.1-0.38-3.24-0.38
		c-4.77,0-9.35,3.05-10.88,8.02c-1.15,4.2,0.19,8.4,2.86,11.26l0,0c2.67,2.29,2.48,5.34,1.91,8.21c-1.14,5.35-4.58,11.07-0.57,12.79
		c5.34,0,17.75-21.19,17.75-26.53C179.98,57.02,176.74,51.1,170.82,49.38L170.82,49.38z M601.08,199.23c0-1.91-1.72-2.48-3.05-3.05
		c-2.86-0.95-4.2-3.63-4.39-7.25V143.3c0-23.67-11.26-32.83-29.21-32.83c-9.54,0-19.47,2.1-27.87,6.87
		c-0.38,0.19-0.76,0.19-0.95,0.19c-0.57,0-0.76-0.19-0.95-0.76c-0.95-3.24-3.82-6.3-13.17-6.3c-0.76,0-15.84,0-16.8,0
		c-1.53,0-3.24,0.57-3.24,2.67c0,1.72,1.72,2.29,3.24,2.86c2.29,0.76,2.67,1.91,2.86,4.77v67.38c-0.19,4.2-1.53,6.87-4.58,8.02
		c-1.34,0.57-3.05,1.15-3.05,3.05c0,2.1,1.72,2.48,3.05,2.48h36.46c1.34,0,3.05-0.38,3.05-2.48c0-1.91-1.72-2.48-3.05-3.05
		c-3.05-1.15-4.39-3.82-4.39-7.83v-58.22c0.19-3.44,1.34-4.58,2.67-5.54c4.77-3.05,8.78-4.2,14.51-4.2
		c12.03,1.14,13.94,12.03,13.94,31.69v37.61c-0.38,3.24-1.72,5.54-4.39,6.49c-1.53,0.57-3.25,1.15-3.25,3.05
		c0,2.1,1.72,2.48,3.25,2.48h36.27C599.36,201.71,601.08,201.33,601.08,199.23L601.08,199.23L601.08,199.23z M611.77,196.18
		c-1.34,0.38-3.05,1.15-3.05,2.86c0,2.1,1.72,2.67,3.05,2.67c4.01,0,32.45,0,36.46,0c1.34,0,3.05-0.57,3.05-2.67
		c0-1.53-1.53-2.29-3.05-2.86c-2.86-1.15-4.39-2.86-4.39-7.06V77.63c-0.19-4.01-1.15-9.54-13.55-9.54c-0.76,0-15.84,0-16.8,0
		c-1.53,0-3.24,0.57-3.24,2.67c0,1.72,1.91,2.1,3.24,2.67c2.48,1.15,2.67,2.1,2.86,4.96v109.95
		C616.35,192.93,614.83,195.22,611.77,196.18L611.77,196.18z M334.41,169.07V143.3c0-23.67-11.07-32.83-29.21-32.83
		c-10.5,0-21.19,2.67-30.16,8.4c-0.38,0-0.57,0-0.76,0c-0.57,0-0.96-0.19-1.34-0.38c-4.96-5.73-12.41-8.02-21.76-8.02
		c-9.54,0-19.47,2.1-27.87,6.87c-0.38,0.19-0.76,0.19-0.95,0.19c-0.57,0-0.76-0.19-0.95-0.76c-0.95-3.05-3.82-6.3-13.17-6.3
		c-0.76,0-15.84,0-16.8,0c-1.53,0-3.24,0.57-3.24,2.67c0,1.72,1.72,2.29,3.24,2.86c2.29,0.76,2.67,1.91,2.86,4.77v67.38
		c-0.19,4.2-1.53,6.87-4.58,8.02c-1.34,0.57-3.05,1.15-3.05,3.05c0,2.1,1.72,2.48,3.05,2.48h36.46c1.34,0,3.05-0.38,3.05-2.48
		c0-1.91-1.72-2.48-3.05-3.05c-3.05-1.15-4.39-3.82-4.39-7.83v-58.22c0.19-3.44,1.34-4.58,2.67-5.54c4.77-3.05,8.78-4.2,14.51-4.2
		c12.03,1.14,13.94,12.03,13.94,31.69v36.84c-0.19,3.82-1.34,6.49-4.58,7.25c-1.34,0.38-3.05,1.34-3.05,2.86
		c0,2.1,1.72,2.67,3.05,2.67h36.46c1.34,0,3.05-0.57,3.05-2.67c0-1.91-1.53-2.29-3.05-2.86c-3.05-0.95-4.39-3.44-4.39-7.44V143.3
		c0-5.54-0.57-10.12-1.72-14.13c-0.57-3.63,0.76-4.96,2.29-5.92c4.2-2.29,7.63-2.86,12.22-2.86c12.03,1.14,13.74,12.03,13.74,31.69
		c0,18.33-0.38,40.85,14.89,54.02c8.97,7.83,19.28,10.31,28.25,10.31c7.25,0,13.36-1.72,17.18-3.44
		c16.99-8.21,18.52-21.19,19.28-30.92c0.19-3.44-0.19-6.68-0.95-10.12c-0.76-4.01-3.44-11.26-11.07-11.07
		c-5.15,0-8.4,4.96-7.25,10.69c0.76,3.82,4.58,7.25,5.34,8.59c3.05,5.73,0,11.83-3.05,14.89c-3.82,3.44-8.59,4.77-12.79,4.77
		c-2.29,0-4.39-0.38-6.3-0.95C335.94,194.27,334.6,182.05,334.41,169.07L334.41,169.07z M492.27,156.09
		c0-25.2-19.28-45.62-42.95-45.62c-23.86,0-43.14,20.43-43.14,45.62c0,25.2,19.28,45.62,43.14,45.62
		C473,201.71,492.27,181.29,492.27,156.09L492.27,156.09z M462.69,181.29c-1.91,7.25-8.4,9.54-12.6,9.54
		c-6.11,0-10.31-5.54-11.64-11.07c-2.1-8.02,0.95-16.61,4.96-18.13c0.38-0.19,0.95-0.38,1.34-0.57c1.72-0.57,7.06-1.15,10.12-3.82
		c4.39-3.63,4.77-9.54,0.57-12.79c-1.91-1.53-4.01-2.29-5.92-2.29c-3.82,0-7.64,2.48-9.74,4.39c-0.19,0.19-3.05,2.86-4.96,4.77
		c-0.38,0.19-0.57,0.38-0.76,0.38c-0.57,0-0.76-0.57-0.76-0.95c0.19-2.29,0.38-4.39,0.95-6.49c2.1-13.94,8.02-23.86,14.7-23.86
		c8.78,0,15.84,16.04,15.84,35.7C464.79,163.15,464.21,175.56,462.69,181.29L462.69,181.29z M753.22,110.28H732.8
		c-1.34,0-3.05,0.57-3.05,2.67c0,1.72,1.53,2.48,3.05,2.86c1.34,0.19,5.34,0.95,2.86,7.83l-17.56,40.09
		c-0.57,1.15-1.15,1.53-1.72,1.53c-0.57,0-1.15-0.57-1.72-1.34l-17.56-40.09c-3.05-6.68,0.19-8.02,1.53-8.02
		c1.53,0,3.05-0.76,3.05-2.86c0-2.1-1.72-2.67-3.05-2.67h-40.47c-1.53,0-3.25,0.57-3.25,2.67c0,2.1,1.72,2.86,3.25,2.86
		c1.14,0,4.96,0.19,8.78,8.02l33.6,75.97c0.19,1.15,0.38,2.67-0.19,4.77l-7.25,17.75c-5.54,11.64-15.27,30.35-30.16,30.35
		c-7.63,0-13.17-5.92-17.94-11.26c-8.97-10.12-18.71-20.23-33.41-20.23c-7.83,0-16.42,3.82-22.72,10.88
		c-3.44,3.82-4.77,7.83-4.39,11.26c0.57,4.2,4.39,6.87,8.59,6.87c3.44,0,5.92-2.29,8.02-5.54c2.29-3.63,6.49-6.3,11.45-6.3
		c8.78,0,17.75,8.4,23.29,14.13c6.49,7.06,15.27,10.69,24.82,10.69c9.16,0,16.42-2.67,21.95-7.45c7.83-6.49,16.42-22.14,20.62-31.11
		l43.33-100.98c3.24-7.44,5.53-7.63,6.68-7.83c1.53-0.57,3.05-1.15,3.05-2.86C756.27,110.85,754.56,110.28,753.22,110.28
		L753.22,110.28z M48.55,340.31c0.38,21.76,13.93,33.98,30.73,33.98c9.54,0,17.18-3.63,22.14-10.31c0.57-0.95,0.95-2.29-0.57-3.24
		c-0.19-0.19-0.57-0.38-0.95-0.38c-1.72,0-3.82,2.29-3.82,2.29c-2.29,1.91-6.68,2.86-9.74,2.86c-9.54,0-10.31-9.16-10.31-10.5v-58.6
		c0-3.63,2.29-3.63,3.24-3.63h16.61c1.34,0,3.05-0.57,3.05-2.86c0-0.19,0-4.2,0-4.2c0-2.29-1.72-2.86-3.05-2.86H80.81
		c-3.05,0-4.77-0.76-4.77-4.39v-22.14c0-4.01-0.57-6.3-3.44-6.3c-2.86,0-4.39,4.2-5.54,6.87c-3.24,7.44-10.69,23.1-29.21,29.01
		c-1.53,0.57-2.86,0.95-2.86,3.05v0.95c0,2.29,1.72,2.86,3.05,2.86h7.64c0.76,0,2.67,0.38,2.86,3.05V340.31L48.55,340.31z
		 M205.66,368.75c-1.34,0.38-3.05,1.15-3.05,2.86c0,2.1,1.72,2.67,3.05,2.67c4.01,0,32.45,0,36.46,0c1.34,0,3.05-0.57,3.05-2.67
		c0-1.53-1.53-2.29-3.05-2.86c-2.86-1.14-4.39-2.86-4.39-7.06V250.21c-0.19-4.01-1.15-9.54-13.55-9.54c-0.76,0-15.84,0-16.8,0
		c-1.53,0-3.24,0.57-3.24,2.67c0,1.72,1.91,2.1,3.24,2.67c2.48,1.14,2.67,2.1,2.86,4.96v109.95
		C210.24,365.51,208.71,367.8,205.66,368.75L205.66,368.75z M394.25,368.75c-3.05-1.14-4.39-3.82-4.58-7.83v-68.34
		c0-4.01-0.95-9.54-13.36-9.54c-0.76,0-16.04,0-16.99,0c-1.34,0-3.05,0.57-3.05,2.67c0,1.72,1.72,2.29,3.05,2.86
		c2.48,0.76,2.86,1.91,2.86,4.77v67.38c0,4.2-1.34,6.87-4.39,8.02c-1.34,0.57-3.05,1.15-3.05,3.05c0,2.1,1.72,2.48,3.05,2.48h36.46
		c1.34,0,3.05-0.38,3.05-2.48C397.31,369.9,395.59,369.33,394.25,368.75L394.25,368.75z M345.2,368.56
		c-1.53-0.38-2.67-0.76-3.44-2.1l-13.93-30.54c-2.86-6.3-7.06-17.18-18.33-20.04c-1.91-0.76-0.76-2.48-0.19-2.86
		c12.22-22.72,21.19-34.17,34.55-42.95c5.73-3.82,10.5-5.15,14.32-5.15c3.82,0,6.87,1.34,9.16,3.05c0,0,3.44,3.05,8.59,3.05
		c7.64,0,13.74-6.11,13.74-13.74c0-7.64-6.11-13.74-13.74-13.74c-0.95,0-1.91,0-2.67,0.19c-24.05,3.82-54.98,27.87-80.75,73.49
		c-0.95,0.76-1.72,1.15-2.48,1.15c-1.53,0-2.1-2.1-2.1-3.24v-65.09c-0.19-4.01-1.15-9.54-13.55-9.54c-0.76,0-15.84,0-16.8,0
		c-1.53,0-3.25,0.57-3.25,2.67c0,1.53,1.91,2.1,3.25,2.67c2.48,1.15,2.67,1.91,2.86,4.96v109.95c0,4.58-1.53,6.87-4.58,7.83
		c-1.34,0.57-3.05,1.14-3.05,2.86c0,2.1,1.72,2.67,3.05,2.67c4.01,0,32.45,0,36.46,0c1.34,0,3.05-0.57,3.05-2.67
		c0-1.53-1.53-2.29-3.05-2.86c-2.86-1.15-4.39-2.86-4.39-7.06v-25.2c0.19-3.82,1.34-6.68,5.34-6.68c2.29,0,4.58,1.14,6.49,4.96
		l14.32,31.31c0.76,1.72-0.57,2.1-2.1,2.67c-1.53,0.57-3.05,1.34-3.05,2.86c0,2.1,1.72,2.67,3.05,2.67h33.41
		c1.34,0,2.86-0.76,2.86-2.67C348.25,369.71,346.72,368.94,345.2,368.56L345.2,368.56z M508.02,371.81c0-1.91-1.72-2.48-3.05-3.05
		c-2.86-0.95-4.2-3.63-4.39-7.25v-45.62c0-23.67-11.26-32.83-29.21-32.83c-9.54,0-19.47,2.1-27.87,6.87
		c-0.38,0.19-0.76,0.19-0.95,0.19c-0.57,0-0.76-0.19-0.95-0.76c-0.95-3.25-3.82-6.3-13.17-6.3c-0.76,0-15.84,0-16.8,0
		c-1.53,0-3.24,0.57-3.24,2.67c0,1.72,1.72,2.29,3.24,2.86c2.29,0.76,2.67,1.91,2.86,4.77v67.38c-0.19,4.2-1.53,6.87-4.58,8.02
		c-1.34,0.57-3.05,1.15-3.05,3.05c0,2.1,1.72,2.48,3.05,2.48h36.46c1.34,0,3.05-0.38,3.05-2.48c0-1.91-1.72-2.48-3.05-3.05
		c-3.05-1.14-4.39-3.82-4.39-7.83v-58.22c0.19-3.44,1.34-4.58,2.67-5.54c4.77-3.05,8.78-4.2,14.51-4.2
		c12.03,1.15,13.94,12.03,13.94,31.69v37.61c-0.38,3.24-1.72,5.54-4.39,6.49c-1.53,0.57-3.24,1.15-3.24,3.05
		c0,2.1,1.72,2.48,3.24,2.48h36.27C506.31,374.29,508.02,373.91,508.02,371.81L508.02,371.81L508.02,371.81z M679.82,340.31
		c0.38,21.76,13.93,33.98,30.73,33.98c9.54,0,17.18-3.63,22.14-10.31c0.57-0.95,0.96-2.29-0.57-3.24c-0.19-0.19-0.57-0.38-0.95-0.38
		c-1.72,0-3.82,2.29-3.82,2.29c-2.29,1.91-6.68,2.86-9.74,2.86c-9.54,0-10.31-9.16-10.31-10.5v-58.6c0-3.63,2.29-3.63,3.24-3.63
		h16.61c1.34,0,3.05-0.57,3.05-2.86c0-0.19,0-4.2,0-4.2c0-2.29-1.72-2.86-3.05-2.86h-15.08c-3.05,0-4.77-0.76-4.77-4.39v-22.14
		c0-4.01-0.57-6.3-3.44-6.3c-2.86,0-4.39,4.2-5.54,6.87c-3.24,7.44-10.69,23.1-29.2,29.01c-1.53,0.57-2.86,0.95-2.86,3.05v0.95
		c0,2.29,1.72,2.86,3.05,2.86h7.64c0.76,0,2.67,0.38,2.86,3.05V340.31L679.82,340.31z M250.52,396.62
		c-0.96-4.01-3.63-11.26-11.26-11.07c-5.15,0-8.4,4.96-7.25,10.69c0.76,3.82,4.58,7.25,5.34,8.59c3.05,5.73,0.95,11.45-3.05,14.7
		c-4.2,3.44-9.54,4.96-14.51,4.96c-10.5,0-19.47-5.73-24.82-14.7c-5.92-9.93-5.92-23.1-5.92-36.46v-58.41
		c0-17.75-18.13-32.07-38.75-32.07c-25.58,0-35.89,13.94-35.89,24.82c0,8.4,6.87,12.41,13.94,12.41c9.74,0,13.55-7.06,13.55-16.23
		c0-5.54,4.58-9.74,10.12-9.74c5.34,0,9.54,4.2,9.54,9.74c0,0,0,44.1,0,52.69c-0.38,4.58-11.64,4.77-15.27,4.77
		c-5.92-0.38-10.12-6.3-9.93-12.79c0.19-5.34,3.82-8.4,7.44-9.93c2.67-1.15,7.64-1.34,8.78-1.53c0,0,3.82-0.38,3.82-3.44
		c0-2.67-1.72-3.63-2.86-4.2c-2.29-0.76-6.87-1.15-11.45-1.15c-4.2,0-8.59,0.19-11.45,0.76c-11.45,1.91-21,10.12-21,22.91
		c0,13.55,10.69,22.91,23.86,22.91c6.68,0,14.89-1.91,20.04-4.77c1.72-0.95,3.44-1.53,4.77-1.53c1.72,0,2.86,0.95,3.05,2.86v5.15
		c0,14.7,2.67,38.94,22.91,54.21c10.31,7.83,20.62,10.31,29.01,10.31c21.38,0,36.08-12.22,37.99-34.36
		C251.47,403.3,251.09,400.06,250.52,396.62L250.52,396.62z M560.9,354.06c23.86,0,43.14-15.84,43.14-35.51
		c0-13.55-9.16-25.39-22.52-31.31c-2.1-0.95-1.53-2.48-0.38-2.86c0.76-0.19,1.53-0.19,2.29-0.19c1.34,0,2.48,0.19,3.82,0.57
		c1.72,0.57,3.24,0.95,4.77,0.95c2.48,0,4.58-0.95,6.49-3.25c2.29-3.05,2.48-6.68,0.57-9.35c-1.72-2.67-4.58-4.01-8.02-4.01
		c-9.35-0.19-18.14,5.15-24.24,14.13c-1.91-0.19-4.01-0.38-5.92-0.38c-23.86,0-43.33,16.04-43.33,35.7
		C517.57,338.21,537.04,354.06,560.9,354.06L560.9,354.06z M561.28,290.87c9.16,0,16.42,12.41,16.42,27.68
		c0,15.46-7.25,27.87-16.42,27.87c-9.16,0-16.61-12.41-16.61-27.87C544.67,303.28,552.12,290.87,561.28,290.87L561.28,290.87z
		 M571.97,364.17c-9.74-0.95-22.91-0.95-31.5-2.1c-4.2-0.57-14.13-2.1-8.4-8.4c1.53-1.72,1.53-2.48,0.57-2.48
		c-2.48,0-11.26,5.54-12.6,12.98c-0.95,5.92,0.95,12.03,7.83,17.18c8.78,5.73,21,5.92,34.17,7.44c15.65,1.72,24.43,7.83,24.43,17.56
		c0,9.74-6.49,19.85-22.52,19.85c-14.13,0-26.34-12.79-30.35-17.18c-10.31-11.45-18.9-20.43-35.31-20.43
		c-6.87,0-13.75,2.1-19.47,8.59c-3.44,3.82-4.77,7.83-4.39,11.26c0.57,4.2,4.39,6.87,8.4,6.87c3.63,0,6.11-2.29,8.21-5.54
		c2.29-3.63,6.49-6.3,11.45-6.3c8.78,0,17.75,8.4,23.29,14.13c10.12,10.69,24.43,18.33,39.32,18.33c23.1,0,39.71-17.75,39.71-36.84
		C604.8,379.83,591.06,366.27,571.97,364.17L571.97,364.17z M827,328.67c0-25.2-19.28-45.62-42.95-45.62
		c-23.86,0-43.14,20.43-43.14,45.62c0,25.2,19.28,45.62,43.14,45.62C807.72,374.29,827,353.86,827,328.67L827,328.67z
		 M797.41,353.86c-1.91,7.25-8.4,9.54-12.6,9.54c-6.11,0-10.31-5.54-11.64-11.07c-2.1-8.02,0.95-16.61,4.96-18.14
		c0.38-0.19,0.95-0.38,1.34-0.57c1.72-0.57,7.06-1.15,10.12-3.82c4.39-3.63,4.77-9.54,0.57-12.79c-1.91-1.53-4.01-2.29-5.92-2.29
		c-3.82,0-7.64,2.48-9.74,4.39c-0.19,0.19-3.05,2.86-4.96,4.77c-0.38,0.19-0.57,0.38-0.76,0.38c-0.57,0-0.76-0.57-0.76-0.96
		c0.19-2.29,0.38-4.39,0.95-6.49c2.1-13.94,8.02-23.86,14.7-23.86c8.78,0,15.84,16.04,15.84,35.7
		C799.51,335.73,798.94,348.14,797.41,353.86L797.41,353.86z M131.97,480.77c0,1.72,1.72,2.29,3.24,2.86
		c2.29,0.76,2.67,1.91,2.86,4.77v67.38c-0.19,4.2-1.53,6.87-4.58,8.02c-1.34,0.57-3.05,1.15-3.05,3.05c0,2.1,1.72,2.48,3.05,2.48
		h36.46c1.34,0,3.05-0.38,3.05-2.48c0-1.91-1.72-2.48-3.05-3.05c-3.05-1.15-4.39-3.82-4.39-7.83v-58.22
		c0.19-3.44,1.34-4.58,2.67-5.54c4.77-3.05,8.78-4.2,14.51-4.2c12.03,1.15,13.94,12.03,13.94,31.69v36.84
		c-0.19,3.82-1.34,6.49-4.58,7.25c-1.34,0.38-3.05,1.34-3.05,2.86c0,2.1,1.72,2.67,3.05,2.67h36.46c1.34,0,3.05-0.57,3.05-2.67
		c0-1.91-1.53-2.29-3.05-2.86c-3.05-0.95-4.39-3.44-4.39-7.44v-45.43c0-5.54-0.57-10.12-1.72-14.13c-0.57-3.63,0.76-4.96,2.29-5.92
		c4.2-2.29,7.63-2.86,12.22-2.86c12.03,1.15,13.74,12.03,13.74,31.69v36.84c-0.19,3.82-1.34,6.3-4.39,7.25
		c-1.34,0.38-3.05,1.15-3.05,2.86c0,2.1,1.72,2.67,3.05,2.67h36.46c1.34,0,3.05-0.57,3.05-2.67c0-1.53-1.53-2.48-3.05-2.86
		c-3.24-0.57-4.39-3.63-4.58-7.63v-45.24c0-23.67-11.07-32.83-29.21-32.83c-10.5,0-21.19,2.67-30.16,8.4c-0.38,0-0.57,0-0.76,0
		c-0.57,0-0.95-0.19-1.34-0.38c-4.96-5.73-12.41-8.02-21.76-8.02c-9.54,0-19.47,2.1-27.87,6.87c-0.38,0.19-0.76,0.19-0.95,0.19
		c-0.57,0-0.76-0.19-0.96-0.76c-0.95-3.05-3.82-6.3-13.17-6.3c-0.76,0-15.84,0-16.8,0C133.69,478.1,131.97,478.67,131.97,480.77
		L131.97,480.77z M489.32,569.34c7.83,0,14.13-2.29,14.32-2.29c3.05-1.14,6.11-2.1,9.54-2.1c1.91,0,4.01,0.38,6.11,1.15
		c8.02,2.86,9.54,3.24,18.52,3.24c1.34,0,3.05-0.19,3.05-2.29c0-2.29-1.72-2.86-3.05-3.24c-2.29-0.57-2.86-1.91-2.86-4.77V446.19
		c0-3.05,0.57-4.01,2.86-4.96c1.34-0.35,3.05-0.92,3.05-2.64c0-2.1-1.72-2.67-3.05-2.67c-0.95,0-16.23,0-16.99,0
		c-12.41,0-13.36,5.5-13.36,9.51v32.86c-0.19,0.95-0.76,2.86-2.67,2.86c-0.38,0-0.76-0.19-1.34-0.38c-4.77-2.1-9.35-3.05-14.32-3.05
		c-23.29,0-41.81,17.18-41.81,46C447.32,548.92,466.03,569.34,489.32,569.34L489.32,569.34z M494.85,487.64
		c2.67,0,5.73,0.57,8.78,1.53c1.91,0.76,3.43,1.72,3.82,6.3v55.36c-0.19,0.76-0.38,2.1-1.34,3.05c-3.05,2.67-7.06,4.58-12.22,4.58
		c-12.41,0-19.28-15.08-19.28-34.74C474.62,510.93,477.67,487.64,494.85,487.64L494.85,487.64z M591.63,478.1
		c-23.86,0-43.14,20.43-43.14,45.62c0,25.2,19.28,45.62,43.14,45.62c23.67,0,42.95-20.43,42.95-45.62
		C634.58,498.52,615.3,478.1,591.63,478.1L591.63,478.1z M591.25,559.42c-8.59,0-15.65-16.03-15.65-35.7
		c0-19.66,7.06-35.7,15.65-35.7c8.78,0,15.84,16.04,15.84,35.7C607.09,543.38,600.03,559.42,591.25,559.42L591.25,559.42z
		 M387.77,477.91h-20.43c-1.34,0-3.05,0.57-3.05,2.67c0,1.72,1.53,2.48,3.05,2.86c1.34,0.19,5.34,0.95,2.86,7.83l-17.56,40.09
		c-0.57,1.15-1.15,1.53-1.72,1.53c-0.57,0-1.15-0.57-1.72-1.34l-17.56-40.09c-3.05-6.68,0.19-8.02,1.53-8.02
		c1.53,0,3.05-0.76,3.05-2.86c0-2.1-1.72-2.67-3.05-2.67H292.7c-1.53,0-3.25,0.57-3.25,2.67c0,2.1,1.72,2.86,3.25,2.86
		c1.14,0,4.96,0.19,8.78,8.02l33.6,75.97c0.19,1.15,0.38,2.67-0.19,4.77l-7.25,17.75c-5.54,11.64-15.27,30.35-30.16,30.35
		c-7.63,0-13.17-5.92-17.94-11.26c-8.97-10.12-18.71-20.23-33.41-20.23c-7.83,0-16.42,3.82-22.72,10.88
		c-3.44,3.82-4.77,7.83-4.39,11.26c0.57,4.2,4.39,6.87,8.59,6.87c3.44,0,5.92-2.29,8.02-5.54c2.29-3.63,6.49-6.3,11.45-6.3
		c8.78,0,17.75,8.4,23.29,14.13c6.49,7.06,15.27,10.69,24.82,10.69c9.16,0,16.42-2.67,21.95-7.45c7.83-6.49,16.42-22.14,20.62-31.11
		l43.33-100.98c3.24-7.44,5.53-7.63,6.68-7.83c1.53-0.57,3.05-1.14,3.05-2.86C390.82,478.48,389.1,477.91,387.77,477.91
		L387.77,477.91z M687.46,549.11c23.86,0,43.14-15.84,43.14-35.51c0-13.55-9.16-25.39-22.52-31.31c-2.1-0.95-1.53-2.48-0.38-2.86
		c0.76-0.19,1.53-0.19,2.29-0.19c1.34,0,2.48,0.19,3.82,0.57c1.72,0.57,3.24,0.95,4.77,0.95c2.48,0,4.58-0.95,6.49-3.25
		c2.29-3.05,2.48-6.68,0.57-9.35c-1.72-2.67-4.58-4.01-8.02-4.01c-9.35-0.19-18.13,5.15-24.24,14.13c-1.91-0.19-4.01-0.38-5.92-0.38
		c-23.86,0-43.33,16.04-43.33,35.7C644.13,533.27,663.6,549.11,687.46,549.11L687.46,549.11z M687.84,485.92
		c9.16,0,16.42,12.41,16.42,27.68c0,15.46-7.25,27.87-16.42,27.87c-9.16,0-16.61-12.41-16.61-27.87
		C671.23,498.33,678.68,485.92,687.84,485.92L687.84,485.92z M698.53,559.23c-9.74-0.95-22.91-0.95-31.5-2.1
		c-4.2-0.57-14.13-2.1-8.4-8.4c1.53-1.72,1.53-2.48,0.57-2.48c-2.48,0-11.26,5.54-12.6,12.98c-0.95,5.92,0.96,12.03,7.83,17.18
		c8.78,5.73,21,5.92,34.17,7.44c15.65,1.72,24.43,7.83,24.43,17.56c0,9.74-6.49,19.85-22.52,19.85c-14.13,0-26.34-12.79-30.35-17.18
		c-10.31-11.45-18.9-20.43-35.31-20.43c-6.87,0-13.74,2.1-19.47,8.59c-3.44,3.82-4.77,7.83-4.39,11.26c0.57,4.2,4.39,6.87,8.4,6.87
		c3.63,0,6.11-2.29,8.21-5.54c2.29-3.63,6.49-6.3,11.45-6.3c8.78,0,17.75,8.4,23.29,14.13c10.12,10.69,24.43,18.33,39.32,18.33
		c23.1,0,39.7-17.75,39.7-36.84C731.36,574.88,717.62,561.33,698.53,559.23L698.53,559.23z M214.63,720.46
		c0.38,21.76,13.93,33.98,30.73,33.98c9.54,0,17.18-3.63,22.14-10.31c0.57-0.95,0.96-2.29-0.57-3.24c-0.19-0.19-0.57-0.38-0.95-0.38
		c-1.72,0-3.82,2.29-3.82,2.29c-2.29,1.91-6.68,2.86-9.74,2.86c-9.54,0-10.31-9.16-10.31-10.5v-58.6c0-3.63,2.29-3.63,3.24-3.63
		h16.61c1.34,0,3.05-0.57,3.05-2.86c0-0.19,0-4.2,0-4.2c0-2.29-1.72-2.86-3.05-2.86h-15.08c-3.05,0-4.77-0.76-4.77-4.39v-22.14
		c0-4.01-0.57-6.3-3.44-6.3c-2.86,0-4.39,4.2-5.54,6.87c-3.24,7.44-10.69,23.1-29.2,29.01c-1.53,0.57-2.86,0.95-2.86,3.05v0.95
		c0,2.29,1.72,2.86,3.05,2.86h7.64c0.76,0,2.67,0.38,2.86,3.05V720.46L214.63,720.46z M550.02,741.84V694.5
		c0-17.75-18.13-32.07-38.75-32.07c-25.58,0-35.89,13.93-35.89,24.82c0,8.4,6.87,12.41,13.94,12.41c9.74,0,13.55-7.06,13.55-16.23
		c0-5.53,4.58-9.73,10.12-9.73c5.34,0,9.54,4.2,9.54,9.73c0,0,0,44.1,0,52.69c-0.38,4.58-11.64,4.77-15.27,4.77
		c-5.92-0.38-10.12-6.3-9.93-12.79c0.19-5.34,3.82-8.4,7.44-9.93c2.67-1.15,7.64-1.34,8.78-1.53c0,0,3.82-0.38,3.82-3.44
		c0-2.67-1.72-3.63-2.86-4.2c-2.29-0.76-6.87-1.14-11.45-1.14c-4.2,0-8.59,0.19-11.45,0.76c-11.45,1.91-21,10.12-21,22.91
		c0,13.55,10.69,22.91,23.86,22.91c6.68,0,14.89-1.91,20.04-4.77c2.1-1.15,4.01-1.72,5.73-1.72s2.86,0.57,3.63,1.15
		c1.53,2.48,4.77,5.15,12.03,5.15h16.99c1.34,0,3.05-0.19,3.05-2.29c0-2.1-1.34-2.48-3.05-3.24
		C550.4,747.76,550.02,744.13,550.02,741.84L550.02,741.84z M361.8,708.81c0-25.2-19.28-45.62-42.95-45.62
		c-23.86,0-43.14,20.43-43.14,45.62c0,25.2,19.28,45.62,43.14,45.62C342.52,754.44,361.8,734.01,361.8,708.81L361.8,708.81z
		 M332.22,734.01c-1.91,7.25-8.4,9.54-12.6,9.54c-6.11,0-10.31-5.54-11.64-11.07c-2.1-8.02,0.95-16.61,4.96-18.13
		c0.38-0.19,0.95-0.38,1.34-0.57c1.72-0.57,7.06-1.15,10.12-3.82c4.39-3.63,4.77-9.54,0.57-12.79c-1.91-1.53-4.01-2.29-5.92-2.29
		c-3.82,0-7.64,2.48-9.74,4.39c-0.19,0.19-3.05,2.86-4.96,4.77c-0.38,0.19-0.57,0.38-0.76,0.38c-0.57,0-0.76-0.57-0.76-0.95
		c0.19-2.29,0.38-4.39,0.95-6.49c2.1-13.94,8.02-23.86,14.7-23.86c8.78,0,15.84,16.04,15.84,35.7
		C334.32,715.88,333.74,728.29,332.22,734.01L332.22,734.01z M519.29,629.18c-1.72-22.11-16.42-34.33-37.99-34.33
		c-30.16,0-51.73,28.44-51.73,57.11v11.42c-0.19,0.95-0.76,2.86-2.67,2.86c-0.38,0-0.76-0.19-1.34-0.38
		c-4.77-2.1-9.35-3.05-14.32-3.05c-23.29,0-41.8,17.18-41.8,46c0,25.2,18.71,45.62,42,45.62c7.83,0,14.13-2.29,14.32-2.29
		c3.05-1.15,6.11-2.1,9.54-2.1c1.91,0,4.01,0.38,6.11,1.14c8.02,2.86,9.54,3.25,18.52,3.25c1.34,0,3.05-0.19,3.05-2.29
		c0-2.29-1.72-2.86-3.05-3.24c-2.29-0.57-2.86-1.91-2.86-4.77v-81.89c0-19.76,0.57-43.52,23.86-49.82c2.1-0.57,4.39-0.95,6.87-0.95
		c5.15,0,10.31,1.53,14.51,4.77c4.01,3.44,6.11,9.16,3.05,14.86c-0.57,1.34-4.58,4.74-5.34,8.53c-1.15,5.7,2.1,10.66,7.25,10.66
		c7.64,0.19,10.31-7.03,11.26-11.04C519.1,635.83,519.67,632.59,519.29,629.18L519.29,629.18z M429.57,735.92
		c-0.19,0.76-0.38,2.1-1.34,3.05c-3.05,2.67-7.06,4.58-12.22,4.58c-12.41,0-19.28-15.08-19.28-34.74c0-12.79,3.05-36.08,20.23-36.08
		c2.67,0,5.73,0.57,8.78,1.53c1.91,0.76,3.44,1.72,3.82,6.3V735.92L429.57,735.92z M657.87,663h-20.43c-1.34,0-3.05,0.57-3.05,2.67
		c0,1.72,1.53,2.48,3.05,2.86c1.34,0.19,5.34,0.95,2.86,7.83l-17.56,40.09c-0.57,1.14-1.15,1.53-1.72,1.53
		c-0.57,0-1.15-0.57-1.72-1.34l-17.56-40.09c-3.05-6.68,0.19-8.02,1.53-8.02c1.53,0,3.05-0.76,3.05-2.86c0-2.1-1.72-2.67-3.05-2.67
		h-40.47c-1.53,0-3.25,0.57-3.25,2.67c0,2.1,1.72,2.86,3.25,2.86c1.15,0,4.96,0.19,8.78,8.02l33.6,75.97
		c0.19,1.15,0.38,2.67-0.19,4.77l-7.25,17.75c-5.54,11.64-15.27,30.35-30.16,30.35c-7.63,0-13.17-5.92-17.94-11.26
		c-8.97-10.12-18.71-20.23-33.41-20.23c-7.83,0-16.42,3.82-22.72,10.88c-3.44,3.82-4.77,7.83-4.39,11.26
		c0.57,4.2,4.39,6.87,8.59,6.87c3.44,0,5.92-2.29,8.02-5.54c2.29-3.63,6.49-6.3,11.45-6.3c8.78,0,17.75,8.4,23.29,14.13
		c6.49,7.06,15.27,10.69,24.82,10.69c9.16,0,16.42-2.67,21.95-7.45c7.83-6.49,16.42-22.14,20.62-31.11l43.33-100.98
		c3.24-7.44,5.53-7.63,6.68-7.83c1.53-0.57,3.05-1.15,3.05-2.86C660.93,663.57,659.21,663,657.87,663L657.87,663z"/>
</g>
</svg>
