<?xml version="1.0" encoding="utf-8"?>
<!-- Generator: Adobe Illustrator 24.3.0, SVG Export Plug-In . SVG Version: 6.00 Build 0)  -->
<svg version="1.1" id="Layer_1" xmlns="http://www.w3.org/2000/svg" xmlns:xlink="http://www.w3.org/1999/xlink" x="0px" y="0px"
	 viewBox="0 0 864 864" style="enable-background:new 0 0 864 864;" xml:space="preserve">
<style type="text/css">
	.st0{fill-rule:evenodd;clip-rule:evenodd;}
</style>
<g>
	<path class="st0" d="M435.69,376.44c-20.01,3.75-30.14,23.76-40.82,38.48c-15.14,20.87-26.78,23.95-35.54,44.65
		c-9.82,23.21,1.35,46.94,20.26,53.1c22.25,7.25,45.17-10.28,70.67-7.14c24.47,3.02,40.81,17.53,64.4,2.07
		c17.49-11.46,20.13-36.31,6.44-57.48c-5.95-9.2-11.89-14.3-18.8-21.32C481.33,407.54,472.57,369.53,435.69,376.44L435.69,376.44z
		 M379.74,384.68c-0.12-61.22-65.67-79.4-66.33-11.62C312.71,445.02,379.85,443.42,379.74,384.68L379.74,384.68z M515.19,310.25
		c-1.17-62.54-63.04-44.36-66.96,14.83C444.69,378.42,509.91,382.91,515.19,310.25L515.19,310.25z M393.52,274
		c-34.37,11.8-24.51,68.1-7.69,81.2c8.03,6.25,17.92,10.39,30.95,7.25c22.72-5.47,22.62-32.54,19.58-56.19
		C431.48,286.74,416.92,265.96,393.52,274L393.52,274z M541.29,330.96c-50.56,18.29-55.18,100.8-9.34,90.43
		C594.39,407.25,573.09,316.47,541.29,330.96L541.29,330.96z"/>
	<path d="M113.69,6.62c0,0-9.14,0.8-21.97,0.8c-3.21-0.16-18.6-0.96-18.6-0.96l-0.8,8.66l12.35,2.08c0.32,2.09,1.44,9.46,1.44,12.19
		v69.11c0,2.73-1.12,10.1-1.44,12.19L72,113.26l0.8,8.02c0,0,15.71-0.8,18.92-0.8c12.83,0,23.41,0.8,23.41,0.8l1.12-9.46
		l-14.43-1.12c-0.32-2.24-1.12-10.26-1.12-17.03v-59.6c0-6.76,0.8-14.78,1.12-17.02l12.51-1.12L113.69,6.62L113.69,6.62z
		 M203.17,5.82c0,0-15.07,1.6-18.28,1.6h-35.92c-3.21,0-18.6-0.8-18.6-0.8l-0.8,8.66l12.35,1.92c0.32,2.09,1.44,9.46,1.44,12.19
		v69.11c0,2.73-1.12,10.1-1.44,12.19l-12.67,2.56l0.8,8.02c0,0,15.72-0.8,18.92-0.8c12.83,0,25.02,0.8,25.02,0.8l1.12-9.46
		l-16.04-1.12c-0.32-2.24-1.12-10.26-1.12-17V68.04c2.73-0.32,5.45-0.48,6.9-0.48h8.5c3.21,0,12.83,0.96,12.83,0.96l1.44,10.74
		l7.7-0.96c0,0-0.48-9.46-0.48-17.48c0-3.21,0.16-13.47,0.16-13.47l-7.38-0.8l-1.44,10.58c0,0-6.41,1.44-9.62,1.44h-11.71
		c-1.28,0-4.17-0.16-6.9-0.32V34.2c0-6.25,0.8-14.43,1.12-17.8h21.01c4.49,0,9.46,0.48,12.99,0.8c1.6,2.09,3.05,4.33,3.21,5.45
		c0.64,2.41,1.44,6.09,1.76,8.66l9.3-0.8l-1.12-21.81L203.17,5.82L203.17,5.82z M296.34,6.62c0,0-9.14,0.8-21.97,0.8
		c-3.21-0.16-18.6-0.96-18.6-0.96l-0.8,8.66l12.35,2.08c0.32,2.09,1.44,9.46,1.44,12.19v69.11c0,2.73-1.12,10.1-1.44,12.19
		l-12.67,2.56l0.8,8.02c0,0,15.72-0.8,18.92-0.8c12.83,0,23.41,0.8,23.41,0.8l1.12-9.46l-14.43-1.12
		c-0.32-2.24-1.12-10.26-1.12-17.03v-59.6c0-6.76,0.8-14.78,1.12-17.02l12.51-1.12L296.34,6.62L296.34,6.62z M432.32,93.21
		l-9.46,0.32c0,0,0,5.93-0.32,7.54c0,1.6-1.12,5.29-2.24,8.98c-6.74,2.09-15.23,3.53-21.81,3.53c-22.93,0-34.16-21.97-34.16-49.71
		c0-27.74,11.22-49.55,34.32-49.55c6.09,0,13.95,1.6,20.2,3.69c0.96,3.21,1.92,6.58,1.92,8.02v7.54l9.46,0.64l1.6-23.73
		c-10.1-2.57-20.04-5.45-33.19-5.45c-33.67,0-50.83,24.05-50.83,59.01c0,34.96,17.16,58.85,50.83,58.85
		c12.99,0,24.53-2.89,34.64-5.45L432.32,93.21L432.32,93.21z M544.73,111.81l-9.94-1.6l-6.25-13.63L495.5,5.82l-9.3,1.6l-28.7,87.39
		l-6.9,15.88l-10.1,2.73l0.64,7.86c0,0,15.72-0.8,21.65-0.8h13.79l0.8-8.66l-11.22-1.6l1.6-10.1l5.13-16.84h35.28l3.37,9.62
		l4.33,17.32l-11.71,3.21l0.64,7.86c0,0,17.96-0.8,22.93-0.8h16.2L544.73,111.81L544.73,111.81z M489.89,31.16l15.07,43.46
		l-29.19,0.64L489.89,31.16L489.89,31.16z M664.2,6.62c0,0-12.35,0.8-25.02,0.8L626.03,7.1l-0.96,9.62l12.67,0.96
		c0.48,2.89,1.44,10.74,1.44,13.31v63.34l-42.01-58.85c-2.41-3.53-15.55-24.86-15.55-24.86l-3.21-3.37l-7.06,0.16
		c-3.21,0-18.6-0.8-18.6-0.8l-0.8,8.66l12.83,1.92c0.32,2.41,1.44,9.62,1.44,12.19v69.11c0,2.73-1.12,10.1-1.44,12.19l-12.67,2.56
		l0.8,8.02c0,0,14.11-0.8,17.32-0.8c12.83,0,19.72,0.8,19.72,0.8l1.12-9.46l-12.99-1.12c-0.32-2.24-1.12-10.26-1.12-17V31.32
		l63.18,90.28h9.62c0,0,0.16-42.33,0.16-48.75V35.81c0-6.41,1.76-15.07,2.41-18.12L665,15.12L664.2,6.62L664.2,6.62z M682.64,18.17
		c0,6.73-4.33,12.35-11.06,15.23l1.12,3.85c13.47-2.89,20.85-15.55,20.85-26.78c0-7.06-3.37-13.47-10.42-13.47
		c-5.93,0-10.26,5.13-10.26,11.07C672.85,13.84,676.86,18.17,682.64,18.17L682.64,18.17z M792,31.8l-1.12-23.09l-3.05-2.89
		c0,0-15.07,1.6-18.28,1.6h-47.3c-3.21,0-18.28-1.6-18.28-1.6l-3.05,2.89l-1.12,23.09l9.3,0.8c0.32-2.56,1.12-7.54,1.76-9.94
		c0.16-1.12,1.6-3.37,3.21-5.45c3.53-0.32,8.5-0.8,12.99-0.8h10.1c0.32,3.05,1.44,10.58,1.44,12.99v69.11
		c0,2.73-1.12,10.1-1.44,12.19l-12.67,2.56l0.8,8.02c0,0,15.71-0.8,18.92-0.8c12.83,0,23.41,0.8,23.41,0.8l1.12-9.46l-14.43-1.12
		c-0.32-2.24-1.12-10.26-1.12-17V34.2c0-6.09,0.8-14.59,1.12-17.8h10.42c4.49,0,9.46,0.48,12.99,0.8c1.6,2.09,3.05,4.33,3.21,5.45
		c0.64,2.41,1.44,7.38,1.76,9.94L792,31.8L792,31.8z"/>
	<path d="M114.75,139.39c-9.18,0-17.31,1.36-26.34,1.51c-4.21-0.15-15.35-0.75-15.35-0.75l-0.75,8.13l10.69,1.81
		c0.3,1.96,1.35,8.88,1.35,11.44v64.88c0,2.56-1.05,9.48-1.35,11.44L72,240.24l0.75,7.53c0,0,11.29-0.6,15.66-0.75
		c11.59,0.15,21.68,0.75,28.9,0.75c17.16,0,30.71-10.99,30.71-28.3c0-15.66-10.69-24.84-25.59-27.1v-1.05
		c12.19-3.01,20.92-12.79,20.92-26.04C143.35,148.72,130.26,139.39,114.75,139.39L114.75,139.39z M99.1,148.42
		c3.76-0.45,8.13-0.9,12.49-0.9c10.54,0,17.76,7.53,17.76,19.57c0,13.4-9.33,20.62-21.38,20.62h-1.05l-1.05,8.58h1.66
		c13.4,0,25.29,6.77,25.29,21.98c0,13.55-8.28,20.77-20.17,20.77c-4.97,0-9.94-0.45-13.7-0.9c-0.3-1.81-0.9-9.63-0.9-16.26v-55.85
		C98.04,159.41,98.8,150.38,99.1,148.42L99.1,148.42z M204.77,139.39c-6.92,0-19.42,1.2-27.55,1.51c-4.97-0.3-15.05-0.75-15.05-0.75
		l-0.75,8.13l11.59,1.81c0.3,2.11,1.35,9.03,1.35,11.44v64.88c0,2.56-1.05,9.48-1.35,11.44l-11.89,2.41l0.75,7.53
		c0,0,14.75-0.75,17.76-0.75c12.04,0,21.98,0.75,21.98,0.75l1.05-8.88l-13.55-1.05c-0.3-2.11-1.05-9.63-1.05-15.96v-20.32
		c4.06,0.15,8.88,0.15,13.25,0.15h1.05l14.75,27.85c1.96,3.61,8.28,17.46,8.28,17.46c12.04,0,23.78,0.75,23.78,0.75l1.05-8.88
		l-10.84-1.05c-2.41-3.31-6.02-8.28-7.38-10.54c-0.9-1.2-8.58-13.7-15.96-27.85c12.8-4.21,21.98-14.15,21.98-28.9
		C238.04,149.77,225.39,139.39,204.77,139.39L204.77,139.39z M198.45,146.91c15.51,0,25.44,7.98,25.44,23.78
		c0,15.81-10.09,23.48-25.59,23.48c-2.71,0-6.47-0.3-10.24-0.6v-27.55c0-6.62,0.6-14.45,1.2-18.21
		C193.03,147.37,196.64,146.91,198.45,146.91L198.45,146.91z M298.4,140.14c0,0-8.58,0.75-20.62,0.75
		c-3.01-0.15-17.46-0.9-17.46-0.9l-0.75,8.13l11.59,1.96c0.3,1.96,1.36,8.88,1.36,11.44v64.88c0,2.56-1.05,9.48-1.36,11.44
		l-11.89,2.41l0.75,7.53c0,0,14.75-0.75,17.76-0.75c12.04,0,21.98,0.75,21.98,0.75l1.05-8.88l-13.55-1.05
		c-0.3-2.11-1.05-9.63-1.05-15.98v-55.95c0-6.35,0.75-13.88,1.05-15.98l11.74-1.05L298.4,140.14L298.4,140.14z M418.23,140.14
		c0,0-11.59,0.75-23.48,0.75l-12.34-0.3l-0.9,9.03l11.89,0.9c0.45,2.71,1.35,10.09,1.35,12.49v59.46l-39.44-55.25
		c-2.26-3.31-14.6-23.33-14.6-23.33l-3.01-3.16l-6.62,0.15c-3.01,0-17.46-0.75-17.46-0.75l-0.75,8.13l12.04,1.81
		c0.3,2.26,1.35,9.03,1.35,11.44v64.88c0,2.56-1.05,9.48-1.35,11.44l-11.89,2.41l0.75,7.53c0,0,13.25-0.75,16.26-0.75
		c12.04,0,18.52,0.75,18.52,0.75l1.05-8.88l-12.19-1.05c-0.3-2.11-1.05-9.63-1.05-15.96v-58.56l59.31,84.75h9.03
		c0,0,0.15-39.74,0.15-45.76v-34.77c0-6.02,1.66-14.15,2.26-17.01l11.89-2.41L418.23,140.14L418.23,140.14z M477.84,138.63
		c-33.27,0-50.28,22.58-50.28,55.4c0,32.82,17.01,55.25,50.28,55.25c12.95,0,24.39-2.71,34.47-5.12v-22.13
		c0-7.53,1.35-23.03,1.35-23.03l-2.71-2.56c0,0-7.68,0.45-10.69,0.45h-16.71l-0.75,8.73l15.96,1.2c0,0,1.51,7.68,1.51,10.69v10.24
		c0,1.66-0.9,5.87-1.81,9.78c-6.77,1.81-15.05,3.01-21.07,3.01c-23.33,0-34.62-20.62-34.62-46.66c0-26.04,11.29-46.52,34.62-46.52
		c6.47,0,14.75,1.66,21.38,3.61c0.9,3.01,1.81,6.17,1.81,7.38v6.77l8.73,0.9l1.66-22.28C500.87,141.34,490.93,138.63,477.84,138.63
		L477.84,138.63z M656.67,140.74l-3.01,3.16c0,0-6.47,18.97-7.98,22.28l-20.47,54.49l-20.02-53.29c-1.35-3.61-7.83-23.48-7.83-23.48
		l-2.86-3.01h-8.43c-3.01,0-20.77-0.75-20.77-0.75l-0.75,8.13l12.34,1.81c0.3,2.11,0.6,8.73,0.6,11.29l-3.91,65.78
		c-0.45,2.56-2.11,8.73-2.56,10.69l-11.74,2.41l0.75,7.53c0,0,13.25-0.75,16.11-0.75c11.74,0,19.42,0.75,19.42,0.75l1.05-8.88
		l-12.19-1.08c-0.15-2.38-0.75-10.99-0.75-15.2l3.61-63.65l32.97,88.06h5.42l32.97-88.06l4.06,63.65c0,4.21-0.6,12.97-0.75,15.23
		l-11.74,2.41l0.75,7.53c0,0,15.05-0.75,17.91-0.75c12.04,0,21.98,0.75,21.98,0.75l0.9-8.91l-12.19-1.03
		c-0.45-1.96-1.96-8.13-2.41-10.69l-5.12-65.93c0-2.56,0.15-9.48,0.45-11.29l12.04-1.05l-0.6-8.88c0,0-11.29,0.75-23.33,0.75H656.67
		L656.67,140.74z M792,147.52l-0.6-7.38c0,0-16.26,0.75-21.53,0.75h-13.55l-0.75,8.13l11.44,1.5c0,0-2.41,5.87-4.21,9.48
		l-17.31,35.22l-15.2-28.45c-4.82-8.88-6.47-16.26-6.47-16.26l11.89-3.01l-0.6-7.38c0,0-18.36,0.75-22.13,0.75h-16.41l-0.75,8.13
		l9.94,1.5c0,0,5.27,6.62,8.43,12.8l23.33,45.01v18.06c0,2.56-1.05,9.48-1.36,11.44l-11.89,2.41l0.75,7.53
		c0,0,14.75-0.75,17.76-0.75c12.04,0,21.98,0.75,21.98,0.75l1.05-8.88l-13.55-1.05c-0.3-2.11-1.05-9.63-1.05-15.96v-15.96
		l21.08-40.94c4.06-7.83,9.48-14.9,9.48-14.9L792,147.52L792,147.52z"/>
	<path d="M707.71,263.46c-78.27,0-118.29,53.12-118.29,130.33c0,77.21,40.02,129.98,118.29,129.98c30.46,0,57.37-6.37,81.1-12.04
		v-52.06c0-17.71,3.19-54.19,3.19-54.19l-6.38-6.02c0,0-18.06,1.06-25.14,1.06h-39.31l-1.77,20.54l37.54,2.83
		c0,0,3.54,18.06,3.54,25.15v24.08c0,3.9-2.13,13.81-4.25,23.02c-15.94,4.25-35.42,7.08-49.58,7.08
		c-54.89,0-81.46-48.52-81.46-109.79S651.75,284,706.65,284c15.23,0,34.71,3.9,50.29,8.5c2.13,7.08,4.25,14.52,4.25,17.35v15.94
		l20.54,2.13l3.89-52.42C761.9,269.83,738.52,263.46,707.71,263.46L707.71,263.46z M175.41,265.23c-23.38,0-43.56,2.83-66.23,3.54
		C97.14,268.06,74.48,267,74.48,267l-1.77,19.13l27.27,4.25c0.71,4.6,3.19,20.9,3.19,26.92v152.64c0,6.02-2.48,22.31-3.19,26.92
		L72,502.52l1.77,17.71c0,0,34.35-1.77,41.79-1.77c21.25,0,45.69,2.13,59.85,2.13c76.5,0,122.18-51.35,122.18-126.79
		C297.6,314.81,254.39,265.23,175.41,265.23L175.41,265.23z M175.77,286.48c59.14,0,86.77,48.17,86.77,107.31
		c0,58.44-27.62,105.89-86.77,105.89c-15.58,0-28.69-0.71-37.9-1.42c-0.35-1.42-2.48-21.96-2.48-38.96V327.92
		c0-14.17,1.77-32.94,2.48-39.67C146.73,287.19,159.48,286.48,175.77,286.48L175.77,286.48z"/>
	<path d="M122.84,537.73c0,0-11.15,0.98-26.79,0.98c-3.91-0.2-22.68-1.17-22.68-1.17l-0.98,10.56l15.06,2.54
		c0.39,2.54,1.76,11.54,1.76,14.86v84.28c0,3.32-1.37,12.32-1.76,14.86L72,667.76l0.98,9.78c0,0,19.16-0.98,23.07-0.98
		c15.64,0,28.55,0.98,28.55,0.98l1.37-11.54l-17.6-1.37c-0.39-2.74-1.37-12.52-1.37-20.76V571.2c0-8.25,0.98-18.02,1.37-20.76
		l15.25-1.37L122.84,537.73L122.84,537.73z M140.44,528.73c0-0.2,3.52,24.64,3.71,28.35l-0.19,18.38l11.34,0.59l2.54-47.52
		L140.44,528.73L140.44,528.73z M296.49,538.51l-3.91,4.11c0,0-8.41,24.64-10.36,28.94l-26.59,70.79l-26.01-69.22
		c-1.76-4.69-10.17-30.51-10.17-30.51l-3.72-3.91h-10.95c-3.91,0-26.99-0.98-26.99-0.98l-0.98,10.56l16.03,2.35
		c0.39,2.74,0.78,11.34,0.78,14.67l-5.08,85.45c-0.59,3.32-2.74,11.34-3.32,13.88l-15.25,3.13l0.98,9.78c0,0,17.21-0.98,20.92-0.98
		c15.25,0,25.22,0.98,25.22,0.98l1.37-11.54l-15.84-1.4c-0.2-3.1-0.98-14.27-0.98-19.75l4.69-82.68l42.82,114.39h7.04l42.82-114.39
		l5.28,82.68c0,5.47-0.78,16.85-0.98,19.78l-15.25,3.13l0.98,9.78c0,0,19.55-0.98,23.27-0.98c15.64,0,28.55,0.98,28.55,0.98
		l1.17-11.57l-15.84-1.34c-0.59-2.54-2.54-10.56-3.13-13.88l-6.65-85.65c0-3.32,0.19-12.32,0.59-14.67l15.64-1.37l-0.78-11.54
		c0,0-14.67,0.98-30.31,0.98H296.49L296.49,538.51z M534.86,537.73c0,0-15.06,0.98-30.5,0.98l-16.04-0.39l-1.17,11.73l15.45,1.17
		c0.59,3.52,1.76,13.1,1.76,16.23v77.24l-51.23-71.76c-2.93-4.3-18.97-30.31-18.97-30.31l-3.91-4.11l-8.6,0.2
		c-3.91,0-22.68-0.98-22.68-0.98l-0.98,10.56l15.64,2.35c0.39,2.93,1.76,11.73,1.76,14.86v84.28c0,3.32-1.37,12.32-1.76,14.86
		l-15.45,3.13l0.98,9.78c0,0,17.21-0.98,21.12-0.98c15.64,0,24.05,0.98,24.05,0.98l1.37-11.54l-15.84-1.37
		c-0.39-2.74-1.37-12.52-1.37-20.73v-76.07l77.04,110.09h11.73c0,0,0.2-51.62,0.2-59.44v-45.17c0-7.82,2.15-18.38,2.93-22.1
		l15.45-3.13L534.86,537.73L534.86,537.73z M675.26,607.73c0-42.63-21.71-71.96-64.14-71.96c-42.43,0-64.14,29.33-64.14,71.96
		c0,42.43,21.71,71.77,64.14,71.77C653.55,679.5,675.26,650.16,675.26,607.73L675.26,607.73z M567.9,607.73
		c0-34.22,14.08-61.6,43.21-61.6c29.14,0,43.22,27.38,43.22,61.6c0,34.03-14.08,61.4-43.22,61.4
		C581.98,669.13,567.9,641.76,567.9,607.73L567.9,607.73z M792,568.43l-1.37-28.16l-3.71-3.52c0,0-18.38,1.96-22.29,1.96h-57.69
		c-3.91,0-22.29-1.96-22.29-1.96l-3.72,3.52l-1.37,28.16l11.34,0.98c0.39-3.13,1.37-9.19,2.15-12.12c0.19-1.37,1.96-4.11,3.91-6.65
		c4.3-0.39,10.36-0.98,15.84-0.98h12.32c0.39,3.72,1.76,12.91,1.76,15.84v84.28c0,3.32-1.37,12.32-1.76,14.86l-15.45,3.13l0.98,9.78
		c0,0,19.16-0.98,23.07-0.98c15.64,0,28.55,0.98,28.55,0.98l1.37-11.54l-17.6-1.37c-0.39-2.74-1.37-12.52-1.37-20.73v-72.55
		c0-7.43,0.98-17.8,1.37-21.71h12.71c5.48,0,11.54,0.59,15.84,0.98c1.96,2.54,3.72,5.28,3.91,6.65c0.78,2.93,1.76,9,2.15,12.12
		L792,568.43L792,568.43z"/>
	<path d="M149.53,696.64c-51.3,0-77.52,34.82-77.52,85.42c0,50.6,26.23,85.18,77.52,85.18c19.96,0,37.6-4.18,53.15-7.89v-34.12
		c0-11.61,2.09-35.51,2.09-35.51l-4.18-3.95c0,0-11.84,0.7-16.48,0.7h-25.76l-1.16,13.46l24.6,1.86c0,0,2.32,11.84,2.32,16.48v15.78
		c0,2.55-1.39,9.05-2.79,15.09c-10.44,2.79-23.21,4.64-32.49,4.64c-35.98,0-53.38-31.8-53.38-71.95c0-40.15,17.41-71.72,53.38-71.72
		c9.98,0,22.75,2.55,32.96,5.57c1.39,4.64,2.79,9.52,2.79,11.37v10.44l13.46,1.39l2.55-34.35
		C185.04,700.82,169.72,696.64,149.53,696.64L149.53,696.64z M378.85,782.06c0-50.6-25.76-85.42-76.13-85.42
		c-50.37,0-76.13,34.82-76.13,85.42c0,50.37,25.76,85.18,76.13,85.18C353.08,867.24,378.85,832.42,378.85,782.06L378.85,782.06z
		 M251.42,782.06c0-40.62,16.71-73.11,51.3-73.11c34.58,0,51.3,32.5,51.3,73.11c0,40.39-16.71,72.88-51.3,72.88
		C268.13,854.94,251.42,822.44,251.42,782.06L251.42,782.06z M460.08,698.96c0,0-13.23,1.16-31.8,1.16
		c-4.64-0.23-26.92-1.39-26.92-1.39l-1.16,12.53l17.87,3.02c0.46,3.02,2.09,13.69,2.09,17.64v100.04c0,3.95-1.63,14.62-2.09,17.64
		l-18.34,3.71l1.16,11.61c0,0,22.75-1.16,27.39-1.16c18.57,0,33.89,1.16,33.89,1.16l1.62-13.69l-20.89-1.62
		c-0.46-3.25-1.62-14.85-1.62-24.64v-86.27c0-9.79,1.16-21.39,1.62-24.64l18.1-1.63L460.08,698.96L460.08,698.96z M644.84,698.96
		c0,0-17.87,1.16-36.21,1.16l-19.03-0.46l-1.39,13.93l18.34,1.39c0.7,4.18,2.09,15.55,2.09,19.27v91.68l-60.81-85.18
		c-3.48-5.11-22.51-35.98-22.51-35.98l-4.64-4.87l-10.21,0.23c-4.64,0-26.92-1.16-26.92-1.16l-1.16,12.53l18.57,2.79
		c0.46,3.48,2.09,13.93,2.09,17.64v100.04c0,3.95-1.62,14.62-2.09,17.64l-18.34,3.71l1.16,11.61c0,0,20.43-1.16,25.07-1.16
		c18.57,0,28.55,1.16,28.55,1.16l1.62-13.69l-18.8-1.62c-0.46-3.25-1.62-14.85-1.62-24.6v-90.29l91.45,130.68h13.93
		c0,0,0.23-61.28,0.23-70.56v-53.62c0-9.28,2.55-21.82,3.48-26.23l18.34-3.71L644.84,698.96L644.84,698.96z M736.76,696.64
		c-51.3,0-77.52,34.82-77.52,85.42c0,50.6,26.23,85.18,77.52,85.18c19.96,0,37.6-4.18,53.15-7.89v-34.12
		c0-11.61,2.09-35.51,2.09-35.51l-4.18-3.95c0,0-11.84,0.7-16.48,0.7h-25.76l-1.16,13.46l24.6,1.86c0,0,2.32,11.84,2.32,16.48v15.78
		c0,2.55-1.39,9.05-2.78,15.09c-10.45,2.79-23.21,4.64-32.5,4.64c-35.98,0-53.38-31.8-53.38-71.95c0-40.15,17.41-71.72,53.38-71.72
		c9.98,0,22.75,2.55,32.96,5.57c1.39,4.64,2.78,9.52,2.78,11.37v10.44l13.46,1.39l2.55-34.35
		C772.27,700.82,756.95,696.64,736.76,696.64L736.76,696.64z"/>
</g>
</svg>
