<?xml version="1.0" encoding="utf-8"?>
<!-- Generator: Adobe Illustrator 24.3.0, SVG Export Plug-In . SVG Version: 6.00 Build 0)  -->
<svg version="1.1" id="Layer_1" xmlns="http://www.w3.org/2000/svg" xmlns:xlink="http://www.w3.org/1999/xlink" x="0px" y="0px"
	 viewBox="0 0 719.98 876.2" style="enable-background:new 0 0 719.98 876.2;" xml:space="preserve">
<style type="text/css">
	.st0{fill-rule:evenodd;clip-rule:evenodd;}
</style>
<g>
	<path d="M76.71,330.01c7.71-19.67,23.35-33.29,46.97-40.93l7.37-2.43l-1.32-16.61c-0.35-2.92-0.76-5.35-1.11-7.37v-0.83
		c-1.95-11.26-3.61-17.93-5.14-19.94c-1.46-2.08-2.78-3.06-3.82-3.06c-2.43,0-5.84,2.64-10.21,7.92
		c-9.87,11.67-18.07,24.6-24.39,38.71c-3.96,7.85-6.67,12.23-8.13,13.2c-2.94,1.96-10.48,1.6-15.29,1.6
		c-7.04,0-11.15-0.35-14.04-6.67c-1.53-3.27-3.2-8.48-5.14-15.7c-8.21-29.44-10.35-46-10.35-76.3c0-16.24,1.16-27.54,5.28-42.6
		c5.64-20.6,16.53-46.09,31.34-59.41c6.84-6.16,14.44-9.17,23.63-9.17c10.27,0,24.77,3.76,31.76,10.77
		c6.77,6.79,8.97,18.38,8.13,30.37c-0.76,13.55-5,28.07-12.58,43.57c-9.02,18.03-26.44,42.74-42.74,51.28l-5.56,2.85
		c0.21,4.74,0.94,27.65,1.88,30.71l0.63,2.5c3.7-6.47,5.64-9.7,11.47-17.02c5.88-7.41,12.22-15.5,19.32-18
		c4.73-1.67,10.04-1.88,16.4-1.88c10.63,0,19.39,1.67,26.27,4.93c9.8,4.45,16.75,15.08,20.99,31.96l2.22,8.96
		c4.66-1.53,8.69-3.61,12.23-6.32c3.54-2.71,6.81-5.49,9.8-8.34c3.29-3.35,6.57-6.06,9.81-8.12c0.49-0.62,8.24-25.55,21.73-34.68
		c8.41-5.69,18.26-6.85,28.49-5.28c10.84,1.81,19.04,5.42,24.6,10.98c3.74,4.12,5.18,10.9,4.93,17.3
		c-0.56,7.09-3.06,14.18-7.57,21.19c-8.96,13.41-20.08,21.47-33.35,24.04c-2.61,0.4-3.4,1.04-3.68,4.17
		c-0.76,8.54,0.16,18.56,2.43,26.54c2.43,8.96,4.52,13.55,6.18,13.76c1.74,0.21,2.64,0.28,2.78,0.28c6.06,0,17.18-11,21.4-16.89
		c4.39-6.12,11.41-21.67,14.8-29.88c5.43-13.22,9.66-22.66,12.65-28.38c0.51-13.76,1.96-28.78,4.31-45.14l1.81-12.65
		c0-1.33-12.48-1.36-15.91-3.47c-1.88-1.18-3.75-3.68-5.56-7.5c-1.81-3.82-3.13-7.99-3.96-12.65c-0.42-1.8-0.32-2.84,1.39-3.82
		c7.21-4.13,20.15-4.46,31.2-4.93l2.85-9.52c1.95-6.98,4.61-17.41,9.31-19.18c3.59-1.35,9.1-1,13.48-0.56
		c5.84,0.49,10.84,1.74,15.01,3.61c2.5,0.97,4.03,2.36,4.59,4.31c1.51,4.87,0.88,16.61,0.76,22.17l20.36,0.63
		c12.36,0.49,22.58,0.83,33.56,0.83c0.88-2.92,3.92-14.19,5.49-15.91c2.55-2.79,23.59-0.67,27.8,5.91
		c2.24,3.51,3.03,13.16,3.96,13.83c0.57,0.41,4.12,0.93,5.07,1.04c4.62,0.54,8.46,1.53,13.06,2.43c3.02,0.59,6.88,1.18,8.55,2.43
		c2.74,2.06,3.17,11,3.47,14.66l-14.04-0.21c-3.77-0.09-17.09-0.91-18.34,1.11c-0.54,0.87-0.46,4.11-0.69,7.02
		c-0.5,6.2-1.68,13.04-2.29,19.18c-0.28,3.13-0.56,5.7-0.69,7.71c-0.42,2.85-0.76,5.91-0.97,9.17c-0.28,1.88-0.49,3.61-0.63,5.07
		c-2.36,23.87-6.37,61.13-6.46,84.01c-0.06,13.13-0.3,29.17,0.35,37.32c0.37,4.64,2.64,20.27,4.24,22.79c0.9,0,1.69-1.58,3.47-5.7
		c8.02-18.51,13.4-44.24,20.78-82.41c0.63-3.25,1.23-6.32,1.81-9.22c0-2.35,0.07-4.77,0.21-7.25c1.11-13.76,5-27.59,11.81-41.55
		c4.86-10.28,10.28-17.44,16.12-21.4c8.41-5.69,18.26-6.85,28.49-5.28c10.84,1.81,19.04,5.42,24.6,10.98
		c3.74,4.12,5.18,10.9,4.93,17.3c-0.56,7.09-3.06,14.18-7.57,21.19c-8.96,13.41-20.08,21.47-33.35,24.04
		c-2.61,0.4-3.4,1.04-3.68,4.17c-0.76,8.54,0.16,18.56,2.43,26.54c2.43,8.96,4.52,13.55,6.18,13.76c1.74,0.21,2.64,0.28,2.78,0.28
		c6.06,0,17.18-11,21.4-16.89c7.19-10.02,18.01-38.14,23.48-50.07c-5.52-6.86-8.77-13.98-9.79-21.37
		c-1.92-14.29-2.74-26.43,0.35-38.5c4.73-17.23,12.23-28.91,22.38-35.02c9.51-5.5,27.18-1.93,34.81,3.27
		c4.59,3.4,7.16,7.16,7.64,11.33c0.84,7.12,0.98,12.51,0.07,18.83c-2.71,19.11-10.56,35.44-23.63,49.06l-5.84,5.7l2.64,4.45
		c4.06,7.84,5.65,4.35,7.92,3.06l0.83-0.42c2.85-2.15,6.11-5.14,9.87-9.03c5.67-5.94,8.85-10.38,13.34-16.89
		c2.74-3.97,6.19-8.52,8.55-12.51c5.73-10.12,11.09-14.47,22.58-10.63c3.68,1.25,6.74,3.47,9.24,6.74
		c4.57,5.97,3.93,13.62,3.34,21.47c-0.5,6.52-1.02,8.76-2.02,14.94c-5.2,32.44-9.81,62.71-7.5,93.67
		c1.99,26.69,7.7,24.73,18.48,3.27c1.53-2.99,2.71-5.7,3.68-8.13c2.71-7.37,6.11-18.48,10.21-33.49
		c2.14-7.92,10.14-39.19,10.56-43.29l1.81-7.92c0.42-2.43,0.51-3.97,3.2-4.86c2.86-0.96,4.4-0.48,6.39-1.04
		c0.79-0.22,6.75-0.47,7.71,0.42c1.11,1.03-0.28,4.95-0.42,5.91c-0.16,2.27-1.02,5.27-1.6,8.55c-0.28,1.74-0.63,3.82-1.04,6.12
		c-3.67,19.58-13.99,66.47-19.74,81.23c-5,12.16-11.19,20.01-18.48,23.42c-8.19,3.51-19.25,3.76-28.7,2.43
		c-9.33-1.31-13.75-4.45-18.97-12.44c-6.11-8.96-10.08-21.05-11.81-36.2c-0.85-8.07-0.74-21.65-0.21-30.78
		c0.83-12.37,2.15-23.35,4.1-32.94c0.18-0.93,0.96-5.56,0.42-5.56c-1.44,0-2.53,1.21-3.89,2.29c-6.95,5.14-15.5,7.71-25.64,7.71
		c-5.09,0-9.12-0.35-13.7-1.63c-5.74,14.99-10.54,26.21-14.52,33.6c-4.38,8.27-9.31,14.8-14.73,19.53
		c-7.64,6.67-14.87,10.42-21.68,11.33c-6.88,0.83-11.74,1.32-14.59,1.32c-12.83,0-27.23-3.51-36.28-12.77
		c-4.02,19.17-11.87,54.49-19.1,67.11c-2.29,4.1-5.07,6.53-8.34,7.37c-6.46,1.7-16.98,1.62-22.79,0.97
		c-13.55-1.46-22.79-11.6-27.66-30.3c-4.24-13.76-6.32-31.34-6.32-52.74c0-3.13,0.07-6.32,0.21-9.59l0.42-19.53
		c-7.25,20.84-13.08,39.04-24.46,50.66c-3.82,4.1-7.44,6.74-10.98,7.99c-5.44,1.87-11,1.98-17.3,1.6
		c-14.88-0.9-22.31-2.84-29.53-15.43c-5.59-9.54-9.59-21.26-11.99-35.15c-5,10.8-10.56,20.22-18.51,27.16
		c-7.64,6.67-14.87,10.42-21.68,11.33c-6.88,0.83-11.74,1.32-14.59,1.32c-7.3,0-14.38-1.18-21.19-3.47
		c-10.42-3.54-17.93-10.28-22.58-20.36c-5.05-11.12-6.64-25.55-5.26-38.67c-7.44,3.98-17.08,8.13-24.2,9.98
		c-0.96,17.88-1.13,29.73-8.2,46.84c-4.45,10.84-11.4,20.78-20.71,29.74c-11.16,10.58-33.24,18.51-48.09,16.68
		c-15.78-2.21-22.38-13.27-22.38-27.73C72.82,343.07,74.07,336.4,76.71,330.01L76.71,330.01z M84.01,197.08
		c18.97-23.77,28.49-46.77,28.49-69c0-9.52-1.32-16.75-4.03-21.75l-1.67-3.06l-4.24,4.24c-8.2,8.83-15.08,21.47-20.78,37.87
		c-5.7,16.12-9.24,35.58-10.63,58.23l-0.35,7.92C76.37,206.17,78.76,203.7,84.01,197.08L84.01,197.08z M114.37,358.92
		c2.57-2.99,5.07-6.95,7.5-12.02c6.77-13.44,8.68-26.69,8.96-44.54c0-4.38-0.98-3.63-5.91-0.83c-0.56,0.28-1.04,0.63-1.46,1.04
		C111.66,310,103.32,320,98.46,332.44c-2.25,6.21-2.22,10.1-2.22,14.87c0,4.24,0.56,7.85,1.6,10.84c2.23,6.14,5.04,10.06,7.78,8.89
		C108.19,366.14,111.11,363.43,114.37,358.92L114.37,358.92z M247.65,259.83c4.07-5.29,8.58-12.46,10.28-18.55
		c0.8-2.84,1.67-16.68-0.49-16.68c-0.43,0-2.32,2.7-3.06,3.82c-4.86,7.5-8.96,17.51-12.23,30.16c-0.77,3.15-1.6,6.3-1.6,8.13
		c0.69,0.69,2.06-0.93,3.34-2.36C245.08,263.09,246.33,261.56,247.65,259.83L247.65,259.83z M357.38,323.69
		c11.09-15.67,19.14-41.69,26.27-65.53c12.79-42.46,19.32-65.18,19.6-68.17c-1.29-0.64-47.76,0.33-49.68,0.97
		c-0.88,2.2-4.66,28.37-5.49,34.33c-3.82,27.5-5.81,49.23-5.7,74.84c0.14,15.29,1.39,26.34,3.82,33.15l1.04,2.43
		C351.26,331.68,354.09,328.95,357.38,323.69L357.38,323.69z M516.57,259.83c4.07-5.29,8.58-12.46,10.28-18.55
		c0.8-2.84,1.67-16.68-0.49-16.68c-0.43,0-2.32,2.7-3.06,3.82c-4.86,7.5-8.96,17.51-12.23,30.16c-0.77,3.15-1.6,6.3-1.6,8.13
		c0.69,0.69,2.06-0.93,3.34-2.36C514,263.09,515.25,261.56,516.57,259.83L516.57,259.83z M590.72,222.72
		c6.83-14.2,10.85-29.57,8.96-42.32c-0.15-1-1.13-5.7-1.67-5.7c-2.35,0-8.7,12.68-9.94,15.84c-4.44,11.38-6.06,29.06-4.52,40.3
		l0.42,3.27c1.86-2.3,1.68-1.94,3.54-5.35C588.56,226.89,589.61,224.94,590.72,222.72L590.72,222.72z"/>
	<path d="M102.62,709.56c-10.99-3.51-19.52-16.26-25.46-38.07l-2.6-8.66c-4.18,4.21-8.03,8.69-13.51,10.46
		c-4.21,1.36-8.74,1.55-14.32,1.55c-21.68,0-35.35-6.72-41.94-27.29c-8.11-25.32-5.48-53.71,4.53-79.49
		c6.38-15.93,16.33-25.16,29.84-27.78c3.16-0.57,9.32-0.75,13.43-0.65c9.32,0.21,14.91,2.86,20.04,2.86
		c0.33-0.36,0.45-2.45,0.45-3.1c0-7.56,6.02-39.27,8.02-47.87c6.38-27.94,14.32-50,23.83-66.09c9.5-16.09,19.67-24.83,30.51-26.06
		c10.08-1.49,25.96,4.89,32.66,11.44c5.94,6.29,8.91,16.5,8.91,30.64c0,14.38-2.6,30.14-7.72,47.22
		c-7.35,24.52-22.27,54.6-41.64,71.16c-16.48,14.08-18.36,5.75-19.67,11.03c-1.1,4.43-1.41,25.4-1.41,32.68
		c0,18.05,0.88,43.17,2.89,58.66c1.41,10.9,4.49,23.19,9.72,32.27c1.71,3.02,3.19,4.9,4.3,5.47c0.89,0,2.6-1.72,5.12-5.15
		c11.92-16.21,17.75-38.2,23.08-57.92l10.61-41.34c1.15-4.25,3.02-10.2,4.01-11.68c1.44-2.16,6.38-2.44,7.02-2.69
		c0.21-0.14,0.42-0.28,0.63-0.4c3.98-2.22,16.63-1.22,21.75-0.22c9.78,1.91,5.72-1.11,16.33-1.11c7.48,0,18.29,2.36,24.35,5.27
		c4.32,2.08,9.39,6.76,11.73,10.84c4.01,6.98,8.56,22.4,9.57,30.88c0.6,4.99,0.51,4.39,2.6,3.71c2.21-0.72,14.61-8.08,19.02-10.1
		c6.57-24.97,21.85-44.13,49.48-41.41c12.02,1.41,21.52,4.45,28.5,9.13c5.63,3.88,12.46,12.61,14.55,19.08
		c1.04,3.34,2.15,5.2,3.27,5.49c9.57,2.75,17.89,25.24,25.01,67.62c0.42,2.42,2.02,11.37,2.82,12.17c0.74,0,2.6-2.3,5.57-6.83
		c7.84-12.05,14.66-27.62,19.89-41.86c2.57-7,6.89-20.5,10.24-21.38c4.07-1.06,10.52-0.59,14.32,0.45c3.27,0.89,3.85,3.99,3.27,7.42
		c-0.59,4.23-3.12,11.8-7.64,22.86c-9.71,24.2-18.22,39.77-35.63,57.6l-7.79,8.02c0.98,11.72,1.71,18.62,1.71,31.54
		c0,12.65-0.92,31.89-2.15,41.79c-5.72,42.75-18.41,68.88-38.3,78.45c-5.94,2.6-11.8,4.3-17.59,5.05c-8.53,1.04-17.25,1.64-23.97,0
		c-10.09-2.82-18.11-8.46-23.9-17c-5.79-8.54-9.95-17.66-12.4-27.39c-4.48-16.92-4.09-31.52,4.38-46.98
		c6.53-12.32,18.41-23.45,35.63-33.47c4.28-2.54,32.4-19.95,33.47-22.42c0.45-1.04,0.12-3.3,0-4.75l-1.26-20.26
		c-0.3-3.19-0.52-5.34-0.67-6.53l-1.48-12.62c-0.34-1.72-0.67-1.94-1.11-2.38c-0.97,0.97,0.33,0.25-1.63,3.19
		c-0.82,1.19-1.71,2.6-2.75,4.23c-8.46,13.03-18.6,13.37-32.58,12.62c-11.29-0.48-20.4-1.07-27.61-8.09
		c-8.16-7.94-12.99-16.4-14.62-25.38c-2.05-11.52-2.87-20.8-2.04-30.39c-4.26,1.27-12.23,3.15-15.77,3.15
		c-2.36,0-2.39,0.57-2.82,3.71c-1.8,13.2-4.1,23.8-8.91,35.48c-6.71,16.32-16.33,28.9-29.91,29.24c-6.33,0.16-11.81,0.13-17.52-0.74
		c-14.03-2.38-23.9-6.75-29.54-13.29c-5.4-6.18-8.77-14.21-11.23-24.97c-7.43,19.76-15.29,31.54-23.58,35.32
		c-4.9,2.53-9.65,4.08-14.25,4.66C114.88,711.1,108.85,711.49,102.62,709.56L102.62,709.56z M332.49,672.48
		c4.83-10.34,16.63-49.24,14.55-59.97c-0.86-4.4-4.37-11.05-7.13-14.4l-2.23-2.6c-5.15,6.92-7.81,10.29-11.73,20.41
		c-6,15.48-8.1,28.51-6.75,44.83c0.91,10.97,1.98,15.17,4.82,23.45c2.12-2.12,3.03-2.74,4.97-5.72
		C330.19,676.64,331.3,674.63,332.49,672.48L332.49,672.48z M349.63,848.61c10.14-26.14,13.03-60.75,13.43-91.22
		c0.07-5.57-0.07-8.39-0.37-8.39c-1.1,0-12.4,7.05-14.55,8.39c-7.7,4.79-12.07,8.28-18.7,15.22c-4.08,4.3-7.13,8.02-9.13,11.21
		c-10.49,16.92-9.15,34.16-1.93,51.88c2.89,7.2,6.31,13.14,10.17,17.96c5.21,6.24,10.34,10.37,13.29,9.13
		C344.44,861.45,347.03,856.78,349.63,848.61L349.63,848.61z M232.66,626.17c-1.34-14.77-3.93-25.83-7.87-33.03l-2.38-4.6
		c-1.87,1.72-2.1,1.72-3.49,4.23c-3.52,6.38-3.12,14.5-0.82,21.23c2.68,7.84,6.82,12.44,13.43,17.07
		C233.32,632.31,233.25,632.72,232.66,626.17L232.66,626.17z M215.21,686.88c7.73-10.39,14.39-27.57,16.55-41.86l0.45-4.68
		c-0.55-0.55-5.42-1.62-6.75-2l-13.06-4.53c-1.91-0.79-5.62-2.6-6.9-2.6c-1.03,1.8-0.89,18.99-0.89,22.12
		c0,9.07,0.7,20.69,1.71,27.76c0.16,1.09,1.94,11.11,2.75,11.65c0.6,0.4,0.89,0.3,2.08-0.89
		C212.02,690.96,213.36,689.33,215.21,686.88L215.21,686.88z M116.94,545.6c14.4-18.87,24.42-37.91,30.13-57.19
		c7.24-24.46,11.19-46.6,6.68-66.58c-0.35-1.54-1.62-6.21-2.89-6.21c-1.63,0-7.85,9.18-9.35,11.52c-2,3.19-3.79,6.29-5.42,9.31
		c-12.32,24.43-21.3,61.92-26.94,112.49C108.14,557.02,111.11,553.3,116.94,545.6L116.94,545.6z M58.68,645.1l6.75-14.54l3.49-8.41
		l1.11-48.53c0-1.47-0.07-2.7-0.22-3.59c-0.24-2.89,0.15-4.44-1.34-6.7c-4.63-7.06-4.51-6.93-6.75-3.59
		c-4.05,6.09-8.75,18.77-10.84,26.55c-5.89,22.01-8.61,47.65-3.04,67.72l1.48,5.23C53.25,654.29,55.65,651.26,58.68,645.1
		L58.68,645.1z"/>
	<path d="M181.37,119.46c-2.44,0-4.28-0.59-5.5-1.76c-1.22-1.17-1.83-3.66-1.83-7.48c0-25.9,0.34-48.35,1.03-67.35
		c0.68-19.01,1.27-30.12,1.76-33.35c0.78-5.86,3.03-8.79,6.74-8.79c4.4,0,6.65,2.2,6.74,6.6c0,2.93-0.68,35.52-2.05,97.77
		l37.52,0.59c6.55,0,9.82,2.3,9.82,6.89c0,4.2-3.71,6.3-11.14,6.3s-15.98,0.1-25.65,0.29C189.14,119.37,183.33,119.46,181.37,119.46
		L181.37,119.46z M254.08,118.29c-8.11-0.1-12.22-2.25-12.31-6.45c0-3.22,3.62-5.47,10.85-6.74l-0.44-88.83
		c-8.01-0.39-12.02-2.64-12.02-6.74c0-2.54,1.17-4.4,3.52-5.57C246.02,2.78,254.13,2.2,268,2.2c8.01,0,12.02,2.05,12.02,6.16
		c0,4.2-4.79,6.3-14.36,6.3l1.76,89.56l4.84,0.15c5.96,0,8.94,2,8.94,6.01c0,3.91-2.32,6.21-6.96,6.89
		C269.59,117.95,262.87,118.29,254.08,118.29L254.08,118.29z M300.54,119.46c-3.71,0-6.01-3.18-6.89-9.53
		c-0.59-3.91-1.12-10.11-1.61-18.62c-1.37-20.52-2.05-38.31-2.05-53.36c0-7.23,0.2-16.56,0.59-28c0.1-4.4,3.62-6.84,10.55-7.33
		c10.26-0.78,20.42-1.17,30.49-1.17c6.84,0,11.19,0.15,13.05,0.44c4.5,0.68,6.74,2.98,6.74,6.89c0,3.32-1.71,5.23-5.13,5.72
		c-2.44,0.29-7.45,0.46-15.02,0.51c-7.57,0.05-16.88,0.56-27.92,1.54c-0.2,2.15-0.29,5.72-0.29,10.7c0,6.16,0.29,15,0.88,26.53
		c16.61-1.07,27.22-1.61,31.81-1.61c4.59,0,6.89,1.95,6.89,5.86c0,2.93-1.25,4.86-3.74,5.79c-2.49,0.93-9.6,1.83-21.33,2.71
		c-5.28,0.29-9.72,0.88-13.34,1.76c0.29,9.38,0.83,18.05,1.61,26.02c0.78,7.96,1.17,13.66,1.17,17.08
		C306.99,116.78,304.84,119.46,300.54,119.46L300.54,119.46z M382.34,119.02c-9.09,0-15.15-3.59-18.18-10.77
		c-3.03-7.18-4.54-17.66-4.54-31.44l-0.29-65.82c0-4.69,3.08-7.48,9.23-8.36c8.89-1.07,18.57-1.61,29.02-1.61
		c5.67,0,11.43,0.07,17.3,0.22c5.86,0.15,8.79,2.17,8.79,6.08c0,4.69-3.52,7.04-10.55,7.04l-8.65-0.15c-7.52,0-18.23,0.64-32.1,1.91
		c0,14.85,0.1,26.38,0.29,34.59c16.61-0.88,27.31-1.32,32.1-1.32c4.5,0,6.79,2.05,6.89,6.16c0,3.52-1.88,5.59-5.64,6.23
		c-3.76,0.64-14.73,1.29-32.91,1.98v10.99c0,12.9,0.73,21.3,2.2,25.21c1.47,3.91,4.59,5.86,9.38,5.86c7.82,0,15.34-1.29,22.57-3.88
		c7.23-2.59,11.87-3.88,13.93-3.88c3.03,0,4.54,1.91,4.54,5.72c0,3.32-2.27,6.08-6.82,8.28c-4.54,2.2-10.16,3.91-16.86,5.13
		C395.36,118.41,388.79,119.02,382.34,119.02L382.34,119.02z M489.93,118.29c-8.11-0.1-12.22-2.25-12.31-6.45
		c0-3.22,3.62-5.47,10.85-6.74l-0.44-88.83C480.01,15.88,476,13.63,476,9.53c0-2.54,1.17-4.4,3.52-5.57
		c2.35-1.17,10.46-1.76,24.33-1.76c8.01,0,12.02,2.05,12.02,6.16c0,4.2-4.79,6.3-14.36,6.3l1.76,89.56l4.84,0.15
		c5.96,0,8.94,2,8.94,6.01c0,3.91-2.32,6.21-6.96,6.89S498.72,118.29,489.93,118.29L489.93,118.29z M563.07,120.93
		c-8.4,0-15.44-1.34-21.11-4.03c-5.67-2.69-8.5-5.5-8.5-8.43c0-4.74,2.4-6.74,7.04-6.74c2.25,0,5.11,1.05,8.58,3.15
		c3.47,2.1,7.79,3.15,12.97,3.15c4.98,0,9.36-1.47,13.12-4.4c3.76-2.93,5.64-7.08,5.64-12.46c0-7.62-9.23-14.98-27.7-22.06
		c-18.47-7.08-27.7-18.59-27.7-34.52c0-10.46,3.79-18.84,11.36-25.14c7.57-6.3,16.1-9.45,25.58-9.45c9.67,0,17.69,3.03,24.04,9.09
		c6.35,6.06,9.53,12.75,9.53,20.08c0,6.94-2.49,10.41-7.48,10.41c-3.52,0-5.59-2.88-6.23-8.65c-0.64-5.77-2.61-10.11-5.94-13.05
		c-3.32-2.93-8.01-4.4-14.07-4.4c-6.16,0-11.58,2.05-16.27,6.16c-4.69,4.1-7.04,9.72-7.04,16.86c0,8.79,9.23,16.61,27.7,23.45
		c18.47,6.84,27.7,17.15,27.7,30.93c0,8.79-2.91,16-8.72,21.62C579.76,118.12,572.26,120.93,563.07,120.93L563.07,120.93z"/>
	<path d="M237.67,532.53c-4.22,0-6.78-2.57-7.7-7.7l-16.36-81.65c-1.65-9.44-2.47-14.71-2.47-15.81c0-6.89,8.68-7.81,11-2.61
		c1.83,4.22,7.06,30.19,15.67,77.94c4.95-13.56,11.55-36.06,19.79-67.49c1.37-5.04,3.53-7.56,6.46-7.56c3.67,0,6.19,2.38,7.56,7.15
		l21.31,72.99c9.16-52.87,14.34-80.32,15.53-82.34c3.26-5.55,11-3.77,11,2.61c0,1.74-0.41,4.95-1.24,9.62L302,522.77
		c-1.19,5.86-3.85,8.8-7.97,8.8c-4.22,0-7.1-2.7-8.66-8.11l-20.89-68.18L245.23,524C243.58,529.69,241.06,532.53,237.67,532.53
		L237.67,532.53z M337.32,531.7c-7.61-0.09-11.45-2.11-11.55-6.05c0-3.02,3.39-5.13,10.17-6.32l-0.41-83.3
		c-7.51-0.37-11.27-2.47-11.27-6.32c0-2.38,1.1-4.12,3.3-5.22s9.81-1.65,22.82-1.65c7.51,0,11.27,1.92,11.27,5.77
		c0,3.94-4.49,5.91-13.47,5.91l1.65,83.99c5.66,0.17,12.92-0.46,12.92,5.77c0,3.67-2.18,5.82-6.53,6.46
		C351.87,531.38,345.57,531.7,337.32,531.7L337.32,531.7z M401.79,532.66c-4.12,0-6.23-2.61-6.32-7.83l-0.27-15.39
		c0-31.25,0.05-56.36,0.14-75.33c-11.45,0.27-18.69,0.41-21.72,0.41c-3.76,0-5.64-1.88-5.64-5.64c0-4.22,2.61-6.51,7.84-6.87
		c12.11-0.8,37.1-1.27,54.71-0.27c4.86,0.27,7.29,2.34,7.29,6.19c0,3.67-2.38,5.5-7.15,5.5c-7.8,0-14.67-0.03-22.41,0.55
		c-0.18,6.23-0.27,12.19-0.27,17.87l-0.55,72.71C407.34,529.96,405.46,532.66,401.79,532.66L401.79,532.66z M451.55,531.56
		c-4.66,0-6.03-6.42-6.19-10.86c-0.46-10.72-1.15-38.03-2.06-81.92c0-7.51,0.27-12.3,0.82-14.36c0.55-2.06,2.2-3.09,4.95-3.09
		c3.12,0,4.86,1.67,5.22,5.02c0.37,3.34,0.92,19.86,1.65,49.55c14.57-0.09,28.77-0.5,42.61-1.24l0.55-34.78
		c0.09-6.78,0.53-11.59,1.31-14.43c0.78-2.84,2.59-4.26,5.43-4.26c2.84,0,4.49,1.37,4.95,4.12c0.46,2.75,0.69,6.96,0.69,12.65
		c-0.18,6.78-0.27,22.13-0.27,46.05l0.14,38.62c0,5.22-2.06,7.83-6.19,7.83c-4.49,0-6.74-3.34-6.74-10.03
		c-0.18-13.1-0.27-24.1-0.27-32.99c-14.3,0.82-28.13,1.42-41.51,1.79c0.37,6.69,0.73,18.19,1.1,34.5
		C457.74,528.95,455.67,531.56,451.55,531.56L451.55,531.56z M582.13,494.04c8.71-0.37,18.14-1.1,28.32-2.2l-12.65-52.1
		C591.2,460.73,585.98,478.83,582.13,494.04L582.13,494.04z M564.95,533.35c-3.57,0-5.36-1.47-5.36-4.4c0-2.11,0.82-6.14,2.47-12.1
		c5.84-20.58,19.02-68.41,27.35-87.9c2.84-6.64,5.96-9.97,9.35-9.97c3.94,0,7.19,4.72,9.76,14.16c4.4,15.49,9.35,34.34,14.84,56.56
		c5.5,22.22,8.25,34.66,8.25,37.32c0,4.49-1.88,6.74-5.64,6.74c-3.21,0-5.32-1.97-6.32-5.91c-1.92-7.15-4.08-14.75-6.46-22.82
		l-35.46,2.47c-2.21,7.33-6.12,19.96-7.7,22.95C569.03,532.39,567.33,533.35,564.95,533.35L564.95,533.35z"/>
	<path class="st0" d="M562.55,647.83c-20.33,0.78-25.52,20.2-42.49,30.64c-11.22,6.9-27.66,11.85-37.57,21.84
		c-18.87,19.04-24.13,58.38,29.67,54.92c35.69-4.41,45.08,12.36,65.03,19.17c25.57,8.73,58.22-19.46,35.81-46.78
		c-7.06-8.61-16.55-14.47-21.09-25.06c-4.84-11.27-0.66-30.74-8.39-42.1C579.96,655.26,572.03,647.47,562.55,647.83L562.55,647.83z
		 M498.76,596.73c-9.61-4.46-13.95,4.84-20.33,11.78c-30.89,33.61-17.09,66.87,6.31,71.85c19.79,4.21,34.65-12.91,36.25-32.94
		c0.68-8.52-1.66-16.71-5.47-26.77C513.03,614.11,506.3,600.23,498.76,596.73L498.76,596.73z M613.78,568.15
		c-20.06-3.16-29.24,20.93-33.15,35.34c-4.7,17.33-4.87,42.13,18.35,44.04c16.69,1.38,36.81-13.18,36.65-32.87
		C635.58,607.93,628.87,570.52,613.78,568.15L613.78,568.15z M528.1,576.06c-6.95,8.27-12.41,18.45-11.52,26.21
		c2.56,22.18,23.87,39.05,36.86,33.07c19.89-11.25,25.7-42.43,19.31-66.18C565.4,541.83,537.45,564.93,528.1,576.06L528.1,576.06z
		 M504.7,589.83c1.58-2.79,1.25-7.95-0.91-12.18c-3.58,2.96-7.49,6-9.71,9.67c-1.73,2.86-1.32,5.17,3.93,5.76
		C502.25,593.55,502.52,593.68,504.7,589.83L504.7,589.83z M649.18,637.08c10.55,0.95,9.66,11.18,11.71,20.38
		c9.93,44.56-18.67,66.45-41.42,59.05c-19.24-6.26-23.54-28.52-14.9-46.66c3.68-7.72,9.8-13.64,18.14-20.44
		C628.13,644.98,640.9,636.33,649.18,637.08L649.18,637.08z M612.91,559.17c-0.13-3.21-2.25-7.84-5.82-10.98
		c-2.24,4.08-4.76,8.34-5.47,12.56c-0.56,3.3,0.23,5.91,5.32,4.52c1.91-0.52,4.94-0.36,5.62-0.94
		C613.35,563.67,613,561.57,612.91,559.17L612.91,559.17z M565.01,546.32c1.71-2.71,5.87-5.66,10.53-6.59
		c-0.1,4.65-0.06,9.6-1.55,13.61c-1.17,3.13-3.16,5-6.87,1.25c-1.39-1.41-4.1-2.79-4.4-3.63
		C562.37,549.99,563.72,548.35,565.01,546.32L565.01,546.32z M648.31,628.35c0.03-3.21,2.9-7.5,6.89-10.09
		c1.62,4.36,3.48,8.95,3.57,13.23c0.07,3.34-1.45,5.14-6.28,3.02C648.57,632.8,648.27,632.78,648.31,628.35L648.31,628.35z"/>
</g>
</svg>
