<?xml version="1.0" encoding="utf-8"?>
<!-- Generator: Adobe Illustrator 24.3.0, SVG Export Plug-In . SVG Version: 6.00 Build 0)  -->
<svg version="1.1" id="Layer_1" xmlns="http://www.w3.org/2000/svg" xmlns:xlink="http://www.w3.org/1999/xlink" x="0px" y="0px"
	 viewBox="0 0 719.31 887.71" style="enable-background:new 0 0 719.31 887.71;" xml:space="preserve">
<style type="text/css">
	.st0{fill-rule:evenodd;clip-rule:evenodd;}
</style>
<g>
	<path class="st0" d="M67.59,334.35c7.81-19.92,23.65-33.72,47.59-41.47l7.46-2.46l-1.34-16.83c-0.35-2.96-0.77-5.42-1.13-7.46
		v-0.84c-1.97-11.41-3.66-18.16-5.21-20.21c-1.48-2.11-2.82-3.1-3.87-3.1c-2.46,0-5.91,2.68-10.35,8.03
		c-10,11.83-18.3,24.92-24.71,39.21c-4.01,7.96-6.76,12.39-8.24,13.38c-2.98,1.99-10.62,1.62-15.49,1.62
		c-7.13,0-11.29-0.35-14.22-6.76c-1.55-3.31-3.24-8.59-5.21-15.91c-8.32-29.83-10.49-46.6-10.49-77.3c0-16.46,1.17-27.9,5.35-43.16
		c5.71-20.87,16.75-46.7,31.75-60.19c6.93-6.24,14.63-9.29,23.94-9.29c10.41,0,25.1,3.81,32.17,10.91
		c6.86,6.88,9.08,18.62,8.24,30.77c-0.77,13.73-5.07,28.44-12.74,44.14c-9.14,18.27-26.79,43.31-43.3,51.96l-5.63,2.89
		c0.21,4.8,0.95,28.02,1.9,31.12l0.63,2.53c3.74-6.55,5.72-9.82,11.62-17.25c5.96-7.5,12.38-15.7,19.57-18.23
		c4.79-1.69,10.17-1.9,16.61-1.9c10.77,0,19.64,1.69,26.61,5c9.93,4.51,16.97,15.28,21.26,32.39l2.25,9.08
		c4.72-1.55,8.8-3.66,12.39-6.41c3.59-2.75,6.9-5.56,9.93-8.45c3.33-3.39,6.66-6.13,9.94-8.23c0.5-0.63,8.34-25.88,22.02-35.14
		c8.52-5.76,18.5-6.94,28.86-5.35c10.98,1.83,19.29,5.49,24.92,11.12c3.79,4.17,5.25,11.04,5,17.53c-0.56,7.18-3.1,14.36-7.67,21.47
		c-9.08,13.59-20.35,21.75-33.79,24.36c-2.65,0.4-3.45,1.05-3.73,4.22c-0.77,8.65,0.16,18.8,2.46,26.89
		c2.46,9.08,4.58,13.73,6.27,13.94c1.76,0.21,2.68,0.28,2.82,0.28c6.14,0,17.4-11.14,21.68-17.11c4.45-6.2,11.56-21.95,15-30.27
		c5.5-13.4,9.78-22.95,12.81-28.75c0.52-13.94,1.98-29.16,4.37-45.73l1.83-12.81c0-1.35-12.64-1.38-16.12-3.52
		c-1.9-1.2-3.8-3.73-5.63-7.6c-1.83-3.87-3.17-8.1-4.01-12.81c-0.42-1.83-0.32-2.88,1.41-3.87c7.31-4.18,20.41-4.52,31.61-5
		l2.89-9.65c1.98-7.07,4.67-17.64,9.43-19.43c3.64-1.37,9.22-1.02,13.66-0.56c5.91,0.49,10.98,1.76,15.21,3.66
		c2.53,0.99,4.08,2.39,4.65,4.36c1.53,4.93,0.89,16.82,0.77,22.46l20.63,0.63c12.52,0.5,22.88,0.84,34,0.84
		c0.89-2.96,3.97-14.38,5.56-16.12c2.58-2.83,23.9-0.68,28.16,5.98c2.27,3.56,3.07,13.33,4.01,14.01c0.58,0.41,4.18,0.94,5.14,1.06
		c4.68,0.55,8.57,1.55,13.24,2.46c3.05,0.6,6.97,1.2,8.66,2.46c2.78,2.08,3.21,11.14,3.52,14.85l-14.22-0.21
		c-3.82-0.09-17.32-0.93-18.59,1.13c-0.55,0.89-0.47,4.16-0.7,7.11c-0.5,6.28-1.7,13.21-2.32,19.43c-0.28,3.17-0.56,5.77-0.7,7.81
		c-0.42,2.89-0.77,5.98-0.99,9.29c-0.28,1.9-0.49,3.66-0.63,5.14c-2.39,24.19-6.45,61.94-6.55,85.12
		c-0.06,13.3-0.31,29.55,0.35,37.81c0.38,4.7,2.67,20.54,4.29,23.09c0.91,0,1.71-1.6,3.52-5.77c8.12-18.76,13.58-44.82,21.05-83.5
		c0.63-3.29,1.25-6.4,1.83-9.34c0-2.38,0.08-4.83,0.21-7.34c1.13-13.94,5.07-27.95,11.97-42.1c4.93-10.42,10.42-17.67,16.33-21.68
		c8.52-5.76,18.5-6.94,28.87-5.35c10.98,1.83,19.29,5.49,24.92,11.12c3.79,4.17,5.25,11.04,5,17.53c-0.56,7.18-3.1,14.36-7.67,21.47
		c-9.08,13.59-20.35,21.75-33.79,24.36c-2.65,0.4-3.45,1.05-3.73,4.22c-0.77,8.65,0.16,18.8,2.46,26.89
		c2.46,9.08,4.58,13.73,6.27,13.94c1.76,0.21,2.68,0.28,2.82,0.28c6.14,0,17.4-11.14,21.68-17.11
		c7.29-10.15,18.25-38.65,23.79-50.73c-5.59-6.95-8.89-14.17-9.92-21.65c-1.94-14.48-2.78-26.78,0.35-39
		c4.79-17.46,12.39-29.29,22.67-35.48c9.63-5.57,27.54-1.95,35.27,3.31c4.65,3.45,7.25,7.25,7.74,11.48
		c0.85,7.21,0.99,12.67,0.07,19.08c-2.75,19.36-10.7,35.9-23.94,49.7l-5.91,5.77l2.68,4.51c4.11,7.95,5.72,4.41,8.03,3.1l0.84-0.42
		c2.89-2.18,6.2-5.21,10-9.15c5.75-6.01,8.96-10.52,13.52-17.11c2.78-4.02,6.27-8.64,8.66-12.67c5.81-10.25,11.23-14.66,22.88-10.77
		c3.73,1.27,6.83,3.52,9.36,6.83c4.63,6.05,3.98,13.79,3.38,21.75c-0.5,6.61-1.04,8.87-2.04,15.14c-5.27,32.86-9.94,63.54-7.6,94.9
		c2.02,27.04,7.8,25.05,18.73,3.31c1.55-3.03,2.75-5.77,3.73-8.24c2.75-7.46,6.2-18.73,10.35-33.93c2.17-8.02,10.28-39.7,10.7-43.86
		l1.83-8.03c0.43-2.47,0.52-4.02,3.24-4.93c2.9-0.97,4.45-0.49,6.48-1.06c0.8-0.23,6.84-0.48,7.81,0.42
		c1.13,1.04-0.29,5.01-0.42,5.98c-0.16,2.3-1.03,5.34-1.62,8.66c-0.28,1.76-0.63,3.87-1.06,6.2c-3.71,19.84-14.18,67.35-19.99,82.3
		c-5.07,12.32-11.33,20.28-18.73,23.73c-8.3,3.56-19.5,3.81-29.08,2.46c-9.46-1.33-13.93-4.51-19.22-12.6
		c-6.2-9.08-10.21-21.33-11.97-36.68c-0.86-8.17-0.75-21.93-0.21-31.19c0.85-12.53,2.18-23.66,4.15-33.37
		c0.18-0.94,0.97-5.63,0.42-5.63c-1.46,0-2.57,1.23-3.94,2.32c-7.04,5.21-15.7,7.81-25.98,7.81c-5.16,0-9.24-0.36-13.88-1.65
		c-5.81,15.19-10.68,26.55-14.71,34.04c-4.44,8.38-9.43,15-14.93,19.78c-7.74,6.76-15.07,10.56-21.97,11.48
		c-6.97,0.84-11.9,1.34-14.78,1.34c-13,0-27.59-3.56-36.76-12.94c-4.08,19.42-12.03,55.2-19.35,67.99
		c-2.32,4.15-5.14,6.62-8.45,7.46c-6.54,1.73-17.2,1.64-23.09,0.99c-13.73-1.48-23.09-11.76-28.02-30.7
		c-4.29-13.94-6.41-31.75-6.41-53.44c0-3.17,0.07-6.41,0.21-9.72l0.42-19.78c-7.34,21.11-13.25,39.55-24.78,51.32
		c-3.87,4.15-7.53,6.83-11.12,8.1c-5.51,1.89-11.14,2.01-17.53,1.62c-15.08-0.92-22.6-2.88-29.92-15.63
		c-5.66-9.67-9.72-21.54-12.15-35.62c-5.07,10.94-10.69,20.49-18.76,27.52c-7.74,6.76-15.07,10.56-21.97,11.48
		c-6.97,0.84-11.9,1.34-14.78,1.34c-7.39,0-14.57-1.2-21.47-3.52c-10.56-3.59-18.16-10.42-22.88-20.63
		c-5.12-11.26-6.73-25.88-5.33-39.18c-7.54,4.03-17.31,8.24-24.52,10.11c-0.98,18.11-1.14,30.12-8.31,47.45
		c-4.51,10.98-11.55,21.05-20.98,30.13c-11.3,10.72-33.68,18.76-48.72,16.9c-15.99-2.24-22.67-13.44-22.67-28.09
		C63.64,347.58,64.91,340.82,67.59,334.35L67.59,334.35z M588.35,225.65c6.92-14.39,10.99-29.95,9.08-42.87
		c-0.15-1.01-1.15-5.77-1.69-5.77c-2.38,0-8.82,12.85-10.07,16.05c-4.5,11.53-6.14,29.45-4.58,40.83l0.42,3.31
		c1.89-2.34,1.7-1.97,3.59-5.42C586.17,229.87,587.22,227.9,588.35,225.65L588.35,225.65z M513.23,263.24
		c4.12-5.36,8.69-12.62,10.42-18.8c0.81-2.88,1.7-16.9-0.49-16.9c-0.43,0-2.35,2.74-3.1,3.87c-4.93,7.6-9.08,17.74-12.39,30.55
		c-0.78,3.19-1.62,6.38-1.62,8.24c0.7,0.7,2.08-0.94,3.38-2.39C510.62,266.55,511.89,265,513.23,263.24L513.23,263.24z
		 M351.94,327.94c11.24-15.88,19.39-42.24,26.61-66.39c12.95-43.02,19.57-66.04,19.85-69.06c-1.31-0.65-48.38,0.33-50.34,0.99
		c-0.89,2.23-4.72,28.74-5.56,34.78c-3.87,27.86-5.89,49.88-5.77,75.82c0.14,15.49,1.41,26.68,3.87,33.58l1.06,2.46
		C345.74,336.04,348.61,333.27,351.94,327.94L351.94,327.94z M240.77,263.24c4.12-5.36,8.69-12.62,10.42-18.8
		c0.81-2.88,1.7-16.9-0.49-16.9c-0.43,0-2.35,2.74-3.1,3.87c-4.93,7.6-9.08,17.74-12.39,30.55c-0.78,3.19-1.62,6.38-1.62,8.24
		c0.7,0.7,2.08-0.94,3.38-2.39C238.17,266.55,239.44,265,240.77,263.24L240.77,263.24z M74.98,199.67
		c19.22-24.08,28.86-47.38,28.86-69.91c0-9.65-1.34-16.97-4.08-22.04l-1.69-3.1l-4.29,4.29c-8.31,8.94-15.28,21.75-21.05,38.37
		c-5.77,16.33-9.36,36.05-10.77,59l-0.35,8.03C67.24,208.88,69.66,206.37,74.98,199.67L74.98,199.67z M105.74,363.63
		c2.6-3.03,5.14-7.04,7.6-12.18c6.86-13.62,8.79-27.04,9.08-45.13c0-4.44-0.99-3.67-5.98-0.84c-0.56,0.28-1.06,0.63-1.48,1.06
		c-11.97,7.53-20.42,17.67-25.34,30.27c-2.28,6.29-2.25,10.23-2.25,15.07c0,4.29,0.56,7.96,1.62,10.98
		c2.26,6.22,5.1,10.19,7.89,9.01C99.48,370.95,102.44,368.21,105.74,363.63L105.74,363.63z"/>
	<path d="M103.97,718.88c-11.13-3.56-19.78-16.47-25.79-38.57l-2.63-8.77c-4.24,4.26-8.14,8.8-13.69,10.59
		c-4.27,1.38-8.85,1.57-14.51,1.57c-21.96,0-35.81-6.81-42.49-27.64c-8.22-25.66-5.55-54.42,4.59-80.53
		c6.47-16.14,16.54-25.49,30.23-28.14c3.2-0.58,9.44-0.76,13.61-0.66c9.45,0.21,15.11,2.9,20.3,2.9c0.33-0.37,0.45-2.48,0.45-3.15
		c0-7.66,6.1-39.78,8.12-48.5c6.47-28.31,14.51-50.65,24.14-66.96s19.93-25.16,30.91-26.4c10.22-1.51,26.3,4.96,33.09,11.59
		c6.02,6.37,9.02,16.72,9.02,31.04c0,14.57-2.63,30.54-7.82,47.84c-7.45,24.84-22.56,55.31-42.19,72.09
		c-16.69,14.27-18.6,5.83-19.93,11.17c-1.11,4.49-1.43,25.74-1.43,33.11c0,18.28,0.9,43.74,2.93,59.43
		c1.43,11.04,4.55,23.5,9.85,32.69c1.73,3.06,3.23,4.97,4.36,5.55c0.9,0,2.63-1.74,5.19-5.21c12.08-16.42,17.98-38.7,23.39-58.68
		l10.75-41.88c1.16-4.3,3.06-10.33,4.06-11.84c1.46-2.18,6.47-2.47,7.11-2.72c0.21-0.14,0.42-0.28,0.64-0.41
		c4.03-2.25,16.85-1.24,22.03-0.23c9.91,1.94,5.79-1.13,16.54-1.13c7.57,0,18.53,2.39,24.67,5.34c4.38,2.1,9.51,6.85,11.88,10.98
		c4.06,7.07,8.67,22.7,9.7,31.28c0.6,5.06,0.52,4.44,2.63,3.76c2.24-0.72,14.8-8.19,19.27-10.24c6.66-25.3,22.14-44.71,50.13-41.95
		c12.18,1.43,21.81,4.51,28.88,9.25c5.71,3.93,12.63,12.77,14.74,19.33c1.05,3.38,2.18,5.26,3.31,5.56
		c9.7,2.78,18.12,25.57,25.34,68.5c0.42,2.45,2.04,11.52,2.86,12.33c0.75,0,2.63-2.33,5.64-6.92c7.94-12.21,14.85-27.98,20.15-42.41
		c2.09-5.69,5.32-15.62,8.27-19.78c-2.99-8.54-4.51-17.91-3.23-24.73c3.83-19.1,12.56-31.36,26.24-36.85
		c2.78-0.83,5.94-1.28,9.48-1.28c3.08,0,6.47,0.38,10.15,1.13c7.59,1.28,14.96,3.91,22.03,7.9c5.42,3.01,8.12,4.35,8.12,6.62
		c0,1.35-1.28,3.08-3.76,5.26c-13.08,13.84-20.23,27.97-21.58,42.56c-0.15,1.13-0.23,2.26-0.23,3.31c0,12.93,6.32,24.89,18.95,35.87
		l5.26,5.11c11.29-5.52,34.91-31.24,43.31-41.58c3.76-4.59,5.79-7.52,6.09-8.65c0.38-2.93,10.67,0.5,12.33,1.28
		c1.58,0.75,2.78,1.58,3.53,2.41v1.35c0,5.71-3.16,12.48-9.47,20.3c-6.77,8.5-14.36,16.47-22.86,23.84
		c-8.42,7.44-14.74,12.48-19.02,15.11c5.29,7.47,8.28,11.16,12.48,20.91c2.56,6.02,4.36,11.43,5.34,16.09
		c1.81,9.86,0.77,25.53-2.18,34.59c-4.81,14.66-12.18,24.44-22.03,29.18c-14.46,7.01-27.36,8.44-42.49,6.32
		c-23.19-3.25-46.36-20.86-42.34-46.02c1.05-7.22,4.29-13.99,9.78-20.38c5.56-6.39,15.04-14.36,28.58-23.91
		c2.36-1.71,14.59-11.06,14.74-11.73c-0.15-4.21-2.86-9.4-8.12-15.49c-5.34-6.09-11.05-12.18-17.22-18.2
		c-2.72-2.59-5.14-4.99-7.25-7.2c-0.74,1.92-1.56,3.96-2.45,6.14c-9.84,24.52-18.46,40.3-36.09,58.35l-7.9,8.12
		c1,11.88,1.73,18.86,1.73,31.96c0,12.81-0.93,32.31-2.18,42.34c-5.79,43.31-18.65,69.78-38.8,79.48
		c-6.02,2.63-11.96,4.36-17.82,5.11c-8.64,1.05-17.48,1.66-24.29,0c-10.23-2.86-18.35-8.57-24.21-17.22
		c-5.87-8.65-10.08-17.9-12.56-27.75c-4.54-17.14-4.14-31.93,4.44-47.6c6.62-12.48,18.65-23.76,36.09-33.91
		c4.34-2.58,32.82-20.21,33.91-22.71c0.46-1.05,0.12-3.35,0-4.81l-1.28-20.53c-0.3-3.23-0.53-5.41-0.68-6.62l-1.5-12.78
		c-0.35-1.74-0.68-1.96-1.13-2.41c-0.98,0.98,0.33,0.25-1.65,3.23c-0.83,1.2-1.73,2.63-2.78,4.29
		c-8.57,13.21-18.84,13.54-33.01,12.78c-11.44-0.48-20.67-1.09-27.97-8.2c-8.27-8.05-13.16-16.62-14.81-25.72
		c-2.07-11.67-2.91-21.08-2.07-30.79c-4.32,1.29-12.39,3.19-15.98,3.19c-2.39,0-2.42,0.58-2.86,3.76
		c-1.83,13.37-4.16,24.11-9.02,35.94c-6.8,16.53-16.55,29.28-30.3,29.63c-6.42,0.16-11.97,0.13-17.75-0.75
		c-14.21-2.41-24.21-6.84-29.93-13.46c-5.47-6.26-8.89-14.4-11.38-25.29c-7.53,20.02-15.49,31.96-23.89,35.78
		c-4.96,2.57-9.78,4.14-14.44,4.72C116.39,720.45,110.28,720.84,103.97,718.88L103.97,718.88z M336.85,681.32
		c4.89-10.48,16.85-49.89,14.74-60.76c-0.87-4.46-4.42-11.2-7.22-14.59l-2.26-2.63c-5.22,7.01-7.91,10.43-11.88,20.68
		c-6.08,15.68-8.21,28.89-6.84,45.42c0.92,11.12,2.01,15.37,4.89,23.76c2.15-2.15,3.07-2.78,5.04-5.79
		C334.52,685.53,335.65,683.5,336.85,681.32L336.85,681.32z M354.23,859.76c10.28-26.49,13.2-61.55,13.61-92.42
		c0.08-5.64-0.07-8.5-0.38-8.5c-1.12,0-12.56,7.14-14.74,8.5c-7.8,4.85-12.23,8.39-18.95,15.42c-4.14,4.36-7.22,8.12-9.25,11.35
		c-10.63,17.14-9.27,34.61-1.96,52.56c2.93,7.29,6.39,13.31,10.3,18.2c5.27,6.32,10.47,10.51,13.46,9.25
		C348.96,872.77,351.59,868.03,354.23,859.76L354.23,859.76z M490.63,771.18c6.06-13.64,7.05-26.77,6.02-41.96
		c-0.15-2.26-0.8-11.19-1.88-11.73c-3.97,2.65-18.36,16.38-21.36,20.23c-3.23,4.29-5.57,9.48-6.99,15.64
		c-0.68,3.84,0.12,10.17,1.5,14.36c1.88,5.41,4.51,10,7.75,13.84l3.68,3.99C484.48,780.68,487.31,778.25,490.63,771.18
		L490.63,771.18z M235.71,634.39c-1.35-14.96-3.99-26.17-7.97-33.46l-2.41-4.66c-1.89,1.75-2.13,1.75-3.53,4.29
		c-3.57,6.47-3.16,14.69-0.83,21.51c2.72,7.94,6.91,12.61,13.61,17.3C236.38,640.61,236.32,641.03,235.71,634.39L235.71,634.39z
		 M218.04,695.9c7.84-10.53,14.58-27.93,16.77-42.41l0.45-4.74c-0.55-0.55-5.49-1.65-6.84-2.03l-13.23-4.59
		c-1.94-0.8-5.7-2.63-6.99-2.63c-1.04,1.83-0.9,19.24-0.9,22.41c0,9.19,0.71,20.96,1.73,28.12c0.16,1.11,1.96,11.26,2.78,11.81
		c0.6,0.4,0.9,0.3,2.11-0.9C214.81,700.04,216.16,698.39,218.04,695.9L218.04,695.9z M118.48,552.77
		c14.59-19.12,24.74-38.4,30.53-57.94c7.33-24.78,11.34-47.21,6.77-67.46c-0.35-1.56-1.64-6.29-2.93-6.29
		c-1.65,0-7.96,9.3-9.47,11.67c-2.03,3.23-3.84,6.37-5.49,9.44c-12.48,24.75-21.58,62.74-27.3,113.97
		C109.56,564.33,112.57,560.57,118.48,552.77L118.48,552.77z M59.45,653.58l6.84-14.73l3.53-8.53l1.13-49.16
		c0-1.49-0.08-2.73-0.23-3.64c-0.24-2.92,0.15-4.5-1.35-6.79c-4.69-7.15-4.56-7.03-6.84-3.64c-4.11,6.17-8.87,19.02-10.98,26.9
		c-5.97,22.3-8.72,48.27-3.08,68.61l1.5,5.3C53.95,662.88,56.38,659.81,59.45,653.58L59.45,653.58z"/>
	<path d="M173.63,121.03c-6.04,0-7.43-3.04-7.43-9.36c0-26.24,0.35-48.98,1.04-68.24c0.69-19.26,1.29-30.52,1.78-33.79
		c0.79-5.94,3.07-8.91,6.83-8.91c4.46,0,6.73,2.23,6.83,6.68c0,2.97-0.69,35.99-2.08,99.05l38.02,0.59c6.63,0,9.95,2.33,9.95,6.98
		c0,4.26-3.76,6.39-11.29,6.39s-16.19,0.1-25.99,0.3C181.5,120.93,175.61,121.03,173.63,121.03L173.63,121.03z M247.28,119.85
		c-8.22-0.1-12.38-2.28-12.47-6.53c0-3.27,3.66-5.54,10.99-6.83l-0.45-90c-8.12-0.4-12.18-2.67-12.18-6.83
		c0-2.57,1.19-4.46,3.56-5.64c2.38-1.19,10.59-1.78,24.65-1.78c8.12,0,12.18,2.08,12.18,6.24c0,4.26-4.85,6.39-14.55,6.39
		l1.78,90.74c6.11,0.19,13.96-0.5,13.96,6.24c0,3.96-2.35,6.29-7.05,6.98C263,119.5,256.2,119.85,247.28,119.85L247.28,119.85z
		 M294.36,121.03c-3.76,0-6.09-3.22-6.98-9.65c-0.59-3.96-1.14-10.25-1.63-18.86c-2.26-36.41-2.43-48.8-1.49-82.42
		c0.1-4.45,3.66-6.93,10.69-7.43c9.25-0.68,36.4-1.94,44.11-0.74c4.55,0.69,6.83,3.02,6.83,6.98c0,3.37-1.73,5.3-5.2,5.79
		c-2.47,0.3-7.55,0.47-15.22,0.52c-7.67,0.05-17.1,0.57-28.29,1.56c-0.73,8.06-0.05,25.08,0.59,37.72
		c16.83-1.09,27.57-1.63,32.23-1.63c4.65,0,6.98,1.98,6.98,5.94c0,2.97-1.26,4.93-3.79,5.87c-6.18,2.3-25.73,2.24-35.12,4.53
		c0.3,9.5,0.84,18.29,1.63,26.36c0.79,8.07,1.19,13.84,1.19,17.3C300.9,118.31,298.72,121.03,294.36,121.03L294.36,121.03z
		 M377.23,120.59c-9.21,0-15.35-3.64-18.42-10.91c-3.07-7.28-4.6-17.9-4.6-31.85l-0.3-66.68c0-4.75,3.12-7.57,9.36-8.46
		c14.19-1.87,31.67-1.79,46.93-1.41c5.94,0.15,8.91,2.2,8.91,6.16c0,8.78-11.8,7.04-19.45,6.98c-7.62,0-18.46,0.64-32.52,1.93
		c0,15.05,0.1,26.73,0.3,35.05c16.83-0.89,27.67-1.34,32.52-1.34c4.55,0,6.88,2.08,6.98,6.24c0,3.56-1.91,5.67-5.72,6.31
		c-3.81,0.64-14.93,1.31-33.34,2c0,12.1-0.32,29.9,2.23,36.68c1.49,3.96,4.65,5.94,9.5,5.94c7.92,0,15.54-1.31,22.87-3.94
		c7.33-2.62,12.03-3.94,14.11-3.94c3.07,0,4.6,1.93,4.6,5.79c0,3.37-2.3,6.16-6.91,8.39C404.16,118.43,388.88,120.59,377.23,120.59
		L377.23,120.59z M486.23,119.85c-8.22-0.1-12.38-2.28-12.47-6.53c0-3.27,3.66-5.54,10.99-6.83l-0.45-90
		c-8.12-0.4-12.18-2.67-12.18-6.83c0-2.57,1.19-4.46,3.56-5.64c2.38-1.19,10.59-1.78,24.65-1.78c8.12,0,12.18,2.08,12.18,6.24
		c0,4.26-4.85,6.39-14.55,6.39l1.78,90.74c6.11,0.19,13.96-0.5,13.96,6.24c0,3.96-2.35,6.29-7.05,6.98
		C501.95,119.5,495.14,119.85,486.23,119.85L486.23,119.85z M560.34,122.52c-8.51,0-15.64-1.36-21.39-4.08
		c-5.74-2.72-8.61-5.57-8.61-8.54c0-4.64,2.26-6.83,7.13-6.83c6.89,0,8.85,6.39,21.83,6.39c5.05,0,9.48-1.49,13.29-4.46
		s5.72-7.18,5.72-12.62c0-7.72-9.36-15.17-28.07-22.35c-18.71-7.18-28.07-18.84-28.07-34.97c0-10.59,3.84-19.08,11.51-25.47
		C541.35,3.19,549.99,0,559.59,0c9.8,0,17.92,3.07,24.36,9.21c6.44,6.14,9.65,12.92,9.65,20.35c0,7.03-2.52,10.54-7.57,10.54
		c-3.56,0-5.67-2.92-6.31-8.76c-1.31-11.93-8.25-17.67-20.27-17.67c-6.24,0-11.73,2.08-16.48,6.24c-4.75,4.16-7.13,9.85-7.13,17.08
		c0,8.91,9.36,16.83,28.07,23.76c18.71,6.93,28.07,17.38,28.07,31.34C591.97,110.35,578.66,122.52,560.34,122.52L560.34,122.52z"/>
	<path d="M229.47,534.53c-4.08,0-6.57-2.48-7.45-7.45l-15.84-79.06c-1.6-9.14-2.4-14.24-2.4-15.31c0-6.67,8.4-7.56,10.65-2.53
		c1.78,4.08,6.83,29.24,15.17,75.47c4.79-13.13,11.18-34.92,19.17-65.35c1.33-4.88,3.42-7.32,6.26-7.32c3.55,0,5.99,2.31,7.32,6.92
		l20.63,70.68c8.87-51.2,13.89-77.78,15.04-79.73c3.15-5.37,10.65-3.65,10.65,2.53c0,1.69-0.4,4.79-1.2,9.32l-15.71,82.39
		c-1.15,5.68-3.73,8.52-7.72,8.52c-4.08,0-6.88-2.62-8.39-7.85l-20.23-66.02l-18.63,66.55
		C235.19,531.78,232.75,534.53,229.47,534.53L229.47,534.53z M325.97,533.73c-7.36-0.09-11.09-2.04-11.18-5.86
		c0-2.93,3.28-4.97,9.85-6.12l-0.4-80.66c-7.28-0.35-10.91-2.4-10.91-6.12c0-2.31,1.06-3.99,3.19-5.06s9.49-1.6,22.09-1.6
		c7.28,0,10.91,1.86,10.91,5.59c0,3.82-4.35,5.72-13.04,5.72l1.6,81.32c5.48,0.17,12.51-0.44,12.51,5.59c0,3.55-2.11,5.63-6.32,6.26
		C340.06,533.42,333.96,533.73,325.97,533.73L325.97,533.73z M388.39,534.67c-3.99,0-6.03-2.53-6.12-7.59L382,512.17
		c0-30.26,0.04-54.57,0.13-72.94c-11.09,0.27-18.1,0.4-21.03,0.4c-3.64,0-5.46-1.82-5.46-5.46c0-4.08,2.53-6.3,7.59-6.65
		c11.72-0.77,35.93-1.23,52.97-0.27c4.7,0.27,7.05,2.26,7.05,5.99c0,3.55-2.31,5.32-6.92,5.32c-7.56,0-14.21-0.03-21.7,0.53
		c-0.18,6.03-0.27,11.8-0.27,17.3l-0.53,70.41C393.76,532.05,391.94,534.67,388.39,534.67L388.39,534.67z M436.58,533.6
		c-4.51,0-5.84-6.21-5.99-10.51c-0.44-10.38-1.11-36.82-2-79.33c0-7.28,0.27-11.91,0.8-13.91c0.53-2,2.13-2.99,4.79-2.99
		c3.02,0,4.7,1.62,5.06,4.86c0.36,3.24,0.89,19.23,1.6,47.98c14.11-0.09,27.86-0.49,41.26-1.2l0.53-33.67
		c0.09-6.57,0.51-11.22,1.26-13.98c0.75-2.75,2.51-4.13,5.26-4.13s4.35,1.33,4.79,3.99c0.44,2.66,0.67,6.74,0.67,12.25
		c-0.18,6.57-0.27,21.43-0.27,44.59l0.13,37.4c0,5.06-2,7.59-5.99,7.59c-4.35,0-6.52-3.24-6.52-9.72
		c-0.18-12.69-0.27-23.34-0.27-31.94c-13.84,0.8-27.24,1.38-40.2,1.73c0.35,6.48,0.71,17.61,1.06,33.41
		C442.57,531.07,440.57,533.6,436.58,533.6L436.58,533.6z"/>
	<path class="st0" d="M615.8,503.38c-19.37,0.74-24.31,19.24-40.48,29.19c-10.69,6.57-26.35,11.28-35.79,20.81
		c-17.97,18.14-22.99,55.62,28.27,52.32c34-4.2,42.94,11.77,61.96,18.27c24.36,8.32,55.46-18.54,34.11-44.57
		c-6.73-8.2-15.76-13.79-20.1-23.87c-4.61-10.74-0.63-29.28-8-40.1C632.39,510.45,624.84,503.03,615.8,503.38L615.8,503.38z
		 M555.03,454.69c-9.15-4.25-13.29,4.61-19.37,11.22c-29.43,32.02-16.28,63.71,6.01,68.45c18.85,4.01,33.01-12.3,34.53-31.38
		c0.65-8.12-1.58-15.92-5.21-25.5C568.62,471.25,562.21,458.02,555.03,454.69L555.03,454.69z M664.61,427.46
		c-19.11-3.01-27.85,19.94-31.58,33.67c-4.48,16.51-4.64,40.14,17.48,41.96c15.9,1.31,35.07-12.56,34.92-31.32
		C685.37,465.36,678.98,429.72,664.61,427.46L664.61,427.46z M582.98,435c-6.62,7.88-11.82,17.58-10.97,24.97
		c2.44,21.13,22.74,37.2,35.11,31.51c18.95-10.72,24.49-40.42,18.4-63.05C618.52,402.4,591.89,424.4,582.98,435L582.98,435z
		 M560.69,448.12c1.51-2.66,1.19-7.57-0.87-11.6c-3.42,2.82-7.14,5.72-9.25,9.21c-1.65,2.72-1.26,4.93,3.74,5.48
		C558.36,451.66,558.61,451.79,560.69,448.12L560.69,448.12z M698.33,493.13c10.05,0.9,9.2,10.65,11.15,19.41
		c9.46,42.45-17.79,63.3-39.46,56.25c-18.33-5.96-22.43-27.17-14.19-44.45c3.5-7.35,9.34-12.99,17.28-19.47
		C678.28,500.66,690.44,492.42,698.33,493.13L698.33,493.13z M663.77,418.91c-0.12-3.05-2.15-7.46-5.54-10.46
		c-2.14,3.88-4.53,7.95-5.21,11.97c-0.53,3.14,0.22,5.63,5.07,4.31c1.82-0.5,4.71-0.34,5.36-0.89
		C664.2,423.2,663.86,421.2,663.77,418.91L663.77,418.91z M618.14,406.67c1.63-2.58,5.59-5.39,10.03-6.28
		c-0.09,4.43-0.05,9.15-1.48,12.97c-1.11,2.98-3.01,4.77-6.55,1.19c-1.33-1.34-3.91-2.65-4.19-3.45
		C615.63,410.17,616.92,408.61,618.14,406.67L618.14,406.67z M697.5,484.82c0.03-3.06,2.76-7.15,6.56-9.61
		c1.54,4.15,3.32,8.52,3.4,12.6c0.07,3.18-1.38,4.9-5.98,2.88C697.75,489.05,697.47,489.04,697.5,484.82L697.5,484.82z"/>
</g>
</svg>
