<?xml version="1.0" encoding="utf-8"?>
<!-- Generator: Adobe Illustrator 24.3.0, SVG Export Plug-In . SVG Version: 6.00 Build 0)  -->
<svg version="1.1" id="Layer_1" xmlns="http://www.w3.org/2000/svg" xmlns:xlink="http://www.w3.org/1999/xlink" x="0px" y="0px"
	 viewBox="0 0 864 864" style="enable-background:new 0 0 864 864;" xml:space="preserve">
<g>
	<path d="M329.96,709.58c0,18.26-3.89,39.88-18.96,50.08c-8.57,5.8-16.15,6.62-26.09,6.99h-42.3c-2.87,0-4.83-2.02-4.83-4.91v-2.02
		c0-2.42,1.82-4.16,3.29-4.16c0.5,0,0.35-0.77,0.35-1.59v-90.16h-0.61c-2.02-1.16-3.03-2.63-3.03-4.51c0-2.27-0.32-3.7,1.33-5.37
		c0.93-0.92,2.08-1.39,3.5-1.39h42.3c8.05,0,16.81,1.02,23.2,4.65c10.51,5.97,17.54,19.37,20.11,32.48
		C328.8,692.68,329.41,699.32,329.96,709.58L329.96,709.58z M301.52,729.37c1.97-4.28,2.95-10.87,2.95-19.79
		c0-10.87-1.76-18.7-5.32-23.44c-4.85-6.99-7.52-7.28-16.01-7.28h-16.1v61.55h16.1c5.5,0,8.36-0.55,12.37-3.06
		C297.54,736.28,299.53,733.62,301.52,729.37L301.52,729.37z M386.42,768.36c-15.86-0.99-25.62-5-34.45-16.67
		c-11.07-14.64-15.02-34.48-12.54-52.59c0.46-3.38,1.62-8.52,3.52-15.43c3.32-12.26,14.68-25.27,26.56-29.91
		c10.42-3.99,17.17-3.61,27.71-2.14c5.78,0.78,11.65,3.7,17.63,8.7c2.29,2,10.15,11.46,12.11,15.84c7.38,13.67,9.47,33.15,6.1,49.7
		c-1.01,4.97-2.69,9.71-5,14.22C419.94,758.94,406.07,768.36,386.42,768.36L386.42,768.36z M366.57,694.58
		c-3.17,6.92-3,20.59-0.35,28.87c1.93,6.01,5.24,11.09,10.26,14.8c7.76,5.73,19.13,2.99,25-4.02c4.49-5.36,7.46-17.08,7.46-23.96
		c0-8.85-1.91-19.27-8-26.06c-5.4-6.07-9.59-6.36-17.25-6.36C374.78,677.85,369.65,687.81,366.57,694.58L366.57,694.58z
		 M531.28,705.27c4.93,0,4.39,3.73,4.39,7.11c0,2.64-1.64,3.25-3.47,4.16v23.87h0.69c1.85,1.18,2.77,2.77,2.77,4.74
		c0,2.42,0.31,3.64-1.76,5.17c-7.63,6.15-15.11,10.69-22.45,13.61c-19.2,7.67-40.53,5.88-54.85-8.78
		c-11.86-11.99-16.1-28.21-16.1-45.57c0-16.19,3.95-31.49,13.99-43.35c9.13-10.55,21.21-15.81,36.24-15.81
		c8.6,0,19.6,3.79,27.08,7.86c1.53,1.01,2.51,1.36,2.98,1.01c1.72-1.49,4.36-1.38,6.24-0.32c3.3,1.87,4.7,2.84,2.72,6.24
		l-8.64,25.05c-0.51,1.84-1.11,1.78-3.29,2.8c-2.71,1.28-6.76-2.18-6.94-5.17c-0.14-1.2-0.35-0.71-0.35-2.43
		c-6.8-5.21-11.47-7.63-20.31-7.63c-7.09,0-11.51,2.09-16.24,7.28c-4.89,5.14-7.8,17.15-7.8,24.45c0,10.06,2.6,18.03,7.8,23.9
		c6.62,7.58,12.96,8.69,22.83,7.77c4.04-0.37,9.68-2.62,13.06-5v-7.6h-13.9c0,1.8,0.29,3.49-1.27,4.22c-1.66,0.78-3.19,0.61-5,0.61
		c-2.6,0-4.48-1.92-4.48-4.16v-24.79c0-5.41,6.87-5.2,9.1-3.53c1.83,1.37,1.65,2.64,1.65,4.28H531.28L531.28,705.27z M622.74,715.13
		c2.04,5.49,3.01,9.67,3.01,15.46c0,11.05-4.31,22.28-12.6,29.56c-6.97,6.11-17.69,8.7-27.51,8.7c-5.2,0-10.52-0.9-15.92-2.75
		c-5.43-1.82-10.78-4.51-16.1-8l-1.1-0.32c-1.13,1.18-2.83,1.18-5.17,0c-1.79-0.98-2.39-1.25-3.12-3.44c-0.35-1.04-0.35-1.94,0-2.66
		l8.29-26.01c1.28-2.75,3.86-3.81,6.62-2.02c3.46,2.25,3.4,2.39,3.47,5.66c0.15,7.8,16.17,12.35,23.78,12.71
		c2.08,0,4.45-0.32,7.11-0.95c5.73-1.34,8.74-9.97,5.84-13.29c-0.61-0.7-7.48-1.52-10.58-2.11c-5.37-1.08-10.76-1.6-15.92-2.66
		c-5.71-1.19-8.21-2.43-13.38-5.46c-6.94-6.39-10.81-13.96-11.59-22.74c-0.78-8.76-0.52-15.2,0.81-19.3
		c3.14-9.63,8.87-16.64,18.06-21.12c6.94-3.39,16.24-4.37,24.82-2.86c4.31,0.74,10.81,2.97,14.71,4.94
		c2.66,1.33,5.69,3.03,9.07,5.11l1.36,0.52c1.65-1.53,3.61-1.71,5.92-0.52l1.53,1.04c1.66,0.84,2.72,2.15,1.01,5.32l-8.81,24.65
		c-0.13,0.75,0.05,2.51-1.56,3.21c-1.65,0.71-4.87-0.55-6.82-1.65c-1.65-0.92-2.2-2.51-1.68-4.71c0.25-0.72,0.54-0.46,0-1.36
		c-0.35-0.55-0.92-1.33-1.7-2.28c-3.06-2.66-6.18-4.59-9.39-5.87c-4.41-1.74-10.66-2.39-15.55-1.59c-4.91,0.8-8.18,2.99-8.18,8.15
		c0,4.67,1.56,4.23,4.71,4.83c10.82,2.06,23.51,3.32,30.11,6.1C615.73,701.39,619.18,705.63,622.74,715.13L622.74,715.13z"/>
	<path d="M99.49,305.09c2.33-2.22,8.09,3.05,4.74,6.25l-11.97,11.43c-2.17,2.07-4.21-0.2-5.47-1.52c-1.85-1.94-0.36-3.46-0.67-3.79
		l-44.33-46.41c-0.7,0.67-2.44,0.53-3.6-0.69c-1.23-1.29-3.45-3.44-1.27-5.53l11.97-11.43c2.87-2.74,6.45,1.25,6.57,2.97
		c0.04,0.62-0.06,1.6-0.54,2.06L99.49,305.09L99.49,305.09z M122.02,194.46c1.23-0.88,3.28-0.4,4.12,0.78
		c1.23,1.73,2.15,2.5,0.9,5.36l25.84,36.36c4.81,6.76,8.7,13.2,7.94,21.13c-0.78,8.2-5.97,13.15-12.43,17.38
		c-1.64,1.07-8.92,3.06-11.76,3.82c-1.72,0.41-2.48,0.37-3.67,1.21c0.25,1.59-0.9,3.09-2.3,3.03c-1.51-0.06-3.76,0.47-4.51-1.75
		l-6.95-18.2c-0.47-0.87-0.87-1.39-0.11-2.61c1.24-1.99,3.77-2.18,5.59-1.38c2.49,1.08-0.59,3.83,8.87,2.11
		c2.55-0.46,6.89-3.11,7.65-4.97c1.16-2.83-0.13-4.62-1.16-6.89c-1.42-3.15-22.98-32.46-26.99-38.43c-1.52-2.27-2.02,1.88-4.48-1.57
		c-0.96-1.35-1.67-1.95-1.43-3.62c0.12-0.88,0.49-1.55,1.11-1.98L122.02,194.46L122.02,194.46z M212.3,199.98
		c4.08,7.11,6.32,13.13,6.72,18.03c-0.15,9.36-5.69,17.17-16.59,23.43c-6.8,3.9-14.71,6.55-22.06,5.41
		c-5.99-0.93-11.67-6.26-15.14-11.28c-1.32-1.93-9.68-16.29-25.06-43.09c-2.72,1.24-3.67-1.01-4.75-2.89
		c-0.74-1.28-0.28-3.47,1.37-4.42l14.28-8.2c1.42-0.82,3.61-0.07,4.31,1.15c0.75,1.31,1.32,1.94,1.31,3.39
		c-0.01,0.8-0.23,1.6-0.9,1.99c14.19,24.72,21.53,37.51,22.05,38.33c0.59,0.94,2.12,3.06,2.94,3.61c4.08,2.71,8.07,2.06,12.47-0.46
		c4.23-2.43,6.52-5.36,6.89-8.75c0.47-3.73-2.82-8.38-4.87-11.95l-18.75-32.67c-0.72,0.41-2.84-0.05-3.62-1.41
		c-0.85-1.48-1.51-2.18-1.2-3.88c0.17-0.89,0.65-1.57,1.44-2.02l13.42-7.7c1.71-0.98,3.77-0.24,4.51,1.04l0.92,1.6
		c0.61,1.06,0.5,2.29-0.34,3.68l-0.48,0.27L212.3,199.98L212.3,199.98z M271.67,167.71c6.35,7.02,9.25,15.25,7.73,24.87
		c-2.11,13.47-15.88,21.5-29.04,22.21c-4.02,0.23-8.21-0.13-12.59-1.02l-0.8,0.08c-0.91,2.27-6.86,1.92-7-1.82l-1.37-19.13
		c0.28-5.02,6.1-2.54,6.52-2.12c1.37,1.36,0.52,4.55,7.65,5.36c5.72,0.65,11.86-0.54,16.58-3.87c3.37-2.35,3.12-8.77,0.34-10.2
		c-0.58-0.3-5.28,0.96-7.45,1.38l-5.85,1.07c-6.32,1.98-9.06,2.24-15.39,1.27c-6.19-2.36-10.69-6.29-13.49-11.82
		c-2.79-5.51-4.3-9.78-4.51-12.81c-0.79-11.95,5.54-20.89,16.79-25.39c3.81-1.52,6.2-1.75,10.1-1.98
		c7.42-0.68,10.11,0.93,13.99,0.88c1.07-2.27,3.05-2.03,5-1.6c1.42,0.51,2.33,0.69,2.05,3.21l0.68,18.38
		c0.3,1.42,0.9,2.57-1.85,3.19c-1.84,0.42-5.41,0.35-5.53-2.62c-0.02-0.54,0.23-0.44-0.35-0.89c-6.19-4.65-21.33-2.19-23.58,4.95
		c-0.54,1.69,1.1,5.84,2.94,5.43l19.46-4.06c3.47-0.4,8.81-0.22,11.82,1.22C266.88,163.02,269.67,165.51,271.67,167.71
		L271.67,167.71z M331.76,186.62c0.42,1.81-0.23,3.59-2.11,4.03l-16.12,3.72c-3.83,0.88-4.88-4.51-4.06-5.96
		c1.28-2.27,1.82-0.6,1.39-2.47l-11.94-51.75l-12.46,2.88c-0.89,0.49,0.35,1.15-0.91,2.92c-1.11,1.55-5.82,2.51-6.58-0.77
		l-4.31-18.66c-0.83-3.61,4.13-4.4,5.51-3.84c1.38,0.56,1.42,2.38,2.15,2.44l42.38-9.78c0.19-1.91-0.04-3.47,2.54-4.07
		c1.34-0.31,2.19-0.63,3.51,0.04c0.78,0.38,1.26,1.02,1.46,1.91l4.31,18.66c0.75,3.26-3.99,4.51-5.73,3.61
		c-1.7-0.88-1.25-1.7-1.69-1.92c-0.14-0.07-0.23-0.18-0.26-0.33l-12.34,2.85l12.12,52.51c0.08,0.37,2.25-0.02,2.84,2.57
		L331.76,186.62L331.76,186.62z M471.53,96c1.53-0.04,2.95,1.63,2.99,3.07l0.05,1.85c0.03,1.06-0.53,2.09-1.7,3.07l-0.89,0.15
		c-0.06,0.08-0.14,0.13-0.22,0.13l-1.96,4.93l-13.31,54.76c-0.55,1.76-1.17,3.1-1.13,4.78c2.64,1.23,2.71,1.2,2.8,4.51
		c0.05,1.82-0.86,3.48-2.83,3.53l-17.41,0.48c-3.88,0.11-4.19-5.14-2.81-6.83c0.89-1.09,1.3-0.62,2.34-1.2l-0.01-0.53l-11.01-34.94
		l-8.15,32.42l-0.8,3.6c2.7,0.66,2.61,1.98,2.68,4.52c0.05,1.87-0.76,3.47-2.83,3.53l-17.29,0.47c-1.5,0.04-3.09-1.48-3.14-3.37
		c-0.05-1.95-0.29-3.2,2.22-4.41c0.96-0.46-0.26-2.99-0.87-4.97l-16.35-53.95l-1.98-4.82c-0.08,0-0.16-0.04-0.23-0.12
		c-1.16,0.03-2.83-0.99-2.89-3.07c-0.05-1.71-0.31-2.65,0.81-3.98c0.59-0.71,1.29-1.07,2.08-1.09l18.14-0.5
		c2.12-0.06,3.62,1.59,3.66,3.05c0.04,1.64,0.29,2.37-0.65,3.61c-0.52,0.69-1.2,1.31-2.02,1.33c0.04,1.4,0.24,1.47,0.79,2.9
		l8.44,27.96l8-31.34c-1.46,0.04-2.7-1.25-2.74-2.95c-0.05-1.68-0.29-2.65,0.74-3.98c0.55-0.71,1.33-1.07,2.33-1.1l19.32-0.53
		c1.58-0.04,2.97,1.68,3.01,3.07c0.11,4.12,0,2.9-2.59,5.43c0.3,1.21,0.5,2.02,0.59,2.42l8.63,27.96l7.5-30.23
		c0.03-0.57,0.04-0.94,0.03-1.1c-1.24,0.03-2.47-1.23-2.52-2.96c-0.06-2.19-0.38-2.98,0.8-4.23c0.53-0.54,1.18-0.82,1.97-0.85
		L471.53,96L471.53,96z M535.8,177.79c2.25,1.33,1.86,2.81,1.63,4.6c-0.25,1.93-1.9,3.23-3.75,2.99l-19.41-2.54
		c-3.36-0.44-2.91-5.8-1.34-6.95c0.89-0.65,1.31-0.91,2.05-0.82c0.18-1.4-2.08-10.55-2.35-11.75l-19.23-2.52l-4.81,10.63
		c-0.04,0.34,2.55,1,2.23,3.43c-0.2,1.5-0.2,2.76-1.47,3.74c-0.73,0.56-1.58,0.78-2.52,0.65l-17.52-2.29
		c-1.62-0.21-2.67-1.94-2.43-3.8c0.38-2.91,0.43-3.52,3.48-4.21c0.1-0.76,1.13-1.9,1.87-3.18l26.86-54.09
		c3.1-5.83-1.11-2.93-0.58-6.98c0.22-1.64,0.11-2.57,1.42-3.62c0.69-0.57,1.42-0.8,2.16-0.7l18.92,2.48
		c1.54,0.2,2.69,1.98,2.51,3.38l-0.22,1.71c-0.15,1.15-0.89,2.12-2.18,2.91l-0.42-0.06l0.11,2.47l12.63,59.3l1.36,4.31
		C534.85,177.3,535.5,177.35,535.8,177.79L535.8,177.79z M501.09,145.6l8.56,1.12l-2.97-14.07L501.09,145.6L501.09,145.6z
		 M585.24,194.17c0.25-0.91,1.12-1.86,2.05-1.96c-0.32-0.99,0.31-0.58-0.39-2.15l-10.58-29.43l-3.08-10.57l-0.38,1.14l-9.43,33.5
		c-0.13,0.45,1.99,1.11,1.26,3.69c-0.49,1.75-1.25,4.71-4.13,3.9L545.33,188c-1.57-0.44-2.51-2.31-2-4.15
		c1.28-4.55,2.16-3.15,3.83-3.73l17.38-61.78l-0.74-0.21c-0.5-0.56-0.85-1.1-1.02-1.62c-0.36-1.06,0.2-2.5,0.51-3.61
		c0.32-1.14,2.39-2.33,3.01-2.23l18.43,5.12c1.62,0.46,2.48,2.34,2.09,3.73c-0.37,1.31-0.78,3.67-2.56,3.86
		c-0.09,0.31-0.07,0.55,0.04,0.75l13.47,39.75l9.44-33.54c-2.67-0.75-2.14-5.85,0.24-7.15c0.82-0.44,1.67-0.54,2.59-0.28l14.89,4.19
		c1.75,0.49,2.66,2.39,2.27,3.78l-0.47,1.66c-0.46,1.65-2.44,2.6-3.2,2.39l-17.38,61.78c-0.2,0.71,2.27,0.93,1.48,3.75
		c-0.41,1.47-0.59,2.69-1.95,3.5c-0.76,0.46-1.57,0.57-2.45,0.32l-16.05-4.51c-1.92-0.54-2.87-2.32-2.33-4.24L585.24,194.17
		L585.24,194.17z M647.33,221.1c-0.75,1.7-2.33,2.74-4.1,1.96l-15.14-6.67c-3.6-1.59-1.21-6.54,0.31-7.21
		c2.39-1.05,1.82,0.61,2.59-1.14l21.42-48.6l-11.71-5.16c-1.01-0.14-0.41,1.14-2.48,1.79c-1.82,0.58-6.16-1.48-4.8-4.56l7.72-17.52
		c1.49-3.39,5.94-1.05,6.71,0.23c0.77,1.28-0.29,2.76,0.26,3.24l39.8,17.54l0.77-0.84c1.4-2.49,5.58-0.63,6.49,1.24
		c0.39,0.77,0.39,1.57,0.03,2.41l-7.72,17.52c-1.35,3.06-5.9,1.22-6.75-0.54c-0.84-1.72,0.01-2.11-0.21-2.55
		c-0.07-0.14-0.08-0.28-0.01-0.43l-11.59-5.11l-21.74,49.31c-0.15,0.34,1.81,1.33,0.74,3.76L647.33,221.1L647.33,221.1z
		 M724.19,265.49c-1.02,1.55-2.76,2.32-4.37,1.25l-13.82-9.1c-3.28-2.16-0.1-6.65,1.51-7.05c2.53-0.64,1.69,0.91,2.74-0.7
		l29.23-44.35l-10.68-7.04c-0.97-0.31-0.59,1.05-2.74,1.35c-1.89,0.27-5.83-2.48-3.98-5.29l10.53-15.99
		c2.04-3.1,6.04-0.04,6.58,1.34c0.54,1.38-0.75,2.67-0.29,3.24l36.32,23.93l0.9-0.7c1.79-2.22,5.6,0.31,6.19,2.3
		c0.26,0.83,0.13,1.62-0.38,2.38l-10.53,15.99c-1.84,2.8-6.02,0.22-6.57-1.65c-0.54-1.84,0.37-2.08,0.22-2.55
		c-0.05-0.15-0.03-0.29,0.06-0.42l-10.58-6.97l-29.65,45c-0.21,0.31,1.56,1.61,0.1,3.83L724.19,265.49L724.19,265.49z
		 M762.43,301.86c-7.9-7.89-11.19-14.54-10.42-24.79c0.97-12.86,8.1-25.16,17.81-33.55c1.81-1.57,4.81-3.74,9.03-6.5
		c7.44-4.92,19.49-6.5,27.89-3.43c7.35,2.74,10.73,6.07,15.6,11.74c2.68,3.1,4.42,7.36,5.25,12.77c0.22,1.57,0.51,9.5-0.97,13.97
		c-2.46,10.63-10.4,21.87-19.87,29.04c-2.84,2.15-5.93,3.87-9.24,5.17C784.48,312.46,772.79,310.99,762.43,301.86L762.43,301.86z
		 M786.23,253.74c-4.89,2.18-11.15,9.46-13.59,15.06c-1.77,4.06-2.39,8.28-1.46,12.56c0.66,3.05,3.75,6.95,7.36,8.6
		c5.1,2.33,10.67,0.66,15.76-2.57c6.63-4.21,10.94-9.52,13.64-16.56c1.43-3.73,1.8-8.81,0.11-12.16c-1.9-3.76-4.53-5.99-8.42-7.34
		C794.79,249.68,790.53,251.81,786.23,253.74L786.23,253.74z"/>
	<path d="M347.1,266.89c0.25,13.88-1.92,31.63-8.08,42.5c-2.92,5.16-7.72,8.9-13.12,10.88c-1.3,0.48-4.02,0.97-8.08,1.04
		c-9.15,0.16-18.36,0.03-27.51,0.05c-3.23,0.01-3.1-3.54-3.1-5.41c0-3.37,2.32-2.96,2.32-3.65v-71.9c-0.15,0.05-0.23,0.1-0.38,0.15
		c-1.33-0.36-1.94-1.23-1.94-2.69c0-1.75-0.2-2.8,0.84-4.55c0.59-1,1.33-1.74,2.26-2.15c9.15-4.08,18.33-7.73,27.51-10.85
		c4.83-1.64,11.04-2.54,15.09-0.14c7.57,4.49,11.61,17.04,13.06,27.95C346.34,250.89,346.92,257.17,347.1,266.89L347.1,266.89z
		 M328.65,287.23c1.29-4.02,1.88-10.14,1.88-18.34c0-11.2-1.33-18.28-5.1-23.69c-0.97-1.39-3.07-2.23-4.92-2.03
		c-3.53,0.39-10.69,2.55-14.3,3.57v52.29c3.47-0.3,6.95-0.61,10.45-0.87C323.51,297.64,326.35,294.39,328.65,287.23L328.65,287.23z
		 M409.12,310.12c3.21,0.55,2.93,3.87,2.93,6.63c0,2.21-1.06,5-2.93,5c-5.99,0-11.93,0-17.92,0c-3.19,0-3.13-7.08-2.43-9.16
		c1.02-3.02,1.53-0.59-0.03-5.31l-8.95-28.61c-2.92,0.13-5.85,0.27-8.74,0.41v30.28c0,1.5,0.35,0.71,0.35,1.41
		c1.39,0,2.23,2.11,2.23,4.07c0,3.37,0.23,6.91-3.62,6.91c-4.98,0-9.93,0-14.88,0c-1.6,0-2.64-2.65-2.64-4.72c0-0.67,0-1.32,0-1.99
		c0-3.77,1.96-3.95,2.43-4.35v-88.31c-0.26,0.04-0.52,0.09-0.75,0.13c-2-1.98-1.68-3.78-1.68-6.39c0-1.7,1.21-4.59,2.64-4.82
		c10.28-1.71,20.59-3.14,30.9-4.25c4.33-0.46,8.53-0.02,12.13,2.03c0.72,0.41,2.3,2.09,4.69,4.99c2.42,2.93,3.89,7.08,4.92,12.31
		c1.32,6.66,1.36,8.68,1.36,15.63c0,11.46-1.83,27.33-11.93,33.59c0.96,2.99,10.02,31.83,11.26,33.76L409.12,310.12L409.12,310.12z
		 M392.41,243.73c0.38-7.81,0.38-10.93-7.5-10.32c-4.63,0.36-9.27,0.8-13.87,1.24c0,6.19,0,12.38,0,18.57
		c11.96-0.86,18.1-1.37,18.39-1.64C392.32,250.26,392.24,247.16,392.41,243.73L392.41,243.73z M436.02,309.89
		c2.91,0,3.47,11.35-0.84,11.35c-5.12,0-10.22,0-15.32-0.01c-2.91,0-2.69-5.1-2.69-7.08c0-3.82,2-4.03,2-4.66v-93.19
		c-1.05,0-2-2.17-2-4.3c0-1.94-0.22-7.07,2.69-7.13c5.1-0.11,10.22-0.15,15.32-0.14c3.63,0.01,3.53,7.77,2.49,9.76
		c-0.32,0.61-1.03,1.6-1.65,1.6V309.89L436.02,309.89z M487.53,314.33c0-1.13,0.42-2.87,1.3-3.41c-0.5-1.24,0.08-0.8-0.87-2.81
		c-2.85-6.01-5.65-12.13-8.43-18.25c-2.78-6.13-5.59-12.31-8.34-18.48c-1.85-4.54-3.65-9.09-5.44-13.62
		c-0.03,0.58-0.03,1.14-0.03,1.71v50.13c0,0.7,2.03,0.73,2.03,4.62c0,1.97,0.21,7.01-2.69,7.01c-4.89,0-9.79,0-14.65,0
		c-1.83,0-2.81-2.83-2.81-5c0-0.69,0-1.38,0-2.07c0-3.92,1.84-4.07,2.52-4.64v-93.08c-0.29,0-0.52-0.01-0.75-0.03
		c-0.58-0.59-1-1.24-1.27-1.89c-0.64-1.49-0.49-3.52-0.49-5.26c0-1.51,1.48-4.13,2.11-4.25c1.43-0.25,15.25,0.67,17.72,0.82
		c3.61,0.22,3.43,9.81,1.48,10.8c0,0.48,0.11,0.76,0.23,1.04c3.7,8.52,7.3,17.07,10.95,25.55c3.65,8.48,7.35,16.88,11,25.26V219.4
		c-3.17-0.25-3.87-11.7,0.67-11.09c4.75,0.64,9.55,1.38,14.3,2.18c1.83,0.31,3.01,3.07,3.01,4.71c0,0.8,0,1.58,0,2.36
		c0,1.97-1.27,4-2.29,4v88.56c0,0.99,2.29,0.47,2.29,4.44c0,1.97,0.16,3.73-0.9,5.37c-0.58,0.9-1.27,1.33-2.11,1.33
		c-5.15,0-10.28-0.01-15.43-0.01C487.36,321.24,487.53,316.35,487.53,314.33L487.53,314.33z M535.95,251.37
		c0.55-0.72,1.13-1.44,1.71-2.14c4.46-6.28,8.92-12.3,13.38-18.06c-2.05-1.81-2.08-10,1.48-8.7c7.04,2.58,14.04,5.49,21.08,8.67
		c1.65,1.34,3.28,6.53,1.48,8.21c-0.91,0.85-1.99,0.69-2.2,0.5c-0.14,0.01-0.23,0.03-0.32,0.03c-8.1,8.34-10.79,11.14-20.79,23.57
		c3.01,7.23,17.46,41.25,20.47,46.21l1.54,2.46c2.91,1.76,3.01,1.68,3.01,5.4c0,1.82-0.78,3.84-2.84,3.83
		c-6.37-0.02-12.71-0.06-19.02-0.05c-3.75,0.01-4.32-7.9-1.39-8.96l-13.38-32.78c-1.42,2.04-2.81,4.1-4.2,6.16c0,8,0,16.02,0,24.01
		c0,0.69,0.11,1.22,0.35,1.44c2.26,1.59,2.03,2.67,2.03,5.67c0,2-1.04,4.45-2.69,4.45l-15.69-0.01c-1.63,0-2.69-2.57-2.69-4.68
		c0-0.64,0-1.28,0-1.92c0-1.87,0.52-3.18,1.59-3.94c0.29,0.01,0.55-0.12,0.75-0.35v-86.35c0-0.65-2.34-0.17-2.34-4.95
		c0-1.91-0.24-3.47,0.87-4.94c0.58-0.77,1.19-1.08,1.82-0.94c5.24,1.19,10.45,2.5,15.69,3.94c1.43,0.39,2.69,3.09,2.69,4.66
		c0,1.63,0.17,3.18-0.52,4.55c-0.72,1.44-1.79,1.04-1.8,1.48C535.95,235.67,535.95,243.51,535.95,251.37L535.95,251.37z"/>
	<path d="M176.65,491.43c1.11,2.43,0.73,4.99-1.43,7.12c-2.58,2.54-4.12,3.62-6.96,3.62c-1.55,0-2.74-0.56-3.5-1.63
		c-0.97,0-2.33,1.59-3.14,2.31c-9.43,7.32-17.38,12.41-23.9,15.27c-7.25,2.83-15.88,3.86-23.66,3.86c-17.78,0-32.81-5.89-45.1-17.62
		c-11.71-13.61-16.81-26.74-20.44-43.9c-1.27-6.2-1.91-12.69-1.91-19.37c0-18.45,4.1-34.84,12.33-49.15
		c5.77-10.78,13.32-18.85,22.75-24.22c15.9-9.1,38.95-10.86,56.03-3.74c9.11,4.81,14.75,8.07,16.94,9.74
		c2.23,1.67,4.53,3.58,6.96,5.77c1.11,0.52,2.22,1.14,3.14,1.95c1.66-1.66,4-1.46,6.28-1.27c1.61,0.13,6.04,4.9,6.16,6.64
		c0.08,1.19-0.12,2.35-0.56,3.5l-15.03,30.07c-0.58,3.03-4.52,4.96-6.72,4.02c-1.68-0.74-6.01-4.83-6.4-5.81
		c-0.34-0.86,0.16-4.05,0.16-5.45c-0.34-2.31-4.31-5.41-6.64-7.08c-10.69-7.64-20.67-9.58-32.33-8.27
		c-9.05,1.01-16.46,8.83-20.96,16.23c-5.02,8.3-6.12,17.31-6.12,27.08c0,10.66,3.66,21.95,10.98,33.92c2.86,3.18,6.2,5.65,10.06,7.4
		c3.86,1.75,8.31,2.62,13.36,2.62c8.91,0,17.26-3.18,25.01-9.54c2.27-1.72,3.57-2.52,5.25-4.33c0.72-0.84,0.83-1.83,0.36-2.9
		c-1.31-4.33-0.72-7.08,1.87-8.15c3.1-2.27,5.69-3.18,7.79-2.78c2.43,0.91,3.86,2.19,4.33,3.82L176.65,491.43L176.65,491.43z
		 M249.67,521.97c-12.73-0.8-22.55-3.1-29.47-7c-15.81-8.91-26.79-26.35-31.82-43.83c-4.11-14.3-5.43-29.54-3.38-44.5
		c0.64-4.65,2.23-11.73,4.85-21.24c4.57-16.87,20.2-34.77,36.55-41.16c14.35-5.49,23.63-4.96,38.14-2.94
		c14.91,2.01,36.65,19.96,40.92,33.76c10.16,18.81,13.03,45.62,8.39,68.4c-1.39,6.84-3.7,13.36-6.88,19.57
		C295.8,509.01,276.71,521.97,249.67,521.97L249.67,521.97z M222.35,420.44c-4.36,9.53-4.13,28.34-0.48,39.73
		c3.79,11.82,10.85,20.95,23.19,23.94c9.31,2.23,18.76-1.26,25.33-9.11c6.18-7.38,10.26-23.51,10.26-32.97
		c0-12.18-2.63-26.52-11.02-35.87c-7.43-8.35-13.2-8.75-23.74-8.75C233.65,397.41,226.65,410.97,222.35,420.44L222.35,420.44z
		 M441.56,399.28c0,4.09-3.59,5.81-7,5.81c-2.28,0-3.98,0.21-5.93-1.23c-2.88-2.15-1.75-4.22-2.47-4.45
		c-0.24-0.08-0.36-0.28-0.36-0.6h-57.07v21.55h35.31v-1.51c0.25-2.48,3.48-4.77,6.4-4.77c2.55,0,4.24-0.26,6.32,1.79
		c1.23,1.19,1.83,2.7,1.83,4.49v36.47c0,3.52-2.76,6.16-5.96,6.16c-2.42,0-3.96,0.22-6.2-1.27c-2.62-1.73-2.39-3.53-2.39-5.81
		h-35.31v48.44h0.48c2.55,0.95,3.82,2.86,3.82,5.73c0,2.82,0.27,5.43-1.55,7.64c-1.07,1.27-2.43,1.91-4.14,1.91h-32.77
		c-3.68,0-5.69-3.13-5.69-6.76v-2.78c0-5.28,3.88-5.08,4.29-6.28V378.09h-0.44c-2.58-1.71-3.86-3.78-3.86-6.2
		c0-2.99-0.39-5.05,1.55-7.4c1.07-1.27,2.47-1.91,4.14-1.91h91.23c0-1.08,0.47,0.19,0.72-2.11c0.29-2.75,3.1-4.3,5.93-4.3
		c2.67,0,4.57-0.17,6.96,1.39c1.43,0.91,2.15,2.35,2.15,4.3V399.28L441.56,399.28z M563.09,399.28c0,4.09-3.59,5.81-7,5.81
		c-2.28,0-3.98,0.21-5.93-1.23c-2.88-2.15-1.75-4.22-2.47-4.45c-0.24-0.08-0.36-0.28-0.36-0.6h-57.07v21.55h35.32v-1.51
		c0.25-2.48,3.48-4.77,6.4-4.77c2.55,0,4.24-0.26,6.32,1.79c1.23,1.19,1.83,2.7,1.83,4.49v36.47c0,3.52-2.76,6.16-5.97,6.16
		c-2.42,0-3.96,0.22-6.2-1.27c-2.62-1.73-2.39-3.53-2.39-5.81h-35.32v48.44h0.48c2.55,0.95,3.82,2.86,3.82,5.73
		c0,2.82,0.27,5.43-1.55,7.64c-1.07,1.27-2.43,1.91-4.14,1.91h-32.77c-3.68,0-5.69-3.13-5.69-6.76v-2.78c0-5.28,3.88-5.08,4.3-6.28
		V378.09h-0.44c-2.58-1.71-3.86-3.78-3.86-6.2c0-2.99-0.39-5.05,1.55-7.4c1.07-1.27,2.47-1.91,4.14-1.91h91.23
		c0-1.08,0.47,0.19,0.72-2.11c0.29-2.75,3.1-4.3,5.93-4.3c2.67,0,4.57-0.17,6.96,1.39c1.43,0.91,2.15,2.35,2.15,4.3V399.28
		L563.09,399.28z M679.22,526.27c-2.85,0-6.03-2.75-6.64-4.3c-0.36-1.27-0.52-2.03-0.44-2.35h-93.58c-3.05,0-5.69-3.07-5.69-6.76
		v-2.78c0-2.7,1.19-4.61,3.58-5.73c0.88-0.19,0.72-0.06,0.72-2.19V378.09h-0.72c-2.39-1.87-3.58-3.94-3.58-6.2
		c0-3.18-0.44-5.02,1.79-7.4c1.19-1.27,2.51-1.91,3.9-1.91h91.71c0-0.85,0.71-0.86,0.92-2.11c0.95-2.86,2.86-4.3,5.73-4.3
		c2.69,0,4.72-0.21,7.04,1.39c1.35,0.91,2.03,14.83,2.03,41.72c0,4.04-3.29,5.81-6.76,5.81h-2.31c-2.86,0-4.77-1.43-5.73-4.3
		l-0.36-2.11l-58.1,0.12v21.55h34.84c0.92-0.13-0.57-3.03,2.58-4.97c2.39-1.47,3.88-1.31,6.24-1.31c3.67,0,6.16,2.7,6.16,5.81v36.95
		c0.07,5.54-1.55,5.73-6.16,5.73c-2.48,0-3.7,0.14-6.24-1.07c-1.43-0.68-2.15-1.79-2.15-3.26c-0.32-0.6-0.44-1.39-0.44-2.31h-34.84
		v27.6h59.85v-2.35c0.48-1.47,1.35-2.62,2.62-3.5c2.18-1.44,3.72-1.27,6.01-1.27c3.56,0,6.2,3.1,6.2,6.64v37.54
		c0,2.78-2.75,5.69-6.2,5.69H679.22L679.22,526.27z M809.14,526.27c-2.85,0-6.03-2.75-6.64-4.3c-0.36-1.27-0.52-2.03-0.44-2.35
		h-93.58c-3.05,0-5.69-3.07-5.69-6.76v-2.78c0-2.7,1.19-4.61,3.58-5.73c0.88-0.19,0.72-0.06,0.72-2.19V378.09h-0.72
		c-2.39-1.87-3.58-3.94-3.58-6.2c0-3.18-0.44-5.02,1.79-7.4c1.19-1.27,2.51-1.91,3.9-1.91h91.71c0-0.85,0.71-0.86,0.91-2.11
		c0.95-2.86,2.86-4.3,5.73-4.3c2.69,0,4.72-0.21,7.04,1.39c1.35,0.91,2.03,14.83,2.03,41.72c0,4.04-3.29,5.81-6.76,5.81h-2.31
		c-2.86,0-4.77-1.43-5.73-4.3l-0.36-2.11l-58.1,0.12v21.55h34.84c0.92-0.13-0.57-3.03,2.58-4.97c2.39-1.47,3.88-1.31,6.24-1.31
		c3.67,0,6.16,2.7,6.16,5.81v36.95c0.07,5.54-1.55,5.73-6.16,5.73c-2.48,0-3.7,0.14-6.24-1.07c-1.43-0.68-2.15-1.79-2.15-3.26
		c-0.32-0.6-0.44-1.39-0.44-2.31h-34.84v27.6h59.85v-2.35c0.48-1.47,1.35-2.62,2.62-3.5c2.18-1.44,3.72-1.27,6-1.27
		c3.56,0,6.2,3.1,6.2,6.64v37.54c0,2.78-2.75,5.69-6.2,5.69H809.14L809.14,526.27z"/>
	<path d="M202.58,618.19c2.31,0.99,2.13,2.45,2.13,4.18c0,1.87-1.41,3.32-3.2,3.32h-18.82c-3.99,0-3.68-7.5-0.29-7.5
		c0-1.36-3.3-9.79-3.71-10.91h-18.64l-3.26,10.74c0,0.33,2.56,0.64,2.56,2.99c0,1.46,0.16,2.65-0.94,3.75
		c-0.62,0.62-1.41,0.94-2.32,0.94h-16.98c-1.57,0-2.79-1.51-2.79-3.32c0-2.82-0.03-3.41,2.79-4.45c0-0.73,0.84-1.95,1.39-3.26
		l18.86-54.92c2.23-5.94-1.43-2.65-1.43-6.58c0-1.59-0.22-2.46,0.9-3.63c0.59-0.62,1.25-0.94,1.97-0.94h18.35
		c1.49,0,2.81,1.55,2.81,2.91v1.66c0,1.05-0.93,3.05-2.13,3.05l0.41,2.34l19.44,54.96l1.84,3.94
		C201.61,617.84,202.24,617.81,202.58,618.19L202.58,618.19z M165.47,591.83h8.3l-4.59-13.04L165.47,591.83L165.47,591.83z
		 M251.99,621c0-0.9,0.55-2.01,1.39-2.34c-0.55-0.83,0.13-0.62-0.92-1.89l-17.45-24.48l-5.6-8.98l-0.06,1.15v33.46
		c0,0.45,2.13,0.5,2.13,3.08c0,1.75,0.07,4.69-2.81,4.69h-15.21c-1.56,0-2.93-1.49-2.93-3.32c0-4.55,1.17-3.48,2.58-4.45V556.2
		c-0.99,0-1.52-0.37-2.11-1.23c-0.61-0.88-0.47-2.36-0.47-3.48c0-1.14,1.61-2.78,2.21-2.85l18.39-0.06c1.62,0,2.91,1.52,2.91,2.91
		c0,1.31,0.23,3.6-1.37,4.24c0,0.31,0.08,0.53,0.23,0.68l22.82,33.29v-33.5c-3.29,0-4.01-7.61,0.68-7.61h14.88
		c1.75,0,3.08,1.52,3.08,2.91v1.66c0,1.64-1.58,3.05-2.34,3.05v61.71c0,0.71,2.34,0.27,2.34,3.08c0,1.47,0.16,2.64-0.9,3.75
		c-0.59,0.62-1.31,0.94-2.19,0.94h-16.03c-1.91,0-3.26-1.4-3.26-3.32V621L251.99,621z M346.54,587.13c0,12.31-2.57,26.9-12.81,33.83
		c-5.22,3.53-10.32,4.59-17.63,4.72h-28.58c-3.23,0-3.26-2.74-3.26-4.69c0-2.88,2.46-2.51,2.46-3.08V556.2
		c-3.07,0-3.95-7.61,0.8-7.61h28.58c5.44,0,11.36,0.69,15.68,3.14c7.1,4.03,11.85,13.08,13.59,21.94
		C345.76,575.71,346.17,580.2,346.54,587.13L346.54,587.13z M327.33,600.5c1.33-2.89,1.99-7.34,1.99-13.37
		c0-8.7-1.47-13.72-5.31-18.21c-2.11-2.47-5.96-2.54-9.1-2.54h-10.87v41.58c3.64,0,12.82,0.29,15.85-0.51
		C323.5,606.5,325.44,604.53,327.33,600.5L327.33,600.5z M394.98,618.19c2.44,0.89,2.23,2.37,2.23,4.18c0,1.91-1.33,3.32-3.14,3.32
		h-16.01c-2.91,0-2.87-2.91-2.87-4.69c0-2.75,2.13-2.48,2.13-3.08V556.2c-2.45,0-3.59-7.61,0.74-7.61c10.77,0,21.54,0,32.31,0
		c0.68,0,2.66,0.04,5.92,0.14c5.75,0.17,6.65,1.73,10.62,5.11c4.1,4.02,6.52,12.92,6.52,18.88c0,5.66-1.04,9.5-4,14.88
		c-4.19,7.6-9.11,9.34-19.05,9.37h-15.62v21.22H394.98L394.98,618.19z M394.74,579.3h14.19c1.92,0,4.65-0.31,5.37-1.19
		c2.18-2.66,2.89-9.88-1.44-11.36c-1.87-0.64-15.28-0.37-18.12-0.37V579.3L394.74,579.3z M489.06,628.95
		c-1.92,0-3.75-2.16-3.47-3.26h-45.94c-3.6,0-3.58-6.93-1.03-7.5c0.43-0.1,0.35-0.04,0.35-1.07V556.2c-2.67,0-3.22-7.61,0.68-7.61
		h45.02c0-0.42,0.35-0.42,0.45-1.03c0.41-2.55,4.61-2.57,6.27-1.43c0.66,0.45,1,7.28,1,20.48c0,2.79-2.63,2.85-4.45,2.85
		c-2.2,0-2.71-1.5-2.99-3.14l-28.52,0.06v10.58h17.1c0.59-0.08-0.88-3.08,4.33-3.08c1.8,0,3.03,1.33,3.03,2.85v18.14
		c0.04,3.09-1.1,2.81-4,2.81c-0.68,0-1.37-0.18-2.09-0.53c-0.99-0.47-1.27-1.72-1.27-2.73h-17.1v13.55h29.38
		c0-1.04-0.09-1.96,1.29-2.87c1.85-1.22,5.99-0.95,5.99,2.64v18.43c0,1.36-1.35,2.79-3.05,2.79H489.06L489.06,628.95z
		 M541.22,622.72c0,1.78-0.99,3.32-2.85,3.32h-15.91c-3.78,0-3.6-5.28-2.52-6.46c1.7-1.86,1.83-0.17,1.83-2.01v-51.07h-12.3
		c-0.94,0.27,0.08,1.16-1.48,2.54c-1.38,1.21-5.99,1.09-5.99-2.15v-18.41c0-3.56,4.82-3.23,5.99-2.4c1.17,0.82,0.81,2.54,1.48,2.75
		h41.82l0.35-1.03c0.27-2.73,4.67-2.71,6.19-1.43c0.64,0.53,0.96,1.23,0.96,2.11v18.41c0,3.82-6.78,3.55-7.15,0.7
		c-0.16-1.23-0.35-0.56-0.35-1.09h-12.18v51.81c0,0.36,2.11,0.47,2.11,3.03V622.72L541.22,622.72z M657.46,618.19
		c1.91,0.92,1.72,2.46,1.72,4.18c0,1.8-1.24,3.32-2.81,3.32h-15.89c-1.79,0-3.32-1.38-3.32-3.32V621c0-1.57,1.19-2.81,2.58-2.81
		v-29.17l-0.35,0.68l-13.55,34.2c-1.29,2.46-4.93,2.31-5.78-0.33l-12.98-33.87v28.21c0,0.72,2.46,0.27,2.46,3.08
		c0,1.48,0.16,2.65-0.96,3.75c-0.62,0.62-1.37,0.94-2.21,0.94h-14.86c-1.93,0-3.32-1.38-3.32-3.32V621c0-2.85,2.58-2.53,2.58-3.08
		V556.2c-2.9,0-3.46-5.71-1.58-6.81c0.9-0.53,1.68-0.8,2.32-0.8h19.44c1.66,0,3.14,1.48,3.14,2.91c0,1.8,0.27,3.59-1.66,4.24
		l0.23,1.42l11.38,29.75c1.11-2.93,11.71-30.38,11.71-31.18c-2.08,0-1.76-2.94-1.76-4.24c0-1.38,1.34-2.91,2.91-2.91h19.44
		c4.01,0,3.26,7.61,0.74,7.61v61.71C657.11,618.09,657.22,618.19,657.46,618.19L657.46,618.19z M724.61,548.82
		c1.84,0,3.03,1.66,3.03,3.03v1.78c0,3.09-2.6,2.6-3.79,3.65l-2.79,4.92l-16.3,31.74v24.36c0.79,0.37,2.58,0.49,2.58,3.03
		c0,1.45,0.15,2.63-0.86,3.75c-0.59,0.64-1.23,0.96-1.95,0.96h-16.24c-4.27,0-3.31-7.29-1.43-7.5c0.65-0.07,0.92,0.03,0.92-0.98
		v-23.62l-16.24-31.74c-3.92-7.31-4.09-4.89-6.03-6.75c-1-0.97-0.78-2.05-0.78-3.59c0-1.42,1.58-3.03,3.26-3.03h20.3
		c1.41,0,2.81,1.68,2.81,3.03c0,1.49,0.21,2.6-0.72,3.59c-0.74,0.78-1.13,1.09-1.85,1.09c0,0.75,7.43,15.28,8.06,16.54
		c5-9.84,7.5-14.99,7.5-15.44c0.37-2.26-1.13-1.3-1.82-2.77c-0.44-0.95-0.31-1.88-0.31-3.01c0-1.35,1.4-3.03,2.81-3.03H724.61
		L724.61,548.82z"/>
	<path d="M270.59,271.33c0.88,0,1.07-0.26,1.07-0.89c0-1.14-0.04-2.25-0.04-3.4c0-1.99,0.04-2.44,0.04-4.65c0-0.19,0-0.37,0-0.52
		c0-0.3-0.04-0.7-0.55-0.85c-0.33-0.11-0.77-0.08-1.14-0.08c-2.73,0-5.46,0-8.16,0c-0.37,0-10.48,0-14.14,0.04
		c-5.02,0.04-9.78,0-11.04-0.04c-3.76-0.07-7.53-0.04-11.33-0.04c-0.85,0-1.66,0-2.51,0c-1.07,0-1.11,0.3-1.11,0.89
		c0.04,1.07,0.07,2.1,0.07,3.14c0.04,1.22,0,2.44-0.04,3.65c0,0.59-0.07,1.22,0,1.81c0,0.3,0.04,0.66,0.52,0.81
		c0.37,0.11,0.77,0.08,1.18,0.08c3.25,0.04,6.46,0.04,9.71,0.04c6.02,0,12-0.04,18.01-0.04c5.79,0,11.63,0.07,17.42,0.07
		C269.24,271.37,269.91,271.33,270.59,271.33L270.59,271.33z M238.81,297.28c9.81,0,19.61,0.04,29.42,0.04
		c0.81,0,1.59-0.04,2.36-0.04c0.88,0,1.07-0.3,1.07-0.89c0-1.14-0.04-2.29-0.04-3.43c0-1.99,0.07-2.44,0.07-4.65
		c0-0.15-0.04-0.33-0.04-0.52c0-0.3-0.04-0.66-0.52-0.81c-0.37-0.11-0.77-0.07-1.18-0.07c-2.69-0.04-5.39-0.04-8.08-0.04
		c-5.94,0-11.92-0.04-17.86-0.04c-10.24,0-20.88,0.37-31.04,0.08c-3.91-0.11-7.83-0.08-11.74-0.08c-0.66,0-1.33,0.04-1.99,0.04
		c-1.07,0-1.11,0.26-1.11,0.89c0,1.37,0.08,2.69,0.08,4.06c0,0.92,0,1.81-0.04,2.73c-0.04,0.59-0.07,1.22-0.04,1.81
		c0.04,0.3,0.08,0.66,0.55,0.81c0.33,0.11,0.77,0.08,1.14,0.08c2.7,0.04,5.39,0.04,8.08,0.04
		C218.22,297.28,228.51,297.28,238.81,297.28L238.81,297.28z M268.56,323.26c0.66,0,1.33-0.04,2.03-0.04c0.88,0,1.07-0.3,1.07-0.89
		c0-1.14-0.04-2.29-0.04-3.43c0-1.99,0.04-2.44,0.04-4.65c0-0.15,0-0.33,0-0.52c0-0.3-0.04-0.66-0.55-0.81
		c-0.33-0.11-0.77-0.07-1.14-0.07c-2.73,0-5.46-0.04-8.16-0.04c-0.37,0-10.48,0-14.14,0.04c-5.02,0.07-9.78,0.04-11.04,0
		c-3.76-0.08-7.53-0.08-11.33-0.08c-0.85,0-1.66,0.04-2.51,0.04c-1.07,0-1.11,0.26-1.11,0.88c0.04,1.03,0.07,2.11,0.07,3.14
		c0.04,1.22,0,2.44-0.04,3.65c0,0.59-0.07,1.22,0,1.81c0,0.3,0.04,0.66,0.52,0.81c0.37,0.11,0.77,0.07,1.18,0.07
		c3.25,0.04,6.46,0.04,9.71,0.04c6.02,0,12-0.04,18.01-0.04C256.93,323.19,262.77,323.26,268.56,323.26L268.56,323.26L268.56,323.26
		z M593.87,271.33c-0.88,0-1.07-0.26-1.07-0.89c0-1.14,0.04-2.25,0.04-3.4c0-1.99-0.04-2.44-0.04-4.65c0-0.19,0-0.37,0-0.52
		c0-0.3,0.04-0.7,0.55-0.85c0.33-0.11,0.77-0.08,1.14-0.08c2.73,0,5.46,0,8.16,0c8.33,0,16.87,0.26,25.17,0
		c3.76-0.07,7.53-0.04,11.33-0.04c0.85,0,1.66,0,2.51,0c1.07,0,1.11,0.3,1.11,0.89c-0.04,1.07-0.07,2.1-0.07,3.14
		c-0.04,1.22,0,2.44,0.04,3.65c0,0.59,0.07,1.22,0,1.81c0,0.3-0.04,0.66-0.52,0.81c-0.37,0.11-0.77,0.08-1.18,0.08
		c-3.25,0.04-6.46,0.04-9.71,0.04c-11.81,0-23.62,0.04-35.43,0.04C595.23,271.37,594.55,271.33,593.87,271.33L593.87,271.33z
		 M625.65,297.28c-5.98,0-12.03-0.19-18.01-0.04c-3.8,0.07-7.64,0.07-11.4,0.07c-0.81,0-1.59-0.04-2.36-0.04
		c-0.88,0-1.07-0.3-1.07-0.89c0-1.14,0.04-2.29,0.04-3.43c0-1.99-0.07-2.44-0.07-4.65c0-0.15,0.04-0.33,0.04-0.52
		c0-0.3,0.04-0.66,0.52-0.81c0.37-0.11,0.77-0.07,1.18-0.07c2.69-0.04,5.39-0.04,8.08-0.04c11.28,0,22.56-0.04,33.85-0.04
		c5.02,0,10.04,0.22,15.06,0.08c3.91-0.11,7.83-0.08,11.74-0.08c0.66,0,1.33,0.04,1.99,0.04c1.07,0,1.11,0.26,1.11,0.89
		c0,1.37-0.08,2.69-0.08,4.06c0,0.92,0,1.81,0.04,2.73c0.04,0.59,0.07,1.22,0.04,1.81c-0.04,0.3-0.08,0.66-0.55,0.81
		c-0.33,0.11-0.77,0.08-1.14,0.08c-2.7,0.04-5.39,0.04-8.08,0.04C646.25,297.28,635.95,297.28,625.65,297.28L625.65,297.28z
		 M595.9,323.26c-0.66,0-1.33-0.04-2.03-0.04c-0.88,0-1.07-0.3-1.07-0.89c0-1.14,0.04-2.29,0.04-3.43c0-1.99-0.04-2.44-0.04-4.65
		c0-0.15,0-0.33,0-0.52c0-0.3,0.04-0.66,0.55-0.81c0.33-0.11,0.77-0.07,1.14-0.07c2.73,0,5.46-0.04,8.16-0.04
		c8.33,0,16.87,0.28,25.17,0.04c3.76-0.08,7.53-0.08,11.33-0.08c0.85,0,1.66,0.04,2.51,0.04c1.07,0,1.11,0.26,1.11,0.88
		c-0.04,1.03-0.07,2.11-0.07,3.14c-0.04,1.22,0,2.44,0.04,3.65c0,0.59,0.07,1.22,0,1.81c0,0.3-0.04,0.66-0.52,0.81
		c-0.37,0.11-0.77,0.07-1.18,0.07c-3.25,0.04-6.46,0.04-9.71,0.04c-6.02,0-12-0.04-18.01-0.04
		C607.52,323.19,601.71,323.26,595.9,323.26L595.9,323.26z"/>
</g>
</svg>
