<?xml version="1.0" encoding="utf-8"?>
<!-- Generator: Adobe Illustrator 24.3.0, SVG Export Plug-In . SVG Version: 6.00 Build 0)  -->
<svg version="1.1" id="Layer_1" xmlns="http://www.w3.org/2000/svg" xmlns:xlink="http://www.w3.org/1999/xlink" x="0px" y="0px"
	 viewBox="0 0 864 864" style="enable-background:new 0 0 864 864;" xml:space="preserve">
<g>
	<path d="M98.51,305.15c2.33-2.22,8.1,3.05,4.74,6.26l-11.97,11.43c-2.17,2.07-4.21-0.2-5.47-1.52c-1.85-1.94-0.36-3.47-0.67-3.79
		L40.79,271.1c-0.7,0.67-2.45,0.53-3.6-0.69c-1.23-1.29-3.45-3.44-1.27-5.53l11.97-11.43c2.87-2.74,6.46,1.25,6.57,2.97
		c0.04,0.62-0.06,1.6-0.54,2.06L98.51,305.15L98.51,305.15z M121.05,194.48c1.23-0.88,3.28-0.4,4.12,0.78
		c1.23,1.73,2.15,2.5,0.9,5.37L151.91,237c4.81,6.76,8.7,13.21,7.95,21.14c-0.78,8.2-5.97,13.16-12.44,17.38
		c-1.65,1.08-8.92,3.06-11.76,3.82c-1.72,0.41-2.48,0.37-3.67,1.21c0.25,1.59-0.9,3.09-2.3,3.03c-1.51-0.06-3.76,0.47-4.51-1.75
		l-6.96-18.2c-0.47-0.87-0.87-1.39-0.11-2.61c1.24-1.99,3.77-2.18,5.59-1.38c2.49,1.08-0.59,3.83,8.88,2.11
		c2.55-0.46,6.9-3.12,7.66-4.97c1.16-2.83-0.13-4.62-1.16-6.9c-1.42-3.15-22.99-32.47-27-38.44c-1.52-2.27-2.02,1.88-4.48-1.57
		c-0.96-1.35-1.67-1.95-1.43-3.62c0.12-0.88,0.49-1.55,1.11-1.98L121.05,194.48L121.05,194.48z M211.34,200.01
		c4.08,7.12,6.32,13.14,6.72,18.04c-0.15,9.36-5.69,17.18-16.6,23.43c-6.8,3.9-14.72,6.55-22.07,5.41
		c-5.99-0.93-11.68-6.26-15.14-11.28c-1.32-1.93-9.68-16.29-25.06-43.1c-2.72,1.24-3.67-1.01-4.75-2.89
		c-0.74-1.28-0.27-3.47,1.37-4.42l14.29-8.2c1.42-0.82,3.61-0.07,4.31,1.15c0.75,1.32,1.32,1.94,1.31,3.39
		c-0.01,0.8-0.23,1.6-0.9,1.99c14.19,24.73,21.53,37.52,22.05,38.35c0.59,0.94,2.12,3.06,2.94,3.61c4.08,2.71,8.08,2.06,12.47-0.46
		c4.23-2.43,6.52-5.36,6.89-8.76c0.47-3.73-2.82-8.39-4.87-11.96l-18.75-32.68c-0.72,0.41-2.84-0.05-3.62-1.41
		c-0.85-1.48-1.51-2.18-1.2-3.88c0.17-0.89,0.65-1.57,1.44-2.02l13.42-7.7c1.71-0.98,3.77-0.24,4.51,1.04l0.92,1.6
		c0.61,1.06,0.5,2.29-0.34,3.69l-0.48,0.27L211.34,200.01L211.34,200.01z M270.73,167.72c6.36,7.02,9.25,15.25,7.74,24.88
		c-2.11,13.47-15.88,21.51-29.04,22.22c-4.02,0.23-8.21-0.13-12.59-1.03l-0.8,0.08c-0.91,2.27-6.87,1.92-7-1.82l-1.37-19.14
		c0.28-5.02,6.11-2.54,6.52-2.13c1.37,1.36,0.52,4.55,7.65,5.36c5.72,0.65,11.86-0.54,16.58-3.87c3.37-2.35,3.13-8.78,0.34-10.2
		c-0.58-0.3-5.28,0.96-7.45,1.38l-5.85,1.07c-6.32,1.98-9.06,2.24-15.39,1.27c-6.19-2.36-10.69-6.29-13.5-11.82
		c-2.79-5.51-4.3-9.78-4.51-12.81c-0.79-11.95,5.54-20.89,16.8-25.39c3.81-1.52,6.21-1.75,10.1-1.98c7.42-0.68,10.12,0.93,14,0.88
		c1.07-2.27,3.05-2.03,5-1.61c1.42,0.51,2.33,0.69,2.05,3.21l0.68,18.39c0.3,1.42,0.9,2.57-1.85,3.19
		c-1.84,0.42-5.41,0.35-5.53-2.62c-0.02-0.54,0.23-0.44-0.35-0.89c-6.19-4.65-21.33-2.19-23.59,4.95c-0.54,1.69,1.1,5.84,2.94,5.43
		l19.46-4.06c3.47-0.4,8.82-0.22,11.82,1.22C265.94,163.04,268.73,165.53,270.73,167.72L270.73,167.72z M330.83,186.64
		c0.42,1.81-0.23,3.6-2.11,4.03l-16.13,3.72c-3.83,0.88-4.88-4.52-4.06-5.96c1.28-2.27,1.82-0.6,1.39-2.47l-11.95-51.77l-12.47,2.88
		c-0.89,0.49,0.35,1.15-0.91,2.92c-1.11,1.55-5.82,2.51-6.58-0.77l-4.31-18.66c-0.83-3.61,4.14-4.4,5.51-3.84
		c1.38,0.56,1.42,2.38,2.15,2.44l42.39-9.78c0.19-1.91-0.04-3.47,2.54-4.07c1.34-0.31,2.2-0.63,3.51,0.04
		c0.78,0.38,1.26,1.02,1.46,1.91l4.31,18.66c0.75,3.26-3.99,4.51-5.73,3.62c-1.7-0.88-1.25-1.7-1.69-1.92
		c-0.14-0.07-0.23-0.18-0.27-0.33l-12.35,2.85l12.12,52.52c0.08,0.37,2.25-0.02,2.84,2.57L330.83,186.64L330.83,186.64z M470.64,96
		c1.53-0.04,2.95,1.63,2.99,3.07l0.05,1.85c0.03,1.06-0.53,2.09-1.7,3.07l-0.89,0.15c-0.06,0.08-0.14,0.13-0.22,0.13l-1.96,4.93
		l-13.31,54.77c-0.55,1.76-1.17,3.11-1.13,4.79c2.64,1.23,2.72,1.2,2.81,4.51c0.05,1.82-0.86,3.48-2.83,3.53l-17.42,0.48
		c-3.88,0.11-4.19-5.14-2.81-6.83c0.89-1.09,1.31-0.62,2.34-1.2l-0.01-0.53l-11.01-34.95l-8.15,32.43l-0.8,3.6
		c2.7,0.66,2.61,1.98,2.68,4.52c0.05,1.87-0.76,3.47-2.83,3.53l-17.3,0.47c-1.5,0.04-3.09-1.48-3.14-3.37
		c-0.05-1.95-0.29-3.2,2.22-4.41c0.96-0.46-0.26-2.99-0.87-4.97l-16.35-53.96l-1.98-4.82c-0.08,0-0.16-0.04-0.23-0.12
		c-1.16,0.03-2.83-0.99-2.89-3.07c-0.05-1.71-0.31-2.65,0.81-3.98c0.59-0.71,1.29-1.07,2.08-1.09l18.15-0.5
		c2.12-0.06,3.62,1.59,3.66,3.05c0.05,1.64,0.29,2.37-0.65,3.61c-0.52,0.69-1.2,1.31-2.02,1.34c0.04,1.4,0.24,1.47,0.79,2.9
		l8.45,27.97l8-31.34c-1.46,0.04-2.7-1.25-2.74-2.95c-0.05-1.68-0.29-2.65,0.74-3.98c0.55-0.71,1.33-1.07,2.33-1.1l19.33-0.53
		c1.58-0.04,2.97,1.68,3.01,3.07c0.11,4.12,0,2.9-2.59,5.43c0.3,1.21,0.5,2.02,0.59,2.42l8.63,27.96l7.5-30.23
		c0.02-0.57,0.04-0.94,0.03-1.1c-1.24,0.03-2.47-1.23-2.52-2.96c-0.06-2.19-0.38-2.98,0.8-4.23c0.53-0.54,1.18-0.82,1.97-0.85
		L470.64,96L470.64,96z M534.93,177.81c2.25,1.34,1.86,2.81,1.63,4.6c-0.25,1.93-1.9,3.23-3.75,2.99l-19.41-2.54
		c-3.36-0.44-2.91-5.8-1.34-6.96c0.89-0.65,1.32-0.91,2.05-0.82c0.18-1.4-2.08-10.55-2.35-11.76l-19.23-2.52l-4.81,10.64
		c-0.04,0.34,2.55,1,2.23,3.43c-0.2,1.5-0.2,2.76-1.47,3.74c-0.73,0.56-1.58,0.78-2.52,0.65l-17.52-2.29
		c-1.62-0.21-2.68-1.94-2.43-3.8c0.38-2.91,0.43-3.52,3.48-4.21c0.1-0.76,1.13-1.9,1.87-3.18l26.87-54.1
		c3.1-5.83-1.11-2.93-0.58-6.98c0.22-1.64,0.11-2.57,1.42-3.62c0.69-0.57,1.42-0.8,2.16-0.7l18.93,2.48
		c1.54,0.2,2.69,1.98,2.51,3.38l-0.22,1.71c-0.15,1.15-0.89,2.12-2.18,2.91l-0.42-0.06l0.11,2.47l12.64,59.31l1.36,4.32
		C533.98,177.32,534.64,177.37,534.93,177.81L534.93,177.81z M500.21,145.62l8.56,1.12l-2.97-14.07L500.21,145.62L500.21,145.62z
		 M584.38,194.2c0.25-0.91,1.12-1.86,2.05-1.96c-0.32-0.99,0.31-0.58-0.39-2.15l-10.58-29.43l-3.08-10.57l-0.38,1.14l-9.43,33.51
		c-0.13,0.45,1.99,1.11,1.26,3.69c-0.49,1.75-1.25,4.71-4.14,3.9l-15.23-4.28c-1.57-0.44-2.51-2.31-2-4.15
		c1.28-4.55,2.16-3.15,3.83-3.73l17.39-61.8l-0.74-0.21c-0.5-0.56-0.85-1.1-1.02-1.62c-0.36-1.06,0.2-2.5,0.51-3.61
		c0.32-1.14,2.39-2.33,3.01-2.23l18.43,5.12c1.62,0.46,2.48,2.35,2.09,3.73c-0.37,1.31-0.78,3.67-2.56,3.86
		c-0.09,0.31-0.07,0.55,0.04,0.75l13.48,39.76l9.44-33.55c-2.67-0.75-2.14-5.85,0.24-7.15c0.82-0.44,1.67-0.54,2.59-0.28l14.9,4.19
		c1.75,0.49,2.66,2.39,2.27,3.78l-0.47,1.66c-0.46,1.65-2.44,2.61-3.2,2.39l-17.39,61.8c-0.2,0.71,2.27,0.93,1.48,3.75
		c-0.41,1.47-0.59,2.69-1.96,3.5c-0.76,0.46-1.57,0.57-2.45,0.32l-16.05-4.52c-1.92-0.54-2.87-2.32-2.33-4.24L584.38,194.2
		L584.38,194.2z M646.5,221.14c-0.75,1.7-2.33,2.74-4.11,1.96l-15.15-6.68c-3.6-1.59-1.21-6.54,0.31-7.21
		c2.39-1.05,1.82,0.61,2.59-1.14l21.43-48.62l-11.71-5.16c-1.01-0.14-0.41,1.14-2.48,1.79c-1.82,0.58-6.16-1.48-4.8-4.56l7.72-17.52
		c1.5-3.39,5.95-1.05,6.71,0.23c0.77,1.28-0.29,2.76,0.26,3.24l39.81,17.55l0.77-0.84c1.4-2.49,5.58-0.63,6.49,1.24
		c0.39,0.77,0.39,1.57,0.03,2.41l-7.72,17.52c-1.35,3.06-5.9,1.22-6.76-0.54c-0.84-1.73,0.01-2.11-0.21-2.55
		c-0.07-0.14-0.08-0.28-0.01-0.43l-11.6-5.11l-21.74,49.32c-0.15,0.34,1.81,1.33,0.74,3.77L646.5,221.14L646.5,221.14z
		 M723.37,265.54c-1.02,1.55-2.76,2.32-4.38,1.25l-13.82-9.11c-3.28-2.16-0.1-6.65,1.51-7.05c2.53-0.64,1.69,0.91,2.74-0.7
		l29.23-44.36l-10.68-7.04c-0.97-0.31-0.59,1.05-2.74,1.36c-1.89,0.27-5.83-2.48-3.98-5.3l10.54-15.99c2.04-3.1,6.04-0.04,6.58,1.34
		c0.54,1.39-0.75,2.67-0.29,3.24l36.33,23.94l0.9-0.7c1.79-2.22,5.61,0.31,6.19,2.3c0.26,0.83,0.13,1.62-0.38,2.38l-10.54,15.99
		c-1.85,2.8-6.03,0.22-6.57-1.65c-0.54-1.84,0.37-2.08,0.22-2.55c-0.05-0.15-0.03-0.29,0.06-0.42l-10.58-6.97l-29.66,45.01
		c-0.21,0.31,1.56,1.61,0.1,3.83L723.37,265.54L723.37,265.54z M761.63,301.91c-7.9-7.89-11.19-14.54-10.42-24.8
		c0.97-12.86,8.1-25.16,17.82-33.56c1.81-1.57,4.81-3.74,9.03-6.5c7.45-4.92,19.5-6.5,27.9-3.44c7.35,2.74,10.73,6.08,15.61,11.75
		c2.69,3.1,4.42,7.36,5.25,12.78c0.22,1.57,0.51,9.51-0.97,13.98c-2.46,10.64-10.41,21.88-19.88,29.04
		c-2.84,2.15-5.93,3.87-9.24,5.18C783.68,312.52,771.99,311.04,761.63,301.91L761.63,301.91z M785.43,253.79
		c-4.89,2.18-11.15,9.46-13.59,15.06c-1.78,4.06-2.39,8.28-1.46,12.57c0.66,3.05,3.75,6.95,7.37,8.6c5.1,2.33,10.67,0.66,15.77-2.57
		c6.64-4.21,10.95-9.53,13.64-16.56c1.43-3.74,1.8-8.82,0.11-12.17c-1.9-3.76-4.53-5.99-8.42-7.34
		C793.99,249.72,789.74,251.85,785.43,253.79L785.43,253.79z"/>
	<path d="M346.18,266.93c0.25,13.88-1.92,31.64-8.08,42.51c-2.92,5.16-7.72,8.9-13.12,10.88c-1.3,0.48-4.03,0.97-8.08,1.04
		c-9.15,0.16-18.36,0.03-27.52,0.05c-3.23,0.01-3.1-3.54-3.1-5.41c0-3.37,2.32-2.96,2.32-3.66v-71.91c-0.15,0.05-0.23,0.1-0.38,0.15
		c-1.33-0.36-1.94-1.23-1.94-2.69c0-1.75-0.2-2.8,0.84-4.55c0.59-1,1.33-1.74,2.26-2.15c9.15-4.08,18.33-7.73,27.52-10.85
		c4.83-1.64,11.05-2.54,15.09-0.14c7.57,4.49,11.61,17.05,13.06,27.95C345.42,250.94,346,257.21,346.18,266.93L346.18,266.93z
		 M327.73,287.28c1.29-4.02,1.88-10.15,1.88-18.34c0-11.2-1.33-18.29-5.1-23.69c-0.97-1.39-3.07-2.23-4.92-2.03
		c-3.53,0.39-10.7,2.55-14.31,3.57v52.3c3.47-0.3,6.95-0.61,10.46-0.87C322.58,297.69,325.43,294.44,327.73,287.28L327.73,287.28z
		 M408.22,310.18c3.21,0.55,2.93,3.87,2.93,6.63c0,2.21-1.06,5-2.93,5c-6,0-11.93,0-17.93,0c-3.19,0-3.13-7.08-2.43-9.16
		c1.02-3.02,1.53-0.59-0.03-5.31l-8.95-28.62c-2.92,0.13-5.85,0.27-8.75,0.41v30.29c0,1.5,0.35,0.71,0.35,1.41
		c1.39,0,2.23,2.11,2.23,4.07c0,3.37,0.23,6.91-3.62,6.91c-4.98,0-9.93,0-14.89,0c-1.6,0-2.64-2.65-2.64-4.72c0-0.67,0-1.32,0-1.99
		c0-3.77,1.96-3.95,2.43-4.35v-88.34c-0.26,0.04-0.52,0.09-0.75,0.13c-2.01-1.98-1.68-3.79-1.68-6.39c0-1.7,1.21-4.59,2.64-4.82
		c10.28-1.72,20.6-3.14,30.9-4.25c4.33-0.46,8.53-0.02,12.14,2.03c0.72,0.41,2.3,2.09,4.69,4.99c2.42,2.94,3.89,7.09,4.92,12.32
		c1.32,6.67,1.36,8.69,1.36,15.64c0,11.46-1.83,27.34-11.93,33.6c0.96,3,10.02,31.84,11.27,33.76L408.22,310.18L408.22,310.18z
		 M391.51,243.76c0.38-7.82,0.38-10.94-7.5-10.33c-4.63,0.36-9.27,0.8-13.87,1.24c0,6.2,0,12.38,0,18.58
		c11.96-0.86,18.1-1.37,18.39-1.64C391.42,250.3,391.34,247.2,391.51,243.76L391.51,243.76z M435.13,309.95
		c2.91,0,3.47,11.35-0.84,11.35c-5.13,0-10.22,0-15.32-0.01c-2.91,0-2.69-5.1-2.69-7.08c0-3.82,2-4.03,2-4.66v-93.21
		c-1.05,0-2-2.17-2-4.3c0-1.94-0.22-7.07,2.69-7.13c5.1-0.11,10.22-0.15,15.32-0.14c3.63,0.01,3.53,7.78,2.49,9.76
		c-0.32,0.61-1.03,1.6-1.65,1.6V309.95L435.13,309.95z M486.65,314.38c0-1.13,0.42-2.87,1.3-3.41c-0.5-1.24,0.08-0.8-0.87-2.81
		c-2.85-6.01-5.65-12.14-8.43-18.26c-2.78-6.13-5.59-12.31-8.34-18.48c-1.85-4.54-3.65-9.1-5.45-13.62
		c-0.03,0.58-0.03,1.14-0.03,1.71v50.15c0,0.71,2.03,0.73,2.03,4.62c0,1.97,0.21,7.02-2.69,7.02c-4.89,0-9.79,0-14.66,0
		c-1.83,0-2.81-2.83-2.81-5c0-0.69,0-1.39,0-2.07c0-3.92,1.84-4.07,2.52-4.64v-93.11c-0.29,0-0.52-0.01-0.75-0.03
		c-0.58-0.59-1-1.24-1.27-1.89c-0.64-1.49-0.49-3.52-0.49-5.26c0-1.52,1.48-4.13,2.11-4.25c1.43-0.25,15.25,0.67,17.73,0.82
		c3.61,0.22,3.44,9.81,1.48,10.8c0,0.48,0.11,0.76,0.23,1.04c3.7,8.52,7.3,17.08,10.95,25.55c3.65,8.48,7.36,16.88,11.01,25.27
		v-49.11c-3.17-0.25-3.87-11.71,0.67-11.1c4.75,0.64,9.56,1.38,14.31,2.18c1.83,0.31,3.01,3.07,3.01,4.71c0,0.8,0,1.58,0,2.36
		c0,1.97-1.27,4-2.29,4v88.58c0,1,2.29,0.47,2.29,4.44c0,1.97,0.16,3.73-0.9,5.38c-0.58,0.9-1.28,1.33-2.11,1.33
		c-5.16,0-10.28-0.01-15.44-0.01C486.48,321.3,486.65,316.41,486.65,314.38L486.65,314.38z M535.08,251.41
		c0.55-0.72,1.13-1.44,1.71-2.14c4.46-6.29,8.92-12.3,13.38-18.06c-2.05-1.81-2.09-10,1.48-8.7c7.04,2.58,14.05,5.49,21.09,8.67
		c1.65,1.34,3.28,6.53,1.48,8.21c-0.91,0.85-1.99,0.69-2.2,0.5c-0.15,0.01-0.23,0.03-0.32,0.03c-8.11,8.34-10.79,11.15-20.8,23.58
		c3.01,7.23,17.46,41.26,20.48,46.22l1.54,2.46c2.91,1.76,3.01,1.68,3.01,5.4c0,1.82-0.78,3.84-2.84,3.84
		c-6.37-0.02-12.72-0.06-19.03-0.05c-3.75,0.01-4.32-7.9-1.39-8.97l-13.38-32.79c-1.42,2.04-2.81,4.11-4.2,6.16c0,8,0,16.02,0,24.01
		c0,0.69,0.12,1.22,0.35,1.44c2.26,1.59,2.03,2.67,2.03,5.67c0,2-1.04,4.45-2.69,4.45l-15.7-0.01c-1.63,0-2.69-2.57-2.69-4.68
		c0-0.64,0-1.28,0-1.92c0-1.87,0.52-3.18,1.59-3.94c0.29,0.01,0.55-0.12,0.75-0.35v-86.37c0-0.65-2.35-0.17-2.35-4.95
		c0-1.92-0.24-3.47,0.87-4.94c0.58-0.77,1.19-1.08,1.83-0.94c5.24,1.19,10.46,2.5,15.7,3.94c1.43,0.39,2.69,3.09,2.69,4.66
		c0,1.63,0.17,3.18-0.52,4.55c-0.72,1.44-1.79,1.04-1.8,1.48C535.08,235.71,535.08,243.55,535.08,251.41L535.08,251.41z"/>
	<path d="M175.69,491.53c1.11,2.43,0.73,4.99-1.43,7.12c-2.58,2.54-4.12,3.62-6.96,3.62c-1.55,0-2.75-0.56-3.5-1.63
		c-0.97,0-2.33,1.59-3.14,2.31c-9.43,7.32-17.38,12.41-23.91,15.28c-7.25,2.83-15.88,3.86-23.67,3.86
		c-17.78,0-32.82-5.89-45.11-17.62c-11.71-13.61-16.81-26.74-20.45-43.92c-1.27-6.21-1.91-12.69-1.91-19.37
		c0-18.46,4.1-34.85,12.33-49.17c5.77-10.78,13.33-18.86,22.75-24.23c15.9-9.1,38.96-10.86,56.05-3.74
		c9.11,4.81,14.76,8.08,16.95,9.75c2.23,1.67,4.53,3.58,6.96,5.77c1.11,0.52,2.22,1.14,3.14,1.95c1.66-1.66,4-1.46,6.29-1.27
		c1.61,0.13,6.05,4.9,6.17,6.64c0.08,1.19-0.12,2.35-0.56,3.5l-15.04,30.07c-0.58,3.03-4.52,4.96-6.72,4.02
		c-1.68-0.74-6.01-4.83-6.4-5.81c-0.34-0.86,0.16-4.05,0.16-5.45c-0.34-2.31-4.31-5.41-6.64-7.08c-10.7-7.64-20.68-9.58-32.34-8.27
		c-9.05,1.02-16.47,8.83-20.96,16.23c-5.02,8.3-6.13,17.32-6.13,27.09c0,10.66,3.66,21.96,10.98,33.93
		c2.86,3.18,6.21,5.65,10.06,7.4c3.86,1.75,8.31,2.63,13.37,2.63c8.91,0,17.26-3.18,25.02-9.55c2.27-1.72,3.57-2.52,5.25-4.34
		c0.72-0.84,0.84-1.83,0.36-2.9c-1.31-4.34-0.72-7.08,1.87-8.15c3.1-2.27,5.69-3.18,7.8-2.78c2.43,0.91,3.86,2.19,4.34,3.82
		L175.69,491.53L175.69,491.53z M248.73,522.08c-12.73-0.8-22.56-3.1-29.48-7c-15.82-8.91-26.79-26.35-31.82-43.84
		c-4.12-14.3-5.43-29.54-3.38-44.51c0.64-4.65,2.23-11.73,4.85-21.24c4.57-16.87,20.21-34.78,36.56-41.17
		c14.35-5.49,23.64-4.96,38.15-2.94c14.91,2.01,36.66,19.96,40.93,33.77c10.16,18.82,13.03,45.63,8.39,68.42
		c-1.39,6.84-3.7,13.37-6.88,19.57C294.87,509.11,275.78,522.08,248.73,522.08L248.73,522.08z M221.4,420.53
		c-4.36,9.53-4.13,28.34-0.48,39.74c3.79,11.82,10.86,20.96,23.19,23.95c9.31,2.23,18.76-1.26,25.34-9.11
		c6.18-7.38,10.26-23.51,10.26-32.98c0-12.18-2.63-26.53-11.02-35.88c-7.44-8.35-13.2-8.75-23.75-8.75
		C232.71,397.49,225.7,411.05,221.4,420.53L221.4,420.53z M440.66,399.36c0,4.09-3.6,5.81-7,5.81c-2.28,0-3.98,0.21-5.93-1.23
		c-2.88-2.15-1.75-4.22-2.47-4.46c-0.24-0.08-0.36-0.28-0.36-0.6h-57.08v21.56h35.32v-1.51c0.25-2.48,3.48-4.77,6.4-4.77
		c2.55,0,4.24-0.26,6.32,1.79c1.23,1.19,1.83,2.7,1.83,4.49v36.48c0,3.52-2.76,6.17-5.97,6.17c-2.42,0-3.96,0.22-6.21-1.27
		c-2.62-1.73-2.39-3.53-2.39-5.81h-35.32v48.45h0.48c2.55,0.95,3.82,2.86,3.82,5.73c0,2.82,0.27,5.44-1.55,7.64
		c-1.07,1.27-2.43,1.91-4.14,1.91h-32.78c-3.68,0-5.69-3.13-5.69-6.76v-2.78c0-5.28,3.88-5.08,4.3-6.29V378.16h-0.44
		c-2.59-1.71-3.86-3.78-3.86-6.21c0-2.99-0.39-5.05,1.55-7.4c1.07-1.27,2.47-1.91,4.14-1.91h91.25c0-1.08,0.47,0.19,0.72-2.11
		c0.29-2.75,3.11-4.3,5.93-4.3c2.67,0,4.57-0.17,6.96,1.39c1.43,0.91,2.15,2.35,2.15,4.3V399.36L440.66,399.36z M562.23,399.36
		c0,4.09-3.6,5.81-7,5.81c-2.28,0-3.98,0.21-5.93-1.23c-2.88-2.15-1.75-4.22-2.47-4.46c-0.24-0.08-0.36-0.28-0.36-0.6h-57.08v21.56
		h35.32v-1.51c0.25-2.48,3.48-4.77,6.4-4.77c2.55,0,4.24-0.26,6.32,1.79c1.23,1.19,1.83,2.7,1.83,4.49v36.48
		c0,3.52-2.76,6.17-5.97,6.17c-2.42,0-3.96,0.22-6.21-1.27c-2.62-1.73-2.39-3.53-2.39-5.81h-35.32v48.45h0.48
		c2.55,0.95,3.82,2.86,3.82,5.73c0,2.82,0.27,5.44-1.55,7.64c-1.07,1.27-2.43,1.91-4.14,1.91h-32.78c-3.68,0-5.69-3.13-5.69-6.76
		v-2.78c0-5.28,3.88-5.08,4.3-6.29V378.16h-0.44c-2.59-1.71-3.86-3.78-3.86-6.21c0-2.99-0.39-5.05,1.55-7.4
		c1.07-1.27,2.47-1.91,4.14-1.91h91.25c0-1.08,0.47,0.19,0.72-2.11c0.29-2.75,3.11-4.3,5.93-4.3c2.67,0,4.57-0.17,6.96,1.39
		c1.43,0.91,2.15,2.35,2.15,4.3V399.36L562.23,399.36z M678.39,526.38c-2.85,0-6.03-2.75-6.64-4.3c-0.36-1.27-0.52-2.03-0.44-2.35
		h-93.6c-3.05,0-5.69-3.07-5.69-6.76v-2.78c0-2.7,1.19-4.61,3.58-5.73c0.88-0.19,0.72-0.06,0.72-2.19V378.16h-0.72
		c-2.39-1.87-3.58-3.94-3.58-6.21c0-3.18-0.44-5.02,1.79-7.4c1.19-1.27,2.51-1.91,3.9-1.91h91.73c0-0.85,0.71-0.86,0.91-2.11
		c0.95-2.86,2.86-4.3,5.73-4.3c2.69,0,4.73-0.21,7.04,1.39c1.35,0.91,2.03,14.84,2.03,41.73c0,4.04-3.29,5.81-6.76,5.81h-2.31
		c-2.86,0-4.77-1.43-5.73-4.3l-0.36-2.11l-58.12,0.12v21.56h34.85c0.92-0.13-0.57-3.03,2.59-4.97c2.39-1.47,3.88-1.31,6.25-1.31
		c3.67,0,6.17,2.7,6.17,5.81v36.96c0.07,5.54-1.55,5.73-6.17,5.73c-2.48,0-3.7,0.15-6.25-1.07c-1.43-0.68-2.15-1.79-2.15-3.26
		c-0.32-0.6-0.44-1.39-0.44-2.31h-34.85v27.61h59.87v-2.35c0.48-1.47,1.35-2.63,2.63-3.5c2.18-1.44,3.72-1.27,6.01-1.27
		c3.56,0,6.21,3.1,6.21,6.64v37.55c0,2.78-2.75,5.69-6.21,5.69H678.39L678.39,526.38z M808.35,526.38c-2.85,0-6.03-2.75-6.64-4.3
		c-0.36-1.27-0.52-2.03-0.44-2.35h-93.6c-3.05,0-5.69-3.07-5.69-6.76v-2.78c0-2.7,1.19-4.61,3.58-5.73
		c0.88-0.19,0.72-0.06,0.72-2.19V378.16h-0.72c-2.39-1.87-3.58-3.94-3.58-6.21c0-3.18-0.44-5.02,1.79-7.4
		c1.19-1.27,2.51-1.91,3.9-1.91h91.73c0-0.85,0.71-0.86,0.91-2.11c0.95-2.86,2.86-4.3,5.73-4.3c2.69,0,4.73-0.21,7.04,1.39
		c1.35,0.91,2.03,14.84,2.03,41.73c0,4.04-3.29,5.81-6.76,5.81h-2.31c-2.86,0-4.77-1.43-5.73-4.3l-0.36-2.11l-58.12,0.12v21.56
		h34.85c0.92-0.13-0.57-3.03,2.59-4.97c2.39-1.47,3.88-1.31,6.25-1.31c3.67,0,6.17,2.7,6.17,5.81v36.96
		c0.07,5.54-1.55,5.73-6.17,5.73c-2.48,0-3.7,0.15-6.25-1.07c-1.43-0.68-2.15-1.79-2.15-3.26c-0.32-0.6-0.44-1.39-0.44-2.31h-34.85
		v27.61h59.87v-2.35c0.48-1.47,1.35-2.63,2.63-3.5c2.18-1.44,3.72-1.27,6.01-1.27c3.56,0,6.21,3.1,6.21,6.64v37.55
		c0,2.78-2.75,5.69-6.21,5.69H808.35L808.35,526.38z"/>
	<path d="M201.63,618.33c2.32,0.99,2.13,2.45,2.13,4.18c0,1.87-1.41,3.32-3.2,3.32h-18.82c-3.99,0-3.68-7.5-0.29-7.5
		c0-1.36-3.3-9.8-3.71-10.92h-18.65l-3.26,10.74c0,0.33,2.56,0.64,2.56,2.99c0,1.46,0.16,2.65-0.94,3.75
		c-0.62,0.62-1.41,0.94-2.32,0.94h-16.99c-1.57,0-2.79-1.51-2.79-3.32c0-2.82-0.03-3.41,2.79-4.45c0-0.73,0.84-1.95,1.39-3.26
		l18.86-54.93c2.23-5.94-1.43-2.65-1.43-6.58c0-1.59-0.22-2.46,0.9-3.63c0.59-0.63,1.25-0.94,1.97-0.94h18.36
		c1.49,0,2.81,1.55,2.81,2.91v1.66c0,1.06-0.93,3.05-2.13,3.05l0.41,2.34l19.45,54.97l1.84,3.94
		C200.66,617.97,201.29,617.95,201.63,618.33L201.63,618.33z M164.5,591.96h8.3l-4.59-13.04L164.5,591.96L164.5,591.96z
		 M251.05,621.14c0-0.9,0.55-2.01,1.39-2.34c-0.55-0.83,0.13-0.62-0.92-1.89l-17.46-24.49l-5.6-8.98l-0.06,1.15v33.47
		c0,0.45,2.13,0.5,2.13,3.09c0,1.75,0.07,4.69-2.81,4.69H212.5c-1.56,0-2.93-1.49-2.93-3.32c0-4.55,1.17-3.48,2.58-4.45v-61.73
		c-0.99,0-1.52-0.37-2.11-1.23c-0.61-0.88-0.47-2.37-0.47-3.48c0-1.14,1.61-2.78,2.21-2.85l18.4-0.06c1.62,0,2.91,1.52,2.91,2.91
		c0,1.31,0.23,3.6-1.37,4.24c0,0.31,0.08,0.53,0.23,0.68l22.83,33.29v-33.51c-3.29,0-4.01-7.62,0.68-7.62h14.88
		c1.75,0,3.09,1.52,3.09,2.91v1.66c0,1.64-1.58,3.05-2.34,3.05v61.73c0,0.71,2.34,0.27,2.34,3.09c0,1.47,0.16,2.64-0.9,3.75
		c-0.59,0.62-1.31,0.94-2.19,0.94h-16.03c-1.91,0-3.26-1.4-3.26-3.32V621.14L251.05,621.14z M345.62,587.26
		c0,12.31-2.57,26.91-12.81,33.84c-5.22,3.53-10.32,4.59-17.63,4.73h-28.59c-3.23,0-3.26-2.74-3.26-4.69c0-2.88,2.46-2.51,2.46-3.09
		v-61.73c-3.07,0-3.95-7.62,0.8-7.62h28.59c5.44,0,11.36,0.69,15.68,3.14c7.11,4.03,11.85,13.09,13.59,21.95
		C344.84,575.83,345.25,580.33,345.62,587.26L345.62,587.26z M326.41,600.63c1.33-2.89,1.99-7.34,1.99-13.38
		c0-8.7-1.47-13.72-5.31-18.22c-2.11-2.47-5.96-2.54-9.1-2.54h-10.88v41.59c3.64,0,12.82,0.29,15.86-0.51
		C322.58,606.64,324.52,604.66,326.41,600.63L326.41,600.63z M394.07,618.33c2.44,0.89,2.23,2.37,2.23,4.18
		c0,1.91-1.33,3.32-3.14,3.32h-16.01c-2.91,0-2.87-2.91-2.87-4.69c0-2.75,2.13-2.48,2.13-3.09v-61.73c-2.45,0-3.59-7.62,0.74-7.62
		c10.77,0,21.55,0,32.32,0c0.68,0,2.66,0.04,5.92,0.14c5.75,0.17,6.65,1.73,10.62,5.12c4.1,4.02,6.52,12.93,6.52,18.88
		c0,5.67-1.04,9.5-4,14.88c-4.19,7.61-9.11,9.34-19.06,9.37h-15.62v21.23H394.07L394.07,618.33z M393.84,579.43h14.2
		c1.92,0,4.65-0.31,5.37-1.19c2.18-2.66,2.89-9.88-1.44-11.37c-1.88-0.64-15.29-0.37-18.12-0.37V579.43L393.84,579.43z
		 M488.18,629.09c-1.92,0-3.75-2.16-3.48-3.26h-45.95c-3.61,0-3.59-6.93-1.03-7.5c0.43-0.1,0.35-0.04,0.35-1.07v-60.93
		c-2.67,0-3.22-7.62,0.68-7.62h45.03c0-0.42,0.35-0.42,0.45-1.03c0.41-2.55,4.61-2.57,6.27-1.43c0.66,0.45,1,7.28,1,20.48
		c0,2.79-2.63,2.85-4.45,2.85c-2.2,0-2.71-1.5-2.99-3.14l-28.53,0.06v10.58h17.11c0.59-0.08-0.88-3.09,4.33-3.09
		c1.8,0,3.03,1.33,3.03,2.85v18.14c0.04,3.09-1.1,2.81-4,2.81c-0.68,0-1.37-0.18-2.09-0.53c-0.99-0.47-1.27-1.72-1.27-2.73h-17.11
		v13.55h29.39c0-1.04-0.09-1.96,1.29-2.87c1.85-1.22,5.99-0.95,5.99,2.64v18.43c0,1.36-1.35,2.79-3.05,2.79H488.18L488.18,629.09z
		 M540.35,622.86c0,1.78-0.99,3.32-2.85,3.32h-15.92c-3.78,0-3.6-5.29-2.52-6.46c1.7-1.86,1.84-0.17,1.84-2.01v-51.08h-12.3
		c-0.94,0.27,0.08,1.16-1.48,2.54c-1.38,1.21-5.99,1.09-5.99-2.15v-18.41c0-3.57,4.83-3.23,5.99-2.4c1.17,0.82,0.81,2.54,1.48,2.75
		h41.83l0.35-1.03c0.27-2.73,4.67-2.71,6.19-1.43c0.64,0.53,0.96,1.23,0.96,2.11v18.41c0,3.82-6.78,3.55-7.15,0.7
		c-0.16-1.23-0.35-0.56-0.35-1.09h-12.18v51.83c0,0.36,2.11,0.47,2.11,3.03V622.86L540.35,622.86z M656.62,618.33
		c1.91,0.92,1.72,2.46,1.72,4.18c0,1.8-1.24,3.32-2.81,3.32h-15.9c-1.79,0-3.32-1.39-3.32-3.32v-1.37c0-1.57,1.19-2.81,2.58-2.81
		v-29.17l-0.35,0.68l-13.55,34.21c-1.29,2.46-4.94,2.32-5.78-0.33l-12.99-33.88v28.22c0,0.72,2.46,0.27,2.46,3.09
		c0,1.48,0.16,2.65-0.96,3.75c-0.63,0.62-1.37,0.94-2.21,0.94h-14.86c-1.93,0-3.32-1.39-3.32-3.32v-1.37c0-2.85,2.58-2.54,2.58-3.09
		v-61.73c-2.9,0-3.46-5.71-1.58-6.82c0.9-0.53,1.68-0.8,2.32-0.8h19.45c1.66,0,3.14,1.48,3.14,2.91c0,1.8,0.27,3.59-1.66,4.24
		l0.23,1.43l11.38,29.76c1.11-2.93,11.72-30.39,11.72-31.19c-2.08,0-1.76-2.94-1.76-4.24c0-1.38,1.34-2.91,2.91-2.91h19.45
		c4.01,0,3.26,7.62,0.74,7.62v61.73C656.27,618.23,656.39,618.33,656.62,618.33L656.62,618.33z M723.8,548.94
		c1.84,0,3.03,1.66,3.03,3.03v1.78c0,3.1-2.6,2.6-3.79,3.65l-2.79,4.92l-16.31,31.75v24.37c0.79,0.37,2.58,0.49,2.58,3.03
		c0,1.45,0.15,2.64-0.86,3.75c-0.59,0.64-1.23,0.96-1.95,0.96h-16.25c-4.27,0-3.31-7.29-1.43-7.5c0.65-0.07,0.92,0.03,0.92-0.98
		v-23.63l-16.25-31.75c-3.92-7.31-4.09-4.89-6.03-6.76c-1.01-0.97-0.78-2.05-0.78-3.59c0-1.42,1.58-3.03,3.26-3.03h20.31
		c1.42,0,2.81,1.68,2.81,3.03c0,1.49,0.21,2.6-0.72,3.59c-0.74,0.78-1.13,1.09-1.86,1.09c0,0.75,7.44,15.29,8.06,16.54
		c5-9.84,7.5-15,7.5-15.45c0.37-2.26-1.13-1.3-1.82-2.77c-0.44-0.95-0.31-1.88-0.31-3.01c0-1.35,1.4-3.03,2.81-3.03H723.8
		L723.8,548.94z"/>
	<path d="M374.29,709.74c0,18.26-3.89,39.89-18.96,50.09c-4,2.7-8.96,4.67-13.64,5.87c-2.08,0.52-6.24,0.9-12.46,1.13h-42.32
		c-2.87,0-4.83-2.02-4.83-4.91v-2.02c0-2.42,1.82-4.16,3.3-4.16c0.5,0,0.35-0.77,0.35-1.59v-90.18h-0.61
		c-2.02-1.16-3.04-2.63-3.04-4.51c0-2.27-0.32-3.7,1.33-5.38c0.92-0.92,2.08-1.39,3.5-1.39h42.32c8.05,0,16.82,1.02,23.21,4.65
		c10.52,5.97,17.55,19.37,20.12,32.49C373.14,692.83,373.74,699.48,374.29,709.74L374.29,709.74z M345.85,729.54
		c1.97-4.28,2.95-10.87,2.95-19.8c0-10.87-1.76-18.7-5.32-23.44c-4.85-7-7.52-7.28-16.01-7.28h-16.1v61.57h16.1
		C336.98,740.58,341.79,738.18,345.85,729.54L345.85,729.54z M430.77,768.53c-15.87-0.99-25.63-5-34.45-16.68
		c-11.07-14.65-15.02-34.49-12.54-52.61c1.7-12.44,5.5-24.97,14.45-34.11c5.38-5.55,10.61-9.28,15.64-11.24
		c10.43-3.99,17.18-3.61,27.72-2.14c5.78,0.78,11.65,3.7,17.63,8.7c17.69,15.47,22.74,43.29,18.21,65.56
		c-1.01,4.97-2.69,9.71-5,14.22C464.3,759.11,450.43,768.53,430.77,768.53L430.77,768.53z M410.91,694.74
		c-3.17,6.93-3,20.59-0.35,28.88c2.79,8.71,7.86,15.2,16.85,17.4c6.76,1.62,13.63-0.91,18.41-6.62c4.49-5.37,7.46-17.09,7.46-23.96
		c0-8.85-1.91-19.28-8.01-26.07c-5.9-6.62-14.09-8.16-22.31-4.8C416.24,682.35,413.69,688.62,410.91,694.74L410.91,694.74z
		 M575.67,705.44c4.93,0,4.39,3.73,4.39,7.11c0,2.64-1.64,3.25-3.47,4.16v23.88h0.69c1.85,1.19,2.77,2.77,2.77,4.74
		c0,2.42,0.31,3.64-1.76,5.17c-7.63,6.16-15.12,10.69-22.46,13.61c-19.2,7.67-40.54,5.88-54.86-8.79
		c-11.86-11.99-16.1-28.22-16.1-45.58c0-16.19,3.95-31.5,13.99-43.36c9.13-10.55,21.22-15.81,36.25-15.81
		c4.06,0,9.51,0.93,13.21,2.11c3.29,1.05,12.03,4.75,13.87,5.75c1.53,1.01,2.51,1.36,2.98,1.01c1.72-1.49,4.37-1.38,6.24-0.32
		c3.3,1.87,4.7,2.84,2.72,6.24l-8.64,25.06c-0.51,1.84-1.11,1.78-3.3,2.8c-2.71,1.28-6.76-2.18-6.94-5.17
		c-0.14-1.2-0.35-0.71-0.35-2.43c-3.59-2.75-4.13-3.66-9.05-5.52c-4.65-1.75-6.41-2.11-11.27-2.11c-7.09,0-11.52,2.09-16.24,7.28
		c-4.9,5.14-7.8,17.16-7.8,24.45c0,10.06,2.6,18.04,7.8,23.9c6.62,7.58,12.96,8.69,22.83,7.78c4.04-0.37,9.69-2.63,13.06-5v-7.6
		h-13.9c0,1.8,0.29,3.49-1.27,4.22c-1.66,0.78-3.19,0.61-5,0.61c-2.6,0-4.48-1.92-4.48-4.16v-24.8c0-5.41,6.88-5.2,9.11-3.53
		c1.83,1.37,1.65,2.64,1.65,4.28H575.67L575.67,705.44z"/>
	<path d="M269.65,271.38c0.88,0,1.07-0.26,1.07-0.89c0-1.14-0.04-2.25-0.04-3.4c0-1.99,0.04-2.44,0.04-4.65c0-0.19,0-0.37,0-0.52
		c0-0.3-0.04-0.7-0.55-0.85c-0.33-0.11-0.77-0.08-1.14-0.08c-2.73,0-5.47,0-8.16,0c-0.37,0-10.48,0-14.14,0.04
		c-5.02,0.04-9.79,0-11.04-0.04c-3.76-0.07-7.53-0.04-11.33-0.04c-0.85,0-1.66,0-2.51,0c-1.07,0-1.11,0.3-1.11,0.89
		c0.04,1.07,0.07,2.1,0.07,3.14c0.04,1.22,0,2.44-0.04,3.66c0,0.59-0.07,1.22,0,1.81c0,0.3,0.04,0.66,0.52,0.81
		c0.37,0.11,0.77,0.08,1.18,0.08c3.25,0.04,6.46,0.04,9.71,0.04c6.02,0,12-0.04,18.02-0.04c5.8,0,11.63,0.07,17.42,0.07
		C268.3,271.41,268.98,271.38,269.65,271.38L269.65,271.38z M237.87,297.33c9.81,0,19.61,0.04,29.42,0.04
		c0.81,0,1.59-0.04,2.37-0.04c0.88,0,1.07-0.3,1.07-0.89c0-1.14-0.04-2.29-0.04-3.43c0-1.99,0.07-2.44,0.07-4.65
		c0-0.15-0.04-0.33-0.04-0.52c0-0.3-0.04-0.66-0.52-0.81c-0.37-0.11-0.77-0.07-1.18-0.07c-2.69-0.04-5.39-0.04-8.09-0.04
		c-5.94,0-11.93-0.04-17.87-0.04c-10.24,0-20.88,0.37-31.05,0.08c-3.91-0.11-7.83-0.08-11.74-0.08c-0.66,0-1.33,0.04-1.99,0.04
		c-1.07,0-1.11,0.26-1.11,0.89c0,1.37,0.08,2.69,0.08,4.06c0,0.92,0,1.81-0.04,2.73c-0.04,0.59-0.07,1.22-0.04,1.81
		c0.04,0.3,0.08,0.66,0.55,0.81c0.33,0.11,0.77,0.08,1.14,0.08c2.7,0.04,5.39,0.04,8.09,0.04
		C217.26,297.33,227.57,297.33,237.87,297.33L237.87,297.33z M267.62,323.32c0.66,0,1.33-0.04,2.03-0.04c0.88,0,1.07-0.3,1.07-0.89
		c0-1.14-0.04-2.29-0.04-3.43c0-1.99,0.04-2.44,0.04-4.65c0-0.15,0-0.33,0-0.52c0-0.3-0.04-0.66-0.55-0.81
		c-0.33-0.11-0.77-0.07-1.14-0.07c-2.73,0-5.47-0.04-8.16-0.04c-0.37,0-10.48,0-14.14,0.04c-5.02,0.07-9.79,0.04-11.04,0
		c-3.76-0.08-7.53-0.08-11.33-0.08c-0.85,0-1.66,0.04-2.51,0.04c-1.07,0-1.11,0.26-1.11,0.88c0.04,1.03,0.07,2.11,0.07,3.14
		c0.04,1.22,0,2.44-0.04,3.66c0,0.59-0.07,1.22,0,1.81c0,0.3,0.04,0.66,0.52,0.81c0.37,0.11,0.77,0.07,1.18,0.07
		c3.25,0.04,6.46,0.04,9.71,0.04c6.02,0,12-0.04,18.02-0.04C255.99,323.25,261.83,323.32,267.62,323.32L267.62,323.32L267.62,323.32
		z M593.02,271.38c-0.88,0-1.07-0.26-1.07-0.89c0-1.14,0.04-2.25,0.04-3.4c0-1.99-0.04-2.44-0.04-4.65c0-0.19,0-0.37,0-0.52
		c0-0.3,0.04-0.7,0.55-0.85c0.33-0.11,0.77-0.08,1.14-0.08c2.73,0,5.47,0,8.16,0c8.34,0,16.87,0.26,25.18,0
		c3.76-0.07,7.53-0.04,11.33-0.04c0.85,0,1.66,0,2.51,0c1.07,0,1.11,0.3,1.11,0.89c-0.04,1.07-0.07,2.1-0.07,3.14
		c-0.04,1.22,0,2.44,0.04,3.66c0,0.59,0.07,1.22,0,1.81c0,0.3-0.04,0.66-0.52,0.81c-0.37,0.11-0.77,0.08-1.18,0.08
		c-3.25,0.04-6.46,0.04-9.71,0.04c-11.82,0-23.63,0.04-35.44,0.04C594.38,271.41,593.7,271.38,593.02,271.38L593.02,271.38z
		 M624.81,297.33c-5.98,0-12.04-0.19-18.02-0.04c-3.8,0.07-7.64,0.07-11.41,0.07c-0.81,0-1.59-0.04-2.37-0.04
		c-0.88,0-1.07-0.3-1.07-0.89c0-1.14,0.04-2.29,0.04-3.43c0-1.99-0.07-2.44-0.07-4.65c0-0.15,0.04-0.33,0.04-0.52
		c0-0.3,0.04-0.66,0.52-0.81c0.37-0.11,0.77-0.07,1.18-0.07c2.69-0.04,5.39-0.04,8.09-0.04c11.28,0,22.57-0.04,33.86-0.04
		c5.02,0,10.04,0.22,15.06,0.08c3.91-0.11,7.83-0.08,11.74-0.08c0.66,0,1.33,0.04,1.99,0.04c1.07,0,1.11,0.26,1.11,0.89
		c0,1.37-0.08,2.69-0.08,4.06c0,0.92,0,1.81,0.04,2.73c0.04,0.59,0.07,1.22,0.04,1.81c-0.04,0.3-0.08,0.66-0.55,0.81
		c-0.33,0.11-0.77,0.08-1.14,0.08c-2.7,0.04-5.39,0.04-8.09,0.04C645.41,297.33,635.11,297.33,624.81,297.33L624.81,297.33z
		 M595.05,323.32c-0.66,0-1.33-0.04-2.03-0.04c-0.88,0-1.07-0.3-1.07-0.89c0-1.14,0.04-2.29,0.04-3.43c0-1.99-0.04-2.44-0.04-4.65
		c0-0.15,0-0.33,0-0.52c0-0.3,0.04-0.66,0.55-0.81c0.33-0.11,0.77-0.07,1.14-0.07c2.73,0,5.47-0.04,8.16-0.04
		c8.34,0,16.88,0.28,25.18,0.04c3.76-0.08,7.53-0.08,11.33-0.08c0.85,0,1.66,0.04,2.51,0.04c1.07,0,1.11,0.26,1.11,0.88
		c-0.04,1.03-0.07,2.11-0.07,3.14c-0.04,1.22,0,2.44,0.04,3.66c0,0.59,0.07,1.22,0,1.81c0,0.3-0.04,0.66-0.52,0.81
		c-0.37,0.11-0.77,0.07-1.18,0.07c-3.25,0.04-6.46,0.04-9.71,0.04c-6.02,0-12-0.04-18.02-0.04
		C606.67,323.25,600.86,323.32,595.05,323.32L595.05,323.32z"/>
</g>
</svg>
