<?xml version="1.0" encoding="utf-8"?>
<!-- Generator: Adobe Illustrator 24.3.0, SVG Export Plug-In . SVG Version: 6.00 Build 0)  -->
<svg version="1.1" id="Layer_1" xmlns="http://www.w3.org/2000/svg" xmlns:xlink="http://www.w3.org/1999/xlink" x="0px" y="0px"
	 viewBox="0 0 864 864" style="enable-background:new 0 0 864 864;" xml:space="preserve">
<g>
	<path d="M304.18,278.74c21.79-10.81,42.02-25.7,55.03-48.75c3.84-7.51,12.68-28.1,14.48-35.96c3.94-18.16,4.68-37.29,0.97-54.06
		c-0.92-7.06-6.32-22.13-9.9-28.24c-14.54-24.86-44.15-48.57-70.48-54.06c-18.6-3.88-48.27-3.92-66.37,2.65
		c-18.05,6.56-23.44,9.28-41.03,20.27c-11.99,7.68-26.78,24.5-33.55,36.69c-7.48,18.22-12.26,27.74-13.52,47.79
		c0.64,9.73,1.29,19.47,1.93,29.2c2.21,7.98,4.35,9.36,9.41,9.9c12.48,1.32,9-13.16,8.45-19.79c-1.29-15.55-1.45-8.79-0.24-27.03
		c0.89-13.39,11.13-37.02,21.24-46.58c16.19-15.31,35.64-29.86,58.17-34.27c9.67-1.89,18.53-3.19,28.48-2.9
		c14.97,0.44,26.08,2.65,39.58,9.17c17.9,8.65,32.55,20.54,41.51,38.38c16.53,32.88,10.65,69-6.03,100.16
		c-7.56,11.98-21.88,27.11-34.75,33.55c-21.16,10.59-36.75,17.53-60.58,11.59c-8.2-2.04-21.47-7.08-28-11.83
		c-12.01-8.74-6.51-11.03,2.17-25.83c5.22-8.48,13.45-20.1,17.38-29.45c10.06-18.34,20.11-36.69,30.17-55.03
		c5.27-7.82,17.76-21.66,25.34-28c6.87-5.74,7.96-7.97,16.17-7.97c13.52,0,13-15.01,2.17-18.34c-6.28-1.93-9.44-1.32-17.14,2.17
		c-15.75,7.15-39.09,35.44-48.75,51.41c-5.71,11.26-11.42,22.53-17.14,33.79c-7.72,13.6-15.45,27.19-23.17,40.79
		c-2.66,3.32-9.31,18.01-15.69,17.38c-9.92-0.98-12.43-8.86-34.75-4.1c-16.03,2.82-30.39,23.89-12.79,37.65
		c12.43,9.72,17.03,8.27,31.13,5.07c13.89-3.16,16.98-15.65,31.14-6.03c12.33,6.76,22.95,11.1,35.96,16.41
		C262.21,290.42,284.56,287.42,304.18,278.74L304.18,278.74z M165.16,257.02c-3.98,0.79-11.73-2.48-7.72-5.31
		C168.13,244.15,183.34,252.45,165.16,257.02L165.16,257.02z M410.61,271.26c11.22,2.35,20.68-0.27,34.03-8.21
		c18.98-11.27,34.21-1.59,55.2-20.79c1.87,7.46,7.6,16.14,14.31,19.58c13.16,6.75,12.4,6.18,26.31,2.9
		c13.59-3.21,5.78,12.02,3.14,14c-7.59,5.7-30.96,9.4-46.58,22.93c-10.41,9.01-12.09,18.99-10.14,31.62
		c1.21,7.83,12.79,19.23,23.17,18.58c9.83-0.61,4.5,0.57,13.76-2.9c14.71-5.5,26.39-27,30.65-40.79
		c6.59-21.3,14.44-19.92,28.24-31.38c11.67-9.69,21.19-19.41,30.28-32.98c2.81,33.15,48.52,30.46,66.74,22.6
		c12.76-5.5,24.25-14.42,32.58-25.58c6.25-8.36,12.46-20.56,14.72-28.72c2.41-13.03-8.93-22.45-15.21-11.58
		c-3.38,5.88-4.83,15.19-13.76,28.48c-7.48,10.38-13.03,14.48-16.65,14.48c-7.75,0,7.29-23.17-15.45-50.68
		c-22.6-27.34-21.36-19.12-18.58-39.58c3.84-28.28-17.47-33.94-27.27-11.34c-6.02,13.89,6.73,21.49,1.21,35.96
		c-5.62,14.73-6.11,20.23-13.27,34.75c-5.13,10.41-8.88,20.83-17.14,29.93l-10.62,11.34c-5.31,3.86-10.62,3.14-6.28-5.55l4.83-17.14
		l12.07-39.1l6.52-22.69c1.96-3.37,3.35-12.97,0.72-16.41c-6.99-9.18-15.63,5.42-23.65,1.93c-10.84-4.72-25.68-6.33-36.69-0.97
		c-15.43,9.27-23.48,16.99-32.1,35c-6.04,12.42-6.07,20.22-6.81,22.37l-7.67,12.14l-11.34,9.9c-16.72,9.32-2.17-22.43-2.17-29.69
		c0-10.87,4.85-18.35-3.14-37.17c-8.55-20.13-29.45-24.73-46.1-15.2c-13.05,7.46-18.26,16.19-27.75,28.48
		c-2.93,3.79-6.38,13.13-9.17,18.34c-3.58,8.77-6.76,23.8-6.76,33.31C384.79,248.55,392.98,267.74,410.61,271.26L410.61,271.26z
		 M415.68,253.15c-15.68-4.48-13.69-30.74-9.17-41.51c4.6-10.96,11.31-26.79,20.03-34.76c8.2-7.49,15.3-15.91,25.82-9.41
		c5.03,3.11,8.65,13.76,8.21,19.55c-2.31,30.14-9.78,18.26-17.86,36.44c-4.21,9.48,5.92,16.12-12.31,25.58
		C426.96,250.84,418.89,254.22,415.68,253.15L415.68,253.15z M620.23,232.11l7.36-15.4c9.11-20.75,6.85-34,18.1-18.1l1.45,1.93
		c19.7,22.4,12.47,60.44-11.1,49.72C628.59,246.87,634.19,228.62,620.23,232.11L620.23,232.11z M530.08,247.6
		c-20.18,0-17.63-45.29,3.62-67.82c8.05-8.54,25.77-14.29,31.14-8.21c6.52,7.39,4.79,10.38,4.1,20.51l-7.48,23.89l-13.76,21.48
		C543.53,241.93,536.64,247.6,530.08,247.6L530.08,247.6z M512.47,332.08c-13.14-1.1-7.52-15.78,3.62-21
		c5.18-2.43,9.5-4.94,13.52-3.86c6.3,1.69,3.59,2.97-0.24,10.62C526.02,324.51,520.92,332.78,512.47,332.08L512.47,332.08z"/>
	<path d="M273.35,450.92l-13.07-66.64c-1.44-9.54-4.48-23.29-6.17-32.32c-2.08-6.45-3.38-14.18-13.98-12.89
		c-13.75,1.67-13.97,10.38-16.16,24.51c-1.96,11.17-17.56,88.46-17.61,96.05c1.33,9.09,16.82,11.12,19.06-3.45
		c0.62-4.02,1.26-18.99,5.08-20.34c0.01,0,19.13-1.53,20.7,1.45c2.03,5.65,2.93,28.69,11.98,28.51
		C274.76,465.57,273.73,457.8,273.35,450.92L273.35,450.92z M246.48,415.34c-1.2,2.81-14.25,2.18-14.16-1.45l6.72-34.5l0.54,0.18
		L246.48,415.34L246.48,415.34z M334.17,465.81c6.6,0,10.87-3.61,10.17-9.62c-0.72-6.14-12.17-26.9-16.89-34.14
		c-5.72-8.79,9.11-7.03,13.62-25.06c3.25-13.01,1.96-29.07-6.72-40.13c-5.51-7.01-14.52-16.02-23.79-17.25
		c-14.15-1.88-16.74-0.77-21.24,9.26c-2.3,5.13-0.61,51.11-0.54,60.64l0.36,48.66c2.96,7.85,4.26,7.44,10.17,7.44
		c15.65,0,2.72-37.95,8.53-39.4c6.96,11.1,12.65,20.99,17.98,33.23C326.46,460.94,329.43,465.13,334.17,465.81L334.17,465.81z
		 M307.66,401.9l-0.73-0.36l0.36-28.69c0.9-9.07-2.91-18.76,7.44-9.62c7.43,7.71,10.93,13.32,8.35,29.23
		C322.12,398.46,310.24,403.19,307.66,401.9L307.66,401.9z M377.75,362.32c0-9.87,21.14,2.83,26.15-9.26
		c1.21-2.91,0.86-8.97-2.18-11.08c-4.55-3.16-28.18-2.76-34.14-2.36c-11.31,0.76-8.39,19.27-8.35,26.15v91.51
		c3.77,12.93,20.32,7.73,25.96,8.72c22.19,2.78,21.92-14.72,11.98-17.61c-9.33-2.72-14.64,0.63-19.07-2.91v-28.69
		c-0.25-9.11,11.62-0.33,14.71-13.62c1.08-4.64-2.94-8.41-5.99-9.08C373.18,391.11,378.51,386.59,377.75,362.32L377.75,362.32z
		 M565.49,467.45c12.26,2.04,7.56-21.58,8.35-30.32v-35.04l1.09-34.86c0.51-8.64,2.26-20.94-3.81-26.15
		c-4.54-3.89-12.57-1.1-14.52,4.18l-22.88,60.46c-2.2,2.2-7.86,23.57-10.53,13.98l-21.94-62.94c-7.7-2.82-15.06-9.16-18.63-16.27
		c-2.68,1.74-4.74,5.01-5.19,9.85l0.18,25.06c0.73,3.98-0.66,4.79,0,11.8c0.95,18.89-0.37,44.94,0.18,62.64
		c0.62,9.95,1.06,17.15,12.89,15.98c9.09-0.9,5.61-20.84,6.17-26.51l-0.36-20.15l0.73-16.52h0.54c3.76,8.59,3.97,11.39,5.45,16.34
		c0.46,1.55,5.46,20.78,8.53,27.24c1.33,2.79,2.24,17.34,10.35,18.34c1.03,0.13,3.85,1.24,6.54-0.54
		c6.21-4.14,6.16-13.31,9.08-18.34c2-4.2,13.88-39.4,16.89-39.4l0.73,37.58C556.07,453.48,552.08,465.77,565.49,467.45
		L565.49,467.45z M620.32,465.99c8.92,0,10.41-5.33,10.71-14.53l-0.36-19.79c1.39-3.92-1.29-21.42,0.73-26.69l14.16-31.23
		c3.11-9.69,14.79-26.97,7.26-32.14c-14.76-10.14-19.08,15.28-22.88,22.88c-1.7,3.39-5.04,16.24-9.08,15.43l-9.26-25.06
		c-1-1.58-3.29-14.89-11.98-14.89c-7.38,0-10.95,5.61-8.72,12.89l20.34,58.1l1.09,46.3C612.42,459.71,614.75,465.99,620.32,465.99
		L620.32,465.99z"/>
	<path d="M244.84,808.75c7.05-1.24,8.9-1.19,9.44-14.71c-0.12-5.99-0.24-11.98-0.36-17.98c0.51-8.13,7.83-3.03,24.87-17.43
		c16.96-14.32,16.28-49.75,2.36-62.64c-10.76-9.96-13.63-9.51-29.6-14.16c-5.31-1.55-16.32,1.75-16.52,9.62
		c0.24,36.01,0.48,72.02,0.73,108.03C235.86,801.95,238.46,809.67,244.84,808.75L244.84,808.75z M253.92,749.93
		c-2.06-0.69,0.43-14.39-0.54-19.61c0.06-6.96,0.12-13.92,0.18-20.88c-0.2-3.21-0.39-5.65,2-7.08
		c11.07,3.83,18.92,11.83,17.25,23.97c-1.33,9.6,0.16,14.42-10.89,21.79C260.35,749.15,255.78,751.04,253.92,749.93L253.92,749.93z
		 M323.1,705.26c0-9.87,21.14,2.83,26.15-9.26c1.21-2.91,0.86-8.97-2.18-11.08c-4.55-3.16-28.18-2.76-34.14-2.36
		c-11.31,0.76-8.39,19.27-8.35,26.15c0,30.5,0,61.01,0,91.51c3.76,12.93,20.32,7.73,25.96,8.72c22.19,2.78,21.92-14.72,11.98-17.61
		c-9.33-2.72-14.64,0.63-19.06-2.91c0-9.56,0-19.13,0-28.69c-0.25-9.11,11.62-0.33,14.71-13.62c1.08-4.64-2.94-8.41-5.99-9.08
		C318.52,734.05,323.85,729.53,323.1,705.26L323.1,705.26z M431.31,746.3c-2.8-18.49-1.14-32.07-10.89-48.84
		c-4.9-8.43-11.49-13.72-21.43-14.71c-3.71-0.37-11.56,0.2-14.71,1.82c-9.37,5.98-16.18,17.03-19.06,27.96
		c-3.15,11.94-6.63,22.84-6.17,35.59c0.73,17.75,1.25,33.93,13.62,50.84c14.36,19.63,46.09,9.44,53.38-14.71
		C430.01,772.16,430.63,760.74,431.31,746.3L431.31,746.3z M412.25,752.83c-0.64,8.91-1.11,27.96-9.44,33.41
		c-0.99,0.65-8.07,9.21-16.52-0.36c-4.83-5.47-3.14-8.74-5.63-14.53c-0.85-9.56-1.69-19.13-2.54-28.69
		c0.1-11.37,7.34-42.74,18.52-41.4c8.55,1.02,12.89,16.17,13.25,23.06C411.13,737.89,412.25,737.22,412.25,752.83L412.25,752.83z
		 M457.28,808.75c7.05-1.24,8.9-1.19,9.44-14.71c-0.12-5.99-0.24-11.98-0.36-17.98c0.51-8.13,7.83-3.03,24.88-17.43
		c16.96-14.32,16.28-49.75,2.36-62.64c-10.76-9.96-13.63-9.51-29.6-14.16c-5.31-1.55-16.32,1.75-16.52,9.62
		c0.24,36.01,0.48,72.02,0.73,108.03C448.3,801.95,450.89,809.67,457.28,808.75L457.28,808.75z M466.35,749.93
		c-2.06-0.69,0.43-14.39-0.54-19.61c0.06-6.96,0.12-13.92,0.18-20.88c-0.2-3.21-0.39-5.65,2-7.08
		c11.07,3.83,18.92,11.83,17.25,23.97c-1.33,9.6,0.16,14.42-10.89,21.79C472.79,749.15,468.22,751.04,466.35,749.93L466.35,749.93z
		 M532.99,809.3c6.55-0.33,30.88-0.15,33.59-4.36c3.47-5.39,1.19-13.61-6.72-14.71c-28.06-3.89-24.6,13.05-24.33-39.04
		c0.12-15.19,0.24-30.38,0.36-45.57c0.33-5.31,1.32-20.9-6.35-22.88c-15.94-4.11-11.56,17.08-12.71,20.52c0,19.43,0,38.85,0,58.28
		c0.97,4.97-1.09,9.82,0,16.16c0.78,4.53-0.49,17.58,3.99,25.96C523.2,808.11,528.44,808.84,532.99,809.3L532.99,809.3z
		 M599.99,705.26c0-9.87,21.14,2.83,26.15-9.26c1.21-2.91,0.86-8.97-2.18-11.08c-4.55-3.16-28.18-2.76-34.14-2.36
		c-11.31,0.76-8.39,19.27-8.35,26.15c0,30.5,0,61.01,0,91.51c3.77,12.93,20.32,7.73,25.96,8.72c22.19,2.78,21.92-14.72,11.98-17.61
		c-9.33-2.72-14.64,0.63-19.06-2.91c0-9.56,0-19.13,0-28.69c-0.25-9.11,11.62-0.33,14.71-13.62c1.08-4.64-2.94-8.41-5.99-9.08
		C595.42,734.05,600.75,729.53,599.99,705.26L599.99,705.26z"/>
	<path d="M92.27,695.01c4.18-19.5,1.99-22.78,0.97-38.62c-0.61-7.96-8.19-26.68,5.55-28.48c13.05-1.7,19.12-6.72,27.02-13.3
		c3.42,12.3,10.55,24.21,23.91,27.06c25.08,5.34,34.68-16.77,43.2-15.21c7.26,1.33,5.95,9.9,13.76,13.76
		c8.53,4.21,15.08,4.12,23.41,1.69c11.89-3.46,17.51-9.18,25.01-18.38c1.39,6.42,5.24,13.81,10.96,17.66
		c5.39,0.72,10.78,1.45,16.17,2.17c8.02-1.47,14.58-7.37,21-11.59c10.52-6.9,34.72,9.46,61.74-14.56c2.03,12.91,11,26.01,24.67,28.8
		c11.33,2.32,20.58-0.22,34.03-8.21c21.7-12.9,26.7,0.73,53.1-19.07c10.89-8.16,17.74-25.72,22.69-37.41
		c2.98-7.16,5.95-14.32,8.93-21.48c3.68-13.2,9.6-14.62,23.89-13.27c20.29,1.92-0.18,30.97-4.59,45.62c-0.97,2.33-1.93,4.67-2.9,7
		c-6.35,14.9-4.13,28.93,3.86,38.86c5.29,6.57,6.76,8.19,16.17,9.9c12.29,2.23,27.07-5.94,35.24-14.72
		c2.99-3.56,5.97-7.12,8.96-10.68c9.57,22.44,32.36,26.82,47.28,13.82c4.93-4.98,9.85-9.96,14.78-14.95
		c8.85,22.83,32.04,28.47,47.73,14.95c4.48-4.43,8.95-8.86,13.42-13.29c10.39,11.88,10.42,15.08,26.4,19.32
		c7.9,2.1,25.22,1.32,32.58-0.97c7.24-2.9,14.48-5.79,21.72-8.69c11.66-6.42,39.75-36.38,33.06-47.79
		c-1.59-2.72-2.54-5.16-7.96-4.59c-13.32,1.41-7.42,21.92-38.13,38.62c-10.25,5.57-21.69,8.15-35.48,5.79
		c-8.55-1.46-18.14-11.12-19.07-19.79c-1.63-15.19,22.42-1.99,43.2-14c10.71-6.19,11.89-7.06,20.76-15.93
		c6.32-9.35,16.11-24.48,6.76-35.48c-8.38-9.85-12.54-12.21-26.31-12.55c-23.95,5.59-29.93,8.59-47.06,28
		c-9.36,15.19-11.31,19.1-16.41,36.2c-1.33,10.92,0.5,4.25-4.59,13.76c-6.25,11.67-22.49,29.49-32.58,11.1
		c-3.69-6.72-1.5-26.1,0.48-33.55c5.39-18.42,10.78-36.85,16.17-55.27c4.02-13.68,6.04-10.44,16.17-10.86
		c15.35-0.64,17.65-15.26,0.48-18.34c-12.04-2.17,1.64-20.3,2.9-34.51c3.62-20.27-13.52-18.83-17.38-6.76
		c-2.25,7.97-4.51,15.93-6.76,23.89c-6.72,22.36-10.96,13.34-26.31,18.83c-6.64,2.37-13.22,15.3,9.17,16.89
		c4.94,0.35,4.02,8.28,0.97,14.24c-1.76,6.06-14.07,52.1-16.17,55.75c-5.2,9.76-7.59,16.28-14.72,26.31
		c-6.76,8.69-16.17,15.69-23.65,8.21c-13.22-13.23-1.14-46.63,3.62-62.27c1.69-6.36,3.38-12.71,5.07-19.07
		c5.18-20.85-12.25-15.57-14.24-13.52c-5.95,6.15-15.37,57.56-22.21,70.48c-7.32,11.27-5.36,14.05-19.79,26.55
		c-5.87,5.08-19.96,10.01-21.72-1.45c-1.44-9.36,2.95-20.97,6.52-28.48c5.75-11.17,9.15-23.46,12.55-35.48
		c3.38-16.89-2.17-29.69-20.27-29.69c-3.22-0.16-6.44-0.32-9.65-0.48c-20.4,0,1.79-19.97-17.86-33.06
		c-21.55-14.36-53.64,23.6-34.03,43.2c6.82,6.82,17.91,6.06,12.07,17.14c-2.09,5.07-4.18,10.14-6.28,15.21
		c-7.2,14.36-10.28,29.74-25.34,38.13c-16.72,9.32-2.17-22.43-2.17-29.69c0-10.87,4.85-18.35-3.14-37.17
		c-8.55-20.13-29.45-24.73-46.1-15.21c-13.05,7.46-18.26,16.19-27.75,28.48c-2.93,3.79-6.38,13.13-9.17,18.34
		c-5.22,12.8,0.63,2.88-5.79,12.31c-7.52,11.03-9.16,18.23-23.65,24.86c-13.56,6.2-13.73-6.85-5.79-19.07
		c3.3-8.53,6.6-17.06,9.9-25.58c1.41-9.82,5.48-19.6,5.79-30.65c0.18-6.4,1.78-16.79,0.72-24.38c-1.67-11.94-19.08-12.29-18.34,5.55
		c0.17,14.68-2.76,35.63-7.97,49.48c-4.12,10.94-2.34,11.11-13.03,13.52c-6.81,1.53-13.91,10.17-15.21,14.96
		c-2.78,10.27,4.43,18.76-9.65,26.31c-8.45,4.83-16.17,2.17-15.21-11.83c1.29-10.06,2.57-20.11,3.86-30.17
		c3.46-10.78,6.92-21.56,10.38-32.34c8.73-20.73-11.39-31.22-19.79-1.21c-3.3,11.91-6.6,23.81-9.9,35.72
		c-0.99,7.29-0.72,3.07-6.03,13.76c-6.5,13.07-4.17,12.13-13.03,21c-4.82,4.82-6.5,7.64-14,8.69c0,0-7.24,0.24-8.69-1.93
		c-10.75-16.12,7.66-48,13.27-67.1c1.92-8.54,9.89-26.63,0-28.96c-11.38-2.68-13.91,8.98-22.69,0.97
		c-3.96-3.61-16.95-4.18-21.72-3.14c-7.96,1.74-21.72,7.48-27.27,13.03c-17.45,17.45-21.27,20.72-30.17,47.31
		c-2.2,6.57-27.03,37.06-39.82,21.72c-14.79-17.73-9.21-16.7-4.83-31.38c6.76-20.51,13.52-41.03,20.27-61.55
		c3.33-9.03,15.21-49.69,15.21-56.48c0-9.14-11.63-14.18-17.38-0.48c-8.59,27.32-17.19,54.43-26.31,81.58
		c-4.1,12.47-8.21,24.94-12.31,37.41c-6.03,18.58-12.07,37.17-18.1,55.75c-4.46,13.52-5.21,27.89-7.97,41.75
		c-0.89,4.5,0.27,20.4,1.93,25.58c3.94,12.28,8.36,17.98,19.55,23.89C75.48,727.76,87.71,716.27,92.27,695.01L92.27,695.01z
		 M64.27,702.01c-8.06,1.16-9.76-11.3-9.9-16.65c-0.6-22.81,2.13-32.98,8.69-55.03c4.73-15.16,7.02,5.05,8.45,11.59
		C74.05,653.6,82.42,699.22,64.27,702.01L64.27,702.01z M155.99,623.81c-3.64-0.45-4.71-0.97-8.21-5.55
		c-6.91-9.05-5.7-15.35-4.34-26.55c0.94-7.71,6.24-18.83,11.1-25.34c8.09-10.83,8.43-9.59,16.89-17.62
		c6.74-6.4,20.84-8.11,26.79-4.35c2.39,1.51,5.27,8.21,5.55,9.9c0.73,4.4-2.14,17.98-3.86,22.45
		c-6.26,11.22-14.93,28.78-24.86,36.93C169.95,617.51,161.08,624.54,155.99,623.81L155.99,623.81z M394.68,627.91
		c-15.68-4.48-13.69-30.74-9.17-41.51c4.6-10.96,11.31-26.79,20.03-34.76c8.2-7.49,15.3-15.91,25.82-9.41
		c5.03,3.11,8.65,13.76,8.21,19.55c-2.31,30.14-9.78,18.26-17.86,36.44c-4.21,9.48,5.92,16.12-12.31,25.58
		C405.96,625.6,397.89,628.98,394.68,627.91L394.68,627.91z M500.16,523.16c-3.74,11.64-11.25-6.24-1.93-10.14
		C505.27,510.08,501.63,519.85,500.16,523.16L500.16,523.16z M621.08,516.65c3.17,0,11.23-4.26,13.03-9.65
		c6.69-20.06-13.48-25.66-22.93-18.34C604.51,493.82,597,516.65,621.08,516.65L621.08,516.65z M743.68,577.71
		c-7.46,0-11.82-5.81-5.07-12.79c7.75-8.02,17.31-16.71,28.48-18.34c25.16-3.67,9.3,22.25-12.07,29.2
		C749.72,577.47,746.58,577.71,743.68,577.71L743.68,577.71z"/>
</g>
</svg>
