<?xml version="1.0" encoding="utf-8"?>
<!-- Generator: Adobe Illustrator 24.3.0, SVG Export Plug-In . SVG Version: 6.00 Build 0)  -->
<svg version="1.1" id="Layer_1" xmlns="http://www.w3.org/2000/svg" xmlns:xlink="http://www.w3.org/1999/xlink" x="0px" y="0px"
	 viewBox="0 0 864 864" style="enable-background:new 0 0 864 864;" xml:space="preserve">
<g>
	<path d="M36.93,209.97c19.57,15.94,39.14,31.89,58.7,47.83c5.24,4.27,11.77-3.75,6.53-8.02c-19.57-15.94-39.14-31.89-58.7-47.83
		C38.22,197.68,31.69,205.7,36.93,209.97L36.93,209.97z M149,105.25c10.25,17.67,20.69,35.36,30.94,53.03
		c-7.1-2.66-17.61-6.29-24.15-9.06c-1.71-0.67-3.67-0.33-5.13,0.77c-1.43,1.08-2.44,2.71-2.24,4.81c0.14,0.19,1.88,22.6,2.06,24.9
		c-14.04-14.45-28.06-29.1-42.19-43.66c-4.54-4.87-13.01,1.54-8.36,6.32c17.56,18.19,35.04,36.27,52.41,54.44
		c2.82,3.05,7.04,3.15,9.13,0.18c1.07-1.33,1.04-2.51,0.86-4.8c-0.87-10.07-1.84-20.05-2.52-30.08c9.64,3.6,19.64,7.45,29.39,10.97
		c3.26,1.34,6.01-0.74,6.97-3.36c0.68-1.38,0.76-3.34-0.38-5.08c-12.75-21.66-25.44-43.7-38.32-65.78
		C154.14,93.07,145.67,99.47,149,105.25L149,105.25z M198.84,71.23c-18.12,7.86-10.98,36.22-4.67,49.72
		c0.17,0.33,0.33,0.66,0.5,0.99c7.79,14.61,24.48,34.01,42.72,26.09c18.49-8.05,11.04-37.03,4.67-50.34
		C234.82,82.65,217.03,63.19,198.84,71.23L198.84,71.23z M232.69,138.66c-4.81,2.72-10.98-0.97-14.81-3.68
		c-6.18-4.61-10.63-11.33-14.15-18.05c-4.39-9.06-11.58-29.84-0.24-36.45c5.05-2.85,11.29,0.97,15.12,3.68
		c6.11,4.49,10.63,11.33,14.22,18.17C237.33,111.02,244.34,132.04,232.69,138.66L232.69,138.66z M307.39,109.98
		c-9.52-5.62-19.13-11.07-28.6-16.56c8.03-8.45,11.32-20.09,6.18-33.34c-6.67-17.69-26.72-16.18-40.51-8.38
		c-0.78,0.27-1.39,0.63-1.82,1.07c-1.08,1.1-1.42,2.24-1.36,3.68c0.01,0.44,0.14,0.83,0.32,1.35c8.26,24,16.42,47.73,24.68,71.73
		c2.11,6.13,11.63,2.85,9.52-3.28c-2.87-8.35-5.7-16.56-8.53-24.78c1-0.49,1.87-0.93,2.82-1.55c10.92,6.3,21.89,12.74,32.94,19
		C308.64,122.09,312.88,113.2,307.39,109.98L307.39,109.98z M252.55,58.69c7.82-3.57,18.71-4.98,23.03,4.62
		c5.75,12.9-0.91,23.21-11.54,28.77C260.18,80.86,256.41,69.91,252.55,58.69L252.55,58.69z M361.11,98.02
		c-11.78-9.59-23.59-19.31-35.53-29c4.93-11.12,10-22.28,14.8-33.37c2.83-6.2-7.16-9.67-9.99-3.47
		c-4.31,10.01-8.68,19.76-13.16,29.66c-1.74-8.65-3.46-17.17-5.2-25.82c-1.33-6.62-11.61-4.55-10.28,2.07
		c4.99,24.74,9.97,49.49,14.96,74.23c1.33,6.62,11.61,4.55,10.28-2.07c-2.04-10.14-4.12-20.42-6.16-30.56
		c-0.1-0.48,0.16-0.78,0.43-0.65c11.29,9.26,22.59,18.52,34.01,27.76C360.65,111.05,366.34,102.31,361.11,98.02L361.11,98.02z
		 M465.21,21.95c-0.16,7.44-0.33,14.75-0.49,22.06c-10.07-0.22-20.13-0.44-30.06-0.66c0.16-7.31,0.32-14.62,0.49-22.06
		c0.15-6.9-10.6-7.13-10.76-0.24c-0.56,25.23-1.12,50.74-1.67,75.98c-0.15,6.9,10.6,7.13,10.75,0.24c0.31-14.2,0.63-28.82,0.95-43.3
		c9.93,0.22,19.99,0.44,30.06,0.66c-0.32,14.48-0.64,29.1-0.95,43.3c-0.15,6.9,10.47,7.13,10.62,0.23
		c0.56-25.23,1.12-50.74,1.67-75.98C475.98,15.29,465.36,15.06,465.21,21.95L465.21,21.95z M542.87,108.11
		c-4.13-26.33-8.24-52.79-12.51-79.14c-0.41-2.72-2.68-4.33-5.01-4.55c-2.04-0.32-4.53,0.41-5.75,2.87
		c-12.08,23.8-24.19,47.74-36.28,71.54c-3.04,6.09,6.6,10.52,9.8,4.32c5.44-10.74,11.04-21.59,16.37-32.49
		c5.72,0.89,11.45,1.78,17.04,2.66c1.89,12.02,3.92,24.06,5.84,35.95C533.39,116.13,544.05,114.86,542.87,108.11L542.87,108.11z
		 M514.53,60.7c2.72-4.88,5.2-10.08,7.64-15c0.96,5.45,1.75,11.16,2.71,16.62C521.48,61.78,518.07,61.25,514.53,60.7L514.53,60.7z
		 M594.12,121.58c-4.05-10.29-8.27-20.49-12.35-30.65c11.53-1.72,21.28-8.87,25.38-22.48c5.63-18.05-11.1-29.2-26.78-31.53
		c-0.78-0.27-1.48-0.36-2.09-0.28c-1.53,0.2-2.5,0.89-3.34,2.06c-0.26,0.35-0.4,0.74-0.58,1.26c-8.26,24-16.42,47.73-24.68,71.73
		c-2.11,6.13,7.41,9.41,9.52,3.28c2.87-8.35,5.7-16.56,8.53-24.78c1.09,0.23,2.05,0.41,3.18,0.51c4.73,11.69,9.41,23.51,14.27,35.25
		C587.65,131.9,596.46,127.49,594.12,121.58L594.12,121.58z M582.44,47.4c8.35,2,17.81,7.59,15.31,17.81
		c-3.4,13.71-15,17.74-26.8,15.57C574.82,69.58,578.59,58.62,582.44,47.4L582.44,47.4z M664.24,104.64
		c5.41-20.55-7-40.44-26.91-46.93c-0.56-0.1-0.94-0.27-1.43-0.18c-1.93-0.41-4.12,0.43-5.13,2.69
		c-9.79,21.91-19.47,43.57-29.27,65.48c-0.28,0.63-0.38,1.19-0.48,1.75c-1.63,2.29-1.6,5.94,1.75,7.58c13,6.41,27.46,9.55,40.9,2.12
		C655.25,130.83,660.94,116.76,664.24,104.64L664.24,104.64z M640.95,127.01c-8.77,7.11-19.98,4.82-29.47,1.03
		c8.84-19.77,17.67-39.54,26.51-59.3c11.92,5.78,19.46,17.31,17.03,31.18C653.35,109.74,648.82,120.56,640.95,127.01L640.95,127.01z
		 M754.5,189.06c3.26-11.46-4.8-23.56-12.12-31.8c-3.71-4.17-5.97-8.56-2.02-13.53c3.14-4.2,9.14-7.1,14.41-5.24
		c3.64,1.23,6.47,4.3,8.69,7.23c1.1,1.27,2.01,2.75,2.74,4.25c0.56,0.83,0.92,1.48,0.58,1.02c2.81,5.03,11.45,1.99,8.99-3.47
		c-4.83-9.94-13.38-18.85-24.97-19.16c-7.75-0.17-16.49,6.01-19.91,12.5c-4.09,7.72-1.79,15.74,3.76,21.79
		c5.8,6.62,12.51,14.72,10.93,24.17c-1.23,5.79-6.55,9.81-12.07,11.49c-7.24,2.23-14.38-2.99-19.16-8.23
		c-1.96-2.17-3.75-4.55-5.34-6.95c-0.67-0.92-2.33-4.1-1.84-2.97c-2.78-5.72-11.59-2.46-8.84,2.87
		c7.15,14.92,21.97,29.23,39.57,23.6C746.28,204.11,752.21,197.2,754.5,189.06L754.5,189.06z M822.75,188.51
		c-11.6-15.99-37.74-2.87-49.55,6.22c-0.28,0.23-0.57,0.46-0.86,0.7c-12.57,10.78-27.9,31.27-16.21,47.36
		c11.86,16.31,38.54,2.76,50.16-6.35C819.4,226.1,834.55,204.51,822.75,188.51L822.75,188.51z M764.26,236.16
		c-3.7-4.1-1.43-10.93,0.38-15.25c3.17-7.03,8.76-12.83,14.56-17.73c7.89-6.25,26.62-17.77,35.53-8.14
		c3.87,4.32,1.5,11.23-0.31,15.55c-3.06,6.94-8.76,12.83-14.66,17.82C792.25,234.7,773.25,246.09,764.26,236.16L764.26,236.16z"/>
	<path d="M81.29,704.37c13.68-23.4,27.46-46.9,41.04-70.41c1.42-2.41,0.67-5.13-1.02-6.81c-1.41-1.57-3.84-2.59-6.38-1.44
		c-24.83,10.98-49.76,22.06-74.59,33.05c-6.31,2.84-1.57,12.53,4.94,9.7c11.19-4.96,22.59-9.91,33.79-15.07
		c3.94,4.38,7.87,8.77,11.72,13.05c-6.24,10.69-12.38,21.49-18.51,32.09C68.66,704.58,77.88,710.44,81.29,704.37L81.29,704.37z
		 M89.44,648.78c5.28-2.1,10.58-4.6,15.67-6.91c-2.75,4.92-5.8,9.92-8.55,14.84C94.22,654.1,91.88,651.49,89.44,648.78L89.44,648.78
		z M199.5,751.85c0.86-8.87-3.5-16.5-9.87-22.74c5.82-1.68,10.85-5.83,14.11-12.72c6.74-14.14-7.41-25.67-19.21-30.32
		c-2.49-1.04-4.4-0.08-5.43,1.59c-0.27,0.16-0.41,0.4-0.56,0.64c-13.11,21.25-26.3,42.62-39.41,63.88c-1.92,3.1,0.19,6.38,2.69,7.93
		c11.27,7.12,24.3,15.65,38.3,14.07C190.36,773.08,198.64,761.53,199.5,751.85L199.5,751.85z M188.81,700.25
		c3.99,2.62,7.76,6.93,5.41,12.07c-4.02,8.4-12.19,8.8-19.64,6.18c-0.48-0.29-1.15-0.54-1.75-0.91c4.05-6.57,8.1-13.14,12.15-19.7
		C186.37,698.58,187.81,699.47,188.81,700.25L188.81,700.25z M177.62,764.07c-8.51,1.51-19.16-5.55-26.89-10.65
		c5.52-8.95,10.97-17.79,16.43-26.62c2.3,0.85,5.45,2.65,7.39,4.06c6.37,4.1,12.99,9.67,14.51,17.36
		C190.34,754.93,184.09,762.94,177.62,764.07L177.62,764.07z M243.69,802.78c-9.86-4.42-19.59-8.78-29.32-13.14
		c4.42-9.86,8.84-19.72,13.31-29.7c6.27,2.81,12.55,5.62,18.95,8.49c5.76,2.58,9.89-6.64,4.13-9.22c-6.4-2.87-12.67-5.68-18.95-8.49
		c3.16-7.04,6.43-14.34,9.7-21.63c9.09,4.08,18.31,8.21,27.4,12.28c5.5,2.47,9.58-6.62,4.07-9.09c-10.75-4.82-21.63-9.7-32.39-14.52
		c-3.97-1.78-6.23,2.59-7.44,5.27c-9.81,21.89-19.69,43.91-29.56,65.93c-0.23,0.51-0.4,0.9-0.45,1.34
		c-0.85,2.23-0.34,5.23,2.34,6.43c11.39,5.11,22.66,10.16,34.05,15.27C245.45,814.63,249.58,805.42,243.69,802.78L243.69,802.78z
		 M339.16,749.89c-16.51-3.97-33.01-7.94-49.38-11.87c-6.68-1.61-9.14,8.62-2.46,10.23c6.55,1.57,13.09,3.15,19.37,4.66
		c-5.51,22.92-11.05,45.97-16.56,68.88c-1.61,6.68,8.9,9.21,10.5,2.53c5.51-22.92,11.05-45.97,16.56-68.88
		c6.41,1.54,12.96,3.12,19.51,4.69C343.52,761.76,345.98,751.53,339.16,749.89L339.16,749.89z M412.67,760.53
		c-16.88-1.82-33.76-3.64-50.49-5.44c-6.83-0.74-7.96,9.73-1.13,10.46c6.7,0.72,13.39,1.44,19.81,2.13
		c-2.52,23.43-5.06,47.01-7.59,70.44c-0.74,6.83,10,7.99,10.74,1.16c2.52-23.43,5.06-47.01,7.59-70.44
		c6.56,0.71,13.25,1.43,19.95,2.15C418.51,771.74,419.64,761.28,412.67,760.53L412.67,760.53z M474.27,836.57
		c-10.8,0.35-21.45,0.69-32.11,1.04c-0.35-10.8-0.7-21.59-1.05-32.53c6.87-0.22,13.74-0.44,20.75-0.67c6.31-0.2,5.98-10.3-0.33-10.1
		c-7.01,0.23-13.88,0.45-20.75,0.67c-0.25-7.71-0.51-15.7-0.77-23.7c9.96-0.32,20.05-0.65,30.01-0.97
		c6.03-0.19,5.71-10.15-0.32-9.96c-11.78,0.38-23.7,0.77-35.48,1.15c-4.35,0.14-4.47,5.06-4.37,8c0.77,23.98,1.55,48.09,2.33,72.21
		c0.02,0.56,0.03,0.98,0.19,1.4c0.22,2.38,1.98,4.85,4.92,4.75c12.48-0.4,24.82-0.8,37.3-1.21
		C481.05,846.46,480.72,836.36,474.27,836.57L474.27,836.57z M545.6,827.18c-8.45-7.42-17.02-14.68-25.45-21.96
		c9.63-6.93,15.11-17.93,12.48-32.15c-3.32-18.94-23.65-21.23-38.91-16.03c-0.83,0.12-1.51,0.36-2.02,0.72
		c-1.29,0.9-1.84,1.97-2.06,3.42c-0.08,0.44-0.02,0.85,0.06,1.41c3.72,25.55,7.39,50.81,11.11,76.36
		c0.95,6.52,11.08,5.05,10.14-1.47c-1.29-8.89-2.56-17.63-3.84-26.38c1.09-0.3,2.04-0.58,3.11-1.02
		c9.72,8.37,19.47,16.87,29.33,25.22C544.56,839.53,550.47,831.44,545.6,827.18L545.6,827.18z M500.49,765.55
		c8.49-2.08,19.64-1.44,22.14,8.97c3.31,13.98-5.3,23.03-16.98,26.57C503.92,789.16,502.22,777.49,500.49,765.55L500.49,765.55z
		 M658.82,786.08c-10.92,4.8-21.71,9.53-32.37,14.22c-9.59-21.84-19.18-43.67-28.89-65.77c-2.71-6.17-12.47-1.88-9.76,4.29
		c10.21,23.25,20.31,46.24,30.52,69.49c0.23,0.51,0.39,0.9,0.69,1.23c1.14,2.26,3.7,3.89,6.65,2.59
		c12.46-5.47,24.92-10.95,37.38-16.42C669.22,793,664.99,783.37,658.82,786.08L658.82,786.08z M647.5,711.97
		c12.66,22.33,25.31,44.67,37.97,67.01c3.39,5.98,12.54,0.79,9.16-5.19c-12.66-22.34-25.32-44.67-37.97-67.01
		C653.27,700.8,644.11,705.99,647.5,711.97L647.5,711.97z M702.51,670.17c-9.94,7.56-20.1,15.28-30.16,22.92
		c-1.23,0.93-1.89,2.14-2.05,3.33c-0.19,1.38,0.04,2.61,0.98,3.84c15.54,20.44,31.07,40.88,46.52,61.21
		c3.99,5.25,12.25-1.03,8.27-6.28c-7.47-9.83-14.94-19.66-22.41-29.49c5.47-4.16,10.95-8.32,16.42-12.48
		c5.36-4.07-0.92-12.34-6.28-8.27c-5.47,4.16-10.95,8.32-16.42,12.48c-4.84-6.37-9.76-12.84-14.69-19.32
		c8.71-6.62,17.31-13.16,26.02-19.78C713.95,674.33,707.76,666.18,702.51,670.17L702.51,670.17z M799.65,686.1
		c-7.62,7.66-15.13,15.22-22.65,22.79c-7.66-7.62-15.32-15.23-23.08-22.95c4.85-4.87,9.69-9.75,14.64-14.73
		c4.45-4.48-2.72-11.6-7.16-7.12c-4.95,4.97-9.79,9.85-14.64,14.73c-5.47-5.44-11.14-11.08-16.81-16.72
		c7.02-7.06,14.14-14.23,21.17-21.29c4.25-4.28-2.81-11.3-7.06-7.02c-8.31,8.36-16.72,16.81-25.02,25.17
		c-3.07,3.08,0.22,6.74,2.31,8.82c17.02,16.91,34.13,33.92,51.24,50.94c0.4,0.39,0.7,0.69,1.09,0.89c1.79,1.58,4.77,2.17,6.84,0.08
		c8.8-8.86,17.51-17.61,26.31-26.47C811.36,688.65,804.2,681.53,799.65,686.1L799.65,686.1z"/>
	<path d="M243.41,599.03c-19.71-2.94-38,7.68-42.23,27.77c-2.56,12.16-2.43,26.1,4.35,36.85c7.81,12.67,23.42,15.48,37.23,15.1
		c6.14-0.26,6.14-9.85,0-9.6c-11.13,0.38-23.29-1.15-29.68-11.26c-5.12-8.32-4.35-19.45-2.69-28.53c1.79-9.98,7.81-17.15,17.4-19.96
		c3.07-0.9,6.14-1.28,9.34-1.28c1.15,0,2.3,0,3.45,0.13C248.37,608.24,248.73,599.8,243.41,599.03L243.41,599.03z M306.87,672.86
		c-7.55-23.54-15.1-47.22-22.78-70.76c-0.77-2.43-3.07-3.58-5.25-3.45c-1.92,0-4.1,1.02-4.86,3.45
		c-7.68,23.54-15.36,47.22-23.03,70.76c-1.92,6.01,7.55,8.7,9.6,2.56c3.46-10.62,7.04-21.37,10.37-32.12c5.37,0,10.75,0,15.99,0
		c3.45,10.75,7.04,21.5,10.49,32.12C299.33,681.56,308.92,678.87,306.87,672.86L306.87,672.86z M274.12,633.45
		c1.79-4.86,3.33-9.98,4.86-14.84c1.66,4.86,3.2,9.98,4.86,14.84C280.64,633.45,277.44,633.45,274.12,633.45L274.12,633.45z
		 M363.56,673.63c0-23.54,0-46.96,0-70.51c0-6.14-9.6-6.14-9.6,0c0,17.66,0,35.32,0,52.98c-10.49-18.43-20.98-36.85-31.48-55.15
		c-0.9-1.54-2.17-2.3-3.45-2.43c-2.69-0.51-5.89,1.02-5.89,4.61c0,23.67,0,47.22,0,70.89c0,6.27,9.6,6.27,9.6,0
		c0-17.79,0-35.57,0-53.49c10.49,18.43,21.11,36.98,31.61,55.41c1.28,2.18,3.45,3.84,5.89,2.82
		C362.79,677.85,363.56,675.93,363.56,673.63L363.56,673.63z M458.12,603.38c0,6.91,0,13.69,0,20.47c-9.34,0-18.68,0-27.9,0
		c0-6.78,0-13.56,0-20.47c0-6.4-9.98-6.4-9.98,0c0,23.42,0,47.09,0,70.51c0,6.4,9.98,6.4,9.98,0c0-13.18,0-26.74,0-40.18
		c9.21,0,18.55,0,27.9,0c0,13.44,0,27,0,40.18c0,6.4,9.85,6.4,9.85,0c0-23.42,0-47.09,0-70.51
		C467.97,596.98,458.12,596.98,458.12,603.38L458.12,603.38z M531.57,672.86c-7.55-23.54-15.1-47.22-22.78-70.76
		c-0.77-2.43-3.07-3.58-5.25-3.45c-1.92,0-4.1,1.02-4.86,3.45c-7.68,23.54-15.36,47.22-23.03,70.76c-1.92,6.01,7.55,8.7,9.6,2.56
		c3.46-10.62,7.04-21.37,10.37-32.12c5.37,0,10.75,0,15.99,0c3.45,10.75,7.04,21.5,10.49,32.12
		C524.02,681.56,533.62,678.87,531.57,672.86L531.57,672.86z M498.81,633.45c1.79-4.86,3.33-9.98,4.86-14.84
		c1.66,4.86,3.2,9.98,4.86,14.84C505.34,633.45,502.14,633.45,498.81,633.45L498.81,633.45z M583.9,602.61
		c-6.01,18.55-12.16,37.36-18.17,55.92c-6.01-18.55-12.16-37.36-18.04-55.92c-2.05-6.01-11.39-3.45-9.47,2.56
		c7.55,23.16,14.97,46.45,22.52,69.74c0.77,2.43,2.94,3.46,4.99,3.33c1.92,0.13,4.09-0.9,4.99-3.33
		c7.55-23.29,15.1-46.58,22.65-69.74C595.29,599.16,585.95,596.6,583.9,602.61L583.9,602.61z M638.67,669.66c-9.85,0-19.58,0-29.3,0
		c0-9.85,0-19.7,0-29.69c6.27,0,12.54,0,18.94,0c5.76,0,5.76-9.21,0-9.21c-6.4,0-12.67,0-18.94,0c0-7.04,0-14.33,0-21.63
		c9.09,0,18.3,0,27.38,0c5.5,0,5.5-9.09,0-9.09c-10.75,0-21.63,0-32.37,0c-3.97,0-4.22,4.48-4.22,7.17c0,21.88,0,43.89,0,65.9
		c0,0.51,0,0.9,0.13,1.28c0.13,2.18,1.66,4.48,4.35,4.48c11.39,0,22.65,0,34.04,0C644.56,678.87,644.56,669.66,638.67,669.66
		L638.67,669.66z"/>
	<path d="M254.98,237.49c126.53-28.79,164.32,88.14,86.23,208.32c-32.42,49.9-83.96,96.85-136.79,108.88
		c-50.79,11.56-86.49-14.53-67.43-48.48c0.86-0.19,24.55,4.94,35.9,2.35c-1.46-3.05-2.19-6.12-2.19-9.2
		c0-29.34,41.39-150.78,65.32-183.35c4.53-6.16,8.1-6.43,13.78-7.72c4.12-0.94,38.66-7.71,37.52-3.28
		c-11.91,21.51-28.85,57.39-50.81,107.57c-15.8,37.65-27.8,67.83-35.9,90.34c15.1-3.44,42.09-19.48,57.05-30.58
		c43.8-32.51,96.6-99.53,96.6-152.43c0-88.6-166.3-44.65-215.32,75.48c-11.26-2.32-17.18-12.25-17.83-29.85
		c0-19.4,8.1-39.36,24.23-59.95C175.4,269.96,211.95,247.28,254.98,237.49L254.98,237.49z M474.85,279.08
		c17.22-3.92,44.08-1.02,55.51,13.98c11.89,15.59,6.01,47.21-0.24,68.77c1.01-0.23,8.48,0.44,17.32-2.28
		c14.02-41.32,46.64-93.1,85.76-114.56c12.76-7,27.27-13.65,36.3,1.21c11.35-12.39,25.69-18.76,40.84-13.28
		c-7.7,19.49-15.56,43.24-23.5,70.98c-15.96,61.37-27.96,105.68-36.06,133.08c32.04,5.31,72.69,25.21,72.69,59.46
		c0,9.85-3.48,20.04-10.45,30.57l-0.24,0.05c-13.83-17.59-42.58-40.06-63.7-49.18c-4.54-2.35-7.94-3.76-10.13-4.23v0.15
		c-8.43,26.2-16.86,45.86-25.45,59.09c-18.07,28.1-38.74,44.75-62.24,50.1c-58.68,13.36-76.31-40.23-37.04-96.44
		c22.54-31.73,59.37-49.02,98.55-51.45l6.65-24.22c-3.45,0.77-11.3,23.03-64.59,14.48c-15.06-3.15-15.75-24.83-13.9-39.07
		c-6.97,3.34-14.18,5-21.19,5.63c-15.56,37.9-38.66,60.37-69.37,67.37c-33.53,7.63-67.42-5.59-67.42-43.44
		C382.95,367.36,430.39,289.2,474.85,279.08L474.85,279.08z M429.71,398.37c0,19.76,10.34,30.43,24.23,27.26
		c12.48-2.84,33.47-34.92,33.47-36.64c-26.38-6.12-7.46-43.48,8.35-47.08c3.98-0.91,1.82,3.5,8.51,9.26
		c3.36-12.68,9.31-41.86-3.57-49.63c-8.25-4.98-22.92,3.72-30.87,10.34C447.66,330.3,429.71,371.5,429.71,398.37L429.71,398.37z
		 M584.33,391.96c0,41.28,50.85-39.41,59.56-67.92l10.7-36.79c0-18.66-20.16-3.44-26.09,1.96
		C602.9,312.46,584.33,364.01,584.33,391.96L584.33,391.96z M532.55,532.38c0,16.27,5.36,28.1,18.96,25
		c23.06-5.25,43.6-62.92,52.51-92.1c-36.56-3.31-59.91,9.09-69.61,51.48C533.2,522.39,532.55,527.57,532.55,532.38L532.55,532.38z"
		/>
	<path d="M452.59,154.65c-6.14,10.13-12.43,19.95-18.88,29.77c-6.14-9.82-12.43-19.64-18.57-29.77c-0.92-1.23-2-1.99-3.22-2.3
		c-3.53-1.53-8.44,0.15-8.44,5.06c0,28.39,0,56.48,0,85.02c0,7.52,11.82,7.52,11.82,0c0-21.79,0-43.43,0-65.23
		c4.45,7.06,8.75,13.97,13.2,20.87c1.07,1.53,3.38,3.07,5.22,3.07c2.92,0,4.3-1.54,5.52-3.07c4.45-6.91,8.75-13.81,13.05-20.87
		c0,21.79,0,43.43,0,65.23c0,7.52,11.82,7.52,11.82,0c0-28.55,0-56.63,0-85.02C464.1,151.42,455.05,149.89,452.59,154.65
		L452.59,154.65z M519.04,155.57c-5.83,11.05-11.05,23.33-16.73,34.22c-5.83-10.9-11.97-23.17-17.65-34.22
		c-3.68-6.6-13.81-0.61-10.28,5.99c7.21,13.97,14.27,27.93,21.64,41.59c0.15,0.31,0.46,0.77,0.61,1.07c0,12.58,0,25.02,0,37.6
		c0,7.67,11.82,7.67,11.82,0c0-13.35,0-24.4,0-37.75c6.91-13.2,13.97-29.01,20.72-42.51C532.86,154.95,522.57,148.97,519.04,155.57
		L519.04,155.57z"/>
</g>
</svg>
