<?xml version="1.0" encoding="utf-8"?>
<!-- Generator: Adobe Illustrator 24.3.0, SVG Export Plug-In . SVG Version: 6.00 Build 0)  -->
<svg version="1.1" id="Layer_1" xmlns="http://www.w3.org/2000/svg" xmlns:xlink="http://www.w3.org/1999/xlink" x="0px" y="0px"
	 viewBox="0 0 864 864" style="enable-background:new 0 0 864 864;" xml:space="preserve">
<g>
	<path d="M36.93,210.97c19.57,15.94,39.14,31.89,58.7,47.83c5.24,4.27,11.77-3.75,6.53-8.02c-19.57-15.94-39.14-31.89-58.7-47.83
		C38.22,198.68,31.69,206.7,36.93,210.97L36.93,210.97z M149,106.25c10.25,17.67,20.69,35.36,30.94,53.03
		c-7.1-2.66-17.46-6.52-24.15-9.06c-1.71-0.67-3.67-0.33-5.13,0.77c-1.43,1.08-2.44,2.71-2.24,4.81c0.14,0.19,1.88,22.6,2.06,24.9
		c-14.04-14.45-28.06-29.1-42.19-43.66c-4.54-4.87-13.01,1.54-8.36,6.32c17.56,18.19,35.04,36.27,52.41,54.44
		c2.82,3.05,7.04,3.15,9.13,0.18c1.07-1.33,1.04-2.51,0.86-4.8c-0.87-10.07-1.84-20.05-2.52-30.08c9.64,3.6,19.64,7.45,29.39,10.97
		c3.26,1.34,6.01-0.74,6.97-3.36c0.68-1.38,0.76-3.34-0.38-5.08c-12.75-21.66-25.44-43.7-38.32-65.78
		C154.14,94.07,145.67,100.47,149,106.25L149,106.25z M198.84,72.23c-18.12,7.86-10.98,36.22-4.67,49.72
		c0.17,0.33,0.33,0.66,0.5,0.99c7.8,14.61,24.48,34.01,42.72,26.09c18.49-8.05,11.04-37.03,4.67-50.34
		C234.82,83.65,217.03,64.19,198.84,72.23L198.84,72.23z M232.69,139.66c-4.81,2.72-10.98-0.97-14.81-3.68
		c-6.18-4.61-10.63-11.33-14.15-18.05c-4.39-9.06-11.58-29.84-0.24-36.45c5.05-2.85,11.29,0.97,15.12,3.68
		c6.11,4.49,10.63,11.33,14.22,18.17C237.33,112.02,244.34,133.04,232.69,139.66L232.69,139.66z M307.39,110.98
		c-9.52-5.62-19.12-11.07-28.6-16.56c8.03-8.45,11.32-20.09,6.18-33.34c-6.67-17.69-26.72-16.18-40.51-8.38
		c-0.78,0.27-1.39,0.63-1.82,1.07c-1.08,1.1-1.42,2.24-1.36,3.68c0.01,0.44,0.14,0.83,0.32,1.35c8.26,24,16.42,47.73,24.68,71.73
		c2.11,6.13,11.63,2.86,9.52-3.28c-2.87-8.35-5.7-16.56-8.53-24.78c1-0.49,1.87-0.93,2.82-1.55c10.92,6.31,21.89,12.74,32.94,19
		C308.64,123.09,312.88,114.2,307.39,110.98L307.39,110.98z M252.55,59.69c7.82-3.57,18.71-4.98,23.03,4.62
		c5.75,12.9-0.91,23.21-11.54,28.77C260.18,81.86,256.41,70.91,252.55,59.69L252.55,59.69z M361.11,99.02
		c-11.78-9.59-23.59-19.31-35.53-29c4.93-11.12,10-22.28,14.8-33.37c2.83-6.2-7.16-9.67-9.99-3.47
		c-4.31,10.01-8.68,19.76-13.16,29.66c-1.74-8.65-3.46-17.17-5.2-25.82c-1.33-6.62-11.61-4.55-10.28,2.07
		c4.99,24.74,9.97,49.49,14.96,74.23c1.33,6.62,11.61,4.55,10.28-2.07c-2.04-10.14-4.12-20.42-6.16-30.56
		c-0.17-0.57,0.1-0.85,0.43-0.65c11.29,9.26,22.59,18.52,34.01,27.76C360.65,112.05,366.34,103.31,361.11,99.02L361.11,99.02z
		 M465.21,22.95c-0.16,7.44-0.33,14.75-0.49,22.06c-10.07-0.22-20.13-0.44-30.06-0.66c0.16-7.31,0.32-14.62,0.49-22.06
		c0.15-6.9-10.6-7.13-10.76-0.24c-0.56,25.23-1.12,50.74-1.67,75.98c-0.15,6.9,10.6,7.13,10.75,0.24c0.31-14.2,0.63-28.82,0.95-43.3
		c9.93,0.22,19.99,0.44,30.06,0.66c-0.32,14.48-0.64,29.1-0.95,43.3c-0.15,6.9,10.47,7.13,10.62,0.23
		c0.56-25.23,1.12-50.74,1.67-75.98C475.98,16.29,465.36,16.06,465.21,22.95L465.21,22.95z M542.87,109.11
		c-4.13-26.33-8.24-52.79-12.51-79.14c-0.41-2.72-2.68-4.33-5.01-4.55c-2.04-0.32-4.53,0.41-5.75,2.87
		c-12.08,23.8-24.19,47.74-36.28,71.54c-3.04,6.09,6.6,10.52,9.8,4.32c5.44-10.74,11.04-21.59,16.37-32.49
		c5.72,0.89,11.45,1.79,17.04,2.66c1.89,12.02,3.92,24.06,5.84,35.95C533.39,117.12,544.05,115.86,542.87,109.11L542.87,109.11z
		 M514.53,61.7c2.72-4.88,5.2-10.08,7.64-15c0.96,5.45,1.75,11.16,2.72,16.62C521.48,62.78,518.07,62.25,514.53,61.7L514.53,61.7z
		 M594.11,122.58c-4.05-10.29-8.26-20.49-12.35-30.65c11.53-1.72,21.28-8.87,25.38-22.48c5.63-18.05-11.1-29.2-26.78-31.53
		c-0.78-0.27-1.48-0.36-2.09-0.28c-1.53,0.2-2.5,0.89-3.34,2.06c-0.26,0.35-0.4,0.74-0.58,1.26c-8.26,24-16.42,47.73-24.68,71.73
		c-2.11,6.13,7.41,9.41,9.52,3.28c2.87-8.35,5.7-16.56,8.53-24.78c1.09,0.23,2.05,0.41,3.18,0.51c4.73,11.69,9.41,23.51,14.27,35.25
		C587.65,132.9,596.46,128.49,594.11,122.58L594.11,122.58z M582.44,48.4c8.35,2,17.81,7.59,15.31,17.81
		c-3.4,13.71-15,17.74-26.8,15.57C574.81,70.58,578.58,59.62,582.44,48.4L582.44,48.4z M664.24,105.64
		c5.41-20.55-7-40.44-26.91-46.93c-0.56-0.1-0.94-0.27-1.43-0.18c-1.93-0.41-4.12,0.43-5.13,2.69
		c-9.79,21.91-19.47,43.57-29.27,65.48c-0.28,0.63-0.38,1.19-0.48,1.75c-1.63,2.29-1.6,5.94,1.75,7.58c13,6.41,27.46,9.55,40.9,2.12
		C655.25,131.83,660.94,117.76,664.24,105.64L664.24,105.64z M640.95,128.01c-8.77,7.11-19.98,4.82-29.47,1.03
		c8.84-19.77,17.67-39.54,26.51-59.3c11.92,5.78,19.45,17.31,17.03,31.18C653.35,110.74,648.82,121.56,640.95,128.01L640.95,128.01z
		 M754.5,190.06c3.26-11.46-4.8-23.56-12.12-31.8c-3.71-4.17-5.97-8.56-2.02-13.53c3.14-4.2,9.14-7.1,14.41-5.24
		c3.64,1.23,6.47,4.3,8.69,7.23c1.08,1.26,3.84,5.98,3.32,5.28c2.81,5.03,11.45,1.99,8.99-3.47c-4.83-9.94-13.38-18.85-24.97-19.16
		c-7.75-0.17-16.49,6.01-19.91,12.5c-4.09,7.72-1.79,15.74,3.76,21.79c5.8,6.62,12.51,14.72,10.93,24.17
		c-1.23,5.79-6.55,9.81-12.07,11.49c-7.24,2.23-14.38-2.99-19.16-8.23c-1.96-2.17-3.75-4.55-5.34-6.95
		c-0.67-0.92-2.33-4.1-1.84-2.97c-2.78-5.72-11.59-2.46-8.84,2.87c7.14,14.92,21.97,29.23,39.57,23.6
		C746.28,205.11,752.21,198.2,754.5,190.06L754.5,190.06z M822.75,189.51c-11.6-15.99-37.74-2.87-49.55,6.21
		c-0.28,0.23-0.57,0.46-0.86,0.7c-12.57,10.78-27.9,31.27-16.21,47.36c11.86,16.31,38.54,2.76,50.16-6.35
		C819.4,227.1,834.55,205.51,822.75,189.51L822.75,189.51z M764.26,237.16c-3.7-4.1-1.43-10.93,0.38-15.25
		c3.17-7.03,8.76-12.83,14.55-17.73c7.89-6.25,26.62-17.77,35.53-8.14c3.87,4.32,1.5,11.23-0.31,15.55
		c-3.06,6.94-8.76,12.83-14.66,17.82C792.25,235.7,773.25,247.09,764.26,237.16L764.26,237.16z"/>
	<path d="M81.29,705.37c13.68-23.4,27.46-46.9,41.04-70.41c1.42-2.41,0.67-5.13-1.02-6.81c-1.41-1.57-3.83-2.59-6.38-1.44
		c-24.83,10.98-49.76,22.06-74.59,33.05c-6.31,2.84-1.57,12.53,4.94,9.7c11.19-4.96,22.59-9.91,33.79-15.07
		c3.94,4.38,7.87,8.77,11.72,13.05c-6.24,10.69-12.38,21.49-18.51,32.09C68.66,705.58,77.88,711.44,81.29,705.37L81.29,705.37z
		 M89.44,649.78c5.28-2.1,10.58-4.6,15.67-6.91c-2.75,4.92-5.8,9.92-8.55,14.84C94.22,655.1,91.88,652.49,89.44,649.78L89.44,649.78
		z M199.5,752.85c0.86-8.87-3.5-16.5-9.87-22.74c5.82-1.68,10.85-5.83,14.11-12.72c6.74-14.14-7.41-25.67-19.21-30.32
		c-2.49-1.04-4.4-0.08-5.43,1.59c-0.27,0.16-0.41,0.4-0.56,0.64c-13.11,21.25-26.3,42.62-39.41,63.88c-1.92,3.1,0.19,6.38,2.69,7.93
		c11.27,7.12,24.3,15.65,38.3,14.07C190.36,774.08,198.64,762.53,199.5,752.85L199.5,752.85z M188.81,701.25
		c3.99,2.62,7.76,6.93,5.41,12.07c-4.02,8.4-12.19,8.8-19.64,6.18c-0.48-0.29-1.15-0.54-1.75-0.91c4.05-6.57,8.1-13.14,12.15-19.7
		C186.37,699.58,187.81,700.46,188.81,701.25L188.81,701.25z M177.62,765.06c-8.51,1.51-19.16-5.55-26.89-10.65
		c5.52-8.95,10.97-17.79,16.43-26.62c2.3,0.85,5.45,2.65,7.39,4.06c6.37,4.1,12.99,9.67,14.51,17.36
		C190.34,755.93,184.08,763.94,177.62,765.06L177.62,765.06z M243.69,803.78c-9.86-4.42-19.59-8.78-29.32-13.14
		c4.42-9.86,8.84-19.72,13.31-29.7c6.27,2.81,12.55,5.62,18.95,8.49c5.76,2.58,9.89-6.64,4.13-9.22c-6.4-2.87-12.67-5.68-18.95-8.49
		c3.16-7.04,6.43-14.34,9.7-21.63c9.09,4.08,18.31,8.21,27.4,12.28c5.5,2.47,9.58-6.62,4.07-9.09c-10.75-4.82-21.63-9.7-32.39-14.52
		c-3.97-1.78-6.23,2.59-7.44,5.27c-9.81,21.89-19.69,43.91-29.56,65.93c-0.23,0.51-0.4,0.9-0.45,1.34
		c-0.85,2.23-0.34,5.23,2.34,6.43c11.39,5.11,22.66,10.16,34.05,15.27C245.45,815.63,249.58,806.42,243.69,803.78L243.69,803.78z
		 M339.16,750.89c-16.51-3.97-33.01-7.94-49.38-11.87c-6.68-1.61-9.14,8.62-2.46,10.23c6.55,1.57,13.09,3.15,19.37,4.66
		c-5.51,22.92-11.05,45.97-16.56,68.88c-1.61,6.68,8.9,9.21,10.5,2.53c5.51-22.92,11.05-45.97,16.56-68.88
		c6.41,1.54,12.96,3.12,19.51,4.69C343.52,762.76,345.98,752.53,339.16,750.89L339.16,750.89z M412.67,761.53
		c-16.88-1.82-33.76-3.64-50.49-5.44c-6.83-0.74-7.96,9.73-1.13,10.46c6.7,0.72,13.39,1.44,19.81,2.13
		c-2.52,23.43-5.06,47.01-7.59,70.44c-0.74,6.83,10,7.99,10.74,1.16c2.52-23.43,5.06-47.01,7.59-70.44
		c6.56,0.71,13.25,1.43,19.95,2.15C418.51,772.74,419.64,762.28,412.67,761.53L412.67,761.53z M474.27,837.57
		c-10.8,0.35-21.45,0.69-32.11,1.04c-0.35-10.8-0.7-21.59-1.05-32.53c6.87-0.22,13.74-0.44,20.75-0.67c6.31-0.2,5.98-10.3-0.33-10.1
		c-7.01,0.23-13.88,0.45-20.75,0.67c-0.25-7.71-0.51-15.7-0.77-23.7c9.96-0.32,20.05-0.65,30.01-0.97
		c6.03-0.19,5.71-10.15-0.32-9.96c-11.78,0.38-23.7,0.77-35.48,1.15c-4.35,0.14-4.47,5.06-4.37,8c0.77,23.98,1.55,48.09,2.33,72.21
		c0.02,0.56,0.03,0.98,0.19,1.4c0.22,2.38,1.98,4.85,4.92,4.75c12.48-0.4,24.82-0.8,37.3-1.21
		C481.05,847.46,480.72,837.36,474.27,837.57L474.27,837.57z M545.6,828.18c-8.45-7.42-17.02-14.68-25.45-21.96
		c9.63-6.93,15.11-17.93,12.48-32.15c-3.32-18.94-23.64-21.23-38.91-16.03c-0.83,0.12-1.51,0.36-2.02,0.72
		c-1.29,0.9-1.84,1.97-2.06,3.42c-0.08,0.44-0.02,0.85,0.06,1.41c3.72,25.55,7.39,50.81,11.11,76.36
		c0.95,6.52,11.08,5.05,10.14-1.47c-1.29-8.89-2.56-17.63-3.84-26.38c1.09-0.3,2.04-0.58,3.11-1.02
		c9.72,8.37,19.47,16.87,29.33,25.22C544.56,840.53,550.47,832.43,545.6,828.18L545.6,828.18z M500.49,766.55
		c8.49-2.08,19.64-1.44,22.14,8.97c3.31,13.98-5.3,23.03-16.98,26.57C503.92,790.15,502.22,778.49,500.49,766.55L500.49,766.55z
		 M658.82,787.08c-10.92,4.8-21.71,9.53-32.37,14.22c-9.59-21.84-19.18-43.67-28.89-65.77c-2.71-6.17-12.47-1.88-9.76,4.29
		c10.21,23.25,20.31,46.24,30.52,69.49c0.23,0.51,0.39,0.9,0.69,1.23c1.14,2.26,3.7,3.89,6.65,2.59
		c12.46-5.47,24.92-10.95,37.38-16.42C669.22,794,664.99,784.37,658.82,787.08L658.82,787.08z M647.5,712.97
		c12.66,22.33,25.31,44.67,37.97,67.01c3.39,5.98,12.54,0.79,9.16-5.19c-12.66-22.34-25.32-44.67-37.97-67.01
		C653.26,701.8,644.11,706.99,647.5,712.97L647.5,712.97z M702.51,671.17c-9.94,7.56-20.11,15.28-30.16,22.92
		c-1.23,0.93-1.89,2.14-2.05,3.33c-0.19,1.38,0.04,2.61,0.98,3.84c15.53,20.44,31.07,40.88,46.52,61.21
		c3.99,5.25,12.25-1.03,8.26-6.28c-7.47-9.83-14.94-19.66-22.41-29.49c5.47-4.16,10.95-8.32,16.42-12.48
		c5.36-4.07-0.92-12.34-6.28-8.26c-5.47,4.16-10.95,8.32-16.42,12.48c-4.84-6.37-9.76-12.84-14.69-19.32
		c8.71-6.62,17.31-13.16,26.02-19.78C713.95,675.33,707.76,667.18,702.51,671.17L702.51,671.17z M799.64,687.1
		c-7.62,7.66-15.13,15.22-22.65,22.79c-7.66-7.62-15.32-15.23-23.08-22.95c4.85-4.87,9.69-9.75,14.64-14.73
		c4.45-4.48-2.71-11.6-7.16-7.12c-4.95,4.98-9.79,9.85-14.64,14.73c-5.47-5.44-11.14-11.08-16.81-16.72
		c7.02-7.06,14.14-14.23,21.17-21.29c4.25-4.28-2.81-11.3-7.06-7.02c-8.31,8.36-16.72,16.81-25.02,25.17
		c-3.07,3.08,0.22,6.75,2.31,8.82c17.02,16.91,34.13,33.92,51.24,50.94c0.4,0.39,0.7,0.69,1.09,0.89c1.79,1.58,4.77,2.17,6.84,0.08
		c8.8-8.86,17.51-17.61,26.31-26.47C811.36,689.65,804.19,682.53,799.64,687.1L799.64,687.1z"/>
	<path d="M243.41,608.08c-19.71-2.94-38,7.68-42.23,27.77c-2.56,12.16-2.43,26.1,4.35,36.85c7.81,12.67,23.42,15.48,37.23,15.1
		c6.14-0.26,6.14-9.85,0-9.6c-11.13,0.38-23.29-1.15-29.68-11.26c-5.12-8.32-4.35-19.45-2.69-28.53c1.79-9.98,7.81-17.15,17.4-19.96
		c3.07-0.9,6.14-1.28,9.34-1.28c1.15,0,2.3,0,3.45,0.13C248.37,617.29,248.73,608.85,243.41,608.08L243.41,608.08z M306.87,681.91
		c-7.55-23.54-15.1-47.22-22.78-70.76c-0.77-2.43-3.07-3.58-5.25-3.45c-1.92,0-4.1,1.02-4.86,3.45
		c-7.68,23.54-15.36,47.22-23.03,70.76c-1.92,6.01,7.55,8.7,9.6,2.56c3.46-10.62,7.04-21.37,10.37-32.12c5.37,0,10.75,0,15.99,0
		c3.45,10.75,7.04,21.5,10.49,32.12C299.32,690.61,308.92,687.92,306.87,681.91L306.87,681.91z M274.12,642.5
		c1.79-4.86,3.33-9.98,4.86-14.84c1.66,4.86,3.2,9.98,4.86,14.84C280.64,642.5,277.44,642.5,274.12,642.5L274.12,642.5z
		 M363.56,682.68c0-23.54,0-46.96,0-70.51c0-6.14-9.6-6.14-9.6,0c0,17.66,0,35.32,0,52.98c-10.49-18.43-20.98-36.85-31.48-55.15
		c-0.9-1.54-2.17-2.3-3.45-2.43c-2.69-0.51-5.89,1.02-5.89,4.61c0,23.67,0,47.22,0,70.89c0,6.27,9.6,6.27,9.6,0
		c0-17.79,0-35.57,0-53.49c10.49,18.43,21.11,36.98,31.61,55.41c1.28,2.18,3.45,3.84,5.89,2.82
		C362.79,686.9,363.56,684.98,363.56,682.68L363.56,682.68z M458.12,612.43c0,6.91,0,13.69,0,20.47c-9.34,0-18.68,0-27.9,0
		c0-6.78,0-13.56,0-20.47c0-6.4-9.98-6.4-9.98,0c0,23.42,0,47.09,0,70.51c0,6.4,9.98,6.4,9.98,0c0-13.18,0-26.74,0-40.18
		c9.21,0,18.55,0,27.9,0c0,13.44,0,27,0,40.18c0,6.4,9.85,6.4,9.85,0c0-23.42,0-47.09,0-70.51
		C467.97,606.03,458.12,606.03,458.12,612.43L458.12,612.43z M531.57,681.91c-7.55-23.54-15.1-47.22-22.78-70.76
		c-0.77-2.43-3.07-3.58-5.25-3.45c-1.92,0-4.1,1.02-4.86,3.45c-7.68,23.54-15.36,47.22-23.03,70.76c-1.92,6.01,7.55,8.7,9.6,2.56
		c3.46-10.62,7.04-21.37,10.37-32.12c5.37,0,10.75,0,15.99,0c3.45,10.75,7.04,21.5,10.49,32.12
		C524.02,690.61,533.62,687.92,531.57,681.91L531.57,681.91z M498.81,642.5c1.79-4.86,3.33-9.98,4.86-14.84
		c1.66,4.86,3.2,9.98,4.86,14.84C505.34,642.5,502.14,642.5,498.81,642.5L498.81,642.5z M583.9,611.66
		c-6.01,18.55-12.16,37.36-18.17,55.92c-6.01-18.55-12.16-37.36-18.04-55.92c-2.05-6.01-11.39-3.45-9.47,2.56
		c7.55,23.16,14.97,46.45,22.52,69.74c0.77,2.43,2.94,3.46,4.99,3.33c1.92,0.13,4.09-0.9,4.99-3.33
		c7.55-23.29,15.1-46.58,22.65-69.74C595.29,608.21,585.95,605.65,583.9,611.66L583.9,611.66z M638.67,678.71
		c-9.85,0-19.58,0-29.3,0c0-9.85,0-19.7,0-29.69c6.27,0,12.54,0,18.94,0c5.76,0,5.76-9.21,0-9.21c-6.4,0-12.67,0-18.94,0
		c0-7.04,0-14.33,0-21.63c9.09,0,18.3,0,27.38,0c5.5,0,5.5-9.09,0-9.09c-10.75,0-21.63,0-32.37,0c-3.97,0-4.22,4.48-4.22,7.17
		c0,21.88,0,43.89,0,65.9c0,0.51,0,0.9,0.13,1.28c0.13,2.18,1.66,4.48,4.35,4.48c11.39,0,22.65,0,34.04,0
		C644.55,687.92,644.55,678.71,638.67,678.71L638.67,678.71z"/>
	<path d="M452.59,155.65c-6.14,10.13-12.43,19.95-18.88,29.77c-6.14-9.82-12.43-19.64-18.57-29.77c-0.92-1.23-2-2-3.22-2.3
		c-3.53-1.53-8.44,0.15-8.44,5.06c0,28.39,0,56.48,0,85.02c0,7.52,11.82,7.52,11.82,0c0-21.79,0-43.43,0-65.23
		c4.45,7.06,8.75,13.97,13.2,20.87c1.07,1.53,3.38,3.07,5.22,3.07c2.92,0,4.3-1.54,5.52-3.07c4.45-6.91,8.75-13.81,13.05-20.87
		c0,21.79,0,43.43,0,65.23c0,7.52,11.82,7.52,11.82,0c0-28.55,0-56.63,0-85.02C464.1,152.42,455.04,150.89,452.59,155.65
		L452.59,155.65z M519.04,156.57c-5.83,11.05-11.05,23.33-16.73,34.22c-5.83-10.9-11.97-23.17-17.65-34.22
		c-3.68-6.6-13.81-0.61-10.28,5.99c7.21,13.97,14.27,27.93,21.64,41.59c0.15,0.31,0.46,0.77,0.61,1.07c0,12.58,0,25.02,0,37.6
		c0,7.67,11.82,7.67,11.82,0c0-13.35,0-24.4,0-37.75c6.91-13.2,13.97-29.01,20.72-42.51C532.85,155.95,522.57,149.97,519.04,156.57
		L519.04,156.57z"/>
	<path d="M212.21,227.49c114.87-15.14,147.7,103.34,77.79,211.39c-29.1,44.97-75.56,85.57-123.41,91.89
		c-45.89,6.06-78.01-22.99-60.82-54.03l0.22-0.03c0.04,0,22.28,7.29,32.17,5.99c-1.32-3.12-1.97-6.17-1.97-9.17
		c0-27.68,36.74-141.56,58.93-171.62c4.1-5.55,7.36-5.43,12.43-6.1c3.82-0.51,34.92-3.54,33.85,0.65
		c-10.75,19.7-26.03,52.86-45.84,99.41c-14.26,35-25.08,63.12-32.39,84.19c13.59-1.8,37.95-14.62,51.47-23.91
		c41.95-28.81,87.14-88.86,87.14-138.35c0-86.22-150.05-60.34-194.25,51.39c-10.16-3.41-15.5-13.67-16.08-30.85
		c0-18.86,7.31-37.45,21.86-55.82C140.41,250.94,173.39,232.62,212.21,227.49L212.21,227.49z M410.55,290.41
		c17.18-2.27,40.14,4.1,50.08,19.26c10.56,16.13,5.65,45.66-0.22,66.85c1.72-0.23,8.1,1.13,15.59-0.39
		c12.91-40.35,43.4-86.44,77.4-102.69c5.85-2.89,10.82-4.65,14.77-5.17c7.89-1.04,13.71,1.99,17.99,10.05
		c10.59-11.27,23.54-15.43,36.85-8.74c-6.95,18.17-14.04,40.45-21.2,66.62c-14.4,58.05-25.22,99.91-32.53,125.73
		c42.62,12.44,84.85,50.39,56.15,93.91l-0.22,0.03c-12.19-18.08-38.04-43.11-57.46-54.33c-4.09-2.75-7.16-4.46-9.14-5.15v0.15
		c-7.6,24.62-15.21,42.87-22.96,54.86c-16.3,25.48-34.95,39.56-56.15,42.36c-27.66,3.65-52.42-10.73-52.42-43.37
		c0-17.76,6.36-35.79,19.01-54.2c20.49-28.77,53.84-41.58,88.9-39.96l6-22.87c-1.08,0.14-7.5,9.98-23.32,12.07
		c-6.58,0.87-18.2-0.67-34.95-4.6c-9.26-3.12-13.23-14.67-13.23-28.44c0-3.46,0.25-7.12,0.72-10.93
		c-5.53,2.14-11.89,3.39-19.15,3.27c-14.04,35.26-34.87,54.76-62.58,58.42c-32.62,4.31-60.83-14.41-60.83-49.14
		c0-35.23,23.31-84.53,54.17-109.36C392.42,296.24,402,291.54,410.55,290.41L410.55,290.41z M369.83,401.79
		c0,18.28,8.7,30.72,21.86,28.99c11.28-1.49,30.19-30.54,30.19-32.21c-23.81-8.65-6.71-43.06,7.53-44.93
		c3.55-0.47,1.72,3.67,7.68,9.88c3.24-12.85,8.22-39.88-3.22-48.63c-7.33-5.61-20.42,1.08-27.85,6.9
		C385.15,338.11,369.83,377.03,369.83,401.79L369.83,401.79z M509.32,411.37c0,40.05,45.81-32.91,53.73-59.95l9.65-34.69
		c0-22.95-29.04,0.97-38.38,16.62C519.82,357.63,509.32,389.18,509.32,411.37L509.32,411.37z M462.6,542.62
		c0,15.02,4.43,27.93,17.11,26.25c21.09-2.79,39.77-58.25,47.37-84.19c-33.02-6.97-54.05,2.74-62.8,42.95
		C463.19,532.97,462.6,537.95,462.6,542.62L462.6,542.62z M701.45,246.57c76.95-10.17,51.62,73.09,16.23,77.76
		c-14.19,1.87-21.64-14.27-21.64-15.78c21.86-12.03,32.82-20.57,32.82-25.76c0-4.07-9.89-5.35-18.2-4.25
		c-17.76,2.35-51.83,25.83-51.83,44.57c0,15.32,20.19,12.8,40.43,25.95c37.02,24.06,22.51,78.39-33.85,85.84
		c-40.67,5.37-52.95-25.14-32.53-47.76c8.65-9.58,20.57-9.67,31.29,0.4c-25.09,29.66,32.53,20.01,32.53,2.72
		c0-7.68-12.72-14.92-38.09-21.73C589.83,348.26,628.49,256.21,701.45,246.57L701.45,246.57z"/>
</g>
</svg>
