<?xml version="1.0" encoding="utf-8"?>
<!-- Generator: Adobe Illustrator 24.3.0, SVG Export Plug-In . SVG Version: 6.00 Build 0)  -->
<svg version="1.1" id="Layer_1" xmlns="http://www.w3.org/2000/svg" xmlns:xlink="http://www.w3.org/1999/xlink" x="0px" y="0px"
	 viewBox="0 0 864 864" style="enable-background:new 0 0 864 864;" xml:space="preserve">
<style type="text/css">
	.st0{fill-rule:evenodd;clip-rule:evenodd;}
</style>
<g>
	<path class="st0" d="M205.29,492.06h74.59c1.56,0,2.63,1.28,2.37,2.84l-2.39,14.59c-0.26,1.56-1.74,2.84-3.31,2.84h-74.59
		c-1.56,0-2.63-1.28-2.37-2.84l2.39-14.59C202.24,493.34,203.73,492.06,205.29,492.06L205.29,492.06z M551.49,492.06h74.59
		c1.56,0,2.63,1.28,2.37,2.84l-2.39,14.59c-0.26,1.56-1.74,2.84-3.31,2.84h-74.59c-1.56,0-2.63-1.28-2.37-2.84l2.39-14.59
		C548.44,493.34,549.93,492.06,551.49,492.06L551.49,492.06z"/>
	<path d="M343.14,647.85c-4.75-28.07-12.8-56.93-42.3-68.87c-16.37-10.17-53.33-7.95-76.71,7.74
		c-14.35,6.08-24.03,18.78-34.09,29.73c-17.76,22.4-20.22,41.06-20.22,67.86c0,20.75,13.69,36.58,28.29,49.86
		c3.94,2.98,14.56,9.54,14.56,10.93c0,2.23-4.5,12.93-5.33,16.9c-1.11,3.44-1.95,4.63-2.23,4.65c-2.5,0.23-17.58-16.78-31.12-15.56
		c-28.29,2.55-44.99,36.84-28.06,54.23c2.23,2.58,4.73,5.14,7.79,6.53c29.68,15.14,53.33-11.76,55.84-11.98
		c1.8,0.14,13.85,6.02,17.9,7.34c17.81,6.51,32.56,3.52,50.36-6.2c20.78-12.17,28.01-23.11,38.26-38.23
		c11.19-16.53,16.14-33.39,20.36-49.14c4.3-13.11,8.65-37.48,7.23-45.82C343.7,662.4,342.56,651.41,343.14,647.85L343.14,647.85z
		 M317.08,680.3c0,23.61-9.15,44.03-17.53,63.12c-11.41,17.17-16.7,27.1-34.78,36.24c-18.37,9.17-22.26,4.51-31.72,2.3
		c-2.23-0.63-4.73-1.53-8.07-2.89c-0.45-0.18-0.9-0.36-0.56-1.06c1.13-2.93,2.82-7.01,4.17-9.84c11.69-24.7-2.78-12.55,28.66-20.67
		c7.51-1.51,9.46-3.36,15.58-6.97c13.91-8.21,11.97-9.98,8.07-15.2c-4.73-7.09-3.9-11.94-7.79-11.59c-3.06,0.28-3.9,2.62-8.63,6.11
		c-12.52,7.25-21.43,5.55-22.54,5.37c0.83-2.3,5.01-17.19,6.12-20.63l17.81-72.1c0.56-4.5,5.01-14.69-0.83-15
		c-10.02-0.21-13.36-0.19-13.91-0.14c-13.91,1.25-24.77,86.12-32.32,99.6c-2.23-1.75-4.17-3.8-6.4-5.82
		c-28.43-18.87-22.63-67.9,2.78-88.6c1.95-2.4,12.85-11.17,15.91-12.84c33.67-18.29,69.01-12.05,80.69,22.28
		C317.07,644.9,317.08,666.95,317.08,680.3L317.08,680.3z M167.89,791.67c-4.17-2.13-3.62-6.07-3.62-7.19
		c0.83-11.44,13.87-10.11,21.38-3.32c3.85,2.44,4.96,3.73,5.52,3.96l-4.41,4.01C182.59,793.13,171.78,793.54,167.89,791.67
		L167.89,791.67z M414.42,762.57c17.53-11.32,20.87-29.7,30.05-76.49c2.91-5.22,6.96-32.41,6.96-40.46
		c-1.11-12.14-4.17-16.83-12.8-23.8c-14.38-9.41-33.27-7.9-47.26,1.75c-16.1,11.75-18.05,24.25-22.41,44.17
		c-3.87,13.9-9.27,34.96-12.1,49.37c-1.49,4.49-3.15,15.97-3.62,20.92C353.25,773.76,392.59,780.2,414.42,762.57L414.42,762.57z
		 M380.52,743.64c-3.82-4.12,2.1-24.48,3.34-31.19c0-5.84,8.07-32.77,8.07-38.34c1.95-12.14,2.5-9.41,5.29-19.72
		c4.35-10.23,6.93-16.55,20.54-14.37c5.29,1.19,6.96,8.56,7.79,14.05c-0.28,1.97-9.03,49.9-11.83,61.89
		c-2.49,10.93-2.92,20.22-8.44,26.28C399.97,749.82,386.11,751.06,380.52,743.64L380.52,743.64z M549.05,623.85
		c0,0-12.52-18.63-29.17-16.02c-20.04,0.7-33.93,7.88-44.15,31.52c-4.63,12.76-6.03,26.52-8.63,39.73
		c-4.17,17.63-4.45,22.38-6.96,30.12c-1.39,9.31-10.02,35.59,11.41,47.62c8.74,4.97,13.91,4.04,20.59,3.43
		c14.16-1.27,21.23-4.86,31.91-13.45c9.42-10.26,12-22.32,15.58-35.03c2.78-8.88,1.67-12.67,2.78-16.67
		c0.83-4.53-0.56-6.07-4.45-5.44c-24.49,2.2-16.97,2.08-26.43,2.94c-3.06-0.84-6.68,1.16-6.96,4.52c-1.39,7.92,0.83-5.08-2.74,17.78
		c3.43,3.8,5.75-0.55,11.64,2.29c-0.83,10.88-6.96,22.79-20.54,20.4c-18.6-1.34-9.97-10.46-1.9-55.11
		c1.89-9.22,5.16-30.81,10.53-39.35c2.78-8.04,7.23-11.78,15.81-10.61c5.57,0.33,8.63,2.56,9.97,6.89
		c2.08,6.93-1.59,20.7-3.01,28.65c-1.11,4.83-0.28,5.87,4.73,5.7c5.58-0.5,11.58-1.6,17.48-2.13c2.78-3.59,3.34-7.54,3.9-10.92
		C553.3,648.1,555.96,635.67,549.05,623.85L549.05,623.85z M582.21,752.81c13.63,2.39,30.28-3,40.58-15.39
		c4.17-5.38,7.51-6.8,9.74-19.52c1.67-11.57,1.35-20.13-5.01-30.16c-6.52-11.73-12.99-14.98-17.81-23.44
		c-6.4-6.66-8.07-10.96-9.41-16.4c-2.85-5.43-2.38-11.53,0-16.97c1.95-6.3,13.91-13.77,21.43-6.94c2.5,1.44,3.62,3.57,3.62,7.19
		c-1.11,12.9-3.06,11.13-5.57,18.59c0,3.13,14.48,10.38,16.42,10.21c2.5-0.23,5.84-3.86,8.63-8.57c9.66-15.94,5.33-28.08,2.78-35.31
		c-5.92-15.61-19.31-20.52-35.06-19.11c-20.36,1.72-30.97,14.1-35.9,25.77c-4.68,15.88-4.33,20.7-2.23,31.64
		c2.78,7.82,10.85,20.17,15.03,23.97c2.61,2.38,16.15,19.96,16.65,21.6c3.62,6.07,3.06,14.47,0.83,18.01
		c-2.23,9.66-15.35,14.74-22.86,7.9c-5.57-3.95-3.94-9.11-1.99-16.24c1.72-6,3.66-8.12,3.66-10.07c0-2.5-6.17-5.01-7.23-6.03
		c-4.45-2.94-7.51-4.61-8.58-4.52c-9.14,0.82-15.26,23.36-15.26,33.37c0.56,9.13,4.45,16.85,8.02,20.7
		C567.47,748.01,578.87,752.27,582.21,752.81L582.21,752.81z"/>
	<path d="M349.92,76.78c-1.31-14.44-19.98-27.76-35.17-28.47c-11.13-0.53-16.68-0.8-27.99,2.87c-10.48,3.49-32.1,14.69-36.85,25.36
		c-0.72,0.72-2.39,5.5-9.81,5.5c-1.2,0-2.15,0.24-3.35,0.24c-5.54,0-26.8,4.35-30.86,6.22c-9,3.64-17.21,10.96-21.21,19.86
		c-1.48,2.23-2.56,5.74-3.35,8.37c-2.59,8.85-2.35,12.2,0.96,22.01c0.81,1.63,1.3,3.42,2.39,4.79c3.59,5.02,8.57,0.72,15.95-4.31
		c3.59-2.39,4.31-4.07,3.35-7.9c-2.01,0-2-8.11-1.91-9.09c2.87-11.48,9.57-11.48,19.62-15.55c2.65-1.14,11.95-2.64,14.36-2.87
		c1.44-0.24,1.67,0,1.2,1.91c0,2.1-0.54,5.32-0.96,7.42c3.11,21.29,7.18,18.42,0.48,20.82c-3.6,1.8-7.43,3.04-10.77,5.26
		c-21.73,13.24-28.5,32.34-29.67,54.71c-0.94,18.08,4.44,37.93,18.9,50.33c9,8.18,22.97,11.96,34.93,11.96
		c10.22,0,22.95-3.39,26.08-5.26c0.48-0.48,25.36-11.72,29.43-42.87c2.15-13.51,0.38-27.89-9.81-38.08
		c-9.76-9.67-21.12-11.88-34.45-9.73c-14.36,2.15-30.15,15.91-30.15,20.22c0,3.35,4.07,10.05,6.94,15.35
		c1.2,1.44,2.63,1.44,4.07-0.24c0.96-0.72,1.68-1.67,1.91-2.63c5.74-7.94,8.37-7.46,11.72-9.61c1.44,0,12.44-8.81,22.25-0.24
		c5.5,4.79,5.98,7.7,7.18,19.42c0.32,2.3-2.7,13.95-5.02,17.51c-5.44,10.96-16.44,13.92-27.75,13.92
		c-5.98-0.48-9.09-0.96-15.07-4.07c-13.16-8.85-14.36-13.68-16.75-29.75c-0.96-13.42,2.89-25.98,11.72-36.29
		c4.55-4.55,11.25-8.61,15.07-9.81c2.93-1.03,14.68-1.67,18.66-1.67c9.57,0,8.85-8.13,9.81-10.29c3.59-12-5.74-9.61-12.44-22.97
		c-0.48-2.15-0.72-4.27-0.72-7.14c-0.24-3.07-0.48-3.07,2.15-1.87c11.98,4.79,24.33,14.71,37.8,14.71
		c10.96,2.99,23.86-4.46,31.82-11.41C349.2,101.5,350.87,81.6,349.92,76.78L349.92,76.78z M326.23,95.04
		c-5.78,6.83-11.63,10.74-21.77,8.89c-5.26-0.96-13.16-3.87-17.71-6.5c-6.46-3.83-18.42-6.74-16.75-9.85
		c2.15-2.63,4.07-5.26,6.46-7.18c5.74-7.22,19.38-11.76,29.43-11.76c12.02,0,23.12,3.29,23.69,17.51
		C330.06,88.78,328.62,92.17,326.23,95.04L326.23,95.04z M393.94,192.46v-49.29c0-1.2-0.72-20.54,0-26.52l-0.24-8.85
		c-0.48-5.74-1.67-6.94-7.9-7.42h-6.46c-1.91,0-5.98-1.2-8.37,0.48c-3.11,2.15-5.11,9.72-7.18,14.83
		c-2.06,5.96-9.69,21.91-12.44,29.63c-4.45,9.78-9.06,23.92-13.64,32.3c-4.31,10.29-3.35,8.85-5.26,12.2
		c-2.35,3.43-12.59,28.91-13.16,28.91c-0.24,1.2-4.79,8.61,1.91,9.09c1.67,0.24,5.74,0.24,8.61,0.72c5.5,0.48,8.37-0.24,11.25-7.18
		l2.87-7.02c1.54-4.48,3.74-11.55,5.85-15.76c2.07-8.03,7.79-5.77,17.84-5.77c3.59-0.24,5.26,1.44,5.26,5.02
		c0,4.92,1.33,19.31,0.48,22.73c-1.35,10.96,8.14,8.38,15.07,8.13c3.35-0.24,5.5-2.15,5.5-5.5c0-0.16,0-3.51,0.24-9.01
		C394.18,214.2,393.22,196.73,393.94,192.46L393.94,192.46z M372.41,169.37c0,4.07-2.87,2.63-8.85,2.63
		c-0.48-0.24-1.2-0.96-0.96-1.2c0.48-1.2,0.96-2.15,1.2-3.35c2.15-4.31,0.96-1.44,8.13-19.38
		C371.93,154.3,373.13,158.37,372.41,169.37L372.41,169.37z M430.55,229.47c11.72,3.11,26.04-0.24,34.89-10.09
		c3.59-4.31,6.46-5.26,8.37-16.03c1.48-10.15,1.03-17.43-4.31-26.32c-5.42-10.24-11.16-13.86-15.31-21.53
		c-6.54-7.39-12.54-19.66-8.1-29.43c1.67-5.26,11.96-10.77,18.42-4.31c2.15,1.44,3.11,3.35,3.11,6.46
		c-0.96,11.01-2.63,9.33-4.79,15.55c0,2.61,12.43,10.05,14.12,10.05c2.15,0,5.02-2.87,7.42-6.7c9.28-15.19,4.28-23.9,2.39-30.15
		c-4.98-13.58-16.22-19.14-30.15-19.14c-16.53,0.58-22.58,6.96-30.87,19.38c-3.95,8.94-4.24,14.75-1.91,27.04
		c2.39,6.94,9.33,18.18,12.92,21.77c2.31,2.31,13.85,18.3,14.32,19.86c3.11,5.5,2.63,12.68,0.72,15.55
		c-1.91,8.14-13.2,11.48-19.66,5.02c-4.79-3.83-3.39-8.14-1.71-14.12c1.48-5.02,3.15-6.7,3.15-8.37c0-2.15-5.3-4.79-6.22-5.74
		c-3.83-2.87-6.46-4.55-7.38-4.55c-7.86,0-13.12,18.9-13.12,27.52c0.48,7.9,3.83,14.83,6.9,18.42
		C417.87,224.2,427.68,228.75,430.55,229.47L430.55,229.47z M499.22,228.43c9.09,0,8.37-0.72,10.49-15.31
		c2.63-11.25,3.83-14.83,4.79-21.06c0-3.59,7.42-35.45,8.13-38.8c1.56-11.52,5.61-24.37,7.66-35.65c0.48-3.35,0.96-6.46,2.39-10.53
		c1.2-3.59,0.48-6.46-3.35-6.7c-16.03,0-16.75-3.11-18.66,6.46c-0.48,2.87-1.63,7.18-1.87,9.33c-2.16,14.57-7.58,29.74-9.33,43.79
		c-3.11,18.94-7.18,30.43-10.77,51.72c-1.68,6.46-1.91,6.7-2.15,8.61C485.1,227.71,497.06,228.43,499.22,228.43L499.22,228.43z
		 M555.48,228.71c1.2,0,8.37-0.24,9.81-0.48c9.05,0,15.03,0.72,21.02,0.24c1.2-0.48,2.63-1.67,2.63-2.87
		c0.48-2.15,0.96-4.31,1.2-6.7c1.67-6.7,1.2-4.07,1.67-6.46c0.24-2.39-1.67-5.5-7.42-4.31c-11.8,0-14.44-0.96-18.5-0.24
		c-10.77,0-9.57,1.91-8.14-5.26c0.42-4.29,6.05-30.35,7.42-34.45c2.81-16.04,7.56-32.94,10.77-48.57
		c0.93-4.97,1.35-11.01,2.39-15.55c1.2-4.31-3.11-4.55-3.11-4.55h-12.2c-5.26,0.15-5.75,3.24-6.7,7.9
		c-7.06,33.78-13.69,66.37-21.45,100.01c-0.96,5.45-1.73,10.85-2.63,16.27C530.16,233.02,544.28,228.71,555.48,228.71L555.48,228.71
		z M625.67,229.67c5.98,0,5.98-0.96,7.7-9.09c1.67-4.55,0.48-8.14,3.35-18.66c10.05-50.01-1.2-22.25,44.26-91.4l2.87-5.02
		c1.44-2.63-0.24-5.26-3.35-5.26c-3.59,0-7.42-0.96-10.77-0.24c-4.55,0-4.07-0.24-6.7,1.67l-1.67,3.11
		c-7.06,10.67-14.2,21.42-21.29,32.06l-1.2,0.72c-0.48-0.48-3.35-11.01-3.83-14.36c-2.15-12.68-1.91-5.5-4.35-17.71
		c-1.44-5.5-1.67-5.26-11.48-5.74c-5.5,0-2.63-0.24-6.46-0.24c-8.13,0-4.31,8.61-3.59,11.48c5.98,23.45,5.74,26.56,7.42,31.58
		c3.11,9.09,1.44,8.85,4.31,17.71c0.96,3.11,2.39,7.18,1.44,10.05c-1.2,5.02-2.63,8.61-2.63,12.2c-3.83,19.62-2.15,12.68-4.79,23.21
		c-1.68,3.59-1.44,6.7-3.11,12.68c-2.15,10.77-1.68,8.85,8.13,10.77L625.67,229.67L625.67,229.67z"/>
	<path d="M74.04,401.65c28.06,0,48.73-40.2,50.76-64.32c2.71-13.76,2.88-36.54-5.74-48.29c-12.48-17.94-24.92-16.51-43.83-16.51
		c-3.83-0.72-8.14-0.48-11.72,1.67c-2.15,1.2-1.67,3.83-2.39,6.94c-7.27,28.82-11.27,58.94-18.42,87.49
		c-1.56,9.21-4.19,18.11-5.5,27.28c-1.2,6.46,2.87,5.26,16.75,5.26C58.93,401.88,69,401.65,74.04,401.65L74.04,401.65z
		 M62.56,380.35c-0.72,0,16.51-81.27,16.51-81.27c1.44-5.5,1.91-5.98,7.66-4.79c18.66,2.39,20.1,16.23,18.18,34.65
		c0,0-0.96,7.9-3.35,16.27c-3.83,15.31-7.9,21.49-14.6,28.19C79.48,379.9,72.27,381.63,62.56,380.35L62.56,380.35z M143.99,400.93
		c9.09,0,8.37-0.72,10.49-15.31c4.65-19.88,8.64-39.86,12.92-59.86c0.78-5.81,3.19-13.55,3.59-17.94c1.06-6.27,4.23-21.9,6.46-28.23
		c1.2-3.59,0.48-6.46-3.35-6.7c-16.03,0-16.75-3.11-18.66,6.46c-1.99,11.97-5.69,24.59-7.62,36.13
		c-3.96,20.31-11.07,49.18-14.36,68.71c-1.67,6.46-1.91,6.7-2.15,8.61C129.87,400.21,141.84,400.93,143.99,400.93L143.99,400.93z
		 M199.98,401.97c11.72,3.11,26.04-0.24,34.89-10.09c8.27-9.93,11.6-18.64,8.14-31.82c-2.39-7.96-5.68-16.68-11.72-22.73
		c-8.46-8.46-16.55-19.5-17.43-31.82c-0.24-2.15,0.48-4.31,1.67-6.94c1.67-5.26,11.96-10.77,18.42-4.31
		c2.15,1.44,3.11,3.35,3.11,6.46c-0.96,11.01-2.63,9.33-4.79,15.55c0,2.61,12.43,10.05,14.12,10.05c2.15,0,5.02-2.87,7.42-6.7
		c9.28-15.19,4.41-23.19,2.39-30.15c-4.98-13.58-16.22-19.14-30.15-19.14c-13.6-1.3-26.33,9.96-30.86,19.38
		c-4.1,13.52-3.71,15.95-1.91,27.04c2.39,6.94,9.33,18.18,12.92,21.77c2.31,2.31,13.85,18.3,14.32,19.86
		c3.11,5.5,2.63,12.68,0.72,15.55c-1.91,8.14-13.2,11.48-19.66,5.02c-4.79-3.83-3.39-8.14-1.71-14.12c1.48-5.02,3.15-6.7,3.15-8.37
		c0-2.15-5.3-4.79-6.22-5.74c-3.83-2.87-6.46-4.55-7.38-4.55c-7.86,0-13.12,18.9-13.12,27.52c0.48,7.9,3.83,14.83,6.9,18.42
		C187.3,396.7,197.11,401.25,199.98,401.97L199.98,401.97z M337.79,273.2c-13.97-0.71-27.74,0.24-41.87,0.24
		c-5.35,0-10.68,0-16.03,0c-7.28,0-6.95-0.95-11.01,16.51c-0.48,6.7,6.22,3.83,10.53,4.55c6.22,0.48,11.96,0,11.96,0.48
		c0.48,0.48-18.42,86.85-18.42,86.85c-2.15,17.47-8.13,19.14,5.02,19.14c0.96-0.24,1.91-0.24,5.26-0.24
		c5.74,0.48,8.13-0.24,8.61-6.7c5.43-21.02,8.99-48.65,14.36-69.63c0.99-4.97,4.31-21.7,5.5-24.88c0-0.72,0.24-0.72,1.2-3.35
		c0.48-0.96,0.72-1.2,1.2-1.44c4.18,0,8.57,0.73,12.92,0c6.94,0,9.33,0.48,10.77-4.31c0.24-0.96,0.48-1.67,0.48-2.63
		c1.2-3.83,1.2-6.46,2.15-10.77C340.66,275.12,339.71,273.68,337.79,273.2L337.79,273.2z M333.96,401.21h7.18
		c10.53,0,10.53,4.31,14.59-22.49l2.15-9.33c0-1.2,0-1.44,0.24-1.44c0.48,0.72,0.96-0.48,3.11,4.07
		c0.71,2.12,9.93,14.94,11.72,17.47c4.31,5.5,5.26,11.48,11.25,11.01c11.48,0,5.26,0.24,13.4,0.24c3.88,0.63,5.29-2.51,4.07-4.55
		c-1.67-2.87-3.35-3.83-5.02-7.42c-3.9-5.47-16.67-21.77-17.71-24.88c1.75-1.75,4.64-1.07,10.77-4.31
		c8.37-4.31,13.16-6.7,18.66-16.51c0,0,5.98-7.66,8.61-18.66c2.05-8.2,3.7-17.24,0.72-25.6c-3.35-9.81-12.44-18.42-15.55-20.34
		c-5.02-3.11-13.64-5.26-19.38-5.26c-15.31,0-22.73-1.2-25.84,0.96c-2.39,1.44-1.91,5.98-2.63,7.9c-0.72,5.02-4.55,18.18-6.46,29.91
		c-6.7,39.72-6.22,26.32-11.25,55.99c-2.87,11.72,0,0.72-5.98,28.95C330.38,399.06,331.81,401.21,333.96,401.21L333.96,401.21z
		 M364.59,342.59c-0.96,0-0.72-0.96-0.72-2.63c0-6.81,5.57-25.69,7.42-34.93c2.87-11.25,1.67-11.01,5.26-11.01
		c7.42-0.48,11.72,0.96,16.75,7.18c5.84,7.62,4.92,17.23,1.44,25.6c-0.43,1.11-7.67,11.64-9.09,12.2
		C376.79,343.55,373.44,342.59,364.59,342.59L364.59,342.59z M489.73,364.96v-49.29c0-1.2-0.72-20.54,0-26.52l-0.24-8.85
		c-0.48-5.74-1.67-6.94-7.9-7.42h-6.46c-1.91,0-5.98-1.2-8.37,0.48c-3.11,2.15-5.02,10.53-7.18,14.83
		c-0.97,4.38-7.37,16.88-9.81,22.25c-5.37,15.04-14.76,35.94-21.53,51.88c-2.35,3.43-12.59,28.91-13.16,28.91
		c-0.24,1.2-4.79,8.61,1.91,9.09c1.68,0.24,5.74,0.24,8.61,0.72c5.5,0.48,8.37-0.24,11.25-7.18c2.75-7.29,5.61-15.38,9.09-22.33
		c2.49-8.4,7.42-6.22,17.47-6.22c3.59-0.24,5.26,1.44,5.26,5.02c0,5.8,1.53,18.54,0.48,22.73c-1.35,10.96,8.14,8.38,15.07,8.13
		c3.35-0.24,5.5-2.15,5.5-5.5c0-0.16,0-3.51,0.24-9.01C489.96,386.69,489.01,369.23,489.73,364.96L489.73,364.96z M468.19,341.87
		c0,4.07-2.87,2.63-8.85,2.63c-0.48-0.24-1.2-0.96-0.96-1.2c3.04-7.59,6.28-15.1,9.33-22.73
		C467.71,326.8,468.91,330.87,468.19,341.87L468.19,341.87z M588.06,292.82c-2.59-8.64-10.73-15.76-18.66-19.14
		c-9.51-3.4-21.27-2.16-30.15,2.15c-2.63,2.63-12.44,5.74-17.43,20.58c-5.58,14.51-9.47,41.33-12.84,58.62
		c-0.96,6.7-6.22,25.12,0.96,34.21c5.07,11.82,20.56,12.44,31.22,12.44c13.64,0,17.71-4.55,25.84-12.68
		c10.53-12.68,9.33-24.17,10.53-28.71c1.91-5.02-6.7-2.87-13.88-4.07c-7.71-2.01-8.21,7.99-11.01,15.31
		c-2.53,7.59-7.18,12.98-16.03,10.77c-9.57-1.44-9.81-5.02-8.61-12.68c1.2-7.9,1.2-8.13,1.68-9.33c0.72-4.31,2.87-10.29,5.74-27.04
		c0.24-0.96,1.67-6.22,7.18-28.47c1.44-8.61,7.66-14.12,16.51-12.2c3.35,0.48,5.74,2.87,7.42,6.94c3.35,7.18-3.59,18.9,2.15,18.9
		c1.12,0.08,9.57,0.9,9.57,0.96c7.18,0,7.9,1.2,9.57-6.22C588.87,306,589.57,302.61,588.06,292.82L588.06,292.82z M668.46,273.2
		c-18.9-0.96-7.66-0.24-14.6-0.24c-3.35,0.48-16.27,0-16.51,0c-2.15,0-6.7,0.48-10.77,0.48c-5.35,0-10.68,0-16.03,0
		c-7.28,0-6.95-0.95-11.01,16.51c-0.48,6.7,6.22,3.83,10.53,4.55c6.22,0.48,11.96,0,11.96,0.48c0.48,0.48-18.42,86.85-18.42,86.85
		c-2.15,17.47-8.14,19.14,5.02,19.14c0.96-0.24,1.91-0.24,5.26-0.24c5.74,0.48,8.13-0.24,8.61-6.7
		c4.96-21.93,9.74-48.35,14.36-69.63c0.99-4.97,4.31-21.7,5.5-24.88c0-0.9,1.4-4.29,2.39-4.79c4.18,0,8.57,0.73,12.92,0
		c6.94,0,9.33,0.48,10.77-4.31c1.11-4.45,1.65-8.98,2.63-13.4C671.33,275.12,670.37,273.68,668.46,273.2L668.46,273.2z
		 M665.31,401.49c15.55,0.96,12.92-0.72,21.29-0.72c23.45,0,30.63,4.31,32.3-3.83c3.35-23.21,5.98-14.12-32.3-16.75
		c-0.48-1.91,0-3.83,0.72-6.22c0.96-2.43,2.15-12.24,5.26-24.92c0.48-2.39,1.44-1.2,6.7-2.15h11.25c9.81,1.67,7.66-4.07,9.09-9.57
		c3.59-13.16,0.24-10.53-11.72-10.53c-11.01,0-9.81,0.72-9.81-1.67c0-2.15,6.53-31.02,7.18-31.34c0.48-0.48,2.87,0.48,31.34,0.48
		c5.02,0,4.79-0.96,7.66-16.03c0.96-4.31-1.67-5.5-12.2-5.5c-49.53,0-12.92-0.24-40.44-0.24c-0.48,0.48-4.07-0.24-5.5,3.83
		l-0.48,2.39c-0.72,4.79-15.79,74.17-15.79,74.17c-1.46,2.92-6.6,32.35-7.9,38.8C661.96,394.55,659.08,401.49,665.31,401.49
		L665.31,401.49z M781.55,399.97c26.32-4.79,41.67-45.66,43.11-62.65c2.71-13.76,2.88-36.54-5.74-48.29
		c-12.48-17.94-24.92-16.51-43.83-16.51c-3.83-0.72-8.14-0.48-11.72,1.67c-2.15,1.2-1.67,3.83-2.39,6.94
		c-7.9,31.3-11.25,57.38-13.88,65.52c-2.39,7.18-0.96,7.66-4.55,21.97c-1.56,9.21-4.19,18.11-5.5,27.28
		c-1.2,6.46,2.87,5.26,16.75,5.26C764.18,401.42,772.67,401.17,781.55,399.97L781.55,399.97z M762.41,380.35
		c-0.72,0,16.51-81.27,16.51-81.27c1.44-5.5,1.91-5.98,7.66-4.79c18.66,2.39,20.1,16.23,18.18,34.65c0,0-0.96,7.9-3.35,16.27
		c-3.83,15.31-7.9,21.49-14.6,28.19C779.33,379.9,772.12,381.63,762.41,380.35L762.41,380.35z"/>
	<path d="M347.58,567.99h19.14v-0.48c10.89-0.24,20.94,1.91,31.94-4.31c0.48-0.24,0.96-0.24,1.2-0.48
		c17.71-8.85,23.93-30.63,21.29-41.63c-0.96-6.22-7.66-14.36-7.66-14.36c-2.51-3.11,4.87-0.72,11.52-12.92
		c0.48-0.72,5.22-7.9,5.94-16.03c1.67-11.96,0-18.66-7.62-28.95c-12.6-13.88-20.26-8.37-28.39-10.05h-20.34
		c-7.66,0-6.22,5.74-8.37,12.44c-4.31,23.69-0.72,0-7.9,40.67c-2.87,10.77-13.4,62.45-15.07,70.82
		C342.32,566.08,344,567.99,347.58,567.99L347.58,567.99z M387.3,492.15c-5.72,0-8.39,0.89-4.79-11.48
		c5.26-18.66,0-21.53,18.42-20.1c10.53,0.96,11.72,24.88-1.68,28.95C391.37,492.38,391.85,492.15,387.3,492.15L387.3,492.15z
		 M374.98,546.7c-6.94,0-6.22,0-5.26-5.5l1.44-7.9c0.96-4.31,2.39-11.48,3.59-15.79c0.24-2.15,1.2-2.87,3.83-2.87
		c9.57-0.72,14.83,0,18.9,6.7c4.31,8.37-2.15,21.53-9.57,23.21C376.66,547.42,375.7,546.7,374.98,546.7L374.98,546.7z
		 M462.07,568.47c5.98,0,5.98-0.96,7.7-9.09c1.67-4.55,0.48-8.13,3.35-18.66c10.05-50.01-1.2-22.25,44.26-91.4l2.87-5.02
		c1.44-2.63-0.24-5.26-3.35-5.26c-3.59,0-7.42-0.96-10.77-0.24c-4.55,0-4.07-0.24-6.7,1.67l-1.67,3.11
		c-5.35,8.08-11.7,15.5-16.03,24.17l-5.26,7.9l-1.2,0.72c-0.46-0.46-7.41-28.21-8.17-32.06c-1.44-5.5-1.67-5.26-11.48-5.74
		c-5.5,0-2.63-0.24-6.46-0.24c-8.13,0-4.31,8.61-3.59,11.48c3.85,15.08,7.68,34.41,11.72,49.29c0.96,3.11,2.39,7.18,1.44,10.05
		c-2.84,11.94-4.47,23.61-7.42,35.41c-1.68,3.59-1.44,6.7-3.11,12.68c-2.15,10.77-1.68,8.85,8.13,10.77L462.07,568.47L462.07,568.47
		z"/>
</g>
</svg>
