<?xml version="1.0" encoding="utf-8"?>
<!-- Generator: Adobe Illustrator 24.3.0, SVG Export Plug-In . SVG Version: 6.00 Build 0)  -->
<svg version="1.1" id="Layer_1" xmlns="http://www.w3.org/2000/svg" xmlns:xlink="http://www.w3.org/1999/xlink" x="0px" y="0px"
	 viewBox="0 0 864 864" style="enable-background:new 0 0 864 864;" xml:space="preserve">
<style type="text/css">
	.st0{fill-rule:evenodd;clip-rule:evenodd;}
</style>
<g>
	<path d="M71.79,262.74l81.9,41.87l15.24-29.75l18.43,9.52l-25.02,48.85L62.01,281.84L71.79,262.74L71.79,262.74z M134.17,166.73
		l16.25,12.77l-20.44,26.01l19.91,15.65l17.48-22.24l16.31,12.82l-17.48,22.24l19.91,15.65l20.44-26.01l16.25,12.77l-33.56,42.71
		l-88.63-69.65L134.17,166.73L134.17,166.73z M251,212.01c-8.24,6.48-16.01,9.31-23.31,8.54c-7.3-0.77-13.71-4.68-19.23-11.71
		l-4.74-6.03l17.83-14.01l5.49,6.99c3.78,4.81,7.93,5.45,12.43,1.91c2.16-1.69,3.39-3.54,3.73-5.48c0.35-2.05-0.58-4.46-2.81-7.3
		c-2.69-3.43-5.99-5.72-9.92-6.91c-3.79-1.13-9.7-1.6-17.66-1.35c-10.47,0.31-18.72-0.55-24.77-2.62
		c-5.97-2.01-10.95-5.57-14.97-10.69c-5.46-6.95-7.6-14.11-6.4-21.51c1.1-7.32,5.75-14.21,13.89-20.61
		c8.13-6.39,15.82-9.2,23.06-8.43c7.23,0.76,13.63,4.7,19.22,11.81l3.72,4.74l-17.83,14.01l-4.39-5.58
		c-2.15-2.73-4.21-4.2-6.17-4.37c-1.9-0.19-3.94,0.54-6.09,2.23c-4.31,3.39-4.64,7.45-0.94,12.17c2.3,2.93,5.41,4.9,9.35,5.95
		c3.99,1.07,9.92,1.49,17.78,1.26c10.54-0.31,18.76,0.61,24.68,2.72c5.92,2.14,11.07,5.97,15.42,11.49
		c5.67,7.22,7.9,14.53,6.72,21.91C263.9,198.6,259.21,205.56,251,212.01L251,212.01z M309.46,174.69
		c-9.55,4.32-17.77,5.21-24.68,2.72c-6.91-2.49-12.19-7.82-15.87-15.96l-3.16-6.98l20.66-9.34l3.66,8.1
		c2.52,5.58,6.39,7.19,11.62,4.83c2.5-1.13,4.14-2.62,4.93-4.43c0.83-1.91,0.5-4.47-0.98-7.75c-1.8-3.97-4.45-6.99-7.98-9.08
		c-3.41-2.01-9.03-3.87-16.83-5.53c-10.24-2.2-18.04-5.01-23.42-8.47c-5.32-3.38-9.3-8.02-11.98-13.96
		c-3.64-8.06-4.01-15.52-1.08-22.41c2.82-6.84,8.98-12.42,18.42-16.69c9.42-4.26,17.56-5.15,24.4-2.67
		c6.84,2.47,12.11,7.83,15.84,16.06l2.48,5.49l-20.66,9.34l-2.93-6.47c-1.43-3.17-3.08-5.09-4.95-5.72
		c-1.79-0.64-3.95-0.42-6.45,0.71c-5,2.26-6.29,6.12-3.82,11.59c1.53,3.39,4.08,6.06,7.66,8.02c3.62,1.99,9.28,3.81,16.96,5.47
		c10.3,2.22,18.07,5.08,23.32,8.54c5.23,3.49,9.33,8.44,12.22,14.85c3.78,8.37,4.2,16,1.29,22.88
		C325.18,164.76,318.96,170.39,309.46,174.69L309.46,174.69z M406.88,84.58c0.75-0.11,1.41-0.48,2.01-1.09
		c2.28-2.68,3.28-5.9,3-9.66l-0.74-9.79c-0.25-3.35-1.01-5.87-2.22-7.54c-1.22-1.58-2.19-2.34-2.92-2.28l-19.24,1.46l2.29,30.11
		L406.88,84.58L406.88,84.58z M404.4,33.31c4.96-0.38,9.47,0.83,13.51,3.59c4.1,2.56,7.41,6.04,9.93,10.47
		c2.6,4.54,4.12,9.56,4.53,15.05l0.74,9.79c0.42,5.49-0.32,10.68-2.21,15.57c-1.83,4.73-4.57,8.72-8.23,11.92
		c-3.59,3.2-7.87,5-12.83,5.37l-19.24,1.46l3.1,40.71l-21.24,1.62l-8.55-112.48L404.4,33.31L404.4,33.31z M517.64,41.55L514,61.9
		l-32.57-5.82l-4.45,24.93l27.85,4.97l-3.65,20.42l-27.85-4.97l-4.45,24.93l32.57,5.82l-3.63,20.35l-53.47-9.55L464.17,32
		L517.64,41.55L517.64,41.55z M545.82,147.06c2.43,1.1,5.13,1.73,8.13,1.87c4.55-0.2,8.4-3.78,11.56-10.77l15.1-33.41
		c3.23-7.14,3.35-12.35,0.39-15.66c-1.97-2.18-4.22-3.87-6.78-5.03c-2.41-1.09-4.97-1.66-7.73-1.75c-1.72,0-3.25,0.36-4.57,1.08
		c-3.2,1.97-5.77,5.1-7.72,9.41l-15.1,33.41c-1.98,4.37-2.63,8.38-1.97,12.04c0.33,1.6,1.04,3,2.17,4.12
		C541.19,144.4,543.37,145.95,545.82,147.06L545.82,147.06z M537.09,167.38c-4.08-1.85-7.97-4.3-11.64-7.31
		c-2.25-1.98-4.02-4.02-5.25-6.16c-6.29-10.82-6.4-22.94-0.32-36.38l15.1-33.41c6.08-13.46,15.26-21.38,27.51-23.76
		c2.42-0.49,5.13-0.53,8.09-0.13c4.69,0.75,9.09,2.07,13.17,3.91c4.11,1.86,7.95,4.24,11.49,7.16c2.24,2.01,3.91,4.08,4.99,6.21
		c2.81,5.09,4.26,10.85,4.4,17.26c-0.08,5.64-1.66,11.88-4.75,18.71l-15.1,33.41c-3.1,6.85-6.75,12.19-10.95,16.01
		c-4.97,4.15-10.24,6.84-15.86,8.09C552.25,172.3,545.3,171.09,537.09,167.38L537.09,167.38z M645.2,158.22
		c0.63,0.43,1.36,0.6,2.21,0.55c3.49-0.44,6.41-2.13,8.74-5.09l6.07-7.72c2.07-2.64,3.22-5.01,3.46-7.06
		c0.16-1.99-0.04-3.2-0.61-3.66l-15.17-11.92l-18.66,23.74L645.2,158.22L645.2,158.22z M678.01,118.76
		c3.91,3.07,6.42,7.01,7.53,11.78c1.29,4.66,1.38,9.46,0.25,14.43c-1.15,5.11-3.43,9.83-6.83,14.16l-6.07,7.72
		c-3.41,4.33-7.45,7.66-12.15,9.98c-4.54,2.25-9.26,3.34-14.12,3.23c-4.8-0.07-9.18-1.64-13.09-4.71l-15.17-11.92l-25.23,32.1
		l-16.75-13.17l69.7-88.69L678.01,118.76L678.01,118.76z M735.58,174.88l-72.28,56.89l20.66,26.28l-16.35,12.76l-33.91-43.15
		l88.63-69.65L735.58,174.88L735.58,174.88z M795.98,271.41l-18.4,9.42l-15.08-29.45l-22.54,11.54l12.9,25.18l-18.46,9.46
		l-12.9-25.18l-22.54,11.54l15.08,29.45l-18.4,9.42l-24.76-48.35l100.33-51.39L795.98,271.41L795.98,271.41z"/>
	<path d="M120.34,663.55l-12.26-16.82l22.69-32.82l-40.34,29.4l-12.77-17.52l92.37-67.32l13.15,18.04l-39.76,57.34l66.8-20.23
		l13.08,17.94l-92.37,67.32l-12.77-17.52l40.16-29.27L120.34,663.55L120.34,663.55z M199.51,730.04c2.12,1.68,4.63,2.96,7.54,3.84
		c4.53,0.92,9.19-1.66,14.01-7.76l23.04-29.17c4.93-6.24,6.33-11.33,4.21-15.31c-1.4-2.63-3.2-4.84-5.44-6.61
		c-2.1-1.66-4.49-2.85-7.18-3.61c-1.69-0.42-3.29-0.45-4.76-0.06c-3.63,1.15-6.93,3.61-9.9,7.37l-23.04,29.17
		c-3.02,3.82-4.64,7.6-4.89,11.36c-0.07,1.65,0.29,3.2,1.12,4.59C195.61,726.29,197.37,728.35,199.51,730.04L199.51,730.04z
		 M185.94,747.9c-3.57-2.82-6.79-6.19-9.66-10.04c-1.73-2.5-2.97-4.94-3.66-7.35c-3.53-12.19-0.68-24.14,8.59-35.87l23.04-29.17
		c9.28-11.75,20.25-17.3,32.89-16.64c2.51,0.11,5.18,0.74,8,1.86c4.43,1.88,8.44,4.26,12,7.08c3.59,2.83,6.78,6.12,9.55,9.86
		c1.71,2.52,2.85,4.97,3.39,7.33c1.52,5.69,1.53,11.72,0.1,18.06c-1.46,5.53-4.55,11.28-9.26,17.25l-23.04,29.17
		c-4.73,5.98-9.62,10.34-14.7,13.07c-5.9,2.87-11.76,4.23-17.59,4.08C199.66,756.45,193.11,753.56,185.94,747.9L185.94,747.9z
		 M306.39,745.24c0.73,0.3,1.92-0.15,3.57-1.38c1.65-1.15,3.19-3.39,4.55-6.69l3.78-9.21c1.54-3.74,1.53-7.26,0.04-10.62
		c-0.28-0.62-0.87-1.14-1.82-1.53l-16.49-6.78l-11.74,28.76L306.39,745.24L306.39,745.24z M280.31,757.23l-15.69,38.17l-19.98-8.21
		l43.44-105.72l38.08,15.65c4.66,1.92,8.23,4.99,10.69,9.2c2.51,4.34,3.91,9.04,4.17,14.15c0.29,5.3-0.62,10.54-2.75,15.7
		l-3.78,9.21c-1.1,2.69-2.53,5.3-4.24,7.84c-4.87,7.29-10.74,11.77-17.57,13.48c-2.63,0.64-4.58,0.88-5.81,0.75l3.25,46.65
		l-22.28-9.16l-3.22-45.94L280.31,757.23L280.31,757.23z M411.59,715.63l-2.34,20.83l-33.34-3.75l-2.87,25.52l28.5,3.21l-2.35,20.9
		l-28.5-3.21l-2.87,25.52l33.34,3.75l-2.34,20.83l-54.73-6.16l12.78-113.59L411.59,715.63L411.59,715.63z M495.93,803.27
		c3.19-0.62,5.75-2.71,7.68-6.3c1.81-3.56,2.29-7.63,1.42-12.14l-7.01-36.15c-0.87-4.51-2.85-8.05-5.9-10.62
		c-3.14-2.6-6.27-3.62-9.41-3.01l-14.43,2.8l13.23,68.21L495.93,803.27L495.93,803.27z M478.39,712.85
		c6.19-1.2,12.18-0.59,17.99,1.85c5.82,2.49,10.72,6.22,14.7,11.24c4.05,5.08,6.75,11.06,8.08,17.91l7.15,36.86
		c1.35,6.95,1.08,13.55-0.77,19.78c-1.82,6.15-4.96,11.48-9.41,16.06c-4.42,4.45-9.74,7.3-15.98,8.51l-16.2,3.22l-19.44,3.69
		l-21.76-112.21L478.39,712.85L478.39,712.85z M590.86,774.79c2.47-1.12,4.75-2.75,6.87-4.94c2.9-3.6,2.74-8.93-0.46-16.01
		l-15.33-33.86c-3.28-7.24-7.16-10.82-11.67-10.77c-2.98,0.04-5.77,0.62-8.37,1.8c-2.44,1.11-4.59,2.68-6.51,4.72
		c-1.15,1.31-1.91,2.72-2.24,4.2c-0.64,3.75,0.02,7.81,2,12.18l15.33,33.86c2.01,4.43,4.62,7.61,7.84,9.56
		c1.44,0.82,2.98,1.21,4.59,1.11C585.73,776.53,588.37,775.91,590.86,774.79L590.86,774.79z M600.49,795.04
		c-4.14,1.87-8.61,3.19-13.36,3.98c-3.02,0.38-5.75,0.37-8.21-0.13c-12.45-2.46-21.76-10.48-27.92-24.1l-15.33-33.86
		c-6.18-13.64-6.07-25.93,0.32-36.86c1.25-2.17,3.03-4.26,5.32-6.25c3.71-3.07,7.66-5.54,11.8-7.41c4.16-1.88,8.55-3.22,13.14-3.96
		c3.03-0.36,5.72-0.25,8.07,0.35c5.75,1.27,11.11,4.02,16.09,8.2c4.24,3.83,7.94,9.22,11.07,16.14l15.33,33.86
		c3.14,6.94,4.77,13.3,4.87,19.06c-0.16,6.56-1.64,12.38-4.45,17.5C614.39,786.78,608.82,791.27,600.49,795.04L600.49,795.04z
		 M684.91,740.61c-4.18,3.67-8.94,5.85-14.25,6.58c-5.42,0.75-10.66,0.16-15.77-1.76c-5.12-1.89-9.6-5-13.39-9.33l-34.44-39.29
		c-3.86-4.41-6.39-9.29-7.61-14.63c-1.15-5.3-1.03-10.56,0.39-15.79c1.41-5.17,4.2-9.6,8.39-13.26l8.81-7.73
		c4.28-3.75,9.05-5.95,14.3-6.63c5.34-0.69,10.58-0.13,15.71,1.68c2.53,0.82,4.77,1.9,6.7,3.24c2.24,1.5,5.81,5.08,10.73,10.7
		l-17.07,14.96l-3.21-3.66c-2.21-2.45-4.56-3.96-7.07-4.53c-2.1-0.44-3.85-0.03-5.23,1.19l-8.81,7.73
		c-1.31,1.15-1.91,2.87-1.82,5.19c0.06,2.33,0.98,4.55,2.8,6.62l34.44,39.29c1.75,2,3.8,3.17,6.1,3.53
		c2.31,0.42,4.11,0.06,5.42-1.09l9.04-7.92c1.34-1.18,1.95-2.93,1.84-5.28c-0.11-2.35-1.04-4.5-2.76-6.46l-6.39-7.18l-6.24,5.47
		l-13.86-15.82l23.14-20.28l21.25,24.24l-0.06,0.05c3.12,3.64,5.31,8.13,6.49,13.47c1.2,5.32,1.06,10.59-0.4,15.74
		c-1.41,5.17-4.18,9.58-8.35,13.23L684.91,740.61L684.91,740.61z M759.27,662.86c-6.19,8.64-12.95,13.6-20.28,14.92
		c-7.33,1.32-14.67-0.67-22.04-5.95l-6.32-4.52l13.39-18.7l7.33,5.25c5.05,3.61,9.26,3.06,12.65-1.67c1.62-2.26,2.3-4.4,2.07-6.39
		c-0.24-2.1-1.83-4.18-4.8-6.31c-3.59-2.57-7.46-3.87-11.61-3.92c-4.01-0.03-9.89,1.19-17.58,3.69c-10.1,3.27-18.38,4.77-24.85,4.47
		c-6.38-0.26-12.24-2.32-17.61-6.16c-7.29-5.22-11.4-11.59-12.33-19.12c-1-7.43,1.57-15.46,7.69-24c6.1-8.52,12.8-13.44,20.06-14.74
		c7.26-1.31,14.61,0.72,22.06,6.05l4.97,3.56l-13.39,18.7l-5.86-4.19c-2.87-2.05-5.28-2.9-7.25-2.5c-1.9,0.35-3.68,1.64-5.3,3.9
		c-3.24,4.52-2.41,8.57,2.54,12.11c3.07,2.2,6.66,3.24,10.79,3.14c4.19-0.09,10.08-1.37,17.66-3.81c10.17-3.28,18.44-4.72,24.8-4.35
		c6.37,0.41,12.47,2.67,18.27,6.82c7.57,5.42,11.81,11.91,12.75,19.42C768.02,646.15,765.43,654.25,759.27,662.86L759.27,662.86z"/>
	<path class="st0" d="M418.28,398.64c-37.47,7.02-56.43,44.48-76.44,72.06c-28.35,39.08-50.15,44.84-66.55,83.61
		c-18.38,43.46,2.53,87.89,37.93,99.42c41.66,13.57,84.57-19.25,132.32-13.36c45.83,5.65,76.41,32.82,120.59,3.88
		c32.76-21.46,37.7-67.99,12.06-107.62c-11.14-17.22-22.26-26.78-35.2-39.92C503.75,456.88,487.33,385.7,418.28,398.64
		L418.28,398.64z M313.51,414.07c-0.23-114.64-122.96-148.67-124.19-21.76C188.01,527.05,313.73,524.06,313.51,414.07L313.51,414.07
		z M567.13,274.7c-2.2-117.1-118.04-83.06-125.38,27.78C435.14,402.35,557.25,410.76,567.13,274.7L567.13,274.7z M339.32,206.82
		c-64.36,22.1-45.89,127.51-14.39,152.04c15.03,11.7,33.55,19.46,57.95,13.58c42.54-10.25,42.35-60.94,36.65-105.21
		C410.4,230.69,383.14,191.77,339.32,206.82L339.32,206.82z M616.02,313.47c-94.68,34.26-103.33,188.75-17.48,169.32
		C715.44,456.33,675.56,286.35,616.02,313.47L616.02,313.47z"/>
	<path class="st0" d="M87.98,448.55c0.6-0.04,6.75-31.17,31.5-28.35c6.17,0.7,10.82,2.61,13.94,5.81
		c10.27,10.61,5.42,28.41-2.95,38.87c-12.23,15.28-23.72,21.14-39.25,31.78c-7.48-2.65-15.12-5.91-22.94-9.9
		c-7.75-3.93-15.1-9.32-21.94-16.22c-9.61-9.52-15.88-25.28-7.22-37.38c4.36-6.09,15.79-11.07,23.87-9.34
		c9.46,2.03,16.06,9.17,20.76,16.98L87.98,448.55L87.98,448.55z"/>
	<path class="st0" d="M774.02,448.55c-0.6-0.04-6.75-31.17-31.5-28.35c-6.17,0.7-10.82,2.61-13.94,5.81
		c-10.27,10.61-5.42,28.41,2.95,38.87c12.23,15.28,23.72,21.14,39.25,31.78c7.48-2.65,15.12-5.91,22.94-9.9
		c7.75-3.93,15.1-9.32,21.94-16.22c9.61-9.52,15.88-25.28,7.22-37.38c-4.36-6.09-15.79-11.07-23.87-9.34
		c-9.46,2.03-16.06,9.17-20.76,16.98L774.02,448.55L774.02,448.55z"/>
</g>
</svg>
