<?xml version="1.0" encoding="utf-8"?>
<!-- Generator: Adobe Illustrator 25.0.0, SVG Export Plug-In . SVG Version: 6.00 Build 0)  -->
<svg version="1.1" id="Layer_1" xmlns="http://www.w3.org/2000/svg" xmlns:xlink="http://www.w3.org/1999/xlink" x="0px" y="0px"
	 viewBox="0 0 864 864" style="enable-background:new 0 0 864 864;" xml:space="preserve">
<style type="text/css">
	.st0{fill:#333232;}
</style>
<g>
	<path class="st0" d="M145.68,252.3l19.74,72.96c1.2,3.45,3.99,4.8,7.63,3.82c2.81-0.76,4.84-3.32,4.68-6.57
		c0-1.58-0.53-3.01-0.82-4.08c6.51,3.4,13.93,4.84,21.41,2.81c17.5-4.73,24.99-24.25,20.51-40.82
		c-4.52-16.7-20.72-29.96-38.36-25.19c-7.62,2.06-12.83,6.63-17.17,13.39l-7.01-25.92c-0.83-3.07-3.85-4.69-7.11-4.53l-3.74,1.01
		c-3.57,1.11-6.66,1.37-7.79,5.12C136.04,250.06,140.87,253.6,145.68,252.3L145.68,252.3z M172.32,292.99
		c-2.68-9.89,0.64-22.54,11.47-25.47c10.69-2.89,20.24,6.43,22.88,16.18c2.6,9.62-0.98,22.35-11.67,25.24
		C184.16,311.87,174.92,302.61,172.32,292.99L172.32,292.99z M230.67,276.15c0.82,4.4,1.76,9.42,3.37,13.6
		c4.72,11.8,13.74,20.96,27.22,18.47c6.4-1.19,11.41-4.51,16.14-8.62l0.69,1.42c1.33,1.86,3.84,3.23,5.88,2.85l9.39-1.74
		c3.4-0.63,5.27-4.22,4.69-7.35c-0.58-3.13-3.51-5.26-6.85-5.06l-2.72,0.5l-9.03-48.73c-0.13-0.68-0.36-1.2-0.87-1.67
		c-1.36-2-3.73-3.39-6.04-2.96l-9.12,1.69c-3.13,0.58-5.09,4.46-4.56,7.32c0.53,2.86,3.05,5.07,6.28,5.03
		c1.16,0.21,1.68-0.03,3.18-0.31l5.96,32.12c0.16,0.85-6.33,11.31-15.2,12.95c-4.9,0.91-8.47-1.67-10.8-5.88
		c-2.88-4.81-3.5-7.51-4.57-13.23c-1.34-7.21-1.83-14.44-1.62-21.66c0.14-2.28,0.79-4.09,0.41-6.13c-0.66-3.53-4.02-5.73-6.88-5.2
		l-9.94,1.84c-6.37,1.18-6.32,13.6,3.66,12.13c0.29,1.58-0.06,5.18,0.04,7.03L230.67,276.15L230.67,276.15z M305.45,244.32
		l8.53-0.93l2.82,26.01c0.36,3.27,1.51,7.93,2.19,11.18c3.41,10.91,10.34,16.98,22.31,15.68c7.71-0.84,13.36-3.96,16.31-11.38
		c0.74-2.17,1.92-4.11,1.68-6.31c-0.34-3.16-2.95-5.39-5.9-5.62c-2.18,0.03-5.35,0.99-6.03,3.44c-0.93,4.28-2.81,6.71-7.29,7.2
		l-1.65,0.18c-5,0.12-7.46-7.13-8.29-10.94c-1.69-10.39-2.34-20.27-3.49-30.81l8.53-0.93c3.3-0.36,5.3-3.78,4.95-6.94
		c-0.57-5.23-5.44-5.87-6.05-5.75l-8.81,0.96l-1.52-14.04c-0.34-3.17-3.92-5.28-6.81-4.97c-3.58,0.39-6.03,3.36-5.79,5.64
		l1.46,14.74l-8.81,0.96c-1.38,0.35-5.4,1.52-4.82,6.93C299.32,241.79,302.14,244.68,305.45,244.32L305.45,244.32z M434.06,284.37
		c-0.12,3.35,1.97,5.53,5.03,6.41l26.84,0.96c2.88,0.1,5.38-3.17,5.48-6.04c0.13-3.76-2.95-6.34-5.17-6.42l-5.95-0.21l1.45-40.67
		l8.72,0.31c3.32,0.12,6.2-2.96,6.31-6.15c0.19-5.3-4.8-6.16-5.17-6.56l-8.44-0.3c0.05-1.44,1.23-3.28,1.23-3.28
		c2.23-4.35,5.52-7.14,10.5-6.97c2.91,0.1,5.9,1.46,7.9,3.75c0.45,0.57,1.15,6.41,6.55,6.61c3.46,0.12,6.46-2.4,6.59-6.14
		c0.07-2.07-0.83-3.91-1.73-5.74c-6.87-13.25-30.71-16.42-40.5,1.6c-1.77,3.12-2.72,6.27-3.53,9.71l-8.44-0.3
		c-6.69-0.25-8.35,12.44,0.24,12.75l6.78,0.24l-1.45,40.67c-1.86-0.07-7.36-0.51-8.86-0.04
		C435.76,279.44,434.16,281.6,434.06,284.37L434.06,284.37z M493.96,286.51c-0.1,2.87,2.16,6.31,5.03,6.41l29.05,1.04
		c2.22,0.08,5.35-2.5,5.48-6.04c0.12-3.45-2.72-6.33-5.03-6.41l-7.75-0.28l1.77-49.39c0.09-2.63-2.55-6.05-5.32-6.15l-12.87-0.46
		c-2.88,0.85-5.36,2.78-5.48,6.04c-0.1,2.89,1.82,6.3,5.03,6.41l5.67,0.2l-1.53,42.88l-8.58-0.31
		C498.72,280.74,494.16,280.88,493.96,286.51L493.96,286.51z M505.24,211.28c-0.16,4.43,3.6,7.89,8.02,8.04
		c4.43,0.16,8.42-3.02,8.58-7.45c0.16-4.57-3.59-8.02-8.02-8.18C509.39,203.54,505.4,206.72,505.24,211.28L505.24,211.28z
		 M545.06,290.82c-0.46,3.43,1.78,6.52,5.21,6.98l14.68,1.96c3.7,0.49,6.83-2.02,7.29-5.45c0.51-3.84-2.47-6.61-5.9-7.07l4.31-32.24
		c0.59-1.11,0.95-1.84,1.88-2.54c3.93-3.25,9.27-5.6,14.62-4.89c2.33,0.31,4.73,1.19,5.89,4c0.57,1,0.13,5.32,5.61,6.06
		c4.82,0.64,9.16-4.04,5.95-11.08c-2.62-6.5-8.81-10.39-15.8-11.33c-5.35-0.71-10.87-0.2-15.82,2.36c-0.39-0.19-0.27-1.15-0.66-1.34
		c-0.69-2.19-2.21-4.35-4.55-4.66l-12.21-1.63c-2.69-0.36-5.96,2.79-6.33,5.58c-0.85,6.33,5.47,7.16,10.13,7.78l-5.65,42.26
		l-3.17-0.28C547.54,285.85,545.44,287.94,545.06,290.82L545.06,290.82z M617.46,303.11c0.79,0.17,8.4,6.74,19.03,9
		c11.64,2.48,30.8,0.89,33.89-13.6c2.33-10.97-5.94-20.65-14.95-25.54c-0.92-0.34-3.21-1.53-3.59-1.75l-14.31-4.6
		c-3.54-1.32-7.19-2.8-9.1-6.46c-0.26-0.76-0.77-1.72-0.57-2.67c0.7-3.31,8.85-3.21,11.6-2.63c2.74,0.58,6.43,1.21,8.99,2.34
		c3.13,1.23,6.38,2.63,8.9,4.72l3.79,2.79l-0.98,4.6c-0.79,3.7,2.35,6.3,5.05,6.88c3.11,0.66,6.78-1.25,7.44-4.36l3.2-15.03
		c1.11-5.21-5.01-9.23-9.56-6.28c-0.49,0.32-1.18,0.88-1.31,0.85c-6.01-3.68-12.33-6.58-19.2-8.19
		c-10.97-2.33-27.18-1.96-30.09,11.72c-2.13,10.02,5.93,19.38,15.17,22.47l14.9,5.15c1.94,0.84,4.37,2.06,6.4,3.2
		c2.93,2.18,6.6,6.22,5.8,10.01c-0.6,2.84-4.63,3.83-7.14,4.28c-3.99,0.59-7.63,0.5-11.54-0.33c-4.74-1.01-9.14-2.94-13.18-5.92
		c-1.56-1.32-5.19-4.22-5.02-4.32l-0.14-0.03c0.26-1.22,0.58-2.71,0.76-4.23c0.06-2.96-1.91-5.64-5.03-6.31
		c-3.11-0.66-6.61,1.14-7.27,4.26l-3.31,15.57C604.92,304.19,612.9,308.83,617.46,303.11L617.46,303.11z M689.68,267.26l8.22,2.48
		l-7.55,25.05c-0.95,3.16-1.71,7.89-2.35,11.15c-1.12,11.37,2.89,19.67,14.42,23.14c7.42,2.24,13.84,1.57,19.46-4.11
		c1.53-1.71,3.37-3.03,4.01-5.15c0.92-3.05-0.61-6.11-3.24-7.48c-2.02-0.82-5.31-1.18-6.9,0.81c-0.25,0.36-1.74,1.93-2.26,2.21
		c-2.42,2.74-4.22,2.49-7.27,1.57l-1.59-0.48c-4.65-1.84-4.08-9.47-3.36-13.3c2.5-10.23,5.76-19.58,8.82-29.73l8.22,2.48
		c3.18,0.96,6.35-1.41,7.27-4.46c1.52-5.03-3.21-7.44-3.33-7.66l-8.48-2.56l4.08-13.52c0.92-3.05-1.54-6.39-4.32-7.23
		c-3.45-1.04-6.86,0.74-7.54,2.93l-4.41,14.14l-8.48-2.56c-0.17,0.09-0.31,0.05-0.44,0.01c-0.06,0.03-5.27-0.27-6.7,4.48
		C685.03,262.54,686.5,266.3,689.68,267.26L689.68,267.26z"/>
	<path class="st0" d="M104.01,584.22c10.72,6.43,22.08,8.17,33.42,3.09c12.16-5.45,19.57-11.3,28.37-22.47
		c11.21-14.23,14.13-17.97,24.15-33.42c2.38-3.57,4.99-7.53,7.83-11.86c6.32,25.36,20.45,55.8,38.79,62.41
		c20.97,7.11,34.45,1.69,40.44-16.29c6.63-19.9,7.48-40.75,2.53-60.94c-4.95-20.2-9.7-33.45-17.69-53.08
		c-4.12-10.11-7.11-17.97-8.99-23.59c-1.87-1.87,13.11,2.06,44.94,11.8c2.72,0.41,5.42,2.45,11.8,3.09c2,0.2,4.08,0.22,5.6-0.17
		c-3.49,17.31-6.11,34.68-7.85,52.12c-4.12,41.19-1.31,82.01,8.43,122.45c5.24,17.6,13.01,30.05,23.31,37.35
		c10.3,7.3,19.85,8.14,28.65,2.53c8.8-5.62,13.76-16.1,14.88-31.45c1.5-19.47-0.09-38.94-4.77-58.42
		c-4.68-19.47-8.61-32.39-11.8-38.76c-3.18-6.37-5.9-11.23-8.15-14.6h6.18c4.12-0.37,13.01-1.87,26.68-4.49
		c13.15-2.52,28.65-5.91,46.49-10.17c-3.49,39.69-0.55,79.02,8.84,118.01c5.24,17.6,13.01,30.05,23.31,37.35
		c10.3,7.3,19.85,8.14,28.65,2.53c8.8-5.62,13.76-16.1,14.89-31.45c1.5-19.47-0.09-38.94-4.77-58.42
		c-4.68-19.47-8.61-32.39-11.8-38.76c-3.18-6.37-5.9-11.23-8.14-14.6h6.18c4.12-0.37,13.01-1.87,26.68-4.49
		c11.23-2.15,24.18-4.94,38.83-8.36c0.11,26.94,4.67,50.7,13.69,71.27c11.23,26.21,25.28,33.51,42.13,21.91
		c3.37-2.62,7.3-6.18,11.8-10.67c6.43-7.6,19.02-26.83,37.76-57.69c2.01,16.96,6.09,32.45,12.23,46.46
		c11.23,26.21,25.28,33.51,42.13,21.91c3.37-2.62,7.3-6.18,11.8-10.67c8.24-9.74,26.59-38.57,55.05-86.5
		c1.41-1.82,4.54-6.99,3.93-9.55c0-0.37-0.75-1.03-2.25-1.97c-3.52-2.2-9.39-1.25-12.92,1.97c-0.75,0.75-6.55,10.2-17.41,28.37
		c-10.86,18.16-21.63,34.73-32.3,49.71s-17.32,20.97-19.94,17.97c-3.64-3.89-7.3-21.54-7.3-26.96c0-40.07,0.37-62.16,1.12-66.28
		l11.23-6.74c10.86-7.86,17.79-17.97,20.78-30.33c3-12.36,2.25-23.78-2.25-34.26c-3-9.36-10.11-14.42-21.34-15.17
		c-10.86-0.37-18.91,2.62-24.15,8.99c-5.24,6.37-9.55,16.29-12.92,29.77c-2.62,9.36-4.49,19.66-5.62,30.89
		c-0.87,8.95-1.31,17.61-1.34,25.96c-2.62,4.32-5.92,9.8-9.9,16.45c-10.86,18.16-21.63,34.73-32.3,49.71
		c-10.67,14.98-17.32,20.97-19.94,17.97c-3.64-3.89-7.3-21.54-7.3-26.96c0-40.07,0.37-62.16,1.12-66.28l11.23-6.74
		c10.86-7.86,17.79-17.97,20.78-30.33c3-12.36,2.25-23.78-2.25-34.26c-3-9.36-10.11-14.42-21.34-15.17
		c-10.86-0.37-18.91,2.62-24.15,8.99c-5.24,6.37-9.55,16.29-12.92,29.77c-4.01,15.13-5.74,27.67-6.59,43.88
		c-25.06,6.32-53.76,9.48-86.09,9.48l10.11-7.86c19.1-11.23,36.23-27.24,51.4-48.02s24.81-41.1,28.93-60.94
		c4.49-20.97,1.5-37.63-8.99-49.99c-11.23-13.11-25.84-16.85-43.81-11.23c-21.72,7.12-37.45,25.28-47.18,54.48
		c-12.67,36.99-21.27,74.29-25.8,111.9c-0.74,0.11-1.51,0.26-2.29,0.44c-26.59,7.49-57.48,11.23-92.68,11.23l10.11-7.86
		c19.1-11.23,36.23-27.24,51.4-48.02c15.17-20.78,24.81-41.1,28.93-60.94c4.49-20.97,1.5-37.63-8.99-49.99
		c-11.23-13.11-25.84-16.85-43.81-11.23c-21.72,7.12-37.45,25.28-47.18,54.48c-6.7,19.57-12.27,39.23-16.69,58.97
		c-1.9-1.43-4.39-2.74-7.46-3.93c-24.71-8.99-46.99-15.54-66.84-19.66c-3.37-5.62-10.86-8.05-22.47-7.3
		c-8.24,0.75-14.04,5.34-17.41,13.76c-3.37,8.43-6.37,23.68-8.99,45.78c-1.42,11.36-1.71,22.52-0.87,33.48
		c-0.93,1.12-2.89,4-5.87,8.64c-12.84,19.98-31.37,46.07-47.74,63.19c-4.21,4.4-13.26,13.52-17.97,10.39
		c-13.86-10.11-16.1-43.06-6.74-98.86c1.72-9.36,3.72-18.9,6.46-28.65c1.58-5.63,7.05-20.79,13.2-18.54
		c1.87,0.75,4.21,3.65,7.02,8.71c2.81,5.06,4.59,10.2,5.34,15.45c1.5,12.73,5.06,19.28,10.67,19.66c5.99,0.37,9.92-4.49,11.8-14.6
		c1.87-10.11,0.28-20.88-4.77-32.3c-5.05-11.42-13.01-18.82-23.87-22.19c-22.47-7.11-40.07,2.34-52.8,28.37
		c-12.73,26.03-17.51,55.33-14.32,87.91C77.14,553.33,87.15,574.48,104.01,584.22L104.01,584.22z M253.42,567.93
		c-10.11,3.37-16.1-16.29-17.97-58.98c-1.87-42.69-1.5-65.16,1.12-67.4c1.87,1.87,6.55,12.08,14.04,30.61
		c7.49,18.54,13.11,37.73,16.85,57.57C271.2,549.58,266.52,562.31,253.42,567.93L253.42,567.93z M348.9,473
		c0-8.99,1.5-23.4,4.49-43.25c3-19.85,8.33-40.35,16.01-61.51c7.68-21.16,16.38-31.92,26.12-32.3c4.12-0.37,7.49,2.06,10.11,7.3
		c2.62,5.24,4.03,11.05,4.21,17.41c0.19,6.37,0.09,11.98-0.28,16.85c-1.5,10.11-7.86,23.69-19.1,40.72
		c-11.23,17.04-19.94,29.3-26.12,36.79C358.17,462.52,353.02,468.51,348.9,473L348.9,473z M356.77,643.76
		c-1.12-1.12-3.09-8.33-5.9-21.63c-4.87-23.07-11.47-66.1-9.83-89.03c1.87-0.37,4.96,4.59,9.27,14.89
		c4.31,10.3,7.68,23.59,10.11,39.88C362.85,604.16,361.64,622.79,356.77,643.76L356.77,643.76z M479.22,473
		c0-8.99,1.5-23.4,4.49-43.25c3-19.85,8.33-40.35,16.01-61.51c7.68-21.16,16.38-31.92,26.12-32.3c4.12-0.37,7.49,2.06,10.11,7.3
		c2.62,5.24,4.03,11.05,4.21,17.41c0.19,6.37,0.09,11.98-0.28,16.85c-1.5,10.11-7.86,23.69-19.1,40.72
		c-11.23,17.04-19.94,29.3-26.12,36.79S483.34,468.51,479.22,473L479.22,473z M487.08,643.76c-1.12-1.12-3.09-8.33-5.9-21.63
		c-4.87-23.07-11.47-66.1-9.83-89.03c1.87-0.37,4.96,4.59,9.27,14.89c4.31,10.3,7.68,23.59,10.11,39.88
		C493.17,604.16,491.95,622.79,487.08,643.76L487.08,643.76z M598.86,457.84l2.81-25.28C608.03,443.05,607.1,451.47,598.86,457.84
		L598.86,457.84z M702.77,457.84l2.81-25.28C711.95,443.05,711.01,451.47,702.77,457.84L702.77,457.84z"/>
</g>
</svg>
