<?xml version="1.0" encoding="utf-8"?>
<!-- Generator: Adobe Illustrator 25.0.0, SVG Export Plug-In . SVG Version: 6.00 Build 0)  -->
<svg version="1.1" id="Layer_1" xmlns="http://www.w3.org/2000/svg" xmlns:xlink="http://www.w3.org/1999/xlink" x="0px" y="0px"
	 viewBox="0 0 864 864" style="enable-background:new 0 0 864 864;" xml:space="preserve">
<g>
	<path d="M91.34,311.79c1.7-3.07,3.75-6.13,6.13-8.51c3.07-3.07,6.13-3.07,9.54-0.34c4.09,3.75,7.15,8.17,9.2,13.28
		c2.72,5.79,5.11,11.92,7.15,17.71c1.02,3.07,2.38,4.43,5.79,3.75c2.38-0.34,5.11-0.68,7.49-1.02c3.41-0.68,4.77-2.72,4.43-6.47
		c-1.36-11.58-4.43-22.48-12.26-31.67c-8.86-10.56-19.75-14.64-33.38-12.26c-12.26,2.04-22.14,8.51-30.65,17.03
		c-13.28,12.94-21.46,28.61-25.88,46.32c-4.09,17.37-4.43,35.08-3.41,52.79c1.36,20.43,5.79,40.19,15.33,58.24
		c4.43,8.51,9.54,16.01,16.35,22.48c22.48,20.09,55.85,15.33,71.18-10.56c2.72-4.43,5.11-9.54,7.49-14.3
		c3.41-7.33,6.9-14.57,10.35-21.81c1.03,7.34,3.2,14.51,6.67,21.47c5.45,10.9,13.96,18.73,26.56,21.8
		c24.18,5.45,42.57-3.75,52.11-26.91c8.51-20.77,11.58-42.57,5.79-64.71c-0.34-1.36-0.34-2.72-0.34-4.09
		c1.02-0.68,1.36-0.68,1.7-0.68c2.04,0.34,4.43,0.68,6.47,1.36c16.31,3.94,32.16,2.07,47.93-1.39c-1.37,24.71,0.18,49.54,4.18,74.27
		c2.72,16.35,6.47,32.35,13.62,47.34c3.41,7.49,7.49,14.64,13.96,20.43c9.88,9.2,22.14,10.22,34.4,6.47
		c10.56-3.07,14.64-12.6,17.03-22.48c1.36-6.13,1.7-11.92,1.02-18.39c-2.38-18.05-11.92-32.01-25.54-43.93
		c-3.07-2.72-6.13-5.11-10.56-8.85c5.45-2.38,9.88-4.09,13.96-5.45c18.4-6.87,44.55-22.15,63.81-35.49
		c-0.23,20.1,1.4,40.26,4.64,60.35c2.72,16.35,6.47,32.35,13.62,47.34c3.41,7.49,7.49,14.64,13.96,20.43
		c9.88,9.2,22.14,10.22,34.4,6.47c10.56-3.07,14.64-12.6,17.03-22.48c1.36-6.13,1.7-11.92,1.02-18.39
		c-2.38-18.05-11.92-32.01-25.54-43.93c-3.07-2.72-6.13-5.11-10.56-8.85c5.45-2.38,9.88-4.09,13.96-5.45
		c16.4-6.12,38.95-18.92,57.29-31.07c0.3,2.09,0.64,4.17,0.95,6.21c3.07,19.41,9.88,37.12,22.48,52.45
		c16.01,19.07,55.17,25.2,74.59-1.02c10.83-15.03,21.81-30.07,32.46-45.19c3.48,16.98,10.11,32.54,21.35,46.21
		c16.01,19.07,55.17,25.2,74.59-1.02c16.69-23.16,33.72-46.32,49.38-69.82c1.7-2.72,4.43-5.45,0-8.17
		c-5.45-3.41-8.17-3.75-11.58,0.34c-3.07,4.09-6.13,8.51-8.85,12.6c-14.64,20.09-29.29,39.85-45.64,58.58
		c-2.72,3.07-5.45,6.13-8.85,8.51c-5.45,3.75-9.2,3.07-13.62-1.36c-3.07-3.41-5.11-6.81-6.47-10.9
		c-5.79-18.39-9.88-37.12-10.56-56.54c-0.34-4.43,1.36-6.47,6.13-7.83c26.22-7.83,40.87-26.22,44.96-53.13
		c2.38-14.99-2.04-27.59-14.64-36.1c-12.6-8.86-25.54-6.81-38.14,0.34c-11.58,6.47-19.75,16.35-25.54,27.93
		c-10.22,19.75-14.64,40.87-15.33,63.01c-0.21,2.22-0.23,4.44-0.12,6.65l-0.57,0.85c-14.64,20.09-29.29,39.85-45.64,58.58
		c-2.72,3.07-5.45,6.13-8.85,8.51c-5.45,3.75-9.2,3.07-13.62-1.36c-3.07-3.41-5.11-6.81-6.47-10.9
		c-5.79-18.39-9.88-37.12-10.56-56.54c-0.34-4.43,1.36-6.47,6.13-7.83c26.22-7.83,40.87-26.22,44.96-53.13
		c2.38-14.99-2.04-27.59-14.64-36.1c-12.6-8.86-25.54-6.81-38.14,0.34c-11.58,6.47-19.75,16.35-25.54,27.93
		c-10.22,19.75-14.64,40.87-15.33,63.01c-0.06,0.64-0.11,1.29-0.14,1.93c-7.45,6-14.84,11.97-23.36,16.12
		c-16.35,7.83-34.74,17.37-52.45,21.8c-1.02-11.24-0.34-21.46-0.34-31.67c0-9.54,0-9.54,9.2-12.6c34.4-11.24,58.58-33.38,70.5-68.11
		c5.9-17.71,12-41.3,7.15-59.6c-4.43-15.67-14.3-25.54-30.31-28.61c-11.24-2.04-21.12,1.36-30.65,6.13
		c-13.28,6.81-22.82,17.71-30.99,29.63c-12.94,19.41-22.14,40.53-28.27,63.35c-4.89,18.95-7.77,38.09-8.89,57.32
		c-10.31,7.83-19.78,16.77-31.29,22.38c-16.35,7.83-34.74,17.37-52.45,21.8c-1.02-11.24-0.34-21.46-0.34-31.67
		c0-9.54,0-9.54,9.2-12.6c34.4-11.24,58.58-33.38,70.5-68.11c2.72-8.17,5.11-16.69,6.81-25.2c4.82-26.48,1.97-56.89-29.97-63.01
		c-11.24-2.04-21.12,1.36-30.65,6.13c-13.28,6.81-22.82,17.71-30.99,29.63c-12.94,19.41-22.14,40.53-28.27,63.35
		c-3.96,15.35-6.6,30.82-8.06,46.37c-1.51,0.26-3.03,0.56-4.54,0.97c-23.5,6.47-42.91-1.7-59.26-18.39
		c-2.72-2.72-5.45-5.45-8.17-8.17c-3.75-3.75-7.49-7.15-11.58-10.22c-10.22-7.15-17.71-7.15-27.93,0.34
		c-5.79,4.43-10.56,10.22-14.64,16.69c-5.14,7.98-9.36,16.39-12.72,25.12c-12.7,23.44-24.65,51.31-37,75.69
		c-4.77,8.85-10.22,17.03-16.69,24.52c-5.11,5.45-9.54,4.77-13.62-1.36c-4.09-6.81-7.49-13.96-9.88-21.8
		c-8.51-24.52-11.58-49.72-11.92-66.75C75.67,349.93,80.1,331.2,91.34,311.79L91.34,311.79z M213.95,361.17
		c18.05,29.97,21.8,60.96,6.13,93.32c-2.04,4.43-4.77,8.17-8.17,11.58c-4.77,4.09-8.51,3.75-12.26-1.02
		c-2.72-3.06-3.75-6.81-4.77-10.56c-4.43-14.3-4.43-28.95-2.04-43.59c2.04-13.62,4.43-27.25,8.86-40.53
		c1.7-5.11,3.41-9.88,7.15-13.96C211.56,357.08,212.93,359.13,213.95,361.17L213.95,361.17z M350.52,328.13
		c2.38-16.69,7.49-33.04,12.6-49.04c3.75-12.26,9.88-23.16,18.39-32.35c9.2-10.22,18.39-8.51,23.5,4.09
		c5.79,13.62,6.81,27.93,2.72,42.23c-4.09,14.3-8.85,28.27-15.67,41.21c-9.54,17.03-23.16,28.95-40.87,36.78
		c-1.02,0.34-2.38,0.34-5.11,1.02C346.43,356.74,348.13,342.44,350.52,328.13L350.52,328.13z M369.93,506.93
		c0,4.77-1.02,9.2-3.41,12.94c-3.07,5.45-7.83,5.45-10.9,0c-1.7-3.06-2.72-6.81-3.41-10.22c-3.75-16.69-4.43-33.72-4.77-51.09
		C362.1,471.52,370.95,487.18,369.93,506.93L369.93,506.93z M476.87,328.13c2.38-16.69,7.49-33.04,12.6-49.04
		c3.75-12.26,9.88-23.16,18.39-32.35c9.2-10.22,18.39-8.51,23.5,4.09c5.79,13.62,6.81,27.93,2.72,42.23
		c-4.09,14.3-8.85,28.27-15.67,41.21c-9.54,17.03-23.16,28.95-40.87,36.78c-1.02,0.34-2.38,0.34-5.11,1.02
		C472.78,356.74,474.49,342.44,476.87,328.13L476.87,328.13z M496.28,506.93c0,4.77-1.02,9.2-3.41,12.94
		c-3.07,5.45-7.83,5.45-10.9,0c-1.7-3.06-2.72-6.81-3.41-10.22c-3.75-16.69-4.43-33.72-4.77-51.09
		C488.45,471.52,497.31,487.18,496.28,506.93L496.28,506.93z M596.07,339.71c2.04-8.86,5.45-17.03,8.51-25.54
		c1.36-2.72,2.72-5.45,6.13-5.11c4.1,0,5.05,4.65,6.47,7.49c5.79,17.71-5.11,45.98-21.12,55.85c-1.36,0.68-2.72,1.36-5.11,0.68
		C590.96,361.85,593.35,350.61,596.07,339.71L596.07,339.71z M724.47,339.71c2.04-8.86,5.45-17.03,8.51-25.54
		c1.36-2.72,2.72-5.45,6.13-5.11c4.1,0,5.05,4.65,6.47,7.49c5.79,17.71-5.11,45.98-21.12,55.85c-1.36,0.68-2.72,1.36-5.11,0.68
		C719.36,361.85,721.74,350.61,724.47,339.71L724.47,339.71z"/>
	<path d="M105.06,562.56H87.86l-17.07,42.62v-42.62H53.48v86.46h17.32v-42.62l17.07,42.62h17.19l-17.19-43.23L105.06,562.56
		L105.06,562.56z M113.59,649.01h17.32v-86.46h-17.32V649.01L113.59,649.01z M165.42,649.01c14.27,0,25.85-11.71,25.85-25.97v-4.15
		h-17.32v4.15c0,4.76-3.78,8.66-8.54,8.66c-4.88,0-8.66-3.9-8.66-8.66v-34.51c0-4.88,3.78-8.66,8.66-8.66
		c4.83,0,8.54,3.86,8.54,8.66h17.32c0-14.31-11.51-25.97-25.85-25.97c-14.39,0-25.97,11.58-25.97,25.97v34.51
		C139.44,637.31,151.03,649.01,165.42,649.01L165.42,649.01z M251.38,562.56h-17.19l-17.07,42.62v-42.62H199.8v86.46h17.32v-42.62
		l17.07,42.62h17.19l-17.19-43.23L251.38,562.56L251.38,562.56z M314.3,649.01h17.32v-86.46H314.3V649.01L314.3,649.01z
		 M374.66,605.78l-17.19-43.23h-17.32v86.46h17.32v-43.23l17.19,43.23h17.32v-86.46h-17.32V605.78L374.66,605.78z M480.87,562.56
		H454.9v86.46h25.97c14.27,0,25.85-11.58,25.85-25.97c0-6.58-2.44-12.68-6.58-17.19c4.15-4.63,6.58-10.73,6.58-17.32
		C506.72,574.26,495.14,562.56,480.87,562.56L480.87,562.56z M480.87,579.87c4.76,0,8.54,3.9,8.54,8.66s-3.78,8.66-8.54,8.66h-8.66
		v-17.32H480.87L480.87,579.87z M480.87,631.7h-8.66V614.5h8.66c4.76,0,8.54,3.78,8.54,8.54
		C489.41,627.92,485.63,631.7,480.87,631.7L480.87,631.7z M515.26,562.56v86.46h51.82v-17.19h-34.51V614.5h26.83v-17.32h-26.83
		v-17.32h34.51v-17.32H515.26L515.26,562.56z M575.62,562.56v86.46h17.32V614.5h26.83v-17.32h-26.83v-17.32h34.51v-17.32H575.62
		L575.62,562.56z M661.95,562.56c-14.39,0-25.97,11.71-25.97,25.97v34.51c0,14.39,11.58,25.97,25.97,25.97
		c14.27,0,25.85-11.58,25.85-25.97v-34.51C687.8,574.26,676.22,562.56,661.95,562.56L661.95,562.56z M670.49,623.04
		c0,4.88-3.78,8.66-8.54,8.66c-4.88,0-8.66-3.78-8.66-8.66v-34.51c0-4.76,3.78-8.66,8.66-8.66c4.76,0,8.54,3.9,8.54,8.66V623.04
		L670.49,623.04z M748.16,588.41c0-14.27-11.58-25.85-25.85-25.85c-8.66,0-17.32,0-25.97,0v86.46h17.32v-34.63h3.54l13.66,34.63
		h17.32l-14.88-37.07C742.07,607.8,748.16,598.77,748.16,588.41L748.16,588.41z M713.65,597.07v-17.32h8.66
		c4.76,0,8.54,3.9,8.54,8.66c0,4.76-3.78,8.66-8.54,8.66H713.65L713.65,597.07z M756.7,562.56v86.46h51.82v-17.19h-34.51V614.5
		h26.83v-17.32h-26.83v-17.32h34.51v-17.32H756.7L756.7,562.56z"/>
	<path d="M145.17,701.92c0-14.27-11.58-25.85-25.85-25.85c-8.66,0-17.32,0-25.97,0v86.46h17.32v-34.63h3.54l13.66,34.63h17.32
		l-14.88-37.07C139.08,721.3,145.17,712.28,145.17,701.92L145.17,701.92z M110.67,710.57v-17.32h8.66c4.76,0,8.54,3.9,8.54,8.66
		c0,4.76-3.78,8.66-8.54,8.66H110.67L110.67,710.57z M153.71,676.07v86.46h51.82v-17.19h-34.51v-17.32h26.83V710.7h-26.83v-17.32
		h34.51v-17.32H153.71L153.71,676.07z M231.38,676.07l-17.32,86.46h17.32l1.71-8.54h13.78l1.71,8.54h17.32l-17.32-86.46H231.38
		L231.38,676.07z M236.51,736.67l3.54-17.34l3.41,17.34H236.51L236.51,736.67z M291.74,676.07h-17.32v86.46h51.82V745.2h-34.51
		V676.07L291.74,676.07z M334.79,762.52h17.32v-86.46h-17.32V762.52L334.79,762.52z M360.64,676.07v17.32h17.32v69.14h17.19v-69.14
		h17.32v-17.32H360.64L360.64,676.07z M446.97,701.96l-8.66-25.89H421l17.32,51.91v34.55h17.19v-34.55l17.32-51.91h-17.32
		L446.97,701.96L446.97,701.96z M561.72,676.07h-25.97v86.46h25.97c14.27,0,25.85-11.58,25.85-25.97v-34.51
		C587.57,687.77,575.99,676.07,561.72,676.07L561.72,676.07z M570.25,736.55c0,4.88-3.78,8.66-8.54,8.66h-8.66v-51.82h8.66
		c4.76,0,8.54,3.9,8.54,8.66V736.55L570.25,736.55z M622.08,676.07c-14.39,0-25.97,11.71-25.97,25.97v34.51
		c0,14.39,11.58,25.97,25.97,25.97c14.27,0,25.85-11.58,25.85-25.97v-34.51C647.93,687.77,636.35,676.07,622.08,676.07
		L622.08,676.07z M630.61,736.55c0,4.88-3.78,8.66-8.54,8.66c-4.88,0-8.66-3.78-8.66-8.66v-34.51c0-4.76,3.78-8.66,8.66-8.66
		c4.76,0,8.54,3.9,8.54,8.66V736.55L630.61,736.55z M656.47,676.07v86.46h51.82v-17.19h-34.51v-17.32h26.83V710.7h-26.83v-17.32
		h34.51v-17.32H656.47L656.47,676.07z M742.8,693.38c4.76,0,8.54,3.9,8.54,8.66h17.32c0-14.27-11.58-25.97-25.85-25.97
		c-14.39,0-25.97,11.71-25.97,25.97c0,19.75,14.88,23.41,23.78,25.61c9.63,2.44,10.73,3.41,10.73,8.9c0,4.88-3.78,8.66-8.54,8.66
		c-4.88,0-8.66-3.78-8.66-8.66h-17.32c0,14.39,11.58,25.97,25.97,25.97c14.27,0,25.85-11.58,25.85-25.97
		c0-19.63-14.88-23.41-23.78-25.61c-9.63-2.44-10.73-3.29-10.73-8.9C734.14,697.28,737.92,693.38,742.8,693.38L742.8,693.38z"/>
	<path d="M198.08,125.22l-6.87,56.32l-29.94-48.15l-18.47,4.1l20.49,92.22l18.47-4.1l-8.89-39.99l18.12,37.94l18.34-4.07l0,0
		l0.35-42.05l8.89,39.99l18.47-4.1l-20.49-92.22L198.08,125.22L198.08,125.22z M263.37,113.65l-7.04,96.08l18.77-2.35l0.69-9.49
		l14.94-1.87l3.01,9.02l18.77-2.35l-30.5-91.38L263.37,113.65L263.37,113.65z M277.14,178.66l1.48-19.28l6.05,18.33L277.14,178.66
		L277.14,178.66z M345.76,134.09l-11.02-27.72l-18.89,1.05L337.9,163l2.1,37.69l18.76-1.05l-2.1-37.69l15.73-57.68l-18.89,1.05
		L345.76,134.09L345.76,134.09z M451.9,131.21l-8.52-28.59L424.47,102l17.03,57.31l-1.25,37.73l18.78,0.62l1.25-37.73l20.79-56.06
		l-18.91-0.63L451.9,131.21L451.9,131.21z M534.5,109.26c-15.64-1.58-29.52,9.88-31.08,25.39l-3.78,37.52
		c-1.58,15.64,9.75,29.5,25.39,31.08c15.51,1.56,29.37-9.76,30.95-25.41l3.78-37.52C561.32,124.82,550.01,110.83,534.5,109.26
		L534.5,109.26z M537.16,175.95c-0.53,5.3-5.06,9-10.23,8.48c-5.3-0.53-9-5.06-8.46-10.36l3.78-37.52c0.52-5.17,5.06-9,10.36-8.46
		c5.17,0.52,8.85,5.18,8.33,10.35L537.16,175.95L537.16,175.95z M614.19,186.77c-0.9,5.25-5.66,8.63-10.78,7.76
		c-5.25-0.9-8.63-5.66-7.73-10.92l11.12-65.14l-18.65-3.18l-11.12,65.14c-2.64,15.5,7.7,30.1,23.2,32.75
		c15.37,2.62,29.97-7.72,32.62-23.22l11.12-65.14l-18.65-3.18L614.19,186.77L614.19,186.77z M718.23,172.46
		c4.04-15.06-4.9-30.56-19.95-34.61l-9.14-2.45l-18.27-4.91l-24.5,91.23l18.27,4.91l9.82-36.54l3.73,1l4.6,40.41l18.27,4.91
		l-5.19-43.33C706.3,191.19,715.29,183.4,718.23,172.46L718.23,172.46z M679.36,171.82l4.91-18.27l9.14,2.45
		c5.02,1.35,7.9,6.54,6.55,11.56c-1.35,5.02-6.44,8.06-11.46,6.72L679.36,171.82L679.36,171.82z"/>
</g>
</svg>
