<?xml version="1.0" encoding="utf-8"?>
<!-- Generator: Adobe Illustrator 25.0.0, SVG Export Plug-In . SVG Version: 6.00 Build 0)  -->
<svg version="1.1" id="Layer_1" xmlns="http://www.w3.org/2000/svg" xmlns:xlink="http://www.w3.org/1999/xlink" x="0px" y="0px"
	 viewBox="0 0 864 864" style="enable-background:new 0 0 864 864;" xml:space="preserve">
<g>
	<path d="M82.98,165.81c0,0-10.3,0.9-24.76,0.9c-3.61-0.18-20.96-1.08-20.96-1.08l-0.9,9.76l13.91,2.35
		c0.36,2.35,1.63,10.66,1.63,13.73v77.88c0,3.07-1.26,11.38-1.63,13.73L36,285.97l0.9,9.03c0,0,17.71-0.9,21.32-0.9
		c14.46,0,26.38,0.9,26.38,0.9l1.26-10.66l-16.26-1.26c-0.36-2.53-1.26-11.56-1.26-19.18v-67.16c0-7.62,0.9-16.65,1.26-19.18
		l14.09-1.26L82.98,165.81L82.98,165.81z M193.39,164.9c-8.31,0-23.31,1.45-33.07,1.81c-5.96-0.36-18.07-0.9-18.07-0.9l-0.9,9.76
		l13.91,2.17c0.36,2.53,1.63,10.84,1.63,13.73v77.88c0,3.07-1.26,11.38-1.63,13.73l-14.28,2.89l0.9,9.03c0,0,17.71-0.9,21.32-0.9
		c14.46,0,26.38,0.9,26.38,0.9l1.26-10.66l-16.26-1.26c-0.36-2.53-1.27-11.56-1.27-19.15v-24.39c4.88,0.18,10.66,0.18,15.9,0.18
		h1.26l17.71,33.43c2.35,4.34,9.94,20.96,9.94,20.96c14.46,0,28.55,0.9,28.55,0.9l1.26-10.66l-13.01-1.26
		c-2.89-3.98-7.23-9.94-8.85-12.65c-1.08-1.45-10.3-16.44-19.15-33.43c15.36-5.06,26.38-16.99,26.38-34.69
		C233.32,177.37,218.14,164.9,193.39,164.9L193.39,164.9z M185.8,173.94c18.61,0,30.54,9.58,30.54,28.55
		c0,18.97-12.11,28.19-30.72,28.19c-3.25,0-7.77-0.36-12.29-0.72v-33.07c0-7.95,0.72-17.35,1.45-21.86
		C179.29,174.48,183.63,173.94,185.8,173.94L185.8,173.94z M377.34,165.81c0,0-9.22,0.9-23.67,0.9c-3.61-0.18-19.15-1.08-19.15-1.08
		l-0.9,9.76l14.09,2.35c0.36,2.53,1.81,11.56,1.81,14.64v53.67c0,22.77-10.48,39.21-32.16,39.21c-20.78,0-31.08-16.26-31.08-39.21
		v-48.25c0-7.77,0.9-17.35,1.26-20.06l14.27-1.26l-0.72-10.84c0,0-11.56,0.9-26.02,0.9c-3.61,0.18-20.96-0.72-20.96-0.72l-0.9,9.76
		l14.28,1.99c0.36,2.71,1.63,11.56,1.63,14.67v53.82c0,30.9,15.72,50.78,46.62,50.78s46.8-19.88,46.8-50.78v-48.25
		c0-7.77,0.9-17.35,1.26-20.06l14.28-1.26L377.34,165.81L377.34,165.81z M515.39,165.81c0,0-13.91,0.9-28.19,0.9l-14.82-0.36
		l-1.08,10.84l14.28,1.08c0.54,3.25,1.63,12.11,1.63,15v71.38l-47.34-66.32c-2.71-3.98-17.53-28.01-17.53-28.01l-3.61-3.79
		l-7.95,0.18c-3.61,0-20.96-0.9-20.96-0.9l-0.9,9.76l14.46,2.17c0.36,2.71,1.63,10.84,1.63,13.73v77.88
		c0,3.07-1.26,11.38-1.63,13.73l-14.28,2.89l0.9,9.03c0,0,15.9-0.9,19.52-0.9c14.46,0,22.23,0.9,22.23,0.9l1.26-10.66l-14.64-1.26
		c-0.36-2.53-1.26-11.56-1.26-19.15v-70.29l71.2,101.73h10.84c0,0,0.18-47.7,0.18-54.93v-41.74c0-7.23,1.99-16.99,2.71-20.42
		l14.28-2.89L515.39,165.81L515.39,165.81z M685.61,230.5c0-39.39-20.06-66.5-59.27-66.5c-39.21,0-59.27,27.1-59.27,66.5
		c0,39.21,20.06,66.32,59.27,66.32C665.55,296.81,685.61,269.71,685.61,230.5L685.61,230.5z M586.41,230.5
		c0-31.62,13.01-56.92,39.93-56.92c26.92,0,39.93,25.3,39.93,56.92c0,31.44-13.01,56.74-39.93,56.74
		C599.42,287.24,586.41,261.94,586.41,230.5L586.41,230.5z M827.1,165.81c0,0-13.91,0.9-28.19,0.9l-14.82-0.36l-1.08,10.84
		l14.28,1.08c0.54,3.25,1.63,12.11,1.63,15v71.38l-47.34-66.32c-2.71-3.98-17.53-28.01-17.53-28.01l-3.61-3.79l-7.95,0.18
		c-3.61,0-20.96-0.9-20.96-0.9l-0.9,9.76l14.46,2.17c0.36,2.71,1.63,10.84,1.63,13.73v77.88c0,3.07-1.26,11.38-1.63,13.73
		l-14.28,2.89l0.9,9.03c0,0,15.9-0.9,19.52-0.9c14.46,0,22.23,0.9,22.23,0.9l1.26-10.66l-14.64-1.26
		c-0.36-2.53-1.26-11.56-1.26-19.15v-70.29l71.2,101.73h10.84c0,0,0.18-47.7,0.18-54.93v-41.74c0-7.23,1.99-16.99,2.71-20.42
		l14.28-2.89L827.1,165.81L827.1,165.81z"/>
	<path d="M130.04,597.89c-6.36,8.59-12.09,17.18-14.63,27.67c-2.23,9.54,2.54,15.59,12.4,16.22c8.91,0.64,16.54-2.23,23.85-6.68
		c2.23-1.27,4.45-2.86,7-4.13c0.64,1.91,0.32,3.18,0.32,4.77c0.32,9.86,0,19.4,0.95,29.26c0.64,8.59,4.45,11.77,12.72,10.18
		c2.86-0.32,4.45-1.59,4.77-5.09c2.23-16.54,3.82-33.4,5.09-50.25c0.64-7-1.59-9.86-8.91-10.5c-6.36-0.64-11.77,0.95-16.54,5.73
		c-6.04,6.04-13.36,11.45-21.31,15.59c-0.32-1.91,0.32-2.86,0.64-4.13c2.86-6.68,6.36-12.72,10.18-18.77
		c5.73-9.54,12.72-18.45,20.04-26.72c1.59-1.59,3.5-3.5,2.23-6.04c-0.95-2.86-3.5-3.5-6.04-3.82c-5.09-0.64-9.86,0-14.31,2.23
		c-7.63,4.13-15.59,7.63-23.22,11.45c-1.91,0.95-4.13,1.59-7,2.86c0.95-1.59,1.27-2.23,1.59-2.54
		c9.86-13.99,21.63-25.76,35.62-35.62c2.86-1.59,5.41-2.86,8.91-2.86c2.86,0,6.36-0.64,6.36-4.45c0.32-12.09,0-23.85-1.59-35.62
		c-0.32-2.54-1.59-4.13-4.45-4.45c-5.09-0.95-7.63,0.64-8.59,5.73c-1.91,8.91-2.23,17.49-2.54,26.4c-0.11,6.05-1.62,1.7-13.36,8.91
		c-11.13,7-20.99,15.27-29.9,25.13c-4.77,5.41-9.54,10.81-12.4,17.49c-2.86,7.63,0.64,12.72,8.59,13.36
		c6.36,0.32,12.72-0.32,18.77-2.86C132.92,592.47,134.02,591.25,130.04,597.89L130.04,597.89z M707.01,593.75
		c-4.13-15.9-10.5-30.85-15.27-46.76c-2.23-7.32-3.18-14.63-0.95-22.26c0.95-2.54,1.27-6.36,3.5-6.36c2.54-0.32,3.5,3.18,4.77,5.41
		c4.77,8.59,7.32,18.13,8.91,27.67c0.32,2.54,1.59,3.82,3.5,4.77c3.82,1.27,7.63,1.27,11.77-0.32c2.23-0.95,3.18-2.54,3.18-5.09
		c-0.64-12.09-3.18-23.85-9.54-34.35c-6.04-10.18-15.59-13.04-26.72-12.4c-11.45,0.95-18.13,7.32-21.95,17.81
		c-4.29,11.81-1.3,22.82,2.37,33.85c-5.8,3.1-11.89,3.61-18.27,2.09c-12.4-2.86-23.54-7-30.85-18.13
		c-2.23-3.18-5.73-6.68-10.18-7.63c-6.68-1.27-12.72,0-16.86,6.04c-2.23,3.18-4.14,6.68-5.41,10.18
		c-6.68,16.22-8.59,33.4-8.91,50.89c-0.24,6.27,0.07,12.55,0.78,18.82c-6.54,20.36-14.17,40.51-24,59.66
		c-1.91,3.82-4.13,7.95-7.95,11.13c-1.27-1.59-1.91-3.5-2.23-5.09c-3.5-9.86-4.77-20.36-5.73-30.85
		c-1.91-19.4-1.91-39.12-0.64-58.52c0.32-9.22,1.27-18.13,2.23-27.35c0.64-8.59,1.59-17.18,2.23-25.76
		c0.32-1.91,0.32-3.82-0.95-5.41c-5.73-6.04-20.36-3.18-22.9,4.77c-0.64,1.59-1.27,3.18-1.59,5.09c-0.64,1.91-1.59,2.86-4.14,2.54
		c-12.09-1.27-21.63,3.82-28.94,13.36c-15.27,19.4-23.54,41.35-21.31,66.48c0.36,5.56,2.03,10.41,4.79,13.81
		c-0.71,0.48-1.32,1.17-1.93,2.08c-0.95,1.91-2.54,3.82-3.82,5.73c-1.59,2.23-3.18,1.91-4.77-0.32c-3.82-5.09-6.04-11.13-7.95-17.18
		c-3.18-11.45-4.77-23.54-7.32-34.99c-2.23-9.86-4.13-19.4-7.95-28.63c-2.23-4.77-5.73-8.59-10.81-9.86
		c-9.54-2.23-17.18,0.32-22.9,8.27c-3.5,5.09-6.36,10.5-8.91,16.22c-0.64,1.27-0.95,2.54-2.23,3.5c0-0.95,0.32-1.59,0.32-2.54
		c1.91-21.63,5.09-42.94,9.22-64.25c1.27-8.59,3.5-17.18,4.13-25.76c0.32-4.13-1.91-6.04-5.41-7c-8.91-2.54-14.63,0.64-18.45,10.18
		c-13.68,35.31-18.77,72.52-21.31,110.05c-0.32,5.39-0.56,10.81-0.71,16.26c-6.45,11.83-14.16,22.8-23.15,33.13
		c-6.68,7.63-13.68,14.95-22.26,20.67c-4.77,2.86-5.73,2.54-9.54-1.59c-4.13-4.77-7-10.81-9.54-16.86
		c-8.27-22.26-8.59-45.17-3.5-68.07c3.5-16.86,8.91-32.44,18.77-46.76c2.54-3.82,2.86-3.82,5.09,0.64
		c3.18,7.32,4.77,15.27,6.68,22.9c0.64,3.18,2.23,5.09,5.09,5.73c3.5,0.64,7,0.95,10.18-1.59c0.95-0.64,0.95-1.59,0.95-2.54
		c0-11.45-1.59-22.58-7-32.76c-2.86-5.73-7.95-8.59-14.31-9.22c-8.59-0.64-16.22,1.59-22.58,7.63c-3.82,3.82-7.32,8.27-9.86,12.72
		c-12.4,21.63-17.81,44.85-19.08,69.34c-1.4,16.79,8.27,43.72,17.49,57.25c11.13,16.22,32.12,17.81,45.8,4.77
		c11.99-11.26,22.31-23.66,30.75-37.27c0.36,14.88,1.9,31.87,5.83,46.08c0.95,3.5,2.54,6.36,6.36,7.32
		c4.45,1.59,8.91,1.59,13.68,0.32c2.86-0.95,4.45-2.86,4.45-6.36c0.32-11.13,0.64-22.26,1.59-33.4
		c1.91-23.85,7.63-46.44,18.13-68.07c1.91-4.45,4.13-8.59,7.63-12.72c2.54,7.63,4.13,14.95,6.04,22.26
		c3.5,14.95,7.63,29.58,15.27,42.94c3.18,5.41,6.36,10.81,11.45,14.63c8.91,6.68,20.04,4.45,25.45-5.09c1.28-2.08,0.99-2,1.61-3.21
		c0.51,0.15,1.03,0.27,1.57,0.36c11.13,2.23,17.49,0.64,23.86-8.91c6.26-9.39,10.08-19.97,14.63-30.22
		c0.64,1.27,0.64,2.54,0.64,3.82c0.32,16.86,1.27,33.72,4.77,50.25c2.23,10.18,4.77,20.36,10.81,28.94
		c7,10.18,20.36,10.18,27.67,0.64c1.91-2.54,3.5-5.41,4.77-8.27c7.24-15.88,13.39-32.06,18.65-48.52c1.62,6.41,3.92,12.6,7.43,18.38
		c3.5,5.73,8.59,8.59,15.27,8.91c9.54,0.64,15.27-4.13,19.08-12.09c7.32-14.63,9.22-30.53,8.91-46.76
		c-0.64-13.68-2.54-27.04-6.68-40.08c-0.64-2.23,0-2.86,2.23-1.91c6.04,2.23,12.72,3.5,19.4,4.13c7.99,0.86,15.98,0.69,23.5-2.34
		c6.93,20.58,13.89,40.94,16.89,62.45c0.64,3.18,0.32,5.09-2.23,7.32c-6.04,5.73-12.09,11.77-17.49,18.45
		c-7.32,9.22-13.68,18.77-16.22,30.53c-2.23,10.18,1.59,17.81,10.5,19.08c7.63,1.27,15.27,0.64,22.26-3.5
		c6.68-3.82,12.09-8.59,16.54-14.63c12.72-17.49,13.36-36.9,10.5-57.25c-0.64-3.18,0-5.41,2.54-7.63
		c15.59-14.63,32.12-28.94,48.66-42.62c0.95-0.95,2.86-1.91,1.91-3.82c-0.95-1.27-2.86-1.27-4.45-1.27
		c-1.27,0.32-2.54,0.95-3.5,1.91c-7,5.41-14.31,10.5-20.99,16.22c-8.91,7-17.49,14.63-26.72,21.95
		C709.88,604.25,708.29,599.16,707.01,593.75L707.01,593.75z M674.89,687.9c-1.27,1.27-2.54,3.18-4.13,2.54
		c-3.16-1.58-1.68-9.22-1.27-12.09c2.23-9.54,13.36-27.04,21.95-34.35C691.75,661.18,687.93,676.13,674.89,687.9L674.89,687.9z
		 M615.73,635.42c-1.59,4.45-3.5,8.91-6.68,13.04c-3.18-7-4.13-13.99-5.09-21.31c-1.91-14.63-2.23-29.26-0.95-44.21
		c0.95-9.54,2.23-19.08,4.77-28.31c0.32-0.95,0-2.54,1.59-2.54c1.27,0,1.59,1.27,1.91,2.23c4.13,9.86,7,20.04,8.59,30.53
		C622.09,602.02,621.77,618.88,615.73,635.42L615.73,635.42z M487.87,628.66c-3.5-17.18,11.45-60.43,27.35-70.61
		C506.95,582.54,498.68,605.76,487.87,628.66L487.87,628.66z"/>
	<path d="M154.61,436.98l-13.27,0.45c0,0,0,8.32-0.45,10.57c0,2.25-1.57,7.42-3.15,12.6c-9.45,2.92-21.37,4.95-30.6,4.95
		c-32.17,0-47.92-30.82-47.92-69.74c0-38.92,15.75-69.52,48.14-69.52c8.55,0,19.57,2.25,28.35,5.17c1.35,4.5,2.7,9.22,2.7,11.25
		v10.57l13.27,0.9l2.25-33.3c-14.17-3.6-28.12-7.65-46.57-7.65c-47.24,0-71.31,33.74-71.31,82.79c0,49.04,24.07,82.56,71.31,82.56
		c18.22,0,34.42-4.05,48.59-7.65L154.61,436.98L154.61,436.98z M314.12,396.04c0-49.04-24.97-82.79-73.79-82.79
		c-48.82,0-73.79,33.74-73.79,82.79c0,48.82,24.97,82.56,73.79,82.56C289.15,478.6,314.12,444.86,314.12,396.04L314.12,396.04z
		 M190.61,396.04c0-39.37,16.2-70.87,49.72-70.87c33.52,0,49.72,31.5,49.72,70.87c0,39.14-16.2,70.64-49.72,70.64
		C206.81,466.68,190.61,435.18,190.61,396.04L190.61,396.04z M436.72,314.38c0,0-21.15,2.25-25.65,2.25h-50.39
		c-4.5,0-26.1-1.12-26.1-1.12l-1.12,12.15l17.32,2.7c0.45,2.92,2.02,13.27,2.02,17.1v96.96c0,3.82-1.57,14.17-2.02,17.1l-17.77,3.6
		l1.12,11.25c0,0,22.05-1.12,26.55-1.12c18,0,35.1,1.12,35.1,1.12l1.57-13.27l-22.5-1.57c-0.45-3.15-1.57-14.4-1.57-23.85v-35.99
		c7.3-0.86,14.27-0.67,21.6-0.67c4.5,0,18,1.35,18,1.35l2.02,15.07l10.8-1.35c0,0-0.67-13.27-0.67-24.52c0-4.5,0.22-18.9,0.22-18.9
		l-10.35-1.12l-2.02,14.85c0,0-9,2.02-13.5,2.02c-8.81,0-17.29,0.07-26.1-0.45v-33.74c0-8.77,1.12-20.25,1.57-24.97h29.47
		c6.3,0,13.27,0.67,18.22,1.12c2.25,2.92,4.27,6.07,4.5,7.65c0.9,3.37,2.02,8.55,2.47,12.15l13.05-1.12l-1.58-30.6L436.72,314.38
		L436.72,314.38z M560.91,314.38c0,0-21.15,2.25-25.65,2.25h-50.39c-4.5,0-26.1-1.12-26.1-1.12l-1.12,12.15l17.32,2.7
		c0.45,2.92,2.02,13.27,2.02,17.1v96.96c0,3.82-1.57,14.17-2.02,17.1l-17.77,3.6l1.12,11.25c0,0,22.05-1.12,26.55-1.12
		c18,0,35.1,1.12,35.1,1.12l1.57-13.27l-22.5-1.57c-0.45-3.15-1.57-14.4-1.57-23.85v-35.99c7.3-0.86,14.27-0.67,21.6-0.67
		c4.5,0,18,1.35,18,1.35l2.02,15.07l10.8-1.35c0,0-0.67-13.27-0.67-24.52c0-4.5,0.22-18.9,0.22-18.9l-10.35-1.12l-2.02,14.85
		c0,0-9,2.02-13.5,2.02c-8.81,0-17.29,0.07-26.1-0.45v-33.74c0-8.77,1.12-20.25,1.57-24.97h29.47c6.3,0,13.27,0.67,18.22,1.12
		c2.25,2.92,4.27,6.07,4.5,7.65c0.9,3.37,2.02,8.55,2.48,12.15l13.05-1.12l-1.57-30.6L560.91,314.38L560.91,314.38z M581.83,327.65
		l17.32,2.7c0.45,2.92,2.02,13.27,2.02,17.1v96.96c0,3.82-1.57,14.17-2.02,17.1l-17.77,3.6l1.12,11.25c0,0,22.05-1.12,26.55-1.12
		h53.32c4.5,0,25.65,0.9,25.65,0.9l4.27-4.05l3.37-33.97l-12.37-1.12c-0.45,3.6-2.7,11.7-3.37,15.07c-0.45,2.02-2.47,5.17-4.72,8.32
		c-4.95,0.9-12.6,2.02-19.57,2.02h-32.4c-0.45-4.27-1.57-15.75-1.57-24.75v-37.79c7.3-0.86,14.27-0.67,21.6-0.67
		c4.5,0,18,1.35,18,1.35l2.02,15.07l10.8-1.35c0,0-0.68-13.27-0.68-24.52c0-4.5,0.22-18.9,0.22-18.9l-10.35-1.12l-2.02,14.85
		c0,0-9,2.02-13.5,2.02c-8.81,0-17.29,0.07-26.1-0.45v-31.95c0-8.77,1.12-20.25,1.57-24.97h29.47c6.3,0,13.27,0.67,18.22,1.12
		c2.25,2.92,4.27,6.07,4.5,7.65c0.9,3.37,2.02,8.55,2.47,12.15l13.05-1.12l-1.57-30.6l-4.27-4.05c0,0-21.15,2.25-25.65,2.25h-50.39
		c-4.5,0-26.1-1.12-26.1-1.12L581.83,327.65L581.83,327.65z M714.11,327.65l17.32,2.7c0.45,2.92,2.02,13.27,2.02,17.1v96.96
		c0,3.82-1.57,14.17-2.02,17.1l-17.77,3.6l1.12,11.25c0,0,22.05-1.12,26.55-1.12h53.32c4.5,0,25.65,0.9,25.65,0.9l4.27-4.05
		l3.37-33.97l-12.37-1.12c-0.45,3.6-2.7,11.7-3.37,15.07c-0.45,2.02-2.47,5.17-4.72,8.32c-4.95,0.9-12.6,2.02-19.57,2.02h-32.4
		c-0.45-4.27-1.57-15.75-1.57-24.75v-37.79c7.3-0.86,14.27-0.67,21.6-0.67c4.5,0,18,1.35,18,1.35l2.02,15.07l10.8-1.35
		c0,0-0.68-13.27-0.68-24.52c0-4.5,0.22-18.9,0.22-18.9l-10.35-1.12l-2.02,14.85c0,0-9,2.02-13.5,2.02c-8.81,0-17.29,0.07-26.1-0.45
		v-31.95c0-8.77,1.12-20.25,1.57-24.97h29.47c6.3,0,13.27,0.67,18.22,1.12c2.25,2.92,4.27,6.07,4.5,7.65
		c0.9,3.37,2.02,8.55,2.47,12.15l13.05-1.12l-1.57-30.6l-4.27-4.05c0,0-21.15,2.25-25.65,2.25h-50.39c-4.5,0-26.1-1.12-26.1-1.12
		L714.11,327.65L714.11,327.65z"/>
</g>
</svg>
