<?xml version="1.0" encoding="utf-8"?>
<!-- Generator: Adobe Illustrator 25.0.0, SVG Export Plug-In . SVG Version: 6.00 Build 0)  -->
<svg version="1.1" id="Layer_1" xmlns="http://www.w3.org/2000/svg" xmlns:xlink="http://www.w3.org/1999/xlink" x="0px" y="0px"
	 viewBox="0 0 864 864" style="enable-background:new 0 0 864 864;" xml:space="preserve">
<style type="text/css">
	.st0{fill-rule:evenodd;clip-rule:evenodd;}
</style>
<g>
	<path class="st0" d="M72,334.46h11.92v95.32H72v19.1h69.22l19.1-19.1v-45.2l-11.91-9.64l11.91-9.46v-31.02l-19.1-19.1H72V334.46
		L72,334.46z M103.02,429.78v-45.2h38.2v45.2H103.02L103.02,429.78z M103.02,334.46h38.2v31.02h-38.2V334.46L103.02,334.46z
		 M178.48,429.78v19.1h88.13v-38.2h-19.1v19.1H209.5v-38.01h45.2v-19.1h-45.2v-38.2h38.01v19.1h19.1v-38.2h-88.13v19.1h11.92v95.32
		H178.48L178.48,429.78z M303.87,448.88h38.01l19.1-19.1v-19.1h-19.1v19.1h-38.01v-95.32h30.83c-1.82-6.26-2.99-12.64-3.76-19.1
		h-27.06l-19.1,19.1v95.32L303.87,448.88L303.87,448.88z M375.36,448.88h42.93v-19.1h-9.27l4.54-16.64h33.29l4.54,16.64h-11.73v19.1
		h42.93v-19.1h-12.1l-14.37-53.34c-17.72-4.96-21.49-19.42-27.75-37.74c-0.22-0.65-0.43-1.3-0.64-1.94
		c-4.15,12.03-11.32,23.49-21.19,31.35l-16.62,61.67h-14.56V448.88L375.36,448.88z M430.21,350.91l11.73,43.12h-23.45L430.21,350.91
		L430.21,350.91z M503.21,364.26v65.52l19.1,19.1h38.01l19.1-19.1v-94.75h11.91v-19.1h-42.93v19.1h11.91v94.75h-38.01v-94.75h11.92
		v-19.1h-9.99c-0.21,3.4-0.65,6.82-1.31,10.23C520.24,339.93,513.51,354.14,503.21,364.26L503.21,364.26z M609.5,429.78l18.91,19.1
		h38.2l19.1-19.1v-38.01l-19.1-19.1h-38.2v-38.2h38.2v19.1h19.1v-19.1l-19.1-19.1h-38.2l-18.91,19.1v38.2l18.91,19.1h38.2v38.01
		h-38.2v-19.1H609.5V429.78L609.5,429.78z M703.87,429.78v19.1H792v-38.2h-19.1v19.1h-38.01v-38.01h45.2v-19.1h-45.2v-38.2h38.01
		v19.1H792v-38.2h-88.13v19.1h11.92v95.32H703.87L703.87,429.78z"/>
	<path d="M108.82,576.18V559.8h-9.89v-30.66h32.6l16.38-16.38v-34.71l-16.38-16.38h-59.2v16.38h10.22v81.75H72v16.38H108.82
		L108.82,576.18z M131.53,478.05v34.71h-32.6v-34.71H131.53L131.53,478.05z M163.48,478.54h10.22v81.26l16.38,16.38h32.6
		l16.38-16.38v-81.26h10.22v-16.38h-36.82v16.38h10.22v81.26h-32.6v-81.26h10.22v-16.38h-36.82V478.54L163.48,478.54z
		 M275.07,478.05v81.75h-10.22v16.38h36.66V559.8h-10.22v-64.39l45.09,80.77h26.44V559.8H352.6v-81.75h10.22v-16.38h-36.66v16.38
		h10.22v65.85l-45.09-82.23h-26.44v16.38H275.07L275.07,478.05z M394.78,576.18h32.6l16.38-16.38v-16.38h-16.38v16.38h-32.6v-81.75
		h32.6v16.38h16.38v-16.38l-16.38-16.38h-32.6l-16.38,16.38v81.75L394.78,576.18L394.78,576.18z M496.15,576.18V559.8h-10.22v-32.6
		h32.76v32.6h-10.22v16.38h36.66V559.8h-10.22v-81.75h10.22v-16.38h-36.66v16.38h10.22v32.76h-32.76v-32.76h10.22v-16.38h-36.82
		v16.38h10.22v81.75h-10.22v16.38H496.15L496.15,576.18z M560.71,461.67v16.38h10.87v81.75h-10.87v16.38h36.82V559.8h-9.57v-81.75
		h9.57v-16.38H560.71L560.71,461.67z M623.31,478.05v81.75H613.1v16.38h36.66V559.8h-10.22v-64.39l45.09,80.77h26.44V559.8h-10.22
		v-81.75h10.22v-16.38h-36.66v16.38h10.22v65.85l-45.09-82.23H613.1v16.38H623.31L623.31,478.05z M743.02,576.18h32.6L792,559.8
		v-48.98h-32.76v16.38h16.38v32.6h-32.6v-81.75h32.6v16.38H792v-16.38l-16.38-16.38h-32.6l-16.38,16.38v81.75L743.02,576.18
		L743.02,576.18z"/>
	<path d="M109.27,704.89v-16.58H99.26v-31.03h33l16.58-16.58v-35.14l-16.58-16.58H72.33v16.58h10.34v82.75H72v16.58H109.27
		L109.27,704.89z M132.26,605.55v35.14h-33v-35.14H132.26L132.26,605.55z M164.61,688.31v16.58h76.51v-33.17h-16.58v16.58h-33v-33
		h39.24v-16.58h-39.24v-33.17h33v16.58h16.58v-33.17h-76.51v16.58h10.34v82.75H164.61L164.61,688.31z M273.31,588.97l-16.42,16.42
		v82.92l16.42,16.58h33.17l16.58-16.58v-82.92l-16.58-16.42H273.31L273.31,588.97z M306.64,688.31h-33.17v-82.92h33.17V688.31
		L306.64,688.31z M376.09,704.89v-16.58h-10.01v-31.03h33l16.58-16.58v-35.14l-16.58-16.58h-59.93v16.58h10.35v82.75h-10.67v16.58
		H376.09L376.09,704.89z M399.08,605.55v35.14h-33v-35.14H399.08L399.08,605.55z M431.43,588.97v16.58h10.34v82.75h-10.34v16.58
		h76.51v-33.17h-16.58v16.58h-33v-82.75h10.34v-16.58H431.43L431.43,588.97z M523.7,688.31v16.58h76.51v-33.17h-16.58v16.58h-33v-33
		h39.24v-16.58h-39.24v-33.17h33v16.58h16.58v-33.17H523.7v16.58h10.34v82.75H523.7L523.7,688.31z M672.79,588.97v16.58h11v82.75
		h-11v16.58h37.27v-16.58h-9.69v-82.75h9.69v-16.58H672.79L672.79,588.97z M725.83,688.31l16.42,16.58h33.17L792,688.31v-33
		l-16.58-16.58h-33.17v-33.17h33.17v16.58H792v-16.58l-16.58-16.58h-33.17l-16.42,16.58v33.17l16.42,16.58h33.17v33h-33.17v-16.58
		h-16.42V688.31L725.83,688.31z"/>
	<path d="M72,717.68v10.33h6.44v51.56H72v10.33h23.22v-10.33h-6.45v-20.56h24.45v-10.33H88.78v-20.66h20.56v10.33h10.33v-20.66H72
		L72,717.68z M129.5,717.68v10.33h6.44v51.56h-6.44v10.33h23.22v-10.33h-6.45v-19.34h20.67v19.34h-6.45v10.33h23.12v-10.33h-6.44
		v-19.34l-6.44-5.12l6.44-5.22v-21.89l-10.23-10.33H129.5L129.5,717.68z M166.94,728.02v21.89h-20.67v-21.89H166.94L166.94,728.02z
		 M203.67,717.68l-10.23,10.23v51.66l10.23,10.33h20.66l10.33-10.33v-51.66l-10.33-10.23H203.67L203.67,717.68z M224.43,779.58
		h-20.66v-51.66h20.66V779.58L224.43,779.58z M251.85,728.02l13.3,61.89h10.33l10.33-48.08l10.23,48.08h10.33l13.3-61.89h6.04
		v-10.33h-23.22v10.33h6.96l-8.18,37.85l-10.33-48.18H280.6l-10.33,48.18l-8.08-37.85h5.52v-10.33h-23.22v10.33H251.85
		L251.85,728.02z M341.98,728.02v51.56h-6.44v10.33h23.12v-10.33h-6.44v-40.61l28.44,50.95h16.67v-10.33h-6.44v-51.56h6.44v-10.33
		H374.2v10.33h6.44v41.53l-28.44-51.87h-16.67v10.33H341.98L341.98,728.02z M407.14,779.58v10.33h47.67v-20.66h-10.33v10.33h-20.56
		v-20.56h24.45v-10.33h-24.45v-20.66h20.56v10.33h10.33v-20.66h-47.67v10.33h6.44v51.56H407.14L407.14,779.58z M464.64,717.68v10.33
		h6.44v51.56h-6.44v10.33h37.34l10.33-10.33v-51.56l-10.33-10.33H464.64L464.64,717.68z M501.98,728.02v51.56h-20.56v-51.56H501.98
		L501.98,728.02z M557.52,728.32h6.44v51.25l10.33,10.33h20.56l10.33-10.33v-51.25h6.44v-10.33h-23.22v10.33h6.44v51.25H574.3
		v-51.25h6.45v-10.33h-23.22V728.32L557.52,728.32z M644.69,789.91v-10.33h-6.24v-19.34h20.56l10.33-10.33v-21.89l-10.33-10.33
		h-37.34v10.33h6.44v51.56h-6.65v10.33H644.69L644.69,789.91z M659.01,728.02v21.89h-20.56v-21.89H659.01L659.01,728.02z
		 M689.39,717.68l-10.23,10.23v51.66l10.23,10.33h20.66l10.33-10.33v-51.66l-10.33-10.23H689.39L689.39,717.68z M710.16,779.58
		H689.5v-51.66h20.66V779.58L710.16,779.58z M736.66,728.02v51.56h-6.44v10.33h23.12v-10.33h-6.44v-40.61l28.44,50.95H792v-10.33
		h-6.44v-51.56H792v-10.33h-23.12v10.33h6.44v41.53l-28.44-51.87h-16.67v10.33H736.66L736.66,728.02z"/>
	<path d="M89.98,231.71c0.96,11.14,2.87,22.22,8.22,32.31c11.37,21.37,28.25,33.36,53.38,31.78c10.8-0.72,19.12-5.26,24.61-14.58
		c2.29-3.87,4.06-8.08,5.74-12.28c5.07-12.81,5.97-26.48,8.08-39.86c0.7-4.3,0.29-14-5.45-14.63c-7.38-0.83-8.95,11.5-9.84,17.06
		c-2.06,12.28-5.54,24.18-11.66,35.08c-3.2,5.74-6.79,13.57-13.57,13.38c-7.5-0.19-9.89-8.7-12.62-15.05
		c-4.25-9.85-5.54-20.36-6.59-30.92c-2.77-27.48-2.39-54.96,0.14-82.45c1.89-20.82,4.39-40.01,15.72-57.97
		c2.34-3.73,4.21-3.68,7.12-0.43c4.78,5.31,7.31,11.71,8.65,18.69c1.07,5.72,0.77,14.13,10.75,13.72c4.25-0.19,6.98-2.44,7.69-7.46
		c4-27.36-35.66-56.49-61.32-36.47c-6.55,5.11-11.47,11.57-15.2,18.97c-5.07,10.04-9.27,20.5-10.61,31.64
		c-2.34,20.07-3.97,40.29-5.54,56.92C88.55,205.76,88.88,218.76,89.98,231.71L89.98,231.71z M342.51,196.61l-4.76,7.04
		c-5.11,7.84-10.52,15.39-20.12,20.6c1.86-10.56,1.53-20.07-0.19-29.54c-3.54-19.6-18.11-32.88-37.76-34.41
		c-7.79-0.57-15.01,1-22.94,5.31c-0.86-5.54-4.35-7.55-8.6-8.89c-13.24-4.16-23.75-0.62-31.64,10.9
		c-3.39,5.02-6.02,10.47-8.13,16.15c-6.79,18.07-6.98,36.71-4.59,55.49c2.59,20.08,10.51,41.74,30.54,50.28
		c19.79,8.46,48.08,9.03,69.73-24.61c2.53-5.16,11.71-22.99,11.71-22.99s12.05-6.07,23.57-17.29c-2.23,27.43-2.01,55.05,0.08,82.81
		c0.72,9.7,2.2,19.21,5.35,28.44c6.79,19.88,8.98,31.97,30.11,33.55c42.11,5.07,70.31-69.3,28.34-102.9
		c8.75-1.9,18.52-7.99,27.02-14.77c-0.46,18.49,0.11,37.06,1.51,55.68c0.72,9.7,2.2,19.21,5.35,28.44
		c6.79,19.88,8.98,31.97,30.11,33.55c42.11,5.07,70.31-69.3,28.34-102.9c9.48-2.06,20.14-9.02,29.09-16.46
		c2.15,8.25,5.84,16.71,11.15,24.68c11.66,17.4,49.9,30.25,75.85,16.15c7.03-3.82,13.05-8.65,18.26-14.72
		c6-6.97,10.9-14.5,15.11-22.39c2.22,7.05,5.57,14.18,10.08,20.96c11.66,17.4,49.9,30.25,75.85,16.15
		c7.03-3.82,13.05-8.65,18.26-14.72c12.38-14.39,20.12-31.16,26.62-48.61c1.58-4.4-0.81-9.22-5.26-10.56
		c-3.97-1.24-8.22,0.72-9.85,4.54c-5.64,13.43-11.76,28.01-21.84,38.47c-25.62,26.72-49.23,24.95-52.1,11.42
		c-5.11-22.51-0.29-31.59-0.29-31.59c42.59-0.91,72.36-82.4,19.98-86.89c-42.34-3.59-59.39,38.73-63.64,66.36
		c-0.58,0.64-1.06,1.39-1.41,2.23c-5.64,13.43-11.76,28.01-21.84,38.47c-25.62,26.72-49.23,24.95-52.1,11.42
		c-5.11-22.51-0.29-31.59-0.29-31.59c42.58-0.91,72.36-82.4,19.98-86.89c-49.56-4.2-64.46,54.5-64.76,78.91
		c-12.41,13.75-28.92,21.71-47.22,27.09c-1.39,0.38-2.96,0.19-5.35,0.33c0.62-12.28,3.54-32.74,3.54-32.74
		c34.6-36.47,63.38-108.25,35.13-138.03c-11.09-9.7-22.13-9.65-33.6-0.43c-7.27,5.88-11.85,13.67-15.77,21.89
		c-6.64,13.95-11.8,28.53-15.68,43.49c-6.55,25.51-10.47,51.22-12.24,77.09c-12.53,14.55-29.5,22.84-48.36,28.39
		c-1.39,0.38-2.96,0.19-5.35,0.33c0.62-12.28,3.54-32.74,3.54-32.74c34.6-36.47,63.38-108.25,35.13-138.03
		c-11.09-9.7-22.13-9.65-33.6-0.43c-7.27,5.88-11.85,13.67-15.77,21.89C353.88,137.15,346.82,167.06,342.51,196.61L342.51,196.61z
		 M266.72,274.48c-5.26,2.34-9.89,1.82-15.01-1.58c-22.27-15.01-9.75-68.3-8.03-77.28c6.07,41.39,27.29,48.65,48.18,50.37
		C285.6,259.28,279.92,268.6,266.72,274.48L266.72,274.48z M297.93,228.74c-1.53,5.4-3.39,6.36-8.46,4.25
		c-5.54-2.29-9.27-6.64-12.09-11.8c-7.5-13.81-7.22-27.05-1.34-40.05c2.01-4.49,9.61-5.54,13.19-2.15
		c4.92,4.54,8.03,10.13,9.51,16.58C301.23,206.57,301.09,217.75,297.93,228.74L297.93,228.74z M384.15,171.39
		c2.05-15.82,3.49-31.78,8.56-47.03c2.1-6.31,4.4-12.52,7.41-18.45c1.72-3.39,3.44-6.93,7.22-9.42c4.54,4.25,5.31,9.51,5.69,14.91
		c0.91,12.48,0.19,23.09-3.34,35.03c-5.74,19.21-26.91,54.1-29.35,54.01C380.47,189.27,382.77,182.1,384.15,171.39L384.15,171.39z
		 M392.33,351.19c-0.77,0.86-1.82,1.53-4.25,3.54c-11.09-27.82-11.04-55.63-10.99-83.83c12.28-0.48,20.26,4.49,25.19,14.77
		C411.21,304.45,406.52,335.8,392.33,351.19L392.33,351.19z M476.49,171.39c2.05-15.82,3.49-31.78,8.56-47.03
		c2.1-6.31,4.4-12.52,7.41-18.45c1.72-3.39,3.44-6.93,7.22-9.42c4.54,4.25,5.3,9.51,5.69,14.91c0.91,12.48,0.19,23.09-3.34,35.03
		c-5.74,19.21-26.91,54.1-29.35,54.01C472.81,189.27,475.11,182.1,476.49,171.39L476.49,171.39z M484.67,351.19
		c-0.77,0.86-1.82,1.53-4.25,3.54c-11.09-27.82-11.04-55.63-10.99-83.83c12.28-0.48,20.26,4.49,25.19,14.77
		C503.54,304.45,498.86,335.8,484.67,351.19L484.67,351.19z M585.13,171.2c3.49-4.4,16.35,3.2,14,17.06
		c-4.88,28.68-28.01,36.23-29.54,36.08C572.31,210.92,577,181.69,585.13,171.2L585.13,171.2z M704.42,171.2
		c3.49-4.4,16.35,3.2,14,17.06c-4.88,28.68-28.01,36.23-29.54,36.08C691.61,210.92,696.29,181.69,704.42,171.2L704.42,171.2z"/>
</g>
</svg>
