<?xml version="1.0" encoding="utf-8"?>
<!-- Generator: Adobe Illustrator 25.0.0, SVG Export Plug-In . SVG Version: 6.00 Build 0)  -->
<svg version="1.1" id="Layer_1" xmlns="http://www.w3.org/2000/svg" xmlns:xlink="http://www.w3.org/1999/xlink" x="0px" y="0px"
	 viewBox="0 0 864 864" style="enable-background:new 0 0 864 864;" xml:space="preserve">
<g>
	<path d="M149.18,197c-1.04,28.69-6.51,93.12-16.21,120.77c-47.95-107.47-3.74-304.39,2.7-214.17c1.18,16.14-4.23,23.07,6.79,27.44
		c9.91,3.88,26.26,1.66,28.69-12.19c12.96-73.58-59.87-78.44-82.52-41.09c-23.9,39.49-28.13,205.1,16.91,261.77
		c16.42,20.65,44,16.56,55.29,0.07c21.06-30.63,25.91-138.79,26.12-159.16c0.14-13.58-20.09-15.8-31.87-8.11
		C148.59,176.45,149.41,190.39,149.18,197L149.18,197z M88.07,142.75c0.28-2.01,1.66-3.12,3.74-2.91c4.43,0.28,2.7,4.16,1.52,28.41
		c-3.05,64.44,12.54,104.35,16.98,122.16c1.04,3.88-5.89,5.68-8.11,0.55C83.86,248.63,82.74,187.67,88.07,142.75L88.07,142.75z
		 M114.4,326.3c-4.02,1.18-6.58-1.59-8.66-5.34c-1.73-3.05-5.89-11.22-6.79-14.55c-1.59-5.96,5.27-6.1,7.21-2.98
		c1.04,1.8,1.32,2.63,3.81,7.28c1.11-5.27,0.97-10.53,5.34-11.16c2.98-0.49,4.85,0.97,4.99,4.02c0.21,3.88-0.14,7.69-0.97,11.43
		C118.51,318.55,118.34,325.15,114.4,326.3L114.4,326.3z M134.21,343.69c-0.49,5.47-11.22,7.9-16.56-13.79
		c-0.28-1.32,0.28-2.22,1.46-2.84c5.54-2.77,7.07,3.33,9.56,8.8c1.59-4.5,3.12-10.53,7.76-10.81
		C145.38,324.45,134.53,340.12,134.21,343.69L134.21,343.69z M273.28,73.46c-2.98-4.37-6.58-7.55-11.92-8.73
		c-25.08-5.61-38.25,21.27-48.71,45.11c-28.96,66.38-39.84,170.17,14.62,217.43c27.65,24.04,57.37,20.86,74.9,2.63
		c19.75-20.58,20.72-54.11,21.2-85.02C322.48,183.85,308.37,124.19,273.28,73.46L273.28,73.46z M213.9,284.1
		c-24.94-50.03-0.28-134.63,7.48-136.08c7.48-1.39,3.19,4.71-2.56,29.86c-6.79,29.66-9.91,79.54,3.6,105.73
		C223.87,286.46,216.67,289.71,213.9,284.1L213.9,284.1z M232.33,311.95c-0.83,2.98-6.24,3.81-9.35,0.21
		c-4.57-5.47-10.12-13.37-3.05-13.72c3.33-0.14,4.37,2.15,7.34,5.96c2.36-6.79,2.49-8.38,5.27-8.87
		C241.51,293.85,233.35,308.48,232.33,311.95L232.33,311.95z M257.96,328.03c-1.39,2.7-2.91,7.62-8.45,5.61
		c-3.95-1.39-9.22-9.98-11.22-13.58c-2.22-4.16,1.39-5.89,4.57-5.06c2.43,0.69,3.46,2.84,8.11,9.49c1.73-4.99,2.36-9.7,7.34-9.22
		C264.77,315.93,259.46,325.1,257.96,328.03L257.96,328.03z M253.39,111.78c53.63,103.66,24.94,213.06,13.16,203.43
		C222.26,279.02,225.81,151.12,253.39,111.78L253.39,111.78z M407.84,52.4c-51.83,4.78-73.45-1.04-78.02,22.24
		c-7.34,37.76,8.31,229.69,21.96,272.44c5.2,16.28,38.73,11.64,38.46-2.08c-0.55-28.75-6.58-48.64-15.52-154.65
		c-0.28-2.63-1.45-0.76,24.18-5.2c16.63-2.84,19.75-12.68,11.85-18.36c-8.59-6.17-21.69-2.98-36.72-1.11
		c-1.94,0.28-1.59,1.18-2.7-15.59c-2.7-40.19-3.33-47.74-2.7-70.19c0.07-3.4,38.94-2.36,61.87-6.65
		c21.48-4.02,16.42-22.8-4.85-22.24C419.62,51.01,413.81,51.82,407.84,52.4L407.84,52.4z M353.44,159.93
		c1.18,20.16,0.9,22.03,0.9,26.12c6.51,87.17,20.09,102.55,7.83,98.81c-5.68-1.73-17.6-73.03-15.38-124.86
		C346.93,155.95,353.24,155.19,353.44,159.93L353.44,159.93z M376.66,323.39c-0.55,3.33-2.08,12.89-2.7,18.08
		c-0.69,5.75-8.45,8.31-15.38-9.91c-0.97-2.56-0.69-3.81,1.04-4.64c4.99-2.36,6.72,2.7,8.73,6.31c0.69-3.6,1.25-6.65,1.87-9.77
		C371.11,318.95,377.28,319.99,376.66,323.39L376.66,323.39z M370.84,293.87c-3.26,18.02-3.19,20.16-6.93,20.79
		c-6.24,1.11-9.91-8.73-11.57-14.83c-0.76-2.63-0.48-3.53,1.18-4.3c4.92-2.29,6.17,2.91,8.59,7.76c2.29-10.12,2.01-12.75,6.3-12.47
		C370.38,290.96,371.18,291.9,370.84,293.87L370.84,293.87z M520.92,52.4c-51.83,4.78-73.45-1.04-78.02,22.24
		c-7.34,37.76,8.31,229.69,21.96,272.44c5.2,16.28,38.73,11.64,38.46-2.08c-0.55-28.75-6.58-48.64-15.52-154.65
		c-0.28-2.63-1.45-0.76,24.18-5.2c16.63-2.84,19.75-12.68,11.85-18.36c-8.59-6.17-21.69-2.98-36.72-1.11
		c-1.94,0.28-1.59,1.18-2.7-15.59c-2.7-40.19-3.33-47.74-2.7-70.19c0.07-3.4,38.94-2.36,61.87-6.65
		c21.48-4.02,16.42-22.8-4.85-22.24C532.7,51.01,526.89,51.82,520.92,52.4L520.92,52.4z M466.52,159.93
		c1.18,20.16,0.9,22.03,0.9,26.12c6.51,87.17,20.09,102.55,7.83,98.81c-5.68-1.73-17.6-73.03-15.38-124.86
		C460.01,155.95,466.32,155.19,466.52,159.93L466.52,159.93z M489.74,323.39c-0.55,3.33-2.08,12.89-2.7,18.08
		c-0.69,5.75-8.45,8.31-15.38-9.91c-0.97-2.56-0.69-3.81,1.04-4.64c4.99-2.36,6.72,2.7,8.73,6.31c0.69-3.6,1.25-6.65,1.87-9.77
		C484.19,318.95,490.36,319.99,489.74,323.39L489.74,323.39z M483.92,293.87c-3.26,18.02-3.19,20.16-6.93,20.79
		c-6.24,1.11-9.91-8.73-11.57-14.83c-0.76-2.63-0.49-3.53,1.18-4.3c4.92-2.29,6.17,2.91,8.59,7.76c2.29-10.12,2.01-12.75,6.31-12.47
		C483.46,290.96,484.25,291.9,483.92,293.87L483.92,293.87z M601.64,71.52c-20.3,0.69-33.67,12.33-43.24,30.21
		c-22.66,42.47-38.73,156.52-2.29,208.63c13.51,19.26,29.03,29.45,52.31,25.84c14.41-2.22,24.39-10.19,29.1-24.32
		c3.46-10.6,6.44-21.34,7.76-32.43c1.8-15.66-31.73-17.95-36.31,0.07c-4.78,19.12-6.24,24.46-8.38,29.79
		c-0.28-0.21-0.55-0.35-0.69-0.55c-15.45-17.95-20.72-39.08-23.42-62.98c-0.28-2.22-1.59-0.76,45.38-3.33
		c14.9-0.76,31.8-0.21,36.65-21.83c5.27-23.77,4.5-95.76-15.59-128.12C633.09,76.75,620.03,70.9,601.64,71.52L601.64,71.52z
		 M563.46,139.15c0.97-3.26,6.93-3.88,6.44,0.62c-0.69,7.21-17.88,69.29-2.08,132.9c0.83,3.46-6.03,5.06-7.48,0
		C549.25,234.35,552.03,176.98,563.46,139.15L563.46,139.15z M575.38,288.81c-0.35,2.77-1.32,5.27-5.89,16.21
		c-1.45,3.46-6.17,4.37-8.45,1.32c-3.6-4.71-5.89-10.12-7.62-15.8c-0.97-3.12,4.71-4.43,6.44-1.59c7.76,12.89,1.87,7.83,7.41-1.94
		C569.48,283.22,576.07,283.73,575.38,288.81L575.38,288.81z M582.65,311.54c1.18,1.8,1.52,2.77,4.02,7.41
		c0.69-1.73,1.52-6.65,5.75-7.48c3.6-0.69,6.37,1.8,5.2,5.47c-1.18,3.6-2.29,7.34-4.23,10.67c-5.68,9.84-14.83-2.56-17.67-13.37
		C574.35,308.96,580.68,308.36,582.65,311.54L582.65,311.54z M619.1,219.59c-45.38,1.32-43.86,3.46-43.79-0.28
		c1.04-36.38,7.21-91.67,27.51-121.95c3.05-4.64,21.2,22.66,21.48,92.43c0.07,8.11-0.42,18.02-2.77,27.85
		C621.16,219.09,620.57,219.53,619.1,219.59L619.1,219.59z M731.35,71.52c-20.3,0.69-33.67,12.33-43.24,30.21
		c-22.66,42.47-38.73,156.52-2.29,208.63c13.51,19.26,29.03,29.45,52.31,25.84c14.41-2.22,24.39-10.19,29.1-24.32
		c3.46-10.6,6.44-21.34,7.76-32.43c1.8-15.66-31.73-17.95-36.31,0.07c-4.78,19.12-6.24,24.46-8.38,29.79
		c-0.28-0.21-0.55-0.35-0.69-0.55c-15.45-17.95-20.72-39.08-23.42-62.98c-0.28-2.22-1.59-0.76,45.38-3.33
		c14.9-0.76,31.8-0.21,36.65-21.83c5.27-23.77,4.5-95.76-15.59-128.12C762.8,76.75,749.74,70.9,731.35,71.52L731.35,71.52z
		 M693.17,139.15c0.97-3.26,6.93-3.88,6.44,0.62c-0.69,7.21-17.88,69.29-2.08,132.9c0.83,3.46-6.03,5.06-7.48,0
		C678.96,234.35,681.73,176.98,693.17,139.15L693.17,139.15z M705.09,288.81c-0.35,2.77-1.32,5.27-5.89,16.21
		c-1.45,3.46-6.17,4.37-8.45,1.32c-3.6-4.71-5.89-10.12-7.62-15.8c-0.97-3.12,4.71-4.43,6.44-1.59c7.76,12.89,1.87,7.83,7.41-1.94
		C699.18,283.22,705.78,283.73,705.09,288.81L705.09,288.81z M712.36,311.54c1.18,1.8,1.52,2.77,4.02,7.41
		c0.69-1.73,1.52-6.65,5.75-7.48c3.6-0.69,6.37,1.8,5.2,5.47c-1.18,3.6-2.29,7.34-4.23,10.67c-5.68,9.84-14.83-2.56-17.67-13.37
		C704.06,308.96,710.39,308.36,712.36,311.54L712.36,311.54z M748.81,219.59c-45.38,1.32-43.86,3.46-43.79-0.28
		c1.04-36.38,7.21-91.67,27.51-121.95c3.05-4.64,21.2,22.66,21.48,92.43c0.07,8.11-0.42,18.02-2.77,27.85
		C750.87,219.09,750.28,219.53,748.81,219.59L748.81,219.59z"/>
	<path d="M124.04,370.37c-12.52-0.64-18.14,5.52-18.14,5.52c-4.28,4.69-7.09,10.07-7.64,17.08l-0.32,9.86
		c0,6.05,0.85,11.88,3.39,17.4c2.44,5.37,6.76,9.14,12.41,10.82c2.71,0.5,8.93,1.06,11.88,0c5.53-1.99,10.69-3.85,13.26-10.4
		c1.17-3.08,2.12-6.26,2.23-9.55c0-6.16,0.06-9.12-1.59-15.06c-0.42-1.27-1.38-2.33-2.76-2.65c-5.73-0.95-11.46-0.64-17.18,0
		c-1.38,0.11-2.23,0.21-3.18,1.27c-0.85,0.95-0.85,3.61,0.21,4.35c3.23,2.28,7.25,1.57,10.93,1.8c1.8,0.11,4.14,1.27,4.45,3.08
		c0.95,5.73,0.11,9.87-2.33,14.96c-1.8,3.39-3.61,3.92-6.9,5.09c-6.45,1.23-11.59-2.02-13.58-8.17c-2.23-7.43-2.55-10.5-2.65-17.4
		c-0.03-3.28,0.71-8.3,2.02-11.56c2.44-5.2,4.56-7.53,10.18-9.44c4.88-1.74,6.01,0.23,9.97,2.44c2.02,1.17,4.03,2.02,6.05,0.32
		c1.13-1.04,0.42-4.09-0.74-5.3C131.36,371.96,128.17,371,124.04,370.37L124.04,370.37z M158.72,380.55c0-4.63,10.6-3.28,13.37-3.08
		c2.66,0,11.67,0.8,13.26-1.27c2.39-3.15-1.12-6.36-3.08-6.36l-18.14-0.11c-3.93-0.13-7.91-0.04-11.35,0.53
		c-2.06,0.34-3.12,2.08-3.18,5.09c-0.22,7.18,0.73,11.28,0.11,18.35c-0.42,4.99-0.74,23.02-0.11,30.44
		c0.21,2.44,0.42,4.35,2.23,5.62c3.53,2.35,9.25,1.87,13.47,1.91c4.65,0.04,13.61,0.05,17.29-1.38c4.59-1.78,1.52-6.29-0.96-6.36
		c-3.39-0.21-6.68,0.32-10.61,1.17c-3.82,0.32-7.11,0.32-11.03-0.74c-0.85-0.21-1.38-0.74-1.7-1.59c-0.53-1.38-0.74-4.88-0.64-6.47
		l1.06-7.11c0.11-0.85,1.27-1.8,2.23-1.8c2.22-0.11,5.78,0.53,8.49,0.53h8.7c1.68-0.12,4.31-2.82,1.38-6.15
		c-1.65-1.88-5.67-1.46-7.96-1.59c-2.61-0.15-10.24-0.02-11.77-0.64c-0.63-0.25-1.5-1.22-1.49-2.33c0.11-5.41,0.21-10.71,0.42-16.12
		V380.55L158.72,380.55z M224.17,369.52c-4.14,0.21-8.27,0.53-12.41,0.85c-3.5,0.32-13.58,0.42-15.06,0.42
		c-2.33-0.11-4.35-0.53-6.15,0.85c-0.88,0.65-1.8,4.89,0.64,5.52c7.58,1.71,13.92-1.42,14.11,4.33c0.43,12.93-0.24,27.08,0.95,39.39
		c0.16,1.67-0.45,5.35-0.42,6.45c0.1,4,6.23,7.1,8.91,2.23c1.13-2.05,0.64-3.2,0.64-5.3c-0.53-5.94-0.53-43.7-0.53-43.81
		c-0.09-5.46,6.34-1.99,11.56-5.09C229.18,373.72,227.47,369.15,224.17,369.52L224.17,369.52z M267.88,403.09
		c-2.23-2.44-4.24-3.92-7.85-5.94c-3.82-2.11-10-4.65-12.2-7.99c-2.55-4.14-1.7-7.02,1.27-9.46c2.74-2.3,5.73-3.56,9.02-0.85
		c4.26,3.5,3.18,6.56,5.83,8.29c1.73,1.13,7.81-0.11,6.47-4.47c-0.42-1.49-1.27-2.86-1.7-4.35c-1.38-4.48-6.08-7.95-10.71-8.17
		c-3.39-0.32-9.23-0.32-14.64,2.97c-7.38,4.46-7.83,11.09-4.77,18.28c1.67,3.45,4.58,5.94,7.96,7.97
		c7.23,4.34,14.15,5.12,17.08,13.83c0.93,2.77-2.82,12.35-11.35,10.52c-10.75-2.31-8.31-8.13-8.7-10.41
		c-0.32-1.48-0.74-2.99-1.91-4.15c-1.62-1.94-6.21-1.77-7.64,1.49c-1.17,4.15-0.74,8.95,1.91,12.98
		c3.76,5.94,23.58,14.77,34.26,1.06C274.48,419.34,275.17,408.65,267.88,403.09L267.88,403.09z M337.47,389.67
		c-0.64,0.64-1.8,0.64-2.44,0c-2.55-2.76-5.3-5.3-7.64-8.27c-3.08-4.14-7.21-7.21-10.61-10.93c-1.88-2.13-7.67,0.92-7.74,3.82
		c-0.21,3.92-0.53,7.96-0.53,11.88c-0.11,4.67,0.11,9.34,0.11,14c0.11,2.65,0.32,5.2,0.21,9.65c-0.32,5.62-0.42,15.28-0.32,17.5
		c0.17,3.82,3.55,4.64,6.89,4.24c2.13-0.25,2.51-3.03,2.33-4.77c-0.53-5.09-0.53-15.7-0.42-15.91l0.74-21.85
		c0.11-1.17,1.48-1.7,2.55-0.95c4,2.9,2.95,2.78,6.05,6.05c1.8,2.02,3.61,3.92,5.52,5.73c0.74,0.85,2.97,1.59,4.03,1.49
		c2.39-0.24,3.89-2.19,5.83-4.14c2.02-2.02,4.03-4.14,6.15-6.05c1.54-1.46,2.86-0.08,2.97,0.74c0.42,5.52,1.06,11.03,0.85,16.55
		c-0.32,5.73,0.42,11.46-0.42,17.29c-0.42,3.5,1.8,5.73,5.52,6.05c1.83,0.46,4.24-0.83,4.56-2.76c0.53-2.33,0.64-4.77,0.42-8.7
		c-0.53-5.52-0.85-8.91-0.64-14.21c0-6.29-0.77-12.5-0.32-18.78c0-5.52,0.32-8.91,0.64-13.26c0.31-3.44-5.04-6.26-9.44-1.06
		c-1.06,1.17-2.12,2.33-2.97,3.5C345.79,381.71,342,385.54,337.47,389.67L337.47,389.67z M379.58,380.55
		c0-4.63,10.6-3.28,13.37-3.08h8.59c1.7,0,3.61,0.11,4.67-1.27c2.39-3.15-1.12-6.36-3.08-6.36l-18.14-0.11
		c-3.93-0.13-7.91-0.04-11.35,0.53c-2.06,0.34-3.12,2.08-3.18,5.09c-0.22,7.18,0.73,11.28,0.11,18.35
		c-0.42,4.99-0.74,23.02-0.11,30.44c0.21,2.44,0.42,4.35,2.23,5.62c3.53,2.35,9.25,1.87,13.47,1.91c4.65,0.04,13.61,0.05,17.29-1.38
		c4.59-1.78,1.52-6.29-0.95-6.36c-3.39-0.21-6.68,0.32-10.61,1.17c-3.82,0.32-7.11,0.32-11.03-0.74c-0.85-0.21-1.38-0.74-1.7-1.59
		c-0.53-1.38-0.74-4.88-0.64-6.47l1.06-7.11c0.11-0.85,1.27-1.8,2.23-1.8c2.22-0.11,5.78,0.53,8.49,0.53h8.7
		c1.68-0.12,4.31-2.82,1.38-6.15c-1.65-1.88-5.67-1.46-7.96-1.59c-2.61-0.15-10.24-0.02-11.77-0.64c-0.63-0.25-1.5-1.22-1.49-2.33
		C379.26,391.7,379.58,386.02,379.58,380.55L379.58,380.55z M480.14,410.32c0-1.49-3.75-6.12-5.2-7.23
		c-2.23-2.44-4.24-3.92-7.85-5.94c-3.82-2.11-10-4.65-12.2-7.99c-2.55-4.14-1.7-7.02,1.27-9.46c2.74-2.3,5.73-3.56,9.02-0.85
		c4.26,3.5,3.18,6.56,5.83,8.29c1.73,1.13,7.81-0.11,6.47-4.47c-1.17-4.1-3.05-7.98-6.58-10.5c-1.82-1.36-3.58-1.91-5.83-2.02
		c-3.39-0.32-9.23-0.32-14.64,2.97c-4.56,2.76-6.26,6.26-6.47,9.87c-0.63,1.32,1.17,7.18,1.7,8.42c1.67,3.45,4.58,5.94,7.96,7.97
		c7.23,4.34,14.15,5.12,17.08,13.83c0.93,2.77-2.82,12.35-11.35,10.52c-10.75-2.31-8.31-8.13-8.7-10.41
		c-0.32-1.48-0.74-2.99-1.91-4.15c-1.62-1.94-6.21-1.77-7.64,1.49c-1.17,4.15-0.74,8.95,1.91,12.98
		c3.76,5.94,23.58,14.77,34.26,1.06C481.63,419.06,481.52,414.16,480.14,410.32L480.14,410.32z M521.72,370.26
		c-0.74-0.53-1.48-0.85-2.44-0.74c-4.14,0.21-8.27,0.53-12.41,0.85c-3.5,0.32-13.58,0.42-15.06,0.42c-2.33-0.11-4.35-0.53-6.15,0.85
		c-0.88,0.65-1.8,4.89,0.64,5.52c7.58,1.71,13.92-1.42,14.11,4.33c0.43,12.93-0.24,27.08,0.95,39.39c0.16,1.67-0.45,5.35-0.42,6.45
		c0.11,4,6.23,7.1,8.91,2.23c1.13-2.05,0.64-3.2,0.64-5.3c-0.53-5.94-0.53-43.7-0.53-43.81c-0.09-5.46,6.34-1.99,11.56-5.09
		C523.31,374.29,523.31,371.64,521.72,370.26L521.72,370.26z M574.13,416.83c-2.28-3.8-4.13-8.45-5.94-12.62
		c-5.3-12.62-12.52-30.02-12.62-30.44c-0.54-1.62-2.87-5.72-5.52-5.41c-1.97,0.23-3.36,1.81-3.61,3.82
		c-0.31,2.51-4.04,13.49-5.3,16.34c-6.15,13.9-8.49,20.37-11.99,30.34c-1.98,5.86-5.58,12.05,1.8,13.05
		c3.37,0.46,4.13-3.46,4.99-6.36c1.55-5.28,0.91-7.58,5.73-8.17c7.23-0.89,13.45-0.62,20.05-0.11c1.8,0.11,3.08,0.95,3.82,2.44
		l2.86,6.36c0.69,1.54,0.86,3.07,2.23,4.67c2.82,3.3,7.47,1.34,7.43-2.44C578.16,426.37,577.31,423.62,574.13,416.83L574.13,416.83z
		 M552.06,389.78c0.26,1.14,7.63,13.54,8.17,17.93c0.12,0.99-0.47,1.44-1.27,1.59c-0.53,0.21-0.95,0.42-1.49,0.42
		c-4.24,0.32-6.15,0.11-9.33-0.21c-5.37-0.46-6.16,0.4-5.83-2.02c0.11-0.85,3.71-8.7,7-15.91
		C549.97,389.25,552.06,389.21,552.06,389.78L552.06,389.78z M629.6,426.69c-3.6-8.18-8.02-12.49-11.35-20.15
		c-2.38-5.47,7.77-5.26,7.64-17.72c0-5.35-2.12-9.97-6.36-13.26c-7.56-5.72-17.13-6.23-26.52-5.3c-1.06,0.11-2.23,0.21-3.29,0.32
		c-3.39,0.64-5.2,2.65-4.99,5.94c0.21,4.14,0.42,8.27,0.95,12.52c0.74,5.62,1.59,28.22,0.96,30.87c-0.7,2.44-1.28,7.16-0.42,9.34
		c1.17,3.08,7.43,2.44,8.7,1.8c2.43-1.16,1.17-6.56,1.17-10.61c0-8.4-0.8-7.67,11.03-9.65c1.17-0.21,3.39-0.11,4.67,2.33
		c1.91,3.71,3.29,5.62,5.09,9.44c0.95,2.23,2.12,4.35,3.29,6.47c1.89,3.52,4.59,2.67,7.43,1.7
		C629.71,429.98,630.35,428.6,629.6,426.69L629.6,426.69z M611.78,398.48c-2.65,2.02-5.52,3.71-8.38,5.3
		c-1.27,0.74-2.86,0.95-4.35,1.27c-3.42,0.69-3.82-3.88-3.82-6.26c0-2.86,0.21-15.06,0.42-18.35c0.11-1.7,1.27-2.65,3.08-2.97
		c4.03-0.53,7.74,0.64,11.24,2.65c3.55,2.01,6.02,4.89,6.15,9.44C616.24,393.49,614.65,396.35,611.78,398.48L611.78,398.48z
		 M670.23,370.26c-0.74-0.53-1.48-0.85-2.44-0.74c-4.14,0.21-8.27,0.53-12.41,0.85c-3.5,0.32-13.58,0.42-15.06,0.42
		c-2.33-0.11-4.35-0.53-6.15,0.85c-0.88,0.65-1.8,4.89,0.64,5.52c7.59,1.71,13.92-1.42,14.11,4.33c0.43,12.93-0.24,27.08,0.95,39.39
		c0.16,1.67-0.45,5.35-0.42,6.45c0.1,4,6.23,7.1,8.91,2.23c1.13-2.05,0.64-3.2,0.64-5.3c-0.53-5.94-0.53-43.7-0.53-43.81
		c-0.09-5.46,6.34-1.99,11.56-5.09C671.82,374.29,671.82,371.64,670.23,370.26L670.23,370.26z M687.31,380.55
		c0-4.63,10.6-3.28,13.37-3.08h8.59c1.7,0,3.61,0.11,4.67-1.27c2.39-3.15-1.12-6.36-3.08-6.36l-18.14-0.11
		c-3.93-0.13-7.91-0.04-11.35,0.53c-2.06,0.34-3.12,2.08-3.18,5.09c-0.22,7.18,0.73,11.28,0.11,18.35
		c-0.42,4.99-0.74,23.02-0.11,30.44c0.21,2.44,0.42,4.35,2.23,5.62c3.53,2.35,9.25,1.87,13.47,1.91c4.65,0.04,13.61,0.05,17.29-1.38
		c4.59-1.78,1.52-6.29-0.95-6.36c-3.39-0.21-6.68,0.32-10.61,1.17c-3.82,0.32-7.11,0.32-11.03-0.74c-0.85-0.21-1.38-0.74-1.7-1.59
		c-1.42-3.68-0.15-9.72,0.42-13.58c0.11-0.85,1.27-1.8,2.23-1.8c2.22-0.11,5.78,0.53,8.49,0.53h8.7c1.68-0.12,4.31-2.82,1.38-6.15
		c-1.65-1.88-5.67-1.46-7.96-1.59c-2.61-0.15-10.24-0.02-11.77-0.64c-0.63-0.25-1.5-1.22-1.48-2.33
		C686.99,391.7,687.31,386.02,687.31,380.55L687.31,380.55z M763.48,392.11c-1.07-3.83-2.04-5.36-3.39-8.38
		c-3.18-6.05-5.83-8.8-10.93-11.56c-3.83-2.13-12.87-2.85-17.08-2.44c-3.61,0.21-6.15,0.95-8.8,2.76c-1.27,0.74-1.91,2.02-1.91,3.61
		c0.1,9.58,1.27,45.18,2.02,51.87c0.29,2.56,2.29,3.9,4.77,3.71c2.12-0.32,4.35-0.53,6.36-1.17c4.14-1.38,8.27-3.08,12.31-5.09
		c7.21-4.03,11.46-10.4,11.99-11.14c2.44-3.92,3.18-5.52,4.46-10.08C764.11,401.02,764.43,395.61,763.48,392.11L763.48,392.11z
		 M731.33,421.07c-0.64-3.82-1.17-31.29-1.06-32.14c0-2.23,0.21-3.93,0.32-5.52c0.38-5.08-0.24-6.59,3.18-6.9
		c6.41-0.57,12.22,2.11,15.91,7.11c2.86,3.18,4.24,5.62,5.2,8.91c1.38,4.24,0.96,10.5-0.74,14c-2.45,4.99-3.79,6.71-9.76,11.46
		c-1.83,1.46-6.63,5.2-10.4,5.2C732.8,423.19,731.49,422.29,731.33,421.07L731.33,421.07z"/>
	<path d="M192.8,447.52c-11.99-4.71-28.2-0.55-29.59,10.6c-3.88,32.08,7.76,199.41-13.17,238.01c-2.91,5.4-9.42,16.01-14.13,12.13
		c-4.57-3.74-8.38-12.19-9.77-16.07c-6.1-16.63-39.63-10.05-35.68,3.88c7.48,26.4,22.31,39.49,56.05,36.45
		c51.27-4.57,55.92-72.89,58.2-113.77c2.08-36.58,0.97-99.85-0.76-131.58C203.42,477.3,204.31,452.06,192.8,447.52L192.8,447.52z
		 M173.82,702.85c-0.97,4.16-4.43,10.67-4.5,11.16c-1.52,5.54-11.36,5.89-13.79-7.9c-0.55-3.05-0.62-5.2,2.49-5.96
		c5.2-1.32,5.2,4.16,6.17,4.99c0.55-1.32,1.04-2.56,1.59-3.81C167.63,697.28,175,697.42,173.82,702.85L173.82,702.85z
		 M186.29,676.87c-0.49,5.68-4.57,14.07-5.13,15.59c-1.73,4.43-6.51,4.43-9.01,1.52c-6.72-7.76-9.15-21.48-0.9-18.15
		c2.15,0.83,2.7,2.63,4.43,6.1c0.55-2.42,1.11-4.37,2.08-6.17C180.06,671.65,186.71,671.62,186.29,676.87L186.29,676.87z
		 M179.36,663.28c-3.33-1.94,1.52-2.49,1.52-83.98c0-36.17-4.78-38.87,0.97-39.7c5.34-0.76,7.21,5.68,7.76,53.21
		c0.42,21.55-0.35,46.22-3.74,67.35C185.39,663.26,182.07,664.81,179.36,663.28L179.36,663.28z M283.56,456.6
		c-20.3,0.69-33.67,12.33-43.24,30.21c-22.66,42.47-38.73,156.52-2.29,208.63c13.51,19.26,29.03,29.45,52.31,25.84
		c14.41-2.22,24.39-10.19,29.1-24.32c3.46-10.6,6.44-21.34,7.76-32.43c1.8-15.66-31.73-17.95-36.31,0.07
		c-4.78,19.12-6.24,24.46-8.38,29.79c-0.28-0.21-0.55-0.35-0.69-0.55c-15.45-17.95-20.72-39.08-23.42-62.98
		c-0.28-2.22-1.59-0.76,45.38-3.33c14.9-0.76,31.8-0.21,36.65-21.83c5.27-23.77,4.5-95.76-15.59-128.12
		C315.01,461.82,301.95,455.97,283.56,456.6L283.56,456.6z M245.38,524.22c0.97-3.26,6.93-3.88,6.44,0.62
		c-0.69,7.21-17.88,69.29-2.08,132.9c0.83,3.46-6.03,5.06-7.48,0C231.17,619.42,233.95,562.05,245.38,524.22L245.38,524.22z
		 M257.3,673.89c-0.35,2.77-1.32,5.27-5.89,16.21c-1.46,3.46-6.17,4.37-8.45,1.32c-3.6-4.71-5.89-10.12-7.62-15.8
		c-0.97-3.12,4.71-4.43,6.44-1.59c7.76,12.89,1.87,7.83,7.41-1.94C251.4,668.29,257.99,668.81,257.3,673.89L257.3,673.89z
		 M264.57,696.61c1.18,1.8,1.52,2.77,4.02,7.41c0.69-1.73,1.52-6.65,5.75-7.48c3.6-0.69,6.37,1.8,5.2,5.47
		c-1.18,3.6-2.29,7.34-4.23,10.67c-5.68,9.84-14.83-2.56-17.67-13.37C256.27,694.04,262.6,693.44,264.57,696.61L264.57,696.61z
		 M301.02,604.67c-45.38,1.32-43.86,3.46-43.79-0.28c1.04-36.38,7.21-91.67,27.51-121.95c3.05-4.64,21.2,22.66,21.48,92.43
		c0.07,8.11-0.42,18.02-2.77,27.85C303.08,604.16,302.49,604.6,301.02,604.67L301.02,604.67z M480.6,501.84
		c-3.19-27.16-24.46-49.2-43.86-56.61c-28.69-10.95-71.64,3.26-82.31,43.72c-7.41,28.13,7.55,58.13,13.79,71.37
		c15.52,32.77,79.13,114.47,55.36,148.62c-3.46,4.99-8.04,4.37-12.96,0.76c-17.32-12.47-22.8-34.71-24.46-55.85
		c-1.46-18.57-34.64-13.58-35.82-1.94c-3.74,38.39,17.53,70.47,41.16,80.31c36.03,14.97,102.89-4.09,68.32-84.53
		c-22.38-52.11-42.27-71.71-55.85-104.97c-23.07-56.47,6.65-79.96,13.65-75.8c30.07,17.95,28.34,43.24,25.5,69.36
		c-0.83,7.28,1.04,11.5,7.07,13.93c11.23,4.57,26.61,0.9,29.03-9.42C481.9,528.86,482.01,513.93,480.6,501.84L480.6,501.84z
		 M452.81,709.99c-2.01,3.88-3.12,11.29-10.12,8.25c-3.33-1.52-7.48-6.93-7.76-14c-0.21-5.61,6.37-5.96,8.66-2.49
		c1.04,1.66,2.08,4.3,2.49,5.47c2.01-5.13,2.84-9.7,7.55-9.49C460.16,698.11,454.21,707.34,452.81,709.99L452.81,709.99z
		 M452.26,669.52c3.81-1.8,7.41,0.62,4.71,7.69c-1.45,3.81-2.84,7.62-5.27,11.02c-7.48,10.46-18.78-12.47-13.65-15.45
		c5.27-3.12,7.83,3.33,9.15,5.47C448.1,675.68,449.62,670.73,452.26,669.52L452.26,669.52z M433,627.32
		c7.76,12.13,12.75,24.46,13.51,25.15c2.56,2.49-1.11,4.64-3.05,4.43c-3.46-0.14-5.27-1.66-10.74-12.13
		c-4.43-8.52-42.82-65.62-46.01-82.38c-0.83-4.3,4.92-5.13,6.31-2.08C402.93,582.36,419.64,606.81,433,627.32L433,627.32z
		 M577.73,548.75c-4.43,44.07-11.29,121.67-25.01,146.62c-2.98-1.25-24.74-43.24-15.8-148.49c3.81-45.38,2.08-64.92,4.02-84.6
		c1.25-13.23-29.86-16.98-36.72,0.42c-11.02,27.72-29.03,180.15,1.25,235.79c18.71,34.3,54.53,35.34,73.38,18.43
		c21.06-18.99,25.29-61.11,28.69-93.54c0-0.07,11.16-97.77,12.68-150.63c0.42-14.2-22.17-15.87-31.87-8.45
		C581.07,469.87,578.63,539.79,577.73,548.75L577.73,548.75z M513.36,512.44c0.9-3.19,2.29-4.3,5.06-4.16
		c11.5,0.69-15.59,44.48,5.27,154.1c0.76,3.81-7,6.24-9.28,0C500.89,625.35,502.74,550.48,513.36,512.44L513.36,512.44z
		 M516.13,693.84c-3.81-4.3-9.84-14.2-4.71-16.7c6.03-2.98,7.97,4.23,9.91,7.48c1.94-6.79,2.15-8.31,3.81-10.74
		c2.01-3.05,7.76-3.19,7.69,1.25c0,4.23-2.22,8.52-6.1,18.43C525.11,697.61,518.6,696.56,516.13,693.84L516.13,693.84z
		 M544.19,715.11c-3.81,7.41-15.73,2.01-18.57-11.92c-0.97-4.64,6.58-5.82,8.73-2.22c1.59,2.77,2.98,6.44,3.74,6.93
		c1.8-4.99,2.91-8.38,6.17-9.08C552.95,697.03,546.37,710.88,544.19,715.11L544.19,715.11z M757.86,501.84
		c-3.19-27.16-24.46-49.2-43.86-56.61c-28.69-10.95-71.64,3.26-82.31,43.72c-7.41,28.13,7.55,58.13,13.79,71.37
		c15.52,32.77,79.13,114.47,55.36,148.62c-3.46,4.99-8.04,4.37-12.96,0.76c-17.32-12.47-22.8-34.71-24.46-55.85
		c-1.46-18.57-34.64-13.58-35.82-1.94c-3.74,38.39,17.53,70.47,41.16,80.31c36.03,14.97,102.89-4.09,68.32-84.53
		c-22.38-52.11-42.27-71.71-55.85-104.97c-23.07-56.47,6.65-79.96,13.65-75.8c30.07,17.95,28.34,43.24,25.5,69.36
		c-0.83,7.28,1.04,11.5,7.07,13.93c11.22,4.57,26.61,0.9,29.03-9.42C759.17,528.86,759.27,513.93,757.86,501.84L757.86,501.84z
		 M730.08,709.99c-2.01,3.88-3.12,11.29-10.12,8.25c-3.33-1.52-7.48-6.93-7.76-14c-0.21-5.61,6.37-5.96,8.66-2.49
		c1.04,1.66,2.08,4.3,2.49,5.47c2.01-5.13,2.84-9.7,7.55-9.49C737.42,698.11,731.47,707.34,730.08,709.99L730.08,709.99z
		 M729.52,669.52c3.81-1.8,7.41,0.62,4.71,7.69c-1.45,3.81-2.84,7.62-5.27,11.02c-7.48,10.46-18.78-12.47-13.65-15.45
		c5.27-3.12,7.83,3.33,9.15,5.47C725.36,675.68,726.88,670.73,729.52,669.52L729.52,669.52z M710.26,627.32
		c7.76,12.13,12.75,24.46,13.51,25.15c2.56,2.49-1.11,4.64-3.05,4.43c-3.46-0.14-5.27-1.66-10.74-12.13
		c-4.43-8.52-42.82-65.62-46.01-82.38c-0.83-4.3,4.92-5.13,6.3-2.08C680.2,582.36,696.9,606.81,710.26,627.32L710.26,627.32z"/>
	<path d="M155.49,754.3c0.15-1.69-2.1-3.73-3.39-3.61c-2.23,0.11-4.46,0.74-6.15,2.33c-6.26,6.26-12.3,12.52-17.72,19.41
		c-0.8,1.01-2.43,3.47-4.14,2.97c-1.68-0.49-0.67-3.97-0.53-6.9c0.53-5.62,0.64-8.59,0.11-12.84c-0.42-3.82-2.76-4.88-6.26-3.5
		c-3.42,1.38-2.7,4.4-2.86,5.52c-0.21,5.41-0.21,10.82-0.74,16.12c-0.74,6.36-1.17,31.29-0.74,34.48c0.94,6.24,10.05,5.73,9.02-1.8
		c-0.74-5.62,0.32-11.14,0.32-16.76c0.11-1.91,0.74-3.39,2.44-4.56c1.76-1.25,8.01-7.74,9.97-4.03c0.21,0.42,0.53,0.74,0.64,1.17
		c2.55,5.52,2.97,7,5.94,12.41c1.56,2.08,4.78,9.37,5.83,11.77c1.13,2.58,3.57,4.92,6.26,5.83c2.76,0.95,5.62-1.38,5.2-4.24
		c-0.54-5.14-3.22-3.57-7.32-12.73c-1.55-3.46-8.95-18.72-9.76-21.75c-0.42-1.7,0.74-4.46,1.59-5.83
		C146.37,762.69,155.21,757.6,155.49,754.3L155.49,754.3z M174.69,761.51c0-4.63,10.6-3.28,13.37-3.08h8.59
		c1.7,0,3.61,0.11,4.67-1.27c2.39-3.15-1.12-6.36-3.08-6.36l-18.14-0.11c-3.93-0.13-7.91-0.04-11.35,0.53
		c-2.06,0.34-3.12,2.08-3.18,5.09c-0.22,7.18,0.73,11.28,0.11,18.35c-0.42,4.99-0.74,23.02-0.11,30.44
		c0.21,2.44,0.42,4.35,2.23,5.62c3.53,2.35,9.25,1.87,13.47,1.91c4.65,0.04,13.61,0.05,17.29-1.38c4.59-1.78,1.52-6.29-0.96-6.36
		c-3.39-0.21-6.68,0.32-10.61,1.17c-3.82,0.32-7.11,0.32-11.03-0.74c-0.85-0.21-1.38-0.74-1.7-1.59c-0.53-1.38-0.74-4.88-0.64-6.47
		l1.06-7.11c0.11-0.85,1.27-1.8,2.23-1.8c2.22-0.11,5.78,0.53,8.49,0.53h8.7c1.68-0.12,4.31-2.82,1.38-6.15
		c-1.65-1.88-5.67-1.46-7.96-1.59c-2.61-0.15-10.24-0.02-11.77-0.64c-0.63-0.25-1.5-1.22-1.49-2.33
		C174.38,772.66,174.69,766.98,174.69,761.51L174.69,761.51z M219.35,761.51c0-4.63,10.6-3.28,13.37-3.08h8.59
		c1.7,0,3.61,0.11,4.67-1.27c2.39-3.15-1.12-6.36-3.08-6.36l-18.14-0.11c-3.93-0.13-7.91-0.04-11.35,0.53
		c-2.06,0.34-3.12,2.08-3.18,5.09c-0.22,7.18,0.73,11.28,0.11,18.35c-0.42,4.99-0.74,23.02-0.11,30.44
		c0.21,2.44,0.42,4.35,2.23,5.62c3.53,2.35,9.25,1.87,13.47,1.91c4.65,0.04,13.61,0.05,17.29-1.38c4.59-1.78,1.52-6.29-0.95-6.36
		c-3.39-0.21-6.68,0.32-10.61,1.17c-3.82,0.32-7.11,0.32-11.03-0.74c-0.85-0.21-1.38-0.74-1.7-1.59c-0.53-1.38-0.74-4.88-0.64-6.47
		l1.06-7.11c0.11-0.85,1.27-1.8,2.23-1.8c2.22-0.11,5.78,0.53,8.49,0.53h8.7c1.68-0.12,4.31-2.82,1.38-6.15
		c-1.65-1.88-5.67-1.46-7.96-1.59c-2.61-0.15-10.24-0.02-11.77-0.64c-0.63-0.25-1.5-1.22-1.48-2.33
		C219.04,772.66,219.35,766.98,219.35,761.51L219.35,761.51z M269.53,750.48c-5.04,0.26-8.62,0.36-13.37,2.44
		c-1.7,0.74-2.76,2.02-2.97,3.92c-0.5,5.86,0.34,14.49,0.53,20.44c0,2.02,2.23,21.57,1.48,29.31c-0.42,3.5,0.64,4.24,2.33,5.73
		c2.19,1.83,6.59,0.34,7.11-3.18c1.03-7.06-3.41-13.13,2.65-13.68c1.06-0.11,2.23-0.32,3.29-0.42c4.35-0.32,10.29-3.29,13.58-6.05
		c2.55-2.33,3.61-3.5,5.3-6.38c4.77-7.02,5.3-20.44-4.14-26.18C280.45,752.92,275.36,750.05,269.53,750.48L269.53,750.48z
		 M262.53,771.32c0-3.62,0-5.13,0.32-8.1c-0.06-2.13-0.16-4.59,2.86-5.11c3.39-0.53,7.74,0,10.61,1.59c2.44,1.38,3.71,1.8,5.62,4.37
		c3.08,3.62,2.55,10.54,0.95,13.63c-5.51,10.63-16.92,13.29-18.78,8.42c-0.32-0.85-0.64-1.71-0.74-2.56
		C263.06,779.4,262.84,775.25,262.53,771.32L262.53,771.32z M338.8,791.28c0-1.49-3.75-6.12-5.2-7.23
		c-2.23-2.44-4.24-3.92-7.85-5.94c-3.82-2.11-10-4.65-12.2-7.99c-2.55-4.14-1.7-7.02,1.27-9.46c2.74-2.3,5.73-3.56,9.02-0.85
		c4.26,3.5,3.18,6.56,5.83,8.29c1.73,1.13,7.81-0.11,6.47-4.47c-1.73-6.06-5.36-12.19-12.41-12.52c-3.39-0.32-9.23-0.32-14.64,2.97
		c-3.34,2.02-7.52,6.97-6.47,11.16c0,2.44,0.74,4.88,1.7,7.12c1.67,3.45,4.58,5.94,7.96,7.97c7.23,4.34,14.15,5.12,17.08,13.83
		c0.93,2.77-2.82,12.35-11.35,10.52c-10.75-2.31-8.31-8.13-8.7-10.41c-0.32-1.49-0.74-2.99-1.91-4.15
		c-1.62-1.94-6.21-1.77-7.64,1.49c-1.17,4.15-0.74,8.95,1.91,12.98c3.76,5.94,23.59,14.77,34.26,1.06
		C340.28,800.02,340.18,795.12,338.8,791.28L338.8,791.28z M403.19,770.63c-0.64,0.64-1.8,0.64-2.44,0c-2.55-2.76-5.3-5.3-7.64-8.27
		c-3.08-4.14-7.21-7.21-10.61-10.93c-1.88-2.13-7.67,0.92-7.74,3.82c-0.21,3.92-0.53,7.96-0.53,11.88c-0.11,4.67,0.11,9.34,0.11,14
		c0.11,2.65,0.32,5.2,0.21,9.65c-0.32,5.62-0.42,15.28-0.32,17.5c0.17,3.82,3.55,4.64,6.89,4.24c2.13-0.25,2.51-3.03,2.33-4.77
		c-0.53-5.09-0.53-15.7-0.42-15.91l0.74-21.85c0.11-1.17,1.49-1.7,2.55-0.95c4,2.9,2.95,2.78,6.05,6.05
		c1.8,2.02,3.61,3.92,5.52,5.73c0.74,0.85,2.97,1.59,4.03,1.49c2.39-0.24,3.89-2.19,5.83-4.14c2.02-2.02,4.03-4.14,6.15-6.05
		c1.54-1.46,2.86-0.08,2.97,0.74c0.42,5.52,1.06,11.03,0.85,16.55c-0.32,5.73,0.42,11.46-0.42,17.29c-0.42,3.5,1.8,5.73,5.52,6.05
		c1.83,0.46,4.24-0.83,4.56-2.76c0.53-2.33,0.64-4.77,0.42-8.7c-0.53-5.52-0.85-8.91-0.64-14.21c0-6.29-0.77-12.5-0.32-18.78
		c0-5.52,0.32-8.91,0.64-13.26c0.31-3.44-5.04-6.26-9.44-1.06c-1.06,1.17-2.12,2.33-2.97,3.5
		C411.51,762.67,407.73,766.51,403.19,770.63L403.19,770.63z M445.3,761.51c0-4.63,10.6-3.28,13.37-3.08h8.59
		c9.16,0,4.94-7.64,1.59-7.64l-18.14-0.11c-3.93-0.13-7.91-0.04-11.35,0.53c-2.06,0.34-3.12,2.08-3.18,5.09
		c-0.22,7.18,0.73,11.28,0.11,18.35c-0.42,4.99-0.74,23.02-0.11,30.44c0.21,2.44,0.42,4.35,2.23,5.62
		c3.53,2.35,9.25,1.87,13.47,1.91c4.65,0.04,13.61,0.05,17.29-1.38c4.59-1.78,1.52-6.29-0.95-6.36c-3.39-0.21-6.68,0.32-10.61,1.17
		c-3.82,0.32-7.11,0.32-11.03-0.74c-0.85-0.21-1.38-0.74-1.7-1.59c-0.53-1.38-0.74-4.88-0.64-6.47l1.06-7.11
		c0.11-0.85,1.27-1.8,2.23-1.8c2.22-0.11,5.78,0.53,8.49,0.53h8.7c1.68-0.12,4.31-2.82,1.38-6.15c-1.65-1.88-5.67-1.46-7.96-1.59
		c-2.61-0.15-10.24-0.02-11.77-0.64c-0.63-0.25-1.5-1.22-1.48-2.33C444.98,772.66,445.3,766.98,445.3,761.51L445.3,761.51z
		 M532.71,751.33c-12.52-0.64-18.14,5.52-18.14,5.52c-8.19,8.97-7.6,15.91-7.96,26.94c0,6.05,0.85,11.88,3.39,17.4
		c2.44,5.37,6.76,9.13,12.41,10.82c2.71,0.5,8.93,1.06,11.88,0c5.53-1.99,10.69-3.85,13.26-10.4c2.59-6.84,2.51-11.72,2.02-18.88
		c-0.21-1.91-0.85-3.82-1.38-5.73c-0.42-1.27-1.38-2.33-2.76-2.65c-5.73-0.95-11.46-0.64-17.18,0c-1.38,0.11-2.23,0.21-3.18,1.27
		c-0.85,0.95-0.85,3.61,0.21,4.35c3.23,2.28,7.25,1.57,10.93,1.8c1.8,0.11,4.14,1.27,4.46,3.08c0.95,5.73,0.11,9.87-2.33,14.96
		c-1.8,3.39-3.61,3.92-6.89,5.09c-2.23,0.42-4.88,0.11-7.64-0.96c-2.97-0.95-4.77-3.61-5.94-7.21c-2.23-7.43-2.55-10.5-2.65-17.4
		c-0.03-3.28,0.71-8.3,2.02-11.56c2.44-5.2,4.56-7.53,10.18-9.44c4.88-1.74,6.01,0.23,9.97,2.44c6.24,3.61,8.4-1.76,5.3-4.99
		C540.03,752.92,536.84,751.96,532.71,751.33L532.71,751.33z M605.26,776.36c-0.6-9.86-4.89-23.72-16.02-25.78
		c-9.05-1.58-16.05-0.44-22.81,6.58c-6.79,7.04-8.49,15.24-8.49,24.72c0,2.54-0.13,4.12,0.32,6.58c0.74,7.96,2.86,13.79,6.26,17.4
		c2.61,2.49,8.13,7.36,15.59,7.11c11.18,0.35,21.49-7.53,23.76-15.49C606.01,790.79,606.52,783.48,605.26,776.36L605.26,776.36z
		 M583.73,805.11c-4.34,0.57-7.8,0.81-11.14-3.5c-5.03-6.52-5.58-12.49-5.3-20.26c0.11-5.3,0.85-8.27,2.33-12.94
		c2.93-9.2,12.86-12.9,18.03-8.7c2.76,1.8,7.53,6.36,8.59,17.93c0.41,8.94,0.76,15.33-4.88,23.23
		C589.35,803.62,586.7,804.26,583.73,805.11L583.73,805.11z M645.04,807.97c-1.38-3.85-4.66-2.5-9.76-3.39
		c-0.53-0.11-1.27-0.74-1.38-1.27c-1.17-6.03-0.37-6.24-0.64-11.03c-0.53-9.23,0.32-18.35,1.17-27.47c0.53-5.2-0.21-6.05,5.83-6.58
		c2.59-0.2,6.98-3.37,3.71-6.05c-0.85-0.74-1.8-1.06-2.97-1.06c-6.79,0-12.2,0.11-18.99,0.21c-2.02,0.11-3.61,0-5.62,0.74
		c-2.5,0.78-2.81,5.36-0.74,6.15c5.53,2.38,8.85-0.27,9.44,2.76c0.11,0.42,0.21,0.85,0.21,1.27c-0.17,8.38-1.01,17.48-0.74,26.1
		c-0.28,0,0.41,14.13-1.49,16.12c-1,0.75-7.66,0.31-8.8,2.12c-1.58,2.5-1.23,4.98,0.85,5.41c1.27,0.21,2.55,0.32,3.82,0.32
		c6.58,0,13.15-0.21,19.73,0.11C641.16,812.49,646.35,811.45,645.04,807.97L645.04,807.97z M687.16,784.74
		c1.17,0.42,1.48,5.09,1.38,8.38c-0.11,4.03,0.42,6.58,0.11,10.29c-0.11,1.27-0.11,3.39,0.21,6.26c0.38,4.38,8.27,5.38,8.8,0.85
		c0.7-5.94-1.22-10.73-0.74-18.14c0.75-11.21,0.81-21.11,1.27-32.14c0.14-2.57-0.12-8.13-3.71-8.7c-3.61-0.42-4.99,0.85-5.94,4.88
		c-0.98,4.01-0.19,10.62-1.17,16.34c-0.11,0.74-0.11,2.23-2.23,1.06c-4.46-2.52-6.72-5.83-11.77-9.76
		c-3.76-2.92-13.37-15.83-18.25-13.15c-6.23,0.06-3.91,5.79-4.14,13.05c-0.11,7.21,1.06,14.43,1.17,21.64
		c0,0.64,0.74,16.02,0.64,18.88c-0.11,1.27-0.11,2.65,0.11,3.93c0.21,3.08,2.86,4.88,6.15,4.46c4.64-0.66,3.97-7.96,3.5-11.35
		c-0.32-3.29-0.42-6.58-0.64-9.87c-0.53-7.21,0.74-14.43-0.42-21.64c0.42-0.96,1.13-2.76,2.55-1.7c4.99,3.82,5.62,4.88,11.46,8.8
		C679.43,779.92,683.26,782.14,687.16,784.74L687.16,784.74z M732.03,751.33c-12.52-0.64-18.14,5.52-18.14,5.52
		c-4.28,4.69-7.09,10.07-7.64,17.08l-0.32,9.87c0,6.05,0.85,11.88,3.4,17.4c2.44,5.37,6.76,9.13,12.41,10.82
		c2.71,0.5,8.93,1.06,11.88,0c5.53-1.99,10.69-3.85,13.26-10.4c1.17-3.08,2.12-6.26,2.23-9.55c0-6.16,0.06-9.12-1.59-15.06
		c-0.42-1.27-1.38-2.33-2.76-2.65c-5.73-0.95-11.46-0.64-17.18,0c-1.38,0.11-2.23,0.21-3.18,1.27c-0.85,0.95-0.85,3.61,0.21,4.35
		c3.23,2.28,7.25,1.57,10.93,1.8c1.8,0.11,4.14,1.27,4.46,3.08c0.95,5.73,0.11,9.87-2.33,14.96c-2.93,5.51-9.17,6.2-14.53,4.14
		c-2.97-0.95-4.77-3.61-5.94-7.21c-2.23-7.43-2.55-10.5-2.65-17.4c-0.02-3.28,0.71-8.3,2.02-11.56c2.44-5.2,4.56-7.53,10.18-9.44
		c4.88-1.74,6.01,0.23,9.97,2.44c2.02,1.17,4.03,2.02,6.05,0.32c1.13-1.04,0.42-4.09-0.74-5.3
		C739.35,752.92,736.17,751.96,732.03,751.33L732.03,751.33z"/>
</g>
</svg>
