<?xml version="1.0" encoding="utf-8"?>
<!-- Generator: Adobe Illustrator 25.0.0, SVG Export Plug-In . SVG Version: 6.00 Build 0)  -->
<svg version="1.1" id="Layer_1" xmlns="http://www.w3.org/2000/svg" xmlns:xlink="http://www.w3.org/1999/xlink" x="0px" y="0px"
	 viewBox="0 0 864 864" style="enable-background:new 0 0 864 864;" xml:space="preserve">
<style type="text/css">
	.st0{fill-rule:evenodd;clip-rule:evenodd;}
</style>
<g>
	<path class="st0" d="M129.8,193.77h12.12c2.24,0,4.22-2.11,4.22-4.48V82.71c0-2.5-1.98-4.48-4.22-4.48h-0.04v103.7
		c0,3.98-3.27,7.58-7.31,7.58h-9.1C125.57,191.79,127.38,193.77,129.8,193.77L129.8,193.77z M163.79,116.18h3.95
		c5.14,0,7.51-1.05,9.88-6.59l9.88-25.29c0.92-1.98,1.19-3.56,1.19-4.61c-0.65-1.69-1.93-1.71-5.61-1.71L183,78.16l-9.88,25.3
		c-2.71,6.32-5.93,8.46-12.73,8.46h-1.84c-0.02,0.24-0.03,0.47-0.03,0.7C158.52,114.99,160.36,116.18,163.79,116.18L163.79,116.18z
		 M253.5,193.38h-11.33c-2.75-0.24-5.17-1.56-5.99-4.26h10.09l0.13-0.01c4.43-0.37,7.8-2.27,8.94-6.82l10.07-48.19l-0.87,31.58
		l-4.85,23.21C258.91,192.06,256.67,193.11,253.5,193.38L253.5,193.38z M220.41,156.13l0.69,33.03c0,2.11-1.84,4.22-4.08,4.22
		h-11.99c-2.42,0-4.71-2.21-4.86-4.26h9.5c3.9,0,7.18-3.44,7.18-7.31l-1-48.07L220.41,156.13L220.41,156.13z M231.36,79
		c1.66,0.69,3.09,2.01,3.7,4.51l6.61,36.69l-1.49,7.76L231.36,79L231.36,79z M291.4,78.24c2.57,0.14,4.26,1.81,4.26,4.21V188.9
		c0,2.64-1.84,4.48-4.61,4.48h-11.59c-3.1,0-4.58-1.94-4.83-4.26h9.07c4.4,0,7.71-3.15,7.71-7.58V78.24L291.4,78.24z M358.36,188.74
		c5.94,4.43,13.77,6.68,22.01,6.74c21.08,0.13,34.65-12.65,33.07-36.36c-0.56-8.47-2.7-14.59-6.37-19.19
		c1.11,3.37,1.81,7.21,2.1,11.63c1.59,23.91-11.91,39.83-36.18,39.66C367.8,191.19,362.84,190.35,358.36,188.74L358.36,188.74z
		 M367.28,113.34c-1.53-11.56,3.88-18.81,13.23-18.64c-0.89-2.01-2.57-3.51-5.04-4.04c-10.28-1.66-13.71,5.98-12.45,15.1
		C363.87,109.36,365.28,111.69,367.28,113.34L367.28,113.34z M391.69,107.18c-0.02,2.39,1.66,4.13,4.09,4.26h11.46
		c2.5,0.13,4.61-1.84,4.74-4.74v-0.13c0-7.18-2.26-13.56-6.08-18.58c1.19,3.49,1.82,7.26,1.82,11.22v0.2l0,0.07
		c-0.2,4.32-3.49,7.88-7.91,7.7H391.69L391.69,107.18z M360.88,140.2c3.9,2.78,8.96,5.07,15.54,6.54c1.25,0.27,2.43,0.55,3.53,0.85
		c-2.55-3.05-6.68-4.11-11.55-5.18C365.81,141.84,363.29,141.11,360.88,140.2L360.88,140.2z M461.13,194.56h5.53
		c16.6,0,31.35-14.62,31.35-32.28l-0.13-54.41c0-7.35-2.32-13.94-6.25-19.16c1.28,3.66,1.98,7.63,1.99,11.8l0.13,54.41
		c0.05,18.75-15.55,35.38-34.45,35.38h-5.53c-4.15,0-8.09-0.68-11.72-1.93C447.38,192.32,454,194.56,461.13,194.56L461.13,194.56z
		 M449.97,162.69c-0.03-0.35-0.04-0.7-0.04-1.06v-53.88c0-7.25,5.93-12.65,13.17-12.65h0.53c0.35,0,0.7,0.01,1.04,0.04
		c-1.77-2.66-4.87-4.3-8.4-4.3h-0.53c-5.46,0-10.08,3.95-10.08,9.55v53.88C445.67,157.65,447.37,160.78,449.97,162.69L449.97,162.69
		z M580.22,188.77l-10.8-31.49c5.8-4.48,9.49-11.59,9.49-20.29l0.13-31.09c0.07-9.02-1.69-16.07-5.95-20.82
		c1.17,3.9,1.71,8.41,1.69,13.48l-0.13,31.09c-0.03,8.14-3.01,15.82-8.97,21.28l10.11,29.48c1.42,4.15-1.49,8.71-5.96,8.71h-12.36
		c0.85,2.56,3.2,4.26,5.89,4.26h13.83C579.43,193.38,581.01,191.01,580.22,188.77L580.22,188.77z M516.46,189.12v0.04
		c0,2.5,1.71,4.22,4.74,4.22h12.65c2.63,0,4.87-1.71,4.87-4.22v-26.61l2.59,0.03l-1.22-4.18l-5.64-0.07v23.48
		c0,4.37-3.78,7.31-7.97,7.31H516.46L516.46,189.12z M537.8,132.33V95.36l10.92,0.12c-0.7-2.59-2.98-4.24-5.93-4.24l-9.25-0.1v41.2
		H537.8L537.8,132.33z M662.69,188.77l-10.8-31.49c5.8-4.48,9.49-11.59,9.49-20.29l0.13-31.09c0.07-9.02-1.69-16.07-5.95-20.82
		c1.17,3.9,1.71,8.41,1.69,13.48l-0.13,31.09c-0.03,8.14-3.01,15.82-8.96,21.28l10.11,29.48c1.42,4.15-1.49,8.71-5.96,8.71h-12.36
		c0.85,2.56,3.2,4.26,5.89,4.26h13.83C661.9,193.38,663.48,191.01,662.69,188.77L662.69,188.77z M598.93,189.12v0.04
		c0,2.5,1.71,4.22,4.74,4.22h12.65c2.63,0,4.87-1.71,4.87-4.22v-26.61l2.59,0.03l-1.22-4.18l-5.64-0.07v23.48
		c0,4.37-3.78,7.31-7.97,7.31H598.93L598.93,189.12z M620.27,132.33V95.36l10.93,0.12c-0.7-2.59-2.98-4.24-5.93-4.24l-9.25-0.1v41.2
		H620.27L620.27,132.33z M703.66,194.04h12.12c2.77,0,5.27-1.98,5.27-4.48v-46.9c0.26-2.63,0.92-5.27,1.98-7.9l19.36-49.93
		c2.03-6.1-0.71-6.99-4.19-7.1c-0.07,0.24-0.15,0.48-0.23,0.72l-0.05,0.14l-19.38,49.96c-0.89,2.22-1.5,4.53-1.75,6.91v46.74
		c0,4.45-4.13,7.58-8.37,7.58h-9.76C698.79,192.17,701.1,194.04,703.66,194.04L703.66,194.04z M703.52,97.26l-5.4-16
		c-0.59-1.69-1.51-2.61-2.64-3.08l7.25,21.46L703.52,97.26L703.52,97.26z M96.14,339.64h10.8c2.5,0,4.48-1.98,4.48-4.08v-38.73
		h25.56c2.63,0,4.22-1.71,4.22-3.82v-11.59c0-2.37-1.58-4.09-4.22-4.09h-0.04v8.32c0,4.11-3.28,6.92-7.31,6.92h-22.46v35.63
		c0,4.06-3.62,7.18-7.58,7.18h-8.06v0.17C91.53,338.06,93.5,339.64,96.14,339.64L96.14,339.64z M111.42,266.88v-21.56h33.46
		c2.63,0,4.74-2.11,4.74-4.35v-11.59c0-2.11-1.75-3.75-4.26-3.94v8.17c0,4.19-3.75,7.45-7.84,7.45h-30.36v25.82H111.42
		L111.42,266.88z M191.92,341.36h5.53c16.6,0,31.35-14.62,31.35-32.28l-0.13-54.41c0-7.35-2.32-13.94-6.25-19.16
		c1.28,3.66,1.98,7.63,1.99,11.8l0.13,54.41c0.05,18.75-15.55,35.38-34.45,35.38h-5.53c-4.16,0-8.09-0.68-11.72-1.93
		C178.16,339.12,184.78,341.36,191.92,341.36L191.92,341.36z M180.76,309.48c-0.03-0.35-0.04-0.7-0.04-1.06v-53.88
		c0-7.25,5.93-12.65,13.17-12.65h0.53c0.35,0,0.7,0.01,1.04,0.04c-1.77-2.66-4.87-4.3-8.4-4.3h-0.53c-5.46,0-10.08,3.95-10.08,9.55
		v53.88C176.46,304.44,178.16,307.57,180.76,309.48L180.76,309.48z M311.01,335.56l-10.8-31.49c5.8-4.48,9.49-11.59,9.49-20.29
		l0.13-31.09c0.07-9.02-1.69-16.07-5.95-20.82c1.17,3.9,1.71,8.41,1.69,13.48l-0.13,31.09c-0.03,8.14-3.01,15.82-8.97,21.28
		l10.11,29.48c1.42,4.15-1.49,8.71-5.96,8.71h-12.36c0.85,2.56,3.2,4.26,5.89,4.26h13.83C310.22,340.17,311.8,337.8,311.01,335.56
		L311.01,335.56z M247.25,335.91v0.04c0,2.5,1.71,4.22,4.74,4.22h12.65c2.63,0,4.87-1.71,4.87-4.22v-26.61l2.59,0.03l-1.22-4.18
		l-5.64-0.07v23.48c0,4.37-3.78,7.31-7.97,7.31H247.25L247.25,335.91z M268.59,279.13v-36.97l10.93,0.12
		c-0.7-2.59-2.98-4.24-5.93-4.24l-9.25-0.1v41.2H268.59L268.59,279.13z M382.02,340.17h16.34c2.64,0,4.74-2.11,5.4-5.4l4.05-25.52
		l-2.7-16.93l-5.66,35.64l-0.01,0.06c-0.85,4.23-3.87,7.89-8.44,7.89h-14.02l0.03,0.17C377.14,338.19,379.64,340.17,382.02,340.17
		L382.02,340.17z M421.38,335.91l0.03,0.17c0.53,2.11,2.63,4.08,5.14,4.08h16.47c2.63,0,4.74-2.11,5.27-5.4l16.99-106.58
		c0.13-1.32-1.84-3.29-3.95-3.29h-0.92l-16.42,103c-0.69,4.31-3.73,8.01-8.33,8.01H421.38L421.38,335.91z M428.38,264.65
		l-5.52-34.62c-0.49-2.52-1.61-4.12-3.81-4.78l7.97,49.98L428.38,264.65L428.38,264.65z M383.69,263.85l-5.37-34.87
		c-0.42-1.68-1.85-3.28-3.68-3.86l7.64,49.68L383.69,263.85L383.69,263.85z M485.3,340.17h12.25c2.37,0,4.35-1.98,4.35-4.48v-39.13
		l20.77-0.09v-4.29l-25.03,0.11v36.04c0,4.13-3.29,7.58-7.45,7.58h-9.1C481.21,338.31,483.26,340.17,485.3,340.17L485.3,340.17z
		 M533.13,335.91c0.12,2.4,2.18,4.26,4.6,4.26h11.86c2.37,0,4.61-1.98,4.61-4.48V229.38c0-2.13-2.02-4.14-4.26-4.33v103.29
		c0,4.17-3.58,7.58-7.71,7.58H533.13L533.13,335.91z M501.9,265.92v-36.55c0-2.47-1.93-4.3-4.26-4.35v40.91L501.9,265.92
		L501.9,265.92z M646.29,336.09l-21.61-106.71c-0.36-1.72-1.73-3.14-3.49-3.85l20.79,102.69c0.77,4.6-2.83,7.82-7.27,7.82h-10.98
		l0.16,0.7c0.26,2.37,1.71,3.56,4.22,3.56h13.96C644.97,340.3,646.68,338.46,646.29,336.09L646.29,336.09z M570.15,336.04
		l-0.01,0.04c-0.53,2.37,1.45,4.22,4.35,4.22h13.96c2.77,0,3.69-1.19,4.22-3.56l3.56-18.84h14.56l-0.95-4.26h-18.4l-3.1,16.41
		c-0.87,3.93-3.12,5.98-7.24,5.98H570.15L570.15,336.04z M600.63,289.47l2.86-16.81l-2.75-15.96l-5.57,32.73L600.63,289.47
		L600.63,289.47z M673.82,340.17h12.25c2.37,0,4.22-1.98,4.22-4.48v-92.09h15.15c2.64,0,4.87-1.32,4.87-3.95v-10.54
		c0-2.91-1.9-4.15-4.26-4.33v7.51c0,4.51-3.76,7.05-7.97,7.05h-12.05v88.99c0,4.11-3.14,7.58-7.31,7.58h-9.1
		C669.73,338.31,671.77,340.17,673.82,340.17L673.82,340.17z M648.92,239.35v0.31c0,2.5,1.98,3.95,4.74,3.95h5.49v-4.26H648.92
		L648.92,239.35z M762.22,340.57h12.12c2.24,0,4.22-2.11,4.22-4.48V229.51c0-2.5-1.98-4.48-4.22-4.48h-0.04v103.7
		c0,3.98-3.27,7.58-7.31,7.58h-9.1C757.99,338.59,759.79,340.57,762.22,340.57L762.22,340.57z M54.17,482.07
		c5.94,4.43,13.77,6.68,22.01,6.74c21.08,0.13,34.65-12.65,33.07-36.36c-0.56-8.47-2.7-14.59-6.37-19.19
		c1.11,3.37,1.81,7.21,2.1,11.63c1.59,23.91-11.91,39.83-36.18,39.66C63.61,484.52,58.66,483.67,54.17,482.07L54.17,482.07z
		 M63.1,406.67c-1.53-11.56,3.88-18.81,13.23-18.64c-0.89-2.01-2.57-3.51-5.04-4.04c-10.28-1.66-13.71,5.98-12.45,15.1
		C59.68,402.69,61.09,405.02,63.1,406.67L63.1,406.67z M87.5,400.5c-0.02,2.39,1.66,4.13,4.09,4.26h11.46
		c2.5,0.13,4.61-1.84,4.74-4.74v-0.13c0-7.18-2.26-13.56-6.08-18.58c1.19,3.49,1.82,7.26,1.82,11.22l0,0.27
		c-0.2,4.32-3.49,7.88-7.91,7.7H87.5L87.5,400.5z M56.69,433.53c3.9,2.78,8.96,5.07,15.54,6.54c1.25,0.27,2.43,0.55,3.53,0.85
		c-2.55-3.05-6.68-4.11-11.55-5.18C61.62,435.17,59.1,434.44,56.69,433.53L56.69,433.53z M198.83,482.62l-21.6-106.71
		c-0.36-1.72-1.73-3.14-3.49-3.85l20.79,102.69c0.77,4.6-2.83,7.82-7.27,7.82h-10.98l0.16,0.7c0.26,2.37,1.71,3.56,4.22,3.56h13.96
		C197.51,486.83,199.23,484.99,198.83,482.62L198.83,482.62z M122.69,482.58l-0.01,0.04c-0.53,2.37,1.45,4.22,4.35,4.22H141
		c2.77,0,3.69-1.19,4.22-3.56l3.56-18.84h14.56l-0.95-4.26h-18.4l-3.1,16.41c-0.87,3.93-3.12,5.98-7.24,5.98H122.69L122.69,482.58z
		 M153.17,436l2.86-16.81l-2.75-15.96l-5.57,32.73L153.17,436L153.17,436z M218.99,487.1h12.12c2.24,0,4.22-2.11,4.22-4.48V376.04
		c0-2.5-1.98-4.48-4.22-4.48h-0.04v103.7c0,3.98-3.27,7.58-7.31,7.58h-9.1C214.76,485.12,216.56,487.1,218.99,487.1L218.99,487.1z
		 M260.75,486.7l34.52-0.13c5.4,0,10.54-1.58,15.15-3.95c9.62-4.87,14.62-17.78,14.62-28.98c0.13-39.13,1.32-57.18-4.08-66.92
		c-0.75-1.24-1.57-2.42-2.47-3.54c1.77,5.93,2.12,12.85,2.31,18.52c0.5,14.75,0.02,29.81-0.02,44.59
		c-0.03,11.81-5.26,26.1-16.32,31.74c-5.15,2.62-10.74,4.27-16.54,4.29l-31.51,0.12C256.53,484.6,258.45,486.7,260.75,486.7
		L260.75,486.7z M276.16,456.88V393.3c0-1.19,1.05-2.37,2.37-2.37h13.83l0.43,0.01c-1.67-2.55-4.55-4.27-7.78-4.27H271.9v70.21
		H276.16L276.16,456.88z M381.82,486.57l31.35,0.13c17.39,0.13,30.43-5.01,29.77-32.01c-0.26-11.06-2.83-17.92-6.36-21.79
		c1.47,4.78,2,9.98,2.1,14.36c0.58,24.26-8.98,35.29-32.88,35.19l-29.14-0.12C377.1,484.54,378.33,486.57,381.82,486.57
		L381.82,486.57z M433.63,426.22c3.88-4.93,5.37-12.87,5.37-23.7c0-8.69-1.58-15.68-4.22-20.42c-0.65-1.16-1.4-2.19-2.22-3.12
		c1.63,5.21,2.18,11,2.18,16.18c0,8.23-0.67,18.87-6.12,25.71C430.66,422.26,432.3,424.1,433.63,426.22L433.63,426.22z
		 M396.36,411.3l-0.18-19.32c0-3.95-0.26-3.43,2.5-3.43c3.12,0,5.8-0.06,8.08,0.02c-1.55-5.1-5.63-4.32-14.85-4.28
		c0,0.11,0,0.21,0,0.3l0.25,26.7H396.36L396.36,411.3z M397.39,459.12l-0.16-12.86c0-5.93-0.26-6.98,1.32-7.11
		c4.25-0.36,7.96-0.47,11.1-0.07c-0.45-0.78-1.01-1.49-1.72-2.08c-3.43-2.83-10.34-2.6-15.01-2.24c-0.04,1.38,0.06,3.27,0.06,4.11
		l0.25,20.26H397.39L397.39,459.12z M462.97,486.31h48.48c2.5,0,4.48-1.98,4.48-4.35V470.5c0-2.3-1.86-4.1-4.26-4.21v8.31
		c0,4.16-3.44,7.45-7.58,7.45h-45.6C458.54,484.38,460.37,486.31,462.97,486.31L462.97,486.31z M478.25,455.83v-12.86h25.16
		c2.5,0,4.08-1.58,4.08-4.08v-11.46c0-2.5-1.58-4.22-4.08-4.22h-0.17v8.32c0,4.22-2.97,7.18-7.18,7.18h-22.06v17.12H478.25
		L478.25,455.83z M478.25,412.75v-21.43h33.2c2.5,0,4.48-1.98,4.48-4.48v-11.33c0-2.43-1.86-4.11-4.26-4.21v8.19
		c0,4.21-3.36,7.58-7.58,7.58h-30.1v25.69H478.25L478.25,412.75z M536.35,486.18h10.8c2.5,0,4.48-1.98,4.48-4.08v-38.73h25.56
		c2.63,0,4.22-1.71,4.22-3.82v-11.59c0-2.37-1.58-4.08-4.22-4.08h-0.04v8.32c0,4.11-3.28,6.92-7.31,6.92h-22.46v35.63
		c0,4.06-3.62,7.18-7.58,7.18h-8.06v0.17C531.74,484.59,533.71,486.18,536.35,486.18L536.35,486.18z M551.63,413.41v-21.56h33.46
		c2.63,0,4.74-2.11,4.74-4.35v-11.59c0-2.11-1.75-3.75-4.26-3.94v8.17c0,4.19-3.75,7.45-7.84,7.45h-30.36v25.82H551.63
		L551.63,413.41z M632.12,487.89h5.53c16.6,0,31.35-14.62,31.35-32.28l-0.13-54.41c0-7.35-2.32-13.94-6.25-19.16
		c1.28,3.66,1.98,7.63,1.99,11.8l0.13,54.41c0.05,18.75-15.55,35.38-34.45,35.38h-5.53c-4.16,0-8.09-0.68-11.72-1.93
		C618.37,485.65,624.99,487.89,632.12,487.89L632.12,487.89z M620.97,456.01c-0.03-0.35-0.04-0.7-0.04-1.06v-53.88
		c0-7.25,5.93-12.65,13.17-12.65c0.53,0,1.04,0,1.57,0.04c-1.77-2.66-4.87-4.3-8.4-4.3h-0.53c-5.46,0-10.08,3.95-10.08,9.55v53.88
		C616.67,450.97,618.37,454.1,620.97,456.01L620.97,456.01z M751.22,482.09l-10.8-31.49c5.8-4.48,9.49-11.59,9.49-20.29l0.13-31.09
		c0.07-9.02-1.69-16.07-5.95-20.82c1.17,3.9,1.71,8.41,1.69,13.48l-0.13,31.09c-0.03,8.14-3.01,15.82-8.96,21.27l10.11,29.48
		c1.42,4.15-1.49,8.71-5.96,8.71h-12.36c0.85,2.56,3.2,4.26,5.89,4.26h13.83C750.43,486.7,752.01,484.33,751.22,482.09
		L751.22,482.09z M687.46,482.44v0.04c0,2.5,1.71,4.22,4.74,4.22h12.65c2.63,0,4.87-1.71,4.87-4.22v-26.61l2.59,0.03l-1.22-4.18
		l-5.64-0.07v23.48c0,4.37-3.78,7.31-7.97,7.31H687.46L687.46,482.44z M708.8,425.66v-36.97l10.93,0.12
		c-0.7-2.59-2.98-4.24-5.93-4.24l-9.25-0.1v41.2H708.8L708.8,425.66z M774.4,486.31h48.48c2.5,0,4.48-1.98,4.48-4.35V470.5
		c0-2.3-1.86-4.1-4.26-4.21v8.31c0,4.16-3.44,7.45-7.58,7.45h-45.6C769.97,484.38,771.8,486.31,774.4,486.31L774.4,486.31z
		 M789.68,455.83v-12.86h25.16c2.5,0,4.08-1.58,4.08-4.08v-11.46c0-2.5-1.58-4.22-4.08-4.22h-0.17v8.32c0,4.22-2.97,7.18-7.18,7.18
		h-22.06v17.12H789.68L789.68,455.83z M789.68,412.75v-21.43h33.2c2.5,0,4.48-1.98,4.48-4.48v-11.33c0-2.43-1.86-4.11-4.26-4.21
		v8.19c0,4.21-3.37,7.58-7.58,7.58h-30.1v25.69H789.68L789.68,412.75z M163.59,632.71h12.12c2.24,0,4.22-2.11,4.22-4.48V521.65
		c0-2.5-1.98-4.48-4.22-4.48h-0.04v103.7c0,3.98-3.27,7.58-7.31,7.58h-9.1C159.36,630.73,161.17,632.71,163.59,632.71L163.59,632.71
		z M238.16,632.31h12.25c2.37,0,4.35-1.98,4.35-4.48V588.7l20.77-0.09v-4.29l-25.03,0.11v36.04c0,4.13-3.29,7.58-7.45,7.58h-9.1
		C234.07,630.45,236.11,632.31,238.16,632.31L238.16,632.31z M285.98,628.05c0.12,2.4,2.18,4.26,4.61,4.26h11.86
		c2.37,0,4.61-1.98,4.61-4.48V521.52c0-2.13-2.02-4.14-4.26-4.33v103.29c0,4.17-3.58,7.58-7.71,7.58H285.98L285.98,628.05z
		 M254.76,558.06v-36.55c0-2.47-1.93-4.3-4.26-4.35v40.91L254.76,558.06L254.76,558.06z M399.14,628.23l-21.61-106.71
		c-0.36-1.72-1.73-3.14-3.49-3.85l20.79,102.69c0.77,4.6-2.83,7.82-7.27,7.82h-10.98l0.16,0.7c0.24,2.17,1.48,3.35,3.61,3.53
		c1.06-0.18,2.14-0.27,3.24-0.27c1.06,0,2.09,0.1,3.1,0.3h8.24C397.83,632.44,399.54,630.6,399.14,628.23L399.14,628.23z
		 M323,628.18l-0.01,0.04c-0.53,2.37,1.45,4.22,4.35,4.22h13.96c2.77,0,3.69-1.19,4.22-3.56l3.56-18.84h14.56l-0.95-4.26h-18.4
		l-3.1,16.41c-0.87,3.93-3.12,5.98-7.24,5.98H323L323,628.18z M353.48,581.61l2.86-16.81l-2.75-15.96l-5.57,32.73L353.48,581.61
		L353.48,581.61z M419.3,632.31l34.52-0.13c5.4,0,10.54-1.58,15.15-3.95c9.62-4.87,14.62-17.78,14.62-28.98
		c0.13-39.13,1.32-57.18-4.08-66.92c-0.75-1.24-1.57-2.42-2.47-3.54c1.77,5.93,2.12,12.85,2.31,18.52
		c0.5,14.75,0.02,29.81-0.02,44.59c-0.03,11.81-5.26,26.1-16.32,31.74c-5.15,2.62-10.74,4.27-16.54,4.29l-31.51,0.12
		C415.08,630.21,417,632.31,419.3,632.31L419.3,632.31z M434.71,602.49v-63.58c0-1.19,1.05-2.37,2.37-2.37h13.83l0.43,0.01
		c-1.66-2.55-4.55-4.27-7.78-4.27h-13.11v70.21H434.71L434.71,602.49z M588.32,632.31h-11.33c-2.75-0.24-5.17-1.56-5.99-4.26h10.09
		l0.13-0.01c4.43-0.37,7.8-2.27,8.94-6.82l10.07-48.19l-0.87,31.58l-4.85,23.21C593.72,630.99,591.48,632.05,588.32,632.31
		L588.32,632.31z M555.22,595.06l0.69,33.03c0,2.11-1.84,4.22-4.08,4.22h-11.99c-2.42,0-4.71-2.21-4.86-4.26h9.5
		c3.9,0,7.18-3.44,7.18-7.31l-1-48.07L555.22,595.06L555.22,595.06z M566.18,517.93c1.66,0.69,3.09,2.01,3.7,4.51l6.61,36.69
		l-1.49,7.76L566.18,517.93L566.18,517.93z M626.22,517.18c2.57,0.14,4.26,1.81,4.26,4.21v106.45c0,2.64-1.84,4.48-4.61,4.48h-11.59
		c-3.1,0-4.58-1.94-4.83-4.26h9.07c4.4,0,7.71-3.15,7.71-7.58V517.18L626.22,517.18z M669.87,632.97h12.12
		c2.77,0,5.27-1.98,5.27-4.48v-46.9c0.26-2.63,0.92-5.27,1.98-7.9l19.37-49.93c2.03-6.1-0.71-6.99-4.19-7.1
		c-0.07,0.24-0.15,0.48-0.23,0.72l-0.05,0.14l-19.38,49.96c-0.89,2.22-1.5,4.53-1.75,6.91v46.74c0,4.45-4.13,7.58-8.37,7.58h-9.76
		C665,631.11,667.31,632.97,669.87,632.97L669.87,632.97z M669.73,536.2l-5.4-16c-0.59-1.69-1.51-2.61-2.64-3.08l7.25,21.46
		L669.73,536.2L669.73,536.2z"/>
	<path d="M122.44,186.41h12.12c2.24,0,4.22-2.11,4.22-4.48V75.36c0-2.5-1.98-4.48-4.22-4.48h-12.12c-2.5,0-4.35,1.98-4.35,4.48
		v106.58C118.1,184.31,119.94,186.41,122.44,186.41L122.44,186.41z M88.78,332.29h10.8c2.5,0,4.48-1.98,4.48-4.08v-38.73h25.56
		c2.64,0,4.22-1.71,4.22-3.82v-11.59c0-2.37-1.58-4.08-4.22-4.08h-25.56v-32.01h33.46c2.63,0,4.74-2.11,4.74-4.35v-11.59
		c0-2.24-1.98-3.95-4.74-3.95H88.78c-2.63,0-4.61,1.71-4.61,3.95V328.2C84.17,330.71,86.15,332.29,88.78,332.29L88.78,332.29z
		 M36.02,451.81v0.13c-0.13,19.5,15.41,29.38,32.8,29.51c21.08,0.13,34.65-12.65,33.07-36.36c-1.32-19.89-11.33-26.88-29.51-31.35
		c-10.93-2.77-14.75-6.06-16.6-14.1c-1.84-12.91,4.87-20.55,16.07-18.71c5.66,1.19,8.3,5.93,8.3,10.8v1.19
		c-0.13,2.5,1.58,4.35,4.08,4.48H95.7c2.5,0.13,4.61-1.84,4.74-4.74v-0.13c0-16.99-12.65-29.51-28.85-30.17
		c-21.74-0.79-36.23,11.86-35.57,33.73c0.4,10.28,1.58,30.56,28.85,36.62c9.88,2.11,15.15,5.01,16.47,13.96
		c3.03,21.47-23.45,20.42-23.84,6.32c0-4.08-2.63-6.32-6.46-6.32c-1.05,0-6.06-0.13-9.62-0.13
		C38.66,446.41,36.15,446.81,36.02,451.81L36.02,451.81z M156.23,625.35h12.12c2.24,0,4.22-2.11,4.22-4.48V514.29
		c0-2.5-1.98-4.48-4.22-4.48h-12.12c-2.5,0-4.35,1.98-4.35,4.48v106.58C151.89,623.24,153.73,625.35,156.23,625.35L156.23,625.35z
		 M230.8,624.95h12.25c2.37,0,4.35-1.98,4.35-4.48v-39.13l31.22-0.13v39.26c0,2.5,2.11,4.48,4.61,4.48h11.86
		c2.37,0,4.61-1.98,4.61-4.48V514.16c0-2.24-2.24-4.35-4.61-4.35h-11.86c-2.5,0-4.61,2.11-4.61,4.35v46.9l-31.22,0.13v-47.03
		c0-2.5-1.98-4.35-4.35-4.35H230.8c-2.11,0-4.22,2.11-4.22,4.35v106.31C226.58,622.98,228.69,624.95,230.8,624.95L230.8,624.95z
		 M391.78,620.87l-21.61-106.71c-0.53-2.5-3.16-4.35-6.06-4.35H343.3c-2.77,0-5.4,1.84-5.93,4.35l-21.74,106.71
		c-0.53,2.37,1.45,4.22,4.35,4.22h13.96c2.77,0,3.69-1.19,4.22-3.56l3.56-18.84h23.45l4.22,18.84c0.26,2.37,1.71,3.56,4.22,3.56
		h13.96C390.47,625.09,392.18,623.24,391.78,620.87L391.78,620.87z M362.93,584.77l-18.57-0.13l9.22-54.14L362.93,584.77
		L362.93,584.77z M411.94,624.95l34.52-0.13c5.4,0,10.54-1.58,15.15-3.95c9.62-4.87,14.62-17.78,14.62-28.98
		c0.13-39.13,1.32-57.17-4.08-66.92c-5.53-9.22-15.41-15.02-26.61-15.02h-33.07c-2.64,0-4.87,2.5-4.87,5.27v105.26
		C407.59,622.71,409.57,624.95,411.94,624.95L411.94,624.95z M442.11,605.59h-13.44c-0.92,0-1.32-0.4-1.32-1.32v-72.72
		c0-1.19,1.05-2.37,2.37-2.37h13.83c6.85,0,12.38,5.66,12.38,12.38v50.19C455.94,599.26,449.49,605.59,442.11,605.59L442.11,605.59z
		 M580.96,624.95h-11.33c-3.03-0.26-5.66-1.84-6.19-5.14l-16.6-81.28l1.71,82.21c0,2.11-1.84,4.22-4.08,4.22h-11.99
		c-2.5,0-4.87-2.37-4.87-4.48V514.03c0-2.5,2.37-4.22,4.87-4.22h20.55c3.03,0,8.17-0.13,9.49,5.27l12.38,68.77l13.17-68.77
		c1.58-5.93,6.98-5.27,9.35-5.27h21.08c2.77,0,4.61,1.71,4.61,4.22v106.45c0,2.63-1.84,4.48-4.61,4.48h-11.59
		c-3.43,0-4.87-2.37-4.87-5.01l2.24-81.42l-17.13,81.94C586.36,623.64,584.12,624.69,580.96,624.95L580.96,624.95z M662.51,625.61
		h12.12c2.77,0,5.27-1.98,5.27-4.48v-46.9c0.26-2.63,0.92-5.27,1.98-7.9l19.37-49.93c2.24-6.72-1.32-7.11-5.27-7.11h-10.41
		c-2.11,0-3.95,0.66-4.87,3.56l-11.72,35.57c0-0.13,0,0-11.99-35.57c-1.05-3.03-3.16-3.56-5.66-3.56h-10.14
		c-5.53,0-7.51,0.92-5.14,7.11l19.1,49.93c1.19,2.63,1.98,5.27,2.37,7.9v46.9C657.5,623.64,659.87,625.61,662.51,625.61
		L662.51,625.61z M191.47,475.26l-21.61-106.71c-0.53-2.5-3.16-4.35-6.06-4.35h-20.81c-2.77,0-5.4,1.84-5.93,4.35l-21.74,106.71
		c-0.53,2.37,1.45,4.22,4.35,4.22h13.96c2.77,0,3.69-1.19,4.22-3.56l3.56-18.84h23.45l4.22,18.84c0.26,2.37,1.71,3.56,4.22,3.56
		h13.96C190.16,479.48,191.87,477.63,191.47,475.26L191.47,475.26z M162.62,439.16l-18.57-0.13l9.22-54.14L162.62,439.16
		L162.62,439.16z M211.63,479.74h12.12c2.24,0,4.22-2.11,4.22-4.48V368.68c0-2.5-1.98-4.48-4.22-4.48h-12.12
		c-2.5,0-4.35,1.98-4.35,4.48v106.58C207.28,477.63,209.13,479.74,211.63,479.74L211.63,479.74z M253.39,479.35l34.52-0.13
		c5.4,0,10.54-1.58,15.15-3.95c9.62-4.87,14.62-17.78,14.62-28.98c0.13-39.13,1.32-57.17-4.08-66.92
		c-5.53-9.22-15.41-15.02-26.61-15.02h-33.07c-2.63,0-4.87,2.5-4.87,5.27v105.26C249.04,477.11,251.02,479.35,253.39,479.35
		L253.39,479.35z M283.56,459.98h-13.44c-0.92,0-1.32-0.4-1.32-1.32v-72.72c0-1.19,1.05-2.37,2.37-2.37h13.83
		c6.85,0,12.38,5.66,12.38,12.38v50.19C297.39,453.66,290.94,459.98,283.56,459.98L283.56,459.98z M374.46,479.21l31.35,0.13
		c17.39,0.13,30.43-5.01,29.77-32.01c-0.4-16.73-6.06-23.84-12.38-25.56c6.19-4.35,8.43-13.31,8.43-26.61
		c0-8.69-1.58-15.68-4.22-20.42c-4.74-8.43-14.62-10.54-21.61-10.54l-29.11-0.13c-7.25,0-7.64,3.82-7.64,7.64v99.73
		C369.06,474.34,369.06,479.21,374.46,479.21L374.46,479.21z M396.99,414.4h-5.8c-2.11,0-2.11,0-2.11-1.98l-0.26-27.8
		c0-3.95-0.26-3.43,2.5-3.43c14.23,0,19.37-1.32,19.37,16.34C410.69,410.05,408.84,414.4,396.99,414.4L396.99,414.4z M398.7,462.22
		h-5.8c-2.77,0-2.77,0-2.77-1.98l-0.26-21.34c0-5.93-0.26-6.98,1.32-7.11c13.83-1.19,22,0.4,23.19,13.04
		C416.09,462.88,407.13,462.22,398.7,462.22L398.7,462.22z M455.61,478.95h48.48c2.5,0,4.48-1.98,4.48-4.35v-11.46
		c0-2.37-1.98-4.22-4.48-4.22h-33.2v-23.32h25.16c2.5,0,4.08-1.58,4.08-4.08v-11.46c0-2.5-1.58-4.22-4.08-4.22h-25.16v-31.88h33.2
		c2.5,0,4.48-1.98,4.48-4.48v-11.33c0-2.5-1.98-4.22-4.48-4.22h-48.48c-2.63,0-4.48,1.71-4.48,4.22V474.6
		C451.13,476.97,452.98,478.95,455.61,478.95L455.61,478.95z M528.99,478.82h10.8c2.5,0,4.48-1.98,4.48-4.08V436h25.56
		c2.64,0,4.22-1.71,4.22-3.82v-11.59c0-2.37-1.58-4.08-4.22-4.08h-25.56v-32.01h33.46c2.64,0,4.74-2.11,4.74-4.35v-11.59
		c0-2.24-1.98-3.95-4.74-3.95h-48.74c-2.63,0-4.61,1.71-4.61,3.95v106.18C524.38,477.24,526.36,478.82,528.99,478.82L528.99,478.82z
		 M624.77,480.53h5.53c16.6,0,31.35-14.62,31.35-32.28l-0.13-54.41c0-18.05-13.96-31.49-31.49-31.49h-5.4
		c-17.79,0-31.62,13.7-31.62,31.62v54.28C593.02,467.23,607.38,480.53,624.77,480.53L624.77,480.53z M627.4,461.03h-0.66
		c-7.25,0-13.17-6.19-13.17-13.44v-53.88c0-7.25,5.93-12.65,13.17-12.65h0.53c7.25,0,13.04,5.4,13.04,12.65v53.88
		C640.31,454.84,634.51,461.03,627.4,461.03L627.4,461.03z M743.86,474.73l-10.8-31.49c5.8-4.48,9.48-11.59,9.48-20.29l0.13-31.09
		c0.13-17.65-6.72-27.8-25.69-27.8h-32.14c-3.03,0-4.74,1.98-4.74,4.61v106.45c0,2.5,1.71,4.22,4.74,4.22h12.65
		c2.64,0,4.87-1.71,4.87-4.22v-26.61l11.07,0.13l7.51,25.82c0.66,2.9,3.16,4.87,6.06,4.87h13.83
		C743.07,479.35,744.65,476.97,743.86,474.73L743.86,474.73z M713.82,428.76h-12.38v-47.43l12.38,0.13c5.27,0,9.22,3.82,9.22,9.09
		v28.85C723.04,424.54,718.96,428.76,713.82,428.76L713.82,428.76z M767.04,478.95h48.48c2.5,0,4.48-1.98,4.48-4.35v-11.46
		c0-2.37-1.98-4.22-4.48-4.22h-33.2v-23.32h25.16c2.5,0,4.08-1.58,4.08-4.08v-11.46c0-2.5-1.58-4.22-4.08-4.22h-25.16v-31.88h33.2
		c2.5,0,4.48-1.98,4.48-4.48v-11.33c0-2.5-1.98-4.22-4.48-4.22h-48.48c-2.63,0-4.48,1.71-4.48,4.22V474.6
		C762.57,476.97,764.41,478.95,767.04,478.95L767.04,478.95z M184.56,334h5.53c16.6,0,31.35-14.62,31.35-32.28l-0.13-54.41
		c0-18.05-13.96-31.49-31.49-31.49h-5.4c-17.78,0-31.62,13.7-31.62,31.62v54.28C152.81,320.69,167.17,334,184.56,334L184.56,334z
		 M187.19,314.5h-0.66c-7.25,0-13.17-6.19-13.17-13.44v-53.88c0-7.25,5.93-12.65,13.17-12.65h0.53c7.25,0,13.04,5.4,13.04,12.65
		v53.88C200.1,308.31,194.31,314.5,187.19,314.5L187.19,314.5z M303.65,328.2l-10.8-31.49c5.8-4.48,9.48-11.59,9.48-20.29
		l0.13-31.09c0.13-17.65-6.72-27.8-25.69-27.8h-32.14c-3.03,0-4.74,1.98-4.74,4.61V328.6c0,2.5,1.71,4.22,4.74,4.22h12.65
		c2.63,0,4.87-1.71,4.87-4.22v-26.61l11.07,0.13l7.51,25.82c0.66,2.9,3.16,4.87,6.06,4.87h13.83
		C302.86,332.81,304.44,330.44,303.65,328.2L303.65,328.2z M273.61,282.23h-12.38V234.8l12.38,0.13c5.27,0,9.22,3.82,9.22,9.09
		v28.85C282.84,278.01,278.75,282.23,273.61,282.23L273.61,282.23z M374.66,332.81h16.34c2.64,0,4.74-2.11,5.4-5.4l8.7-54.8
		l8.96,56.12c0.53,2.11,2.63,4.08,5.14,4.08h16.47c2.63,0,4.74-2.11,5.27-5.4l16.99-106.58c0.13-1.32-1.84-3.29-3.95-3.29h-11.86
		c-2.5,0-4.61,1.98-5.14,4.48l-9.62,74.96l-11.86-74.3c-0.66-3.43-2.5-5.14-6.59-5.14H398.9c-3.56,0-6.19,1.32-6.85,5.53
		l-9.49,73.91l-11.59-75.35c-0.53-2.11-2.63-4.08-5.14-4.08h-11.86c-2.5,0-4.35,1.98-3.82,4.08l19.5,107.1
		C369.78,330.84,372.29,332.81,374.66,332.81L374.66,332.81z M477.94,332.81h12.25c2.37,0,4.35-1.98,4.35-4.48v-39.13l31.22-0.13
		v39.26c0,2.5,2.11,4.48,4.61,4.48h11.86c2.37,0,4.61-1.98,4.61-4.48V222.02c0-2.24-2.24-4.35-4.61-4.35h-11.86
		c-2.5,0-4.61,2.11-4.61,4.35v46.9l-31.22,0.13v-47.03c0-2.5-1.98-4.35-4.35-4.35h-12.25c-2.11,0-4.22,2.11-4.22,4.35v106.31
		C473.73,330.84,475.83,332.81,477.94,332.81L477.94,332.81z M638.93,328.73l-21.61-106.71c-0.53-2.5-3.16-4.35-6.06-4.35h-20.81
		c-2.77,0-5.4,1.84-5.93,4.35l-21.74,106.71c-0.53,2.37,1.45,4.22,4.35,4.22h13.96c2.77,0,3.69-1.19,4.22-3.56l3.56-18.84h23.45
		l4.22,18.84c0.26,2.37,1.71,3.56,4.22,3.56h13.96C637.61,332.95,639.32,331.1,638.93,328.73L638.93,328.73z M610.08,292.63
		l-18.58-0.13l9.22-54.14L610.08,292.63L610.08,292.63z M666.46,332.81h12.25c2.37,0,4.22-1.98,4.22-4.48v-92.09h15.15
		c2.63,0,4.87-1.32,4.87-3.95v-10.54c0-3.16-2.24-4.35-4.87-4.35H646.3c-2.77,0-4.74,1.84-4.74,4.35v10.54
		c0,2.5,1.98,3.95,4.74,3.95h15.94v92.09C662.24,330.84,664.35,332.81,666.46,332.81L666.46,332.81z M754.86,333.21h12.12
		c2.24,0,4.22-2.11,4.22-4.48V222.15c0-2.5-1.98-4.48-4.22-4.48h-12.12c-2.5,0-4.35,1.98-4.35,4.48v106.58
		C750.51,331.1,752.35,333.21,754.86,333.21L754.86,333.21z M156.43,108.82h3.95c5.14,0,7.51-1.05,9.88-6.59l9.88-25.29
		c0.92-1.98,1.19-3.56,1.19-4.61c-0.66-1.71-1.98-1.71-5.8-1.71h-3.95c-4.74,0-7.64,0.79-9.88,6.32l-9.88,25.29
		c-0.53,1.05-0.66,2.11-0.66,3.03C151.16,107.63,153.01,108.82,156.43,108.82L156.43,108.82z M246.15,186.02h-11.33
		c-3.03-0.26-5.66-1.84-6.19-5.14l-16.6-81.28l1.71,82.21c0,2.11-1.84,4.22-4.08,4.22h-11.99c-2.5,0-4.87-2.37-4.87-4.48V75.09
		c0-2.5,2.37-4.22,4.87-4.22h20.55c3.03,0,8.17-0.13,9.49,5.27l12.38,68.77l13.17-68.77c1.58-5.93,6.98-5.27,9.35-5.27h21.08
		c2.77,0,4.61,1.71,4.61,4.22v106.45c0,2.64-1.84,4.48-4.61,4.48H272.1c-3.43,0-4.87-2.37-4.87-5.01l2.24-81.42l-17.13,81.94
		C251.55,184.7,249.31,185.76,246.15,186.02L246.15,186.02z M340.21,158.49v0.13c-0.13,19.5,15.41,29.38,32.8,29.51
		c21.08,0.13,34.65-12.65,33.07-36.36c-1.32-19.89-11.33-26.88-29.51-31.35c-10.93-2.77-14.75-6.06-16.6-14.1
		c-1.84-12.91,4.87-20.55,16.07-18.71c5.66,1.19,8.3,5.93,8.3,10.8v1.19c-0.13,2.5,1.58,4.35,4.08,4.48h11.46
		c2.5,0.13,4.61-1.84,4.74-4.74V99.2c0-16.99-12.65-29.51-28.85-30.17c-21.74-0.79-36.23,11.86-35.57,33.73
		c0.4,10.28,1.58,30.56,28.85,36.62c9.88,2.11,15.15,5.01,16.47,13.96c3.03,21.47-23.45,20.42-23.84,6.32
		c0-4.08-2.63-6.32-6.46-6.32c-1.05,0-6.06-0.13-9.62-0.13C342.84,153.08,340.34,153.48,340.21,158.49L340.21,158.49z
		 M453.77,187.21h5.53c16.6,0,31.35-14.62,31.35-32.28l-0.13-54.41c0-18.05-13.96-31.49-31.49-31.49h-5.4
		c-17.78,0-31.62,13.7-31.62,31.62v54.28C422.02,173.9,436.38,187.21,453.77,187.21L453.77,187.21z M456.4,167.71h-0.66
		c-7.25,0-13.17-6.19-13.17-13.44v-53.88c0-7.25,5.93-12.65,13.17-12.65h0.53c7.25,0,13.04,5.4,13.04,12.65v53.88
		C469.31,161.52,463.52,167.71,456.4,167.71L456.4,167.71z M572.86,181.41l-10.8-31.49c5.8-4.48,9.49-11.59,9.49-20.29l0.13-31.09
		c0.13-17.65-6.72-27.8-25.69-27.8h-32.14c-3.03,0-4.74,1.98-4.74,4.61V181.8c0,2.5,1.71,4.22,4.74,4.22h12.65
		c2.64,0,4.87-1.71,4.87-4.22v-26.61l11.07,0.13l7.51,25.82c0.66,2.9,3.16,4.87,6.06,4.87h13.83
		C572.07,186.02,573.65,183.65,572.86,181.41L572.86,181.41z M542.82,135.43h-12.38V88.01l12.38,0.13c5.27,0,9.22,3.82,9.22,9.09
		v28.85C552.05,131.22,547.96,135.43,542.82,135.43L542.82,135.43z M655.33,181.41l-10.8-31.49c5.8-4.48,9.49-11.59,9.49-20.29
		l0.13-31.09c0.13-17.65-6.72-27.8-25.69-27.8h-32.14c-3.03,0-4.74,1.98-4.74,4.61V181.8c0,2.5,1.71,4.22,4.74,4.22h12.65
		c2.63,0,4.87-1.71,4.87-4.22v-26.61l11.07,0.13l7.51,25.82c0.66,2.9,3.16,4.87,6.06,4.87h13.83
		C654.54,186.02,656.12,183.65,655.33,181.41L655.33,181.41z M625.29,135.43h-12.38V88.01l12.38,0.13c5.27,0,9.22,3.82,9.22,9.09
		v28.85C634.51,131.22,630.43,135.43,625.29,135.43L625.29,135.43z M696.3,186.68h12.12c2.77,0,5.27-1.98,5.27-4.48v-46.9
		c0.26-2.63,0.92-5.27,1.98-7.9l19.37-49.93c2.24-6.72-1.32-7.11-5.27-7.11h-10.41c-2.11,0-3.95,0.66-4.87,3.56l-11.72,35.57
		c0-0.13,0,0-11.99-35.57c-1.05-3.03-3.16-3.56-5.66-3.56h-10.14c-5.53,0-7.51,0.92-5.14,7.11l19.1,49.93
		c1.19,2.63,1.98,5.27,2.37,7.9v46.9C691.29,184.7,693.67,186.68,696.3,186.68L696.3,186.68z"/>
	<path class="st0" d="M180.68,759.94c-5.12,0-9.63-1.11-13.52-3.28c-1.21-0.67-2.29-1.43-3.23-2.29c3.02,0.9,6.18,1.31,9.4,1.31
		l0.12,0c19.57-0.79,39.98-10.12,57.14-20.33c-0.03,0.47-0.05,0.95-0.05,1.43c0,2.1,0.4,4.1,1.12,5.98
		C212.32,753.65,195.35,759.35,180.68,759.94L180.68,759.94z M201.59,705.88c2.49,1.86,3.82,3.63,4.01,5.32
		c0.22,1.95,0.33,3.17,0.33,3.62c0,2.78-0.61,5.51-1.78,8.12c-0.89,2.17-2.28,3.28-4.28,3.28c-0.83,0-1.72-0.33-2.67-0.89
		c-0.89-0.61-1.5-1.34-1.78-2.17c-0.22-0.61-0.33-1.14-0.37-1.62c2.13-0.76,3.68-2.49,4.62-4.79c1.29-2.88,2.01-6.04,2.01-9.3
		C201.68,706.96,201.64,706.43,201.59,705.88L201.59,705.88z M184.69,715.13c-4.14,2.86-7.72,6.66-10.8,11.49
		c-2.8,4.45-4.57,8.67-5.3,12.7c-1.03-0.23-2.03-0.55-2.98-0.97c-1.4-0.61-1.59-2.38-1.6-3.73c0.37-4.88,2.55-9.61,5.14-13.69
		c2.94-4.64,6.61-8.59,11.31-11.48c1.31-0.76,2.82-1.32,4.44-1.32c0.17,0,0.47,0.01,0.76,0.03c-0.1,1-0.41,2.04-0.73,2.95
		l-0.07,0.21l-0.04,0.22c-0.15,0.75-0.23,1.51-0.23,2.28C184.58,714.25,184.62,714.69,184.69,715.13L184.69,715.13z M258.46,759.94
		c-4.88,0-9.01-1.6-12.41-4.81c1.61,0.37,3.29,0.55,5.06,0.55c6.38,0,11.94-2.34,16.63-6.47c3.45,0.53,6.92,0.8,10.41,0.8
		c12.87,0,25.57-3.75,37.22-9.01c4.02-1.81,8.02-3.71,11.95-5.73c-0.7,2.82-1.38,5.65-2.03,8.49c-1.25,0.59-2.53,1.18-3.84,1.77
		c-12.91,5.79-24.87,8.74-35.94,8.74c-3.84,0-7.62-0.33-11.41-1C269.54,757.72,264.3,759.94,258.46,759.94L258.46,759.94z
		 M279.16,712.03c0.44,0.46,0.87,0.94,1.28,1.45c2.73,4.01,4.06,8.79,4.06,14.36c0,2.08-0.16,4.14-0.49,6.18
		c-2.03,0.23-4.08,0.37-6.14,0.42c1.56-4.48,2.37-9.16,2.37-13.96C280.24,717.58,279.91,714.75,279.16,712.03L279.16,712.03z
		 M263.88,715.76c-1.89,0.33-3.54,1.19-4.92,2.55l-0.02-0.09c-0.76-2.75-2.55-4.51-4.99-5.22c1.22-1.12,2.67-1.66,4.45-1.66
		c1.87,0,3.24,0.64,4.33,2.16C263.23,714.2,263.6,714.96,263.88,715.76L263.88,715.76z M258.94,723.11
		c2.28,0.06,3.77,1.11,4.37,3.28l0.31,1.35c-0.31,1.08-0.7,2.13-1.17,3.17l-0.01,0.02c-2.24-1.18-4.32-2.6-6.25-4.24
		C257.47,725.75,258.42,724.55,258.94,723.11L258.94,723.11z M343.71,795c-2.86,0-5.41-1.41-7.56-4.26l0.2,0
		c14.96,0,15.78-22.7,15.78-33.09c0-7.78-0.71-15.63-1.8-23.38c1.09,0.57,2.21,1.11,3.34,1.61c1.8,10.81,2.72,20.54,2.72,29.12
		C356.39,784.98,352.16,795,343.71,795L343.71,795z M400.46,646.51c3.23,3.03,4.84,7.44,4.84,13.17c0,3.28-0.72,6.62-2.11,10.13
		c-4.12,10.02-9.57,18.42-16.3,25.26c-8.98,9.09-18.95,17.54-29.94,25.35c-2.26-1.19-4.41-2.59-6.46-4.2
		c11.16-7.86,21.66-16.62,31.25-26.34c7.43-7.53,12.98-16.49,16.97-26.27c1.47-3.61,2.34-7.38,2.34-11.29
		C401.04,650.32,400.86,648.37,400.46,646.51L400.46,646.51z M420.46,742.44c-8.97,3.4-17.35,5.1-25.12,5.1l-4.9-0.28
		c-15.04-1.58-26.87-5.17-35.46-10.8c8.8,3.69,18.63,5.56,27.78,6.52l0.07,0.01l5.06,0.29h0.09c11.83,0,23.64-3.72,34.39-8.79
		C421.72,737.13,421.08,739.78,420.46,742.44L420.46,742.44z M385.17,654.21c-1.59,1.06-3.19,2.51-4.79,4.35
		c-5.54,7.22-10.13,15.34-13.8,24.37c-2.99,2.97-6.15,5.77-9.38,8.41l0.04-0.1l0.03-0.11c3.72-13.69,9.51-26.66,18.16-37.97
		c2.1-2.39,5.16-5.2,8.53-5.37c0.14,0.11,0.31,0.27,0.4,0.37c0.87,0.87,1.04,2.67,1.04,3.82
		C385.39,652.7,385.31,653.45,385.17,654.21L385.17,654.21z M438.58,795c-2.86,0-5.41-1.41-7.56-4.26l0.2,0
		c14.96,0,15.78-22.7,15.78-33.09c0-7.78-0.71-15.63-1.8-23.38c1.09,0.57,2.21,1.11,3.34,1.61c1.8,10.81,2.72,20.54,2.72,29.12
		C451.26,784.98,447.03,795,438.58,795L438.58,795z M495.33,646.51c3.23,3.03,4.84,7.44,4.84,13.17c0,3.28-0.72,6.62-2.11,10.13
		c-4.12,10.02-9.57,18.42-16.3,25.26c-8.98,9.09-18.95,17.54-29.94,25.35c-2.26-1.19-4.41-2.59-6.46-4.2
		c11.16-7.86,21.66-16.62,31.25-26.34c7.43-7.53,12.98-16.49,16.97-26.27c1.47-3.61,2.34-7.38,2.34-11.29
		C495.91,650.32,495.73,648.37,495.33,646.51L495.33,646.51z M521.63,739.81c-11.38,5.15-21.86,7.72-31.42,7.72l-4.9-0.28
		c-15.04-1.58-26.87-5.17-35.46-10.8c8.8,3.69,18.63,5.56,27.77,6.52l0.07,0.01l5.06,0.29h0.09c12.75,0,25.48-4.32,36.91-10.01
		C520.13,735.59,520.75,737.77,521.63,739.81L521.63,739.81z M480.04,654.21c-1.59,1.06-3.19,2.51-4.79,4.35
		c-5.54,7.22-10.13,15.34-13.8,24.37c-2.99,2.97-6.15,5.77-9.38,8.41l0.04-0.1l0.03-0.11c3.72-13.69,9.51-26.66,18.16-37.97
		c2.1-2.39,5.16-5.2,8.53-5.37c0.14,0.11,0.31,0.27,0.4,0.37c0.87,0.87,1.04,2.67,1.04,3.82
		C480.26,652.7,480.18,653.45,480.04,654.21L480.04,654.21z M558.04,760.95c-6.62,0-12.07-1.34-16.3-3.95
		c-0.95-0.6-1.84-1.23-2.68-1.89c3.74,1.15,7.73,1.58,11.62,1.58c10.46,0,21.48-3.61,30.99-7.71c8.03-3.46,15.71-8.03,22.93-13.04
		c0.62,2.42,1.55,4.66,2.77,6.72c-6.82,4.53-13.34,8.14-19.57,10.83C576.29,758.44,566.38,760.95,558.04,760.95L558.04,760.95z
		 M560.96,708.07c0.44,0.3,0.86,0.64,1.26,1.01c2,1.95,3,4.12,3,6.51c0,1.56-0.45,3.28-1.33,5.23
		c-3.85,6.66-11.84,12.44-24.01,17.25c-1.82-1.39-3.49-3.12-4.26-5.27c8.95-3.74,18.72-9.36,23.59-17.78l0.08-0.13l0.06-0.13
		c0.93-2.04,1.61-4.25,1.61-6.52L560.96,708.07L560.96,708.07z M621.98,731.91c-0.62,0.49-1.23,0.98-1.84,1.46
		c0.84,1.89,2.37,3.44,4.03,4.7c12.17-4.81,20.16-10.59,24.01-17.25c0.89-1.95,1.33-3.67,1.33-5.23c0-2.39-1-4.56-3-6.51
		c-0.39-0.37-0.81-0.71-1.26-1.01l0,0.17c0,2.26-0.68,4.47-1.61,6.52l-0.06,0.13l-0.07,0.13C639,722.8,630.33,728.19,621.98,731.91
		L621.98,731.91z M642.34,760.95c-6.62,0-12.07-1.34-16.3-3.95c-0.95-0.6-1.84-1.23-2.68-1.89c3.74,1.15,7.73,1.58,11.62,1.58
		c10.46,0,21.48-3.61,30.99-7.71c13.73-5.92,26.69-15.15,38.15-24.67l0.1-0.09c1.01-0.92,1.82-2.01,2.3-3.23
		c1.49,0.03,2.62,0.53,3.48,1.45c0.83,1,1.28,2.06,1.28,3.28c0,1.28-0.61,2.5-1.78,3.56c-13.47,11.18-25.93,19.25-37.39,24.2
		C660.59,758.44,650.68,760.95,642.34,760.95L642.34,760.95z"/>
	<path d="M619.53,717.43c0.11,0.52,0.13,1.08,0.04,1.6c7.59-3.88,11.97-7.46,13.13-10.79c-1.87,0-2.91,0.16-4.73,0.83
		C624.45,711.16,621.63,713.93,619.53,717.43L619.53,717.43z M445.68,700.12c15.58-11.18,26.6-22.76,33.11-34.55
		c3.06-5.56,4.56-10.07,4.56-13.58c0-2.37-1.2-7.29-4.23-7.29c-3.73,0-7.46,2.17-11.24,6.51c-8.4,10.96-14.63,23.98-18.75,39.12
		L445.68,700.12L445.68,700.12z M431.33,777.68c2.11-2.06,3.12-8.57,3.12-19.53c0-8.18-0.39-13.8-1.11-16.97
		c-3.06,12.69-4.56,21.92-4.56,27.54C428.77,773.06,429.6,776.07,431.33,777.68L431.33,777.68z M535.31,717.3
		c0.1,0.55,0.08,1.17-0.01,1.72c7.57-3.87,11.94-7.45,13.1-10.78c-1.87,0-2.91,0.16-4.73,0.83
		C540.2,711.13,537.4,713.86,535.31,717.3L535.31,717.3z M350.82,700.12c15.58-11.18,26.6-22.76,33.11-34.55
		c3.06-5.56,4.56-10.07,4.56-13.58c0-2.67-0.67-4.73-1.95-6.01c-0.89-0.89-1.61-1.28-2.28-1.28c-3.73,0-7.46,2.17-11.24,6.51
		c-8.4,10.96-14.63,23.98-18.75,39.12L350.82,700.12L350.82,700.12z M336.46,777.68c2.11-2.06,3.12-8.57,3.12-19.53
		c0-8.18-0.39-13.8-1.11-16.97c-3.06,12.69-4.56,21.92-4.56,27.54C333.9,773.06,334.73,776.07,336.46,777.68L336.46,777.68z
		 M263.79,735.01c2.62-4.4,3.9-9.13,3.9-14.36c0-3.73-0.78-6.68-2.45-8.96c-1.61-2.28-3.89-3.45-6.84-3.45
		c-3.12,0-5.68,1.22-7.62,3.62c-1.34,1.61-2.17,3.28-2.62,5.01c1.17-0.72,2.28-1.11,3.23-1.11c3.49,0,4.23,1.86,4.9,4.73
		c0,1.84-0.89,3.23-2.78,4.23c-0.83,0.45-1.67,0.95-2.39,1.45C254.89,730.11,259.12,733,263.79,735.01L263.79,735.01z
		 M250.94,742.96c1.06,0,2.34-0.17,3.73-0.5l1.61-0.61c-4.45-2.5-8.46-5.56-12.07-9.13c-0.61,1.39-0.95,2.67-0.95,3.9
		C243.26,740.93,247.01,742.96,250.94,742.96L250.94,742.96z M173.32,752.59c-5.12,0-9.63-1.11-13.52-3.28
		c-5.45-3-8.23-7.96-8.35-14.8c0.22-6.51,2.56-13.19,6.96-20.03c4.4-6.9,9.68-12.13,15.86-15.86c3.84-2.06,7.4-3.06,10.79-3.06
		c2.84,0,5.45,0.67,7.96,2.11c3.28,2.17,5.01,4.23,5.23,6.18c0.22,1.95,0.33,3.17,0.33,3.62c0,2.78-0.61,5.51-1.78,8.12
		c-0.89,2.17-2.28,3.28-4.28,3.28c-0.83,0-1.72-0.33-2.67-0.89c-1.43-0.98-2.17-2.44-2.17-4.17c0-0.56,0.06-1.11,0.17-1.67
		c0.61-1.72,0.95-3.28,0.95-4.67c0-1.67-1.28-2.45-3.9-2.45c-1.95,0-3.95,0.56-6.07,1.78c-4.79,2.95-8.85,7.07-12.3,12.46
		c-3.39,5.4-5.29,10.46-5.62,15.25c0,3.45,1.17,5.68,3.45,6.68c2.67,1.17,5.9,1.78,9.63,1.78c5.84,0,13.08-1.61,21.64-4.9
		c13.69-5.4,27.76-12.85,42.23-22.31c0.28-0.14,0.56-0.26,0.85-0.36c0.52-2.57,1.64-5.06,3.38-7.49c4.06-5.95,9.51-8.96,16.47-8.96
		c5.79,0,10.63,2.39,14.52,7.18c2.73,4.01,4.06,8.79,4.06,14.36c0,5.84-1.28,11.57-3.9,17.08h2.78c11.41,0,22.92-2.67,34.55-8.12
		c11.06-5.31,19.52-10,25.36-14.03c2.81-9.43,5.93-18.83,9.36-28.21c4.23-15.75,11.07-29.82,20.53-42.23
		c2.39-2.78,5.17-5.12,8.4-7.01c3.17-1.84,6.29-2.73,9.35-2.73c2.62,0,5.17,0.78,7.68,2.45c4.45,3,6.68,7.9,6.68,14.63
		c0,3.28-0.72,6.62-2.11,10.13c-4.12,10.02-9.57,18.42-16.3,25.26c-9.57,9.68-20.25,18.64-32.11,26.88l-1.67,1.34v0.33
		c6.34,5.84,13.97,9.74,22.98,11.57c9.07,1.84,15.13,2.78,18.31,2.78c12.62,0,27.16-4.95,43.66-14.8c2.84-9.56,5.99-19.09,9.48-28.6
		c4.23-15.75,11.07-29.82,20.53-42.23c2.39-2.78,5.17-5.12,8.4-7.01c3.17-1.84,6.29-2.73,9.35-2.73c2.62,0,5.17,0.78,7.68,2.45
		c4.45,3,6.68,7.9,6.68,14.63c0,3.28-0.72,6.62-2.11,10.13c-4.12,10.02-9.57,18.42-16.3,25.26c-9.57,9.68-20.25,18.64-32.11,26.88
		l-1.67,1.34v0.33c6.34,5.84,13.97,9.74,22.98,11.57c9.07,1.84,15.13,2.78,18.31,2.78c12.59,0,27.08-4.93,43.54-14.73
		c2.73-6.11,7.28-11.1,13.66-14.98c2.5-1.39,5.01-2.11,7.51-2.11c3.45,0,6.18,1,8.24,2.95c2,1.95,3,4.12,3,6.51
		c0,1.56-0.44,3.28-1.34,5.23c-3.89,6.73-12.02,12.58-24.43,17.42c0.22,3.95,2.56,7.4,7.01,10.46c2.61,1.72,6.18,2.62,10.74,2.62
		c4.34,0,9.63-0.83,15.8-2.45c12.15-3.02,26.72-11.31,43.78-24.9c2.69-6.44,7.34-11.68,13.98-15.72c2.5-1.39,5.01-2.11,7.51-2.11
		c3.45,0,6.18,1,8.23,2.95c2,1.95,3,4.12,3,6.51c0,1.56-0.45,3.28-1.34,5.23c-3.9,6.73-12.02,12.58-24.43,17.42
		c0.22,3.95,2.56,7.4,7.01,10.46c2.62,1.72,6.18,2.62,10.74,2.62c4.34,0,9.63-0.83,15.8-2.45c12.74-3.17,28.16-12.13,46.29-26.93
		c0.89-0.61,1.84-0.95,2.78-0.95c1.56,0,2.73,0.5,3.62,1.45c0.83,1,1.28,2.06,1.28,3.28c0,1.28-0.61,2.5-1.78,3.56
		c-13.47,11.18-25.93,19.25-37.39,24.2c-11.52,4.95-21.42,7.46-29.77,7.46c-6.62,0-12.07-1.34-16.3-3.95
		c-7.27-4.58-11.2-10.92-11.82-19.11c-9.33,6.83-18.13,12.03-26.41,15.61c-11.52,4.95-21.42,7.46-29.77,7.46
		c-6.62,0-12.07-1.34-16.3-3.95c-7.89-4.97-11.84-12.02-11.91-21.25c-14.59,7.87-27.81,11.8-39.62,11.8
		c-14.13-0.8-30-3.67-41.73-12.02c1.84,10.96,2.78,20.81,2.78,29.49c0,19.98-4.23,29.99-12.69,29.99c-3.17,0-5.95-1.72-8.23-5.23
		c-2.34-3.45-3.51-8.23-3.51-14.36c0-3.45,0.33-7.29,1.11-11.57c1.87-9.3,4.03-18.57,6.49-27.82c-14.38,7.69-27.43,11.52-39.1,11.52
		c-14.13-0.8-30-3.67-41.73-12.02c1.84,10.96,2.78,20.81,2.78,29.49c0,19.98-4.23,29.99-12.69,29.99c-3.17,0-5.95-1.72-8.24-5.23
		c-2.34-3.45-3.51-8.23-3.51-14.36c0-3.45,0.33-7.29,1.11-11.57c1.83-9.13,3.95-18.23,6.36-27.31c-5.11,2.88-11.11,5.88-17.99,9
		c-12.91,5.79-24.87,8.74-35.94,8.74c-3.84,0-7.62-0.33-11.41-1c-4.56,4.45-9.79,6.68-15.64,6.68c-5.68,0-10.35-2.17-14.02-6.51
		c-2.28-2.95-3.45-6.07-3.45-9.29c0-2.85,0.69-5.59,2.1-8.24C211.58,743.91,190.82,751.88,173.32,752.59L173.32,752.59z"/>
</g>
</svg>
