<?xml version="1.0" encoding="utf-8"?>
<!-- Generator: Adobe Illustrator 25.0.0, SVG Export Plug-In . SVG Version: 6.00 Build 0)  -->
<svg version="1.1" id="Layer_1" xmlns="http://www.w3.org/2000/svg" xmlns:xlink="http://www.w3.org/1999/xlink" x="0px" y="0px"
	 viewBox="0 0 720 887.05" style="enable-background:new 0 0 720 887.05;" xml:space="preserve">
<g>
	<path d="M194.54,116.17V0.97h23.53v95.57h58.25v19.63H194.54L194.54,116.17z M292.19,116.17V0h23.53v116.17H292.19L292.19,116.17z
		 M338.08,116.17V0h79.83v19.63h-56.3v27.58h48.68v19.63h-48.68v49.33H338.08L338.08,116.17z M437.19,116.17V0h85.99v19.63h-62.47
		v25.8h58.09v19.63h-58.09v31.48h64.74v19.63H437.19L437.19,116.17z"/>
	<path d="M312.92,423.69c6.69,12.37,19.72,14.71,32.43,14.71c27.41-2.34,46.13-29.42,54.83-53.15c5.35-14.04,8.36-28.75,11.03-43.46
		l9.03-47.14c1.67-7.69,3.01-15.04,5.01-22.4c1-3.68,2.01-7.69,3.34-11.7c1-2.67,3.34-7.02,3.34-10.03c0-1.67-1.34-2.34-3.34-2.34
		s-5.01,0.67-7.02,0.67c-1.67,0-3.34-0.33-3.68-1.67c-0.17-0.51,2.4-8.4,2.67-10.03c1-3.68,1.67-7.35,2.34-11.03
		c2.34-13.04,2.01-28.08-12.03-34.1c-3.68-1.67-7.35-2.34-11.37-2.34c-36.44,0-63.52,51.15-73.21,80.23
		c-2.25,6.6-4.12,13.44-5.49,20.4c-12.16,20.09-38.76,47.47-61.04,47.47c-5.35,0-10.03-2.01-13.04-8.02
		c-5.35-10.7-3.34-23.74-0.67-34.77c0.33-1.67,0.67-4.35,2.34-5.35c0.67-0.33,1.34-0.33,2.01-0.33c35.1,0,65.52-26.08,68.53-61.51
		c1-10.7-0.33-22.4-7.69-30.76c-4.35-5.35-10.7-7.35-17.05-7.35c-46.13,0-80.23,77.56-80.23,117c0.33,5.35,0.33,11.03,1,16.38
		c2.01,13.04,9.36,30.76,24.07,33.43c2.67,0.33,5.02,0.67,7.69,0.67c28.84,0,54.64-19.3,71.52-43.26
		c-0.24,12.89,1.6,28.73,12.39,36.91c4.34,3.34,9.69,4.68,15.38,4.68c16.38,0,25.74-9.03,35.44-20.73c0.33-0.33,4.35-6.02,5.02-5.68
		c1.67,1.34-1,9.03-1.34,10.36c-4.01,18.05-19.39,84.58-43.46,84.58c-1.67,0-3.34-0.67-5.01-1.67c-5.02-4.01-4.35-12.37-3.68-18.05
		c0.33-4.01,1.67-7.69,3.01-11.7c1-3.34,3.01-7.69,3.34-11.03c0-3.01-3.01-2.34-5.35-2.67c-5.25,0-10.47-0.67-15.71-0.67
		c-1,0-1.67,0-2.67,0c-3.34,0.33-3.68,4.35-4.68,7.36C307.24,397.62,305.9,412.33,312.92,423.69L312.92,423.69z M38.13,369.87
		c14.38,0,27.08-6.02,37.11-16.05c2.34-2.67,4.35-5.35,6.35-8.36c1-1,1.34-1.67,2.01-1.67c1.2,0,5.53,2.99,6.69,3.68
		c13.04,8.02,28.08,12.37,43.46,13.37c16.38,0,28.75-0.67,43.12-10.03c11.37-7.35,18.72-18.39,22.73-31.09
		c6.35-21.4,2.01-47.47-13.37-63.85c-4.01-4.01-8.36-7.69-13.71-10.36c-0.67-0.67-3.68-1.34-3.34-3.01c0-0.67,2.01-1,2.34-1.34
		c13.04-6.69,25.07-16.71,29.42-31.09c2.09-10.45,3.05-14.98,2.01-25.41c-0.62-6.17-3.31-15.13-5.68-21.06
		c-14.04-29.42-53.82-40.45-84.24-40.45c-40.45,0-94.61,19.72-104.64,63.85c-2.7,14.82-1.1,28.38,9.69,40.12
		c6.59,6.15,14.93,10.36,24.07,10.36c22.73,0,42.12-26.41,45.46-47.8c0.67-2.67-0.33-3.34-2.01-3.34c-1,0-2.34,0.33-3.68,0.33H68.21
		c-0.67,0-1,0-1.67,0c-2.34,0-3.68,0.33-4.68,3.01c-2.67,7.69-6.35,14.71-11.03,21.4c-3.34,4.01-8.36,10.36-13.71,10.36
		c-7.84,0-8.75-10.19-8.02-16.05c3.68-39.78,51.15-64.18,86.92-64.18c20.73,0,42.12,6.02,53.49,25.07
		c7.35,12.03,9.36,28.75,1.67,41.12c-7.69,12.7-20.73,20.06-35.44,21.4c-4.01,0.33-4.01,1.34-5.02,5.35
		c-0.57,2.28-4.96,17.82-4.34,19.05c0.67,1,2.01,1,3.34,1c3.68,0.33,7.35,0.33,11.03,1.34c29.75,7.02,37.11,42.79,23.74,67.19
		c-6.69,12.03-18.39,18.72-31.42,18.72c-10.03,0-19.72-3.68-28.75-8.36c-3.01-1.34-8.36-3.34-10.36-6.02
		c-2.01-2.67,1-7.35,2.01-10.03c17.38-47.8,28.08-97.62,34.77-147.76c0.33-2.67,2.67-8.69-0.33-9.69
		c-3.71-1.48-14.77-1.34-19.06-1.34c-2.01,0-4.01,0.33-4.68,1.34c-2.01,2.34-1.67,7.69-2.01,10.7
		c-6.69,42.12-14.04,84.24-27.75,125.03c-1.34,4.35-2.67,8.69-4.35,12.7c-1,2.34-1.67,3.01-3.01,3.01c-0.67,0-2.01-0.67-4.01-1.34
		c-9.03-3.34-18.39-6.02-28.08-6.02c-19.05,0-36.77,11.7-37.44,32.43C-0.65,358.18,17.98,369.87,38.13,369.87L38.13,369.87z
		 M18.74,333.1c3.34-7.02,12.7-11.03,21.06-11.03c5.33,0,13.88,2.08,18.72,4.01c2.67,1.34,5.01,1.67,3.34,5.01
		c-4.68,11.03-18.72,20.06-30.09,20.73C22.08,352.15,14.06,342.46,18.74,333.1L18.74,333.1z M252.75,268.91
		c1-6.69,29.75-61.18,42.79-61.18c0.33,0,0.67,0,1,0c5.01,0.67,5.01,7.02,5.68,10.7c-1.34,6.02-2.01,13.04-4.68,18.39
		c-8.02,14.38-22.4,30.09-39.11,33.77c-1,0-2.67,0.67-3.68,0.67C253.42,271.25,252.41,270.58,252.75,268.91L252.75,268.91z
		 M447.98,355.16c3.34,1.67,6.69,2.34,10.36,2.34c12.51,0,21.21-8.05,28.11-17.41c-0.56,2.13-1.13,4.25-1.7,6.38
		c-0.67,2.34-4.01,9.7-1.34,10.7c0.67,0.33,1.34,0.33,2.01,0.33c7.19,0,14.47-0.33,21.73-0.33c4.01-0.33,4.35-1.67,5.02-5.01
		c4.68-17.72,9.03-35.44,13.37-52.82c6.02-25.07,18.72-73.55,41.79-87.59c2.67-1.67,5.01-2.34,7.69-2.34c3.34,0,6.35,1.67,8.36,5.68
		c3.68,7.69,3.34,16.38,2.34,24.4c-2.67,16.72-6.69,33.76-10.7,50.15c-2.34,8.69-3.68,17.38-4.68,26.08
		c-0.67,7.69-2.01,16.05,0.67,23.4c3.34,10.03,12.7,15.04,22.4,15.04c15.78,0,26.26-12.86,33.77-26.31
		c1.59,4.67,4.02,9.07,7.35,12.94c9.7,11.37,24.4,16.38,39.11,16.38c12.7,0,27.08-3.34,36.44-12.03
		c10.36-9.69,11.03-25.07,9.03-38.44c-2.67-15.71-8.02-30.42-11.7-45.8c-3.68-15.04-5.35-30.76-0.67-45.8
		c2.01-7.35,6.02-13.71,10.03-19.72c0.67-1,2.67-3.01,2.67-4.35c0-1-0.67-1-1.67-1c-8.92,0-17.83-0.33-26.74-0.33
		c-3.68,0.33-4.01,2.01-5.68,5.02c-4.01,7.35-8.69,14.37-13.04,21.73c-9.03,15.71-17.72,31.42-26.74,47.14
		c-4.34,7.35-8.36,14.38-12.37,21.73c-3.68,6.35-6.69,13.04-7.69,20.39c-0.09,0.55-0.17,1.09-0.24,1.64
		c-4.83,8.91-10.53,17.51-16.48,25.1c-1.34,1.67-5.01,5.68-7.35,5.35c-6.02-0.67-3.34-18.39-3.01-22.4
		c1.67-17.05,6.69-33.76,10.36-50.48c1.06-3.71,3.67-17.34,4.35-21.39c1.34-8.02,1-15.71-0.33-23.74
		c-0.87-4.38-5.02-13.05-7.69-15.71c-6.02-7.35-16.05-11.37-25.74-11.37c-13.04,0-24.74,7.35-33.1,17.38
		c-0.33,0.67-3.34,4.68-4.01,4.68c-1-0.33,0-3.68,0-4.35c0.67-4.35,1.67-8.69,2.34-12.7c0.67-3.68,3.01-7.69-2.01-7.69
		c-5.59,0-11.17-0.33-16.72-0.33c-2.34,0-4.01,0.67-4.68,3.01c-2.01,7.69-3.68,15.04-5.01,22.73c-4.01,17.38-8.02,35.1-12.04,52.49
		c-2.02,8.86-4.07,17.68-6.18,26.47c-2.85,6.89-6.25,13.28-10.2,19.66c-3.01,6.02-15.38,26.74-21.06,26.74c-0.67,0-1.34-0.33-2.01-1
		c-3.6-4-0.18-22.15,0.67-28.08c4.01-19.72,8.36-39.45,12.7-59.17c4.01-19.39,8.36-38.78,12.37-58.17c0.33-2.01,1.34-4.01-0.67-5.02
		c-0.67-0.33-1.34-0.33-2.34-0.33c-6.33,0-12.69,0.33-19.06,0.33c-3.01,0-3.34,0.33-4.01,3.01c-0.67,2.34-1,4.68-1.67,7.35
		l-3.01,14.04c-4.68,19.39-8.69,38.78-13.04,58.17c-4.01,19.72-8.69,39.45-9.36,59.51C436.95,340.79,438.95,350.82,447.98,355.16
		L447.98,355.16z M467.37,170.29c0.67,1.67,3.01,2.01,5.68,2.01c4.31,0,8.66-0.33,13.04-0.33c3.01,0,6.35-0.33,7.02-0.67
		c1.67-1.34,2.01-4.34,2.34-6.35c1.67-6.69,4.68-18.72,4.68-24.74c0.33-2.67-0.67-3.01-3.01-3.01c-6.91,0-13.82,0-20.73,0
		c-1.34,0-2.34,0.33-3.01,1.67c-1,2.01-1,4.68-1.34,7.02c-1.35,5.38-1.98,10.93-3.34,16.38
		C468.37,164.61,466.7,168.29,467.37,170.29L467.37,170.29z M655.58,296.99c2.01-1.34,4.01-1.67,6.02-1.67
		c1.34,0,2.67,0.33,4.01,0.33c2.67,0,2.67-1.67,3.68-4.01c1.04-2.76,5.68-13.65,5.68-15.38c0-2.01-1.34-2.68-3.01-3.34
		c-4.01-2.01-8.36-2.01-12.37-2.34c-3.01,0-3.01-1-1.67-3.01c3.06-6.12,7.92-11.81,11.37-17.72c1-1.67,6.69-12.03,8.69-11.37
		c1.67,0.67,1.34,10.03,1.67,11.7c2.34,20.39,10.36,39.78,10.36,60.51c-1,13.37-3.01,35.1-21.06,35.1
		c-13.71,0-21.4-14.04-22.06-26.41C646.89,311.7,648.22,301.34,655.58,296.99L655.58,296.99z M345.35,318.72
		c1-22.73,19.06-69.87,34.43-89.59c4.68-6.69,12.37-16.05,21.4-16.71c10.36-0.67,7.35,16.38,6.02,22.4
		c-1.34,5.35-3.01,10.7-4.68,15.71c-1,2.01-2.34,4.01-2.67,6.35c-0.67,2.34-0.33,2.01,1.34,3.34c2.67,2.34-2.01,10.03-3.34,13.04
		c-7.35,17.38-23.07,47.81-39.45,58.17c-2.01,1-4.35,2.34-6.69,2.34c-1.67,0-3.34-0.67-4.35-2.34
		C345.02,327.75,345.35,322.73,345.35,318.72L345.35,318.72z"/>
	<path d="M92.84,821.86c22.73,0,48.47-10.36,63.85-27.08c7.34-8.11,14.62-17.27,20.82-27.12c2.24,19.97,17.31,38.15,38.35,38.15
		c27.5,0,39.44-20.73,46.8-20.73c12.8,0,23.31-3.83,31.96-10.18c-4.49,21.71-10.28,57.17-6.56,79.38
		c2.34,14.71,8.69,32.76,26.41,32.76c6.02,0,12.04-2.01,17.05-5.68c19.39-15.04,23.74-43.46,22.06-66.53
		c-2.74-34.85-23.05-56.22-21.06-59.84c1-1.67,4.68-3.34,6.35-4.01c14.82-6.65,33.13-12.05,49.68-12.57
		c-8.75,32.14-20.2,86.33-15.25,115.87c2.34,14.71,8.69,32.76,26.41,32.76c6.02,0,12.03-2.01,17.05-5.68
		c19.39-15.04,23.74-43.46,22.06-66.53c-2.74-34.85-23.05-56.22-21.06-59.84c1-1.67,4.68-3.34,6.35-4.01
		c14.33-6.43,33.35-12.12,49.13-12.56c-1.91,10.71-2.08,23.04-0.65,33.28c2.01,13.04,9.36,30.76,24.07,33.43
		c31.15,4.77,61.2-17.02,79.23-42.61c0.87,20.46,8.17,43.28,32.43,43.28c59.59,0,89.93-74.56,88.59-78.23
		c-0.51-1.39-6.6-1.72-7.69-1c-1.67,0.67-2.67,4.35-3.34,6.02c-13.21,29.96-64.49,71.94-77.56,45.8
		c-6.76-13.51-1.19-38.54,1.67-40.12c0.67-0.33,1.34-0.33,2.01-0.33c59.38,0,82.85-66.25,60.84-92.27
		c-4.35-5.35-10.7-7.35-17.05-7.35c-41.29,0-72.93,62.11-79.12,103.44c-12.83,19.74-38.02,44.66-59.28,44.66
		c-24.62,0-15.07-46.11-11.37-48.14c0.67-0.33,1.34-0.33,2.01-0.33c59.38,0,82.85-66.25,60.84-92.27
		c-4.35-5.35-10.7-7.35-17.05-7.35c-37.5,0-67.04,51.23-76.79,91.6c-13.98,0.02-32,3.01-34.87,3.01c-3.08,0,2.91-6.55,3.68-7.36
		c17.05-18.72,30.42-48.47,36.1-73.55l0.33-16.38c-2.39-10.65-9.63-20.06-21.06-20.06c-29.54,0-54.94,67.9-68.3,114.36
		c-11.29-0.92-32.17,2.97-36,2.97c-3.08,0,2.91-6.55,3.68-7.36c17.05-18.72,30.42-48.47,36.1-73.55l0.33-16.38
		c-2.39-10.65-9.63-20.06-21.06-20.06c-35.1,0-64.34,95.84-74.51,137.71c-4.96,5.98-10.77,11.17-16.76,13.4
		c-4.56,1.86-8.49,3.19-13.04,1.67c4.02-0.8,31.17-59.54,15.38-101.96c-5.35-14.04-14.38-27.75-30.76-27.75
		c-15.41,0-17.09,8.36-24.4,8.36c-31.86,0-51.11,59.09-53.82,88.25c-0.38,3.06-0.66,6.11-0.82,9.17
		c-6.12,11.21-14.74,21.43-23.59,30.28c-12.37,15.04-33.43,26.41-52.82,26.41c-28.42,0-34.43-23.74-35.1-48.47
		c-0.67-20.73,2.68-41.12,8.69-60.84c2.01-5.35,3.68-10.7,6.02-16.38c1.37-4.15,0.47-6.48,7.02-6.02c4.68,0.67,9.36,1,14.04,1
		c24.07,0,48.14-11.03,65.52-27.08c2.7-2.12,12.88-13.15,14.37-16.05c5.35-7.36,9.03-16.72,9.36-25.74
		c0.82-21.33-15.92-30.09-34.77-30.09c-36.77,0-70.87,32.09-90.26,60.84c-4.97,8.51-8.09,17.73-15.38,2.34
		c-7.87-16.63,2.37-39.99,12.7-51.15c2.68-2.89,4.23-3.36-5.35-8.69c-4.35-2.67-8.36-5.35-12.37-7.69
		c-5.01,4.68-11.37,16.38-14.71,22.73c-8.02,18.05-8.02,38.44,3.68,54.49c5.62,7.79,15.71,14.29,16.05,16.38
		c0.04,0.23-20.52,50.21-16.05,97.28C35.68,793.78,54.4,821.86,92.84,821.86L92.84,821.86z M90.17,649.03
		c1-3.34,3.68-7.02,5.68-9.69c9.36-16.38,39.78-52.49,61.51-52.49c9.66,0,12.25,5.42,8.36,14.38
		c-9.36,25.07-41.79,47.47-67.86,50.48C94.87,651.88,88.57,653.28,90.17,649.03L90.17,649.03z M235.59,739.29
		c-6.35-14.71-9.36-31.76-7.02-47.47c3.98-28.22,22.99-56.68,33.43-28.75c2.67,7.69,2.67,16.71,3.34,25.07
		c0,15.71-4.01,46.13-11.7,60.51C248.26,761.16,246.76,761.65,235.59,739.29L235.59,739.29z M236.26,776.4
		c-3.68,4.68-11.7,13.04-18.39,13.04c-19.81,0-13.25-64.35-10.36-69.2c2.04-3.42,3.34,3.34,3.34,3.34c0,7.24-1.52,0.43,2.34,11.7
		c4.6,13.45,11.59,25.63,21.73,35.77C236.92,773.06,237.93,774.06,236.26,776.4L236.26,776.4z M338.55,718.57l17.72-50.15
		c3.32-7.19,11.38-30.42,17.38-30.42c7,0,7.16,12.53,5.01,20.39c-7.02,25.07-22.4,46.13-37.78,66.53c-2.01,2.34-3.01,4.01-5.68,5.35
		C333.87,727.93,337.88,720.57,338.55,718.57L338.55,718.57z M312.14,843.26c1-21.06,3.68-46.13,9.36-66.52
		c1.35-4.42,1.87-3.14,4.35,1c8.02,11.37,9.69,33.76,9.69,47.8c-1.3,44.05-16.7,47.17-21.4,35.44
		C311.81,855.63,312.48,848.94,312.14,843.26L312.14,843.26z M397.39,843.26c1-21.06,3.68-46.13,9.36-66.52
		c1.35-4.42,1.87-3.14,4.35,1c8.02,11.37,9.69,33.76,9.69,47.8c-1.3,44.05-16.7,47.17-21.4,35.44
		C397.05,855.63,397.72,848.94,397.39,843.26L397.39,843.26z M423.8,718.57l17.72-50.15c3.32-7.19,11.38-30.42,17.38-30.42
		c7,0,7.16,12.53,5.01,20.39c-7.02,25.07-22.4,46.13-37.78,66.53c-2.01,2.34-3.01,4.01-5.68,5.35
		C419.12,727.93,423.13,720.57,423.8,718.57L423.8,718.57z M510.38,717.56c0.88-5.87,29.47-62.13,43.79-61.18
		c9.78,1.3,3.63,23.83,1,29.08C539.84,714.48,508.93,724.81,510.38,717.56L510.38,717.56z M614.35,717.56
		c0.88-5.87,29.47-62.13,43.79-61.18c9.78,1.3,3.63,23.83,1,29.08C643.81,714.48,612.9,724.81,614.35,717.56L614.35,717.56z"/>
	<path d="M179.37,556.57l-24.86-4.91l-4.72-27.89l-45.71-9.02l-14.59,24.08l-24.41-4.82l66.74-105.24l24.38,4.81L179.37,556.57
		L179.37,556.57z M146.1,503.03l-7.51-45.31l-23.71,39.15L146.1,503.03L146.1,503.03z M206.26,561.03l10.35-115.71l79.51,7.11
		l-1.75,19.55l-56.08-5.02l-2.46,27.47l48.48,4.34l-1.75,19.55l-48.48-4.34l-4.39,49.13L206.26,561.03L206.26,561.03z M343.75,570.3
		l1.51-96.53l-34.39-0.54l0.31-19.63l92.15,1.44l-0.31,19.63l-34.23-0.54l-1.51,96.53L343.75,570.3L343.75,570.3z M430.53,568.65
		l-10.35-115.71l85.65-7.66l1.75,19.55l-62.22,5.56l2.3,25.7l57.86-5.17l1.75,19.55l-57.86,5.17l2.8,31.35l64.48-5.77l1.75,19.55
		L430.53,568.65L430.53,568.65z M552.41,554.43l-22.5-113.97l48.47-9.57c12.18-2.4,21.24-3.12,27.16-2.17
		c5.95,0.95,11.07,3.71,15.42,8.29c4.35,4.6,7.2,10.24,8.53,16.98c1.69,8.57,0.59,16.12-3.32,22.68
		c-3.92,6.56-10.71,11.54-20.39,14.97c5.53,1.91,10.25,4.29,14.14,7.13c3.92,2.84,9.5,8.16,16.71,15.94l18.29,19.49l-27.51,5.43
		L606,518c-7.66-7.67-12.82-12.44-15.48-14.31c-2.63-1.85-5.25-2.99-7.86-3.36c-2.63-0.36-6.59-0.02-11.9,1.03l-4.67,0.92l9.4,47.6
		L552.41,554.43L552.41,554.43z M562.52,484.13l17.03-3.36c11.04-2.18,17.81-4.01,20.39-5.49c2.55-1.47,4.41-3.52,5.49-6.1
		c1.12-2.59,1.32-5.61,0.64-9.03c-0.76-3.85-2.4-6.72-4.92-8.7c-2.51-1.96-5.69-2.87-9.53-2.75c-1.94,0.11-7.56,1.08-16.87,2.92
		l-17.96,3.55L562.52,484.13L562.52,484.13z"/>
</g>
</svg>
