<?xml version="1.0" encoding="utf-8"?>
<!-- Generator: Adobe Illustrator 25.0.0, SVG Export Plug-In . SVG Version: 6.00 Build 0)  -->
<svg version="1.1" id="Layer_1" xmlns="http://www.w3.org/2000/svg" xmlns:xlink="http://www.w3.org/1999/xlink" x="0px" y="0px"
	 viewBox="0 0 864 864" style="enable-background:new 0 0 864 864;" xml:space="preserve">
<style type="text/css">
	.st0{fill:#1A6773;}
	.st1{fill:#BE9B7B;}
	.st2{fill:#E5A590;}
	.st3{fill:#81CBBE;}
</style>
<g>
	<path class="st0" d="M523.56,204.97h56.16v6.19h-56.16V204.97L523.56,204.97z M523.56,266.91h53.22v6.16h-53.22V266.91
		L523.56,266.91z M504.98,322.63h-6.19V180.19h6.19V322.63L504.98,322.63z M620.05,692.1h-6.19V549.67h6.19V692.1L620.05,692.1z
		 M638.63,685.91h59.68v6.19h-59.68V685.91L638.63,685.91z M638.63,574.44h59.68v6.19h-59.68V574.44L638.63,574.44z M638.63,630.19
		h27.59v6.19h-27.59V630.19L638.63,630.19z M625.3,322.63h-6.2V180.19h6.2V322.63L625.3,322.63z M643.89,316.43h59.68v6.19h-59.68
		V316.43L643.89,316.43z M643.89,204.97h59.68v6.19h-59.68V204.97L643.89,204.97z M643.89,260.72h27.59v6.19h-27.59V260.72
		L643.89,260.72z M291.17,636.68l-12.7-43.99l3.12-11.78l12.75,43.84L291.17,636.68L291.17,636.68z M235.44,692.1h-6.37
		l37.69-142.43h6.34L235.44,692.1L235.44,692.1z M217.39,624.49l-3.2,11.89l-22.78-86.71h6.28L217.39,624.49L217.39,624.49z
		 M312.49,692.1h-6.37l37.69-142.43h6.34L312.49,692.1L312.49,692.1z M235,455.04l-12.7-43.99l3.12-11.78l12.75,43.84L235,455.04
		L235,455.04z M179.27,510.46h-6.37l37.69-142.43h6.34L179.27,510.46L179.27,510.46z M161.21,442.85l-3.2,11.89l-22.78-86.71h6.28
		L161.21,442.85L161.21,442.85z M256.32,510.46h-6.37l37.69-142.43h6.34L256.32,510.46L256.32,510.46z M343.57,415.94
		c-4.14,7.1-6.22,14.88-6.22,23.31c0,8.43,2.08,16.21,6.22,23.31c4.17,7.1,9.8,12.74,16.91,16.91c7.1,4.14,14.88,6.22,23.31,6.22
		c8.42,0,16.21-2.08,23.31-6.22c7.1-4.17,12.74-9.81,16.88-16.91c4.17-7.1,6.25-14.88,6.25-23.31c0-8.43-2.08-16.2-6.25-23.31
		c-4.14-7.1-9.78-12.74-16.88-16.88c-7.11-4.17-14.89-6.25-23.31-6.25c-8.43,0-16.2,2.08-23.31,6.25
		C353.37,403.2,347.74,408.83,343.57,415.94L343.57,415.94z M338.2,465.66c-4.7-8.1-7.05-16.91-7.05-26.42
		c0-9.51,2.35-18.32,7.05-26.39c4.7-8.1,11.1-14.47,19.17-19.2c8.1-4.7,16.91-7.05,26.42-7.05c9.51,0,18.32,2.35,26.39,7.05
		c8.1,4.73,14.47,11.1,19.2,19.2c4.7,8.07,7.05,16.88,7.05,26.39c0,9.51-2.35,18.32-7.05,26.42c-4.73,8.07-11.1,14.47-19.2,19.17
		c-8.07,4.7-16.88,7.05-26.39,7.05c-9.51,0-18.32-2.35-26.42-7.05C349.29,480.13,342.89,473.74,338.2,465.66L338.2,465.66z
		 M399.53,549.67h6.19V692.1h-6.19V549.67L399.53,549.67z M463.62,549.67h7.31l87.45,142.43h-7.4L463.62,549.67L463.62,549.67z
		 M459.21,597.93l6.2,10.39v83.78h-6.2V597.93L459.21,597.93z M560.37,664.42l-6.19-10.51V549.67h6.19V664.42L560.37,664.42z
		 M520.78,439.6h37.34c5.66,0,10.48-1.85,14.38-5.52c3.93-3.67,5.9-8.87,5.9-15.65c0-4.99-2.06-9.48-6.2-13.44
		c-4.11-3.99-8.83-5.99-14.09-5.99h-53.16v111.46h-6.19V392.8h59.36c6.99,0,13.15,2.61,18.49,7.78c5.31,5.2,7.98,11.15,7.98,17.85
		c0,8.25-2.58,14.88-7.75,19.87c-5.14,4.99-11.39,7.48-18.73,7.48h-37.34V439.6L520.78,439.6z M653.59,510.46h-6.19V368.03h6.19
		V510.46L653.59,510.46z M697.35,439.24l36.4-71.21h6.87l-36.37,71.21l36.37,71.22h-6.87L697.35,439.24L697.35,439.24z
		 M156.91,221.82l-5.16,3.38c-4.23-6.19-9.72-11.13-16.47-14.77c-6.72-3.64-14.03-5.46-21.87-5.46c-8.43,0-16.2,2.08-23.31,6.25
		C83,215.36,77.36,221,73.19,228.1c-4.14,7.1-6.22,14.88-6.22,23.31c0,8.43,2.08,16.21,6.22,23.31c4.17,7.1,9.81,12.74,16.91,16.91
		c7.1,4.14,14.88,6.22,23.31,6.22c7.84,0,15.15-1.82,21.93-5.49c6.75-3.67,12.27-8.63,16.5-14.88l5.08,3.52
		c-4.81,7.1-11.04,12.74-18.7,16.85c-7.66,4.14-15.91,6.2-24.81,6.2c-9.51,0-18.32-2.35-26.42-7.05
		c-8.07-4.7-14.47-11.1-19.17-19.17c-4.7-8.1-7.05-16.91-7.05-26.42c0-9.51,2.35-18.32,7.05-26.39c4.7-8.1,11.1-14.47,19.17-19.2
		c8.1-4.7,16.91-7.05,26.42-7.05c8.9,0,17.14,2.08,24.81,6.19C145.88,209.11,152.1,214.71,156.91,221.82L156.91,221.82z
		 M223.25,228.1c-4.14,7.1-6.22,14.88-6.22,23.31c0,8.43,2.08,16.21,6.22,23.31c4.17,7.1,9.8,12.74,16.91,16.91
		c7.1,4.14,14.88,6.22,23.31,6.22c8.43,0,16.21-2.08,23.31-6.22c7.1-4.17,12.74-9.81,16.88-16.91c4.17-7.1,6.25-14.88,6.25-23.31
		c0-8.43-2.08-16.2-6.25-23.31c-4.14-7.1-9.77-12.74-16.88-16.88c-7.1-4.17-14.88-6.25-23.31-6.25c-8.43,0-16.2,2.08-23.31,6.25
		C233.06,215.36,227.42,221,223.25,228.1L223.25,228.1z M217.88,277.83c-4.7-8.1-7.05-16.91-7.05-26.42
		c0-9.51,2.35-18.32,7.05-26.39c4.7-8.1,11.1-14.47,19.17-19.2c8.1-4.7,16.91-7.05,26.42-7.05c9.51,0,18.32,2.35,26.39,7.05
		c8.1,4.73,14.47,11.1,19.2,19.2c4.7,8.07,7.05,16.88,7.05,26.39c0,9.51-2.35,18.32-7.05,26.42c-4.73,8.07-11.1,14.47-19.2,19.17
		c-8.07,4.7-16.88,7.05-26.39,7.05c-9.51,0-18.32-2.35-26.42-7.05C228.98,292.3,222.58,285.9,217.88,277.83L217.88,277.83z
		 M403.23,204.97h56.16v6.19h-56.16V204.97L403.23,204.97z M403.23,266.91h53.22v6.16h-53.22V266.91L403.23,266.91z M384.65,322.63
		h-6.19V180.19h6.19V322.63L384.65,322.63z M749.74,322.63h-6.2V180.19h6.2V322.63L749.74,322.63z M768.32,316.43H828v6.19h-59.68
		V316.43L768.32,316.43z M768.32,204.97H828v6.19h-59.68V204.97L768.32,204.97z M768.32,260.72h27.59v6.19h-27.59V260.72
		L768.32,260.72z M575.9,474.31l12.31,36.15h-6.55l-11.88-34.51C571.81,475.55,573.86,475,575.9,474.31L575.9,474.31z"/>
	<path class="st1" d="M523.56,192.58h56.16v6.19h-56.16V192.58L523.56,192.58z M523.56,254.52h53.22v6.19h-53.22V254.52
		L523.56,254.52z M492.59,322.63h-6.19V180.19h6.19V322.63L492.59,322.63z M607.66,692.1h-6.19V549.67h6.19V692.1L607.66,692.1z
		 M638.63,673.52h59.68v6.19h-59.68V673.52L638.63,673.52z M638.63,562.06h59.68v6.19h-59.68V562.06L638.63,562.06z M638.63,617.8
		h27.59v6.19h-27.59V617.8L638.63,617.8z M612.92,322.63h-6.19V180.19h6.19V322.63L612.92,322.63z M643.89,304.04h59.68v6.19h-59.68
		V304.04L643.89,304.04z M643.89,192.58h59.68v6.19h-59.68V192.58L643.89,192.58z M643.89,248.33h27.59v6.19h-27.59V248.33
		L643.89,248.33z M284.73,661.02l-12.71-43.95l3.19-12.06l12.72,43.92L284.73,661.02L284.73,661.02z M222.64,692.1h-6.37
		l37.75-142.43h6.28L222.64,692.1L222.64,692.1z M210.93,648.33l-2.91,12.21l-29.41-110.87h6.34L210.93,648.33L210.93,648.33z
		 M299.7,692.1h-6.37l37.75-142.43h6.28L299.7,692.1L299.7,692.1z M228.56,479.38l-12.71-43.95l3.19-12.06l12.72,43.92
		L228.56,479.38L228.56,479.38z M166.47,510.46h-6.37l37.75-142.43h6.28L166.47,510.46L166.47,510.46z M154.76,466.69l-2.91,12.21
		l-29.41-110.87h6.34L154.76,466.69L154.76,466.69z M243.52,510.46h-6.37l37.75-142.43h6.28L243.52,510.46L243.52,510.46z
		 M329.59,416.38c-3.08,7.28-4.64,14.91-4.64,22.87c0,7.99,1.55,15.59,4.64,22.9c3.11,7.28,7.28,13.53,12.51,18.79
		c5.25,5.23,11.51,9.39,18.79,12.51c7.31,3.08,14.91,4.64,22.9,4.64c7.96,0,15.59-1.56,22.87-4.64c7.28-3.11,13.53-7.28,18.79-12.51
		c5.26-5.25,9.42-11.51,12.5-18.79c3.11-7.31,4.67-14.91,4.67-22.9c0-7.95-1.56-15.59-4.67-22.87c-3.08-7.28-7.25-13.53-12.5-18.79
		c-5.25-5.25-11.51-9.42-18.79-12.51c-7.28-3.11-14.91-4.67-22.87-4.67c-7.98,0-15.59,1.55-22.9,4.67
		c-7.28,3.08-13.53,7.25-18.79,12.51C336.88,402.84,332.71,409.1,329.59,416.38L329.59,416.38z M327.48,471.86
		c-5.81-9.98-8.72-20.84-8.72-32.62c0-11.74,2.91-22.6,8.72-32.58c5.84-9.98,13.74-17.88,23.69-23.69
		c9.98-5.84,20.84-8.75,32.61-8.75c11.74,0,22.6,2.91,32.59,8.75c9.98,5.81,17.88,13.71,23.69,23.69
		c5.84,9.98,8.75,20.84,8.75,32.58c0,11.77-2.91,22.63-8.75,32.62c-5.81,9.95-13.71,17.85-23.69,23.69
		c-9.98,5.81-20.84,8.72-32.59,8.72c-11.77,0-22.63-2.91-32.61-8.72C341.22,489.7,333.32,481.81,327.48,471.86L327.48,471.86z
		 M387.15,549.67h6.2V692.1h-6.2V549.67L387.15,549.67z M449,549.67h7.22l87.54,142.43h-7.22L449,549.67L449,549.67z M446.82,577.38
		l6.2,10.48V692.1h-6.2V577.38L446.82,577.38z M547.98,643.84l-6.19-10.39v-83.78h6.19V643.84L547.98,643.84z M520.78,451.98h37.34
		c8.93,0,16.62-3.14,23.04-9.42c6.43-6.28,9.63-14.33,9.63-24.13c0-8.42-3.29-15.82-9.83-22.22c-6.58-6.4-14.18-9.6-22.84-9.6
		h-65.55v123.85h-6.2V380.42h71.74c6.81,0,13.21,1.76,19.23,5.25c5.99,3.5,10.74,8.19,14.3,14.06c3.55,5.87,5.34,12.12,5.34,18.7
		c0,11.3-3.82,20.75-11.48,28.36c-7.66,7.57-16.79,11.39-27.39,11.39h-37.34V451.98L520.78,451.98z M641.2,510.46h-6.2V368.03h6.2
		V510.46L641.2,510.46z M683.53,439.24l36.37-71.21h6.87l-36.37,71.21l36.37,71.22h-6.87L683.53,439.24L683.53,439.24z
		 M167.25,214.95l-5.16,3.35c-5.4-7.9-12.36-14.18-20.93-18.79c-8.57-4.61-17.82-6.93-27.74-6.93c-7.98,0-15.59,1.56-22.9,4.67
		c-7.28,3.08-13.53,7.25-18.79,12.51c-5.23,5.25-9.39,11.51-12.51,18.79c-3.08,7.28-4.64,14.91-4.64,22.87
		c0,7.99,1.55,15.59,4.64,22.9c3.11,7.28,7.28,13.53,12.51,18.79c5.25,5.23,11.51,9.39,18.79,12.51c7.31,3.08,14.91,4.64,22.9,4.64
		c9.98,0,19.23-2.32,27.77-6.96c8.54-4.64,15.5-10.92,20.9-18.85l4.99,3.7c-5.96,8.72-13.65,15.62-23.1,20.7
		c-9.42,5.08-19.61,7.6-30.56,7.6c-11.77,0-22.63-2.91-32.61-8.72c-9.95-5.84-17.85-13.74-23.69-23.69
		c-5.81-9.98-8.72-20.84-8.72-32.61c0-11.74,2.91-22.6,8.72-32.58c5.84-9.98,13.74-17.88,23.69-23.69
		c9.98-5.84,20.84-8.75,32.61-8.75c11.01,0,21.22,2.58,30.71,7.72C153.57,199.22,161.29,206.17,167.25,214.95L167.25,214.95z
		 M209.28,228.54c-3.08,7.28-4.64,14.91-4.64,22.87c0,7.99,1.55,15.59,4.64,22.9c3.11,7.28,7.28,13.53,12.51,18.79
		c5.25,5.23,11.51,9.39,18.79,12.51c7.31,3.08,14.91,4.64,22.89,4.64c7.96,0,15.59-1.56,22.87-4.64
		c7.28-3.11,13.53-7.28,18.79-12.51c5.26-5.26,9.42-11.51,12.51-18.79c3.11-7.31,4.67-14.91,4.67-22.9c0-7.96-1.55-15.59-4.67-22.87
		c-3.08-7.28-7.25-13.54-12.51-18.79c-5.25-5.25-11.51-9.42-18.79-12.51c-7.28-3.11-14.91-4.67-22.87-4.67
		c-7.98,0-15.59,1.56-22.89,4.67c-7.28,3.08-13.54,7.25-18.79,12.51C216.56,215.01,212.39,221.26,209.28,228.54L209.28,228.54z
		 M207.17,284.02c-5.81-9.98-8.72-20.84-8.72-32.61c0-11.74,2.91-22.6,8.72-32.58c5.84-9.98,13.74-17.88,23.69-23.69
		c9.98-5.84,20.84-8.75,32.61-8.75c11.74,0,22.6,2.9,32.59,8.75c9.98,5.81,17.88,13.71,23.69,23.69c5.84,9.98,8.75,20.84,8.75,32.58
		c0,11.77-2.91,22.63-8.75,32.61c-5.81,9.95-13.71,17.85-23.69,23.69c-9.98,5.81-20.84,8.72-32.59,8.72
		c-11.77,0-22.63-2.91-32.61-8.72C220.91,301.87,213.01,293.98,207.17,284.02L207.17,284.02z M403.23,192.58h56.16v6.19h-56.16
		V192.58L403.23,192.58z M403.23,254.52h53.22v6.19h-53.22V254.52L403.23,254.52z M372.26,322.63h-6.19V180.19h6.19V322.63
		L372.26,322.63z M737.35,322.63h-6.19V180.19h6.19V322.63L737.35,322.63z M768.32,304.04H828v6.19h-59.68V304.04L768.32,304.04z
		 M768.32,192.58H828v6.19h-59.68V192.58L768.32,192.58z M768.32,248.33h27.59v6.19h-27.59V248.33L768.32,248.33z M564.23,476.65
		l11.24,33.81h-6.52l-11.13-33.77h5C563.29,476.69,563.76,476.67,564.23,476.65L564.23,476.65z"/>
	<path class="st2" d="M523.56,180.19h56.16v6.19h-56.16V180.19L523.56,180.19z M523.56,242.13h53.22v6.2h-53.22V242.13
		L523.56,242.13z M480.2,322.63h-6.2V180.19h6.2V322.63L480.2,322.63z M595.27,692.1h-6.19V549.67h6.19V692.1L595.27,692.1z
		 M638.63,661.13h59.68v6.19h-59.68V661.13L638.63,661.13z M638.63,549.67h59.68v6.19h-59.68V549.67L638.63,549.67z M638.63,605.41
		h27.59v6.19h-27.59V605.41L638.63,605.41z M600.53,322.63h-6.19V180.19h6.19V322.63L600.53,322.63z M643.89,291.66h59.68v6.19
		h-59.68V291.66L643.89,291.66z M643.89,180.19h59.68v6.19h-59.68V180.19L643.89,180.19z M643.89,235.94h27.59v6.19h-27.59V235.94
		L643.89,235.94z M313.04,569.05l5.15-19.38h6.43L286.87,692.1h-6.39L313.04,569.05L313.04,569.05z M278.36,685.08l-12.77-43.73
		l3.22-12.16l12.67,44.1L278.36,685.08L278.36,685.08z M206.64,679.89l34.49-130.22h6.43L209.81,692.1h-6.46l-37.66-142.43h6.46
		L206.64,679.89L206.64,679.89z M256.86,387.41l5.15-19.39h6.43L230.7,510.46h-6.39L256.86,387.41L256.86,387.41z M222.19,503.44
		l-12.77-43.73l3.22-12.16l12.67,44.1L222.19,503.44L222.19,503.44z M150.47,498.25l34.49-130.22h6.43l-37.75,142.43h-6.46
		l-37.66-142.43h6.46L150.47,498.25L150.47,498.25z M312.54,469.3c-4.11-9.54-6.17-19.55-6.17-30.06c0-10.48,2.05-20.52,6.17-30.06
		c4.08-9.54,9.6-17.76,16.5-24.69c6.9-6.9,15.15-12.39,24.69-16.5c9.54-4.11,19.55-6.17,30.06-6.17c10.48,0,20.52,2.06,30.06,6.17
		c9.54,4.11,17.76,9.6,24.69,16.5c6.9,6.93,12.39,15.15,16.5,24.69c4.11,9.54,6.17,19.58,6.17,30.06c0,10.51-2.05,20.52-6.17,30.06
		c-4.11,9.54-9.6,17.79-16.5,24.69c-6.93,6.9-15.15,12.42-24.69,16.5c-9.54,4.11-19.58,6.16-30.06,6.16
		c-10.51,0-20.52-2.05-30.06-6.16c-9.54-4.08-17.79-9.6-24.69-16.5C322.14,487.09,316.62,478.84,312.54,469.3L312.54,469.3z
		 M318.2,411.59c-3.76,8.81-5.64,18.02-5.64,27.65c0,9.63,1.88,18.85,5.64,27.65c3.76,8.81,8.81,16.38,15.18,22.75
		c6.37,6.37,13.94,11.42,22.75,15.18c8.81,3.76,18.02,5.64,27.65,5.64c9.63,0,18.85-1.88,27.65-5.64
		c8.81-3.76,16.38-8.81,22.75-15.18c6.34-6.37,11.42-13.94,15.18-22.75c3.76-8.81,5.63-18.02,5.63-27.65
		c0-9.63-1.88-18.85-5.63-27.65c-3.76-8.81-8.84-16.38-15.18-22.75c-6.37-6.34-13.94-11.42-22.75-15.18
		c-8.81-3.76-18.02-5.64-27.65-5.64c-9.63,0-18.84,1.88-27.65,5.64c-8.81,3.76-16.38,8.83-22.75,15.18
		C327.01,395.21,321.96,402.78,318.2,411.59L318.2,411.59z M374.76,549.67h6.19V692.1h-6.19V549.67L374.76,549.67z M440.63,559.74
		V692.1h-6.19V549.67c0,0,2.47,0,7.4,0l87.3,142.43H522L440.63,559.74L440.63,559.74z M535.59,623.55l-6.19-10.24v-63.64h6.19
		V623.55L535.59,623.55z M520.78,464.37h37.34c8.01,0,15.47-2,22.34-5.93c6.9-3.96,12.39-9.48,16.53-16.56
		c4.14-7.1,6.19-14.91,6.19-23.45c0-7.72-2.05-15-6.16-21.78c-4.08-6.81-9.6-12.24-16.56-16.32c-6.93-4.05-14.38-6.11-22.34-6.11
		h-77.94v136.24h-6.19V368.03h84.13c8.98,0,17.44,2.32,25.36,6.93c7.9,4.61,14.21,10.8,18.87,18.58c4.67,7.78,7.02,16.06,7.02,24.89
		c0,10.22-2.2,19.2-6.58,26.92c-2.7,4.76-5.99,8.88-9.85,12.35c-4.26,3.75-9.19,6.8-14.43,8.96c-5.58,2.18-8.94,3.03-15.79,3.68
		l-11.46,0.23l-7.66,0.05l-18.21-0.05h-4.62V464.37L520.78,464.37z M628.81,510.46h-6.2V368.03h6.2V510.46L628.81,510.46z
		 M669.59,439.24l36.46-71.21h6.9l-36.49,71.21l36.49,71.22h-6.9L669.59,439.24L669.59,439.24z M177.37,207.91l-5.14,3.35
		c-6.55-9.57-15-17.14-25.33-22.69c-10.36-5.58-21.52-8.37-33.49-8.37c-9.63,0-18.85,1.88-27.65,5.64
		c-8.81,3.76-16.38,8.84-22.75,15.18c-6.37,6.37-11.42,13.94-15.18,22.75c-3.76,8.81-5.64,18.02-5.64,27.65
		c0,9.63,1.88,18.85,5.64,27.65c3.76,8.81,8.81,16.38,15.18,22.75c6.37,6.37,13.94,11.42,22.75,15.18
		c8.81,3.76,18.02,5.64,27.65,5.64c11.98,0,23.16-2.82,33.52-8.43c10.39-5.64,18.85-13.21,25.39-22.81l4.99,3.79
		c-7.13,10.33-16.29,18.52-27.53,24.57c-11.24,6.05-23.37,9.07-36.37,9.07c-10.51,0-20.52-2.05-30.06-6.16
		c-9.54-4.08-17.79-9.6-24.69-16.5c-6.9-6.9-12.42-15.15-16.5-24.69c-4.11-9.54-6.17-19.55-6.17-30.06
		c0-10.48,2.06-20.52,6.17-30.06c4.08-9.54,9.6-17.76,16.5-24.69c6.9-6.9,15.15-12.39,24.69-16.5c9.54-4.11,19.55-6.17,30.06-6.17
		c13.06,0,25.22,3.05,36.46,9.13C161.11,189.21,170.27,197.46,177.37,207.91L177.37,207.91z M192.23,281.47
		c-4.11-9.54-6.17-19.55-6.17-30.06c0-10.48,2.06-20.52,6.17-30.06c4.08-9.54,9.6-17.76,16.5-24.69c6.9-6.9,15.15-12.39,24.69-16.5
		c9.54-4.11,19.55-6.17,30.06-6.17c10.48,0,20.52,2.06,30.06,6.17c9.54,4.11,17.76,9.6,24.69,16.5c6.9,6.93,12.39,15.15,16.5,24.69
		c4.11,9.54,6.17,19.58,6.17,30.06c0,10.51-2.06,20.52-6.17,30.06c-4.11,9.54-9.6,17.79-16.5,24.69
		c-6.93,6.9-15.15,12.42-24.69,16.5c-9.54,4.11-19.58,6.16-30.06,6.16c-10.51,0-20.52-2.05-30.06-6.16
		c-9.54-4.08-17.79-9.6-24.69-16.5C201.83,299.26,196.31,291.01,192.23,281.47L192.23,281.47z M197.89,223.76
		c-3.76,8.81-5.64,18.02-5.64,27.65c0,9.63,1.88,18.85,5.64,27.65c3.76,8.81,8.81,16.38,15.18,22.75
		c6.37,6.37,13.94,11.42,22.75,15.18c8.81,3.76,18.02,5.64,27.65,5.64c9.63,0,18.85-1.88,27.65-5.64
		c8.81-3.76,16.38-8.81,22.75-15.18c6.34-6.37,11.42-13.94,15.18-22.75c3.76-8.81,5.64-18.02,5.64-27.65
		c0-9.63-1.88-18.85-5.64-27.65c-3.76-8.81-8.84-16.38-15.18-22.75c-6.37-6.34-13.94-11.42-22.75-15.18
		c-8.81-3.76-18.02-5.64-27.65-5.64c-9.63,0-18.85,1.88-27.65,5.64c-8.81,3.76-16.38,8.84-22.75,15.18
		C206.7,207.38,201.65,214.95,197.89,223.76L197.89,223.76z M403.23,180.19h56.16v6.19h-56.16V180.19L403.23,180.19z M403.23,242.13
		h53.22v6.2h-53.22V242.13L403.23,242.13z M359.88,322.63h-6.2V180.19h6.2V322.63L359.88,322.63z M724.96,322.63h-6.19V180.19h6.19
		V322.63L724.96,322.63z M768.32,291.66H828v6.19h-59.68V291.66L768.32,291.66z M768.32,180.19H828v6.19h-59.68V180.19
		L768.32,180.19z M768.32,235.94h27.59v6.19h-27.59V235.94L768.32,235.94z M552.13,476.69l10.64,33.77h-6.54l-10.69-33.77H552.13
		L552.13,476.69z"/>
	<path class="st3" d="M517.36,322.63h-6.19V180.19h6.19v6.19v6.19v6.19v6.19v6.19v30.97v6.2v6.19v6.19v6.19v6.16V322.63
		L517.36,322.63z M632.44,667.32v6.19v6.19v6.2v6.19h-6.19V549.67h6.19v6.19v6.19v6.19v6.19v6.19v24.78v6.19v6.2v6.19v6.19v6.19
		v24.75V667.32L632.44,667.32z M637.69,297.85v6.2v6.19v6.2v6.19h-6.19V180.19h6.19v6.19v6.19v6.19v6.19v6.19v24.78v6.19v6.2v6.19
		v6.19v6.19v24.75V297.85L637.69,297.85z M248.19,692.1h-6.29l37.66-142.26l-0.09-0.17h6.43L248.19,692.1L248.19,692.1z M288,556.67
		l12.73,43.91l-3.17,11.97l-12.68-44.11L288,556.67L288,556.67z M223.84,599.8l-3.29,12.06l-16.41-62.2h6.43L223.84,599.8
		L223.84,599.8z M325.41,692.1h-6.46l37.66-142.43h6.46L325.41,692.1L325.41,692.1z M192.02,510.46h-6.29l37.66-142.26l-0.09-0.17
		h6.43L192.02,510.46L192.02,510.46z M231.83,375.03l12.73,43.91l-3.17,11.97l-12.68-44.11L231.83,375.03L231.83,375.03z
		 M167.67,418.17l-3.29,12.07l-16.41-62.2h6.43L167.67,418.17L167.67,418.17z M269.24,510.46h-6.46l37.66-142.43h6.46L269.24,510.46
		L269.24,510.46z M359.68,415.17c-6.63,6.63-9.95,14.68-9.95,24.07c0,9.42,3.32,17.44,9.95,24.1c6.66,6.63,14.68,9.95,24.1,9.95
		c9.4,0,17.44-3.32,24.07-9.95c6.66-6.66,9.98-14.68,9.98-24.1c0-9.39-3.32-17.44-9.98-24.07c-6.64-6.66-14.68-9.98-24.07-9.98
		C374.36,405.19,366.35,408.51,359.68,415.17L359.68,415.17z M346.71,454.86c-2.11-4.96-3.17-10.16-3.17-15.62
		c0-5.43,1.06-10.65,3.17-15.62c2.11-4.93,4.99-9.22,8.6-12.86c3.61-3.61,7.9-6.46,12.86-8.6c4.96-2.11,10.16-3.17,15.62-3.17
		c5.43,0,10.66,1.06,15.62,3.17c4.93,2.14,9.22,4.99,12.86,8.6c3.61,3.64,6.46,7.93,8.6,12.86c2.11,4.96,3.17,10.19,3.17,15.62
		c0,5.46-1.06,10.66-3.17,15.62c-2.14,4.96-4.99,9.25-8.6,12.86c-3.64,3.61-7.93,6.49-12.86,8.6c-4.96,2.11-10.19,3.17-15.62,3.17
		c-5.46,0-10.65-1.06-15.62-3.17c-4.96-2.11-9.25-4.99-12.86-8.6C351.7,464.11,348.82,459.82,346.71,454.86L346.71,454.86z
		 M411.92,549.67h6.19V692.1h-6.19V549.67L411.92,549.67z M478.15,549.67h7.22l81.17,132.36V549.67h6.19V692.1c0,0-2.44,0-7.31,0
		L478.15,549.67L478.15,549.67z M471.6,618.21l6.19,10.25v63.64h-6.19V618.21L471.6,618.21z M517.35,510.46h-6.19V405.19h46.97
		c3.84,0,7.13,1.29,9.92,3.91c2.79,2.61,4.17,5.72,4.17,9.33c0,9.98-4.7,14.97-14.09,14.97h-37.34v-6.19h37.34
		c2.47,0,4.4-0.65,5.78-1.94c1.41-1.29,2.11-3.55,2.11-6.84c0-1.99-0.76-3.67-2.26-5.02c-1.53-1.35-3.41-2.02-5.64-2.02h-40.78
		V510.46L517.35,510.46z M665.97,510.46h-6.19V368.03h6.19V510.46L665.97,510.46z M711.21,439.24l36.37-71.21h6.9l-36.4,71.21
		l36.4,71.22h-6.9L711.21,439.24L711.21,439.24z M146.7,228.89l-5.08,3.35c-3.11-4.58-7.13-8.22-12.09-10.89
		c-4.96-2.67-10.33-3.99-16.12-3.99c-9.42,0-17.44,3.32-24.1,9.98c-6.63,6.63-9.95,14.68-9.95,24.07c0,9.42,3.32,17.44,9.95,24.1
		c6.66,6.63,14.68,9.95,24.1,9.95c5.78,0,11.16-1.35,16.12-4.02c4.96-2.7,8.98-6.34,12.09-10.92l4.99,3.61
		c-3.67,5.37-8.43,9.66-14.3,12.8c-5.84,3.17-12.15,4.73-18.91,4.73c-5.46,0-10.65-1.06-15.62-3.17c-4.96-2.11-9.25-4.99-12.86-8.6
		c-3.61-3.61-6.49-7.9-8.6-12.86c-2.11-4.96-3.17-10.16-3.17-15.62c0-5.43,1.06-10.65,3.17-15.62c2.11-4.93,4.99-9.22,8.6-12.86
		c3.61-3.61,7.9-6.46,12.86-8.6c4.96-2.11,10.16-3.17,15.62-3.17c6.81,0,13.15,1.59,18.99,4.78
		C138.24,219.12,143.03,223.43,146.7,228.89L146.7,228.89z M239.37,227.34c-6.63,6.63-9.95,14.68-9.95,24.07
		c0,9.42,3.32,17.44,9.95,24.1c6.66,6.63,14.68,9.95,24.1,9.95c9.39,0,17.44-3.32,24.07-9.95c6.66-6.67,9.98-14.68,9.98-24.1
		c0-9.39-3.32-17.44-9.98-24.07c-6.64-6.66-14.68-9.98-24.07-9.98C254.05,217.36,246.03,220.68,239.37,227.34L239.37,227.34z
		 M226.4,267.03c-2.11-4.96-3.17-10.16-3.17-15.62c0-5.43,1.06-10.65,3.17-15.62c2.11-4.93,4.99-9.22,8.6-12.86
		c3.61-3.61,7.89-6.46,12.86-8.6c4.96-2.11,10.16-3.17,15.62-3.17c5.43,0,10.66,1.06,15.62,3.17c4.93,2.14,9.22,4.99,12.86,8.6
		c3.61,3.64,6.46,7.93,8.6,12.86c2.11,4.96,3.17,10.19,3.17,15.62c0,5.46-1.06,10.66-3.17,15.62c-2.14,4.96-4.99,9.25-8.6,12.86
		c-3.64,3.61-7.93,6.49-12.86,8.6c-4.96,2.11-10.19,3.17-15.62,3.17c-5.46,0-10.65-1.06-15.62-3.17c-4.96-2.11-9.25-4.99-12.86-8.6
		C231.39,276.27,228.51,271.99,226.4,267.03L226.4,267.03z M397.04,322.63h-6.19V180.19h6.19v6.19v6.19v6.19v6.19v6.19v30.97v6.2
		v6.19v6.19v6.19v6.16V322.63L397.04,322.63z M762.13,297.85v6.2v6.19v6.2v6.19h-6.19V180.19h6.19v6.19v6.19v6.19v6.19v6.19v24.78
		v6.19v6.2v6.19v6.19v6.19v24.75V297.85L762.13,297.85z M586.96,469.37l14,41.09h-6.55l-13.26-38.18
		C583.13,471.4,585.08,470.43,586.96,469.37L586.96,469.37z"/>
</g>
</svg>
