<?xml version="1.0" encoding="utf-8"?>
<!-- Generator: Adobe Illustrator 25.0.0, SVG Export Plug-In . SVG Version: 6.00 Build 0)  -->
<svg version="1.1" id="Layer_1" xmlns="http://www.w3.org/2000/svg" xmlns:xlink="http://www.w3.org/1999/xlink" x="0px" y="0px"
	 viewBox="0 0 864 864" style="enable-background:new 0 0 864 864;" xml:space="preserve">
<style type="text/css">
	.st0{fill-rule:evenodd;clip-rule:evenodd;}
</style>
<g>
	<path class="st0" d="M182.25,192h19.13v89.49h30.27v19.13h-49.4V192L182.25,192z M144.96,192.17l21.29,108.45h-19.46l-3.16-15.47
		h-16.97l-3.16,15.47h-19.46l21.29-108.45H144.96L144.96,192.17z M347.97,192h58.88v19.13H386.9v89.49h-18.96v-89.49h-19.96V192
		L347.97,192z M268.44,192v89.49h30.27v19.13h-49.4V192H268.44L268.44,192z M560.3,192l20.79,54.89V192h19.13v108.62h-19.29
		l-20.63-54.72v54.72h-19.13V192H560.3L560.3,192z M520.19,192.17v108.45h-19.13V192.17H520.19L520.19,192.17z M480.07,192v108.62
		h-18.96v-44.74h-20.79v44.74h-19.13V192h19.13v44.74h20.79V192H480.07L480.07,192z M745.32,192l14.64,14.64v16.8h-19.13v-8.98
		l-3.49-3.33h-13.81l-3.49,3.33v18.8l3.49,3.49h21.79l14.64,14.64v34.6l-14.64,14.64h-29.61l-14.64-14.64v-20.46h18.96v12.64
		l3.49,3.33h13.81l3.49-3.33v-18.8l-3.33-3.49h-21.79l-14.64-14.64v-34.6L715.55,192H745.32L745.32,192z M680.09,247.06v38.92
		l-14.64,14.64h-29.77l-14.64-14.64v-79.34L635.68,192h29.77l14.64,14.64v16.8h-19.13v-8.98l-3.49-3.49h-13.81l-3.49,3.49V278
		l3.49,3.49h13.81l3.49-3.49v-11.98h-7.98v-18.96H680.09L680.09,247.06z M139.97,266.02l-4.82-24.45l-4.82,24.45H139.97
		L139.97,266.02z"/>
	<path d="M57.29,332.36L36,440.81h19.46l3.16-15.47h16.97l3.16,15.47h19.46L76.92,332.36H57.29L57.29,332.36z M67.1,381.76
		l4.82,24.45h-9.65L67.1,381.76L67.1,381.76z M111.94,440.81h19.13v-44.74h17.3l3.49,3.49v41.25h18.96v-49.23l-4.99-4.99l4.99-5.16
		v-34.6l-14.64-14.64h-44.25V440.81L111.94,440.81z M131.07,351.32h17.3l3.49,3.49v18.8l-3.49,3.33h-17.3V351.32L131.07,351.32z
		 M208.51,421.68v-25.62h21.29v-19.13h-21.29v-25.62h30.44v-19.13h-49.4v108.62h49.4v-19.13H208.51L208.51,421.68z M292.6,440.81
		h19.13v-44.74h25.28l14.64-14.64v-34.6l-14.64-14.64H292.6V440.81L292.6,440.81z M311.73,351.32h17.3l3.49,3.49v18.8l-3.49,3.33
		h-17.3V351.32L311.73,351.32z M425.92,346.83l-14.64-14.64h-29.61l-14.64,14.64v79.34l14.64,14.64h29.61l14.64-14.64V346.83
		L425.92,346.83z M406.79,418.35l-3.33,3.33h-13.97l-3.33-3.33v-63.71l3.33-3.33h13.97l3.33,3.33V418.35L406.79,418.35z
		 M503.52,391.57l-14.64-14.64H467.1l-3.49-3.49v-18.8l3.49-3.33h13.81l3.49,3.33v8.98h19.13v-16.8l-14.64-14.64h-29.77
		l-14.47,14.64v34.6l14.64,14.64h21.79l3.33,3.49v18.8l-3.49,3.33H467.1l-3.49-3.33v-12.64h-18.96v20.46l14.64,14.64h29.61
		l14.64-14.64V391.57L503.52,391.57z M581.13,391.57l-14.64-14.64H544.7l-3.49-3.49v-18.8l3.49-3.33h13.81l3.49,3.33v8.98h19.13
		v-16.8l-14.64-14.64h-29.77l-14.47,14.64v34.6l14.64,14.64h21.79l3.33,3.49v18.8l-3.49,3.33H544.7l-3.49-3.33v-12.64h-18.96v20.46
		l14.64,14.64h29.61l14.64-14.64V391.57L581.13,391.57z M617.31,440.81V332.36h-19.13v108.45H617.31L617.31,440.81z M680.44,440.81
		l14.64-14.64v-34.6l-5.16-5.16l5.16-4.99v-34.76l-14.47-14.47h-44.58v108.62H680.44L680.44,440.81z M655.16,351.15h17.3l3.49,3.49
		v18.8l-3.49,3.49h-17.3V351.15L655.16,351.15z M672.46,396.06l3.49,3.33v18.8l-3.49,3.49h-17.3v-25.62H672.46L672.46,396.06z
		 M732.93,421.68v-89.49H713.8v108.62h49.4v-19.13H732.93L732.93,421.68z M797.56,421.68v-25.62h21.29v-19.13h-21.29v-25.62H828
		v-19.13h-49.4v108.62H828v-19.13H797.56L797.56,421.68z"/>
	<path d="M493.2,553.83c-0.94,0.17-1.8,0.71-2.38,1.57c-13.01,20-34.95,53.59-49.32,50.29c-2.52-0.39-4.27-1.94-5.63-4.46
		c-3.88-6.99-3.5-20.97,1.17-33.2c4.66-13.01,10.68-16.5,11.65-16.31c0.39,0.39,1.36,2.72-0.19,8.93c-0.39,1.94,0.78,4.08,2.72,4.47
		c1.94,0.58,4.08-0.58,4.47-2.72c3.69-13.98-2.72-17.08-4.66-17.67c-6.99-2.33-15.73,6.21-20.97,20.58
		c-4.47,12.23-6.41,29.12-0.78,39.61c2.52,4.27,6.02,7.18,10.68,8.15c1.16,0.19,2.33,0.39,3.49,0.39
		c13.14,0,26.98-15.39,41.25-35.65c0.17,1.51,0.46,3.04,0.88,4.59c1.89,7.05,7.22,13.01,14.95,13.01c6.8,0,13.98-5.05,17.67-14.17
		c11.59,2.65,25.01-4.3,34.97-14.35c-8.67,36.17-13.1,40.43-19.33,77.04c-3.9,22.91-3.28,25.57,0.39,26.79
		c0.41,0.14,0.78,0.19,1.17,0.19c3.49,0,4.98-4.69,6.8-9.71c0.71-1.96-0.19-4.08-2.14-4.85c-0.2,0-0.39,0-0.58,0
		c3.69-25.82,8.05-34.54,23.58-98.81c5.88-0.63,11.11-1.17,16.68-1.84c0,2.01,1.68,3.78,3.71,3.78c0.19,0,0.19,0,0.39,0
		c5.82-0.58,10.87-0.97,15.53-1.36c-9.48,38.95-14.73,46.33-21.45,85.8c-3.9,22.91-3.28,25.57,0.39,26.79
		c0.41,0.14,0.78,0.19,1.17,0.19c3.49,0,4.98-4.69,6.8-9.71c0.71-1.96-0.19-4.08-2.14-4.85c-0.19,0-0.39,0-0.58,0
		c3.69-25.82,8.05-34.54,23.58-98.81c9.13-0.97,16.7-1.75,26.41-3.11c2.14-0.2,3.49-2.14,3.3-4.08c-0.39-2.14-2.14-3.5-4.27-3.3
		c-8.74,1.16-15.53,1.94-23.49,2.72c0.78-3.11,1.55-6.21,2.33-9.32c0-0.2,0.19-0.2,0.19-0.39c20-31.45,36.69-69.89,30.09-79.6
		c-1.16-1.75-3.11-2.72-5.24-2.33c-11.07,1.75-22.72,43.1-26.02,55.72c-2.91,11.07-6.02,23.49-9.32,36.69
		c-2.57,0.2-5.34,0.45-8.37,0.69c0.04-0.29,0.05-0.59,0.02-0.89c-0.39-2.14-2.14-3.5-4.27-3.3c-8.74,1.16-15.53,1.94-23.49,2.72
		c0.78-3.11,1.55-6.21,2.33-9.32c0-0.2,0.19-0.2,0.19-0.39c20-31.45,36.7-69.89,30.09-79.6c-1.16-1.75-3.11-2.72-5.24-2.33
		c-11.07,1.75-22.72,43.1-26.02,55.72c-2.91,11.07-6.02,23.49-9.32,36.69c-5.05,0.39-10.87,0.97-17.86,1.36
		c-2.14,0.19-3.69,1.94-3.49,4.08c0.23,2.26,1.9,3.49,4.08,3.49c3.91-0.39,7.48-0.69,10.81-0.97c-8.23,9.7-20.71,17.55-30.42,15.53
		c0.19-1.17,0.39-2.53,0.58-3.88c1.17-21.94-5.44-26.6-9.71-27.38c-4.66-0.78-9.32,2.72-11.65,8.35c-0.97-0.39-2.14-0.19-3.11,0.39
		C495.2,552.16,494.18,552.94,493.2,553.83L493.2,553.83z M219.19,554.82c-10.1,10.1-20.77,14.76-28.54,12.43
		c-6.8-1.94-11.46-8.93-13.59-20c-0.19-1.75-1.75-2.91-3.69-2.91c-1.75,0-3.3,1.36-3.69,3.11c-2.72,19.61-14.37,48.93-19.42,52.03
		c-0.39-0.78-1.36-2.52-2.33-6.99c-1.16-5.83-1.55-13.4-1.55-18.06c0-1.75-1.16-3.11-2.72-3.69c-1.55-0.39-3.3,0.19-4.08,1.55
		c-12.81,20-18.25,27.76-22.72,31.84c-2.14,1.94-3.49,2.33-3.69,2.14c-3.49-2.33-6.21-23.49,7.77-62.32
		c0.78-1.94-0.19-4.08-2.14-4.66c-1.94-0.78-4.08,0.19-4.85,2.14c-12.43,34.95-14.56,64.65-4.85,71.06
		c4.78,2.87,9.13,0.77,12.81-2.91c4.27-3.88,8.74-9.9,17.67-23.49c0.19,2.72,0.58,5.44,0.97,7.77c0.78,3.3,2.72,13.4,9.71,13.2
		c3.88-0.19,9.32-2.91,17.28-24.27c2.52-6.6,4.85-13.98,6.8-20.77c4.08,7.77,9.51,11.07,14.17,12.43c8.83,2.57,19.24-0.44,29.5-8.57
		c-4.06,20.26-2.39,31.27,5.26,34.59c1.16,0.39,2.52,0.78,4.08,0.78c10.44,0,25.18-13.84,36.18-27.36
		c-2.39,11.15-4.73,22.41-7.06,33.57c-4.33,20.72-7.65,32.47-10.16,53.59c-0.9,7.58-1.15,11.79,2.52,13.01
		c0.41,0.14,0.97,0.2,1.36,0.2c3.3,0,4.99-4.49,6.6-8.93c0.71-1.96-0.19-4.08-2.14-4.66c-0.19-0.19-0.58-0.19-0.78-0.19
		c1.75-15.14-0.17-3.7,10.94-57.08c8.49-40.78,12.05-59.13,20.2-92.91c6.35-0.14,12.93-0.28,19.6-0.41
		c-7.4,30.31-27.81,115.77-28.73,130.99c-0.11,1.75,1.17,3.5,2.91,3.88c0.19,0,0.58,0,0.78,0c1.55,0,2.91-0.97,3.49-2.53
		c16.89-48.54,33.4-68.73,38.44-68.73h0.19c0.58,0.19,2.72,2.33,3.3,11.46c0.39,4.46,1.17,18.44,10.29,20.77
		c3.69,0.78,15.15,3.69,46.4-46.6c0.97-1.75,0.58-4.08-1.16-5.24c-1.75-0.97-4.08-0.58-5.24,1.16
		c-27.57,44.46-37.28,43.68-38.25,43.3c-1.75-0.39-3.88-4.27-4.66-13.98c-0.19-4.08-0.97-17.09-9.71-18.25
		c-9.9-1.36-21.75,16.12-32.23,38.25c6.41-29.51,10.69-47.87,17.68-76.8c3.42-6.2,6.62-12.19,9.59-17.93
		c45.55-0.81,91.62-1.1,98.17,1.24c1.16,0.97,3.13,1.19,4.47,0.19c1.77-1.33,2.12-3.68,0.97-5.24c-2.44-3.29-11.55-5.35-99.74-3.81
		c16.81-33.72,24.69-57.84,20.13-63.95c-1.16-1.56-3.11-2.34-5.05-1.94c-8.35,1.73-21.36,29.9-30.09,65.82l-0.09,0.36
		c-6.22,0.12-12.78,0.26-19.71,0.42c3.88-15.73,7.52-29.72,10.68-41.35c0.53-1.95-0.56-4.15-2.72-4.66
		c-1.93-0.46-3.92,0.77-4.47,2.72c-3.34,12.03-7.18,26.79-11.07,43.49c-10.87,0.19-22.53,0.45-34.95,0.78
		c-17.28,0.45-30.87,0.83-36.31,0.97c-2.13,0.05-3.69,1.55-3.69,3.69c0,2.14,1.75,3.69,3.69,3.69l0,0c5.44,0,19.22-0.39,36.5-0.78
		c8.93-0.2,20.39-0.58,32.81-0.78c-4.84,20.39-4.59,21.17-9.75,44.81c-13.01,20.95-34.73,40.92-41.33,38.01
		c-0.78-0.2-6.79-3.88,1.55-36.89c0.58-1.94-0.58-3.88-2.72-4.47C223.17,551.55,220.34,553.51,219.19,554.82L219.19,554.82z
		 M226.96,538.71c9.9,0.58,9.71-11.84,1.55-9.32C224.44,530.75,219.2,538.32,226.96,538.71L226.96,538.71z M335.31,447.15
		c-1.36,7.77-6.99,24.46-20,50.68C322.88,469.67,330.84,453.75,335.31,447.15L335.31,447.15z M500.53,587.83
		c-5.05,0-6.99-4.66-7.77-7.57c-1.75-6.41-0.19-15.53,5.24-20.58c0.39,6.41,3.88,13.59,13.2,18.83
		C508.68,584.72,504.02,587.83,500.53,587.83L500.53,587.83z M513.15,569.77c0,0.39,0,0.78,0,1.16c-7.38-4.85-8.74-11.26-7.18-16.11
		c0.45-1.44,2.04-4.66,3.88-4.66C510.62,550.36,514.12,554.24,513.15,569.77L513.15,569.77z M591.39,468.42
		c-0.78,6.99-5.05,22.72-17.47,45.82C581.29,486.87,587.9,473.86,591.39,468.42L591.39,468.42z M635.46,468.42
		c-0.78,6.99-5.05,22.72-17.48,45.82C625.37,486.87,631.97,473.86,635.46,468.42L635.46,468.42z M691.99,563.64
		c-12.03,16.02-22.17,26.65-32.46,33.9c-5.63,4.08-11.26,4.85-14.95,2.33c-2.33-1.75-9.51-9.51-1.16-36.89
		c18.83-15.34,29.12-30.29,26.21-37.86c-0.78-2.52-3.11-4.08-5.82-3.88c-7.57,0.19-19.42,13.4-27.18,38.44v0.19
		c-9.71,30.68-1.94,41.94,3.49,46.02c2.72,1.94,6.02,2.91,9.51,2.91c4.47,0,9.51-1.75,14.17-5.05c8.18-5.79,16.21-13.46,24.96-23.91
		c-1.52,16.01,3.8,23.02,7.85,26.05c2.72,1.94,6.02,2.91,9.51,2.91c4.47,0,9.51-1.75,14.17-5.05c12.62-8.93,24.85-22.33,40-43.49
		c1.16-1.55,0.78-3.88-0.97-5.05c-1.55-1.36-3.88-0.97-5.24,0.78c-14.56,20.39-26.21,33.2-38.05,41.55
		c-5.63,4.08-11.26,4.85-14.95,2.33c-2.2-1.65-8.75-8.7-2.38-32.63c1.67-2.23,3.36-4.55,5.1-6.98c0.23-0.3,0.39-0.64,0.5-0.98
		c16.02-14,24.5-27.2,21.82-34.16c-0.78-2.52-3.11-4.08-5.82-3.88c-7.57,0.19-19.42,13.4-27.18,38.44
		C693.13,560.2,692.2,562.9,691.99,563.64L691.99,563.64z M662.45,529.39c-0.78,2.91-4.08,9.32-13.4,18.44
		C654.3,536.57,659.54,531.13,662.45,529.39L662.45,529.39z M718.95,529.39c-0.78,2.91-4.08,9.32-13.4,18.44
		C710.79,536.57,716.04,531.13,718.95,529.39L718.95,529.39z"/>
</g>
</svg>
