<?xml version="1.0" encoding="utf-8"?>
<!-- Generator: Adobe Illustrator 25.0.0, SVG Export Plug-In . SVG Version: 6.00 Build 0)  -->
<svg version="1.1" id="Layer_1" xmlns="http://www.w3.org/2000/svg" xmlns:xlink="http://www.w3.org/1999/xlink" x="0px" y="0px"
	 viewBox="0 0 864 864" style="enable-background:new 0 0 864 864;" xml:space="preserve">
<g>
	<path d="M317.58,307.35c0-0.57,0-1.14,0-1.71c14.84-1.71,20.26-2.85,21.98-5.99c1.71-2.85,0.29-9.7-9.42-9.7
		c-7.99,0-23.69,2.85-57.93,7.13c-10.56,1.43-9.7,14.27,4.57,12.84c7.42-0.86,13.98-1.71,19.69-2.28
		c4.57,41.67-3.42,68.21-13.13,80.2c-21.4-45.95-28.54-107.02-7.71-154.68c4,3.14,6.56,8.28,5.99,14.84
		c-0.29,5.42,1.14,9.42,9.42,9.42c-0.86,0,5.99,0.29,8.56-4c1.43-2.28,3.14-14.56-4.57-24.26c-13.41-17.98-45.95-20.83-67.92,4
		c-44.81,50.23-10.85,177.8,41.95,177.8c22.26,0,41.67-14.56,47.66-50.8C319.86,340.46,318.72,323.62,317.58,307.35L317.58,307.35z
		 M426.2,408.1c0.29-1.14,0.57-2.28,0.29-3.71c-25.4-103.03-19.69-166.96-21.69-183.79c1.71-3.71-1.71-8.85-8.85-8.85
		c-3.42,0,1.14,0.29-26.54,0.86c-4.28,0-9.42,0.57-11.42,3.42c-1.14,1.14-1.71,2.28-1.71,4c-2.57,62.5,2,126.14,15.98,187.79
		c0.81,4.06,8.36,6.28,11.99,6.28C410.79,413.8,425.06,416.09,426.2,408.1L426.2,408.1z M502.28,340.74
		c24.26-8.28,45.38-32.53,49.37-56.79c5.14-31.68-23.4-62.79-63.93-59.08l0,0c-0.86-15.13-12.84-13.13-24.54-11.42
		c-7.71,1.14-22.83,1.43-22.26,9.13c-12.56,55.94-2.57,158.39,10.84,186.08c1.43,3.14,5.14,5.14,10.27,5.14
		c4.57,0,4-0.86,18.84-5.99c7.42-2.57,11.42-4,13.7-7.71c0.86-1.14,0.57-15.13-0.29-36.53c8.28,10.27,17.12,20.55,27.4,29.68
		c6.56,5.71,17.69,3.14,19.98-2.28C545.09,383.27,527.97,377.56,502.28,340.74L502.28,340.74z M492.58,326.76
		c-1.14-26.26-2.85-57.08-4.28-88.47c10.27-0.86,25.97,0.86,35.67,16.84C540.24,282.52,516.55,317.91,492.58,326.76L492.58,326.76z
		 M582.93,215.17c-7.71-1.43-16.55,4-12.27,10.27c-2.57,20.55-8.56,89.61,7.71,157.82c3.42,13.98,6.85,30.54,21.12,27.68
		c2.28-0.57,4.57-1.14,6.85-1.43c20.26-2,40.24-8.56,60.22-8.85c12.27,0,15.13-13.41-2-13.41c-7.71,0-18.84,2-30.25,4.28
		c-4.28-20.26-18.27-69.64-13.41-151.26c0.57-10.85,4-20.26-6.28-23.97C609.47,214.31,606.05,214.88,582.93,215.17L582.93,215.17z"
		/>
	<path d="M187.2,627.95c0-0.86,4-15.41-7.42-29.4c-16.27-20.26-49.09-22.26-67.92,3.71c-32.54,44.52-15.41,180.65,44.52,180.65
		c35.39,0,46.8-30.54,50.51-65.64c0.86-9.13-20.26-10.56-21.12-0.57c-1.43,13.7-2.57,26.83-10.56,39.38
		c-1.71,2.57-3.71,4.85-5.42,6.56c-19.69-47.66-30.54-112.73-9.42-159.25c5.99,5.42,9.7,14.56,7.99,23.97
		C166.65,635.94,187.2,636.8,187.2,627.95L187.2,627.95z M248.53,605.41c-17.98,18.84-36.53,60.22-33.68,97.89
		c3.71,45.66,34.53,74.2,63.36,74.2c51.94,0,66.78-83.33,59.93-127.86C328.15,585.14,278.78,573.73,248.53,605.41L248.53,605.41z
		 M286.77,758.09c-25.97-35.39-11.7-130.42,5.14-152.11C329.86,632.52,318.16,739.26,286.77,758.09L286.77,758.09z M457.98,592.85
		c0-7.99-11.7-7.42-18.84-7.71c-23.69-0.86-47.09-1.71-70.49-1.43c-5.71-2-13.98,0-14.55,5.71c-5.42,56.22-0.29,193.5,29.11,193.5
		c5.99,0,12.56-4.57,29.97-6.28c4.85-0.57,8.56-4,7.71-8.56c-5.99-24.54-8.85-53.94-9.99-83.33c5.99-0.29,16.84-1.14,19.12-4.57
		c2.57-3.14,1.71-9.99-9.42-9.99c-3.14,0-6.85,0.29-10.27,0.86c-0.57-25.97,0.29-51.09,1.71-72.2c19.12,0.86,35.39,1.14,35.39,1.14
		C445.42,599.98,457.69,600.84,457.98,592.85L457.98,592.85z M566.68,592.85c0-7.99-11.7-7.42-18.84-7.71
		c-23.69-0.86-47.09-1.71-70.49-1.43c-5.71-2-13.98,0-14.55,5.71c-5.42,56.22-0.29,193.5,29.11,193.5c5.99,0,12.56-4.57,29.97-6.28
		c4.85-0.57,8.56-4,7.71-8.56c-5.99-24.54-8.85-53.94-9.99-83.33c5.99-0.29,16.84-1.14,19.12-4.57c2.57-3.14,1.71-9.99-9.42-9.99
		c-3.14,0-6.85,0.29-10.27,0.86c-0.57-25.97,0.29-51.09,1.71-72.2c19.12,0.86,35.39,1.14,35.39,1.14
		C554.13,599.98,566.4,600.84,566.68,592.85L566.68,592.85z M652.27,594.56c11.7,0,12.84-13.7-0.86-13.41
		c-22.83,0-45.95-1.14-69.07-1.14c-4.3,0-10.56,3.37-10.56,7.99c-3.42,61.65-5.14,131.28,13.41,190.64c0,0.86,0.29,2,0.86,2.85
		c2.28,4.85,9.99,5.14,15.13,3.71c2.28-0.57,4.57-1.14,6.85-1.71c64.78-5.42,63.64-5.42,66.21-9.42c1.71-3.14,0.57-9.42-9.99-9.42
		c-5.14,0-14.27,0.86-29.68,2.85c-4.28-21.4-8.28-60.79-8.85-106.74c1.14,0,2.57,0,4,0c4.28,0,12.27,0,12.27-6.56
		c0-5.99-8.28-7.13-16.27-6.56c0-17.69,0.57-35.67,1.71-54.22C645.71,593.99,649.13,594.56,652.27,594.56L652.27,594.56z
		 M760.98,594.56c11.7,0,12.84-13.7-0.86-13.41c-22.83,0-45.95-1.14-69.07-1.14c-4.3,0-10.56,3.37-10.56,7.99
		c-3.42,61.65-5.14,131.28,13.41,190.64c0,0.86,0.29,2,0.86,2.85c2.28,4.85,9.99,5.14,15.13,3.71c2.28-0.57,4.57-1.14,6.85-1.71
		c64.78-5.42,63.64-5.42,66.21-9.42c1.71-3.14,0.57-9.42-9.99-9.42c-5.14,0-14.27,0.86-29.68,2.85
		c-4.28-21.4-8.28-60.79-8.85-106.74c1.14,0,2.57,0,4,0c4.28,0,12.27,0,12.27-6.56c0-5.99-8.28-7.13-16.27-6.56
		c0-17.69,0.57-35.67,1.71-54.22C754.41,593.99,757.84,594.56,760.98,594.56L760.98,594.56z"/>
	<path d="M253.6,120.27c3.36,0.1,6.1,2.67,5.2,6c-0.5,1.8-1.3,3.1-2.41,3.98c-2.48,1.95-9.21,1.15-8.05-4.87
		C248.9,122.52,250.4,120.27,253.6,120.27L253.6,120.27z M249.87,136.4c3.27,0.23,5.08,3.06,4.37,6
		c-1.19,4.89-4.29,14.45-5.81,19.94c12.13-6.55,22.91-10.31,32.31-11.25c1.81-4.54,4.69-9.88,7.35-13.04
		c2.23-2.64,3.16-4.48,5.78-4.48c3.38,0,5.95,3.57,4.07,7.14c-3.17,6-6.34,9.97-9.02,16.13c-1.33,3.07-2.21,6.86-2.57,11.34
		c0.25,2.05,1,3.15,2.19,3.26c2.37,0.25,5.52-1.89,7.14-3.35c4.54-4.37,8.63-9.04,12.31-14c3.68-4.92,6.47-10.51,8.44-16.73
		c1.37-4.5,6.4-5.05,8.74-1.19c0.8,1.38,0.83,3.29,0.08,5.67c-0.39,3.24-0.08,6.64,0.89,10.23c0.97,3.6,2.79,6.67,5.48,9.21
		c2.68,2.54,6.36,3.87,11.06,4.04c6.8-0.42,12.36-1.52,16.65-3.32c7.23-2.98,16.53-8.37,22.49-13.53
		c5.14-4.59,10.4-8.82,15.79-12.72c2.02-1.2,7.72-1.58,6.89,5.01c-1.07,8.51,2.67,20.14,6.33,28.05c9.4,0.61,18.12-1.08,26.14-5.06
		c8.02-3.96,15.38-9.32,22.07-16.07c6.69-6.78,12.81-13.97,18.31-21.66c-6.25-0.58-11.2-1.3-14.82-2.1c-4.96-1.1-7.61-1.14-8.52-4.4
		c-0.94-3.36,1.45-6.51,5.59-5.89c0,0,2.27,0.47,6.78,1.38c4.51,0.91,10.54,1.6,18.12,2.1c6.53-8.16,12.89-16.98,19.03-26.5
		c1.08-2.38,1.99-4.31,2.71-5.78c1.34-2.7,2.15-4.9,5.39-4.84c3.29,0.06,5.17,3.14,4.45,5.84c-1.49,4.81-3.79,9.82-6.89,14.99
		c-3.13,5.37-5.56,10.7-7.27,16.04c13.06-0.94,24.27-3.63,36.79-8.66c7.92-3.18,9.18,5.84,3.65,8.66
		c-7.8,3.24-15.43,5.61-22.99,7.11c-7.52,1.47-14.71,2.35-21.52,2.63c-6.2,15.32-18.07,40.82-14.02,57.37
		c12.44-0.48,25.89-8.85,35.6-16.98c5.5-4.62,9.96-9.1,13.36-13.47c2.18-2.59,6.14-2.05,7.77,0.72c0.8,1.36,0.69,3.07-0.39,5.17
		c-7.14,8.82-15.52,16.51-25.14,23.1c-9.6,6.61-19.53,10.29-29.73,11.12c-5.06,0.06-8.69-2.38-10.84-7.3
		c-4.02-10.26-0.06-25.47,3.87-36.15c2.49-6.75,5.23-13.58,8.19-20.5c-8.28,10.41-15.06,19.37-23.9,28.49
		c-6,6.2-13,11.06-20.99,14.63c-7.99,3.57-18.01,5.45-30.07,5.67c-1.19,4.98-3.84,8.46-8.02,10.48c-7.2,3.49-18.34,2.06-22.43-6.08
		c-3.69-7.35-0.92-16.12,6.22-17.87c3.79-0.91,7.8-0.5,12.09,1.22c-2.02-5.23-3.4-10.79-4.23-16.68c-3.24,2.71-6.67,5.59-10.29,8.66
		c-5.63,4.39-17.12,10.73-23.65,13.22c-4.43,1.69-10.65,2.79-18.64,3.32c-5.38,0-11.3-2.26-15.71-5.26
		c-4.87-3.29-8.22-8.08-10.07-14.36c-4.35,7.84-10.37,16.4-17.56,22.07c-3.68,2.9-7.69,4.48-12,4.76c-4.7-0.66-7.72-2.6-9.07-5.84
		c-2.06-4.91-1.51-9.71-0.41-15.07c-8.24,1.63-17.47,5.36-25.46,9.87c-2.66,1.52-5.23,3.18-7.77,4.95
		c-0.16,0.22-7.01,26.04-21.55,45.14c-4.7,6.18-12.68,7.34-17.04,1.99c-5.07-6.23,2.01-19.81,6.97-27.69
		c6.56-10.15,14.38-18.56,23.51-25.2c1.63-5.56,3.26-11.51,4.95-17.81c-2.2,0.61-8.79,8.73-11.84,9.07
		c-4.48,0.5-8.96-4.56-2.52-9.32l9.65-7.14c1.99-1.52,3.84-2.9,5.59-4.18c1.71-1.27,3.07-2.24,4.04-2.88
		C247.29,136.9,248.46,136.4,249.87,136.4L249.87,136.4z M230.17,188.26c-7.49,7.94-13.85,18.03-16.51,28.85
		C221.43,211.39,227.13,197.64,230.17,188.26L230.17,188.26z M391.59,173.52c-1.38-0.06-2.3,0.5-2.66,1.63
		c-1.66,7.08,10.53,8.69,13.28,1.77C399.09,175.93,395.4,173.69,391.59,173.52L391.59,173.52z M597.35,144.67
		c2.43,0.28,4.34,0.91,5.75,1.94c3.59-1.33,6.88,1.36,6.47,4.95c-0.69,4.92-2.54,9.51-5.5,13.77c-0.33,1.74-0.22,3.18,0.33,4.37
		c0.53,1.19,1.8,2.21,3.79,3.02c3.24,0.91,8.71-0.14,16.37-3.13c7.66-2.99,16.93-8.91,27.8-17.7c2.7-2.07,6.34-0.71,7.44,2.3
		c0.55,1.49,0.06,3.13-1.44,4.92c-11.28,9.38-21.32,15.93-30.07,19.61c-11.79,4.94-25.94,6.66-31.92-4.4
		c-5.09,5.03-16.53,13.98-22.38,7.36c-1.99-2.27-2.9-5.2-2.68-8.88c0.91-7.14,3.79-13.39,8.63-18.75
		C584.8,148.65,590.6,145.53,597.35,144.67L597.35,144.67z M596.94,154.07c-7.44,0.35-15.23,13.52-16.21,20.03
		c3.46-1.63,7.27-4.56,11.42-8.85c1.02-1.19,1.99-2.41,2.93-3.65c0.53-2.41,1.41-4.9,2.66-7.44L596.94,154.07L596.94,154.07z"/>
	<path d="M81.2,483.25c3.17,0.12,5.12,2.88,4.54,5.84l-2.52,13.28c-1.39,9.08-2.64,21.01-1.05,29.26c0.69,3.51,1.8,5.17,3.29,5.01
		c1.47-0.14,3.6-1.74,6.36-4.76c5.28-6.17,9.04-13.64,11.26-22.38c0-2.21,0.08-4.56,0.28-7.05c0.98-12.63,9.75-10.14,11.23-5.42
		c1.31,4.17-2.02,13.46-2.02,13.86c0.07,6.88,1.41,15.6,4.2,21.13c1.88,3.57,3.73,5.06,5.56,4.48c5.74-1.89,14.24-15.05,17.29-20.74
		c-3.93-4.54-5.92-10.1-5.92-16.62c0.83-4.65,3.07-7.27,6.75-7.91c3.65-0.61,7.16,0.61,10.51,3.71c1.8,2.57,2.52,5.56,2.21,8.93
		c-0.33,3.37-1.11,6.64-2.3,9.76c7.35,4.8,18.13,4.16,26.72,2.49c4.84-0.94,9.07-1.99,12.75-3.13c0.59-0.26,1.16-0.41,1.72-0.45
		c10.68-11.02,20.68-22,30-32.93c10.73-12.59,20.77-26.44,30.09-41.57c3.25-5.2,9.96-2.14,8.6,3.98
		c-5.03,10.84-9.76,22.71-14.19,35.57c-4.43,12.86-8.33,25.17-11.73,36.95c2.68-3.35,5.81-5.78,9.38-7.27
		c3.57-1.47,7.47-0.89,11.67,1.74c3.6,2.73,5.24,9.47,6,13.8c0.5,3.07,1.24,5.95,2.27,8.66c1.36,2.32,3.26,3.04,5.75,2.16
		c5.3-1.91,11.73-8.19,15.79-12.36c4.18-4.29,1.95-1.14,3.96-5.67c1.85-4.23,5.15-8.1,9.85-11.67c2.46-4.87,5.75-7.52,9.79-7.99
		c8.98-1.01,17.02,6.77,18.81,15.6c1.51,7.42-1.31,16.34-5.45,22.63c8.04,2.18,18.29,0.69,26.28-3.18c4.48-2.16,8.1-5.28,10.84-9.38
		c1.13-2.13,2.57-3.35,4.31-3.71c1.72-0.33,3.1,0.11,4.15,1.35c1.08,1.24,1.16,3.18,0.3,5.84c-7.36,9.54-15.41,15.43-24.2,17.62
		c-8.77,2.18-18.17,1.88-28.16-0.94c-7.71,7.45-18.6,7.48-25.2-2.68c-1.18-1.91-2.07-3.97-2.69-6.19
		c-5.91,5.8-16.53,14.15-24.78,10.25c-3.62-1.94-6.31-5.2-8.02-9.76c-1.74-4.56-3.04-9.15-3.9-13.75c-1.24-4.09-3.54-4.73-6.89-1.85
		c-7.9,7.06-12.53,17.7-16.46,27.47c-1.47,3.51-2.96,6.91-4.54,10.21c-2.53,5.79-10.26,2.68-8.99-2.68
		c5.16-21.77,14-52.46,22.29-76.4c-13.36,15.93-27.71,31.86-43.12,47.8c-1.97,1.87-4.99,1.54-6.66-0.14
		c-4.87,1.42-10.19,2.31-15.99,2.65c-8.82,0.55-16.96-0.97-24.42-4.54c-4.47,8-10.1,15.85-17.32,21.1
		c-8.21,5.98-16.96,1.19-21.1-6.91c-1.3-2.54-2.32-5.26-3.07-8.1c-3.95,7.6-11.39,18.37-21.08,17.73
		c-6.42-0.43-10.2-6.68-11.34-12.39c-2.55-12.77,0.65-33.94,3.57-46.58C77.03,484.68,78.82,483.25,81.2,483.25L81.2,483.25z
		 M143.02,500.51c-0.3,1.02-0.11,2.24,0.66,3.65C143.83,503.87,144.37,501.45,143.02,500.51L143.02,500.51z M298.3,519.5
		c0.26,3.07-2.33,5-2.53,5.47c-0.06,0.86-0.03,1.75,0.09,2.67c0.76,5.81,4.82,11.81,11.81,8.77
		C302.59,531.95,300.18,526.15,298.3,519.5L298.3,519.5z M311.74,504.88c-1.2,0-2.13,0.47-2.85,1.55
		c-4.97,7.48,0.06,17.58,5.28,23.18c3.08-4.99,5.79-12.49,4.18-18.48C317.55,508.2,315.37,506.12,311.74,504.88L311.74,504.88z
		 M461.32,433.49c5.68-0.12,6.51,4.91,4.37,9.49c-0.97,2.21-2.96,6.06-6,11.59c0,0.61-6.99,11.63-7.86,12.94l-7.52,16.79
		c-5.04,11.04-10.43,23.74-13.25,36.15c-1.44,6.25-1.52,11.48-0.22,15.63c7.25-0.39,14.24-2.63,20.99-6.72
		c6.42-3.92,11.96-8.09,16.62-12.53c0.16-0.42,0.34-0.83,0.52-1.25c1.85-4.23,5.15-8.1,9.85-11.67c2.46-4.87,5.75-7.52,9.79-7.99
		c8.98-1.01,17.02,6.77,18.81,15.6c1.51,7.42-1.31,16.34-5.45,22.63c8.04,2.18,18.29,0.69,26.28-3.18c4.48-2.16,8.1-5.28,10.84-9.38
		c1.37-2.29,2.64-3.58,4.9-3.79c-0.9-4.08-1.57-8.26-2.03-12.56c-0.66-6.5-0.61-12.5,0.19-18.03c0.63-3.13,4.1-4.81,7.11-3.1
		c1.38,0.77,2.13,2.32,2.21,4.65c-0.64,4.31-0.66,9.49-0.08,15.49c1.02,10.27,3.78,24.27,10.79,32.42
		c6.79-3.48,11.67-11.16,15.79-17.51c0.94-1.41,1.8-2.74,2.6-3.98c-3.52-4.61-6.14-10.69-5.42-16.04c1.22-9.05,9.76-9.84,15.46-5.73
		c6.29,4.53,4.21,13.63,1.3,20c7.38,4.96,18.27,4.38,27,2.74c4.92-0.91,9.21-1.96,12.89-3.15c2.26-0.85,4.2-0.46,5.69,1.31
		c0.82-1.02,1.68-2,2.58-2.94c2.6-2.68,5.89-4.81,9.87-6.39c4.21-1.36,10.13-0.09,13.25,3.07c4.65,4.7,4.51,11.43-1.08,16.37
		c-5.19,4.59-14.83,5.59-23.1,5.59c-1.3,3.4-0.77,5.64,1.6,6.69c5.21,2.3,14.49,0.56,19.61-1.41c13.24-5.08,29.64-13.02,40.94-19.33
		c4.7-2.63,7.05-3.93,7.05-3.93c6.69-3.23,10.99-7.78,17.18-12.25c1.75-1.01,7.73-1.71,6.89,5.03c-1.07,8.56,2.65,20.1,6.33,28.05
		c7.72,0.8,15.66-0.14,23.79-2.85c8.13-2.68,15.27-7.39,21.44-14.08c2.44-2.55,6.24-1.7,7.72,1.08c0.75,1.38,0.5,3.1-0.69,5.14
		c-7.05,7.77-15.16,13.3-24.28,16.57c-9.16,3.26-18.23,4.54-27.24,3.76c-1.19,4.98-3.84,8.49-8.02,10.51
		c-7.15,3.47-18.31,2.08-22.43-6.08c-3.66-7.25-1.03-16.09,6.22-17.81c3.79-0.91,7.8-0.53,12.09,1.16
		c-2.02-5.23-3.4-10.81-4.23-16.71c-16.38,12.01-40,23.14-59.33,30.56c-7.12,2.74-17.12,4.01-24.89,2.38
		c-4.04-0.83-7-2.74-8.93-5.75c-1.91-2.99-1.91-7.41,0.06-13.25c-0.67-1.26-0.84-2.48-0.49-3.64c-5.17,1.56-10.85,2.52-17.02,2.84
		c-8.99,0.5-17.2-1.16-24.73-4.95c-2.54,4.56-5.75,9.16-9.68,13.8c-3.93,4.62-8.44,8.08-13.58,10.34c-2.74,0.89-5.23,0.41-7.44-1.36
		c-5.04-4.47-8.22-11.63-10.39-17.78c-7,8.57-14.61,13.9-22.88,15.96c-8.77,2.18-18.17,1.88-28.16-0.94
		c-7.72,7.45-18.6,7.48-25.2-2.68c-1.52-2.47-2.58-5.21-3.16-8.19c-3.52,2.77-7.39,5.25-11.58,7.44c-8.49,4.4-17.15,6.75-26.03,7.08
		c-3.51-0.55-6.11-1.96-7.8-4.29c-1.72-2.32-2.66-5.34-2.79-9.02c-0.03-8.63,4.08-20.96,7.69-29.15l-14.91,18.86
		c-3.68,4.18-10.87-0.47-7.22-5.97c0,0,2.13-2.71,6.39-8.08c4.29-5.37,9.4-12.06,15.41-20.11c6-8.02,11.76-16.26,17.26-24.76
		c3.29-7.05,6.06-12.86,8.27-17.37c3.01-6.13,3.44-7.81,6.11-10.12C459.17,434.34,460.3,433.71,461.32,433.49L461.32,433.49z
		 M477.56,519.29c-0.42,2.79-1.81,3.19-2.2,3.95c-0.32,1.38-0.38,2.85-0.17,4.4c0.76,5.82,4.82,11.81,11.81,8.77
		C481.86,531.91,479.44,526.02,477.56,519.29L477.56,519.29z M491.06,504.88c-1.2,0-2.13,0.47-2.85,1.55
		c-4.97,7.48,0.06,17.58,5.28,23.18c3.08-4.99,5.79-12.49,4.18-18.48C496.87,508.2,494.68,506.12,491.06,504.88L491.06,504.88z
		 M584.57,500.51c-0.95,1.01-0.33,2.51,0.55,3.24C585.61,502.82,585.82,501.22,584.57,500.51L584.57,500.51z M656.13,514.61
		c-1.58-1.47-3.37-1.52-5.42-0.17c-2.07,1.36-4.07,3.29-6,5.84c2.46,0,9.3-1.02,11.53-2.96
		C657.1,516.58,657.04,515.69,656.13,514.61L656.13,514.61z M730.03,540.94c-1.97-0.42-12.34-6.14-13.28-1.8
		C715.19,546.41,727.34,547.73,730.03,540.94L730.03,540.94z"/>
</g>
</svg>
