<?xml version="1.0" encoding="utf-8"?>
<!-- Generator: Adobe Illustrator 25.0.0, SVG Export Plug-In . SVG Version: 6.00 Build 0)  -->
<svg version="1.1" id="Layer_1" xmlns="http://www.w3.org/2000/svg" xmlns:xlink="http://www.w3.org/1999/xlink" x="0px" y="0px"
	 viewBox="0 0 864 864" style="enable-background:new 0 0 864 864;" xml:space="preserve">
<g>
	<path d="M304.61,14c-15.75,0-30.06,12.33-38.42,24.65c-5.32,7.73-9.61,15.34-12.87,22.84c-3.26,7.49-6.83,17.76-10.69,30.81
		c-6.77,21.89-9.52,42.01-11.6,64.88c-1.45,15.95-1.39,31.96,0.18,48.03c1.57,16.07,5.14,28.45,10.69,37.15
		c9.42,15.22,21.75,23.92,36.97,26.1c15.22,2.17,29.36-3.5,42.41-17.04c3.51-3.9,6.47-8.51,8.88-13.82
		c2.53,8.84,6.1,15.87,10.7,21.07c4.35,4.59,9.06,7.49,14.14,8.7c7.47,1.64,17.11-0.22,23.92-3.62c6.62-3.5,12.39-8.92,17.34-16.25
		l0.06,0.67c3.62,43.74,16.19,69.47,37.7,77.21c7.97,2.85,23.93,1.65,30.99-2.9c3.75-2.42,7.07-6.77,9.97-13.05
		c4.83-10.39,6.22-21.2,4.17-32.44c-2.05-11.24-7.07-19.88-15.04-25.92l-5.8-4.71l6.52-2.17c9.35-3.23,20.17-11.64,28.07-20.05
		c4.65,17.57,20.21,37.08,37.54,41.8c14.5,3.87,29,2.05,43.5-5.44c14.5-7.49,26.7-17.04,36.61-28.64
		c5.8-7.01,11.24-16.49,16.31-28.45c5.07-11.96,6.65-19.15,4.71-21.57c-1.61-2.07-10.98-3.79-14.14,1.99
		c-0.73,1.33-2.05,5.13-3.99,11.42c-2.66,7.97-7.85,16.31-15.59,25.01c-13.05,14.5-25.37,21.99-36.97,22.47
		c-14.74,0.48-22.59-11.6-23.56-36.25l-0.73-12.69c12.52-0.39,23.66-0.26,34.44-5.44c6.04-2.9,11.48-7.37,16.31-13.41
		c5.56-7.25,9.55-14.2,11.96-20.84c3.5-9.61,6.22-30.9,0.73-40.05c-3.62-6.77-9.67-12.08-18.12-15.95
		c-7.25-3.62-14.14-5.44-20.66-5.44c-12.32-0.24-24.65,5.92-36.97,18.49c-5.56,5.32-9.73,10.03-12.51,14.14
		c-10.59,15.65-17.16,36.87-20.12,57.09c-0.5,3.39-0.87,6.66-1.13,9.81c-0.31,1.01-0.66,2.15-1.05,3.42
		c-4.62,16.13-7.6,20.69-21.02,30.81c-7.25,5.56-14.62,8.94-22.11,10.15l-6.89,1.09c0.68-14.66,1.86-48.35,4.35-50.38
		c2.42-1.93,8.7-13.29,18.85-34.07c11.6-23.92,17.94-42.23,19.03-54.92c1.09-12.69-2.96-22.78-12.14-30.27
		c-11.6-9.42-22.47-11.72-32.62-6.89c-7.66,3.74-15.86,15.25-19.21,23.56c-5.32,13.05-9.18,25.49-11.6,37.33
		c-2.42,11.84-4.83,30.81-7.25,56.91l-1.09,11.4c-0.49,9.17-3.13,19.82-7.24,32.46c-3.87,11.6-8.58,20.18-14.14,25.74l-4.71,4.71
		l-1.09-3.26c-1.69-5.07-2.72-15.41-3.08-30.99c-0.36-15.59,0.06-29.66,1.27-42.23c2.42-22.23,4.59-38.91,6.53-50.02
		c1.69-8.46,1.57-14.02-0.36-16.67c-5.8-7.98-32.02-15.56-40.24-5.98c-0.73,0.85-1.57,2.48-2.54,4.89
		c-4.83,12.81-7.25,37.7-7.25,74.67c0,2.55,0.02,5.03,0.06,7.44c-0.17,0.82-0.31,1.73-0.42,2.71c-0.91,8.87-4.67,29.2-9.06,36.97
		c-4.59,8.22-9.06,13.77-13.41,16.67c-9.18,6.28-16.31,0.85-21.39-16.31c-6.52-21.51-7.49-48.81-2.9-81.92
		c1.45-9.18,2.54-17.04,3.26-23.56c0.73-5.32,1.27-8.46,1.63-9.42c0.36-0.97,1.03-1.45,1.99-1.45c1.21,0,3.99-1.09,8.34-3.26
		c9.67-4.59,18.43-11.18,26.28-19.75c7.85-8.58,13.47-17.82,16.86-27.73c1.93-4.83,2.9-10.51,2.9-17.04
		c0-7.73-1.21-13.71-3.62-17.94c-2.42-4.23-6.77-7.79-13.05-10.69C316.81,15.45,310.89,14,304.61,14L304.61,14z M307.51,50.61
		c2.66-4.59,5.74-9,9.24-13.23c3.5-4.23,5.74-5.74,6.71-4.53c1.93,3.14,2.9,8.46,2.9,15.95c0,8.46-3.02,17.76-9.06,27.91
		c-6.04,10.15-13.41,18.12-22.11,23.92c-2.81,1.87-8.89,6.07-9.79,5.62c-0.24-0.12-0.24-0.54,0-1.27
		c3.34-9.69,5.46-18.72,10.15-29.54C299.9,65.41,303.88,57.14,307.51,50.61L307.51,50.61z M345.21,37.2
		c-4.35,1.93-5.53,5.43-5.05,10.02l2.88,25.86c0.97,6.04,2.66,10.03,5.07,11.96c4.11,2.9,9.42,3.75,15.95,2.54
		c6.52-1.21,11.48-3.99,14.86-8.34c1.45-3.62,2.48-9.12,3.08-16.49c0.6-7.37,0.3-13.47-0.91-18.31c-0.62-2.77-4.62-5.99-7.25-6.89
		C362.73,33.69,353.18,33.57,345.21,37.2L345.21,37.2z M464.82,78.52c2.42,0,3.99,3.62,4.71,10.87
		c1.21,11.84-3.75,30.57-14.86,56.18c-5.08,11.92-6.56,14.37-11.24,23.2c1.24-10.53,1.11-12.73,2.18-29.72
		c1.45-22.71,4.35-38.79,8.7-48.21C455.58,87.8,461.29,78.52,464.82,78.52L464.82,78.52z M440.18,247.8
		c6.76,5.07,15.19,10.63,19.21,16.86c2.42,3.75,4.11,8.52,5.07,14.32c2.18,13.29-0.24,24.53-7.25,33.71
		c-3.31,4.29-5.26,4.22-8.88,0.36c-1.81-1.93-3.2-3.99-4.17-6.16C439.24,295.14,439.24,271.13,440.18,247.8L440.18,247.8z
		 M579.01,111.14c0.73,0,1.33,0.12,1.81,0.36c1.93,1.69,3.14,5.5,3.62,11.42c1.08,13.24-2.73,24.86-9.61,36.61
		c-3.75,6.4-7.79,11.54-12.14,15.41c-4.59,4.35-10.03,7.13-16.31,8.34c-5.8,1.21-8.7,1.21-8.7,0c0-0.73,0.85-5.32,2.54-13.77
		c2.42-10.87,5.26-19.76,8.52-26.64c3.26-6.89,7.79-13.47,13.59-19.76C569.82,115.37,575.38,111.39,579.01,111.14L579.01,111.14z"/>
	<path d="M89.05,630.71c13.59,18.39,30.68,24.19,52.2,22.11c12.57-1.45,24.04-7.13,34.44-17.04c7.9-7.46,14.61-15.27,20.11-23.43
		c4.15,16.83,10.7,27.05,24.11,34.12c10.22,5.39,16.45,5.23,29.72,3.81c13.39-1.44,25.52-14.65,36.61-25.74h9.42
		c15.01,0,28.56-5.18,39.99-14.11c-0.2,9.19,0,17.03,0.61,23.53c3.62,43.74,16.19,69.47,37.7,77.21c7.97,2.85,23.93,1.65,30.99-2.9
		c3.75-2.42,7.07-6.77,9.97-13.05c4.83-10.39,6.22-21.2,4.17-32.44c-2.05-11.24-7.07-19.88-15.04-25.92l-5.8-4.71l6.52-2.17
		c7.77-2.68,16.32-8.74,23.98-15.96c-0.08,7.66,0.14,14.31,0.67,19.95c3.62,43.74,16.19,69.47,37.7,77.21
		c7.97,2.85,23.93,1.65,30.99-2.9c3.75-2.42,7.07-6.77,9.97-13.05c4.83-10.39,6.22-21.2,4.17-32.44
		c-2.05-11.24-7.07-19.88-15.04-25.92l-5.8-4.71l6.52-2.17c9.35-3.23,20.17-11.64,28.07-20.05c4.65,17.57,20.21,37.08,37.54,41.8
		c14.5,3.87,29,2.05,43.5-5.44c16.34-8.44,32.21-20.99,41.95-35.95c4.74,17.39,20.21,36.7,37.43,41.39c14.5,3.87,29,2.05,43.5-5.44
		c14.5-7.49,26.7-17.04,36.61-28.64c5.8-7.01,11.24-16.49,16.31-28.45c5.07-11.96,6.65-19.15,4.71-21.57
		c-1.61-2.07-10.98-3.79-14.14,1.99c-0.73,1.33-2.05,5.14-3.99,11.42c-2.66,7.97-7.85,16.31-15.59,25.01
		c-13.05,14.5-25.37,21.99-36.97,22.47c-14.74,0.48-22.59-11.6-23.56-36.25l-0.73-12.69c12.52-0.39,23.66-0.26,34.44-5.44
		c6.04-2.9,11.48-7.37,16.31-13.41c5.56-7.25,9.55-14.2,11.96-20.84c3.61-9.91,6.54-30.36,0.73-40.05
		c-3.62-6.77-9.67-12.08-18.12-15.95c-7.25-3.62-14.14-5.44-20.66-5.44c-18.94-0.37-39.27,17.54-49.48,32.62
		c-10.59,15.65-17.16,36.87-20.12,57.09c-0.71,4.82-1.17,9.4-1.39,13.75c-2.74,7.71-7.83,15.75-15.28,24.13
		c-13.05,14.5-25.37,21.99-36.97,22.47c-14.74,0.48-22.59-11.6-23.56-36.25l-0.73-12.69c12.53-0.39,23.66-0.26,34.44-5.44
		c6.04-2.9,11.48-7.37,16.31-13.41c5.56-7.25,9.55-14.2,11.96-20.84c2.42-6.65,3.62-14.44,3.62-23.38c0-6.68,0.59-10.85-2.9-16.67
		c-3.62-6.77-9.67-12.08-18.12-15.95c-7.25-3.62-14.14-5.44-20.66-5.44c-18.94-0.37-39.27,17.54-49.48,32.62
		c-10.59,15.65-17.16,36.87-20.12,57.09c-0.5,3.39-0.87,6.66-1.13,9.81c-0.31,1.01-0.66,2.15-1.05,3.42
		c-4.62,16.13-7.6,20.69-21.02,30.81c-7.25,5.56-14.62,8.94-22.11,10.15l-6.89,1.09c0.68-14.66,1.86-48.35,4.35-50.38
		c2.42-1.93,8.7-13.29,18.85-34.07c11.6-23.92,17.94-42.23,19.03-54.92c1.09-12.69-2.96-22.78-12.14-30.27
		c-11.6-9.42-22.47-11.72-32.62-6.89c-7.66,3.74-15.86,15.25-19.21,23.56c-5.32,13.05-9.18,25.49-11.6,37.34
		c-2.42,11.84-4.83,30.81-7.25,56.91c-0.43,4.22-0.82,8.29-1.16,12.22c-0.4,1.24-0.85,2.72-1.37,4.45
		c-4.62,16.12-7.6,20.69-21.02,30.81c-7.25,5.56-14.62,8.94-22.11,10.15l-6.89,1.09c0.68-14.66,1.86-48.35,4.35-50.38
		c2.42-1.93,8.7-13.29,18.85-34.07c11.6-23.92,17.94-42.23,19.03-54.92s-2.96-22.78-12.14-30.27c-11.6-9.42-22.47-11.72-32.62-6.89
		c-7.66,3.74-15.86,15.25-19.21,23.56c-5.32,13.05-9.18,25.49-11.6,37.34c-2.42,11.84-4.83,30.81-7.25,56.91
		c-0.7,6.83-1.28,13.28-1.76,19.35c-0.73,1.65-1.48,3.17-2.23,4.58c-3.62,7.01-10.45,13.53-20.48,19.57s-16.73,7.85-20.12,5.44
		c-0.48-0.24,0.97-3.14,4.35-8.7c7.01-12.57,12.2-25.25,15.59-38.06c3.36-13.08,4.37-34.21,1.81-47.3
		c-0.97-4.95-2.9-10.33-5.8-16.13c-6.77-13.77-17.88-20.78-33.35-21.02c-7.97,0-15.22,2.42-21.75,7.25
		c-3.38,2.42-5.2,3.62-5.44,3.62c-1.13,0-9.84-8.72-22.11-9.79c-5.56-0.48-10.51,1.09-14.86,4.71
		c-6.04,6.04-10.81,18.79-14.32,38.24c-3.37,18.71-5.12,35.02-5.25,48.93c-0.4,1.13-0.89,2.76-1.46,4.9
		c-3.87,14.74-12.32,29.12-25.37,43.13c-12.81,13.77-22.59,17.52-29.36,11.24c-2.9-2.66-5.92-8.16-9.06-16.49
		c-8.33-22.09-8.91-40.96-3.08-66.15c3.75-16.19,8.88-29.48,15.41-39.87c3.62-5.32,7.67-10.03,12.14-14.14
		c4.47-4.11,7.31-5.44,8.52-3.99c2.25,2.25,0.77,19.89-0.36,23.56c-0.97,4.35-0.97,7.13,0,8.34c6.1,6.1,9.79-1.45,11.6-6.89
		c3.14-10.15,3.26-18.49,0.36-25.01c-2.18-4.35-5.86-8.1-11.06-11.24c-5.2-3.14-11.06-4.59-17.58-4.35
		c-10.39,0.48-21.14,5.92-32.26,16.31c-13.05,12.81-23.2,29.84-30.45,51.11C69.48,580.44,72.14,608.72,89.05,630.71L89.05,630.71z
		 M268.48,499.85c6.28-9.67,13.05-12.2,20.3-7.61c6.28,4.4,11.34,18.71,12.69,26.1c4.14,23.04-2.88,53.68-14.5,74.67l-4.71,8.34
		c-0.48,0-2.24-3.56-5.26-10.69c-3.02-7.13-5.26-12.87-6.71-17.22c-6.22-18.88-7.61-25.35-7.61-43.86
		C262.68,517.98,262.21,509.89,268.48,499.85L268.48,499.85z M237.67,577.42l1.09,4.71c3.26,12.32,16,29.88,27.19,35.16
		c2.18,0.97,3.26,1.93,3.26,2.9c0,2.3-19.35,18.85-23.56,18.85c-0.48,0-1.21-0.48-2.17-1.45c-6.83-7.45-7.31-24.68-7.43-34.25
		C235.87,589.63,236.28,586.44,237.67,577.42L237.67,577.42z M404.77,464.33c2.42,0,3.99,3.62,4.71,10.87
		c1.21,11.84-3.75,30.57-14.86,56.18c-5.08,11.92-6.56,14.37-11.24,23.2c1.24-10.53,1.11-12.73,2.18-29.72
		c1.45-22.72,4.35-38.79,8.7-48.21C395.53,473.61,401.24,464.33,404.77,464.33L404.77,464.33z M380.12,633.61
		c6.76,5.07,15.19,10.63,19.21,16.86c2.42,3.75,4.11,8.52,5.07,14.32c2.17,13.29-0.24,24.53-7.25,33.71
		c-3.31,4.29-5.26,4.22-8.88,0.36c-1.81-1.93-3.2-3.99-4.17-6.16C379.18,680.95,379.19,656.94,380.12,633.61L380.12,633.61z
		 M497.93,464.33c2.42,0,3.99,3.62,4.71,10.87c1.21,11.84-3.75,30.57-14.86,56.18c-5.08,11.92-6.56,14.37-11.24,23.2
		c1.24-10.53,1.11-12.73,2.18-29.72c1.45-22.72,4.35-38.79,8.7-48.21C488.68,473.61,494.4,464.33,497.93,464.33L497.93,464.33z
		 M473.28,633.61c6.76,5.07,15.19,10.63,19.21,16.86c2.42,3.75,4.11,8.52,5.07,14.32c2.18,13.29-0.24,24.53-7.25,33.71
		c-3.31,4.29-5.26,4.22-8.88,0.36c-1.81-1.93-3.2-3.99-4.17-6.16C472.34,680.95,472.35,656.94,473.28,633.61L473.28,633.61z
		 M612.11,496.95c0.73,0,1.33,0.12,1.81,0.36c1.93,1.69,3.14,5.5,3.62,11.42c1.08,13.24-2.73,24.86-9.61,36.61
		c-3.75,6.4-7.79,11.54-12.14,15.41c-4.59,4.35-10.03,7.13-16.31,8.34c-5.8,1.21-8.7,1.21-8.7,0c0-0.73,0.85-5.32,2.54-13.77
		c2.42-10.87,5.26-19.76,8.52-26.64c3.26-6.89,7.79-13.47,13.59-19.75C602.93,501.18,608.48,497.19,612.11,496.95L612.11,496.95z
		 M734.99,496.95c0.73,0,1.33,0.12,1.81,0.36c1.93,1.69,3.14,5.5,3.62,11.42c1.08,13.24-2.73,24.86-9.61,36.61
		c-3.75,6.4-7.79,11.54-12.14,15.41c-4.59,4.35-10.03,7.13-16.31,8.34c-5.8,1.21-8.7,1.21-8.7,0c0-0.73,0.85-5.32,2.54-13.77
		c2.42-10.87,5.26-19.76,8.52-26.64c3.26-6.89,7.79-13.47,13.59-19.75C725.81,501.18,731.36,497.19,734.99,496.95L734.99,496.95z"/>
	<path d="M157.57,313.32v30.29c7-7.41,16.8-12.25,27.31-12.25c6.16,0,11.37,2.06,15.7,6.44c5.32,5.38,6.98,14.76,6.98,23.02v29.19
		c0,9.32,4.05,6.39,9.67,7.64c1.64,0.37,3.56,0.81,3.56,2.78c0,5.27-1.03,8.62-3.08,10.01c-4.05-0.39-8.01-0.59-11.86-0.59
		l-12.08,0.59c-1.3,0-1.67-0.32-2.07-1.66c-0.24-0.76-0.37-1.86-0.37-3.3v-43.4c0-26.53-20.63-19.04-33.76-7.2
		c0,4.73-0.16,36.79,0.12,38.69c0.65,4.3,5.08,2.05,9.1,3.83c1.29,0.56,1.93,1.42,1.93,2.56c0,5.59-0.78,9.08-2.37,10.47
		c-9.19-0.8-24.73-0.77-33.73,0c-1.59-1.44-2.37-4.93-2.37-10.47c0-2.8,4.15-3.44,6.59-3.44c3.32,0,4.49-1.22,4.49-4.52v-68.84
		c0-2.54-0.73-4.32-2.17-5.37c-1.46-1.05-4.27-1.59-8.4-1.59c-1.57-0.18-1.44-2.18-1.44-4.05c0-2.49,0.27-4.66,0.78-6.54
		c0.54-1.9,1.05-2.98,1.59-3.27c3.95,0.59,7.74,0.88,11.35,0.88c2.15,0,4.42-0.15,6.81-0.44c6.9-0.85,8.03-1.21,7.76,8.4
		C157.6,312.08,157.57,312.78,157.57,313.32L157.57,313.32z M278.31,399.95c-15.15,16-52.92,17.91-52.92-9.28
		c0-7.25,3.54-12.74,10.64-16.4c8.88-4.64,24.52-7.03,39.35-9.2c0-8.3-1.03-14.04-3.08-17.16c-4.74-7.22-17.97-4.75-25.97-1.64
		c-5.2,2.03-9.35,4.83-12.45,8.45c-6.79-5.89-8.52-12.34-0.27-17.14c10.15-5.9,29.18-8.15,40.35-4.47
		c14.51,4.79,17.72,19.09,17.72,33.78v22.9c0,7.89,1.98,6.25,6.64,7.05c1.99,0.34,5.15,0.74,5.15,2.9c0,5.61-0.78,9.13-2.37,10.5
		c-2.27-0.37-5.25-0.56-8.93-0.56c-3.34,0-6.44,0.17-9.3,0.49c-0.32-0.22-0.76-0.56-1.25-1c-0.51-0.41-1.17-1.51-2.05-3.27
		C278.72,404.13,278.31,402.15,278.31,399.95L278.31,399.95z M252.19,398.88c4.34,0,9.06-1.2,14.11-3.56
		c5.05-2.37,8.1-4.52,9.15-6.44V376.4c-13.04,2.32-21.82,4.37-26.36,6.2c-4.56,1.83-6.84,4.42-6.84,7.76
		C242.25,396.05,245.57,398.88,252.19,398.88L252.19,398.88z M334.38,367.95v21.58c2.51,3.15,5.83,5.59,9.91,7.32
		c4.08,1.73,8.32,2.61,12.77,2.61c6.05,0,11.08-2.39,15.11-7.15c4.03-4.76,6.05-11.74,6.05-20.92c0-8.81-2.2-15.67-6.54-20.55
		c-8.53-9.55-21.79-9.8-30.78-0.83C336.55,354.33,334.38,360.31,334.38,367.95L334.38,367.95z M334.38,403.17l0.1,19.38
		c0.8,4.39,5.04,2.06,9.13,3.83c1.29,0.56,1.93,1.42,1.93,2.56c0,5.57-0.78,9.01-2.37,10.4c-7.06-1.56-26.96-1.35-33.74,0
		c-1.59-1.42-2.37-4.88-2.37-10.4c0-2.81,4.17-3.42,6.57-3.42c3.32,0,4.52-1.24,4.52-4.52v-67.67c0-2.54-0.73-4.34-2.17-5.39
		c-1.46-1.05-4.27-1.59-8.42-1.59c-1.53-0.15-1.42-2.18-1.42-4.03c0-2.47,0.24-4.64,0.78-6.52c0.51-1.88,1.05-2.95,1.56-3.25
		c3.69,0.51,7.23,0.78,10.67,0.78c2.15,0,4.42-0.12,6.79-0.39c8.34-0.94,7.81-0.73,7.81,11.79c7.53-13.12,24.52-16.26,38.15-10.81
		c15.71,6.28,23.12,20.41,23.12,37.47c0,17.1-7.53,31.39-23.39,37.62C359.18,413.92,344.08,412,334.38,403.17L334.38,403.17z
		 M426.21,367.95v21.58c2.51,3.15,5.83,5.59,9.91,7.32c4.08,1.73,8.32,2.61,12.77,2.61c6.05,0,11.08-2.39,15.11-7.15
		c4.03-4.76,6.05-11.74,6.05-20.92c0-8.81-2.2-15.67-6.54-20.55c-8.53-9.55-21.79-9.8-30.78-0.83
		C428.38,354.33,426.21,360.31,426.21,367.95L426.21,367.95z M426.21,403.17l0.1,19.38c0.8,4.39,5.04,2.06,9.13,3.83
		c1.29,0.56,1.93,1.42,1.93,2.56c0,5.57-0.78,9.01-2.37,10.4c-7.06-1.56-26.96-1.35-33.74,0c-1.59-1.42-2.37-4.88-2.37-10.4
		c0-2.81,4.16-3.42,6.57-3.42c3.32,0,4.52-1.24,4.52-4.52v-67.67c0-2.54-0.73-4.34-2.17-5.39c-1.46-1.05-4.27-1.59-8.42-1.59
		c-1.53-0.15-1.42-2.18-1.42-4.03c0-2.47,0.24-4.64,0.78-6.52c0.51-1.88,1.05-2.95,1.56-3.25c3.69,0.51,7.23,0.78,10.67,0.78
		c2.15,0,4.42-0.12,6.79-0.39c8.34-0.94,7.81-0.73,7.81,11.79c7.53-13.12,24.52-16.26,38.15-10.81
		c15.71,6.28,23.12,20.41,23.12,37.47c0,17.1-7.53,31.39-23.38,37.62C451.01,413.92,435.91,412,426.21,403.17L426.21,403.17z
		 M566.1,367.49c0,5.13-2.74,6.79-8.01,6.79h-49.36c0.67,14.81,8.59,23.73,23.38,23.73c8.86,0,18.44-3.24,25.61-8.59
		c2.71,3.17,4.08,6.32,4.08,9.4c0,5.51-9.6,9.37-15.09,10.89c-15.59,4.32-35.21,2.01-46.21-11.23c-9.12-10.98-11.2-31.66-5.15-44.94
		c4.4-9.66,12.07-16.04,21.7-19.6c14.56-5.39,31.96-2.54,41.96,10.13C563.96,350.3,566.1,359.09,566.1,367.49L566.1,367.49z
		 M551.65,363.14c-0.44-6.59-2.51-11.62-6.25-15.06c-8.05-7.39-20.05-6.52-28.46,0.37c-4.52,3.69-7.1,8.57-7.76,14.7H551.65
		L551.65,363.14z M661.28,410.74c-8.91-0.38-17.6-0.29-26.09-0.29c-1.64,0-2.44-1.83-2.44-5.47v-43.01
		c0-27.18-20.49-18.58-33.03-6.83l0.1,38.76c0.79,4.36,5.07,1.98,9.1,3.78c1.29,0.59,1.95,1.44,1.95,2.59
		c0,5.59-0.81,9.08-2.37,10.47c-6.31-0.42-27.38-0.35-33.76,0c-1.56-1.44-2.37-4.93-2.37-10.47c0-2.83,4.17-3.44,6.59-3.44
		c3.36,0,4.49-1.24,4.49-4.52v-38.47c0-2.54-0.71-4.32-2.17-5.37c-1.44-1.05-4.25-1.59-8.4-1.59c-1.53-0.18-1.44-2.23-1.44-4.1
		c0-2.49,0.27-4.71,0.78-6.62c0.54-1.9,1.05-3,1.59-3.3c3.15,0.66,6.22,0.98,9.23,0.98c12.19,0,14.91-4.95,14.55,7.59
		c-0.02,0.85-0.02,1.54-0.02,2.05c11.67-10.28,33.22-18.7,45.18-5c4.15,4.74,6.22,12.21,6.22,22.36v30.95
		c0,6.7,4.69,4.35,10.59,5.49c1.56,0.3,4.08,0.8,4.08,2.81C663.65,405.74,662.84,409.28,661.28,410.74L661.28,410.74z
		 M733.02,390.73c0,10-6.83,16.16-16.04,18.82c-11.7,3.38-30.84,2.78-40.79-2.29c-5.71-2.9-8.54-7.37-8.54-13.38
		c0-6.81,4.17-10.23,12.5-10.23c2.73,0,3.3,0.96,3.3,3.81v9.74c4.28,2.29,13.02,3,18.31,3c16.84,0,18.98-14.05,7.01-19.67
		c-5.03-2.36-10.91-4.46-16.48-6.15c-5.67-1.72-11.77-4.56-16.48-7.96c-8.01-5.79-10.7-18.44-2.81-26.24
		c6.71-6.63,16.68-8.81,26.19-8.81c21.36,0,32.03,6.2,32.03,18.58c0,1.9-0.7,3.63-1.88,5.44c-2.54,3.91-10.58,4.59-12.03,3.47
		c-0.67-0.52-0.84-2.52-0.88-3.32l-1-10.03c-0.56-1.17-18.27-6.64-25.92-0.73c-4.02,3.1-5.06,8.57-0.93,12.18
		c7.1,6.2,21.55,6.76,35.08,15.82C729.6,376.75,733.02,383.3,733.02,390.73L733.02,390.73z"/>
	<path d="M271.29,725.04v30.29c7-7.41,16.8-12.25,27.32-12.25c6.16,0,11.37,2.06,15.7,6.44c5.32,5.38,6.98,14.76,6.98,23.02v29.19
		c0,9.32,4.05,6.39,9.67,7.64c1.64,0.37,3.56,0.81,3.56,2.78c0,5.27-1.02,8.62-3.08,10.01c-4.05-0.39-8.01-0.59-11.86-0.59
		l-12.08,0.59c-1.3,0-1.67-0.32-2.07-1.66c-0.24-0.76-0.37-1.86-0.37-3.3v-43.4c0-26.53-20.63-19.04-33.76-7.2
		c0,4.73-0.17,36.79,0.12,38.69c0.65,4.3,5.08,2.05,9.1,3.83c1.29,0.56,1.93,1.42,1.93,2.56c0,5.59-0.78,9.08-2.37,10.47
		c-9.19-0.8-24.73-0.77-33.74,0c-1.59-1.44-2.37-4.93-2.37-10.47c0-2.8,4.15-3.44,6.59-3.44c3.32,0,4.49-1.22,4.49-4.52V734.9
		c0-6.76-4.75-6.63-10.57-6.96c-1.57-0.18-1.44-2.18-1.44-4.05c0-2.49,0.27-4.66,0.78-6.54c0.54-1.9,1.05-2.98,1.59-3.27
		c3.95,0.59,7.74,0.88,11.35,0.88c2.15,0,4.42-0.15,6.81-0.44C272.08,713.47,271.29,714.16,271.29,725.04L271.29,725.04z
		 M413.4,779.2c0,5.13-2.74,6.79-8.01,6.79h-49.36c1.38,30.54,33.09,27.01,48.99,15.13c2.71,3.17,4.08,6.32,4.08,9.4
		c0,10.88-42.28,22.55-61.29-0.34c-9.12-10.98-11.2-31.66-5.15-44.94C357.32,733.11,413.4,734.3,413.4,779.2L413.4,779.2z
		 M398.95,774.86c-0.44-6.59-2.51-11.62-6.25-15.06c-8.05-7.39-20.05-6.52-28.46,0.37c-4.52,3.69-7.1,8.57-7.76,14.7H398.95
		L398.95,774.86z M446.36,803.47c0,6.65,4.7,3.49,9.23,5.49c1.29,0.59,1.93,1.44,1.93,2.59c0,5.59-0.78,9.08-2.37,10.45
		c-8.65-0.78-25.34-0.73-33.73,0c-1.59-1.42-2.37-4.91-2.37-10.45c0-2.83,4.15-3.44,6.59-3.44c3.32,0,4.49-1.22,4.49-4.52v-68.76
		c0-6.76-4.74-6.63-10.57-6.96c-1.57-0.18-1.44-2.14-1.44-4.03c0-2.47,0.27-4.64,0.78-6.52c0.54-1.88,1.05-2.95,1.59-3.25
		c3.95,0.51,7.74,0.78,11.35,0.78c12.4,0,14.66-4.06,14.6,6.66C446.38,728.23,446.36,755.55,446.36,803.47L446.36,803.47z
		 M488.34,779.67v21.58c2.51,3.15,5.83,5.59,9.91,7.32c4.08,1.73,8.32,2.61,12.77,2.61c6.05,0,11.08-2.39,15.11-7.15
		c4.03-4.76,6.05-11.74,6.05-20.92c0-8.81-2.2-15.67-6.54-20.55c-8.53-9.55-21.79-9.8-30.78-0.83
		C490.52,766.05,488.34,772.03,488.34,779.67L488.34,779.67z M488.34,814.89l0.1,19.38c0.8,4.39,5.04,2.06,9.13,3.83
		c1.29,0.56,1.93,1.42,1.93,2.56c0,5.57-0.78,9.01-2.37,10.4c-7.06-1.56-26.96-1.35-33.74,0c-1.59-1.42-2.37-4.88-2.37-10.4
		c0-2.81,4.17-3.42,6.57-3.42c3.32,0,4.52-1.24,4.52-4.52v-67.67c0-6.7-4.61-6.69-10.59-6.98c-1.53-0.15-1.42-2.18-1.42-4.03
		c0-2.47,0.24-4.64,0.78-6.52c0.51-1.88,1.05-2.95,1.56-3.25c3.69,0.51,7.23,0.78,10.67,0.78c14.78,0,14.6-5.03,14.6,11.4
		c7.53-13.12,24.52-16.26,38.15-10.81c15.71,6.28,23.12,20.41,23.12,37.47C548.98,823.59,507.43,832.25,488.34,814.89L488.34,814.89
		z M619.3,802.44c0,10-6.83,16.16-16.04,18.82c-11.7,3.38-30.84,2.78-40.79-2.29c-5.71-2.9-8.54-7.37-8.54-13.38
		c0-6.81,4.17-10.23,12.5-10.23c2.73,0,3.3,0.96,3.3,3.81v9.74c4.28,2.29,13.02,3,18.31,3c16.84,0,18.98-14.05,7.01-19.67
		c-5.03-2.36-10.91-4.46-16.48-6.15c-5.67-1.72-11.77-4.56-16.48-7.96c-8.01-5.79-10.71-18.44-2.81-26.24
		c6.71-6.63,16.68-8.81,26.19-8.81c21.36,0,32.03,6.2,32.03,18.58c0,1.9-0.7,3.63-1.88,5.44c-2.54,3.91-10.58,4.59-12.03,3.47
		c-0.67-0.52-0.84-2.52-0.88-3.32l-1-10.03c-0.56-1.17-18.27-6.64-25.92-0.73c-4.02,3.1-5.06,8.57-0.93,12.18
		C585.16,777.66,619.3,777.43,619.3,802.44L619.3,802.44z"/>
</g>
</svg>
