<?xml version="1.0" encoding="utf-8"?>
<!-- Generator: Adobe Illustrator 25.0.0, SVG Export Plug-In . SVG Version: 6.00 Build 0)  -->
<svg version="1.1" id="Layer_1" xmlns="http://www.w3.org/2000/svg" xmlns:xlink="http://www.w3.org/1999/xlink" x="0px" y="0px"
	 viewBox="0 0 864 864" style="enable-background:new 0 0 864 864;" xml:space="preserve">
<g>
	<path d="M62.56,268.96c-0.61-8.87-0.61-17.59-0.76-26.92c-0.15-3.82-1.99-7.04-5.81-7.5c-5.51-0.61-11.32-0.61-16.98-0.15
		c-1.53,0.15-4.28,3.21-3.98,4.59c0.31,2.14-0.61,5.81,4.44,6.73c3.06,1.38,6.42,0.31,10.55,1.07c0.46,5.05,0.92,9.94,0.92,14.69
		c0.15,23.4,0,46.65,0.15,69.9c0.15,4.28-0.92,13.92,3.06,14.53c5.35,0.46,7.34-3.21,10.71-4.44c20.34,7.19,37.94,0.46,45.28-17.9
		c5.66-14.07,5.51-28.45-0.15-42.52c-5.97-14.99-20.04-21.11-35.49-16.06C70.97,266.05,67.45,267.27,62.56,268.96L62.56,268.96z
		 M62.1,316.07c-1.22-8.57-0.46-17.59,2.29-26.92c2.14-6.88,7.04-11.63,14.23-13.61c9.94-2.6,17.59,0.76,21.26,10.25
		c4.13,11.01,4.44,22.49-0.15,33.35c-1.84,4.28-5.51,8.41-9.33,11.01C78.16,338.25,63.63,330.91,62.1,316.07L62.1,316.07z
		 M206.8,304.6c8.26-7.04-0.92-39.31-25.09-42.52c-29.37-3.82-46.35,15.14-46.04,43.9c1.07,38.85,55.37,51.09,72.2,21.72
		c1.07-1.68,2.6-5.51,2.6-7.19c0-4.47-4.04-6.66-7.8-5.05c-0.92,0.31-2.6,3.98-3.21,4.89c-7.04,10.25-17.29,13-29.06,11.93
		c-12.39-1.38-24.47-16.37-21.42-26.46C149.75,303.68,201.6,309.03,206.8,304.6L206.8,304.6z M198.7,294.2
		c-17.44,0.92-33.5,0.92-50.02-0.15c-0.92-9.18,3.67-13.92,9.79-17.28c8.72-4.89,18.36-5.05,27.53-1.99
		C193.95,277.22,197.78,283.64,198.7,294.2L198.7,294.2z M285.12,274c2.29,3.21-1.68,5.97-1.68,8.57c-0.15,4.74,2.6,8.11,6.73,9.64
		c4.28,1.68,8.41,0.61,11.47-2.91c3.21-3.36,4.13-7.19,1.99-11.47c-3.52-7.19-8.72-12.54-16.21-15.45
		c-9.94-3.82-20.19-3.67-30.29-0.61c-12.85,3.98-20.5,12.7-24.02,25.39c-3.67,13.16,0,24.93,5.97,36.41
		c13.92,26.16,51.85,22.18,65.01,2.91c1.38-1.84,1.99-2.75,3.67-5.05c3.52-4.13-0.46-12.08-6.12-8.87
		c-12.54,15.6-27.53,27.23-47.72,11.47c-11.63-9.03-14.23-29.37-7.34-41C253.3,271.86,269.21,268.04,285.12,274L285.12,274z
		 M350.74,274.46c7.49-4.44,14.53-4.74,21.57-1.84c5.51,2.14,8.87,7.34,8.72,12.24c-0.31,4.74-3.37,8.11-9.79,9.64
		c-4.89,1.22-9.94,1.22-14.69,2.29c-5.51,1.22-11.32,2.29-16.21,4.89c-7.65,4.13-10.86,11.47-9.94,20.19
		c0.76,8.57,5.35,14.53,13.15,17.13c5.2,1.68,11.32,2.45,16.67,1.53c8.57-1.53,22.18-4.44,26-8.87c1.53,0.76,1.84,3.82,4.28,4.74
		c5.66,1.99,13.61,0,16.83-5.05c1.07-1.84,1.53-5.05,0.61-7.04c-0.31-1.22-3.52-2.6-5.81-1.84c-1.84,0.61-5.05,5.66-7.04,2.3
		c-0.61-3.67-1.38-6.58-1.68-9.48c-0.61-10.25-1.07-20.5-1.53-30.9c-0.15-6.73-2.3-12.69-7.34-17.29
		c-10.71-10.25-33.8-9.79-44.21,0.76c-3.83,3.98-6.27,8.57-5.35,14.38c0.76,4.28,3.52,6.58,7.95,6.58c3.82,0,6.58-1.84,7.34-5.81
		C350.59,280.43,348.14,277.67,350.74,274.46L350.74,274.46z M370.17,326.32c-5.97,2.14-12.7,2.75-18.97,2.91
		c-5.05,0.31-8.57-2.91-9.64-7.95c-1.07-4.44,1.38-8.72,6.42-11.01c2.6-1.22,5.66-2.14,8.72-2.6c7.5-0.92,14.99-1.38,23.25-2.14
		C381.35,315.16,380.35,322.81,370.17,326.32L370.17,326.32z M448.03,272.78c0.31,5.05,0.61,9.18,0.76,13.31
		c0.15,10.56,0,21.26,0.46,31.97c0.31,10.55,5.2,18.66,15.6,21.72c9.79,2.91,19.58,2.3,28.3-4.13c2.75-1.99,5.51-3.82,8.41-5.66
		c1.68,2.6,2.75,4.74,4.28,6.43c6.58,7.19,20.5,4.13,23.71-5.2c1.22-3.67-0.76-6.73-4.74-7.34c-4.59-1.07-7.19,8.41-10.25,4.44
		c-1.53-19.73,0.15-39.31-0.77-59.35c0-7.65-2.14-9.79-9.33-9.94c-5.66,0-11.47,0.61-17.13,1.22c-3.06,0.31-6.43,1.07-6.43,5.05
		c-0.15,4.59,3.06,5.81,6.88,5.81c4.44,0.15,9.02,0,14.07,0c2.14,11.47,2.6,21.72,0.46,31.66c-2.14,9.94-7.95,18.2-16.52,24.17
		c-5.66,3.98-12.08,4.13-18.51,1.68c-6.58-2.75-6.73-8.57-6.73-14.53c-0.31-13.31-0.46-26.77-1.07-40.08
		c-0.15-3.98,1.53-12.08-2.14-12.85c-3.37-1.53-15.45-1.07-22.49,0c-3.21,0.46-7.04,4.13-3.98,9.48
		C433.19,274.92,441.14,271.86,448.03,272.78L448.03,272.78z M561.68,329.68c8.87,10.1,26.77,13,38.09,7.95
		c9.64-4.13,14.23-11.01,13.92-21.42c-0.31-11.78-6.88-19.73-19.27-22.33c-7.8-1.53-15.75-1.99-23.71-3.06
		c-3.52-0.46-6.58-2.14-7.5-5.97c-1.07-4.59,0.15-8.41,3.82-11.17c1.53-1.22,3.37-1.84,5.2-2.45c11.17-3.67,20.19,0.15,27.38,11.78
		c1.68,2.91,3.52,5.81,6.88,4.28c1.99-0.92,3.67-3.98,3.82-6.27c0.61-6.43,0.31-12.85,0.15-19.43c-0.15-3.21-1.38-5.97-6.12-6.42
		c-4.13,0-5.2,7.04-3.82,11.17c-9.64-9.18-25.7-8.11-33.04-5.51c-11.47,3.98-17.28,13-15.75,24.78
		c1.38,10.55,6.73,14.84,19.88,16.37c7.19,0.92,14.38,1.53,21.41,3.21c7.04,1.68,9.64,5.97,9.18,12.54
		c-0.31,5.81-3.37,9.02-10.25,10.4c-10.1,2.29-18.66-0.61-25.7-8.41c-2.75-2.91-10.25-11.17-13.77-7.8
		c-2.14,2.75-1.53,16.98,1.07,25.7c0.31,1.38,1.84,4.13,4.44,3.37C562.45,339.63,561.38,334.12,561.68,329.68L561.68,329.68z
		 M706.23,304.6c8.26-7.04-0.92-39.31-25.09-42.52c-29.37-3.82-46.35,15.14-46.04,43.9c1.07,38.85,55.37,51.09,72.2,21.72
		c1.07-1.68,2.6-5.51,2.6-7.19c0-2.3-0.61-3.67-2.14-4.59c-1.53-0.77-3.52-1.38-5.66-0.46c-0.92,0.31-2.6,3.98-3.21,4.89
		c-7.04,10.25-17.28,13-29.06,11.93c-12.39-1.38-24.47-16.37-21.42-26.46C649.18,303.68,701.03,309.03,706.23,304.6L706.23,304.6z
		 M698.13,294.2c-17.44,0.92-33.5,0.92-50.02-0.15c-0.92-9.18,3.67-13.92,9.79-17.28c8.72-4.89,18.36-5.05,27.53-1.99
		C693.38,277.22,697.21,283.64,698.13,294.2L698.13,294.2z M77.63,485.11c-0.29-3.88-0.72-7.76-0.86-11.64
		c0-12.93-0.14-25.87,0-38.8c0-4.74-1.44-8.62-6.32-9.92c-9.92-2.73-19.98-2.44-29.6,1.29c-4.74,1.87-5.32,5.32-2.01,9.34
		c3.45,3.16,17.53-4.89,27.02,0.43c1.44,16.38,1.15,33.05,0.29,49.73c-8.48,1.72-15.81,3.45-23.43,1.29
		c-2.87-0.86-6.03-0.72-7.33,2.59c-1.44,4.02,1.44,6.32,4.6,7.19c4.17,1.01,8.48,1.72,12.65,1.58c15.09-0.43,30.04-4.45,45.13-1.58
		c1.29,0.29,2.73-0.29,4.17-0.57c2.73-4.89,1.29-8.05-3.45-9.05C91.86,485.39,85.11,486.4,77.63,485.11L77.63,485.11z M75.05,405.2
		c0-6.04-5.17-10.63-11.21-10.35c-5.75,0.29-10.06,4.6-10.2,10.2c-0.14,5.89,4.74,11.07,10.64,11.07
		C70.16,416.12,75.19,411.09,75.05,405.2L75.05,405.2z M144.89,432.08c0.43,5.6,0.86,9.77,0.86,14.08
		c0.29,10.06,0.14,20.12,0.43,30.18c0.29,8.77,5.03,14.95,13.08,17.97c13.65,5.17,34.35-7.9,36.22-22.42
		c0.29-3.16,0.72-6.9-3.59-7.76c-3.59-0.86-5.17,1.72-6.04,4.74c-1.72,6.32-5.75,10.64-11.35,13.65
		c-10.2,5.6-17.82,1.44-18.11-10.35c-0.29-11.07-0.14-22.13,0-33.34c0-2.01-1.29-7.47,1.44-6.75c8.48-2.16,16.67-0.14,25.01-0.43
		c3.16-0.14,5.61-2.59,5.46-6.18c-0.29-3.45-3.02-4.74-6.18-4.74c-4.74,0-9.34,0.14-14.08,0c-3.45-0.14-6.9-0.57-11.35-0.86
		c-0.14-7.19-0.29-13.65-0.43-19.98c-0.14-4.17-1.15-9.92-6.9-8.77c-7.47,1.87-0.43,20.12-5.75,29.32
		c-4.89,0.29-9.48,0.29-14.08,0.86c-3.45,0.43-7.04,1.87-6.04,5.89c0.43,2.01,3.74,4.31,6.04,4.6
		C134.11,432.51,138.71,432.08,144.89,432.08L144.89,432.08z M221.06,413.25c4.31-4.31,8.48-8.77,9.49-15.09c0-1.58,0-3.16-0.29-4.6
		c-0.72-2.59-2.3-4.17-4.6-5.46c-2.59-1.01-5.89-0.72-7.9,1.29c-1.87,1.87-2.59,4.6-1.58,7.19c0.58,2.59,2.87,4.17,5.89,4.6
		c1.01,0,1.87,0.29,3.59,0.29c-1.29,1.58-2.01,3.02-3.02,4.31c-0.86,1.29-2.3,2.59-3.16,4.17
		C218.47,411.24,218.76,412.53,221.06,413.25L221.06,413.25z M260.3,481.8c8.33,9.49,25.15,12.22,35.78,7.47
		c9.05-3.88,13.36-10.35,13.08-20.12c-0.29-11.07-6.47-18.54-18.11-20.98c-7.33-1.44-14.8-1.87-22.27-2.87
		c-3.31-0.43-6.18-2.01-7.04-5.61c-1.01-4.31,0.14-7.9,3.59-10.49c1.44-1.15,3.16-1.72,4.89-2.3c10.49-3.45,18.97,0.14,25.72,11.07
		c1.58,2.73,3.31,5.46,6.47,4.02c1.87-0.86,3.45-3.74,3.59-5.89c0.58-6.04,0.29-12.07,0.14-18.25c-0.14-3.02-1.29-5.6-5.75-6.04
		c-3.88,0-4.89,6.61-3.59,10.49c-9.05-8.62-24.14-7.62-31.04-5.17c-10.78,3.74-16.24,12.22-14.8,23.28
		c1.29,9.92,6.32,13.94,18.68,15.38c6.75,0.86,13.51,1.44,20.12,3.02c6.61,1.58,9.05,5.6,8.62,11.78c-0.29,5.46-3.16,8.48-9.63,9.77
		c-9.48,2.16-17.53-0.57-24.14-7.9c-2.59-2.73-9.63-10.49-12.93-7.33c-2.01,2.59-1.44,15.95,1.01,24.14
		c0.29,1.29,1.72,3.88,4.17,3.16C261.01,491.14,260.01,485.97,260.3,481.8L260.3,481.8z M413.64,432.08
		c0.43,5.6,0.78,9.77,0.86,14.08c0.2,10.06,0.13,20.12,0.43,30.18c0.27,8.77,5.04,14.93,13.08,17.97
		c13.66,5.16,34.45-7.89,36.22-22.42c0.38-3.15,0.7-6.82-3.59-7.76c-3.61-0.79-5.2,1.72-6.04,4.74
		c-1.75,6.32-5.76,10.61-11.35,13.65c-10.22,5.57-17.81,1.44-18.11-10.35c-0.28-11.07-0.12-22.13,0-33.34
		c0.02-2.01-1.29-7.47,1.44-6.75c8.48-2.16,16.67-0.12,25.01-0.43c3.16-0.12,5.68-2.59,5.46-6.18c-0.21-3.46-3.02-4.74-6.18-4.74
		c-4.74,0-9.34,0.17-14.08,0c-3.45-0.12-6.9-0.57-11.35-0.86c-0.14-7.19-0.26-13.65-0.43-19.98c-0.11-4.17-1.18-10.07-6.9-8.77
		c-7.51,1.71-0.43,20.12-5.75,29.32c-4.89,0.29-9.48,0.29-14.08,0.86c-3.45,0.43-7,1.86-6.04,5.89c0.48,2,3.74,4.27,6.04,4.6
		C402.87,432.46,407.46,432.08,413.64,432.08L413.64,432.08z M484.49,453.92c0.03,1.01,0.22,3.87,0.72,6.75
		c4.81,27.58,36.36,41.1,58.78,25.15c22.42-15.95,20.84-52.36-0.14-67.55c-5.04-3.64-11.79-5.71-17.82-6.47
		C502.45,408.84,483.66,429.35,484.49,453.92L484.49,453.92z M547.72,445.3c0.18,1.14-0.42,10.35-1.44,14.08
		c-3.3,12.11-10.78,22.32-22.71,22.99c-10.92,0.62-19.65-7.35-24.29-18.54c-2.69-6.48-3.66-13.24-2.01-19.98
		c3.38-13.81,14.66-23.42,27.45-22.13C539.1,423.17,545.6,431.64,547.72,445.3L547.72,445.3z M580.2,453.92
		c0.03,1.01,0.21,3.87,0.72,6.75c4.81,27.58,36.36,41.1,58.78,25.15c22.42-15.95,20.84-52.36-0.14-67.55
		c-5.04-3.64-11.79-5.71-17.82-6.47C598.16,408.84,579.38,429.35,580.2,453.92L580.2,453.92z M643.44,445.3
		c0.18,1.14-0.42,10.35-1.44,14.08c-3.3,12.11-10.78,22.32-22.71,22.99c-10.92,0.62-19.65-7.35-24.29-18.54
		c-2.69-6.48-3.66-13.24-2.01-19.98c3.38-13.81,14.66-23.42,27.45-22.13C634.81,423.17,641.32,431.64,643.44,445.3L643.44,445.3z
		 M101.83,595.8c7.76-6.61-0.86-36.94-23.57-39.95c-27.59-3.59-43.55,14.23-43.26,41.25c1.01,36.5,52.02,48,67.83,20.41
		c1.01-1.58,2.44-5.17,2.44-6.75c0-2.16-0.58-3.45-2.01-4.31c-1.44-0.72-3.31-1.29-5.32-0.43c-0.86,0.29-2.44,3.74-3.02,4.6
		c-6.61,9.63-16.24,12.22-27.31,11.21c-11.64-1.29-22.99-15.38-20.12-24.86C48.23,594.94,96.95,599.97,101.83,595.8L101.83,595.8z
		 M94.21,586.03c-16.38,0.86-31.47,0.86-46.99-0.14c-0.86-8.62,3.45-13.08,9.2-16.24c8.19-4.6,17.25-4.74,25.87-1.87
		C89.76,570.08,93.35,576.11,94.21,586.03L94.21,586.03z M144.37,567.49c7.04-4.17,13.65-4.46,20.26-1.72
		c5.17,2.01,8.33,6.9,8.19,11.5c-0.29,4.46-3.16,7.62-9.2,9.05c-4.6,1.15-9.34,1.15-13.8,2.16c-5.17,1.15-10.64,2.16-15.23,4.6
		c-7.19,3.88-10.2,10.78-9.34,18.97c0.72,8.05,5.03,13.65,12.36,16.1c4.89,1.58,10.63,2.3,15.67,1.44
		c8.05-1.44,20.84-4.17,24.43-8.34c1.44,0.72,1.72,3.59,4.02,4.45c5.32,1.87,12.79,0,15.81-4.74c1.01-1.72,1.44-4.74,0.58-6.61
		c-0.29-1.15-3.31-2.44-5.46-1.72c-1.72,0.57-4.74,5.32-6.61,2.16c-0.58-3.45-1.29-6.18-1.58-8.91c-0.57-9.63-1.01-19.26-1.44-29.03
		c-0.14-6.32-2.16-11.93-6.9-16.24c-10.06-9.63-31.76-9.2-41.53,0.72c-3.59,3.74-5.89,8.05-5.03,13.51c0.72,4.02,3.3,6.18,7.47,6.18
		c3.59,0,6.18-1.72,6.9-5.46C144.23,573.09,141.93,570.51,144.37,567.49L144.37,567.49z M162.62,616.21
		c-5.6,2.01-11.93,2.59-17.82,2.73c-4.74,0.29-8.05-2.73-9.05-7.47c-1.01-4.17,1.29-8.19,6.04-10.35c2.44-1.15,5.32-2.01,8.19-2.44
		c7.04-0.86,14.08-1.29,21.84-2.01C173.13,605.72,172.19,612.91,162.62,616.21L162.62,616.21z M237.79,620.38
		c-5.32,1.01-9.92,1.44-14.37,2.73c-1.58,0.43-4.17,3.16-3.88,4.17c-0.29,2.59,1.15,5.32,4.46,5.03c1,0.57,2.87,0.14,4.17,0.29
		c11.93,0,23.71,0.14,35.5,0.14c1.44,0.14,3.02,0.14,4.31-0.29c1.15-0.58,2.87-1.73,2.87-2.73c0.14-1.58-0.43-3.88-1.44-4.6
		c-2.01-1.44-4.6-2.01-6.9-2.59c-4.17-0.86-8.34-1.44-12.22-2.16c-2.01-8.33-1.58-24.29-0.14-31.62c2.44-9.48,5.46-16.96,11.5-19.98
		c7.76-3.02,17.1-1.73,16.53,1.58c-0.86,1.01-1.72,2.16-2.73,3.16c-2.3,2.59-4.02,5.89-1.44,8.62c1.87,2.16,5.32,3.74,8.05,4.02
		c7.33,0.43,11.93-6.18,10.64-13.94c-1.44-8.19-8.91-14.8-17.96-16.24c-8.77-1.44-16.24,1.44-23.57,7.04
		c-3.31-7.33-9.48-7.47-15.67-6.76c-5.89,0.43-18.4-1.72-16.67,5.75c2.16,8.05,13.36,2.3,18.97,6.9
		C239.51,579.85,237.79,602.7,237.79,620.38L237.79,620.38z M352.76,618.65c-0.14-4.74-0.43-9.92-0.43-15.23
		c0-20.12,0.29-40.24,0.29-60.22c0-7.47-1.44-10.06-6.76-10.35c-8.91-0.57-17.82-0.43-26.73,0.14c-1.87,0-4.6,2.44-5.17,4.31
		c-0.86,3.45,2.01,5.17,5.03,5.75c2.87,0.43,5.75,0.29,8.62,0.29c4.31,0,8.77-1.72,12.36,0c2.16,1.58,2.87,63.23-0.29,76.89
		c-0.86,3.02-22.13,1.01-25.44,2.87c-2.59,4.74-1.44,7.62,3.02,8.62c2.73,0.57,5.6,0.43,8.48,0.43c10.06-0.14,20.12-0.29,30.18-0.29
		c6.47-0.14,12.93,0.14,19.26,0.29c3.59,0,6.47-0.72,7.19-6.04C382.22,619.66,352.9,623.54,352.76,618.65L352.76,618.65z
		 M417.57,654.29c-2.16-2.44,1.87-4.17,2.44-6.04c1.15-3.88,0.43-7.19-3.45-9.05c-3.59-1.72-8.34-0.43-10.49,3.02
		c-1.15,1.72-1.87,3.88-2.16,6.04c-1.01,6.76,2.01,11.78,7.62,15.38c6.32,4.02,13.36,4.6,19.11-0.14
		c5.17-4.6,10.06-10.2,13.37-16.38c5.75-11.07,10.35-22.85,15.09-34.49c4.89-11.93,9.48-23.86,14.23-36.07
		c2.3-0.57,4.74-0.57,6.32-1.72c3.28-2.46,5.3-8.79-0.72-9.34c-8.48-0.29-17.1-0.43-25.73,0c-1.72,0.14-4.74,3.02-4.6,4.46
		c0,1.87,2.44,4.02,4.46,5.03c2.01,1.01,4.74,0.86,7.04,1.29c-1.15,11.21-12.79,41.82-15.95,38.23
		c-5.17-11.78-10.06-23.14-15.23-34.92c2.59-1.29,4.17-2.01,5.75-2.73c3.45-1.44,7.04-3.02,5.17-7.76
		c-1.44-3.74-4.74-3.02-8.19-2.59c-6.04,0.86-12.07,1.01-18.11,1.29c-2.44,0.14-5.03-0.29-7.47,0.14c-1.44,0.29-3.31,2.16-3.59,3.31
		c-1.15,3.88,2.87,6.04,6.47,6.47c6.04,0.57,9.48,3.88,11.78,9.34c5.32,12.93,11.35,25.58,16.67,38.52
		c1.15,2.44,2.16,6.04,1.15,8.05c-2.87,6.47-6.61,12.65-10.64,18.54C426.05,655.01,422.89,657.31,417.57,654.29L417.57,654.29z
		 M583.61,620.23c-3.59,0.29-6.76,0.52-9.92,0.72c-7.91,0.51-10.94,2.45-10.49,6.32c0.41,3.59,3.31,4.72,10.64,4.45
		c12.21-0.45,24.43-0.79,36.65-1.15c2.15-0.06,4.41,0.17,6.32-0.57c1.4-0.55,2.94-2.3,3.02-3.74c0.07-1.3-1-3.76-2.16-4.31
		c-2.15-1.03-4.89-1.14-7.33-1.29c-4.17-0.27-8.48-0.43-12.36-0.58c-3.45-9.05-4.17-35.21-1.58-45.85
		c5.46-5.75,18.79,4.29,19.55-5.46c0.68-8.81-14.37-4.02-19.83-8.91c-2.01-14.95,7.19-22.28,21.41-16.67c0,1.58-0.09,3.3,0.14,5.03
		c0.63,4.73,2.88,8.01,7.9,8.91c3.74,0.67,7.19-0.29,9.48-3.45c3.02-4.16,2.08-8.23-0.14-12.22c-0.5-0.9-1.22-1.79-2.01-2.59
		c-8.41-8.41-18.82-10.16-29.75-7.62c-10.05,2.34-15.76,9.5-17.96,19.4c-0.67,3.03-1.01,6.18-1.72,10.2
		c-4.89,0.57-9.35,1.22-13.94,1.72c-3.17,0.35-5.75,1.58-5.75,5.03c0,3.59,2.59,4.77,5.89,4.89c4.45,0.16,9.05,0.29,13.22,0.43
		C585.72,584.08,585.51,608.81,583.61,620.23L583.61,620.23z M657.05,591.49c0.03,1.01,0.22,3.87,0.72,6.76
		c4.81,27.58,36.36,41.1,58.78,25.15c22.42-15.95,20.84-52.36-0.14-67.55c-5.03-3.64-11.79-5.71-17.82-6.47
		C675.01,546.41,656.22,566.92,657.05,591.49L657.05,591.49z M720.28,582.87c0.18,1.14-0.42,10.35-1.44,14.08
		c-3.3,12.11-10.78,22.32-22.71,22.99c-10.92,0.62-19.65-7.35-24.29-18.54c-2.69-6.48-3.66-13.24-2.01-19.98
		c3.38-13.81,14.66-23.42,27.45-22.13C711.66,560.74,718.17,569.21,720.28,582.87L720.28,582.87z M771.88,620.38
		c-5.32,1.01-9.91,1.46-14.37,2.73c-1.57,0.45-4.17,3.16-3.88,4.17c-0.29,2.59,1.15,5.32,4.46,5.03c1,0.57,2.87,0.27,4.17,0.29
		c11.93,0.13,23.71,0.02,35.5,0.14c1.44,0.01,3.07,0.27,4.31-0.29c3.3-1.49,4.08-5.44,1.44-7.33c-2.01-1.44-4.59-2.07-6.9-2.59
		c-4.15-0.92-8.34-1.44-12.22-2.16c-2.01-8.33-1.82-24.34-0.14-31.62c2.2-9.54,5.32-17.27,11.5-19.98
		c7.63-3.34,17.1-1.73,16.53,1.58c-0.86,1.01-1.77,2.12-2.73,3.16c-2.34,2.55-3.97,5.84-1.44,8.62c1.92,2.1,5.31,3.83,8.05,4.02
		c7.32,0.52,11.96-6.19,10.63-13.94c-1.4-8.2-8.91-14.78-17.96-16.24c-8.77-1.41-16.24,1.44-23.57,7.04
		c-3.31-7.33-9.47-7.34-15.67-6.76c-5.88,0.56-18.53-1.69-16.67,5.75c2.02,8.08,13.37,2.3,18.97,6.9
		C773.6,579.85,771.88,602.7,771.88,620.38L771.88,620.38z M66.3,777.78c7.84,2,13.68-33.77,17.52-27.78
		c2.99,7.69,5.56,14.25,8.12,20.66c1.28,3.28,2.28,7.27,6.98,6.84c3.99-0.28,4.7-3.85,5.56-6.98c2.85-9.55,5.41-19.09,8.12-28.64
		c2.71-9.26,5.41-18.38,7.84-26.93c4.56-1.71,9.26,0.28,11.11-4.27c1.42-4.7,0-7.98-3.71-8.12c-9.26,0-18.38,0.85-27.64,1.57
		c-4,0.5-3.76,6.57-0.14,8.55c2.28,1.14,5.27,1.28,7.84,1.85c-0.43,11.54-6.13,30.35-11.26,36.62c-1.28-2.71-2.56-5.13-3.7-7.69
		c-1.57-3.99-2.85-7.98-4.42-11.97c-1.28-2.99-2.56-6.7-6.41-5.84c-2.28,0.57-4.27,3.42-5.41,5.7c-1.85,3.85-2.71,8.12-4.27,12.11
		c-0.85,2.42-2.28,4.56-3.85,7.41c-4.84-8.98-9.69-22.37-9.83-35.48c7.12-4.42,6.7-2.14,8.41-6.98c-0.57-2.99-1-4.7-4.42-4.56
		c-4.99,0.14-19.09,0-24.08,0.57c-4.19,0.84-5.25,6.36-0.71,8.83c2.42,1.42,5.27,1.71,8.41,2.71c2.99,10.69,5.84,21.37,8.98,31.91
		C58.47,758.26,59.04,777.21,66.3,777.78L66.3,777.78z M194.1,767.66c-0.28-3.85-0.71-7.69-0.85-11.54c0-12.82-0.14-25.65,0-38.47
		c0-4.7-1.42-8.55-6.27-9.83c-9.83-2.71-19.8-2.42-29.35,1.28c-4.7,1.85-5.27,5.27-2,9.26c3.42,3.13,17.38-4.84,26.79,0.43
		c1.42,16.24,1.14,32.77,0.29,49.3c-8.41,1.71-15.67,3.42-23.22,1.28c-2.85-0.85-5.98-0.71-7.27,2.57
		c-1.42,3.99,1.42,6.27,4.56,7.12c4.13,1,8.41,1.71,12.54,1.57c14.96-0.43,29.78-4.42,44.74-1.57c1.28,0.28,2.71-0.28,4.13-0.57
		c2.71-4.85,1.28-7.98-3.42-8.98C208.21,767.94,201.51,768.94,194.1,767.66L194.1,767.66z M191.54,688.44
		c0-5.98-5.13-10.54-11.11-10.26c-5.7,0.28-9.97,4.56-10.12,10.12c-0.14,5.84,4.7,10.97,10.54,10.97
		C186.7,699.27,191.68,694.28,191.54,688.44L191.54,688.44z M254.37,715.23c0,17.24,0.71,34.48-0.43,51.58
		c-4.56,0.85-8.12-1-10.83,1.99c-2.42,3.56-1.99,6.7,1,7.69c9.4,1.28,25.93,1.85,29.21,0.86c3.99-1.42,4.13-6.41,0.43-8.26
		c-2.42-1.28-5.27-1.71-8.55-2.57c0-8.12-0.57-15.96,0.14-23.65c1-10.97,7.12-19.24,15.81-25.5c5.56-4.27,11.97-4.42,18.09-1.14
		c5.56,2.99,5.84,8.55,5.7,13.96c-0.28,8.55-0.71,17.1-1.14,25.65c-0.14,3.42-0.71,6.84-1,10.26c-3.28,0.85-5.98,1-7.98,2.28
		c-1.85,1.14-3.99,3.71-3.7,5.27c0.14,1.57,3.28,3.85,5.13,3.85c3.85,1.14,23.65,1.71,26.22,0.14c5.7-9.83-4.84-9.26-7.41-13.39
		c0-12.97,0.28-25.79,0-38.61c-0.28-12.11-7.55-19.95-19.52-21.66c-7.27-1-14.1,0.28-20.37,4.56c-2.57,1.71-5.13,3.42-8.12,5.56
		c-1.71-4.56-1.42-12.25-4.7-12.68c-8.83,0.71-24.93,0.14-22.8,7.69C242.12,717.65,248.53,712.66,254.37,715.23L254.37,715.23z
		 M410.24,741.02c7.69-6.55-0.85-36.62-23.37-39.61c-27.36-3.56-43.17,14.11-42.89,40.89c1,36.19,51.58,47.59,67.25,20.23
		c1-1.57,2.42-5.13,2.42-6.7c0-2.14-0.57-3.42-2-4.27c-1.42-0.71-3.28-1.28-5.27-0.43c-0.85,0.28-2.42,3.7-2.99,4.56
		c-6.55,9.55-16.1,12.11-27.07,11.11c-11.54-1.28-22.8-15.25-19.95-24.65C357.1,740.16,405.4,745.15,410.24,741.02L410.24,741.02z
		 M402.69,731.33c-16.24,0.86-31.2,0.86-46.59-0.14c-0.86-8.55,3.42-12.97,9.12-16.1c8.12-4.56,17.1-4.7,25.65-1.85
		C398.27,715.51,401.84,721.5,402.69,731.33L402.69,731.33z M90.73,125.92c2.39,3.35-1.75,6.22-1.75,8.93
		c-0.16,4.94,2.71,8.45,7.01,10.04c4.46,1.75,8.77,0.64,11.95-3.03c3.35-3.51,4.3-7.49,2.07-11.95c-3.66-7.49-9.09-13.07-16.9-16.1
		c-10.36-3.99-21.04-3.83-31.56-0.64c-13.39,4.14-21.36,13.23-25.03,26.46c-3.83,13.71,0,25.98,6.22,37.94
		c14.5,27.26,54.04,23.11,67.74,3.03c1.44-1.91,2.07-2.87,3.83-5.26c3.66-4.3-0.48-12.59-6.38-9.25
		c-13.07,16.26-28.69,28.37-49.73,11.96c-12.11-9.41-14.82-30.61-7.65-42.72C57.57,123.69,74.15,119.7,90.73,125.92L90.73,125.92z
		 M137.91,153.01c0.16,1.12,0.16,4.3,0.8,7.49c5.26,30.61,40.33,45.59,65.2,27.89c24.87-17.69,22.95-57.86-0.16-74.92
		c-5.74-3.83-13.07-6.38-19.77-7.17C157.83,102.96,137.11,125.76,137.91,153.01L137.91,153.01z M208.05,143.45
		c0.16,1.28,0,11.64-1.59,15.62c-3.19,13.55-11.96,24.71-25.19,25.5c-12.11,0.64-21.84-8.13-26.94-20.56
		c-3.03-7.17-3.99-14.67-2.23-22.16c3.83-15.3,16.26-25.98,30.45-24.55C198.48,118.9,205.66,128.31,208.05,143.45L208.05,143.45z
		 M266.71,184.9c-3.98,0.32-7.49,0.64-11,0.8c-8.77,0.64-12.11,2.71-11.64,7.01c0.48,3.99,3.67,5.26,11.8,4.94
		c13.55-0.48,27.1-0.8,40.65-1.28c2.39,0,4.94,0.32,7.01-0.64c1.59-0.48,3.35-2.55,3.35-4.14c0.16-1.44-1.11-4.15-2.39-4.78
		c-2.39-1.12-5.42-1.28-8.13-1.43c-4.62-0.32-9.41-0.48-13.71-0.64c-3.83-10.04-4.62-39.05-1.75-50.85
		c6.06-6.38,21.36,4.78,21.68-6.06c1.28-9.72-15.94-4.46-22-9.88c-2.23-16.58,7.97-24.71,23.75-18.49c0,1.75-0.16,3.67,0.16,5.58
		c0.64,5.26,3.19,8.93,8.77,9.88c4.14,0.8,7.97-0.32,10.52-3.83c3.35-4.62,2.23-9.08-0.16-13.55c-0.64-0.96-1.28-2.07-2.23-2.87
		c-9.25-9.4-20.88-11.32-33-8.45c-11.16,2.55-17.53,10.52-19.93,21.52c-0.8,3.35-1.12,6.85-1.91,11.32
		c-5.42,0.64-10.36,1.44-15.46,1.91c-3.51,0.48-6.38,1.75-6.38,5.58c0,3.99,2.87,5.26,6.53,5.42c4.94,0.16,10.04,0.32,14.67,0.48
		C269.04,144.8,268.82,172.22,266.71,184.9L266.71,184.9z M370.8,184.9c-3.98,0.32-7.49,0.64-11,0.8
		c-8.77,0.64-12.11,2.71-11.64,7.01c0.48,3.99,3.67,5.26,11.8,4.94c13.55-0.48,27.1-0.8,40.65-1.28c2.39,0,4.94,0.32,7.01-0.64
		c1.59-0.48,3.35-2.55,3.35-4.14c0.16-1.44-1.12-4.15-2.39-4.78c-2.39-1.12-5.42-1.28-8.13-1.43c-4.62-0.32-9.4-0.48-13.71-0.64
		c-3.83-10.04-4.62-39.05-1.75-50.85c6.06-6.38,21.36,4.78,21.68-6.06c1.28-9.72-15.94-4.46-22-9.88
		c-2.23-16.58,7.97-24.71,23.75-18.49c0,1.75-0.16,3.67,0.16,5.58c0.64,5.26,3.19,8.93,8.77,9.88c4.14,0.8,7.97-0.32,10.52-3.83
		c3.35-4.62,2.23-9.08-0.16-13.55c-0.64-0.96-1.28-2.07-2.23-2.87c-9.24-9.4-20.88-11.32-33-8.45
		c-11.16,2.55-17.53,10.52-19.92,21.52c-0.8,3.35-1.12,6.85-1.91,11.32c-5.42,0.64-10.36,1.44-15.46,1.91
		c-3.51,0.48-6.38,1.75-6.38,5.58c0,3.99,2.87,5.26,6.54,5.42c4.94,0.16,10.04,0.32,14.67,0.48
		C373.13,144.8,372.91,172.22,370.8,184.9L370.8,184.9z M526.37,157.8c8.61-7.33-0.96-40.97-26.14-44.31
		c-30.6-3.98-48.3,15.78-47.98,45.75c1.12,40.49,57.7,53.24,75.24,22.64c1.11-1.75,2.71-5.74,2.71-7.49c0-4.66-4.21-6.94-8.13-5.26
		c-0.96,0.32-2.71,4.14-3.35,5.1c-7.33,10.68-18.01,13.55-30.29,12.43c-12.91-1.44-25.5-17.06-22.32-27.58
		C466.91,156.84,520.95,162.42,526.37,157.8L526.37,157.8z M517.92,146.96c-18.17,0.96-34.91,0.96-52.12-0.16
		c-0.96-9.56,3.83-14.5,10.2-18.01c9.09-5.1,19.13-5.26,28.69-2.07C512.98,129.26,516.97,135.96,517.92,146.96L517.92,146.96z
		 M626.48,157.8c8.61-7.33-0.96-40.97-26.14-44.31c-30.61-3.98-48.3,15.78-47.98,45.75c1.12,40.49,57.7,53.24,75.24,22.64
		c1.12-1.75,2.71-5.74,2.71-7.49c0-4.66-4.21-6.94-8.13-5.26c-0.96,0.32-2.71,4.14-3.35,5.1c-7.33,10.68-18.01,13.55-30.29,12.43
		c-12.91-1.44-25.51-17.06-22.32-27.58C567.02,156.84,621.05,162.42,626.48,157.8L626.48,157.8z M618.03,146.96
		c-18.17,0.96-34.91,0.96-52.12-0.16c-0.96-9.56,3.83-14.5,10.2-18.01c9.09-5.1,19.13-5.26,28.69-2.07
		C613.08,129.26,617.07,135.96,618.03,146.96L618.03,146.96z"/>
</g>
</svg>
