<?xml version="1.0" encoding="utf-8"?>
<!-- Generator: Adobe Illustrator 25.0.0, SVG Export Plug-In . SVG Version: 6.00 Build 0)  -->
<svg version="1.1" id="Layer_1" xmlns="http://www.w3.org/2000/svg" xmlns:xlink="http://www.w3.org/1999/xlink" x="0px" y="0px"
	 viewBox="0 0 864 864" style="enable-background:new 0 0 864 864;" xml:space="preserve">
<style type="text/css">
	.st0{fill-rule:evenodd;clip-rule:evenodd;}
</style>
<g>
	<path class="st0" d="M269.13,490.49c0-9.37-9.9-2.89-17.95,8.56C259.18,502.28,267.02,499.22,269.13,490.49L269.13,490.49z
		 M690.13,471.72c-4.76,25.73-15.16,67.84-45.47,72.24c-16.82,2.44-22.11-7.54-22.23-23.52c-0.07-8.48,0.94-18.69,3.04-30.6
		c3.01-17.02-4.81-20.43-13.88,11.81c-4.16,14.79-8.02,33.06-10.9,48.69l-35.37,5.14l4.9-25.89c-9.85,17.07-23.79,28.63-44.09,31.58
		c-17.4,2.53-28.75-7.83-32.05-23.94c-9.76,18.82-24.18,32.11-46.12,35.29c-16.58,2.41-27.81-6.87-31.64-22.12
		c-6.67,15.22-16.67,29.14-33.79,31.63c-9.81,1.43-15.89-3.06-19.02-12.21c-5.95,10.03-14.16,17.04-25.84,18.73
		c-31.22,4.53-27.59-41.01-23.6-62.2l4.98-26.3l35.37-5.14c-2.68,14.16-8.36,40.67-8.22,52.28c0.14,12.65,9.38,11.43,14.11-7.47
		l9.59-47.06l35.37-5.14c-2.33,12.2-10.15,48.68-9.16,58.74c0.74,7.57,7.34,3.13,11.3-2.68c13.29-19.51,6.3-28.17,22.73-50.45
		c8.02-10.88,19.28-19.08,32.9-21.06c26.49-3.85,29.53,26.7,21.06,38.3c-8.01,10.98-19.28,16.8-32.6,19.71
		c3.45,27.36,30.88,13.73,45.77-27.41c14.88-41.13,52.8-51.83,64.7-34.34c5.59,8.22,6.24,22.55,0.3,30.68
		c-8.01,10.98-19.28,16.8-32.6,19.71c3.02,23.96,23.49,15.27,36.98-8.42c3.68-6.49,6.99-13.85,9.93-22.1
		c1.01-4.76,0.5-19.87-2.94-25.15c13.73-16.03,34.38-14.91,39.39,1.33c5.7-8.53,13.25-15.73,23.3-17.19
		c15.92-2.31,29.27,8.91,26.05,28.55c-1.08,6.55-8.45,37.57-0.87,36.47c10.24-1.49,18.92-30.23,20.96-39.39L690.13,471.72
		L690.13,471.72z M543.19,479.16c-7.09,1.03-11.59,19.13-12.94,26.55c11.63-2.91,17.62-8.75,17.62-19.78
		C547.87,482.66,547.07,478.6,543.19,479.16L543.19,479.16z M465.02,490.52c-7.09,1.03-11.59,19.14-12.94,26.56
		c11.63-2.92,17.62-8.74,17.62-19.78C469.7,494.01,468.9,489.95,465.02,490.52L465.02,490.52z M260.5,602.81
		c-3.32-5-5.09-11.65-7.46-17.44c-0.07,5.02,0.4,9.94,1.37,14.68c-48.29,15.06-70.53-40.64-42.9-96.41
		c-22.63-0.08-29.88,14.57-21.16,27.48l-1.77,5.74c-50.2,12.33-48.3-53.03-2.84-59.64c14.14-2.05,26.34,1.1,38.22,7.19
		c11.36-14.08,26.4-24.23,44.57-26.87c12.61-1.83,23.32,3.88,27.92,15.07c2.14,5.24,2.54,11.07,1.17,17.55
		c3.98,13.9,4.98,28.56,2.94,43.97c-2.04,15.44-6.95,29.23-14.78,41.4c5.08,4.14,10.26,4.69,15.55,1.65l4.01-0.58
		C304.38,615.01,272.07,619.27,260.5,602.81L260.5,602.81z M266.85,559.36c8.92-13.97,12.92-34.85,11.77-50.96
		c-10.4,6.21-23.07,8.3-34.57,3.45c-7.46,15.46-10.84,36.87-5.62,50.16C246.43,555.77,258.71,553.91,266.85,559.36L266.85,559.36z
		 M157.39,411.22c20.54-2.98,36.99-25.56,43.91-44.26c7.76-20.97,22.31-40.65,45.83-44.07c8.71-1.27,16.63,0.54,22.73,6.24
		c11.63-19.5,34.37-22.53,43.85-8.69c-10.82,9.94-21.08,49.66-20.05,63.88c0.65,8.9,7.94,3.75,12.11-2.4
		c21.98-32.42,12.46-85.7,43.74-101.74c10.33-5.29,23.38-2.33,29.3,8.5c-9.86,9.04-17.42,39.37-19.58,52.48
		c-3.38,20.51,21.56,8.81,24.41-3.55c5.3-22.99,7.54-55.27,29.95-66.75c10.33-5.29,23.38-2.33,29.3,8.5
		c-9.86,9.04-17.42,39.37-19.58,52.48c-3.25,19.7,19.27,9.28,23.34-0.65c6.23-15.22,12.89-27.11,27.05-36.76
		c16.56-11.29,42.05-13.29,46.1,11.1c4.23,25.42-17.62,38.65-38.67,43.25c3.23,25.61,25.11,16.32,39.52-8.99
		c3.93-6.93,7.47-14.81,10.61-23.63l5.32-28l37.81-5.49c-2.43,12.8-10.86,52.33-9.79,62.75c0.86,8.39,8.07,3.01,12.08-2.86
		c5.56-8.15,12.32-25.21,13.72-34.98c0.96-6.71,0.55-21.21-3.14-26.88c14.67-17.12,36.73-15.95,42.1,1.43
		c6.09-9.12,14.17-16.82,24.91-18.38c17.02-2.47,31.28,9.52,27.84,30.51c-1.15,7-9.03,40.16-0.93,38.98
		c7.61-1.11,16.14-19.89,17.94-26.57c0.97-5.2,2.46-10.38,4.46-15.53c17.54-44.57,66.53-56.17,72.08-22.76
		c4.23,25.42-17.62,38.65-38.67,43.25c3.23,25.61,25.11,16.32,39.52-8.99c3.93-6.93,7.47-14.81,10.61-23.63l8.15-1.18
		c-5.41,35.46-22.47,73.42-62.08,79.17c-17.77,2.58-29.79-7.4-33.85-23.76c-7.19,16.37-17.75,31.25-36.2,33.93
		c-17.98,2.61-23.63-8.06-23.77-25.14c-0.07-9.07,1-19.98,3.25-32.71c3.22-18.18-5.14-21.85-14.83,12.63
		c-4.45,15.81-8.57,35.34-11.65,52.05l-37.81,5.49l4.17-22.04c-7.25,13.52-17.18,23.93-32.55,26.16
		c-17.41,2.53-22.13-12.56-22.63-28.61c-10.37,20.78-25.97,35.67-50.03,39.17c-24.99,3.63-36.16-17.01-35.32-39.48
		c-6.6,6-13.26,7.88-22.47,8.31c13.2,27.29,17.63,84.37-13.4,103.44c-8.56,5.26-21.36,8.95-28.37,0.87
		c-16.29-18.78-3.91-80.21,0.64-103.75c-6.71,6.3-13.43,8.3-22.94,8.75c13.2,27.3,17.63,84.37-13.4,103.44
		c-8.56,5.26-21.36,8.95-28.38,0.87c-12.97-14.95-7.34-56.46-4.32-75.9c-7.19,11.62-16.47,20.24-30.23,22.24
		c-9.36,1.36-16.54-1.25-20.41-9.4c-18.26,22.17-54.96,26.68-61.33-8.66c-10.47,20.03-25.67,33.66-49.02,37.05
		c-41.04,5.96-54.92-32.51-49.6-68.16c1.86-12.5,5.88-25.15,11.83-36.7c-23.77-0.37-32.05,15.4-22.62,29.37l-1.89,6.14
		c-53.93,13.21-51.63-56.68-3.04-63.74c15.11-2.2,28.19,1.03,40.85,7.68c12.15-15.05,28.22-25.9,47.64-28.72
		c23.48-3.41,33.33,16.32,28.38,34.12c-4.79,17.22-32.02,33.29-54.57,23.94c-8.17,17.65-13.27,44.96-1.18,59.96
		C147.67,410.16,152.1,411.98,157.39,411.22L157.39,411.22z M751.45,269.31c-7.58,1.1-12.39,20.45-13.83,28.38
		c12.43-3.11,18.83-9.35,18.83-21.14C756.45,273.05,755.59,268.71,751.45,269.31L751.45,269.31z M543.85,241.58
		c8.6-22.44,35.29-29.59,38.2-5.55c1.75,14.45-7,35.25-23.87,37.7C541.4,276.17,537.71,256.92,543.85,241.58L543.85,241.58z
		 M495.57,306.48c-7.58,1.1-12.39,20.45-13.83,28.38c12.43-3.12,18.83-9.35,18.83-21.14C500.57,310.22,499.72,305.88,495.57,306.48
		L495.57,306.48z M410.76,436.48c3-12.18,3.79-31.99-1.79-43.2c-1.03,8.39-7.02,48.04-5.18,52.75
		C405.92,451.47,409.81,440.08,410.76,436.48L410.76,436.48z M346.69,445.79c3-12.18,3.8-31.99-1.79-43.2
		c-1.03,8.39-7.02,48.04-5.18,52.75C341.84,460.78,345.73,449.39,346.69,445.79L346.69,445.79z M256.13,380.43
		c1.04-8.62,2.43-16.9,4.18-24.91c0.88-8.1-3.63-19.97-12.94-2.95C231.13,382.31,242.51,420.27,256.13,380.43L256.13,380.43z
		 M168.4,318.42c-4.18,0.61-9.36,5.18-15.51,13.76C171.02,339.03,176.55,317.23,168.4,318.42L168.4,318.42z M386.04,281.1l1.89,2.84
		c1.31-2.6,2.74-5.02,4.42-7.4c16.03-22.79,44.71-24.39,57.87-4.58l12.19,18.3c15.04-12.48,40.75-20.56,56.42-6.91
		c2.91,2.53,4.68,5.15,6.79,8.26l2.37-12.45l10.52-1.53c-6.43-9.65-8.95-15.91-7.2-28.82c1.79-8.93,2.97-12.88,8.03-20.41
		c7.29-10.85,19.13-18.96,32.67-17.16c6.53,0.87,11.81,4.48,15.4,9.83l21.89,33.15c0.65,1.27,1.22,2.61,1.71,4.04
		c7.39-0.05,13.69,2.37,19.12,7.15c13.67-13.15,32.84-16.39,47.87-6.36c3.92,2.61,6.19,4.93,9.05,8.76
		c3.44,4.6,6.96,10.37,9.49,14.16c9.91-21.08,27.48-38.95,51.37-42.42c15.86-2.3,25.59,2.85,34.04,15.54l8.74,13.12l16.7-2.43
		l20.6,30.94l-4.96,28.01c-9.05,37.01-36.61,78.35-79.66,73.47c-9.32-1.06-17.63-5.64-23.71-12.6
		c-8.62,12.08-19.51,20.33-34.46,22.5c-21.27,3.09-26.45-6.58-34.95-19.35l-4.84,25.13l-59.04,8.58l-1.18-1.78
		c-8.49,3.89-19.28,5.83-28,2.62c-7.07-2.6-10.07-6.61-13.78-12.18c-6.48,5.76-12.43,12.04-20.05,16.26
		c-19.92,11.04-47.97,13.54-62.72-8.72l-3.36-5.05c3.39,16.1,4.04,32.67,1.3,48.95c11.94-2.42,23.54-0.43,31.38,8.57
		c2.48,2.85,4.68,6.54,6.75,9.66c11.3-17.69,30.89-32.3,52.32-30.46c6.27,0.54,11.67,2.88,16.36,6.79
		c4.44-5.18,9.23-9.27,14.98-12.01c10.81-5.15,23.69-5.4,33.34,2.8c13.25-12.47,31.86-15.16,46.12-4.94
		c7.32,5.23,11.35,13.12,16.29,20.55l26.52-3.85l20.6,30.94l-5.55,27.88c-6.52,26.99-19.15,61.83-51.02,66.45
		c-11.33,1.64-21.57-0.73-27.88-10.2l-4.58-6.88l-4.29,22.43l-56.61,8.22l-2.45-3.69c-18.71,10.25-43.37,12.4-57.72-5.78
		c-6.33,7.67-14.47,14.32-23.45,18.71c-16.82,8.22-38.89,10.11-53.02-5.35c-8.8,12-22.65,21.49-37.33,21.03
		c-5.91-0.19-11.08-1.7-15.82-5.63c-13.11,12.65-35.5,17.54-49.2,4.46c-7.54,31.93-43.05,40.01-59.94,19.41
		c-21.78,5.07-41.43-0.59-54.21-19.78l-20.61-30.94c-2.25-3.55-4.14-7.38-5.67-11.48c-10.81-0.73-20.37-5.76-26.24-14.57
		l-23.04-35.3c-7.22-15.62-2.64-33.89,8.75-46.39c-14.07-1.84-26.13-9.75-33.91-21.44L98.4,430.06l-6.94-14.71
		c-11.81-0.52-22.26-5.69-28.67-15.32l-23.16-35.51c-7.51-16.26-2.84-35.72,9.15-48.73c18.88-20.48,48.01-21.69,72.49-11.66
		c6.92-7.32,15.52-14.05,24.56-18.71c19.03-9.82,45.72-14.04,59.32,6.39l19.12,28.71c8.68-5.35,20.07-8.66,30.28-8.12
		c4.55,0.32,8.9,1.44,12.78,3.08c7.46-8.26,18.02-13.62,29.27-13.64c7.65-0.01,15.13,2.36,20.89,7.59
		c2.44-8.11,5.78-16.42,10.66-23.42C344.14,263.1,372.84,261.44,386.04,281.1L386.04,281.1z M205.89,467.44
		c0.75,0.14,1.5,0.31,2.24,0.48c4.29,1.02,8.92,2.79,13.18,4.17l5.32-5.14c-4.14-2.48-7.73-5.81-10.57-9.69L205.89,467.44
		L205.89,467.44z"/>
</g>
</svg>
