<?xml version="1.0" encoding="utf-8"?>
<!-- Generator: Adobe Illustrator 25.0.0, SVG Export Plug-In . SVG Version: 6.00 Build 0)  -->
<svg version="1.1" id="Layer_1" xmlns="http://www.w3.org/2000/svg" xmlns:xlink="http://www.w3.org/1999/xlink" x="0px" y="0px"
	 viewBox="0 0 864 864" style="enable-background:new 0 0 864 864;" xml:space="preserve">
<style type="text/css">
	.st0{fill-rule:evenodd;clip-rule:evenodd;}
</style>
<g>
	<path class="st0" d="M91.94,203.32c-36.04,0-56.94,21.33-56.94,57.77c0,22,0,44.03,0,66.01c0,21.98,0,44.01,0,65.98
		c0,36.43,20.91,57.74,56.94,57.74c36.35,0,57.66-21.31,57.66-57.74c0-9.6,0-19.23,0-28.86c-11.88-0.57-23.76-1.14-35.64-1.73
		c0,8.93,0,17.87,0,26.8c0,19.26-7.37,27.85-20.99,27.85s-20.99-8.59-20.99-24.4c0-21.88,0-43.76,0-65.64c0-21.88,0-43.76,0-65.66
		c0-15.82,7.37-24.4,20.99-24.4s20.99,8.59,20.99,27.85c0,6.53,0,13.07,0,19.58c11.88-0.57,23.76-1.14,35.64-1.71
		c0-7.2,0-14.43,0-21.66C149.6,224.66,128.3,203.32,91.94,203.32L91.94,203.32z M237.67,203.32c-37.06,0-59.8,23.04-59.8,60.86
		c0,20.99,0,41.95,0,62.92c0,20.96,0,41.93,0,62.89c0,37.82,22.73,60.84,59.8,60.84c37.06,0,59.8-23.02,59.8-60.84
		c0-20.96,0-41.93,0-62.89c0-20.96,0-41.93,0-62.92C297.47,226.37,274.74,203.32,237.67,203.32L237.67,203.32z M237.67,237.03
		c14.65,0,22.73,9.6,22.73,27.5c0,20.86,0,41.73,0,62.57c0,20.84,0,41.7,0,62.54c0,17.89-8.08,27.5-22.73,27.5
		s-22.73-9.6-22.73-27.5c0-20.84,0-41.7,0-62.54c0-20.84,0-41.71,0-62.57C214.94,246.64,223.02,237.03,237.67,237.03L237.67,237.03z
		 M435.83,240.45c0-11.21,0-22.45,0-33.69c-34.14,0-68.27,0-102.4,0c0,40.12,0,80.24,0,120.34c0,40.09,0,80.22,0,120.31
		c12.35,0,24.71,0,37.06,0c0-17.52,0-35.05,0-52.57c0-17.52,0-35.07,0-52.62c17.42,0,34.93,0,52.43,0c0-11.21,0-22.45,0-33.68
		c-17.5,0-35.01,0-52.43,0c0-11.34,0-22.7,0-34.03s0-22.7,0-34.06C392.27,240.45,414.05,240.45,435.83,240.45L435.83,240.45z
		 M562.71,240.45c0-11.21,0-22.45,0-33.69c-34.14,0-68.27,0-102.41,0c0,40.12,0,80.24,0,120.34v49.46
		c18.14,6.38,29.63,25.52,26.56,45.67c-1.02,6.7-3.94,13.16-9.48,17.31c-4.89,3.66-11.26,4.89-17.08,2.97v4.91h35.47
		c0.52-0.25,1.05-0.46,1.6-0.66v-51.91c0-17.52,0-35.07,0-52.62c17.42,0,34.93,0,52.43,0c0-11.21,0-22.45,0-33.68
		c-17.5,0-35.01,0-52.43,0c0-11.34,0-22.7,0-34.03s0-22.7,0-34.06C519.15,240.45,540.93,240.45,562.71,240.45L562.71,240.45z
		 M691.33,240.45c0-11.21,0-22.45,0-33.69c-34.77,0-69.46,0-104.15,0c0,40.12,0,80.24,0,120.34c0,40.09,0,80.22,0,120.31
		c34.69,0,69.38,0,104.15,0c0-11.21,0-22.45,0-33.68c-22.41,0-44.75,0-67.08,0c0-11.91,0-23.84,0-35.74c0-11.91,0-23.84,0-35.77
		c18.06,0,36.11,0,54.17,0c0-11.21,0-22.45,0-33.68c-18.06,0-36.12,0-54.17,0c0-11.34,0-22.7,0-34.03s0-22.7,0-34.06
		C646.58,240.45,668.92,240.45,691.33,240.45L691.33,240.45z M827,240.45c0-11.21,0-22.45,0-33.69c-34.77,0-69.54,0-104.23,0
		c0,40.12,0,80.24,0,120.34c0,40.09,0,80.22,0,120.31c34.69,0,69.46,0,104.23,0c0-11.21,0-22.45,0-33.68c-22.41,0-44.83,0-67.16,0
		c0-11.91,0-23.84,0-35.74c0-11.91,0-23.84,0-35.77c18.06,0,36.11,0,54.17,0c0-11.21,0-22.45,0-33.68c-18.06,0-36.12,0-54.17,0
		c0-11.34,0-22.7,0-34.03s0-22.7,0-34.06C782.17,240.45,804.59,240.45,827,240.45L827,240.45z"/>
	<path d="M172.77,184.09c9.64,0,7.54,2.88,7.54-19.38l0.05-52.74c0-22.59,1.68-19.32-7.59-19.32c-15.68,0-13.16-1.7-13.16,7.59
		l-0.05,23.45l-0.11,52.74c0,8.52-0.57,7.51,7.65,7.51C169.93,183.93,169.93,184.09,172.77,184.09L172.77,184.09z M238.36,184.1
		l11.36-0.09c2.69,0,1.8-3.64,1.8-7.78l0.05-24.25c0-1.61,5.8-0.87,9.56-0.87c1.46,0,3.04,3.43,4.53,5.89l15.51,25.55
		c1.45,2.35,5.44,1.49,9.56,1.49l13.38,0.04c2.71,0-0.62-4.19-2.02-6.49l-18.19-29.62c-1.21-1.99,8.05-2.33,14.04-14.66
		c6.14-12.63,2.42-28.18-10.98-35.52c-11.96-6.55-28.35-5.07-41.94-5.07c-15.74,0-14.31-2.23-14.31,7.55l0.05,82.02
		C230.77,184.75,234.97,184.1,238.36,184.1L238.36,184.1z M258.07,133.69c-8.47,0-6.39,2.02-6.39-11.79l-0.11-10.93
		c0-1.23,4.21-0.89,6.5-0.89c8.92,0,22.5-0.9,22.5,10.47C280.57,133.91,267.77,133.69,258.07,133.69L258.07,133.69z M352.11,185.69
		c26.75,0,37.41-17.24,37.41-42.01l-0.05-49.28c0-2.51-4.2-1.75-7.59-1.75c-15.82,0-13.27-1.09-13.27,7.23l0.11,43.8
		c0,6.17-0.86,16.18-5.68,20.11c-4.39,3.59-17.08,3.87-21.85-0.02c-7.15-5.84-5.79-21.99-5.79-31.05l-0.06-32.84
		c0-8.83,3.83-7.2-18.89-7.2c-2.95,0-1.75,3.61-1.75,7.2c0,11.42-0.74,46,0.71,55.02C318.72,175.47,331.47,185.69,352.11,185.69
		L352.11,185.69z M421.57,184.09c8.73,0.07,6.72,1.07,6.72-13.25v-40.09c0-1.6,5.93,8.82,6.77,10.22l24.85,41.53
		c1.18,2.01,5.25,1.56,8.46,1.56l11.31-0.06c2.56,0,1.91-3.57,1.91-7.59l0.06-82.04c0-2.37-4.4-1.75-7.59-1.75
		c-16.14,0-13.16-2.67-13.16,13.19l-0.06,22.92l-0.16,10.9c0,8.37,2.05,10.37-6.55-3.98l-24.85-41.51
		c-1.33-2.27-5.02-1.42-8.52-1.42c-15.13,0-13.16-1.64-13.16,7.51l-0.05,46.87l0.11,11.73c0,2.92-0.22,2.92-0.22,5.85
		c0,2.94,0.22,2.94,0.22,5.87c0,15.72-1.86,13.46,7.48,13.46C417.33,184.01,419.47,184.07,421.57,184.09L421.57,184.09z
		 M569.85,185.71c49.84,0,55.47-68.47,23.76-88.3c-13.53-8.46-34-8.59-47.51-0.07C514.61,117.19,520.07,185.71,569.85,185.71
		L569.85,185.71z M569.85,166.45c-21.16,0-25.02-23.72-21.02-39.56c2.67-10.57,9.85-16.69,21.02-16.69
		c27.65,0,25.69,37.85,16.11,49.31C581.62,164.7,576.56,166.45,569.85,166.45L569.85,166.45z M641.66,184.09
		c9.6,0,7.48,1.48,7.48-13.25v-40.09c0-1.6,5.93,8.82,6.77,10.22l24.85,41.53c1.18,2.01,5.25,1.56,8.46,1.56l11.36-0.06
		c2.5,0,1.86-3.62,1.86-7.59l0.05-76.18c0-9.21,3.39-7.63-18.95-7.63c-2.51,0-1.97,3.74-1.97,7.49l0.16,34.37
		c0,2.65-0.22,2.83-0.22,5.17c0,7.92,2.16,10.81-6.55-3.98l-24.85-41.51c-1.33-2.27-5.01-1.42-8.47-1.42
		c-15.18,0-13.21-1.64-13.21,7.51l0.05,58.6l-0.05,23.45c0,2.56,4.06,1.72,7.54,1.72C638.82,184.01,638.82,184.09,641.66,184.09
		L641.66,184.09z"/>
	<path d="M510.06,465.47c1.63-10.16-11.79-14.63-15.45-2.03c-1.22,4.47-4.88,18.29-22.36,14.63c-13.41-3.25-31.71-29.27-61.38-2.03
		c-8.94,8.13-2.03,19.51,8.54,10.98c12.19-9.76,28.86-1.63,26.02,14.63c-3.66,21.14-17.48,34.15-44.71,31.3
		c-16.26-2.03-27.23-15.04-23.98-33.33c4.47-21.14,24.8-43.49,50.4-45.12c13.01,0,17.89-17.07,5.69-19.92
		c-7.72-1.63-12.19-9.35-10.57-16.26c1.63-8.94,10.97-14.23,20.32-14.23c10.16,0,16.26,8.13,15.04,17.89
		c-2.03,14.23,16.67,17.07,19.51-1.22c2.84-19.1-10.98-36.58-30.08-36.58c-35.77,0-57.32,34.55-41.06,56.1
		c-26.42,8.13-46.34,32.93-51.22,58.94c-4.47,26.42,8.54,52.03,45.12,54.06c39.02,2.03,67.07-21.54,65.85-62.19
		C481.2,498.8,506.81,491.89,510.06,465.47L510.06,465.47z"/>
	<path class="st0" d="M150.5,615.38c23.26-20.61,43.55-54.81,43.55-86.42c0-28.91-17.33-49.08-47.37-44.91
		c-46.23,6.42-76.36,41.69-76.36,88.22c0,52.88,76.75,47.91,76.75,113.54c0,33.37-32.61,82-67.27,86.81
		c-31.78,4.41-45.39-14.95-42.75-45.54c1.13-13.18,4.83-25.57,10.96-37.3c2.23-4.26,6.35-9.03,11.4-9.73
		c4.17-0.58,8.24,1.62,8.99,6.02c0.48,3.81-2.28,11.37-3.92,14.88c-3.78,8.08-5.24,15.03-6.27,23.76
		c-2.25,19.27,3.92,29.79,23.81,27.03c23.18-3.22,45.78-41.56,45.78-63.28c0-47.68-78.34-43.97-78.34-111.73
		c0-58.11,42.03-107.19,99.75-115.21c41.05-5.7,66.01,22.31,66.01,61.95c0,38.62-21.44,85.36-52.71,108.53
		c-1.61,1.19-3.53,2.13-5.41,2.79c-5.75,2-13.37,0.01-13.37-7.13C143.73,623.11,147.23,618.27,150.5,615.38L150.5,615.38z
		 M823.51,597.39c3.44-11.84-12.4-13.77-17.56-0.32c-4.13,10.9-12.74,20.71-20.66,21.81c-9.64,1.34-10.33-7.86-7.23-16.9
		l15.84-49.02c5.51-20.39-3.79-37.35-24.44-34.48c-9.99,1.39-19.28,6.12-27.54,14.5c-4.82-5.87-12.74-8.56-21.69-7.32
		c-6.2,0.86-11.71,2.66-17.22,5.83c-3.44-5.03-14.12-3.2-16.87,5.79l-33.05,103.75c-4.48,14.05,14.8,13.78,19.28,0.08l24.79-77.12
		c3.79-12.23,8.61-17.38,18.59-18.77c7.58-1.05,13.43,4.33,10.33,14.75l-22.38,72.66c-4.82,15.47,13.77,14.96,18.25,0.56
		l22.04-72.27c4.48-15.08,10.33-21.06,21-22.54c8.26-1.15,13.08,4.72,10.33,16.47l-16.18,50.11c-6.2,19.45,5.85,34.31,23.41,31.87
		C800.1,634.38,817.31,618.57,823.51,597.39L823.51,597.39z M613.48,532.57c-5.16,0.37-10.67,5.27-12.74,10.72l-27.89,80.31
		c-0.46,1.31-0.69,2.52-0.74,3.63c-3.97,11.25-12.29,18.84-20.61,20c-6.54,0.91-10.33-5.45-7.92-15.43l15.84-46.61
		c6.54-19.5-3.79-37-22.38-37.86c-18.25-0.56-40.63,16.66-47.86,36.95l-17.56,52.36c-0.36,1.14-0.66,2.29-0.9,3.44
		c-12.64,20.66-29.93,25.87-45.92,25.09c-17.9-0.96-23.76-14.26-16.87-34.84l8.61-25.99c9.64-26.47,39.25-32.31,31.33-8.14
		c-2.75,7.96,14.8,9.65,18.59-2.93c5.17-17.59-4.48-34.15-24.79-31.33c-19.97,2.77-34.78,15.16-44.07,42.96L389,630.88
		c-2.58,8.39-3.68,16.18-3.36,23.08c-0.15,0.39-0.3,0.79-0.43,1.21c-4.48,13.7-12.74,19.33-19.28,19.89
		c-6.54,0.56-11.71-1.82-7.23-16.56l15.15-48.93c8.26-30.41-6.54-26.29-18.59-23.93c-11.36,2.27-13.43-3.3-15.15-7.88
		c-4.13-11.13-17.22-6.22-20.66,4.93l-24.77,79.03c-0.51,0.96-0.98,1.99-1.4,3.11c-3.79,11.89-12.4,19.97-21,21.16
		c-6.54,0.91-10.33-5.45-7.92-15.43l15.84-46.61c6.54-19.5-3.79-37-22.38-37.86c-18.25-0.56-40.63,16.66-47.86,36.95L192.4,675.4
		c-5.85,18.37,4.48,38.97,26.51,37.98c9.3-0.26,19.28-5.78,28.23-13.56c5.17,5.82,12.4,8.61,19.97,7.56
		c7.14-0.99,13.89-4.08,19.97-8.72c3.85,3.88,12.87,0.92,16.19-9.73l29.27-91.86c5.16,8.23,11.36,8.06,25.13,5.46l-18.94,61.85
		c-5.85,18.72,5.51,31.94,22.72,29.55c11.3-1.57,22.92-8.01,31.45-19.4c5.6,6.66,14.35,10.45,26.05,10.38
		c22.63-0.31,40.84-7.31,55.35-22.24c4.58,7.44,12.72,12.44,23.84,11.93c9.3-0.26,19.28-5.78,28.23-13.56
		c5.16,5.82,12.4,8.61,19.97,7.55c17.83-2.48,33.21-18.04,41.85-38.04c0.6-0.9,1.12-1.93,1.54-3.1l15.49-45.53
		c12.05,15.54,24.1,32.46,17.9,46.75c-4.82,11-14.8,19.96-27.2,15.48c-10.67-4.03-18.25,11.83-9.98,15.5
		c19.97,8.93,38.22-1.87,47.51-15.55c8.95-13.29,17.9-31.41-5.51-66.37c-5.85-8.83-11.71-12.15-8.26-34.66
		C620.37,536.09,617.96,532.29,613.48,532.57L613.48,532.57z M540.83,584.66l-19.28,55.36c-4.48,9.57-11.36,15.69-20.31,15.56
		c-7.97-0.12-12.94-6.11-11.74-14.54c0.27-0.85,0.43-1.66,0.5-2.42c0.07-0.26,0.14-0.53,0.23-0.79l18.94-55.31
		c3.1-8.35,11.02-15.65,17.9-15.91C542.9,565.44,542.21,579.65,540.83,584.66L540.83,584.66z M261.6,623.44l-19.28,55.36
		c-4.48,9.57-11.36,15.69-20.31,15.56c-8.95-0.13-14.12-7.68-11.02-17.75l18.94-55.31c3.1-8.35,11.02-15.65,17.9-15.91
		C263.67,604.22,262.98,618.43,261.6,623.44L261.6,623.44z"/>
</g>
</svg>
