<?xml version="1.0" encoding="utf-8"?>
<!-- Generator: Adobe Illustrator 25.0.0, SVG Export Plug-In . SVG Version: 6.00 Build 0)  -->
<svg version="1.1" id="Layer_1" xmlns="http://www.w3.org/2000/svg" xmlns:xlink="http://www.w3.org/1999/xlink" x="0px" y="0px"
	 viewBox="0 0 864 864" style="enable-background:new 0 0 864 864;" xml:space="preserve">
<g>
	<path d="M56.36,419.63c-8.44-4.22-7.72-17.98-4.82-25.39c9.31-24.22,14.53-31.79,29.71-51.55c9.4-11.93,19.81-22.6,30.98-32.5
		c8.89-7.62,18.03-14.22,28.19-19.3c7.68-4.23,20.05-8.63,28.69-10.67c10.54-2.12,20.81-3.48,31.23-0.51
		c3.31,0.66,2.97,6.24,1.78,8.63c-2.54,7.11-5.84,13.46-11.17,18.54c-1.27,1.27-2.54,2.03-3.55,3.3c-1.02,1.27-0.51,3.3,0.25,4.57
		c1.52,2.03,4.06,2.03,5.59,1.02c6.35-4.06,11.43-9.14,15.49-15.24c5.44-9.24,5.68-20.2-3.05-27.68c-2.79-2.29-6.35-3.81-9.65-5.08
		c-7.87-2.54-16-1.78-24.12-1.27c-12.44,1.02-24.12,4.82-35.3,9.65c-21.38,9.2-38.43,23.8-54.34,40.88
		c-6.35,6.86-11.93,14.22-17.78,21.58c-9.9,12.19-17.27,25.65-23.11,40.12c-3.03,7.72-6.46,24.31-2.79,32.25
		c6.6,13.46,17.27,20.57,31.99,21.33c9.14,0.76,18.54-0.25,27.68-2.79c6.35-1.78,12.7-3.56,18.54-6.35
		c13.71-6.09,27.42-12.19,39.87-20.82c7.11-4.82,14.22-9.65,21.08-14.73c3.3-2.54-0.51-10.16-4.57-9.14c-0.25,0-0.76,0-1.02,0.25
		c-12.7,9.14-25.9,18.03-39.61,25.14c-13.97,7.36-28.19,13.2-43.68,15.74C77.21,421.35,67.81,424.32,56.36,419.63L56.36,419.63z
		 M344.78,353.6c-19.79,6.48-36.95,11.79-46.17,12.71c-8.38,0.76-17.01,1.27-25.65,0.51c-7.44-0.67-15.94-6.04-21.08-11.17
		c-0.51-0.51-1.02-0.76-1.78-1.52c-11.17-9.9-19.55-3.55-26.66,8.13c-4.82,8.13-4.32,16.76-2.03,25.9c0.25,1.02,1.02,2.29,1.78,3.3
		c4.82,6.6,12.7,8.38,20.06,2.54c2.92-2.32,5.13-5.23,6.6-8.63c1.78-4.06,3.3-8.38,5.08-12.44c0.76-1.78,2.29-2.54,3.81-2.03
		c6.6,2.29,13.46,4.06,20.31,4.06c18.28,0,21.08,1.02,39.36-4.82c8.43-2.67,16.87-5.02,25.3-7.83c-0.06,0.66-0.11,1.33-0.16,1.99
		c-2.03,8.38-2.03,17.01-2.03,26.66c0,8.63,0,18.54,2.54,28.19c3.54,13.42,8.79,34.02,23.87,38.85c5.77,1.85,10.52-1.61,12.7-6.6
		c2.03-4.57,3.05-9.4,2.79-14.47c-0.25-4.82-0.76-9.65-2.03-14.22c-2.79-10.16-7.11-19.04-14.47-26.41
		c-1.52-1.52-2.79-2.79-4.32-4.32c-1.14-1.14-0.67-3.17,1.27-3.81c13.2-4.32,26.92-6.35,39.61-11.68
		c10.33-4.29,23.38-8.48,33.09-13.25c-0.03,0.35-0.06,0.71-0.08,1.07c-2.03,8.38-2.03,17.01-2.03,26.66c0,8.63,0,18.54,2.54,28.19
		c3.54,13.42,8.79,34.02,23.87,38.85c5.77,1.85,10.52-1.61,12.7-6.6c2.03-4.57,3.05-9.4,2.79-14.47c-0.25-4.82-0.76-9.65-2.03-14.22
		c-2.79-10.16-7.11-19.04-14.47-26.41c-1.52-1.52-2.79-2.79-4.32-4.32c-1.14-1.14-0.67-3.17,1.27-3.81
		c13.2-4.32,26.92-6.35,39.61-11.68c9.97-4.14,21.71-7.94,31.32-12.4c-0.47,3.12-0.45,6.97-0.08,10.12
		c0.76,8.63,4.82,15.49,12.19,19.81c10.41,6.35,28.44,6.86,40.63,4.32c9.9-2.03,19.55-4.57,29.2-8.38
		c9.14-3.56,18.28-6.86,27.42-10.16c11.15-4.11,21.99-8.97,32.88-14c-0.25,2.62-0.17,5.81,0.13,8.41
		c0.76,8.63,4.82,15.49,12.19,19.81c10.41,6.35,28.44,6.86,40.63,4.32c9.9-2.03,19.55-4.57,29.2-8.38
		c9.14-3.56,18.28-6.86,27.42-10.16c14.47-5.33,28.44-11.93,42.66-18.54c1.27-0.51,2.54-1.52,4.06-2.54
		c2.29-1.52-0.25-6.35-2.79-6.35c-1.27,0.25-2.54,0.25-3.56,0.51c-13.46,5.33-26.66,10.41-39.87,15.74
		c-17.01,7.11-34.03,13.46-51.55,18.54c-8.16,2.41-12.37,2.49-20.57,3.56c-6.86,1.02-25.9-1.52-27.42-8.89
		c-0.76-4.06-0.25-8.13,2.29-11.68c2.09-3.47,4.18-2.25,7.36-2.79c8.63-1.52,16.51-4.57,22.6-11.43c2.03-2.29,2.79-6.35,1.52-9.14
		c-8.91-18.02-32.2-9.56-41,7.75c-12.02,4.74-23.85,9.31-35.68,14.09c-17.01,7.11-34.03,13.46-51.55,18.54
		c-8.16,2.41-12.37,2.49-20.57,3.56c-6.86,1.02-25.9-1.52-27.42-8.89c-0.76-4.06-0.25-8.13,2.29-11.68
		c2.09-3.47,4.18-2.25,7.36-2.79c8.63-1.52,16.51-4.57,22.6-11.43c2.03-2.29,2.79-6.35,1.52-9.14
		c-8.61-17.42-30.66-10.09-40.07,6.05c-3.47,1.47-6.91,2.97-10.21,4.62c-14.88,7.44-41.71,17.73-58.4,21.58
		c-4.32,1.02-8.63,1.02-13.2,1.02c-0.51,0-1.52-1.02-1.52-1.52c0-8.63,2.54-17.01,4.82-25.39c1.81-6.5,1.89-7.28,8.13-12.7
		c12.42-10.79,20.91-21.77,25.9-37.84c1.86-5.98,3.11-14.91-1.78-19.81c-10.4-10.4-20.1-0.58-26.41,8.89
		c-6.6,9.9-11.68,20.57-14.73,31.99c-2.6,9.84-5.06,19.67-6.59,29.61c-3.11,1.33-6.19,2.69-9.15,4.17
		c-14.88,7.44-41.71,17.73-58.4,21.58c-4.32,1.02-8.63,1.02-13.2,1.02c-0.51,0-1.52-1.02-1.52-1.52c0-8.63,2.54-17.01,4.82-25.39
		c2.03-7.11,1.78-7.11,8.13-12.7c12.42-10.79,20.91-21.77,25.9-37.84c1.86-5.98,3.11-14.91-1.78-19.81
		c-10.4-10.4-20.1-0.58-26.41,8.89c-6.6,9.9-11.68,20.57-14.73,31.99C348.8,333.6,346.31,343.55,344.78,353.6L344.78,353.6z
		 M246.3,370.37c-1.52,5.59-3.3,12.44-7.87,18.28c-1.24,1.55-5.32,5.36-6.86,2.29c-1.07-2.13-1.69-4.35-1.27-6.86
		c2.41-13.51,4.26-15.54,8.89-20.82C240.33,361.97,247.01,360.37,246.3,370.37L246.3,370.37z M367.42,327.97
		c3.55-10.07,8.54-24.04,16-31.49c1.13-1.13,1.49-0.03,1.78,0.25c0,0.25,0.25,0.76,0,1.02c-8.63,8.63-7.36,22.6-16,31.23
		C368.2,329.99,366.95,329.38,367.42,327.97L367.42,327.97z M367.42,412.27c2.03,4.82,3.3,9.9,5.08,14.98
		c1.54,4.51,1.23,12.54,0.76,15.74c-0.4,2.71-3.82,10.4-7.11,7.11c-2.67-2.67-5.43-8.01-6.86-11.43c-3.3-8.13-5.33-17.01-5.33-26.15
		c0-4.57,0.51-8.63,0.51-13.46c0-0.25,0.51-0.76,0.51-1.02c0-0.76,1.78,0,2.29,0.51C361.33,402.62,365.14,406.94,367.42,412.27
		L367.42,412.27z M460.36,327.97c3.55-10.07,8.54-24.04,16-31.49c1.13-1.13,1.49-0.03,1.78,0.25c0,0.25,0.25,0.76,0,1.02
		c-8.63,8.63-7.36,22.6-16,31.23C461.13,329.99,459.89,329.38,460.36,327.97L460.36,327.97z M460.36,412.27
		c2.03,4.82,3.3,9.9,5.08,14.98c1.54,4.51,1.32,12.31,0.76,15.74c-0.44,2.7-3.82,10.4-7.11,7.11c-2.67-2.67-5.43-8.01-6.86-11.43
		c-3.3-8.13-5.33-17.01-5.33-26.15c0-4.57,0.51-8.63,0.51-13.46c0-0.25,0.51-0.76,0.51-1.02c0-0.76,1.78,0,2.29,0.51
		C454.27,402.62,458.08,406.94,460.36,412.27L460.36,412.27z M556.6,353.36c2.79-1.02,5.08-1.02,4.06,0.51c0,0-0.51,0.51-0.76,0.76
		c-1.27,1.52-13.71,7.11-13.71,6.09C546.44,358.44,554.82,354.12,556.6,353.36L556.6,353.36z M699.05,353.36
		c2.79-1.02,5.08-1.02,4.06,0.51c0,0-0.51,0.51-0.76,0.76c-1.27,1.52-13.71,7.11-13.71,6.09
		C688.9,358.44,697.28,354.12,699.05,353.36L699.05,353.36z"/>
	<path d="M120.41,490.26c7.26,3.23,6.36,13.33,3.2,18.86c-1.18,2.07-6.47,4.63-9.6,4.88c-5.31,0-5.45-7.73-5.39-14.15
		c0.11-5.61,1.24-9.04,3.37-10.27C113.97,488.23,117.77,489.09,120.41,490.26L120.41,490.26z M91.77,468.36
		c-2.07,0.56-2.36,3.2-1.18,5.05c1.47,2.3,8.88,0.26,9.26,2.36c0.49,2.66,0.74,27.14,0.34,33.69c-0.13,2.07-0.74,7.13,0.17,8.42
		c1.6,2.26,3.79,0.33,4.55-1.52c0.32-0.76,6.65,6.1,16.84,1.01c4.43-2.21,7.97-7.37,9.26-12.3c1.68-6.38-0.51-18.62-7.41-22.23
		c-3.67-1.89-12.89-1.9-15.5,0.51c-0.55,0.5-0.68,0.98-1.01-3.03c-0.45-7.07-1.57-11-3.37-11.79
		C102.51,467.96,94.05,467.79,91.77,468.36L91.77,468.36z M162.51,491.94c0.11,0.22,0.17,0.56,0.17,1.01
		c0,4.76-15.55,3.32-18.19,2.69c-1.78-0.42-2.2-0.68-1.18-3.03c2.66-6.12,9.58-5.54,15.07-3.62
		C160.8,489.84,162.18,490.82,162.51,491.94L162.51,491.94z M148.03,479.31c-5.73,1.8-9.54,5.45-11.45,10.95
		c-2.06,6.06-3.36,17.45,1.26,22.74c5.3,6.06,23.14,11.19,29.39-1.18c1.09-2.16,1.82-4.24,0.34-5.73
		c-3.47-3.47-8.28,5.12-10.78,6.57c-0.67,0.45-1.91,0.56-3.71,0.34c-7.64-1.35-11.45-4.66-11.45-9.94v-2.19
		c5.45-0.08,18.9-0.21,22.4-0.59c3.54-0.38,3.54-1.88,3.54-5.98c0-7.31-4.03-12.21-11.29-14.65
		C153.55,478.73,150.54,478.48,148.03,479.31L148.03,479.31z M185.42,479.14c-12.39,4.62-17.47,21.05-10.95,32.76
		c5.52,9.9,18.16,13.64,26.95,5.81c5.83-5.19,5.49-12.63,2.36-12.63c-3.7,0-6.69,9.94-11.62,9.94c-3.56,0-9.04-4.96-10.61-8.25
		c-2.89-6.06,0.17-21.05,10.11-21.05c3.42,0,4.05,0.75,4.38,5.39c0.11,2.36,0.62,3.93,1.52,4.72c2.29,1.86,6.07,1.12,7.75-1.68
		c1.06-1.78,0.79-6.17-0.17-8.08c-2.36-4.72-6.79-7.24-13.31-7.58C188.68,478.47,186.54,478.69,185.42,479.14L185.42,479.14z
		 M233.26,499.69c0.22,0.45,0.34,1.24,0.34,2.36c0,10.5-13.65,14.84-17.01,7.58c-2.64-5.48,1.5-8.16,9.77-10.11
		C229.78,498.68,232.38,497.66,233.26,499.69L233.26,499.69z M217.59,477.8c-12.75,3.92-8.58,14.49-3.03,14.49
		c1.91,0,3.71-1.18,5.39-3.54c8.01-10.74,14.32-4.67,14.32-0.67c0,6.97-14.24,5.91-21.39,11.96c-3.54,3-4.27,8.51-2.36,12.63
		c1.21,2.61,4.52,5.72,7.24,6.91c1.23,0.56,2.98,0.84,5.22,0.84c5.39,0,8.18-2.27,11.79-5.56c2.57,3.21,3.93,5.01,8.76,4.88
		c4.74-0.12,8.76-5.44,7.24-10.44c-1.19-3.94-3.66-2.46-5.39,1.18c-1.01,2.36-2.19,3.31-3.54,2.86c-3.42-1.33,0.42-22.76-2.53-29.14
		c-1.23-2.69-3.59-4.66-7.07-5.9C229.72,477.48,221.54,477.14,217.59,477.8L217.59,477.8z M285.13,476.28
		c-0.57,0.29-7.24,0.52-7.24,4.88c0,2.83,1.92,3.19,5.56,3.54l3.71,0.34v4.04c0,8.87-2.08,15.38-6.23,19.54
		c-3.38,3.38-7.06,5.59-9.43,1.52c-1.91-3.03-2.86-9.21-2.86-18.53c0-4.49,0.45-6.74,1.35-6.74c4.12,0,3.41-5.96,1.85-7.07
		c-1.27-0.91-6.22-1.18-8.93-1.18c-10.26,0-8.98,6.18-7.75,7.41c0.87,0.87,5.23,1.15,7.07,1.35l-0.51,5.73
		c0,7.64,0.45,14.26,1.35,19.87c1.01,6.63,4.21,9.94,9.6,9.94c3.71,0,7.47-1.85,11.28-5.56c1.8-1.68,2.47-2.19,2.02-1.52
		c-1.11,1.51-2.14,3.8-1.18,5.39c1.48,2.44,6.54,1.75,9.43,1.68c4.01-0.09,6.23-0.73,6.23-4.04c0-4.15-3.31-4.14-6.4-4.55v-27.79
		c3.02-0.71,6.23-0.9,6.23-3.87c0-1.8-0.67-2.98-2.02-3.54C296.71,476.49,290.3,475.76,285.13,476.28L285.13,476.28z M305.68,483.19
		c-3.35,3.64-2.67,14.66,2.69,16.84c5.78,2.35,16.37,2.88,18.86,3.71c3.21,1.07,3.03,10.61-4.04,10.61c-3.75,0-5.84-1.08-9.01-3.54
		c-4.44-3.44-1.11-2.44-4.21-5.05c-1.07-0.9-1.88-1.35-2.44-1.35c-3.28,0-2.5,14.5-1.68,15.66c0.89,1.28,3.35,1.49,4.88-0.17
		l1.01-1.01c3.38,1.69,5.51,3.03,9.6,3.03c6.06,0,10.5-2.81,13.31-8.42c2.85-5.69,2.17-11.27-3.03-15.66
		c-2.76-2.33-5.09-2.23-11.45-3.03c-4.27-0.56-7.02-1.09-8.25-1.6c-2.3-0.94-3.01-4.82,0.84-6.99c7.33-4.12,13.47,0.98,13.47,4.38
		c0,3.78,2.07,5.03,4.88,3.71c1.01-0.45,1.57-1.52,1.68-3.2c0.29-3.86,0.76-8.23-0.5-10.27c-0.9-1.68-2.02-2.53-3.37-2.53
		c-3.07,0-0.47,3.3-4.88,1.35C318.02,476.98,310.15,478.2,305.68,483.19L305.68,483.19z M367.33,491.94
		c0.11,0.22,0.17,0.56,0.17,1.01c0,4.76-15.55,3.32-18.19,2.69c-1.78-0.42-2.2-0.68-1.18-3.03c2.66-6.12,9.58-5.54,15.07-3.62
		C365.62,489.84,366.99,490.82,367.33,491.94L367.33,491.94z M352.84,479.31c-5.73,1.8-9.54,5.45-11.45,10.95
		c-2.06,6.06-3.36,17.45,1.26,22.74c5.3,6.06,23.14,11.19,29.39-1.18c1.09-2.16,1.82-4.24,0.34-5.73
		c-3.47-3.47-8.28,5.12-10.78,6.57c-0.67,0.45-1.91,0.56-3.71,0.34c-7.64-1.35-11.45-4.66-11.45-9.94v-2.19
		c5.45-0.08,18.9-0.21,22.4-0.59c3.54-0.38,3.54-1.88,3.54-5.98c0-7.31-4.03-12.21-11.29-14.65
		C358.37,478.73,355.35,478.48,352.84,479.31L352.84,479.31z M442.62,499.69c0.22,0.45,0.34,1.24,0.34,2.36
		c0,10.5-13.65,14.84-17.01,7.58c-2.64-5.48,1.49-8.16,9.77-10.11C439.14,498.68,441.75,497.66,442.62,499.69L442.62,499.69z
		 M426.95,477.8c-12.75,3.92-8.58,14.49-3.03,14.49c1.91,0,3.71-1.18,5.39-3.54c8.01-10.74,14.32-4.67,14.32-0.67
		c0,6.97-14.24,5.91-21.39,11.96c-3.54,3-4.27,8.51-2.36,12.63c1.21,2.61,4.52,5.72,7.24,6.91c1.23,0.56,2.98,0.84,5.22,0.84
		c5.39,0,8.18-2.27,11.79-5.56c2.57,3.21,3.93,5.01,8.76,4.88c4.74-0.12,8.76-5.44,7.24-10.44c-1.19-3.94-3.66-2.46-5.39,1.18
		c-1.01,2.36-2.19,3.31-3.54,2.86c-3.42-1.33,0.42-22.76-2.53-29.14c-1.24-2.69-3.59-4.66-7.07-5.9
		C439.08,477.48,430.9,477.14,426.95,477.8L426.95,477.8z M482.03,486.89c2.02,1.01,3.76,3.09,5.22,6.23
		c3.08,6.98-2.51,25.34-11.28,17.18c-7.71-7.17-6.61-15.48,0.34-22.74C478,485.79,479.85,486.02,482.03,486.89L482.03,486.89z
		 M481.02,468.03c-1.12,1.46-0.95,2.92,0.51,4.38c1.49,1.49,5.64,1.18,8.08,1.18c-0.06,2.07-0.03,10.95-1.18,10.95
		c-1.69,0-10.81-6.04-18.02,1.18c-2.37,2.37-5.87,10.1-6.4,13.31c-0.64,3.88-0.37,8.72,0.84,11.62c3.35,8.02,13.58,15.03,22.74,8.08
		c2.35-1.78,1.4-1.11,2.95-0.59c1.27,0.42,1.86,2.44,9.18,2.44c3.14,0,5.33-0.62,6.57-1.85c6.39-6.39-8.27-4.02-9.43-6.4
		c-1.79-3.8-1.26-13.85-1.18-20.04l0.34-24.25c-2.66-1.14-3.61-1.35-8.93-1.35C483.6,466.68,481.58,467.13,481.02,468.03
		L481.02,468.03z M541.82,476.28c-0.57,0.29-7.24,0.52-7.24,4.88c0,2.83,1.92,3.19,5.56,3.54l3.71,0.34v4.04
		c0,8.87-2.08,15.38-6.23,19.54c-3.38,3.38-7.06,5.59-9.43,1.52c-1.91-3.03-2.86-9.21-2.86-18.53c0-4.49,0.45-6.74,1.35-6.74
		c4.12,0,3.41-5.96,1.85-7.07c-1.27-0.91-6.22-1.18-8.93-1.18c-10.26,0-8.98,6.18-7.75,7.41c0.87,0.87,5.23,1.15,7.07,1.35
		l-0.51,5.73c0,7.64,0.45,14.26,1.35,19.87c1.01,6.63,4.21,9.94,9.6,9.94c3.71,0,7.47-1.85,11.28-5.56c1.8-1.68,2.47-2.19,2.02-1.52
		c-1.11,1.51-2.14,3.8-1.18,5.39c1.48,2.44,6.54,1.75,9.43,1.68c4.01-0.09,6.23-0.73,6.23-4.04c0-4.15-3.31-4.14-6.4-4.55v-27.79
		c3.02-0.71,6.23-0.9,6.23-3.87c0-1.8-0.67-2.98-2.02-3.54C553.41,476.49,546.99,475.76,541.82,476.28L541.82,476.28z
		 M579.22,470.22c-3.79,0-15.17-0.16-16.68,0.51c-3.37,1.48-2.64,7.1,0.42,7.92c2.04,0.54,8.39,0.18,9.69,0.51
		c0.45,0.11,0.73,0.39,0.84,0.84c0.44,1.51,0.62,27.49-0.34,29.31l-0.84,1.52c-4.65,0.22-11.96-0.18-11.96,4.38
		c0,1.58,1.61,3.61,2.78,3.87c2.71,0.6,10.17,0.84,14.57,0.84c7.07,0,11.62-0.62,13.64-1.85c1.93-1.19,3.25-3,2.53-4.21
		c-0.56-1.91-2.98-2.92-7.24-3.03l-4.55-0.17c-0.06-4.77-0.26-33.56-0.67-36.13C581.18,473.11,580.45,471.68,579.22,470.22
		L579.22,470.22z M610.71,471.06c-2.2,2.2-1.32,7.57-2.44,9.01c-1.42,1.83-4.1-0.74-8.67,2.61c-5.26,3.85-1.52,5.85,4.72,6.4
		l3.54,0.34c0,13.01-1.58,33.18,13.64,33.18c10.47,0,17.46-12.58,12.97-15.66c-5.97-4.09-8.08,5.69-10.95,7.41
		c-0.67,0.34-1.4,0.51-2.19,0.51c-5.05,0-6.06-3.56-6.06-8.42l0.5-17.18c3.98,0,10.08,0.45,11.62-2.53c2.72-5.27-7.4-5.58-11.28-5.9
		c0-3.95,0.54-11.29-3.03-11.29C612.73,469.54,611.95,470.05,610.71,471.06L610.71,471.06z M643.9,479.31
		c-4.35,0.69-3.59,5.18-1.94,6.06c1.74,0.93,7.21,1.16,9.85,1.35l0.67,13.47c0,6.74-0.22,10.33-0.67,10.78
		c-0.71,0.72-8.82,0.39-11.2,1.77c-2.07,1.2-2.22,4.85-0.08,6.48c1.44,1.1,32,4.39,32-4.04c0-3.14-3.18-3.39-7.07-3.54l-4.55-0.17
		l-0.51-22.06c0-5.05-0.67-8.31-2.02-9.77C656.98,478.19,646.07,478.95,643.9,479.31L643.9,479.31z M649.28,465.67
		c-8.99,3.86,1.24,14.87,6.91,9.52C660.28,471.33,655.76,462.89,649.28,465.67L649.28,465.67z M721.21,512.83
		c0-8.06-0.02-28.15-3.87-32c-6.53-6.53-15.14-4.04-22.4,1.85c-0.25,0.2-3.79,2.96-3.54,2.36c0.15-0.37,2.86-1.69,2.86-4.21
		c0-2.5-0.6-3.15-3.37-3.54c-3.22-0.45-4.44-0.39-9.26,0c-3.67,0.3-5.9,0.87-5.9,3.87c0,5.35,6.04,3.51,7.24,4.72
		c0.39,0.4,0.02,26.63,0,28.13c-2.15,0-4-0.16-5.73,1.18c-2.27,1.77-1.93,4.27,0.5,5.9c2.01,1.34,17.97,1.37,20.72,0.17
		c5.04-2.2,4.05-5.72,2.36-6.57c-1.82-0.91-7.35-1.15-10.11-1.35l0.34-4.72c0.67-11.12,4.44-18.42,11.28-21.9
		c12.05-6.08,10.5,16.7,10.27,26.44c-2.37,0.79-4.72,1.21-4.72,4.21c0,1.75,1.47,3.56,3.45,3.96c2.12,0.42,12.19,0.29,14.15-0.08
		c5-0.95,6.92-7.75,0.76-7.75C724.69,513.5,723,513.28,721.21,512.83L721.21,512.83z M762.47,524.96c16.55,6.02-8.63,10.14-16,8.25
		c-2.57-0.66-8.08-3.22-8.08-5.39c0-1.31,1.48-1.79,3.71-2.53C748.49,523.18,756.56,522.64,762.47,524.96L762.47,524.96z
		 M758.93,498.68c0,10.84-15.54,10.77-16,1.01c-0.48-10.05,10.03-10.29,13.81-6.65C758.2,494.44,758.93,496.32,758.93,498.68
		L758.93,498.68z M760.79,481.5c-4.8,2.4-7.91,0.22-13.14,1.35c-3.82,1.01-6.79,3.2-8.93,6.57c-2.61,4.02-1.56,13.34-3.71,20.38
		c-1.29,4.23-1.82,5.48,0.17,8.59c2.97,4.63-1.85,7.03-1.85,13.14c0,2.92,1.52,5.11,4.55,6.57c4.94,2.47,11.12,3.71,18.53,3.71
		c6.12,0,11.04-0.06,14.49-3.37c4.16-4,4.56-15.42-0.17-19.03c-4.28-3.27-18.16-2.19-25.27-2.19c-2.94,0-5.9-0.72-5.9-3.71
		c0-3.88,3.68-2.74,6.4-1.68c7.15,2.77,15.26-0.32,18.36-7.58c2.29-5.36,0.19-14.47,2.19-12.46c1.83,1.83,7.75-1.47,7.75-4.55
		C774.26,482.03,766.58,478.38,760.79,481.5L760.79,481.5z"/>
	<path d="M287.39,556.02c-4.4,0.69-3.62,5.23-1.96,6.12c1.76,0.94,7.28,1.17,9.95,1.36l0.68,13.6c0,6.8-0.23,10.43-0.68,10.88
		c-0.72,0.72-8.91,0.4-11.31,1.79c-2.09,1.21-2.24,4.9-0.08,6.55c1.28,0.98,11.3,1.53,15.81,1.53c10.99,0,16.49-1.87,16.49-5.61
		c0-3.17-3.21-3.42-7.14-3.57l-4.59-0.17l-0.51-22.27c0-5.1-0.68-8.39-2.04-9.86C300.6,554.89,289.59,555.66,287.39,556.02
		L287.39,556.02z M292.83,542.25c-9.08,3.89,1.25,15,6.97,9.61C303.93,547.96,299.37,539.45,292.83,542.25L292.83,542.25z
		 M321.57,559.93c-3.39,3.67-2.7,14.8,2.72,17c5.84,2.37,16.53,2.9,19.04,3.74c3.24,1.08,3.05,10.71-4.08,10.71
		c-3.78,0-5.9-1.1-9.1-3.57c-4.48-3.47-1.12-2.46-4.25-5.1c-1.08-0.91-1.9-1.36-2.47-1.36c-3.31,0-2.52,14.63-1.7,15.81
		c0.9,1.29,3.38,1.5,4.93-0.17l1.02-1.02c3.42,1.71,5.56,3.06,9.69,3.06c6.12,0,10.6-2.83,13.43-8.5
		c2.87-5.74,2.19-11.37-3.06-15.81c-2.79-2.36-5.14-2.26-11.56-3.06c-4.31-0.57-7.08-1.1-8.33-1.61c-2.32-0.95-3.04-4.87,0.85-7.06
		c2.77-1.56,5.8-1.97,8.84-1.02c1.94,0.6,4.76,3.32,4.76,5.44c0,3.82,2.09,5.08,4.93,3.74c1.02-0.45,1.59-1.53,1.7-3.23
		c0.29-3.89,0.77-8.3-0.51-10.37c-0.91-1.7-2.04-2.55-3.4-2.55c-3.1,0-0.48,3.34-4.93,1.36
		C334.02,553.66,326.07,554.9,321.57,559.93L321.57,559.93z M407.08,550.07v41.31c-4.19,0.64-5.95,0.43-5.95,3.57
		c0,3.42,1.96,3.42,5.27,3.74c4.11,0.4,10.21,0.41,11.39-3.4c0.71-2.28-2.31-2.06-2.55-9.35l-0.17-3.74
		c0-7.03,1.19-11.62,3.57-13.77c1.81-1.7,3.97-2.55,6.46-2.55c5.53,0,5.74,2.22,6.04,8.16c0.17,3.38,0.02,17.51-1.45,18.19
		c-1.71,0.79-2.04,3-1.19,4.59c1,1.87,6.53,2.04,8.16,2.04c4.99,0,7.76-1.25,8.33-3.74l0.17-0.68c0-2.57-4.77-2.72-7.65-3.06
		c0-7.79,0.32-21.92-1.27-27.12c-2.75-8.99-16.65-10.36-20.49-4c-1.74,2.88-1.7,1.71-1.7-3.74c0-7.93-0.57-12.58-1.7-13.94
		c-1.29-1.41-10.69-1.32-12.75-0.17c-3.15,1.77-0.45,7.14,3.57,7.14C404.76,549.56,406.06,549.73,407.08,550.07L407.08,550.07z
		 M472.7,576.59c0.23,0.45,0.34,1.25,0.34,2.38c0,10.59-13.77,14.98-17.17,7.65c-0.57-1.13-0.85-2.1-0.85-2.89
		c0-3.29,3.57-5.72,10.71-7.31C469.19,575.57,471.82,574.54,472.7,576.59L472.7,576.59z M456.89,554.49
		c-12.87,3.96-8.66,14.62-3.06,14.62c1.93,0,3.74-1.19,5.44-3.57c8.08-10.84,14.45-4.72,14.45-0.68c0,7.04-14.37,5.96-21.59,12.07
		c-3.57,3.02-4.31,8.59-2.38,12.75c1.22,2.64,4.56,5.77,7.31,6.97c1.25,0.57,3,0.85,5.27,0.85c5.44,0,8.25-2.29,11.9-5.61
		c2.59,3.24,3.96,5.06,8.84,4.93c4.78-0.13,8.84-5.49,7.31-10.54c-1.2-3.98-3.69-2.48-5.44,1.19c-1.02,2.38-2.21,3.34-3.57,2.89
		c-3.45-1.34,0.43-22.98-2.55-29.41c-1.25-2.72-3.63-4.7-7.14-5.95C469.13,554.18,460.88,553.83,456.89,554.49L456.89,554.49z
		 M512.82,560.27l-1.7,1.19c-0.57-1.7-1.25-2.75-2.04-3.15c-1.61-0.8-12.13-1.19-14.03-0.17c-0.74,0.4-1.11,1.39-1.11,2.98
		c0,3.17,2.61,4.76,7.82,4.76c1.93,0,3,0.34,3.23,1.02c0.56,1.93,0.44,20.24-0.17,21.08c-1.12,1.56-10.03,0.18-10.03,4.25
		c0,1.7,1.3,3.06,3.91,4.08c2.73,0.99,18.77,1.05,22.1,0.68c4.2-0.47,4.75-5.58,2.3-6.89c-2.08-1.1-6.8-1.16-9.78-1.28l0.17-10.37
		c0-5.21,0.45-9.01,1.36-11.39c1.38-3.61,4.82-4.15,8.5-4.76c0.74,4.21,1.48,8.94,6.29,8.84c6.9-0.14,4.87-13.16-1.87-15.13
		C522.78,554.56,518.08,556.4,512.82,560.27L512.82,560.27z M555.67,563.67c2.04,1.02,3.8,3.12,5.27,6.29
		c3.1,7.05-2.54,25.58-11.39,17.34c-7.78-7.23-6.67-15.63,0.34-22.95C551.6,562.56,553.47,562.79,555.67,563.67L555.67,563.67z
		 M554.64,544.63c-1.13,1.47-0.96,2.95,0.51,4.42c1.51,1.51,5.7,1.19,8.16,1.19c-0.06,2.09-0.03,11.05-1.19,11.05
		c-1.7,0-10.91-6.09-18.19,1.19c-2.39,2.39-5.93,10.19-6.46,13.43c-0.65,3.92-0.37,8.8,0.85,11.73c3.38,8.1,13.71,15.17,22.95,8.16
		c1.02-0.79,1.64-1.19,1.87-1.19l0.17,0.17l2.21,1.19c1.47,1.13,4.14,1.7,7.99,1.7c3.17,0,5.38-0.62,6.63-1.87
		c3.49-3.49,0.86-4.8-4.76-5.1c-2.83-0.23-4.42-0.68-4.76-1.36c-1.81-3.83-1.28-13.98-1.19-20.23c0.23-8.16,0.34-14.11,0.34-17.85
		v-6.63c-2.69-1.15-3.64-1.36-9.01-1.36C557.25,543.27,555.21,543.72,554.64,544.63L554.64,544.63z"/>
</g>
</svg>
