<?xml version="1.0" encoding="utf-8"?>
<!-- Generator: Adobe Illustrator 25.0.0, SVG Export Plug-In . SVG Version: 6.00 Build 0)  -->
<svg version="1.1" id="Layer_1" xmlns="http://www.w3.org/2000/svg" xmlns:xlink="http://www.w3.org/1999/xlink" x="0px" y="0px"
	 viewBox="0 0 864 864" style="enable-background:new 0 0 864 864;" xml:space="preserve">
<style type="text/css">
	.st0{fill:#1A1A1A;}
	.st1{fill-rule:evenodd;clip-rule:evenodd;fill:#1A1A1A;}
</style>
<g>
	<path class="st0" d="M312.08,344.26c-18.74,2.14-26.42,16.38-24.89,29.81c1.51,13.22,11.98,25.66,28.97,23.72
		c9.94-1.14,18.91-7.39,17.82-16.94c-1.73,4.35-5.73,7.69-10.42,8.22c-6.39,0.73-13.77-3.72-15.41-18.04
		c-0.52-4.51-2.39-23.5,4.1-24.24c0.91-0.1,3.56,0.31,3.9,3.32c0.13,1.12-0.11,1.87-0.53,2.8c-0.79,1.8-1.04,3.1-0.83,4.93
		c0.63,5.47,4.44,8.48,9.69,7.88c5.6-0.64,8.7-4.93,8.18-9.49C332.04,350.86,326.07,342.66,312.08,344.26L312.08,344.26z
		 M366.49,394.55c17.03-0.88,25.54-14.85,24.85-28.19c-0.69-13.45-10.76-26.24-27.61-25.37c-16.9,0.87-25.94,14.64-25.25,28.1
		C339.17,382.43,349.4,395.43,366.49,394.55L366.49,394.55z M363.96,343.53c3.46-0.18,5.68,11.25,6.28,22.75
		c0.65,12.64-0.68,25.41-4.37,25.6c-3.68,0.19-5.68-12.66-6.32-25.15C358.95,355.09,360.48,343.71,363.96,343.53L363.96,343.53z
		 M415.69,327.32c-0.1-6.04-0.56-8.05,1.83-8.09c1.78-0.03,2.62,1.8,2.65,3.73c0.04,2.56-2.18,2.81-2.12,6.8
		c0.09,5.54,4.62,8.25,9.08,8.17c4.48-0.08,8.93-2.94,8.83-8.47c-0.1-5.94-3.75-12.59-19.25-12.33c-11.63,0.2-19.72,4.26-19.5,16.96
		l0.12,7.3l-3.52,0.06l0.05,3.22l3.52-0.06l0.37,21.87c0.18,10.34-0.92,20.62-3.16,24.11l25.71-0.44
		c-2.35-3.41-3.8-13.65-3.98-23.99l-0.37-21.87l6.43-0.11l-0.05-3.22l-6.43,0.11L415.69,327.32L415.69,327.32z M462.19,327.16
		c0.1-6.04-0.29-8.07,2.11-8.03c1.77,0.03,2.56,1.88,2.52,3.82c-0.04,2.56-2.28,2.73-2.35,6.72c-0.09,5.54,4.34,8.4,8.8,8.47
		c4.48,0.08,9.02-2.63,9.11-8.17c0.1-5.94-3.32-12.71-18.82-12.98c-11.63-0.2-19.85,3.59-20.07,16.29l-0.12,7.29l-3.52-0.06
		l-0.05,3.22l3.52,0.06l-0.37,21.87c-0.18,10.34-1.62,20.58-3.97,23.99l25.71,0.44c-2.24-3.49-3.33-13.77-3.16-24.11l0.37-21.87
		l6.43,0.11l0.05-3.22l-6.43-0.11L462.19,327.16L462.19,327.16z M495.36,373.86c2.04,0.84,4.34,0.99,6.21,1.09
		c13.17,0.68,20.4-7.25,20.83-15.61c0.44-8.6-6.26-17.69-20.95-18.45c-16.9-0.87-26.85,11.92-27.55,25.34
		c-0.69,13.3,7.76,27.34,24.83,28.22c9.99,0.51,19.85-4.24,20.35-13.79c-2.41,3.99-6.9,6.59-11.61,6.35
		C500.02,386.62,496.53,380.98,495.36,373.86L495.36,373.86z M495.08,371.67c-0.23-2.23-0.26-4.53-0.14-6.82
		c0.56-10.83,4.44-21.53,6.97-21.4c2.16,0.11,3.97,7.82,3.58,15.25c-0.36,6.98-2.63,13.66-8.19,13.37
		c-0.72-0.04-1.54-0.19-2.21-0.41L495.08,371.67L495.08,371.67z M547.01,377.32c1.99,0.96,4.27,1.26,6.13,1.47
		c13.11,1.5,20.81-5.96,21.76-14.28c0.98-8.56-5.15-18.05-19.76-19.72c-16.81-1.92-27.55,10.23-29.07,23.58
		c-1.51,13.24,6.04,27.77,23.03,29.71c9.94,1.14,20.08-3,21.17-12.5c-2.65,3.83-7.29,6.15-11.99,5.61
		C550.86,390.35,547.73,384.5,547.01,377.32L547.01,377.32z M546.87,375.12c-0.09-2.24,0.03-4.54,0.29-6.82
		c1.23-10.78,5.77-21.21,8.29-20.92c2.15,0.25,3.47,8.05,2.63,15.45c-0.79,6.94-3.47,13.47-9.01,12.84
		c-0.71-0.08-1.52-0.29-2.18-0.54L546.87,375.12L546.87,375.12z"/>
	<path class="st0" d="M419.71,421.69c0-9.79,5.06-13.99,9.32-13.99c3.18,0,5.89,2.29,5.89,6.38c0,3.67-2.27,7.63-7,7.63
		c0,6.11,4.73,9.24,9.82,9.24c6.4,0,10.18-4.93,10.18-10.27c0-7.38-7.16-15.58-20.37-15.58c-11.54,0-22.47,6.24-22.47,17.64
		c0,4.4,1.62,9.01,5.28,12.75c-8.48,4.28-12.65,11.89-12.65,19.51c0,15.64,14.87,23.51,29.31,23.51c19.49,0,28.16-10.9,28.16-20.7
		c0-6.61-3.93-12.72-11.14-14.59l4.13-2.13c5.68-2.88,16.13-8.15,16.13-15.51c0-4.05-3.12-10.38-13.51-10.38
		c1.09,2.49,1.6,4.57,1.6,6.35c0,2.93-1.34,5.12-3.55,7.15L427.81,448c-4.7,4.34-6.67,9.3-6.67,13.33c0,4.89,2.88,8.51,7.29,8.51
		c3.72,0,8.19-2.59,8.19-6.73c0-4.07-3-5.59-5.26-6.63l-0.37-0.16c-0.78-0.33-2.03-0.89-2.03-1.61c0-0.53,0.66-1.32,2.34-2.69
		l7.06-5.71c3.69,2.53,5.35,6.35,5.35,12.59c0,11.03-7.53,17.02-15.12,17.02c-7.63,0-15.37-6.07-15.37-18.92
		c0-6.33,2.6-12.42,8.99-15.01c0.76,0.16,1.48,0.22,2.13,0.22c4.34,0,7.32-2.52,7.32-5.15c0-1.84-0.4-3.12-1.04-4
		c-0.72,0.16-1.39,0.23-2.06,0.23C422.92,433.3,419.71,427.64,419.71,421.69L419.71,421.69z"/>
	<path class="st0" d="M309.59,539.8l2.91-25.17c0.97-8.4,4.45-16.37,8.07-15.95c2.91,0.34,3.51,8.78,2.54,17.18l-0.15,1.29
		c-1.19,10.27-3.59,20.31-6.27,23.47l25.48,2.94c-1.89-3.69-1.94-14.01-0.75-24.29c0.17-1.44,0.52-2.96,0.87-4.38
		c0.55-2.36,1.17-5.16,1.5-7.98c0.86-7.47-0.41-15.3-11.4-16.56c-8.35-0.96-14.52,3.68-18.36,11.03l3.38-29.25l-21.97-2.54
		c1.97,3.79,1.86,14.68,0.63,25.34l-2.05,17.75c-1.23,10.65-3.61,21.32-6.4,24.57L309.59,539.8L309.59,539.8z M373.39,495.65
		l-22.1-0.83c2.17,3.52,3.02,13.82,2.63,24.14c-0.05,1.45-0.29,2.99-0.53,4.43c-0.37,2.41-0.77,5.24-0.87,8.07
		c-0.28,7.54,1.6,15.22,12.65,15.63c9.72,0.37,15.99-6.59,18.8-16.26c0.1-0.11,0.22-0.2,0.38-0.2c0.26,0.01,0.53,0.3,0.51,0.8
		l-0.52,13.78l19.99,0.75c-2.26-3.64-2.99-14.49-2.59-25.21l0.9-24.01l-22.1-0.83c2.26,3.62,3.02,13.76,2.62,24.48l-0.04,0.96
		c-0.32,8.46-3.17,16.67-6.81,16.53c-2.93-0.11-4.18-8.47-3.86-16.93L373.39,495.65L373.39,495.65z M428.04,539.3
		c0.68-1.04,1-2.27,0.97-3.66c-0.01-0.36-0.02-0.72-0.11-1.06c-0.55-3.88-4.58-5.72-8.62-5.63c-4.69,0.11-9.4,2.83-9.27,8.29
		c0.19,7.86,10.14,11.7,20.61,11.45c11.84-0.28,24.3-5.81,24.03-16.98c-0.19-8.12-5.42-12.15-11.25-15.24l-12.79-6.8
		c-3.55-1.89-5.28-4.75-5.34-7.19c-0.09-3.6,3.54-5.38,6.91-5.46c2.96-0.07,5.78,1.17,5.84,3.54c0.02,0.8-0.28,1.23-0.72,1.71
		c-1.03,1.21-1.27,2.03-1.24,3.39c0.11,4.75,3.43,7.33,8.42,7.21c5.45-0.13,8.8-3.45,8.71-7.2c-0.18-7.38-9.88-11.04-20.02-10.79
		c-11.36,0.27-23.3,5.46-23.05,15.85c0.13,5.41,4.49,11.1,9.94,14.18l9.99,5.63c3.85,2.17,5.9,5.45,5.96,8.17
		c0.12,4.9-3.82,7.02-6.97,7.09c-2.05,0.05-3.77-0.77-3.8-2.24C426.21,542.7,426.78,541.24,428.04,539.3L428.04,539.3z
		 M465.95,537.46c0.29,7.73,5.48,10.42,10.7,10.22c5.52-0.21,11.16-3.66,11.78-7.81c-2.98-0.36-3.91-3.39-4.04-6.81l-1.28-34.03
		l3.92-0.15l-0.12-3.22l-3.92,0.15l-0.52-13.95l-1.43,0.05c-2.17,10.01-10.66,14.37-20.08,14.72l0.12,3.22l3.45-0.13L465.95,537.46
		L465.95,537.46z M513.12,475.01l-22.06,1.75c2.67,3.33,4.66,14.04,5.51,24.74l1.5,18.91c0.82,10.31,0.39,20.62-1.62,24.24
		l25.59-2.03c-2.56-3.26-4.61-13.37-5.42-23.68L513.12,475.01L513.12,475.01z M549.64,521.9c2.14,0.54,4.43,0.36,6.3,0.19
		c13.14-1.22,19.15-10.1,18.38-18.44c-0.8-8.58-8.74-16.61-23.38-15.25c-16.85,1.56-24.87,15.65-23.63,29.03
		c1.23,13.27,11.6,25.95,28.63,24.37c9.96-0.92,19.04-7.05,18.16-16.57c-1.81,4.29-5.88,7.51-10.58,7.95
		C556.08,533.87,551.82,528.78,549.64,521.9L549.64,521.9z M549.05,519.78c-0.55-2.17-0.9-4.45-1.11-6.73
		c-1-10.8,1.3-21.94,3.83-22.17c2.16-0.2,5.05,7.17,5.74,14.58c0.64,6.96-0.64,13.9-6.19,14.41c-0.71,0.07-1.55,0.03-2.25-0.09
		L549.05,519.78L549.05,519.78z"/>
	<path class="st1" d="M479.27,439.51h48.07c0.56,0,1.02,0.46,1.02,1.02v5.7c0,0.56-0.46,1.02-1.02,1.02h-48.07
		c-0.56,0-1.02-0.46-1.02-1.02v-5.7C478.25,439.97,478.71,439.51,479.27,439.51L479.27,439.51z"/>
	<path class="st1" d="M330.49,439.51h48.07c0.56,0,1.02,0.46,1.02,1.02v5.7c0,0.56-0.46,1.02-1.02,1.02h-48.07
		c-0.56,0-1.02-0.46-1.02-1.02v-5.7C329.46,439.97,329.92,439.51,330.49,439.51L330.49,439.51z"/>
</g>
</svg>
