<?xml version="1.0" encoding="utf-8"?>
<!-- Generator: Adobe Illustrator 25.0.0, SVG Export Plug-In . SVG Version: 6.00 Build 0)  -->
<svg version="1.1" id="Layer_1" xmlns="http://www.w3.org/2000/svg" xmlns:xlink="http://www.w3.org/1999/xlink" x="0px" y="0px"
	 viewBox="0 0 864 864" style="enable-background:new 0 0 864 864;" xml:space="preserve">
<style type="text/css">
	.st0{fill-rule:evenodd;clip-rule:evenodd;fill:#333232;}
	.st1{fill:#333232;}
</style>
<g>
	<path class="st0" d="M816.94,396.72l-37.7,207.35c-0.59,3.27-3.63,5.55-6.93,5.2l-123.95-13.14c-3.44-0.36-5.96-3.39-5.68-6.78
		l6.64-210.41l-0.16-0.02c-4.48-0.48-6.88-5.06-5.06-9.09c2.36-5.63,3.89-17.33,10.46-19.93l2.72-10.65
		c0.43-2.9,1.93-5.53,4.22-7.37c2.41-1.94,5.49-2.86,8.57-2.54l135.83,14.41c3.09,0.33,5.89,1.86,7.84,4.28
		c1.84,2.27,2.76,5.17,2.58,8.08l0.58,10.63c6.61,3.3,5.83,16.35,7.09,22.35c0.89,4.21-2.61,8.08-6.88,7.64L816.94,396.72
		L816.94,396.72z M660.69,422.04l136.1,14.44l7.47-41.08L662,380.31L660.69,422.04L660.69,422.04z M775.32,554.56L656.9,542
		l-1.33,42.1L767.79,596L775.32,554.56L775.32,554.56z M657.31,529.24L777.6,542l16.9-92.96L660.29,434.8L657.31,529.24
		L657.31,529.24z M659.41,362.38c-0.32,0.92-0.82,2.98-1.24,4.71l152.52,16.18c-0.03-1.73-0.05-3.72-0.18-4.85l-0.35-0.04
		c-3.1-0.32-5.51-2.87-5.67-5.99l-0.84-16.06l-134.01-14.22l-3.85,15.18C665.19,360.32,662.46,362.45,659.41,362.38L659.41,362.38z"
		/>
	<path class="st0" d="M752.88,457.24c23.82,20.48-20.58,57.32-35.99,68.53c-13.51-13.36-40.12-46.09-30.68-66.19
		c1.5-3.26,4.17-5.96,7.99-8.03c10.85-5.94,23.6,25.19,25.83,30.84C723.7,476.98,742.97,449.23,752.88,457.24L752.88,457.24
		L752.88,457.24z"/>
	<path class="st1" d="M672.48,267.13c-4.21,5.28-9.42,12.43-14.92,15.94c-3.29,2.09-6.39,3.34-10.07,1.19
		c-3.29-1.92-3.98-5.49-3.8-9.01c0.37-7.05,2.9-13.77,5.12-20.41c1.27-3.73,3.25-7.3,4.95-10.94c3.03-6.45-4.73-10.93-8.26-4.95
		c-0.24,0.39-0.61,0.75-0.85,1.15c-1.89,3.16-1.75-2.02-9.85-3.82c-14.87-3.29-31.38,12.21-29.21,27.25
		c1.42,9.67,9.32,14.25,18.22,10.28c3.66-1.62,8.14-5.28,11.4-7.87l-0.74,6.67c-0.39,7.79,0.75,14.72,7.59,19.36
		c12.53,8.43,25.06-3,32.57-12.47c0.78,3.66,1.68,7.3,2.68,10.93c0.66,2.38,2.36,4.09,5.1,3.8c2.74-0.29,4.14-1.91,4.7-4.45
		c2.78-12.53,4.64-25.79,12.07-36.39c2.61-3.73,5.8-6.74,10.16-8.3c4.5-1.53,7.24-0.48,9.25,3.83c1.72,3.65,1.64,7.35,1.11,11.09
		c-1.14,8.51-3.42,16.77-5.13,25.16c-1.46,7.25-1.09,14.32,1.7,21.17c6.08,14.97,21,11.79,30.14,2.07c2.1-2.21,3.96-4.59,5.7-7.06
		c2.68,9,11.4,12.21,20.6,6.35c5.02-3.2,9.23-7.46,12.55-12.37c0.44-0.64,1.02-1.26,1.6-1.87l-0.14,2.64
		c-0.42,7.93-2.21,16,1.27,23.75c4.65,10.54,14.42,12.7,23.16,5.43c6.92-5.75,11.85-13.27,16.08-20.95
		c3.06-5.52-3.9-10.59-8.01-4.75c-1.52,2.19-2.62,4.47-3.98,6.55c-2.91,4.41-5.96,8.78-10.09,12.02c-3.96,3.13-6.45,2.29-8.75-2.09
		c-0.93-1.84-1.17-4.12-1.29-6.23c-0.56-8.89,1.44-17.21,3.6-25.64c4.24-16.68,9.34-26.5,16.57-41.93c1.13-2.42,0.15-4.72-2.24-5.99
		c-4.08-2.14-6.8,2.09-8.3,5.29c-4.46,9.41-8.81,18.99-14.23,28.04c-2.4,4.01-0.41-3.26-11.12-5.44c-3.26-0.72-6.58,0.18-9.88,1.67
		c-6.54,2.95-11.92,8.86-15.1,15.71c-0.46,0.33-0.89,0.76-1.29,1.3c-1.93,2.69-7.48,12.31-11.21,16.38
		c-5.88,6.42-13.02,11.82-16.37,4.84c-4.5-9.17-1.79-16.74,0.78-29.68c1.84-8.78,5.19-18.83,1.1-28.43
		c-4.02-9.36-11.68-12.99-21.34-9.63c-4.67,1.64-8.54,4.35-11.75,8.09c-5.63,6.63-9.71,14.34-11.6,22.83
		c-0.06,0.28-0.44,0.64-0.5,0.93c-1.85-4.77-1.77-13.48-1.66-18.64c0.06-2.96-1.89-4.87-4.53-5.02c-2.5-0.11-4.8,2.2-4.8,4.88
		C671.27,255.38,671.7,261.28,672.48,267.13L672.48,267.13z M134.93,166.03c-8.49,0.98-16.75,2.45-24.77,4.63
		c-2.88,0.74-4.07,0.25-5.27-2.46c-5.75-12.79-14.14-23.37-24.69-32.47c-4.07-3.44-9.11-4.18-13.9-1.48
		c-14.86,8.36-23.01,19.43-29.24,34.44c-2.4,5.66,1.2,8.36,4.07,9.59c4.31,1.97,8.15,0.74,10.55-3.94
		c5.99-11.81,10.55-19.19,17.74-23.37c2.16-1.23,4.79,0.49,6.23,2.21c5.75,6.89,11.26,13.53,15.34,21.89c0.96,1.97,0,2.46-1.44,3.2
		c-4.79,2.46-9.83,5.17-14.14,8.61c-9.59,7.63-16.3,17.71-16.78,28.78c0,15.74,7.67,26.32,19.65,29.03
		c12.46,2.71,27.56-6.89,32.36-20.17c4.07-11.32,3.36-22.63,1.44-34.19c-0.48-2.95,0-4.18,3.12-4.92c6.69-1.67,13.39-2.45,20.23-3.4
		c0.99,12.02,3.47,23.73,9.49,34.64c8.63,15.5,21.09,25.58,38.83,24.6c27.85-1.46,41.3-31.54,48.42-54.85
		c0.87-2.91,1.95-5.83,2.31-8.74l0.09-0.12c3.36-4.67,8.15-12.55,11.03-15.01c4.55-2.46,11.02-0.74,16.78-0.98l2.88,0.25
		c-0.24,0.74-0.48,1.48-0.96,2.21c-7.91,12.3-10.31,27.3-11.26,42.06c-0.96,16.48,9.11,28.29,23.73,27.55
		c8.87-0.49,15.34-6.4,20.61-13.28c5.66-7.47,10.03-15.56,13.84-23.96c4.52,10.22,11.94,18.19,24.03,22.49
		c17.98,6.4,33.79,2.21,47.94-10.58c8.17-7.46,14.2-16.24,19.29-26.13c5.9-11.25,9.68-22.05,24.09-35.61
		c2.16-1.97,4.55-0.98,5.75,0.49c9.11,11.32,18.45,22.14,25.89,34.68c1.44,2.46,1.2,3.44-1.2,5.17
		c-11.5,8.12-21.33,18.2-25.17,32.72c-5.03,19.43,4.79,36.16,23.01,37.88c12.46,1.23,25.88-7.87,30.2-21.15
		c4.79-14.76,2.88-29.27-3.12-42.8c-1.2-2.71-0.72-3.44,1.68-4.92c18.22-11.31,39.07-19.19,54.41-34.93
		c0.96-0.98,1.44-0.98,2.16,0.25c6.23,10.82,12.46,21.4,18.93,31.98c1.2,1.97,0.72,2.71-0.72,3.94
		c-6.71,5.66-13.42,11.31-18.69,18.45c-6.71,9.1-11.5,18.45-11.98,29.76c0.48,9.84,4.55,17.22,12.46,22.38
		c1.8,1.18,3.68,2.13,5.59,2.86c-2.06,1.68-3.29,4.49-3.6,7.56c-0.18,2.29,0.36,4.58,0.18,6.69c0,11.76,0.57,23.82,1.25,35.57
		c0.36,8.28,0.36,16.73,0.54,25c0.21,7.2,1.09,17.79,0.89,24.65c0,12.21,1.61,25.07,1.61,37.15c-0.19,4.61,0.28,15.21,0.71,20.6
		c0.18,1.76,0.36,4.93,3.39,7.04c2.32,1.41,4.64,2.29,7.32,1.58c4.28-1.23,8.21-2.82,12.14-4.58c7.68-3.34,14.28-7.75,21.07-12.33
		c7.32-4.93,12.85-11.62,18.57-17.96c2.86-3.34,5.36-7.22,7.68-11.27c7.03-12.21,9.93-23.52,11.25-37.33
		c1.04-11.28-1.21-21.98-5.36-32.4c-3.06-7.06-4.88-10.57-9.28-17.08c-5.73-7.91-12.6-13.18-19.99-19.01
		c-5.4-4.35-12.03-6.59-18.03-9.33c-3.3-1.55-7.54-2.92-11.89-3.98c9.65-2.87,18.36-10.57,22.95-21.9
		c6.47-15.99,3.12-31.24-4.55-45.51c-1.2-2.21-0.96-2.95,1.44-4.18c9.97-5.12,20.67-8.02,31.46-10.62
		c3.3,17.18,11.04,30.99,28.46,37.19c25.02,8.9,45.35-3.67,59.49-23.79c6.8,16.88,23.38,20.4,37.1,6.33
		c6.95-7.13,12.22-15.74,15.82-25.09c0.48-1.23,1.2-2.46,1.92-3.69l0.72,4.43c2.16,13.28,2.16,27.3,10.54,38.87
		c11.26,15.74,27.8,15.74,39.31,0.49c9.11-12.05,14.38-26.32,18.45-40.59c2.96-10.26-10.08-16.1-14.62-4.92
		c-1.68,4.18-2.64,8.36-4.07,12.3c-3.12,8.36-6.47,16.73-11.98,23.61c-5.27,6.64-9.59,6.15-14.86-0.25
		c-2.16-2.71-3.36-6.39-4.31-9.84c-4.07-14.51-3.83-29.03-3.36-43.79c0.89-29.16,5.6-47.3,11.74-75.52c0.96-4.43-1.44-7.87-5.75-9.1
		c-7.4-2.05-10.24,6.07-11.5,11.81c-3.84,17.22-7.43,34.68-12.94,51.66c-2.44,7.51-1.86-5.25-19.89-4.92
		c-5.51,0-10.54,2.71-15.34,6.4c-10.46,8.01-17.36,21.45-19.44,35.35c-0.9,1.17-1.77,2.59-2.61,4.26
		c-4.31,8.86-9.59,16.97-16.78,23.61c-9.35,8.86-19.89,11.81-32.12,7.63c-11.75-3.94-16.78-13.78-18.94-25.34
		c-0.48-2.71,0.24-3.69,2.88-4.18c13.18-2.46,23.49-9.84,31.16-21.4c3.36-5.17,5.51-11.07,5.03-17.47
		c-0.96-11.81-6.23-18.94-16.3-22.14c-9.35-2.95-18.93,0.25-25.89,9.35c-9.86,13.01-12.9,29-13.16,42.82
		c-13.13,3.51-25.85,7.53-38.37,13.27c-2.16,0.98-2.88,0.49-3.84-1.23c-7.42-13.4-18.19-26.76-21.81-41.82
		c-1.68-6.89-9.11-8.36-13.9-2.95c-15.86,17.71-33.31,26.66-53.69,38.13c-9.59,5.41-9.59,5.17-15.34-3.69l-2.88-4.18
		c-7.91-12.05-18.69-21.89-25.65-34.93c-2.64-4.92-10.07-3.94-14.86-0.25c-14.62,11.16-26.08,28.48-34.27,44.77
		c-4.31,8.86-9.59,16.97-16.78,23.61c-9.35,8.86-19.89,11.81-32.12,7.63c-11.75-3.94-16.78-13.78-18.93-25.34
		c-0.48-2.71,0.24-3.69,2.88-4.18c13.18-2.46,23.49-9.84,31.16-21.4c3.36-5.17,5.51-11.07,5.03-17.47
		c-0.96-11.81-6.23-18.94-16.3-22.14c-9.35-2.95-18.93,0.25-25.89,9.35c-8.87,11.81-11.98,25.58-12.94,37.39
		c-0.22,3.81-0.29,7.13-0.2,10.16c-0.19,0.36-0.36,0.75-0.52,1.16c-4.31,10.82-8.63,21.15-14.38,30.99
		c-2.88,4.92-6.23,9.35-10.55,12.79c-5.36,4.34-10.7,2.26-11.26-4.67c-0.24-3.2,0-6.4,0.24-9.59c1.2-14.76,6.95-27.8,14.86-40.1
		c4.55-7.13,1.44-13.77-6.95-15.5c-6.95-1.48-13.9,0-20.85,0.74c-2.4,0.25-3.36,0-2.4-2.95c1.2-3.69,2.64-7.63,3.6-11.56
		c4.55-18.2-5.27-31.24-22.53-31.24c-7.91,0-13.9,2.71-18.46,8.86c-9.59,12.79-6.95,34.68,5.75,44.52c6.71,5.17,6.71,5.17,1.44,12.3
		c-4.05,4.77-3.31,4.98-4.55,10.09c-3.36,13.77-8.63,26.81-17.26,38.13c-8.63,11.07-19.41,13.78-30.2,8.12
		c-10.79-5.66-15.58-15.99-18.22-27.55c-4.79-20.91-2.4-41.82,0.24-62.73c0.93-7.23,4.03-2.59,15.58-4.43
		c4.31-0.74,7.19-2.95,7.43-7.63c0.24-4.43-2.64-7.63-6.95-7.87c-3.12-0.25-6.23-0.49-9.11-0.25c-2.64,0.25-2.88-0.49-2.16-2.71
		l3.6-11.32c1.68-5.41,0-9.84-4.31-11.31c-4.32-1.48-8.39,0.49-10.31,5.9c-1.92,5.17-3.36,10.33-4.79,15.74
		c-0.72,2.95-1.68,4.43-5.03,3.94c-3.12-0.49-6.23,0-9.35,0c-10.51,0-10.46,15.74,0,15.74c1.92,0,3.83,0.25,5.51,0
		c4.07-0.49,4.79,0.98,4.31,4.67C136.43,143.79,135.3,154.82,134.93,166.03L134.93,166.03z M108.86,289.88
		c-1.96-4.42-5.64-10.32-9.28-13.56c-4.46-3.87-8.75-7.92-14.28-10.74c-3.75-1.76-7.5-3.7-11.78-4.93
		c-13.8-3.69-9.02-2.29-22.67-2.29c-3.39,0-6.07,0.88-8.21,3.34c-2.32,2.47-4.46,4.75-4.28,8.8c0.7,7.55,0.48,15.41,0.89,23.07
		c0.18,7.39,0.36,14.79,0.71,22.19c0.36,6.51,0.36,13.03,0.54,19.54c0,8.27,0.89,16.57,0.89,24.82c-0.31,9.15,0.24,25.2,1.25,34.16
		c0.54,5.11,0,10.39,0.54,15.49c0.53,3.7-0.18,7.57,1.25,11.27c1.25,2.82,5.71,5.63,8.93,5.28c8.7-0.95,20.17-1.26,28.21-3.17
		c9.53-2.35,17.68-4.44,24.99-11.09c7.44-6.67,9.26-17.18,2.86-25.53c-0.89-1.23-2.14-2.11-3.21-3.17
		c-4.11-4.75-9.82-6.52-15.35-8.63c-6.41-2.55-10.32-1.55-11.25-2.46c-0.18-0.18,0-0.53,0.18-0.53c2.14-1.06,3.39-2.99,5.18-4.4
		c6.74-6.32,12.17-13.25,16.96-21.13c3.39-5.2,7.72-12.28,9.1-18.31c3.04-12,2.02-10.6,2.5-22.01
		C114.19,303.5,109.88,292.38,108.86,289.88L108.86,289.88z M91.72,337.77c-3.03,4.23-5.71,8.8-9.1,12.85
		c-5,5.99-10.89,11.09-17.32,15.67c-2.68,1.76-5.18,3.87-7.85,5.63c-1.79,1.23-2.14,1.06-2.32-1.06
		c-0.53-6.16-0.18-12.33-0.71-18.31c-1.27-14.46-1.03-30.83-1.43-45.43c-0.3-7.41-0.71-15.31-0.71-22.71
		c0-4.05-0.53-7.92-0.18-11.97c0-0.35,0-0.7,0.53-0.7c3.93-1.06,7.85-1.06,11.78,0.18c7.62,2.13,8.07,1.8,15.53,5.81
		c6.56,3.41,13.62,10.48,16.6,17.25c1.71,3.72,4.95,13.93,3.93,17.96C100.47,320.42,95.99,331.9,91.72,337.77L91.72,337.77z
		 M55.84,391.82c-0.18-3.35,0.18-3.7,3.57-4.05c2.86-0.35,5.89-0.88,8.75-1.41c9.84-1.73,21.87-0.32,29.63,6.69
		c3.04,2.82,2.14,6.69,0.18,9.16c-2.68,3.17-6.43,4.58-10.35,5.81c-13.01,3.87-14.63,3.67-28.39,4.75c-2.32,0.18-2.68,0-2.86-2.47
		C56.37,404.37,56.3,397.69,55.84,391.82L55.84,391.82z M179.38,422.45c3.04-0.35,4.11-2.64,5.18-4.58
		c0.71-1.06,1.07-2.82-0.18-4.58c-1.78-2.11-4.28-4.05-7.14-3.7c-2.32,0.18-4.64,0.53-6.96,0.53c-9.64,0.53-19.1,1.23-28.74,1.76
		c-5.31,0.32-2.41-3.96-2.86-10.56c-1.26-22.44-0.57-45.89-1.25-68.67c-0.34-10.07-0.87-22.49-0.54-32.4
		c0.25-9.06-1.11-20.36-0.18-29.05c0-1.94,0.36-4.23-0.18-6.16c-1.07-4.05-2.86-5.11-7.32-5.11c-2.68,0-4.82,1.94-5.54,4.4
		c-0.89,3.45-0.47,19.53-0.18,23.42c1.25,11.09,0.07,27.95,0.36,39.79c0.31,11.07-0.07,21.99,0.53,32.92
		c0.54,12.31-0.17,25.29,0.54,37.15c0.18,5.81,0.18,11.44,0.18,17.08c0,1.76-0.53,3.7,0.18,5.46c1.96,4.4,6.07,6.69,11.25,5.46
		c4.64-1.06,9.28-0.53,14.1-1.06c5.27-0.5,17.64,0.01,21.96-1.41C175.27,423.69,177.23,422.63,179.38,422.45L179.38,422.45z
		 M197.05,420.52c1.25,1.94,3.21,3.52,6.07,3.35c4.82-0.35,9.64-0.35,14.28-0.53c7.32-0.35,14.46,0,21.78-0.35
		c6.07-0.35,12.14-0.53,18.39-0.7c1.43,0,3.21,0,4.46-0.35c2.32-0.88,4.64-2.11,5.53-4.93c0.36-1.06-0.36-1.58-0.36-2.29
		c0.18-2.47-1.43-3.7-3.21-4.75c-3.75-1.72-39.44,0-45.7,0c-2.5,0-5,0.35-7.5,0.35c-1.79,0.18-2.32-0.7-2.32-2.29
		c-0.39-6.53-0.22-13.49-0.54-20.25c-0.18-4.4-0.36-8.63-0.71-13.03c0-2.64,0-2.82,2.68-2.82c4.11-0.18,8.39,0.18,12.68,0.18
		c3.93,0,7.68-0.35,11.6,0c2.86,0.35,5-0.7,6.96-2.99c2.68-2.82,0.89-7.22-1.79-8.8c-3.57-2.11-7.68-1.58-11.43-1.76
		c-5.77,0-11.54,0-17.32,0c-3.21,0.18-3.75-0.18-3.93-3.52c0-7.17-0.71-14.68-0.71-21.83c0-11.49-0.52-23.9-1.25-35.39
		c-0.36-7.04-0.36-14.09-0.71-21.13c-0.29-4.28,3.06-2.3,6.43-2.82c3.82-0.54,9.82,0.18,13.39-0.18c10.2-0.76,22.51,0.46,33.03-0.53
		c3.84-0.36,4.9,1.58,10.53-1.94c1.78-1.06,1.78-2.99,2.32-4.58c0.71-2.29-3.21-6.16-5.89-6.34c-9.34-0.71-17.67,0.42-25.35-0.18
		c-7.92-0.6-20.25,0.09-28.21,0.53c-3.2,0.14-17.3-0.84-18.75,1.76c-2.53,4.55-0.89,7.9-0.89,11.8c0,2.64-0.18,5.28,0,7.92
		c0.76,8.14,0.57,16.18,0.89,24.12c0.48,10.47,0.28,22.44,1.07,32.57c0.36,6.16,0.54,12.5,0.71,18.66
		c0.18,6.69,0.54,13.38,0.71,20.07c0,7.79,0.71,15.66,0.71,23.59c0.36,4.4,0.54,8.63,0.71,13.03
		C194.91,416.47,195.98,418.76,197.05,420.52L197.05,420.52z M321.84,406.78c-1.43,2.64-7.5,5.63-10.53,5.46
		c-1.96,0-3.93-0.18-5.53-1.23c-2.32-1.41-4.64-2.46-6.07-4.93c-1.25-2.47-3.93-3.7-6.43-4.23c-1.43-0.35-2.86,0.88-4.11,1.94
		c-1.61,1.23-2.32,2.46-2.32,4.4c-0.18,1.94,0.36,3.87,1.43,5.11c0.97,1.43,1.93,2.86,3.16,4.03c-5.07,1.47-9.47,4.84-13.52,8.86
		c-9.23,9.3-15.97,19.79-20.96,31.48c-10.06,23.62-13.99,47.98-13.46,72.9c-2.75,1.55-5.64,2.93-8.25,3.64
		c-4.49,1.19-4.74,0.72-4.74-4.05c0-4.05-0.25-10.97-0.5-13.83c-2-24.08-19.71-40.3-45.16-41.25
		c-29.19-1.19-48.15,25.99-35.18,50.79c0.14,0.28,0.31,0.53,0.46,0.78c-2.16,0.55-3.89,2.11-5.2,4.47
		c-9.34,16.72-13.96,30.51-32.93,40.06c-13.22,6.68-32.68,5.96-43.91-7.15c-11.48-13.35-15.47-29.09-15.72-46.74l0.75-13.11
		c1-17.65,6.49-34.34,17.71-48.41c3.99-5.01,8.98-8.35,15.47-9.54c7.74-1.43,16.47,2.39,20.71,8.82c3.74,5.72,2.99,13.83-1.75,19.31
		c-1,1.19-1.75,2.38-3.74,1.67c-5.99-2.15-9.98,0-11.23,4.53c-1.25,4.53,1.25,8.82,6.74,10.73c7.48,2.62,14.97,0,20.71-6.91
		c9.48-11.45,10.48-25.99,2.74-37.67c-7.98-12.16-23.45-18.36-37.92-15.74c-14.22,2.62-23.2,11.92-30.19,23.13
		c-9.73,15.5-13.97,32.19-15.72,50.07c-2,20.51,0.25,40.06,10.73,58.66c15.72,27.9,49.15,36.01,77.09,19.31
		c10.59-6.32,18.23-14.8,24.3-24.32c5.32,13.83,19.3,24.14,35.32,24.32c19.71,0.24,31.93-10.49,40.17-26.47
		c1-1.91,2.5-3.1,4.74-3.58c5.34-1.17,10.48-2.86,15.45-4.99c1.57,16.7,5.14,32.8,12.5,48.15c4.77,9.81,11.15,18.34,20.04,24.63
		c-10.31,7.98-15.48,17.02-18.19,30.12c-1.49,6.69-0.94,21.55,0.9,28.01c3.17,12.68,9.55,25.49,16.45,36.69
		c7.58,12.87,21.94,23.87,29.28,37.95c1.81,3.43,2.53,6.87,2.53,10.66c0.18,2.89-1.08,5.42-2.35,7.77
		c-1.44,2.71-7.59,5.78-10.66,5.6c-1.99,0-3.98-0.18-5.6-1.27c-2.35-1.45-4.7-2.53-6.14-5.06c-1.27-2.53-3.98-3.79-6.51-4.34
		c-1.45-0.36-2.89,0.9-4.16,1.99c-1.63,1.27-2.35,2.53-2.35,4.52c-0.18,1.99,0.36,3.98,1.45,5.24c1.08,1.63,2.17,3.25,3.61,4.52
		c7.8,6.9,15.65,10.17,26.2,7.05c7.05-1.99,12.47-5.96,16.27-12.11c2.35-3.61,3.8-7.59,3.98-11.75
		c1.14-20.23-15.39-34.91-27.47-49.88c-6.7-8.13-9.55-12.95-14.28-22.41c-1.99-3.8-3.43-7.59-5.06-11.39
		c-2.9-6.43-3.79-20.65-2.89-27.47c0.72-5.6,2.89-10.66,5.42-15.54c1.63-3.19,7.3-7.84,10.3-9.58c1.34-0.79,2.69-1.51,4.08-2.07
		c4.18,1.01,7.94,0.72,11.12-0.75c5.8,0.95,11.05,3.54,15.35,8.25c8.2,9.16,11.03,15.19,13.01,27.47
		c1.59,10.48-2.77,17.43,4.16,21.51c1.99,1.26,4.88,1.45,6.51-0.36c1.63-1.45,3.25-2.71,3.07-5.6c0-3.61,0.54-7.23,0.54-10.84
		c-0.18-5.78-1.26-11.75-2.89-17.35c-1.99-6.51-5.06-12.65-9.22-18.07c-5.52-7.73-10.35-11.07-18.61-15.54
		c-0.82-0.46-1.75-0.88-2.76-1.25c3.16-10,0.69-19.56-3.22-28.88c-5.74-13.59-12.47-26.71-23.2-36.96c-0.5-0.48-1-1.19-1.5-1.91
		c0.5,0,1-0.48,1.5-0.48c16.47,0,31.69-2.86,46.16-9.78c1.5-0.72,2.25-0.72,2.25,1.43c0,26.65,3.45,51.34,20.96,73.2
		c2.94,3.67,6.08,7.05,9.61,9.89c-3.39,0.18-6.29,0.65-6.91,1.78c-2.56,4.67-0.9,8.1-0.9,12.11c0,14.96,0.98,30.05,1.63,45
		c0.69,13.11,0.71,27.28,1.08,40.48c0.18,6.87,0.54,13.73,0.72,20.6c0,12.16,0.96,25.37,1.45,37.59c-0.54,2.35,0.54,4.7,1.63,6.51
		c1.27,1.99,3.25,3.61,6.15,3.43c4.88-0.36,9.76-0.36,14.46-0.54c13.27-0.65,27.27-0.7,40.66-1.08c1.45,0,3.25,0,4.52-0.36
		c2.35-0.9,4.7-2.17,5.6-5.06c0.36-1.08-0.36-1.63-0.36-2.35c0.18-2.53-1.45-3.8-3.25-4.88c-2.38-1.54-14.21-1.01-17.89-0.72
		c-9.37,0.45-19,0.72-28.37,0.72c-2.53,0-5.06,0.36-7.59,0.36c-1.81,0.18-2.35-0.72-2.35-2.35c-0.18-3.07,0-6.14,0-9.04
		c0.32-7.07-0.68-17.85-1.26-25.12c0-2.71,0-2.89,2.71-2.89c4.16-0.18,8.49,0.18,12.83,0.18c3.98,0,7.77-0.36,11.75,0
		c2.89,0.36,5.06-0.72,7.05-3.07c2.71-2.89,0.9-7.41-1.81-9.04c-3.61-2.17-7.77-1.63-11.57-1.81c-5.84,0-11.68,0-17.53,0
		c-3.25,0.18-3.8-0.18-3.98-3.61c0-13.62-0.88-27.89-1.27-41.57c-0.18-5.6-0.36-11.39-0.72-17.17c-0.36-7.23-0.36-14.46-0.72-21.69
		c-0.29-4.39,3.1-2.36,6.51-2.89c13.78-1.97,32.48,0.66,46.99-0.72c3.88-0.37,4.96,1.62,10.66-1.99c1.81-1.08,1.81-3.07,2.35-4.7
		c0.72-2.35-3.25-6.32-5.96-6.51c-9.46-0.73-17.91,0.43-25.66-0.18c-0.99-0.08-2.07-0.13-3.23-0.17c1.5-2.73,2.29-5.99,2.15-9.63
		c-0.25-6.91-2.74-13.11-6.24-19.08c-6.74-11.45-14.72-21.46-24.2-30.52c-0.5-0.48-0.75-1.19-1.25-1.67c0.75-0.24,1.25-0.48,2-0.48
		c17.44,0,32.62-5.85,46.98-13.96c2.21,17.58,13.92,33.28,31.36,39.95c28.94,10.97,55.89,6.2,79.84-12.16
		c2.5-1.91,3.74-1.67,5.74,0.48c11.23,12.16,26.69,15.74,43.16,10.25c23.95-8.11,37.17-26.94,47.15-47.69
		c1.75-3.58,0.5-7.39-3.74-9.3c-8.28-3.72-11,4.55-14.97,10.49c-7.98,11.92-15.72,24.08-29.94,30.28
		c-9.73,4.29-18.71,3.34-27.19-2.38c-6.24-4.29-5.99-4.29-1.25-9.78l2.99-3.82c11.73-14.07,19.46-30.52,20.71-45.54
		c0-11.44-2-16.45-6.74-20.74c-9.73-8.82-23.95-7.39-32.18,3.58c-15.22,20.27-19.46,42.44-10.23,65.81c0.75,1.91,0.75,3.1-1,4.53
		c-14.72,12.16-32.18,17.88-52.14,15.5c-18.71-2.15-30.94-12.4-34.93-29.09c-0.75-3.1,0.25-3.82,2.99-4.77
		c20.21-6.91,33.93-20.27,41.17-39.82c3.49-9.54,0-19.08-7.48-24.08c-13.78-9.34-29.72,0.08-38.17,12.88
		c-7.66,11.59-12.05,23.7-14.26,36.92c-4.43,2.5-8.46,5.19-12.93,7.67c-17.21,9.54-35.18,11.45-54.64,6.2
		c-1.75-0.48-3.74-0.48-3.49-3.58c0.25-3.82,0.25-9.78,2.25-10.97c11.98-7.15,22.45-15.02,30.94-25.75
		c13.47-17.17,23.95-35.29,23.95-57.47c0-7.95-2.89-13.81-7.51-16.92c2.58,0.07,5.31-0.29,8.25-1.15
		c6.96-1.94,12.32-5.81,16.07-11.8c2.32-3.52,3.75-7.39,3.93-11.44c1.12-19.72-15.25-34.07-27.14-48.59
		c-6.61-7.92-9.42-12.59-14.1-21.83c-1.96-3.7-3.39-7.39-5-11.09c-2.86-6.26-3.74-20.1-2.86-26.76c0.71-5.46,2.86-10.39,5.36-15.14
		c2.81-5.43,13.32-12.5,19.82-12.5c7.85,0,15,2.46,20.53,8.45c3.04,3.35,6.25,6.87,8.21,11.09c2.32,4.93,3.75,10.21,4.64,15.67
		c1.58,10.24-2.74,16.98,4.11,20.95c1.96,1.23,4.82,1.41,6.43-0.35c1.61-1.41,3.21-2.64,3.04-5.46c0-3.52,0.54-7.04,0.54-10.57
		c-0.18-5.63-1.25-11.44-2.86-16.9c-1.96-6.34-5-12.32-9.11-17.61c-5.47-7.55-10.26-10.8-18.39-15.14
		c-9.57-5.25-28.24-4.27-36.6,3.35c-12.51,9.25-19.46,24.19-19.46,39.62c0,13.11,1.58,20.54,6.61,32.57
		c1.34,2.94,5.25,11.38,6.96,13.91c1.91,3.76,7.03,11.74,10,14.44c4,3.58,7.83,9.53,11.78,13.73c4.28,4.93,8.39,9.86,11.43,15.67
		c1.79,3.35,2.5,6.69,2.5,10.39c0.18,2.82-1.07,5.28-2.32,7.57c-2.31,4.27-11.57,7.18-16.07,4.23c-2.32-1.41-4.64-2.46-6.07-4.93
		c-1.25-2.47-3.93-3.7-6.43-4.23c-1.43-0.35-2.86,0.88-4.11,1.94c-1.61,1.23-2.32,2.46-2.32,4.4c-0.18,1.94,0.36,3.87,1.43,5.11
		c1.07,1.58,2.14,3.17,3.57,4.4c2.6,2.27,5.2,4.13,7.9,5.49c-3.55,0.19-7.44,1.39-11.45,3.71c-9.48,5.48-16.22,13.11-21.46,22.18
		c-11.98,20.74-17.71,43.4-22.45,66.53c-0.25,1.19-0.25,2.38-1.75,3.1c-13.97,6.68-28.44,12.88-44.66,11.92h-9.23
		c-0.75,0-1.5-0.48-2.25-0.72c0.5-0.48,0.75-1.19,1.5-1.67c19.46-12.4,28.44-34.34,37.42-54.6c4.74-10.73,7.74-21.94,5.24-33.62
		c-1.22-5.69-3.32-10.81-6.73-14.85c0.78-0.16,1.58-0.36,2.39-0.6c6.96-1.94,12.32-5.81,16.07-11.8c2.32-3.52,3.75-7.39,3.93-11.44
		c1.12-19.72-15.25-34.07-27.14-48.59c-2.5-2.99-5.36-5.81-7.32-9.33c-4.58-8-8.12-15.16-11.78-23.59
		c-2.86-6.26-3.74-20.1-2.86-26.76c0.71-5.46,2.86-10.39,5.36-15.14c2.81-5.43,13.32-12.5,19.82-12.5c7.85,0,15,2.46,20.53,8.45
		c3.03,3.35,6.25,6.87,8.21,11.09c2.32,4.93,3.75,10.21,4.64,15.67c1.58,10.24-2.74,16.98,4.11,20.95c1.96,1.23,4.82,1.41,6.43-0.35
		c1.61-1.41,3.21-2.64,3.03-5.46c0-3.52,0.54-7.04,0.54-10.57c-0.18-5.63-1.25-11.44-2.86-16.9c-1.96-6.34-5-12.32-9.11-17.61
		c-5.47-7.55-10.26-10.8-18.39-15.14c-6.92-3.8-21.36-4.78-28.39-1.06c-4.93,2.59-8.11,3.79-12.5,7.57
		c-6.95,6.29-12.55,17.66-14.46,26.76c-0.61,2.71-1.23,13.04-0.71,15.85c1.06,11.53,2.34,16.19,6.61,26.41
		c1.34,2.94,5.25,11.38,6.96,13.91c3.82,7.54,9.34,13.88,15,20.07c1.96,2.82,4.46,5.63,6.78,8.1c4.28,4.93,8.39,9.86,11.43,15.67
		c1.78,3.35,2.5,6.69,2.5,10.39C324.34,402.03,323.09,404.5,321.84,406.78L321.84,406.78z M464.48,420.52
		c1.25,1.94,3.21,3.52,6.07,3.35c4.82-0.35,9.64-0.35,14.28-0.53c7.32-0.35,14.46,0,21.78-0.35c6.07-0.35,12.14-0.53,18.39-0.7
		c1.43,0,3.21,0,4.46-0.35c2.32-0.88,4.64-2.11,5.53-4.93c0.36-1.06-0.36-1.58-0.36-2.29c0.18-2.47-1.43-3.7-3.21-4.75
		c-3.39-2.17-7.7-0.6-10.53-0.7c-10.58-0.8-24.06,0.7-35.17,0.7c-2.5,0-5,0.35-7.5,0.35c-1.79,0.18-2.32-0.7-2.32-2.29
		c-0.66-11.09-0.31-21.7-1.25-33.28c0-2.64,0-2.82,2.68-2.82c4.11-0.18,8.39,0.18,12.68,0.18c3.93,0,7.68-0.35,11.6,0
		c2.86,0.35,5-0.7,6.96-2.99c2.68-2.82,0.89-7.22-1.79-8.8c-5.3-3.14-11.74-1.07-17.49-1.58c-3.75-0.18-7.5-0.18-11.25-0.18
		c-3.21,0.18-3.75-0.18-3.93-3.52c0-7.17-0.71-14.68-0.71-21.83c0-11.49-0.52-23.9-1.25-35.39c-0.36-7.04-0.36-14.09-0.71-21.13
		c-0.29-4.28,3.06-2.3,6.43-2.82c3.82-0.54,9.82,0.18,13.39-0.18c10.2-0.76,22.51,0.46,33.03-0.53c3.84-0.36,4.9,1.58,10.53-1.94
		c1.79-1.06,1.79-2.99,2.32-4.58c0.71-2.29-3.21-6.16-5.89-6.34c-9.34-0.71-17.67,0.42-25.35-0.18c-7.92-0.6-20.25,0.09-28.21,0.53
		c-3.2,0.14-17.3-0.84-18.75,1.76c-2.53,4.55-0.89,7.9-0.89,11.8c0,2.64-0.18,5.28,0,7.92c0.76,8.14,0.57,16.18,0.89,24.12
		c0.18,3.87,0.54,7.75,0.71,11.8c0.68,12.76,0.7,26.59,1.07,39.44c0.18,6.69,0.54,13.38,0.71,20.07c0,7.73,0.71,15.75,0.71,23.59
		c0.36,4.4,0.54,8.63,0.71,13.03C462.34,416.47,463.41,418.76,464.48,420.52L464.48,420.52z M610.15,367.7
		c-3.05,8.36-8.66,16.48-14.82,22.89c-10.91,11.28-14.8,14-28.74,21.13c-1.61,0.88-3.21,1.58-5,2.29c-1.07,0.35-1.61,0.35-1.61-1.06
		c0.18-1.94-0.18-4.05,0-5.99c-1.28-26.67-2.08-55.44-2.85-81.52c0-12.67-1.25-25.71-1.25-38.38c-0.18-3.17-0.36-6.52-0.36-9.68
		c0-1.06,0.53-1.41,1.61-1.58c2.5-0.35,4.46,1.23,6.6,1.76c10.15,2.34,15.49,5.9,23.92,11.09c5.68,3.29,16.33,15.08,19.28,20.42
		c2.86,5.28,4.82,10.74,6.43,16.55c1.43,4.75,1.96,9.68,2.32,14.79C615.01,351.52,614.24,357.34,610.15,367.7L610.15,367.7z
		 M214.05,532.29c-1,6.68-2,8.11-11.48,6.91c-10.48-1.19-26.2-5.01-35.18-15.98c-6.49-7.87-7.48-15.5-2.74-23.37
		c4.24-6.92,14.22-10.73,23.45-9.3c17.96,2.86,26.7,14.55,26.45,34.81C214.54,526.81,214.3,530.63,214.05,532.29L214.05,532.29z
		 M206.06,554.71l-1.75,2.86c-6.24,9.06-17.21,10.97-27.69,7.63c-7.98-2.62-13.72-10.97-13.72-20.98c0-0.24,0-1.19,0.5-2.15
		c0.75,0.48,1.75,0.95,2.74,1.43c12.23,5.72,23.45,10.97,36.67,10.97C203.82,554.47,205.06,554.71,206.06,554.71L206.06,554.71z
		 M285.65,441.21c2-2.38,4.49-4.53,6.99-6.68c4.24-3.58,7.74-3.1,10.98,1.67c3.74,5.48,4.24,11.92,2.49,17.88
		c-7.48,25.51-19.71,49.12-41.67,65.81c-1.25,0.95-2.5,2.15-4.24,2.15c-0.25,0-0.5-0.24-0.5-4.29
		C261.7,490.09,266.94,463.62,285.65,441.21L285.65,441.21z M356.75,505.11c-0.75,0.71-2,1.19-2.99,1.67
		c0.25-0.95,0.25-1.91,0.5-2.86c4.99-19.55,10.23-39.34,23.7-55.08c2.25-2.62,4.24-5.48,7.48-7.15c1.75-0.95,3.74-3.1,5.74-2.15
		c1.75,0.72,1.25,3.58,1.5,5.96C390.74,469.56,373.39,489.21,356.75,505.11L356.75,505.11z M295.38,611.7
		c-1.75,0.95-4.24-1.19-5.99-2.38c-9.48-6.44-15.97-15.26-19.96-25.51c-5.22-13.21-8.73-22.65-8.73-36.72c0.5,0.24,1,0.24,1.5,0.72
		c15.47,14.78,28.19,31.24,34.18,51.5c0.5,1.67,0.75,3.81,1,5.25C297.13,607.4,297.62,610.51,295.38,611.7L295.38,611.7z
		 M382.95,613.37c-6.74-2.62-11.48-6.91-15.72-12.16c-8.73-10.73-15.22-23.37-15.22-37.2v-1.43c0.5,0,0.75,0.24,1.25,0.48
		c16.47,7.87,26.2,25.04,33.18,41.73c0.5,1.19,0.75,2.62,1.25,3.82c0.25,0.48,0,1.19,0,1.91
		C387.69,614.56,385.44,614.32,382.95,613.37L382.95,613.37z M464.53,502.01c-4.99,9.54-13.72,15.74-22.95,21.7
		c-0.75,0.48-1.5,0.48-2.24,0.95c0-0.72,0.25-1.67,0.25-2.15c1.75-8.11,5.24-17.88,11.23-25.51c2.25-2.86,4.74-5.48,8.23-7.15
		c2-0.95,3.74-1.91,5.99-0.48C469.22,491.96,465.92,499.36,464.53,502.01L464.53,502.01z M548.36,498.91
		c1.75-2.38,3.74-4.53,7.24-3.34c3.49,1.19,3.99,4.05,3.74,6.91c-1,12.4-6.24,23.37-13.47,33.62c-1.67,2.6-3.28,5.91-5.99,7.63
		c-1.82-3.48-1.5-7.73-1.5-11.68C538.38,520.13,541.12,508.93,548.36,498.91L548.36,498.91z M100.05,792.22
		c3.1-1.4,11.24-7.1,13.73-9.94c7.57-8.62,14.66-19.79,19.52-30.18c5.85-12.68,8.88-28.79,11.03-42.47
		c0.9-5.78,0.9-11.75,1.26-17.71c0-12.49-1.71-23.54-4.16-35.78c-1.81-4.52-3.43-9.04-5.24-13.55c-2.17-4.88-5.06-9.22-8.31-13.19
		c-6.46-7.99-13.81-12.34-23.85-14.1c-11.63-2.33-30.03,6.85-36.87,16.63c-6.44,7.24-13.74,20.07-18.07,28.73
		c-3.15,6.75-6.18,18.18-8.13,25.48c-1.85,6.65-4.07,25.08-3.79,32.17c0.84,9.67-0.42,19.9,2.71,29.28
		c2.98,10.72,3.33,14.42,8.67,25.12c4.13,8.25,6.66,10.09,12.65,16.08c6.59,6.29,14.41,8.13,23.13,8.13
		C89.93,796.74,94.99,794.75,100.05,792.22L100.05,792.22z M71.86,779.75c-6.26-4.26-12.11-13.07-14.64-20.24
		c-4.03-10.07-4.12-18.41-5.96-28.55c-1.08-5.23-0.48-18.97,0.54-24.76c1.65-9.9,1.88-17.92,5.78-27.83
		c3.31-8.98,3.92-13.4,9.22-22.23c6.74-11.46,15.54-24.74,29.64-27.11c10.29-1.73,19.01,5.12,24.04,13.55
		c4.34,7.05,6.87,14.64,8.85,22.59c2.24,9.3,2.35,22.38,2.35,31.81c0,13.36-3.99,31.26-8.68,43.73c-2.2,5.9-7,16.8-11.2,21.69
		c-7.21,8.11-6.82,12.69-19.34,18.25c-2.89,1.45-5.96,2.71-9.58,2.71C78.91,783.37,75.29,782.1,71.86,779.75L71.86,779.75z
		 M237.62,651.08c-1.98-4.52-5.7-10.59-9.4-13.92c-4.52-3.98-8.86-8.13-14.46-11.02c-15.21-7.24-18.46-7.41-34.88-7.41
		c-3.43,0-6.15,0.9-8.31,3.43c-2.35,2.53-4.52,4.88-4.34,9.04c0.69,7.57,0.5,15.93,0.9,23.67c0.18,7.59,0.36,15.18,0.72,22.77
		c1.71,31.59-0.01,65.01,3.25,96.5c0.54,3.79-0.18,7.77,1.27,11.57c1.26,2.89,5.78,5.78,9.04,5.42c8.8-0.98,20.43-1.3,28.55-3.25
		c6.36-1.59,11.43-3.34,17.53-5.78c3.07-1.08,5.42-3.43,7.77-5.6c7.54-6.86,9.37-17.64,2.89-26.2c-4.51-6.31-11.83-9.41-18.8-12.11
		c-6.52-2.64-10.44-1.59-11.38-2.53c-0.18-0.18,0-0.54,0.18-0.54c2.17-1.08,3.43-3.07,5.24-4.52c3.61-3.43,7.05-7.23,10.12-11.2
		c3.03-4.11,9.95-13.75,11.75-18.25c2.85-7.11,6.67-14.45,7.41-22.23C243.64,669.35,241.12,659.82,237.62,651.08L237.62,651.08z
		 M227.5,684.15c-2.62,9.96-9.87,21.32-16.45,29.28c-5.06,6.15-11.02,11.39-17.53,16.08c-2.71,1.81-5.24,3.98-7.95,5.78
		c-1.81,1.27-2.17,1.08-2.35-1.08c-0.54-6.32-0.18-12.65-0.72-18.8c-0.36-4.16,0-8.49-0.36-12.65c-1.36-17.63-1.81-39.39-1.81-57.29
		c0-4.16-0.54-8.13-0.18-12.29c0-0.36,0-0.72,0.54-0.72c3.98-1.08,7.95-1.08,11.93,0.18c10.99,3.12,16.42,5.02,24.94,13.01
		c3.25,3.07,5.78,6.51,7.59,10.66c1.81,3.98,3.43,8.13,3.61,12.65C229.28,675.19,229.47,677.85,227.5,684.15L227.5,684.15z
		 M183.95,755.72c-0.18-3.43,0.18-3.8,3.61-4.16c2.89-0.36,5.96-0.9,8.85-1.45c9.99-1.79,22.15-0.31,30,6.87
		c3.07,2.89,2.17,6.87,0.18,9.4c-2.71,3.25-6.51,4.7-10.48,5.96c-13.16,3.97-14.81,3.76-28.73,4.88c-2.35,0.18-2.71,0-2.89-2.53
		c0-1.57,0-3.13,0-4.7C184.67,765.29,184.31,760.41,183.95,755.72L183.95,755.72z M495.46,771.08c-1.44,2.71-7.59,5.78-10.66,5.6
		c-1.99,0-3.98-0.18-5.6-1.27c-2.35-1.45-4.7-2.53-6.14-5.06c-1.27-2.53-3.98-3.79-6.51-4.34c-1.45-0.36-2.89,0.9-4.16,1.99
		c-1.63,1.27-2.35,2.53-2.35,4.52c-0.18,1.99,0.36,3.98,1.45,5.24c1.08,1.63,2.17,3.25,3.61,4.52c7.8,6.9,15.65,10.17,26.2,7.05
		c7.05-1.99,12.47-5.96,16.27-12.11c2.35-3.61,3.8-7.59,3.98-11.75c1.14-20.23-15.39-34.91-27.47-49.88
		c-2.53-3.07-5.42-5.96-7.41-9.58c-4.64-8.21-8.23-15.58-11.93-24.22c-2.9-6.43-3.79-20.65-2.89-27.47
		c0.72-5.6,2.89-10.66,5.42-15.54c2.82-5.54,13.45-12.83,20.06-12.83c7.95,0,15.18,2.53,20.78,8.67c3.07,3.43,6.32,7.05,8.31,11.39
		c2.35,5.06,3.8,10.48,4.7,16.08c1.59,10.48-2.77,17.43,4.16,21.51c1.99,1.26,4.88,1.45,6.51-0.36c1.63-1.45,3.25-2.71,3.07-5.6
		c0-3.61,0.54-7.23,0.54-10.84c-0.18-5.78-1.26-11.75-2.89-17.35c-3.06-10-8.22-17.98-15.54-25.3c-3.43-3.79-7.95-5.96-12.29-8.31
		c-7-3.89-21.62-4.91-28.73-1.08c-14.66,7.82-23.9,18.86-27.29,35.24c-1.49,6.71-1.07,21.11,0.9,28.01
		c1.55,6.21,2.56,9.28,5.06,15.36c3.27,7.28,11.59,23.95,17.17,29.1c4.05,3.68,7.92,9.78,11.93,14.1
		c4.34,5.06,8.49,10.12,11.56,16.08c1.81,3.43,2.53,6.87,2.53,10.66C497.99,766.2,496.72,768.73,495.46,771.08L495.46,771.08z
		 M593.81,771.08c-1.45,2.71-7.59,5.78-10.66,5.6c-4.23,0-9.61-2.58-11.75-6.32c-1.27-2.53-3.98-3.79-6.51-4.34
		c-1.45-0.36-2.89,0.9-4.16,1.99c-1.63,1.27-2.35,2.53-2.35,4.52c-0.18,1.99,0.36,3.98,1.45,5.24c1.08,1.63,2.17,3.25,3.61,4.52
		c7.8,6.9,15.65,10.17,26.2,7.05c7.05-1.99,12.47-5.96,16.27-12.11c2.35-3.61,3.8-7.59,3.97-11.75
		c1.14-20.23-15.39-34.91-27.47-49.88c-6.7-8.13-9.55-12.95-14.28-22.41c-1.99-3.8-3.43-7.59-5.06-11.39
		c-2.9-6.43-3.79-20.65-2.89-27.47c0.72-5.6,2.89-10.66,5.42-15.54c2.82-5.54,13.45-12.83,20.06-12.83
		c12.78,0,23.85,8.62,29.1,20.06c2.35,5.06,3.8,10.48,4.7,16.08c1.59,10.48-2.77,17.43,4.16,21.51c1.99,1.26,4.88,1.45,6.51-0.36
		c1.63-1.45,3.25-2.71,3.07-5.6c0-3.61,0.54-7.23,0.54-10.84c-0.18-5.78-1.27-11.75-2.89-17.35c-3.06-10-8.22-17.98-15.54-25.3
		c-3.43-3.79-7.95-5.96-12.29-8.31c-7-3.89-21.62-4.91-28.73-1.08c-14.2,7.57-12.52,7.77-21.69,20.24
		c-4.95,6.88-7.8,23.15-6.33,31.26c0.96,10.53,2.63,17.25,6.69,27.11c3.28,7.28,11.59,23.95,17.17,29.1
		c4.05,3.68,7.92,9.78,11.93,14.1c4.34,5.06,8.49,10.12,11.57,16.08C596.94,758.92,597.15,764.88,593.81,771.08L593.81,771.08z
		 M651.51,785.17c1.27,1.99,3.25,3.61,6.14,3.43c4.88-0.36,9.76-0.36,14.46-0.54c13.27-0.65,27.27-0.7,40.66-1.08
		c1.45,0,3.25,0,4.52-0.36c2.35-0.9,4.7-2.17,5.6-5.06c0.36-1.08-0.36-1.63-0.36-2.35c0.18-2.53-1.45-3.8-3.25-4.88
		c-3.43-2.22-7.79-0.61-10.66-0.72c-10.68-0.82-24.37,0.72-35.6,0.72c-2.53,0-5.06,0.36-7.59,0.36c-1.81,0.18-2.35-0.72-2.35-2.35
		c-0.18-3.07,0-6.14,0-9.04c0.18-3.97-0.36-7.77-0.54-11.75c-0.18-4.52-0.36-8.86-0.72-13.37c0-2.71,0-2.89,2.71-2.89
		c4.16-0.18,8.49,0.18,12.83,0.18c3.98,0,7.77-0.36,11.75,0c2.89,0.36,5.06-0.72,7.05-3.07c2.71-2.89,0.9-7.41-1.81-9.04
		c-3.61-2.17-7.77-1.63-11.57-1.81c-1.99,0-4.16,0.36-6.14,0.18c-3.8-0.18-7.59-0.18-11.39-0.18c-3.25,0.18-3.79-0.18-3.98-3.61
		c0-3.25-0.36-6.51-0.36-9.94c0.18-4.16-0.36-8.31-0.36-12.47c0-11.8-0.53-24.52-1.27-36.32c-0.36-7.23-0.36-14.46-0.72-21.69
		c-0.29-4.39,3.1-2.36,6.51-2.89c3.85-0.55,9.97,0.18,13.55-0.18c10.31-0.78,22.79,0.47,33.43-0.54c3.88-0.37,4.96,1.62,10.66-1.99
		c1.81-1.08,1.81-3.07,2.35-4.7c0.72-2.35-3.25-6.32-5.96-6.51c-15.76-1.21-38.32-0.52-54.22,0.36c-3.25,0.14-17.51-0.86-18.97,1.81
		c-2.56,4.67-0.9,8.1-0.9,12.11c0,15.15,0.97,29.93,1.63,45c0.69,13.11,0.71,27.28,1.08,40.48c0.18,6.87,0.54,13.73,0.72,20.6
		c0,7.88,0.72,16.28,0.72,24.22c0.36,4.52,0.54,8.86,0.72,13.37C649.34,781.02,650.42,783.37,651.51,785.17L651.51,785.17z
		 M744.62,792.4c2.35,1.45,4.7,2.35,7.41,1.63c4.34-1.27,8.31-2.89,12.29-4.7c7.77-3.43,14.46-7.95,21.32-12.65
		c7.41-5.06,13.01-11.93,18.79-18.43c11.77-13.97,17.48-31.98,19.16-49.88c1.63-17.61-4.91-36.42-14.82-50.78
		c-3.61-5.06-8.31-8.85-12.29-13.37c-4.84-6.05-19.3-12.53-26.2-15.72c-6.85-3.26-17.74-5.74-25.3-6.32
		c-5.37-0.45-8.52,4.14-9.04,9.4c-0.18,2.35,0.36,4.7,0.18,6.87c0,12.07,0.58,24.45,1.27,36.51c0.36,8.49,0.36,17.17,0.54,25.66
		c0.38,13.18,1.89,28.37,1.45,41.39c0,7.2,1.08,14.96,1.08,22.05c-0.2,4.76,0.28,15.59,0.72,21.15
		C741.37,786.98,741.55,790.23,744.62,792.4L744.62,792.4z M808.05,721.2c-3.19,8.19-4.11,14.57-9.58,22.23
		c-11.26,15.76-20.35,23.68-37.77,32.71c-1.63,0.9-3.25,1.63-5.06,2.35c-1.08,0.36-1.63,0.36-1.63-1.08c0.18-1.99-0.18-4.16,0-6.15
		c0.34-10.46-0.94-23.21-1.26-33.97c-0.28-10.08-0.13-21.28-1.08-31.26c-0.66-11.23-0.69-22.85-1.08-34.16
		c0-7.76-0.72-15.94-0.72-23.67c-0.18-3.25-0.36-6.69-0.36-9.94c0-1.08,0.54-1.45,1.63-1.63c3.04-0.43,19.4,6.27,22.41,7.77
		c5.12,2.56,12.56,7.92,16.44,12.11c10.35,11.83,13.82,15.69,18.07,31.27C810.78,696.97,811.32,712.23,808.05,721.2L808.05,721.2z
		 M635.68,251.77c-2.43,2.99-13.86,17.11-19.06,13.6c-2.33-1.56-2.08-4.03-1.73-5.58c2.01-9.06,9.67-14.79,17-14.36
		c0.88,0.05,1.7,0.38,2.52,0.71C637.67,247.46,637.93,249,635.68,251.77L635.68,251.77z M780.1,286.45
		c-3.57,4.71-6.99,9.44-11.76,12.84c-1.76,1.24-3.55,2.63-5.66,1.42c-3.68-2.07-1.98-8.22-1.01-11.51
		c1.87-6.42,5.48-12.01,12.4-15.08c4.45-1.99,7.36,0.29,8.12,4.92C782.7,282.12,781.77,284.29,780.1,286.45L780.1,286.45z
		 M90.27,226.25c-3.59,2.46-7.67,4.43-11.74,1.23s-5.27-7.38-4.07-12.55c2.64-11.32,11.98-16.73,21.09-22.14
		c1.68-0.98,1.68,0.98,1.68,1.72c0,3.69,0.72,7.38,0.96,10.33C97.94,213.46,97.7,221.33,90.27,226.25L90.27,226.25z M242.7,122.93
		c-0.48,7.63-2.4,13.77-5.27,19.43c-0.72,1.48-1.44,1.23-2.88,0.74c-7.91-2.71-11.5-16.48-6.47-23.37
		c2.64-3.69,6.23-3.94,10.31-2.71C241.99,118.01,242.94,120.72,242.7,122.93L242.7,122.93z M321.56,157.62
		c1.92-9.84,3.59-19.68,11.26-26.81c5.22-4.86,12.63-1.49,12.46,5.41c-0.48,9.59-13.66,22.38-22.29,22.38
		C322.28,158.6,321.32,158.85,321.56,157.62L321.56,157.62z M468.72,234.61c-3.36,5.41-10.55,8.36-16.06,6.4
		c-5.03-1.72-7.91-7.63-6.47-14.76c2.4-12.3,10.79-19.92,19.89-26.57c1.68-1.23,1.92,0.49,2.16,1.48c1.44,5.9,3.6,11.81,3.84,17.47
		C472.08,224.53,471.6,229.94,468.72,234.61L468.72,234.61z M555.49,249.37c-7.67,0-13.18-6.4-11.98-14.02
		c2.16-13.28,11.74-21.89,20.85-30.5c2.88-2.71,4.31-2.21,5.75,1.48c2.4,5.9,4.55,12.05,4.79,16.97
		C575.14,238.06,566.03,249.37,555.49,249.37L555.49,249.37z M630.27,157.62c1.92-9.84,3.59-19.68,11.27-26.81
		c5.22-4.86,12.64-1.49,12.46,5.41c-0.48,9.59-13.66,22.38-22.29,22.38C630.98,158.6,630.03,158.85,630.27,157.62L630.27,157.62z
		 M744.83,163.52c-4.07,9.1-7.91,18.2-14.38,25.58c-2.4,2.71-4.79,5.66-8.63,4.43c-4.08-1.23-4.79-4.67-5.51-8.36
		c-0.72-3.2-0.48-6.89-0.24-10.33c0.72-11.32,4.55-21.89,14.62-29.52c6.47-4.92,11.99-2.21,14.86,5.17
		C747.47,155.4,746.75,159.34,744.83,163.52L744.83,163.52z"/>
</g>
</svg>
