<?xml version="1.0" encoding="utf-8"?>
<!-- Generator: Adobe Illustrator 25.0.0, SVG Export Plug-In . SVG Version: 6.00 Build 0)  -->
<svg version="1.1" id="Layer_1" xmlns="http://www.w3.org/2000/svg" xmlns:xlink="http://www.w3.org/1999/xlink" x="0px" y="0px"
	 viewBox="0 0 864 864" style="enable-background:new 0 0 864 864;" xml:space="preserve">
<style type="text/css">
	.st0{fill-rule:evenodd;clip-rule:evenodd;}
</style>
<g>
	<path d="M378,297.85v-56.3h-8.15c-1.51,0-2.93-0.74-2.93-2.42v-6.77c0-1.68,1.42-2.42,2.93-2.42h29.47c1.37,0,2.92,0.93,2.92,2.42
		v6.77c0,1.5-1.55,2.42-2.92,2.42h-8.57v56.3c0,1.52-1.09,2.71-2.63,2.71h-7.47C379.22,300.56,378,299.25,378,297.85L378,297.85z
		 M408.51,297.84v-65.11c0-1.31,1.3-2.62,2.62-2.62h7.47c1.52,0,2.73,1.07,2.73,2.62v24.87l19.03-0.11v-24.76
		c0-1.43,1.45-2.62,2.82-2.62h7.26c1.37,0,2.82,1.19,2.82,2.62v65.11c0,1.54-1.29,2.73-2.82,2.73h-7.26c-1.5,0-2.82-1.19-2.82-2.73
		v-28.01l-19.03,0.11v27.91c0,1.51-1.2,2.73-2.73,2.73h-7.47C409.71,300.56,408.51,299.23,408.51,297.84L408.51,297.84z
		 M461.91,297.68v-65.19c0-1.6,1.16-2.62,2.73-2.62h29.72c1.51,0,2.73,1.1,2.73,2.63v6.97c0,1.53-1.21,2.73-2.73,2.73H474v15.4
		h15.43c1.5,0,2.51,1.01,2.51,2.51v7.05c0,1.51-1,2.53-2.51,2.53H474v18.38h20.36c1.51,0,2.73,1.09,2.73,2.63v6.97
		c0,1.51-1.2,2.73-2.73,2.73h-29.72C463.07,300.4,461.91,299.24,461.91,297.68L461.91,297.68z"/>
	<path d="M306.39,620.9v-48.7h-7.06c-1.31,0-2.53-0.64-2.53-2.09v-5.86c0-1.45,1.23-2.09,2.53-2.09h25.49c1.18,0,2.52,0.8,2.52,2.09
		v5.86c0,1.29-1.34,2.09-2.52,2.09h-7.42v48.7c0,1.31-0.94,2.35-2.28,2.35h-6.46C307.44,623.24,306.39,622.1,306.39,620.9
		L306.39,620.9z M332.79,620.88v-56.33c0-1.13,1.13-2.27,2.27-2.27h6.46c1.31,0,2.36,0.93,2.36,2.27v21.51l16.46-0.09v-21.42
		c0-1.24,1.25-2.27,2.44-2.27h6.28c1.19,0,2.44,1.03,2.44,2.27v56.33c0,1.34-1.13,2.36-2.44,2.36h-6.28c-1.3,0-2.44-1.03-2.44-2.36
		v-24.24l-16.46,0.09v24.14c0,1.31-1.05,2.36-2.36,2.36h-6.46C333.82,623.24,332.79,622.09,332.79,620.88L332.79,620.88z
		 M378.98,620.74v-56.4c0-1.38,1-2.27,2.36-2.27h25.71c1.31,0,2.36,0.95,2.36,2.28v6.03c0,1.31-1.05,2.36-2.36,2.36h-17.61v13.32
		h13.34c1.3,0,2.17,0.87,2.17,2.17v6.1c0,1.31-0.87,2.18-2.17,2.18h-13.34v15.9h17.61c1.31,0,2.36,0.95,2.36,2.28v6.03
		c0,1.32-1.04,2.36-2.36,2.36h-25.71C379.98,623.1,378.98,622.1,378.98,620.74L378.98,620.74z M416.71,620.81v-56.44
		c0-1.33,1.14-2.36,2.44-2.36h10.38c1.28,0,2.83,0.93,3.22,2.19l12.65,37.86l-0.87-37.68c0-1.31,0.93-2.36,2.27-2.36h6.63
		c0.83,0,2.27,0.33,2.27,1.74v56.46c0,1.4-0.65,2.96-2.27,2.96h-8.99c-1.28,0-2.68-0.99-3.14-2.18l-14.12-38.65l0.79,38.47
		c0,1.36-1,2.36-2.36,2.36h-6.45C417.85,623.17,416.71,622.14,416.71,620.81L416.71,620.81z M483.84,621.06l-10.29-56.66
		c-0.02-0.08-0.03-0.2-0.03-0.36c0-1.11,0.99-1.81,2.05-1.81h6.28c1.25,0,2.41,0.97,2.7,2.17l5.75,34.96c0.16,0.49,0.71,0.5,0.87,0
		l4.71-34.79c0.23-1.2,1.46-2.35,2.71-2.35h6.88c1.14,0,2.46,1.06,2.71,2.17l5.84,35.66c0.07,0.41,0.61,0.37,0.7,0l4.8-35.49
		c0.25-1.3,1.34-2.35,2.7-2.35h6.28c0.84,0,2.18,0.82,2.09,1.74l-8.97,56.4c-0.21,1.46-1.18,2.88-2.79,2.88h-8.72
		c-1.26,0-2.42-0.97-2.71-2.18l-5.06-27.98l-4.27,27.28c-0.29,1.45-1.26,2.88-2.88,2.88h-8.62
		C485.38,623.24,483.91,622.31,483.84,621.06L483.84,621.06z M536.77,620.74v-56.4c0-1.38,1-2.27,2.36-2.27h25.71
		c1.31,0,2.36,0.95,2.36,2.28v6.03c0,1.31-1.05,2.36-2.36,2.36h-17.61v13.32h13.34c1.3,0,2.17,0.87,2.17,2.17v6.1
		c0,1.31-0.87,2.18-2.17,2.18h-13.34v15.9h17.61c1.31,0,2.36,0.95,2.36,2.28v6.03c0,1.32-1.04,2.36-2.36,2.36h-25.71
		C537.77,623.1,536.77,622.1,536.77,620.74L536.77,620.74z"/>
	<path d="M194.29,321.17l-58.64-33.71c-0.39-0.22-0.69-0.54-0.88-0.96c-0.21-0.41-0.31-0.87-0.28-1.37c0.02-0.51,0.17-1,0.44-1.47
		l15.47-26.91c0.29-0.5,0.64-0.89,1.08-1.17c0.43-0.3,0.88-0.46,1.34-0.49c0.46-0.04,0.89,0.06,1.28,0.28l6.44,3.7
		c0.39,0.22,0.7,0.56,0.94,1.01c0.22,0.45,0.35,0.94,0.33,1.48c0,0.53-0.14,1.03-0.41,1.5l-10.62,18.47l13.9,7.99l8.11-14.1
		c0.42-0.73,0.95-1.18,1.61-1.37c0.66-0.19,1.34-0.08,2.03,0.31l6.39,3.67c0.61,0.35,0.98,0.85,1.13,1.52
		c0.16,0.65,0.02,1.34-0.39,2.05l-8.11,14.11l25.17,14.47c0.39,0.22,0.69,0.54,0.91,0.96c0.23,0.42,0.34,0.87,0.34,1.38
		c-0.01,0.49-0.14,0.97-0.4,1.42l-3.44,5.99c-0.43,0.74-0.98,1.23-1.68,1.47C195.65,321.63,194.97,321.56,194.29,321.17
		L194.29,321.17z M218.29,282.4l-55.36-39.37c-0.65-0.46-1.05-1.06-1.2-1.79c-0.14-0.74,0.01-1.44,0.46-2.07l4.49-6.32
		c0.26-0.37,0.6-0.63,1.04-0.82c0.44-0.18,0.91-0.24,1.41-0.2c0.49,0.06,0.95,0.23,1.37,0.53l55.36,39.37
		c0.42,0.3,0.74,0.68,0.95,1.12c0.21,0.46,0.31,0.92,0.28,1.4c-0.03,0.48-0.17,0.89-0.43,1.26l-4.49,6.32
		c-0.45,0.64-1.06,1.01-1.81,1.12C219.64,283.05,218.95,282.86,218.29,282.4L218.29,282.4z M233.53,261.3l-46.87-49.15
		c-0.36-0.37-0.6-0.82-0.72-1.32c-0.14-0.51-0.12-1.02,0.02-1.52c0.14-0.5,0.41-0.93,0.8-1.31l14.9-14.21
		c2.32-2.17,4.8-3.65,7.45-4.41c2.65-0.79,5.24-0.84,7.73-0.16c2.51,0.66,4.72,2.01,6.67,4.06l8.83,9.26
		c1.16,1.22,2.06,2.62,2.67,4.22c0.63,1.59,0.95,3.25,0.99,4.99c0.06,1.74-0.19,3.45-0.72,5.12l0.22,0.08l28.9,15.09
		c0.1,0,0.28,0.15,0.57,0.46c0.3,0.31,0.43,0.71,0.37,1.2c-0.06,0.48-0.3,0.92-0.71,1.32l-6.61,6.3c-0.33,0.32-0.74,0.55-1.22,0.7
		c-0.49,0.16-0.99,0.23-1.5,0.23c-0.51-0.01-0.95-0.1-1.31-0.28l-24.26-13.12c-0.97,0.25-1.78,0.67-2.4,1.27
		c-0.84,0.8-1.24,1.76-1.19,2.87l17.67,18.53c0.47,0.5,0.67,1.1,0.59,1.82c-0.09,0.72-0.41,1.35-0.97,1.9l-6.08,5.8
		c-0.61,0.58-1.28,0.89-2,0.94C234.6,262.02,234,261.8,233.53,261.3L233.53,261.3z M220.97,218.59c0.77-0.73,1.31-1.6,1.61-2.58
		c0.31-0.99,0.36-1.97,0.16-2.95c-0.21-0.98-0.66-1.83-1.35-2.55l-6.59-6.91c-0.73-0.77-1.59-1.28-2.58-1.57
		c-0.99-0.27-1.99-0.28-3-0.02c-1,0.24-1.9,0.75-2.67,1.48l-4.18,3.99c-0.26,0.25-0.39,0.58-0.38,0.98
		c0.01,0.41,0.15,0.75,0.41,1.02l12.16,12.76c0.33,0.34,0.74,0.53,1.24,0.54c0.5,0.02,0.92-0.15,1.27-0.48L220.97,218.59
		L220.97,218.59z M272.49,222.16c-2.51-0.68-4.85-1.79-7.02-3.36c-2.21-1.59-3.97-3.48-5.44-5.77c-0.35-0.54-0.52-1.13-0.55-1.76
		c-0.01-0.64,0.11-1.23,0.37-1.78c0.26-0.55,0.64-0.99,1.14-1.31l6.27-4.02c0.3-0.17,1.05-0.63,2.59-0.05
		c0.66,0.26,1.16,0.64,1.5,1.17l0.57,0.88c1.15,1.79,2.93,2.98,5.04,3.3c1.74,0.26,3.59-0.22,5.06-1.16
		c1.41-0.9,2.69-2.09,3.41-3.63c0.53-1.12,0.75-2.28,0.68-3.5c-0.07-1.2-0.43-2.33-1.1-3.38l-2.66-4.54
		c-1.04-1.51-2.19-2.58-3.47-3.23c-1.28-0.64-2.7-0.86-4.27-0.67c-3.16,0.19-6.37,2.35-9.19,3.76c-3.56,1.93-6.77,2.61-9.64,2.02
		c-2.86-0.57-5.3-1.84-7.3-3.76c-1.99-1.93-3.86-4.26-5.61-6.99c-1.96-3.29-4.42-6.63-5.14-10.41c-0.4-2.1-0.33-4.22,0.21-6.36
		c0.5-2.3,1.5-4.43,2.99-6.38c1.49-1.95,3.4-3.64,5.74-5.07c3.21-2.06,5.48-3.68,9.43-4.35c2.39-0.42,4.8-0.37,7.22,0.16
		c2.38,0.52,4.59,1.53,6.64,3.02c2.09,1.51,3.84,3.4,5.22,5.58c0.32,0.49,0.49,1.02,0.52,1.56c0.02,0.55-0.08,1.07-0.32,1.55
		c-0.24,0.48-0.59,0.87-1.06,1.18l-6.1,3.91c-0.69,0.37-1.4,0.46-2.14,0.27c-0.74-0.19-1.32-0.61-1.75-1.27
		c-1.35-2.11-2.7-3.28-5.25-3.63c-1.76-0.23-3.47,0.13-4.97,1.09c-1.17,0.75-2.8,2.45-3.35,3.61c-1.01,2.15-0.82,4.48,0.46,6.47
		l3.28,5.12c0.87,1.09,1.84,1.75,2.92,1.98c1.08,0.24,2.35,0.11,3.79-0.39c1.44-0.51,3.23-1.37,5.36-2.61
		c3.72-2.07,7.17-3.17,10.34-3.29c3.16-0.12,6.09,0.71,8.77,2.49c2.69,1.78,5.2,4.51,7.55,8.17c0.99,1.54,1.87,3.07,2.63,4.59
		c1.7,3.35,2.7,7.15,2.58,10.91c-0.1,3.27-0.9,6.29-2.4,9.06c-1.51,2.78-3.57,5-6.2,6.68c-3.29,2.11-5.65,3.78-9.71,4.43
		C277.61,222.86,275.07,222.76,272.49,222.16L272.49,222.16z M320.09,196.52l-24.15-53.41l-7.74,3.5c-0.83,0.38-1.6,0.48-2.3,0.29
		c-0.69-0.18-1.2-0.62-1.52-1.32l-2.91-6.42c-0.32-0.7-0.32-1.38,0.01-2.02c0.32-0.65,0.9-1.16,1.73-1.53l27.95-12.64
		c0.5-0.22,1-0.33,1.52-0.3c0.53,0.01,0.98,0.14,1.4,0.38c0.4,0.23,0.7,0.56,0.88,0.97l2.9,6.43c0.18,0.41,0.23,0.85,0.14,1.3
		c-0.09,0.47-0.3,0.9-0.64,1.3c-0.32,0.41-0.74,0.72-1.23,0.94l-8.13,3.68l24.15,53.41c0.33,0.73,0.36,1.45,0.12,2.16
		c-0.25,0.71-0.72,1.22-1.45,1.55l-7.09,3.2c-0.41,0.18-0.87,0.25-1.36,0.18c-0.5-0.05-0.96-0.23-1.37-0.52
		C320.6,197.35,320.29,196.98,320.09,196.52L320.09,196.52z M374.26,177.04l-20.88-66.09c-0.04-0.09-0.07-0.23-0.1-0.42
		c-0.08-0.6,0.1-1.14,0.5-1.61c0.42-0.49,0.97-0.77,1.67-0.86l7.49-0.95c0.76-0.1,1.48,0.08,2.15,0.52c0.68,0.45,1.14,1,1.4,1.67
		l12.17,40.87c0.14,0.28,0.26,0.39,0.58,0.35c0.34-0.04,0.4-0.17,0.46-0.48l0.34-42.25c0.03-0.51,0.2-1,0.47-1.48
		c0.29-0.47,0.65-0.87,1.08-1.18c0.44-0.31,0.88-0.49,1.33-0.55l8.22-1.04c0.44-0.06,0.92,0.01,1.41,0.19
		c0.49,0.19,0.93,0.46,1.33,0.82c0.4,0.36,0.67,0.75,0.83,1.18l12.38,41.69c0.07,0.23,0.22,0.33,0.45,0.3
		c0.21-0.03,0.36-0.19,0.39-0.4l0.35-43.1c0.05-0.81,0.34-1.52,0.88-2.14c0.54-0.62,1.2-0.97,1.98-1.07l7.49-0.95
		c0.43-0.05,0.86,0,1.29,0.19c0.43,0.17,0.79,0.41,1.05,0.71c0.28,0.29,0.41,0.58,0.42,0.86l-2.16,68.69
		c-0.02,1.06-0.3,1.94-0.85,2.65c-0.53,0.7-1.21,1.11-2.04,1.22l-10.41,1.32c-0.76,0.1-1.49-0.08-2.17-0.51
		c-0.68-0.45-1.14-1.01-1.4-1.68l-10.28-32.64l-0.95,33.22c-0.08,1.07-0.39,1.95-0.93,2.66c-0.55,0.7-1.24,1.12-2.07,1.22
		l-10.3,1.31c-0.51,0.07-1.03,0-1.54-0.17c-0.52-0.19-0.96-0.46-1.33-0.82C374.58,177.89,374.34,177.48,374.26,177.04L374.26,177.04
		z M438.25,171.29l5.15-67.68c0.13-1.66,1.41-2.63,3.04-2.51l30.86,2.35c1.57,0.12,2.74,1.35,2.62,2.95l-0.55,7.24
		c-0.12,1.59-1.48,2.74-3.05,2.61l-21.13-1.61l-1.22,15.99l16.01,1.22c1.56,0.12,2.53,1.24,2.41,2.81l-0.56,7.32
		c-0.12,1.57-1.24,2.54-2.81,2.42l-16.01-1.22l-1.45,19.08l21.13,1.61c0.79,0.06,1.45,0.38,1.95,0.93c0.5,0.56,0.74,1.22,0.67,2.01
		l-0.55,7.24c-0.12,1.59-1.48,2.74-3.05,2.62l-30.86-2.35C439.24,174.21,438.13,172.92,438.25,171.29L438.25,171.29z M499.47,180.17
		l21.51-63.56c0.54-1.6,2.4-2.73,4.06-2.17l19.98,6.76c2.23,0.75,4.22,1.84,6.01,3.26c3.57,2.84,6,6.73,6.92,11.2
		c0.62,3.41,0.35,6.81-0.78,10.16L546.5,177.7c-3.42,10.09-14.15,16.84-24.56,13.31c-6.93-2.35-13.85-4.6-20.79-6.95
		C499.52,183.51,498.95,181.7,499.47,180.17L499.47,180.17z M522.97,178.06c1.46,0.49,2.95,0.57,4.5,0.24
		c1.55-0.34,2.92-1.02,4.12-2.05c1.2-1.03,2.05-2.27,2.55-3.73l10.28-30.37c1.37-4.05-0.83-8.59-4.91-9.98l-8.34-2.82
		c-0.75-0.25-1.69,0.12-1.95,0.89l-14.89,44.01c-0.17,0.5,0.02,0.89,0.53,1.06L522.97,178.06L522.97,178.06z M549.74,199.04
		l36.65-57.18c0.88-1.38,2.69-1.77,4.06-0.89l17.34,11.11c2.66,1.74,4.68,3.8,6.05,6.19c1.39,2.39,2.05,4.89,1.99,7.47
		c-0.05,2.59-0.84,5.06-2.36,7.44l-6.91,10.78c-1.85,2.89-4.79,4.86-8.08,5.74c-1.68,0.47-3.39,0.63-5.14,0.51l-0.03,0.23
		l-7.81,31.65c-0.18,0.77-0.8,1.24-1.38,1.31c-0.48,0.06-0.97-0.07-1.45-0.38l-7.69-4.93c-0.39-0.25-0.71-0.59-0.97-1.02
		c-0.27-0.44-0.46-0.91-0.58-1.4c-0.11-0.5-0.13-0.94-0.04-1.34l6.99-26.67c-0.48-0.89-1.07-1.57-1.8-2.04
		c-0.98-0.63-2.01-0.79-3.07-0.47l-13.82,21.55c-0.82,1.28-2.52,1.26-3.7,0.5l-7.08-4.54C549.71,201.9,548.9,200.37,549.74,199.04
		L549.74,199.04z M588.26,176.73c1.73,1.11,3.93,1.3,5.8,0.41c0.9-0.44,1.62-1.07,2.15-1.91l5.16-8.04
		c0.57-0.89,0.87-1.85,0.91-2.87c0.06-2.1-0.99-4.03-2.76-5.16l-4.87-3.12c-0.64-0.41-1.54-0.12-1.94,0.5l-9.51,14.84
		c-0.52,0.82-0.28,1.93,0.54,2.45L588.26,176.73L588.26,176.73z M593.98,228.62l44.48-51.35c1.03-1.19,2.7-1.41,3.92-0.36l5.86,5.07
		c1.13,0.98,1.06,2.77,0.12,3.86l-44.48,51.35c-0.94,1.09-2.71,1.41-3.84,0.43l-5.86-5.07c-0.59-0.51-0.9-1.15-0.94-1.91
		C593.21,229.9,593.46,229.23,593.98,228.62L593.98,228.62z M613.99,244.82l51.35-44.48c1.21-1.05,3.05-0.82,4.07,0.36l8.18,9.44
		c1,1.16,1.39,3.3,0.55,4.65l-24.47,41.33l33.59-30.49c1.19-1.03,2.88-1.02,3.93,0.2l5.22,6.03c1.29,1.49,1,2.75,0.2,3.44
		l-51.36,44.48c-1.28,1.11-3.21,1.74-4.48,0.27l-7.08-8.17c-1.01-1.17-1.21-3.22-0.49-4.58l24.03-43.3l-34.38,31.04
		c-1.23,1.07-2.94,0.95-4.01-0.29l-5.08-5.87C612.74,247.72,612.77,245.87,613.99,244.82L613.99,244.82z M649.09,288.78l59.12-33.99
		c1.28-0.74,2.99-0.27,3.72,1.01l3.83,6.66c1,1.74,0.05,2.87-1.11,3.54l-16.74,9.62l23.86,1.29c1.14,0.17,2.8,0.75,3.35,1.84
		l3.94,6.69c1.17,2.25-0.53,5.53-2.56,4.97l-33.53-1.9l-19.22,37.92c-1.63,2.18-4.46,2.84-5.82,0.2l-4.39-7.64
		c-0.68-1.18-0.42-2.43,0.27-3.54l15.09-28.9l-23.38,13.44c-1.14,0.66-2.78,0.21-3.44-0.93l-3.83-6.66
		C647.59,291.21,647.86,289.48,649.09,288.78L649.09,288.78z"/>
	<path d="M134.28,577.17l58.07-33c1.46-0.83,3.59-0.44,4.45,1.07l10.37,18.26c2.24,3.95,3.12,8.59,2.31,13.07
		c-1.03,5.77-4.5,10.39-9.59,13.28l-29.04,16.63c-6.05,3.44-13.66,3.81-19.86,0.59c-3.08-1.61-5.49-3.93-7.21-6.96
		c-3.6-6.34-7.25-12.59-10.85-18.93C132.11,579.7,132.86,577.97,134.28,577.17L134.28,577.17z M153.14,591.16
		c2.33,4.09,7.89,5.59,11.97,3.27l27.75-15.77c3.7-2.1,5.08-6.94,2.96-10.66l-4.33-7.61c-0.39-0.68-1.34-1.03-2.04-0.63l-40.2,22.85
		c-0.46,0.26-0.57,0.68-0.31,1.14L153.14,591.16L153.14,591.16z M178.92,633.93c1.3-3.43,3.36-6.3,6.16-8.62l26.46-21.88
		c5.59-4.62,12.99-5.93,19.83-3.39c3.23,1.18,6.03,3.2,8.39,6.07l2.2,2.66c1.52,1.83,2.67,3.84,3.47,6.05
		c1.56,4.35,1.61,9.21,0.01,13.56c-1.17,3.23-3.22,6.04-6.14,8.46l-26.48,22.04c-5.55,4.59-13.19,5.86-19.99,3.53
		c-3.38-1.14-6.21-3.1-8.49-5.86c-2.41-2.91-4.33-5.03-5.63-8.75C177.18,643.29,177.27,638.4,178.92,633.93L178.92,633.93z
		 M196.26,649.7c2.83,0.95,5.99,0.34,8.29-1.56l26.29-21.74c1.16-0.96,1.98-2.11,2.45-3.46c1.06-3.02,0.26-5.86-1.73-8.27
		c-0.98-1.18-2.13-2.03-3.49-2.57c-2.75-1.11-5.74-0.67-8.04,1.23l-26.29,21.74c-2.34,1.93-3.45,4.94-3.02,7.93
		C191.14,645.99,193.39,648.76,196.26,649.7L196.26,649.7z M239.55,700.57l34.43-47.1l-6.82-4.99c-1.27-0.93-2-2.41-0.97-3.81
		l4.14-5.67c1.03-1.4,2.66-1.16,3.93-0.23l24.65,18.02c1.14,0.83,1.88,2.56,0.96,3.81l-4.14,5.67c-0.91,1.25-2.78,1.07-3.92,0.24
		l-7.17-5.24l-34.43,47.1c-0.93,1.27-2.57,1.6-3.86,0.66l-6.25-4.57C238.9,703.58,238.69,701.73,239.55,700.57L239.55,700.57z
		 M281.76,726.77l27.37-61.68c0.55-1.23,2.34-1.93,3.58-1.38l7.08,3.14c1.44,0.64,2.13,2.16,1.48,3.63l-10.45,23.56l18.07,7.89
		l10.41-23.46c0.6-1.36,2.47-1.87,3.77-1.3l6.87,3.05c1.3,0.57,2.17,2.31,1.57,3.67l-27.37,61.68c-0.65,1.47-2.39,2.03-3.82,1.4
		l-6.87-3.05c-1.43-0.63-2.17-2.32-1.53-3.77l11.77-26.54l-18.07-7.89l-11.73,26.44c-0.64,1.44-2.29,2.07-3.73,1.44l-7.08-3.14
		C281.76,729.85,281.17,728.09,281.76,726.77L281.76,726.77z M350.39,752.56l12.64-66.36c0.31-1.63,1.69-2.44,3.28-2.14l30.26,5.76
		c1.54,0.29,2.57,1.64,2.27,3.21l-1.35,7.1c-0.3,1.55-1.76,2.54-3.31,2.25l-20.72-3.95l-2.99,15.67l15.7,2.99
		c1.53,0.29,2.36,1.51,2.07,3.04l-1.37,7.18c-0.29,1.53-1.51,2.38-3.05,2.09l-15.7-2.99l-3.56,18.71l20.72,3.95
		c1.54,0.29,2.56,1.64,2.27,3.21l-1.35,7.1c-0.3,1.55-1.76,2.54-3.31,2.25l-30.26-5.76C351.04,755.56,350.09,754.15,350.39,752.56
		L350.39,752.56z M436.03,762.3l-2.18-58.3l-8.45,0.32c-1.57,0.06-3.06-0.66-3.13-2.39l-0.26-7.01c-0.07-1.74,1.38-2.56,2.94-2.62
		l30.51-1.14c1.41-0.05,3.05,0.85,3.11,2.39l0.26,7.01c0.06,1.55-1.52,2.56-2.93,2.62l-8.88,0.33l2.18,58.3
		c0.06,1.57-1.02,2.85-2.62,2.91l-7.74,0.29C437.4,765.07,436.08,763.75,436.03,762.3L436.03,762.3z M485.68,758.35L470.5,692.6
		c-0.31-1.32,0.71-2.95,2.04-3.26l7.54-1.74c1.53-0.35,3,0.45,3.36,2.01l5.8,25.11l19.19-4.54l-5.77-25
		c-0.34-1.44,0.85-2.99,2.24-3.3l7.33-1.69c1.39-0.32,3.13,0.54,3.46,1.99l15.18,65.75c0.36,1.57-0.68,3.06-2.21,3.41l-7.33,1.69
		c-1.52,0.35-3.13-0.55-3.48-2.1l-6.53-28.29l-19.19,4.54l6.5,28.18c0.35,1.53-0.58,3.04-2.12,3.39l-7.54,1.74
		C487.52,760.82,486,759.75,485.68,758.35L485.68,758.35z M557.55,737.56l-27.87-61.6c-0.65-1.43-0.15-3.03,1.31-3.69l7.03-3.18
		c1.36-0.62,2.95,0.2,3.54,1.5l27.87,61.6c0.59,1.31,0.15,3.03-1.21,3.65l-7.03,3.18C559.73,739.68,558.2,738.99,557.55,737.56
		L557.55,737.56z M596.42,718.28l-36.13-57.15c-0.85-1.35-0.36-3.12,0.96-3.95l10.51-6.64c1.29-0.82,3.46-0.87,4.66,0.15
		l37.04,30.24l-25-37.6c-0.84-1.33-0.57-2.98,0.78-3.84l6.71-4.24c0.84-0.53,2.84-0.59,3.41,0.31l36.13,57.16
		c0.9,1.42,1.24,3.42-0.4,4.45l-9.1,5.75c-1.3,0.82-3.35,0.71-4.58-0.21l-39.04-30.09l25.43,38.45c0.87,1.37,0.5,3.03-0.88,3.9
		l-6.53,4.13C599.08,719.94,597.27,719.63,596.42,718.28L596.42,718.28z M652.7,668.7c-3.55-0.91-6.67-2.65-9.34-5.22l-24.96-24.04
		c-5.32-5.12-7.32-12.13-5.61-19.17c0.81-3.34,2.49-6.34,5.07-9.02l2.32-2.41c1.5-1.62,3.21-2.98,5.1-4.06
		c3.81-2.18,8.14-3.11,12.5-2.46c3.34,0.55,6.42,2.12,9.26,4.72c0.76,0.73,0.69,1.85-0.02,2.59l-6.18,6.42
		c-0.79,0.82-1.97,1.28-2.95,0.5c-1.4-1.02-2.69-1.58-3.88-1.69c-2.77-0.22-4.82,1.49-6.63,3.37c-2.21,2.3-3.25,5.03-2.43,8.2
		c0.37,1.38,1.09,2.6,2.18,3.64l24.75,23.84c1.08,1.04,2.37,1.74,3.85,2.1c1.47,0.36,2.95,0.35,4.4-0.03
		c2.88-0.73,5.33-3.19,5.9-6.13c0.28-1.41,0.2-2.84-0.25-4.26c-0.45-1.42-1.21-2.65-2.3-3.71l-3.53-3.4l-3.77,3.91
		c-0.8,0.83-2.27,0.85-3.1,0.05l-5.57-5.36c-0.98-0.95-1.02-2.7-0.07-3.68l11.3-11.74c0.95-0.99,2.65-0.93,3.61,0l10.97,10.57
		c3.49,3.36,5.74,7.76,6.35,12.57c0.29,2.35,0.2,4.69-0.29,7.01c-0.74,3.48-2.39,6.54-4.92,9.16l-2.32,2.41
		c-1.65,1.72-3.54,3.07-5.64,4.06C662.16,669.49,657.34,669.87,652.7,668.7L652.7,668.7z M693.9,617.97c-2.6-0.53-5-1.52-7.2-2.96
		c-1.11-0.73-1.73-1.88-1.7-3.21c0.01-0.61,0.18-1.16,0.5-1.65c1.47-2.24,3.06-4.47,4.49-6.66c1.07-0.72,2.62-0.92,3.73-0.19
		l0.87,0.57c1.77,1.16,3.88,1.52,5.92,0.94c0.98-0.27,1.86-0.76,2.64-1.45c1.73-1.48,3.06-4.1,3.09-6.35
		c0.05-2.45-1.12-4.73-3.18-6.07l-4.27-3.04c-2.83-1.73-5.68-2.16-8.61-0.39c-2.79,1.46-4.83,4.72-6.81,7.16
		c-2.45,3.21-5.08,5.13-7.93,5.76c-2.83,0.64-5.56,0.49-8.16-0.44c-4.71-1.72-8.13-4.19-12.14-7.01c-1.93-1.19-3.5-2.67-4.72-4.41
		c-2.56-3.67-3.31-8.55-2.29-12.88c0.56-2.38,1.6-4.69,3.14-6.94l1.78-2.72c2.67-4.08,6.87-6.87,11.63-7.87
		c2.37-0.5,4.79-0.48,7.26,0.04c2.46,0.51,4.77,1.48,6.93,2.89c1.45,0.95,2.04,2.78,1.05,4.3l-3.95,6.04
		c-0.47,0.62-1.08,0.99-1.83,1.12c-0.75,0.13-1.45-0.02-2.11-0.44c-1.11-0.73-1.94-1.24-3.32-1.41c-2-0.26-4.05,0.4-5.59,1.68
		c-1.68,1.34-2.94,4.16-2.97,6.23c-0.04,2.36,1.08,4.4,3.05,5.69l5.07,3.31c2.61,1.35,4.69,0.64,6.74-1.28
		c1.1-1.04,2.37-2.56,3.81-4.55c2.54-3.4,5.22-5.8,8.05-7.2c2.83-1.4,5.82-1.83,8.98-1.32c3.17,0.52,6.56,1.98,10.18,4.35
		c3.08,2.02,5.73,4.08,8.07,6.94c3.21,3.92,4.86,9.18,4.49,14.23c-0.24,3.14-1.21,6-2.91,8.59c-2.13,3.26-3.59,5.74-7.01,7.98
		C704.21,618.25,699.1,619.05,693.9,617.97L693.9,617.97z"/>
	<path d="M78.89,514.1c-4.61-8.15-6.89-17.18-6.89-27.1v-91.61c0-6.3,1.03-12.35,3.06-18.14c4.13-11.57,11.82-21.18,22.38-27.5
		c11.9-7.22,21.21-6.93,34.25-6.93c6.19,0,12.13,1.07,17.77,3.17c11.44,4.23,20.73,12.25,26.73,22.86c4.42,8,6.64,16.85,6.64,26.54
		c0,4.55-3.02,8.85-7.78,8.85H156.2c-4.42,0-8.33-4.2-8.33-8.55c0-4.31-0.54-7.97-2.69-11.8c-3.76-6.76-10.52-10.32-18.18-10.32
		c-8.38,0-15.12,3.4-19.46,10.69c-1.95,3.32-2.88,6.93-2.8,10.87v90.47c0,7.85,4.2,15.37,10.84,19.54
		c6.55,4.2,15.42,4.24,22.01,0.07c6.65-4.33,10.29-11.75,10.29-19.61c0-4.55,3.71-8.29,8.29-8.29H175c1.09,0,2.12,0.2,3.08,0.6
		c3.09,1.3,4.96,4.36,4.96,7.69c0,7.06-0.71,13.25-3.02,19.98c-3.98,11.66-11.63,21.64-22.12,28.17c-8,4.98-16.63,7.48-25.95,7.48
		h-8.85c-6.19,0-12.09-1.11-17.73-3.28C93.89,533.46,84.68,524.95,78.89,514.1L78.89,514.1z M204.9,487.04v-90.91
		c0-6.45,1.07-12.65,3.21-18.51c4.29-11.76,12.51-21.43,23.34-27.69c7.85-4.61,16.7-6.89,26.54-6.89h9.14
		c6.3,0,12.35,1.03,18.21,3.13c11.58,4.18,21.47,12.2,27.69,22.86c4.61,7.85,6.89,16.77,6.89,26.8l0.3,91.21
		c0,12.6-4.5,24.74-12.46,34.47c-10.01,12.24-24.42,19.72-40.37,19.72h-9.11c-12.67,0-24.53-4.52-34.18-12.68
		C211.87,518.11,204.9,503.18,204.9,487.04L204.9,487.04z M273.51,505.37c6.73-4.18,10.8-11.63,10.8-19.54V395.5
		c0-7.8-3.98-14.7-10.84-18.47c-6.78-3.8-16.22-3.76-23.01,0c-6.9,3.75-11.06,10.6-11.06,18.47v90.32c0,8.03,4.26,15.38,11.1,19.54
		C257.29,509.57,266.74,509.66,273.51,505.37L273.51,505.37z M344.11,531.47V353.22c0-4.09,3.97-6.64,7.74-6.64h81.81
		c3.82,0,8,2.41,8,6.64v19.58c0,4.11-4.09,7.19-8,7.19h-56.15v42.25h42.88c4.27,0,7.19,2.58,7.19,6.93v19.43
		c0,4.11-3.33,6.38-7.19,6.38h-42.88v76.5c0,3.94-3.65,6.89-7.45,6.89h-18.21C347.69,538.36,344.11,535.9,344.11,531.47
		L344.11,531.47z M459.69,531.47V353.22c0-4.09,3.96-6.64,7.74-6.64h81.81c3.83,0,8,2.4,8,6.64v19.58c0,4.09-4.09,7.19-8,7.19
		h-56.15v42.25h42.88c4.27,0,7.19,2.58,7.19,6.93v19.43c0,4.11-3.33,6.38-7.19,6.38h-42.88v76.5c0,3.95-3.65,6.89-7.45,6.89h-18.21
		C463.26,538.36,459.69,535.9,459.69,531.47L459.69,531.47z M575.48,531.32V352.44c0-4.39,3.19-7.19,7.48-7.19h81.55
		c4.14,0,7.48,3,7.48,7.23v19.13c0,4.2-3.33,7.48-7.48,7.48h-55.85v42.25h42.32c4.12,0,6.89,2.77,6.89,6.89v19.35
		c0,4.14-2.75,6.93-6.89,6.93h-42.32v50.43h55.85c4.14,0,7.48,3,7.48,7.23v19.13c0,4.15-3.29,7.48-7.48,7.48h-81.55
		C578.66,538.8,575.48,535.62,575.48,531.32L575.48,531.32z M695.48,531.32V352.44c0-4.39,3.19-7.19,7.48-7.19h81.55
		c4.14,0,7.48,3,7.48,7.23v19.13c0,4.17-3.32,7.48-7.48,7.48h-55.85v42.25h42.32c4.12,0,6.89,2.77,6.89,6.89v19.35
		c0,4.14-2.75,6.93-6.89,6.93h-42.32v50.43h55.85c4.14,0,7.48,3,7.48,7.23v19.13c0,4.17-3.32,7.48-7.48,7.48h-81.55
		C698.66,538.8,695.48,535.62,695.48,531.32L695.48,531.32z"/>
	<path class="st0" d="M535.25,281.91c-5.71-10-7.9-27.01,4.93-32.43c12.74-5.38,28.5,6.51,34.65,17.23
		c5.27,9.96,9.39,25.5-2.51,32.6C559.02,307.26,541.89,293.55,535.25,281.91L535.25,281.91z M540.93,256.24
		c1.01-0.06,4.04,1.16,4.99,1.68c11.11,6.16,9.46,18.29,17.13,26.91c1.8,2.02,4.2,3.89,6.37,5.37l1.69,1.1
		c0.32,0.2,0.25,0.2,0.23,0.54c-1.27,0.34-5.73-1.56-7.43-2.68c-4.1-2.68-7.21-6.53-9.44-11.46c-3.26-7.18-3.4-12.43-9.41-17.88
		c-1.24-1.13-1.98-1.63-3.21-2.55C540.91,256.57,541.05,256.93,540.93,256.24L540.93,256.24z"/>
	<path class="st0" d="M324.4,281.91c5.71-10,7.9-27.01-4.93-32.43c-12.74-5.38-28.5,6.51-34.65,17.23
		c-5.27,9.96-9.39,25.5,2.51,32.6C300.63,307.26,317.76,293.55,324.4,281.91L324.4,281.91z M318.72,256.24
		c-1.01-0.06-4.04,1.16-4.99,1.68c-11.11,6.16-9.46,18.29-17.13,26.91c-1.8,2.02-4.2,3.89-6.37,5.37l-1.69,1.1
		c-0.32,0.2-0.25,0.2-0.23,0.54c1.27,0.34,5.73-1.56,7.43-2.68c4.1-2.68,7.21-6.53,9.44-11.46c3.26-7.18,3.4-12.43,9.41-17.88
		c1.24-1.13,1.98-1.63,3.21-2.55C318.74,256.57,318.6,256.93,318.72,256.24L318.72,256.24z"/>
</g>
</svg>
