<?xml version="1.0" encoding="utf-8"?>
<!-- Generator: Adobe Illustrator 25.0.0, SVG Export Plug-In . SVG Version: 6.00 Build 0)  -->
<svg version="1.1" id="Layer_1" xmlns="http://www.w3.org/2000/svg" xmlns:xlink="http://www.w3.org/1999/xlink" x="0px" y="0px"
	 viewBox="0 0 864 864" style="enable-background:new 0 0 864 864;" xml:space="preserve">
<style type="text/css">
	.st0{fill-rule:evenodd;clip-rule:evenodd;}
</style>
<g>
	<path d="M56.62,366.06c-6.67,1.93-10.01,2.89-15.81,13.4c-5.69,10.88-5.74,12.1-3.17,21l23.12,80.08c2.57,8.9,3.26,9.9,13.88,16.08
		c10.51,5.8,13.85,4.84,20.52,2.91l16.68-4.82c6.67-1.93,10.38-3,16.18-13.51c5.69-10.88,5.37-12,2.8-20.89l-8.89-30.77
		c-0.96-3.34-1.93-6.67-6.23-9.05c-4.3-2.37-7.64-1.41-10.97-0.45l-10.01,2.89c-6.67,1.93-7.52,1.77-11.6,2.95
		c-2.22,0.64-1.69,2.5-0.31,4.51c2.4,4.13,8.95,17.1,10.23,18.74c2.18,3.39,2.07,0.21,5.4-0.76c2.22-0.64,3.18-0.12,4.41,2.74
		l3.64,12.61c1.5,5.19,1.82,6.3-1.04,7.53l-13.72,3.96c-6.67,1.93-6.67,1.93-8.6-4.75l-22.27-77.12c-0.54-1.85-0.01-2.81,2.11-3.82
		l17.43-5.03c2.33-0.27,3.29,0.26,3.82,2.11l6.85,23.73c0.96,3.34,0.96,3.34,3.98,1.26c3.12-1.71,15.4-9.27,15.4-9.27
		c3.12-1.71,3.12-1.71,2.16-5.04l-4.92-17.05c-2.57-8.9-3.26-9.9-13.88-16.08c-10.51-5.8-13.85-4.84-20.52-2.91L56.62,366.06
		L56.62,366.06z M165.72,459c0.25-2.8,1.39-3.02,6.69-4.03l18.57-3.56c1.97,0.02,2.8,0.25,3.92,2l3.93,10.25
		c0.36,1.89-0.25,2.8-1.93,4.3c-2.29,2.4-0.12,5.52,3.81,5.56c4.31-0.04,9.1-1.74,15.54-2.98c4.93-0.94,9.17-1.36,12.13-2.32
		c3.27-1.41,2.99-4.9-0.78-6.14c-5.06-1.78-4.9-2.99-8.82-13.24c-35.65-93.76-36.25-94.82-38.1-100.36c-0.96-2.96-0.8-4.17,1.11-6.5
		c2.29-2.4,0.12-5.52-3.82-5.56c-4.31,0.04-8.72,1.67-15.54,2.98l-8.72,1.67c-6.44,1.23-11.52,1.42-15.54,2.98
		c-3.64,1.48-4.51,5.19-1.49,6.57c2.19,1.15,3.09,1.77,3.45,3.66l1.7,109.3l0.15,9.01c-0.18,3.18-1.1,4.53-3.46,6.56
		c-3.05,2.55-2.02,5.89,1.92,5.92c3.94,0.03,8.72-1.67,15.54-2.98c4.55-0.87,8.41-1.22,12.13-2.32c3.27-1.41,4.51-5.19,1.11-6.5
		c-2.11-0.77-3.09-1.77-3.52-4.04L165.72,459L165.72,459z M167.64,380.84l15.48,41.83c1.56,4.02-0.12,5.52-3.91,6.25l-9.47,1.82
		c-3.1,0.2-4.53-1.1-4.34-6.24l-0.79-43.07C164.58,375.14,165.34,374.99,167.64,380.84L167.64,380.84z M292.6,332.7
		c-9.39-7.48-13.22-7.05-20.12-6.27l-31.06,3.5c-6.52,0.74-11.59,0.53-15.72,1.77c-3.36,1.16-4.13,4.74-0.84,6.31
		c2.47,1.27,3.33,1.95,4.01,4.6l11.98,106.22c1.21,10.74,2.11,11.8-1.81,14.96c-2.85,2.26-1.31,5.59,2.23,5.96
		c4.3,0.29,9.2-1.04,15.72-1.77c4.99-0.56,8.86-0.61,12.27-1.38c3.75-1.2,4.13-4.74,0.84-6.31c-2.86-1.23-3.75-2.3-4.1-5.36
		l-4.76-42.18c-0.3-2.68,1.19-3.24,4.64-3.63l1.92-0.22c3.88-0.05,6.27,0.46,12.2,4.84c6.83,5.44,6.57,6.64,7.31,13.16l2.03,18.02
		c1.21,10.74,1.93,10.27-1.98,13.43c-2.85,2.26-1.31,5.58,2.23,5.96c4.3,0.29,9.2-1.04,15.72-1.77c4.98-0.56,8.86-0.61,12.27-1.38
		c3.75-1.2,4.13-4.74,0.84-6.31c-4.14-2.25-3.88-3.45-5.09-14.18l-2.25-19.94c-0.87-7.67-6.67-14.39-13.97-20.56
		c1.06-0.9,1.7-2.13,2.72-3.41c7.48-9.39,7.31-10.92,6.27-20.12l-2.9-25.69C302.16,341.72,302.03,340.57,292.6,332.7L292.6,332.7z
		 M279.43,357.1l2.21,19.56c0.52,4.6,0.31,6.18-2.38,6.48l-18.02,2.03c-2.3,0.26-3.15-0.42-3.41-2.72l-2.98-26.46
		c0.04-3.11,1.19-3.24,6.56-3.85l13.8-1.56C278.69,350.58,278.82,351.73,279.43,357.1L279.43,357.1z M329.98,437.92
		c0.46,10.8,1.28,11.92-2.85,14.8c-1.11,1.21-1.85,2.01-1.78,3.55c0.15,3.47,8.61,2.73,10.16,2.66c2.7-0.11,5.77-0.63,9.24-0.78
		l31.23-1.32c6.94-0.29,10.8-0.46,18.92-9.3c8.11-9.23,8.06-10.38,7.67-19.64l-3.53-83.28c-0.39-9.25-0.44-10.41-9.3-18.92
		c-8.84-8.12-12.7-7.96-19.64-7.67l-31.23,1.32c-6.55,0.28-11.6-0.28-15.81,0.67c-3.44,0.92-4.45,4.44-1.28,6.23
		c2.38,1.44,3.18,2.18,3.68,4.87L329.98,437.92L329.98,437.92z M353.83,426.48l-3.23-76.34c-0.21-5.01-0.28-6.55,2.79-7.07
		l18.12-0.77c1.94,0.3,2.75,1.04,3.22,2.95l3.56,84.05c-0.29,2.33-1.03,3.13-2.95,3.21l-14.27,0.6
		C354.13,433.42,354.13,433.42,353.83,426.48L353.83,426.48z M464.13,398.71c10.81,0.09,11.97-0.67,14.63,3.6
		c1.9,3.1,5.39,1.97,6.19-1.49c0.81-4.24,0.08-9.26,0.13-15.82c0.04-5.02,0.46-9.26,0.1-12.35c-0.74-3.87-4.2-5.05-6.16-1.6
		c-2.73,3.84-3.89,3.44-14.69,3.35l-13.51-0.11c-6.95-0.06-6.95-0.06-6.89-7l0.16-19.29c0.06-6.95,0.06-6.95,7-6.89l24.31,0.2
		c2.31,0.41,3.46,1.19,4.6,3.51c1.52,3.1,5.38,2.36,6.57-1.49c3.19-11.94,5.17-18.09,6.36-22.33c0.79-2.31,1.19-4.23-1.12-4.25
		c-4.24-0.04-9.65,0.3-16.21,0.25l-41.68-0.35c-6.56-0.06-11.57-0.87-15.82-0.13c-3.48,0.74-4.67,4.21-1.6,6.16
		c2.3,1.56,3.07,2.34,3.43,5.05l-0.9,106.89c-0.09,10.8,0.67,11.97-3.6,14.63c-3.1,1.9-1.98,5.39,1.49,6.19
		c4.24,0.81,9.26,0.08,15.82,0.13l41.68,0.35c6.56,0.06,11.96,0.49,16.2,0.52c2.32,0.02,1.95-2.3,1.19-4.23
		c-1.88-6.19-4.12-14.7-5.99-22.43c-1.12-3.87-4.98-4.67-6.55-1.6c-1.18,2.31-2.34,3.45-4.66,3.43l-24.31-0.2
		c-5.4-0.05-6.56-0.06-6.92-3.15l0.19-22.77c0.04-5.02,0.06-6.56,3.15-6.92L464.13,398.71L464.13,398.71z M507.31,435.43
		c-0.83,10.77-0.15,11.99-4.59,14.35c-3.23,1.69-2.72,5.21,1.07,6.27c4.17,1.09,9.23,0.71,15.78,1.21c5,0.39,8.82,1.07,12.31,0.95
		c3.91-0.47,4.94-3.88,2.01-6.04c-2.19-1.72-3.29-2.57-3.11-4.88l5.39-70.03l17.26,72.54c2.1,7.9,3.46,10.33,6.93,10.6l14.62,1.12
		c3.46,0.27,3.46,0.27,3.73-3.2l8.79-114.27c0.83-10.77,0.15-11.99,4.59-14.35c3.23-1.69,2.72-5.21-1.06-6.27
		c-4.17-1.1-9.23-0.71-15.78-1.21c-5-0.38-8.82-1.07-12.31-0.95c-3.91,0.47-4.94,3.88-2.01,6.04c2.19,1.72,2.9,2.55,3.08,5.27
		l-4.65,60.41l-15.21-63.87c-2.16-7.13-7.37-9.86-15.07-10.45c-6.54-0.5-10.33-1.57-14.62-1.12c-3.91,0.47-4.94,3.88-2.01,6.04
		c2.19,1.72,2.9,2.55,3.08,5.27L507.31,435.43L507.31,435.43z M599.49,443.62c-1.21,10.74-0.57,11.97-5.09,14.18
		c-3.28,1.57-2.91,5.11,0.84,6.31c4.13,1.24,8.82,0.99,15.72,1.77c4.99,0.56,8.78,1.38,12.27,1.38c3.92-0.33,5.08-3.7,2.23-5.96
		c-2.13-1.79-3.19-2.69-2.93-4.99l12.02-106.6c1.21-10.74,0.57-11.97,5.09-14.18c3.28-1.57,2.91-5.11-0.84-6.31
		c-4.13-1.24-9.2-1.04-15.72-1.77c-4.98-0.56-8.78-1.38-12.27-1.38c-3.92,0.33-5.08,3.7-2.23,5.96c2.13,1.79,2.81,2.65,2.89,5.37
		L599.49,443.62L599.49,443.62z M643.44,448.27c-1.82,10.65-1.25,11.92-5.89,13.87c-3.37,1.38-3.19,4.94,0.48,6.35
		c4.05,1.47,9.13,1.56,15.6,2.66c4.94,0.84,8.68,1.87,12.17,2.08c3.93-0.11,5.28-3.4,2.56-5.83c-2.02-1.91-3.03-2.87-2.64-5.15
		l11.82-69.23l10.49,73.82c1.36,8.06,2.5,10.6,5.92,11.19l14.45,2.47c3.42,0.58,3.42,0.58,4.01-2.84l19.29-112.98
		c1.82-10.65,1.25-11.92,5.89-13.87c3.37-1.38,3.19-4.94-0.48-6.35c-4.05-1.48-9.13-1.56-15.6-2.66c-4.94-0.84-8.68-1.87-12.17-2.08
		c-3.93,0.11-5.28,3.41-2.56,5.83c2.02,1.91,2.65,2.8,2.58,5.53l-10.2,59.72l-9.26-65c-1.49-7.3-6.43-10.49-14.04-11.79
		c-6.47-1.1-10.14-2.51-14.45-2.47c-3.93,0.11-5.28,3.4-2.56,5.83c2.02,1.91,2.65,2.8,2.58,5.53L643.44,448.27L643.44,448.27z
		 M789.93,356.97c-6.72-1.76-10.08-2.64-20.44,3.42c-10.46,6.43-11.13,7.46-13.48,16.42l-21.12,80.63
		c-2.35,8.96-2.27,10.18,3.7,20.91c6.06,10.36,9.42,11.24,16.14,13l16.8,4.4c6.72,1.76,10.45,2.74,20.82-3.32
		c10.46-6.43,10.76-7.55,13.1-16.51l8.12-30.98c0.88-3.36,1.76-6.72-0.72-10.96c-2.48-4.24-5.84-5.12-9.2-6l-10.08-2.64
		c-6.72-1.76-7.37-2.33-11.47-3.4c-2.24-0.59-2.73,1.28-2.57,3.72c-0.05,4.77-1.06,19.27-0.8,21.33c0.14,4.03,1.67,1.24,5.03,2.12
		c2.24,0.59,2.79,1.53,2.38,4.61l-3.32,12.69c-1.37,5.23-1.66,6.35-4.75,5.94l-13.81-3.62c-6.72-1.76-6.72-1.76-4.96-8.48
		l20.34-77.65c0.49-1.87,1.43-2.42,3.77-2.2l17.55,4.6c2.14,0.96,2.69,1.9,2.2,3.77l-6.26,23.89c-0.88,3.36-0.88,3.36,2.77,3.12
		c3.56,0.13,17.97-0.08,17.97-0.08c3.56,0.13,3.56,0.13,4.44-3.23l4.5-17.17c2.35-8.96,2.27-10.18-3.7-20.91
		c-6.06-10.36-9.42-11.24-16.14-13L789.93,356.97L789.93,356.97z"/>
	<path d="M322.16,273.51c0,8.62,0.62,9.55-2.77,11.7c-2.46,1.54-1.85,4.31,1.23,4.93c3.39,0.62,7.08,0,12.63,0c4,0,7.08,0.31,9.86,0
		c3.08-0.62,3.7-3.39,1.23-4.93c-1.85-1.23-2.77-1.85-2.77-3.7V195.9c0-8.62-0.62-9.55,2.77-11.7c2.46-1.54,1.85-4.31-1.23-4.93
		c-3.39-0.62-7.39,0-12.63,0c-4,0-7.08-0.31-9.86,0c-3.08,0.62-3.7,3.39-1.23,4.93c1.85,1.23,2.46,1.85,2.77,4V273.51L322.16,273.51
		z M387.17,273.51c0,8.62,0.62,9.55-2.77,11.7c-0.92,0.92-1.54,1.54-1.54,2.77c0,2.77,6.78,2.46,8.01,2.46
		c2.16,0,4.62-0.31,7.39-0.31h24.95c5.54,0,8.62,0,15.4-6.78c6.78-7.08,6.78-8.01,6.78-15.4v-66.52c0-7.39,0-8.32-6.78-15.4
		c-6.78-6.78-9.85-6.78-15.4-6.78h-24.95c-5.24,0-9.24-0.62-12.63,0c-2.77,0.62-3.7,3.39-1.23,4.93c1.85,1.23,2.46,1.85,2.77,4
		V273.51L387.17,273.51z M406.57,265.2v-60.98c0-4,0-5.24,2.46-5.54h14.47c1.54,0.31,2.16,0.92,2.46,2.46v67.14
		c-0.31,1.85-0.92,2.46-2.46,2.46h-11.39C406.57,270.74,406.57,270.74,406.57,265.2L406.57,265.2z M457.41,273.51
		c0,8.62,0.62,9.55-2.77,11.7c-2.46,1.54-1.85,4.31,1.23,4.93c3.39,0.62,7.08,0,12.63,0c4,0,7.08,0.31,9.86,0
		c3.08-0.62,3.7-3.39,1.23-4.93c-1.85-1.23-2.77-1.85-2.77-3.7V195.9c0-8.62-0.62-9.55,2.77-11.7c2.46-1.54,1.85-4.31-1.23-4.93
		c-3.39-0.62-7.39,0-12.63,0c-4,0-7.08-0.31-9.86,0c-3.08,0.62-3.7,3.39-1.23,4.93c1.85,1.23,2.46,1.85,2.77,4V273.51L457.41,273.51
		z M511.01,179.27c-5.54,0-8.32,0-15.09,6.78c-6.78,7.08-7.08,8.01-7.08,15.4v66.52c0,7.39,0.31,8.32,7.08,15.4
		c6.78,6.78,9.55,6.78,15.09,6.78h13.86c5.54,0,8.62,0,15.4-6.78c6.78-7.08,6.78-8.01,6.78-15.4v-25.56c0-2.77,0-5.54-2.77-8.32
		c-2.77-2.77-5.54-2.77-8.32-2.77h-8.32c-5.54,0-6.16-0.31-9.55-0.31c-1.85,0-1.85,1.54-1.23,3.39c0.92,3.7,3.08,15.09,3.7,16.63
		c0.92,3.08,1.54,0.62,4.31,0.62c1.85,0,2.46,0.62,2.77,3.08v10.47c0,4.31,0,5.24-2.46,5.54h-11.39c-5.54,0-5.54,0-5.54-5.54v-64.06
		c0-1.54,0.62-2.16,2.46-2.46h14.47c1.85,0.31,2.46,0.92,2.46,2.46v19.71c0,2.77,0,2.77,2.77,1.85c2.77-0.62,13.86-3.7,13.86-3.7
		c2.77-0.62,2.77-0.62,2.77-3.39v-14.17c0-7.39-0.31-8.32-7.08-15.4c-6.78-6.78-9.55-6.78-15.09-6.78H511.01L511.01,179.27z"/>
	<path class="st0" d="M483.41,634.47c0.3,1.19,0.33,2.32-0.13,3.23c-1.04,2.04-2.87,0.86-3.51,0.66c-0.45-0.14-0.7-0.02-0.95,0.1
		c-3.35,3.62-6.7,7.24-10.05,10.85c0.01,0.51,0.02,1.01,0.28,1.46c0.26,0.45,0.77,0.83,1.27,1.22
		c10.34,8.57,20.68,17.14,26.55,21.83c5.87,4.69,7.27,5.5,9.33,6.52c10.46,5.13,20.96,7.01,32.45,4.65
		c5.33-1.09,8.55-2.81,13.5-5.39l0.45-0.24l0.14-0.49c1.49-5.38,2.5-8.88,2.46-14.33c-0.08-11.74-4.11-21.61-11.3-30.78
		c-1.42-1.81-2.5-3.01-8.32-7.78c-5.81-4.77-16.34-13.1-26.88-21.43c-0.48-0.42-0.97-0.83-1.46-0.99c-0.49-0.16-0.99-0.07-1.49,0.03
		c-2.84,4.03-5.68,8.06-8.52,12.09c-0.38,0.83,0.82,1.64,1,2.58c0.32,1.72-1.6,2.74-3.65,2.74c-0.1,0-0.2,0-0.3-0.01
		c1.32,1.77,2.73,3.57,4.28,5.4c1.95,2.3,4.12,4.65,6.27,6.89c2.14,2.23,4.3,4.39,6.2,6.27c1.01,1,1.95,1.93,2.81,2.79
		c2.38,2.35,4.21,4.16,5.53,5.56c0.9,0.95,1.56,1.78,2.01,2.48c0.53,0.82,0.79,1.5,0.79,2.03c0.01,0.43-0.02,0.81-0.07,1.12
		c-0.13,0.73-0.44,1.09-1.13,1.38c-0.29,0.12-0.64,0.22-1.06,0.3c-0.51,0.1-1.24-0.01-2.15-0.35c-0.78-0.3-1.73-0.77-2.85-1.45
		c-1.64-1-3.79-2.41-6.59-4.25c-1.02-0.67-2.12-1.39-3.31-2.17c-2.24-1.46-4.79-3.12-7.42-4.75l0,0c-2.64-1.64-5.38-3.27-8.04-4.7
		C487.46,636.4,485.42,635.39,483.41,634.47L483.41,634.47z M380.56,634.47c-0.3,1.19-0.33,2.32,0.13,3.23
		c1.04,2.04,2.87,0.86,3.51,0.66c0.45-0.14,0.7-0.02,0.95,0.1c3.35,3.62,6.7,7.24,10.05,10.85c-0.01,0.51-0.02,1.01-0.28,1.46
		c-0.26,0.45-0.77,0.83-1.27,1.22c-10.34,8.57-20.68,17.14-26.55,21.83c-5.87,4.69-7.27,5.5-9.34,6.52
		c-10.46,5.13-20.96,7.01-32.45,4.65c-5.33-1.09-8.55-2.81-13.5-5.39l-0.45-0.24l-0.14-0.49c-1.49-5.38-2.5-8.88-2.46-14.33
		c0.08-11.74,4.11-21.61,11.3-30.78c1.42-1.81,2.5-3.01,8.32-7.78c5.81-4.77,16.34-13.1,26.88-21.43c0.48-0.42,0.97-0.83,1.46-0.99
		c0.49-0.16,0.99-0.07,1.49,0.03c2.84,4.03,5.68,8.06,8.52,12.09c0.38,0.83-0.82,1.64-1,2.58c-0.32,1.72,1.6,2.74,3.65,2.74
		c0.1,0,0.2,0,0.3-0.01c-1.32,1.77-2.73,3.57-4.28,5.4c-1.95,2.3-4.12,4.65-6.27,6.89c-2.14,2.23-4.3,4.39-6.2,6.27
		c-1.01,1-1.95,1.93-2.81,2.79c-2.38,2.35-4.21,4.16-5.53,5.56c-0.9,0.95-1.56,1.78-2.01,2.48c-0.53,0.82-0.79,1.5-0.79,2.03
		c-0.01,0.43,0.02,0.81,0.07,1.12c0.13,0.73,0.44,1.09,1.13,1.38c0.29,0.12,0.64,0.22,1.06,0.3c0.51,0.1,1.24-0.01,2.15-0.35
		c0.78-0.3,1.73-0.77,2.85-1.45c1.64-1,3.79-2.41,6.59-4.25c1.02-0.67,2.12-1.39,3.31-2.17c2.24-1.46,4.79-3.12,7.42-4.75l0,0
		c2.64-1.64,5.38-3.27,8.04-4.7C376.51,636.4,378.56,635.39,380.56,634.47L380.56,634.47z M476.05,552.8l-35.4,28.86l0.27,0.22
		l1.45,1.17l1.45,1.17l1.45,1.16l1.45,1.17l1.45,1.16l1.45,1.17l1.45,1.17l1.45,1.16l1.45,1.17l1.45,1.17l1.45,1.17l1.45,1.16
		l1.45,1.17l1.45,1.17l1.45,1.16l1.45,1.17l1.45,1.16l1.45,1.17l1.45,1.17l1.45,1.17l1.45,1.17l1.45,1.16l1.45,1.16l1.45,1.16
		l1.45,1.16l1.45,1.16l1.45,1.17l1.45,1.17l1.45,1.17l1.45,1.17l1.45,1.16l1.45,1.16c1.11,0.43,2.23,0.86,3.48,1.22
		c0.6,0.17,1.23,0.32,1.86,0.44c1.53,2.09,3.17,4.21,5.02,6.38c1.95,2.3,4.14,4.67,6.32,6.94c2.19,2.28,4.33,4.43,6.22,6.3
		c1.01,1,1.95,1.93,2.81,2.79c2.37,2.34,4.19,4.14,5.5,5.53c0.84,0.89,1.46,1.66,1.87,2.31c0.4,0.62,0.59,1.08,0.6,1.38
		c0.01,0.36-0.01,0.66-0.05,0.88c-0.06,0.32-0.09,0.34-0.39,0.46c-0.2,0.08-0.48,0.16-0.83,0.23c-0.29,0.06-0.78-0.04-1.47-0.3
		c-0.72-0.27-1.6-0.72-2.64-1.35c-1.63-0.99-3.77-2.4-6.55-4.23c-1.02-0.67-2.12-1.39-3.31-2.17c-2.23-1.46-4.78-3.11-7.45-4.77
		c-2.68-1.66-5.45-3.31-8.1-4.74c-2.52-1.35-4.93-2.52-7.29-3.58c-0.77-1.87-1.96-3.71-2.73-4.88l-1.44-1.17l-1.44-1.17l-1.44-1.17
		l-1.44-1.17l-1.44-1.17l-1.44-1.17l-1.44-1.17l-1.44-1.17l-1.44-1.17l-1.44-1.17l-1.44-1.17l-1.44-1.17l-1.44-1.17l-1.44-1.17
		l-1.44-1.17l-1.44-1.17l-1.44-1.17l-1.44-1.17l-1.44-1.17l-1.44-1.17l-1.44-1.17l-1.44-1.17l-1.44-1.17l-1.44-1.17l-1.44-1.17
		l-1.44-1.17l-1.44-1.17l-1.44-1.17l-1.44-1.17l-1.44-1.17l-1.44-1.17l-1.44-1.17l-1.44-1.17l-0.6-0.49l-48.15,39.26
		c-0.77,1.18-1.96,3.01-2.73,4.88c-2.36,1.06-4.78,2.23-7.29,3.58c-2.65,1.43-5.43,3.08-8.1,4.74c-2.68,1.66-5.23,3.32-7.45,4.77
		c-1.19,0.78-2.29,1.5-3.31,2.17c-2.78,1.83-4.92,3.24-6.55,4.23c-1.04,0.63-1.92,1.08-2.64,1.35c-0.69,0.26-1.18,0.36-1.47,0.3
		c-0.35-0.07-0.63-0.15-0.83-0.23c-0.3-0.12-0.33-0.15-0.39-0.46c-0.04-0.22-0.06-0.51-0.05-0.88c0-0.3,0.2-0.76,0.6-1.38
		c0.42-0.65,1.04-1.42,1.87-2.31c1.31-1.38,3.13-3.19,5.5-5.53c0.87-0.86,1.8-1.78,2.81-2.79c1.88-1.87,4.03-4.02,6.22-6.3
		c2.18-2.27,4.37-4.64,6.32-6.94c1.85-2.18,3.49-4.3,5.02-6.38c0.63-0.11,1.26-0.27,1.86-0.44c1.25-0.36,2.37-0.79,3.48-1.22
		l46.63-37.5L422.5,581l-1.44-1.17l-1.44-1.17l-1.44-1.17l-1.44-1.17l-1.44-1.17l-1.44-1.17l-1.44-1.17l-1.44-1.17l-1.44-1.17
		l-1.44-1.17l-1.44-1.17l-1.44-1.17l-1.44-1.17l-1.44-1.17l-1.44-1.17l-1.44-1.17l-1.44-1.17l-1.44-1.17l-1.44-1.17l-1.44-1.17
		l-1.44-1.17l-1.44-1.17l-1.44-1.17l-1.44-1.17c-0.02-0.82-0.02-1.58,0.1-2.23c0.37-1.92,2.52-4.62,4.37-5.4
		c0.61-0.26,1.36-0.41,2.16-0.57l1.86,1.49l5.05,4.06l2.82,2.27l1.88,1.51l1.83,1.47l6.29,5.06l3.44,2.76l0.05,0.04l3.66,2.95
		l2.94,2.37l0.77,0.62l1.96,1.58l4.87,3.91l37.43-30.09c0.8,0.15,1.55,0.31,2.16,0.57c1.85,0.78,4,3.48,4.37,5.4
		C476.08,551.22,476.07,551.99,476.05,552.8L476.05,552.8z M472.06,544.04c-0.77-0.32-1.61-0.49-2.52-0.66
		c0.15-0.34,0.71-0.83,1.99-1.9c2.07-1.73,6.2-4.97,10.33-8.21c0.51-0.96,1.03-1.92,1.47-2.98c1.22-2.89,1.99-6.97,3.37-11
		c3.38-9.87,7.62-15.47,15.75-22.37c2.36-2,9.5-7.69,11.19-7.76c0.74-0.03,1.38,0.42,2.69,1.62c5.32,4.88,18.46,21.11,22.13,27.33
		c1.71,2.89,1.5,3.16-1.54,6c-6.48,6.05-15.09,12.85-23.77,15.33c-5.92,1.69-10.44,1.94-15.99,2.27c-1.87,0.11-3.08,0.25-4.21,0.46
		c-1.13,0.22-2.17,0.52-3.22,0.82c-4.03,3.36-8.06,6.72-10.18,8.39c-1.31,1.03-1.91,1.48-2.27,1.55c0.02-0.92,0.03-1.78-0.12-2.6
		C476.71,548.01,474.29,544.98,472.06,544.04L472.06,544.04z M493.5,531.89c2.47,1.89,8.22,2.85,11.74,2.82
		c6.72-0.06,16.91-2.53,21.55-7.29c1.77-1.81,1.36-3.12,0.13-5.24c-2.52-4.34-4.65-6.81-7.96-10.89c-3.3-4.08-5.27-6.68-9-10.05
		c-1.82-1.64-3.01-2.32-5.15-0.97c-5.62,3.55-10.17,13-11.62,19.56C492.43,523.26,492.17,529.08,493.5,531.89L493.5,531.89z
		 M391.92,544.04c0.77-0.32,1.61-0.49,2.52-0.66c-0.15-0.34-0.71-0.83-1.99-1.9c-2.08-1.73-6.2-4.97-10.33-8.21
		c-0.51-0.96-1.03-1.92-1.47-2.98c-1.22-2.89-1.99-6.97-3.37-11c-3.38-9.87-7.62-15.47-15.75-22.37c-2.36-2-9.5-7.69-11.19-7.76
		c-0.74-0.03-1.38,0.42-2.69,1.62c-5.32,4.88-18.46,21.11-22.13,27.33c-1.71,2.89-1.5,3.16,1.54,6
		c6.48,6.05,15.09,12.85,23.77,15.33c5.92,1.69,10.44,1.94,15.99,2.27c1.87,0.11,3.08,0.25,4.21,0.46c1.13,0.22,2.17,0.52,3.22,0.82
		c4.03,3.36,8.06,6.72,10.18,8.39c1.31,1.03,1.91,1.48,2.27,1.55c-0.02-0.92-0.03-1.78,0.12-2.6
		C387.26,548.01,389.68,544.98,391.92,544.04L391.92,544.04z M370.47,531.89c-2.47,1.89-8.22,2.85-11.74,2.82
		c-6.72-0.06-16.91-2.53-21.55-7.29c-1.77-1.81-1.36-3.12-0.13-5.24c2.52-4.34,4.65-6.81,7.96-10.89c3.3-4.08,5.27-6.68,9-10.05
		c1.82-1.64,3.01-2.32,5.15-0.97c5.62,3.55,10.17,13,11.62,19.56C371.55,523.26,371.8,529.08,370.47,531.89L370.47,531.89z"/>
	<path d="M165.1,579.7c-3.1-3.25-3.67-3.25-7.06-3.25h-5.64c-2.12,0-2.12-0.14-2.12-2.54v-6.49c0-2.54,0-2.54,2.54-2.54h3.39
		c2.68,0,2.96,0.28,2.96,3.39v2.54c0,1.27,0,1.27,1.27,0.85c1.27-0.28,6.35-1.69,6.35-1.69c1.27-0.42,1.27-0.42,1.27-1.69v-2.12
		c0.14-2.54,0.14-5.78,0.14-8.47c0-1.27-1.13-1.69-1.83-0.56c-1.55,2.82-1.83,2.12-2.54,0.99c-1.13-1.69-2.96-2.12-5.93-2.12h-6.35
		c-2.4,0-3.81,0-6.91,3.1c-3.1,3.1-3.1,3.67-3.25,7.05v9.03c0,2.54,0.14,3.95,3.25,7.06c3.1,3.1,3.67,3.1,7.05,3.1h5.79
		c1.83,0,1.83,0.28,1.83,2.54v7.48c0,2.54,0,2.54-2.54,2.54h-3.95c-2.54,0-2.54,0-2.54-2.54v-4.94c0-1.27,0-1.27-1.27-1.27h-6.35
		c-1.27,0-1.27,0-1.27,1.27v6.21c0,3.39,0.14,3.95,3.25,7.06c3.1,3.1,4.52,3.1,6.91,3.1h6.49c2.54,0,3.95,0,7.06-3.1
		c3.1-3.1,3.1-3.67,3.1-7.06v-10.16C168.21,584.07,168.21,582.66,165.1,579.7L165.1,579.7z M173.72,599.17
		c0,3.95,0.28,4.37-1.27,5.36c-1.13,0.71-0.85,1.98,0.56,2.26c1.55,0.28,3.25,0,5.79,0c1.83,0,3.25,0.14,4.52,0
		c1.41-0.28,1.69-1.55,0.56-2.26c-0.85-0.56-1.27-0.85-1.27-1.69v-39.23c0-3.95-0.28-4.37,1.27-5.36c1.13-0.71,0.85-1.98-0.56-2.26
		c-1.55-0.28-3.39,0-5.79,0c-1.83,0-3.25-0.14-4.52,0c-1.41,0.28-1.69,1.55-0.56,2.26c0.85,0.56,1.13,0.85,1.27,1.83V599.17
		L173.72,599.17z M189.39,599.17c0,3.95,0.28,4.37-1.27,5.36c-1.13,0.71-0.85,1.98,0.56,2.26c1.55,0.28,3.39,0,5.79,0
		c1.83,0,3.25,0.14,4.52,0c1.41-0.28,1.69-1.55,0.56-2.26c-0.85-0.56-1.27-0.85-1.27-1.69v-25.68l8.33,25.96
		c0.99,2.82,1.55,3.67,2.82,3.67h5.36c1.27,0,1.27,0,1.27-1.27v-41.91c0-3.95-0.28-4.37,1.27-5.36c1.13-0.71,0.85-1.98-0.56-2.26
		c-1.55-0.28-3.39,0-5.79,0c-1.83,0-3.25-0.14-4.52,0c-1.41,0.28-1.69,1.55-0.56,2.26c0.85,0.56,1.13,0.85,1.27,1.83v22.15
		l-7.34-22.86c-0.99-2.54-2.96-3.39-5.79-3.39c-2.4,0-3.81-0.28-5.36,0c-1.41,0.28-1.69,1.55-0.56,2.26
		c0.85,0.56,1.13,0.85,1.27,1.83V599.17L189.39,599.17z M238.09,564.88c0.85,0.14,1.27,0.42,1.27,1.13v9.03c0,1.27,0,1.27,1.27,0.85
		c1.27-0.28,6.35-1.69,6.35-1.69c1.27-0.28,1.27-0.28,1.27-1.55v-6.49c0-3.39-0.28-3.81-3.39-7.05c-3.1-3.1-4.23-3.1-6.77-3.1h-6.35
		c-2.54,0-3.81,0-6.91,3.1c-3.1,3.25-3.25,3.67-3.25,7.05v30.48c0,3.39,0.14,3.81,3.25,7.06c3.1,3.1,4.37,3.1,6.91,3.1h6.35
		c2.54,0,3.95,0,7.06-3.1c3.1-3.25,3.1-3.67,3.1-7.06v-7.62c0-1.27,0-1.27-1.27-1.27h-6.35c-1.27,0-1.27,0-1.27,1.27v6.35
		c0,1.98,0,2.4-1.13,2.54h-5.22c-2.54,0-2.54,0-2.54-2.54v-29.35c0-0.71,0.28-0.99,1.13-1.13H238.09L238.09,564.88z M270.27,585.91
		c3.95,0,4.37-0.28,5.36,1.27c0.71,1.13,1.98,0.71,2.26-0.56c0.28-1.55,0-3.39,0-5.79c0-1.83,0.14-3.39,0-4.52
		c-0.28-1.41-1.55-1.83-2.26-0.56c-0.99,1.41-1.41,1.27-5.36,1.27h-4.94c-2.54,0-2.54,0-2.54-2.54v-7.06c0-2.54,0-2.54,2.54-2.54
		h8.89c0.85,0.14,1.27,0.42,1.69,1.27c0.56,1.13,1.98,0.85,2.4-0.56c1.13-4.37,1.83-6.63,2.26-8.18c0.28-0.85,0.42-1.55-0.42-1.55
		c-1.55,0-3.53,0.14-5.93,0.14h-15.24c-2.4,0-4.23-0.28-5.79,0c-1.27,0.28-1.69,1.55-0.56,2.26c0.85,0.56,1.13,0.85,1.27,1.83v39.09
		c0,3.95,0.28,4.37-1.27,5.36c-1.13,0.71-0.71,1.98,0.56,2.26c1.55,0.28,3.39,0,5.79,0h15.24c2.4,0,4.37,0.14,5.93,0.14
		c0.85,0,0.71-0.85,0.42-1.55c-0.71-2.26-1.55-5.36-2.26-8.18c-0.42-1.41-1.83-1.69-2.4-0.56c-0.42,0.85-0.85,1.27-1.69,1.27h-8.89
		c-1.98,0-2.4,0-2.54-1.13v-8.33c0-1.83,0-2.4,1.13-2.54H270.27L270.27,585.91z"/>
	<path d="M607.7,557.62c-3.25-3.1-4.52-3.1-7.05-3.1h-11.43c-2.4,0-4.23-0.28-5.79,0c-1.41,0.28-1.69,1.55-0.56,2.26
		c0.85,0.56,1.13,0.85,1.27,1.83v42.75c-0.14,0.85-0.42,1.13-1.27,1.69c-1.13,0.71-0.85,1.98,0.56,2.26c1.55,0.28,3.39,0,5.79,0
		h11.43c2.54,0,3.81,0,7.05-3.1c3.1-3.1,3.1-3.67,3.1-7.06v-6.91c0-3.39,0-3.95-3.1-7.06l-1.41-1.27c0.42-0.28,0.85-0.71,1.41-1.27
		c3.1-3.1,3.1-3.67,3.1-7.06v-6.91C610.8,561.29,610.8,560.87,607.7,557.62L607.7,557.62z M601.91,593.89c0,1.98,0,2.4-1.13,2.54
		h-6.63c-0.85,0-1.13-0.28-1.13-1.13v-9.88c0-0.71,0.28-0.99,1.13-1.13h5.22c1.83,0,2.4,0.14,2.54,1.27V593.89L601.91,593.89z
		 M593.02,572.86v-8.33c0-0.71,0.28-0.99,1.13-1.13h6.63c0.71,0.14,0.99,0.42,1.13,1.13v9.74c-0.14,0.85-0.42,1.13-1.27,1.13h-6.49
		C593.02,575.26,593.02,574.84,593.02,572.86L593.02,572.86z M616.32,597.7c0,3.95,0.28,4.37-1.27,5.36
		c-1.13,0.71-0.85,1.98,0.56,2.26c1.55,0.28,3.24,0,5.79,0c1.83,0,3.25,0.14,4.52,0c1.41-0.28,1.69-1.55,0.56-2.26
		c-0.85-0.56-1.27-0.85-1.27-1.69v-39.23c0-3.95-0.28-4.37,1.27-5.36c1.13-0.71,0.85-1.98-0.56-2.26c-1.55-0.28-3.39,0-5.79,0
		c-1.83,0-3.25-0.14-4.52,0c-1.41,0.28-1.69,1.55-0.56,2.26c0.85,0.56,1.13,0.85,1.27,1.83V597.7L616.32,597.7z M655.55,557.62
		c-3.1-3.1-4.52-3.1-7.06-3.1h-11.43c-2.4,0-4.23-0.28-5.79,0c-1.27,0.28-1.69,1.55-0.56,2.26c0.85,0.56,1.13,0.85,1.27,1.83v39.09
		c0,3.95,0.28,4.37-1.27,5.36c-1.13,0.71-0.71,1.98,0.56,2.26c1.55,0.28,3.39,0,5.79,0c1.83,0,3.24,0.14,4.52,0
		c1.41-0.28,1.69-1.55,0.56-2.26c-0.99-0.56-1.27-0.99-1.27-2.12v-15.52c0-0.99,0.56-1.13,1.83-1.13h0.71
		c1.41,0.14,2.26,0.42,4.23,2.26c2.26,2.26,2.12,2.68,2.12,5.08v6.63c0,3.95,0.28,3.81-1.27,4.8c-1.13,0.71-0.71,1.98,0.56,2.26
		c1.55,0.28,3.39,0,5.79,0c1.83,0,3.24,0.14,4.52,0c1.41-0.28,1.69-1.55,0.56-2.26c-1.41-0.99-1.27-1.41-1.27-5.36v-7.34
		c0-2.82-1.83-5.5-4.23-8.04c0.42-0.28,0.71-0.71,1.13-1.13c3.1-3.1,3.1-3.67,3.1-7.06v-9.45
		C658.66,561.29,658.66,560.87,655.55,557.62L655.55,557.62z M649.77,565.95v7.2c0,1.69-0.14,2.26-1.13,2.26h-6.63
		c-0.85,0-1.13-0.28-1.13-1.13v-9.74c0.14-1.13,0.56-1.13,2.54-1.13h5.08C649.77,563.55,649.77,563.97,649.77,565.95L649.77,565.95z
		 M681.95,563.41c4.23,0,4.37,0,5.79,1.55c0.85,0.99,1.98,0.28,2.12-1.13c0.14-1.55,0.14-4.66,0.14-6.91c0-2.54-0.28-2.4-1.69-2.4
		h-26.67c-1.41,0-1.69-0.14-1.69,2.4c0,2.26,0,5.36,0.14,6.91c0.14,1.41,1.27,2.12,2.12,1.13c1.41-1.55,1.55-1.55,5.79-1.55
		c1.83,0,2.4,0,2.54,1.13v36.83c-0.14,0.85-0.42,1.13-1.27,1.69c-1.13,0.71-0.85,1.98,0.56,2.26c1.55,0.28,3.25,0,5.79,0
		c1.83,0,3.25,0.14,4.52,0c1.41-0.28,1.69-1.55,0.56-2.26c-1.55-0.99-1.27-1.41-1.27-5.36v-33.16
		C679.55,563.41,679.97,563.41,681.95,563.41L681.95,563.41z M694.09,597.7c0,3.95,0.28,4.37-1.27,5.36
		c-1.13,0.71-0.85,1.98,0.56,2.26c1.55,0.28,3.39,0,5.79,0c1.83,0,3.24,0.14,4.52,0c1.41-0.28,1.69-1.55,0.56-2.26
		c-1.55-0.99-1.27-1.41-1.27-5.36v-12.14c0-0.71,0.28-0.99,1.13-1.13h5.22c2.54,0,2.54,0,2.54,2.54v14.39
		c-0.14,0.85-0.42,1.13-1.27,1.69c-1.13,0.71-0.85,1.98,0.56,2.26c1.55,0.28,3.39,0,5.79,0c1.83,0,3.25,0.14,4.52,0
		c1.41-0.28,1.69-1.55,0.56-2.26c-1.55-0.99-1.27-1.41-1.27-5.36v-39.09c0-0.99,0.42-1.27,1.27-1.83c1.13-0.71,0.85-1.98-0.56-2.26
		c-1.55-0.28-3.39,0-5.79,0c-1.83,0-3.25-0.14-4.52,0c-1.41,0.28-1.69,1.55-0.56,2.26c0.85,0.56,1.13,0.85,1.27,1.83v15.8
		c-0.14,1.13-0.71,1.13-2.54,1.13h-3.81c-1.98,0-2.4,0-2.54-1.13v-15.8c0-0.99,0.42-1.27,1.27-1.83c1.13-0.71,0.85-1.98-0.56-2.26
		c-1.55-0.28-3.39,0-5.79,0c-1.83,0-3.25-0.14-4.52,0c-1.41,0.28-1.69,1.55-0.56,2.26c0.85,0.56,1.13,0.85,1.27,1.83V597.7
		L694.09,597.7z"/>
	<path class="st0" d="M573.56,227.78h86.5c0.8,0,1.46,0.66,1.46,1.46v10.95c0,0.8-0.66,1.46-1.46,1.46h-86.5
		c-0.8,0-1.46-0.66-1.46-1.46v-10.95C572.1,228.43,572.76,227.78,573.56,227.78L573.56,227.78z M206.71,227.78h86.5
		c0.8,0,1.46,0.66,1.46,1.46v10.95c0,0.8-0.66,1.46-1.46,1.46h-86.5c-0.8,0-1.46-0.66-1.46-1.46v-10.95
		C205.25,228.43,205.91,227.78,206.71,227.78L206.71,227.78z"/>
	<path class="st0" d="M137.26,538.38h146.19c0.66,0,1.2,0.54,1.2,1.2v6.51c0,0.66-0.54,1.2-1.2,1.2H137.26c-0.66,0-1.2-0.54-1.2-1.2
		v-6.51C136.06,538.92,136.6,538.38,137.26,538.38L137.26,538.38z M137.26,615.49h146.19c0.66,0,1.2,0.54,1.2,1.2v6.51
		c0,0.66-0.54,1.2-1.2,1.2H137.26c-0.66,0-1.2-0.54-1.2-1.2v-6.51C136.06,616.03,136.6,615.49,137.26,615.49L137.26,615.49z"/>
	<path class="st0" d="M579.35,538.38h146.19c0.66,0,1.2,0.54,1.2,1.2v6.51c0,0.66-0.54,1.2-1.2,1.2H579.35c-0.66,0-1.2-0.54-1.2-1.2
		v-6.51C578.15,538.92,578.69,538.38,579.35,538.38L579.35,538.38z M579.35,615.49h146.19c0.66,0,1.2,0.54,1.2,1.2v6.51
		c0,0.66-0.54,1.2-1.2,1.2H579.35c-0.66,0-1.2-0.54-1.2-1.2v-6.51C578.15,616.03,578.69,615.49,579.35,615.49L579.35,615.49z"/>
</g>
</svg>
