<?xml version="1.0" encoding="utf-8"?>
<!-- Generator: Adobe Illustrator 25.0.0, SVG Export Plug-In . SVG Version: 6.00 Build 0)  -->
<svg version="1.1" id="Layer_1" xmlns="http://www.w3.org/2000/svg" xmlns:xlink="http://www.w3.org/1999/xlink" x="0px" y="0px"
	 viewBox="0 0 864 864" style="enable-background:new 0 0 864 864;" xml:space="preserve">
<style type="text/css">
	.st0{fill-rule:evenodd;clip-rule:evenodd;}
</style>
<g>
	<path class="st0" d="M317.29,597.92c-9.46,1.15-28.21,7.19-33.36,9.28c12.15-22.92-6.67-52.63-56.6,11.58
		c1.61-4.85,3.14-9.68,4.73-14.53c1.3-4.04-10.85-7.97-12.67-3.49c-3.32,7.97-9.2,40-13.3,48.41
		c-10.48,16.54-20.47,34.23-28.6,52.07c-2.82,6.13-5.65,12.73-7.55,19.17c-3.78,13.05,2.57,17.02,8.53,14.28
		c11.27-5.21,32.22-66.97,37.05-80.88c12.61-19.78,31.78-46.73,51.08-59.91c20.22-13.84,7.67,15.26-3.97,23.52
		c-3.87,2.7-24.13,11.77-23.21,19.55c1.59,13.47,22.6-5.33,25.91-8.09c11.88-9.84,31.8-15.75,48.12-19.36
		c-8.28,30.58,4.59,47.31,31.21,34.91c8.84-4.1,17.53-10.75,25.48-18.21c0.32,2.63,1.26,4.98,2.96,6.88
		c10.35,11.58,31.53-7.72,40.54-16.04c-3.49,10.71-1.11,27.56,13.91,29.65c12.96,1.77,27.23-7.7,39.1-18.54l-5.47,14.36
		c-0.67,1.9,0.13,3.93,1.9,4.85c3.81,1.97,5.52,1.97,7.84-0.56c2.63-2.8,10.06-15.49,19.68-26.64
		c10.16-11.88,27.68-33.62,29.15-6.98c0.48,8.7,1.97,19.36,12.38,22.25c9.4,2.64,22.72-3.08,33.77-11.61
		c-6.69,24.08-8.54,46.7,3.05,56.5c4.89,4.54,14.39-7.78,10.23-10.96c-23.71-11.83,19.61-103.65,30.51-122.34
		c12.8-0.38,39.58,0,53.65,1.59c5.4-0.13,6.25-11.63,0.82-11.52l-48.82,0.25c8.87-16.54,12.3-20.89,13.91-23.08
		c3.72-5.21-6.92-11.9-9.62-8.15c-3.43,4.73-14.82,28.35-16.6,31.36c-13.55,0.25-61.81-0.67-71.07,12.8
		c-3.12,4.6,6.63,12.13,9.62,7.72c6.19-9.56,39.46-10.64,56.12-10.77c-4.45,8.2-15.26,29.59-24.07,53.15
		c-0.07,0.1-0.14,0.2-0.21,0.31c-7.46,12.63-27.87,27.52-38.29,24.57c-4.77-1.34-4.16-9.3-4.77-17.4
		c-2.09-25.18-20.28-20.39-32.89-8.2c-5.77,5.5-11.58,11.75-15.33,15.97c1.05-2.57,2.35-5.11,3.57-7.59
		c0.74-1.26,0.82-1.65,1.28-2.63c2.32-5.08-7.78-9.18-9.99-4.35l-0.9,2.37c-10.56,13.25-38.66,39.66-49.45,29.98
		c-9.24-8.41,6.44-34.56,11.65-40.67c2.26-2.63,1.4-4.66-0.5-6.5c-6.06-5.65-6.19-2.7-14.95,6.8c-11.12-15.55-28.91-7.8-40.72,5.34
		c-0.56,0.21-1.09,0.56-1.54,1.1c-10.48,12.86-25.36,28.54-40.38,35.53c-24.32,11.33-20.51-11.15-15.24-27.39
		c16.54-17.08,31.24-33.14,45.56-52.19c23.23-30.93,12.25-45.27-0.42-40.06C350.09,523.69,326.59,573.23,317.29,597.92
		L317.29,597.92z M622.4,604.25c6.92-8.38,12.92-26.95,3.55-30.13c-9.68-3.24-25.97,19.97-13.3,36.38
		c4.06,5.27,9.01,9.81,13.11,15.26c-5.37,4.04-10.58,8.64-14.7,13.91c-3.78,4.77-8.13,11.94-6.42,18.38
		c0.73,2.86,2.51,5.08,5.02,6.54c5.46,3.12,12.61,1.71,17.81-1.11c3.74-1.94,6.92-4.77,9.33-8.2c4.7-6.86,6.86-14.34,5.44-22.92
		c-0.36-1.28-0.86-2.57-1.4-3.81c11.58-7.15,26.53-12.73,48.95-15.56c6.06-1.84,3.85-12.13-2.51-10.29
		c-22.92,2.7-39.46,9.14-51.9,16.79C630.81,615.04,627.48,610.15,622.4,604.25L622.4,604.25z M630.81,635.26
		c1.34,4.96,0.42,9.49-2.7,13.97c-4.91,7.15-20.89,12.32-8.76-3.01C622.59,642.12,626.56,638.44,630.81,635.26L630.81,635.26z
		 M415.41,600.83c-1.46,1.42-32.77,32.72-33.94,23.04C379.95,611.01,405.79,582.63,415.41,600.83L415.41,600.83z M356.97,544.47
		c16-23.9,20.76-18.07,6.31,3.05c-8.7,12.69-20.83,25.99-26.72,32.41C340.18,572.76,348.4,557.27,356.97,544.47L356.97,544.47z"/>
	<path class="st0" d="M52.4,228.79v-98.64H35v98.64H52.4L52.4,228.79z M80.39,130v98.79h17.4v-49.77l18.76,49.77h17.55V130h-17.4
		v49.93L97.78,130H80.39L80.39,130z M177.82,147.4v81.39h8.62h8.62V147.4h18.16V130h-53.56v8.62v8.77H177.82L177.82,147.4z
		 M235.16,130v98.79h17.4v-40.7h15.73l3.18,3.18v37.52h17.25v-44.78l-4.54-4.54l4.54-4.69v-31.47L275.4,130h-16.34H235.16
		L235.16,130z M268.29,170.7h-15.73v-23.3h15.73l3.18,3.18v17.1L268.29,170.7L268.29,170.7z M315.19,143.31v72.17l13.31,13.31h26.93
		l13.31-13.31v-72.17L355.43,130H328.5L315.19,143.31L315.19,143.31z M335.61,211.39l-3.03-3.03v-57.94l3.03-3.03h12.71l3.03,3.03
		v57.94l-3.03,3.03H335.61L335.61,211.39z M390.68,130l19.37,98.79h23L452.41,130h-17.7l-13.16,67.02L408.38,130H390.68L390.68,130z
		 M475.86,130v98.79h44.93v-17.4H493.1v-23.3h19.37v-17.4H493.1v-23.3h27.69V130H475.86L475.86,130z M548.78,130v98.79h17.4v-40.7
		h15.73l3.18,3.18v37.52h17.25v-44.78l-4.54-4.54l4.54-4.69v-31.47L589.02,130h-16.34H548.78L548.78,130z M581.91,170.7h-15.73
		v-23.3h15.73l3.18,3.18v17.1L581.91,170.7L581.91,170.7z M643.18,147.4v81.39h8.62h8.62V147.4h18.15V130h-53.56v8.62v8.77H643.18
		L643.18,147.4z M700.52,130v98.79h44.93v-17.4h-27.69v-23.3h19.37v-17.4h-19.37v-23.3h27.69V130H700.52L700.52,130z M773.44,130
		v98.79h40.24L827,215.48v-72.17L813.69,130h-1.51H773.44L773.44,130z M790.69,211.39v-64h15.89l3.03,3.18v57.79l-3.03,3.03H790.69
		L790.69,211.39z"/>
	<path class="st0" d="M769.74,281.09l-13.31,13.31v72.17l13.31,13.31h27.08l13.31-13.31v-35.4h-24.66v17.25h7.26v10.89l-3.18,3.18
		H777l-3.18-3.18v-57.79l3.18-3.18h12.56l3.18,3.18v8.17h17.4V294.4l-13.31-13.31H769.74L769.74,281.09z M728.59,379.88v-98.79
		h-17.4v49.93l-18.91-49.93h-17.4v98.79h17.4v-49.77l18.76,49.77H728.59L728.59,379.88z M646.89,379.88v-98.64h-17.4v98.64H646.89
		L646.89,379.88z M576.99,362.48v-81.39h-17.4v98.79h44.93v-17.4H576.99L576.99,362.48z M534.63,362.48H507.1v-81.39h-17.4v98.79
		h44.93V362.48L534.63,362.48z M461.71,379.88v-98.64h-17.4v98.64H461.71L461.71,379.88z M413.15,379.88l6.96-98.79h-17.4
		l-4.24,61.12l-7.56-28.9h-14.98l-8.02,30.71l-5.14-62.94h-17.55l8.17,98.79h20.27l9.68-37.37l9.83,37.37H413.15L413.15,379.88z
		 M246.12,379.88v-81.39h18.15v-17.4h-53.56v8.62v8.77h18.15v81.39h8.62H246.12L246.12,379.88z M187.27,366.57v-85.48h-17.4v78.37
		l-3.18,3.03h-12.56l-3.18-3.03v-78.37h-17.4v85.48l13.31,13.31h27.08L187.27,366.57L187.27,366.57z M105.58,366.57V335.1
		l-4.69-4.69l4.69-4.54v-31.62l-13.16-13.16H51.87v98.79h40.39L105.58,366.57L105.58,366.57z M88.18,318.61L85,321.79H69.27v-23.45
		H85l3.18,3.18V318.61L88.18,318.61z M85,339.18l3.18,3.03v17.1L85,362.48H69.27v-23.3H85L85,339.18z"/>
	<path class="st0" d="M188.33,432.18H161.4l-13.31,13.31v72.17l13.31,13.31h26.93l13.31-13.31v-72.17L188.33,432.18L188.33,432.18z
		 M184.25,452.6v57.94l-3.03,3.03h-12.71l-3.03-3.03V452.6l3.03-3.03h12.71L184.25,452.6L184.25,452.6z M282.59,432.18v98.79h40.24
		l13.31-13.31v-72.17l-13.31-13.31h-1.51H282.59L282.59,432.18z M299.83,513.57v-64h15.89l3.03,3.18v57.79l-3.03,3.03H299.83
		L299.83,513.57z M364.13,432.33v81.36c1.44-0.93,2.87-1.69,4.3-2.29c4.2-1.74,9-2.04,13.07,0.25c0.01,0,0.01,0.01,0.02,0.01v-79.33
		H364.13L364.13,432.33z M409.52,445.49v31.47l13.31,13.31h19.82l3.03,3.18v17.1l-3.18,3.03h-12.56l-3.18-3.03v-11.5h-17.25v18.61
		l13.31,13.31h26.93l13.31-13.31v-31.47l-13.31-13.31h-19.82l-3.18-3.18v-17.1l3.18-3.03h12.56l3.18,3.03v8.17h17.4v-15.28
		l-13.31-13.31h-27.08L409.52,445.49L409.52,445.49z M489.55,445.49v72.17l13.31,13.31h26.93l13.31-13.31V498.9h-17.4v11.5
		l-3.03,3.18h-12.71l-3.18-3.18v-57.64l3.18-3.18h12.71l3.03,3.18v8.02h17.4v-15.28l-13.31-13.31h-26.93L489.55,445.49
		L489.55,445.49z M571.09,432.18v85.48l13.31,13.31h17.27c1.98-3.82,3.87-7.91,5.73-11.56c2.46-4.81,5.58-11.48,8.71-15.8
		c2.06-2.85,5.42-3.39,8.68-2.47v-68.96h-17.4v78.37l-3.18,3.03h-12.56l-3.18-3.03v-78.37H571.09L571.09,432.18z M652.79,445.49
		v31.47l13.31,13.31h19.82l3.03,3.18v17.1l-3.18,3.03h-12.56l-3.18-3.03v-11.5h-17.25v18.61l13.31,13.31h26.93l13.31-13.31v-31.47
		l-13.31-13.31h-19.82l-3.18-3.18v-17.1l3.18-3.03h12.56l3.18,3.03v8.17h17.4v-15.28l-13.31-13.31h-27.08L652.79,445.49
		L652.79,445.49z M734.34,445.49v31.47l13.31,13.31h19.82l3.03,3.18v17.1l-3.18,3.03h-12.56l-3.18-3.03v-11.5h-17.25v18.61
		l13.31,13.31h26.93l13.31-13.31v-31.47l-13.31-13.31h-19.82l-3.18-3.18v-17.1l3.18-3.03h12.56l3.18,3.03v8.17h17.4v-15.28
		l-13.31-13.31H747.5L734.34,445.49L734.34,445.49z M109.51,530.97v-81.39h18.15v-17.4H74.11v8.62v8.78h18.15v81.39h8.62H109.51
		L109.51,530.97z"/>
</g>
</svg>
