<?xml version="1.0" encoding="utf-8"?>
<!-- Generator: Adobe Illustrator 25.0.0, SVG Export Plug-In . SVG Version: 6.00 Build 0)  -->
<svg version="1.1" id="Layer_1" xmlns="http://www.w3.org/2000/svg" xmlns:xlink="http://www.w3.org/1999/xlink" x="0px" y="0px"
	 viewBox="0 0 864 864" style="enable-background:new 0 0 864 864;" xml:space="preserve">
<style type="text/css">
	.st0{fill:#33CC66;}
	.st1{fill-rule:evenodd;clip-rule:evenodd;fill:#33CC66;}
</style>
<g>
	<path class="st0" d="M81.17,528.95c0-4.23,3.85-8.08,8.46-8.08c6.16,0,12.7,0,19.24,0c42.32,0,64.64-29.24,64.64-58.1
		c0-27.32-20.78-56.95-60.02-56.95H48.08c-7.31,0-13.08,5.77-13.08,13.08v163.91c0,4.62,3.46,8.08,8.08,8.08h30.01
		c4.62,0,8.08-3.46,8.08-8.08V528.95L81.17,528.95z M113.49,450.07c14.62,0,15.78,9.62,15.78,12.7c0,8.46-7.7,13.85-20.39,13.85
		c-6.54,0-13.08,0-19.24,0c-4.62,0-8.46-3.46-8.46-8.08v-10.39c0-4.62,3.85-8.08,8.46-8.08H113.49L113.49,450.07z M321.79,590.9
		c4.62,0,8.46-3.85,8.46-8.46v-27.7c0-4.62-3.85-8.08-8.46-8.08h-70.03c-4.62,0-8.47-3.78-8.47-8.02V414.29
		c0-4.62-3.46-8.47-8.08-8.47h-30.01c-4.62,0-8.08,3.85-8.08,8.47v163.53c0,7.31,5.77,13.08,13.08,13.08
		C247.4,590.9,284.6,590.9,321.79,590.9L321.79,590.9z M736.58,590.9h30.01c4.62,0,8.08-3.46,8.08-8.08V458.09
		c0-4.23,3.85-8.02,8.46-8.02h35.78c4.62,0,8.08-3.46,8.08-8.08V413.9c0-4.23-3.46-8.08-8.08-8.08H684.63
		c-4.62,0-8.08,3.85-8.08,8.08v28.09c0,4.62,3.46,8.08,8.08,8.08h35.78c4.23,0,8.08,3.78,8.08,8.02v124.73
		C728.5,587.44,731.96,590.9,736.58,590.9L736.58,590.9z M607.29,413.9v79.26c0,2.69-3.85,3.46-5,0.77l-38.86-83.5
		c-1.54-3.08-4.23-4.62-7.31-4.62h-31.17c-5.77,0-10,4.23-10,9.62v167.38c0,4.62,3.85,8.08,8.08,8.08h30.01
		c4.62,0,8.08-3.46,8.08-8.08v-85.8c0-3.08,4.23-3.85,5.39-1.15l38.48,90.42c1.54,3.08,4.23,4.62,7.31,4.62h31.55
		c5.39,0,9.62-4.23,9.62-9.62V413.9c0-4.62-3.46-8.08-8.08-8.08h-30.01C611.14,405.82,607.29,409.29,607.29,413.9L607.29,413.9z"/>
	<path class="st1" d="M326.12,447.4l1.26,18.24c0.12,1.73,0.22,3.94,0.56,4.42c4.01,5.77,34.23,8.73,41.13,9.36
		c23.28,2.12,58.43,1.07,82.22-0.87c10-0.82,27.98-2.45,36.26-5.2c2.36-0.78,5.1-2.04,6.42-3.55c0.59-0.67,0.58-2.32,0.74-5.8
		l0.97-19.47c0.17-3.7,0.62-5.77-1.6-9.04c-0.97-1.43-2.08-2.72-3.58-3.57c-2.22-1.24-3.3-1.26-5.29-1.63
		c10.36-17.91,24.38-50.89,26.94-71.23c0.87-6.93-4.57,1.96-6.58,4.42c-14.26,17.52-25.73,29.12-41.43,44.72
		c-1.94,1.93-4.48,14.09-5.72,17.57c-0.54,1.51-2.61,0.85-4.54,0.66c-2.77-0.28-0.68-1.23,0.71-5.57
		c1.76-5.51,12.52-51.87,11.47-53.06c-0.73-0.83-16.12,18.34-18.72,21.34c-14.86,17.14-9.1,8.82-10.34,31.69
		c-0.28,5.16,0.62,5.19-5.46,4.12c1.85-26.27-0.42-32.5-7.68-57.17c-9.62-32.71-5.73-62.49-3.29-95.58c1.6-22.42-4.84-7.01-9.4,2.93
		c-14.55,31.73-27.29,61.29-30.63,96.49c-0.18,3.04-0.23,5.96-0.27,9c-0.05,14.06,1.56,29.87,4.42,44.75l-0.36,0.08
		c-1.5,0.32-3.21,0.39-4.76,0.46c-0.92-4.92-1.7-9.87-2.36-14.81c-1.12-8.48-1.87-17.01-2.07-25.56
		c-16.4-29.42-21.44-49.14-27.16-81.85c-3-17.19-4.38-6.18-6.96,4.12c-5.2,20.74-8.57,44.59-5.45,65.93
		c0.81,5.56,14.58,19.71,18.78,24.59c8.02,9.32,15.49,17.97,22.21,27.7l-0.19,0c-1.42,0.02-3.45,0.01-6.03,0.05l-0.04-0.06
		c-6.1-8.44-13.1-16.43-19.89-24.32c-13.82-16.07-23.42-27.61-35.19-45.47c-7.35-11.15-8.32-10.87-6.1,2.71
		c4.17,25.6,11.54,49.93,23.89,72.78c-0.43,0.21-0.82,0.45-1.21,0.73c-1.53,1.08-2.92,2.72-4.06,3.96
		C324.06,440.44,325.45,442.48,326.12,447.4L326.12,447.4z M429.42,485.57c-21.63,0.85-62.89,0.84-82.95-2.88
		c-4.56-0.85-7.92-1.81-10.85-2.82l18.47,81.42c1.92,8.29,4.44,20.08,6.23,22.6c1.46,2.05,4.4,2.88,7.68,3.69
		c10.11,2.51,24.85,4.31,35.57,4.73c14.89,0.59,40.43-0.79,53.85-6.85c1.36-0.62,2.31-1.22,3.39-3.41c3.52-7.16,11.4-41,14.82-55.32
		c3.07-12.87,7.07-29.87,11.13-47.17C472.05,482.91,446.23,484.91,429.42,485.57L429.42,485.57z M490.69,285.67
		c-4.36-11.64-4.99,6.01-5.48,9.83c-2.02,12.73-6.07,25.96-3.15,38.8c3.62,15.92,4.08,22.46,4.06,38.85c0,6.88,1.65,4.76,5.66-0.15
		c10.03-12.25,8.16-33.72,6.91-48.77C497.56,310.48,495.16,298.72,490.69,285.67L490.69,285.67z M449.6,272.58
		C439,255.6,445.64,285,446.28,289.9c3.3,27.85-0.1,48.36-8.6,74.71c-3.1,9.63-5.26,19.29-1.01,28.92
		c9.28-10.66,16.18-18.49,24.83-29.94c17.62-23.34,12.82-7.41,9.39,8.07c-0.76,3.41-5.75,25.12-5.54,27.72
		c1.45,0.13,13.57-11.88,14.75-16.48c4.65-18.13-3.1-49.66-9.51-67.15C464.98,300.45,458.02,286.51,449.6,272.58L449.6,272.58z
		 M433.21,297.29c-5.88,5.27-10.45,23.93-10.04,31.93c0.52,8.55,3.07,33.15,6.93,40.64c0.81,1.58,0.95-1.67,1.66-3.76
		c5.89-17.46,3.35-16.85,3.74-34.86C435.71,321.92,436.66,305.79,433.21,297.29L433.21,297.29z M375.21,374.8
		c0.25-6.99,0.93-13.96,2.13-20.85c2.03-9.46,5.69-18.76,5.49-28.53c-0.13-14.3,2.47-28.04,2.42-40.92
		c-0.04-10.36-7.03,3.46-8.68,6.17c-6.76,10.44-20.5,30.26-17.46,42.89C362.27,346.64,369.19,362.69,375.21,374.8L375.21,374.8z"/>
	<path class="st0" d="M92.72,612.94H69c-1.86,0-3.49,1.18-3.95,2.84L35.29,723.54c-0.47,1.66,0.7,3.32,2.33,3.32H60.4
		c1.16,0,2.09-0.71,2.33-1.89l3.72-14.92c0.7-2.13,2.56-3.55,4.65-3.55h19.3c2.09,0,3.95,1.42,4.65,3.55l3.49,14.92
		c0.23,1.18,1.16,1.89,2.33,1.89h22.79c1.63,0,2.79-1.66,2.33-3.32l-29.3-107.76C96.21,614.12,94.58,612.94,92.72,612.94
		L92.72,612.94z M71.33,683.28l7.44-33.63c0.47-2.13,3.26-2.13,3.72,0l8.14,33.63c0.23,1.66-0.93,3.08-2.56,3.08H73.89
		C72.26,686.36,71.1,684.94,71.33,683.28L71.33,683.28z M184.8,612.94h-40.23c-4.19,0-7.91,3.55-7.91,8.05l0.23,97.81
		c0,4.5,3.49,8.05,7.91,8.05h39.99c9.53,0,41.62-4.03,41.62-57.08C226.43,616.96,194.34,612.94,184.8,612.94L184.8,612.94z
		 M184.8,699.62h-16.04c-2.79,0-4.88-2.13-4.88-4.97v-49.5c0-2.84,2.09-4.97,4.88-4.97h16.04c13.49,0.47,15.35,20.13,15.35,29.6
		C200.15,683.28,196.43,699.62,184.8,699.62L184.8,699.62z M288.51,612.94h-40.23c-4.19,0-7.91,3.55-7.91,8.05l0.23,97.81
		c0,4.5,3.49,8.05,7.91,8.05h40c9.53,0,41.62-4.03,41.62-57.08C330.13,616.96,298.04,612.94,288.51,612.94L288.51,612.94z
		 M288.51,699.62h-16.04c-2.79,0-4.88-2.13-4.88-4.97v-49.5c0-2.84,2.09-4.97,4.88-4.97h16.04c13.49,0.47,15.35,20.13,15.35,29.6
		C303.86,683.28,300.14,699.62,288.51,699.62L288.51,699.62z M373.38,721.88V617.91c0-2.61-2.09-4.97-4.88-4.97h-18.14
		c-2.79,0-4.88,2.37-4.88,4.97v103.97c0,2.84,2.09,4.97,4.88,4.97h18.14C371.29,726.85,373.38,724.72,373.38,721.88L373.38,721.88z
		 M431.28,728.04c28.83,0,41.16-22.97,44.65-38.6c0.93-3.08-1.4-5.92-4.42-6.16l-19.3-2.13c-2.79-0.24-4.88,1.42-5.81,3.79
		c-1.63,5.68-5.35,14.68-15.11,14.68c-16.04,0-16.74-27.24-16.74-30.31c0-7.58,1.63-31.74,17.21-31.74
		c7.91,0,12.32,6.16,14.42,10.42c1.16,2.37,3.49,3.55,6.05,2.84l9.77-2.13l9.07-1.89c3.26-0.47,4.88-3.55,3.95-6.39
		c-5.12-13.03-18.14-31.26-43.25-31.26c-28.83,0-46.97,22.97-46.97,60.16C384.78,704.83,403.15,728.04,431.28,728.04L431.28,728.04z
		 M519.41,726.85h18.14c2.79,0,4.88-2.13,4.88-4.97v-76.77c0-2.61,2.33-4.93,5.12-4.93h21.63c2.79,0,4.88-2.13,4.88-4.97v-17.29
		c0-2.61-2.09-4.97-4.88-4.97h-81.15c-2.79,0-4.88,2.37-4.88,4.97v17.29c0,2.84,2.09,4.97,4.88,4.97h21.63
		c2.56,0,4.88,2.33,4.88,4.93v76.77C514.53,724.72,516.62,726.85,519.41,726.85L519.41,726.85z M617.31,721.88V617.91
		c0-2.61-2.09-4.97-4.88-4.97h-18.14c-2.79,0-4.88,2.37-4.88,4.97v103.97c0,2.84,2.09,4.97,4.88,4.97h18.14
		C615.21,726.85,617.31,724.72,617.31,721.88L617.31,721.88z M679.39,728.51c25.35,0,50.92-20.13,50.92-58.73
		c0-38.37-25.58-58.26-50.92-58.26c-25.11,0-50.69,19.89-50.69,58.26c0,16.82,4.65,31.5,13.95,42.16
		C651.95,722.35,665.67,728.51,679.39,728.51L679.39,728.51z M679.39,636.86c16.28,0,22.09,18.95,22.09,32.92
		c0,19.42-11.16,33.39-22.09,33.39c-10.7,0-21.86-13.97-21.86-33.39C657.53,650.83,668.7,636.86,679.39,636.86L679.39,636.86z
		 M798.91,617.91v48.79c0,1.66-2.33,2.13-3.02,0.47l-23.49-51.39c-0.93-1.89-2.56-2.84-4.42-2.84h-18.84
		c-3.49,0-6.05,2.61-6.05,5.92v103.02c0,2.84,2.33,4.97,4.88,4.97h18.14c2.79,0,4.88-2.13,4.88-4.97v-52.81
		c0-1.89,2.56-2.37,3.26-0.71l23.25,55.66c0.93,1.89,2.56,2.84,4.42,2.84H821c3.26,0,5.81-2.61,5.81-5.92V617.91
		c0-2.84-2.09-4.97-4.88-4.97H803.8C801.24,612.94,798.91,615.07,798.91,617.91L798.91,617.91z"/>
	<path class="st0" d="M113.64,287.2l-7.42,45.68c-0.17,1.42-1.9,1.42-2.24,0l-8.46-45.68c-0.34-1.62-1.55-2.64-2.93-2.64H76.53
		c-1.38,0-2.59,1.02-2.93,2.64l-7.77,45.68c-0.35,1.42-2.07,1.42-2.24,0l-8.11-45.68c-0.17-1.62-1.38-2.64-2.76-2.64H37.87
		c-1.9,0-3.28,2.03-2.76,4.26l18.47,90.76c0.35,1.62,1.55,2.64,2.93,2.64h16.22c1.21,0,2.42-1.02,2.76-2.64l7.94-52.38
		c0.17-1.42,2.07-1.42,2.24,0l7.94,52.38c0.35,1.62,1.38,2.64,2.76,2.64h16.22c1.38,0,2.59-1.02,2.76-2.64l18.64-90.76
		c0.52-2.23-1.04-4.26-2.93-4.26H116.4C115.02,284.56,113.81,285.57,113.64,287.2L113.64,287.2z M170.78,346.69h13.29
		c1.9,0,3.62,1.83,3.62,4.26v27c0,2.23,1.55,4.26,3.62,4.26h13.46c2.07,0,3.62-2.03,3.62-4.26v-88.93c0-2.44-1.55-4.47-3.62-4.47
		h-13.46c-2.07,0-3.62,2.03-3.62,4.47v30.08c0,2.23-1.73,4.23-3.62,4.23h-13.29c-2.07,0-3.8-2-3.8-4.23v-30.08
		c0-2.44-1.55-4.47-3.62-4.47H149.9c-2.07,0-3.62,2.03-3.62,4.47v88.93c0,2.23,1.55,4.26,3.62,4.26h13.46
		c2.07,0,3.62-2.03,3.62-4.26v-27C166.98,348.51,168.71,346.69,170.78,346.69L170.78,346.69z M259.68,383.64
		c18.81,0,37.8-17.26,37.8-50.35c0-32.89-18.99-49.95-37.8-49.95c-18.64,0-37.63,17.05-37.63,49.95c0,14.42,3.45,27,10.36,36.14
		C239.31,378.36,249.49,383.64,259.68,383.64L259.68,383.64z M259.68,305.06c12.08,0,16.4,16.24,16.4,28.22
		c0,16.65-8.28,28.63-16.4,28.63c-7.94,0-16.22-11.98-16.22-28.63C243.45,317.04,251.74,305.06,259.68,305.06L259.68,305.06z"/>
	<path class="st0" d="M548.35,338.48h13.29c1.9,0,3.62,1.83,3.62,4.26v27c0,2.23,1.55,4.26,3.62,4.26h13.46
		c2.07,0,3.62-2.03,3.62-4.26v-88.93c0-2.44-1.55-4.47-3.62-4.47h-13.46c-2.07,0-3.62,2.03-3.62,4.47v30.08
		c0,2.23-1.73,4.23-3.62,4.23h-13.29c-2.07,0-3.8-2-3.8-4.23v-30.08c0-2.44-1.55-4.47-3.62-4.47h-13.46c-2.07,0-3.62,2.03-3.62,4.47
		v88.93c0,2.23,1.55,4.26,3.62,4.26h13.46c2.07,0,3.62-2.03,3.62-4.26v-27C544.55,340.31,546.28,338.48,548.35,338.48L548.35,338.48
		z M636.55,276.35h-17.6c-1.38,0-2.59,1.02-2.93,2.44l-22.09,92.38c-0.35,1.42,0.52,2.84,1.73,2.84h16.91
		c0.86,0,1.55-0.61,1.73-1.62l2.76-12.79c0.52-1.83,1.9-3.05,3.45-3.05h14.33c1.55,0,2.93,1.22,3.45,3.05l2.59,12.79
		c0.17,1.02,0.86,1.62,1.73,1.62h16.91c1.21,0,2.07-1.42,1.73-2.84l-21.75-92.38C639.14,277.37,637.93,276.35,636.55,276.35
		L636.55,276.35z M620.67,336.65l5.52-28.83c0.34-1.83,2.42-1.83,2.76,0l6.04,28.83c0.17,1.42-0.69,2.64-1.9,2.64h-10.53
		C621.36,339.29,620.5,338.07,620.67,336.65L620.67,336.65z M695.4,299.29c0.29,0.35,6.49,0.51,10.01,4.06
		c1.21,1.02,2.93,1.22,4.31,0.2l11.39-8.53c1.9-1.42,2.24-4.47,0.86-6.5c-8.98-12.18-22.44-13.2-25.37-13.4
		c-20.19-1.42-31.76,12.99-32.62,28.42c-1.04,15.23,8.63,31.67,29,33.5c7.59,0.61,11.22,4.47,11.05,7.72
		c-0.17,3.45-4.31,6.5-11.91,5.89c-0.25-0.3-5.96-0.73-9.49-5.28c-1.04-1.42-2.76-2.03-4.31-1.22l-12.25,6.9
		c-1.9,1.02-2.59,4.06-1.38,6.29c4.73,8.48,15.92,16.71,26.23,17.46c20.72,1.51,32.62-12.99,33.66-28.22
		c0.52-8.53-2.42-16.85-7.77-23.15c-5.52-6.09-13.12-9.75-22.26-10.56c-7.25-0.61-10.18-4.47-10.01-7.72
		C684.7,301.93,688.16,298.68,695.4,299.29L695.4,299.29z M802.24,276.35h-17.6c-1.38,0-2.59,1.02-2.93,2.44l-22.09,92.38
		c-0.35,1.42,0.52,2.84,1.73,2.84h16.91c0.86,0,1.55-0.61,1.73-1.62l2.76-12.79c0.52-1.83,1.9-3.05,3.45-3.05h14.33
		c1.55,0,2.93,1.22,3.45,3.05l2.59,12.79c0.17,1.02,0.86,1.62,1.73,1.62h16.91c1.21,0,2.07-1.42,1.73-2.84l-21.75-92.38
		C804.83,277.37,803.62,276.35,802.24,276.35L802.24,276.35z M786.36,336.65l5.52-28.83c0.34-1.83,2.42-1.83,2.76,0l6.04,28.83
		c0.17,1.42-0.69,2.64-1.9,2.64h-10.53C787.05,339.29,786.19,338.07,786.36,336.65L786.36,336.65z"/>
	<path class="st0" d="M71.95,253.47c40.24,0,38.04-48.22,38.57-58.89v-51.47c0-2.84-2.06-4.97-4.33-4.97H90.1
		c-2.48,0-4.54,2.13-4.54,4.97v51.71c0,8.77-1.29,30.24-13.61,30.24c-7.63,0-10.93-8.96-12.17-14.64c-0.62-2.33-2.68-3.99-4.74-3.75
		l-15.88,2.09c-2.68,0.24-4.33,3.08-3.92,6.16C38.33,230.5,48.65,253.47,71.95,253.47L71.95,253.47z M190.55,138.13h-16.09
		c-2.47,0-4.33,2.41-4.33,5.25v62.44c-0.21,9.28-2.89,16.14-7.63,19.22c-3.51,2.13-7.43,2.13-10.52,0c-4.12-2.84-6.39-9-6.39-17.57
		l0.21-64.1c0.21-2.84-1.86-5.25-4.33-5.25h-15.88c-2.48,0-4.54,2.41-4.54,5.25v63.87c-0.21,18.75,6.6,34.14,18.36,42.2
		c5.36,3.55,11.55,5.45,17.74,5.45c5.98,0,11.96-1.66,17.32-5.21c12.79-8.29,20.01-24.16,20.21-43.62l0.21-62.68
		C194.88,140.54,192.81,138.13,190.55,138.13L190.55,138.13z M240.66,164.89c0.67,0.19,7.77,0.61,11.96,4.74
		c1.44,1.18,3.51,1.42,5.16,0.24l13.61-9.95c2.27-1.66,2.68-5.21,1.03-7.58c-10.73-14.21-26.81-15.39-30.32-15.63
		c-24.13-1.66-37.95,15.16-38.98,33.16c-1.24,17.76,10.31,36.95,34.65,39.08c9.07,0.71,13.41,5.21,13.2,9
		c-0.21,4.03-5.16,7.58-14.23,6.87c-0.31-0.35-7.13-0.85-11.34-6.16c-1.24-1.66-3.3-2.37-5.16-1.42l-14.64,8.05
		c-2.27,1.18-3.09,4.74-1.65,7.34c5.73,10.03,19.55,19.62,31.35,20.37c24.77,1.58,38.98-15.16,40.22-32.92
		c0.62-9.95-2.89-19.66-9.28-27c-6.6-7.11-15.68-11.37-26.61-12.32c-8.66-0.71-12.17-5.21-11.96-9
		C227.88,167.97,232,164.18,240.66,164.89L240.66,164.89z M313.88,252.05h16.09c2.47,0,4.33-2.13,4.33-4.97V170.3
		c0-2.61,2.06-4.93,4.54-4.93h19.18c2.48,0,4.33-2.13,4.33-4.97v-17.29c0-2.61-1.86-4.97-4.33-4.97h-71.98
		c-2.47,0-4.33,2.37-4.33,4.97v17.29c0,2.84,1.86,4.97,4.33,4.97h19.18c2.27,0,4.33,2.33,4.33,4.93v76.77
		C309.55,249.92,311.41,252.05,313.88,252.05L313.88,252.05z M457.22,138.13h-21.04c-1.65,0-3.09,1.18-3.51,2.84l-26.4,107.76
		c-0.41,1.66,0.62,3.32,2.06,3.32h20.21c1.03,0,1.86-0.71,2.06-1.89l3.3-14.92c0.62-2.13,2.27-3.55,4.13-3.55h17.12
		c1.86,0,3.51,1.42,4.12,3.55l3.09,14.92c0.21,1.18,1.03,1.89,2.06,1.89h20.21c1.44,0,2.48-1.66,2.06-3.32l-25.99-107.76
		C460.32,139.32,458.87,138.13,457.22,138.13L457.22,138.13z M438.25,208.47l6.6-33.63c0.41-2.13,2.89-2.13,3.3,0l7.22,33.63
		c0.21,1.66-0.83,3.08-2.27,3.08h-12.58C439.07,211.55,438.04,210.13,438.25,208.47L438.25,208.47z M573.76,253.94
		c29.91,0,39.39-31.74,39.39-47.13l-0.21-13.5c0-2.84-1.86-4.97-4.33-4.97h-34.24c-2.48,0-4.54,2.13-4.54,4.97v13.26
		c0,2.61,2.06,4.97,4.54,4.97h11.76c3.3,0,1.65,15.16-11.76,15.16c-17.94,0-20.01-23.92-20.01-31.02c0-7.58,1.86-32.45,17.32-32.45
		c6.81,0,12.17,6.63,13.82,11.13c0.83,2.13,2.89,3.32,4.95,2.84l7.84-2.13l8.66-1.66c2.68-0.71,4.13-3.79,3.3-6.63
		c-4.12-13.03-16.71-30.79-38.57-30.79c-16.09,0-27.43,8.53-35.89,23.92c-5.36,13.03-6.19,27.95-6.19,35.76
		C529.62,222.61,542.91,253.2,573.76,253.94L573.76,253.94z M650.27,247.07V143.11c0-2.61-1.86-4.97-4.33-4.97h-16.09
		c-2.47,0-4.33,2.37-4.33,4.97v103.97c0,2.84,1.86,4.97,4.33,4.97h16.09C648.42,252.05,650.27,249.92,650.27,247.07L650.27,247.07z
		 M731.33,198.29c5.98-6.63,9.28-15.63,9.28-24.99c0-16.93-11.14-35.17-32.17-35.17l-34.65,0.24c-3.92,0-7.01,3.55-7.01,8.05v100.65
		c0,2.61,1.86,4.97,4.33,4.97h16.09c2.48,0,4.33-2.37,4.33-4.97v-32.68c0-2.84,2.06-5.21,4.54-5.21c0.41,0,1.03,0,1.65,0
		c1.65,0,3.09,1.18,3.92,2.84l17.12,37.42c0.62,1.66,2.27,2.61,3.92,2.61h14.85c3.3,0,5.36-4.03,3.92-7.34l-16.29-35.52
		c-1.03-2.13-0.41-4.97,1.44-6.39C728.65,201.37,730.09,199.71,731.33,198.29L731.33,198.29z M691.52,170.5
		c0-2.8,2.06-4.89,4.54-5.13h12.38c7.84,0,8.46,6.08,8.46,7.93c0,1.18-0.21,3.51-2.06,5.6c-1.86,2.13-4.95,3.04-8.87,3.04
		c-3.3,0-6.81,0-9.9,0c-2.47,0-4.54-2.09-4.54-4.89V170.5L691.52,170.5z M822.29,252.05c2.47,0,4.54-2.37,4.54-5.21v-17.05
		c0-2.84-2.06-4.97-4.54-4.97h-37.54c-2.47,0-4.54-2.33-4.54-4.93v-76.54c0-2.84-1.86-5.21-4.33-5.21h-16.09
		c-2.48,0-4.33,2.37-4.33,5.21V244c0,4.5,3.09,8.05,7.01,8.05C782.41,252.05,802.35,252.05,822.29,252.05L822.29,252.05z"/>
</g>
</svg>
