<?xml version="1.0" encoding="utf-8"?>
<!-- Generator: Adobe Illustrator 25.0.0, SVG Export Plug-In . SVG Version: 6.00 Build 0)  -->
<svg version="1.1" id="Layer_1" xmlns="http://www.w3.org/2000/svg" xmlns:xlink="http://www.w3.org/1999/xlink" x="0px" y="0px"
	 viewBox="0 0 864 864" style="enable-background:new 0 0 864 864;" xml:space="preserve">
<style type="text/css">
	.st0{fill-rule:evenodd;clip-rule:evenodd;fill:#33CC66;}
</style>
<g>
	<path class="st0" d="M93.9,612.67H70.2c-1.86,0-3.49,1.18-3.95,2.84l-18.27,66.13c1.26,0.06,2.38,0.17,3.2,0.4l-3.58,0.97
		l-0.89,3.22c0.47,0.23,0.98,0.55,1.56,0.98c-2.47,1.49,2.21,1.25-2.17,1.25l-5.43,19.67c4.22,0.06,1.12-0.81,2.99,2.07
		c-0.56,0.23,0.89,2.24-2.29,0.56c-0.69-0.36-1.08-0.42-1.3-0.44l-3.56,12.88c-0.46,1.66,0.7,3.31,2.32,3.31H61.6
		c1.16,0,2.09-0.71,2.32-1.89l3.72-14.91c0.7-2.13,2.56-3.55,4.65-3.55h13.24c-0.98-0.26-2.32-0.51-4.51-0.92
		c1.82-8.92,1.4-9.35,4.58-6.68c-0.04,0.78-1.01-1.96-1.59,4.12l10.45,1.72c-2.66,1.87,2.37,0.61-3.76,1.62l0.26,0.15h0.61
		c2.07,0,3.9,1.39,4.62,3.47l0.99-0.33c2.74,4.15,1.5,1.98,2.97,6.93c-0.86,0.3-1.59,0.56-2.21,0.8l1.77,7.58
		c0.23,1.18,1.16,1.89,2.32,1.89h3.68c1.64-2.23,1.72-1.97,5.51-3.03c0.53,1.31,0.94,2.18,1.25,3.03h12.34c1,0,1.83-0.63,2.21-1.5
		c-0.36-0.08-0.74-0.18-1.12-0.3c0.88-0.81-0.08-0.9,1.32-1.1c-0.02-0.14-0.04-0.28-0.08-0.41l-23.67-87.04l-0.62-0.03
		c0.15-0.11,0.33-0.22,0.52-0.32l-5.52-20.32C97.39,613.86,95.76,612.67,93.9,612.67L93.9,612.67z M697.62,631.62l0.07-0.91
		c3.2-0.2,1.81,1.24,3.72-0.35c-3.27-4-0.55-2.61-6.05-3.75c-0.01-0.19,0.04-0.31,0.04-0.56l-0.7-4.28c5.05,1.4,2.91-0.43,6.71-1.32
		c1.08,2.31,1.42-0.33-0.34,4.37c0.4-0.24,3.13-1.61,4.2-2.19l0.15,5.93c6.12-0.09,4.3-1.33,6.62,1.81l-5.75,1.57
		c-6.17,2.3-0.72,2.37-6.82,1.97C698.35,631.52,701.52,632.7,697.62,631.62L697.62,631.62z M642.34,693.01
		c2.46-1.95,2.79-0.59,5.16-1.9c2.45-1.35,2.35,0.06,0.69-3.46c-5.04,2.02-3.27,5.92-8.16,1.99c1.73-1.25,5.42-3.4,7.07-3.59
		c3.63-0.43,4.63,1.32,7.06,3.59c-1.69,1.93-5.47,4.26-8.79,4.42C640,694.31,644.2,694.36,642.34,693.01L642.34,693.01z
		 M790.7,683.59c1.24-5.75-0.56-8.2,5.95-8.18c-0.72,2.49-0.93,3.7-0.71,6.94c0.47,6.8-0.59-0.35,1.97,6.15
		C794.81,687.63,795.4,687.19,790.7,683.59L790.7,683.59z M745.51,652.67c12.78-0.97,8.51,0.64,9.72,1.89
		c-0.3,0.15-0.77,0.7-0.92,0.39l-7.04,2l-1.23,0.57C742.96,657.72,745.51,652.67,745.51,652.67L745.51,652.67z M681.35,719.34
		c8.07-1.34,11.52-3.75,12.05,4.88c-2.01-0.81-4.67-1.34-7-2.62C684.5,720.55,687.37,719.96,681.35,719.34L681.35,719.34z
		 M803.01,687.75c0.27-0.25,0.71-0.21,0.85-0.7l2.33-1.94c2.77-2.46-0.68-0.6,2.76-2.45c1.94,4.78,0.77,2.95,3.92,7.02
		C803.95,691.61,812.14,688.12,803.01,687.75L803.01,687.75z M820.01,698.27c2.37,1.04,3.11,0.95,0.63,5.39
		c-1.4,2.49-1.73,2.7-5.08,2.45c0.92-2.15,1.63-3.87,2.63-4.82l-0.57-3c-4.64,0.92-0.97,1.32-3.17,3.88
		c-2.9,3.37-2.33,0.63-6.57,2.82c-1.54-5.75-2.16-4.06-2.87-9.8C813.25,692.15,813.71,691.35,820.01,698.27L820.01,698.27z
		 M803.81,617.28c7.3,2.38,5.07,6.57,2.62,9.69C805.14,624.39,804.35,621.28,803.81,617.28L803.81,617.28z M558.66,620
		c2.6,0.71,5.42,2.93,7.12,4.24l-8.52,1.61C557.81,623.11,557.96,621.35,558.66,620L558.66,620z M777,654.54
		c6.39-3.85-2.03-0.68,4.26-5.16c0.13,0.24,0.29,0.93,0.32,0.75l1.46,4.98L777,654.54L777,654.54z M606.07,640.65
		c2.62-3.82-1.54-0.93,2.44-2.76c3.17-1.45,1.2-0.38,3.7-0.56C610.7,640.42,610.39,641.51,606.07,640.65L606.07,640.65z
		 M533.38,624.63l-6.1,2.87c0.45-1.51-0.06-2.32,2.23-3.5C534.72,621.31,533.26,624.54,533.38,624.63L533.38,624.63z M765.31,700.53
		l4.57-1.49l-1.93,4.94C765.39,702.57,765.58,704.41,765.31,700.53L765.31,700.53z M638.04,666.28c0.9-0.13-1.53-3.25,1.85,0.26
		c1.75,1.81,0.25-0.22,1.11,2.31C638.66,668.6,635.49,669.92,638.04,666.28L638.04,666.28z M766.71,679.96
		c2.03-3.06,1.5-3.13,4.43-1.21C768.98,681.19,770.66,681.45,766.71,679.96L766.71,679.96z M645.45,677.18
		c3.66-2.25,1.82-2.67,4.59,0.36c-0.31,0.23-0.74,1.12-0.92,0.72c-0.16-0.34-0.72,0.46-0.92,0.42
		C645.05,678.13,647.43,678.91,645.45,677.18L645.45,677.18z M648.05,707.1c1.34-1.02,0.42-3.74,4.21,0.68
		c-2.2,1.03,2.82,1.98-2.51,0.6C648.35,708.03,649.17,707.84,648.05,707.1L648.05,707.1z M702.63,657.66l3.11,4.16l-3.85-0.62
		C701.55,657.34,701.64,659.59,702.63,657.66L702.63,657.66z M658.24,644.88c1.06-0.66-2.54-4.52,2.91,0
		C656.57,648.49,659.55,645.42,658.24,644.88L658.24,644.88z M756.68,718.68c4.51-2.56,1.69-1.51,3.99,0
		c-0.25,0.19-0.62,0.92-0.75,0.6c-0.11-0.28-0.62,0.39-0.77,0.38C756.79,719.45,757.78,719.39,756.68,718.68L756.68,718.68z
		 M803.57,677.54c0.14-1.06,3.47-4.77,1.68-0.21C804.45,679.38,803.39,678.9,803.57,677.54L803.57,677.54z M294.09,633.99
		c-4.01-2.71-4.09-3.25-6.45,1.66L294.09,633.99L294.09,633.99z M147.99,661.73c-1.57,3.73,0.34,4-1.77,7.4
		c6-2.3,6.76-3.08,5.45-6.71C148.91,661.46,155.33,660.76,147.99,661.73L147.99,661.73z M415.35,632.13l-0.73-4.07l15.69-1.89
		c-2.56,3.9-3.9,3.85-9.56,8.37C416.42,631.26,421.44,634.07,415.35,632.13L415.35,632.13z M366.31,644.7
		c1.22,1.45,0.62-0.02,1.6,3.5c1.43,5.13,1.47,9.6-0.39,14.85c-4.71-1.45-3.79-3.56-2.99-9.59
		C365.25,648.04,364.51,647.87,366.31,644.7L366.31,644.7z M304.57,660.52c7.15,0.05,2.31,0.55,7.25-2.56
		c1.47,0.93,0.06,0.37,2.5,1.26c0.37,0.13,2.12,0.57,2.9,0.84c-1.26,5.28-2.82,5.26-7.77,6.01
		C306.61,661.66,308.19,663.67,304.57,660.52L304.57,660.52z M142.33,641.64l0.63,0.61c1.83,3.92-0.34,0.97,3.86,3.83l-4.49,0.86
		c0.03-0.15,1.16,2.87,1.16,3.17c-0.03,1.36-0.31,1.56-0.99,2.79l-3.6-0.48c0.42-7.26,0.48,0.32,1.7-5.56
		C141.37,643.12,138.61,644.39,142.33,641.64L142.33,641.64z M107.42,684.72c2.47,4.54,2.14,9.92,3.66,13.44
		c-5.16-1.03-3.28,0.14-4.49-5.48C105.49,687.62,104.61,688.87,107.42,684.72L107.42,684.72z M300.84,617.96
		c0.6,0.89,2.52,1.17,0.69,5.34c-1.69,3.84-3.5,3.74-5.07,4.33c1.16-4.69,2.18-4.96,2.38-7.85
		C298.93,618.52,296.34,617.57,300.84,617.96L300.84,617.96z M250.14,699.26c0.29-5.69,4.39-5.86,8.59-2.81
		c-1.57,2.03-0.22,1.58-2.81,2.37C255,699.09,251.4,699.16,250.14,699.26L250.14,699.26z M62.68,701.86
		c-0.48,1.9-0.92,2.13-1.07,2.46c-4.06,8.66,0.06,4.57-3.8,7.2C54.89,706.72,57.92,703.72,62.68,701.86L62.68,701.86z
		 M147.99,720.12l1.11-1.98c2.96-3.83,0.51-2.85,5.18-2.77C152.96,718.09,153.47,722.34,147.99,720.12L147.99,720.12z
		 M313.08,651.43l-2.4-0.39c0.54-4.47,1.67-2.66-1.53-6.61l5.7-0.3c-0.67,3.26,1.31,0.41-1.93,3.18l0.37,4.04l5.08,0.03
		c-2.93,2.92-2.33,1.73-5.6,3.15l4.46,2.97c-3.64-0.13-6.2-1.28-8.52-4.06L313.08,651.43L313.08,651.43z M295.63,713.84
		c1.66-0.78,1.07-1.18,4.21-1.28c3.49-0.12,4.17,0.94,4.81,1.28l-6.54,2.04C292.75,715.39,297.52,715.35,295.63,713.84
		L295.63,713.84z M403.3,711.57l8.48-0.52l-2.27,3.49C404.91,714.82,406.76,714.49,403.3,711.57L403.3,711.57z M56.63,669.24
		c4.83-0.37,2.04-0.62,6.01,1.01c-1.54,3.39-0.65,2.37-3.62,3.84C57.92,671.97,57.63,671.32,56.63,669.24L56.63,669.24z
		 M105.93,701.74l5.31-3.01l0.73,4.44c-1.14,0.29-0.82,0.99-2.94,0.42C106.69,702.97,106.81,702.66,105.93,701.74L105.93,701.74z
		 M151.6,702.37c5.82,2.81,3.66,0.3,5.21,4.38C152.48,708.28,152.69,707.03,151.6,702.37L151.6,702.37z M452.4,620.74
		c1.33,2.13,3.2-1.04,0.86,3.19c-1.58,2.87-0.46,1.05-3.51,1.91C450.25,621.85,449.5,622.97,452.4,620.74L452.4,620.74z
		 M148.03,651.2c1.47,0.55,1.76,0.48,2.5,1.23c1.59,1.62,0.55,0.45,1.5,2.13l-4.72,1.77L148.03,651.2L148.03,651.2z M169.17,613.35
		c3.04,0.16,2.13-1.01,3.86,1.11c2.13,2.6,0.18,2.23-0.6,3.25C169.45,616.55,170.66,616.57,169.17,613.35L169.17,613.35z
		 M64.67,698.38c2.26-1.41-3.3-2.34,3.8-1.15c2.43,0.41,1.84,1.07,2.23,2.25c-1.28,0.53-0.1,0.92-2.46,0.42
		C67.87,699.82,65.19,698.62,64.67,698.38L64.67,698.38z M221.29,669.07c-1.22,5.68,0.88,3.08-4.12,4.21
		C219.01,668.97,217.81,670.22,221.29,669.07L221.29,669.07z M149.82,647.42c4.19,0.52,2.52-1.57,3.23,3.26
		C149.2,649.58,149.61,651.33,149.82,647.42L149.82,647.42z M368.37,670.73c-1.4,5.83-0.07,2.31-3.3,3.35
		C366.58,669.89,365.38,671.32,368.37,670.73L368.37,670.73z M64.29,660.61c4.21-3.77,2.21-1.75,4.02,0
		C65.67,662.13,66.99,662.18,64.29,660.61L64.29,660.61z M74.14,693.87c1.91,0.7,2.77,0.91,4.13,2.89
		C75.44,696.77,73.89,696.87,74.14,693.87L74.14,693.87z M215.62,693.27c3.36-1.1,2.3,0.03,3.42,1.21
		C213.89,696.82,216.75,694.43,215.62,693.27L215.62,693.27z M104.97,706.73c0.53-3.84-1.42-2.02,2.48-2.55
		C106.79,707.77,108.3,705.59,104.97,706.73L104.97,706.73z M142.66,690.85l3.65-0.52c-0.25,0.72-0.65,1.44-0.77,1.12
		c-0.1-0.28-0.63,0.38-0.76,0.37C141.4,691.49,144.42,692.25,142.66,690.85L142.66,690.85z M70.6,667.05
		c4.43,0.8,1.51-1.03,3.54,2.66L70.6,667.05L70.6,667.05z M59.83,688.43l3.12-0.44c-0.29,0.67-0.63,1.6-0.76,1.22
		C59.57,689.21,61.02,689.25,59.83,688.43L59.83,688.43z M72.52,682.97l7.44-33.61c0.47-2.13,3.25-2.13,3.72,0l8.14,33.61
		c0.23,1.66-0.93,3.08-2.56,3.08H75.08C73.45,686.05,72.29,684.63,72.52,682.97L72.52,682.97z M185.93,612.67h-40.21
		c-4.18,0-7.9,3.55-7.9,8.05l0.03,12.54c2.99-0.02,5.48-0.04,7.11-0.11l6.51-1.19c0.24-0.09,0.63-0.28,0.9-0.48
		c-4.92-2.59-5.03-1.87-10.65-0.3c1.9-3.75,3.47-1.77,9.12-2.19c6.05-0.44,6.74-0.78,8.68,3.73c7.55-2.5-4.25,1.13,3.53-2.76
		c8.28,4.83,23.56,1.87,36.29,2.13c6.67-1.98-3.08-2.68,3.98-4.22c4.77-1.04,2.13-0.06,4.16,1.4l2.72,2.29
		c1.53,0.75,5.34,1.04,9.44,1.1C209.53,614.56,192.45,612.67,185.93,612.67L185.93,612.67z M137.86,636.26l0.2,82.22
		c0,0.38,0.03,0.75,0.07,1.12c0.17-0.44,0.41-0.97,0.74-1.62c9.01-0.65,4.77-1.55,4.84,4.82c3.89-0.12,5.73-1.5,8.2-1.47l18.41-2.48
		c4.68,6.47-3.06,3.45-10.76,4.91c-3.64,0.69-5.9,1.82-9.82,2.01c-3.95,0.2-5.33-1.5-7.06,0.06c0.99,0.45,2.1,0.7,3.27,0.7h39.97
		c6.94,0,25.81-2.14,35.57-23.75l-2.92-0.97c-1.78-0.74-1.47-0.77-2.19-1.28c1.53-0.77,4.29-1.3,6.34-0.7
		c1.11-2.89,2.06-6.1,2.81-9.64c-0.2,0.02-0.48,0.06-0.87,0.16c-1.4,0.36-3.62-0.76-4.26-1.55c2.16-2.2,3.19-2.88,5.72-1.65
		c0.9-5.18,1.4-11.04,1.4-17.66c0-12.68-1.85-22.54-4.8-30.21l-16,0.61c-4.61,0.9-7.87,3.51-10.29-0.38l-0.71-2
		c-2.35,0.01-10.19-0.61-13.31-1.4c-2.18,1.59-0.73-0.16-1.51,2.49l5.2,1.31c13.32,0.64,15.16,20.15,15.16,29.58
		c0,5.06-0.52,10.52-1.79,15.37l4.22-0.15c-1.19,2.88-0.05,2.03-4.08,1.52c1.57,3.73,0.44,4.07-0.26,5.28
		c-0.69-0.66-1.19-1.16-1.59-1.61c-0.19,0.44-0.39,0.87-0.6,1.29l0.45,0.05c0.01,0.29,0.07,1.06,0.02,0.86
		c-0.79,2.17-0.76,1.86-2.3,2.11c-2.3,3.13-5.38,5.09-9.41,5.09H169.9c-2.79,0-4.88-2.13-4.88-4.97v-8.94
		c-0.8,0.75-1.96,1.66-3.45,1.78c-3.02,0.23-3.26,0.01-3.56-2.37c4.3-2.3,3.56-1.69,7.01-0.49v-19.6c-0.26,0.12-1.1-0.24-3.2-1.68
		c5.11-2.8,1.91-0.47,2.97,0c-0.17,0.12,0.08,0.61,0.23,1.04v-14.49l-2.13-0.6c-0.75-4.19-0.2-3.13,0.49-7.79
		c-9.8,1.28-6.18-3.76-13.24-5.11L137.86,636.26L137.86,636.26z M221.86,637.13c-0.32-0.75-0.66-1.47-1-2.17
		c-7.65-0.02-14.77-0.06-17.65,1.45C205.16,640.58,214.98,638.29,221.86,637.13L221.86,637.13z M166.54,641.19
		c0.86-0.81,2.03-1.29,3.36-1.29h6.48c0.96-0.51,1.13-0.51,1.2,0h3.97l-0.64-1.3c-11.07-0.77-7.93-7.81-16.67-2.18l2.2,3.2
		C166.61,640.17,166.62,640.69,166.54,641.19L166.54,641.19z M289.58,612.67h-0.03c0,0.66-0.09,1.61-0.51,3.12
		c-0.83,2.95-0.77,2.07-1.37,3.09c-1.67-1.49-2.61-3.75-2.98-6.21h-35.31c-4.18,0-7.9,3.55-7.9,8.05l0.02,9.57l0.03,0.01
		c3.06,0.82,1.48-0.1,3.35,1.62c-0.86,0.66-2.01,1.17-3.38,1.58l0.07,29.68c1.24-2.24,1.17-1.45,5.63-3.9
		c-2.14,7.59-1.46,2.35-5.62,9.75l0.12,49.44c0,4.5,3.49,8.05,7.9,8.05h39.97c1.75,0,4.27-0.14,7.21-0.69
		c-1.22-0.58-2.57-1.42-4.17-2.59c2.11-2.3,0.38-3.19,9.2,0.58l0.94,0.4c12.7-4.52,28.41-17.63,28.41-54.74
		C331.18,616.7,299.11,612.67,289.58,612.67L289.58,612.67z M289.58,699.3h-16.04c-1.84,0-3.38-0.93-4.21-2.38l-5.5,1.04l-0.09,3.95
		l-3.46-0.55c1.62-1.73-1.97-8.37-1.34-19.14l0.9-2.93c4.51,12.48-0.71,11.2,3.6,17.69l2.86-2.87c2.37-0.52,1.32-0.06,2.69,2.1
		c-0.22-0.57-0.33-1.21-0.33-1.88v-49.47c0-2.84,2.09-4.97,4.88-4.97h12.71c0.51-4.36,1.13-2.32,1.5,0h1.83
		c13.48,0.47,15.34,20.12,15.34,29.59C304.92,682.97,301.2,699.3,289.58,699.3L289.58,699.3z M374.41,721.55V617.64
		c0-2.6-2.09-4.97-4.88-4.97h-1.17c-0.15,0.55-0.42,1.22-0.84,2.06c-0.16-0.05-1.58,1.06-1.86-2.06H351.4
		c-2.79,0-4.88,2.37-4.88,4.97v35.87c4.26-1.9-0.18-0.39,0.43-3.84c2.21,0.1,4.47-0.5,4.46,3.66c-0.01,2.6,0.09,2.38-3.25,5.76
		l-1.64-1.91v16.75c1.82-1.21,2.63-1.21,9.47,5.41c1.92,1.86-0.08,0.23,2.13,1.43l4.14,2c-8.07-0.81-6.14,1.19-9.27,2.38
		c-3.29-2.52-5.12-2.67-6.48-2.52v27.24l3.08,1.37l0.18-5.11c0.55-0.09,1.03,0.1,1.17-0.22l7.67-0.06l-1.56,4.78
		c-1.86,3.16-3.15,4.16-5.42,4.19L348.6,715l-1.67,1.97c4.2,2.07,5.04,0.63,6.7,1.71c-1.13,3.39-2.19,3.21-5.22,4.34l17.5,0.22
		c-4.8,2.52-3.23,1.07-6.41,1.99l-1.81,1.3h11.84C372.32,726.53,374.41,724.39,374.41,721.55L374.41,721.55z M432.27,727.71
		c28.82,0,41.14-22.96,44.62-38.58c0.93-3.08-1.39-5.92-4.42-6.15l-19.29-2.13c-2.79-0.24-4.88,1.42-5.81,3.79
		c-1.63,5.68-5.35,14.67-15.11,14.67c-3.23,0-5.83-1.1-7.94-2.89c-4.39,3.8-5.62,3.18-13.55,2.87c3.23-5.76,0.49-1.04,4.91-2.39
		l-6.64-5.81c2.65,0.21,7.95,0.16,11.34,0.33c-4.57-8.29-4.86-20.42-4.86-22.42c0-5.25,0.78-18.46,6.45-26.08
		c-5.88-0.7-13.08-2.12-15.86-4.26c0.83-0.52-2.18-2.95,7.41,0.08c4.38,1.38,3.39,0.14,8.41,0.52c0.8,1.14,0.74,1.44,1.49,1.95
		c2.35-2.4,5.38-3.93,9.29-3.93c5.8,0,9.73,3.32,12.23,6.77c0.27-0.26,0.54-0.57,0.81-0.92c1.95-2.59,1-8.28,1.45-12.58l-13.82-1.14
		c1.01-1.77,12.41-0.64,16.73-1.41c0.25-0.04,0.71-0.17,1.07-0.22c-3.29,16.59-4.89,14.68,0.67,17.61l-2.23,2.6
		c4.65,0.97,2.57-0.09,4.54,2.33l8.77-1.92l9.06-1.89c1.48-0.22,2.63-0.98,3.35-2.01c-0.11-0.17-0.18-0.27-0.18-0.29l0.4-0.07
		c0.67-1.17,0.83-2.63,0.37-4.02c-5.11-13.02-18.13-31.24-43.23-31.24c-20.9,0-36.18,12.08-43,32.9c0.51-0.12,1.18-0.26,2.08-0.43
		c-0.64,1.82-1.58,3.18-2.91,3.18c-2.04,7.23-3.12,15.43-3.12,24.48C385.8,704.51,404.16,727.71,432.27,727.71L432.27,727.71z
		 M520.35,726.53h18.13c2.79,0,4.88-2.13,4.88-4.97V681.2c-1.62-0.34-3.09-0.62-4.14-0.64c-7.54-0.14,5.01,2.29-11.34-1.18
		l7.29-2.49c3.96-0.87,0.99-0.45,2.94-1.76c1.25-0.84,0.3-1.15,3.61-1.34c0.78,1.49,1.39-0.96,0.07,4.78l1.57,0.34v-34.1
		c0-2.6,2.32-4.93,5.11-4.93h21.61c2.79,0,4.88-2.13,4.88-4.97v-17.28c0-2.6-2.09-4.97-4.88-4.97h-23.17
		c-1.69,0.89-3.56,1.51-4.68,0h-53.25c-2.79,0-4.88,2.37-4.88,4.97v17.28c0,2.73,1.94,4.81,4.57,4.96c0.25-0.76,0.6-1.72,1.04-2.92
		c0.67,0.36,2.4,0.83,4.16,2.93h16.73c0.93,0,1.83,0.31,2.6,0.83c2.2,0.45,2.79,4.45,6.75,5.06c6.24,0.1,14.11-0.96,19.35,1.52
		c-0.13,0.08,1.08,1.56-6.74,0.84c-2.55-0.24-5.14-0.52-7.76-0.67c-4.05-0.22-4.28-0.1-8.06,0.36l-1.28-0.07v21.49
		c6.42-0.33,12.68-1.94,15.68,5.04c-4.11,1.02-3.94,1.59-8.9,0.61c0.91,3.19,1.6,4.35-2.96,4.34c0.95-2.27,0.94-1.94,0.57-4.85
		c-2.42,1.88-0.06,0.77-2.91,1.34l0.19-4c-0.66-0.05-1.21-0.08-1.67-0.1v25.01l4.85-0.64l-2.71-5.05c5.77-0.58,6.79,0.98,13.04,0.59
		c7.23-0.45,1.53,0.31,10.78,1.68l-2.5,3.22c-4.91-1.6,0.15-1.4-6.13-1.57c-1.27,2.28,0.09-1.45-0.52,1.72l-0.25,1.75
		c-5.54,1.03-3.32-0.47-3.72,3.34c-0.46-0.26-1.05-0.11-1.38-0.76c-0.31-0.62-0.93-0.49-1.34-0.64l-6.05-1.91
		c-2.34-0.91-3.49-1.14-4.08-1.1v2.89c1.31,0.73,1.92,1.72,2.73,4.48c-3.32-1.73-1.17,0.5-2.73-1.04v2.23l0.27-0.02
		c-0.09,0.25-0.18,0.48-0.27,0.67v2.5c7.75,0.15,5.25,0.6,12.48-2.65c-0.99,6.12,0.28,4.38-3.62,4.91c-2.65,0.36-5.7,0.33-8.86,0.27
		v10.07C515.47,724.39,517.56,726.53,520.35,726.53L520.35,726.53z M618.19,721.55v-21.21c-3.59,0.3-5.09,0.33-1.05,1.36
		c-3.48,1.85-5.03,2.45-9.39,3.18c3.98-5.31,4.15-3.23,1.77-6.98c4.66,0.4,9.36,0.12,8.59-3.9l0.08,0.01v-42.53
		c-1.17-0.08-2.4-0.19-3.71-0.53c3.98-3.04,1.84-0.19,3.71-1.65v-30.53c-1.41-0.31-2.38-1.13-3.88-3.76
		c-9.68,0.93-9.36-0.97-11.41-2.34h-7.71c-2.79,0-4.88,2.37-4.88,4.97v21.26c0.18,0.09,0.38,0.17,0.58,0.26l-0.58,0.82v71.64l0.07,0
		l-0.07,0.11v9.82c0,2.84,2.09,4.97,4.88,4.97h18.13C616.1,726.53,618.19,724.39,618.19,721.55L618.19,721.55z M680.25,728.18
		c8.83,0,17.69-2.45,25.48-7.27c-0.27-0.12-0.57-0.26-0.93-0.43c1.24-2.48-1.66-2.65,2.51-2.62c2.27,0.02,1.37-0.16,1.63,0.89
		c12.92-9.48,22.2-26.02,22.2-49.27c0-5.9-0.61-11.36-1.72-16.38l-7.46,1c0.07,0.08,2.77,1.14-3.44,4.07
		c-1.72-3.54-3-3.29-5.14-7.18c3.19-0.23,3.92,0.09,5.81-0.49c3.18-0.96-1.68-0.6,4-1.76l5.91,3
		c-4.94-20.21-18.28-33.02-33.61-38.06l-3.09,0.06c0.06-0.36,0.1-0.66,0.14-0.93c-2.72-0.71-5.5-1.18-8.28-1.41
		c-0.58,0.44-1.08-0.8-3.4,4.22l-4.55-1.09c1.05-3.1,1.58-2.51-1.6-1.75c-0.66-1.12-0.71-0.99-0.66-1.13
		c-18.2,2.38-35.51,15.22-41.89,38c4.09,0.11,8.34,0.29,12.35-0.35c8.72-1.4,3.27-0.87,7.62,0.21c5.41,1.35,4.21,0.53,8.15-1.3
		l2.44,1.81l0.08,0.07c4.23-8.34,10.92-13.53,17.43-13.53c16.27,0,22.08,18.94,22.08,32.9c0,19.41-11.16,33.37-22.08,33.37
		c-8.6,0-17.51-9.05-20.66-22.7c-0.46,0.22-1.34,0.37-2.92,0.34c-4.25-0.09-2.56-0.91-3.43-1.74c2.48-1.67,2.57-1.82,6-0.28
		c-0.54-2.83-0.83-5.84-0.83-8.99l0.01-0.69c-4.83-0.7-2.59,3.7-3.55-4.62c1.71-0.08,2.95-0.11,3.85-0.09
		c0.44-3.81,1.34-7.35,2.58-10.54c-4.41,0.95-7.41-1.97-13.06-2.12c-8.29-0.22-5.52,2.61-16.84,1.31
		c-1.17,5.13-1.81,10.72-1.81,16.77c0,9.67,1.54,18.63,4.61,26.52c4.61,0.82,2.08,2.47,8.71,1.51c7.05-1.02,3.44-3.71,8.94-0.64
		c-2.32,1.77,0.47,1.07-7.09,1.4l5.55,1.58c-7.06,4.49-5.5,2.42-13.63,1.62c1.9,3.68,4.19,7.07,6.86,10.13
		C652.82,722.03,666.53,728.18,680.25,728.18L680.25,728.18z M799.7,617.64v16.24l6.97-4.76c2.22,1.65,0.12,0.66,3.77,1.35
		c-3.27,2.29-3.91,0.61-1.44,4.74l-7.96,2l-1.33-0.48v17.18c0.94,0.08,2.03,0.15,3.3,0.23c6.51,0.39,13.74,0.41,20.28,0.99
		c-5.47,2.44-12.55-0.74-23.59,1.52v9.75c0,1.66-2.32,2.13-3.02,0.47l-1.66-3.64c0.52,5.07-0.23,6.24,1.35,10.13
		c-7.8,0.72-2.46-1.38-8.21-5.09c-1.41-0.91-1.07-0.21-3.01-1.61c2.66-7.91,1.35,0.93,4.73-4.77c0.03-0.06,1.52-4.1,1.52-4.14
		c0.04-1.61,0.25-1.89,0.23-1.95c-0.03-0.07-0.44,0.23-2.11-1.48c0.49-0.13,0.91-0.25,1.27-0.36l-17.57-38.44
		c-0.93-1.89-2.56-2.84-4.42-2.84h-18.82c-3.49,0-6.04,2.6-6.04,5.92v102.96c0,2.84,2.32,4.97,4.88,4.97h18.13
		c2.79,0,4.88-2.13,4.88-4.97v-52.78c0-1.89,2.56-2.37,3.25-0.71l3.32,7.95c2.15-2.05-0.3-0.99,4.09-1.55c1,1.71-1.39,0.8,0.75,3.52
		l2.16,2.65c-3.94-0.93-4.62-1.25-6.43-3.25l19.35,46.31c0.93,1.89,2.56,2.84,4.42,2.84h15.89c0.02-0.24,0.08-0.58,0.72-1.14
		c-7.91,1.03-2.7,0.06-8.76-1.27c6.18-5.1,2.1,0.97,7.76-4.46c2.46-2.36,0.61-1.01,4.06-3c-1.09,5.51-0.49,6.36-0.46,9.87
		c3.18-0.08,5.66-2.65,5.66-5.91V617.64c0-2.84-2.09-4.97-4.88-4.97h-17.34c0.54,0.99,1.26,1.8,2.02,4.78
		c-4.28-1.68-3.68,0.38-4.17-4.58C801.26,613.47,799.7,615.32,799.7,617.64L799.7,617.64z"/>
	<path class="st0" d="M114.6,287.11l-7.42,45.66c-0.17,1.42-1.9,1.42-2.24,0l-8.45-45.66c-0.34-1.62-1.55-2.64-2.93-2.64H77.51
		c-1.38,0-2.59,1.02-2.93,2.64l-7.76,45.66c-0.34,1.42-2.07,1.42-2.24,0l-8.11-45.66c-0.17-1.62-1.38-2.64-2.76-2.64H38.87
		c-1.9,0-3.28,2.03-2.76,4.26l0.57,2.82c1.28-0.08,2.47,0.28,3.83,1.36c-1.11,0.59-2.18,1.26-3.21,1.69l8.52,41.88
		c6.32-0.35,14.84-2.06,18.56-1.92c4.85,0.18,10.4-0.94,16.12,0.05c-4.7,5.25-2.6,1.87-7.77,1.84c-4.77-0.02-7.43,1.39-11.46,1.88
		c-5.45,0.67-6.98-1.1-11.77-1.04c-1.14,0.01-2.29,0.11-3.48,0.22l7.61,37.39c5.56,0.05,11.33,0.33,15.72,0.41
		c-1.24,1.47,1.17,2.67-6.71,3.42c-2.67,0.25-5.4,0.42-8.11,0.63l0.01,0.07c0.35,1.62,1.55,2.64,2.93,2.64h16.21
		c1.21,0,2.41-1.02,2.76-2.64l7.94-52.35c0.17-1.42,2.07-1.42,2.24,0l7.94,52.35c0.34,1.62,1.38,2.64,2.76,2.64h16.22
		c1.38,0,2.59-1.02,2.76-2.64l0.69-3.36l-1.13-0.07l-1.21,2.52c-2.9-0.26-5.82-0.39-8.59-0.6c-9.05-0.69-1.37-0.32-5.4-2.98
		l9.16,1.37c0.01,0.02-0.03,0.18-0.01,0.26c3.75-1.45,3.34-2.04,7.37-3.01l0.34-0.08l3.62-17.63c-5.23-3.02,1.01,1.34-4.79-0.78
		c1.34-1.82,3.25-1.58,5.1-2.98l0.64-0.82l0.55-2.69c-2.12-1.19-2.86-0.06-4.64-0.76c2.26-3.36,0.38,1.9,1.1-2.54
		c0.04-0.22,0.09-3.18,0.11-3.62c7.21,0.94,2.05,2.16,4.49,1.79l0.93-4.53l-2.51-2.96c1.19-0.47,2.34-1.17,3.5-1.85l9.32-45.38
		c0.52-2.23-1.04-4.26-2.93-4.26h-14.66C115.98,284.47,114.77,285.49,114.6,287.11L114.6,287.11z M160.69,324.37
		c-0.68-2.75,0.86-1.94-1.89-3.21l6.49,0l-1.61,7.15l-6.31-1.53C158.28,323.92,158.27,325.03,160.69,324.37L160.69,324.37z
		 M260.27,301.38c1.67-3.42-1.04-1.74,2.24-2.68c5.91-1.69,3.68,1.36,3.8,1.47C265.21,301.2,265.5,304.12,260.27,301.38
		L260.27,301.38z M102.34,350.05c-3.95,0.92,1.11-1.3-1.84,1.23c-2.28,1.96,0.25,1.11-3.14,2.49l-1.16-2.79
		c2.87-2.28,2.15-1.82,7.59-2.2l4.6,3.56c0.26,0.31,1,1.78,1.26,2.27c-1.59,0.97-5.14,1.36-8.82,1.54
		C103.82,349.81,104.35,353.06,102.34,350.05L102.34,350.05z M110.65,335.73l5.73-2.68c-0.91,2.36,0.86,2.21-2.22,3.49
		C107.89,339.14,111.15,336.04,110.65,335.73L110.65,335.73z M244.98,362.35c4.46-2.56,1.73-1.47,3.7,0
		c-1.78,1.52,2.93,1.38-1.38,0.97C245.2,363.12,246.17,363.17,244.98,362.35L244.98,362.35z M171.71,346.57h13.28
		c1.9,0,3.62,1.83,3.62,4.26v20.6l20.7-0.3V348.5c-3.9,1.62-10.81,2.73-14.87,0.54c2.64-4.87,10.02-3.87,14.87-1.85v-58.25
		c0-2.43-1.55-4.46-3.62-4.46h-13.45c-2.07,0-3.62,2.03-3.62,4.46V319c0,2.23-1.72,4.23-3.62,4.23h-13.28c-2.07,0-3.8-1.99-3.8-4.23
		v-30.07c0-2.43-1.55-4.46-3.62-4.46h-13.46c-2.07,0-3.62,2.03-3.62,4.46v60.04c1.25,0.05,2.61,0.12,4.08,0.22
		c-1.9,0.83-3.18,1.33-4.08,1.61v13.41c0.29-0.09,0.71-0.27,1.29-0.56l4.82-1.03c4.8,0.38,0.77,0.04,2.55,0.92
		c-2.63,2.58-4.46,2.27-8.66,2.69v7.23c0.65,0.39,1.71,0.88,3.38,1.58c-1.19,0.18-2.32,0.35-3.38,0.5v2.26
		c0,2.23,1.55,4.26,3.62,4.26h13.46c2.07,0,3.62-2.03,3.62-4.26v-4.61l-1.97-0.6c0.76-0.04,1.41-0.05,1.97-0.03v-5.41l-1.22,2.2
		l-6.87-1.17l0.35-3.92c2.68-0.03,4.76,0.44,7.73,0.66v-14.09C167.91,348.39,169.63,346.57,171.71,346.57L171.71,346.57z
		 M188.61,374.12v3.7c0,2.23,1.55,4.26,3.62,4.26h13.45c2.07,0,3.62-2.03,3.62-4.26v-2.77c-0.66,0.02-1.31,0.03-1.96,0.04
		c-3.2,0.04-11.13-0.41-15.26-0.77C190.78,374.2,189.63,374.14,188.61,374.12L188.61,374.12z M260.55,383.5
		c6.91,0,13.84-2.33,19.84-6.92c-2.12,0.53-3.46,0.98-4.21,1.03c-0.62-4.28,0.04-4.99,1.66-7.58c3.19,1.59,1.5,1.99,4.99,4.12
		c0.31-0.18,0.62-0.34,0.94-0.5c8.57-8.34,14.55-21.92,14.55-40.49c0-1.54-0.04-3.05-0.12-4.53l-14.15,1
		c-1.45,0.09-4.64,0.1-7.21,0.4c0.06,1.07,0.1,2.11,0.1,3.13c0,2.54-0.19,4.98-0.55,7.28l1.49,0.09c3.84,0.2,0.16-1.35,3.74-2.33
		l1.85,6.05l-5.64,1.77c0.56,5.95,2.09,8.08-0.76,12.37c-1.34-2.35-0.72-3.35-1.19-7.31l-0.47-3.09c-0.23-1.09-0.29-1.65-0.29-1.95
		c-2.29,7.63-6.48,13.07-11.02,14.98c-1.27,2.93-1.93,6.15-1.72,10.52c5.09-0.56,7.07-0.9,11.36,1.68
		c-4.87,6.34-16.42,1.89-24.82,1.69c-5.5-0.13-8.16,0.11-9.8,0.44C245.36,380.56,252.96,383.5,260.55,383.5L260.55,383.5z
		 M298.04,326.33c-2.44-28.39-20.04-43.08-37.49-43.08c-18.63,0-37.61,17.04-37.61,49.92c0,14.41,3.45,26.99,10.35,36.12
		c0.39,0.5,0.79,0.99,1.19,1.47c1.32,0.21,1.89,0.29,2.74,0.27c9.02-0.19,9.58,3.63,15.94,0.41c2.99-1.51,3.65-2.97,4.79-5.79
		c0.63-1.55,1.08-2.86,1.39-3.97c-7.55-1.13-15.01-12.72-15.01-28.52c0-16.23,8.28-28.21,16.22-28.21c6.89,0,11.26,5.29,13.73,12.06
		c0.23-2.09,0.22-4.08,0.35-5.46c1.85,3.41,1.27,6.11,0.58,8.37c0.58,2.11,1.01,4.3,1.29,6.47
		C279.49,326.89,287.95,326.71,298.04,326.33L298.04,326.33z"/>
	<path class="st0" d="M548.26,338.37h13.28c1.9,0,3.62,1.83,3.62,4.26v26.99c0,2.23,1.55,4.26,3.62,4.26h13.45
		c2.07,0,3.62-2.03,3.62-4.26v-88.88c0-2.43-1.55-4.46-3.62-4.46h-13.45c-2.07,0-3.62,2.03-3.62,4.46v30.07
		c0,2.23-1.73,4.23-3.62,4.23h-13.28c-2.07,0-3.8-2-3.8-4.23v-14.68c-1.24-0.16-2.91-0.38-5.22-0.64c0.14-0.14,1.27-2.13,1.52-2.43
		c3.58-4.2,1.25-0.2,3.38-5.14l0.32,0.32v-7.48c0-2.43-1.55-4.46-3.62-4.46h-13.45c-2.07,0-3.62,2.03-3.62,4.46v17.11
		c13.29,0.35,10.08,1.61,7.71,11.5c3.36,3.1,2.01-0.88,3.5,2.34l-6.19,0.05c-2.13-6.89-1.5-3.73,1.59-7.94l-6.61-4.98v70.79
		c0,2.23,1.55,4.26,3.62,4.26h13.45c2.07,0,3.62-2.03,3.62-4.26v-26.99C544.47,340.19,546.19,338.37,548.26,338.37L548.26,338.37z
		 M633.88,340.18c-0.26,0.58-1.67,3.5-1.7,3.54c-3.54,3.69-0.69,1.6-4.82,1.58C629.12,341.86,629.85,341,633.88,340.18
		L633.88,340.18z M712.77,332.84c-1.27,3.01-0.78,1.32-1.39,1.98l-4.12,0.6c-0.77-1.28-0.24,0.32-1.19-2.58H712.77L712.77,332.84z
		 M686.22,293.4c-6.33-0.58-4.76-1.82-7.46-4.53c-4.86-4.86-3.06,0.06-6.84-2.01c1.6-1.59,2.38-2.36,3.7-4.02l6.9,0.13L686.22,293.4
		L686.22,293.4z M777.61,299.82c3.93,1.36,4.79,1.11,6.31,5.18C777.52,303.69,778.12,305.49,777.61,299.82L777.61,299.82z
		 M671.07,305.93c-1.63,3.48,0.42,3.1-4.91,2.18C667.62,304.95,665.4,303.74,671.07,305.93L671.07,305.93z M636.41,276.27h-17.59
		c-1.38,0-2.59,1.02-2.93,2.43l-15.75,65.86c3.76-1.53,8.56-2.24,13.61-2.37c-1.82,5.17-0.68,5.48-6.86,3.47
		c-5.29-1.72-4.18-0.17-6.76-1.06l-6.32,26.42c-0.35,1.42,0.52,2.84,1.72,2.84h16.91c0.86,0,1.55-0.61,1.72-1.62l2.76-12.78
		c0.52-1.83,1.9-3.04,3.45-3.04h14.32c1.55,0,2.93,1.22,3.45,3.04l2.59,12.78c0.17,1.01,0.86,1.62,1.73,1.62h16.91
		c1.21,0,2.07-1.42,1.72-2.84l-21.73-92.33C639,277.29,637.79,276.27,636.41,276.27L636.41,276.27z M620.54,336.54l5.52-28.82
		c0.34-1.83,2.42-1.83,2.76,0l6.04,28.82c0.17,1.42-0.69,2.64-1.9,2.64h-10.52C621.23,339.18,620.37,337.96,620.54,336.54
		L620.54,336.54z M695.23,299.2c0.17,0.2,0.52,0.2,0.69,0.2c0,0,5.69,0.2,9.32,3.86c1.21,1.01,2.93,1.22,4.31,0.2l11.39-8.52
		c1.9-1.42,2.24-4.46,0.86-6.49c-8.97-12.17-22.43-13.19-25.36-13.39c-13.13-0.92-22.61,4.85-27.87,13.25l0.9,8.87
		c-2.29-1.11-3.25-1.87-3.85-2.75c-1.02,2.89-1.62,5.94-1.79,9.04c-0.34,5.04,0.49,10.21,2.49,14.95c0.96-0.51,2.07-1.09,3.38-1.77
		c-1,2.28-1.53,3.87-1.79,4.99c4.56,8.03,12.85,14.23,24.9,15.31c5.65,0.45,9.11,2.71,10.43,5.17l5.87,0.3
		c14.39,2.44,11.19-0.19,15.16-1.18c-0.69-6.63-3.41-12.9-7.65-17.89c-5.52-6.09-13.11-9.74-22.25-10.55
		c-7.24-0.61-10.18-4.46-10-7.71C684.54,301.84,687.99,298.59,695.23,299.2L695.23,299.2z M701.56,348.56
		c-1.98,1.46-5.22,2.33-9.61,1.98c-0.17-0.2,0.17,0-0.17-0.2c-0.17,0.2-5.69-0.41-9.31-5.07c-1.04-1.42-2.76-2.03-4.31-1.22
		l-12.25,6.9c-1.9,1.01-2.59,4.06-1.38,6.29c3.52,6.31,8.29,10.51,13.04,13.19l-4.4-9.82l7.39,0.61c-0.5,7.82,0.41,6.34-2.05,9.73
		c4.24,2.22,8.4,3.26,11.54,3.54c0.17,0,0.52,0.2,0.69,0.2c19.72,1.55,31.45-11.63,33.42-26.04c-1.22,0.73-2.72,1.49-4.6,2.27
		l-3.71-5.59c-4.03,2.62-1.95-0.26-7.66,0.87C704.06,347.02,704.1,347.85,701.56,348.56L701.56,348.56z M802.01,276.27h-17.6
		c-1.38,0-2.59,1.02-2.93,2.43l-15.54,64.98c0.42-0.09,0.89-0.17,1.43-0.26c0.62,4.1,0.13,4.56-1.27,7.58
		c-0.79-0.27-1.33-0.52-1.73-0.76l-4.97,20.8c-0.35,1.42,0.52,2.84,1.72,2.84h4.29c-0.66-3.35-2.06-6.32,0.85-11.05l2.31,11.05h2.22
		c5.07-8.12,11.26-13.01,10.18-24.24c-4.47,0.59-7.64,0.38-11.25-1.8c5.27-6.61,18.29-1.29,26.75-1.61
		c2.44-0.09,4.93,0.06,6.45-0.09c2.64-0.26,4.93-1.31,6.43-1.46c2.89-0.3,7.51,0.81,11.42,1.31l-15.84-67.27
		C804.6,277.29,803.39,276.27,802.01,276.27L802.01,276.27z M785.13,356.55c0.27-0.08,0.55-0.12,0.84-0.12h14.32
		c1.55,0,2.93,1.22,3.45,3.04l2.59,12.78c0.17,1.01,0.86,1.62,1.73,1.62h16.9c1.21,0,2.07-1.42,1.73-2.84l-4.94-20.99l-18.82,0.23
		c-7.79-1.53-12.89-4.55-17.08,4.66C785.58,355.51,785.34,356.05,785.13,356.55L785.13,356.55z M786.14,336.54l4.44-23.2
		c-1.1-0.67-1.22-1.63-2.33-2.62l2.82,0.08l0.59-3.07c0.35-1.83,2.42-1.83,2.76,0l0.67,3.18l6.63,0.19
		c-0.37,1.05,2.07,3.36-5.93,3.17l4.67,22.28c0.17,1.42-0.69,2.64-1.9,2.64h-10.52C786.83,339.18,785.97,337.96,786.14,336.54
		L786.14,336.54z"/>
	<path class="st0" d="M73.14,253.4c14.32,0,25.53-8.77,32.03-23.77c-6.86,0.24-10.43-3.65-11.46,5.21l3.97,1.56
		c1.32,0.35,1.17-0.15,3.19,0.58c-1.84,1.59-1.53,1.45-4.35,2.92l-3.9-2.9l-3.36,3.18c-3.4-4.47-3.89-1.64-8.24-3.87l4.92-2.34
		c2.61-0.64,2.78-0.33,5.48-1.53l-2.89-2.19c-1.63-1.12-0.38,0.46-2.07-1.43l4.09-2.5c5.9-2.63,11.53-5.42,16.07-0.34
		c3.15-8.73,4.85-19.26,4.85-31.18h-1.44l1.65-0.24V143.1c0-2.84-2.06-4.97-4.33-4.97H91.28c-2.37,0-4.37,1.96-4.52,4.64l0.09,0.25
		l15.67,3.7c0.48,1.74,0.96-0.35-1.84,2.58c-2.22,2.32-1.38,0.82-3.1,4.35c-4.53-1.16-3.92-1.04-6.67-3.82
		c-0.06,0.2-0.26-0.51-0.42-0.75c-2.13,0.43-2.99,0.8-3.74,1.15v44.55l0,0c0,7.1-0.82,30.22-13.6,30.22c-4.21,0-7.1-2.72-9.05-6.12
		c-1.75-0.07,0.19,0.05-1.58-1.28c0.22-0.21,0.43-0.41,0.62-0.6c-1.04-2.27-1.72-4.66-2.16-6.65c-0.62-2.33-2.68-3.98-4.74-3.75
		l-15.87,2.09c-2.68,0.24-4.33,3.08-3.92,6.15C39.54,230.44,49.84,253.4,73.14,253.4L73.14,253.4z M136.45,181.63
		c0.82-1.3,1.28,0.53,1.06-2.41c-0.23-2.99,0.15-0.58-1.06-2.38C135.99,177.35,132.48,177.36,136.45,181.63L136.45,181.63z
		 M178.79,206.41c-2.42-4.58,0.52-12.31,0.92-15.31c5.21,1.71,0.97-0.18,6.84,5.75C179.36,198.71,182.4,202.16,178.79,206.41
		L178.79,206.41z M141.78,214.75c7.24,0.94,4.95-0.52,5.78,4.88c-5.65-1.77-0.62-3.2-11.57-2.76c1.8-3.9,1-3.57,5.72-5.1
		L141.78,214.75L141.78,214.75z M428.01,224.81c-4.36-2.56,5.69-0.69-1.84-5.28c0.16-0.12,2.42-1.51,2.64-1.73
		c3.42-3.43-3.92-0.53,2.09-2.79c0.89,1.85,0.73,1.7,1.74,3.14C430.24,223.24,432.57,222.14,428.01,224.81L428.01,224.81z
		 M344.06,158.95l0.47-3.99c1.8,2.31,1.15,1.33,1.68,6.37c-3.72,0.63-3.75,1.17-7,2.16l-3.05-3.56
		C342.83,159.53,337.37,162.21,344.06,158.95L344.06,158.95z M74.73,233.26c2.28,0.07,2.53,0.64,3.88,1.25
		c-1.37,1.06-0.33,0.73-2.7,1.67c-7.24,2.87-6.14-0.91-6.43-1.34C71.68,233.51,70.58,233.13,74.73,233.26L74.73,233.26z
		 M359.58,144.85c-1.51-6.07-1.88-3.41-3.4-3.77c-2.79-0.67-1.18,2.03-2.81-2.89l8.36,2.3c0.31,4.81,0.33,1.34-0.93,6.61
		L359.58,144.85L359.58,144.85z M447.28,150.54c-2.24,1.14-7.31,2.58-8.63,2.23c0.16-0.37,0.01-0.82,0.05-1.03l1.07-3.41
		L447.28,150.54L447.28,150.54z M239.94,187.76l-3.9-3.28c-3.45-2.41-0.7,1.52-4.55-3.27l5.82-0.02L239.94,187.76L239.94,187.76z
		 M44.2,233.27c0.89-0.18,1.4-0.58,2.83,0.16c4.82,2.48,0.78,0.39,2.55,2.71l-2.53,2.25C45.65,236.95,43.83,235.83,44.2,233.27
		L44.2,233.27z M290.87,150.18c2-5.75-0.56-4.52,5.08-4.88C294.6,149.95,294.97,148.46,290.87,150.18L290.87,150.18z M103.74,188.62
		c2.24-2.19,3.12-4.35,6.88-2.17C108.34,189.32,108.92,188.54,103.74,188.62L103.74,188.62z M142.25,146.53
		c-2.17,1.67-2.7,3.13-4.73,0C137.56,146.5,135.93,142.1,142.25,146.53L142.25,146.53z M136.74,220.15l4.79-2.13
		c-0.56,2.92,1.16,1.82-1.74,3.34C136.28,223.2,136.91,220.41,136.74,220.15L136.74,220.15z M307.45,163.68
		c-6.59-1.3-2.15,1.35-3.5-3.55C308.56,162.29,305.67,157.86,307.45,163.68L307.45,163.68z M51.29,215.01
		c-5.93-0.64-2.27,1.3-3.52-3.24C51.44,213.56,48.97,210.78,51.29,215.01L51.29,215.01z M343.01,151.37
		c0.54-0.31,0.36-0.61,1.57-0.9c0.5-0.12,0.71,0.23,1.63,0.9C344.6,152.24,345.25,152.42,343.01,151.37L343.01,151.37z
		 M221.88,181.61c1.27-0.64-0.18-0.84,3.02,0C219.85,184.57,223.43,182.51,221.88,181.61L221.88,181.61z M633.11,162.9
		c0.18-0.36,0.4-3.07,0.47-3.42c0.61-2.9,0.44-2.67,4.4-3.17c-1.15-0.86,1.75-1.28-3.55-1.78l8.92-1.57l3.61,3.52l-8.17-0.84
		l3.11,2.12l-4.52,4.74C635.66,162.85,634.65,162.76,633.11,162.9L633.11,162.9z M632.84,223.23c2.31-3.59,0.76-3.07,3.25-3.97
		l1.21,3.78c4.43-1.11,2.19-2.21,6.04-0.29l-7.87,3.24c-4.36,0.78-4.96-0.01-6.5-3.57C631.32,221.41,630.07,219.93,632.84,223.23
		L632.84,223.23z M560.31,227.83c9.14-3.14,6.59-0.92,14.83-0.8l4.43,0.73C573.73,230.39,563.01,229.7,560.31,227.83L560.31,227.83z
		 M587.31,226.5c7.66-0.35,5.06,1.93,5.45,2.3c-3.53,1.09-3.68-0.33-9.62,1.8C584.5,226.92,582.75,226.71,587.31,226.5L587.31,226.5
		z M796.94,229.78c-1.61,4.4-4.44,7.31-6.33,1.22L796.94,229.78L796.94,229.78z M711.14,144.95c-4.45-2.52-1.3-0.28-2.98-4.53
		l4.61,0.58L711.14,144.95L711.14,144.95z M700.14,152.84c3.04,0.82,2.2,2.04,2.86,3.87C698.31,155.86,698.04,157.43,700.14,152.84
		L700.14,152.84z M181.47,185.17c2.4,2.64,11.09,4.67,12.59,1.28C191.05,184.47,184.79,184.46,181.47,185.17L181.47,185.17z
		 M191.66,138.13h-16.08c-2.47,0-4.33,2.41-4.33,5.25v12.4c2.54,0.67,5.48,1.11,7.38,0.09c3.09-1.67-2.05,1.71,1.58-1.37l1.71-1.44
		c3.17-3.72-0.4-2.53-3.92-6.26c2.39-3.42-0.66-2.28,2.84-2.01c2.4,0.19,1.28-1.63,2.13,1.2c0.12,0.39,0.49,0.44,0.78,0.65l2.3-5.45
		c0.79,2.24-0.35,0.06,0.98,2.22c5.2,8.4,0.94,4.78-1.77,10.33l5.61-1.29c1.88-0.6,3.54-1.6,5.1-2.64l0.02-6.44
		C195.99,140.54,193.93,138.13,191.66,138.13L191.66,138.13z M171.26,157.45v48.34c-0.21,9.27-2.89,16.14-7.63,19.21
		c-3.5,2.13-7.42,2.13-10.51,0c-4.12-2.84-6.39-8.99-6.39-17.56l0.08-24.94l-0.52,0c0.18-0.32,0.36-0.61,0.52-0.88l0.08-24.84
		c-2.15,0.3-4.33,0.87-5.73,1.83c-0.19,0.13-0.44,0.42-0.63,0.56c-2.88,2.01-2.67,1.84-6.87,0.45c2.7-1.27,2.66-1.53,5.25-3.54
		c-3.43-2.29-1.18-1.7-5.54-3.15c1.28-1-2.34-2.43,5.48-2.08c2.73,0.12,0.51,0.71,4,1.06c2.6,0.26,3.48,0.05,4.06-0.48l0.03-8.05
		c0.21-2.84-1.86-5.25-4.33-5.25h-15.87c-2.47,0-4.54,2.41-4.54,5.25v26.01c1.85-2.92,0.89-4,4.02,0.13
		c-1.33,0.68-0.57,0.61-2.62,0.83c-0.19,0.02-0.95-0.32-1.39-0.54v10.68c0.69,0.01,1.58,0.18,2.74,0.53
		c3.12,1.18,0.47,0.69,5.01,1.64c0.07,0.23,0.42,0.1,0.62,0.19c-0.23,4.47,0.75,2.12-2.58,4.61c-3.3-0.91-1.03,2.64-3.63-3.1
		c-1.23,0.22-1.72,0.31-2.16,0.43v22.45c-0.01,0.73,0,1.45,0.01,2.17c1.81,0.3,1.29-0.56,3.09,0.06c-1.44,3.2,0.46,2.18-3.01,2.22
		c0.44,8.8,2.48,16.74,5.9,23.36c0.4-0.18,0.83-0.44,1.43-0.91l5.12-2.51l5.7,2.63c-2,2.56,0.3,1.47-3.1,2.66l-7.98,0.24
		c2.93,5.01,6.7,9.17,11.2,12.25c5.36,3.55,11.54,5.44,17.73,5.44c5.74,0,11.48-1.53,16.67-4.79c-3.84-4.76-2.06-3.74-0.8-8.8
		c1.17-4.69-1.52-2.62-0.1-7.7c0.85-3.06,1.51,1.57,0.75-4.3c-0.28-2.18-1.21-1.78-1.05-5.24c0.18-3.68,2.2-5.95,4.78-7.44
		c-3.42-1.59-4.57-4.69-4.47-4.56l4.73-3.2c0.79,4.65,2.55,13.11,1.59,17.02c-1.47,5.95-0.38,2.81-0.12,5.68l-2.6,10.61
		c1.49,1.41,0.02,0.9,3.09,2.15c-1.95,1.42-1.73,0.92-3.17,2.64c-1.05,1.24-0.8,1.45-1.59,2.47c10.72-7.15,17.44-19.69,19.29-35.22
		c-0.3-0.36-0.85-0.91-1.96-1.71c-3.82,3.81-4.1,4.63-7.67,3.07c1.49-4.21-1.65-0.49,3.5-3.92c0.81-0.54,2.93-3.27,6.5-1.52
		c0.08-1.32,0.13-2.66,0.15-4.02v-0.24l0.12-35.19c-1.59-0.04-3.5-0.07-6.07,0.25l-8.27-0.5c2-4.59,1.51-0.67-0.29-7.02l4.9,1.69
		l1.09-2.92c3.18,1.48,1.12,0.04,3.63,3.76c3.72-1.05,1.15,1.57,3.14-1.89c0.89,1.6,1.48,2.62,1.88,3.24l0.03-9.65
		c-0.81,0.07-1.65,0.16-2.52,0.25l-10.97-0.2C178.69,157.13,175.24,156.72,171.26,157.45L171.26,157.45z M241.75,164.88
		c0.21,0.24,0.62,0.24,0.83,0.24c0,0,6.8,0.24,11.13,4.5c1.44,1.18,3.5,1.42,5.15,0.24l11.82-8.64c-1.35-0.12-2.89-0.35-4.64-0.55
		l-1.36-5.06c-12.54,1.04-14.69-0.89-14.42,10.72c-3.79-2.61-1.61-0.55-3.08-0.84c-0.1-0.02-0.41,0-0.5-0.02l-5.42-3.2
		c2.12-1.81,4.7-0.06,7.53-0.86c-3.41-4.97-7.44-4.28-14.33-3.94c2.87,8.94,1.33-1.62,4.63,4.8c-3.66,1.37-5.72-1.46-7.06-4.73
		c-4.46,1.38-2.78,2.29-7,3.23c0.09-0.23,0.45-0.44,0.53-0.54c2.39-2.81,2.59-0.74,1.64-3.2c-5.12,0.11-4.78,0.2-8.91,1.43
		c-6,1.8-2.94-1.08-5.61,3.51c-1.92-1.86-3.86-3.03-5.88-3.74c-1.46,3.68-2.32,7.62-2.55,11.61c-1.24,17.75,10.31,36.92,34.63,39.06
		c3.3,0.26,5.97,1.02,8.02,2.06l1.85-2.17c0.38-7.38,0.21-11.89-5.34-15.44c-0.43-0.27-1.87-1.42-2.03-1.58
		c2.36-1.96,7.1-1.31,10.42-1.42c3.79-0.13,11.21,0.11,14.66,1.79c-3.66-3.68-8.02-6.54-12.99-8.5c0.67,0.47,1.48,1,2.5,1.59
		l-2.69,3.27l-1.47-2.15c-1.99-3,0.13-2.18-2.84-3.06l-1.83,4.02c-0.55-2.36-0.92-4.16-1.48-5.92c-0.96-0.18-1.93-0.34-2.93-0.46
		l-1.42,1.1c0.41-0.49,0.65-0.87,0.78-1.17c-0.45-0.05-0.91-0.1-1.37-0.14c-8.66-0.71-12.16-5.21-11.96-8.99
		C228.98,167.95,233.1,164.17,241.75,164.88L241.75,164.88z M273.69,152.62c-0.06-0.1-0.12-0.19-0.19-0.29
		c-10.72-14.2-26.8-15.39-30.3-15.62c-10.97-0.75-19.8,2.31-26.28,7.57c0.49,1.15,1.07,2.53,2.95,3.16
		c-0.24,0.21-0.64,0.39-0.82,0.5l-7.86,6.5c8-0.75,2.24-0.97,6.68-2.21l4.47-0.52v3.61c2.73,0.97,18.31-0.35,24.2-0.19l1.21-5.17
		c2.79,1.74,2.01,2.57,3.63,5.34c4.75-0.68,5.29-0.32,8.98-0.69c3.94-0.4,5.59-2.97,7.95-3.29L273.69,152.62L273.69,152.62z
		 M251.42,215.1c0.48,0.93,0.69,1.89,0.64,2.8c-0.21,4.02-5.15,7.57-14.22,6.86c-0.2-0.24,0.21,0-0.2-0.24
		c-0.21,0.24-6.8-0.47-11.13-5.92c-1.24-1.66-3.3-2.37-5.15-1.42l-14.64,8.05c-2.27,1.18-3.09,4.73-1.65,7.34
		c8.24,14.44,22.26,19.41,30.51,20.12c0.21,0,0.62,0.24,0.82,0.24c24.74,1.89,38.96-15.15,40.2-32.9
		c0.62-9.94-2.88-19.65-9.28-26.98l-0.43-0.45l-1.4,0.63c-9.34,2.49-6.73-2.13-10,2.91c1.74,0.73,0.52,0.25,1.92-0.18l2.55-1.05
		c-0.99,3.08,0.14,4.28-0.11,5.27l-5.24,2.01c0.73,8.81,4.15,2.17,1.57,8.31c-5.11-4.59-0.57-6.8-4.8-12.85
		C247.16,202.62,252.63,206.38,251.42,215.1L251.42,215.1z M314.93,251.98h16.08c2.47,0,4.33-2.13,4.33-4.97v-76.73
		c0-2.6,2.06-4.93,4.54-4.93h19.17c2.47,0,4.33-2.13,4.33-4.97V143.1c0-2.6-1.86-4.97-4.33-4.97h-71.94c-2.47,0-4.33,2.37-4.33,4.97
		v17.28c0,2.84,1.86,4.97,4.33,4.97h19.17c2.27,0,4.33,2.33,4.33,4.93v76.73C310.6,249.85,312.46,251.98,314.93,251.98
		L314.93,251.98z M458.2,138.13h-21.02c-1.65,0-3.09,1.18-3.5,2.84l-20.91,85.34l0.54,0.21c2.78,1.12,0.59-0.17,2.38,1.22
		c-1.36,0.53-2.54,0.9-3.56,1.14l-4.85,19.79c-0.41,1.66,0.62,3.31,2.06,3.31h19.85c0.03-2.61,0.58-3.16-2.21-6.02
		c6.9,0.46,0.58,1.01,5.04,1.65l0.13,0.02l2.76-12.46c0.62-2.13,2.27-3.55,4.12-3.55h17.11c1.85,0,3.5,1.42,4.12,3.55l3.09,14.91
		c0.21,1.18,1.03,1.89,2.06,1.89h20.2c1.44,0,2.47-1.66,2.06-3.31l-10.87-45.08c-0.71-0.17-1.62-0.36-2.8-0.55l-5.42-0.07
		c-0.31,0.06-0.79,0.24-1.06,0.31c-0.3,0.07-0.97-0.11-1.19,0.37c-0.24,0.52-0.86,0.29-1.3,0.4c1.57-5.99,1.21-1.66,1.69-6.69
		c5.29,1.86,5.8,1.09,7.25,5.03c1.37-0.68,1.88-1.22,2.14-1.63l-14.42-59.78C461.29,139.31,459.85,138.13,458.2,138.13L458.2,138.13
		z M439.36,207.77l6.47-32.95c0.41-2.13,2.89-2.13,3.3,0l6.66,31.02c0.53-0.15,1.11-0.33,1.74-0.53c-1.56,2.9-0.05,2.22-1.29,2.61
		l0.11,0.52c0.21,1.66-0.83,3.08-2.27,3.08h-7.19l-6.84,2.56l-1.33-6.59L439.36,207.77L439.36,207.77z M574.66,253.88L574.66,253.88
		c29.89,0,39.37-31.72,39.37-47.1l-0.21-13.49c0-2.84-1.86-4.97-4.33-4.97h-3.37c-0.18,2.13,1.09,1.1-4.93,0.35l0.17-0.35h-8.97
		c-0.07,0.93-0.17,2.11-0.45,3.75c-2.35-1.02-3.03-2.27-3.36-3.75h-4.22l0.02,2.23l-3.31-2.23h-5.79c-2.47,0-4.53,2.13-4.53,4.97
		v13.26c0,2.6,2.06,4.97,4.53,4.97h11.75c3.3,0,1.65,15.15-11.75,15.15c-17.93,0-19.99-23.91-19.99-31.01
		c0-7.57,1.86-32.43,17.32-32.43c6.8,0,12.16,6.63,13.81,11.13c0.82,2.13,2.89,3.31,4.95,2.84l7.83-2.13l8.66-1.66
		c2.68-0.71,4.12-3.79,3.3-6.63c-3.09-9.76-10.92-22.17-23.85-27.78c0.16,0.15,0.42,0.16,0.6,0.28c-1.82,1.64,1.62,0.29-2.13,1.64
		c-1.28,0.46-1.35,0.27-2.54,0.19c-8.01-0.55-13.32-0.36-15.71-3.04c5.82-3.44,2.63,1.93,5.67-1.4c0.21-0.23,0.39-0.44,0.55-0.64
		c-0.38-0.01-0.76-0.02-1.15-0.02c-16.08,0-27.42,8.52-35.87,23.91c-5.36,13.02-6.18,27.93-6.18,35.74c0,6.22,0.68,12.45,2.05,18.4
		c0.62,0.68,1.54,1.56,2.93,2.77c-0.31,0.33-0.82,1.19-1.71,1.87l0.14,0.48c2.19-0.07,0.79,1.9,4.1,4.41
		c7.73-1.18,1.81-4.48,11.3,0.02c2.54,1.2,4.98,2.97,6.77,3.68c-4.22,0.43-6.4,1.76-8.73,2.14c-3.63,0.59-3.85-1.1-8.13-2.19
		c4.39-2.36,4.68,0.31,3.49-2.05c0,0-3.88-0.43-6.95-0.73C542.45,240.98,555.31,253.41,574.66,253.88L574.66,253.88z M651.14,247.01
		V143.1c0-2.6-1.85-4.97-4.33-4.97h-16.08c-2.47,0-4.33,2.37-4.33,4.97v35.83c4.26-0.75,6.44-1.17,9.38,0.98l1.03,2.74
		c-0.35,0.23-0.83,0.43-1.12,0.57l-4.21,2.99c-0.04,0.32-0.11,0.5-0.24,0.72c-4.79-0.53-0.71-0.98-4.85,0.51v59.58
		c0,2.84,1.86,4.97,4.33,4.97h10.45c-1.52-0.88-2.26-1.6-2.88-4.99l9.37,1.67c-0.53,2.68-0.03,1.72-2.8,2.73
		c0.04,0.22,0.28,0.43,0.43,0.58h1.51C649.29,251.98,651.14,249.85,651.14,247.01L651.14,247.01z M732.15,198.25
		c5.98-6.63,9.28-15.62,9.28-24.97c0-16.92-11.13-35.15-32.16-35.15l-18.14,0.24h-11.36c-0.4,0.79-0.7,2.19-0.96,4.89l16.76-0.46
		c1.53,1.45,1.12,0.99,2.22,3.74c-5.49,1.79-1.86,0.76-7.17,1.48c2.69,7.73,0.63,2.18-0.83,3.98l0-6.46l-11.35-0.2
		c-0.58-0.89-1.5-4.24-2.21-6.98h-1.58c-3.8,0-6.83,3.35-7,7.66l0.28,0.02c4.18,0.25-0.58-0.13,3.72-0.09
		c1.36,3.54-1.25,2.68,6.15,8.13c3.08-0.64,0.99-0.63,1.84,1.87l-4.83-0.03c-6.22-7.94-0.07,0.78-7.17-1.61v26.27
		c1.01,0.36,1.3,1,3.06,2.1l-3.06,3.94v60.39c0,2.6,1.85,4.97,4.33,4.97h16.08c2.47,0,4.33-2.37,4.33-4.97v-32.66
		c0-2.84,2.06-5.21,4.54-5.21c0.41,0,1.03,0,1.65,0c1.65,0,3.09,1.18,3.92,2.84l17.11,37.4c0.62,1.66,2.27,2.6,3.92,2.6h14.84
		c3.3,0,5.36-4.02,3.92-7.34l-16.28-35.51c-1.03-2.13-0.41-4.97,1.44-6.39C729.47,201.33,730.91,199.67,732.15,198.25L732.15,198.25
		z M692.37,170.48c0-2.8,2.06-4.89,4.54-5.13h12.37c7.83,0,8.45,6.08,8.45,7.93c0,1.18-0.21,3.51-2.06,5.6
		c-1.86,2.13-4.95,3.04-8.86,3.04c-3.3,0-6.8,0-9.89,0c-2.47,0-4.54-2.09-4.54-4.89V170.48L692.37,170.48z M781,251.98h42.05
		c2.47,0,4.53-2.37,4.53-5.21v-17.04c0-2.84-2.06-4.97-4.53-4.97h-37.52c-1.02,0-1.98-0.4-2.75-1.05l-0.02,0.04l-2.01-1.68
		c-0.11,0.22-0.54-0.33-0.78-0.53c0.45-0.22,0.81-0.46,1.12-0.72c-0.06-0.32-0.1-0.65-0.1-0.99v-17.95c-0.29,0.1-0.6,0.2-0.95,0.3
		c-0.13-0.45-3.73-0.56,0.95-1.53v-0.55c-4.31-1.25-1.38-1.61-4.58,1.66c-3.89-6.52-1.76-2.3-9.05-3.79
		c3.78-1.14,2.96-0.21,6.32-1.07c3.82-0.97-0.79-0.04,2.73-0.95l2.66-0.16c0.85,0.07,1.47,0.13,1.92,0.17v-16.83l-5.2,0.51
		c-2.41-3.61-4.75-3.38-9.03-5.27c-0.42,1.41-0.4,2.75-1.28,4.29c-2.26,3.95,1.19,0.12-3.32,3.15c-0.65-7.93,0.59-4.36,1.77-10.33
		c6.22,2.1,9.22,1.38,14.81,0.75c-2.3,4-5.54,0.24-1.36,4.5c0.68,0.69,2.83,1.06,3.61-0.14v-2.56c-0.16-0.46-0.38-0.98-0.7-1.57
		l0.7-0.29v-2.86l-0.86,0.39c-5.1,2.28-5.85,1.58-9.53,0.95c-5.41-0.92-4.24,0.74-10.92-0.13c3.51-3.65,1.53-2.62,6.25-3.26
		c1.34-4.19,1.26-1.79,3.23-5.95c5.9,9.05,2,7.04,11.84,7v-24.98c0-2.84-1.85-5.21-4.33-5.21h-5.92c0.17,0.35-0.04,1.16,0.64,2.35
		c-1.53,1.24,2.91,1.71-8.05,1.4l4.13-3.22c0.78-0.23,1.38-0.41,1.83-0.53h-8.71c-2.47,0-4.33,2.37-4.33,5.21v100.6
		c0,4.5,3.09,8.05,7.01,8.05H781L781,251.98L781,251.98z"/>
	<path class="st0" d="M82.18,528.73c0-4.23,3.85-8.08,8.46-8.08c6.15,0,12.69,0,19.23,0c20.17,0,35.79-6.65,46.62-16.73l-0.27-0.04
		c1.33-3.63,0.62,0.44,1.57-4.18c-6.22-5.05-5.71-2.84-12.42-5.47c1.95-3.36,1.47-0.14,3.13-2.44c1.35-1.86-0.28-0.44,0.81-4.23
		l10.11-0.03c-0.07,2.28,0.69,1.27-1.52,2.49c-2.75,1.51-2.1-0.05-2.4-0.32c-0.08,2.37-0.44,1.17,1.51,3.38l2.89-3.48
		c1.71,0.5,4.14,1,6.61,1.9c5.27-8.86,7.96-18.91,7.96-28.92c0-9.66-2.6-19.6-7.7-28.43c-4.66-0.15-10.45-0.53-14.53,0.04
		c-2.09,4.1-1.41,5.52-10.84,6.29l-3.61-5.24c7.17-4.86,7.97-3.28,16.8-2.53c3.23,0.28,7.38-0.15,11.18-0.24
		c-9.54-15.29-26.82-26.81-51.29-26.81h-32.3l0,0H49.11c-7.31,0-13.07,5.77-13.07,13.08v163.82c0,4.61,3.46,8.08,8.08,8.08h30
		c4.61,0,8.08-3.46,8.08-8.08v-17.59c-0.76-0.27-1.97-0.87-5.15-2.36l0.5-4.44c1.96-0.03,3.45,0.25,4.66,0.77V528.73L82.18,528.73z
		 M163.12,496.57c0.35-0.46,0.69-0.93,1.02-1.4l-4.05-0.24L163.12,496.57L163.12,496.57z M39.35,585.6
		c2.2-4.45-1.55-3.15,12.23-2.67c-1.03-3.5-0.12-3.47-0.28-4.89c-0.33-2.97-1.02-2-2.4-4.82c2.33,0.84,4.15,1.49,7.47,1.72
		l-2.79,5.48c13.16,1.47,4,2.32,12.74,3.77c3.01,0.5,1.63-0.37,4.6,0.99c-6.59,1.22-12.15-0.75-16.72,0.35
		c-2.92,0.7-0.75,0.93-6.07-0.77c-2.74,2.76-0.1,2.35-3.83,3.03C39.02,588.75,40.1,586.15,39.35,585.6L39.35,585.6z M82.01,503.14
		c2.28,2.39,2.29,2.26,2.93,4.96c1.62,6.86,0.77,6.33-2.14,9.48c-0.97-3.08-3.05-5.8-2.48-8.85l0.5-1.22
		C81.35,505.35,81.13,504.82,82.01,503.14L82.01,503.14z M62.79,440.72c3.47,1.94,3.15,1.64,5.96,6.83
		c1.16,2.36,0.67,0.59,1.54,4.11l-4.62-4.62C62.1,443.55,62.61,445.89,62.79,440.72L62.79,440.72z M128.6,495.49
		c3.27-0.12,0.67-1.13,2.89,0.58c1.11,0.86,2.27,3.26,3.03,4.54c-2.64-0.42-2.27,0.53-4.57-1.38
		C127.91,497.55,128.63,495.72,128.6,495.49L128.6,495.49z M47.97,503.33c5.46-3.89,5.73,0.94,6.31,3.02
		C51.24,505.23,50.85,505.14,47.97,503.33L47.97,503.33z M64.69,407.57c-1.16,3.5-0.42,2.04-4.03,3.3
		C61.86,407.63,56.86,408.05,64.69,407.57L64.69,407.57z M42.34,512.91c2.07-2.23,0.2-1.57,4.47-2.02
		C45.81,513.01,44.41,515.06,42.34,512.91L42.34,512.91z M52.05,510.93c4.17,0.66,2.39-0.89,3.19,3.05
		C52.74,513.45,51.9,513.96,52.05,510.93L52.05,510.93z M52.2,571.32c4.05-0.26,1.24-2.03,3.17,2.16
		C49.54,572.24,53.71,572.87,52.2,571.32L52.2,571.32z M114.48,449.9c14.61,0,15.77,9.61,15.77,12.69c0,8.46-7.69,13.84-20.38,13.84
		c-6.54,0-13.08,0-19.23,0c-4.61,0-8.46-3.46-8.46-8.08v-10.38c0-4.62,3.85-8.08,8.46-8.08H114.48L114.48,449.9z"/>
	<path class="st0" d="M244.22,590.65h40.26c-0.14-0.11-0.28-0.24-0.45-0.4l-1.44-1.13c7.29-0.66,3.51-0.64,3.35-10.61
		c-0.01-0.5,0.35-3.22,0.33-4.72c-8.36,2.32,1.32,2.55-8.25,2.33c-1.88-0.04-3.93-0.16-5.88,0.03c-4.66,0.46-0.96,0.58-6.23,1.18
		c-0.84-1.26,0.28-5.02-6.98-8.9c0.3-0.25,0.89,0,1.07-0.47l2.69-1.13c5.13-2.8-5.2-2.4,3.42-3.01c7.57-0.54,1.14-0.63,3.87,1.18
		c-0.23,0.21-0.59,0.86-0.7,0.64c-0.11-0.21-0.55,0.49-0.7,0.62c-3.39,3.12-3.15,1.87-4.05,4.58c11.71,2.07,12.62,0.27,17.8,1.02
		c0.1,0.01,0.9,0.47,3.47,0.74c-0.7-18.68,2.26-8.92,1.94-20.93c-0.04-1.44,0.33-3.61,0.38-5.26h-8.63l-0.33,0.71
		c-0.79-0.29-1.54-0.52-2.26-0.71h-11.34l-0.71,0.1l0.07-0.1h-1.57l0.1,0.13l-0.63-0.13h-3.17c-0.95,0.53-0.85,1.8-3.4,2.64
		l-2.27-2.64h-0.42l-2.15,6.16c0,0-2.26-0.06-4-3.22c-0.82-1.48-0.34-2.07-0.32-2.27c0.01-0.01,1.18-1.08,1.82-1.57
		c-2.75-1.37-4.66-4.13-4.66-7.11V414.13c0-4.62-3.46-8.46-8.08-8.46h-30c-4.62,0-8.08,3.85-8.08,8.46v163.44
		c0,7.31,5.77,13.08,13.07,13.08H244.22L244.22,590.65L244.22,590.65z M289.68,590.65h10.1c-3.25-1.94,1.29-2.32-4.37-0.73
		l-1.15-5.12l4.25-1.05c0.8,2.25,1.22,4.76,1.81,6.9h10.77c-0.51-7.72,1.84-3.79,1.2-8.1c-0.46-3.07-2.72-2.85,1.5-3.77l0.57,11.87
		h0.47c0.89-0.32,2.91-0.89,4.55-0.21l-0.06,0.21h3.35c4.61,0,8.46-3.85,8.46-8.46v-4.13l-0.72-0.01l0.72-1.8V554.5
		c0-4.62-3.85-8.08-8.46-8.08h-31.58c0.77,1.97,1.5,3.76,1.81,5.08c0.88,3.71-0.48,5.06-2.84,7.48c0.15,0.25,0.44,0.9,0.51,0.71
		c5.99,8.82,3.48,5.04,8.22,7.81c-2.62,3.2-2.31,3.43-6.2,5.63c2.21,10.15,0.78,5.02,2.45,6.62c1.84,1.76,1.28-1.31,2.65,2.68
		c-8.38,3.18,0.57-0.84-6.57-0.39c-4.92,0.31-2.46,0.52-2.3,3.31l0.22,3.2C289.13,589.37,289.4,590.05,289.68,590.65L289.68,590.65z
		 M255.31,551.05c5.35-0.06,2.51,0.28,2.67,4.93c2.36,1.1,3.06,0.98,5.26,2.08l-5.84,1.87c1.96,5.54,2.12,0.78,1.44,5.14
		c-0.62,3.97,0.56,1.08-3.85,3.86c-0.15-0.29-0.43-0.39-0.49-0.84c-0.32-2.53-2.39-0.2,0.08-6.97
		C256.16,556.8,256.93,555.03,255.31,551.05L255.31,551.05z M226.98,551.33l4.77,0.33c-0.06,0.31-1.83,2.96-5.41,3.4
		C225.46,549.24,226.1,552.64,226.98,551.33L226.98,551.33z M201,484.49c3.99,1.68,3.64,0.32,3.75,3.42c0,0,0.54,2.97-2.79-0.34
		C199.61,485.24,201.2,487.85,201,484.49L201,484.49z M217.51,560.78c0.17,0.29,0.59,1.04,0.58,0.82c0,2.51,0.05,1.19-0.58,2.27
		C216.61,562.45,214.47,562.9,217.51,560.78L217.51,560.78z"/>
	<path class="st0" d="M608.01,413.75v49.32c1.26-0.26,2.99-0.11,6.11,0.67c0.98,6.28-1.94,5.09,2.42,9.04
		c-6.72-0.02-0.66-1.78-6.97-1.11c-1.45,0.15-0.02,0.44-1.56,0.05v21.25c0,2.69-3.85,3.46-5,0.77l-14.59-31.35
		c-0.65-0.03-1.77-0.35-0.58-1.25l0.47,1.01c-0.36-0.07-0.95-0.16-1.86-0.24c-2.75-0.26-0.29,0.5-2-0.91
		c1.2-0.87,2.03-1.34,2.59-1.55l-8.74-18.78l-0.18,0.02l-1.83,4.82c-2.95-3.3-3.04-3.48-2.44-9.22c1.03-0.06,1.8-0.05,2.42,0
		l-1.37-2.95l-1.74,0.41c0.09-0.69,0.48-0.72,0.53-1.13l0.18-1.5l-9.69-20.82c-1.54-3.08-4.23-4.62-7.31-4.62h-31.15
		c-5.77,0-10,4.23-10,9.61v2.02c1.75,0.64,2.29,1.3,4.48,3.56c-1.76,0.07-3.24,0.1-4.48,0.07v72.07c1.98,1.74,3.78,3.6,5.03,5.95
		c-4.16-0.33-3.81,0-5.03-1.36v3.45c0.18,1.35,0.21,2.21,0,3.28v78.24c0,4.61,3.84,8.08,8.08,8.08h29.99c4.61,0,8.08-3.46,8.08-8.08
		v-64.52c-1.91-1.9-0.24,1.35-1.04-3.37c0.37-0.08,0.71-0.13,1.04-0.17v-17.7c0-3.08,4.23-3.85,5.38-1.15l8.47,19.9
		c0.52-0.11,1.07-0.24,1.66-0.39c0.45-0.12,0.98-0.29,1.49-0.39c-0.1,4.05-0.98,1.69,1.52,3.25l-2.95,1.57l20.54,48.27l2.74-0.94
		c4.46-1.41,0.97-1.74,3.93-0.77l-1.14,4.07l-4.98-1.08l7.18,16.88c1.54,3.08,4.23,4.61,7.31,4.61h31.53c5.38,0,9.61-4.23,9.61-9.61
		v-13.62c-2.14-0.51-4.39-0.98-4.95-2.5c-1.31-3.54-0.06-1.3,0.51-3.19c3.67,2.16-0.19-0.36,2.93,2.41c0.73,0.65,1.2,0.99,1.51,1.16
		v-19.61c-2.43,0.05-5,0.06-8.09-0.28c1.77-5.13-0.71,0.93,3.3-3.15c2.92-2.97-1.51-1.31,3.69-3.89l1.1,1.53V413.75
		c0-4.62-3.46-8.08-8.08-8.08h-29.99c-0.19,0-0.38,0.01-0.57,0.02c2.94,0.83,0.74-0.43,1.09,3.28c-2.99,1.77-1.47,1.7-4.68,0.24
		c-0.55-1.27,0.47-1.4,0.87-2.67l0.03-0.16C610.06,407.62,608.01,410.38,608.01,413.75L608.01,413.75z M537.28,443.59l-3.87-8
		c3.59-5.54,0.07-4.55,5.17-6.85l-3.65-4.98c2.21-1.19,1.11-0.29,1.95-2.56l1.81,3.25c-0.12,0.04-0.48,0.14-0.71,0.25l2.53,3.71
		c6.38,1.27,11.95-0.5,17.96,2.1c-3.28,0.92-13.94,3.36-15.61,5.91l-2.66,5.22l2.65,1.23c2.39,1.53,1.06-0.47,2.12,2.04
		L537.28,443.59L537.28,443.59z M547.78,494.87c-14.98-1.53-7.27,2.47-14.51,0.01c-4.03-1.37-9.63-0.82-15.43-0.89
		c1.99-1.98-4.62-4.77,13-1.49l2.55-4.74c8.54,2.44,4.71,4.19,4.71,4.24c5.71-0.48,0.12,0.58,4.84-1.83
		c5.37,4.41,5.95-1.86,14.69,4.92c-5.14-0.13-5.89-0.3-8.64,1.82C548.46,495.5,549.82,496.61,547.78,494.87L547.78,494.87z
		 M603.33,504.92l1.55,6.52c-5.52-2.87-2.22-4.31-9.5-1.31c2.36-0.56,4.81,0.75,6.07,1.57c-8.31,0.16-8.31-0.35-15.61,2.01
		C588.58,509.24,597.75,506.2,603.33,504.92L603.33,504.92z M522.8,447.12l7.5-0.43l2.05,5.64l-9.38,0.17L522.8,447.12L522.8,447.12
		z M534.79,417.46c6.7-7.21,6-2.7,11.91,1.19c-4.65,1.04-3.64,0.63-4.52,3.07C531.54,412.43,542.64,422.58,534.79,417.46
		L534.79,417.46z M520.68,422.28c0.29-0.15,0.74-0.08,0.86-0.44h4.23c5.28,1.88,1.85,0.57,6.71,1.04c-0.29,0.33-0.73,1.24-0.94,0.93
		c-0.2-0.29-0.67,0.65-0.95,0.8c-2.2,1.18-1.83,0.66-3.69,1.34l-3.83,1.5C522.05,423.51,522.76,425.79,520.68,422.28L520.68,422.28z
		 M536.89,450.55c6.21,2.96,2.33,1.87,1.77,4.65c-1.04,5.19,3.43,3.11-2.98,5.08C535.06,454.17,534.42,454.74,536.89,450.55
		L536.89,450.55z M532.34,469.59c1.99-1.25,0.57,0.1,3.34-5.04c2.62,1.31,1.28,0.47,2.61,2.56c0.18,0.29,0.62,1.36,0.77,1.62
		c2.86,4.74-1.59-0.89,0.96,1.28c-2.36,0.89-1.8,0.65-3.14,2.51C535.27,471.31,534.21,470.79,532.34,469.59L532.34,469.59z
		 M615.52,494.27c0.68,1.15,0.1,1.51,0.34,2.89l0.77,3.37c-4.29,1.19-1.99,1.07-5.75,1.49
		C612.13,497.37,612.13,496.23,615.52,494.27L615.52,494.27z M557.45,433.26c3.18,1.8,2.79,0.47,3.7,4.74
		c-0.17,0.06-2.35,0.66-2.43,0.69l-4.16,1.93C557.05,436.29,555.8,435.87,557.45,433.26L557.45,433.26z M615.43,439.22
		c0.04-0.05,0.41-2.74,3.59-2.16c2.34,0.43,1.85,0.97,2.76,3.37C618.42,442.39,618.32,442.83,615.43,439.22L615.43,439.22z
		 M525.04,555.36l4.58-3.12l0.44,6.72C525.04,557.68,527.05,559.23,525.04,555.36L525.04,555.36z M565.81,443.92
		c4.45,0.96,4.2,0.5,6.44,3.77l-3.76,2.45L565.81,443.92L565.81,443.92z M557.68,412.58c4.17,0.51,2.24,0.59,6.26,1.93l-4.07,4.6
		C558.5,416.76,559.48,416.88,557.68,412.58L557.68,412.58z M534.7,503.45c-1.05-1.41-1.54,2.02-1.38-2.55
		c0.14-4.01,2.62-3.56,5.1-2.4C536.64,503.51,538.7,497.47,534.7,503.45L534.7,503.45z M645.78,501.25
		c-1.63,4.12-1.41,3.35-5.42,4.55C641.65,501.56,641.44,501.75,645.78,501.25L645.78,501.25z M568.4,436.8l-5.9,1.84
		c0.28-1.79,0.62-4.59,4.2-3.53C570.81,436.33,566.7,434.7,568.4,436.8L568.4,436.8z M553.24,416.69c-2.54,5.64,0.27,3.2-4.44,4.6
		C550.28,414.71,548.26,418.27,553.24,416.69L553.24,416.69z M519.97,418.54c1.46-1.32-0.31-0.63,1.99-1.51
		c2.5-0.96,0.66-0.24,2.88-0.58c-0.84,1.8-0.02,1.96-1.89,2.68C521.71,419.62,520.41,419.13,519.97,418.54L519.97,418.54z
		 M571.65,440.43l-5.38,1.01C572.4,435.5,571.07,438.82,571.65,440.43L571.65,440.43z M613.77,560.05c2.41-1.45,0.13-6.03,6.29-4.51
		c0.12,0.03,1.69,1.4,1.95,1.55C618.82,557.84,614.94,560.64,613.77,560.05L613.77,560.05z"/>
	<path class="st0" d="M737.22,590.65h26.01c-1.08-0.19-2.57-0.38-4.74-0.53l8.73-2.4c-0.24-3.83-0.49-0.22-2.81-4.86
		c3.55,0.34,0.9-0.94,4.22,1.02c2.69,1.59,1.13,0.8,2.98,3.97c0.54,0.92,0.73,0.86,0.84,0.97c1.75-1.45,2.83-3.67,2.83-6.25v-34.5
		c-4.37-0.36-6.66,0.89-9.51,0.7c-5.9-0.41-3.72-3.51-12.19-1.67c-3.31,0.72-2.68,1.01-5.88,1.53c-3.46,0.56-5.98-0.68-8.67,0.91
		c-3.72,2.19,0.43,2.82-7.44,3.52c0.16-0.2,0.46-0.25,0.5-0.57c0.03-0.3,0.38-0.48,0.41-0.57l-1.55-3.05
		c-1.84-0.83-1.47-1.04-1.82-0.95v34.67C729.15,587.18,732.61,590.65,737.22,590.65L737.22,590.65z M775.29,545.61v-8.38
		c-5.58,0.63-9.04,1.53-10.01-1.14l-0.16-1.44l-3.33-5.76c-1.42-1.34,0.25-0.41-2.19-1.54c3.94-4.26,5.95-3.27,9.01-10.3
		c1.4,12.45,0.62,4.05,5.23,10.48c-2.69,3.12-2.66,1.99-3.81,6.05c2.01,1.63,3.67,2.23,5.25,2.41v-78.08c0-4.23,3.85-8.01,8.46-8.01
		h35.76c4.62,0,8.08-3.46,8.08-8.08v-28.07c0-4.23-3.46-8.08-8.08-8.08h-50.43c-0.07,1.51-0.07,2.9-0.1,3.95
		c-0.87-1.6-1.27-2.88-1.4-3.95h-49.22l0.73,0.12l-0.85,3.98c-3.79-0.53-3.13,0.31-4.49-3.07c0.7-0.46,1.03-0.8,1.24-1.03h-29.69
		c-4.62,0-8.08,3.85-8.08,8.08v28.07c0,4.61,3.46,8.08,8.08,8.08h35.76c4.23,0,8.08,3.78,8.08,8.01v86.68l0.04,0
		c8.27,0.44,1.83-0.78,7.32-3.57c-0.12,2.71-1.24-0.28-0.39,3.68l14.09-0.09c10.99-1.02,6.23-0.28,15.44,0.78
		C769.03,545.77,772.23,545.74,775.29,545.61L775.29,545.61z M753.29,446.27c3,0.59,5.83,2.21,8.46,3.77
		c2.03,1.21,2.12,1.55,3.65,2.48l4.97,2.05c2.43-2.44,1.03-1.71,3.1-3.95l0.35,11.19c-1.7-0.94-0.58,0.04-1.68-1.24
		c-3.84-4.47-1.25-3.42-7.96-6.49C758.49,451.48,754.91,448.08,753.29,446.27L753.29,446.27z M760.37,571.89l8.6,0.32
		c-1.89,2.43,1.23,1.34-5.01,2.81c1.65,1.34,3.42-0.02,1.82,3.26c-1.91,3.93,0.03,1.38-3.88,1.43
		C761.94,574.96,762.19,576.44,760.37,571.89L760.37,571.89z M685.92,414.38c1.36-2.43-0.8-1.83,2.85-3
		c3.5-1.11,3.79,1.24,4.27,1.77C690.99,414.59,688.17,416.28,685.92,414.38L685.92,414.38z M777.25,418.65
		c2.07-1.98,1.92-3.12,5.98-1.21C780.68,424.67,778.92,419.39,777.25,418.65L777.25,418.65z M759.59,579.55
		c0.96,4.36,1.78,4.13-2.1,5.59C754.68,581.41,755.21,582.49,759.59,579.55L759.59,579.55z M753.35,510.33
		c2.87,1.2,0.91,0.36,2.99,2.08l4.14,3.48C754.31,515.11,754.29,516.38,753.35,510.33L753.35,510.33z M747.42,571.95
		c2.75-2.64,2.1-1.88,5.26-3.19l-1.01,4.38C744.47,574.51,749.04,573.41,747.42,571.95L747.42,571.95z M734.33,516.83
		c6.64,1.1,5.39-0.62,5.51,4.33C736.98,520.31,736.25,520.15,734.33,516.83L734.33,516.83z M745.69,494.49
		c-1.51,4.64,0.97,3.26-4.02,3.62C743.09,494.87,741.7,495.89,745.69,494.49L745.69,494.49z M763.12,465.66
		c1.95,0.92,4.01-1.32,1.21,3.23C761.56,467.78,761.13,469.22,763.12,465.66L763.12,465.66z M743.8,452.05
		c-1.19,4.89,1.18,1.29-2.8,3.17C742.22,451.58,739.8,453.23,743.8,452.05L743.8,452.05z"/>
	<path class="st0" d="M326.99,447.23l1.26,18.23c0.12,1.73,0.22,3.94,0.56,4.42c4.01,5.76,34.22,8.72,41.11,9.35
		c23.27,2.12,58.4,1.07,82.17-0.87c9.99-0.82,27.97-2.45,36.24-5.2c2.35-0.78,5.1-2.04,6.42-3.55c0.59-0.67,0.58-2.32,0.74-5.8
		l0.97-19.46c0.18-3.7,0.62-5.77-1.6-9.03c-0.97-1.43-2.08-2.72-3.58-3.57c-2.21-1.24-3.3-1.26-5.29-1.63
		c10.35-17.9,24.37-50.86,26.92-71.19c0.87-6.93-4.57,1.96-6.57,4.42c-14.25,17.51-25.72,29.11-41.41,44.69
		c-1.94,1.93-4.48,14.08-5.72,17.56c-0.54,1.51-2.61,0.85-4.54,0.66c-2.77-0.28-0.68-1.23,0.71-5.56
		c1.76-5.51,12.51-51.84,11.46-53.03c-0.73-0.83-16.11,18.33-18.71,21.33c-14.85,17.13-9.09,8.81-10.34,31.67
		c-0.28,5.16,0.62,5.19-5.46,4.11c1.85-26.22-0.41-32.46-7.64-57.03c-0.5-0.03-1.01-0.06-1.54-0.1l-1.51,3.55
		c-3.27-4.22,0.31-1.89-3.33-3.26c-4.66,2.54-1.34,1.88-5.42,0.85c-8.21-2.07-18.76,3.96-25.58-0.42c4.82-0.66,24.98-2.81,28.86-2.7
		c4.4,0.12,4.52,1.17,8.2,0.95c-9.24-32.29-5.41-61.79-3-94.52c1.6-22.41-4.84-7-9.39,2.93c-14.54,31.71-27.28,61.25-30.62,96.44
		c-0.18,3.04-0.23,5.96-0.27,9c-0.05,14.05,1.56,29.85,4.42,44.73l-0.36,0.08c-1.5,0.32-3.21,0.39-4.75,0.45
		c-0.92-4.92-1.7-9.86-2.36-14.8c-1.12-8.47-1.87-17-2.06-25.55c-5.14-9.23-9.17-17.5-12.45-25.52l-0.54-0.05
		c0.03-0.32,0.06-0.7,0.08-1.09c-6.87-17.11-10.39-33.2-14.23-55.15c-3-17.18-4.38-6.18-6.96,4.11c-1.39,5.55-2.65,11.32-3.69,17.21
		c3.8-0.02,6.69,0.08,8.17,0.35l-8.33,0.59c-2.73,15.82-3.83,32.44-1.6,47.75c0.03,0.22,0.09,0.46,0.16,0.71
		c7.28-1.03,8.41-5.46,8.8,2.22l6.6,0.14l-7.47,3.74c-1.75-1.19-0.01-0.43-1.51-1.13c-3.38-1.59-2.53-0.78-4.15-0.56
		c4.33,6.58,13.13,15.73,16.34,19.46c6.75,7.85,13.12,15.22,18.97,23.16c0.15-0.84,0.44-1.65,0.92-2.46
		c1.26-2.12,0.59-1.47,2.63-1.97c0.02,2.73-1.08,3.81-2.12,5.44c3.59,2.45,2.22,1.85,4.67,6.71c-4.04,1.1-2.67,0.08-5.22,2.74
		c-0.18-2.3-0.53-4.22-0.76-5.92c-0.92,0-1.96,0.01-3.1,0.03l-0.04-0.06c-6.1-8.44-13.09-16.42-19.87-24.31
		c-7.37-8.56-13.53-15.84-19.46-23.47c-3.01-0.37-6.4-0.49-10.63,0.94c-3,1.01-3.2,1.91-7.04,0.34
		c4.26,17.56,10.35,34.46,18.9,50.63c0.39-0.24,0.9-0.57,1.56-1.03c3.73,3.48,1.78,0.51,3.22,4.77c-4.5,1.41-3.79,1.45-7.02,0.17
		c-0.8,0.79-1.53,1.63-2.18,2.34C324.93,440.27,326.32,442.31,326.99,447.23L326.99,447.23z M328.77,374.08
		c-4.14-5.49-8.24-11.29-12.64-17.98c-7.34-11.15-8.31-10.86-6.1,2.71c1.11,6.82,2.45,13.54,4.05,20.17
		c0.86-3.34,2.03-5.38,9.89-8.82C329.05,373.87,323.43,371.46,328.77,374.08L328.77,374.08z M371.58,342.4
		c2.74,2.21,2.84-3.28,2.3,3.66c-0.26,3.28-0.62,1.71-2.73,3.37C365.33,347.06,369.7,347.8,371.58,342.4L371.58,342.4z
		 M380.02,582.52c3.37-0.29,0.34-0.37,2.09-1.76C376.92,577.59,376.08,582.87,380.02,582.52L380.02,582.52z M357.35,425.48
		c5.02,0.74,10.13,5.85,12.17,9.46c-3.66,1.18-3.79,0.74-8.62,0.89C359.6,432.26,357.15,429.37,357.35,425.48L357.35,425.48z
		 M407.77,539.57c2.67-1.9,1.58-0.88,4.76-1.92l-5.69-1.39c2.75-1.95-3.52-1.39,5.33-1.61l-1.95-1.79c5.47-1,1.9,0.38,7.01-1.41
		l-1.19,4.42l3.73-0.42c-2.16,2.76-2,2.51-1,4.55C414.53,540.25,409.65,541.55,407.77,539.57L407.77,539.57z M396.63,562.59
		l8.12,0.56c-0.36-0.17-0.89-0.09-1.11-0.67c-1.69-4.38,0.43-0.01-2.94-1.68l-1.49-0.61c3.86-3.78,5.38-3.7,11.25-4.32l-0.3,2.84
		c-1.48,4.55-0.1,2.16-2.68,3.9l-7.32,3.41L396.63,562.59L396.63,562.59z M406.23,495.98c-7.12,1.85-4.91,0.75-6.05,0.09
		c4.83-3.35,11.25-6,14.56,0.27c-2.34,1.1,0.49,0.34-2.62,0.82c-0.13,0.02-3.87,0.33-4.02,0.35c2.34,3.09,2.79,0.89-0.66,2.28
		L406.23,495.98L406.23,495.98z M483.17,490.97c-6.79,2.43-12.42,1.52-19.96,0.98c6.11-3.99,2.49-2.57,9.63-2.04
		C477.8,490.28,479.07,488.37,483.17,490.97L483.17,490.97z M449.01,535.77c3.74-3.79,0.48-4.56,3.19-8.94
		c2.34,2.64,4.46,8.04,3.63,10.33C451.02,540.07,456.58,537.69,449.01,535.77L449.01,535.77z M395.78,470.25
		c0.54-2.6,0.09-1.69,2.85-2.89c-1.27-1.52-0.69,1.87-1.3-1.91c-0.32-1.99,0.07-0.98,0.44-1.65c4.16,3.71,5.51,2.67,7.52,6.87
		c-0.28,0.12-0.7,0.62-0.85,0.34c-0.16-0.29-0.68,0.26-0.91,0.29L395.78,470.25L395.78,470.25z M374.96,436.66
		c5.13,7.3,4.8,6.01,2.23,9.81C373.14,441.58,374.34,440.04,374.96,436.66L374.96,436.66z M424.52,578.34
		c2.26-3.44,3.98-2.42,9.21,0c-1.6,1.02-0.89,1.28-4.49,1.33C423.42,579.76,425.69,579.16,424.52,578.34L424.52,578.34z
		 M376.9,465.92l5.88,0.36l-4.72,7.14L376.9,465.92L376.9,465.92z M375.91,534.85c-0.53-9.16-0.35-1.4,1.29-4.85
		c4.65,0.44,1.12-0.24,4.93,3.47c1.46,6.17,1.62,2.17-3.63,6.47c-1.66,1.36-0.2,1.21-2.51,2.12l-1.59-5.52
		c-0.79-2.36-0.08,1-0.9-2.72L375.91,534.85L375.91,534.85z M380.06,490.47l5.98,1.7l1.68,5.66L383,493.8
		C381.21,492.41,381.41,495.62,380.06,490.47L380.06,490.47z M450.63,491.24c2.02-1.65,5.5-2.09,8.03-1.77l1.61,0.56
		C457.03,493.79,455.07,492.54,450.63,491.24L450.63,491.24z M350.5,353.4c3.67-2.31,2.69-2.04,7-1.16
		c-1.04,2.11,0.34,2.01-2.72,2.99C352.38,356.02,350.62,355.25,350.5,353.4L350.5,353.4z M420.66,494.2c0.38-0.6-0.16-3.4,4.24-2.2
		c2.2,0.6,3.39,2.11,4.12,3.77L420.66,494.2L420.66,494.2z M441.97,531.16c-3.34,4.35,0.17,1.54-5.49,3.62
		C437.79,530.11,436.21,527.37,441.97,531.16L441.97,531.16z M458.82,528.75l5.06,2.62c-1.62,1.07-2.5,1.69-4.68,2.89L458.82,528.75
		L458.82,528.75z M372.51,410.96c5.37-1.91,3.59-0.47,4.99,2.26C370.87,414.85,374.43,412.78,372.51,410.96L372.51,410.96z
		 M394.43,587.01c5.03-0.35,2.45-1.24,4.48,2.22C396.94,590.08,394.69,590.34,394.43,587.01L394.43,587.01z M349.33,420.42
		c1.66-3.28,0.56-3.05,3.66-1.21C351.5,421.91,352.5,421.74,349.33,420.42L349.33,420.42z M376.39,435.59c1.3-0.79-2.24-4.6,2.84,0
		C374.39,439.89,377.56,436.15,376.39,435.59L376.39,435.59z M416.54,553.8c-1.49,3.68,0.23,1.72-3.46,2.76
		C414.8,553.19,411.95,555.3,416.54,553.8L416.54,553.8z M340.91,413.81c0.24-0.17,0.57-0.28,0.69-0.56l2.6,0.56
		C342.24,414.79,347.45,416.91,340.91,413.81L340.91,413.81z M430.23,485.37c-21.62,0.85-62.86,0.84-82.9-2.88
		c-4.56-0.85-7.91-1.81-10.84-2.81l18.46,81.38c0.88,3.81,1.89,8.36,2.9,12.41l7.26,0.05c1.39,1.87,0.31-0.19,1.35,2.33l1.78,8.2
		c-3.75,0.96-4.35,1.32-6.02,0.68c1.6,1.29,4.01,1.96,6.64,2.61c10.1,2.51,24.84,4.31,35.55,4.73c14.89,0.59,40.41-0.79,53.82-6.84
		c1.26-0.57,2.17-1.14,3.16-2.98c-0.31,0.11-0.84,0.28-1.77,0.57l-4-3.26c0.31-0.24,0.41-1.72,3.8-1.82
		c1.14-0.03,2.17,0.34,3.56,0.65c3.9-11.2,10.42-39.19,13.45-51.86c3.07-12.86,7.06-29.85,11.12-47.15
		C472.84,482.72,447.03,484.71,430.23,485.37L430.23,485.37z M358.12,574.56c0.83,3.26,1.66,6.11,2.4,7.83
		c1.54-0.72,2.77-1.01,3.63-2.64c1.5-2.83-0.66-3.38-3.41-4.09L358.12,574.56L358.12,574.56z M491.47,285.59
		c-2.88-7.7-4.13-2.58-4.79,2.88c1.96-0.06,3.97-0.01,5.75,0C492.12,287.52,491.8,286.56,491.47,285.59L491.47,285.59z
		 M486.59,289.26c-0.28,2.52-0.44,4.99-0.59,6.15c-0.4,2.55-0.89,5.12-1.38,7.7l0.11,0.4c0.04,0.13,1.01,2.47,1.14,2.75
		c-0.8-0.07-1.39-0.12-1.82-0.18c-1.77,9.35-3.3,18.83-1.19,28.1c3.62,15.91,4.07,22.45,4.06,38.83c0,6.88,1.64,4.76,5.66-0.15
		c10.02-12.24,8.16-33.7,6.9-48.75c-1.01-12.1-2.99-22.67-6.51-33.93C490.7,290.16,488.51,289.98,486.59,289.26L486.59,289.26z
		 M450.4,272.51c-8.63-13.84-5.82,3.14-4.14,12.54c4.61,1.25,4.57,0.86,7.15,5.2c-3.49-1.12-4.7-1.35-6.41-1l0.08,0.58
		c3.05,25.72,0.38,45.18-6.75,68.76l2.12,1.04c5.13,2.95,11.97,6.75,18.09,6.14c0.57-0.75,1.16-1.51,1.74-2.29
		c17.61-23.32,12.82-7.4,9.39,8.07c-0.76,3.41-5.75,25.11-5.54,27.7c1.45,0.13,13.56-11.87,14.74-16.47
		c4.64-18.12-3.1-49.63-9.5-67.11c-0.94-2.57-1.92-5.09-2.93-7.59c-2.32-0.21-4.69-0.39-6.79-0.62c-5.06-0.54-1.2,2.44-4.31-2.44
		c2.66-2.4-1.53-1.75,8.16-0.34c0.44-0.76,0.64-1.35,0.73-1.81c-2.27-5.2-4.72-10.28-7.34-15.3l-0.23,0.11
		c-0.26,0.11-0.56,0.37-0.82,0.44c-2.18,0.58-2.78-0.95-3-0.54c-0.22,0.39-0.74-0.46-1.1-0.7c1.68-0.94,2.89-1.54,3.72-2.01
		C455.23,280.71,452.88,276.61,450.4,272.51L450.4,272.51z M437.25,368.57c-0.63,2.21-1.16,4.43-1.54,6.65l0.74,0.25
		c5.14,1.7,4.83,0.32,6.93,1.08c-2.34,1.02-5.11,1.7-8.11,2.01c-0.45,4.94,0.04,9.89,2.22,14.83c7.53-8.66,13.5-15.45,20.11-23.83
		C449.48,364.57,445.76,368.49,437.25,368.57L437.25,368.57z M434.03,297.2c-2.45,2.19-4.66,6.71-6.39,11.8l5.83,0.58l-2.91,3.73
		c-0.01,0.28-0.04,0.47-0.13,0.68c-3.86-1.51-3.53-0.62-3.63-2.36c-0.26,0.86-0.5,1.73-0.72,2.6c0.81,0.31,1.69,1,2.8,1.66
		c-0.22,0.2,2.11,2.28-3,1.11l-0.44-0.1c-1.05,4.72-1.59,9.21-1.44,12.21c0.45,7.41,2.43,26.88,5.46,36.8l1.27-0.25
		c0.8-0.16,1.5-0.31,2.11-0.45c5.56-16.67,3.1-16.34,3.48-34.09C436.52,321.82,437.47,305.69,434.03,297.2L434.03,297.2z
		 M430.18,368.06c0.24,0.63,0.49,1.19,0.74,1.68c0.55,1.06,0.79-0.05,1.11-1.54C431.42,368.14,430.81,368.1,430.18,368.06
		L430.18,368.06z M376.06,374.66c0.25-6.98,0.92-13.95,2.13-20.84c1.87-8.73,5.13-17.32,5.46-26.26c-1.99-0.76-3.78-1.3-9.98-0.46
		l0.31,11.78c-4.14-4.01-0.38-2.08-4.67-4.3l3.26-5.62l-3.33-2.65c3.74-3.19,1.09,1.49,3.55-4.36c-3.06-1.77-5.83-4.78-8.96-6.83
		l11.24,0.55c0.46,5.05-0.89,2.34,4,6.82l1.94,1.82c0.96,0.68,1.82,1.16,2.65,1.58l-0.01-0.57c-0.13-14.29,2.47-28.02,2.42-40.9
		c-0.04-10.36-7.03,3.46-8.68,6.17l-1.66,2.55l-0.09,0.67l-0.42,0.12c-7.12,10.93-18.01,28.14-15.27,39.52
		c1.91,7.95,5.22,16.99,8.87,25.58l0.55,0.81c0.18,0.17,0.57,0.42,0.83,0.67l-0.78-0.07C371.62,365.47,373.89,370.32,376.06,374.66
		L376.06,374.66z"/>
</g>
</svg>
