<?xml version="1.0" encoding="utf-8"?>
<!-- Generator: Adobe Illustrator 25.0.0, SVG Export Plug-In . SVG Version: 6.00 Build 0)  -->
<svg version="1.1" id="Layer_1" xmlns="http://www.w3.org/2000/svg" xmlns:xlink="http://www.w3.org/1999/xlink" x="0px" y="0px"
	 viewBox="0 0 864 864" style="enable-background:new 0 0 864 864;" xml:space="preserve">
<style type="text/css">
	.st0{fill:#006633;}
	.st1{fill-rule:evenodd;clip-rule:evenodd;fill:#006633;}
</style>
<g>
	<path class="st0" d="M162.84,391.22c3.26,2.79,7.45,4.66,11.17,6.05c7.45,2.33,14.43,4.65,21.41,6.52
		c3.26,0.93,6.99,0.93,10.25,0.93c2.33,0.47,4.66-1.86,4.66-4.65c0-1.86-0.47-4.19-1.4-6.06c-4.19-8.85-9.78-17.23-16.3-24.68
		c-5.12-5.12-11.17-8.39-17.69-7.92c-5.12,0-7.45,0.47-10.25,2.79C155.85,369.8,153.06,382.37,162.84,391.22L162.84,391.22z
		 M181.33,438.89c2.71-2.42,2.73-5.72,0.31-8.43c-2.81-3.24-6.75-5.24-10.76-6.78c-4.46-1.39-19.24-5.5-24.21-5.01
		c-10.13-1.51-19.43,0.87-27.69,5.77c-2.57,1.5-5.22,3.46-7.01,6.02c-5.7,6.68-4.57,14.86,2.12,20.55c4.2,3.45,9.12,5.13,14.79,5.02
		c17.84,0.3,34.27-5.73,49.74-14.73C179.68,440.52,180.73,439.74,181.33,438.89L181.33,438.89z M195.38,459.23
		c-2.79,1.4-6.06,2.79-8.85,4.65c-6.52,4.19-11.18,10.24-15.37,17.23c-2.33,4.19-3.72,8.85-3.72,13.97c0,4.66,0.93,9.31,4.19,13.04
		c5.59,6.98,14.43,6.98,19.09-0.94c2.33-3.26,3.72-6.99,4.66-10.71c1.86-8.85,3.72-17.69,5.59-26.54c0.46-1.86,0.46-4.19,0.46-6.05
		C201.43,460.63,198.18,458.3,195.38,459.23L195.38,459.23z"/>
	<path class="st0" d="M85.62,292.19l-6.43,5.52c-2.1,1.99-4.33,3.54-6.71,4.66c-2.23,1.2-4.81,0.96-7.54-0.44
		c-15.08-7.73,2.75-25.04,5.64-27.88l4.12-3.83c1.95-1.7,1.91-4.78-0.01-6.66l-10.69-9.98c-1.75-1.79-4.54-1.61-6.35,0.17
		c-2.68,2.77-6.51,6.74-8.54,9.3c-3.19,4.12-6.17,8.54-8.65,13.38c-2.85,5.56-16.19,37.23,13.43,52.4
		c34.81,17.83,47.34-27.75,63.88-19.28c3.7,1.9,5.54,4.64,5.58,8.08c0.18,3.51-1.08,7.72-3.56,12.57
		c-2.34,4.56-9.72,12.3-14.13,16.69c-1.88,1.92-1.7,5.07,0.29,6.81l12.65,10.79c1.85,1.66,4.43,1.54,6.16-0.08
		c2.89-2.84,7.02-7.02,9.05-9.58c3.33-4.05,6.46-9.1,9.53-15.09c3.36-6.56,16.81-42.67-12.69-57.78
		C107.11,269.91,89.23,289,85.62,292.19L85.62,292.19z M102.9,182.21c-26.74,30.87,2.14,63.08,15.21,74.41
		c22.76,19.71,55.37,28.05,75.82,4.44c26-30.02-0.81-61.93-15.21-74.41C165.64,175.33,129.01,152.07,102.9,182.21L102.9,182.21z
		 M135.94,236.04c-4.6-3.98-24.94-21.6-12.46-36c10.59-12.22,28.59-0.23,37.31,7.32c8.96,7.76,23.15,23.66,12.56,35.88
		C163.7,254.37,144.89,243.8,135.94,236.04L135.94,236.04z M253.67,68.65l-24.71,14.21c-1.11,0.64-1.68,1.89-1.46,3.24l9.08,53.71
		c0.2,0.99-0.91,1.63-1.67,0.96l-41.84-34.87c-1.05-0.87-2.43-1.01-3.68-0.29l-24.71,14.21c-1.67,0.96-2.12,3.06-1.16,4.73
		l56.67,98.57c0.96,1.67,2.93,2.2,4.59,1.24l19.02-10.93c1.67-0.96,2.2-2.93,1.24-4.59l-28.57-49.7l33.56,26.89
		c1.06,0.87,2.43,1.01,3.54,0.37l12.77-7.34c1.11-0.64,1.82-1.97,1.46-3.24l-6.37-42.89l28.73,49.98c0.96,1.67,3.06,2.12,4.73,1.16
		l18.88-10.86c1.67-0.96,2.33-3,1.38-4.67l-56.67-98.57C257.52,68.28,255.33,67.69,253.67,68.65L253.67,68.65z M378.57,109.26
		c3-0.54,5.1-3.35,4.53-6.5l-2.59-14.5c-0.56-3.15-3.54-5.23-6.53-4.69l-20.81,3.72c-3,0.54-5.94-1.38-6.5-4.53l-1.24-6.94
		c-0.56-3.15,1.51-6.13,4.5-6.66l30.27-5.4c3.15-0.56,5.25-3.38,4.69-6.53l-2.62-14.66c-0.54-3-3.51-5.07-6.66-4.51l-59.44,10.61
		c-3,0.54-5.07,3.51-4.53,6.5l19.19,107.52c0.54,3,3.51,5.07,6.5,4.53l59.43-10.61c3.15-0.56,5.23-3.54,4.69-6.53l-2.59-14.5
		c-0.53-3-3.51-5.07-6.66-4.51l-30.27,5.4c-3,0.54-5.97-1.54-6.5-4.53l-2.19-12.3c-0.56-3.15,1.51-6.13,4.5-6.66L378.57,109.26
		L378.57,109.26z M504.15,42.96l-78.16-9.93c-1.91-0.24-3.54,1.16-3.78,3.07l-2.32,18.27c-0.24,1.91,0.98,3.68,2.89,3.92l24.78,3.15
		L436,152.47c-0.24,1.91,1.17,3.54,3.07,3.78l21.61,2.75c1.91,0.24,3.68-0.98,3.92-2.89l11.57-91.03l24.78,3.15
		c1.91,0.24,3.7-1.14,3.94-3.05l2.32-18.27C507.45,44.99,506.06,43.2,504.15,42.96L504.15,42.96z M528.02,174.96
		c1.52,0.51,3.29-0.24,3.81-1.75l36.8-108.76c0.51-1.52-0.44-3.19-1.96-3.7l-21.69-7.34c-1.52-0.51-3.14,0.29-3.65,1.81
		l-36.8,108.76c-0.51,1.52,0.29,3.14,1.81,3.66L528.02,174.96L528.02,174.96z M701.75,137.1l-23.23-16.52
		c-1.04-0.74-2.42-0.74-3.56,0.03l-45.01,30.68c-0.82,0.6-1.86-0.14-1.56-1.11l14.2-52.58c0.35-1.32-0.1-2.62-1.27-3.46
		l-23.23-16.52c-1.57-1.11-3.67-0.64-4.78,0.92l-65.89,92.66c-1.11,1.57-0.78,3.58,0.79,4.69l17.88,12.71
		c1.57,1.11,3.58,0.77,4.69-0.79L604,141.09l-10.41,41.72c-0.35,1.32,0.1,2.63,1.14,3.37l12.01,8.54c1.04,0.74,2.55,0.83,3.56-0.03
		l36.31-23.7l-33.41,46.98c-1.11,1.57-0.64,3.67,0.92,4.78l17.75,12.62c1.57,1.11,3.71,0.87,4.82-0.7l65.89-92.66
		C703.69,140.45,703.32,138.22,701.75,137.1L701.75,137.1z M716.82,259.96c1.88,2.39,5.35,2.92,7.87,0.94l11.58-9.1
		c2.52-1.98,2.95-5.58,1.07-7.97l-13.06-16.62c-1.88-2.39-1.58-5.89,0.94-7.87l5.54-4.35c2.52-1.98,6.12-1.55,8,0.84l19,24.18
		c1.98,2.52,5.45,3.05,7.97,1.07l11.71-9.2c2.39-1.88,2.82-5.48,0.84-7.99l-37.3-47.47c-1.88-2.39-5.48-2.83-7.87-0.94l-85.88,67.48
		c-2.39,1.88-2.82,5.48-0.94,7.87l37.3,47.47c1.98,2.52,5.58,2.95,7.97,1.07l11.58-9.1c2.39-1.88,2.82-5.48,0.84-7.99l-19-24.18
		c-1.88-2.39-1.45-5.99,0.94-7.87l9.82-7.72c2.52-1.98,6.12-1.55,8,0.84L716.82,259.96L716.82,259.96z M779.66,332.55l0.1-8.48
		c-0.1-2.89,0.21-5.59,0.93-8.11c0.58-2.46,2.46-4.24,5.32-5.37c15.77-6.22,16.98,18.61,17.19,22.66l0.15,5.62
		c-0.01,2.59,2.33,4.59,5,4.4l14.55-1.43c2.5-0.13,4.21-2.35,4.07-4.88c-0.31-3.84-0.76-9.34-1.34-12.55
		c-0.98-5.12-2.33-10.27-4.32-15.34c-2.29-5.81-17.24-36.75-48.21-24.55c-36.38,14.34-10.45,53.87-27.75,60.69
		c-3.87,1.53-7.14,1.09-9.75-1.15c-2.76-2.18-5.09-5.91-7.08-10.98c-1.88-4.77-2.81-15.42-3.19-21.63c-0.2-2.68-2.68-4.62-5.3-4.28
		l-16.46,2.36c-2.47,0.29-4.08,2.3-4.01,4.68c0.22,4.05,0.63,9.91,1.21,13.12c0.84,5.18,2.56,10.87,5.03,17.12
		c2.7,6.85,20.91,40.82,51.75,28.66C782.19,363.4,779.67,337.36,779.66,332.55L779.66,332.55z"/>
	<path class="st1" d="M581.11,672.94c29.15,0,64.05-3.28,88.86-13.07c10-3.95,17.19-8.51,22.28-12.46c5.09-3.95,8.07-7.28,9.03-14.3
		c0.97-7.02-0.09-17.72-3.33-55.44c-3.25-37.72-8.68-102.45-14.12-167.19c2.28-3.68,4.56-7.37,4.03-12.37
		c-0.53-5-3.86-11.32-10.44-16.23c-8.58-6.41-23.09-10.32-38.01-13.74c-0.32-26.47-1.54-68.21-6.9-92.57
		c-2.89-13.16-7.1-21.75-13.25-27.63c-6.14-5.88-14.21-9.03-22.45-9.03c-8.25,0-16.67,3.16-23.33,6.75
		c-6.67,3.6-11.58,7.63-17.46,21.84c-9.27,22.41-20.24,66.79-21.72,93.51c-6.86,1.5-13.68,3.24-20.03,4.91
		c-13.42,3.51-24.82,6.67-33.16,10.96c-10.5,5.41-20.48,15.28-17.81,24.65c0.7,2.46,1.93,3.86,3.16,5.26l-2.91,37.24
		c-9.17,0.75-22.53,2.41-35.46,4.15c-28.4,3.83-56.79,8.29-85.66,12.68c-13.65-10.34-27.8-21.05-41.96-31.76l-0.49,0.93
		c-0.43-3.11-1.4-6.73-2.5-11.27c-1.71-7.06-3.73-16.36-5.35-22.1c-1.97-6.98-4.03-10.97-8.73-13.2c-3.83-1.81-9.54-1.57-13.77-0.13
		c-2.46,0.83-4.39,2.15-9.21,6.14c-14.34,11.86-23.22,21.67-29.25,40c-2.82,8.58-5.01,20.63-1.58,27.5c1.45,2.89,3.9,4.65,5.79,5.92
		c7.5,5.06,10,4.11,19.34,1.18c4.47-1.4,10.88-3.42,15.83-5c3.17-1.01,5.76-1.84,8.2-2.86c36.14,36.8,72.27,73.57,101.21,101.4
		c29.01,27.89,50.81,46.8,61.62,56.42c4.06,3.62,6.58,5.93,8.12,7.42c-0.96,13.95-0.73,16.56,0.53,18.84
		c1.84,3.33,5.88,5.96,12.19,9.65c6.32,3.68,14.91,8.42,26.49,12.02C512.67,669.36,554.03,672.94,581.11,672.94L581.11,672.94z
		 M576.85,377.3c5.48,4.43,11.89,8.82,19.3,13.38c2.65,1.63,5.44,3.29,8.21,4.87c0.19-3.23,0.33-5.45,0.52-9.96
		c0.2-4.51,0.39-10.22,0.48-16.14c-3.93-1.78-16.75-2.69-22.4-3.44c-5.92-0.79-12.65-1.9-16.29-1.9c-3.64,0-3.08,0.64-0.76,3.23
		C568.24,369.92,571.37,372.87,576.85,377.3L576.85,377.3z M639.18,406.78c4.75-0.2,10.08-0.86,15.09-2.11
		c6.84-1.71,13.07-4.52,16.45-6.84c3.38-2.32,3.9-4.17,3.07-6.62s-2.5-4.84-6.49-7.17c-3.99-2.32-15.35-5.73-22.15-7.26
		c-6.8-1.54-3.66-0.82-5.65-1.26C639.57,386.18,639.55,397.12,639.18,406.78L639.18,406.78z M461.45,470.91
		c-2.19,28.02-4.26,54.45-6.04,77.14c-3.8-3.33-10.6-8.87-22.99-18.51c-14.5-11.28-36.66-28.19-62.32-47.67
		c14.47-2.25,25.22-4.08,41.85-6.43C428.9,473.04,445.54,470.72,461.45,470.91L461.45,470.91z M605.44,361.35
		c-10.56-1.86-21.86-3.69-31.53-4.25c1.36-13.74,1.9-23.25,3.87-39.93c1.49-12.63,3.77-28.6,6.05-37.54
		c2.28-8.95,4.56-10.88,6.58-11.75c2.02-0.88,3.77-0.7,5.26,0.09c1.49,0.79,2.72,2.19,4.3,10.96
		C603.87,300.61,605.54,334.4,605.44,361.35L605.44,361.35z"/>
	<path class="st0" d="M247.06,348.05c1.17,0,2.22-0.94,2.22-2.11v-83.85c0-1.17-1.05-2.1-2.22-2.1h-16.72c-1.17,0-2.1,0.94-2.1,2.1
		v83.85c0,1.17,0.94,2.11,2.1,2.11H247.06L247.06,348.05z M394.59,232.27h-15.91c-1.4,0-2.69,1.17-2.81,2.57l-4.21,45.14
		l-12.75-32.63c-0.23-0.82-1.17-1.52-2.1-1.52h-10.76c-0.94,0-1.75,0.7-2.1,1.52l-12.86,32.63l-4.21-45.14
		c-0.12-1.4-1.4-2.57-2.81-2.57h-15.91c-1.4,0-2.46,1.17-2.34,2.57l7.84,83.03c0.12,0.94,0.82,1.87,1.75,2.22l-0.12,0.23h19.41
		c0.94,0,1.87-0.58,2.22-1.52l13.68-37.31c0.23-0.58,1.17-0.58,1.52,0l13.68,37.31c0.35,0.94,1.17,1.52,2.22,1.52h19.41l-0.12-0.12
		c0.94-0.47,1.64-1.29,1.75-2.34l7.83-83.03C397.04,233.44,395.99,232.27,394.59,232.27L394.59,232.27z M446.63,283.85
		c2.22,0,4.09-1.75,4.09-4.09V269c0-2.34-1.87-4.21-4.09-4.21h-15.44c-2.22,0-4.09-1.75-4.09-4.09v-5.15c0-2.34,1.87-4.21,4.09-4.21
		h22.45c2.34,0,4.21-1.75,4.21-4.09v-10.88c0-2.22-1.87-4.09-4.21-4.09h-44.09c-2.22,0-4.09,1.87-4.09,4.09v79.76
		c0,2.22,1.87,4.09,4.09,4.09h44.09c2.34,0,4.21-1.87,4.21-4.09v-10.76c0-2.22-1.87-4.09-4.21-4.09h-22.45
		c-2.22,0-4.09-1.87-4.09-4.09v-9.12c0-2.34,1.87-4.21,4.09-4.21H446.63L446.63,283.85z M526.39,232.27h-57.54
		c-1.4,0-2.46,1.17-2.46,2.57v13.45c0,1.4,1.05,2.57,2.46,2.57h18.24v67.01c0,1.4,1.17,2.46,2.57,2.46h15.9
		c1.4,0,2.57-1.05,2.57-2.46v-67.01h18.25c1.4,0,2.57-1.17,2.57-2.57v-13.45C528.96,233.44,527.79,232.27,526.39,232.27
		L526.39,232.27z"/>
	<path class="st0" d="M239.59,548.35h-27.34c-1.23,0-2.3,0.77-2.76,2l-18.13,49c-0.31,0.92-1.54,0.92-1.84,0l-18.12-49
		c-0.46-1.23-1.54-2-2.92-2h-27.34c-1.84,0-3.23,1.54-3.23,3.38v109.06c0,1.84,1.38,3.22,3.23,3.22h21.04
		c1.84,0,3.23-1.38,3.23-3.22V605.8l15.05,38.4c0.46,1.23,1.54,2,2.77,2h14.13c1.23,0,2.46-0.77,2.76-2l15.21-38.71v55.3
		c0,1.84,1.54,3.22,3.38,3.22h20.89c1.84,0,3.38-1.38,3.38-3.22V551.73C242.97,549.89,241.43,548.35,239.59,548.35L239.59,548.35z
		 M339.28,548.2h-20.43c-1.08,0-2.15,0.61-2.46,1.69l-15.67,37.63c-1.07,2.15-4.3,2.15-5.22,0l-15.67-37.63
		c-0.46-1.08-1.38-1.69-2.46-1.69h-20.58c-2,0-3.23,2-2.46,3.84l29.8,68.66c0,0.15,0.15,0.15,0.15,0.31v39.78
		c0,1.84,1.54,3.22,3.38,3.22h20.89c1.84,0,3.38-1.38,3.38-3.22V621c0-0.15,0-0.15,0.15-0.31l29.8-68.66
		C342.66,550.19,341.27,548.2,339.28,548.2L339.28,548.2z"/>
	<path class="st0" d="M107.26,698.83v125.71c0,4.12,3.37,7.68,7.68,7.68h17.99c4.31,0,7.68-3.56,7.68-7.68v-29.98
		c0-3.93,3.18-7.49,7.31-7.68c47.21-2.44,52.27-29.6,52.27-43.84c0-21.17-3.18-51.9-59.58-51.9h-25.67
		C110.63,691.15,107.26,694.71,107.26,698.83L107.26,698.83z M140.6,751.29v-22.67c0-4.68,4.31-8.43,8.99-7.49
		c16.67,2.81,17.99,13.86,17.99,19.48c0,8.43-2.62,16.3-18.17,18.36C144.73,759.53,140.6,755.97,140.6,751.29L140.6,751.29z
		 M290.86,802.25h-43.65V695.27c0-2.25-1.69-4.12-3.93-4.12h-25.67c-2.25,0-3.93,1.87-3.93,4.12v133.02c0,2.25,1.69,3.93,3.93,3.93
		c24.43,0,48.82-0.19,73.25-0.19c2.25,0,4.12-1.87,4.12-4.12v-21.55C294.98,804.12,293.11,802.25,290.86,802.25L290.86,802.25z
		 M377.29,691.15h-24.17c-3.19,0-5.81,2.06-6.75,5.06l-37.47,127.02c-1.12,4.5,2.06,8.81,6.74,8.81l17.24,0.38
		c3.18,0,5.99-2.25,6.93-5.25l4.12-17.05c0.75-3,3.56-5.25,6.74-5.25l26.42-0.19c3.18-0.19,5.99,2.06,6.74,5.06l4.31,17.24
		c0.75,3,3.56,5.25,6.74,5.25l19.3-0.19c4.5,0,7.87-4.5,6.56-8.81L383.85,696.2C383.1,693.21,380.29,691.15,377.29,691.15
		L377.29,691.15z M354.06,770.21l3.37-16.3c1.69-7.12,11.8-7.12,13.49,0l3.19,16.49c1.12,4.31-2.25,8.62-6.75,8.62l-6.56-0.19
		C356.31,778.83,352.94,774.71,354.06,770.21L354.06,770.21z M533.85,691.15h-25.48c-2.25,0-4.12,1.87-4.12,4.12v59.95l-27.17-58.64
		c-1.5-3.37-4.87-5.43-8.43-5.43h-30.16c-2.25,0-3.93,1.87-3.93,4.12v133.02c0,2.25,1.69,3.93,3.93,3.93h25.67
		c2.25,0,3.93-1.69,3.93-3.93v-78.5l35.78,76.81c0.47,0.93,0.37,0.59,0.37,1.69c0,2.25,1.87,3.93,4.12,3.93h25.48
		c2.25,0,4.12-1.69,4.12-3.93V695.27C537.98,693.02,536.1,691.15,533.85,691.15L533.85,691.15z M647.77,691.15h-92.18
		c-2.25,0-3.94,1.87-3.94,4.12v21.54c0,2.25,1.69,4.12,3.94,4.12h29.23v107.35c0,2.25,1.87,3.93,4.12,3.93h25.48
		c2.25,0,4.12-1.69,4.12-3.93V720.94h29.23c2.25,0,4.12-1.87,4.12-4.12v-21.54C651.89,693.02,650.01,691.15,647.77,691.15
		L647.77,691.15z M720.08,746.57l-9.18-3.75c-3.19-1.12-5.99-2.62-8.43-4.5c-2.44-1.69-3.56-4.5-3.56-8.09
		c0-19.83,27.54-10.49,32.04-8.99l6.18,2.25c2.81,1.12,5.99-0.56,6.93-3.56l4.68-16.46c0.94-2.78-0.75-5.59-3.56-6.53
		c-4.31-1.31-10.49-3.19-14.24-3.93c-5.99-1.12-12.18-1.87-18.55-1.87c-7.31,0-47.4,3-47.4,41.94c0,45.73,54.14,34.5,54.14,56.24
		c0,4.87-1.87,8.24-5.43,10.12c-3.56,2.06-8.62,3-14.99,3c-5.99,0-17.99-3.56-24.92-5.81c-3-0.94-6.18,0.94-6.93,3.93l-4.5,18.92
		c-0.75,2.81,0.75,5.43,3.37,6.37c4.5,1.5,11.05,3.56,14.8,4.31c6,1.31,12.93,1.87,20.8,1.87c8.62,0,53.4-5.25,53.4-44.03
		C754.74,757.06,725.33,748.63,720.08,746.57L720.08,746.57z"/>
</g>
</svg>
