<?xml version="1.0" encoding="utf-8"?>
<!-- Generator: Adobe Illustrator 25.0.0, SVG Export Plug-In . SVG Version: 6.00 Build 0)  -->
<svg version="1.1" id="Layer_1" xmlns="http://www.w3.org/2000/svg" xmlns:xlink="http://www.w3.org/1999/xlink" x="0px" y="0px"
	 viewBox="0 0 864 864" style="enable-background:new 0 0 864 864;" xml:space="preserve">
<style type="text/css">
	.st0{fill-rule:evenodd;clip-rule:evenodd;}
</style>
<g>
	<path d="M239.31,415.95c-2.08-2.55-2.79-4.87-0.82-7.78c1.17-1.73,3.09-3.58,4.53-5.12c2.94-3.15,5.87-6.26,9-9.22
		c6.41-6.05,13.43-11.34,20.68-16.33c2.94-2.03,5.92-4.02,8.94-5.93c1.56-0.99,3.19-2.02,4.83-2.88c0.95-0.5,1.81-1,2.61,0.03
		c0.2,0.25,0.44,0.69,0.48,1.02c0.01,0.11-0.01,0.2-0.05,0.3c1.71-0.76,3.8-1.87,5.3-3c1.22-0.93,1.73-1.52,1.77-3.09
		c0.01-3.92-1.21-4.04-1.33-5.93c0.01-1.44,1.73-3.06,2.77-3.9c4.22-3.45,11.14-6.78,16.14-9.11c2.28-1.07,4.55-2.03,6.89-2.95
		c2.9-1.15,5.82-2.25,8.76-3.29c2.24-0.79,4.49-1.52,6.76-2.22c4.18-1.29,9.06-2.63,13.44-2.61c4.04,0.02,7.82,0.61,11.69,1.75
		c2.41,0.71,7.86,2.4,9.77,3.79c0.34,0.25,0.6,0.5,0.59,0.94c-0.01,0.67-0.44,1.39-0.78,1.95c-2.8,4.55-8.27,10.63-12.33,14.14
		c-4.63,4.01-10.62,6.7-16.08,9.39c-8.99,4.45-18.88,10.08-27.97,13.85c-1.62,0.63-4.41,1.5-6.11,0.97
		c-1.45-0.45-2.19-1.85-3.19-2.87c-0.81-0.83-2.13-1.85-3.32-1.92c-2.37-0.14-5.01,2.41-6.67,3.89c0.16-0.03,0.27-0.03,0.41,0.06
		c0.31,0.21,0.7,0.97,0.88,1.32c0.18,0.34,0.44,0.69,0.17,1.06c-0.32,0.46-1.8,1.35-2.29,1.68c-2.31,1.55-4.62,3.12-6.91,4.69
		c-8.38,5.74-16.36,11.75-24.48,17.83c-4.79,3.58-10.48,7.93-15.57,10.95c-1.06,0.63-1.95,1.09-3.2,1.06
		c-1.49-0.04-3.21-0.44-4.34-1.47C239.91,416.67,239.62,416.32,239.31,415.95L239.31,415.95z"/>
	<path d="M623.68,415.95c2.08-2.55,2.79-4.87,0.82-7.78c-1.17-1.73-3.09-3.58-4.53-5.12c-2.94-3.15-5.87-6.26-9-9.22
		c-6.41-6.05-13.43-11.34-20.68-16.33c-2.94-2.03-5.92-4.02-8.94-5.93c-1.56-0.99-3.19-2.02-4.83-2.88c-0.95-0.5-1.81-1-2.61,0.03
		c-0.2,0.25-0.44,0.69-0.48,1.02c-0.01,0.11,0.01,0.2,0.05,0.3c-1.71-0.76-3.8-1.87-5.3-3c-1.22-0.93-1.73-1.52-1.77-3.09
		c-0.01-3.92,1.21-4.04,1.33-5.93c-0.01-1.44-1.73-3.06-2.77-3.9c-4.22-3.45-11.14-6.78-16.14-9.11c-2.28-1.07-4.55-2.03-6.89-2.95
		c-2.9-1.15-5.82-2.25-8.76-3.29c-2.24-0.79-4.49-1.52-6.76-2.22c-4.18-1.29-9.06-2.63-13.44-2.61c-4.04,0.02-7.82,0.61-11.69,1.75
		c-2.41,0.71-7.86,2.4-9.77,3.79c-0.34,0.25-0.6,0.5-0.59,0.94c0.01,0.67,0.44,1.39,0.78,1.95c2.8,4.55,8.27,10.63,12.33,14.14
		c4.63,4.01,10.62,6.7,16.08,9.39c8.99,4.45,18.88,10.08,27.97,13.85c1.62,0.63,4.41,1.5,6.11,0.97c1.45-0.45,2.19-1.85,3.19-2.87
		c0.81-0.83,2.13-1.85,3.32-1.92c2.37-0.14,5.01,2.41,6.67,3.89c-0.16-0.03-0.27-0.03-0.41,0.06c-0.31,0.21-0.7,0.97-0.88,1.32
		c-0.18,0.34-0.44,0.69-0.17,1.06c0.32,0.46,1.8,1.35,2.29,1.68c2.31,1.55,4.62,3.12,6.91,4.69c8.38,5.74,16.36,11.75,24.48,17.83
		c4.79,3.58,10.48,7.93,15.57,10.95c1.06,0.63,1.95,1.09,3.2,1.06c1.49-0.04,3.21-0.44,4.34-1.47
		C623.08,416.67,623.38,416.32,623.68,415.95L623.68,415.95z"/>
	<path d="M196.15,446.94v74.17h18.3v-74.17H196.15L196.15,446.94z M252.47,523.45c1.9,0,3.8-0.1,5.58-0.39
		c9.62-1.46,17.58-6.72,21.39-14.21c3.68-7.2,2.73-14.89-2.49-21.22c-4.75-5.65-12.71-8.76-19.72-11.39
		c-12.47-4.77-13.9-6.42-12.95-10.22c0.95-4.28,5.7-6.42,9.98-6.62c2.85-0.1,7.96,0.39,9.98,5.74l17.46-4.57
		c-4.04-10.42-15.32-16.74-28.51-16.06c-13.54,0.68-24.59,8.37-26.85,18.79c-1.66,7.2,0.71,13.53,7.01,18.4
		c4.63,3.6,10.45,5.84,16.16,8.08c5.23,1.95,10.46,3.99,12.36,6.23c2.38,2.82,1.43,5.65,0.71,7.1c-1.31,2.73-4.4,4.77-7.72,5.26
		c-6.89,1.07-12.83-2.43-14.14-8.27l-17.94,2.82C225.62,515.17,238.09,523.45,252.47,523.45L252.47,523.45z"/>
	<path d="M532.36,443.93v74.17h14.99v-41.08l18.98,40.01h13.43l19.08-39.81v40.88h14.89v-74.17h-15.57l-25.11,52.56l-24.92-52.56
		H532.36L532.36,443.93z M642.06,489.48v28.62h14.89v-28.62l24.63-45.55h-17.13l-14.99,27.84l-14.8-27.84h-17.03L642.06,489.48
		L642.06,489.48z"/>
	<path d="M145.66,485.06c6.85-15.15,6.43-32.23-1.22-47l-1.74-3.5l-38.06-17.21l-16.13,35.68l20.41,9.23l6.91-15.27l10.27,4.64
		c2.95,7.82,2.67,16.44-0.84,24.2c-7.19,15.9-25.91,22.97-41.82,15.78c-15.9-7.19-22.97-25.91-15.78-41.81
		c4.02-8.89,11.63-15.4,21.01-17.79l-5.58-21.67c-16.01,4.07-28.99,15.09-35.84,30.24c-12.23,27.04-0.21,59.16,26.96,71.45
		C101.25,524.25,133.43,512.11,145.66,485.06L145.66,485.06z M113.93,338.81l51.03,98.2l15.46-16.21l-11-21.12l26.07-27.35
		l21.52,10.08l15.46-16.21l-100.43-46.39L113.93,338.81L113.93,338.81z M175.25,363.11l-16.12,16.9l-16.7-32.06L175.25,363.11
		L175.25,363.11z M186.71,270.97l52.26,90.88l18.34-10.55l-19.11-33.23l14.41-8.29l32.33,25.63l19.89-11.44l-36.89-28.87
		c4.98-9.52,5.23-21.23-0.53-31.24l-0.75-1.31c-8.97-15.6-28.86-20.97-44.46-12L186.71,270.97L186.71,270.97z M244.88,289.99
		l-17.15,9.86l-12.12-21.08l17.15-9.86c5.48-3.15,12.42-1.28,15.57,4.2l0.75,1.31C252.23,279.89,250.36,286.83,244.88,289.99
		L244.88,289.99z M288.63,217.25l23.54,102.02l36.55-8.44c28.25-6.52,45.86-34.7,39.37-62.81c-6.49-28.11-34.67-45.73-62.91-39.21
		L288.63,217.25L288.63,217.25z M343.68,289.02l-14.73,3.4l-13.47-58.37l14.73-3.4c16.2-3.74,32.35,6.35,36.05,22.42
		C369.97,269.13,359.88,285.28,343.68,289.02L343.68,289.02z M411.65,194L409,298.67l21.15,0.54l0-0.14l45.74,1.16l0.53-21.02
		l-45.74-1.16l0.53-21.15l34.06,0.86l0.54-21.15l-34.06-0.86l0.51-20.05l45.74,1.16l0.54-21.15L411.65,194L411.65,194z
		 M521.8,199.48l-33.56,99.18l20.04,6.78l22.59-66.77l27.39,83.68l22.52,7.62l33.56-99.18l-20.04-6.78l-23.43,69.24l-28.37-86.77
		L521.8,199.48L521.8,199.48z M648.84,250.46l-56.5,88.14l17.81,11.42l56.5-88.14L648.84,250.46L648.84,250.46z M695.77,279.18
		l-72.25,75.78l15.31,14.6l48.64-51.02l-10.45,87.42l17.2,16.4l72.25-75.78l-15.31-14.6l-50.44,52.91l10.86-90.64L695.77,279.18
		L695.77,279.18z M722.74,481.02c7.58,14.8,21.2,25.11,37.51,28.33l3.82,0.82l37.18-19.04l-17.85-34.85l-19.93,10.21l7.64,14.92
		l-10.03,5.14c-7.95-2.56-14.52-8.15-18.4-15.74c-7.96-15.53-1.81-34.58,13.72-42.53c15.53-7.95,34.58-1.81,42.53,13.72
		c4.45,8.68,4.79,18.7,0.82,27.52l20.43,9.14c6.8-15.06,6.27-32.08-1.31-46.87c-13.53-26.42-46.14-37.04-72.68-23.45
		C719.77,421.87,709.21,454.61,722.74,481.02L722.74,481.02z"/>
	<path class="st0" d="M431.77,527.11c13.83,0,30.39-1.55,42.16-6.2c4.74-1.87,8.16-4.04,10.57-5.91c2.41-1.87,3.83-3.45,4.29-6.78
		c0.46-3.33-0.04-8.41-1.58-26.3c-1.54-17.89-4.12-48.61-6.7-79.32c1.08-1.75,2.16-3.5,1.91-5.87c-0.25-2.37-1.83-5.37-4.95-7.7
		c-4.07-3.04-10.95-4.89-18.03-6.52c-0.15-12.56-0.73-32.36-3.27-43.92c-1.37-6.24-3.37-10.32-6.28-13.11
		c-2.91-2.79-6.74-4.29-10.65-4.29c-3.91,0-7.91,1.5-11.07,3.2s-5.49,3.62-8.28,10.36c-4.4,10.63-9.6,31.69-10.3,44.36
		c-3.26,0.71-6.49,1.54-9.51,2.33c-6.37,1.67-11.78,3.16-15.73,5.2c-4.98,2.57-9.72,7.25-8.45,11.69c0.33,1.17,0.92,1.83,1.5,2.5
		L376,418.51c-4.35,0.36-10.69,1.14-16.82,1.97c-13.47,1.82-26.94,3.93-40.64,6.02c-1.18-0.89-7.42-4.4-11.88-6.82
		c-0.2-1.48-0.66-3.19-1.19-5.35c-0.81-3.35-1.77-7.76-2.54-10.49c-0.93-3.31-1.91-5.21-4.14-6.26c-1.82-0.86-4.53-0.74-6.53-0.06
		c-1.16,0.39-2.08,1.02-4.37,2.91c-6.8,5.63-11.02,10.28-13.88,18.98c-1.34,4.07-2.38,9.79-0.75,13.05
		c0.69,1.37,1.85,2.21,2.75,2.81c3.56,2.4,4.75,1.95,9.18,0.56c2.12-0.66,3.45-1.08,5.8-1.83c1.5-0.48,3.61-1.09,4.77-1.57
		c17.15,17.46,26.87,26.76,40.6,39.97c13.76,13.23,24.11,22.2,29.24,26.77c1.93,1.72,3.12,2.81,3.85,3.52
		c-0.46,6.62-0.35,7.86,0.25,8.94c0.87,1.58,2.79,2.83,5.78,4.58c3,1.75,7.08,4,12.57,5.7C399.3,525.41,418.93,527.11,431.77,527.11
		L431.77,527.11z M429.75,386.84c2.6,2.1,5.64,4.18,9.16,6.35c1.26,0.78,2.58,1.56,3.89,2.31c0.09-1.53,0.18-3.11,0.25-4.73
		c0.12-2.66,0.19-5.42,0.23-8.23l-0.55-0.11c-5.31-1.1-7.43-1.52-10.24-1.89c-2.81-0.37-6.31-0.71-8.03-0.71
		c-1.73,0-1.69,0.33-0.58,1.56C424.99,382.62,427.15,384.74,429.75,386.84L429.75,386.84z M459.32,400.83
		c2.25-0.09,4.78-0.41,7.16-1c3.25-0.81,6.2-2.14,7.8-3.25c1.6-1.1,1.85-1.98,1.46-3.14c-0.39-1.17-1.44-2.62-3.33-3.73
		c-1.89-1.1-4.64-1.85-10.26-3.12c-0.84-0.19-1.74-0.39-2.68-0.6C459.51,391.06,459.5,396.25,459.32,400.83L459.32,400.83z
		 M375,431.26c-1.04,13.29-2.02,25.83-2.86,36.6c-1.8-1.58-5.03-4.21-10.91-8.78c-6.88-5.35-17.39-13.38-29.56-22.62
		c6.87-1.07,11.96-1.94,19.86-3.05C359.56,432.27,367.45,431.17,375,431.26L375,431.26z M443.31,379.28
		c-5.01-0.88-10.37-1.75-14.96-2.02c0.65-6.52,0.9-11.03,1.84-18.95c0.71-5.99,1.79-13.57,2.87-17.81c1.08-4.25,2.16-5.16,3.12-5.58
		c0.96-0.42,1.79-0.33,2.5,0.04c0.71,0.38,1.29,1.04,2.04,5.2C442.57,350.46,443.36,366.49,443.31,379.28L443.31,379.28z"/>
	<path d="M71.59,563.62v107.49h27.23V563.62h36.42v-27.05H35v27.05H71.59L71.59,563.62z M145.84,536.58v134.71h27.22v-54.45h49.85
		v54.45h27.05V536.58h-27.05v53.04h-49.85v-53.04H145.84L145.84,536.58z M264.11,536.58v134.71h27.23v-0.18h58.87v-27.05h-58.87
		v-27.22h43.84v-27.23h-43.84V563.8h58.87v-27.23H264.11L264.11,536.58z M364.35,536.4v134.89h27.22v-49.32h21.39l19.62,49.32h29.52
		l-22.63-55.86c11.67-7.43,19.45-20.33,19.45-35.18v-1.94c0-23.16-18.74-41.9-41.9-41.9H364.35L364.35,536.4z M417.03,594.92h-25.46
		v-31.29h25.46c8.13,0,14.67,6.54,14.67,14.67v1.94C431.71,588.38,425.17,594.92,417.03,594.92L417.03,594.92z M515.33,536.58
		l-46.14,134.71H498l9.9-28.99h48.62l9.72,28.99h28.82l-45.96-134.71H515.33L515.33,536.58z M547.15,615.25h-30.05l15.03-44.02
		L547.15,615.25L547.15,615.25z M607.43,536.4v134.89h27.22v-49.32h25.46c23.16,0,41.9-18.74,41.9-41.72v-1.94
		c0-23.16-18.74-41.9-41.9-41.9H607.43L607.43,536.4z M660.11,594.92h-25.46v-31.29h25.46c8.13,0,14.67,6.54,14.67,14.67v1.94
		C674.79,588.38,668.25,594.92,660.11,594.92L660.11,594.92z M755.22,619.31v51.98h27.05v-51.98L827,536.58h-31.11l-27.23,50.56
		l-26.87-50.56h-30.94L755.22,619.31L755.22,619.31z"/>
</g>
</svg>
