<?xml version="1.0" encoding="utf-8"?>
<!-- Generator: Adobe Illustrator 25.0.0, SVG Export Plug-In . SVG Version: 6.00 Build 0)  -->
<svg version="1.1" id="Layer_1" xmlns="http://www.w3.org/2000/svg" xmlns:xlink="http://www.w3.org/1999/xlink" x="0px" y="0px"
	 viewBox="0 0 864 864" style="enable-background:new 0 0 864 864;" xml:space="preserve">
<style type="text/css">
	.st0{fill-rule:evenodd;clip-rule:evenodd;fill:#3D663A;}
	.st1{fill:#3D663A;}
</style>
<g>
	<path class="st0" d="M644.35,449.7c3.09,1.96,2.66,1.46,5.72,4.66c2.36,2.48,3.38,3.7,4.12,7.04c1.9,8.62,0.45,10.9,1.27,18.43
		c0.43,3.99,0.68,4.52-0.32,8.01c-0.57,2,0,2.77,1.05,2.09c1.23-0.79,0.64-1.5,4.61-3.3c1.05-0.47,5.78-2.58,6.56-1.8
		c0.87,0.87,3.94,6.89,8.8,8.5c2.1,0.69,5,0.81,6.83-0.01c0.82-0.37,1.6-0.93,2.85-1.42c2.49-0.97,6.09-1.61,8.9-3.2
		c2.18-1.24,4.46-7.11,5.76-7.79c2.4-1.25,10.58,12.51,11.7,14.55c1.67,3.05,3.66,7.28,3.86,10.45c0.41,6.59,0.78,3.26,1.94-0.87
		c1.89-6.74,3.03-6.97,1.17-12.05c-0.48-1.31-1.04-2.78-1.43-3.53c-1.01-1.95-0.51,0.19-0.93-2.82c-0.49-3.47-6.62-8.54-10.04-8.94
		c-4.57-0.53-5.8,2.81-6.94,0.62c-0.4-0.77,0.65-1.31,2.26-2.08l10.38-4.41c2.45-0.84,4.48-0.93,1.15-1.5
		c-1.89-0.33-7.03-1.18-8.65-0.53c-2.81,1.12-3.52,2.96-6.63,0.98c-2.93-1.87-0.19-1.18,4.61-2.16c2.42-0.5,3.66-0.85,4.4-2.86
		c1.13-3.08-2.89-1.11-5.22-0.57c-1.47,0.34-5.51,0.94-6.56,0.27c-2.13-1.36,0.58-4.35-2.91-9.5c-1.79-2.64-2.59-1.96-1.32,0.9
		c0.35,0.78,1.59,2.36,1.19,3.51c-0.23,0.66-2.6-4.09-5.84-5.11c-1.37-0.43-2.22,0.08-3.5-2.08c-0.83-1.41,7.08,0.86,8.47-6.11
		c0.88-4.42-1.57-6.18-1.57-6.83c0-0.46,0.96-0.3,0.9-1.14c-0.15-2.04-3.05-1.2-5.12-3.13c-0.44-0.41-2.27-2.57-2.14-3.04
		c0.1-0.35,0.68-0.65,1.36-1.28c1.73-1.63,4.96-7.24,6.72-9.74c0.38-0.53,1.86-2.57,1.21-2.9c-0.5-0.25-0.85,0.79-3.4-0.12
		l-15.56-7.08c-5.55-2.71-7.51-4.37-13.45-4.83c-4.2-0.33-3.33,0.89-4.33-3.85l-2.05-8.67c-0.86-3.04-1.93-4.26-2.74-6.55
		c-0.42-1.19-1.43-6.29-2.07-5.23c-0.63,1.05-0.68,3.57-2.47,4.74c-2.06,1.35-2.81,1.11-5.72,3.64c-4.31,3.75-2.79,3.49-5.79-2.21
		c-2.02-3.83-2.73-4.22-5.22-6.55c-0.77-0.72-1.53-1.63-2.71-2.65c-1.19-1.03-2.8-2.18-4.12-3.31c-1.03-0.89-4.25-4.35-5.21-3.22
		c-0.66,0.78,1.24,3.32-0.55,4.12c-6.33,2.83-5.2,3.4-9.24,5.95c-5.25,3.33-4.87,2.78-9.47,7.7c-4.87,5.2-4,4.32-6.69,1.77
		c-3.57-3.37-0.8-5.1-0.89-6.31c-0.07-0.82-2.43,1.33-2.77,1.69c-1.28,1.34-1.51,1.91-4.23,0.76l-8.42-3.65
		c-3.28-1.25-7.78-2.53-10.51-3.94c-1.19-0.61-4.48-2.4-5.68-2.3c-1.62,0.14,0.89,1.2,2.03,2.33c1.69,1.69,5.16,8.33,5.02,9.33
		c-0.05,0.37-0.54,0.17-1.47-0.1c-3.29-0.95-7.87-1.73-11.25-2.11c-2.05-0.23-2.31-0.17-3.91-0.73c-0.84-0.29,0.39,0.65,0.86,1.56
		c0.6,1.18,0.51,3.35,1.49,5.53l4.87,8.31c1.93,3.27,2.83,4.68,5.46,6.37c3.44,2.21-0.22,4.88-2.95,4
		c-2.38-0.77-0.32,0.73-0.32,0.73c1.92,1.18,3.39-0.19,4.29,2.85c0.48,1.62-0.11,0.96-1.21,1.1c-1.46,0.18-4.53,2.36-6,3.74
		c-3.07,2.87-5.59,6.86-7.63,10.06c-0.47,0.73-0.42,0.43-2.65,0.28c-3.21-0.22-4.1-0.11-7.14-1.42c-4.03-1.74-4.62-1.87-5.35-6.78
		c-0.88-5.89,0.8-13.01,3.59-18.14c1.74-3.2,1.9-2.5,2.54-3.3c0.89-1.11-0.86-1.17-3.8,2.75c-1.83,2.44-2.02,0.74-3.85,4.76
		c-3.24,7.11-5.48,7.97-6.43,16.33c-0.32,2.8-0.6,6,1.76,7.55c3.34,2.2,6.51-2.5,7.69-3.07c1.33-0.64,4.23,2.27,9.96,2.91
		c2.13,0.24,2.04,0.18,0.83,3.73c-0.62,1.81-1.13,0.4-3.55-0.38c-1.34-0.43-2.2-0.17-1.15,0.79c1.16,1.07,3.84,2.16,2.52,3.2
		c-1.3,1.03-2.07,1.06-3.25,3.01c-0.38,0.62,0.62,0.38,1.78,0.07c4.91-1.3,1.54-1.4,6.59,0.24c3.39,1.1,2.09,0.12,5.75,2.66
		c2.49,1.74,8.48,6.17,11.49,5.35c0.44-0.12,0.92-0.33,1.41-0.59c0.21,1.91,0.51,9.69,0.81,10.13c0.41,0.59,1.43,1.11,2.8,1.58
		l9.01,39.61c0.86,3.74,2.01,9.07,2.82,10.2c1.83,2.58,16.33,3.68,19.52,3.8c6.72,0.27,18.25-0.36,24.31-3.09
		c0.61-0.28,1.04-0.55,1.53-1.54c1.59-3.23,5.15-18.51,6.69-24.97c1.19-4.97,3.23-16,4.95-23.97c4.03-1.22,3.56-1.95,3.67-4.35
		L644.35,449.7L644.35,449.7z M632.35,443.81c-1.45-0.13-3.03-0.26-4.7-0.38c1.2-1.38,3.25-2.8,5.11-4.13l2.13,2.05L632.35,443.81
		L632.35,443.81z M576.09,443.93c-1.99,0.31-3.67,0.68-4.96,1.12l-2.99-4.86c0.98-0.28,1.96-0.56,2.93-0.84
		C572.17,440.48,574.81,443.1,576.09,443.93L576.09,443.93z M569.3,445.88c-1.24,0.79-1.79,2.1-1.75,4.01
		c-3.55,1.48-9.53-2.85-12.21-4.94c4.26-1.27,3.14-1.05,6.92-2.68l4.49-1.8C567.73,443.47,567.83,443.32,569.3,445.88L569.3,445.88z
		 M687.59,489.11c6.72-1.65,7.39-1.11,11.12-8.4c1.85-3.61,0.55-2.72-2.43-1.09c-2.82,1.54-3.26,1.7-5.31,4.52L687.59,489.11
		L687.59,489.11z M693.23,470.26c1.52,1.33,1.89,2.12,0.62,4.46c-1.03,1.92-8.72,12.38-10.24,14.16
		c-4.53,5.25-10.08,0.74-13.18-3.57c-1.71-2.39-0.54-1.87,3.89-4.43c4.76-2.75,10.91-2.38,14.83-5.46
		C690.51,474.35,692.17,471.73,693.23,470.26L693.23,470.26z M690.08,467.62l-3.37-1.69c0,3.44-0.49,4.41-3.02,7.27
		c-1.11,1.26-2.38,2.6-3.65,3.95c8.21-1.29,8.67-2.4,12.47-7.99c-2.46,0.64-2.81,0.97-4.6,1.55c-1.34,0.44-0.79-0.43-0.27-0.9
		C688.68,468.86,688.88,469.13,690.08,467.62L690.08,467.62z M657.95,459.62c3.36-0.84,2.56-5.9,8.94-6.15
		c3.23-0.13,4.82,2.24,5.45,2.07c2.37-0.65-1.64-11.28-2.63-12.24c-0.39-0.38-0.9-0.57-1.61-1.06c-3.17-2.19-2.21-2.57-5.81-2.82
		c-2.82-0.2-7.48-1.44-8.67-4.22c-0.22,0-0.44,0-0.66,0c-0.34,2.47-0.68,4.94-1.03,7.41c5.67,5.92,6.21,2.59-1.94,6.93
		c-0.57,0.31-1.04,0.5-1.5,0.7c1.82,1.66,4.71,4.27,6.12,6.09C656.13,458.27,655.77,458.66,657.95,459.62L657.95,459.62z
		 M651.85,435.09c-2.02,0.08-2.5-0.16-3.63,2.02c-0.42,0.8-0.11,0.83,0.5,1.64C650.21,440.75,651.07,443.12,651.85,435.09
		L651.85,435.09z M618.93,431.46c-0.41,4.05-1.4,5.18-4.95,7.04c0.04,0.33,0.07,0.66,0.11,0.99c2.15-1.49,2.95-2.1,5.28-1.69
		c0.86-1.39,1.71-2.79,2.57-4.18L618.93,431.46L618.93,431.46z M626.34,439.12c2.15-1.32,3.31-1.84,5.63-1.25
		C627.75,441.17,629.33,440.62,626.34,439.12L626.34,439.12z M588.94,425.85c-2.24,0.52-5.61,1.29-7.85,0.62l-3.26-1.72
		c0.3,3.96,0.91,4.67,1.45,8.49c0.56,3.91,0.48,4.51,1.59,8.64c1.79-1.35,2.24-1.28,4.38-1.88c2.05-0.57,1.83-0.66,4.09-0.58
		C589.21,434.89,589.07,430.37,588.94,425.85L588.94,425.85z M572.07,413.93c-2.32-0.93-4.95-1.28-7.34-0.59
		c-0.97,0.28-0.46,1.14,0.21,2.9c0.29,0.76,0.54,1.41,0.78,2.06c1.46,0.57,1.92,1.24,2.54,3.06c1.6,4.73-0.45,6.06,0.91,7.09
		c0.18,0.14,6.64,0.99,5.98,5.82c-0.28,2.01-1.09,3.02-2.71,4.09c1.3,1.64,2.67,3.48,4.33,4.47c-0.2-4.65-1.45-19.19-2.64-23.39
		L572.07,413.93L572.07,413.93z M617.72,379.75c-3.7,4.19-3.82,4.88-7.05,9.74c-2.66,4-4.8,6.83-7.03,10.65
		c1,1.78,1.32,2.32,1.32,4.18l2.27-0.07c2.88-3.92,4.7-4.82,9.24-7.41c-1.2-5.47-1.47-9.77,0.49-14.89
		C617.28,381.12,617.5,380.43,617.72,379.75L617.72,379.75z"/>
	<path class="st0" d="M247.29,462.99c-3.92-1.18-3.46-1.9-3.57-4.24l-0.43-8.55c-0.18-3.74,0.4-3.81,4.09-5.47
		c-2.23-2.74-3.39-3.06-7.14-2.79c-0.02,0-16.23,1.68-13.16-0.37c1.37-0.91,11.36-5.06,13.32-5.65c2.27-0.68,4.61-1.22,6.38-0.78
		c-2.13-2.21-4.26-4.42-5.97-6.43c-1.72-2.01-3.03-3.81-4.38-5.4c-2.44-2.89-6.18-6-7.43-8.96c-0.76-1.8-1-4.01-0.76-4.87
		c0.44-1.52,3.53,1.83,7.28,3.66c3.13,1.53,10.86,3.57,13.1,6.65c0.11-3.85,0.02-5.39-2.25-9.43c-1.39-2.48-3.68-6.04-5.07-8.78
		c-1.39-2.74-1.88-4.67-2.88-6.49c-1-1.82-2.52-3.54-3.48-4.93c-0.96-1.39-1.37-2.46-2.11-3.48c-0.26-0.36-4-4.26-2.33-4.07
		c1.25,0.14,5.03,3.69,7.02,4.99c1.66,1.08,3.62,2.03,5.91,3.4c3.67,2.2,6.74,4.62,9.99,6.08c-2.99-4.98-4.4-6.21-8.49-10.17
		c-1.29-1.25-1.74-1.74-0.94-1.78c3.29-0.17,8.78,3.28,11.64,5.59c2.01,1.62,3.64,3.25,5.28,4.89c0.98-2.66,1.96-5.32,3.32-7.63
		c1.35-2.31,3.07-4.28,4.34-6.22c2.78-4.26,1.84-4.54,5.73-9.11c-0.67,5.45-0.56,5.66,1.66,9.68c1.89,3.42,2.07,5.23,1.66,8.86
		c3.52-4.2,4.92-7.09,6.61-12.24c2.23-6.82,1.06-6.26,4.05,1.92c1.51,4.14,3.38,6.9,5.22,11.79c0.86,2.29,1.76,5.07,2.66,7.86
		l2.17-9.92c0.66-4.01-0.41-7.89,1.43-6.69c3.15,2.05,5.03,5.44,6.9,8.98c2.56,4.85,2.94,5.92,3.5,11.32
		c2.76-2.51,1.27-6.66,7.02-12.11c3.88-3.68,2.24-0.44,0.63,2.41c-3.14,5.57-2.09,4.81-2.95,11.13c-0.43,3.2-1.45,7.24-2.5,9.49
		c2.97-1.33,7.06-3,8.86-5.12c1.78-2.09,4.36-9.54,2.17,0.29c-0.99,4.43-1.36,5.41-2.07,9.99c4.57,0.76,8.42,1.7,11.5,5.26
		c1.19,1.37,1.72,2.72,1.47,3.13c-0.25,0.41-1.27-0.12-2.97-0.35c-2.63-0.35-8.85-0.19-10.89,1.66c-1.08,0.98-1.58,2.58-2.07,4.17
		c2.01-0.29,4.01-0.57,5.09-0.49c3.18,0.24-2.24,2.44-3.15,3.01c-2.57,1.59-4.71,4.81-6.39,8.09c4.42,1.31,4.22,3.19,3.87,6.82
		c-0.17,1.93-0.53,9.46-0.79,9.84c-0.4,0.58-1.39,1.09-2.73,1.54l-8.76,38.55c-0.84,3.64-1.95,8.83-2.74,9.93
		c-1.78,2.51-15.89,3.58-19,3.7c-6.54,0.26-17.77-0.35-23.66-3.01c-0.6-0.27-1.01-0.54-1.49-1.5c-1.55-3.15-5.01-18.02-6.51-24.31
		C250.95,481.48,248.96,470.75,247.29,462.99L247.29,462.99z"/>
	<path class="st1" d="M308.13,246l2.96-0.24c2.95-0.38,3.46-0.82,3.23-3.65c-0.23-4.45-0.59-8.9-1.08-13.33
		c-0.04-0.54-0.09-1.08-0.27-1.6c-0.21-0.93-1.06-1.4-1.84-0.93c-1.82,0.96-3.36,2.03-5.03,3.12c-1.17,0.64-2.31,1.54-3.79,1.66
		c-3.89,0.45-7.8,0.77-11.71,0.95c-1.88,0.15-2.76-0.59-2.92-2.61c-0.54-4.97-0.95-10.09-1.22-15.08c-0.17-2.15,0.57-3.03,2.86-3.21
		c3.76-0.44,7.75-1.31,11.42,0.43c0.15,0.12,0.28,0.11,0.41,0.1c0.67-0.05,1.2-0.23,1.28-0.92c0.21-0.7,0.29-1.38,0.24-2.05
		l-1.05-12.92c-0.04-0.54-0.22-1.07-0.4-1.59c-0.33-0.79-0.9-1.01-1.69-0.81c-0.27,0.02-0.53,0.18-0.79,0.33
		c-3.47,2.31-7.44,1.82-11.35,2.01c-1.75,0.14-2.35-0.62-2.64-2.5c-0.2-0.8-0.27-1.6-0.34-2.55l-0.87-10.77
		c-0.07-0.81-0.14-1.75-0.07-2.57c-0.03-2.03,0.6-2.62,2.6-3.06l4.58-0.37c9.16-0.61,6.55-1.07,14.14,2.24
		c0.85,0.47,1.82,0.67,2.79,0.99c0.55,0.09,1.19-0.37,1.15-0.91c0.19-0.96,0.12-1.91,0.16-2.99L307.95,162
		c-0.03-0.4-0.07-0.81-0.24-1.34c-0.35-2.68-0.79-3.05-3.36-2.98c-0.95-0.06-1.89,0.15-2.96,0.24c-4.86,0.26-9.7,0.65-14.55,1.05
		c-6.72,0.68-13.33,1.08-20.05,1.76c-2.96,0.24-3.31,0.95-2,3.69l0.47,0.77c1.7,2.57,2.2,5.38,2.44,8.34
		c0.7,10.24,1.67,20.6,2.5,30.83c0.82,10.1,1.49,20.07,2.45,30.15c0.3,3.63,0.45,7.15-1.18,10.53c-0.24,0.43-0.34,0.84-0.44,1.26
		c-0.29,1.38,0.32,2.28,1.68,2.3l2.56-0.21C286.18,247.64,297.23,246.88,308.13,246L308.13,246z M324.44,243.45l16.33-0.73
		c0.27-0.01,0.54-0.02,0.8-0.17c1.21-0.19,1.72-0.89,1.39-2.09c-0.61-1.59-1.49-3.04-1.16-4.81c0.9-4.1,1.53-8.18,2.42-12.28
		c0.45-2.05,1.11-2.48,3.26-2.71l15.92-0.71c2.03,0.04,2.73,0.55,3.36,2.55l2.4,8.41c0.8,2.8,1.74,5.6,0.38,8.5l0.02,0.41
		c0.03,0.67,0.19,1.21,0.87,1.31c0.68,0.1,1.36,0.21,2.04,0.18l15.52-0.7c0.4-0.02,0.81-0.04,1.21-0.19
		c0.94-0.18,1.44-1.01,0.87-1.8c-0.29-0.53-0.59-1.05-1.01-1.44c-2.12-2.07-3.19-4.72-4.13-7.66c-6.8-22-13.73-43.86-20.66-65.86
		c-0.8-2.8-2.01-5.59-0.66-8.62l-0.02-0.4c-0.02-0.54-0.32-1.07-0.86-1.18c-0.82-0.23-1.63-0.2-2.58-0.16
		c-2.57-0.02-5.27,0.1-7.83,0.22c0.01,0.13,0.01,0.13,0.01,0.13l-9.71,0.44c-1.21,0.19-1.84,1.16-1.39,2.09
		c1.48,2.77,0.78,5.37,0.23,8.1l-15.17,68.82c-0.57,2.46-1.27,4.79-2.8,6.88c-0.52,0.56-0.88,1.39-1.12,2.21
		c-0.26,0.28,0.04,0.81,0.45,0.93C323.36,243.36,323.9,243.48,324.44,243.45L324.44,243.45z M354.5,205.2l0.01,0.13
		c-1.49-0.07-3.11,0-4.6-0.06c-1.09-0.09-1.8-1-1.72-2.09c-0.03-0.67,0.07-1.36,0.18-2.04c1.32-6.68,2.51-13.36,3.83-20.04
		c0.1-0.68,0.34-1.37,0.72-2.06c0.26-0.28,0.79-0.44,1.08-0.05c0.29,0.39,0.58,0.92,0.74,1.45c2.07,6.94,4,13.88,5.94,20.82
		c0.8,2.67,0.02,3.51-2.81,3.78C356.8,205.23,355.58,205.15,354.5,205.2L354.5,205.2z M407.9,239.72c7.56-0.2,15.13-0.14,22.69-0.21
		c8.78-0.21,6.36,0.89,12.91-5.65c1.61-1.5,2.27-3.13,2.11-5.29l-0.22-23.77c-0.01-1.08-0.02-2.16-0.43-2.97
		c-1.92-3.36-3.71-6.72-7.64-8.44c-6.24-2.78-12.34-5.83-18.58-8.75l-5.97-3.05c-1.22-0.53-1.91-1.6-1.92-2.95l-0.08-8.78
		c0.11-2.7,0.91-3.52,3.61-3.54c3.92-0.17,7.83-0.21,11.75-0.11c2.7-0.02,3.52,0.91,3.68,3.48c0.03,3.24,0.46,6.48-0.72,9.6
		c-0.53,1.09,0.15,1.89,1.23,2.01c0.68,0.13,1.35,0.12,2.16,0.12l9.59-0.09c5.27-0.05,5.53-0.32,4.41-5.58
		c-0.71-3.51-1.41-7.01-1.45-10.66c-0.07-7.83,0.62-5.81-4.97-11.57c-1.77-1.87-3.81-2.67-6.37-2.51
		c-4.46,0.18-8.91,0.08-13.37,0.12l0,0l-10.53,0.1c-8.24,0.21-5.95-0.89-12.51,5.65c-1.34,1.36-1.86,2.99-1.85,4.88l0.22,23.9
		c0.01,0.95-0.12,2.03,0.3,2.83c1.92,3.49,3.84,6.99,8.18,8.57c7.05,2.5,13.96,5.41,21.01,8.32l3.12,1.19
		c1.09,0.53,1.77,1.33,1.91,2.55c0.04,4.19,0.08,8.37-0.02,12.56c0.01,1.49-0.92,2.44-2.41,2.45l-13.91,0.13
		c-1.62-0.12-2.44-0.92-2.46-2.68c-0.17-3.51-0.74-7.02,0.72-10.41c0.13-0.27,0.13-0.54,0.13-0.81c0.13-0.68-0.28-1.08-0.82-1.21
		c-0.81-0.26-1.62-0.26-2.43-0.25c-3.11,0.03-6.21,0.06-9.32,0.08l-2.84,0.03c-2.02,0.15-2.69,0.97-2,2.58
		c0.97,2.42,1.13,4.99,1.15,7.42l0.06,6.35c0.07,7.83-0.62,5.95,4.83,11.57C402.9,239.09,405.07,239.75,407.9,239.72L407.9,239.72z
		 M460.29,239.6c2.3,0.06,4.45,0.12,6.75,0.18c1.89,0.05,3.91,0.24,5.81,0.16c0.81,0.02,1.62,0.04,2.43-0.07
		c0.95-0.11,1.51-0.91,1.4-1.72l-0.76-2.05c-1.16-2.19-1.36-4.63-1.29-7.2l1.79-66.56c0.06-2.3,0.39-4.45,1.52-6.44
		c0.29-0.67,0.57-1.2,0.73-1.87c0.44-1.34-0.08-2.16-1.56-2.34c-0.27-0.01-0.54-0.01-0.81-0.02l-14.18-0.38
		c-0.54-0.01-1.08-0.03-1.62,0.09c-0.82,0.25-1.24,0.78-1.12,1.59c0.11,0.81,0.36,1.63,0.75,2.32c0.89,2.05,1.11,4.08,1.05,6.11
		c-0.61,22.68-1.35,45.22-1.82,67.77c-0.06,2.29-0.52,4.44-1.52,6.44c-0.29,0.67-0.58,1.34-0.73,2.01c-0.29,0.8,0.23,1.63,1.17,1.79
		C458.94,239.56,459.62,239.58,460.29,239.6L460.29,239.6z M492.68,241.23l16.18,0.95c5.53,0.32,10.92,0.64,16.31,0.96l2.97,0.17
		c2.17-0.01,2.87-0.51,3-2.67l0.74-12.54c0.02-0.4,0.05-0.81-0.2-1.23c-0.1-0.55-0.48-0.98-1.16-1.02c-0.4-0.02-0.82,0.09-1.23,0.2
		c-3.77,1.94-7.8,1.57-11.85,1.33l-6.74-0.4c-0.81-0.05-1.62-0.09-2.42-0.28c-1.33-0.35-1.97-1.06-2.02-2.42
		c-0.11-0.41-0.09-0.82-0.06-1.22c0.05-0.81,0.09-1.62,0.14-2.43l3.25-55.28c0.16-2.7,0.44-5.25,1.93-7.6
		c0.29-0.25,0.44-0.65,0.6-1.05c0.63-1.59,0.15-2.56-1.47-2.66c-5.25-0.44-10.64-0.76-15.91-0.93c-1.62-0.09-2.48,0.8-1.76,2.33
		c1.68,3.62,1.46,7.39,1.24,11.17l-3.63,61.89c-0.2,3.37-0.39,6.61-2.32,9.6c-0.14,0.13-0.15,0.26-0.16,0.4
		c-0.62,1.32-0.13,2.16,1.21,2.37C490.39,241.1,491.47,241.16,492.68,241.23L492.68,241.23z M550.14,244.1l14.13,1.15
		c0.67,0.05,1.21,0.1,1.77-0.13c0.68-0.08,1.13-0.59,1.2-1.39c-0.08-0.68-0.29-1.38-0.51-2.07c-1.25-2.95-1.28-5.93-0.89-9.02
		l1.94-23.83c0.14-3.38,1.06-6.42,2.8-9.39c5.7-10.11,11.4-20.21,16.96-30.33c1.58-2.72,3.02-5.45,5.35-7.43
		c0.3-0.38,0.6-0.76,0.63-1.03c0.32-0.65,0.23-1.2-0.43-1.39c-0.65-0.32-1.32-0.38-2-0.43c-4.84-0.53-9.69-0.79-14.67-1.19
		l-1.62-0.13c-0.96,0.19-1.67,0.54-1.62,1.63c0.15,1.5-0.11,2.97-0.76,4.41c-2.81,6.28-5.63,12.55-8.56,18.68
		c-0.19,0.66-0.64,1.17-1.1,1.81c-0.29,0.25-0.83,0.2-1.07-0.22c-0.36-0.57-0.72-1.14-0.93-1.84c-1.75-6.78-3.65-13.44-5.4-20.22
		c-0.31-1.24-0.48-2.48-0.11-3.67c0.66-1.44-0.36-2.2-1.57-2.3l-8.35-0.68l0,0l-8.75-0.71c-1.48-0.12-1.97,0.92-1.26,2.2
		c1.33,2.01,2.67,3.88,3.42,6.24c4.31,12,8.74,24.15,13.19,36.17c0.77,2.23,1.01,4.28,0.82,6.57c-0.9,9.41-1.54,18.98-2.31,28.4
		c-0.19,2.29-0.63,4.42-1.87,6.35c-0.45,0.51-0.77,1.16-0.96,1.82c-0.2,0.8,0.16,1.37,0.95,1.7
		C549.06,244.01,549.6,244.05,550.14,244.1L550.14,244.1z"/>
	<path class="st1" d="M63.42,401.09l31.71-9.45c1.68-0.5,3.2-1.09,4.79-1.43c1.42-0.42,2.6-1.2,3.2-2.5l3.18-5.88
		c0.64-1.18,0.85-2.37,0.46-3.66c-0.31-1.04-0.66-2.2-0.96-3.24l-8.95-30.03c-2.89-9.71-5.62-19.32-8.6-28.86
		c-2.24-7.51-0.92-5.93-8.35-10.05c-1.89-1.13-3.76-1.28-5.96-0.62c-12,3.72-24.04,7.3-36.07,10.89c-0.65,0.19-1.29,0.39-1.9,0.71
		c-0.91,0.27-1.19,1.2-0.79,2.07l0.7,0.92c2.4,2.39,3.42,5.32,4.34,8.43l18.16,60.97c0.77,2.59,1.12,5.16,0.64,7.84
		C58.39,402.17,58.63,402.51,63.42,401.09L63.42,401.09z M85.6,378.56l-8.41,2.51c-0.78,0.23-1.68,0.5-2.5,0.6
		c-1.59,0.33-2.47-0.25-3.23-1.86c-0.23-0.78-0.5-1.68-0.73-2.46l-13.61-45.69c-1.39-4.66-1.12-5.16,3.42-6.51l8.41-2.51
		c0.91-0.27,1.68-0.5,2.5-0.6c1.46-0.29,2.47,0.25,2.99,1.51c0.44,1,0.79,2.16,1.09,3.2c2.24,7.51,4.47,15.01,6.67,22.39l6.82,22.91
		C90.4,376.7,90.22,377.04,85.6,378.56L85.6,378.56z M124.9,383.02c2.23-0.54,4.33-1.05,6.56-1.59c1.84-0.45,3.84-0.79,5.64-1.37
		c0.79-0.19,1.57-0.38,2.33-0.71c0.89-0.35,1.22-1.27,0.9-2.03l-1.27-1.78c-1.69-1.81-2.53-4.11-3.13-6.6l-15.72-64.7
		c-0.54-2.23-0.79-4.39-0.22-6.62c0.1-0.72,0.24-1.31,0.21-2c0.07-1.41-0.64-2.07-2.12-1.85c-0.26,0.06-0.53,0.13-0.79,0.19
		l-13.78,3.35c-0.52,0.13-1.05,0.26-1.54,0.51c-0.72,0.45-0.99,1.07-0.67,1.83c0.32,0.76,0.78,1.48,1.33,2.04
		c1.4,1.75,2.14,3.65,2.62,5.62c5.36,22.05,10.55,44,16.01,65.88c0.54,2.23,0.66,4.43,0.22,6.62c-0.1,0.72-0.21,1.44-0.18,2.13
		c-0.07,0.85,0.65,1.51,1.6,1.42C123.59,383.34,124.24,383.18,124.9,383.02L124.9,383.02z M164.06,374.21
		c7.4-1.57,14.85-2.88,22.27-4.32c8.59-1.81,6.41-0.28,11.67-7.91c1.31-1.77,1.66-3.49,1.12-5.58l-4.53-23.33
		c-0.21-1.06-0.41-2.12-0.96-2.84c-2.5-2.95-4.87-5.93-9.05-6.91c-6.64-1.6-13.2-3.49-19.86-5.22l-6.43-1.92
		c-1.3-0.3-2.17-1.23-2.42-2.56l-1.67-8.62c-0.38-2.68,0.26-3.63,2.91-4.14c3.82-0.88,7.66-1.63,11.53-2.24
		c2.65-0.51,3.63,0.26,4.25,2.75c0.62,3.18,1.63,6.29,1.03,9.57c-0.32,1.16,0.49,1.83,1.58,1.76c0.69,0,1.35-0.12,2.15-0.28
		l9.41-1.83c5.17-1,5.38-1.32,3.32-6.28c-1.33-3.32-2.66-6.64-3.36-10.22c-1.49-7.69-0.44-5.83-6.99-10.48
		c-2.08-1.52-4.23-1.93-6.72-1.31c-4.35,0.98-8.75,1.7-13.13,2.55l0,0l-10.34,2.01c-8.06,1.7-6.01,0.2-11.27,7.83
		c-1.07,1.58-1.29,3.28-0.93,5.13l4.56,23.47c0.18,0.93,0.25,2.01,0.81,2.73c2.53,3.09,5.05,6.17,9.6,6.94
		c7.38,1.18,14.71,2.79,22.17,4.36l3.28,0.6c1.16,0.32,1.98,0.99,2.35,2.16c0.8,4.11,1.6,8.22,2.26,12.36
		c0.28,1.46-0.47,2.57-1.92,2.85l-13.66,2.65c-1.62,0.18-2.57-0.46-2.9-2.19c-0.8-3.42-2-6.77-1.19-10.36
		c0.08-0.29,0.03-0.56-0.02-0.82c0-0.69-0.47-1.01-1.03-1.04c-0.85-0.11-1.64,0.04-2.44,0.2c-3.05,0.59-6.1,1.18-9.15,1.78
		l-2.78,0.54c-1.96,0.52-2.47,1.44-1.5,2.91c1.39,2.21,2.01,4.7,2.48,7.09l1.21,6.23c1.49,7.69,0.47,5.96,6.85,10.5
		C159.02,374.49,161.27,374.75,164.06,374.21L164.06,374.21z M227.41,361.95l0.8-0.12l15.36-2.3c0.4-0.06,0.78-0.25,1.16-0.45
		c0.51-0.21,0.7-0.79,0.62-1.32l-0.64-1.54c-1.87-2.45-2.44-5.37-2.88-8.31l-8.17-54.63c-0.18-1.2-0.38-2.54-0.43-3.76
		c-0.13-1.76,0.46-2.39,2.31-2.8c1.85-0.41,3.51-0.25,5.37,0.29c2.56,0.71,5.13,1.42,7.67,1.99c1.15,0.37,1.98-0.43,1.96-1.52
		c-0.2-1.34-0.29-2.82-0.49-4.16c-0.54-3.61-1.08-7.21-1.75-10.8c-0.38-2.54-0.97-2.86-3.67-2.59c-0.82-0.01-1.74,0.26-2.54,0.38
		c-6.3,0.8-12.71,1.76-18.99,2.7l-18.7,2.8c-1.05,0.29-2.14,0.32-3.32,0.63c-2.79,0.55-3.13,1.01-2.82,3.97l1.74,11.62
		c0.14,0.94,0.28,1.87,0.55,2.79c0.31,1.18,1.19,1.6,2.34,1.02l5.99-3.76c1.26-0.73,2.36-1.58,3.67-1.91
		c4.64-0.97,5.14-0.36,5.71,3.52c0.04,0.27,0.08,0.53,0.12,0.8l8.43,56.37c0.36,2.4,0.43,4.71-0.45,7.03l-0.46,2.39
		C225.8,361.24,226.44,361.83,227.41,361.95L227.41,361.95z M274.39,355.78l13.32-1.17c0.67-0.06,1.21-0.11,1.74-0.29
		c1.2-0.24,1.67-1.09,1.3-2.15c-0.17-0.39-0.2-0.8-0.51-1.18c-1.57-2.44-1.94-5.12-2.05-7.95c-0.52-5.92-1.05-11.97-1.57-17.89
		l-0.29-3.36c0.14-1.5,0.73-2.5,2.21-2.63c2.68-0.37,5.5-0.62,8.33-0.86c1.21-0.11,2.09,0.63,2.46,1.82
		c0.17,0.39,0.34,0.78,0.38,1.19l6.85,22.45c0.43,1.86,0.45,3.62-0.21,5.31c-0.35,0.71-0.57,1.27-0.64,1.95
		c-0.19,0.97,0.42,1.73,1.38,1.78c0.27-0.02,0.55,0.09,0.82,0.06l15.47-1.35c1.87-0.3,2.35-1.02,1.78-2.87
		c-1.14-3.7-2.41-7.38-3.56-11.21c-2.19-6.45-4.25-12.91-6.44-19.37c-0.73-2.11-0.48-3.89,1.02-5.38c0.38-0.3,0.48-0.72,0.86-1.02
		c1.74-1.78,2.37-3.87,2.15-6.42c-1.04-10.35-1.94-20.57-2.71-30.94c-0.2-2.29-1.05-4.25-2.94-5.71c-1.01-0.73-2.02-1.45-2.91-2.32
		c-1.78-1.74-3.71-2.12-6.13-1.9c-5.91,0.65-11.97,1.05-17.89,1.57l-18.43,1.61c-1.08,0.09-2.14,0.32-3.19,0.69
		c-0.54,0.05-0.89,0.62-0.84,1.29c0.18,0.53,0.36,1.05,0.68,1.57c1.87,2.82,2.14,5.91,2.43,9.14c1.26,14.4,2.53,28.93,3.79,43.32
		l1.82,20.85c0.22,2.56,0.17,5-0.84,7.39c-0.33,0.84-0.68,1.55-0.74,2.37c-0.2,0.83,0.26,1.47,1.08,1.53
		C273.05,355.9,273.72,355.84,274.39,355.78L274.39,355.78z M287.47,303.8c-1.88,0.16-2.76-0.57-2.95-2.72l-1.45-16.55
		c-0.2-2.29,0.55-3.03,2.82-3.37c4.17-0.36,8.2-0.85,12.38-1.08c2.43-0.08,3.17,0.54,3.52,3.08c0.25,2.83,0.48,5.52,0.73,8.34
		c0.25,2.82,0.48,5.52,0.6,8.35c0.15,1.75-0.58,2.63-2.33,2.78C296.36,303.16,291.92,303.55,287.47,303.8L287.47,303.8z
		 M335.85,349.31l16.32-0.79c0.27-0.01,0.54-0.03,0.8-0.17c1.21-0.19,1.71-0.89,1.39-2.09c-0.62-1.59-1.5-3.04-1.18-4.81
		c0.88-4.1,1.5-8.18,2.38-12.28c0.44-2.05,1.1-2.49,3.25-2.73l15.92-0.77c2.03,0.04,2.73,0.54,3.37,2.54l2.43,8.4
		c0.81,2.8,1.76,5.59,0.41,8.5l0.02,0.41c0.03,0.67,0.19,1.21,0.87,1.31c0.68,0.1,1.36,0.2,2.04,0.17l15.51-0.75
		c0.4-0.02,0.81-0.04,1.21-0.19c0.94-0.18,1.44-1.02,0.86-1.8c-0.3-0.53-0.59-1.05-1.02-1.44c-2.13-2.06-3.2-4.71-4.15-7.64
		c-6.87-21.98-13.87-43.82-20.88-65.79c-0.81-2.8-2.03-5.58-0.69-8.62l-0.02-0.4c-0.03-0.54-0.32-1.07-0.87-1.18
		c-0.82-0.23-1.63-0.19-2.58-0.15c-2.57-0.01-5.27,0.12-7.83,0.24c0.01,0.13,0.01,0.13,0.01,0.13l-9.71,0.47
		c-1.21,0.19-1.84,1.17-1.39,2.09c1.49,2.77,0.8,5.37,0.25,8.1l-14.94,68.87c-0.56,2.46-1.26,4.79-2.78,6.89
		c-0.51,0.57-0.88,1.39-1.11,2.22c-0.26,0.28,0.04,0.81,0.45,0.92C334.76,349.23,335.31,349.34,335.85,349.31L335.85,349.31z
		 M365.77,310.96l0.01,0.13c-1.49-0.06-3.11,0.01-4.6-0.05c-1.09-0.08-1.81-0.99-1.72-2.08c-0.03-0.67,0.07-1.36,0.17-2.04
		c1.3-6.69,2.47-13.37,3.77-20.06c0.1-0.68,0.34-1.37,0.71-2.06c0.26-0.28,0.79-0.44,1.08-0.05c0.29,0.39,0.59,0.92,0.75,1.45
		c2.09,6.93,4.05,13.87,6,20.8c0.8,2.67,0.03,3.51-2.79,3.79C368.07,310.98,366.85,310.9,365.77,310.96L365.77,310.96z
		 M425.86,347.04c5.3,0.05,10.64,0.16,15.99,0.21c1.79,0.02,3.18,0.03,4.32-0.03l2.43-20.98c0.01-0.07,0.02-0.12,0.03-0.18
		c0.16-0.9,0.32-1.77,0.46-2.61c-2.34-0.03-4.68-0.02-7.01,0.03c-1.35-0.01-1.9,0.93-1.51,2.42c0.4,0.95,0.79,2.03,1.05,3.12
		c0.39,1.49-0.43,2.56-1.92,2.68c-0.81,0.13-1.62,0.25-2.43,0.25l-9.59-0.09c-0.95-0.01-1.75-0.15-2.56-0.29
		c-1.21-0.15-2.02-0.83-2.14-2.18c-0.12-1.08-0.11-2.16-0.1-3.24c0.15-15.67,0.3-31.33,0.45-47l0.03-2.84
		c0.29-1.75,0.97-2.56,2.73-2.68c1.49-0.12,3.11-0.11,4.59-0.09c2.97,0.03,5.94,0.06,8.78,0.22c2.29,0.16,3.23,1.52,2.53,3.67
		c-0.14,0.67-0.42,1.35-0.69,2.02c-0.84,2.56-0.3,3.24,2.4,3.26c2.03-0.12,3.92-0.1,5.94-0.08c1.76-0.12,3.65,0.03,5.4-0.08
		c1.76-0.12,2.44-0.79,2.59-2.68l0.07-7.02c0.07-7.56,0.6-5.8-4.48-11.39c-1.87-2.04-3.89-2.87-6.73-2.9
		c-7.83,0.06-15.8-0.02-23.77-0.09c-7.7-0.07-7.7-0.07-12.61,5.42c-0.14,0.13-0.27,0.13-0.27,0.27c-0.95,0.94-1.51,2.15-1.52,3.36
		l-0.03,3.38c-0.1,10.67-0.2,21.2-0.31,31.87l-0.29,30.12c-0.07,7.43-0.6,5.8,4.48,11.39c1.46,1.48,3,2.4,4.94,2.68
		c-0.14-0.4-0.27-0.79-0.37-1.18c-0.3-1.09,0.02-2.18,0.85-2.93c0.83-0.76,1.95-0.97,3-0.57
		C422.37,342.93,424.15,344.68,425.86,347.04L425.86,347.04z M483.27,347.74l0.81,0.04l14.71,0.71c1.43-5.29,0.87-7.58-2.2-14.2
		c-0.46-0.98-0.35-2.06,0.28-2.94c0.64-0.88,1.62-1.31,2.7-1.19c0.31,0.04,0.6,0.08,0.89,0.14l2.34-48.69
		c0.06-1.21,0.12-2.56,0.32-3.77c0.22-1.75,0.92-2.25,2.81-2.3c1.89-0.04,3.49,0.44,5.21,1.33c2.38,1.2,4.75,2.39,7.14,3.45
		c1.05,0.59,2.03-0.04,2.22-1.11c0.06-1.35,0.27-2.83,0.34-4.18c0.18-3.64,0.35-7.28,0.39-10.93c0.12-2.56-0.4-2.99-3.09-3.26
		c-0.8-0.17-1.75-0.08-2.56-0.12c-6.33-0.44-12.81-0.75-19.15-1.06l-18.89-0.91c-1.09,0.08-2.16-0.1-3.38-0.03
		c-2.84,0-3.26,0.38-3.54,3.35l-0.56,11.74c-0.05,0.94-0.09,1.89,0,2.84c0.08,1.22,0.86,1.8,2.09,1.45l6.61-2.52
		c1.37-0.47,2.62-1.09,3.98-1.16c4.73-0.04,5.11,0.65,4.92,4.56c-0.01,0.27-0.03,0.54-0.04,0.81l-2.74,56.93
		c-0.12,2.43-0.5,4.71-1.82,6.81l-0.92,2.25C481.83,346.72,482.34,347.42,483.27,347.74L483.27,347.74z M565.12,352.74l2.96,0.26
		c2.97,0.12,3.54-0.23,3.79-3.06c0.52-4.43,0.91-8.87,1.17-13.32c0.05-0.54,0.09-1.08,0.01-1.63c-0.05-0.95-0.81-1.56-1.65-1.23
		c-1.95,0.64-3.65,1.44-5.48,2.23c-1.26,0.43-2.54,1.13-4.02,1c-3.91-0.21-7.82-0.55-11.71-1.02c-1.88-0.17-2.62-1.04-2.44-3.06
		c0.3-4.99,0.75-10.1,1.32-15.07c0.19-2.15,1.07-2.89,3.35-2.69c3.78,0.19,7.86,0.01,11.18,2.33c0.12,0.15,0.26,0.16,0.39,0.17
		c0.67,0.06,1.22-0.03,1.42-0.69c0.33-0.65,0.52-1.31,0.58-1.98l1.13-12.92c0.05-0.54-0.04-1.09-0.13-1.64
		c-0.2-0.83-0.71-1.15-1.53-1.08c-0.27-0.02-0.55,0.09-0.83,0.2c-3.81,1.7-7.64,0.55-11.53,0.08c-1.75-0.15-2.22-1.01-2.19-2.9
		c-0.06-0.82,0.01-1.63,0.09-2.57l0.94-10.76c0.07-0.81,0.15-1.75,0.36-2.54c0.31-2.01,1.03-2.49,3.07-2.58l4.57,0.4
		c9.14,0.94,6.64,0.04,13.56,4.58c0.76,0.61,1.68,0.96,2.58,1.45c0.53,0.18,1.23-0.16,1.28-0.7c0.35-0.92,0.43-1.86,0.66-2.92
		l0.98-11.17c0.04-0.4,0.07-0.81-0.02-1.36c0.1-2.7-0.27-3.14-2.81-3.5c-0.93-0.22-1.88-0.16-2.96-0.26
		c-4.83-0.56-9.68-0.98-14.52-1.41c-6.74-0.45-13.32-1.17-20.06-1.62c-2.96-0.26-3.42,0.38-2.59,3.3l0.33,0.84
		c1.24,2.82,1.27,5.67,1.01,8.63c-1.03,10.21-1.8,20.59-2.7,30.81c-0.88,10.09-1.89,20.04-2.64,30.14
		c-0.32,3.63-0.76,7.12-2.92,10.18c-0.3,0.38-0.47,0.77-0.64,1.16c-0.52,1.31-0.07,2.3,1.27,2.55l2.56,0.22
		C543.2,350.69,554.22,351.79,565.12,352.74L565.12,352.74z M586.51,354.38l32.82,4.21c1.74,0.22,3.37,0.3,4.96,0.64
		c1.47,0.19,2.86-0.04,3.94-0.99l5.29-4.09c1.06-0.82,1.73-1.82,1.9-3.16c0.14-1.07,0.29-2.28,0.43-3.35l3.99-31.08
		c1.29-10.05,2.69-19.94,3.83-29.87c1-7.77,1.56-5.79-3.56-12.58c-1.27-1.8-2.92-2.69-5.2-2.98c-12.48-1.46-24.93-3.06-37.39-4.66
		c-0.67-0.09-1.34-0.17-2.03-0.12c-0.94-0.12-1.58,0.61-1.56,1.57l0.26,1.12c1.23,3.15,0.97,6.25,0.56,9.47l-8.09,63.1
		c-0.34,2.68-1.07,5.17-2.59,7.43C581.47,353.33,581.56,353.75,586.51,354.38L586.51,354.38z M615.92,342.77l-8.71-1.12
		c-0.8-0.1-1.74-0.22-2.53-0.46c-1.59-0.34-2.16-1.23-2.2-3.01c0.1-0.8,0.22-1.74,0.33-2.55l6.06-47.29
		c0.62-4.82,1.07-5.17,5.76-4.57l8.71,1.12c0.94,0.12,1.74,0.22,2.53,0.46c1.46,0.32,2.16,1.23,2.12,2.59c0,1.09-0.16,2.29-0.3,3.37
		c-1,7.77-1.99,15.54-2.97,23.18l-3.04,23.71C621.06,343.02,620.76,343.25,615.92,342.77L615.92,342.77z M721.59,376.32
		c7.65,1.67,5.63,2.06,12.71-2.48c2.03-1.08,3.07-2.65,3.42-4.92l3.14-14.38c0.63-2.9,1.16-5.97,1.96-8.97
		c0.68-2.48,0.61-4.7-1.02-6.72c-0.24-0.19-0.34-0.35-0.54-0.67c-1.83-3.02-1.87-3.45,1.28-5.25c2.67-1.49,3.96-3.56,4.49-6.62
		c1.25-6.36,2.79-12.8,4.2-19.27c1.73-7.92,2.06-5.63-2.56-13c-1.11-1.9-2.57-2.77-4.69-3.23l-36.82-8.03
		c-0.53-0.12-1.06-0.23-1.74-0.24c-1.61-0.21-2.18,0.49-2,2.19l0.18,0.45c1.08,3.28,0.36,6.58-0.36,9.87l-12.94,59.38
		c-0.81,3.69-1.85,7.2-4.44,10.23c-2.25,2.69-1.86,3.46,1.7,4.24C698.57,371.54,710.46,374.19,721.59,376.32L721.59,376.32z
		 M715.98,322.15c-1.98-0.43-2.6-1.4-2.2-3.24c0.99-5.18,2.14-10.45,3.39-15.57c0.43-1.98,1.4-2.6,3.38-2.17
		c4.25,0.79,8.47,1.71,12.67,2.76c2.08,0.59,2.6,1.4,2.21,3.8c-0.52,2.38-1.06,4.88-1.58,7.26c-0.58,2.64-1.12,5.15-1.83,7.76
		c-0.43,1.98-1.4,2.6-3.38,2.17C724.4,324.13,720.18,323.21,715.98,322.15L715.98,322.15z M708.22,357.78
		c-2.11-0.46-2.6-1.4-2.17-3.38c0.41-2.54,0.99-5.18,1.57-7.81l0,0l1.5-6.86c0.65-2.35,1.48-2.99,3.59-2.53
		c4.25,0.79,8.45,1.84,12.67,2.76c1.95,0.56,2.6,1.4,2.17,3.38c-0.96,5.04-2.05,10.06-3.31,15.18c-0.4,1.85-1.37,2.47-3.35,2.03
		C716.63,359.75,712.41,358.83,708.22,357.78L708.22,357.78z M766.97,388.32l13.59,4.05c0.65,0.19,1.17,0.35,1.76,0.24
		c0.69,0.06,1.23-0.34,1.46-1.12c0.06-0.69,0-1.41-0.07-2.13c-0.61-3.14-0.02-6.07,0.99-9.01l6.82-22.91
		c0.83-3.27,2.37-6.06,4.68-8.61c7.67-8.71,15.33-17.42,22.87-26.16c2.1-2.33,4.08-4.7,6.77-6.16c0.37-0.31,0.75-0.62,0.83-0.88
		c0.45-0.57,0.48-1.13-0.13-1.45c-0.57-0.45-1.22-0.64-1.86-0.84c-4.62-1.52-9.32-2.78-14.11-4.2l-1.55-0.46
		c-0.98-0.01-1.75,0.18-1.92,1.26c-0.17,1.5-0.72,2.89-1.66,4.16c-4.05,5.56-8.1,11.11-12.24,16.5c-0.32,0.61-0.86,1.01-1.45,1.54
		c-0.34,0.18-0.85,0.03-1-0.44c-0.23-0.63-0.47-1.27-0.53-1.99c-0.31-7-0.79-13.91-1.1-20.9c-0.04-1.28,0.05-2.52,0.65-3.61
		c0.94-1.27,0.1-2.23-1.07-2.57l-8.03-2.39l0,0l-8.41-2.51c-1.42-0.42-2.12,0.5-1.69,1.89c0.88,2.24,1.81,4.34,2.06,6.81
		c1.73,12.64,3.56,25.44,5.42,38.11c0.29,2.34,0.1,4.4-0.56,6.6c-2.83,9.02-5.44,18.25-8.14,27.31c-0.66,2.2-1.53,4.19-3.15,5.83
		c-0.54,0.4-0.99,0.97-1.32,1.58c-0.36,0.74-0.13,1.37,0.57,1.86C765.93,388.01,766.45,388.17,766.97,388.32L766.97,388.32z"/>
	<path class="st0" d="M161.28,192.49h64.32c2.23,0,4.05,1.82,4.05,4.05v6.54c0,2.23-1.82,4.04-4.05,4.04h-64.32
		c-2.22,0-4.05-1.82-4.05-4.04v-6.54C157.23,194.31,159.05,192.49,161.28,192.49L161.28,192.49z M632.16,192.49h64.32
		c2.22,0,4.04,1.82,4.04,4.05v6.54c0,2.23-1.82,4.04-4.04,4.04h-64.32c-2.22,0-4.04-1.82-4.04-4.04v-6.54
		C628.11,194.31,629.93,192.49,632.16,192.49L632.16,192.49z"/>
	<path class="st1" d="M100.38,666.5l20.82,5.21c1.69,0.42,3.21,0.55,4.66,0.91c1.76,0.18,3.09-1.03,2.97-2.6
		c0-2.06-0.24-4.18-0.78-6.11c-0.42-3.45-0.36-6.78,0.43-9.93l9.63-38.49c1.7-6.78,2.91-7.5,9.69-5.81
		c9.74,2.18,19.12,4.79,28.56,7.15c13.37,3.09,10.23,3.33,21.61-3.08c4.78-2.66,7.2-6.17,8.48-11.25
		c3.94-16.76,8.42-33.65,12.6-50.35c2.85-12.41,3.15-9.5-3.26-20.88c-2.48-4.48-5.75-6.84-10.89-7.87
		c-11.2-2.54-22.51-5.63-33.65-8.42l-32.2-8.06c-9.2-2.3-9.56-1.88-7.99,7.26c0.73,4.3,1.21,8.53,0.12,12.89
		c-10.36,40.36-20.42,80.55-30.23,120.79c-0.91,3.63-2.48,6.84-4.78,9.86c-0.73,0.85-1.51,1.94-2.06,3.09
		c-0.91,1.57-0.55,3.21,1.09,3.87S98.51,665.78,100.38,666.5L100.38,666.5z M176.24,587.49c-8.29-1.82-16.52-3.88-24.69-6.18
		c-2.66-0.67-3.75-2.48-3.33-5.21c-0.06-0.79,0.18-1.76,0.36-2.48l6.54-26.14c0.18-0.73,0.36-1.45,0.79-2.12
		c1.09-3.33,2.66-4.48,5.81-3.69c8.29,1.82,16.52,3.88,24.69,6.18c2.9,0.73,3.93,2.79,3.15,5.93c-1.09,5.39-2.42,10.71-3.7,15.79
		c-1.21,4.84-2.42,9.68-3.82,14.22C181.2,587.18,179.38,588.27,176.24,587.49L176.24,587.49z M214.47,691.83l29.59,4.6
		c10.11,1.57,19.97,3.1,29.84,4.63l5.42,0.84c3.98,0.37,5.37-0.43,5.98-4.37l3.56-22.93c0.11-0.74,0.23-1.48-0.15-2.3
		c-0.09-1.02-0.72-1.88-1.95-2.07c-0.74-0.12-1.52,0.02-2.3,0.15c-7.27,2.91-14.63,1.52-22.03,0.37l-12.33-1.92
		c-1.48-0.23-2.96-0.46-4.4-0.94c-2.39-0.88-3.43-2.3-3.29-4.8c-0.13-0.78-0.02-1.52,0.1-2.26c0.23-1.48,0.46-2.96,0.69-4.44
		l15.71-101.1c0.77-4.93,1.74-9.58,4.9-13.63c0.57-0.42,0.93-1.12,1.29-1.82c1.45-2.81,0.73-4.68-2.23-5.14
		c-9.58-1.74-19.44-3.27-29.1-4.52c-2.96-0.46-4.71,1.04-3.65,3.98c2.46,6.95,1.38,13.85,0.31,20.76l-17.58,113.18
		c-0.96,6.16-1.88,12.08-5.96,17.26c-0.28,0.21-0.32,0.45-0.36,0.7c-1.37,2.31-0.61,3.95,1.81,4.57
		C210.28,691.18,212.25,691.48,214.47,691.83L214.47,691.83z M303.26,705.15l30.14,1.82c0.5,0.03,1,0.06,1.51-0.16
		c2.26-0.11,3.33-1.3,2.97-3.57c-0.82-3.05-2.14-5.88-1.2-9.07c2.44-7.35,4.39-14.73,6.83-22.09c1.22-3.68,2.51-4.35,6.51-4.36
		l29.39,1.78c3.72,0.47,4.91,1.55,5.68,5.34l2.79,15.92c0.93,5.31,2.11,10.63-0.95,15.69l-0.05,0.75c-0.08,1.25,0.11,2.26,1.34,2.58
		c1.23,0.32,2.46,0.65,3.71,0.72l28.64,1.73c0.75,0.05,1.49,0.09,2.26-0.11c1.76-0.14,2.85-1.58,1.94-3.13
		c-0.44-1.03-0.88-2.05-1.58-2.85c-3.5-4.21-4.94-9.3-6.1-14.87c-8.23-41.75-16.72-83.26-25.2-125.02
		c-0.93-5.31-2.61-10.66,0.46-15.97l0.04-0.75c0.06-1-0.38-2.02-1.36-2.33c-1.46-0.59-2.96-0.68-4.7-0.78
		c-4.72-0.53-9.7-0.84-14.43-1.12c-0.02,0.25-0.02,0.25-0.02,0.25l-17.93-1.08c-2.26,0.11-3.61,1.78-2.97,3.57
		c2.18,5.38,0.39,10.02-1.15,14.93l-41.21,123.51c-1.52,4.41-3.27,8.55-6.48,12.11c-1.06,0.94-1.89,2.39-2.48,3.85
		c-0.53,0.47-0.09,1.49,0.64,1.79C301.28,704.78,302.26,705.09,303.26,705.15L303.26,705.15z M365.34,640.68
		c-2.72-0.41-5.18-0.3-7.89-0.75c-1.98-0.33-3.12-2.19-2.75-4.17c0.08-1.25,0.4-2.48,0.72-3.71c3.73-12.02,7.2-24.06,10.93-36.09
		c0.32-1.23,0.9-2.45,1.72-3.65c0.53-0.47,1.54-0.66,1.99,0.12c0.45,0.78,0.89,1.8,1.08,2.81c2.46,13.15,4.66,26.28,6.87,39.41
		c0.94,5.06-0.64,6.46-5.89,6.39C369.85,641.21,367.6,640.73,365.34,640.68L365.34,640.68z M444.06,713.14
		c8.98-0.23,17.96-0.46,27.18-0.95c1-0.03,2-0.05,2.98-0.58c0.99-0.27,1.72-1.04,1.44-2.28c-0.54-1.48-0.83-2.97-1.61-4.45
		c-2.61-4.43-3.49-9.4-3.38-14.89c-0.32-12.47-0.65-25.19-0.97-37.67l-0.96-37.17c-0.08-2.99-1.16-6.21,1.02-9.01
		c3.78,1.4,3.88,5.14,4.95,8.11c11.47,28.66,22.7,57.58,33.93,86.49c0.54,1.48,1.33,3.21,1.87,4.94c1.34,3.71,3.63,5.4,7.62,5.05
		l22.45-0.58c1-0.03,2-0.05,2.99-0.33c1.74-0.29,2.96-1.57,3.17-3.08c0.18-2.75,0.11-5.24,0.05-7.74l-3.37-130.71
		c-0.14-5.24-0.02-10.48,2.36-15.04c0.47-1.01,0.7-2.01,0.92-3.02c0.45-1.76-0.58-2.98-2.33-3.18c-1-0.22-2-0.2-3-0.17
		c-8.23,0.21-16.47,0.18-24.7,0.64c-1.5,0.04-2.74,0.07-3.98,0.35c-1.24,0.28-2.21,1.31-1.92,2.8c0.03,1,0.31,2.24,0.83,2.97
		c3.13,5.16,3.52,10.64,3.67,16.38c0.3,21.46,0.86,42.91,1.41,64.36c0.05,2,0.35,3.98,0.15,5.99c0.04,1.5,0.59,3.48-1.65,3.79
		c-1.49,0.29-1.78-1.45-2.31-2.44l-1.61-4.45c-6.42-16.56-12.84-33.12-19.26-49.93l-12.84-33.12c-1.61-4.45-4.15-5.88-8.64-5.77
		c-7.98,0.46-15.96,0.41-23.94,0.87c-3.24,0.08-6.24-0.09-9.48,0.24c-2.49,0.31-3.45,1.84-2.63,4.31c0.54,1.73,1.33,3.21,2.12,4.94
		c1.83,3.2,2.42,6.68,2.52,10.42l3.25,125.97c0.1,3.74-0.31,7.25-1.72,10.78c-0.47,1.01-0.94,2.27-1.16,3.52
		c-0.45,1.76,0.58,2.98,2.34,3.43C442.55,712.93,443.31,713.16,444.06,713.14L444.06,713.14z M600.69,707.56l1.49-0.14l28.57-2.73
		c0.74-0.07,1.47-0.39,2.19-0.71c0.97-0.34,1.37-1.38,1.28-2.38l-1.03-2.91c-3.21-4.71-3.98-10.15-4.5-15.61l-9.72-101.6
		c-0.21-2.24-0.45-4.72-0.42-6.98c-0.06-3.25,1.09-4.37,4.54-4.95c3.45-0.58,6.51-0.12,9.88,1.06c4.66,1.56,9.32,3.12,13.96,4.43
		c2.08,0.8,3.7-0.6,3.76-2.62c-0.24-2.48-0.25-5.24-0.49-7.72c-0.64-6.71-1.28-13.41-2.17-20.1c-0.45-4.72-1.52-5.37-6.51-5.14
		c-1.51-0.11-3.23,0.31-4.72,0.45c-11.7,0.87-23.62,2.01-35.3,3.12l-34.78,3.33c-1.96,0.44-3.97,0.38-6.19,0.84
		c-5.19,0.75-5.87,1.56-5.59,7.05l2.07,21.61c0.17,1.74,0.33,3.48,0.75,5.19c0.46,2.21,2.05,3.06,4.21,2.1l11.42-6.36
		c2.39-1.23,4.51-2.69,6.97-3.17c8.65-1.33,9.51-0.16,10.2,7.05c0.05,0.5,0.09,0.99,0.14,1.49L600.73,687
		c0.43,4.47,0.33,8.74-1.52,12.93l-1.09,4.37C597.79,706.08,598.9,707.23,600.69,707.56L600.69,707.56z M707.58,693.69
		c13.68-2.86,27.46-5.22,41.18-7.83c15.89-3.28,11.85-0.48,21.62-14.53c2.43-3.26,3.09-6.43,2.1-10.31l-8.21-43.14
		c-0.37-1.96-0.75-3.92-1.76-5.25c-4.6-5.48-8.95-11-16.67-12.83c-12.26-3-24.36-6.54-36.66-9.79l-11.86-3.59
		c-2.39-0.56-3.99-2.29-4.46-4.74l-3.03-15.93c-0.69-4.95,0.5-6.7,5.41-7.63c7.06-1.6,14.17-2.95,21.33-4.06
		c4.9-0.93,6.7,0.5,7.83,5.11c1.12,5.88,2.97,11.63,1.84,17.68c-0.61,2.15,0.9,3.39,2.91,3.26c1.27,0.01,2.5-0.22,3.97-0.5
		l17.4-3.31c9.56-1.82,9.96-2.4,6.18-11.59c-2.44-6.14-4.88-12.28-6.14-18.9c-2.7-14.22-0.78-10.77-12.84-19.4
		c-3.84-2.83-7.8-3.6-12.41-2.47c-8.04,1.78-16.18,3.08-24.27,4.62c-6.37,1.21-12.75,2.43-19.12,3.64
		c-14.91,3.09-11.11,0.34-20.89,14.39c-1.98,2.92-2.41,6.05-1.75,9.48l8.25,43.39c0.33,1.72,0.45,3.72,1.47,5.05
		c4.64,5.72,9.29,11.44,17.69,12.89c13.63,2.23,27.16,5.25,40.93,8.22l6.06,1.13c2.15,0.61,3.65,1.85,4.32,4
		c1.45,7.6,2.89,15.2,4.09,22.84c0.51,2.7-0.88,4.74-3.57,5.25l-25.25,4.8c-2.99,0.31-4.74-0.88-5.35-4.06
		c-1.46-6.33-3.65-12.51-2.12-19.16c0.15-0.54,0.06-1.03-0.03-1.52c0.01-1.27-0.86-1.87-1.89-1.93c-1.56-0.21-3.03,0.07-4.51,0.35
		c-5.64,1.07-11.28,2.15-16.91,3.22l-5.15,0.98c-3.63,0.94-4.58,2.65-2.79,5.36c2.56,4.09,3.69,8.7,4.53,13.11l2.19,11.52
		c2.7,14.22,0.83,11.02,12.59,19.45C698.28,694.19,702.43,694.67,707.58,693.69L707.58,693.69z"/>
	<path class="st0" d="M442.49,411.09l-8.03-36.63c-1.93-7.74-9.25-27.32-14.91-29.47c0.91,3.32,4.01,8.19,6.2,15.91
		c1.64,5.77,2.91,11.82,4.11,18.09c2.1,10.97,4.46,26.56,5.34,38.18c-0.15-0.55-5.96-10.05-8.07-10.36c-1.3-2.76-3.03-3.76-4.6-6.63
		c-1.46-2.67-2.83-4.84-4.01-7.42c-6.76-14.74-3.83-15.88-17.83-27.52c-3.91-3.25-11.23-5.06-17.73-5.02
		c7.39,2.34,12.69,2.32,19.19,10.45c2.17,2.71,7.91,17.08,9.27,20.9c-3.49-0.95-17.36-11.41-20.96-9.12
		c0.16,2.34,5.18,5.84,8.9,9.91c6.91,7.56,19.78,23.81,22.61,34.34l-5.02-6.42c-0.09-0.74,0.46-0.32-0.24-0.59
		c-1.11-3.64-3.28-6.25-4.94-8.77l-5.49-7.73c-4.09-4.51-7.94-9.61-12.64-14.25c-6.8-6.71-17.94-11.56-28.49-11.03
		c-3.18,0.16-8.26,1.66-9.41,3.68c8.1-0.72,15.92-2.74,26.1,4.23c9.28,6.35,23.11,25.68,28.55,36.76c1.84,3.74,3.51,7.26,5.47,11.12
		c1.46,2.89,4.06,8.89,6.4,10.49c-0.33,2.66-2.14,2.44-4.73,3.25c-1.94,0.6-3.48,1.27-5.22,2.47c-5.76,2.43-7.15,7.05-6.81,12.73
		c0.25,4.21,1.37,13.74,5.39,15.31c3.2,6.91,10.68,40.02,14.06,43.54c5.81,6.03,20.34,7.02,26.76,5.38c2.6-0.41,5.81-0.96,7.43-2.38
		c4.55-1.37,5.81-4.12,7.12-8.81l10.18-34.54c1.6-5.06,4.69-4.4,5.42-9.9c1.45-10.88,4.17-15.98-4.88-21.25
		c-1.72-1-2.87-1.72-4.91-2.58c-6.21-2.63-4.04-0.81-4.91-2.76l-0.23-0.24l9.53-12.56c3.66-4.53,6.52-8.06,9.84-12.49
		c2.78-3.72,6.34-10.46,9.25-13.09c6.53-5.92,9.79-1.66,16.58-0.07c-0.89-1.44,0.03-0.36-1.3-1.56c-0.46-0.42-1.03-0.75-1.74-1.13
		c-1.56-0.86-2.02-1.01-3.81-1.55c-1.2-0.36-2.89-0.86-4.29-0.96c-1.85-0.13-3.27,0.03-4.65,1.15c-3.5-0.29-7.63,2.75-9.76,4.88
		l-6.89,7.8c2.79-10.52,10.22-20.05,14.73-28.55c5.67-10.66,9.62-19.36,11.93-32.15c1.41-7.83,0.65-20.17-7.1-21.07
		c3.86,8.33,4.32,10.57,1.02,20.58c-1.98,5.99-5.6,12.15-8.47,16.74c-1.26,2.02-1.69,1.86-2.7,3.59
		c-5.44,9.34-15.8,18.57-18.39,26.81l-6.21,12.36c-2.51-2.68,8.65-31.88,7.81-33.72c-7.02,7.55-7.43,22.55-10.8,28.38
		c-0.49-9.35-0.17-19.92-0.3-29.38c-0.12-9.01-1.41-18.47-1.7-27.49c-0.29-9.08-2.59-16.77-2.34-26.93
		c0.29-12.16,0.75-16.48-4.38-25.21h-1.51c2.88,11.08,2.23,16.72,0.22,27.79l-3.28,28.34c-1.86,18.53-1.53,39.82-5.19,57.28
		L442.49,411.09L442.49,411.09z"/>
</g>
</svg>
