<?xml version="1.0" encoding="utf-8"?>
<!-- Generator: Adobe Illustrator 25.0.0, SVG Export Plug-In . SVG Version: 6.00 Build 0)  -->
<svg version="1.1" id="Layer_1" xmlns="http://www.w3.org/2000/svg" xmlns:xlink="http://www.w3.org/1999/xlink" x="0px" y="0px"
	 viewBox="0 0 864 864" style="enable-background:new 0 0 864 864;" xml:space="preserve">
<style type="text/css">
	.st0{fill-rule:evenodd;clip-rule:evenodd;}
</style>
<g>
	<path d="M494.26,421.58l-0.91,13.28c-0.09,1.26-0.16,2.87-0.41,3.22c-2.92,4.2-24.91,6.35-29.93,6.81
		c-16.95,1.55-42.52,0.78-59.84-0.64c-7.27-0.59-20.36-1.78-26.39-3.78c-1.71-0.57-3.71-1.49-4.67-2.58
		c-0.43-0.49-0.42-1.69-0.54-4.22l-0.71-14.17c-0.07-1.44-0.11-2.4-0.09-3.06c0.44,1.79,2.43,2.53,4.38,3.04v0
		c4.79,1.26,15.3,2.96,20.74,3.6c23.15,2.73,68.43,2.17,90.54-2.06c3.9-0.75,8.06-1.65,7.99-5.04
		C495.56,416.98,494.53,419.62,494.26,421.58L494.26,421.58z M419.52,266.56c-0.03,0.03-0.07,0.05-0.11,0.08
		c-0.07,0.05-0.11,0.12-0.13,0.2c-0.01,0.08,0,0.16,0.05,0.23c-3.02,8.43-5.44,17.07-7.22,25.85c-18.98-10.69-41.24-11.87-62.3-7.91
		c-1.44,0.27-2.88,0.57-4.31,0.89c-0.93,0.21-1.52,1.14-1.32,2.07c0.15,0.67,0.67,1.18,1.33,1.32
		c18.18,4.38,35.36,12.17,47.09,27.25c3.1,3.98,5.69,8.31,7.83,12.87c-24.95-9-54.69-1.27-78.91,6.66c-0.91,0.3-1.41,1.28-1.11,2.18
		c0.22,0.67,0.82,1.14,1.53,1.19c22.2,1.63,48.29,5.5,65.87,20.36c1.93,1.63,3.76,3.39,5.46,5.25c-2.07-0.25-4.15-0.41-6.24-0.48
		c-0.24-0.01-1.2-0.13-1.71,0c-14.47-0.17-28.73,4.01-40.79,12c-6.49,4.3-12.22,9.62-17.04,15.73c-0.59,0.75-0.47,1.84,0.28,2.43
		c0.45,0.36,1.05,0.47,1.6,0.29c19.57-6.18,38.82-7.18,58.31-0.35c7.87,2.75,15.28,6.6,22.26,11.13
		c-10.19,0.53-21.07,1.52-29.95,3.08c-3.74,0.66-9.69,1.75-11.92,4.27c-1.4,1.58-1.11,3.58-0.97,6.53l0.73,14.61
		c0.18,3.88,0.22,4.68,1.45,6.08c0.89,1.02,2.21,1.92,3.75,2.65c4.43,18.88,11.14,47.96,15.71,65.28c1.82,6.9,3.02,10.69,4.13,12.95
		c1.33,2.69,2.54,3.46,4.29,4.26c10.36,4.68,29.37,5.76,40.88,5.31c8.08-0.32,19.02-1.65,26.64-3.54c3.37-0.84,6.02-1.73,7.76-4.16
		c0.68-0.95,1.19-2.03,1.95-4.69c0.69-2.41,1.63-6.34,3.19-13.11c1.49-6.45,3.67-16.01,6.18-27.12c2.42-10.68,5.13-22.71,7.85-34.76
		c2.49-1.12,4.75-2.49,5.21-5.21c0.12-0.69,0.19-1.59,0.29-3.09c0.19-2.7,0.55-7.88,0.9-13.09l0-0.05c0.44-2.02,0.87-4.03,0.61-5.69
		c-0.5-3.3-3.55-4.55-6.56-5.37c-5-1.36-15.24-3.03-21.01-3.7c-2.73-0.32-5.65-0.59-8.7-0.83c7.76-6.49,16.86-11.54,26.2-15.16
		c13.93-5.4,29.51-8.07,44.42-6.95c0.95,0.07,1.79-0.65,1.86-1.6c0.05-0.66-0.29-1.3-0.85-1.63c-5.68-3.66-11.73-6.8-18.01-9.28
		c-14.01-5.54-29.61-7.95-44.45-4.65c-3.76,0.84-7.42,2.03-10.94,3.58c6.39-7.22,13.73-13.59,21.81-18.86
		c18.03-11.75,39.45-17.76,60.97-15.8c0.67,0.1,1.34-0.21,1.71-0.78c0.52-0.8,0.28-1.88-0.52-2.4c-8.25-5.32-17.09-9.88-26.41-13.03
		c-16.33-5.52-33.34-6.41-49.59-0.3c10.9-14.32,28.12-26.36,43.07-35.9c0.43-0.27,0.73-0.71,0.81-1.21c0.15-0.95-0.5-1.83-1.45-1.98
		c-2.44-0.38-4.9-0.68-7.36-0.88c-19.19-1.56-38.12,2.7-54.08,13.63c-3.15-18.01-8.36-35.56-15.34-52.46
		c-0.15-0.37-0.43-0.68-0.79-0.87c-0.85-0.45-1.89-0.13-2.34,0.71C426.62,248.97,422.74,257.64,419.52,266.56L419.52,266.56z
		 M445.28,289.25c0.4,2.07,0.78,4.14,1.13,6.22c-0.8,0.61-1.6,1.24-2.38,1.88c-4.42,3.63-8.43,7.75-11.96,12.24
		c-4.81-5.77-10.43-10.76-16.78-14.78c0.42-2.13,0.87-4.24,1.36-6.35c0.35,0.03,0.69,0.06,1.04,0.1c2.82,0.27,6.91,0.72,9.06-1.51
		c0.05-0.05,0.14-0.15,0.23-0.23c1.26,1.38,2.41,2.16,4.28,2.7c3.24,0.93,5.16,0.84,7.39-1.7
		C440.26,285.97,443.65,288.29,445.28,289.25L445.28,289.25z M444.38,284.86c-3.28-1.59-5.73-2.33-8.35,0.67
		c-1.13,1.29-2.22,1.1-3.82,0.64c-1.23-0.35-1.94-0.87-2.77-1.8c-2.06-2.31-2.94-2.06-5.18,0.25c-1.04,1.08-4.79,0.62-6.25,0.48
		c-0.18-0.02-0.36-0.03-0.54-0.05c1.41-5.55,3.07-11.03,4.99-16.42c0.33-0.3,0.97-1,0.98-1.17c2.06,1.23,4.19,2.1,5.81-0.02
		c2.66,0.78,4.26,0.58,6.32-1.32c1.26-1.17,3.2,0.37,4.34,1.15C441.62,273.08,443.12,278.95,444.38,284.86L444.38,284.86z
		 M487.54,296.25c-0.18-0.69-0.46-1.16-0.95-1.78c-0.36-0.46-0.36-0.93-0.36-1.5c0-1.7-0.67-2.98-1.49-4.4l-0.03-0.06
		c0.94-0.54,1.27-1.39,0.95-2.5c-0.26-0.94-1.18-1.73-1.99-2.37c6.51-0.95,13.12-1.11,19.68-0.58c0.82,0.07,1.65,0.14,2.47,0.23
		C499.57,287.37,493.42,291.65,487.54,296.25L487.54,296.25z M475.78,306.38c-0.2-0.63-0.45-1.23-0.72-1.84c-0.7-1.6-1-2.7-1-4.48
		c0-2.66-1.81-3.51-3.95-4.27c-0.26-0.09-0.43-0.05-0.6,0.03c0.01-3.7,0.07-5.35-3.36-7.1c-0.15-0.08-0.3-0.15-0.45-0.23
		c4.38-1.77,8.91-3.12,13.54-4.07c0.53,0.6,1.21,1.11,1.84,1.6l0.33,0.26c-0.67,0.63-0.71,1.48-0.45,2.41
		c0.16,0.59,0.48,1.12,0.79,1.64c0.45,0.77,1.01,1.74,1.01,2.65c0,1.55,0.17,2.46,1.12,3.66c0.48,0.61,0.48,1.43,0.47,2.18
		C481.39,301.22,478.52,303.74,475.78,306.38L475.78,306.38z M472.76,309.38c-2.72,2.82-5.29,5.8-7.63,8.95
		c-0.32-0.3-0.66-0.54-1.05-0.79c-0.77-0.49-0.59-3.05-0.59-3.8c0-3.18-2.38-3.76-5.05-3.76c-0.75,0-1.51,0.05-2.25,0.1
		c-1.23,0.07-4.91,0.47-5.5-0.98c-1.21-2.95-3.97-3.09-6.74-3.22c-0.88-0.04-2.59-0.06-3.45-0.6c1.82-1.84,3.74-3.59,5.74-5.24
		c4.77-3.93,10.01-7.24,15.6-9.87c0.88,0.64,1.76,1.14,2.73,1.63c1.79,0.91,1.47,2.39,1.47,4.35c0,1.86,1.42,2.38,2.91,2.91
		c0.38,0.14,1.63,0.54,1.63,1c0,2.32,0.39,3.78,1.3,5.87C472.42,307.15,472.73,308.04,472.76,309.38L472.76,309.38z M446.58,332.88
		c-0.71-0.63-1.37-1.32-1.99-2.04c-0.47-0.54-1.7-2.01-1.94-2.66c-1.22-3.31-3.07-3.66-6.07-3.03c-0.24-2.07-1.99-2.35-3.89-2.35
		c-0.37,0-0.75,0.02-1.12,0.03c-1.29,0.04-2.67,0.07-3.94-0.24c2.92-5.31,6.42-10.28,10.48-14.78c1.58,1.35,3.69,1.44,5.69,1.53
		c0.93,0.04,3.25,0.01,3.68,1.07c1.49,3.64,5.66,3.32,8.91,3.13c0.68-0.04,1.37-0.08,2.05-0.08c0.17,0,1.57,0.01,1.57,0.29
		c0,2.7-0.22,5.17,2.19,6.73c0.38,0.24,0.63,0.45,0.88,0.78c-0.21,0.31-0.42,0.63-0.62,0.95
		C456.72,325.03,451.41,328.66,446.58,332.88L446.58,332.88z M425.99,325.72c1.86,0.64,3.73,0.63,5.67,0.57
		c0.34-0.01,0.68-0.02,1.02-0.02c0.21,0,0.34-0.05,0.46-0.12c0.12,1.64,0.87,2.6,2.71,2.6c0.49,0,0.97-0.1,1.44-0.21
		c0.97-0.21,1.68-0.29,2.1,0.83c0.4,1.09,1.81,2.85,2.58,3.73c0.64,0.74,1.32,1.45,2.04,2.12c-5.19,4.93-9.76,10.5-13.76,16.42
		c-3.02-3.83-6.36-7.42-10.06-10.61C421.63,335.76,423.56,330.62,425.99,325.72L425.99,325.72z M516.43,334.12
		c2.09-1.85,1.96-4.23,1.75-6.92c-0.05-0.66,0.05-1.63,0.1-2.3c0.03-0.44,0.07-0.87,0.1-1.3c6.42,2.27,12.59,5.23,18.48,8.64
		C530.01,332.12,523.15,332.76,516.43,334.12L516.43,334.12z M501.34,338.43c-0.79-2.3-3.32-9.76-2.26-11.15
		c1.2-1.57,2.26-3.32,2.74-5.26c0.21-0.82,0.3-1.65,0.29-2.49c4.37,0.62,8.68,1.63,12.89,2.94c-0.07,0.73-0.13,1.46-0.19,2.18
		c-0.06,0.86-0.17,1.97-0.1,2.82c0.09,1.16,0.38,3.25-0.64,4.11c-1.24,1.05-1.67,1.89-1.83,3.48
		C508.55,335.97,504.91,337.1,501.34,338.43L501.34,338.43z M483.63,346.99c-0.17-1.42-0.1-2.8-0.01-4.24
		c0.15-2.48,0.25-4.58-0.82-6.91c-0.59-1.29-1.27-2.41-2.05-3.59c-1.11-1.68-1-2.13,0.29-3.82c2.31-3.03,1.98-5.89-0.18-8.66
		c5.85-1.03,11.83-1.21,17.75-0.65c0.06,0.69,0.01,1.37-0.16,2.06c-0.36,1.45-1.24,2.82-2.13,3.99c-2.2,2.88,0.6,11.09,1.78,14.53
		C493.1,341.75,488.26,344.19,483.63,346.99L483.63,346.99z M465.76,360.46c-0.61-0.39-1.25-0.61-1.94-0.84
		c-0.12-0.04-0.87-0.27-0.89-0.42c-0.18-1.53-0.17-3.92-1.75-4.68c-0.07-0.19-0.17-0.4-0.24-0.57c-0.94-2.16-1.62-3.32-3.35-4.86
		c-0.6-0.53-1.13-1.05-1.65-1.66c-0.23-0.27-0.72-2.56-0.82-2.99c-0.77-3.35-1.82-8.06-4.78-10.2c5.72-4.74,12.08-8.61,19.02-11.28
		c2.48-0.95,5.02-1.75,7.61-2.37c0.08,0.09,0.16,0.18,0.24,0.26c1.49,1.62,2.66,3.39,1.07,5.47c-2.56,3.37-2.62,4.52-0.42,7.84
		c0.68,1.02,1.28,2,1.79,3.11c0.75,1.65,0.61,3.51,0.5,5.27c-0.14,2.25-0.2,4.23,0.31,6.44
		C475.25,352.38,470.33,356.23,465.76,360.46L465.76,360.46z M446.29,379.71c-3.72-8.79-8.22-17.4-13.83-25.14
		c4.31-6.52,9.3-12.63,15.08-17.9c2.59,0.84,3.66,6.2,4.2,8.54c0.29,1.26,0.71,3.44,1.54,4.43c0.63,0.76,1.27,1.39,2,2.04
		c1.29,1.15,1.78,2.03,2.48,3.64c0.41,0.94,0.84,1.78,1.76,2.25c-0.19,0.61-0.09,1.5-0.03,2.04c0.26,2.15,1.43,2.72,3.27,3.31
		c0.11,0.03,0.22,0.07,0.32,0.11c-3.79,3.76-7.3,7.77-10.48,12C450.38,376.46,448.29,378.01,446.29,379.71L446.29,379.71z
		 M457.45,376.15c0.19,0.12,0.39,0.23,0.58,0.35c2.3,1.35,6.01,3.68,4.39,6.86c-1.69,3.31-0.95,5.06,1.06,7.79
		c0.88,1.19,1.61,2.26,1.91,3.75c0.19,0.95,0.49,1.98,0.75,2.91c0.11,0.38,0.21,0.75,0.32,1.12c-3.15,2.17-6.17,4.55-9,7.13
		l-2.13-0.12c-2.18-7.73-4.68-15.39-7.66-22.84C450.69,380.45,453.95,378.11,457.45,376.15L457.45,376.15z M478.61,369.47
		c0.56,0.67,1.25,1.28,1.9,1.87c0.32,0.29,2.01,1.79,2.11,2.09c0,3.36,0.08,5.83,3.59,6.63c1.17,0.27,1.48,1.05,1.8,2.1l-0.07,1
		c-0.09,1.56-0.14,3.08-0.09,4.64c-0.18,0.07-0.36,0.14-0.54,0.21c-6.19,2.4-12.19,5.38-17.81,8.93c-0.01-0.01-0.01-0.03-0.01-0.04
		c-0.24-0.86-0.52-1.79-0.69-2.66c-0.41-2.09-1.3-3.47-2.53-5.15c-1.07-1.45-1.66-2.37-0.75-4.15c2.48-4.86-0.62-8.22-4.43-10.64
		c3.58-1.66,7.33-2.92,11.19-3.78C474.37,370.05,476.48,369.7,478.61,369.47L478.61,369.47z M508.55,382.12
		c-0.01-0.09-0.02-0.18-0.03-0.27c-0.12-0.95-0.26-2.41-0.68-3.15c0-0.26,0.25-1.07,0.32-1.35c0.4-1.52,0.69-2.89,0.65-4.44
		c1.99,0.63,3.95,1.34,5.89,2.1c4.02,1.59,7.94,3.46,11.72,5.56C520.44,380.56,514.45,381.1,508.55,382.12L508.55,382.12z
		 M505.23,371.85c0.28,1.63-0.01,3.04-0.43,4.63c-0.33,1.25-0.7,2.54-0.05,3.76c0.13,0.26,0.28,1.68,0.32,2.03
		c0.02,0.16,0.04,0.33,0.06,0.49c-4.68,0.96-9.31,2.23-13.83,3.78c0-1.07,0.04-2.12,0.11-3.19c0.04-0.64,0.12-1.5-0.06-2.11
		c-0.78-2.61-1.72-3.97-4.38-4.58c-1.1-0.25-0.89-2.43-0.89-3.24c0-1.64-1.6-3.17-2.84-4.29
		C490.65,368.88,498.08,369.91,505.23,371.85L505.23,371.85z M432.41,245.55c2.21,5.59,4.24,11.26,6.05,16.99
		c-2.17-0.89-3.43-0.63-5.24,1.05c-1.16,1.07-2.18,0.83-3.63,0.33c-1.49-0.52-2.12-0.01-2.94,1.21c-0.22,0.07-1.24-0.53-1.42-0.64
		c-0.35-0.21-0.72-0.32-1.11-0.34C426.55,257.81,429.33,251.6,432.41,245.55L432.41,245.55z M400.82,322.59
		c-1.63-2.86-3.45-5.6-5.47-8.2l-0.05-0.06c0.09-0.34,0.18-0.69,0.22-1.04c0.05-0.38,0.03-0.77,0.03-1.17c0.01-0.25,0-0.53,0-0.78
		c0-0.64-0.22-3.19,0.92-3.07c3.76,0.38,4.3-1.47,4.21-4.96c0.17-0.08,1.1-0.05,1.32-0.04c5.56,0.12,7.8-1.79,8.31-7.41
		c0.79,0.44,1.58,0.9,2.35,1.38c4.37,2.69,8.41,5.86,12.07,9.46c-0.67,0.06-1.33,0.09-2,0.12c-1.1,0.05-2.24,0.04-3.14,0.75
		c-1.25,0.98-1.3,2.86-1.47,4.32c-0.07,0.56-0.13,1.11-0.21,1.67c-0.9,0.32-1.76,0.21-2.7,0.06c-3.72-0.57-4.84,0.29-5.53,4.27
		c-0.16,0.92-0.88,0.99-1.67,1.13c-2.21,0.4-3.73,0.92-5.31,2.58c-0.01,0-0.03,0.01-0.04,0.01
		C402.02,321.93,401.4,322.24,400.82,322.59L400.82,322.59z M405.07,331.28c-0.81-1.93-1.68-3.83-2.64-5.7
		c0.54-0.28,1.12-0.55,1.67-0.8c0.35-0.16,0.67-0.31,0.93-0.61c1.03-1.15,2.11-1.45,3.57-1.72c2.61-0.48,3.97-1.04,4.48-3.96
		c0.22-1.26,0.37-1.61,1.58-1.42c2.18,0.34,3.77,0.33,5.73-0.87l0.57-0.35c0.08-0.05,0.13-0.13,0.15-0.22l0.09-0.67
		c0.12-0.88,0.23-1.77,0.34-2.65c0.07-0.57,0.13-1.6,0.07-1.95c0.32-0.06,0.91-0.05,1.25-0.07c1.64-0.07,3.21-0.21,4.83-0.46
		c0.76,0.85,1.51,1.72,2.23,2.61c-5.7,7.94-9.93,16.83-12.67,26.2C413.48,335.74,409.41,333.26,405.07,331.28L405.07,331.28z
		 M406.91,294.1c-0.08,3.81-0.86,5.8-4.86,5.71c-2.67-0.06-4.77,0.01-4.77,3.33c0,0.37,0.15,1.75-0.48,1.68
		c-4.1-0.42-4.66,2.13-4.73,5.68c-3.63-3.99-7.72-7.5-12.17-10.54c0.07-0.27,0.14-0.54,0.21-0.81c0.1-0.4,0.08-0.51,0.48-0.65
		c1.91-0.68,1.63-2.54,1.43-4.16c-0.05-0.37-0.3-2.3,0.04-2.43c1.11-0.43,2.22-0.83,3.34-1.23c0.76-0.27,1.95-0.63,2.53-1.2
		c0.45-0.45,0.75-0.9,0.71-1.45C394.96,289.27,401.11,291.27,406.91,294.1L406.91,294.1z M384.5,287.32
		c-0.08,0.03-0.17,0.06-0.25,0.09c-1.15,0.41-2.29,0.83-3.42,1.27c-2.76,1.06-2.55,3.67-2.26,6.09c0.04,0.35,0.24,0.5,0.47,0.63
		c-1.47,0.58-1.83,1.12-2.2,2.59c-7.22-4.43-15.13-7.68-23.24-10.11C363.79,286.22,374.26,285.84,384.5,287.32L384.5,287.32z
		 M390.42,370.82c-0.28,0.16-0.86,0.33-1.03,0.37c-1.7,0.45-2.37,1.51-1.91,3.2c0.19,0.72,0.6,1.38,0.98,2.01
		c0.24,0.4,0.55,0.88,0.68,1.29l-0.24,0.09c-1.32,0.48-3.24,1.18-4.09,2.35c-1.05,1.45-0.62,2.73,0.78,3.75
		c1.27,0.93,2.48,1.48,3.94,2.04c1.19,0.45,0.95,0.87,0.53,2.07c-0.67,1.95-0.5,2.77,1,4.03c0.13,0.11,0.23,0.2,0.32,0.3
		c-0.85-0.32-1.7-0.63-2.55-0.93c-5.52-1.94-11.2-3.33-17-4.13c-0.15-0.14-0.36-0.32-0.43-0.27c0.03-0.08,0.04-0.15,0.04-0.24
		c0-0.54-0.02-1.06-0.09-1.6c-0.25-2.11-0.4-4.39-0.48-6.52c-0.03-0.74-0.3-0.82-0.58-1.2c2.18-1.41,2.45-3.24,1.11-5.42
		c-0.53-0.85-1.25-1.61-1.96-2.34c5.27-1.18,10.68-1.75,16.07-1.68c1.4,0.21,3.28,1.21,4.35,2.18
		C390.02,370.33,390.27,370.58,390.42,370.82L390.42,370.82z M388.51,381.65c0.51-0.23,1.07-0.42,1.57-0.61l0.25-0.09
		c2.21-0.81,2.89-2.27,2.1-4.43c-0.25-0.68-0.62-1.3-1-1.92c-0.07-0.12-0.15-0.24-0.22-0.36c0.91-0.35,1.79-0.88,2.31-1.73
		c0.57-0.92,0.58-1.93,0.17-2.91c-0.17-0.39-0.4-0.76-0.66-1.11c1.21,0.15,2.41,0.33,3.61,0.54c7.51,9.79,11.92,21.61,14.73,33.53
		c-5.09-3.27-10.41-6.19-15.96-8.61c-0.1-2-0.54-3.27-2.13-4.61c0-0.06,0.06-0.19,0.08-0.24c1.36-3.95,1.11-5.04-2.6-6.44
		C389.95,382.37,389.23,382.06,388.51,381.65L388.51,381.65z M365.58,370.65c0.34,0.41,0.73,0.8,1.11,1.18
		c0.59,0.59,1.3,1.29,1.74,2c0.19,0.31,0.23,0.52-0.1,0.73c-1.05,0.64-0.98,3.15-0.93,4.21c0.09,2.21,0.24,4.59,0.5,6.79
		c0.05,0.41,0.07,0.79,0.07,1.2c0,0.02,0,0.04,0,0.06c-5-0.46-10.03-0.46-15.03-0.07c-0.04-0.54-0.11-1.42-0.23-1.7
		c-0.43-0.95-0.41-1.59-0.02-2.52c0.81-1.91,0.82-2.8-1.31-3.73c-0.49-0.21-0.99-0.42-1.49-0.61c-0.29-0.11-0.59-0.23-0.88-0.35
		C354.18,374.73,359.76,372.31,365.58,370.65L365.58,370.65z M349.48,387.08c-5.24,0.6-10.43,1.63-15.53,2.99
		c3.53-3.8,7.47-7.19,11.76-10.12c0.79,0.68,1.97,1.11,2.9,1.48c0.22,0.09,0.44,0.17,0.66,0.26c-0.63,1.68-0.51,3.1,0.25,4.77
		C349.54,386.62,349.49,386.85,349.48,387.08L349.48,387.08z M368.47,329.06c-0.05,0.77,0,1.51,0.07,2.3
		c0.03,0.32,0.07,0.73-0.02,1.04c-0.44,1.55-6.66,2.23-7.87,2.4c-3.32,0.47-3.37,1.81-3.17,4.74c0.04,0.59,0.07,1.18,0.07,1.77v0.01
		c-8.7-2.28-17.71-3.66-26.66-4.59C343.05,333.07,355.82,329.97,368.47,329.06L368.47,329.06z M361.04,342.29v-0.98
		c0-0.67-0.04-1.34-0.09-2.01c-0.02-0.28-0.18-1.01,0.18-1.07c2.59-0.37,9.66-1.12,10.74-4.13c0.34-0.94,0.21-2.07,0.13-3.05
		c-0.06-0.75-0.11-1.45-0.02-2.19c10.33-0.39,20.56,0.87,30.11,4.89c-0.4,0-0.8,0.01-1.2,0.01c-2.46,0.02-10.3-0.39-10.3,3.41
		c0,0.93,0.11,1.77,0.34,2.64c-0.47,0.03-0.91,0.1-1.38,0.2l-0.78,0.16c-2.06,0.43-1.85,2.13-1.65,3.79
		c0.03,0.27,0.21,1.69,0.02,1.86c-1.34,0.27-2.76,0.93-3.76,1.87c-0.99,0.93-1.59,2.1-1.61,3.49
		C375.32,347.27,368.27,344.42,361.04,342.29L361.04,342.29z M407.89,336.6c7.49,4.2,13.8,9.94,19.16,16.6
		c-0.32-0.07-0.65-0.14-0.98-0.19c-1.55-0.26-3.3-0.6-4.86-0.6c-1.67,0-3.33,0.48-3.33,2.44c0,0.23,0,0.45,0,0.68
		c0,0.02,0,0.05,0.01,0.08c0,0.09,0,0.19,0,0.28c0,0.5,0.06,4.26-0.16,4.56c-0.46,0.27-4.6-0.83-5.17-0.98
		c-0.79-0.2-1.59-0.39-2.38-0.58c-2.28-0.54-4.49-0.5-5.13,2.15c-0.1,0.4-0.13,0.79-0.15,1.2c0,0.03,0,0.06,0,0.09
		c-0.66-0.38-1.29-0.8-2.04-1.17c-3.73-1.82-5.14-2.31-8.01,0.46c-1.52-1.59-3.12-3.09-4.79-4.51c-1.63-1.38-3.34-2.67-5.1-3.89
		c0.18-0.66,0.28-1.27,0.29-1.96c0-0.42,0.22-0.77,0.52-1.06c0.54-0.51,1.34-0.86,2.06-1c3.13-0.63,3.05-3.13,2.75-5.67
		c-0.01-0.08-0.04-0.14-0.08-0.19c1.24-0.24,3.09-0.51,3.8-1.55c0.59-0.87,0.43-1.48,0.13-2.41c-0.25-0.77-0.36-1.41-0.52-1.96
		c0.73-0.25,5.98-0.19,7.02-0.2C402.84,337.22,406.06,337.28,407.89,336.6L407.89,336.6z M397.18,364.22
		c1.45-1.32,2.29-0.82,4.16,0.09c1.88,0.92,5.39,2.54,6.67-0.1c0.28-0.58,0.32-1.13,0.36-1.76c0.01-0.16,0.01-0.38-0.11-0.39
		c0.25,0,0.92,0.18,1.11,0.22c0.79,0.19,1.57,0.38,2.36,0.58c2,0.49,5.83,1.72,7.74,0.61c2.3-1.34,1.89-5.29,1.88-7.56
		c0-0.01,0-0.01,0-0.02c1.32,0.02,2.86,0.32,4.15,0.54c1.27,0.22,3.02,0.56,4.34,0.43c4.11,5.7,7.58,11.87,10.58,18.21
		c-0.09-0.05-0.17-0.09-0.26-0.14c-2.07-1.11-6.53-3.64-8.76-3.89c-1.45-0.16-2.53,0.35-2.7,1.9c-0.28,2.46-1.14,4.59-3.94,4.28
		c-1.33-0.15-2.72-0.67-3.97-1.13c-0.74-0.27-1.56-0.59-2.33-0.73c-1.49-0.27-2.62,0.12-2.91,1.74c-0.05,0.25-0.27,1.45-0.45,1.78
		c-0.44-0.15-1.16-0.68-1.49-0.91c-0.4-0.28-0.8-0.57-1.22-0.82c-1.91-1.13-3.55-1.23-4.77,0.84c-0.26,0.32-0.54,0.65-0.81,0.97
		C404.2,373.67,401.03,368.7,397.18,364.22L397.18,364.22z M418.67,379.02c0.31,0.11,0.62,0.22,0.92,0.33
		c1.56,0.57,3.13,1.13,4.79,1.32c4.39,0.5,6.71-1.75,7.55-5.93c2.09,0.72,4.7,2.23,6.6,3.26c1.25,0.67,2.76,1.54,4.11,1.99
		c2.39,5.52,4.47,11.18,6.34,16.9c-2.12-1.21-5.89-3.41-7.91-1.69l-0.29,0.25c-1.28,1.09-5.24,4.72-6.31,5.29
		c-2.34,0-4.16-0.77-6.16-1.87c-0.76-0.42-1.61-0.92-2.51-0.8c-0.55,0.08-0.76,0.24-1.12,0.62c-2.1,2.26-4.92,3.02-7.81,1.69
		c-0.8-0.37-1.65,0.1-2.32,0.6c-1.53-6.33-3.5-12.59-6.12-18.55c0.17-0.19,0.33-0.39,0.5-0.59c0.44-0.52,1.33-1.5,1.32-1.92
		c0.11,0.04,0.28,0.15,0.38,0.21c0.34,0.2,0.67,0.43,0.99,0.66c0.9,0.63,1.88,1.34,2.98,1.54
		C416.98,382.76,418.1,381.06,418.67,379.02L418.67,379.02z M426.46,401.8c0.06,0.04,0.12,0.08,0.18,0.11
		c2.56,1.4,4.84,2.3,7.82,2.3c1.45,0,7.22-4.99,8.55-6.12l0.21-0.2c0.5-0.03,3.82,1.89,4.4,2.22c0.89,0.51,1.86,1.08,2.83,1.46
		c0.42,1.4,0.84,2.79,1.24,4.2c-10.59-0.49-21.67-0.58-30.75-0.38c-1.74,0.04-3.53,0.09-5.37,0.16l-0.16-0.75
		c0.15-0.12,0.29-0.25,0.43-0.38c0.22-0.2,0.19-0.43,0.09-0.66C419.71,405.28,423.46,404.52,426.46,401.8L426.46,401.8z
		 M487.35,445.21l-13.44,59.26c-1.4,6.03-3.23,14.62-4.54,16.45c-1.06,1.5-3.2,2.09-5.59,2.69c-7.36,1.83-18.09,3.14-25.89,3.44
		c-10.84,0.43-29.43-0.58-39.19-4.98c-0.99-0.45-1.68-0.89-2.47-2.48c-2.56-5.21-8.3-29.84-10.78-40.25
		c-2.24-9.36-5.14-21.74-8.1-34.33c10.69,2.43,29.49,3.88,41.72,4.36c15.74,0.62,45.77,0.61,60.36-2.1
		C482.78,446.64,485.22,445.94,487.35,445.21L487.35,445.21z"/>
	<path d="M287.5,421.58l-0.92,13.28c-0.09,1.26-0.16,2.87-0.41,3.22c-2.92,4.2-24.91,6.35-29.93,6.81
		c-16.95,1.55-42.52,0.78-59.84-0.64c-7.28-0.59-20.37-1.78-26.39-3.78c-1.72-0.57-3.71-1.49-4.67-2.58
		c-0.43-0.49-0.42-1.69-0.54-4.22l-0.71-14.17c-0.07-1.44-0.11-2.4-0.09-3.06c0.44,1.79,2.43,2.53,4.38,3.04v0
		c4.79,1.26,15.3,2.96,20.74,3.6c23.15,2.73,68.43,2.17,90.54-2.06c3.9-0.75,8.06-1.65,7.99-5.04
		C288.8,416.98,287.77,419.62,287.5,421.58L287.5,421.58z M237.59,385.59c0.2,3.07,0.57,6.23,1.57,9.13
		c1.13,3.25,2.95,5.84,5.72,7.91c1.99,1.49,4.39,2.66,6.86,3.5c-7.84-0.5-16.29-0.77-24.23-0.84l0.01-0.18
		c0.02-0.79,0.05-1.56,0.07-2.3c1.46-4.46,3.29-9.15,6.05-12.98C234.78,388.25,236.08,386.82,237.59,385.59L237.59,385.59z
		 M265.56,407.38c0.59-0.12,1.16-0.27,1.72-0.44c4.99-1.59,8.11-5.33,11.33-9.21c1.11-1.35,2.23-2.71,3.45-3.95
		c2.72-2.78,5.98-4.96,9.19-7.13c1.98-1.34,3.95-2.67,5.84-4.13c2.7-2.09,5.21-4.41,7.62-6.81c2.46-2.45,4.82-5,7.18-7.54l1.59-1.71
		c0.08-0.08,0.1-0.19,0.07-0.3c-0.03-0.11-0.11-0.19-0.22-0.21l-2.26-0.59c-3.55-0.93-7.1-1.86-10.65-2.81
		c-3.39-0.91-6.78-1.83-10.15-2.79c-1.68-0.48-3.36-0.97-5.04-1.46c1.21-1.59,2.29-3.3,3.43-5.11l11.07-21.75
		c0.04-0.08,0.05-0.17,0.01-0.25c-0.03-0.08-0.09-0.15-0.18-0.18c-0.5-0.19-0.99-0.4-1.48-0.56c-4.06-1.49-7.95-2.85-12.24-3.59
		c-2.48-0.43-5.01-0.65-7.52-0.68c-2.48-0.03-4.97,0.12-7.43,0.48c-1.62,0.24-3.22,0.58-4.78,1.05c0.13-6.41-0.48-12.77-1.12-19.14
		c-0.19-1.88-0.38-3.77-0.54-5.66c-0.27-3.25-0.43-6.61-0.14-9.87c0.23-2.56,0.74-4.99,1.67-7.39c0.99-2.54,1.97-5.09,2.91-7.64
		c0.34-0.91,1.59-4.22,1.53-5.12c-0.01-0.13-0.03-0.25-0.07-0.38c-0.4-1.31-1.97-1.37-3.1-1.24c-1.11,0.13-2.24,0.36-3.33,0.59
		c-5.44,1.15-11.16,2.85-16.33,4.92c-5.25,2.1-10.47,4.52-15.33,7.42c-3.87,2.3-7.69,5.01-10.88,8.21
		c-6.29,6.33-9.19,13.73-12.24,21.89l-0.53,1.42c-0.58,1.55-1.15,3.1-1.7,4.65c-2.05-0.54-4.2-0.78-6.33-1.02
		c-0.04,0-0.08-0.01-0.13-0.01l-20.89-0.45c-0.09,0-0.17,0.03-0.24,0.1c-0.06,0.07-0.09,0.15-0.08,0.24l0.17,1.58
		c0.38,3.65,0.75,7.13,1.77,10.68c0.59,2.06,1.35,4.08,2.26,6.02c0.89,1.92,1.94,3.77,3.13,5.52c0.26,0.39,0.54,0.77,0.82,1.15
		c-0.63,0.17-1.26,0.35-1.89,0.55c-5.02,1.58-9.88,4.1-14.3,6.93c-5,3.2-9.75,6.99-14,11.14c-7.45,7.29-12.84,15.39-18.43,24.08
		c-0.51,0.79-0.28,1.86,0.52,2.37c0.41,0.26,0.92,0.34,1.39,0.21c1.91-0.55,3.82-1.09,5.76-1.55c2.35-0.55,4.71-0.98,7.11-1.3
		c3.35-0.44,6.79-0.72,10.18-0.69c2.38,0.02,5,0.18,7.3,0.79c2.3,0.61,4.07,1.71,6.04,2.98c1.85,1.19,3.56,2.25,5.65,3.01
		c2.67,0.97,5.69,1.42,8.52,1.59c3.23,0.19,6.58,0.04,9.78-0.47c2.97-0.47,5.93-1.26,8.63-2.6c2.66-1.31,4.96-3.07,6.82-5.39
		c1.91-2.37,3.28-5.22,4.3-8.07c0.55-1.54,1.02-3.12,1.41-4.71c0.05,0.08,0.1,0.16,0.15,0.24c1.46,2.31,1.99,5.4,2.32,8.04
		c-0.49,7.89-0.85,15.78-1.09,23.68l-0.01,0.27c-3.27,0-6.42,0.03-9.36,0.1c-12.78,0.28-28.75,1.35-40.95,3.49
		c-3.74,0.66-9.69,1.75-11.92,4.27c-1.4,1.58-1.11,3.58-0.97,6.53l0.73,14.61c0.18,3.88,0.22,4.68,1.45,6.08
		c0.89,1.02,2.21,1.92,3.75,2.65c4.43,18.88,11.15,47.96,15.71,65.28c1.82,6.9,3.01,10.69,4.13,12.95c1.33,2.69,2.54,3.46,4.3,4.26
		c10.36,4.68,29.37,5.76,40.88,5.31c8.09-0.32,19.02-1.65,26.64-3.54c3.37-0.84,6.02-1.73,7.76-4.16c0.67-0.95,1.19-2.03,1.95-4.69
		c0.69-2.41,1.63-6.34,3.19-13.11c1.49-6.45,3.66-16.01,6.18-27.12c2.42-10.68,5.13-22.71,7.85-34.76c2.49-1.12,4.75-2.49,5.21-5.21
		c0.11-0.69,0.18-1.59,0.29-3.09c0.19-2.7,0.55-7.88,0.9-13.09l0-0.05c0.44-2.02,0.87-4.03,0.61-5.69c-0.5-3.3-3.55-4.55-6.55-5.37
		C280.66,409.66,271.47,408.13,265.56,407.38L265.56,407.38z M262.4,275.7c-0.2,0.14-0.4,0.29-0.6,0.43
		c-1.61,1.19-3.11,2.52-4.59,3.88c-2.18,2-4.28,4.05-6.24,6.27c-2.49,2.83-4.71,5.86-6.64,9.1c-2.42,4.06-4.4,8.42-6.07,12.84
		c-1.97,5.22-3.54,10.61-4.85,16.03c-1.3,5.4-2.32,10.91-3.26,16.39c-0.91,5.28-1.74,10.58-2.54,15.89
		c-1.56-0.36-3.12-0.78-4.61-1.35c-0.53-0.21-1.04-0.42-1.51-0.64l-0.03-0.04c-0.06-0.05-0.12-0.08-0.19-0.09
		c-1.42-0.72-2.71-1.62-3.93-2.64c-2.5-2.1-4.79-4.71-6.54-7.47c-1.48-2.34-2.67-4.97-3.13-7.72c-1.05-6.31,1.96-13.81,4.13-19.66
		l0.53-1.42c2.83-7.62,5.61-14.78,11.46-20.68c2.98-3,6.57-5.52,10.19-7.68c4.72-2.8,9.77-5.15,14.86-7.19
		C253.17,278.22,257.84,276.78,262.4,275.7L262.4,275.7z M230.97,357.24c0.81-5.35,1.65-10.71,2.57-16.04
		c0.93-5.39,1.93-10.84,3.21-16.16c1.27-5.28,2.81-10.54,4.73-15.62c1.6-4.23,3.48-8.41,5.8-12.3c1.82-3.06,3.92-5.92,6.28-8.59
		c1.88-2.13,3.88-4.09,5.97-6.01c1.39-1.27,2.8-2.52,4.31-3.65c0.47-0.35,0.96-0.69,1.45-1.01c-0.81,2.18-1.65,4.36-2.5,6.53
		c-1.05,2.71-1.65,5.44-1.9,8.33c-0.3,3.45-0.14,6.99,0.14,10.43c0.15,1.91,0.36,3.82,0.55,5.72c0.8,7.8,1.54,15.66,0.85,23.49
		c-0.45,5.11-1.53,10.52-3.6,15.24c-1.45,3.31-3.6,6.71-6.7,8.71c-3.06,1.98-6.88,2.46-10.46,2.38
		C238.07,358.63,234.49,357.98,230.97,357.24L230.97,357.24z M265.95,331.34c1.76-0.63,3.59-1.04,5.44-1.31
		c2.28-0.34,4.59-0.48,6.89-0.45c2.33,0.03,4.68,0.24,6.98,0.63c2.18,0.38,4.3,0.93,6.41,1.6c-1.45,0.37-2.9,0.77-4.34,1.21
		c-2.37,0.73-4.74,1.49-7.06,2.37c-2.44,0.93-4.81,1.98-7.12,3.19c-1.21,0.63-2.39,1.3-3.56,1.98l-0.81,0.44
		c-1.64,0.89-3.29,1.78-4.93,2.68c1.03-3.58,1.66-7.31,1.99-11.01C265.88,332.23,265.92,331.78,265.95,331.34L265.95,331.34z
		 M261.77,349.41c0.5-0.31,1-0.63,1.5-0.94c2.61-1.64,5.22-3.29,7.88-4.85c1.64-0.88,3.27-1.77,4.89-2.66
		c1.78-0.88,3.58-1.66,5.44-2.36c2.25-0.86,4.55-1.59,6.85-2.3c1.72-0.53,3.46-0.98,5.2-1.43c0.23-0.06,0.46-0.12,0.68-0.18
		l-8.58,16.85c-1.22,1.94-2.48,3.94-3.97,5.69l-0.29-0.09c-3.11-0.93-6.22-1.85-9.34-2.72c-2.92-0.82-5.86-1.6-8.85-2.09
		c-0.9-0.15-1.81-0.27-2.72-0.36C260.95,351.13,261.38,350.28,261.77,349.41L261.77,349.41z M258.27,355.25
		c1.47,0.05,2.93,0.21,4.37,0.45c2.86,0.47,5.69,1.23,8.48,2.01c3.11,0.87,6.2,1.79,9.3,2.71c2.97,0.88,5.93,1.76,8.91,2.61
		c3.39,0.97,6.8,1.89,10.2,2.8c1.12,0.3,2.25,0.6,3.37,0.89c-5.62,1.08-11.26,2.16-16.9,3.1c-4.53,0.76-9.07,1.42-13.62,2.06
		c-2.56,0.36-5.11,0.72-7.66,1.12c-3.55,0.55-7.09,1.18-10.58,2.04c-3.84,0.95-7.6,2.17-11.2,3.8c-0.72,0.24-1.43,0.51-2.12,0.82
		c-0.01-2.47,0.09-4.96,0.37-7.42c0.32-2.84,0.91-5.9,2.09-8.51c0.08-0.18,0.15-0.33,0.21-0.48c0.35-0.4,0.69-0.79,1.05-1.19
		c3.33-0.23,6.62-1.03,9.45-2.86C255.63,358.15,257.05,356.78,258.27,355.25L258.27,355.25z M239.99,362.06
		c-2.81,3.38-5.4,6.98-7.88,10.6c-1.33,1.94-2.42,3.98-3.33,6.13c0.18-2.75,0.37-5.5,0.58-8.25c0.2-2.66,0.51-5.31,0.91-7.95
		c0.1-0.64,0.2-1.29,0.31-1.93C233.69,361.3,236.82,361.86,239.99,362.06L239.99,362.06z M220.24,357.69
		c0.16,1.01,0.22,2.03,0.22,3.05c0.01,2.2-0.25,4.43-0.62,6.6c-7.73-2.96-16.61-3.86-24.83-3.6c-9.62,0.31-20.07,2.29-28.91,6.18
		c-3.2,1.41-6.31,3.04-9.33,4.79c-3.15,1.82-6.21,3.79-9.22,5.84c-0.34,0.23-0.69,0.47-1.03,0.7c3.9-5.75,8.05-11.13,13.05-16.02
		c4.08-3.99,8.64-7.64,13.44-10.71c4.17-2.67,8.76-5.05,13.5-6.55c3.78-1.19,7.71-1.81,11.67-1.84c3.58-0.03,7.2,0.42,10.66,1.34
		c1.78,2.52,3.95,4.9,6.31,6.88C216.73,355.68,218.37,356.81,220.24,357.69L220.24,357.69z M204.86,339.5
		c-2.68-1.68-5.4-3.4-7.94-5.28c-1.67-1.24-3.24-2.57-4.75-4c-1.48-1.4-2.88-2.87-4.26-4.36c-1.03-1.11-2.01-2.27-2.98-3.42
		l-0.01-0.01l15.35,0.33c1.85,0.21,3.76,0.42,5.57,0.87c-1.33,4.34-2.27,8.95-1.52,13.49C204.44,337.92,204.63,338.71,204.86,339.5
		L204.86,339.5z M219.18,370.76c-0.43,1.98-0.97,3.94-1.65,5.84c-0.89,2.49-2.09,5.01-3.75,7.08c-1.54,1.92-3.46,3.38-5.66,4.46
		c-2.39,1.18-5.03,1.87-7.65,2.29c-2.96,0.47-6.06,0.61-9.05,0.43c-2.49-0.15-5.2-0.53-7.55-1.39c-1.81-0.66-3.36-1.63-4.96-2.67
		c-2.32-1.5-4.31-2.69-7.02-3.41c-2.59-0.69-5.48-0.88-8.15-0.9c-3.54-0.03-7.14,0.25-10.65,0.72c-1.46,0.19-2.92,0.43-4.37,0.7
		c0.25-0.17,0.51-0.35,0.77-0.52c2.94-2,5.93-3.92,9-5.71c2.92-1.69,5.91-3.26,9-4.62c8.45-3.72,18.43-5.6,27.64-5.9
		C203.07,366.9,211.75,367.78,219.18,370.76L219.18,370.76z M223.78,363.3c0.8,1.57,1.38,3.21,1.78,4.9
		c-0.07,0.69-0.13,1.36-0.18,2.05c-0.03,0.45-0.07,0.9-0.1,1.35c-0.03-0.04-0.06-0.09-0.08-0.13c-0.6-0.96-1.32-1.82-2.16-2.57
		l0-0.01C223.36,367.03,223.64,365.16,223.78,363.3L223.78,363.3z M191.09,343.35c-0.61-0.72-1.18-1.48-1.71-2.26
		c-1.08-1.59-2.03-3.3-2.84-5.04c-0.83-1.78-1.53-3.63-2.07-5.51c-0.43-1.49-0.75-3-1-4.53c0.63,0.74,1.27,1.46,1.93,2.17
		c1.43,1.54,2.88,3.07,4.41,4.51c1.61,1.53,3.29,2.95,5.07,4.27c2.95,2.19,6.12,4.16,9.24,6.11c-1.98-0.25-3.97-0.37-5.96-0.36
		C195.79,342.74,193.42,342.95,191.09,343.35L191.09,343.35z M305.8,369.66c-1.16,1.22-2.32,2.43-3.51,3.62
		c-2.31,2.3-4.72,4.53-7.3,6.53c-1.83,1.41-3.75,2.71-5.66,4c-3.42,2.31-6.8,4.61-9.71,7.57c-1.3,1.32-2.47,2.74-3.65,4.17
		c-2.67,3.23-5.57,6.82-9.72,8.14c-3.01,0.96-6.61,0.8-9.68,0.2c-3.3-0.64-6.93-1.97-9.63-3.99c-2.21-1.65-3.65-3.71-4.54-6.29
		c-0.99-2.84-1.27-6.08-1.44-9.07c-0.02-0.29-0.03-0.58-0.05-0.87c0.43-0.23,0.87-0.45,1.3-0.68c0.68-0.35,1.38-0.68,2.07-0.99
		c3.43-1.55,7.01-2.72,10.66-3.62c3.4-0.84,6.83-1.45,10.28-1.98c2.53-0.39,5.07-0.75,7.61-1.11c4.58-0.64,9.15-1.31,13.72-2.07
		C292.99,372.13,299.4,370.88,305.8,369.66L305.8,369.66z M237.41,381.49c-2.59,1.69-4.73,3.83-6.54,6.34
		c-1.09,1.51-2.03,3.11-2.87,4.77c0-0.07,0.01-0.14,0.01-0.21c0.6-1.6,1.05-3.23,1.5-4.88c1.31-4.74,2.61-8.8,5.43-12.93
		c0.99-1.45,2-2.89,3.03-4.32c-0.08,0.53-0.15,1.06-0.21,1.59C237.41,375.05,237.33,378.29,237.41,381.49L237.41,381.49z
		 M280.58,445.21l-13.44,59.26c-1.4,6.03-3.23,14.62-4.54,16.45c-1.06,1.5-3.2,2.09-5.59,2.69c-7.36,1.83-18.09,3.14-25.89,3.44
		c-10.84,0.43-29.43-0.58-39.19-4.98c-0.99-0.45-1.68-0.89-2.46-2.48c-2.56-5.21-8.3-29.84-10.79-40.25
		c-2.24-9.36-5.14-21.74-8.1-34.33c10.7,2.43,29.49,3.88,41.72,4.36c15.74,0.62,45.77,0.61,60.36-2.1
		C276.01,446.64,278.45,445.94,280.58,445.21L280.58,445.21z"/>
	<path class="st0" d="M707.12,421.58l-0.91,13.28c-0.09,1.26-0.16,2.87-0.41,3.22c-2.92,4.2-24.92,6.35-29.93,6.81
		c-16.95,1.55-42.52,0.78-59.84-0.64c-7.27-0.59-20.36-1.78-26.39-3.78c-1.71-0.57-3.71-1.49-4.67-2.58
		c-0.43-0.49-0.42-1.69-0.54-4.22l-0.71-14.17c-0.07-1.44-0.11-2.4-0.09-3.06c0.44,1.79,2.43,2.53,4.38,3.04v0
		c4.79,1.26,15.3,2.96,20.74,3.6c23.15,2.73,68.43,2.17,90.54-2.06c3.9-0.75,8.06-1.65,7.99-5.04
		C708.42,416.98,707.39,419.62,707.12,421.58L707.12,421.58z M721.01,345.61c-1.45,12.25-3.69,24.29-7.18,36.16
		c-3.08,10.46-6.77,19.41-11.77,28.46c-5.4-1.19-13.32-2.44-18.14-3c-2.88-0.33-5.97-0.62-9.21-0.86l0.25-0.35
		c4.44-6.14,9.53-11.96,14.47-17.7c6.34-7.37,12.77-14.75,18.57-22.56C712.81,359.29,717.05,352.6,721.01,345.61L721.01,345.61z
		 M705.81,411.18c4.86-8.99,8.6-18.04,11.63-28.35c1.75-5.94,3.2-11.97,4.4-18.04c1.87-9.4,2.95-18.6,3.9-28.11
		c0.19-1.9-2.31-2.85-3.41-1.28c-0.11,0.16-0.19,0.33-0.29,0.5c-5.48,10.16-10.86,19.39-17.79,28.58c1.02-11.49,0.82-19.58-1.3-31.4
		c-0.78-4.34-1.72-8.68-2.84-12.95c-1.94-7.43-4.45-14.55-7.06-21.74c-0.66-1.97-3.54-1.63-3.68,0.44
		c-0.68,10.07-1.69,19.16-3.76,28.95c-3.78-9.87-8.96-17.57-15.14-26.31l-10-13.78c-1.3-1.35-3.63-0.11-3.18,1.76
		c3.2,13.14,5.09,24.76,4.94,38.16c-0.87-2.28-1.76-4.55-2.66-6.83c-3.74-9.46-7.53-19.02-12.04-28.14
		c-3.93-7.94-8.46-15.43-13.1-22.96c-0.12-0.19-0.23-0.39-0.37-0.56c-1.21-1.44-3.56-0.35-3.3,1.5c0.58,4.09,1.19,8.14,1.97,12.2
		c1.16,6.04,2.4,11.87,3.13,17.99c0.75,6.33,1.01,12.71,0.99,19.08c-2.63-7.48-4.94-15.05-7.24-22.64
		c-0.53-1.76-3.02-1.76-3.58-0.06c-0.07,0.2-0.09,0.4-0.12,0.61c-0.96,6.88-1.86,13.7-2.11,20.65c-0.15,4.14-0.07,8.28-0.01,12.42
		c0.04,2.47,0.07,4.95,0.07,7.42c-1.1-8.87-1.39-18.69-1.06-27c0.31-7.76,1.45-14.29,3.13-21.81c0.94-4.2,1.74-8.39,2.39-12.65
		c0.26-1.7-1.79-2.85-3.08-1.73c-0.21,0.19-0.36,0.42-0.52,0.65c-4.65,6.7-9.13,13.46-13.01,20.64c-3.8,7.02-7.05,14.38-10.28,21.68
		c-1.37,3.09-2.73,6.18-3.99,9.32c-1.01-5.14-1.75-10.32-2.4-15.53c-0.96-7.72-2.29-15.3-3.7-22.95c-0.36-1.94-3.12-2.1-3.66-0.16
		c-2.19,7.8-4.38,15.62-6.32,23.49c-3.26,13.19-4.88,24.51-4.18,38.15c0.1,1.89,0.24,3.78,0.43,5.66c-3.1-4.24-6-8.59-8.91-12.97
		c-0.19-0.29-0.36-0.57-0.63-0.8c-1.31-1.09-3.38,0.07-3.04,1.82c1.8,9.4,3.69,18.46,6.4,27.66c3.62,12.31,8.34,24.77,14.66,35.98
		c0.43,0.76,0.87,1.52,1.32,2.28c-2.65,0.7-5.2,1.68-6.5,3.15c-1.4,1.58-1.11,3.58-0.97,6.53l0.73,14.61
		c0.18,3.88,0.22,4.68,1.45,6.08c0.89,1.02,2.21,1.92,3.75,2.65c4.43,18.88,11.15,47.96,15.71,65.28c1.82,6.9,3.02,10.69,4.13,12.95
		c1.33,2.69,2.54,3.46,4.3,4.26c10.36,4.68,29.37,5.76,40.88,5.31c8.09-0.32,19.02-1.65,26.64-3.54c3.37-0.84,6.02-1.73,7.76-4.16
		c0.67-0.95,1.19-2.03,1.95-4.69c0.69-2.41,1.63-6.34,3.19-13.11c1.49-6.45,3.66-16.01,6.18-27.12c2.42-10.68,5.13-22.71,7.85-34.76
		c2.49-1.12,4.75-2.49,5.21-5.21c0.11-0.69,0.19-1.59,0.29-3.09c0.19-2.7,0.54-7.88,0.9-13.09l0-0.05c0.44-2.02,0.87-4.03,0.62-5.69
		C711.04,413.31,708.51,412.01,705.81,411.18L705.81,411.18z M591.34,409.13c-4.02-6.67-7.34-13.49-10.38-21.21
		c-4.54-11.51-7.85-23.29-10.38-35.37c4.56,6.6,9.37,12.88,14.74,18.88c6.48,7.26,13.56,14.05,20.54,20.83
		c0.54,0.52,1.08,1.04,1.61,1.57c0.45,1.98,0.93,3.96,1.46,5.91c0.62,2.28,1.35,4.57,2.18,6.84c-6.43,0.56-12.73,1.31-18.25,2.27
		C592.38,408.95,591.87,409.03,591.34,409.13L591.34,409.13z M615.02,406.28c-3.49-9.2-5.03-18.7-7.01-28.62
		c-1.03-5.15-2.11-10.29-3.2-15.42c3.36,4.62,6.78,8.72,10.69,13.08c3.62,4.03,7.16,8.05,10.37,12.43c0.19,0.26,0.38,0.52,0.56,0.78
		c-0.02,0.24-0.03,0.49-0.04,0.73c-0.27,5.26-0.16,10.83,0.27,16.36C622.87,405.76,618.94,405.98,615.02,406.28L615.02,406.28z
		 M630.42,405.46c-0.43-5.44-0.55-10.91-0.28-16.03c0.4-7.73,1.86-13.52,4.26-20.77c0.92-2.78,1.81-5.55,2.51-8.4
		c3.45-14.03,4.14-33.57,3.62-48.07c-0.34-9.52-1.61-17.79-3.46-27.08l-1.03-5.6c5.47,9.25,9.92,17.99,14.17,28.09
		c2.03,4.82,3.96,9.69,5.89,14.55c7.09,17.92,11.56,31.22,11.63,50.83c0.03,10.3-1.15,21.88-3.25,32.77
		c-10.56-0.48-21.61-0.58-30.66-0.38C632.69,405.4,631.57,405.43,630.42,405.46L630.42,405.46z M700.2,445.21l-13.44,59.26
		c-1.39,6.03-3.23,14.62-4.54,16.45c-1.06,1.5-3.2,2.09-5.59,2.69c-7.36,1.83-18.09,3.14-25.89,3.44
		c-10.84,0.43-29.43-0.58-39.19-4.98c-0.99-0.45-1.68-0.89-2.47-2.48c-2.56-5.21-8.3-29.84-10.79-40.25
		c-2.24-9.36-5.14-21.74-8.1-34.33c10.7,2.43,29.49,3.88,41.72,4.36c15.74,0.62,45.77,0.61,60.37-2.1
		C695.63,446.64,698.07,445.94,700.2,445.21L700.2,445.21z M670.37,406.07l-2.15-0.12c0.67-3.58,1.24-7.18,1.72-10.78
		c0.82-6.17,1.36-12.38,1.5-18.6c3.18-5.64,6.12-11.41,8.6-17.39c6.16-14.86,10.45-32.59,12.15-48.56c0.1-0.89,0.18-1.79,0.27-2.68
		c2.91,8.53,5.18,16.84,6.79,25.81c2.15,12,2.27,20.08,1.09,32.16c-0.13,1.37-0.27,2.73-0.42,4.1c-4.34,5.38-8.85,10.63-13.36,15.87
		C680.72,392.66,675.27,398.97,670.37,406.07L670.37,406.07z M626.95,382.95c-4.21-5.37-8.89-10.2-13.29-15.42
		c-4.08-4.84-7.59-9.96-11.12-15.2c-0.99-1.48-3.28-0.86-3.44,0.84c-0.03,0.34,0.03,0.6,0.1,0.92c2.04,9.47,4.05,18.95,5.92,28.46
		c0.31,1.56,0.62,3.13,0.93,4.69c-3.65-3.56-7.29-7.13-10.86-10.77c-0.64-4.99-1.02-10.02-1-15.05
		c0.06-16.31,4.24-27.22,10.72-41.84c1.78-4.02,3.57-8.04,5.45-12.02c3.87-8.2,7.87-15.27,12.75-22.69
		c-1.12,5.47-2.47,10.82-3.22,16.43c-1.55,11.65-1.12,25.87,0.28,37.55c0.87,7.24,2.07,12.35,4.59,19.16
		c2.13,5.76,3.46,10.32,3.88,16.51C627.9,377.3,627.34,380.09,626.95,382.95L626.95,382.95z M628.58,306.63
		c1.8,5.81,3.68,11.6,5.76,17.32c0.75,2.06,1.53,4.12,2.31,6.17c-0.2,5.04-0.54,10.08-1.08,15.09c-0.51,4.72-1.19,9.54-2.33,14.14
		c-0.56,2.29-1.26,4.52-1.99,6.76c-0.73-3.24-1.77-6.24-2.95-9.43c-0.33-0.9-0.67-1.8-0.98-2.71c0.16-3.49,0.26-6.99,0.31-10.49
		c0.05-4.23,0.01-8.46-0.06-12.7C627.45,322.19,627.64,314.95,628.58,306.63L628.58,306.63z M671.39,368.74
		c-0.18-5.09-0.67-10.16-1.55-15.17c-0.98-5.6-2.44-11.08-4.2-16.48c0.15-2.3,0.26-4.61,0.33-6.91c0.33-11.19-0.73-21.81-2.94-32.67
		c4.27,5.88,8.59,11.88,12.37,18.04c3.77,6.15,6.13,11.5,8.38,18.32c0.09,0.26,0.17,0.52,0.25,0.78c-0.58,2.33-1.2,4.65-1.87,6.96
		C679.35,351.27,675.97,359.9,671.39,368.74L671.39,368.74z M589.14,297.62c0.85,4.88,1.58,9.75,2.2,14.67
		c0.59,4.78,1.24,9.5,2.13,14.24c0.47,2.47,0.99,4.92,1.56,7.37c-1.27,3.72-2.32,7.5-3.08,11.36c-1.72,8.79-1.85,17.82-1.04,26.72
		c-3-3.21-5.9-6.51-8.66-9.94c-2.1-12.18-1.86-25.57,0.33-37.71C584.2,315.4,586.69,306.41,589.14,297.62L589.14,297.62z"/>
	<path d="M304.23,59.95c15.53-0.91,24.35-2.23,26.12-0.82c2.01,1.6,0.77,4.79-1.55,4.95c-2.88,0.23-6.16,0.49-9.86,0.76l2.54,44.31
		c0.04,1.22,0.19,3.05,0.46,5.49c6.54-0.27,12.62-1.9,12.86,2.17l-2.66,2.98c-0.43,0.03-24.36,1.81-26.16,0.11
		c-1.9-1.79-0.69-4.84,1.83-4.91l8.47-0.21l-0.6-16.75c-0.56-12.79-1.39-23.78-2.49-32.95c-5.38,0.32-11.39,1.88-11.63-2.15
		L304.23,59.95L304.23,59.95z M359.98,65.15C350.35,68.2,351,54.08,357.88,54c3.57-0.04,4.82,3.75,5.01,4
		c0.82,1.07,3.45,2.38,2.69,8.49c-0.09,0.73-2.48,16.16-7.9,13.64C353.12,78.02,360.14,71.53,359.98,65.15L359.98,65.15z
		 M421.25,95.53c-0.87-5.55,0.97-11.59-3.65-18.13c-4.71-6.66-15.7,1.12-17.55,5.81c-0.12,0.38-0.34,0.69-0.65,0.95
		c0.11,13.6-0.78,12.21,0.54,27.2l0,0.09c4.15,0.08,7.98-1.01,8.31,2.61c0.53,5.92-12.42,1.27-21.06,3.35
		c-2.79,0.67-9.18-6.35,7-6.18c-1.29-10.65-0.54-20.97-0.01-31.25c0.3-5.75-0.06-3.12-7.93-2.75c-3.9,0.18-4.01-5.46-0.43-5.65
		c4.46-0.23,11.25-2.98,13.68,3.26c8.11-7.54,20.32-8.56,24.88,3.25c7.51-11.83,32.77-15.95,31.78,15.71
		c-0.15,4.33-0.75,9.95-1.82,16.87c7.34,0.24,11.46-0.98,11.79,2.76c0.48,5.39-11.07,2.14-14.19,2.82l-8.99,0.18
		c-1.1-0.72-4.4-5.24,5.64-5.7c1.85-12.03,5.93-36.03-8.71-35.6c-8.01,0.24-12.96,7.53-13.06,12.36l0.61,15.06
		c-0.07,5.65-0.11,8.5-0.11,8.57c5.7,0.3,9.57-1.07,9.91,2.68c0.53,5.92-12.42,1.27-21.06,3.35c-2.85,0.69-8.56-6.04,5.5-6.17
		C421.64,107.04,422.29,99.08,421.25,95.53L421.25,95.53z M543.43,95.57c-8.32,3.56-20.47-0.91-24.51,7.9
		c-3.41,7.45,5.07,12.97,11.67,11.72c3.75-0.72,7.87-4.03,12.37-9.93L543.43,95.57L543.43,95.57z M521.54,87.79
		c-13.57-12.45,16.88-22.88,25.76-10c5.59,8.12-3.04,40.04,5.08,38.86c7-1.02,1.64-14.34,7.61-13.98c5.12,0.3,2.13,13.88-2.06,17.42
		c-5.26,4.45-12.66,2.55-14.41-6.69c-18.56,19.58-40.81-3.29-26.49-17.01c6.96-6.67,24.94-3.27,26.72-7.87
		c0.24-0.62,1.69-9.1-6.78-10.58c-3.21-0.56-17.22,0.33-11.59,5.54C527.98,85.89,524.58,90.18,521.54,87.79L521.54,87.79z"/>
	<path d="M68.88,257.87c1.69,7.83,2.91,13.74,3.64,17.72c6.1-1.39,13.23-4.55,14.41,0.62c0.45,1.99-0.87,4.09-2.86,4.54
		c-12.39,2.81-27.66,7.21-30.23,5.38c-3.14-2.23-1.59-6.23,1.36-6.86c3.06-0.61,6.37-1.27,9.92-2
		c-0.82-4.76-12.36-59.84-16.43-66.57c-3.61,0.22-11.29,5.11-12.57-0.51c-0.97-4.28,4.41-5.5,8.51-6.48
		c6.07-1.45,9.47-0.03,11.49,4.91c9.09-15.61,45.78-24.44,51.16,19.63c1.84,15.09-2.25,22.78-15.06,29.63
		C81.76,263.48,75.85,262.98,68.88,257.87L68.88,257.87z M61.01,216.99c2.12,2.92,0.8,29.5,15.45,36.57
		c6.04,2.92,19.97-5.67,22.4-11.58c2.62-6.35,1.65-36.55-17.33-38.28C72.6,202.88,62.72,207.75,61.01,216.99L61.01,216.99z
		 M129.41,241.55c3.04-0.72,6.68-1.45,10.91-2.21c-5.21-16.78-7.5-43.97-9.72-62.25c-0.29-2.6-0.58-4.69-0.86-6.27
		c-8.74,1.57-15.24,5-16.63-0.3c-1.34-5.1,6.49-5.37,11.21-6.31c15.08-3.01,12.01-2.19,16.63,35.51c1.62,13.24,3.2,25.9,6.87,38.41
		c6.7-1.06,13.23-3.61,14.13,1.39c0.98,5.48-6.54,5.03-17.17,6.73c-10.29,1.64-16.74,5.13-18.14-0.1
		C126.1,244.16,127.45,242.07,129.41,241.55L129.41,241.55z M217,201.58c-10.04,6.82-27.24,4.03-30.31,16.69
		c-2.59,10.69,10,15.82,18.39,12.47c4.76-1.91,9.36-7.33,13.78-16.26L217,201.58L217,201.58z M186.13,196.9
		c-21.09-12.95,16.41-34.5,31.43-19.77c9.46,9.28,6.22,53.6,16.64,49.97c8.98-3.13-1.51-19.33,6.46-20.39
		c6.13-0.82,5.4,13.16,4.7,16.98c-2.17,11.71-17.37,17.28-23.68,1.38c-16.67,26.16-46.91,12.38-42.37-8.62
		c3.37-15.62,20.71-15.69,30.42-19.64c6.26-2.54,6.07-4.5,5.4-7.36c-1.56-6.67-3.55-9.63-11.16-9.48
		c-4.38,0.08-22.63,4.84-13.88,10.28C194.14,192.77,190.72,199.28,186.13,196.9L186.13,196.9z M268.02,220.49
		c2.93-0.46,6.29-0.74,10.09-0.84c-1.92-10-2.2-38.12-4.02-46.13c-4.37-0.24-12.46,3.14-12.88-2.89
		c-0.44-6.25,16.01-4.54,17.29-3.88l2.75,3.99c14.81-14.07,38.12-12.7,42.28,13.37c2.23,13.98,0.75,21.35,1.54,32.61
		c5.5-0.11,12.16-1.98,12.51,2.92c0.53,7.51-13.64,3.05-28.01,5.53c-4.94,0.85-6.17-6.73-1.29-7.52c2.59-0.44,5.65-0.74,9.19-0.9
		c-0.45-16.53,3.5-49.23-18.16-47.03c-5.96,0.59-11.54,4.15-16.75,10.69l3.39,39.07c4.65-0.05,11.03-1.81,11.37,3
		c0.53,7.51-13.65,3.06-28.01,5.53C264.36,228.86,263.16,221.24,268.02,220.49L268.02,220.49z M397.08,195.35
		c-0.66,8.13,2.76,22.09-10.14,26.94c-9.55,3.59-19.77-2.06-22.27-10.53c-1.72-5.82-1.74-36.74-1.92-42.72
		c-5.68,0.5-12.41,2.49-12.99-2.65c-0.6-5.27,7.38-4.5,13.01-4.95c-0.08-5.4-0.88-16.41,1.4-18.58c2.57-2.44,6.5-0.21,6.35,2.91
		c-0.19,4.73-0.25,9.84-0.17,15.32c3.9-0.18,17.69-1.58,19.82,0.54c2.39,2.39,0.91,6.45-2.65,6.53c-6.41,0.11-12.14,0.28-17.2,0.52
		l0.6,28.33c-0.23,8.18,0.11,20.68,11.76,18.63c13.31-2.35,0.99-26.53,11.34-24.7C396.06,191.3,397.54,193.27,397.08,195.35
		L397.08,195.35z M457.03,188.69c-10.9,5.32-27.53,0.1-32.38,12.2c-4.09,10.22,7.65,17.08,16.42,14.96
		c4.99-1.21,10.31-5.93,15.95-14.13L457.03,188.69L457.03,188.69z M427.14,179.66c-19.03-15.82,21.17-31.81,33.93-15.09
		c8.04,10.53-1.48,53.94,9.35,51.83c9.33-1.82,1.26-19.34,9.3-19.26c6.18,0.06,3.47,13.8,2.23,17.48
		c-3.83,11.3-19.66,14.61-23.63-2.01c-20.23,23.52-48.19,5.56-40.71-14.57c5.56-14.98,22.73-12.59,32.91-15.1
		c6.55-1.62,6.64-3.59,6.39-6.51c-0.59-6.83-2.15-10.03-9.69-10.98c-4.35-0.54-23.09,1.56-15.2,8.2
		C435.67,176.72,431.36,182.68,427.14,179.66L427.14,179.66z M506.03,139.88c4.53,0.23,16.16-6.19,17.56,5.95
		c0.78,6.75-0.33,14.21-0.66,20.74c14.2-10.07,43.85-7.19,41.56,22.35c-1.2,15.48-1.93,6.08-1.81,28.53
		c7.64,0.62,14.45-0.32,14.2,4.76c-0.35,7.04-13.6,1.21-32.42,2.43c-5.04,0.32-5.54-7.19-0.63-7.63c3.3-0.26,7.06-0.28,11.28-0.07
		c-0.16-21.54,0.31-12.72,1.95-28.78c2.1-20.54-18.72-22.6-29.23-15.65c-7.3,4.82-6.56,10.16-7.53,18.87
		c-1.13,10.75-1.45,18.88-0.97,24.4c8.71,0.77,15.46-0.13,15.2,4.94c-0.36,7.04-13.6,1.21-32.42,2.42
		c-4.98,0.32-5.55-7.16-0.63-7.63c3.05-0.27,6.47-0.31,10.27-0.12c-1.2-15.45,6.31-64.63,4.24-69.32c-4-0.21-12.96,4.17-13.39-2
		C502.44,141.96,503.79,140.11,506.03,139.88L506.03,139.88z M640.19,219.78c0.27-1.14,15.33-15.33,2.01-34.9
		c-17.33-25.46-50.9,9.88-30.56,32.97C619.81,227.11,630.72,227.49,640.19,219.78L640.19,219.78z M649.16,221.55
		c-30.19,33.22-70.89-14.28-41.42-43.73c24.35-24.33,50.29,2.53,47.13,28.59c-0.58,4.77-2.14,9.01-4.67,12.71
		C650.17,220.05,649.83,220.86,649.16,221.55L649.16,221.55z M670.37,230.42c3.11,0.31,6.79,0.8,11.04,1.46
		c0.54-17.6,7.22-43.98,11.08-62.03c0.57-2.56,0.98-4.63,1.23-6.21c-8.76-1.37-16.03-0.23-15.62-5.7c0.39-5.26,7.88-2.96,12.65-2.32
		c15.24,2.06,12.07,1.84,4.16,38.99c-2.78,13.04-5.41,25.54-6.01,38.56c6.68,1.18,13.69,0.9,12.9,5.92
		c-0.86,5.5-7.82,2.63-18.43,0.77c-10.27-1.8-17.5-0.6-17.11-6C666.4,231.79,668.37,230.27,670.37,230.42L670.37,230.42z
		 M740.4,172.52c0.58-6.77,16.12-12.94,14.8,2.77C754.32,185.64,738.59,182.54,740.4,172.52L740.4,172.52z M721.94,237.71
		c3.64-0.21,7.77,0.15,12.4,1.06l6.82-46.07c-5.02-0.9-12.08-0.68-11.18-5.73c0.92-5.15,9.84-2.22,15.88-1.14
		c4.66,0.83,2.75,8.44,2.28,11.71l-6.27,42.95c5.95,1.61,11.42,1.54,10.56,6.32c-1.37,7.66-14.13-2.19-30.04-1.58
		C716.9,245.45,717.3,237.65,721.94,237.71L721.94,237.71z M816.84,221.22c11.59-7.29-9.76-25.18-23.52-10.66
		c-18.05,19.04-7.45,54.06,14.43,43.23c10.6-5.25,10.34-16.46,16.46-13.06c7.16,3.98-8.18,17.35-13.37,19.99
		c-28.93,14.68-47.5-29.92-22.94-55.42c21.83-22.68,54.47,8.71,33.19,22.34C816.93,230.3,812.7,224.19,816.84,221.22L816.84,221.22z
		"/>
	<path d="M91.33,599.8c0.11-0.88,11.07-13.89-1.55-28.6c-16.43-19.14-40.54,12.7-21.87,29.64C75.34,607.58,84.33,606.94,91.33,599.8
		L91.33,599.8z M98.79,600.42c-21.54,29.8-59.02-5.14-37.72-31.81c17.53-21.96,41.17-2.66,40.98,18.96
		c-0.03,3.94-0.92,7.53-2.64,10.78C99.48,599.11,99.27,599.8,98.79,600.42L98.79,600.42z M117.79,604.25
		c2.42-0.21,5.18-0.24,8.29-0.1c-0.99-8.29,0.4-31.26-0.62-37.93c-3.58-0.45-10.36,1.84-10.36-3.11c0-5.14,13.35-2.78,14.35-2.18
		l2.02,3.42c12.92-10.64,31.89-8.17,33.78,13.37c1.02,11.55-0.62,17.51-0.62,26.74c4.5,0.23,10.05-0.91,10.05,3.11
		c0,6.17-11.33,1.71-23.21,2.9c-4.09,0.41-4.65-5.86-0.62-6.22c2.14-0.21,4.66-0.28,7.56-0.21c0.6-13.56,5.69-40.03-12.12-39.48
		c-4.91,0.14-9.67,2.73-14.3,7.77l0.52,32.12c3.8,0.23,9.12-0.84,9.12,3.11c0,6.17-11.32,1.71-23.21,2.9
		C114.31,610.88,113.77,604.59,117.79,604.25L117.79,604.25z M252.95,589.54c-0.74,6.65,1.71,18.16-8.96,21.81
		c-8.7,2.98-18.12-2.21-18.76-14.72l0.26-29.48c-4.67,0.27-10.22,1.73-10.57-2.49c-0.36-4.33,6.15-3.5,10.78-3.73
		c0.11-7.22-0.98-16.36,3.83-15.96c4.6,0.38,2.52,6.88,2.38,15.85c3.19-0.05,14.52-0.86,16.22,0.93c1.9,2.01,0.59,5.3-2.33,5.28
		c-5.25-0.07-9.95-0.07-14.09,0l0.31,33.47c1.74,6.65,14.51,8.99,14.51-3.42c0-2.82-1.17-12.33,4.04-11.24
		C252.21,586.2,253.37,587.84,252.95,589.54L252.95,589.54z M266.46,542.7c5.72,0,14.87-7.8,15.13,9.84l-0.21,11.3
		c11.22-8.83,35.59-7.67,34.92,16.58c-0.35,12.72-1.33,5.06-0.31,23.42c6.28,0.19,11.81-0.85,11.81,3.32
		c0,5.78-11.08,1.55-26.42,3.32c-4.11,0.47-4.83-5.65-0.83-6.22c2.69-0.35,5.77-0.52,9.22-0.52c-1.01-17.62-0.27-10.42,0.41-23.63
		c0.87-16.9-16.25-17.72-24.56-11.61c-5.77,4.25-4.95,8.58-5.39,15.75c-0.48,8.84-0.41,15.51,0.21,20
		c7.17,0.27,12.64-0.74,12.64,3.42c0,5.78-11.07,1.55-26.42,3.32c-4.07,0.47-4.83-5.63-0.83-6.22c2.49-0.35,5.28-0.52,8.39-0.52
		c-1.62-12.61,2.51-53.09,0.62-56.89c-3.29,0-10.43,3.94-11.04-1.09C263.61,544.55,264.64,542.98,266.46,542.7L266.46,542.7z
		 M348.46,580.31c1-0.25,28.19,1.21,31.3-0.93c2.43-1.68-2.59-17.96-17.98-15.03C353,566.03,348.96,571.75,348.46,580.31
		L348.46,580.31z M385.35,595.13c-2.71,16.58-30.48,27.45-40.52,2.69c-4.66-11.48-4.87-30.61,9.64-37.62
		c23.29-11.24,39.47,17.02,28.81,24.35c-4.79,3.29-33.1,2.33-34.82,1.76c0.75,11.67,9.23,25.57,22.8,17.72
		c10.98-6.36,5.85-13.48,11.5-12.54C384.43,591.78,385.63,593.46,385.35,595.13L385.35,595.13z M433.16,559.9
		c4.57,0.91,13.16-2.15,13.16,5.91c7.21-7.75,32.82-11.22,28.91,7.98c-2.6,12.75-10.22,8.9-10.98,6.63c-2.59,0-1.66-8.48,3.94-4.77
		l0.93-7.98c-0.9-1.18-19.55-7.05-21.97,12.12l-0.41,24.77c4.84-0.1,11.97-1.1,11.61,3.37c-0.35,4.37-5.6,2.74-14.4,2.85
		c-9.04,0.11-14.51,1.38-14.51-3.06c0-4.21,5.57-2.94,11.09-3.06c0-18.66,1.45-21.9-0.41-38.34v-0.1c-4.65,0-10.97,1.02-10.41-3.57
		C429.9,560.87,431.39,559.76,433.16,559.9L433.16,559.9z M524.7,599.8c0.11-0.88,11.07-13.89-1.55-28.6
		c-16.43-19.14-40.54,12.7-21.87,29.64C508.71,607.58,517.7,606.94,524.7,599.8L524.7,599.8z M532.16,600.42
		c-21.54,29.8-59.02-5.14-37.72-31.81c17.53-21.96,41.17-2.66,40.98,18.96c-0.03,3.94-0.92,7.53-2.64,10.78
		C532.85,599.11,532.64,599.8,532.16,600.42L532.16,600.42z M581.62,583.63c-8.9,4.45-22.56,0.31-26.42,10.26
		c-3.27,8.41,6.4,13.93,13.57,12.12c4.08-1.04,8.39-4.94,12.95-11.71L581.62,583.63L581.62,583.63z M557.06,576.48
		c-15.72-12.8,17.08-26.24,27.67-12.64c6.67,8.56-0.77,44.2,8.08,42.38c7.63-1.57,0.88-15.85,7.46-15.85
		c5.65,0,3.23,15.11-1.14,19.27c-5.49,5.23-13.75,3.62-16.27-6.43c-19.14,22.71-45.06-1-30.21-16.99c7.22-7.77,27.2-5.2,28.86-10.36
		c0.19-0.59,1.33-10.1-8.13-11.19c-3.61-0.42-18.89,1.48-12.38,6.84C564.02,573.99,560.54,578.92,557.06,576.48L557.06,576.48z
		 M669.64,609.23c-7.74,3.52-12.92,1.79-14.92-6.22c-20.87,19.8-48.85-3.8-34.51-30.57c5.89-10.99,23.04-17.93,35.34-1.55l0.1-22.49
		c-1.05-1.73-9.98,1.04-9.53-4.35c0.42-4.97,11.88-2.57,14.4,0.52c5.57,6.81-3.71,58.24,1.76,60c2.72,0.87,7.15-3.48,8.91,0.57
		C671.87,606.7,671.33,608.52,669.64,609.23L669.64,609.23z M654.71,580.52c-5.46-8.18-11.26-17.42-23.06-11.14
		c-13.54,7.21-11.94,33.37,4.72,34.61c8.12,0.6,16.8-6.46,17.93-10.1l0.62-13.06C654.85,580.76,654.78,580.66,654.71,580.52
		L654.71,580.52z M749.78,589.54c-0.73,6.65,1.71,18.16-8.96,21.81c-8.7,2.98-18.12-2.21-18.76-14.72l0.26-29.48
		c-4.67,0.27-10.22,1.73-10.57-2.49c-0.36-4.33,6.15-3.5,10.78-3.73c0.11-7.22-0.98-16.36,3.83-15.96c4.6,0.38,2.52,6.88,2.38,15.85
		c3.19-0.05,14.52-0.86,16.22,0.93c1.9,2.01,0.59,5.3-2.33,5.28c-5.25-0.07-9.95-0.07-14.09,0l0.31,33.47
		c1.74,6.65,14.51,8.99,14.51-3.42c0-2.82-1.17-12.33,4.04-11.24C749.04,586.2,750.2,587.84,749.78,589.54L749.78,589.54z
		 M799.03,599.8c0.11-0.88,11.07-13.89-1.55-28.6c-16.43-19.14-40.54,12.7-21.87,29.64C783.05,607.58,792.04,606.94,799.03,599.8
		L799.03,599.8z M806.49,600.42c-21.54,29.8-59.02-5.14-37.72-31.81c17.53-21.96,41.17-2.66,40.98,18.96
		c-0.03,3.94-0.91,7.53-2.64,10.78C807.18,599.11,806.98,599.8,806.49,600.42L806.49,600.42z"/>
	<path d="M180.88,625.59c4.57,0.91,13.16-2.15,13.16,5.91c7.21-7.75,32.82-11.22,28.91,7.98c-2.6,12.75-10.22,8.9-10.98,6.63
		c-2.59,0-1.66-8.48,3.94-4.77l0.93-7.98c-0.9-1.18-19.55-7.05-21.97,12.12l-0.42,24.77c4.84-0.1,11.97-1.1,11.61,3.37
		c-0.35,4.37-5.6,2.74-14.4,2.85c-9.04,0.11-14.51,1.38-14.51-3.06c0-4.21,5.57-2.94,11.09-3.06c0-18.66,1.45-21.9-0.41-38.34v-0.1
		c-4.65,0-10.97,1.02-10.41-3.57C177.63,626.56,179.12,625.45,180.88,625.59L180.88,625.59z M248.19,646
		c1-0.25,28.19,1.21,31.3-0.93c2.43-1.68-2.59-17.96-17.98-15.03C252.73,631.71,248.7,637.44,248.19,646L248.19,646z M285.08,660.82
		c-2.71,16.58-30.48,27.45-40.52,2.69c-4.66-11.48-4.87-30.61,9.64-37.62c23.29-11.24,39.47,17.02,28.81,24.35
		c-4.79,3.29-33.1,2.33-34.82,1.76c0.75,11.67,9.23,25.57,22.8,17.72c10.98-6.36,5.85-13.48,11.5-12.54
		C284.16,657.47,285.36,659.15,285.08,660.82L285.08,660.82z M335.81,641.65c8.96-8.96-18.92-22.12-23.94,4.66
		c-4.6,24.56,20.8,38.58,29.43,11.61c1.23-3.84,7.13-2.09,6.01,1.86c-7.38,26.02-37.22,25.52-41.87-3
		c-2.38-14.64,6.6-36.49,25.39-32.02c22.05,5.24,10.87,26.77,5.08,21.3C334.65,644.85,334.72,642.88,335.81,641.65L335.81,641.65z
		 M400.84,665.48c0.11-0.88,11.07-13.89-1.55-28.6c-16.43-19.14-40.54,12.7-21.87,29.64C384.86,673.26,393.85,672.62,400.84,665.48
		L400.84,665.48z M408.3,666.11c-21.54,29.8-59.02-5.14-37.72-31.81c17.53-21.96,41.17-2.66,40.98,18.96
		c-0.03,3.94-0.92,7.53-2.64,10.78C408.99,664.79,408.79,665.48,408.3,666.11L408.3,666.11z M477.06,633.15
		c-7.83,17.56-16.26,61.05-28.91,36.17c-4.71-9.26-11.43-28.3-13.47-36.58c-4.16,0-10.4,0.69-10.05-3.68
		c0.14-1.76,1.64-2.99,3.42-2.85c4.35,0.35,11.05,0.38,20.1,0.1c4.22-0.06,4.2,6.15,0.21,6.22c-3.87,0.14-6.29,0.21-7.25,0.21
		c1.97,6.96,10.14,31.14,14.61,37.1c4.55-7.14,11.54-27.7,14.92-37.31c-5.11,0-11.86,0.84-11.5-3.68c0.14-1.76,1.64-2.99,3.42-2.85
		c4.35,0.35,11.05,0.38,20.1,0.1c4.26-0.06,4.17,6.18,0.21,6.22c-3.25,0.07-5.11,0.14-5.6,0.21
		C477.27,632.74,477.2,632.94,477.06,633.15L477.06,633.15z M510.8,646c1-0.25,28.19,1.21,31.3-0.93
		c2.43-1.68-2.59-17.96-17.98-15.03C515.34,631.71,511.3,637.44,510.8,646L510.8,646z M547.69,660.82
		c-2.71,16.58-30.48,27.45-40.52,2.69c-4.66-11.48-4.87-30.61,9.64-37.62c23.29-11.24,39.47,17.02,28.81,24.35
		c-4.79,3.29-33.1,2.33-34.82,1.76c0.75,11.67,9.23,25.57,22.8,17.72c10.98-6.36,5.85-13.48,11.5-12.54
		C546.77,657.47,547.97,659.15,547.69,660.82L547.69,660.82z M568.68,625.59c4.57,0.91,13.16-2.15,13.16,5.91
		c7.21-7.75,32.82-11.22,28.91,7.98c-2.6,12.75-10.22,8.9-10.98,6.63c-2.59,0-1.66-8.48,3.94-4.77l0.93-7.98
		c-0.9-1.18-19.55-7.05-21.97,12.12l-0.41,24.77c4.84-0.1,11.97-1.1,11.61,3.37c-0.35,4.37-5.6,2.74-14.4,2.85
		c-9.04,0.11-14.51,1.38-14.51-3.06c0-4.21,5.57-2.94,11.09-3.06c0-18.66,1.45-21.9-0.41-38.34v-0.1c-4.65,0-10.97,1.02-10.41-3.57
		C565.42,626.56,566.91,625.45,568.68,625.59L568.68,625.59z M662.93,626.11c3.14,0.1,21.49-0.58,23.26,1.4
		c2.11,2.37,0.12,5.28-2.33,5.23c-2-0.07-4.35-0.14-7.05-0.21c-1.33,4.37-19.03,49.59-22.8,55.23
		c-14.08,21.12-35.13,3.68-30.88-3.83c7.36-13.02,15.22,2.96,10.57,6.84c10.62,5.32,19.16-12.72,19.38-14.82
		c0.65-6.1-14.56-36.56-17.82-43.42c-4.17,0-9.95,1.1-9.95-3.11c0-4.41,6.44-3.11,13.73-3.16c7.16-0.05,13.73-1.39,13.73,3.06
		c0,4.27-6.03,3.11-10.67,3.11c5.09,11.46,10.16,19.63,14.82,33.26l13.37-33.16c-5.28-0.12-10.57,0.84-10.57-3.37
		C659.72,627.38,661.17,626.11,662.93,626.11L662.93,626.11z"/>
	<path d="M81.84,701.22c-0.23-2.55,4.8-7.29,7.19-2.66c0.73,1.41,1.47,4.89-0.47,5.92C85.32,706.22,81.84,704.89,81.84,701.22
		L81.84,701.22z M79.52,708.28c2.11,0,10.49-3.82,10.05,6.39l-0.6,5.46c-0.52,12.6,3.34,30.24-9.38,33.07
		c-3.52,0.78-6.07-0.06-8.85-2.2c-1.54-1.18-1.77-1.35-1.86-3.46c-0.13-2.77,4.86-7.18,7.19-2.66c0.52,1.01,1.07,3.57,0.6,4.53
		c2.65,0.27,5.27-1.05,6.65-3.39c2.16-3.66,1.84-12.37,1.66-19.5c-0.23-9.09,0.26-5.64,0.6-12.04c0.08-1.43,0.02-1.93-0.4-2.86
		c-2.18,0-2.81,0.12-4.99,0.67C78.01,712.81,76.61,709,79.52,708.28L79.52,708.28z M93.43,708.41c3,0,6.79-2.18,7.52,5.39
		c0.37,3.86-0.2,18.7,2.2,21.29c3.85,4.17,14.03,2.67,15.77-3.83l0.6-2.69c0.18-0.97-0.41-13.82,0.6-16.5
		c-1.64-0.33-6.23,0.9-5.99-2.16c0.18-2.26,2.37-1.87,3.39-1.9c9.14-0.25,6.36,4.95,6.32,5.52c-0.32,4.33-0.69,19.29,0.07,23.49
		l4.46-0.73c1.43-0.2,3.04,1.63,1.73,3.26c-0.74,0.93-3.23,1.06-4.39,1.26c-4.27,0.76-5.27-0.38-5.79-3.53
		c-4.9,4.9-14.73,5.92-19.7,0.47c-4.34-4.77-2.2-20.56-3.59-25.68c-1.65,0-4.89,1.32-5.12-1.56
		C91.41,709.35,92.31,708.49,93.43,708.41L93.43,708.41z M135.62,742.01c-1.28-4.88-1-8.35-1-13.17c0-2.62,3.99-2.62,3.99,0v4.13
		c3.44,3.44,4.91,5.4,10.25,5.06c9.81-0.64,10.27-7.9,5.46-10.18c-5.69-2.69-16.25-1.44-17.83-9.18
		c-1.85-9.05,7.61-13.46,15.44-10.05c0.89,0.36,1.93,0.95,3.13,1.8c0.08-1.32-0.16-4.25,2.23-4.06c1.1,0.09,1.98,0.94,1.9,2.13
		c-0.27,3.99-0.27,7.56,0,10.71c0.22,2.59-3.8,2.92-3.99,0.27c-0.09-1.37-0.16-2.79-0.2-4.26c-2.7-1.95-5.22-3.81-8.52-3.76
		c-3.63,0.06-7.01,2.18-6.12,6.42c1.3,6.23,18.18,2.01,20.63,12.24c2.3,9.64-10.28,13.81-17.7,11.25c-1.46-0.49-2.88-1.31-4.26-2.46
		c0.27,1.45,1.35,3.83-0.93,4.49C136.99,743.69,135.97,743.06,135.62,742.01L135.62,742.01z M186.79,726.97
		c-0.41,3.72,0.54,7.7-1.8,10.98c-4.46,6.27-13.82,3.5-15.5-2.86c-0.98-3.7-0.33-7.72-0.33-11.05V712.6l-4.66,0.27
		c-2.59,0.18-2.89-3.81-0.27-3.99c1.6-0.09,3.28-0.18,5.06-0.27c0.05-3.02,0.16-5.81,0.33-8.38c0.2-2.66,4.19-2.3,3.99,0.27
		c-0.18,2.48-0.29,5.17-0.33,8.05c2.71-0.04,5.72-0.04,9.05,0c2.51,0.02,2.64,4.01-0.13,3.99c-3.37-0.05-6.39-0.05-9.05,0
		c0,4.88,0.16,9.98-0.13,14.9c-0.19,3.16-0.58,7.6,2.43,9.32c2.1,1.2,4.93,0.96,6.35-1.06c1.89-2.68-0.29-9.28,1.96-10.78
		C185.3,723.88,187.2,725.32,186.79,726.97L186.79,726.97z M229.18,708.21c4.61,0.31,9.18,0.4,13.71,0.27
		c2.71-0.04,2.66,3.96,0.13,3.99c-1.69,0.04-3.42,0.07-5.19,0.07c-0.41,0.81-6.94,7.07-8.45,8.45c4.82,5.11,8.53,10.51,12.31,15.84
		c1.69,0,3.39-0.02,5.12-0.07c2.71-0.04,2.66,3.96,0.13,3.99c-4.66,0.13-9.36,0.04-14.11-0.27c-2.64-0.2-2.31-4.2,0.27-3.99
		c1.2,0.09,2.4,0.16,3.59,0.2c-4.08-5.77-7.52-10.11-10.31-13.04l-6.52,5.46c-0.09,4.48-0.13,7.12-0.13,7.92
		c1.69,0,3.37-0.02,5.06-0.07c2.71-0.04,2.66,3.96,0.13,3.99c-4.66,0.13-9.36,0.04-14.11-0.27c-2.63-0.19-2.32-4.17,0.27-3.99
		l4.66,0.27c0-8.41,0.86-28.72,0.27-35.8v-0.13c-1.17-0.77-3.99,0.61-5.22-0.76c-1.32-1.48-0.15-3.36,1.5-3.36
		c2.32,0,7.04-0.86,7.72,3.79c0.29,2.01,0.08,18.84,0,23.16c4.84-4.04,9.01-7.85,12.51-11.44c-1.98-0.07-5.67,0.29-5.46-2.33
		C227.14,709.01,228.1,708.12,229.18,708.21L229.18,708.21z M256.47,701.22c-0.23-2.55,4.8-7.29,7.19-2.66
		c0.73,1.41,1.47,4.89-0.47,5.92C259.94,706.22,256.47,704.89,256.47,701.22L256.47,701.22z M252.94,736.69
		c1.86-0.44,4.04-0.64,6.52-0.6c-0.46-3.54-0.49-18.21-0.66-22.49c-0.04-0.84-0.07-1.51-0.07-2l-4.32,0.07c-2.62,0-2.62-3.99,0-3.99
		c8.01-0.04,8.14-1.26,8.38,5.79c0.14,4.14,0.32,20.76,0.73,22.82c2.96,0.26,4.68,0,5.49,0.87c1.25,1.33,0.31,3.44-1.5,3.39
		c-4.45-0.1-8.88-1.04-13.64,0C251.05,741.16,250.53,737.09,252.94,736.69L252.94,736.69z M307.38,739.62
		c-4.98,2.27-8.3,1.14-9.58-3.99c-8.43,8-21.75,5.78-24.35-7.39c-1.76-8.91,4.32-20.17,15.24-19.4c4.41,0.31,7.08,2.73,9.65,6.15
		c0.29-2.86,0.66-13.47,0.07-14.44c-0.3-0.48-3.74-0.57-4.33-0.6c-1.48-0.06-2.62-2.29-1.06-3.53c0.93-0.74,3.27-0.41,4.52-0.27
		c4.83,0.53,5.07,3.69,5.19,7.85c0.15,5.17-0.68,14.68-1,20.16c-0.13,2.29-0.43,9.34,0.13,11.25c1.05,3.58,5.09-1.73,6.52,1.56
		C308.82,738,308.47,739.16,307.38,739.62L307.38,739.62z M297.8,721.18c-3.05-4.57-5.13-8.02-9.42-8.32
		c-10.9-0.77-14.63,14.66-7.85,20.96c3.32,3.08,7.79,3.11,11.74,0.96c2.08-1.13,3.84-2.81,5.26-5.02l0.4-8.38
		C297.89,721.34,297.84,721.27,297.8,721.18L297.8,721.18z M346.38,739.62c-4.99,2.27-8.29,1.14-9.58-3.99
		c-8.43,7.99-21.75,5.79-24.35-7.39c-1.76-8.91,4.32-20.17,15.24-19.4c4.41,0.31,7.08,2.73,9.65,6.15
		c0.29-2.86,0.66-13.47,0.07-14.44c-0.3-0.48-3.74-0.57-4.32-0.6c-1.48-0.06-2.62-2.29-1.06-3.53c0.93-0.74,3.27-0.41,4.52-0.27
		c4.83,0.53,5.07,3.68,5.19,7.85c0.14,5.17-0.68,14.68-1,20.16c-0.13,2.29-0.43,9.34,0.13,11.25c1.05,3.58,5.09-1.73,6.52,1.56
		C347.81,738,347.46,739.16,346.38,739.62L346.38,739.62z M336.79,721.18c-3.05-4.57-5.13-8.02-9.42-8.32
		c-10.9-0.77-14.63,14.66-7.85,20.96c3.32,3.08,7.8,3.11,11.74,0.96c2.08-1.13,3.84-2.81,5.26-5.02l0.4-8.38
		C336.88,721.34,336.84,721.27,336.79,721.18L336.79,721.18z M355.17,701.22c-0.23-2.55,4.8-7.29,7.19-2.66
		c0.73,1.41,1.47,4.89-0.47,5.92C358.64,706.22,355.17,704.88,355.17,701.22L355.17,701.22z M351.64,736.69
		c1.86-0.44,4.04-0.64,6.52-0.6c-0.46-3.54-0.49-18.21-0.67-22.49c-0.04-0.84-0.07-1.51-0.07-2l-4.33,0.07c-2.62,0-2.62-3.99,0-3.99
		c8.01-0.04,8.14-1.26,8.38,5.79c0.14,4.15,0.32,20.76,0.73,22.82c2.96,0.26,4.68,0,5.49,0.87c1.26,1.33,0.31,3.44-1.5,3.39
		c-4.45-0.1-8.88-1.04-13.64,0C349.75,741.16,349.23,737.09,351.64,736.69L351.64,736.69z M373.67,736.42
		c1.55-0.13,3.33-0.16,5.32-0.07c-0.64-5.3,0.26-20.11-0.4-24.35c-2.29-0.29-6.65,1.19-6.65-2c0-2.37,3.18-1.94,5.12-2
		c2.47-0.07,4.93,0.01,5.39,2.79c5.92-4.87,14.18-5.49,18.56-0.13c5.26,6.42,2.73,18.73,2.73,25.88c1.77,0.09,3.24,0.11,4.39,0.07
		c2.69-0.05,2.68,3.95,0.13,3.99c-2.96,0.05-9.64-0.53-12.98-0.2c-2.63,0.26-2.98-3.76-0.4-3.99c1.38-0.13,3-0.18,4.86-0.13
		c0.26-6,2.11-18.27-1.8-23.09c-1.33-1.6-3.33-2.35-5.99-2.26c-3.15,0.09-6.21,1.75-9.18,4.99c0.04,1.42,0.04,3.64,0,6.65
		c-0.09,5.16-0.23,11.83,0.33,13.97c2.59,0.16,4.22-0.26,5.22,0.63c1.33,1.19,0.38,3.4-1.3,3.43c-2.96,0.05-9.64-0.53-12.98-0.2
		C371.44,740.68,371.09,736.64,373.67,736.42L373.67,736.42z M424.24,736.29c-0.73,0.55-4.25,1.47-5.92,4.72
		c-1.95,3.82,2.34,6.38,6.25,7.02c4.01,0.65,12.01,0.11,14.84-2.79c2.05-2.11,2.39-5.37-1.2-7.22
		C434.27,735.98,428.63,735.43,424.24,736.29L424.24,736.29z M435.56,721.98c0.74-1.23,2.08-2.71,2.06-4.19
		c-0.09-6.55-9.42-8.43-13.31-4.39C417.09,720.89,429.45,727.68,435.56,721.98L435.56,721.98z M438.22,724.91
		c-2.63,2.46-6.32,3.6-9.75,3.13c-1.62-0.22-3.16-0.71-4.62-1.46c-2.01-0.86-7.8,0.07-4.49,4.12c0.69,0.84,1.76,1.46,3.23,1.86
		c2.62-0.62,5.58-0.78,8.88-0.47c18.43,1.73,15.33,15.81,6.36,18.7c-6.12,1.97-15.4,2.62-20.69-1.66
		c-5.33-4.32-3.74-10.21,1.26-14.11c-5.26-3.34-5.8-10.47,1.07-12.44c-4.55-7.11,2.82-17.26,13.37-14.97
		c2.23-9.91,16.74-8.11,13.51,1.2c-0.85,2.45-4.63,1.13-3.73-1.33c1.39-3.81-5.02-3.3-5.92,1c-0.04,0.22-0.11,0.42-0.2,0.6
		c3.74,2.25,5.8,6.21,4.96,10.25C441.13,720.82,439.34,723.79,438.22,724.91L438.22,724.91z M457.32,741.08
		c-2.92,0.9-6.25-0.7-4.52-5.72c0.52-1.52,4.11-4.05,6.39,0c0.18,0.31,0.33,0.67,0.47,1.06c0.52,0.76,2.24,1.72,1.6,5.92
		c-0.4,2.44-1.44,5.32-3.13,8.65c-1.2,2.29-4.75,0.51-3.59-1.86C455.91,746.3,457.32,743.14,457.32,741.08L457.32,741.08z
		 M488.86,701.22c-0.23-2.55,4.8-7.29,7.19-2.66c0.73,1.41,1.47,4.89-0.47,5.92C492.34,706.22,488.86,704.89,488.86,701.22
		L488.86,701.22z M485.34,736.69c1.86-0.44,4.04-0.64,6.52-0.6c-0.46-3.54-0.48-18.21-0.66-22.49c-0.04-0.84-0.07-1.51-0.07-2
		l-4.33,0.07c-2.62,0-2.62-3.99,0-3.99c8.01-0.04,8.14-1.26,8.38,5.79c0.14,4.14,0.32,20.77,0.73,22.82c2.96,0.26,4.67,0,5.49,0.87
		c1.25,1.33,0.31,3.44-1.5,3.39c-4.45-0.1-8.88-1.04-13.64,0C483.45,741.16,482.93,737.09,485.34,736.69L485.34,736.69z
		 M512.02,703.02c-3.25,0.92-6.17-0.95-4.52-5.72c0.45-1.31,3.92-4.22,6.39,0c0.13,0.22,0.24,0.46,0.33,0.73
		c0.48,0.67,2.4,1.69,1.73,6.06c-0.4,2.44-1.44,5.32-3.13,8.65c-1.2,2.29-4.75,0.51-3.59-1.86
		C510.53,708.22,512.02,704.82,512.02,703.02L512.02,703.02z M545.7,725.31c-0.27-1.82-0.29-3.68-0.07-5.59
		c-0.44-3.19-1.24-5.61-2.4-7.25c-3.29-4.75-11.11,0.69-12.44,3.99c-0.09,0.27-0.24,0.49-0.47,0.67c-0.14,4.4-0.42,11.5-0.17,15.77
		l0.37,3.53c2.41,0.07,4.33-0.31,5.19,0.5c1.37,1.29,0.5,3.39-1.2,3.49c-2.43,0.15-10.03-0.56-13.04,0.13
		c-2.56,0.59-3.41-3.35-0.8-3.86c1.6-0.35,3.53-0.51,5.79-0.47c-0.84-7.59-0.13-11.82-0.13-18.8c0-1.49,0.85-5.3,0.2-5.76
		c-0.4-0.28-4.74,0.44-5.46,0.47c-2.76,0.1-2.8-3.89-0.27-3.99c3.13-0.13,7.97-2.03,9.65,2.4c5.78-5.27,14.42-5.92,17.57,2.46
		c4.3-6.64,13.44-7.97,18.56-3.13c5.51,5.21,3.85,17.49,2.4,26.35c3.15,0.13,5.21,0.18,6.19,0.13c2.63-0.16,2.89,3.83,0.27,3.99
		l-8.18-0.2c-1.34,0.28-0.57,0.12-1.4,0c-1.8-0.26-5.25,1.56-5.82-1.2c-0.55-2.66,3.17-2.67,4.89-2.73
		c1.39-8.49,4.43-25.43-5.92-25.22c-2.48,0.04-4.55,0.88-6.19,2.49c-1.64,1.62-2.68,3.67-3.13,6.15c0.13,1.15,0.22,2.42,0.27,3.79
		c0.29,2.19-0.07,11.35-0.07,12.91c2.13,0.13,3.75,0.16,4.86,0.07c2.6-0.2,2.91,3.83,0.27,3.99c-2.43,0.15-10.03-0.56-13.04,0.13
		c-2.55,0.59-3.41-3.35-0.8-3.86c1.38-0.31,2.95-0.47,4.72-0.47l0.13-10.11C545.9,725.89,545.79,725.62,545.7,725.31L545.7,725.31z
		 M624.09,733.56c0.16-1.32,3.46-3.5,2.79-9.65c-0.98-9.08-10.72-18.51-19.16-7.85c-7.94,10.02,0.77,21.85,9.25,21.16
		C619.54,737,621.91,735.78,624.09,733.56L624.09,733.56z M628.88,733.96c-13.83,19.14-37.9-3.3-24.22-20.43
		c11.26-14.1,26.44-1.71,26.32,12.18c-0.02,2.53-0.59,4.83-1.7,6.92C629.32,733.12,629.19,733.56,628.88,733.96L628.88,733.96z
		 M636.34,736.42c1.55-0.13,3.33-0.16,5.32-0.07c-0.64-5.3,0.26-20.09-0.4-24.35c-2.29-0.29-6.65,1.19-6.65-2
		c0-2.37,3.18-1.94,5.12-2c2.47-0.07,4.93,0.01,5.39,2.79c5.92-4.87,14.18-5.49,18.56-0.13c5.26,6.42,2.73,18.73,2.73,25.88
		c1.77,0.09,3.24,0.11,4.39,0.07c2.69-0.05,2.68,3.95,0.13,3.99c-2.96,0.05-9.64-0.53-12.98-0.2c-2.63,0.26-2.98-3.76-0.4-3.99
		c1.38-0.13,2.99-0.18,4.86-0.13c0.26-6,2.11-18.27-1.8-23.09c-1.33-1.6-3.33-2.35-5.99-2.26c-3.15,0.09-6.21,1.75-9.18,4.99
		c0.04,1.42,0.04,3.64,0,6.65c-0.09,5.16-0.23,11.83,0.33,13.97c2.59,0.16,4.23-0.26,5.22,0.63c1.33,1.19,0.38,3.4-1.3,3.43
		c-2.96,0.05-9.64-0.53-12.98-0.2C634.1,740.68,633.76,736.64,636.34,736.42L636.34,736.42z M722.51,725.31
		c-0.27-1.82-0.29-3.68-0.07-5.59c-0.44-3.19-1.24-5.61-2.4-7.25c-3.29-4.75-11.11,0.69-12.44,3.99c-0.09,0.27-0.24,0.49-0.47,0.67
		c-0.14,4.4-0.42,11.5-0.17,15.77l0.37,3.53c2.41,0.07,4.33-0.31,5.19,0.5c1.37,1.29,0.5,3.39-1.2,3.49
		c-2.43,0.15-10.03-0.56-13.04,0.13c-2.55,0.59-3.41-3.35-0.8-3.86c1.6-0.35,3.53-0.51,5.79-0.47c-0.84-7.59-0.13-11.82-0.13-18.8
		c0-1.49,0.85-5.3,0.2-5.76c-0.4-0.28-4.74,0.44-5.46,0.47c-2.76,0.1-2.8-3.89-0.27-3.99c3.13-0.13,7.97-2.03,9.65,2.4
		c5.78-5.27,14.42-5.92,17.57,2.46c4.3-6.64,13.44-7.97,18.56-3.13c5.51,5.21,3.85,17.49,2.4,26.35c3.15,0.13,5.21,0.18,6.19,0.13
		c2.63-0.16,2.89,3.83,0.27,3.99l-8.18-0.2c-1.34,0.28-0.57,0.12-1.4,0c-1.8-0.26-5.25,1.56-5.82-1.2
		c-0.55-2.66,3.17-2.67,4.89-2.73c1.39-8.49,4.43-25.43-5.92-25.22c-2.48,0.04-4.55,0.88-6.19,2.49c-1.64,1.62-2.68,3.67-3.13,6.15
		c0.13,1.15,0.22,2.42,0.27,3.79c0.29,2.2-0.07,11.34-0.07,12.91c2.13,0.13,3.75,0.16,4.86,0.07c2.6-0.2,2.91,3.83,0.27,3.99
		c-2.43,0.15-10.03-0.56-13.04,0.13c-2.55,0.59-3.41-3.35-0.8-3.86c1.38-0.31,2.95-0.47,4.72-0.47l0.13-10.11
		C722.71,725.89,722.6,725.62,722.51,725.31L722.51,725.31z M779.94,708.28l13.57,0.27c2.53,0.04,2.57,4.04-0.13,3.99
		c-1.29-0.05-2.79-0.09-4.52-0.13c-2.22,7.26-8.53,21.22-10.45,26.28c-2.37,6.26-5.04,13.82-12.78,15.44
		c-3.98,0.83-7.45-0.51-10.25-4.13c-0.85-1.1-1.23-0.92-1.33-3.13c-0.13-2.77,4.86-7.18,7.19-2.66c0.67,1.3,1.36,4.4-0.07,5.59
		c3.63,1.81,7.39-0.77,9.72-4.19c0.93-1.38,1.84-3.15,2.73-5.32c-0.35-2-1-4.3-1.93-6.92c-2.34-6.58-6.43-14.47-9.51-20.96h-4.39
		c-2.62,0-2.62-3.99,0-3.99l13.64-0.07c2.62,0,2.62,3.99,0,3.99h-4.86c3,6.75,6.79,13.4,9.52,21.36c1.04-2.6,6.96-15.96,8.58-21.29
		c-1.91-0.04-3.53-0.09-4.86-0.13C777.28,712.23,777.17,708.28,779.94,708.28L779.94,708.28z"/>
	<path d="M74.02,797.22c-2.89-7.33-5.37-18.24-7.65-26.42c-3.85,7.7-4.26,13.11-5.85,21.29c-0.27,1.29-0.55,2.51-0.87,3.66
		c-0.4,2.54-3.1,2.28-3.79,0.73c-4.04-9.14-7.16-18.19-9.38-27.15c-3.01,0.06-5.36,0.43-6.32-0.53c-1.36-1.36-0.22-3.39,1.4-3.39
		c4.64,0,10.28-0.27,15.04,0.07c2.65,0.19,2.35,4.16-0.27,3.99c-1.69-0.09-3.59-0.13-5.72-0.13c1.64,6.48,3.79,13.04,6.45,19.7
		c1.72-9.36,1.76-10.72,5.26-18.96c0.98-2.31,2.37-5.78,5.12-5.26c1.74,0.33,2.26,3.25,2.79,5.12c1.86,6.68,3.76,14.63,5.86,21.09
		c1.56-4.92,4.45-16.36,6.45-21.49c-2.26,0-4.52,0-6.79,0c-2.61,0-2.61-3.99,0-3.99c7.9,0,12.91,0.07,15.04,0.2
		c2.64,0.19,2.3,4.2-0.27,3.99c-1.15-0.09-2.4-0.16-3.73-0.2c-1.06,2.57-2.44,6.9-4.12,12.97c-1.82,6.61-3.28,11.33-4.39,14.17
		c-0.24,1.06-0.97,1.61-1.66,1.66C75.55,798.7,74.47,798.29,74.02,797.22L74.02,797.22z M121.26,780.25
		c-5.7,2.85-14.48,0.2-16.97,6.59c-2.1,5.4,4.11,8.95,8.72,7.79c2.62-0.67,5.39-3.17,8.32-7.52L121.26,780.25L121.26,780.25z
		 M105.49,775.66c-6.97-5.69,1.13-12.75,10.98-11.58c12.25,1.46,7.7,14.07,9.12,25.92c0.89,7.43,4.48,4.57,5.19,2.43
		c1.03-3.1-0.75-7.85,2.46-7.85c2.39,0,2,2.75,2,4.19c0,11.36-9.5,12.43-12.38,6.39c-0.31-0.66-0.58-1.44-0.8-2.33
		c-3.92,4.65-8.35,6.92-13.77,5.66c-8.69-2.02-10.73-11.07-5.62-16.57c3.79-4.08,11.14-3.62,15.14-4.66c1.6-0.4,2.73-1.06,3.39-2
		c0.13-0.39-0.23-4.19-1.13-5.32c-2.72-3.43-11.81-1.8-13.11,0.8c-0.55,1.11,3.11,2.35,1.36,4.56
		C107.64,776.15,106.37,776.27,105.49,775.66L105.49,775.66z M164.71,765.34l13.57,0.27c2.53,0.04,2.57,4.04-0.13,3.99
		c-1.29-0.04-2.79-0.09-4.52-0.13c-2.22,7.26-8.53,21.22-10.45,26.28c-2.37,6.26-5.04,13.82-12.78,15.44
		c-3.99,0.83-7.44-0.51-10.25-4.13c-0.86-1.1-1.23-0.92-1.33-3.13c-0.13-2.77,4.86-7.18,7.19-2.66c0.67,1.3,1.36,4.4-0.07,5.59
		c3.63,1.81,7.39-0.77,9.72-4.19c0.93-1.37,1.84-3.15,2.73-5.32c-0.35-2-1-4.3-1.93-6.92c-2.34-6.58-6.43-14.47-9.51-20.96h-4.39
		c-2.62,0-2.62-3.99,0-3.99l13.64-0.07c2.62,0,2.62,3.99,0,3.99h-4.86c3.01,6.75,6.79,13.4,9.52,21.36
		c1.04-2.6,6.96-15.96,8.58-21.29c-1.91-0.04-3.53-0.09-4.86-0.13C162.05,769.29,161.94,765.34,164.71,765.34L164.71,765.34z
		 M229.38,784.04c-0.41,3.72,0.53,7.71-1.8,10.98c-4.46,6.27-13.82,3.5-15.5-2.86c-0.98-3.7-0.33-7.72-0.33-11.05v-11.44l-4.66,0.27
		c-2.59,0.18-2.89-3.81-0.27-3.99c1.6-0.09,3.28-0.18,5.06-0.27c0.05-3.02,0.16-5.81,0.33-8.38c0.2-2.66,4.19-2.3,3.99,0.27
		c-0.18,2.48-0.29,5.17-0.33,8.05c2.71-0.04,5.72-0.04,9.05,0c2.51,0.02,2.64,4.01-0.13,3.99c-3.37-0.04-6.39-0.04-9.05,0
		c0,4.88,0.16,9.98-0.13,14.9c-0.19,3.16-0.58,7.6,2.43,9.32c2.1,1.2,4.93,0.96,6.36-1.06c1.89-2.68-0.29-9.28,1.96-10.78
		C227.9,780.95,229.8,782.39,229.38,784.04L229.38,784.04z M259.93,790.63c0.16-1.32,3.46-3.5,2.79-9.65
		c-0.98-9.08-10.72-18.51-19.16-7.85c-7.94,10.02,0.76,21.85,9.25,21.16C255.38,794.07,257.75,792.85,259.93,790.63L259.93,790.63z
		 M264.72,791.03c-13.83,19.14-37.9-3.3-24.22-20.43c11.26-14.1,26.44-1.71,26.32,12.18c-0.02,2.53-0.59,4.83-1.7,6.92
		C265.16,790.18,265.03,790.63,264.72,791.03L264.72,791.03z M304.44,793.36c-0.74,0.55-4.25,1.47-5.92,4.72
		c-1.95,3.81,2.34,6.38,6.25,7.02c4.01,0.65,12.01,0.11,14.84-2.79c2.05-2.11,2.39-5.37-1.2-7.22
		C314.47,793.05,308.83,792.5,304.44,793.36L304.44,793.36z M315.75,779.05c0.74-1.23,2.08-2.71,2.06-4.19
		c-0.1-6.55-9.42-8.42-13.31-4.39C297.28,777.96,309.65,784.74,315.75,779.05L315.75,779.05z M318.41,781.98
		c-4.22,3.95-9.5,3.95-14.37,1.66c-2.01-0.86-7.8,0.07-4.49,4.12c0.69,0.84,1.76,1.46,3.23,1.86c2.62-0.62,5.58-0.78,8.88-0.47
		c18.43,1.73,15.33,15.81,6.36,18.7c-6.12,1.97-15.4,2.62-20.69-1.66c-5.33-4.32-3.74-10.21,1.26-14.11
		c-5.26-3.34-5.8-10.47,1.07-12.44c-4.55-7.12,2.82-17.26,13.37-14.97c2.23-9.91,16.74-8.11,13.51,1.2
		c-0.85,2.45-4.63,1.13-3.73-1.33c1.39-3.81-5.02-3.3-5.92,1c-0.04,0.22-0.11,0.42-0.2,0.6c3.74,2.25,5.8,6.21,4.96,10.25
		C321.33,777.89,319.54,780.86,318.41,781.98L318.41,781.98z M339.17,778.12c0.7-0.18,18.09,0.79,20.1-0.6
		c1.64-1.13-1.45-6.47-3.26-7.92c-4.5-3.61-12.46-2.07-15.37,2.93C339.79,773.99,339.3,775.86,339.17,778.12L339.17,778.12z
		 M362.86,787.63c-0.7,4.28-3.22,7.09-7.05,9.18c-12.15,6.63-20.46-4.93-20.63-15.04c-0.07-4-0.13-7.56,2-11.25
		c4.59-7.94,17.74-9.86,23.69-1.43c2.6,3.68,4.64,9.01,0.67,11.74c-3.18,2.19-16.16,1.29-21.96,1.2c-0.13,0-0.27-0.02-0.4-0.07
		c0.48,7.49,5.93,16.42,14.64,11.38c6.46-3.74,3.97-6.31,5.89-7.69C361.28,784.54,363.13,786.01,362.86,787.63L362.86,787.63z
		 M392.87,784.04c-0.41,3.72,0.54,7.7-1.8,10.98c-4.46,6.27-13.82,3.5-15.5-2.86c-0.98-3.7-0.33-7.72-0.33-11.05v-11.44l-4.66,0.27
		c-2.59,0.18-2.89-3.81-0.27-3.99c1.6-0.09,3.28-0.18,5.06-0.27c0.05-3.02,0.16-5.81,0.33-8.38c0.2-2.66,4.19-2.3,3.99,0.27
		c-0.18,2.48-0.29,5.17-0.33,8.05c2.71-0.04,5.72-0.04,9.05,0c2.51,0.02,2.64,4.01-0.13,3.99c-3.37-0.04-6.39-0.04-9.05,0
		c0,4.88,0.16,9.98-0.13,14.9c-0.19,3.16-0.58,7.6,2.43,9.32c2.1,1.2,4.93,0.96,6.36-1.06c1.89-2.68-0.29-9.28,1.96-10.78
		C391.38,780.95,393.28,782.39,392.87,784.04L392.87,784.04z M446.23,782.38c-0.27-1.82-0.29-3.68-0.07-5.59
		c-0.44-3.19-1.24-5.61-2.4-7.25c-3.29-4.75-11.11,0.7-12.44,3.99c-0.09,0.27-0.24,0.49-0.47,0.67c-0.14,4.4-0.42,11.5-0.17,15.77
		l0.37,3.53c2.41,0.07,4.33-0.31,5.19,0.5c1.37,1.29,0.5,3.39-1.2,3.49c-2.43,0.15-10.02-0.56-13.04,0.13
		c-2.55,0.59-3.41-3.35-0.8-3.86c1.6-0.35,3.53-0.51,5.79-0.47c-0.84-7.59-0.13-11.82-0.13-18.8c0-1.49,0.85-5.3,0.2-5.76
		c-0.4-0.28-4.74,0.44-5.46,0.47c-2.76,0.1-2.8-3.89-0.27-3.99c3.13-0.13,7.97-2.03,9.65,2.4c5.78-5.27,14.42-5.92,17.57,2.46
		c4.3-6.64,13.44-7.97,18.56-3.13c5.51,5.21,3.85,17.49,2.4,26.35c3.15,0.13,5.21,0.18,6.19,0.13c2.63-0.16,2.89,3.83,0.27,3.99
		l-8.18-0.2c-1.34,0.28-0.57,0.12-1.4,0c-1.8-0.26-5.25,1.56-5.82-1.2c-0.55-2.66,3.17-2.67,4.89-2.73
		c1.39-8.49,4.43-25.43-5.92-25.22c-2.48,0.04-4.55,0.88-6.19,2.5c-1.64,1.62-2.68,3.67-3.13,6.15c0.13,1.15,0.22,2.42,0.27,3.79
		c0.29,2.2-0.07,11.34-0.07,12.91c2.13,0.13,3.75,0.16,4.86,0.07c2.6-0.2,2.91,3.83,0.27,3.99c-2.43,0.15-10.03-0.56-13.04,0.13
		c-2.55,0.59-3.41-3.35-0.8-3.86c1.38-0.31,2.95-0.47,4.72-0.47l0.13-10.11C446.43,782.95,446.32,782.69,446.23,782.38
		L446.23,782.38z M508.31,790.63c0.16-1.32,3.46-3.5,2.79-9.65c-0.98-9.08-10.72-18.51-19.16-7.85
		c-7.94,10.02,0.76,21.85,9.25,21.16C503.76,794.07,506.14,792.85,508.31,790.63L508.31,790.63z M513.1,791.03
		c-13.83,19.14-37.9-3.3-24.22-20.43c11.26-14.1,26.44-1.71,26.32,12.18c-0.02,2.53-0.59,4.83-1.7,6.92
		C513.55,790.18,513.41,790.63,513.1,791.03L513.1,791.03z M524.01,765.01c1.33,0.26,5.87-0.36,7.19,0.73
		c0.54,0.45,1.26,2.12,1.26,3.06c3.73-4.01,12-5.41,16.97-2c4.45,3.06,0.18,16.77-4.99,11.91c-0.27-0.22-0.42-0.4-0.47-0.53
		c-0.28,0-1.63-1.35-0.57-2.83c0.95-1.33,2.09-0.89,3.09-0.23c0.51-1.31,1.13-4.43,0.6-5.12c-1.89-1.77-9.77-1.67-12.11,2.13
		c-2.25,3.61-1.16,2.26-1.86,5.26l-0.4,16.3c2.17-0.05,4.04-0.02,5.59,0.07c2.65,0.19,2.35,4.16-0.27,3.99h-14.51
		c-2.52,0-2.62-4.04,0.13-3.99c1.29,0.04,2.97,0.04,5.06,0c0-11.47,0.98-14.7-0.27-24.69c-2.93,0-5.34,0.36-6.29-0.83
		C521.18,766.97,522.06,764.86,524.01,765.01L524.01,765.01z M563.4,778.12c0.7-0.18,18.09,0.79,20.1-0.6
		c1.64-1.13-1.45-6.47-3.26-7.92c-4.5-3.61-12.46-2.07-15.37,2.93C564.02,773.99,563.54,775.86,563.4,778.12L563.4,778.12z
		 M587.09,787.63c-0.7,4.28-3.22,7.09-7.05,9.18c-12.15,6.63-20.46-4.93-20.63-15.04c-0.07-4-0.13-7.56,2-11.25
		c4.58-7.94,17.73-9.86,23.69-1.43c2.59,3.66,4.65,9.01,0.66,11.74c-3.18,2.19-16.16,1.29-21.96,1.2c-0.13,0-0.27-0.02-0.4-0.07
		c0.48,7.49,5.92,16.42,14.64,11.38c6.46-3.74,3.97-6.31,5.89-7.69C585.51,784.54,587.36,786.01,587.09,787.63L587.09,787.63z
		 M624.75,795.49c-0.04,4.21-0.11,7.39-0.2,9.52h5.32c2.62,0,2.62,3.99,0,3.99c-6.96,0-11.89-0.04-14.77-0.13
		c-2.53-0.04-2.57-4.03,0.13-3.99c1.64,0.04,3.42,0.09,5.32,0.13c0.14-2.52,0.64-32.16-0.67-36.07c-2.39-0.39-4.36,0.88-5.76-0.37
		c-1.38-1.24-0.3-3.43,1.3-3.43c2.27,0,7.64-1.72,8.52,3.59c6.5-6.96,22-5.62,23.82,7.98c0.7,5.27,0.3,12.33-2.46,16.37
		c-3.03,4.43-14.14,8.03-18.7,4.26C625.95,796.77,625.33,796.15,624.75,795.49L624.75,795.49z M625.48,773.59
		c0.75,1.75-3.03,15.22,3.66,20.56c2.76,2.2,10.91-0.58,12.84-3.33c2.69-3.81,2.85-14.85,0-18.57
		C637.91,766.96,628.14,767.42,625.48,773.59L625.48,773.59z M655.56,794.02c1.64-0.09,3.59-0.13,5.86-0.13
		c-1.15-9.19,0.19-23.44,0.73-33.14c0.09-1.37,0.13-2.48,0.13-3.33l-6.45,0.2c-2.58,0.2-2.95-3.78-0.27-3.99
		c0.89-0.07,7.8-0.32,8.85,0c2.53,0.76,1.88,4.45,1.73,7.32l-0.4,5.79c-0.17,9.6-1.45,16.95-0.33,27.21
		c2.17,0.04,3.9,0.07,5.19,0.07c2.64,0,2.63,3.99,0,3.99c-2.56,0-11.05-0.29-14.77,0C653.26,798.21,652.89,794.24,655.56,794.02
		L655.56,794.02z M701.2,780.25c-5.7,2.85-14.48,0.2-16.97,6.59c-2.1,5.4,4.11,8.95,8.72,7.79c2.62-0.67,5.39-3.17,8.32-7.52
		L701.2,780.25L701.2,780.25z M685.43,775.66c-6.97-5.68,1.13-12.75,10.98-11.58c12.25,1.46,7.7,14.07,9.12,25.92
		c0.89,7.43,4.48,4.57,5.19,2.43c1.03-3.1-0.75-7.85,2.46-7.85c2.39,0,2,2.75,2,4.19c0,11.36-9.5,12.43-12.38,6.39
		c-0.31-0.66-0.58-1.44-0.8-2.33c-3.92,4.65-8.35,6.92-13.77,5.66c-8.69-2.02-10.73-11.07-5.62-16.57
		c3.79-4.08,11.14-3.62,15.14-4.66c1.6-0.4,2.73-1.06,3.39-2c0.13-0.39-0.23-4.19-1.13-5.32c-2.72-3.43-11.81-1.8-13.11,0.8
		c-0.55,1.11,3.11,2.35,1.36,4.56C687.58,776.15,686.32,776.27,685.43,775.66L685.43,775.66z M724.22,793.49
		c1.55-0.13,3.33-0.16,5.32-0.07c-0.64-5.3,0.26-20.09-0.4-24.35c-2.28-0.29-6.65,1.19-6.65-2c0-2.37,3.18-1.94,5.12-2
		c2.47-0.07,4.93,0.01,5.39,2.79c5.92-4.87,14.18-5.49,18.56-0.13c5.26,6.42,2.73,18.73,2.73,25.88c1.77,0.09,3.24,0.11,4.39,0.07
		c2.69-0.05,2.68,3.95,0.13,3.99c-2.96,0.05-9.64-0.53-12.98-0.2c-2.63,0.26-2.99-3.76-0.4-3.99c1.38-0.13,3-0.18,4.86-0.13
		c0.26-6,2.11-18.27-1.8-23.09c-1.33-1.6-3.33-2.35-5.99-2.26c-3.15,0.09-6.21,1.75-9.18,4.99c0.04,1.42,0.04,3.64,0,6.65
		c-0.09,5.16-0.23,11.83,0.33,13.97c2.59,0.16,4.23-0.26,5.22,0.63c1.33,1.19,0.38,3.4-1.3,3.43c-2.96,0.05-9.64-0.53-12.98-0.2
		C721.99,797.75,721.65,793.71,724.22,793.49L724.22,793.49z M789.96,784.04c-0.41,3.72,0.53,7.71-1.8,10.98
		c-4.46,6.27-13.82,3.5-15.5-2.86c-0.98-3.7-0.33-7.72-0.33-11.05v-11.44l-4.66,0.27c-2.59,0.18-2.89-3.81-0.27-3.99
		c1.6-0.09,3.28-0.18,5.06-0.27c0.04-3.02,0.16-5.81,0.33-8.38c0.2-2.66,4.19-2.3,3.99,0.27c-0.18,2.48-0.29,5.17-0.33,8.05
		c2.71-0.04,5.72-0.04,9.05,0c2.51,0.02,2.64,4.01-0.13,3.99c-3.37-0.04-6.39-0.04-9.05,0c0,4.89,0.16,9.98-0.13,14.9
		c-0.19,3.16-0.57,7.6,2.43,9.32c2.1,1.2,4.93,0.96,6.36-1.06c1.89-2.68-0.29-9.28,1.96-10.78
		C788.48,780.95,790.38,782.39,789.96,784.04L789.96,784.04z M798.75,799.08c-1.28-4.88-1-8.35-1-13.17c0-2.62,3.99-2.62,3.99,0
		v4.13c3.44,3.44,4.91,5.4,10.25,5.06c9.81-0.64,10.27-7.9,5.46-10.18c-5.69-2.69-16.25-1.44-17.83-9.18
		c-1.85-9.05,7.61-13.46,15.44-10.05c0.89,0.36,1.93,0.95,3.13,1.8c0.08-1.32-0.16-4.25,2.23-4.06c1.1,0.09,1.98,0.94,1.9,2.13
		c-0.27,3.99-0.27,7.56,0,10.71c0.22,2.59-3.8,2.92-3.99,0.27c-0.09-1.38-0.16-2.79-0.2-4.26c-2.71-1.95-5.22-3.81-8.52-3.76
		c-3.63,0.06-7,2.18-6.12,6.42c1.3,6.23,18.18,2.01,20.63,12.24c2.3,9.64-10.28,13.81-17.7,11.25c-1.46-0.49-2.88-1.31-4.26-2.46
		c0.27,1.45,1.35,3.83-0.93,4.49C800.12,800.76,799.09,800.13,798.75,799.08L798.75,799.08z"/>
</g>
</svg>
