<?xml version="1.0" encoding="utf-8"?>
<!-- Generator: Adobe Illustrator 25.0.0, SVG Export Plug-In . SVG Version: 6.00 Build 0)  -->
<svg version="1.1" id="Layer_1" xmlns="http://www.w3.org/2000/svg" xmlns:xlink="http://www.w3.org/1999/xlink" x="0px" y="0px"
	 viewBox="0 0 864 864" style="enable-background:new 0 0 864 864;" xml:space="preserve">
<style type="text/css">
	.st0{fill-rule:evenodd;clip-rule:evenodd;}
</style>
<g>
	<path d="M108.38,598.21H74.21c-4.32,0-7.19,2.88-7.19,7.19v9.35c0,3.96,2.88,6.83,7.19,6.83h16.91v47.12
		c0,15.11-8.27,22.66-16.19,22.66c-8.27,0-16.19-7.55-16.19-22.66v-82.73c0-15.11,7.91-22.3,16.19-22.3
		c6.11,0,12.59,3.96,14.75,13.31c1.08,2.88,5.04,5.04,9.35,4.68l9.71-2.16c3.6-0.72,5.76-4.32,5.04-8.63
		c-5.4-19.78-22.3-31.29-38.85-31.29c-20.5,0-39.93,15.11-39.93,44.96v85.61c0,29.85,19.42,44.96,39.93,44.96
		c5.76,0,11.51-1.08,16.55-3.6c1.08,2.52,3.6,3.6,6.83,3.6h10.07c3.24,0,6.47-3.24,6.47-7.19V605.41
		C114.85,601.09,111.62,598.21,108.38,598.21L108.38,598.21z M214.44,707.92c-9.35-52.52-20.5-110.07-30.21-162.94
		c-0.36-2.88-3.24-5.4-7.19-5.4h-11.51c-3.96,0-6.47,2.52-6.83,5.4c-9.71,52.87-21.22,110.43-30.57,162.94
		c-0.72,3.96,1.44,7.19,5.4,7.19h11.51c3.6,0,6.47-2.52,7.19-5.76c2.16-12.59,5.04-24.1,7.19-36.69h24.1l6.83,36.69
		c0.36,3.24,3.24,5.76,7.19,5.76h11.51C213,715.11,215.52,712.59,214.44,707.92L214.44,707.92z M163.36,648.93
		c2.16-14.03,4.68-25.54,6.83-38.49c0-1.08,0.36-2.88,0.72-3.96l8.27,42.44H163.36L163.36,648.93z M307.19,707.56l-24.82-68.34
		c8.27-5.76,15.11-16.55,15.11-30.21v-32.73c0-26.62-16.55-36.69-38.49-36.69h-24.46c-4.32,0-6.83,3.6-6.83,6.83v161.5
		c0,3.96,2.52,7.19,6.83,7.19h9.71c3.24,0,7.19-3.24,7.19-7.19v-62.59h7.91c7.91,21.22,15.11,43.52,23.02,64.74
		c0.72,2.52,3.96,5.04,6.83,5.04h12.59C306.11,715.11,307.91,711.51,307.19,707.56L307.19,707.56z M251.44,563.68h6.83
		c10.07,0,15.11,5.75,15.11,15.11v28.06c0,8.99-5.04,14.39-15.11,14.39h-6.83V563.68L251.44,563.68z M351.38,539.58h-24.82
		c-4.32,0-6.83,3.6-6.83,6.83v161.5c0,3.96,2.52,7.19,6.83,7.19h24.82c27.7,0,43.52-14.75,43.52-44.96v-85.61
		C394.9,554.33,379.08,539.58,351.38,539.58L351.38,539.58z M371.16,668.71c0,16.55-6.83,22.66-19.78,22.66h-7.91V563.68h7.91
		c12.95,0,19.78,5.75,19.78,22.3V668.71L371.16,668.71z M464.63,563.68c3.24,0,7.19-3.24,7.19-7.19v-10.07
		c0-3.24-3.96-6.83-7.19-6.83h-51.08c-3.96,0-6.83,3.6-6.83,6.83v161.5c0,3.96,2.88,7.19,6.83,7.19h51.08
		c3.24,0,7.19-3.24,7.19-7.19v-9.71c0-2.88-3.96-6.83-7.19-6.83h-33.81v-69.78h24.82c3.96,0,6.83-2.88,6.83-6.83v-9.35
		c0-4.32-2.88-7.19-6.83-7.19h-24.82v-34.53H464.63L464.63,563.68z M556.66,539.58h-10.07c-4.32,0-7.19,3.6-7.19,6.83v90.28
		c-4.68-14.75-9.35-28.06-13.31-39.21c-5.4-16.91-10.79-33.45-17.26-53.23c-1.08-2.52-3.96-4.68-6.83-4.68h-11.15
		c-4.32,0-6.83,3.6-6.83,6.83v161.5c0,3.96,2.52,7.19,6.83,7.19h9.71c3.24,0,7.19-3.24,7.19-7.19v-90.64
		c10.43,32.37,20.14,60.79,30.57,92.8c1.08,2.52,3.96,5.04,6.83,5.04h11.51c3.24,0,6.83-3.24,6.83-7.19v-161.5
		C563.5,543.18,559.9,539.58,556.66,539.58L556.66,539.58z M632.15,563.68c4.32,0,7.19-3.24,7.19-7.19v-10.07
		c0-3.24-2.88-6.83-7.19-6.83h-46.04c-3.96,0-6.83,3.6-6.83,6.83v10.07c0,3.96,2.88,7.19,6.83,7.19h11.51v127.69h-11.51
		c-3.96,0-6.83,3.96-6.83,6.83v9.71c0,3.96,2.88,7.19,6.83,7.19h46.04c4.32,0,7.19-3.24,7.19-7.19v-9.71c0-2.88-2.88-6.83-7.19-6.83
		H621V563.68H632.15L632.15,563.68z M724.18,539.58h-10.07c-4.32,0-7.19,3.6-7.19,6.83v90.28c-4.68-14.75-9.35-28.06-13.31-39.21
		c-5.4-16.91-10.79-33.45-17.27-53.23c-1.08-2.52-3.96-4.68-6.83-4.68h-11.15c-4.32,0-6.83,3.6-6.83,6.83v161.5
		c0,3.96,2.52,7.19,6.83,7.19h9.71c3.24,0,7.19-3.24,7.19-7.19v-90.64c10.43,32.37,20.14,60.79,30.57,92.8
		c1.08,2.52,3.96,5.04,6.83,5.04h11.51c3.24,0,6.83-3.24,6.83-7.19v-161.5C731.01,543.18,727.42,539.58,724.18,539.58L724.18,539.58
		z M820.53,598.21h-34.17c-4.32,0-7.19,2.88-7.19,7.19v9.35c0,3.96,2.88,6.83,7.19,6.83h16.91v47.12c0,15.11-8.27,22.66-16.19,22.66
		c-8.27,0-16.19-7.55-16.19-22.66v-82.73c0-15.11,7.91-22.3,16.19-22.3c6.11,0,12.59,3.96,14.75,13.31
		c1.08,2.88,5.04,5.04,9.35,4.68l9.71-2.16c3.6-0.72,5.75-4.32,5.04-8.63c-5.4-19.78-22.3-31.29-38.85-31.29
		c-20.5,0-39.93,15.11-39.93,44.96v85.61c0,29.85,19.42,44.96,39.93,44.96c5.76,0,11.51-1.08,16.55-3.6c1.08,2.52,3.6,3.6,6.83,3.6
		h10.07c3.24,0,6.47-3.24,6.47-7.19V605.41C827,601.09,823.77,598.21,820.53,598.21L820.53,598.21z"/>
	<path d="M74.43,180.39c3.22,0,5.37-2.41,5.37-5.36v-7.51c0-2.41-2.15-5.1-5.37-5.1H40.1c-2.95,0-5.1,2.68-5.1,5.1v7.51
		c0,2.95,2.15,5.36,5.1,5.36h8.58v95.23H40.1c-2.95,0-5.1,2.95-5.1,5.1v7.24c0,2.95,2.15,5.36,5.1,5.36h34.34
		c3.22,0,5.37-2.41,5.37-5.36v-7.24c0-2.15-2.15-5.1-5.37-5.1h-8.32v-95.23H74.43L74.43,180.39z M97.19,149
		c-3.22,0-5.37,2.15-5.37,5.37v18.51c0,3.22,2.15,5.36,5.37,5.36h3.76c2.41,0,5.1-2.15,5.1-5.36v-18.51c0-3.22-2.68-5.37-5.1-5.37
		H97.19L97.19,149z M141.68,162.41h-18.51c-3.22,0-5.1,2.68-5.1,5.1v120.45c0,2.95,1.88,5.36,5.1,5.36h18.51
		c20.66,0,32.46-11,32.46-33.53v-63.85C174.14,173.41,162.34,162.41,141.68,162.41L141.68,162.41z M156.44,258.72
		c0,12.34-5.1,16.9-14.75,16.9h-5.9v-95.23h5.9c9.66,0,14.75,4.29,14.75,16.63V258.72L156.44,258.72z M299.37,287.69l-18.51-50.97
		c6.17-4.29,11.27-12.34,11.27-22.53v-24.41c0-19.85-12.34-27.36-28.7-27.36h-18.24c-3.22,0-5.1,2.68-5.1,5.1v120.45
		c0,2.95,1.88,5.36,5.1,5.36h7.24c2.41,0,5.37-2.41,5.37-5.36v-46.68h5.9c5.9,15.83,11.27,32.46,17.17,48.29
		c0.54,1.88,2.95,3.76,5.1,3.76h9.39C298.57,293.32,299.91,290.64,299.37,287.69L299.37,287.69z M257.79,180.39h5.1
		c7.51,0,11.27,4.29,11.27,11.27v20.92c0,6.71-3.76,10.73-11.27,10.73h-5.1V180.39L257.79,180.39z M374.17,287.96
		c-6.97-39.17-15.29-82.09-22.53-121.52c-0.27-2.15-2.41-4.02-5.37-4.02h-8.58c-2.95,0-4.83,1.88-5.1,4.02
		c-7.24,39.43-15.83,82.35-22.8,121.52c-0.54,2.95,1.07,5.36,4.02,5.36h8.58c2.68,0,4.83-1.88,5.37-4.29
		c1.61-9.39,3.76-17.97,5.36-27.36h17.97l5.1,27.36c0.27,2.41,2.41,4.29,5.37,4.29h8.58C373.1,293.32,374.98,291.44,374.17,287.96
		L374.17,287.96z M336.08,243.96c1.61-10.46,3.49-19.05,5.1-28.7c0-0.8,0.27-2.15,0.54-2.95l6.17,31.65H336.08L336.08,243.96z
		 M431.54,162.41h-53.65c-2.95,0-5.1,2.68-5.1,5.1v7.51c0,2.95,2.15,5.36,5.1,5.36h17.97v107.57c0,2.95,2.15,5.36,5.1,5.36h7.24
		c2.41,0,5.37-2.41,5.37-5.36V180.39h17.97c2.68,0,4.83-2.41,4.83-5.36v-7.51C436.37,165.1,434.22,162.41,431.54,162.41
		L431.54,162.41z M505.27,162.41h-7.24c-3.22,0-5.37,2.68-5.37,5.1v38.63h-22.8v-38.63c0-2.41-2.15-5.1-5.37-5.1h-7.24
		c-2.95,0-5.36,2.68-5.36,5.1v120.45c0,2.95,2.41,5.36,5.36,5.36h7.24c3.22,0,5.37-2.41,5.37-5.36v-64.38h22.8v64.38
		c0,2.95,2.15,5.36,5.37,5.36h7.24c3.22,0,4.83-2.41,4.83-5.36V167.51C510.1,165.1,508.49,162.41,505.27,162.41L505.27,162.41z
		 M566.12,180.39c2.41,0,5.36-2.41,5.36-5.36v-7.51c0-2.41-2.95-5.1-5.36-5.1h-38.09c-2.95,0-5.1,2.68-5.1,5.1v120.45
		c0,2.95,2.15,5.36,5.1,5.36h38.09c2.41,0,5.36-2.41,5.36-5.36v-7.24c0-2.15-2.95-5.1-5.36-5.1H540.9v-52.04h18.51
		c2.95,0,5.1-2.15,5.1-5.1v-6.97c0-3.22-2.15-5.37-5.1-5.37H540.9v-25.75H566.12L566.12,180.39z M643.33,287.69l-18.51-50.97
		c6.17-4.29,11.27-12.34,11.27-22.53v-24.41c0-19.85-12.34-27.36-28.7-27.36h-18.24c-3.22,0-5.1,2.68-5.1,5.1v120.45
		c0,2.95,1.88,5.36,5.1,5.36h7.24c2.41,0,5.37-2.41,5.37-5.36v-46.68h5.9c5.9,15.83,11.27,32.46,17.17,48.29
		c0.54,1.88,2.95,3.76,5.1,3.76h9.39C642.53,293.32,643.87,290.64,643.33,287.69L643.33,287.69z M601.75,180.39h5.1
		c7.51,0,11.27,4.29,11.27,11.27v20.92c0,6.71-3.76,10.73-11.27,10.73h-5.1V180.39L601.75,180.39z M761.59,206.14v-16.36
		c0-19.85-12.07-27.36-28.44-27.36h-18.51c-2.95,0-5.1,2.68-5.1,5.1v120.45c0,2.95,2.15,5.36,5.1,5.36h18.51c20.92,0,33-11,33-33.53
		v-10.46c0-12.07-3.22-20.66-9.39-26.29C759.98,218.75,761.59,213.38,761.59,206.14L761.59,206.14z M748.18,258.72
		c0,12.34-4.83,16.9-15.02,16.9h-5.9v-42.38h5.9C749.73,233.23,748.18,245.57,748.18,258.72L748.18,258.72z M743.89,191.65v12.88
		c0,6.97-4.29,11-11.27,11h-5.36v-35.14h5.36C739.6,180.39,743.89,184.68,743.89,191.65L743.89,191.65z M821.64,180.39
		c2.41,0,5.36-2.41,5.36-5.36v-7.51c0-2.41-2.95-5.1-5.36-5.1h-38.09c-2.95,0-5.1,2.68-5.1,5.1v120.45c0,2.95,2.15,5.36,5.1,5.36
		h38.09c2.41,0,5.36-2.41,5.36-5.36v-7.24c0-2.15-2.95-5.1-5.36-5.1h-25.22v-52.04h18.51c2.95,0,5.1-2.15,5.1-5.1v-6.97
		c0-3.22-2.15-5.37-5.1-5.37h-18.51v-25.75H821.64L821.64,180.39z"/>
	<path class="st0" d="M143.95,430.16c-11.35-12.96-11.37-14.58-25.87,1.1c-4.26,4.6-5.18,3.39-15.52-6.99
		C88.38,410,60.49,378.42,54.69,359.81c-1.33-4.27-6.61-29.1-0.03-29.99c31.96-4.32,57.92,17.79,80.24,37.77
		c36.36,32.56,21.49,20.99,11.74,35.42c-4.66,6.91,4.3,13.2,12.6,19.85c3.88-2.94,16.45-13.48,17-17.82
		c1.19-9.49-4.87-23.61,0.87-31.85c5.12-7.35,53.04-54.3,58.22-53.77c6.88,0.71-7.06,11.57-14.18,18.63
		c-6.2,6.14-33.09,31.13-34.41,37.81c-1.18,5.97,3.46,16.98,12.72,9.69c9.15-7.2,49.83-46.1,54.52-46.7
		c8.75-1.12-6.36,11.58-8.46,13.6c-5.96,5.73-41.93,39.63-42.22,45.74c-0.11,2.21,6.1,13.38,19.11,2.74
		c6.81-5.57,45.73-41.71,50.77-42.69c8.95-1.74-10.2,15.04-12.92,17.71c-7.85,7.7-35.66,35.15-43.39,39.52
		c-13.57,7.67-22.48-11.77-43.82,13.13c22.75,22.75,32.12,31.57,53.98,57.39c5.83,6.89,13.82,13.57,3.87,22.4
		c-7.2,6.39-16.16-2.5-22.63-7.66c-16.63-13.27-35.64-32.49-50.71-48.02c-8.49,8.63-52.09,52.42-59.15,56.46
		c-7.62,4.36-17.62-3.48-14.76-10.81C89.93,482.21,130.54,442.97,143.95,430.16L143.95,430.16z"/>
	<path class="st0" d="M758.9,497.1c-4.57-1.03-11.05-2.93-18.04-4.94c32.31-9.43,29.42-3.06,17.71-36.44
		c-1.71-4.88-3.6-10.18-4.73-15.22c-0.45-2.01-0.66-5.32-1.48-7.06c-2.26-4.86-2.86-3.41,2.54-16.03
		c3.56-8.31,15.22-32.03,16.66-39.08c1.33-6.5-0.42-13.02-5.88-16.97c2.91-6.92,13.46-33.61,19.89-35.64
		c8.98-2.85,13.03,8.38,9.19,19.81c-1.52,4.52-4.29,8.79-6.56,13.77l-7.84,20.84c-0.99,5.7,6.06-10.42,6.68-11.99
		c2.56-6.51,5.94-16.58,12.29-18.9c6.68-2.44,12.2,4.21,10.89,13.48c-1.19,8.41-7.34,18.13-10.22,25.03
		c-6.46,15.45-7.11,16.61-17.19,31.33c-10.59,15.48-19.05,14-15.51,21.59c2.83,6.06,2.11,0.05,3.52,11.63
		c0.93,7.65,5.3,40.35-1.81,44.82C767.1,498.34,764.36,498.34,758.9,497.1L758.9,497.1z M723.34,351.5
		c3.96-13.06,7.79-34.54,16.13-38.11c5.23-2.24,16.95-2.91,15.73,8.42c-0.76,7.12-14.62,42.62-13.32,41.95
		c3.5-1.8,14.49-44.7,21.82-49.27c3.07-1.91,16.69-5.21,16.57,4.14c-0.12,9.07-11.37,31.05-16,41.86
		c-11.19-5.93-19.11,16.28-29.69,27.14L723.34,351.5L723.34,351.5z M687.67,504.63l75.44-21.46c2.03-1.19,1.85-2.6,0.26-7.31
		L751.66,441c-0.79-3.53-0.71-5.29-1.32-6.61c-2.29-4.91-3.46-3.92,2.51-17.85c3.51-8.19,15.2-32.16,16.52-38.65
		c1.98-9.69-6.18-23.14-15.95-11.63l-16.61,22.25c-4.04,4.48-4.43,0.19-7.98-11.41l-14.15-46.4c-3.84-10.11-11.35-13.18-18.95-10.27
		c-9,3.45-1.98,18.55,1.37,27.81l7.59,23.05c-3.5-1.8-14.49-44.7-21.82-49.27c-3.07-1.91-16.69-5.21-16.57,4.14
		c0.16,11.6,20.48,48.95,20.84,53.35c0.55,6.77-13.51-26.87-14.01-27.92c-3.99-8.47-9.13-22.72-18.07-17.85
		c-5.76,3.14-5.39,12.91-3.24,19.32c1.52,4.52,4.3,8.79,6.56,13.77l7.84,20.84c0.98,5.7-6.06-10.42-6.68-11.99
		c-2.56-6.51-5.94-16.58-12.29-18.9c-6.68-2.44-12.2,4.21-10.88,13.48c1.19,8.41,7.34,18.13,10.22,25.03
		c6.46,15.45,7.11,16.61,17.19,31.33c10.59,15.48,19.05,14,15.51,21.59c-2.83,6.06-2.11,0.05-3.52,11.63
		c-0.93,7.65-5.3,40.35,1.81,44.82C679.48,505.86,682.21,505.86,687.67,504.63L687.67,504.63z"/>
	<path class="st0" d="M472.1,515.75c14.36,0,31.55-1.61,43.78-6.44c4.92-1.95,8.47-4.19,10.98-6.14c2.51-1.95,3.98-3.59,4.45-7.04
		c0.48-3.46-0.04-8.73-1.64-27.31c-1.6-18.58-4.28-50.47-6.96-82.36c1.12-1.82,2.25-3.63,1.99-6.09c-0.26-2.46-1.9-5.57-5.14-8
		c-4.23-3.16-11.37-5.08-18.72-6.77c-0.16-13.04-0.76-33.6-3.4-45.6c-1.43-6.48-3.5-10.72-6.53-13.61c-3.02-2.89-7-4.45-11.06-4.45
		s-8.21,1.56-11.5,3.33c-3.28,1.77-5.7,3.76-8.6,10.76c-4.57,11.04-9.97,32.9-10.7,46.07c-3.38,0.74-6.74,1.6-9.87,2.42
		c-6.61,1.73-12.23,3.28-16.34,5.4c-5.17,2.67-10.09,7.53-8.77,12.14c0.35,1.21,0.95,1.9,1.55,2.59l-1.43,18.35
		c-4.52,0.37-11.1,1.19-17.47,2.05c-13.99,1.89-27.98,4.08-42.2,6.25c-6.72-5.09-13.7-10.37-20.67-15.65l-0.24,0.46
		c-0.21-1.53-0.69-3.31-1.23-5.55c-0.84-3.48-1.84-8.06-2.64-10.89c-0.97-3.44-1.98-5.41-4.3-6.5c-1.89-0.89-4.7-0.77-6.79-0.06
		c-1.21,0.41-2.16,1.06-4.54,3.02c-7.06,5.84-11.44,10.67-14.41,19.71c-1.39,4.23-2.47,10.16-0.78,13.55
		c0.71,1.43,1.92,2.29,2.85,2.92c3.69,2.49,4.93,2.03,9.53,0.58c2.2-0.69,5.36-1.69,7.8-2.46c1.56-0.5,2.84-0.91,4.04-1.41
		c17.8,18.13,35.6,36.25,49.86,49.95c14.29,13.74,25.03,23.05,30.36,27.8c2,1.78,3.24,2.92,4,3.66c-0.47,6.87-0.36,8.16,0.26,9.28
		c0.91,1.64,2.89,2.94,6.01,4.75c3.11,1.81,7.35,4.15,13.05,5.92C438.39,513.98,458.76,515.75,472.1,515.75L472.1,515.75z
		 M470.01,370.1c2.7,2.18,5.85,4.34,9.51,6.59c1.31,0.81,2.68,1.62,4.04,2.4c0.1-1.59,0.16-2.69,0.26-4.91s0.19-4.97,0.23-7.89
		c-4.01-0.83-7.28-1.18-11.19-1.7c-2.91-0.39-6.19-0.67-7.99-0.67c-1.79,0-1.2,0.19-0.06,1.46
		C465.96,366.67,467.31,367.92,470.01,370.1L470.01,370.1z M500.71,384.62c2.34-0.1,4.97-0.42,7.43-1.04
		c3.37-0.84,6.44-2.23,8.1-3.37c1.66-1.15,1.92-2.05,1.51-3.26c-0.41-1.21-1.39-1.88-3.36-3.02c-3.3-1.92-9.57-3.26-13.54-4.13
		C500.91,375.05,500.89,379.87,500.71,384.62L500.71,384.62z M413.15,416.22c-1.08,13.8-2.1,26.82-2.97,38
		c-1.87-1.64-5.22-4.37-11.33-9.12c-7.14-5.56-18.06-13.89-30.7-23.49c7.13-1.11,12.42-2.01,20.62-3.17
		C397.12,417.27,405.31,416.12,413.15,416.22L413.15,416.22z M484.09,362.24c-5.2-0.92-10.77-1.82-15.54-2.09
		c0.67-6.77,0.94-11.45,1.91-19.67c0.74-6.22,1.86-14.09,2.98-18.5c1.12-4.41,2.25-5.36,3.24-5.79c0.99-0.43,1.86-0.35,2.59,0.04
		c0.73,0.39,1.34,1.08,2.12,5.4C483.32,332.32,484.14,348.96,484.09,362.24L484.09,362.24z"/>
</g>
</svg>
