<?xml version="1.0" encoding="utf-8"?>
<!-- Generator: Adobe Illustrator 25.0.0, SVG Export Plug-In . SVG Version: 6.00 Build 0)  -->
<svg version="1.1" id="Layer_1" xmlns="http://www.w3.org/2000/svg" xmlns:xlink="http://www.w3.org/1999/xlink" x="0px" y="0px"
	 viewBox="0 0 864 864" style="enable-background:new 0 0 864 864;" xml:space="preserve">
<style type="text/css">
	.st0{fill-rule:evenodd;clip-rule:evenodd;}
</style>
<g>
	<path class="st0" d="M262.75,246.84h36.12c1.68,0,3.05,1.37,3.05,3.05v9.48c0,1.68-1.37,3.05-3.05,3.05h-36.12
		c-1.68,0-3.05-1.37-3.05-3.05v-9.48C259.7,248.21,261.07,246.84,262.75,246.84L262.75,246.84z M541.11,246.84h36.12
		c1.68,0,3.05,1.37,3.05,3.05v9.48c0,1.68-1.37,3.05-3.05,3.05h-36.12c-1.68,0-3.05-1.37-3.05-3.05v-9.48
		C538.07,248.21,539.44,246.84,541.11,246.84L541.11,246.84z"/>
	<path d="M375.27,253.44l-22-52.07h-28.38v106.51h26.21v-43.16l12.92,43.16h22.5l12.89-43.16v43.16h26.24V201.37h-28.38
		L375.27,253.44L375.27,253.44z M488.03,245.08l-21.83-43.71H440.3l34.32,68.52v37.99h26.14v-37.99l36.35-68.52h-25.9L488.03,245.08
		L488.03,245.08z"/>
	<path d="M115.39,450.2H70.96v-66.11h44.43V450.2L115.39,450.2z M35,343.01v244.84h35.96v-96.79h52.9l27.48-31.36v-85.13
		l-27.48-31.57H35L35,343.01z M207.41,343.01h-35.96v244.84h95.27v-41.03h-59.32V343.01L207.41,343.01z M367.95,495.09h-26.84
		l13.79-73.85L367.95,495.09L367.95,495.09z M331.44,536.12h45.62l1.85,10.05c1.23-6.53,2.97-12.87,5.12-19.16
		c0.5-1.45,1.9-2.34,3.43-2.16c1.52,0.18,2.68,1.38,2.82,2.91c0.06,0.66,0.13,1.33,0.2,1.99c0.43,4.03,1.06,8.15,1.89,12.27
		c1.37-3.39,2.96-6.59,4.95-9.85c2.94-4.8,6.24-9.39,9.55-13.94c0.16-0.22,0.35-0.42,0.55-0.59l-33.97-174.61h-36l-50.57,244.84
		h34.63L331.44,536.12L331.44,536.12z M529.09,472.72l-47.5-129.71h-40.4v164.55c0.52,0.24,0.99,0.64,1.33,1.15
		c3.75,5.69,7.02,11.49,9.92,17.66c1.44,3.05,2.81,6.13,4.18,9.21c0.93,2.09,1.8,4.1,2.6,6.06c0-0.02,0.01-0.04,0.01-0.06
		c0.67-3.52,1.15-7.08,1.59-10.63c0.47-3.79,1.05-7.56,1.7-11.32c0.26-1.5,1.49-2.58,3.01-2.66c1.52-0.08,2.85,0.88,3.26,2.35
		c1.9,6.81,3.79,13.65,5.05,20.62c1.37,7.56,1.77,15.61,1.08,23.4c0.75-1.04,1.5-2.09,2.23-3.15v-102l47.5,129.66h40.4V343.01
		h-35.96V472.72L529.09,472.72z M585.2,343.17v41.02h34.63v203.66h35.96V384.19h34.77v-41.02H585.2L585.2,343.17z M738.19,343.01
		l-27.53,31.57v80.06l26.84,31.25h53.68v60.94h-44.57v-31.98h-35.96v41.6l27.53,31.41h61.33L827,556.45V476.7l-9.8-10.87l0.14-0.16
		l-18.5-20.64h-52.22v-60.94h44.57v47.3H827v-56.81l-27.48-31.57H738.19L738.19,343.01z"/>
	<path d="M263.93,658.72l-7.58-6.4c-0.93-0.79-2.11-0.58-2.87,0.32l-31.62,37.49l7.91-57.93c0.36-1.28,0.13-2.2-0.55-2.77l-7.5-6.32
		c-0.9-0.76-2.2-0.64-2.95,0.25l-44.56,52.83c-0.74,0.88-0.52,2.3,0.33,3.02l7.5,6.32c0.84,0.71,2.31,0.68,3.04-0.18l31.05-36.82
		l-8.02,57.54c-0.23,0.58,0.27,1.67,0.72,2.05l8.09,6.82c0.86,0.73,2.31,0.51,3.02-0.33l44.55-52.83
		C265.47,660.66,264.9,659.6,263.93,658.72L263.93,658.72z M327.75,696.66c0.45-0.98,0.14-2.12-0.87-2.59l-46.1-21.37
		c-0.99-0.46-2.09,0.05-2.53,1.01l-29.16,62.9c-0.43,0.94-0.03,2.05,0.91,2.49l46.1,21.37c0.94,0.43,2.05,0.03,2.49-0.91l4.26-9.2
		c0.43-0.94,0.03-2.05-0.91-2.49l-35.2-16.32l6.49-14l27.8,12.89c0.98,0.45,2.16-0.2,2.58-1.11l4.22-9.1
		c0.44-0.94,0.03-2.05-0.91-2.49l-27.8-12.89l6.77-14.6l35.2,16.32c0.94,0.43,2.05,0.03,2.49-0.91L327.75,696.66L327.75,696.66z
		 M397.99,712.65c0.18-1.06-0.42-2.08-1.51-2.27l-50.08-8.61c-1.07-0.18-2,0.6-2.18,1.64l-11.75,68.32
		c-0.17,1.02,0.51,1.99,1.53,2.16l50.08,8.61c1.02,0.17,1.99-0.51,2.16-1.53l1.72-9.99c0.18-1.02-0.51-1.99-1.53-2.16l-38.24-6.57
		l2.61-15.21l30.2,5.19c1.06,0.18,2.03-0.76,2.2-1.75l1.7-9.88c0.18-1.02-0.51-1.99-1.53-2.16l-30.2-5.19l2.73-15.86l38.24,6.57
		c1.02,0.17,1.99-0.51,2.16-1.53L397.99,712.65L397.99,712.65z M423.49,786.65l31.21-2.38c5.82-0.44,11.09-2.39,15.91-5.86
		c4.82-3.46,8.57-7.95,11.14-13.34c2.68-5.51,3.68-11.11,3.23-17.05l-0.45-5.93c-0.45-5.93-2.31-11.43-5.67-16.37
		c-3.37-5.05-7.75-8.8-12.93-11.5c-5.29-2.69-10.79-3.82-16.62-3.37l-31.21,2.38c-1.06,0.08-1.91,1.07-1.83,2.13l5.27,69.02
		C421.7,786.3,421.8,786.85,423.49,786.65L423.49,786.65z M434.6,771.43l-3.46-45.28l19.34-1.48c3.41-0.26,6.55,0.38,9.54,1.92
		c3,1.65,5.49,3.89,7.48,6.73c1.98,2.83,3.12,6.06,3.38,9.58l0.45,5.93c0.27,3.52-0.36,6.88-1.78,9.97c-1.53,3.1-3.66,5.7-6.38,7.67
		c-2.72,2.09-5.73,3.2-9.13,3.46L434.6,771.43L434.6,771.43z M565.82,678.41l-5.98,43.98l-36.66-25.12
		c-0.57-0.47-1.31-0.51-2.01-0.19l-9.78,4.32c-1.07,0.47-1.54,1.69-1.07,2.76l27.96,63.2c0.47,1.05,1.83,1.48,2.86,1.02l8.97-3.97
		c1.08-0.48,1.6-1.83,1.12-2.91l-18.59-42.03l25.29,17.13l5.31,3.56l7.76-3.43l0.94-6.32l4.44-30.29l18.59,42.03
		c0.47,1.05,1.84,1.48,2.86,1.02l8.97-3.97c1.08-0.48,1.6-1.83,1.12-2.91l-27.96-63.2c-0.48-1.09-1.68-1.67-2.81-1.17l-9.88,4.37
		C566.41,676.7,565.98,677.33,565.82,678.41L565.82,678.41z M631.8,629.07c-0.72-0.8-1.89-0.96-2.72-0.22l-37.76,34
		c-0.81,0.73-0.77,1.94-0.06,2.73l46.4,51.51c0.69,0.77,1.88,0.83,2.65,0.14l37.76-34c0.77-0.69,0.83-1.88,0.14-2.65l-6.79-7.53
		c-0.69-0.77-1.88-0.83-2.65-0.14l-28.83,25.96l-10.33-11.47l22.77-20.51c0.8-0.72,0.66-2.07-0.01-2.81l-6.71-7.45
		c-0.69-0.77-1.88-0.83-2.65-0.14l-22.77,20.51l-10.77-11.96l28.83-25.96c0.77-0.69,0.83-1.88,0.14-2.65L631.8,629.07L631.8,629.07z
		"/>
	<path d="M184.81,272.84c-3.07-5.07-7.86-8.4-13.59-9.29c-3.55-0.52-7.39,0.2-11.69,2.08c-9.69,4.23-13.79,16.54-20.21,21.49
		c-3.13,2.41-5.5,3.35-8.55,1.82c-2.72-1.38-3.09-5.65-2.65-8.97c0.33-2.49,1.27-5.26,2.85-8.39c3.67-7.28,10.41-8.02,11.16-9.52
		c0.23-0.46,0.23-0.92,0.1-1.34l-3.34-9.2c-0.3-0.87-1.39-1.26-2.17-0.98c-8.14,3.29-13.93,8.35-17.37,15.17
		c-3.12,6.18-4.62,11.67-4.49,16.47c0.12,4.8,1.12,8.78,3.19,11.79c2.07,3.01,4.32,5.19,6.81,6.44
		c11.25,5.68,22.16,0.54,32.66-15.44c2.91-4.43,8.15-10.81,13.28-8.22c2.89,1.46,4.13,4.81,4.31,8.19c0.14,2.65-1.4,7.14-2.67,9.64
		c-3.38,6.69-7.27,10.21-14.03,10.61c-1.12,0.07-1.68,1.28-1.62,1.61l0.06,9.74c0,1.03,0.57,1.57,1.61,1.62
		c4.85-0.21,9.43-1.49,13.82-4.01c4.49-2.48,8.34-6,11.73-12.73C188.82,292.24,190.43,282.12,184.81,272.84L184.81,272.84z
		 M199.85,185.78c-27.4-5.67-49.24,19.77-39.67,45.96c9.6,26.28,43.73,33.88,61.39,13.35C239.57,223.37,226.59,191.31,199.85,185.78
		L199.85,185.78z M176.12,205.13c11.04-12.84,33.01-8.1,39.38,8.68c6.46,17-7.37,32.67-24.85,28.88
		C174.05,239.11,164.09,218.4,176.12,205.13L176.12,205.13z M293.58,178.26l-22.86-10.42c11.61-16.94-10.82-46.23-30.4-33.6
		l-28.29,18.25c-0.88,0.57-0.98,1.53-0.49,2.28l35.43,54.93c0.53,0.83,1.72,0.86,2.37,0.44l8.16-5.26c0.79-0.51,1.08-1.57,0.52-2.43
		l-11.42-17.7l13.28-8.56l23.72,10.87c0.54,0.27,1.09,0.16,1.52-0.12l8.76-5.65C295.16,180.46,294.9,178.75,293.58,178.26
		L293.58,178.26z M258.39,161.67l-18.74,12.09l-10.8-16.75l18.74-12.09c2.34-1.51,4.58-1.48,6.56,0.07
		c4.04,3.19,7.06,7.51,6.86,12.16C260.89,159.07,260.04,160.61,258.39,161.67L258.39,161.67z M333.6,137.93
		c14.65-14.38-1.71-47.44-23.35-38.83l-31.27,12.45c-0.97,0.39-1.26,1.31-0.92,2.15l24.18,60.72c0.36,0.91,1.52,1.17,2.24,0.89
		l9.02-3.59c0.88-0.35,1.36-1.33,0.98-2.28l-7.79-19.57l14.68-5.84l21.18,15.24c0.48,0.37,1.03,0.37,1.51,0.18l9.69-3.86
		c0.93-0.37,1.7-1.48,0.52-2.88L333.6,137.93L333.6,137.93z M322.68,129.5l-20.72,8.25l-7.37-18.51l20.72-8.25
		c2.59-1.03,4.78-0.57,6.42,1.33c3.34,3.91,5.48,8.73,4.39,13.26C325.64,127.43,324.51,128.77,322.68,129.5L322.68,129.5z
		 M398.29,78.01l-11.79,2.14c-0.2,0.04-0.39,0.18-0.43,0.5l-9.34,32.97l-20.48-27.87l-12.11,2.09c-0.61,0.11-0.64,0.71-0.34,1.01
		l28.84,39.26l4.16,22.96c0.07,0.41,0.31,0.57,0.62,0.52l11.99-2.17l0.5-0.72l-4.16-22.96l13.22-46.89
		C399.1,78.37,398.75,77.93,398.29,78.01L398.29,78.01z M436.32,147.31l11.32,0.92c0.58,0.05,1.07-0.44,1.1-0.84l5.44-66.69
		c0.05-0.6-0.24-1.06-0.84-1.1l-11.32-0.92c-0.47-0.04-0.86,0.38-0.9,0.86l-5.44,66.69C435.61,147.14,435.76,147.24,436.32,147.31
		L436.32,147.31z M529.3,162.45c0.9-0.26,1.31-1.2,1.01-2.07l-3.28-9.29c-1.08-2.91-4.93,1.94-14.98-0.89
		c-12.41-3.49-20.31-15.1-16.77-27.68c3.92-13.92,15.56-22.11,29.77-18.11c8.84,2.49,10.57,7.35,12.18,7.4
		c0.43,0.01,0.78-0.1,1.16-0.32l7.75-6.19c0.71-0.58,0.85-1.6,0.22-2.3c-4.8-5.43-10.73-9.13-17.79-11.12
		c-21.19-5.97-39.85,6.3-45.72,27.14c-5.51,19.59,6.55,38.1,25.93,43.56C516.91,164.42,521.07,164.98,529.3,162.45L529.3,162.45z
		 M605.12,127.91c0.08-0.55-0.18-0.94-0.63-1.19l-10.21-5.85c-0.45-0.26-0.82-0.23-1.34,0.06l-57.36,43.42
		c-0.58,0.51-0.76,1.59,0.11,2.09l9.32,5.34c0.45,0.26,0.91,0.28,1.34-0.06l12.18-9.21l28.13,16.11c-0.68,4.73-1.25,9.87-1.78,15.16
		c0.01,0.6,0.18,0.93,0.63,1.19l9.32,5.34c0.98,0.56,2.08-0.43,1.95-0.91L605.12,127.91L605.12,127.91z M588.42,164.75l-18.64-10.67
		l21.89-16.61L588.42,164.75L588.42,164.75z M688.62,193.59l-6.72-6.42c-0.85-0.81-1.95-0.65-2.7,0.13l-31.76,33.2l10.78-53.7
		c0.41-1.18,0.25-2.05-0.35-2.62l-6.64-6.35c-0.84-0.81-2.06-0.68-2.77,0.06l-44.75,46.78c-0.76,0.79-0.6,2.14,0.14,2.85l6.64,6.35
		c0.76,0.72,2.13,0.76,2.85,0.01l31.19-32.61l-10.87,53.33c-0.22,0.66,0.15,1.57,0.55,1.96l7.16,6.85c0.76,0.73,2.14,0.61,2.84-0.14
		l44.75-46.78C689.66,195.79,690.09,194.05,688.62,193.59L688.62,193.59z M700.47,225.67c0.05-0.04,4.41-1.36,5.16-5.98
		c1.02-6.3-6-9.86-11.2-5.8c-2.65,2.06-3.8,5.88-2.4,8.68l-6.26,1.21c-1.29,0.25,1.01,2.64,1.19,2.87c0.41,0.53,2.11,0.18,3.51,0.14
		C694.12,226.69,696.93,226.74,700.47,225.67L700.47,225.67z M746.49,285.19l-26.92-52.34c-0.43-0.83-1.41-1.02-2.18-0.62
		l-8.72,4.49c-0.75,0.38-0.91,1.61-0.62,2.18l10.48,20.38l-48.11,24.75c-0.75,0.38-0.91,1.61-0.62,2.18l4.53,8.81
		c0.35,0.69,1.42,1.13,2.22,0.71l48.11-24.75l10.49,20.38c0.35,0.69,1.42,1.12,2.22,0.71l8.72-4.49
		C747.59,286.83,747.1,286.16,746.49,285.19L746.49,285.19z"/>
	<path class="st0" d="M375.92,613.67l0.7,10.1c0.07,0.96,0.12,2.18,0.31,2.45c2.22,3.19,18.96,4.84,22.78,5.18
		c12.89,1.18,32.35,0.59,45.53-0.48c5.53-0.45,15.49-1.36,20.08-2.88c1.3-0.43,2.83-1.13,3.56-1.97c0.33-0.37,0.32-1.28,0.41-3.21
		l0.54-10.78c0.05-1.09,0.08-1.82,0.07-2.33c-0.33,1.36-1.85,1.92-3.33,2.31h0c-3.64,0.96-11.64,2.26-15.78,2.74
		c-17.61,2.08-52.07,1.65-68.89-1.57c-2.97-0.57-6.13-1.26-6.08-3.84C374.93,610.17,375.72,612.18,375.92,613.67L375.92,613.67z
		 M405.9,577.53c-0.02,7.57,0.81,16.06,2.32,24.1c-0.96,0.04-1.91,0.09-2.86,0.15c-0.44-2.45-0.83-4.91-1.15-7.37
		c-0.62-4.69-1.04-9.42-1.14-14.15c-2.42-4.29-4.66-8.68-6.55-13.23c-4.69-11.3-7.95-24.8-9.24-36.95c-0.07-0.68-0.14-1.36-0.2-2.04
		c-2.21,6.49-3.94,12.81-5.17,19.64c-1.64,9.13-1.72,15.28-0.83,24.47c0.1,1.04,0.21,2.08,0.32,3.12c3.3,4.1,6.73,8.09,10.16,12.07
		c4.23,4.91,8.18,9.49,11.76,14.57c-1.12,0.07-2.23,0.15-3.31,0.23c-3.28-4.48-7.01-8.73-10.62-12.94
		c-4.82-5.61-9.72-11.23-14.13-17.16c-3.66-4.92-6.89-10.01-9.9-15.33c1.1,9.32,2.81,18.48,5.47,27.51
		c2.26,7.67,4.95,14.27,8.55,20.91c-0.66,0.15-1.26,0.3-1.78,0.44c-2.29,0.62-4.61,1.57-4.99,4.08c-0.19,1.27,0.13,2.8,0.47,4.33
		c0.23,3.33,0.45,6.66,0.69,10c0.08,1.14,0.13,1.83,0.22,2.35c0.35,2.07,2.07,3.12,3.96,3.97c2.07,9.17,4.13,18.32,5.97,26.45
		c1.91,8.45,3.57,15.73,4.7,20.63c1.19,5.15,1.91,8.14,2.43,9.97c0.58,2.02,0.97,2.84,1.48,3.57c1.32,1.85,3.34,2.53,5.9,3.17
		c5.8,1.44,14.12,2.46,20.27,2.7c8.76,0.34,23.22-0.48,31.1-4.04c1.34-0.6,2.26-1.19,3.27-3.24c0.85-1.73,1.76-4.6,3.14-9.86
		c3.47-13.17,8.58-35.3,11.95-49.66c1.17-0.56,2.17-1.24,2.85-2.02c0.93-1.07,0.96-1.68,1.1-4.63l0.55-11.12
		c0.11-2.24,0.33-3.76-0.74-4.97c-1.41-1.59-4.75-2.43-7.47-2.96c2.86-4.84,5.25-9.8,7.45-15.38c3.46-8.76,5.97-17.72,7.9-26.91
		c-3.47,5.02-7.13,9.8-11.21,14.37c-4.93,5.53-10.32,10.69-15.62,15.85c-0.41,0.4-0.82,0.79-1.23,1.19c-0.34,1.51-0.7,3.01-1.11,4.5
		c-0.4,1.46-0.86,2.93-1.37,4.39c-0.99-0.09-1.98-0.17-2.97-0.24c2.44-6.75,3.59-13.71,5.03-20.96c0.78-3.92,1.6-7.83,2.44-11.73
		c-2.55,3.52-5.16,6.63-8.13,9.95c-2.75,3.07-5.45,6.12-7.89,9.46c-0.14,0.2-0.29,0.39-0.43,0.59c0.01,0.18,0.02,0.37,0.03,0.55
		c0.19,3.74,0.13,7.68-0.14,11.61c-0.97-0.04-1.93-0.08-2.87-0.11c0.27-3.86,0.34-7.73,0.15-11.36c-0.31-5.88-1.42-10.29-3.24-15.81
		c-0.7-2.12-1.38-4.22-1.91-6.39c-2.62-10.67-3.15-25.54-2.75-36.57c0.26-7.25,1.22-13.54,2.64-20.6l0.79-4.26
		c-4.16,7.03-7.54,13.69-10.78,21.37c-1.55,3.67-3.02,7.37-4.48,11.07C409.35,552.5,405.95,562.62,405.9,577.53L405.9,577.53z
		 M461.2,547.8c0.96,2.83,1.77,5.71,2.34,8.65c1.31,6.69,1.41,13.55,0.79,20.33c2.28-2.44,4.49-4.95,6.59-7.56
		c1.6-9.27,1.42-19.45-0.25-28.69c-1.23-6.8-3.12-13.64-4.99-20.33c-0.64,3.71-1.2,7.42-1.67,11.16c-0.45,3.64-0.94,7.23-1.62,10.83
		C462.03,544.07,461.63,545.94,461.2,547.8L461.2,547.8z M442.06,551.55c-0.66,5.5-1.58,9.39-3.49,14.58
		c-1.62,4.38-2.63,7.85-2.95,12.57c0.57,2.12,1,4.25,1.29,6.42c3.21-4.09,6.77-7.76,10.11-11.73c3.11-3.68,5.78-7.58,8.46-11.57
		c0.76-1.13,2.49-0.65,2.62,0.63c0.03,0.26-0.03,0.45-0.08,0.7c-1.55,7.21-3.08,14.42-4.51,21.65c-0.24,1.19-0.47,2.38-0.71,3.57
		c2.78-2.71,5.55-5.42,8.26-8.2c0.49-3.8,0.78-7.63,0.76-11.45c-0.04-12.41-3.23-20.71-8.16-31.83c-1.36-3.06-2.72-6.12-4.15-9.14
		c-2.94-6.24-5.98-11.62-9.7-17.26c0.86,4.16,1.88,8.23,2.45,12.5C443.46,531.84,443.13,542.66,442.06,551.55L442.06,551.55z
		 M429.53,544.93c0.15,3.83,0.41,7.67,0.82,11.48c0.39,3.59,0.91,7.25,1.77,10.76c0.43,1.74,0.96,3.44,1.51,5.14
		c0.56-2.47,1.35-4.75,2.24-7.17c0.25-0.68,0.51-1.37,0.75-2.06c-0.12-2.66-0.2-5.32-0.24-7.98c-0.04-3.22-0.01-6.44,0.04-9.66
		c0.1-6.56-0.04-12.07-0.76-18.39c-1.37,4.42-2.8,8.83-4.39,13.18C430.72,541.8,430.13,543.37,429.53,544.93L429.53,544.93z
		 M394.91,553.66c2.13,7.35,4.71,13.92,8.19,20.65c0.14-3.87,0.51-7.73,1.18-11.54c0.75-4.26,1.86-8.43,3.2-12.54
		c-0.11-1.75-0.2-3.5-0.25-5.26c-0.25-8.52,0.55-16.59,2.24-24.85c-3.25,4.47-6.54,9.04-9.41,13.73c-2.87,4.68-4.66,8.75-6.38,13.94
		c-0.06,0.2-0.13,0.39-0.19,0.59C393.93,550.14,394.4,551.9,394.91,553.66L394.91,553.66z"/>
</g>
</svg>
