<?xml version="1.0" encoding="utf-8"?>
<!-- Generator: Adobe Illustrator 25.0.0, SVG Export Plug-In . SVG Version: 6.00 Build 0)  -->
<svg version="1.1" id="Layer_1" xmlns="http://www.w3.org/2000/svg" xmlns:xlink="http://www.w3.org/1999/xlink" x="0px" y="0px"
	 viewBox="0 0 864 864" style="enable-background:new 0 0 864 864;" xml:space="preserve">
<style type="text/css">
	.st0{fill:#376F56;}
</style>
<g>
	<path class="st0" d="M223.37,264.94c6.48-4.87,12.97-10.31,18.32-16.47c10.48-11.75,20.91-23.5,25.7-38.63
		c0.85-2.9,2.82-5.35,3.95-8c0.56-1.47,0.56-3.16,0.85-4.88c-3.66-1.89-7.61-1.5-10.99-0.6c-6.2,1.46-13.3,0.19-19.22,5
		c-1.41,3.52-3.1,7.35-4.79,11.19c-4.79,11.47-12.69,20.99-21.99,29.52c-5.92,5.38-12.4,9.4-20.02,12.13
		c-11.6,3.97-21.75,2.44-31.62-2.51c-3.71-1.89-6.25-4.74-8.79-7.87c-5.36-7.64-7.05-16.5-7.05-25.8c0-7.61,1.97-41.07,22.32-53.24
		c1.69,0.68,3.38,1.36,4.79,1.5c17.04,3.77,23.75,3.65,40.92,0.46c24.81-3.59,48.53-23.98,57.55-36.71
		c53.28-76.55-30.21-68.28-58.68-47.18c-6.19,4.42-19.92,12.31-24.57,17c-5.87,6.31-13.2,11.55-18.28,18.82
		c-1.41,1.83-3.67,3.46-5.64,4.22c-2.3,0.79-5.12,1.63-7.09-0.99c-1.41-6.34-1.97-12.77,0.85-19.53c1.41-3.24,2.26-7.27,4.51-9.47
		c11.04-11.52,17.24-9.6,21.47-10.02c3.38-3.44,9.3-7.97,7.33-16.79c-10.43-20.67-40.59,9.38-49.05,20.65
		c-9.54,13.07-14.05,35.5-6.16,51.07c0.85,1.89,1.13,3.83,1.97,5.44c0.85,2.45,1.13,4.68,0.85,7.53
		c-0.56,7.39-3.66,14.46-6.77,21.25c-2.96,6.73-5.78,13.21-7.75,20.17c-4.79,15.18-5.92,29.95-3.66,44.67
		c3.1,18.02,12.98,30.36,30.16,37.04C176.57,283.14,202.58,280.41,223.37,264.94L223.37,264.94z M374.22,132.54
		c0-16.6-34.74-12.24-37.51-8.89c-3.07,3.38-11.07,27.54-13.53,39.16C337.94,167.49,374.22,152.83,374.22,132.54L374.22,132.54z
		 M315.19,190.04c-3.39,4.95-7.99,29.08-18.45,58.4c-0.31,0.95-2.46,2.7-3.99,2.85l-2.77,0.27c-5.39,0.53-12.65,0.63-18.14,0.57
		c-4.3,0.43-5.23-0.71-5.23-0.71l2.16-6.98c10.45-29.63,42.73-138.89,47.96-140.95c35.67-6.61,85.78-14.34,85.78,29.01
		c0,35.36-34.75,47.72-44.27,48.66c22.44,9.46,24.9,109.13,82.7,103.41c23.98-2.38,38.12-15.77,45.19-29.99
		c8.61-17.15,34.13-9.84,19.37,14.68c-12.61,20.92-30.44,37.76-63.95,41.08C340.09,320.39,361.92,185.41,315.19,190.04
		L315.19,190.04z M494.59,236.72c2.63-0.26,5.26-0.52,7.89-0.78c2.54-0.25,5.64-1.12,7.33-3.54c1.69-2.42,1.13-5.47,0.28-7.92
		c-0.33-1.1-1.46-6.06-3.99-28.36c0-1.34-0.28-2.7-0.28-4.2c2.87-1.98,4.84-4.43,6.81-6.88c1.44-1.88,4.51-4.96,4.51-7.21
		c0-1.69-0.56-2.76-1.69-3.78c-2.26-1.75-5.07-3.73-9.3-3.59c-1.19-1.07-1.13-1.58-1.13-2.99c-0.85-3.3-0.85-6.96-1.13-10.6v-4.79
		c-0.28-4.48-0.28-9.27,0-14.1l0.85-27.43c0-2.82-0.28-5.33-1.13-7.5l-0.85-1.04c-2.26-1.47-4.79-1.5-6.77-1.3
		c-2.54,0.25-5.07,0.5-7.61,0.75c-3.1,0.31-4.79,2.45-5.64,3.94c-2.07,4.35-5.1,9.31-7.89,13.19c-4.32,6.99-8.5,14.48-12.97,21.3
		c-3.95,6.87-8.18,14.06-12.97,20.74c-3.95,5.75-7.05,10.56-7.89,10.93c0,0.28-0.28,0.31-0.28,0.31c-1.61,0.69-5.18,3.05-5.92,3.12
		c-1.22,0.12-1.27-0.23-2.26-0.62c-1.13-1.02-2.82-2.26-5.92-1.95l-4.23,3.24c-1.97,1.89-4.23,3.8-5.92,5.66
		c-3.66,3.75-3.95,7.72-1.13,10.82c1.84,1.66,4.09,2.91,6.2,4.18c0.28-0.03,0.56,0.23,0.85,0.48c-1.97,4.14-7.33,15.1-15.5,27.75
		c-1.31,1.77-2.4,3.62-3.66,5.44c-2.26,3.61-3.1,7.35-1.69,9.75c1.13,2.14,3.38,3.33,6.48,3.02c1.41-0.14,3.1-0.59,4.79-1.32
		c5.08-2.2,7.78-1.56,13.53-5.01c1.69-1.01,3.38-3.72,3.1-5.95c0-1.69,0.85-3.18,2.25-5.58c3.1-4.57,5.89-9.24,9.02-13.86
		c1.41-2.68,3.95-6.59,5.36-7.58c2.26-2.2,12.69-5.49,31.01-8.15l0.85-0.08c2.54-0.25,4.51,0.12,6.2,1.08l0.28,6.17
		c0.28,5.89,0.28,12.09,0.56,17.99c0.28,3.64,0.56,6.71,0.56,9.53C486.14,234.74,489.24,237.25,494.59,236.72L494.59,236.72z
		 M465.56,178.14c-1.41-0.14-1.97-0.37-1.97-0.37c0-1.41,2.82-5.92,5.07-10.09c3.41-4.31,7.18-11.81,10.15-16.79l1.69-2.7
		c0,1.69,0,3.38,0.56,5.02c1.48,4.29,0.27,9.21,1.13,13.42c0.28,2.23,0,4.79-4.51,8.06c-2.82,1.97-5.92,2.84-9.3,3.18L465.56,178.14
		L465.56,178.14z M536.32,231.6l1.69-0.17c83.4-6.57,92.98-6.96,94.39-16.07c0.39-1.96,3.6-6.77,4.51-9.14
		c1.59-2.93,2.87-6.54,4.23-9.67c-0.85-1.89-2.26-2.88-3.95-2.99c-1.88,0.19-3.76,0.37-5.64,0.56c-7.61,1.32-15.79,1-27.91,3.33
		l-6.72,1.23c-1.32,0.13-3.39,0.9-4.79,1.32c-0.67-0.6-1.56-1.27-1.97-2.06c-0.56-1.07-0.56-2.48,0-3.95
		c0.56-2.31,1.69-4.68,3.38-7.1c6.95-9.96,15.21-21.27,23.35-30.22c5.05-6.08,10.19-12.33,15.5-18.17l0.28-0.31
		c5.98-7.12,10.78-12.98,16.91-19.72c4.23-4.65,9.02-10.2,13.53-15.44c2.54-2.79,4.51-5.52,6.77-8.56l1.13-1.24
		c1.41-1.83,2.54-3.92,1.13-6.31c-1.62-0.86-3.57-0.94-5.36-0.88c-1.6,0.05-3.2,0.32-4.79,0.47c-8.32,0.82-16.78,2.51-25.09,3.33
		c-5.36,0.53-10.68,0.94-16.07,1.03c-4.79,0.19-9.02,0.61-12.69,0.97c-4.54,0.45-9.76,1.43-14.33,2.27
		c-3.38,0.62-7.05,1.26-10.43,1.6c-1.97,0.2-3.95,0.39-5.64,0.28c-1.12,0.11-2.09,0.49-3.1,0.59c-2.14,3.21-2.05,5.8-3.1,9.05
		c-0.94,3.23-2.19,8.29-3.95,11.1c-0.85,1.49-2.36,3.38-1.69,5.52c0.14,0.44,2.63,0.02,4.23-0.14c4.51-1.57,8.74-1.99,13.25-2.44
		c5.76-0.57,11.42-1.7,17.15-2.26c3.95-0.39,7.05-0.42,10.15-0.72c1.69,0.11,3.38,0.79,4.23,2.12c1.13,1.3,1.41,2.96,0.85,4.99
		c-0.56,1.47-1.41,3.24-2.54,4.76c-2.09,2.76-4.37,5.46-6.48,8.25c-1.69,2.14-3.38,4.56-5.36,6.45
		c-5.87,6.22-14.89,16.98-20.25,23.43c-2.82,3.1-5.92,6.79-8.74,10.45c-7.87,8.65-14.79,17.23-23.12,25.69l-0.28,0.59
		c-2.82,2.82-5.36,5.6-8.17,8.37l-1.69,2.14c-2.17,2.92-4.62,5.59-7.05,8.26C522.78,233.98,529.97,232.23,536.32,231.6L536.32,231.6
		z M694.18,217.23c0.28-0.03,0.56-0.06,1.13-0.11l2.25-1.07c2.26-1.07,4.51-1.57,6.77-1.8c2.68-0.27,4.8,0.09,7.33-0.16
		c2.54-0.25,4.23-1.55,5.64-3.94c2.26-3.89,3.95-9.69,5.92-15.25c0.91-3.74,2.41-7.69,3.66-11.36c2.54-7.02,5.07-14.6,8.18-21.39
		c3.1-7.07,6.77-14.48,11.28-21.13l3.1-5.1c3.95-6.03,7.33-9.75,11.28-16.06c8.46-13.24,31.29-45.1,31.29-45.39
		c0-2.54-3.38-0.79-3.38-1.64l-29.04,3.44c-1.41,0.14-5.36,8.42-9.3,15.86c-1.86,2.74-4.86,7.11-6.2,9.92
		c-3.66,5.16-6.2,8.23-9.02,14.14c-0.56,1.18-1.41,2.68-2.82,4.51c-0.85,1.21-1.69,1.58-2.26,1.63c-0.28-0.82-0.56-1.64-0.56-2.48
		c-1.57-4.55-1.64-10.19-3.1-14.92l-2.54-11.31c-0.43-1.67-0.85-9.68-0.85-11.76l-0.28-2.51l-17.48,1.73
		c-0.85,0.08-1.69,0.17-2.54,0.53c-4.23,1.27-6.48,4.59-5.92,8.76c0,3.17,1.65,8.07,2.26,11.33c1.4,7.31,1.81,14.91,3.1,21.68
		c1.76,8.18,2.2,18.21,4.79,25.74c1.41,4.09,1.41,7.75,0,11.56c-2.77,8.57-6.51,17.09-9.02,25.7c-2.26,6.43-4.51,13.13-7.33,19.61
		c-1.47,2.11-1.69,4.73-1.69,7.21C689.39,215.73,691.36,217.51,694.18,217.23L694.18,217.23z M189.68,142.83
		c-3.38,0.05-4.51-2.65-2.82-5.92c1.13-2.65,2.54-5.33,4.79-7.24c6.48-6.05,13.01-12.05,20.06-17.54
		c8.46-6.76,18.09-11.99,27.96-16.07c13.86-5.88,22.6-8.39,26.31,0.78c1.41,3.29,1.13,6.98-1.13,10.59
		c-5.97,9.05-13.3,16.59-22.36,22.56c-8.46,5.35-17.2,10.16-26.83,12.24C211.82,143.89,194.64,143.04,189.68,142.83L189.68,142.83z"
		/>
	<path class="st0" d="M171.32,431.26c-0.56-1.07-1.41-1.83-1.69-2.65c-1.41-3.52-1.69-7.73-0.85-11.47
		c3.17-13.52,8.56-27.75,22.27-34.44c-6.2,16.45-11.84,31.1-17.76,46.11C173.02,429.4,172.17,430.05,171.32,431.26L171.32,431.26z
		 M318.75,484.26c8.69-0.86,16.6-2.77,24.81-3.58c10.99-1.09,14.66-23.16,14.66-25.41l0.28-3.41l-7.89,0.78
		c-6.77,2.36-13.81,4.47-20.58,5.14c-5,0.5-8.89,0.2-14.09,1.11c-2.25,0.22-4.23,0.14-6.2,0.05l2.82-9.58
		c2.26-7.27,4.51-17.36,6.77-24.63c5.36-16.32,9.59-28.58,13.53-40.24c3.04-8.11,4.95-15.28,8.74-23.7
		c4.8-10.74,2.82-14.31-7.33-13.65l-8.18,1.37c-4.28,1-7.57,2.6-9.02,7.1c-0.56,1.75-1.41,3.8-1.69,6.09
		c-1.14,7.66-5.45,16.49-8.18,23.93c-2.26,7.27-4.79,14.57-7.33,22.15l-3.9,11.38c-2.46,8.84-5.6,17.28-8.18,25.9l-5.92,16.66
		c-1.41,4.37-2.82,8.45-4.51,12.85c-1.34,3.78-1.9,6.11-0.85,10.23c2.61,2.76,4.68,2.92,9.02,2.49c4.18-0.41,8.11-1.37,12.64-1.82
		L318.75,484.26L318.75,484.26z M440.25,410.77c-1.41-0.14-1.97-0.37-1.97-0.37c0-2.05,8.05-14.69,9.87-17.89l7.05-11.69
		c0,1.69,0,3.38,0.56,5.02c1.34,3.9,0.44,9.29,1.13,13.42c0.28,2.23,0,4.79-4.51,8.06C448.49,410.07,444.67,410.33,440.25,410.77
		L440.25,410.77z M469.29,469.35l7.89-0.78c2.54-0.25,5.64-1.12,7.33-3.55c1.69-2.42,1.13-5.47,0.28-7.92
		c-0.26-0.82-3.28-17.66-4.28-32.56c2.87-1.98,4.84-4.43,6.81-6.88c1.44-1.88,4.51-4.96,4.51-7.21c0-1.69-0.56-2.76-1.69-3.78
		c-2.26-1.75-5.07-3.73-9.3-3.59c-1.33-1.2-0.94-1.48-1.13-2.99c-0.85-3.3-0.85-6.96-1.13-10.6v-4.79c-0.28-4.48-0.28-9.27,0-14.1
		l0.85-27.43c0.28-11.51-4.24-10.29-14.66-9.26l-1.69,0.17c-3.1,0.31-4.79,2.45-5.64,3.94c-0.28,0.59-0.56,1.18-0.85,2.06
		l-14.66,23.44c-1.69,2.99-3.38,5.97-5.36,8.99c-3.95,6.87-8.18,14.06-12.97,20.74c-3.95,5.75-7.05,10.56-7.89,10.93
		c0,0.53-2.94,1.07-4.79,2.73c-1.07,0.96-2.03,0.97-3.1,0.31l-0.56-0.23c-1.13-1.02-2.82-2.26-5.92-1.95l-1.13,0.11l-3.1,3.13
		c-1.97,1.89-4.23,3.8-5.92,5.66c-3.66,3.75-3.95,7.72-1.13,10.82c2.22,2.21,6.45,4.12,7.05,4.66c-1.97,4.14-7.33,15.1-15.5,27.75
		c-2.93,4.24-7.87,10.68-5.36,15.19c2.27,4.09,7.18,3.47,11.28,1.7c6.75-2.92,3.62,0.93,13.53-5.01c1.69-1.01,3.38-3.72,3.1-5.95
		c-0.17-2.68,3.18-6.69,4.51-8.9c1.41-2.68,2.82-5.07,4.51-7.21c2.32-3.17,5.22-8.93,7.61-10.9c2.26-2.2,12.69-5.49,31.01-8.15
		c2.78-0.34,5-0.17,7.05,0.99l0.28,6.17c0.28,5.89,0.28,12.09,0.56,17.99c0.28,3.64,0.56,6.71,0.56,9.53
		C460.83,467.36,463.93,469.88,469.29,469.35L469.29,469.35z M684.95,447.7c6.2-0.61,7.05-2.95,9.58-10.25
		c2.25-6.42,3.95-13.08,5.64-19.73c1.59-6.54,3.08-14.33,5.07-20.52c4.51-14.54,9.3-29.11,13.53-41.65
		c1.13-3.78,2.82-8.17,5.64-11.83c2.82-3.66,5.64-5.91,8.74-6.79c21.43-6.63,22.83,1.4,26.5-6.57c2.26-4.73,6.48-12.76,8.74-17.78
		c0.65-2.02,1.16-3.89-0.56-5.02c-3.34-1.88-14.05,0.18-18.32,0.41c-3.1,0.03-6.2,0.33-9.3,0.36c-4.79,0.48-9.58,0.67-14.38,1.14
		c-6.2,0.61-12.4,0.95-18.32,1.53c-3.18,0.34-25.05,2.63-27.34,3.27c-5.07,1.63-6.48,4.87-6.77,7.72
		c-0.3,4.01-5.09,13.85-5.36,17.73c-0.85,9.1,22.55-5.05,25.93,0.53c2.32,2.09,1.69,7.74,0.85,10.35
		c-4.51,12.85-8.74,25.96-13.25,38.81c-2.25,7.34-5.14,15.51-7.61,22.46c-1.41,4.65-3.1,9.33-4.79,14.29
		c-0.85,2.9-1.97,5.83-3.1,8.76c-0.5,2.53-0.56,5.36-0.56,7.95c0,2.54,0.56,5.3,5.07,5.42c3.51-0.35,6.91-0.12,10.43-0.47
		C683.24,447.59,682.83,447.91,684.95,447.7L684.95,447.7z M414.21,493.31c0-2.7,1.62-5.02,4.32-5.83
		c3.78-0.91,6.75-1.48,11.07-2.71c2.97-0.84,5.67,1.06,5.94,4c2.43,27.56,38.87,43.12,62.9-7.04c26.72-54.75,44-127.19,51.29-151.13
		c0.54-1.94,2.43-3.75,4.59-3.97c4.05-0.4,8.91-1.15,12.69-1.53c2.43-0.24,4.32,1.19,4.86,3.57c1.89,10.88,7.56,42.98,14.58,74.42
		c1.08,4.75,7.83,4.62,9.72-0.42c8.64-24.34,20.52-65.74,24.02-77.43c2.16-7.77,27.81-12.2,24.57-2.43
		c-4.32,12.58-12.15,36.56-16.2,49.11c-4.05,12.28-7.56,24.51-11.34,36.49c-2.8,9.6-9.24,20.34-12.42,31.46
		c-0.81,2.78-1.35,5.53-1.89,7.75c-0.54,1.94-2.16,3.72-4.32,4.21c-7.02,1.78-21.87,5.13-23.49,0.44
		c-0.27-0.78-8.64-35.05-14.04-56.38c-1.08-4.75-8.1-4.33-9.72,0.69c-21.87,69.93-38.06,135.51-92.33,140.89
		C436.61,539.69,416.1,523.36,414.21,493.31L414.21,493.31z M117.67,545.11c13.58-1.99,27.83-10.47,36.13-21.34
		c7.09-9.44,12.45-19.84,17.52-30.49c3.66-7.69,7.89-15.44,11.84-23.44l16.35-2.46c2.54-0.25,5.07-0.79,7.61-1.6
		c9.48-3.13,31.84-14.05,38.34-22.12c3.95-4.34,7.61-8.93,11.56-13.55c8.46-10.42,14.94-21.78,17.76-34.79
		c3.5-17.25,7.23-31.23,0.85-48.34c-8.38-22.9-23.66-41.11-49.61-44.32c-21.14-2.42-41.44,2.7-60.33,14.67
		c-4.51,2.66-9.02,5.92-13.3,9.16c-8.94,6.51-21.92,26.22-27.39,36.26c-1.85,3.48-8.66,21.94-9.58,25.19
		c-0.56,2.31,0,4.23,1.97,4.93c6.2,2.49,12.73,4.94,19.5,4.83c3.66-2.62,3.95-6.03,4.51-9.51c1.41-6.91,3.95-13.36,8.18-19.13
		c4.23-6.06,8.22-12.42,13.3-17.71c9.3-9.1,18.89-17.38,31.57-21.45c7.79-2.67,27.16-5.3,34.39-0.59
		c20.47,11.46,25.13,29.05,21.14,50.43c-3.19,17.82-8.27,25.57-18.04,40.46c-5.92,9.33-13.81,16.03-24.24,19.03
		c-3.95,1.24-7.05,1.26-10.43-0.94l0.85-3.47c4.23-10.57,8.74-21.16,12.97-31.78c3.95-9.41,6.68-19.42,10.99-28.48
		c2.82-5.35,3.95-11.1,4.51-17.64c-5.64-1.7-10.43-1.79-15.5-1.85c-10.15-0.4-19.45,3.05-27.63,8.66
		c-10.99,7.57-20.3,16.67-28.24,27.93c-7.61,10.62-10.15,22.15-11.28,34.15c-0.28,2.56,0,5.07,0.85,7.25
		c3.38,10.66,7.89,20.36,18.09,25.83c0.28,0.25,0.28,1.1,0.85,1.89c-3.66,10.79-9.35,20.94-15.27,31.11
		c-4.37,7.26-15.98,23.79-25.42,23.94c-5.36,0.53-10.15-0.97-14.38-3.09c-7.61-3.76-11.28-10.16-10.15-18.73
		c1.69-15.11,8.74-27.36,22.55-35.5c2.25-1.35,2.82-3.1,3.1-5.1c-3.38-5.3-6.48-10.63-13.25-11.94c-2.82,1.97-5.64,3.38-8.46,5.35
		c-3.95,2.93-8.46,5.35-11.56,9.32c-7.89,9.52-13.81,19.97-16.91,32.12c-2.54,10.68-2.82,20.86,0.28,30.7
		c1.41,4.93,3.1,9.84,6.77,13.71C90.89,542.68,103.01,547.12,117.67,545.11L117.67,545.11z"/>
	<path class="st0" d="M405.24,698.17l7.89-0.78c2.54-0.25,5.64-1.12,7.33-3.54c1.69-2.42,1.13-5.47,0.28-7.92
		c-0.26-0.82-3.28-17.66-4.28-32.56c2.87-1.98,4.84-4.43,6.81-6.88c1.44-1.88,4.51-4.96,4.51-7.21c0-1.69-0.56-2.76-1.69-3.78
		c-2.26-1.75-5.07-3.73-9.3-3.59c-1.33-1.2-0.94-1.48-1.13-2.99c-0.85-3.3-0.85-6.96-1.13-10.6c0-6.35-0.37-12.5,0-18.89l0.85-27.43
		c0.28-11.51-4.24-10.29-14.66-9.26l-1.69,0.17c-3.1,0.31-4.79,2.45-5.64,3.94c-0.28,0.59-0.56,1.18-0.85,2.06l-14.66,23.44
		c-1.69,2.99-3.38,5.97-5.36,8.99c-3.95,6.87-8.18,14.06-12.97,20.74c-3.95,5.75-7.05,10.56-7.89,10.93c0,0.53-2.94,1.07-4.79,2.73
		c-1.49,1.33-2.19,0.67-3.67,0.08c-1.13-1.02-2.82-2.26-5.92-1.95l-4.23,3.24c-1.97,1.89-4.23,3.8-5.92,5.66
		c-3.66,3.75-3.95,7.72-1.13,10.82c2.22,2.21,6.45,4.12,7.05,4.66c-1.97,4.14-7.33,15.1-15.5,27.75
		c-2.93,4.24-7.87,10.68-5.36,15.19c2.27,4.09,7.18,3.47,11.28,1.7c6.75-2.92,3.62,0.93,13.53-5.01c1.69-1.01,3.38-3.72,3.1-5.95
		c-0.15-2.32,7.1-13.68,9.02-16.12c2.32-3.17,5.22-8.93,7.61-10.9c2.26-2.2,12.69-5.49,31.01-8.15c2.78-0.34,5-0.17,7.05,0.99
		l0.28,6.17c0.28,5.89,0.28,12.09,0.56,17.99c0.28,3.64,0.56,6.71,0.56,9.53C396.79,696.19,399.89,698.7,405.24,698.17
		L405.24,698.17z M590.87,704.65c-13.39,65.27-85.51,97.1-125.65,101.58c-63.65,6.89-109.27-39.37-154.34-54.29
		c-12.9-4.29-24.29-7.46-34.91-10.2c-10.38-2.51-51.36,2.56-74.13,23.03c-0.51,0.56-1.27,1.14-1.77,1.44
		c-3.55-1.92-6.08-6.23-6.84-11.21c-0.5-4-0.5-11.59,7.59-18.97c9.11-2.67,10.88-6.64,27.07-12.04
		c10.62-3.33,10.88-4.87,18.47-29.15c5.32-17.48,24.8-83.93,43.52-132.08c3.11-8.02,0.12-11.43-7.59-10.63
		c-29.6,3.19-97.16-0.5-96.9,45.53c0,18.47,24.29,36.05,41.74,5.73c3.55-6.17,7.09-9.81,8.61-9.96c9.87-0.98,12.9-3.3,15.43,0.24
		c0.97,3.94-20.67,43.04-45.79,45.53c-9.36,0.93-22.52-2.58-31.12-13.11c-8.35-10.05-10.38-24.27-5.82-41.17
		c10.88-38.78,48.33-48.31,69.58-50.66c1.77-0.18,82.99-8.98,81.47-1.75c0,0-49.34,156.19-54.39,170.36
		c-4.51,12.84,1,15.4,12.14,15.49c19.82,0.17,90.99,34.88,99.94,39.69c37.7,20.3,74.13,24.29,91.33,22.33
		c85.52-8.98,93.62-71.77,96.91-74.37l18.72-5.14C588.31,700.25,590.87,701.34,590.87,704.65L590.87,704.65z M573.82,681.75
		c3.14-0.31,3.72-2.34,10.15-2.98c2.68-0.27,4.8,0.09,7.33-0.16c2.54-0.25,4.23-1.55,5.64-3.94c3-5.13,7.04-19.37,9.58-26.6
		c7.19-20.47,10.94-29.21,22.55-47.62c3.95-6.03,7.33-9.75,11.28-16.06c8.46-13.24,31.29-45.1,31.29-45.38
		c0-2.54-3.38-0.79-3.38-1.64l-29.04,3.44c-1.41,0.14-5.36,8.42-9.3,15.86c-2.14,3.16-1.23,1.69-2.83,4.6
		c-0.08,0.15-0.17,0.32-0.27,0.49c-3.98,5.37-8.6,13.9-12.12,18.96c-0.73,1.05-3.03,5.94-5.07,6.14c-0.28-0.82-0.56-1.64-0.56-2.48
		c-0.91-2.64-0.83-5.51-1.13-6.65c-0.56-2.76-1.13-5.53-1.97-8.26c-1.82-8.11-2.93-14.92-3.38-23.06l-0.28-2.51l-17.48,1.73
		c-5.11,0.51-9.22,3.87-8.46,9.29c0.6,4.3,1.53,7.49,2.26,11.33c0.85,4.43,1.69,8.85,2.26,13.31c1.44,7.53,2.48,16.94,3.66,24.73
		c0.28,3.92,1.13,6.94,1.97,9.39c1.41,4.09,1.41,7.75,0,11.56c-3.07,8.85-6.16,16.79-9.02,25.7c-2.26,6.43-4.51,13.13-7.33,19.61
		c-0.85,1.21-1.13,2.37-1.41,3.52c-0.28,1.16-0.28,2.57-0.28,3.69C569.03,680.25,571,682.03,573.82,681.75L573.82,681.75z
		 M493.81,688.27l0.28-0.03c14.66-1.45,29.6-16.18,36.93-23.11c2.65-2.92,6.04-5.52,7.89-8.96c19.73-34.09,17.76-59.55,12.12-74.78
		c-6.77-20.19-22.55-29.62-44.26-27.47c-5.89,0.58-11.81,1.45-17.76,2.04c-5.07,0.5-10.43,3.85-11.28,6.76
		c-0.28,0.31-35.8,121.1-36.08,121.41c-0.28,1.72,0.56,4.74,1.69,5.75c1.69,1.24,4.23,1.84,7.33,1.81
		C463.93,690.95,478.02,689.83,493.81,688.27L493.81,688.27z M476.61,667.14l-2.26-2.6l1.97-5.27c1.86-7.61,4.1-15.88,6.2-23.45
		l4.51-16.8c3.74-11.6,6.87-23.24,10.43-34.86c0.55-3.68,0.37-7.08,5.64-7.61c2.26-0.22,4.79,0.09,7.61,0.66
		c18.04,3.85,20.3,11.8,13.25,45.77c-2.82,15.22-11.84,27.39-26.78,37.04c-3.95,2.36-8.74,3.68-13.53,5.01L476.61,667.14
		L476.61,667.14z M376.21,639.59c-1.41-0.14-1.97-0.37-1.97-0.37c0-1.41,2.82-5.92,5.07-10.09c3.89-4.93,8.42-13.82,11.84-19.5
		c0,1.69,0,3.38,0.56,5.02c1.34,3.89,0.45,9.29,1.13,13.42c0.28,2.23,0,4.79-4.51,8.06C384.45,638.9,380.62,639.15,376.21,639.59
		L376.21,639.59z"/>
</g>
</svg>
