<?xml version="1.0" encoding="utf-8"?>
<!-- Generator: Adobe Illustrator 25.0.0, SVG Export Plug-In . SVG Version: 6.00 Build 0)  -->
<svg version="1.1" id="Layer_1" xmlns="http://www.w3.org/2000/svg" xmlns:xlink="http://www.w3.org/1999/xlink" x="0px" y="0px"
	 viewBox="0 0 864 864" style="enable-background:new 0 0 864 864;" xml:space="preserve">
<g>
	<path d="M61.22,471.62c1.88-39.1,12.56-81.13,32.72-114.63c7.22-12.06,15.31-23.33,26.44-32.22c5.85-4.7,6.14-4.55,8.45,2.74
		c4.12,13.22,2.67,26.51,0.94,39.87c-0.94,7.8-2.74,15.39-3.03,23.26c-0.14,2.96,1.16,4.77,3.9,5.49
		c10.33,2.53,15.75,0.43,18.78-8.38c3.18-9.1,5.71-18.42,7.95-27.74c2.46-10.11,4.77-20.3,4.7-30.77
		c-0.14-14.23-6.65-23.48-18.71-26c-8.96-1.88-17.99-1.52-27.01,0.07c-7.58,1.3-13.87,5.2-20.15,9.46
		c-23.47,15.88-41.02,51.71-49.41,77.94c-12.54,39.21-15.63,87-6.5,127.13c2.89,12.71,7.15,24.99,14.45,35.9
		c8.02,12.06,18.42,19.79,33.8,18.13c37.14-3.98,58.1-75.94,66.89-105.39c2.02-6.79,3.54-13.94,6.79-20.3
		c3.18-6.28,2.24-9.1-4.62-10.98c-7.37-2.02-14.81-1.73-22.03-0.29c-14.81,3.03-29.54,6.14-44.06,10.26
		c-5.06,1.44-10.19,2.6-15.24,4.04c-1.88,0.51-3.68,1.59-3.68,3.83c-0.09,5.75,8.37,6.52,12.64,6.65
		c14.3,0.51,28.24-2.31,42.18-5.06c6.28-1.3,6.36-1.23,5.13,4.98c-3.9,20.01-8.45,39.87-13.8,59.52
		c-2.24,8.09-5.06,15.96-8.88,23.48c-5.06,9.68-12.5,16.32-23.11,19c-5.92,1.44-12.42,0.65-15.82-6.57
		c-1.52-3.25-3.11-6.43-4.12-9.9C59.71,521.23,60.16,497.23,61.22,471.62L61.22,471.62z M305.6,464.47
		c-8.96,21.53-18.66,42.71-29.34,63.49c-4.91,9.61-9.75,19.14-15.89,28.03c-0.65,0.87-1.16,2.38-2.31,2.24
		c-1.23-0.14-1.16-1.73-1.44-2.74c-2.89-9.32-3.03-19.07-2.96-28.6c0.19-27.74,6.11-66.82,11.48-93.76
		c2.67-13.36,5.92-26.58,8.09-40.09c0.8-4.91-0.87-7.37-5.85-8.31c-16.38-3.03-10.66,12.75-18.85,8.6
		c-5.06-2.53-10.69-3.39-16.32-3.18c-13.22,0.36-24.7,5.49-33.66,15.17c-19.43,20.88-29.11,45.65-28.1,74.25
		c0.29,8.45,2.53,16.47,6.43,24.13c6.5,12.57,26.94,13.94,34.45,2.09c4.33-6.93,8.31-14.09,11.7-21.53
		c4.26-9.46,8.38-18.92,12.64-28.46c-4.24,27.11-8.09,51.56-4.12,79.31c1.37,9.68,4.12,19,9.39,27.45
		c7.15,11.56,23.62,10.4,30.19,0.79c3.76-5.42,7.3-10.98,10.26-16.9c8.49-16.54,16.18-33.42,23.24-50.57
		c0.58,18.94,2.56,42.11,6.52,60.32c0.65,2.89,2.17,5.2,5.13,6.36c4.48,1.88,9.1,2.02,13.72,0.58c2.17-0.65,3.32-2.02,3.32-4.26
		c0.14-8.16,0.43-16.4,0.43-24.56c0.07-18.56-0.94-37.06,2.53-55.47c3.94-21.15,12.03-46.43,25.64-63.71
		c1.44-1.81,2.53-2.02,3.97,0.14c3.54,5.13,7.58,9.9,12.06,14.3c8.02,7.87,16.69,14.23,28.82,14.88c2.1,0.12,4.09,0.03,5.98-0.27
		c-5.96,14.65-8.96,29.96-6.77,46.35c1.73,13.22,6.5,25.06,16.04,34.67c10.55,10.55,27.38,9.97,37.49-1.01
		c13.69-14.98,23.42-41.03,31.71-60.39c-0.43,5.85-1.08,10.83-1.16,15.89c-0.29,15.75-0.72,31.49,1.88,47.17
		c1.44,8.81,3.25,17.55,6.72,25.93c4.91,11.99,19.07,12.06,25.28,3.03c3.25-4.84,6.21-9.82,8.67-15.17
		c9.04-19.58,17.21-39.56,24.94-59.71c1.35,6.98,3.35,13.95,5.97,20.92c4.19,11.12,10.76,20.73,20.22,28.31
		c8.88,7.15,28.17,7.37,37.2-2.31c4.77-5.06,9.17-10.4,12.86-16.32c8.56-13.85,16.4-28.12,24-42.53
		c-0.23,10.31,0.06,20.66,0.92,31.04c0.43,5.71,1.66,11.27,3.83,16.61c2.53,6,13.8,8.52,18.78,4.26c1.44-1.16,1.66-2.89,1.88-4.48
		c0.94-5.63,1.73-11.34,2.74-16.9c6.07-32.14,19.36-60.6,42.18-84.37c0.79-0.79,1.23-2.24,2.96-1.81c0,1.44,0.07,2.89,0,4.33
		c-1.16,16.4-3.76,32.65-4.77,49.05c-1.4,23.57-1.06,54.2,11.77,75.05c6.86,11.2,22.18,11.63,29.9,4.62
		c5.13-4.69,8.89-10.33,12.35-16.18c14.09-24.13,26.08-49.26,37.49-74.69c3.11-6.79,5.78-13.8,8.6-20.73
		c0.58-1.37,1.08-2.96-0.58-3.9c-2.77-1.59-4.97-0.13-6.28,2.53c-7.95,16.11-15.89,32.29-23.84,48.47
		c-7.37,14.88-15.02,29.54-23.76,43.63c-3.4,5.42-7.22,10.47-12.06,14.74c-2.74,2.38-3.25,2.31-4.62-1.16
		c-3.11-7.37-3.83-15.17-4.12-22.97c-0.58-16.9,0.29-33.73,1.81-50.56c1.16-12.64,1.88-25.21,2.67-37.85
		c0.36-6.93-0.07-13.87-1.88-20.59c-1.52-5.71-5.13-9.32-11.05-10.4c-8.16-1.52-15.53,0.14-22.03,5.42
		c-15.39,12.71-25.04,27.68-34.89,45.15c0.58-5.78,1.23-11.48,1.81-17.26c0.72-7.3,2.24-14.59,2.38-21.96
		c0.07-4.04-1.3-5.85-5.2-7.22c-2.96-1.01-6-0.87-8.96-0.79c-7.08,0.36-9.68,2.46-11.05,9.25c-2.55,12.29-4.45,24.62-5.64,36.99
		c-2.47,4.57-4.97,9.12-7.51,13.64c-8.9,15.83-29.75,54.43-44.71,64.86c-4.19,2.89-5.85,2.67-9.17-1.23
		c-10.36-12.1-14.35-36.54-14.59-51.79c0-1.52,0.07-3.25-0.07-5.06c-0.4-5.95,4.5-1.74,15.82-4.48
		c20.44-4.77,36.19-22.75,38.07-43.63c1.08-12.78-4.12-22.9-14.74-27.74c-10.47-4.77-21.31-4.7-32.07-1.01
		c-12.86,4.48-20.73,14.23-25.79,26.22c-6.48,15.44-9.35,30.99-8.89,46.56c-7.85,19.28-15.61,38.6-23.98,57.67
		c-4.55,10.18-8.74,20.59-14.81,30.05c-0.43,0.72-0.87,1.95-1.81,1.81c-1.3-0.29-0.94-1.59-1.01-2.53
		c-2.1-25.66,2.05-62.54,5.27-87.91c4.84-38.07,11.34-75.84,20.73-113.12c1.73-6.93,3.25-13.94,4.7-20.95
		c1.01-5.06-0.65-7.3-5.71-8.38c-3.11-0.65-6.21-0.58-9.32,0c-3.18,0.58-5.49,2.31-6.57,5.56c-1.16,3.39-2.38,6.72-3.61,10.11
		c-6.86,19.94-13.8,39.94-20.66,59.95c-1.83,5.5-2.9-2.69-15.67-4.98c-14.45-2.53-27.59,0.29-39.15,9.53
		c-10.87,8.72-18.69,19.71-25.15,31.84c-2.06,0.24-4.04,0.95-5.98,2.4c-4.26,3.25-5.2,3.03-9.39-0.14
		c-12.02-9.12-17.3-20.62-24.63-27.38c-8.67-7.95-23.33-7.22-30.84,1.66c-2.02,2.31-3.76,4.77-5.92,7.58
		c1.95-10.4,3.76-20.15,5.71-29.9c0.51-2.89-0.58-4.91-3.18-6.14c-4.33-2.09-8.88-2.89-13.65-2.09c-3.54,0.58-6.5,1.95-8.09,5.49
		C312.55,406.05,307.43,439.09,305.6,464.47L305.6,464.47z M241,416.58c-8.74,18.56-17.41,37.06-26.22,55.55
		c-4.05,8.45-8.31,16.83-13.51,24.7c-0.65,0.94-1.01,2.24-2.67,2.53c-1.59-6.65-1.37-13.36-0.79-19.94
		c1.37-16.76,5.92-32.79,13.29-47.89c4.69-9.61,10.33-18.64,18.78-25.43c3.9-3.11,4.98-3.18,8.74,0
		C245.19,411.74,244.11,410.08,241,416.58L241,416.58z M457.05,499.58c-3.39,6.43-7.22,12.57-12.14,18.06
		c-2.74,3.18-3.32,3.11-5.13-0.87c-2.6-5.92-3.97-12.14-4.41-18.49c-1.59-20.44,2.74-39.87,11.12-58.44
		c5.92-13.18,14-27.83,26.29-36.26c1.23-0.87,2.53-1.44,3.97-0.43c5.92,4.19,9.97,9.9,12.5,16.61
		C491.27,424.91,461.63,490.96,457.05,499.58L457.05,499.58z M583.89,449.52c1.59-14.88,4.7-29.4,13.36-42.04
		c1.81-2.74,4.19-4.98,6.86-6.86c1.88-1.23,3.47-1.08,5.13,0.43c4.77,4.05,6.14,9.39,5.92,14.66
		c-0.14,15.24-11.05,31.06-24.56,36.33C587.98,453.12,583.53,453.83,583.89,449.52L583.89,449.52z"/>
	<path d="M193.83,247.24c-1.32,0.27-2.17,1.56-1.89,2.99l13.36,66.36c0.29,1.43,1.61,2.41,2.92,2.15l28.22-5.68
		c12.79-2.58,18.05-9.23,15.28-22.98c-2.88-14.29-9.31-14.16-11.05-15.94c-3.66-3.37-2.54-3.35-0.56-7.72
		c6.63-14.03-1.69-28.15-19.74-24.51L193.83,247.24L193.83,247.24z M229.96,260.49c3.11,15.42-19.68,19.64-21.22,11.99l-2.99-14.83
		c-0.53-2.63,1.19-5.22,3.94-5.77l5.74-1.16C222.96,249.21,228.45,252.96,229.96,260.49L229.96,260.49z M212.26,289.94
		c-1.44-7.17,22.75-12.42,25.81,2.76c1.49,7.41-2.09,13.11-10.34,14.77l-6.58,1.32c-2.75,0.55-5.31-1.05-5.79-3.44L212.26,289.94
		L212.26,289.94z M335.5,260.69c-2.72-22.72-19.48-36.12-42.2-33.4c-22.72,2.72-35.84,19.69-33.13,42.41
		c1.25,10.41,5.28,19.51,13.69,26.12c8.39,6.49,17.96,8.41,28.37,7.17c10.41-1.25,19.26-5.38,26-13.68
		C334.97,280.9,336.76,271.23,335.5,260.69L335.5,260.69z M313.98,244.11c14.59,12.67,12.9,44.52-12.97,47.62
		c-33.79,4.04-39.56-49.31-6.38-53.28C301.9,237.57,308.49,239.24,313.98,244.11L313.98,244.11z M350.95,226.7
		c-1.46,0.1-2.6,1.39-2.5,2.85l4.47,67.54c0.1,1.46,1.39,2.6,2.85,2.5c5.99-0.4,10.77,0.2,10.35-6.19l-1.17-17.65
		c-0.47-7.08,10.34-6.7,12.18-4.35l17.37,22.32c0.12-0.01,0.13,0.11,0.25,0.11c3.47,3.65,6.52,4.72,10.57,0.89
		c1.03-1.05,2.16-2.47,2.18-4.06c-0.06-2.09-2.34-4.81-3.71-6.23l-11.84-14.49c-2.14-2.47-1.5-6,1.07-7.77
		c6.91-4.49,8.91-11.22,8.39-19.13c-0.35-5.23-2.83-9.47-6.37-13.15c-3.55-3.8-7.83-5.59-13.06-5.25L350.95,226.7L350.95,226.7z
		 M367.87,234.87c9.3-0.62,20.74-2.46,21.59,10.43c0.6,9.01-4.68,14.24-13.44,14.82l-6.45,0.43c-2.68,0.18-5.01-1.87-5.2-4.67
		l-1.04-15.7C363.15,237.5,365.19,235.05,367.87,234.87L367.87,234.87z M416.54,224c-1.46-0.02-2.58,1.19-2.6,2.65l-0.9,67.56
		c-0.02,1.46,1.06,2.7,2.53,2.72c5.93,0.08,10.84,1.08,10.93-5.34l0.35-26.59c0.07-4.97,6.17-7.15,9.31-3.17l26.4,32.92
		c1.68,2.1,3.87,2.86,6.43,2.89c4.15,0.05,6.72-0.52,6.78-5.4l0.86-64.88c0.04-3.24-3.75-2.61-6.67-2.65
		c-4.02-0.05-6.72,0.52-6.78,5.4l-0.35,26.46c-0.07,4.97-6.17,7.15-9.31,3.17l-26.28-32.92c-1.43-2.34-4.11-2.74-6.55-2.77
		L416.54,224L416.54,224z M585.6,243.83c2.06-0.33,2.36-2.24,2.57-3.99c0.4-3.34-0.08-4.68-3.81-5.12l-49.65-5.94
		c-1.45-0.17-2.81,0.89-2.98,2.35c-0.52,4.36-1.02,6.39,3.59,6.94l11.99,1.43c2.91,0.35,5.04,3.06,4.7,5.85l-6.67,55.71
		c-0.17,1.45,0.77,2.79,2.22,2.97c5.88,0.7,10.67,2.22,11.43-4.16l6.33-52.92c0.33-2.79,2.92-4.93,5.83-4.58
		C573.26,242.6,584.16,244.12,585.6,243.83L585.6,243.83z M669.16,286.74c4.52-22.43-7.22-40.39-29.65-44.91s-40.2,7.5-44.72,29.93
		c-2.07,10.28-1.08,20.19,4.84,29.09c5.94,8.79,14.43,13.61,24.71,15.68c10.28,2.07,19.97,0.91,28.97-4.86
		C662.34,305.77,667.06,297.15,669.16,286.74L669.16,286.74z M653.9,264.26c9.9,16.6-1.66,46.32-27.2,41.18
		c-33.36-6.72-22.17-59.21,10.6-52.61C644.47,254.28,650.2,257.92,653.9,264.26L653.9,264.26z"/>
	<path d="M95.85,615.37c2.11-0.53,1.74-2.95,1.74-5.11c0-1.16-0.87-2.12-2.03-2.12H82.83c-2.31,0-4.15-1.83-4.15-4.15v-9.45
		c0-2.31,1.83-4.15,4.15-4.15c3.05,0,12.52,0.23,14.85-0.19c2.2-0.4,1.83-2.86,1.83-5.02c0-1.16-0.96-2.03-2.03-2.03H70.2
		c-1.16,0-2.12,0.87-2.12,2.03v51.31c0,3.86,2.03,4.34,5.3,4.34c3.18,0,5.3-0.48,5.3-4.34v-16.78c0-2.31,1.83-4.24,4.15-4.24
		L95.85,615.37L95.85,615.37z M166.55,610.93c0-18.09-11.9-30.19-29.99-30.19c-18.09,0-29.99,12.09-29.99,30.19
		c0,18,12.02,30.09,29.9,30.09c8.29,0,15.62-2.41,21.7-8.29C164.23,626.75,166.55,619.32,166.55,610.93L166.55,610.93z
		 M151.21,595.89c10.27,11.32,5.95,36.17-14.66,36.17c-26.91,0-26.43-42.44,0-42.44C142.34,589.62,147.35,591.55,151.21,595.89
		L151.21,595.89z M178.6,582.86c-1.16,0-2.12,0.96-2.12,2.12v53.53c0,2.65,3.22,2.12,5.3,2.12c3.28,0,5.3-0.48,5.3-4.34v-13.98
		c0-5.61,8.51-4.75,9.84-2.8l12.54,18.52c0.1,0,0.1,0.1,0.19,0.1c2.55,3.06,4.9,4.06,8.29,1.25c3.19-2.64,1.89-5.17-0.68-8.2
		l-8.58-12.06c-1.54-2.04-0.89-4.8,1.25-6.08c5.69-3.18,7.62-8.39,7.62-14.66c0-4.15-1.74-7.62-4.34-10.71
		c-2.6-3.18-5.88-4.82-10.03-4.82H178.6L178.6,582.86z M191.52,590.2c7.37,0,16.49-0.86,16.49,9.35c0,7.14-4.44,10.99-11.38,10.99
		h-5.11c-2.12,0-3.86-1.74-3.86-3.95v-12.44C187.67,592.03,189.4,590.2,191.52,590.2L191.52,590.2z M273.41,639.19
		c7.72-2.8,6.08-12.63-3.38-9.45c-3.18,1.16-7.04,2.41-10.32,2.41c-27.58,0-27.49-42.44,0-42.44c3.28,0,7.14,1.25,10.32,2.41
		c0.68,0.19,1.74,0.39,2.51,0.87c4.05,2.6,9.26-2.6,5.5-6.94c-1.45-1.54-3.38-2.7-5.59-3.47c-11.19-3.95-26.72-2.03-35.3,6.56
		c-15.74,15.74-9.97,51.98,21.6,51.98C262.61,641.12,268.97,640.83,273.41,639.19L273.41,639.19z M317.87,640.73
		c2.13-0.53,1.83-3.12,1.83-5.01c0-1.16-0.96-2.12-2.12-2.12h-14.56c-2.31,0-4.15-1.83-4.15-4.15v-9.74c0-2.31,1.83-4.24,4.15-4.24
		l12.92-0.1c2.15-0.54,1.83-2.92,1.83-5.11c0-1.16-0.96-2.12-2.12-2.12h-12.63c-2.31,0-4.15-1.83-4.15-4.15v-9.45
		c0-2.31,1.83-4.15,4.15-4.15c2.95,0,12.64,0.22,14.85-0.19c2.14-0.4,1.83-3.01,1.83-5.02c0-1.16-0.96-2.03-2.12-2.03h-27.29
		c-1.16,0-2.03,0.87-2.03,2.03v53.53c0,1.16,0.87,2.12,2.03,2.12L317.87,640.73L317.87,640.73z M353.46,640.83c0.1,0,0.19,0,0.29,0
		c9.26-1.25,14.85-6.56,18.04-15.14c3.6-9.46,3.62-17.84,0-27.29c-3.18-8.68-8.78-13.98-18.04-15.24c-0.1,0-0.19,0-0.29,0h-22.09
		c-1.16,0-2.03,0.87-2.03,2.03v53.53c0,1.16,0.87,2.12,2.03,2.12H353.46L353.46,640.83z M365.22,611.51
		c0.1,10.8-4.34,20.83-18.23,22.09l-4.34-0.1c-2.31,0-4.24-1.74-4.24-3.76v-35.59c0-2.12,2.03-3.76,4.44-3.76h3.76
		C360.79,590.77,365.22,600.8,365.22,611.51L365.22,611.51z M453.57,590.1c2.19-0.62,1.74-4.45,1.45-5.4
		c-0.46-1.49-1.95-1.64-3.28-1.64h-39.54c-2.36,0-2.12,2.47-2.12,3.66c0,2.84,0.8,3.57,3.47,3.57h9.55c2.31,0,4.24,1.93,4.24,4.15
		v44.37c0,2.67,3.01,2.12,5.3,2.12c3.18,0,5.3-0.48,5.3-4.34v-42.15c0-2.22,1.83-4.15,4.15-4.15
		C443.82,590.29,452.47,590.46,453.57,590.1L453.57,590.1z M520.69,610.93c0-18.09-11.9-30.19-29.99-30.19
		c-18.09,0-29.99,12.09-29.99,30.19c0,18,12.02,30.09,29.9,30.09c8.29,0,15.62-2.41,21.7-8.29
		C518.38,626.75,520.69,619.32,520.69,610.93L520.69,610.93z M505.36,595.89c10.27,11.32,5.95,36.17-14.66,36.17
		c-26.91,0-26.43-42.44,0-42.44C496.49,589.62,501.5,591.55,505.36,595.89L505.36,595.89z M597.85,639.86
		c0.53,1.42,2.2,1.16,3.57,1.16c2.6,0,4.15-2.03,5.21-4.15l14.08-43.98c0.98-3,1.61-6.5-0.77-8.87c-0.96-0.96-3.18-1.16-4.53-1.06
		c-2.41,0-3.38,1.83-3.95,3.86l-7.33,22.66c-1.12,3.73-6.23,3.85-7.72,0.48l-4.44-10.03c-0.96-2.22-2.31-4.34-5.11-4.34
		c-2.7,0-4.15,2.12-5.21,4.34l-4.44,10.03c-1.53,3.35-6.59,3.28-7.81-0.48l-7.14-22.66c-0.68-2.02-1.54-3.86-4.05-3.86
		c-1.41-0.05-3.91-0.02-4.73,1.25c-0.77,0.96-1.45,2.12-1.45,3.47c0,1.74,0.39,3.47,0.96,5.21l14.85,46.68
		c0.59,1.81,2.43,1.45,4.24,1.45c2.7,0,4.15-2.22,5.11-4.44l5.79-12.83c1.51-3.39,6.06-3.3,7.62,0L597.85,639.86L597.85,639.86z
		 M689.38,610.93c0-18.09-11.9-30.19-29.99-30.19c-18.09,0-29.99,12.09-29.99,30.19c0,18,12.02,30.09,29.9,30.09
		c8.29,0,15.62-2.41,21.7-8.29C687.06,626.75,689.38,619.32,689.38,610.93L689.38,610.93z M674.04,595.89
		c10.27,11.32,5.95,36.17-14.66,36.17c-26.91,0-26.43-42.44,0-42.44C665.17,589.62,670.18,591.55,674.04,595.89L674.04,595.89z
		 M701.43,582.86c-1.16,0-2.12,0.96-2.12,2.12v53.53c0,2.65,3.22,2.12,5.3,2.12c3.28,0,5.3-0.48,5.3-4.34v-13.98
		c0-5.61,8.51-4.75,9.84-2.8l12.54,18.52c0.1,0,0.1,0.1,0.19,0.1c2.55,3.06,4.9,4.06,8.29,1.25c3.19-2.64,1.89-5.17-0.67-8.2
		l-8.58-12.06c-1.54-2.04-0.89-4.8,1.25-6.08c5.69-3.18,7.62-8.39,7.62-14.66c0-4.15-1.74-7.62-4.34-10.71
		c-2.6-3.18-5.88-4.82-10.03-4.82H701.43L701.43,582.86z M714.36,590.2c7.37,0,16.49-0.86,16.49,9.35c0,7.14-4.44,10.99-11.38,10.99
		h-5.11c-2.12,0-3.86-1.74-3.86-3.95v-12.44C710.5,592.03,712.24,590.2,714.36,590.2L714.36,590.2z M758.24,585.28
		c0-1.16-0.96-2.12-2.12-2.12h-6.46c-1.16,0-2.03,0.96-2.03,2.12v53.53c0,2.67,3.01,2.12,5.3,2.12c3.18,0,5.3-0.48,5.3-4.34v-16.3
		c0-4,4.79-5.61,7.23-2.8l18.42,21.03c0.13,0.36,4.1,5.27,8.01,1.54c2.91-2.78,2.47-4.9-0.1-7.81l-15.05-17.65
		c-1.35-1.54-1.35-3.86,0-5.4l15.14-17.55c2.62-3.12,2.81-4.94-0.1-7.72c-3.85-3.67-7.73,1.12-8,1.83l-18.32,20.64
		c-2.47,2.83-7.23,1.19-7.23-2.8V585.28L758.24,585.28z"/>
</g>
</svg>
