<?xml version="1.0" encoding="utf-8"?>
<!-- Generator: Adobe Illustrator 25.0.0, SVG Export Plug-In . SVG Version: 6.00 Build 0)  -->
<svg version="1.1" id="Layer_1" xmlns="http://www.w3.org/2000/svg" xmlns:xlink="http://www.w3.org/1999/xlink" x="0px" y="0px"
	 viewBox="0 0 864 864" style="enable-background:new 0 0 864 864;" xml:space="preserve">
<g>
	<path d="M623.03,321.95c0.58-3.28,3.21,3.97,25.29,8.49c15.46,3.17,25.43-5.09,24.59-9.94c-1.83-10.59-1.71-13.45,9.2-25.63
		l17.33-18.24c3.41-5.71,14.87,13.38,3.01,31.58c-10.56,16.21-34.94,18.32-34.14,22.99c0.32,1.84,33.92-2.13,35.92-6.55
		c11.46-25.34,31.24-24.12,46.91-40.22c6.66-6.83,8.15,9.78,8.24,12.9c0.43,15.51-31.21,41.71-52.99,34.35l-26.08,4.29
		c0.06,0.36,1.68,1.03,4.86,2.05l28.74,17.16c0.37,2.63-19.65,6.71-30.61,2.51c-32.91-12.6-13.67-21.16-30.86-22.7
		C641.34,334.01,623.86,326.77,623.03,321.95L623.03,321.95z"/>
	<path d="M236.17,321.95c-0.58-3.28-3.21,3.97-25.29,8.49c-15.46,3.17-25.43-5.09-24.59-9.94c1.83-10.59,1.71-13.45-9.2-25.63
		l-17.33-18.24c-3.41-5.71-14.87,13.38-3.01,31.58c10.56,16.21,34.94,18.32,34.14,22.99c-0.32,1.84-33.92-2.13-35.92-6.55
		c-11.46-25.34-31.24-24.12-46.91-40.22c-6.66-6.83-8.15,9.78-8.24,12.9c-0.43,15.51,31.21,41.71,52.99,34.35l26.08,4.29
		c-0.06,0.36-1.68,1.03-4.86,2.05l-28.74,17.16c-0.37,2.63,19.65,6.71,30.61,2.51c32.91-12.6,13.67-21.16,30.86-22.7
		C217.85,334.01,235.33,326.77,236.17,321.95L236.17,321.95z"/>
	<path d="M130.62,241.44c0-7.39,0.09-7.39,0.09-14.79c0-9.21,2.83-17.92-2.96-17.92c-2.65,0-10.78-2.39-10.78,3.13
		c0,7.39,1.04,7.39,1.04,14.78c0,7.39,0,7.39,0,14.79c0,7.39-0.52,7.39-0.52,14.78c0,7.39,0.44,7.39,0.44,14.79
		c0,4.75,5.51,2.52,9.83,2.52c1.65,0,3.57-0.87,3.57-2.52c0-7.39,0.09-7.39,0.09-14.79C131.41,248.83,130.62,248.83,130.62,241.44
		L130.62,241.44z M222.45,211.87c0-5.97-11.06-2.96-22.18-2.96c-9.48,0-9.48-0.17-18.96-0.17c-5.75,0-2.52,7.28-2.52,10.18
		c0,5.68,14.87-0.98,14.87,7.48l0.26,29.74c0,15.35-6.13,18.44,9.83,18.44c1.65,0,2.44-1.91,2.44-3.57c0-7.48,0.78-7.48,0.78-14.87
		c0-39.84-2.84-33.4,12.17-33.4C224.24,222.74,222.45,214.79,222.45,211.87L222.45,211.87z M282.19,241.44
		c0-7.39-0.43-7.39-0.43-14.79c0-6.97,1.95-18.61-2.7-18.61c-3.48,0-3.48,0.78-7.04,0.78c-9.31,0,4.89,28.79-7.39,28.79
		c-4.78,0-4.78-0.7-9.48-0.7c-2.43,0-5.13-1.83-5.13-4.26c0-29.07,1.89-23.05-9.31-23.05c-7.18,0-2.17,6.99-2.17,17.05
		c0,7.39-1.65,7.39-1.65,14.79c0,7.39,0.09,7.39,0.09,14.78c0,7.39,1.48,7.39,1.48,14.79c0,5.27,3.9,2.87,9.31,2.87
		c1.65,0,2.35-1.22,2.35-2.87c0-8.18,1.39-8.18,1.39-16.44c0-6.16,5.91-3.91,13.13-3.91c2.44,0,3.83,1.48,3.83,3.91
		c0,8.26,0,8.26,0,16.44c0,2.94,7.34,2.52,10.61,2.52c1.74,0,2.26-0.87,2.26-2.52c0-7.39,1.13-7.39,1.13-14.79
		C282.45,248.83,282.19,248.83,282.19,241.44L282.19,241.44z M311.74,241.44c0-7.39,0.09-7.39,0.09-14.79
		c0-9.21,2.83-17.92-2.96-17.92c-2.65,0-10.78-2.39-10.78,3.13c0,7.39,1.04,7.39,1.04,14.78c0,7.39,0,7.39,0,14.79
		c0,7.39-0.52,7.39-0.52,14.78c0,7.39,0.44,7.39,0.44,14.79c0,4.75,5.51,2.52,9.83,2.52c1.65,0,3.57-0.87,3.57-2.52
		c0-7.39,0.09-7.39,0.09-14.79C312.53,248.83,311.74,248.83,311.74,241.44L311.74,241.44z M372.7,226.66
		c0-11.91,2.08-17.31-3.57-17.31c-2.29,0-10.96-2.4-10.96,2.52c0,11.04,1.13,11.04,1.13,22.09c0,2.35-3.74,3.13-4.7,0.96
		c-2.52-5.91-1.91-6.09-4.44-12c-2.61-5.83-3.22-5.57-5.83-11.39c-1.9-4.55-4.28-3.39-12.18-3.39c-1.74,0-3.04,2.09-3.04,3.74
		l-0.52,29.57c0,7.39,0.7,7.39,0.7,14.78c0,7.6-3.29,18.44,2.87,18.44c3.48,0,3.48-0.96,7.04-0.96c1.65,0,2.96-1.04,2.96-2.7
		c0-10.78-0.35-10.78-0.35-21.57c0-2.35,3.39-2.96,4.35-0.78l10.96,22.53c0.7,1.57,1.48,2.96,3.22,2.96
		c5.77,0,11.39,2.72,11.39-3.13c0-7.39,1.04-7.39,1.04-14.79c0-7.39-0.7-7.39-0.7-14.78C372.09,234.05,372.7,234.05,372.7,226.66
		L372.7,226.66z M432.87,269.27c-4.61-7.04-4.43-7.22-9.04-14.26c-7.04-10.73-13.34-12.59-9.39-18.61
		c3.74-5.65,2.87-6.17,6.61-11.92c7.14-10.87,16.25-15.83-2.17-15.83c-6.54,0-6.47,7.12-13.83,18.7c-0.7,1.13-3.22,0.35-3.22-0.96
		c0-16.02,4.42-17.74-9.74-17.74c-5.9,0-3.04,8.82-3.04,18l0.35,29.57c0,10.29-2.27,17.48,2.7,17.48c5.17,0,9.31,2.36,9.31-2.7
		c0-4.35,0.96-8.7,1.22-13.05c0-1.22-0.52-3.74,0.52-4.7c1.13-0.87,2.96-0.09,3.65,0.96c16.93,25.65,11.1,20.09,23.48,20.09
		C432.7,274.32,434.17,271.36,432.87,269.27L432.87,269.27z M491.65,241.44c0-7.39,0.09-7.39,0.09-14.79
		c0-9.21,2.83-17.92-2.96-17.92c-2.65,0-10.78-2.39-10.78,3.13c0,7.39,1.04,7.39,1.04,14.78c0,7.39,0,7.39,0,14.79
		c0,7.39-0.52,7.39-0.52,14.78c0,7.39,0.44,7.39,0.44,14.79c0,4.75,5.51,2.52,9.83,2.52c1.65,0,3.57-0.87,3.57-2.52
		c0-7.39,0.09-7.39,0.09-14.79C492.43,248.83,491.65,248.83,491.65,241.44L491.65,241.44z M584.09,241.44
		c0-7.39-0.43-7.39-0.43-14.79c0-6.97,1.95-18.61-2.7-18.61c-3.48,0-3.48,0.78-7.04,0.78c-9.31,0,4.89,28.79-7.39,28.79
		c-4.78,0-4.78-0.7-9.48-0.7c-2.44,0-5.13-1.83-5.13-4.26c0-29.07,1.89-23.05-9.31-23.05c-7.18,0-2.17,6.99-2.17,17.05
		c0,7.39-1.65,7.39-1.65,14.79c0,7.39,0.09,7.39,0.09,14.78c0,7.39,1.48,7.39,1.48,14.79c0,5.27,3.9,2.87,9.31,2.87
		c1.65,0,2.35-1.22,2.35-2.87c0-8.18,1.39-8.18,1.39-16.44c0-6.16,5.91-3.91,13.13-3.91c2.44,0,3.83,1.48,3.83,3.91
		c0,8.26,0,8.26,0,16.44c0,2.94,7.34,2.52,10.61,2.52c1.74,0,2.26-0.87,2.26-2.52c0-7.39,1.13-7.39,1.13-14.79
		C584.35,248.83,584.09,248.83,584.09,241.44L584.09,241.44z M646.08,270.32c-2.09-7.22-1.04-7.57-3.04-14.79
		c-2.09-7.31-2-7.31-4-14.61c-2.09-7.31-3.22-6.96-5.31-14.26c-2.64-9.38-1.98-17.65-7.65-17.65c-11.38,0-9.4-5.03-15.74,17.48
		c-2.09,7.22-2.52,7.13-4.52,14.35l-6.87,29.48c-1.85,6.36,6.29,3.57,8.78,3.57c6.32,0,3.26-13.13,10.26-13.13
		c4.52,0,4.52,0.7,8.96,0.7c5.78,0,3.69,13.31,10.26,13.31c3.22,0,3.22-0.78,6.44-0.78C645.65,273.97,646.61,272.32,646.08,270.32
		L646.08,270.32z M618.95,248.4c1.48-5.31,0.7-5.57,2.26-10.87c0.35-1.3,2.7-1.39,3.04-0.17c1.48,5.39,0.44,5.65,2,11.04
		C626.95,250.92,617.38,254.05,618.95,248.4L618.95,248.4z M694.43,209.44c-12.9,0-8.28-3.69-14.35,17.74
		c-2.09,7.57-3.3,7.3-5.39,14.79c-0.61,2.17-2.18,2.17-2.78,0c-2.09-7.48-2.78-7.31-4.96-14.87c-5.1-18.1-0.43-18.18-14.78-18.18
		c-2,0-2.78,1.65-2.26,3.65l12.35,44.27c4.84,17.49-3.31,16.96,15.57,16.96c1.39,0,2.7-0.61,3.04-2c2.09-7.39,2.43-7.22,4.52-14.61
		c2.09-7.39,1.22-7.65,3.31-15.05l8.26-29.57C697.56,210.65,696.51,209.44,694.43,209.44L694.43,209.44z M742.16,260.66
		c-8.31,0-18.87,2.29-18.87-4.09c0-0.48-2.37-8.87,4.7-8.87c7.07,0,11.31,1.98,11.31-2.7c0-3.41,3.18-9.83-2.35-9.83
		c-4.52,0-4.52-0.96-8.96-0.96c-4.41,0-4.52-3.48-4.52-7.91c0-2.35,2.09-3.57,4.52-3.57c7.13,0,7.13-1.13,14.18-1.13
		c1.74,0,2.43-0.96,2.43-2.7c0-4.76,1.79-9.74-2.43-9.74c-7.13,0-7.13-0.52-14.35-0.52c-7.13,0-7.13,0.26-14.26,0.26
		c-5.04,0-2.35,8.56-2.35,17.74c0,7.39-1.48,7.39-1.48,14.79c0,7.39,0,7.39,0,14.78c0,7.48,0.78,7.48,0.78,14.87
		c0,5.6,8.53,2.52,17.31,2.52c19.15,0,17.22,2.07,17.22-9.65C745.03,262.31,743.9,260.66,742.16,260.66L742.16,260.66z"/>
	<path d="M288.78,342.12c-8.32,0-18.91,2.29-18.91-4.1c0-0.48-2.37-8.89,4.7-8.89c7.08,0,11.33,1.98,11.33-2.7
		c0-3.41,3.19-9.85-2.35-9.85c-4.53,0-4.53-0.96-8.97-0.96c-4.42,0-4.53-3.48-4.53-7.93c0-2.35,2.09-3.57,4.53-3.57
		c7.14,0,7.14-1.13,14.2-1.13c1.74,0,2.44-0.96,2.44-2.7c0-4.77,1.79-9.76-2.44-9.76c-7.14,0-7.14-0.52-14.38-0.52
		c-7.14,0-7.14,0.26-14.29,0.26c-5.05,0-2.35,8.58-2.35,17.77c0,7.41-1.48,7.41-1.48,14.81c0,7.41,0,7.41,0,14.81
		c0,7.49,0.78,7.49,0.78,14.9c0,5.61,8.54,2.53,17.34,2.53c19.18,0,17.25,2.08,17.25-9.67
		C291.65,343.78,290.52,342.12,288.78,342.12L288.78,342.12z M349.74,308.06c0-11.94,2.08-17.34-3.57-17.34
		c-2.29,0-10.98-2.41-10.98,2.53c0,11.07,1.13,11.07,1.13,22.13c0,2.35-3.75,3.14-4.7,0.96c-2.53-5.92-1.92-6.1-4.44-12.02
		c-2.61-5.84-3.22-5.58-5.84-11.41c-1.91-4.56-4.29-3.4-12.2-3.4c-1.74,0-3.05,2.09-3.05,3.75l-0.52,29.62
		c0,7.41,0.7,7.41,0.7,14.81c0,7.61-3.3,18.47,2.88,18.47c3.48,0,3.48-0.96,7.06-0.96c1.66,0,2.96-1.04,2.96-2.7
		c0-10.8-0.35-10.8-0.35-21.61c0-2.35,3.4-2.96,4.36-0.78l10.98,22.57c0.7,1.57,1.48,2.96,3.22,2.96c5.78,0,11.41,2.72,11.41-3.14
		c0-7.41,1.04-7.41,1.04-14.81c0-7.41-0.7-7.41-0.7-14.81C349.14,315.46,349.74,315.46,349.74,308.06L349.74,308.06z M410.54,301.96
		c-5.13-9.23-11.23-12.72-21.69-12.72c-10.23,0-17.2,3.28-22.3,12.37c-4.69,8.35-2.44,19.74-2.44,29.54
		c0,10.39,3.35,16.69,12.2,22.04c9.71,5.87,16.02,4.75,24.74-0.52c9.42-5.7,12.46-9.08,12.46-21.52
		C413.5,318.08,417.83,315.03,410.54,301.96L410.54,301.96z M388.84,342.91c-6.45,0-11.24-4.97-11.24-11.76
		c0-8.28-0.35-8.28-0.35-16.47c0-16.47,22.73-17.27,23,0c0.26,8.19,0.61,8.19,0.61,16.47C400.87,337.94,395.2,342.91,388.84,342.91
		L388.84,342.91z M477.69,293.25c0-6-5.62-3.48-10.02-3.48c-6.35,0-3.4,11.1-3.4,22.39c0,9.5,0.96,9.5,0.96,18.99
		c0,15.91-23.35,18.12-23.35,0c0-9.5,0.26-9.5,0.26-18.99c0-9.41-0.52-9.41-0.52-18.91c0-1.65-1.66-2.44-3.31-2.44
		c-3.75,0-3.75-1.31-7.41-1.31c-1.74,0-3.57,2.09-3.57,3.75c0,9.5-0.09,9.5-0.09,18.91c0,9.5,0.87,9.5,0.87,18.99
		c0,11.94,2.56,15.93,12.37,21.87c10.42,6.3,14.68,6.11,24.92-0.09c7.19-4.35,11.85-13.03,11.85-21.78c0-9.5,0.87-9.5,0.87-18.99
		C478.13,302.74,477.69,302.74,477.69,293.25L477.69,293.25z M546.76,340.99c-2.18-1.22-4.01-4.09-4.01-14.2
		c0-6.44,7.87-7.49-21.96-7.49c-1.66,0-2.44,1.13-2.44,2.79c0,7.13-4.97,10.72,8.19,10.72c6.63,0-0.07,11.24-8.8,11.24
		c-6.36,0-11.33-6.1-11.33-12.89c0-8.28-0.52-8.28-0.52-16.47c0-12.88,15.76-17.42,22.3-7.23c2.05,3.2,3.58,0.76,9.76-1.48
		c6.37-2.31-4.55-11.45-7.49-13.24c-7.03-4.29-19.12-4.49-25.53-0.61c-7.64,4.62-12.11,13.54-12.11,22.57
		c0,16.13-5.58,27.14,12.63,38.16c9.11,5.51,20.5,4.62,28.49-2.09c2.94-2.47,3.57,0.52,8.71,2.61c5.44,2.22,4.22-4.14,5.23-8.89
		C548.15,343.26,547.89,341.6,546.76,340.99L546.76,340.99z M605.46,322.87c0-7.41-0.44-7.41-0.44-14.81
		c0-6.99,1.95-18.65-2.7-18.65c-3.49,0-3.49,0.78-7.06,0.78c-9.32,0,4.9,28.84-7.41,28.84c-4.79,0-4.79-0.7-9.5-0.7
		c-2.44,0-5.14-1.83-5.14-4.27c0-29.12,1.89-23.09-9.32-23.09c-7.19,0-2.18,7-2.18,17.08c0,7.41-1.66,7.41-1.66,14.81
		c0,7.41,0.09,7.41,0.09,14.81c0,7.41,1.48,7.41,1.48,14.81c0,5.28,3.9,2.87,9.32,2.87c1.66,0,2.35-1.22,2.35-2.87
		c0-8.19,1.39-8.19,1.39-16.47c0-6.17,5.92-3.92,13.16-3.92c2.44,0,3.83,1.48,3.83,3.92c0,8.28,0,8.28,0,16.47
		c0,2.94,7.35,2.53,10.63,2.53c1.74,0,2.27-0.87,2.27-2.53c0-7.41,1.13-7.41,1.13-14.81C605.72,330.28,605.46,330.28,605.46,322.87
		L605.46,322.87z"/>
	<path d="M83.01,429v24.47h-7.47v-39.19h19.29c4.34,0,6.22,3.22,6.22,7.47C94.09,421.74,83.01,419.76,83.01,429L83.01,429z
		 M149.06,446.16c0-11.05,0.89-27.85-1.66-37.8c11.48,15.77,8.97,32.19,8.97,52.52c0,26.58-21.24,47.85-47.85,47.85H90.27
		c-4.06,0-7.26,3.22-7.26,7.31v72.43c0,4.09-3.42,7.31-7.47,7.31H57.03c-4.1,0-7.31-3.21-7.31-7.31c8.91,0,16.02,1.35,21.57-4.3
		c2.85-2.9,4.25-6.38,4.25-10.42v-72.43c16.86,0,30.89,1.6,46.09-7.47C138.61,483.74,149.06,466.27,149.06,446.16L149.06,446.16z
		 M42.31,581.07c-4.17,0-7.31-3.3-7.31-7.31V380.99c0-4,3.13-7.26,7.31-7.26h51.64c26.61,0,47.8,21.21,47.8,47.85
		c0,23.6,3.06,41.47-14.05,58.48c-26.32,26.17-59.47,4.02-59.47,21.26v72.43c0,4.09-3.2,7.31-7.26,7.31H42.31L42.31,581.07z
		 M68.23,414.28v39.19c0,4.08,3.23,7.31,7.31,7.31h19.29c7.42,0,13.69-5.91,13.69-13.69v-26.44c0-7.78-6.26-13.69-13.69-13.69H75.54
		C71.46,406.97,68.23,410.2,68.23,414.28L68.23,414.28z M290.5,562.51c3.55,0,6.47,2.46,7.16,5.79l33.28-188.49
		c0.71-3.52,3.54-6.07,7.26-6.07h21c3.71,0,6.59,2.49,7.26,6.07l34.06,192.61c0.63,4.41-2.56,8.66-7.15,8.66
		c-30.47,0-23.21,4.65-30.54-34.01c-0.71-3.46-3.71-6.12-7.31-6.12c-23.85,0-19.19-3.93-25.82,34.06c-0.72,3.59-3.58,6.07-7.26,6.07
		h-18.41c-2.63,0-4.96-1.38-6.22-3.52v10.94c0,4.13-3.27,7.31-7.31,7.31h-92.03c-4.1,0-7.31-3.21-7.31-7.31h84.61
		c8.26,0,14.72-6.59,14.72-14.72V562.51L290.5,562.51z M224.44,540.52h-7.47V388.46c4.04,0,7.47,3.22,7.47,7.31V540.52
		L224.44,540.52z M183.75,581.07c-4.17,0-7.31-3.3-7.31-7.31V380.99c0-4,3.13-7.26,7.31-7.26h18.67c4.05,0,7.26,3.21,7.26,7.26
		v159.53c0,4.06,3.22,7.26,7.31,7.26h58.79c4.08,0,7.41,3.38,7.41,7.47v18.51c0,4.11-3.34,7.31-7.41,7.31H183.75L183.75,581.07z
		 M404.61,583.19c2.8-3.58,3.89-7.57,3.16-12.03l-32.35-182.55c3.06,0.83,4.93,2.8,5.65,5.91l34.17,192.61
		c0.69,4.43-2.49,8.66-7.31,8.66h-18.2c-5.32,0-6.69-3.59-7.62-7.31C391.89,588.48,398.54,589.96,404.61,583.19L404.61,583.19z
		 M344.47,589.72c-0.82,3.59-3.6,6.07-7.31,6.07h-18.41c-4.02,0-7.26-3.17-7.26-7.31c9.02,0,22.63,2.01,25.35-12.13l5.03-27.95
		h13.64l1.4,7.31c-3.98,0-6.87,2.34-7.62,6.07L344.47,589.72L344.47,589.72z M348.72,507.7c3.92,0,6.56-3.1,5.91-7
		c-5.38-32.32-6.49-32.32-11.87,0C342.11,504.61,344.73,507.7,348.72,507.7L348.72,507.7z M518.36,588.48
		c9.9,0,18.44,1.57,24.26-4.3c2.85-2.9,4.3-6.38,4.3-10.42v-185.3c4.04,0,7.31,3.18,7.31,7.31v192.71c0,4.13-3.27,7.31-7.31,7.31
		h-20.79C521.28,595.79,519.79,592.22,518.36,588.48L518.36,588.48z M498.92,439.63v4.72l-19.44-54.85
		c1.45,0.93,2.44,2.18,3.06,3.84L498.92,439.63L498.92,439.63z M480.88,588.48c0,4.09-3.42,7.31-7.47,7.31H454.9
		c-4.1,0-7.31-3.21-7.31-7.31c8.91,0,16.02,1.35,21.57-4.3c2.85-2.9,4.25-6.38,4.25-10.42V510.4l7.47,20.69V588.48L480.88,588.48z
		 M466.1,573.76c0,4.09-3.2,7.31-7.26,7.31h-18.67c-4.17,0-7.31-3.3-7.31-7.31V380.99c0-4,3.13-7.26,7.31-7.26h20.79
		c3.11,0,5.39,1.61,6.84,4.82l34.17,96.49c2.38,6.68,4.41,6.36,4.41-0.78v-93.27c0-3.99,3.14-7.26,7.26-7.26h18.56
		c4.05,0,7.41,3.14,7.41,7.26v192.76c0,4.11-3.34,7.31-7.41,7.31h-20.69c-3.11,0-5.44-1.61-6.95-4.87l-34.22-96.43
		c-2.36-6.67-4.25-6.44-4.25,0.73V573.76L466.1,573.76z M687.9,388.46c4.05,0,7.31,3.27,7.31,7.31c0,29.75,3.48,25.98-29.35,25.98
		c-4.09,0-7.31,3.2-7.31,7.26v159.48c0,4.16-3.37,7.31-7.41,7.31h-18.56c-4.07,0-7.26-3.25-7.26-7.31c8.88,0,15.88,1.33,21.46-4.3
		c2.9-2.9,4.35-6.38,4.35-10.42V414.28h22.03c8.11,0,14.72-6.44,14.72-14.57V388.46L687.9,388.46z M595.82,421.74
		c-4,0-7.26-3.36-7.26-7.47h14.57v7.47H595.82L595.82,421.74z M581.09,406.97c-4.05,0-7.26-3.21-7.26-7.26v-18.72
		c0-4.05,3.21-7.26,7.26-7.26h92.08c4.03,0,7.41,3.14,7.41,7.26c0,29.7,3.76,25.98-29.45,25.98c-4.08,0-7.31,3.23-7.31,7.31v159.48
		c0,4.14-3.4,7.31-7.41,7.31h-18.56c-4.06,0-7.26-3.22-7.26-7.31V414.28c0-4.02-3.37-7.31-7.47-7.31H581.09L581.09,406.97z
		 M764.11,588.48c37.42,0,64.29-35.51,53.04-73.67c22.79,33.72,4.17,80.98-38.42,80.98c-14.78,0-25.18,0.67-38.42-8.97
		C748.2,588.94,755.98,588.48,764.11,588.48L764.11,588.48z M767.17,421.74c-9.74,0-14.56,7.96-13.22,18.35
		c-7.95-9.69-11.65-25.82-1.35-25.82c11.23,0,19.13-2.17,19.13,7.47H767.17L767.17,421.74z M805.02,444.5
		c8.11,0,14.72-6.44,14.72-14.57c0-7.88,0.34-13.74-1.66-21.57c9.05,12.43,8.92,22.26,8.92,36.14c0,4.11-3.26,7.47-7.26,7.47h-18.56
		c-3.96,0-7.41-3.3-7.41-7.47H805.02L805.02,444.5z M753.64,540.52c-6.14,0-7.41-3.27-7.41-8.24
		C750.74,532.28,753.64,535.55,753.64,540.52L753.64,540.52z M764.11,581.07c-17.43,0-29.9,0.4-44.38-14
		c-13.64-13.56-14.05-25.49-14.05-42.2c0-4.09,3.2-7.31,7.26-7.31c26.5,0,25.98-2.46,25.98,16.69c0,7.59,6.17,13.53,13.69,13.53
		c9.24,0,17,1.45,22.4-3.89c9.16-9.07,1.39-26.02-5.7-34.37c-23.49-27.67-64.07-46.47-63.62-88.4
		c0.28-26.17,21.39-47.39,48.27-47.39c17.32,0,29.99-0.38,44.43,13.95c13.62,13.5,14.05,25.65,14.05,42.25
		c0,4.12-3.39,7.26-7.41,7.26c-26.36,0-25.82,2.44-25.82-16.54c0-7.77-6.26-13.69-13.69-13.69c-9.15,0-17.07-1.44-22.5,3.89
		c-9.09,8.91-1.19,26.25,5.7,34.43c23.07,27.39,64.3,46.82,63.72,88.4C812.07,559.5,791.12,581.07,764.11,581.07L764.11,581.07z"/>
	<path d="M117.07,636.41c-5.55-5.14-13.77-5.15-13.77-10.22c0-4.14,6.67-6.19,8.47-0.9c0.96,2.81,4.81,0.79,7,0.79
		c4.01,0-0.55-8.47-2.31-9.93c-3.17-2.63-21.45-6.98-21.45,10.39c0,13.35,17.72,12.5,17.72,18.06c0,3.82-7.75,5.58-9.2,1.02
		c-0.36-1.12-9.99-2.95-9.26,1.07c2.65,14.55,26.42,14.76,26.42-2.43C120.68,640.58,119.16,638.38,117.07,636.41L117.07,636.41z
		 M156.67,654.13c-1.35-4.68-0.68-4.91-1.98-9.6c-1.35-4.74-1.3-4.74-2.6-9.48c-1.35-4.74-2.09-4.52-3.44-9.26
		c-2.73-9.71,0.2-11.8-9.65-11.8c-3.19,0-4.13,6.72-5.53,11.68c-1.35,4.68-1.64,4.63-2.94,9.31c-6.81,26.71-5.3,21.45,1.24,21.45
		c4.11,0,2.12-8.52,6.66-8.52c2.93,0,2.93,0.45,5.81,0.45c3.75,0,2.39,8.64,6.66,8.64c2.09,0,2.09-0.51,4.18-0.51
		C156.39,656.5,157.01,655.43,156.67,654.13L156.67,654.13z M139.06,639.91c0.96-3.44,0.45-3.61,1.47-7.06
		c0.23-0.85,1.75-0.9,1.98-0.11c0.96,3.5,0.28,3.67,1.3,7.17C144.25,641.54,138.04,643.58,139.06,639.91L139.06,639.91z
		 M172.22,635.39l0.45-19.19c0-2.64-9.31-3.82-9.31,0c0,4.8,0.68,4.8,0.68,9.6l-0.34,19.19c0,14.77,0.19,11.23,6.66,11.23
		c3.38,0,2.37-3.62,2.37-11.23C172.73,640.19,172.22,640.19,172.22,635.39L172.22,635.39z M211.32,630.09
		c0-6.38-5.83-17.22-16.31-17.22c-6.15,0-6.15,0.62-12.25,0.62c-3.27,0-1.58,5.25-1.58,11.85c0,5.02-0.85,5.02-0.85,10.05
		l0.23,20.09c0,1.07,1.07,1.69,2.2,1.69c8.33,0,13.7,1.99,20.43-2.03C213.46,649.01,211.32,641.67,211.32,630.09L211.32,630.09z
		 M202.06,640.75c0,9.69-13.21,10-13.21,5.14c0-5.25,0.85-5.25,0.85-10.5c0-9.46-1.63-12.47,2.65-13.21
		C204.87,620.04,202.06,633.09,202.06,640.75L202.06,640.75z M266.94,625.8c0-7.73,1.35-11.23-2.31-11.23
		c-1.48,0-7.11-1.56-7.11,1.64c0,7.17,0.73,7.17,0.73,14.34c0,1.52-2.43,2.03-3.05,0.62c-1-2.31-6.04-17.38-9.03-17.38
		c-8.64,0-7.56-1.67-7.56,12.02c0,4.8-0.28,4.8-0.28,9.6c0,4.8,0.45,4.8,0.45,9.6c0,4.93-2.14,11.97,1.86,11.97
		c8.88,0,6.27-1.92,6.27-16.37c0-1.52,2.2-1.92,2.82-0.51c1.06,2.46,6.91,16.54,9.2,16.54c3.74,0,7.4,1.76,7.4-2.03
		c0-4.8,0.68-4.8,0.68-9.6s-0.45-4.8-0.45-9.6C266.55,630.59,266.94,630.59,266.94,625.8L266.94,625.8z M304.85,621.84
		c-5.61-10.1-17.27-9.6-22.46-6.49c-10.34,6.18-7.62,16.38-7.62,25.4c0,10.85,8.63,16.82,16.03,16.82c4.25,0,12.35-4.8,14.34-8.41
		c1.35-2.48,1.64-5.42,1.64-8.41C306.77,632.29,309.58,630.31,304.85,621.84L304.85,621.84z M290.8,648.37
		c-8.67,0-7.51-10.28-7.51-18.29c0-10.67,14.72-11.19,14.9,0C298.29,636.14,301.08,648.37,290.8,648.37L290.8,648.37z
		 M369.51,647.13c-4.1-2.3-2.03-11.9-2.03-12.25c0-1.07-1.35-1.52-2.43-1.52c-8.33,0-13.94-1.7-13.94,1.52
		c0,4.62-3.22,6.94,5.31,6.94c4.3,0-0.05,7.28-5.7,7.28c-8.48,0-7.68-11.84-7.68-19.02c0-8.34,10.22-11.29,14.45-4.69
		c1.33,2.07,2.32,0.49,6.32-0.96c4.17-1.51-3.42-10.72-13.09-10.72c-10.49,0-16.14,7.44-16.14,16.37c0,10.43-3.62,17.58,8.18,24.72
		c11.64,7.04,18.76-3.44,20.71-1.69C371.47,660.26,370.87,647.86,369.51,647.13L369.51,647.13z M406.91,654.13
		c-1.35-4.68-0.68-4.91-1.98-9.6c-1.35-4.74-1.3-4.74-2.6-9.48c-1.35-4.74-2.09-4.52-3.44-9.26c-2.73-9.71,0.2-11.8-9.65-11.8
		c-3.19,0-4.13,6.72-5.53,11.68c-1.35,4.68-1.64,4.63-2.94,9.31c-6.81,26.71-5.3,21.45,1.24,21.45c4.11,0,2.12-8.52,6.66-8.52
		c2.94,0,2.94,0.45,5.81,0.45c3.75,0,2.39,8.64,6.66,8.64c2.09,0,2.09-0.51,4.18-0.51C406.63,656.5,407.25,655.43,406.91,654.13
		L406.91,654.13z M389.3,639.91c0.96-3.44,0.45-3.61,1.47-7.06c0.22-0.85,1.75-0.9,1.98-0.11c0.96,3.5,0.28,3.67,1.3,7.17
		C394.49,641.54,388.28,643.58,389.3,639.91L389.3,639.91z M443.69,649.84c0-1.02-0.28-2.09-1.24-2.2c-3.5-0.45-4.35-4.46-3.84-7.79
		c0.79-4.63,4.4-8.07,4.23-13.09c-0.17-7.06-7.23-13.77-14.28-13.77c-6.43,0-6.43,0.62-12.81,0.62c-4.17,0-1.69,14.59-1.69,21.34
		c0,25.93-2.42,21.73,6.27,21.73c6.57,0-2.57-13.94,4.8-13.94c8.26,0,4.16,3.08,6.55,7.51c2.73,5.06,12.13,9.42,12.13,4.4
		C443.8,652.21,443.69,652.21,443.69,649.84L443.69,649.84z M433.64,628.5c-1.67,7.66-6.48,5.25-8.52,5.25
		c-3.35,0-2.94-4.53-2.94-8.8C422.18,618.91,434.82,621.87,433.64,628.5L433.64,628.5z M481.42,630.09
		c0-6.38-5.83-17.22-16.31-17.22c-6.15,0-6.15,0.62-12.25,0.62c-3.26,0-1.58,5.25-1.58,11.85c0,5.02-0.85,5.02-0.85,10.05
		l0.23,20.09c0,1.07,1.07,1.69,2.2,1.69c8.33,0,13.7,1.99,20.43-2.03C483.57,649.01,481.42,641.67,481.42,630.09L481.42,630.09z
		 M472.17,640.75c0,9.69-13.21,10-13.21,5.14c0-5.25,0.85-5.25,0.85-10.5c0-9.46-1.63-12.47,2.65-13.21
		C474.98,620.04,472.17,633.09,472.17,640.75L472.17,640.75z M509.62,647.87c-8.11,0-12.59,2.27-12.59-5.36
		c0-4.2,6.73-2.82,9.2-2.82c1.92,0,2.14-5.79,2.14-6.55c0-3.88-10.72-0.16-10.72-4.85c0-1.72-1.14-5.02,2.77-5.02
		c4.63,0,4.63-0.73,9.2-0.73c2.13,0,3.25-8.07,0-8.07c-24.36,0-20.09-4.08-20.09,11.35c0,4.8-0.96,4.8-0.96,9.6
		c0,27.41-0.46,20.89,11.74,20.89c12.42,0,11.18,1.35,11.18-6.27C511.48,648.94,510.75,647.87,509.62,647.87L509.62,647.87z
		 M547.64,625.8c0-7.73,1.35-11.23-2.31-11.23c-1.48,0-7.11-1.56-7.11,1.64c0,7.17,0.73,7.17,0.73,14.34c0,1.52-2.43,2.03-3.05,0.62
		c-1-2.31-6.04-17.38-9.03-17.38c-8.64,0-7.56-1.67-7.56,12.02c0,4.8-0.28,4.8-0.28,9.6c0,4.8,0.45,4.8,0.45,9.6
		c0,4.93-2.14,11.97,1.86,11.97c8.88,0,6.27-1.92,6.27-16.37c0-1.52,2.2-1.92,2.82-0.51c1.06,2.46,6.91,16.54,9.2,16.54
		c3.74,0,7.4,1.76,7.4-2.03c0-4.8,0.68-4.8,0.68-9.6s-0.45-4.8-0.45-9.6C547.24,630.59,547.64,630.59,547.64,625.8L547.64,625.8z
		 M576.17,647.87c-8.11,0-12.59,2.27-12.59-5.36c0-4.2,6.73-2.82,9.2-2.82c1.92,0,2.14-5.79,2.14-6.55c0-3.88-10.72-0.16-10.72-4.85
		c0-1.72-1.14-5.02,2.77-5.02c4.63,0,4.63-0.73,9.2-0.73c2.13,0,3.25-8.07,0-8.07c-24.36,0-20.09-4.08-20.09,11.35
		c0,4.8-0.96,4.8-0.96,9.6c0,27.41-0.46,20.89,11.74,20.89c12.42,0,11.18,1.35,11.18-6.27C578.04,648.94,577.3,647.87,576.17,647.87
		L576.17,647.87z M615.55,649.84c0-1.02-0.28-2.09-1.24-2.2c-3.5-0.45-4.35-4.46-3.84-7.79c0.79-4.63,4.4-8.07,4.23-13.09
		c-0.17-7.06-7.23-13.77-14.28-13.77c-6.43,0-6.43,0.62-12.81,0.62c-4.17,0-1.69,14.59-1.69,21.34c0,25.93-2.42,21.73,6.27,21.73
		c6.57,0-2.57-13.94,4.8-13.94c8.26,0,4.16,3.08,6.55,7.51c2.73,5.06,12.14,9.42,12.14,4.4
		C615.66,652.21,615.55,652.21,615.55,649.84L615.55,649.84z M605.5,628.5c-1.67,7.66-6.48,5.25-8.52,5.25
		c-3.35,0-2.94-4.53-2.94-8.8C594.04,618.91,606.68,621.87,605.5,628.5L605.5,628.5z M663.11,647.87c-8.11,0-12.59,2.27-12.59-5.36
		c0-4.2,6.73-2.82,9.2-2.82c1.92,0,2.14-5.79,2.14-6.55c0-3.88-10.72-0.16-10.72-4.85c0-1.72-1.14-5.02,2.77-5.02
		c4.63,0,4.63-0.73,9.2-0.73c2.13,0,3.24-8.07,0-8.07c-24.37,0-20.1-4.08-20.1,11.35c0,4.8-0.96,4.8-0.96,9.6
		c0,27.41-0.46,20.89,11.74,20.89c12.42,0,11.18,1.35,11.18-6.27C664.97,648.94,664.23,647.87,663.11,647.87L663.11,647.87z
		 M700.22,614.62c-8.37,0-5.38-2.39-9.31,11.51c-1.35,4.91-2.15,4.74-3.5,9.6c-1.74,6.21-7.21-18.88-7.39-19.53
		c-0.64-2.27-9.76-3.47-8.69,0.45l8.02,28.73c3.14,11.35-2.15,11.01,10.1,11.01c0.9,0,1.75-0.4,1.98-1.3
		c1.35-4.8,1.58-4.68,2.94-9.48c1.35-4.8,0.79-4.97,2.15-9.76l5.36-19.19C702.25,615.41,701.57,614.62,700.22,614.62L700.22,614.62z
		 M728.47,647.87c-8.11,0-12.59,2.27-12.59-5.36c0-4.2,6.73-2.82,9.2-2.82c1.92,0,2.14-5.79,2.14-6.55c0-3.88-10.72-0.16-10.72-4.85
		c0-1.72-1.14-5.02,2.77-5.02c4.63,0,4.63-0.73,9.2-0.73c2.13,0,3.24-8.07,0-8.07c-24.36,0-20.09-4.08-20.09,11.35
		c0,4.8-0.96,4.8-0.96,9.6c0,27.41-0.46,20.89,11.74,20.89c12.42,0,11.18,1.35,11.18-6.27C730.34,648.94,729.6,647.87,728.47,647.87
		L728.47,647.87z M767.85,649.84c0-1.02-0.28-2.09-1.24-2.2c-3.5-0.45-4.35-4.46-3.84-7.79c0.79-4.63,4.4-8.07,4.23-13.09
		c-0.17-7.06-7.23-13.77-14.28-13.77c-6.43,0-6.43,0.62-12.81,0.62c-4.17,0-1.69,14.59-1.69,21.34c0,25.93-2.42,21.73,6.27,21.73
		c6.57,0-2.57-13.94,4.8-13.94c8.26,0,4.16,3.08,6.55,7.51c2.73,5.06,12.13,9.42,12.13,4.4
		C767.96,652.21,767.85,652.21,767.85,649.84L767.85,649.84z M757.8,628.5c-1.66,7.66-6.48,5.25-8.52,5.25
		c-3.35,0-2.93-4.53-2.93-8.8C746.34,618.91,758.98,621.87,757.8,628.5L757.8,628.5z"/>
</g>
</svg>
