<?xml version="1.0" encoding="utf-8"?>
<!-- Generator: Adobe Illustrator 25.0.0, SVG Export Plug-In . SVG Version: 6.00 Build 0)  -->
<svg version="1.1" id="Layer_1" xmlns="http://www.w3.org/2000/svg" xmlns:xlink="http://www.w3.org/1999/xlink" x="0px" y="0px"
	 viewBox="0 0 864 864" style="enable-background:new 0 0 864 864;" xml:space="preserve">
<g>
	<path d="M103.97,602.3c9.75-11.91,10.07-33.73-0.92-48.71c-17.7-24.13-61.18-31.77-61.18-57.02c0-26.41,51.51-19.69,45.48,20.55
		h6.46c2.72-6.43,6.01-18.92,4.39-23.78c6.47-5.97,7.39-10.36,7.39-19.62h-6.23c0,16.97-18.34,5.31-25.85,2.54
		c-32.82-12.09-67.98,17.8-47.56,51.02c16.34,26.59,63.25,33.39,63.25,61.41c0,20.38-30.13,31.16-51.48,5.54
		c-5.57-6.69-10.52-17.1-11.08-24.93h-7.85c0,11.1,1.36,18.86,6.23,28.63c-5.24,5.24-6.23,10.52-6.23,18.47h6.23
		c0-16.75,17.22-5.81,26.09-2.54C65.74,619.24,92.37,617.47,103.97,602.3L103.97,602.3z M140.34,498.18v93.73
		c0,9.82-7.41,17.32-17.31,17.32v7.16c8.53,0,25.31-0.84,31.63-7.16c6.31,6.31,23.1,7.16,31.63,7.16v-7.16
		c-9.64,0-17.31-7.68-17.31-17.32v-93.73c0-19.94,23.98-17.8,24.7-17.08c8.89,0,16.71,13.42,18.93,22.85
		c4.8,20.39-3.65,48.25-21.24,48.25c-4.54,0-16.16-1.01-16.16,9.47c0,1.38,0.23,2.54,0.69,3.69c5.66-13.21,26.55,1.71,48.71-15.24
		c35.67-27.27,13.77-76.41-29.09-76.41c-10.72,0-32.69-1.02-40.86,7.16c-6.31-6.31-23.11-7.16-31.63-7.16v7.16
		C132.94,480.87,140.34,488.36,140.34,498.18L140.34,498.18z M322.39,616.38c56.72,0,83.34-76.44,45.48-120.97
		c-39-45.87-108.5-14.77-108.5,49.64C259.36,581.36,284.74,616.38,322.39,616.38L322.39,616.38z M287.99,545.28
		c0-59.65,38.58-84.72,58.87-45.71c21.92,42.15,5.68,109.66-24.47,109.66C297.79,609.23,287.99,567.77,287.99,545.28L287.99,545.28z
		 M448.33,616.38v-7.16c-9.64,0-17.31-7.68-17.31-17.32v-93.73c0-9.64,7.67-17.31,17.31-17.31v-7.16c-8.52,0-25.32,0.85-31.63,7.16
		c-6.31-6.31-23.11-7.16-31.63-7.16v7.16c9.91,0,17.31,7.49,17.31,17.31v93.73c0,9.82-7.41,17.32-17.31,17.32v7.16
		c8.53,0,25.31-0.84,31.63-7.16C423.02,615.54,439.81,616.38,448.33,616.38L448.33,616.38z M468.09,609.23v7.16h106.66v-50.33h-6.93
		c0,15.82-4.25,28.07-15.24,36.47c-11.26,8.61-25.05,6.7-38.55,6.7V498.18c0-9.8,7.79-17.31,17.54-17.31v-7.16
		c-8.64,0-25.23,0.76-31.63,7.16h-0.23c-6.31-6.31-23.11-7.16-31.63-7.16v7.16c9.91,0,17.31,7.49,17.31,17.31v93.73
		C485.4,601.52,477.76,609.23,468.09,609.23L468.09,609.23z M593.8,609.23v7.16h106.66v-50.33h-6.93c0,15.82-4.25,28.07-15.24,36.47
		c-11.26,8.61-25.05,6.7-38.55,6.7v-60.49c12.22,0,35.55-3.67,35.55,17.08h7.16c0-7.5-2.14-17.97-6.7-24.47
		c4.48-7.03,6.7-16.39,6.7-24.47h-7.16c0,9.8-7.79,17.32-17.54,17.32v0.23h-18.01v-53.56c27.44,0,42.43-3.65,53.79,20.32h6.93
		v-27.47H593.8v7.16c9.91,0,17.31,7.61,17.31,17.31v93.73C611.12,601.52,603.48,609.23,593.8,609.23L593.8,609.23z M782.77,616.38
		c56.72,0,83.34-76.44,45.48-120.97c-16.67-19.6-37.35-24.28-61.64-20.55c-5.29,0.81-11.79,2.32-15.47,6
		c-6.31-6.31-23.11-7.16-31.63-7.16v7.16c9.91,0,17.31,7.49,17.31,17.31v93.73c0,9.82-7.41,17.32-17.31,17.32v7.16
		c8.53,0,25.31-0.84,31.63-7.16C757.46,615.54,774.25,616.38,782.77,616.38L782.77,616.38z M782.77,480.87
		c11.09,0,21.23,12.53,22.86,15.77c8.6,17,11.77,28.61,11.77,48.41c0,30.8-11.54,47.9-11.54,48.02
		c-2.78,2.78-10.56,16.91-24.93,16.16c-8.02-0.42-15.47-8.04-15.47-17.32v-93.73C765.46,488.27,773.73,480.87,782.77,480.87
		L782.77,480.87z"/>
	<path d="M104.42,686.46c-0.14,0.02-0.28,0.05-0.42,0.09c-10.81,3.33-22.44,3.26-29.15,1.51c-3.41-0.83-6.24-1.73-8.61-2.63
		c-1.44-0.47-2.77-0.9-3.81-1.18c-2.15-0.47-4.23,0.57-4.85,2.7c-0.54,2.29,0.76,4.02,2.77,4.87c3.33,1.58,3.26,6.36,1.94,10.17
		c-1.94,5.2-5.6,8.39-8.3,9.76c-1.32,0.71-2.08,0.97-2.29,0.78c-1.04-4.52,1.25-14.35,3.95-23.08c1.32-4.37,2.44-7.61,3.19-9.84
		c1.37-2.98,5.67-12.89,10.12-23.62c3.24-8.04,7.87-19.39,8.02-21.33c-0.19-1.89-1.11-3.12-2.84-3.76
		c-1.73-0.47-3.45,0.35-4.35,1.82c-2.58,4.35-10.95,23.67-18.16,44.27c-3.59,10.31-6.03,19.18-7.28,26.67
		c-1.87,13.64,2.44,17.59,9.01,16.41c5.06-0.9,11.38-5.82,15.11-13.1c1.87-3.59,2.55-7.61,2.22-11.99
		c10.13,2.79,21.41,2.42,30.37,0.31c-2.12,6.09-4.05,12.77-4.27,16.74c0.21,4.45,4.02,6.72,8.54,3.95c3.52-2.29,7.47-7,11.7-12.27
		c2.27-2.84,4.71-5.67,7.12-8.37c-0.47,5.06-1.94,11.78-3.31,16.77c-18.49,14.61-33.53,33.32-39.84,46.63
		c-3.95,8.58-3.88,15.44,1.47,16.84c2.27,0.54,4.85,0.12,7.69-1.32c10.88-5.89,21.26-20.31,28.97-36.15
		c3.81-7.97,6.72-15.39,8.73-22.32c10.81-8.11,22.79-14.47,35.87-18.99c1.87-0.62,2.98-2.41,2.51-4.35
		c-0.57-1.87-2.44-3.05-4.37-2.51c-11.16,3.76-21.61,8.87-31.45,15.39c0.9-4.63,2.08-11.99,1.18-16.48
		c-0.9-3.55-4.09-5.06-7.42-3.41c-2.84,1.66-6.43,5.82-10.81,11.02c-2.27,2.84-4.71,5.67-7.4,8.65c1.87-6.64,4.71-15.18,5.53-17.31
		c0.57-1.75-0.47-3.55-2.08-4.16c-1.58-0.64-3.59-0.21-4.35,1.37C104.84,685.46,104.63,685.95,104.42,686.46L104.42,686.46z
		 M85.36,768.22c1.44-10.05,16.62-29.79,31.38-43.37c-4.63,12.39-12.2,25.77-20.17,34.85C92.62,764.2,88.89,767.04,85.36,768.22
		L85.36,768.22z M282.08,691.56c-0.12,0.08-0.23,0.17-0.34,0.26c-5.89,5.53-14.33,12.74-22.08,15.3c-5.49,1.65-9.36,0.54-11.3-4.71
		c-0.54-1.61-1.04-3.33-1.37-5.06c-0.78-3.4-1.68-6.86-3.9-9.55c-1.94-2.15-4.35-2.84-7.19-2.15c-5.2,1.73-11.44,8.94-15.11,13.71
		c-0.14,0.14-0.28,0.28-0.36,0.4c0.71-3.67,1.11-6.43,1.18-8.3c0.07-1.87-0.26-3.4-0.9-4.45c-1.65-2.48-4.56-2.62-7-1.23
		c-3.95,2.7-9.13,9.41-12.18,13.64c1.37-4.71,2.84-9.43,4.35-14.07c0.57-1.94-0.54-3.74-2.41-4.3c-1.94-0.54-3.69,0.57-4.3,2.44
		c-3.88,11.16-7.28,22.51-10.12,34c-0.83,4.09,4.09,6.03,6.6,2.72c0.76-1.11,1.66-2.37,2.55-3.74c4.78-7.21,11.09-16.22,16.01-21.68
		c-0.5,2.77-0.9,4.97-1.25,6.64c-0.61,3.05-0.9,4.78-0.9,6.64c0,2.29,1.39,5.06,4.23,4.92c1.37-0.07,3.12-1.25,5.25-3.52
		c0.9-1.04,1.94-2.22,3.12-3.69c4.45-5.53,9.91-11.85,13.03-13c0.76,1.44,1.39,3.45,1.94,5.96c0.43,2.06,1.04,4.14,1.8,6.29
		c2.62,7.42,7.9,10.74,15.79,10.12c7.07-0.81,13.63-4.54,20.46-9.9c-0.66,2.61-1.11,4.97-1.21,6.78c0.21,4.45,4.02,6.72,8.54,3.95
		c3.52-2.29,7.47-7,11.71-12.27c2.27-2.84,4.71-5.67,7.12-8.37c-0.47,5.06-1.94,11.78-3.31,16.77
		c-18.49,14.61-33.53,33.32-39.84,46.63c-3.95,8.58-3.88,15.44,1.47,16.84c2.27,0.54,4.85,0.12,7.68-1.32
		c10.88-5.89,21.26-20.31,28.97-36.15c3.81-7.97,6.72-15.39,8.73-22.32c10.81-8.11,22.79-14.47,35.87-18.99
		c1.87-0.62,2.98-2.41,2.51-4.35c-0.57-1.87-2.43-3.05-4.37-2.51c-11.16,3.76-21.61,8.87-31.45,15.39
		c0.9-4.63,2.08-11.99,1.18-16.48c-0.9-3.55-4.09-5.06-7.42-3.41c-2.84,1.66-6.43,5.82-10.81,11.02c-2.27,2.84-4.71,5.67-7.4,8.65
		c1.87-6.64,4.71-15.18,5.53-17.31c0.57-1.75-0.47-3.55-2.08-4.16c-1.58-0.64-3.59-0.21-4.35,1.37
		C283.96,686.75,283.03,689.03,282.08,691.56L282.08,691.56z M265.05,768.22c1.44-10.05,16.62-29.79,31.38-43.37
		c-4.63,12.39-12.2,25.77-20.17,34.85C272.3,764.2,268.57,767.04,265.05,768.22L265.05,768.22z M447.92,691.68
		c-7.14,5.46-16.76,11.78-24.8,15.02c-7.54,3.05-12.39,3.05-14.68-3.81c-0.76-2.55-1.4-5.11-1.73-7.61
		c-0.76-4.78-1.68-8.65-4.66-10.59c-4.63-2.51-9.41,0.62-13.78,5.82c-2.2,2.62-4.28,5.32-6.15,8.04c-0.14,0.21-0.28,0.33-0.43,0.54
		c7.14-22.86,12.74-39.49,16.84-49.94c1.87-5.06,3.52-9.62,4.92-13.71c0.5-1.73-0.43-3.4-2.01-4.16c-1.58-0.54-3.59-0.21-4.35,1.47
		c-8.87,19.86-20.31,53.32-28.68,84.72c-0.85,4.07,3.81,6.29,6.36,3.74c2.58-3.19,5.34-7,8.32-11.51
		c5.25-7.83,10.66-15.44,15.01-18.28c0.36,0.76,0.78,2.44,1.11,4.92c0.5,3.33,1.25,6.57,2.29,9.84c3.05,8.51,9.98,12.13,21.14,8.8
		c7.57-2.38,14.76-6.35,21.41-10.92c-0.38,1.85-0.64,3.64-0.72,5.32c-0.19,3.95,1.18,6.36,4.02,7.33c4.16,0.83,9.58-3.24,14.28-8.04
		c2.27-2.41,4.21-4.49,5.68-6.36c0,0,0,0,0,0.07c-0.48,4.79,0.38,9.94,4.23,13.22c3.95,2.98,9.13,2.91,13.93,1.25
		c8.87-3.12,18.7-10.17,28.47-17.59l0.86-0.65c0.59,1.8,1.4,3.56,2.24,5.22c1.39,3.26,1.87,5.7,1.54,7.21
		c0,0.14-0.18,0.18-0.28,0.28c-2.98,2.15-6.17,4.85-6.65,8.37c-0.21,3.12,2.48,6.03,7.21,3.48c2.98-1.8,5.18-4.37,6.72-7.68
		c16.3-12.38,35.7-19.59,45.23-20.99c-0.83,3.27-1.48,6.34-1.96,9.21c-1.87,13.64,2.44,17.59,9.01,16.41
		c5.06-0.9,11.37-5.82,15.11-13.1c1.87-3.59,2.55-7.61,2.22-11.99c8.36,2.3,17.49,2.45,25.47,1.25c-0.93,1.19-1.78,2.41-2.56,3.67
		c-3.1,4.78-4.92,11.44,0.28,15.04c6.64,3.66,16.08-4.16,27.43-16.41c-1.37,13.78,8.18,18.96,20.03,15.09
		c7.03-2.44,14.07-7.01,20.81-12.04l-4.9,13.72c-0.97,3.52,3.4,6.22,6.03,3.59c2.29-2.62,4.73-5.53,7.14-8.72
		c5.34-6.93,11.02-13.79,17.05-17.88c0.33,1.32,0.61,2.91,0.83,4.71c0.28,2.98,1.04,6.17,2.22,9.58c3.38,8.02,10.74,9.91,19.93,6.86
		c3.56-1.18,7.27-2.93,10.85-5.05c-0.16,4.04,1.44,7.45,5.63,9.12c5.49,1.61,10.55-2.77,14.76-8.65c2.08-2.91,3.88-5.67,5.34-8.37
		c0,6.03,1.47,12.32,6.39,15.65c3.59,2.22,7.83,1.66,11.21,0c8.32-4.16,16.41-9.01,30.08-20.43c2.91-2.91-1.04-7.78-4.52-5.34
		c-11.14,9.36-28.68,20.71-32.21,19.25c-1.8-0.76-2.84-2.77-3.05-6.01c-0.54-7.78,1.04-16.69,2.77-24.19
		c2.77-5.89,8.47-18.28,12.6-29.65c2.01-5.6,3.19-10.1,3.41-13.36c-0.14-3.33-4.49-5.06-6.86-1.8
		c-7.21,11.42-13.71,30.05-16.84,43.55c-1.65,3.55-2.7,5.63-3.12,6.38c0,0.07,0,0.14-0.07,0.21c-6.93-2.01-12.89,1.23-17.52,6.5
		c-1.59,1.82-2.91,3.69-4.01,5.59c-5.37,4.27-11.49,7.59-16.56,9.17c-7.19,2.22-9.91,1.18-11.49-3.59
		c-0.69-2.44-1.18-4.78-1.47-7.07c-0.47-3.81-1.09-6.93-3.1-9.08c-3.83-3.52-8.54-1.3-12.56,2.29c-2.01,1.87-3.67,3.52-4.99,4.99
		c-1.44,1.58-2.91,3.24-4.35,4.99c1.37-4.09,2.77-8.25,4.21-12.41c1.25-4.35-4.92-6.08-6.72-1.8c-0.14,0.43-0.26,0.83-0.4,1.25
		l-1.13,3.15c-0.58,0.45-1.17,0.93-1.78,1.41c-8.87,7-21.33,16.08-30.19,16.84c-3.26,0.28-5.49-0.83-5.77-6.17
		c-0.12-2.7,0.28-6.79,1.25-12.32c0.43-1.8-0.07-3.26-1.51-4.3c-1.54-1.04-3.26-0.61-5.13,1.25c-4.94-3.5-11.13-2.36-17.06,1.31
		c-0.78-0.35-1.67-0.45-2.54-0.2c-10.81,3.33-22.44,3.26-29.15,1.51c-3.41-0.83-6.24-1.73-8.61-2.63c-1.44-0.47-2.77-0.9-3.81-1.18
		c-2.15-0.47-4.23,0.57-4.85,2.7c-0.54,2.29,0.76,4.02,2.77,4.87c3.33,1.58,3.26,6.36,1.94,10.17c-1.94,5.2-5.6,8.39-8.3,9.76
		c-1.32,0.71-2.08,0.97-2.29,0.78c-1.04-4.52,1.25-14.35,3.95-23.08c1.32-4.37,2.44-7.61,3.19-9.84
		c1.37-2.98,5.67-12.89,10.12-23.62c3.24-8.04,7.88-19.39,8.02-21.33c-0.19-1.89-1.11-3.12-2.84-3.76
		c-1.73-0.47-3.45,0.35-4.35,1.82c-2.58,4.35-10.95,23.67-18.16,44.27c-1.2,3.46-2.28,6.75-3.22,9.88c-0.37-0.13-0.77-0.2-1.2-0.19
		c-10.26,1.04-28.07,7.19-45.3,18.63c-0.62-2.58-1.54-4.85-2.58-6.93c-1.3-2.44-1.99-4.71-2.06-6.79c0.54-1.94,6.57-3.69,8.72-3.95
		c4.21-1.11,4.02-7.42-0.21-7.42c-6.86,0.78-13.03,4.66-14.97,7.5c-0.54,0.89-0.91,1.82-1.15,2.75c-1.52,1.15-3.03,2.32-4.6,3.46
		c-7.21,5.56-14.76,11.02-22.87,14.83c-4.02,1.82-7.4,2.37-9.27,1.54c-1.25-0.57-1.75-1.32-1.94-1.8
		c-1.4-6.03,0.33-12.56,2.34-18.92c0.14-0.43,0.28-0.83,0.43-1.25c1.11-4.35-4.3-6.43-6.79-2.91c-4.92,7.28-13.57,18.49-20.78,23.41
		c0.28-3.31,2.29-11.07,6.5-20.78c0.64-1.65-0.4-3.52-1.87-4.14c-1.58-0.57-3.52-0.14-4.35,1.44c-0.93,1.75-1.94,3.89-2.93,6.23
		L447.92,691.68L447.92,691.68z M622.75,708.02c1.3-5.06,6.86-11.28,12.67-14.9c2.91-1.8,5.39-2.48,7.4-2.01
		C638.48,696.04,628.85,705.87,622.75,708.02L622.75,708.02z M757.31,699.78c1.23-1.16,2.38-2.34,3.42-3.53
		c0.65-0.53,1.02-1.17,1.17-1.83c1.69-1.51,4.09-3.03,6.04-3.09c-1.75,3.26-3.62,6.38-5.63,9.48c-1.73,2.58-5.96,8.39-8.87,9.36
		C753.27,707.05,755,703.16,757.31,699.78L757.31,699.78z"/>
	<path d="M101.26,339.51l7.23-0.75c14.31-3.6,35.47-18.08,43.43-29.39c22.75-32.36-2.97-73.13-43.39-64.92
		c13.13-31.12-21.27-58.05-48.99-39.29c-8.81,5.97-27.42,17.33-29.59,28.6C21.26,232.08,7,240.72,0,245.46l3.98,5.88
		c8.08-5.46,18.35-3.53,23.85,4.6l52.11,76.99c5.49,8.11,3.46,18.4-4.6,23.85l3.98,5.88C86.36,357.89,99.54,348.44,101.26,339.51
		L101.26,339.51z M83.57,225.12c6.18,9.12,8.75,21.64-1.26,28.78c-8.28,5.89-9.67,18.58,0.38,26.29
		c-1.88-10.19,7.59-14.54,14.6-19.28c16.91-11.45,49.28,28.11,41.95,49.31c-2,5.78-6.44,7.92-12.87,12.03
		c-7.2,4.6-17.95,2.07-22.9-5.24l-52.11-76.99C39.48,222.49,65.33,198.17,83.57,225.12L83.57,225.12z M171.72,292.04l2.86,6.49
		l96.79-42.7l-20.15-45.67l-6.29,2.77c6.34,14.36,7.38,27.18,0.78,39.2c-6.77,12.32-20.04,16.1-32.31,21.51l-44.46-100.77
		c-3.92-8.89,0.14-18.83,8.99-22.74l-2.87-6.49c-7.85,3.47-22.59,10.78-25.84,19.16l-7.86-0.79c-7.77,0.73-17,3.99-23.92,7.05
		l2.86,6.49c9-3.97,18.71-0.13,22.64,8.78l37.53,85.06C184.34,278.11,180.51,288.16,171.72,292.04L171.72,292.04z M281.28,245.78
		l1.38,6.96l103.76-20.63l-9.73-48.96l-6.74,1.34c3.06,15.4,1.29,28.13-7.77,38.43c-9.28,10.55-23.07,11.36-36.21,13.97l-11.7-58.84
		c12.5-2.48,23.2-6.79,31.62-0.68c3.32,2.61,5.43,6.16,6.27,10.43l6.96-1.38c-1.45-7.3-5.55-17.06-11.24-22.51
		c2.99-7.72,3.34-17.24,1.78-25.1l-6.96,1.38c1.9,9.53-4.23,18.35-13.72,20.24l0.04,0.22l-17.52,3.48l-10.36-52.11
		c26.68-5.31,40.58-11.76,56.26,9.36l6.74-1.34l-5.31-26.73l-103.76,20.63l1.38,6.96c9.64-1.92,18.32,4.06,20.19,13.5l18.13,91.19
		C296.63,234.93,290.69,243.91,281.28,245.78L281.28,245.78z M482.4,217.71c9.92-11.61,10.71-33.23,0.14-48.33
		c-7.31-10.44-21.13-19.04-32.19-26.12c-12.76-8.18-27.58-16.82-27.25-31.74c0.57-26.18,51.51-18.42,44.66,21.36l6.41,0.14
		c2.83-6.31,6.37-18.65,4.86-23.49c6.54-5.78,7.55-10.12,7.75-19.3l-6.18-0.13c-0.37,16.82-18.28,4.88-25.7,1.96
		c-32.29-12.7-67.79,16.18-48.26,49.57c15.64,26.72,62.01,34.48,61.4,62.26c-0.27,12.17-11.57,19.52-20.13,19.72
		c-13.5,0.31-22.05-4.04-31.05-15.33c-5.38-6.76-10.06-17.19-10.45-24.97l-7.78-0.17c-0.2,9.03,0.85,18.61,4.68,26.9
		c0.21,0.69,0.66,1.16,0.88,1.62c-5.31,5.08-6.41,10.3-6.58,18.18l6.18,0.13c0.36-16.61,17.19-5.39,25.93-1.96
		C444.12,233.68,470.57,232.5,482.4,217.71L482.4,217.71z M586.31,231.17c11.35-10.21,14.95-31.55,6.44-47.9
		c-5.89-11.3-18.47-21.63-28.5-30.1c-11.58-9.78-25.15-20.27-22.88-35.03c3.98-25.89,53.47-11.53,41.49,27l6.34,0.98
		c3.64-5.89,8.74-17.64,7.89-22.65c7.24-4.88,8.81-9.05,10.2-18.12l-6.11-0.94c-2.57,16.63-18.75,2.46-25.73-1.41
		c-30.35-16.8-69.33,7.2-54.32,42.84c12.02,28.54,56.98,42.27,52.75,69.74c-1.85,12.03-14.02,17.84-22.53,16.92
		c-13.43-1.45-21.33-6.88-28.78-19.25c-4.46-7.4-7.73-18.36-7.1-26.12l-7.69-1.18c-1.37,8.92-1.58,18.57,1.13,27.28
		c0.12,0.71,0.51,1.24,0.66,1.72c-5.92,4.35-7.7,9.37-8.9,17.17l6.11,0.94c2.52-16.43,17.77-3.09,25.96,1.45
		C546.27,242.01,572.65,244.29,586.31,231.17L586.31,231.17z M599.19,241.54l-2.57,6.61l98.58,38.39l18.11-46.52l-6.4-2.49
		c-5.7,14.63-14.03,24.42-27.21,28.23c-13.5,3.91-25.56-2.82-38.05-7.69l21.77-55.91c11.87,4.62,23.21,6.74,27.03,16.42
		c1.4,3.98,1.26,8.11-0.31,12.16l6.61,2.58c2.7-6.94,4.49-17.37,2.62-25.03c6.67-4.89,12.09-12.74,15-20.21l-6.61-2.58
		c-3.53,9.06-13.44,13.2-22.45,9.69l-0.08,0.21l-16.64-6.48l19.27-49.51c25.37,9.88,40.53,11.9,42.41,38.14l6.4,2.49l9.89-25.39
		l-98.58-38.39l-2.58,6.61c9.17,3.58,13.26,13.27,9.77,22.24l-33.73,86.63C617.97,240.64,608.14,245.03,599.19,241.54L599.19,241.54
		z M758.95,324.55c46.6,31.54,110.96-16.45,104.62-74.08c-2.79-25.33-17.2-40.73-39.21-51.15c-4.8-2.27-10.97-4.65-16.04-3.67
		c-1.68-8.7-14.99-18.72-22-23.46l-3.98,5.88c8.06,5.45,10.09,15.74,4.6,23.85l-52.11,76.99c-5.5,8.13-15.77,10.06-23.85,4.6
		l-3.98,5.88c7.01,4.74,21.26,13.38,29.96,11.71C738.62,309.78,751.94,319.8,758.95,324.55L758.95,324.55z M834.29,213.23
		c9.91,6.7,10.76,24.95,9.85,26.3c0.02,0.33-0.02,0.46-0.01,0.83c-0.6,0.89,0.61,18.71-17.08,44.85
		c-7.61,11.24-24.57,29.08-35.29,32.53c-0.21,0.13-0.7,0.4-0.89,0.5c-3.85,0.74-18.08,8.02-29.47-0.59
		c-6.36-4.81-8.23-15.21-3.08-22.82l52.11-76.99C815.95,209.68,826.85,208.2,834.29,213.23L834.29,213.23z"/>
	<path d="M262.26,367.85c-0.17,0.03-0.33,0.06-0.5,0.11c-12.81,3.95-26.6,3.87-34.56,1.79c-4.04-0.98-7.4-2.05-10.2-3.11
		c-1.71-0.56-3.28-1.07-4.51-1.4c-2.55-0.56-5.02,0.67-5.74,3.19c-0.65,2.72,0.9,4.76,3.28,5.77c3.95,1.88,3.87,7.54,2.3,12.05
		c-2.3,6.17-6.64,9.95-9.84,11.57c-1.57,0.84-2.47,1.15-2.72,0.92c-1.23-5.35,1.48-17.01,4.68-27.35c1.57-5.19,2.89-9.02,3.78-11.66
		c1.63-3.53,6.73-15.27,12-28c3.84-9.53,9.33-22.98,9.5-25.28c-0.22-2.24-1.32-3.7-3.36-4.46c-2.05-0.56-4.09,0.42-5.16,2.16
		c-3.05,5.16-12.98,28.05-21.52,52.47c-4.26,12.22-7.15,22.73-8.63,31.61c-2.21,16.17,2.89,20.85,10.68,19.45
		c6-1.07,13.48-6.89,17.91-15.53c2.21-4.26,3.03-9.02,2.64-14.21c12.01,3.31,25.37,2.86,36,0.37c-2.51,7.22-4.8,15.13-5.06,19.84
		c0.25,5.27,4.76,7.96,10.12,4.68c4.18-2.72,8.86-8.29,13.87-14.54c2.69-3.36,5.58-6.73,8.44-9.92c-0.56,6-2.3,13.96-3.92,19.87
		c-21.92,17.32-39.74,39.49-47.22,55.27c-4.68,10.17-4.6,18.3,1.74,19.95c2.69,0.64,5.75,0.14,9.11-1.57
		c12.89-6.98,25.2-24.08,34.33-42.85c4.51-9.44,7.96-18.24,10.34-26.46c12.81-9.61,27.02-17.15,42.52-22.5
		c2.21-0.73,3.53-2.86,2.97-5.16c-0.67-2.21-2.89-3.61-5.18-2.97c-13.23,4.46-25.62,10.51-37.27,18.24
		c1.06-5.49,2.47-14.21,1.4-19.53c-1.06-4.2-4.85-6-8.8-4.04c-3.36,1.96-7.62,6.89-12.81,13.06c-2.69,3.36-5.58,6.73-8.77,10.26
		c2.21-7.87,5.58-17.99,6.56-20.52c0.67-2.07-0.56-4.2-2.47-4.93c-1.88-0.76-4.26-0.25-5.16,1.63
		C262.76,366.67,262.51,367.24,262.26,367.85L262.26,367.85z M239.67,464.76c1.71-11.91,19.7-35.31,37.19-51.4
		c-5.49,14.69-14.46,30.55-23.91,41.31C248.28,460,243.85,463.36,239.67,464.76L239.67,464.76z M461.53,268.27
		c-17.1,3.22-40.97,21.78-61.01,52.16c-10.12,15.19-17.82,32.82-23.32,52.94c-2.97,11.1-5.44,25.62-2.89,37.36
		c1.23,5.83,4.37,10.03,9.19,12.72c12.08,5.69,24.63-0.14,35.82-10.26c5.47-5,10.39-10.22,14.72-15.52c-0.1,0.2-0.19,0.56-0.29,0.75
		c-7.2,20.04-13.12,39.07-17.66,57.14c-1.37,5.83,7.2,8.03,8.8,2.38c6.17-24.08,13.71-47.7,22.67-70.93
		c0.39-1.01,0.73-1.99,1.15-2.97c1.71-4.6,3.45-9.02,5.16-13.28c3.46,0,8.23-0.61,11.66-1.18c2.21-0.56,3.45-2.78,3.19-4.82
		c-0.39-2.21-2.04-3.87-4.34-3.87c-1.71,0-8.46,0.64-15.53,1.49c-5.41,0.64-12.72,1.32-13.54,1.54c-6,1.01-5.1,8.3,0,8.3
		c2.38-0.25,4.85-0.39,7.23-0.56c-0.08,0.17-0.25,0.31-0.42,0.56c-2.94,4.6-11.83,17.01-22.81,28.5
		c-11.01,11.49-22.93,19.28-32.2,14.38c-9.53-6.08-2.61-36.07,1.32-48.12c6.98-22.76,19.06-45.32,35.73-63.48
		c8.27-9.11,17.71-16.59,28.31-22.42c13.48-7.45,21.52-6.14,19.48,7.9c-0.93,4.82-2.47,9.11-4.6,12.72
		c-0.92,1.32-2.16,2.69-3.87,4.18c-1.07,0.9-1.96,1.82-2.72,2.64c-2.86,3.87-0.9,7.37,3.05,7.62c1.88,0.17,3.92-0.9,6.14-3.2
		c8.3-9.53,12.16-21.27,11.1-30.88C480,272.48,473.58,266.39,461.53,268.27L461.53,268.27z M540.06,367.41
		c-0.7-0.22-1.45-0.25-2.19-0.03c-13.87,7.82-30.97,7.23-46.16,0.67c1.91-3.53-2.3-7.96-5.83-5.58
		c-13.87,10.51-20.35,25.62-18.8,36.43c1.4,8.13,8.63,11.18,17.18,6c8.3-5.58,13.28-15.36,12.98-24.94
		c7.74,2.53,20.02,2.83,30.61,0.35c-0.54,0.94-1.04,1.89-1.5,2.85c-4.51,8.86-4.91,18.13,3.53,21.5c6.5,1.91,12.5-3.28,17.49-10.26
		c2.47-3.45,4.6-6.73,6.33-9.92c0,7.15,1.74,14.6,7.57,18.55c4.26,2.63,9.28,1.96,13.28,0c9.87-4.93,19.45-10.68,35.65-24.22
		c3.45-3.45-1.23-9.22-5.35-6.33c-13.2,11.1-34,24.55-38.17,22.81c-2.13-0.9-3.36-3.28-3.62-7.12c-0.64-9.22,1.23-19.79,3.28-28.67
		c3.28-6.98,10.03-21.66,14.94-35.14c2.38-6.64,3.78-11.97,4.04-15.83c-0.17-3.95-5.33-6-8.13-2.13
		c-8.55,13.54-16.26,35.62-19.95,51.62c-1.96,4.2-3.19,6.67-3.7,7.57c0,0.08,0,0.17-0.08,0.25
		C548.55,364.41,544.06,365.2,540.06,367.41L540.06,367.41z M476.21,398.82c-0.76-1.2-0.59-4.18,0.56-9.02
		c1.23-4.85,4.34-10.17,9.45-16.17c0.08,0.17,0.17,0.34,0.25,0.42c4.68,6.89,1.71,15.58-3.36,21.02
		C480.56,397.75,478.26,399.07,476.21,398.82L476.21,398.82z M542.77,384.86c-2.05,3.05-7.06,9.95-10.51,11.1
		c-0.31-5.58,4.51-13.23,9.05-17.74c1.96-2.05,5.41-4.51,8.13-4.6C547.37,377.49,545.16,381.19,542.77,384.86L542.77,384.86z"/>
	<path d="M654.17,358.71c3.99,0.39,8.36,1.1,12.44,1.57l5.52,0.72c-1,7.16-1.89,14.34-2.98,21.49c-0.75,4.95-1.5,9.86-2.31,14.8
		c-1.21,7.4-2.21,14.39-4.29,21.63c-0.2,0.7-0.96,2.95-0.96,3.5c0,1.01,1.02,2.07,1.6,2.89c0.62,0.89,1.49,2.32,2.32,2.96
		c1.34,1.03,0.96,2.99,1.46,4.42c0.74,2.08,1.38-5.14,3.41,1.69c0.5,1.68,0.42,0.95,1.09-0.45c0.14-0.29,0.86-1.83,1.11-1.92
		c0.33-0.11,0.33,0.42,0.71-0.93c0.35-1.22,0.62-3.39,1.77-4.11c1.92-1.01,1.46,0.52,1.88,0.22c1.1-0.78,4.53-21.87,4.89-24.01
		c0.23-1.4,0.53-2.76,0.75-4.18c1.22-7.6,2.45-15.2,3.43-22.84l1.74-13.07l5.29,0.81l6.9,1.18c6.92,1.18,7.83,1.37,14.13,3.67
		c1.2-1.3,3.14-3.11,3.98-4.49c0.62-1.02,2.45-0.97,2.85-1.65c0.5-0.84-1.7-1.54,0.7-2.92c1.56-0.9,1.27-0.96-0.15-2.12
		c-1.55-1.27-1.15-0.98-3-1.7c-1.63-0.63-0.51-1.2-1.14-1.92c-0.51-0.58,2.65-0.85-3.5-2.19l-10.26-2.06
		c-0.82-0.15-1.65-0.25-2.46-0.43c-0.42-0.09-0.83-0.2-1.26-0.28l-10.01-1.6l1.79-14.84c0.29-2.36,0.5-5.05,0.94-7.36
		c0.11-0.54,0.28-1.03,0.4-1.57c0.28-1.75,0.62-3.59,0.85-5.33c0.11-0.81,0.09-1.73,0.18-2.58c0.07-0.67,0.52-4.44,0.3-4.69
		c-0.17-0.2-1.06,0.2-1.37,0.24c-0.78,0.1-0.5-0.14-1.24,0.35c-0.78,0.53-1.42-0.45-3.24,0.71c-1.53,0.97-1.21-0.15-1.88,1.96
		c-0.35,1.1-0.48,0.63-0.69-0.23c-0.45-1.83-0.26-2.24-0.3-4.04c-0.01-0.37,0-1.11-0.22-1.41c-0.6-0.29-1.85,1.24-2.57,1.54
		c-1.58,0.68-1.24-0.75-1.86-0.91c-0.85,0.15-1.38,2.49-1.97,3.17c-0.85,0.99-1.12,0.39-1.27,1.94c-0.12,1.28-0.3,2.02-0.24,3.36
		c0.11,2.41-0.47,6.16-0.78,8.8c-0.26,2.23-0.52,4.47-0.79,6.7c-0.46,4.06-1.1,8.1-1.63,12.16l-10.06-1.25
		c-4.1-0.44-8.18-0.87-12.28-1.28c-3.5-0.35-3.73-1.08-8.2-1.27c-0.5-0.03-3.52-0.35-3.71-0.01c-0.09,0.17,0.13,1.33,0.17,1.64
		c0.1,0.87,0.19,1.4,0.19,2.3c0.01,0.98,0.36,2.71,1.19,3.31c0.67,0.48,1.35,0.58-0.26,1.04c-1.05,0.3-1.96,0.19-2.85,0.4
		c-0.78,0.18-0.35,0.91-0.1,1.45c0.48,1.05,0.92,1.68,0.17,2.71c-0.76,1.05,0.66,0.98,2.1,2.85c0.91,1.18,3.48,0.44,5.22,0.56
		c1.41,0.1,2.96,0.33,4.4,0.48L654.17,358.71L654.17,358.71z"/>
</g>
</svg>
