<?xml version="1.0" encoding="utf-8"?>
<!-- Generator: Adobe Illustrator 25.0.0, SVG Export Plug-In . SVG Version: 6.00 Build 0)  -->
<svg version="1.1" id="Layer_1" xmlns="http://www.w3.org/2000/svg" xmlns:xlink="http://www.w3.org/1999/xlink" x="0px" y="0px"
	 viewBox="0 0 864 864" style="enable-background:new 0 0 864 864;" xml:space="preserve">
<style type="text/css">
	.st0{fill-rule:evenodd;clip-rule:evenodd;fill:#CCCCCC;}
	.st1{fill-rule:evenodd;clip-rule:evenodd;}
</style>
<g>
	<path class="st0" d="M59.52,207.61c-0.3-10.26-0.62-20.57-1.29-30.81c-0.19-2.93-0.4-5.88-0.75-8.79
		c-0.11-0.89-0.27-2.54-0.53-3.42c-0.51-0.14-1.08-0.25-1.55-0.36c-1.7-0.39-3.42-0.73-5.05-1.04c-4.41-0.77-8.2-2.85-11.09-6.27
		c-2.91-3.43-4.27-7.52-4.27-12.01c0-5.55,1.97-10.35,5.7-14.45c4.22-4.65,10.54-8.14,16.2-10.7c18.81-8.53,44.1-18.54,65.01-18.75
		c4.15-0.04,11.3,0.03,14.86,2.41c0.05,0.03,0.09,0.06,0.14,0.1c3.68,2.66,4.27,7.93,4.27,12.12c0,0.24,0.01,0.67,0.05,1.09
		c0.55-0.3,1.09-0.63,1.48-0.86c2.16-1.28,4.27-2.67,6.35-4.07c5.73-3.85,12.42-6.52,19.03-8.45c6.73-1.97,13.79-3.34,20.82-3.34
		c15.17,0,28.46,5.39,39.81,15.42c9.07,8.01,15.76,17.92,20.35,29.08c5.03,12.21,7.49,25.03,7.49,38.24
		c0,27.51-9.09,51.49-28.98,70.63c-14.4,13.86-31.44,21.87-51.54,21.87c-10.51,0-20.64-2.61-30.2-6.87
		c-0.56-0.25-1.88-0.8-2.67-0.92c-0.61,1.16-0.72,4.34-0.72,5.32c0,5.94,1.5,11.43,6.64,14.86c2.21,1.48,4.42,2.99,6.53,4.6
		c1.31,0.99,2.8,2.17,3.87,3.42c0.95,1.11,1.28,2.49,0.93,3.91c-0.35,1.42-1.27,2.49-2.63,3.04c-2.73,1.1-5.4,2.36-7.96,3.81
		c-2.11,1.19-4.79,0.45-5.99-1.64c-0.97-1.69-2.24-3.11-3.82-4.25l-0.15-0.11l-0.15-0.1c-4.75-3.16-12.32-3.35-17.86-3.3
		c-21.26,0.21-45.88,9.7-65.13,18.32c-1.28,0.57-2.62,0.53-3.86-0.12l-0.58-0.31c-8.52-4.49-15.83-11.4-15.83-21.66
		c0-3.6,0.71-7.36,3.02-10.14c2.28-2.85,6.2-5,9.46-6.51c4.64-2.16,6.93-5.97,7.84-10.94c0.42-2.3,0.63-4.76,0.82-7.08
		c0.33-4.05,0.55-8.11,0.75-12.17C58.94,233.49,59.25,220.53,59.52,207.61L59.52,207.61z M54.97,309.71
		c19.99-8.92,44.88-18.33,66.83-18.55c6.94-0.07,15.19,0.32,21.15,4.27l0.25,0.17l0.24,0.18c1.87,1.35,3.44,2.99,4.71,4.88
		c1.77-0.95,3.58-1.82,5.42-2.63c-0.51-0.42-1.04-0.82-1.49-1.17c-2.02-1.54-4.13-2.98-6.24-4.39c-6.81-4.55-9.23-11.75-9.23-19.71
		c0-4.19,0.65-11.19,6.31-11.19c1.73,0,3.74,0.76,5.29,1.45c8.81,3.92,18.14,6.37,27.82,6.37c18.58,0,34.19-7.43,47.49-20.24
		c18.74-18.04,27.19-40.51,27.19-66.43c0-12.44-2.31-24.51-7.05-36.01c-4.26-10.34-10.42-19.51-18.82-26.93
		c-10.28-9.08-22.2-13.95-35.94-13.95c-6.46,0-13,1.3-19.18,3.11c-6.01,1.76-12.19,4.18-17.41,7.69c-1.89,1.27-9.41,6.45-11.67,6.45
		c-4.24,0-5.31-3.93-5.31-7.47c0-1.83-0.15-6.12-1.83-7.37c-2.14-1.39-9.08-1.43-11.54-1.41c-9.04,0.09-18.47,2.15-27.12,4.66
		c-12.12,3.52-24.06,8.36-35.54,13.57c-4.85,2.2-10.66,5.32-14.29,9.31c-2.75,3.02-4.18,6.43-4.18,10.53c0,3.1,0.87,5.86,2.88,8.23
		c2.01,2.37,4.58,3.76,7.65,4.29l0.03,0c1.82,0.36,3.65,0.72,5.46,1.13c0.89,0.2,1.99,0.43,2.84,0.77l0.03,0.01
		c1.28,0.55,2.08,1.62,2.6,2.91c0.53,1.4,0.77,3.46,0.95,4.95c0.36,3.01,0.58,6.07,0.78,9.09c0.67,10.38,1,20.84,1.31,31.24l0,0.04
		l0,0.04c-0.27,13.01-0.58,26.06-1.2,39.06c-0.2,4.12-0.42,8.25-0.76,12.37c-0.21,2.53-0.44,5.16-0.89,7.66
		c-1.25,6.84-4.74,12.21-11.12,15.18c-2.3,1.07-5.75,2.85-7.37,4.87L44,286.77c-1.41,1.7-1.72,4.34-1.72,6.46
		C42.28,301.13,48.52,306.3,54.97,309.71L54.97,309.71z M136.62,166.73c0.58-8.88,3.99-16.58,13.96-16.58c5.88,0,10.9,2.21,15,6.42
		c8.32,8.54,9.78,23.36,9.78,34.66c0,16.26-3.16,38.31-23.83,38.31c-4.38,0-8.87-0.81-12.52-3.36c-3.23-2.25-4.99-5.37-4.99-9.32
		c0-1.8,0.07-3.6,0.17-5.4L136.62,166.73L136.62,166.73z M317.59,268.27c1.37-0.74,2.68-1.6,3.86-2.64l0.1-0.09
		c4.95-4.2,11.16-6.03,17.59-5.08c4.61,0.68,8.95,2.74,12.47,5.76c2.29-0.32,4.58-0.7,6.84-1.17c1.01-0.21,2.01-0.48,2.99-0.8
		c0.67-1.44,1.65-2.7,2.9-3.7c1.89-1.51,4.1-2.26,6.47-2.31c2.47-2.85,3.76-6.17,3.76-9.99c0-8.05-6.68-11.88-13.63-13.95
		c-2.7-0.8-7.1-2.18-9.24-4.07l-0.02-0.02l-0.02-0.02c-1.94-1.86-2.96-4.92-3.56-7.47l-0.01-0.05c-0.82-4.19-1.12-8.77-1.35-13.03
		c-0.37-6.88-0.45-13.8-0.45-20.69c0-4.56,0.06-9.16,0.35-13.71c0.17-2.63,0.4-5.69,1.09-8.24c0.99-3.68,3.33-6.16,7.31-6.16
		c2.84,0,5.4,1.95,7.32,3.85c2.58,2.55,5.27,5.04,8.11,7.31c1.93,1.55,4.06,3.1,6.25,4.26c4.05,2.13,8.73,2.78,13.26,2.78
		c9.43,0,17.7-2.98,24.53-9.53l0.03-0.02c3.88-3.54,6.81-7.93,8.92-12.72c2.11-4.79,3.43-9.87,3.43-15.12
		c0-4.69-1.12-9.33-2.84-13.68c-1.68-4.25-3.97-8.38-7.18-11.68c-6.3-6.45-14.22-9.11-23.17-9.11c-14.56,0-25.07,7.59-32.75,19.64
		c-1.64,2.57-4.1,5.37-7.41,5.37c-4.56,0-5.99-4.67-6.41-8.42c-0.29-2.64-1.45-12.8-3.08-14.86l-0.03-0.04
		c-1.32-1.79-7.39-1.87-9.33-1.86c-13.93,0.09-28.86,3.57-42.15,7.54c-5.35,1.6-10.73,3.37-15.89,5.52
		c-3.53,1.47-7.25,3.23-10.39,5.43c-4.24,2.97-7.33,6.92-7.33,12.26c0,6.29,5.35,9.74,10.64,11.82c2.89,1.14,5.8,2.92,7.23,5.76
		c1.59,3.02,1.77,7.8,1.77,11.15c0,11.24-0.11,22.53-0.63,33.76c-0.19,4.06-0.43,8.12-0.8,12.17c-0.28,3.02-0.62,6.07-1.13,9.03
		c-0.39,2.59-1.16,5.37-2.68,7.54l-0.02,0.02c-1.71,2.33-4.51,4.39-6.89,5.94c-4.81,3.29-9.09,7.81-9.09,13.97
		c0,7.83,5.37,12.04,12.35,14.4c5.77,1.95,12.06,3.03,18.1,3.72c8.32,0.96,16.78,1.25,25.15,1.25
		C314.49,268.29,316.04,268.28,317.59,268.27L317.59,268.27z M485.28,241.49c4.08-1.86,8.93-2.5,13.4-2.63
		c1.24-3.66,2.69-7.26,4.43-10.71c-1.36-3.08-1.84-6.45-1.84-9.8c0-5.7,1.82-10.7,5.63-14.93c3.6-4,8.06-6.35,13.48-6.35l0.05,0
		c3.2,0.1,6.49,1.06,8.21,3.94c1.95,3.14,2.1,9.2,2.1,12.79c0,1.13-0.02,2.27-0.08,3.4c7.25,3.37,10.96,10.55,10.62,18.48
		c-0.01,1.15-0.13,2.31-0.31,3.45c2.52,1.86,3.9,4.67,4.13,7.87l0.01,0.23c0.16,3.73-0.89,7.14-3.31,9.84
		c0.34,0.37,0.67,0.75,0.97,1.14c6.7,7.94,15.59,11.2,25.87,11.2c8.89,0,17.12-2.52,24.8-6.96c6.13-3.55,11.48-8.07,15.71-13.76
		c3.32-4.46,5.99-9.73,5.99-15.4c0-2.91-0.93-4.93-3.96-5.42c-2.01-0.32-5.63-0.89-7.33-1.96c-1.78-1.07-3.11-3.33-3.99-5.15
		c-1.69-3.51-2.41-8.52-2.83-12.36c-0.76-6.89-0.91-14-0.91-20.95l0.33-24.17c0-8.45-0.69-18.64-3.99-26.52
		c-2.91-6.94-8.1-12.47-14.12-16.88c-13.85-10.13-30.1-14.04-47.09-14.04c-21.49,0-41.78,5.27-60.73,15.42
		c-6.28,3.36-12.05,7.72-16.54,13.28c-3.42,4.24-5.95,9.19-5.95,14.75c0,4.39,1.36,8.25,4.6,11.27c3.35,3.13,7.47,4.33,12.01,4.33
		c12.5,0,22.39-10.6,29.07-20.03c2.65-3.74,6.11-8.22,9.78-11.02c2.82-2.15,6.02-3.23,9.57-3.23c6.11,0,10.44,3.04,13,8.54
		c3.27,7.04,3.68,17.91,3.68,25.56c0,3.08-0.29,7.73-2.92,9.82l-0.04,0.03c-2.75,2.01-9.43,2.1-12.71,2.11
		c-22.14,0.07-46.19,4.34-62.75,20.24c-8.27,7.93-13.21,17.36-13.21,28.93c0,6.92,1.69,13.4,4.89,19.53
		c3.17,6.08,7.56,11.26,13.2,15.19c1.36,0.95,2.78,1.8,4.24,2.57c0.5-1.21,1.2-2.31,2.12-3.27c-0.8-2.49-1.03-5.17-0.69-7.75
		c0.14-1.02,0.36-2.03,0.68-3.01c2.11-6.65,8.07-11.89,15.33-11.06C480.71,238.36,483.25,239.54,485.28,241.49L485.28,241.49z
		 M492.05,265.61c-1.24,0.42-2.54,0.65-3.85,0.7c0.12,0.75,0.15,1.51,0.11,2.27c-0.01,0.27-0.02,0.54-0.03,0.82
		c0.52,0.01,1.04,0.01,1.55,0.01c0.55,0,1.09-0.01,1.64-0.02C491.64,268.12,491.84,266.86,492.05,265.61L492.05,265.61z
		 M679.81,291.44c3.07-0.08,6.13-0.11,9.2-0.11c10.67,0,22.26,0.84,32.37,4.46c1.33,0.48,2.64,1.01,3.93,1.61
		c5.22-5.71,9.68-12.06,13.56-18.74c6.45-11.11,11.55-23.54,15.92-35.61l21.42-59.03c2.71-7.26,5.57-14.51,8.78-21.56
		c2.26-4.95,4.78-10.07,7.79-14.62c3.21-4.85,7.61-8.28,13.09-10.32c3.8-1.33,9.37-3.55,12.2-6.52c2.3-2.41,3.1-5.46,3.1-8.72
		c0-1.74-0.32-3.44-1.08-5.02c-4.55-9.44-23.21-10.09-31.95-10.09c-9.4,0-20.31,0.92-28.98,4.81c-5.03,2.26-10.25,5.87-10.25,11.96
		c0,4.03,3.4,8.64,5.88,11.56c3.16,3.73,4.39,8.3,4.39,13.12c0,7.03-2.25,13.78-5.55,19.92c-2.19,4.08-6.3,10.73-11.63,10.73
		c-5.33,0-10-8.12-12.18-12.11c-1.56-2.86-3.11-5.74-4.57-8.65c-0.95-1.89-1.91-3.84-2.71-5.81c-1.11-2.74-1.82-5.67-1.82-8.64
		c0-3.6,1.87-7.18,3.86-10.07c1.68-2.45,3.47-5.73,3.47-8.79c0-7.95-5.32-12.22-12.37-14.75c-8.06-2.89-18.15-3.47-26.64-3.47
		c-14.45,0-29.22,0.79-43.46,3.36c-9.3,1.68-27.62,5.9-27.62,18.29c0,2.39,0.87,4.62,2.12,6.63c1.2,1.93,2.77,3.7,4.95,4.52
		l0.04,0.02l0.04,0.02c4.1,1.84,10.98,5.02,14.1,8.31c1.55,1.63,2.95,3.99,4.07,5.94c1.98,3.46,3.76,7.09,5.45,10.69l39.16,83.37
		c2.35,5.01,4.63,10.2,6.37,15.46c1.08,3.25,2.2,7.22,2.2,10.66c0,4.28-1.02,8.34-3.69,11.75c-2.45,3.13-5.6,4.93-9.61,4.93
		c-0.88,0-1.76-0.09-2.61-0.31C680.29,290.91,680.05,291.18,679.81,291.44L679.81,291.44z M622.31,279.82
		c1.72,0.1,3.44,0.19,5.16,0.27c8.47,0.38,17.48,0.6,25.86-0.77c1.72-0.28,3.5-0.69,5.16-1.2c0.92-0.28,3.69-1.23,4.2-2.13
		c1.38-3.25,3.93-5.41,7.19-6.15c-0.94-1.81-2.54-3.63-3.86-5.01L666,264.8c-4.75-5.2-10.82-7.36-17.81-7.36
		c-7.39,0-13.64,2.71-18.71,8.1C625.63,269.61,623.27,274.38,622.31,279.82L622.31,279.82z M348.68,105.35
		c2.75,3.59,3.77,13.41,4.26,17.77c0.07,0.62,0.34,2.42,0.78,3.17c0.76-0.36,1.99-2.1,2.32-2.61c8.76-13.75,21.09-22.35,37.67-22.35
		c10.53,0,19.93,3.28,27.34,10.87c3.77,3.86,6.46,8.62,8.44,13.61c1.99,5.04,3.25,10.39,3.25,15.82c0,6.07-1.49,11.94-3.92,17.48
		c-2.43,5.52-5.82,10.56-10.29,14.65c-7.91,7.57-17.61,11.12-28.53,11.12c-5.51,0-11.06-0.86-15.98-3.45
		c-5.57-2.93-11.29-8.18-15.75-12.58c-0.57-0.56-2.34-2.17-3.22-2.17c-1.17,0-1.39,0.77-1.67,1.83c-0.57,2.14-0.76,4.9-0.9,7.1
		c-0.28,4.42-0.34,8.9-0.34,13.33c0,6.78,0.08,13.6,0.44,20.38c0.21,3.94,0.48,8.25,1.23,12.13c0.29,1.21,0.95,3.52,1.84,4.45
		c1.32,1.07,5.44,2.33,6.97,2.79c9.59,2.85,17.8,8.71,17.8,19.54c0,5.5-2,10.39-5.73,14.42c-0.9,0.97-2.06,1.46-3.39,1.41
		c-1.23-0.04-2.32,0.25-3.3,1.03c-0.62,0.5-1.08,1.14-1.37,1.88c-0.48,1.24-1.39,2.12-2.65,2.57c-1.41,0.5-2.86,0.9-4.32,1.2
		c-2.61,0.55-5.26,0.98-7.9,1.33c-1.33,0.18-2.55-0.2-3.55-1.1c-6.5-5.89-15.97-6.84-22.87-1l-0.05,0.04
		c-1.6,1.4-3.4,2.58-5.28,3.57c-0.65,0.34-1.27,0.5-2,0.5c-1.69,0.02-3.38,0.02-5.06,0.02c-14.16,0-31.62-0.71-45.12-5.28
		c-9.42-3.19-16.31-9.51-16.31-19.94c0-8.21,5.14-14.35,11.63-18.79c0.03-0.02,0.06-0.04,0.09-0.06c1.71-1.11,4.12-2.8,5.36-4.47
		c0.94-1.37,1.42-3.41,1.67-5.02c0.01-0.04,0.01-0.07,0.02-0.1c1.16-6.61,1.55-13.79,1.86-20.49c0.52-11.14,0.63-22.34,0.63-33.49
		c0-2.11-0.09-6.52-1.1-8.43c-0.01-0.03-0.03-0.05-0.04-0.08c-0.71-1.41-2.78-2.43-4.16-2.97c-7.69-3.03-14.33-8.36-14.33-17.25
		c0-7.29,3.98-12.95,9.81-17.04c7.63-5.35,19.08-9.12,27.95-11.77c13.85-4.13,29.26-7.69,43.78-7.78
		C339.12,101.14,345.73,101.42,348.68,105.35L348.68,105.35z M523.19,169.92c0.61-1.01,0.72-4.23,0.72-5.21
		c0-6.59-0.32-17.03-3.14-23.1c-1.59-3.43-3.88-5.16-7.7-5.16c-2.27,0-4.23,0.66-6.04,2.04c-3.14,2.39-6.29,6.55-8.55,9.74
		c-7.91,11.17-19.17,22.5-33.84,22.5c-6.03,0-11.55-1.76-15.99-5.9c-4.42-4.13-6.45-9.52-6.45-15.54c0-6.94,2.96-13.11,7.25-18.42
		c4.99-6.18,11.35-11.03,18.33-14.76c19.8-10.6,41.04-16.11,63.49-16.11c18.24,0,35.67,4.3,50.53,15.16
		c6.89,5.04,12.72,11.39,16.05,19.33c3.64,8.67,4.45,19.47,4.45,28.78c0,0.02,0,0.04,0,0.06l-0.33,24.12
		c0,7.06,0.09,24.37,3.17,30.76c0.3,0.63,1.16,2.26,1.75,2.69c0.02,0.01,0.03,0.02,0.02,0.02c1.01,0.53,4.06,0.99,5.21,1.18
		c5.92,0.95,8.87,5.38,8.87,11.18c0,6.99-3.04,13.38-7.14,18.89c-4.71,6.33-10.65,11.38-17.47,15.33
		c-8.57,4.96-17.81,7.75-27.73,7.75c-12.01,0-22.51-4.01-30.33-13.27c-0.02-0.03-0.04-0.05-0.06-0.08c-0.45-0.56-0.93-1.1-1.45-1.59
		c-0.95-0.87-1.43-1.99-1.42-3.28c0.01-1.29,0.51-2.4,1.47-3.26c1.87-1.67,2.54-3.81,2.44-6.23l-0.01-0.15
		c-0.11-1.61-0.73-2.97-2.14-3.81c-1.62-0.97-2.42-2.77-2.06-4.62c0.21-1.1,0.36-2.22,0.37-3.34c0-0.05,0-0.09,0-0.14
		c0.25-5.83-2.35-11.03-7.92-13.27c-1.81-0.73-2.89-2.46-2.76-4.4c0.09-1.33,0.13-2.67,0.13-4.01c0-2.05-0.11-7.92-1.22-9.71
		c-0.02-0.03-0.03-0.05-0.05-0.07c-0.53-0.89-2.39-1.08-3.32-1.11c-3.72,0.02-6.6,1.67-9.07,4.42c-2.85,3.16-4.13,6.77-4.13,11.03
		c0,2.67,0.36,5.47,1.55,7.89c0.63,1.29,0.62,2.68-0.04,3.96c-1.89,3.66-3.42,7.53-4.71,11.44c-0.6,1.82-2.21,3.01-4.13,3.03
		c-4.11,0.06-9.09,0.55-12.76,2.46c-1.82,0.95-3.99,0.55-5.35-0.99c-1.19-1.34-2.68-2.11-4.46-2.31c-5.17-0.59-8.93,4.36-9.56,9.04
		c-0.26,1.93-0.04,3.96,0.67,5.77c0.68,1.76,0.22,3.67-1.2,4.91c-0.8,0.7-1.29,1.56-1.54,2.6c-0.32,1.35-1.15,2.38-2.4,2.97
		s-2.57,0.59-3.82-0.01c-2.26-1.09-4.44-2.34-6.5-3.77c-6.41-4.46-11.43-10.36-15.03-17.28c-3.63-6.97-5.55-14.38-5.55-22.23
		c0-13.17,5.58-24.1,15-33.14c17.73-17.01,43.03-21.79,66.78-21.86C515.72,170.83,521.45,170.73,523.19,169.92L523.19,169.92z
		 M498.26,263.95c-0.45,2.46-0.85,4.93-1.18,7.41c-0.29,2.14-2.04,3.73-4.2,3.82c-1.02,0.04-2.04,0.06-3.06,0.06
		c-1.06,0-2.12-0.02-3.18-0.05c-1.23-0.04-2.27-0.52-3.1-1.42c-0.83-0.9-1.22-1.98-1.16-3.21c0.04-0.74,0.07-1.48,0.1-2.21
		c0-0.03,0-0.06,0-0.09c0.04-0.65-0.04-1.29-0.26-1.9c-0.55-1.48-0.31-3.01,0.66-4.25c0.97-1.24,2.4-1.85,3.96-1.67
		c1.6,0.17,3.36-0.13,4.73-1c1.51-0.96,3.34-0.94,4.83,0.07C497.87,260.49,498.58,262.18,498.26,263.95L498.26,263.95z
		 M622.81,145.21c-3.36-1.3-5.84-3.83-7.72-6.86c-1.83-2.95-2.99-6.21-2.99-9.7c0-16.2,19.66-21.73,32.42-24.04
		c14.58-2.63,29.7-3.45,44.5-3.45c9.23,0,19.86,0.67,28.61,3.81c9.44,3.38,16.24,9.74,16.24,20.24c0,4.35-2.08,8.58-4.49,12.1
		c-1.23,1.78-2.83,4.52-2.83,6.76c0,2.2,0.57,4.41,1.4,6.44c1.87,4.61,4.61,9.48,7,13.85c1.34,2.45,2.96,5.19,4.84,7.26
		c0.39,0.43,1.65,1.71,2.22,1.81c2.08,0,5.69-6.17,6.49-7.66c2.84-5.28,4.85-11.11,4.85-17.16c0-3.41-0.76-6.7-3-9.35
		c-3.53-4.16-7.26-9.66-7.26-15.34c0-8.61,6.39-14,13.7-17.29c9.49-4.26,21.08-5.32,31.37-5.32c11.67,0,31.3,1.13,37.21,13.39
		c1.14,2.37,1.65,4.93,1.65,7.55c0,4.79-1.36,9.24-4.71,12.75c-3.6,3.77-9.65,6.3-14.41,7.97c-4.29,1.6-7.7,4.24-10.23,8.06
		c-2.84,4.28-5.22,9.15-7.34,13.82c-3.16,6.92-5.96,14.05-8.61,21.14l-21.41,59.02c-4.5,12.4-9.73,25.13-16.36,36.55
		c-4.28,7.36-9.23,14.34-15.05,20.56c-1.35,1.44-3.4,1.82-5.17,0.94c-1.39-0.68-2.82-1.28-4.28-1.81
		c-9.42-3.38-20.45-4.12-30.4-4.12c-4.25,0-8.49,0.07-12.74,0.22c-1.93,0.07-3.61-1.05-4.29-2.86c-0.68-1.81-0.15-3.76,1.34-4.98
		c1.19-0.96,2.26-2.05,3.19-3.26c1.21-1.57,3.23-2.14,5.08-1.43c0.48,0.18,1.02,0.24,1.53,0.24c2.2,0,3.67-0.98,5.01-2.69
		c1.85-2.36,2.44-5.2,2.44-8.15c0-6.26-5.38-18.04-8.01-23.64l-39.16-83.37c-1.63-3.46-3.33-6.95-5.24-10.27
		c-0.85-1.48-2.05-3.57-3.23-4.82C632.58,149.67,626.01,146.65,622.81,145.21L622.81,145.21z M670.27,260.82
		c2.1,2.2,4.3,4.86,5.43,7.71c0.13,0.33,0.26,0.65,0.37,0.98c0.48,1.36,0.31,2.73-0.49,3.93c-0.8,1.2-2,1.88-3.44,1.95
		c-1.97,0.1-3.32,1.07-4.09,2.9c-0.04,0.11-0.09,0.2-0.14,0.3c-2.1,4.13-9.35,5.79-13.64,6.48c-8.81,1.43-18.16,1.24-27.06,0.84
		c-2.27-0.1-4.54-0.23-6.82-0.37c-1.26-0.08-2.32-0.62-3.12-1.59c-0.81-0.97-1.14-2.11-0.98-3.37c0.93-7.29,3.89-13.71,8.93-19.05
		c6.17-6.55,13.96-9.93,22.96-9.93C656.81,251.6,664.41,254.43,670.27,260.82L670.27,260.82z M142.45,167.06l-2.44,44.71
		c-0.09,1.69-0.16,3.39-0.16,5.09c0,2.04,0.83,3.37,2.5,4.53c2.61,1.82,6.06,2.31,9.18,2.31c2.88,0,5.72-0.54,8.2-2.06
		c8.82-5.39,9.79-21.36,9.79-30.42c0-9.49-1.09-23.37-8.12-30.59c-3-3.08-6.51-4.66-10.82-4.66c-1.51,0-3.1,0.25-4.36,1.13
		C143.37,159.09,142.65,163.95,142.45,167.06L142.45,167.06z"/>
	<path class="st1" d="M121.95,105.41c6.6,0,10.71,0.55,12.37,1.66c1.61,1.16,2.44,3.99,2.44,8.54c0,3.99,1.28,6.05,3.88,6.05
		c1.05,0,4.71-2.05,10.87-6.21c4.66-3.11,10.59-5.77,17.81-7.88c7.21-2.11,13.7-3.16,19.58-3.16c13.76,0,26.07,4.77,36.89,14.31
		c8.21,7.27,14.64,16.42,19.19,27.46c4.77,11.59,7.16,23.8,7.16,36.56c0,27.29-9.21,49.81-27.62,67.45
		c-14.2,13.76-30.34,20.64-48.48,20.64c-9.21,0-18.64-2.16-28.4-6.49c-1.94-0.89-3.55-1.33-4.71-1.33c-3.27,0-4.88,3.27-4.88,9.76
		c0,8.6,2.88,14.75,8.6,18.53c5.25,3.55,8.39,5.92,9.49,7.21c-2.91,1.18-5.75,2.52-8.47,4.06c-1.23-2.13-2.88-4.05-5.05-5.62
		l-0.22-0.16l-0.23-0.15c-5.66-3.77-13.74-4.1-20.34-4.04c-21.74,0.22-46.96,9.78-66.89,18.7l-0.58-0.31
		c-8.99-4.77-13.48-10.71-13.48-17.75c0-3.22,0.67-5.71,2.05-7.38c1.33-1.67,3.94-3.44,7.88-5.27c5.6-2.61,9.04-7.32,10.32-14.14
		c1.22-6.82,2.16-26.46,2.83-58.85c-0.78-26.63-1.72-41.6-2.94-44.82c-0.44-1.11-1.05-1.77-1.83-2.11c-0.83-0.33-3.5-0.94-8.04-1.83
		c-3.49-0.61-6.32-2.22-8.49-4.77c-2.16-2.55-3.22-5.6-3.22-9.15c0-4.38,1.5-8.15,4.55-11.48c3-3.33,7.93-6.54,14.75-9.65
		C85.29,111.74,106.37,105.64,121.95,105.41L121.95,105.41z M138.04,166.82l-2.44,44.71c-0.11,1.83-0.17,3.61-0.17,5.33
		c0,3.38,1.44,6.1,4.38,8.15c2.94,2.05,6.82,3.11,11.7,3.11c14.98,0,22.41-12.31,22.41-36.89c0-15.97-3.11-27.18-9.37-33.67
		c-3.94-3.99-8.6-5.99-13.98-5.99C142.87,151.56,138.71,156.61,138.04,166.82L138.04,166.82z M334.68,105.58
		c5.77,0,9.26,0.78,10.48,2.44c1.28,1.61,2.38,6.82,3.38,15.59c0.5,4.77,2.22,7.16,4.99,7.16c2.16,0,4.27-1.61,6.21-4.71
		c8.65-13.53,19.97-20.3,33.95-20.3c9.87,0,17.92,3.16,24.19,9.54c3.05,3.16,5.55,7.21,7.49,12.15c1.94,4.88,2.94,9.65,2.94,14.2
		c0,5.1-1.22,10.32-3.55,15.7c-2.38,5.32-5.49,9.76-9.26,13.2c-6.93,6.66-15.48,9.93-25.52,9.93c-5.55,0-10.15-0.94-13.92-2.94
		c-3.72-1.94-8.65-5.88-14.7-11.81c-2.27-2.27-4.38-3.44-6.32-3.44c-3.05,0-5.05,1.72-5.94,5.1c-0.94,3.44-1.39,10.59-1.39,21.58
		c0,16.31,0.61,27.51,1.78,33.45c0.78,3.27,1.83,5.49,3.16,6.77c1.39,1.22,4.27,2.5,8.71,3.77c9.76,2.94,14.64,8.04,14.64,15.31
		c0,4.36-1.55,8.19-4.55,11.42c-2.17-0.08-4.32,0.48-6.21,1.99c-1.24,0.99-2.16,2.28-2.73,3.73c-1.19,0.42-2.44,0.77-3.76,1.05
		c-2.29,0.48-4.82,0.9-7.59,1.28c-7.7-6.98-19.65-8.73-28.68-1.09l-0.1,0.09c-1.28,1.12-2.77,2.11-4.42,2.98
		c-1.64,0.02-3.31,0.02-5.02,0.02c-19.19,0-33.73-1.72-43.71-5.05c-8.88-3.05-13.31-8.32-13.31-15.75c0-5.66,3.22-10.71,9.71-15.14
		c3.16-2.05,5.32-3.94,6.54-5.6c1.17-1.66,2-3.99,2.44-6.93c1.72-9.82,2.55-28.07,2.55-54.75c0-4.88-0.5-8.38-1.61-10.48
		c-1.05-2.11-3.22-3.83-6.49-5.1c-7.71-3.05-11.54-7.43-11.54-13.15c0-5.21,2.66-9.71,7.93-13.42c5.32-3.72,14.2-7.43,26.68-11.15
		C308.83,108.19,323.03,105.69,334.68,105.58L334.68,105.58z M531.26,104.41c18.86,0,34.83,4.77,47.93,14.31
		c6.93,5.1,11.81,10.93,14.59,17.47c2.72,6.54,4.11,15.59,4.11,27.07l-0.33,24.19c0,16.81,1.22,27.68,3.61,32.67
		c1.16,2.39,2.33,3.88,3.44,4.55c1.05,0.67,3.33,1.22,6.82,1.77c3.44,0.56,5.16,2.83,5.16,6.82c0,5.21-2.05,10.65-6.27,16.25
		c-4.16,5.66-9.54,10.37-16.14,14.14c-8.15,4.77-16.64,7.16-25.52,7.16c-11.37,0-20.36-3.88-26.96-11.71
		c-0.65-0.8-1.28-1.49-1.9-2.06c2.52-2.26,4.09-5.44,3.9-9.77l-0.01-0.21c-0.25-3.46-1.95-5.89-4.28-7.28
		c0.27-1.39,0.44-2.77,0.45-4.13c0.38-8.88-4.37-15.02-10.68-17.56c0.09-1.36,0.14-2.8,0.14-4.31c0-5.99-0.61-9.98-1.89-12.04
		c-1.22-2.05-3.61-3.16-7.04-3.27c-4.77,0-8.93,1.94-12.43,5.88c-3.55,3.88-5.27,8.54-5.27,13.98c0,3.83,0.66,7.09,2,9.83
		c-1.97,3.83-3.61,7.94-4.98,12.09c-5.07,0.07-10.52,0.76-14.74,2.96c-1.78-2.01-4.21-3.42-7.27-3.77
		c-7.67-0.88-13.49,5.73-14.43,12.84c-0.36,2.7-0.03,5.48,0.93,7.95c-1.4,1.23-2.44,2.85-2.92,4.9c-2.09-1.01-4.05-2.15-5.9-3.42
		c-5.71-3.99-10.32-9.26-13.64-15.7c-3.38-6.43-5.05-13.15-5.05-20.19c0-11.32,4.55-21.25,13.65-29.95
		c14.2-13.65,35.45-20.52,63.74-20.63c6.27,0,10.21-0.61,11.87-1.83c1.61-1.28,2.39-4.16,2.39-8.71c0-11.48-1.17-19.8-3.55-24.96
		c-2.39-5.1-6.27-7.71-11.7-7.71c-3.27,0-6.16,1-8.71,2.94c-2.55,1.94-5.71,5.49-9.48,10.71c-9.65,13.76-19.75,20.63-30.23,20.63
		c-5.32,0-9.65-1.55-12.98-4.71c-3.38-3.11-5.05-7.27-5.05-12.31c0-5.21,2.05-10.43,6.27-15.64c4.16-5.16,9.82-9.71,16.97-13.65
		C489.44,109.63,509.9,104.41,531.26,104.41L531.26,104.41z M492.7,270.77c-0.95,0.04-1.91,0.06-2.88,0.06
		c-1.03,0-2.04-0.02-3.04-0.05c0.04-0.75,0.07-1.51,0.1-2.26c0.08-1.34-0.12-2.58-0.53-3.7c2.62,0.29,5.38-0.27,7.57-1.66
		C493.46,265.68,493.05,268.23,492.7,270.77L492.7,270.77z M777.54,184.51l-21.41,59.02c-5.32,14.65-10.65,26.57-16.03,35.83
		c-4.35,7.5-9.15,14.09-14.46,19.77c-1.51-0.74-3.1-1.41-4.74-2c-9.89-3.55-21.45-4.38-31.89-4.38c-4.28,0-8.59,0.07-12.9,0.22
		c1.46-1.19,2.76-2.52,3.9-3.99c0.93,0.36,1.97,0.53,3.12,0.53c3.38,0,6.16-1.44,8.49-4.38c2.27-2.94,3.38-6.55,3.38-10.87
		c0-5.1-2.83-13.65-8.43-25.52l-39.16-83.37c-4.16-8.71-7.21-14.09-9.26-16.25c-2.05-2.16-6.6-4.83-13.65-7.99
		c-2.22-0.83-4.05-2.55-5.66-5.1c-1.55-2.55-2.33-4.99-2.33-7.38c0-9.65,9.6-16.2,28.79-19.69c12.76-2.27,27.35-3.38,43.71-3.38
		c11.48,0,20.52,1.16,27.13,3.55c8.87,3.16,13.31,8.49,13.31,16.09c0,2.72-1.22,5.94-3.72,9.6c-2.39,3.44-3.61,6.55-3.61,9.26
		c0,2.61,0.61,5.33,1.72,8.1c1.16,2.83,3.55,7.6,7.21,14.31c4.16,7.6,7.77,11.37,10.93,11.37c3.33,0,6.82-3.33,10.37-9.98
		c3.6-6.66,5.38-13.09,5.38-19.25c0-4.99-1.39-9.04-4.05-12.2c-4.16-4.88-6.21-9.04-6.21-12.48c0-5.55,3.72-9.98,11.09-13.26
		c7.32-3.33,17.2-4.94,29.57-4.94c22.97,0,34.45,5.49,34.45,16.53c0,4.05-1.17,7.27-3.49,9.71c-2.33,2.44-6.6,4.72-12.76,6.88
		c-5.21,1.94-9.32,5.21-12.37,9.76C789.19,155.89,783.76,167.87,777.54,184.51L777.54,184.51z M620.67,281.14
		c0.82-6.42,3.42-11.92,7.77-16.58c5.38-5.66,11.98-8.54,19.75-8.54c7.82,0,14.09,2.61,18.86,7.82c2.27,2.38,3.83,4.49,4.55,6.32
		c0.1,0.24,0.2,0.51,0.31,0.83c-3.27,0.17-6.36,1.85-7.93,5.61c-1.19,2.34-8.23,3.77-10.41,4.13c-8.34,1.36-17.73,1.16-26.16,0.78
		C625.16,281.41,622.92,281.28,620.67,281.14L620.67,281.14z"/>
	<path class="st0" d="M143.18,468.73c-0.61,1.16-0.72,4.34-0.72,5.32c0,4.22,0.77,8.67,3.5,12.04c0.89,1.1,1.19,2.43,0.86,3.8
		c-0.99,4.14,4.23,6.59,7.67,5.89c2.24-0.46,4.43,0.85,5.1,3.03c0.67,2.18-0.41,4.49-2.52,5.37c-2.47,1.03-4.9,2.19-7.23,3.51
		c-2.11,1.19-4.79,0.45-5.99-1.64c-0.97-1.69-2.24-3.11-3.82-4.25l-0.15-0.11l-0.15-0.1c-4.76-3.15-12.32-3.36-17.86-3.3
		c-21.26,0.21-45.88,9.7-65.13,18.32c-1.28,0.57-2.63,0.53-3.87-0.13l-0.58-0.31c-8.51-4.5-15.83-11.4-15.83-21.65
		c0-3.6,0.71-7.36,3.02-10.14c2.28-2.85,6.2-5,9.46-6.51c4.64-2.16,6.93-5.97,7.84-10.94c0.42-2.3,0.63-4.76,0.82-7.08
		c0.33-4.05,0.55-8.11,0.75-12.17c0.62-12.91,0.92-25.87,1.19-38.79c-0.3-10.26-0.62-20.57-1.29-30.81
		c-0.19-2.93-0.4-5.88-0.75-8.79c-0.11-0.89-0.27-2.54-0.53-3.42c-0.51-0.14-1.08-0.25-1.55-0.36c-1.7-0.38-3.42-0.73-5.05-1.04
		c-4.41-0.77-8.2-2.85-11.09-6.27c-2.91-3.43-4.27-7.52-4.27-12.01c0-5.55,1.97-10.35,5.7-14.45c4.22-4.65,10.54-8.14,16.2-10.7
		c18.81-8.53,44.1-18.54,65.01-18.75c4.15-0.04,11.3,0.03,14.86,2.41c0.05,0.03,0.09,0.06,0.14,0.1c3.68,2.66,4.27,7.93,4.27,12.12
		c0,0.24,0.01,0.67,0.05,1.09c0.55-0.3,1.09-0.63,1.48-0.86c2.16-1.28,4.27-2.67,6.35-4.07c5.73-3.85,12.42-6.52,19.03-8.45
		c5.87-1.72,11.98-2.98,18.11-3.27c0.45-0.02,0.84,0.02,1.28,0.12c1.1,0.27,2.3,0.33,3.4,0.04c0.46-0.12,0.88-0.16,1.36-0.14
		c13.91,0.74,26.07,6.12,36.49,15.33c9.07,8.01,15.76,17.92,20.35,29.08c5.03,12.21,7.49,25.03,7.49,38.24
		c0,27.5-9.07,51.5-28.98,70.63c-7.2,6.92-15.37,12.72-24.62,16.57c-0.63,0.26-1.22,0.37-1.9,0.33c-7.11-0.32-14.26-0.43-21.36,0.09
		c-5.45,0.4-11.06,1.21-16.25,3c-0.82,0.28-1.59,0.32-2.43,0.13c-5.22-1.2-10.3-2.95-15.19-5.13
		C145.28,469.4,143.96,468.85,143.18,468.73L143.18,468.73z M186.27,307.2c-5.59,0.29-11.19,1.47-16.55,3.04
		c-6.01,1.76-12.19,4.18-17.41,7.69c-1.89,1.27-9.41,6.45-11.67,6.45c-4.24,0-5.31-3.93-5.31-7.47c0-1.83-0.15-6.12-1.83-7.37
		c-2.14-1.4-9.08-1.43-11.54-1.41c-9.04,0.09-18.47,2.15-27.12,4.66c-12.12,3.53-24.06,8.36-35.54,13.57
		c-4.86,2.2-10.66,5.32-14.29,9.31c-2.75,3.02-4.18,6.43-4.18,10.53c0,3.1,0.87,5.86,2.88,8.23c2.01,2.37,4.58,3.76,7.65,4.29
		l0.03,0.01c1.82,0.35,3.65,0.72,5.46,1.13c0.89,0.2,1.99,0.43,2.84,0.77l0.04,0.01c1.28,0.55,2.08,1.62,2.6,2.91
		c0.53,1.4,0.77,3.46,0.95,4.95c0.36,3.01,0.58,6.06,0.78,9.09c0.67,10.38,1,20.84,1.31,31.24l0,0.04l0,0.04
		c-0.27,13.01-0.58,26.06-1.2,39.06c-0.2,4.12-0.42,8.25-0.76,12.37c-0.21,2.52-0.44,5.16-0.89,7.66
		c-1.25,6.84-4.74,12.21-11.12,15.18c-2.3,1.07-5.75,2.85-7.37,4.87L44,488.06c-1.41,1.7-1.72,4.34-1.72,6.47
		c0,7.89,6.25,13.06,12.69,16.48c19.99-8.92,44.87-18.33,66.83-18.55c6.83-0.07,14.92,0.31,20.86,4.09
		c-1.44-2.02-2.14-4.53-1.66-7.31c-3.28-4.37-4.38-9.77-4.38-15.17c0-4.19,0.65-11.19,6.31-11.19c1.73,0,3.74,0.76,5.3,1.45
		c4.42,1.98,9.01,3.57,13.72,4.68c5.56-1.87,11.5-2.75,17.34-3.17c7.22-0.53,14.5-0.43,21.73-0.11c8.46-3.57,15.92-8.93,22.52-15.27
		c18.76-18.03,27.19-40.51,27.19-66.43c0-12.44-2.31-24.51-7.05-36.01c-4.26-10.34-10.42-19.51-18.82-26.93
		c-9.38-8.28-20.23-13.15-32.72-13.86C190.21,307.68,188.19,307.64,186.27,307.2L186.27,307.2z M136.62,368.01
		c0.58-8.88,3.99-16.58,13.96-16.58c5.88,0,10.9,2.21,15,6.42c8.32,8.54,9.78,23.36,9.78,34.66c0,16.26-3.16,38.31-23.83,38.31
		c-4.38,0-8.87-0.81-12.52-3.36c-3.23-2.25-4.99-5.37-4.99-9.32c0-1.8,0.07-3.6,0.17-5.4L136.62,368.01L136.62,368.01z
		 M146.74,500.1c0.51,0.59,0.98,1.2,1.41,1.85c0.45-0.24,0.91-0.48,1.37-0.72C148.55,500.96,147.62,500.57,146.74,500.1
		L146.74,500.1z M346.13,317.65c-2.92,1.43-6.08,2.26-9.34,2.25c-8.4,0.22-15.76-3.04-20.65-9.77c-7.96,1.38-15.86,3.39-23.59,5.7
		c-5.35,1.6-10.73,3.37-15.88,5.52c-3.53,1.47-7.25,3.23-10.39,5.43c-4.24,2.97-7.33,6.92-7.33,12.26c0,6.29,5.35,9.74,10.64,11.82
		c2.89,1.14,5.8,2.92,7.23,5.77c1.59,3.02,1.77,7.8,1.77,11.15c0,11.24-0.11,22.53-0.63,33.76c-0.19,4.06-0.43,8.12-0.8,12.17
		c-0.28,3.02-0.62,6.07-1.13,9.03c-0.39,2.59-1.16,5.37-2.68,7.54l-0.02,0.03c-1.71,2.33-4.51,4.39-6.89,5.94
		c-4.81,3.29-9.09,7.81-9.09,13.97c0,7.83,5.39,12.02,12.35,14.41c1.11,0.38,2.25,0.71,3.39,1.02c4.29-1.1,8.93-2.85,12.3-5.8
		l0.1-0.09c4.95-4.19,11.14-6.03,17.56-5.09c8.46,1.24,15.82,7.04,19.2,14.84l0.03,0c0.69-2.81,1.35-5.64,1.88-8.48
		c0.33-1.77,1.13-3.42,2.33-4.77c4.35-4.91,11.03-3.79,16.36-1.36c3.69,1.68,7.66,4.28,9.23,8.13c4.27-3.28,10.14-3.28,14.42,0.22
		c1.39-0.87,2.65-1.89,3.78-3.08c2.82-2.98,4.32-6.5,4.32-10.61c0-8.05-6.68-11.88-13.63-13.95c-2.7-0.8-7.1-2.18-9.24-4.07
		l-0.02-0.02l-0.02-0.02c-1.94-1.86-2.96-4.92-3.56-7.47l-0.01-0.05c-0.82-4.19-1.12-8.77-1.35-13.03
		c-0.37-6.88-0.45-13.8-0.45-20.69c0-4.56,0.06-9.16,0.35-13.71c0.17-2.63,0.4-5.69,1.09-8.24c0.99-3.68,3.33-6.16,7.31-6.16
		c2.84,0,5.4,1.95,7.32,3.85c2.58,2.55,5.27,5.04,8.11,7.31c1.93,1.55,4.06,3.1,6.25,4.26c4.05,2.13,8.73,2.78,13.26,2.78
		c9.43,0,17.7-2.98,24.53-9.53l0.03-0.02c3.88-3.54,6.81-7.93,8.92-12.72c2.11-4.79,3.43-9.87,3.43-15.12
		c0-4.69-1.12-9.33-2.84-13.68c-1.69-4.26-3.98-8.37-7.19-11.68c-0.39-0.4-0.79-0.79-1.2-1.16c-0.13,0.21-0.25,0.42-0.38,0.63
		c-2.72,4.55-6.39,9.11-11.04,11.8c-3.49,2.02-7.47,2.89-11.41,1.79c-5.79-1.62-9.41-6.75-11.25-12.24
		c-1.45,1.63-3.28,2.87-5.43,3.56c-3.41,1.1-6.87,0.73-10.01-0.78c-1.92,2.16-3.65,4.48-5.19,6.92c-1.63,2.58-4.1,5.38-7.42,5.38
		c-4.57,0-6-4.67-6.41-8.43C346.86,322.59,346.54,320.11,346.13,317.65L346.13,317.65z M534.77,433.06
		c1.36-4.01,2.98-7.97,4.96-11.75l0.14-0.25c2.91-5.11,7.38-9.06,13.08-10.7c4.9-1.41,10.26-0.91,14.76,1.51
		c6.73,3.62,9.98,10.56,9.66,18c-0.01,1.15-0.13,2.31-0.31,3.45c2.52,1.86,3.9,4.67,4.13,7.87l0.01,0.23
		c0.38,8.76-5.84,13.61-13.69,15.24c-2.44,4.45-5.07,8.8-7.81,13.08c2.93,0.66,5.94,0.94,8.94,0.94c8.89,0,17.12-2.52,24.8-6.96
		c6.13-3.55,11.48-8.07,15.71-13.76c3.31-4.46,5.99-9.73,5.99-15.4c0-2.91-0.93-4.93-3.96-5.42c-2.01-0.32-5.63-0.89-7.33-1.96
		c-1.78-1.07-3.11-3.33-3.99-5.15c-1.69-3.51-2.41-8.52-2.83-12.36c-0.76-6.89-0.91-14-0.91-20.95l0.33-24.17
		c0-8.45-0.69-18.64-3.99-26.52c-2.91-6.94-8.1-12.47-14.12-16.88c-9.99-7.31-21.4-11.47-33.62-13.15
		c-2.49,1.19-4.88,2.57-7.13,4.18l-0.17,0.12c-2.52,1.72-5.06,3.41-7.71,4.92c-12.2,6.96-25.56,8.07-33.65-4.49
		c-0.56,0.68-1.13,1.35-1.72,2c-5.46,6.09-13.56,10.8-21.94,8.32c-0.58-0.17-1.16-0.38-1.72-0.62l-0.15,0.08
		c-6.21,3.42-12.08,7.75-16.55,13.29c-3.42,4.24-5.95,9.19-5.95,14.75c0,4.39,1.36,8.25,4.6,11.27c3.35,3.13,7.47,4.33,12.01,4.33
		c12.5,0,22.39-10.6,29.07-20.03c2.65-3.74,6.11-8.22,9.78-11.02c2.82-2.15,6.02-3.23,9.57-3.23c6.11,0,10.44,3.04,13,8.54
		c3.27,7.04,3.68,17.91,3.68,25.56c0,3.08-0.29,7.73-2.92,9.83l-0.04,0.03c-2.75,2.01-9.43,2.1-12.71,2.11
		c-22.14,0.07-46.19,4.34-62.75,20.24c-8.27,7.93-13.21,17.36-13.21,28.93c0,6.92,1.69,13.4,4.89,19.53
		c3.04,5.82,7.2,10.81,12.49,14.68c5.24-1.01,11.28,1.74,13.61,6.59c6.68,2.02,13.77,2.75,20.73,2.75c1.74,0,3.49-0.06,5.23-0.2
		c0.25-3,0.48-6,0.6-9c0.11-2.83,1.06-5.41,2.98-7.43c-0.8-2.49-1.03-5.17-0.69-7.75c0.67-5,3.58-9.89,8-12.42
		c-0.23-0.25-0.45-0.52-0.66-0.78c-3.02-3.88-4.02-8.64-4.02-13.47c0-5.7,1.82-10.7,5.63-14.93c3.6-4,8.06-6.35,13.48-6.35l0.05,0
		c3.2,0.1,6.49,1.06,8.21,3.94c1.95,3.14,2.1,9.2,2.1,12.79c0,5.93-0.66,14.11-4.78,19.05
		C528.85,433.44,531.89,433.15,534.77,433.06L534.77,433.06z M704.25,493.36c5.84,0.63,11.67,1.76,17.13,3.72
		c1.33,0.48,2.64,1.01,3.93,1.61c5.22-5.71,9.68-12.07,13.56-18.74c6.45-11.11,11.55-23.54,15.92-35.6l21.42-59.03
		c2.71-7.26,5.57-14.51,8.78-21.56c2.26-4.95,4.78-10.07,7.79-14.62c3.21-4.85,7.61-8.28,13.09-10.32c3.8-1.33,9.37-3.55,12.2-6.52
		c2.3-2.41,3.1-5.46,3.1-8.72c0-1.74-0.32-3.44-1.08-5.02c-4.55-9.44-23.21-10.09-31.95-10.09c-9.4,0-20.31,0.92-28.98,4.81
		c-5.03,2.26-10.25,5.87-10.25,11.96c0,4.03,3.4,8.64,5.88,11.56c3.16,3.73,4.39,8.3,4.39,13.12c0,7.03-2.25,13.78-5.55,19.92
		c-2.19,4.08-6.3,10.73-11.63,10.73c-5.33,0-10-8.12-12.18-12.11c-1.56-2.86-3.11-5.74-4.57-8.65c-0.95-1.89-1.91-3.84-2.71-5.81
		c-1.11-2.74-1.82-5.67-1.82-8.63c0-3.6,1.87-7.18,3.86-10.07c1.68-2.45,3.47-5.73,3.47-8.79c0-7.95-5.32-12.22-12.37-14.75
		c-8.06-2.89-18.15-3.47-26.64-3.47c-14.45,0-29.22,0.79-43.46,3.36c-9.3,1.68-27.62,5.9-27.62,18.29c0,2.39,0.87,4.62,2.12,6.63
		c1.2,1.93,2.77,3.7,4.95,4.52l0.04,0.02l0.04,0.02c4.1,1.84,10.98,5.02,14.1,8.31c1.55,1.63,2.95,3.99,4.07,5.93
		c1.98,3.46,3.76,7.09,5.45,10.69l39.16,83.37c2.14,4.55,4.19,9.22,5.86,13.97c0.93,2.65,1.85,5.56,2.34,8.4
		c1.12-0.43,2.39-1.03,2.72-1.61c1.21-2.85,3.36-4.98,6.35-5.92c2.63-0.83,5.52-0.61,8.09,0.34c6.12,2.27,9.77,8.27,6.93,14.58
		C716.97,486.25,711.06,490.63,704.25,493.36L704.25,493.36z M642.31,496.29c-1.43-0.12-2.85-0.25-4.28-0.37
		c-4.43-0.37-8.94-0.76-13.39-0.82c-0.61-0.01-1.21-0.02-1.82-0.02c0.53,2.07,1.28,4.08,2.26,5.98
		C630.6,498.87,636.47,497.36,642.31,496.29L642.31,496.29z M625.72,471.81c5.62,0.04,11.23,0.6,16.82,1.04
		c7,0.56,14,1.12,21.01,1.43c2.53,0.11,5.06,0.21,7.59,0.25c-0.26-0.87-0.55-1.74-0.88-2.56c-0.83-2.08-2.72-4.26-4.26-5.87
		l-0.02-0.02c-4.75-5.2-10.82-7.36-17.81-7.36c-7.4,0-13.63,2.73-18.71,8.1C628.03,468.35,626.78,470.02,625.72,471.81
		L625.72,471.81z M353.71,327.58c0.76-0.34,1.99-2.1,2.31-2.6c1.93-3.05,4.12-5.94,6.58-8.58c1.41-1.52,3.62-1.86,5.43-0.83
		c1.99,1.14,4.12,1.54,6.34,0.83c1.74-0.56,3.03-1.79,3.88-3.38c0.88-1.67,2.63-2.56,4.5-2.31c1.87,0.26,3.31,1.59,3.71,3.43
		c0.92,4.24,3.36,9.58,7.94,10.86c6.68,1.87,12.97-6.11,15.87-10.96c0.41-0.68,0.81-1.36,1.21-2.05c0.67-1.16,1.71-1.89,3.03-2.12
		c1.32-0.24,2.55,0.08,3.58,0.93c1.03,0.85,2.02,1.75,2.95,2.71c3.75,3.87,6.45,8.61,8.42,13.6c1.99,5.04,3.25,10.39,3.25,15.82
		c0,6.07-1.49,11.94-3.92,17.48c-2.43,5.52-5.82,10.56-10.29,14.65c-7.91,7.57-17.61,11.12-28.53,11.12
		c-5.51,0-11.06-0.86-15.98-3.45c-5.57-2.93-11.29-8.18-15.75-12.58c-0.57-0.56-2.34-2.17-3.22-2.17c-1.17,0-1.39,0.77-1.67,1.83
		c-0.57,2.14-0.76,4.9-0.9,7.1c-0.28,4.42-0.34,8.9-0.34,13.33c0,6.78,0.08,13.6,0.44,20.38c0.21,3.94,0.48,8.25,1.23,12.13
		c0.29,1.21,0.95,3.52,1.84,4.45c1.32,1.07,5.44,2.33,6.97,2.79c9.59,2.85,17.8,8.71,17.8,19.54c0,5.61-2.07,10.57-5.93,14.63
		c-1.77,1.86-3.8,3.42-6.04,4.67c-1.73,0.97-3.81,0.69-5.23-0.7c-2.55-2.49-6.28-2.24-8.59,0.44c-1.17,1.36-2.94,1.86-4.65,1.33
		c-1.71-0.53-2.88-1.95-3.07-3.73c-0.3-2.78-4.24-4.95-6.49-5.98c-2.72-1.24-7.2-2.74-9.56-0.08c-0.5,0.56-0.82,1.24-0.96,1.97
		c-0.6,3.21-1.35,6.39-2.14,9.56c-0.09,0.38-0.22,0.69-0.4,1.04l-0.17,0.32c-0.78,1.44-2.17,2.28-3.8,2.31l-2.01,0.04
		c-1.89,0.04-3.52-1.06-4.2-2.83c-4.28-11.15-18.33-16.44-27.91-8.32l-0.05,0.04c-4.19,3.67-9.72,5.81-15.07,7.14
		c-0.76,0.19-1.44,0.18-2.2-0.02c-1.39-0.37-2.78-0.77-4.14-1.23c-9.39-3.22-16.3-9.51-16.3-19.93c0-8.21,5.14-14.35,11.63-18.79
		c0.03-0.02,0.06-0.04,0.09-0.06c1.71-1.11,4.12-2.8,5.36-4.47c0.94-1.37,1.42-3.41,1.67-5.02c0.01-0.04,0.01-0.07,0.02-0.1
		c1.16-6.61,1.55-13.79,1.86-20.49c0.52-11.14,0.63-22.34,0.63-33.49c0-2.11-0.09-6.52-1.1-8.43c-0.01-0.03-0.03-0.05-0.04-0.08
		c-0.71-1.41-2.78-2.43-4.16-2.97c-7.69-3.03-14.33-8.36-14.33-17.25c0-7.29,3.98-12.95,9.81-17.04
		c7.63-5.35,19.08-9.12,27.95-11.77c8.26-2.46,16.68-4.58,25.18-6.01c1.75-0.29,3.4,0.42,4.39,1.89c3.77,5.59,9.48,8.13,16.18,7.96
		c0.04,0,0.08,0,0.12,0c2.92,0,5.68-0.92,8.17-2.4c1.27-0.76,2.71-0.84,4.06-0.23c1.35,0.61,2.24,1.73,2.53,3.18
		c0.63,3.23,1.07,6.52,1.43,9.8C353,325.04,353.27,326.84,353.71,327.58L353.71,327.58z M520.32,404.2
		c-3.72,0.02-6.6,1.68-9.07,4.42c-2.85,3.16-4.13,6.77-4.13,11.02c0,3.47,0.6,7.08,2.79,9.88c0.39,0.51,0.84,0.97,1.33,1.38
		c1.25,1.03,1.81,2.54,1.54,4.14c-0.27,1.6-1.29,2.84-2.81,3.4c-3.47,1.29-5.75,5.09-6.22,8.64c-0.26,1.93-0.04,3.96,0.67,5.77
		c0.68,1.76,0.22,3.67-1.2,4.91c-1.18,1.04-1.65,2.4-1.71,3.95c-0.13,3.5-0.42,6.98-0.71,10.47c-0.18,2.14-1.84,3.82-3.98,4.02
		c-2.32,0.22-4.64,0.33-6.97,0.33c-7.77,0-15.66-0.87-23.09-3.21c-1.31-0.41-2.27-1.3-2.78-2.58c-1.08-2.72-4.92-4.3-7.68-3.59
		c-1.3,0.34-2.55,0.1-3.65-0.67c-6.29-4.45-11.24-10.28-14.8-17.11c-3.63-6.97-5.55-14.38-5.55-22.23c0-13.17,5.58-24.1,15-33.14
		c17.73-17.01,43.03-21.79,66.78-21.86c1.67-0.01,7.4-0.11,9.14-0.91c0.61-1.01,0.72-4.23,0.72-5.21c0-6.59-0.32-17.03-3.14-23.1
		c-1.59-3.43-3.88-5.16-7.7-5.16c-2.27,0-4.23,0.66-6.04,2.04c-3.14,2.39-6.29,6.55-8.55,9.74c-7.91,11.17-19.17,22.5-33.84,22.5
		c-6.03,0-11.55-1.76-15.99-5.9c-4.42-4.13-6.45-9.52-6.45-15.54c0-6.94,2.96-13.11,7.25-18.42c4.96-6.15,11.39-10.95,18.28-14.74
		c0.03-0.01,0.05-0.03,0.08-0.04l0.79-0.41c1.28-0.67,2.66-0.69,3.96-0.07c6.4,3.07,13.24-1.34,17.45-6.04
		c0.83-0.93,1.64-1.9,2.41-2.88c0.6-0.77,1.33-1.26,2.27-1.53l0.52-0.15c1.99-0.57,4.04,0.28,5.05,2.08
		c6.28,11.14,16.8,9.37,26.57,3.79c2.52-1.44,4.93-3.05,7.27-4.64l0.11-0.08c2.65-1.9,5.48-3.52,8.43-4.9
		c0.8-0.37,1.58-0.49,2.45-0.38c13.35,1.77,25.82,6.31,36.71,14.28c6.89,5.04,12.72,11.39,16.05,19.33
		c3.64,8.67,4.45,19.47,4.45,28.78c0,0.02,0,0.04,0,0.06l-0.33,24.12c0,7.06,0.09,24.37,3.17,30.76c0.3,0.63,1.16,2.26,1.75,2.69
		c0.02,0.01,0.03,0.02,0.02,0.01c1.01,0.53,4.06,0.99,5.21,1.18c5.92,0.95,8.87,5.38,8.87,11.18c0,6.99-3.04,13.38-7.14,18.89
		c-4.71,6.33-10.65,11.38-17.47,15.33c-8.57,4.96-17.81,7.75-27.73,7.75c-4.19,0-8.38-0.49-12.42-1.64
		c-1.39-0.4-2.41-1.34-2.92-2.69c-0.51-1.35-0.36-2.74,0.43-3.95c3.16-4.88,6.19-9.85,8.97-14.95c0.66-1.21,1.73-1.99,3.08-2.23
		c5.23-0.96,9.84-3.43,9.58-9.32l-0.01-0.14c-0.11-1.61-0.73-2.97-2.14-3.81c-1.62-0.97-2.42-2.77-2.06-4.62
		c0.21-1.1,0.36-2.22,0.37-3.34c0-0.05,0-0.09,0-0.14c0.22-5.25-1.85-10.1-6.6-12.66c-3.16-1.7-6.94-2.03-10.38-1.04
		c-4.23,1.21-7.47,4.2-9.58,7.91l-0.09,0.16c-1.97,3.77-3.56,7.76-4.89,11.79c-0.6,1.82-2.22,3.01-4.13,3.03
		c-4.11,0.06-9.09,0.55-12.76,2.46c-1.82,0.95-3.98,0.55-5.35-0.99c-0.19-0.21-0.39-0.42-0.61-0.61c-1.21-1.09-1.71-2.63-1.36-4.22
		c0.34-1.59,1.43-2.79,2.99-3.28c5.74-1.81,6.13-12.46,6.13-17.16c0-2.05-0.11-7.92-1.22-9.71c-0.02-0.03-0.03-0.05-0.04-0.07
		C523.11,404.42,521.25,404.23,520.32,404.2L520.32,404.2z M532.13,461.89c-0.96,0.57-1.89,1.23-2.78,1.9
		c-1.3,0.97-2.65,1.87-4.02,2.74c-1.42,0.89-3.1,0.93-4.55,0.09c-1.45-0.84-2.27-2.3-2.21-3.98l0-0.07c0-0.04,0-0.07,0.01-0.11
		c0.04-0.65-0.04-1.29-0.26-1.9c-0.55-1.48-0.31-3.01,0.66-4.25c0.97-1.24,2.4-1.85,3.96-1.67c1.6,0.17,3.36-0.13,4.72-1
		c1.51-0.96,3.34-0.94,4.83,0.06c1.49,1,2.2,2.69,1.88,4.45l-0.13,0.74C533.98,460.18,533.27,461.22,532.13,461.89L532.13,461.89z
		 M622.81,346.5c-3.36-1.3-5.84-3.83-7.72-6.86c-1.83-2.95-2.99-6.21-2.99-9.7c0-16.2,19.66-21.73,32.42-24.04
		c14.58-2.63,29.7-3.45,44.5-3.45c9.23,0,19.86,0.67,28.61,3.81c9.44,3.38,16.24,9.74,16.24,20.24c0,4.35-2.08,8.58-4.49,12.1
		c-1.23,1.78-2.83,4.52-2.83,6.76c0,2.2,0.57,4.41,1.4,6.44c1.87,4.61,4.61,9.48,7,13.86c1.34,2.45,2.96,5.19,4.84,7.26
		c0.39,0.43,1.65,1.71,2.22,1.81c2.08,0,5.69-6.18,6.49-7.66c2.84-5.28,4.85-11.11,4.85-17.16c0-3.41-0.76-6.7-3-9.35
		c-3.53-4.16-7.26-9.66-7.26-15.34c0-8.61,6.39-14,13.7-17.28c9.49-4.26,21.08-5.32,31.37-5.32c11.67,0,31.3,1.13,37.21,13.39
		c1.14,2.37,1.65,4.93,1.65,7.55c0,4.79-1.36,9.24-4.71,12.75c-3.6,3.77-9.65,6.3-14.41,7.97c-4.29,1.6-7.7,4.24-10.23,8.06
		c-2.84,4.28-5.22,9.15-7.34,13.82c-3.16,6.92-5.96,14.05-8.61,21.14l-21.41,59.02c-4.5,12.4-9.73,25.13-16.36,36.55
		c-4.28,7.36-9.23,14.34-15.05,20.56c-1.35,1.44-3.4,1.82-5.17,0.95c-1.39-0.68-2.82-1.28-4.28-1.81c-7.2-2.58-15.2-3.58-22.8-3.95
		c-2.21-0.11-3.97-1.79-4.18-3.99c-0.21-2.2,1.2-4.19,3.35-4.71c7.76-1.89,15.6-5.46,19.05-13.13c0.54-1.21,0.68-2.42,0.09-3.63
		c-0.71-1.46-2.24-2.54-3.73-3.09c-2.82-1.05-5.79-0.58-7.04,2.42c-0.05,0.11-0.09,0.2-0.14,0.3c-1.45,2.84-4.93,4.25-7.81,5.13
		c-1.3,0.4-2.58,0.21-3.72-0.54s-1.81-1.86-1.96-3.21c-0.31-2.91-1.32-6.09-2.29-8.84c-1.61-4.56-3.59-9.05-5.64-13.43l-39.16-83.37
		c-1.63-3.46-3.33-6.95-5.24-10.27c-0.85-1.48-2.05-3.57-3.23-4.82C632.58,350.96,626.01,347.94,622.81,346.5L622.81,346.5z
		 M655.29,500.25c-3.92,0.47-7.83,1.04-11.71,1.74c-5.91,1.07-11.89,2.61-17.44,4.94c-2.07,0.87-4.44,0.07-5.55-1.88
		c-1.87-3.29-3.17-6.84-3.89-10.55c-0.26-1.34,0.06-2.6,0.92-3.65c0.87-1.05,2.04-1.61,3.4-1.61c1.23,0,2.47,0.01,3.7,0.02
		c4.59,0.07,9.23,0.46,13.8,0.84c5.52,0.46,11.04,0.97,16.56,1.36c2.28,0.16,4.05,2.01,4.1,4.3
		C659.24,498.05,657.56,499.98,655.29,500.25L655.29,500.25z M670.27,462.11c2.1,2.2,4.28,4.86,5.42,7.7
		c0.64,1.6,1.14,3.33,1.6,4.99c0.38,1.38,0.12,2.73-0.74,3.87c-0.87,1.14-2.1,1.74-3.54,1.73c-3.24-0.02-6.48-0.13-9.72-0.28
		c-7.08-0.32-14.15-0.88-21.22-1.45c-5.47-0.44-10.97-0.99-16.46-1.02l-2.29-0.01c-1.56-0.01-2.89-0.75-3.72-2.08
		s-0.91-2.85-0.23-4.25c1.51-3.12,3.47-5.97,5.85-8.49c6.18-6.54,13.95-9.92,22.95-9.92C656.81,452.89,664.41,455.72,670.27,462.11
		L670.27,462.11z M142.45,368.35l-2.44,44.71c-0.09,1.69-0.16,3.39-0.16,5.09c0,2.04,0.83,3.37,2.5,4.53
		c2.61,1.82,6.06,2.31,9.18,2.31c2.88,0,5.72-0.54,8.2-2.06c8.82-5.39,9.79-21.36,9.79-30.42c0-9.49-1.09-23.37-8.12-30.59
		c-3-3.08-6.51-4.66-10.82-4.66c-1.51,0-3.1,0.25-4.36,1.13C143.37,360.38,142.65,365.24,142.45,368.35L142.45,368.35z"/>
	<path class="st1" d="M121.95,306.7c6.6,0,10.71,0.55,12.37,1.66c1.61,1.16,2.44,3.99,2.44,8.54c0,3.99,1.28,6.05,3.88,6.05
		c1.05,0,4.71-2.05,10.87-6.21c4.66-3.11,10.59-5.77,17.81-7.88c6.2-1.81,11.87-2.85,17.08-3.1c1.84,0.46,3.78,0.49,5.58,0.02
		c12.52,0.67,23.8,5.41,33.8,14.23c8.21,7.27,14.64,16.42,19.19,27.46c4.77,11.59,7.16,23.8,7.16,36.56
		c0,27.29-9.21,49.81-27.62,67.45c-7.24,7.02-14.99,12.24-23.26,15.68c-7.34-0.33-14.71-0.43-21.88,0.09
		c-5.73,0.42-11.78,1.3-17.37,3.23c-4.72-1.08-9.51-2.7-14.38-4.86c-1.94-0.89-3.55-1.33-4.71-1.33c-3.27,0-4.88,3.27-4.88,9.76
		c0,6.2,1.5,11.13,4.48,14.81c-1.79,7.47,6.28,12.58,12.84,11.24c-2.64,1.1-5.22,2.34-7.71,3.74c-1.23-2.13-2.88-4.05-5.05-5.62
		l-0.22-0.16l-0.23-0.15c-5.66-3.77-13.74-4.1-20.34-4.04c-21.74,0.22-46.96,9.78-66.89,18.7l-0.58-0.31
		c-8.99-4.77-13.48-10.71-13.48-17.75c0-3.22,0.67-5.71,2.05-7.38c1.33-1.66,3.94-3.44,7.88-5.27c5.6-2.61,9.04-7.32,10.32-14.14
		c1.22-6.82,2.16-26.46,2.83-58.85c-0.78-26.63-1.72-41.6-2.94-44.82c-0.44-1.11-1.05-1.77-1.83-2.11c-0.83-0.33-3.5-0.94-8.04-1.83
		c-3.49-0.61-6.32-2.22-8.49-4.77c-2.16-2.55-3.22-5.6-3.22-9.15c0-4.38,1.5-8.15,4.55-11.48c3-3.33,7.93-6.54,14.75-9.65
		C85.29,313.03,106.37,306.92,121.95,306.7L121.95,306.7z M138.04,368.11l-2.44,44.71c-0.11,1.83-0.17,3.61-0.17,5.33
		c0,3.38,1.44,6.1,4.38,8.15c2.94,2.05,6.82,3.11,11.7,3.11c14.98,0,22.41-12.31,22.41-36.89c0-15.97-3.11-27.18-9.37-33.67
		c-3.94-3.99-8.6-5.99-13.98-5.99C142.87,352.85,138.71,357.9,138.04,368.11L138.04,368.11z M347.17,315.47
		c0.48,2.47,0.94,5.61,1.37,9.43c0.5,4.77,2.22,7.16,4.99,7.16c2.16,0,4.27-1.61,6.21-4.71c1.9-2.97,3.93-5.62,6.09-7.94
		c2.97,1.7,6.36,2.33,9.89,1.2c2.85-0.92,5.05-2.92,6.43-5.52c3.68,16.88,19.83,21.43,31.91,1.23c0.42-0.69,0.83-1.39,1.24-2.09
		c0.89,0.73,1.75,1.52,2.58,2.36c3.05,3.16,5.55,7.21,7.49,12.15c1.94,4.88,2.94,9.65,2.94,14.2c0,5.1-1.22,10.32-3.55,15.7
		c-2.38,5.32-5.49,9.76-9.26,13.2c-6.93,6.66-15.48,9.93-25.52,9.93c-5.55,0-10.15-0.94-13.92-2.94c-3.72-1.94-8.65-5.88-14.7-11.81
		c-2.27-2.27-4.38-3.44-6.32-3.44c-3.05,0-5.05,1.72-5.94,5.1c-0.94,3.44-1.39,10.6-1.39,21.58c0,16.31,0.61,27.51,1.78,33.45
		c0.78,3.27,1.83,5.49,3.16,6.77c1.39,1.22,4.27,2.5,8.71,3.77c9.76,2.94,14.64,8.04,14.64,15.31c0,4.44-1.61,8.32-4.71,11.59
		c-1.45,1.53-3.11,2.81-4.99,3.86c-3.83-3.74-10.56-4.45-15.02,0.71c-0.51-4.66-5.05-7.7-9.05-9.52c-4.67-2.13-10.79-3.4-14.7,1.01
		c-1.03,1.16-1.71,2.57-1.99,4.09c-0.59,3.13-1.32,6.22-2.09,9.31l-0.17,0.32l-2.01,0.04c-5.24-13.64-22.7-20.4-34.89-10.11
		l-0.1,0.09c-3.28,2.87-7.88,4.85-13.23,6.18c-1.35-0.36-2.63-0.74-3.84-1.14c-8.88-3.05-13.31-8.32-13.31-15.75
		c0-5.66,3.22-10.71,9.71-15.14c3.16-2.05,5.32-3.94,6.54-5.6c1.17-1.66,2-3.99,2.44-6.93c1.72-9.82,2.55-28.07,2.55-54.75
		c0-4.88-0.5-8.38-1.61-10.48c-1.05-2.11-3.22-3.83-6.49-5.1c-7.71-3.05-11.54-7.43-11.54-13.15c0-5.21,2.66-9.71,7.93-13.42
		c5.32-3.72,14.2-7.43,26.68-11.15c8.94-2.67,17.15-4.63,24.65-5.89c4.1,6.09,10.77,10.15,19.96,9.9
		C340.48,318.49,344.01,317.35,347.17,315.47L347.17,315.47z M544.5,306.55c13.21,1.76,24.78,6.24,34.69,13.47
		c6.93,5.1,11.81,10.93,14.59,17.47c2.72,6.54,4.11,15.59,4.11,27.07l-0.33,24.19c0,16.81,1.22,27.68,3.61,32.67
		c1.16,2.39,2.33,3.88,3.44,4.55c1.05,0.67,3.33,1.22,6.82,1.77c3.44,0.56,5.16,2.83,5.16,6.82c0,5.21-2.05,10.65-6.27,16.25
		c-4.16,5.66-9.54,10.37-16.14,14.15c-8.15,4.77-16.64,7.16-25.52,7.16c-4.03,0-7.77-0.49-11.2-1.47
		c3.22-4.97,6.32-10.06,9.14-15.24c7.17-1.31,13.57-5.4,13.2-13.91l-0.01-0.21c-0.25-3.46-1.95-5.89-4.28-7.28
		c0.27-1.39,0.44-2.77,0.45-4.13c0.85-20.09-24.55-26.2-34.85-8.09l-0.12,0.23c-2.06,3.93-3.76,8.18-5.17,12.46
		c-5.07,0.07-10.52,0.76-14.74,2.96c-0.3-0.34-0.62-0.66-0.96-0.97c6.14-1.94,9.22-9.07,9.22-21.37c0-5.99-0.61-9.98-1.89-12.04
		c-1.22-2.05-3.61-3.16-7.04-3.27c-4.77,0-8.93,1.94-12.43,5.88c-3.55,3.88-5.27,8.54-5.27,13.98c0,5.21,1.22,9.38,3.72,12.59
		c0.62,0.78,1.29,1.48,2,2.07c-4.91,1.83-8.35,6.87-9.06,12.19c-0.36,2.7-0.03,5.48,0.93,7.95c-1.86,1.64-3.09,3.98-3.21,7.09
		c-0.13,3.37-0.41,6.8-0.7,10.27c-2.15,0.21-4.33,0.31-6.55,0.31c-8.15,0-15.41-1.01-21.77-3.01c-1.87-4.73-7.88-7.52-12.88-6.23
		c-5.62-3.98-10.15-9.2-13.44-15.55c-3.38-6.44-5.05-13.15-5.05-20.19c0-11.32,4.55-21.24,13.65-29.95
		c14.2-13.64,35.45-20.52,63.74-20.63c6.27,0,10.21-0.61,11.87-1.83c1.61-1.28,2.39-4.16,2.39-8.71c0-11.48-1.17-19.8-3.55-24.96
		c-2.39-5.1-6.27-7.71-11.7-7.71c-3.27,0-6.16,1-8.71,2.94c-2.55,1.94-5.71,5.49-9.48,10.71c-9.65,13.76-19.75,20.64-30.23,20.64
		c-5.32,0-9.65-1.55-12.98-4.71c-3.38-3.11-5.05-7.27-5.05-12.31c0-5.21,2.05-10.43,6.27-15.64c4.16-5.16,9.82-9.71,16.97-13.65
		l0.79-0.41c6.69,3.21,15.31,1.12,22.65-7.07c0.89-1,1.76-2.04,2.6-3.11l0.52-0.15c7.29,12.94,19.93,12.69,32.61,5.46
		c2.62-1.5,5.12-3.17,7.62-4.87l0.15-0.11C539.19,309.3,541.78,307.82,544.5,306.55L544.5,306.55z M529.88,458.09
		c-0.98,0.58-2.03,1.3-3.16,2.15c-1.23,0.9-2.48,1.75-3.74,2.55l0-0.07c0.08-1.34-0.12-2.58-0.53-3.7c2.62,0.29,5.38-0.27,7.57-1.66
		L529.88,458.09L529.88,458.09z M777.54,385.8l-21.41,59.02c-5.32,14.65-10.65,26.57-16.03,35.83c-4.36,7.5-9.15,14.09-14.46,19.77
		c-1.51-0.74-3.09-1.41-4.74-2c-7.48-2.68-15.91-3.81-24.08-4.2c10.12-2.46,18.23-7.16,22.03-15.61
		c5.11-11.37-13.97-19.32-18.78-7.81c-0.63,1.23-2.87,2.21-5.17,2.91c-0.56-5.21-3.35-13.13-8.32-23.67l-39.16-83.37
		c-4.16-8.71-7.21-14.09-9.26-16.25c-2.05-2.16-6.6-4.83-13.65-7.99c-2.22-0.83-4.05-2.55-5.66-5.1c-1.55-2.55-2.33-4.99-2.33-7.38
		c0-9.65,9.6-16.2,28.79-19.69c12.76-2.27,27.35-3.38,43.71-3.38c11.48,0,20.52,1.16,27.13,3.55c8.87,3.16,13.31,8.49,13.31,16.09
		c0,2.72-1.22,5.94-3.72,9.6c-2.39,3.44-3.61,6.55-3.61,9.26c0,2.61,0.61,5.33,1.72,8.1c1.16,2.83,3.55,7.6,7.21,14.31
		c4.16,7.6,7.77,11.37,10.93,11.37c3.33,0,6.82-3.33,10.37-9.98c3.6-6.66,5.38-13.09,5.38-19.25c0-4.99-1.39-9.04-4.05-12.2
		c-4.16-4.88-6.21-9.04-6.21-12.48c0-5.55,3.72-9.98,11.09-13.26c7.32-3.33,17.2-4.94,29.57-4.94c22.97,0,34.45,5.49,34.45,16.53
		c0,4.05-1.17,7.27-3.49,9.71c-2.33,2.44-6.6,4.72-12.76,6.88c-5.21,1.94-9.32,5.21-12.37,9.76
		C789.19,357.18,783.76,369.16,777.54,385.8L777.54,385.8z M654.77,495.87c-4.02,0.48-8.01,1.07-11.97,1.78
		c-5.98,1.08-12.42,2.72-18.37,5.22c-1.62-2.84-2.75-5.92-3.4-9.21c1.22,0,2.43,0.01,3.62,0.02
		C632.2,493.79,643.05,495.05,654.77,495.87L654.77,495.87z M623.36,473.22c1.28-2.66,2.98-5.12,5.08-7.38
		c5.38-5.66,11.98-8.54,19.75-8.54c7.82,0,14.09,2.61,18.86,7.82c2.27,2.38,3.83,4.49,4.55,6.32c0.39,0.96,0.87,2.46,1.45,4.54
		c-3.25-0.02-6.46-0.14-9.55-0.27c-7.03-0.32-14.05-0.87-21.06-1.44c-5.53-0.44-11.24-0.98-16.79-1.04L623.36,473.22L623.36,473.22z
		"/>
	<path d="M320.58,282.79c-3.84,12.33,0.61,28.71,15.97,28.31c5.86,0,11.12-4.45,14.35-9.5c4.7-0.2,9.06-3.71,12.73-8.13
		c-0.51,3.3-0.77,6.38-0.6,8.94c0.61,8.29,9.91,15.16,12.74,8.9c4.04-8.9,8.49-18.6,13.14-27.09c2.22-4.25,2.63-2.63,2.22,1.01
		c-0.61,6.47-1.62,12.74-2.22,19.21c-1.42,16.58,8.09,26.08,18.8,8.09c4.65-7.68,10.72-19.81,17.19-33.36
		c1.21-2.63-3.84-4.85-5.26-2.02c-8.09,17.39-13.34,27.7-16.38,33.36c-3.64,6.87-3.84,3.23-3.24-3.23
		c0.81-7.68,2.22-17.99,2.43-20.62c1.42-16.58-9.3-20.82-16.98-7.68c-4.25,7.08-7.68,14.56-11.12,22.04
		c1.42-9.3,3.84-18.4,5.66-27.29c0.61-2.83-9.91-9.5-10.72-5.26c-0.61,2.81-1.48,6.2-2.38,9.8c-5.22,10.17-9.67,15.13-13.19,16.89
		c1.01-3.44,1.21-8.29-2.22-10.51c-0.4-12.94-15.16-20.02-24.26-12.33c-14.76,12.94-44.88,10.92-73.19,9.1
		c-30.93-2.02-60.05-4.04-67.93,14.15c-1.42,3.03,4.25,4.45,5.26,1.82c6.07-13.95,32.96-12.13,61.87-10.31
		C277.51,288.65,302.99,290.27,320.58,282.79L320.58,282.79z M345.45,284c-2.02,0.61-3.44,2.22-4.25,4.25
		c-1.42,4.04,0.61,9.3,4.04,11.73c-2.02,3.03-5.05,5.46-8.29,5.46c-9.7,0-8.09-20.22-1.42-25.68
		C340.19,276.12,344.03,278.95,345.45,284L345.45,284z M348.68,292.09l-0.61,2.43c-0.4-0.4-0.61-1.01-1.01-1.62
		C347.67,292.9,348.28,292.7,348.68,292.09L348.68,292.09z M479.49,268.23c0.2-3.44-10.92-5.66-11.12-0.61
		c-0.4,10.72-2.63,24.87-1.01,35.38c2.22,13.55,11.73,15.57,20.42,5.86c3.98-4.45,7.89-10.66,11.22-16.9
		c0.29,4.55,1.06,8.78,2.52,12.25c7.08,16.78,21.43,7.28,30.93,0.81c15.77-11.32,37.4-13.14,56.21-12.94
		c22.64,0.4,77.64,10.92,87.34-10.72c1.01-2.22-4.25-4.45-5.26-1.82c-7.28,16.17-62.47,7.08-81.28,6.87
		c-20.42-0.2-43.06,1.82-60.05,13.95c-6.47,4.45-15.97,13.95-18.6,0.61c-1.42-7.28-0.4-18.2,0-22.04
		c5.46-8.09,10.92-16.78,14.96-24.67c6.07-0.2,10.72-2.02,10.51-6.67c-0.2-2.83-4.85-2.43-5.26,0.81c-0.2,0.2-2.02,0.2-2.43,0.2
		l1.42-3.23c1.41-3.84,2.43-7.28,2.43-9.91c0.61-12.13-14.35-15.97-21.03-4.25c-2.22,4.25-4.45,9.91-6.27,16.58
		c-6.27-0.4-19.61-1.01-20.22,7.28c-0.2,3.44,5.86,3.23,5.86,0c-0.2-2.02,10.72-1.62,12.74-1.62c-1.36,5.56-3.43,15.26-4.29,25.25
		c-3.67,8.73-9.2,18.66-14.91,25.9c-6.87,8.49-6.47,3.03-6.47-4.85C477.87,289.46,479.09,278.75,479.49,268.23L479.49,268.23z
		 M476.86,246.8c-3.64-0.4-5.86,3.44-6.27,6.47c-0.4,3.03,0.81,7.28,4.45,7.68c3.44,0.61,5.86-3.23,6.07-6.27
		C481.51,251.45,480.3,247.21,476.86,246.8L476.86,246.8z M524.78,243.77l-2.22,4.85c-1.62,0-3.44,0-5.46-0.2
		c1.62-4.85,3.24-8.9,4.85-11.52c1.21-2.22,5.05-5.66,4.85-1.01C526.6,237.91,525.99,240.53,524.78,243.77L524.78,243.77z
		 M512.85,266.01c0.81-4.04,1.62-8.09,2.63-11.73c1.42,0,2.83,0,4.04,0.2C517.7,258.12,515.28,261.96,512.85,266.01L512.85,266.01z"
		/>
	<path class="st0" d="M143.18,670.02c-0.61,1.16-0.72,4.34-0.72,5.32c0,0.72,0.02,1.44,0.07,2.17c0.09,1.34-0.35,2.52-1.31,3.46
		c-0.96,0.94-2.15,1.37-3.49,1.25c-9.52-0.85-19.04-1.71-28.61-1.97c-15.79-0.43-44.27,0-51.83,17.27l-0.06,0.14
		c-0.6,1.5-0.7,3,0.22,4.39c0.87,1.32,2.43,2.21,3.94,2.59c2.78,0.7,5.46-0.11,6.62-2.91c0.02-0.04,0.03-0.07,0.05-0.1
		c3.38-7.55,17.47-8.75,24.61-9.22c6.84-0.45,13.83-0.41,20.68-0.1c13.68,0.62,27.29,2.58,40.98,2.96l0.47,0.01
		c1.04,0.03,1.92,0.37,2.72,1.04c0.73,0.61,1.47,1.28,2.07,2.01c2.02,2.47,2.5,5.92,2.5,9.01c0,9.07-5.48,15.18-13.36,19
		c-9.69,4.7-22.03,5.77-32.66,5.77c-22.23,0-44.07-4.15-63.81-14.66c-8.49-4.52-15.82-11.4-15.82-21.65c0-3.6,0.71-7.36,3.02-10.14
		c2.28-2.85,6.2-5,9.46-6.51c4.64-2.16,6.93-5.97,7.84-10.94c0.42-2.3,0.63-4.76,0.82-7.08c0.33-4.05,0.55-8.11,0.75-12.17
		c0.62-12.91,0.92-25.87,1.19-38.79c-0.3-10.26-0.62-20.57-1.29-30.81c-0.19-2.93-0.4-5.88-0.75-8.79
		c-0.11-0.89-0.27-2.54-0.53-3.42c-0.51-0.14-1.08-0.26-1.55-0.36c-1.7-0.38-3.42-0.73-5.05-1.04c-4.41-0.77-8.2-2.85-11.09-6.26
		c-2.91-3.43-4.27-7.52-4.27-12.01c0-5.55,1.97-10.35,5.7-14.45c4.22-4.65,10.54-8.14,16.2-10.7c18.81-8.53,44.1-18.54,65.01-18.75
		c4.15-0.04,11.3,0.03,14.86,2.41c0.05,0.03,0.09,0.06,0.14,0.1c3.68,2.66,4.27,7.93,4.27,12.12c0,0.24,0.01,0.67,0.05,1.09
		c0.55-0.3,1.09-0.63,1.48-0.86c2.16-1.28,4.27-2.67,6.35-4.07c5.73-3.85,12.42-6.52,19.03-8.45c6.73-1.97,13.79-3.34,20.82-3.34
		c15.17,0,28.46,5.39,39.81,15.42c9.07,8.01,15.76,17.92,20.35,29.08c5.03,12.21,7.49,25.03,7.49,38.24
		c0,20.13-4.86,39.18-16.34,55.84c-1.14,1.66-3.17,2.33-5.08,1.67c-1.9-0.66-3.09-2.44-2.96-4.45c0.02-0.25,0.02-0.49,0.03-0.74
		c0-0.05,0-0.08,0-0.13c0.22-5.25-1.85-10.1-6.6-12.66c-3.16-1.7-6.94-2.03-10.38-1.04c-4.23,1.21-7.47,4.2-9.58,7.91l-0.09,0.16
		c-1.97,3.77-3.56,7.76-4.89,11.79c-0.6,1.82-2.22,3.01-4.13,3.03c-1.37,0.02-2.75,0.08-4.11,0.22c-6.36,0.62-13.17,2.52-13.68,9.99
		c-0.12,1.72,0.29,3.28,1.69,4.36c2.1,1.61,5.61,1.62,7.8,0.17c1.51-1,3.37-1.01,4.88,0c1.51,1,2.24,2.71,1.9,4.5
		c-0.42,2.25-0.81,4.5-1.14,6.77c-0.27,1.87-1.63,3.31-3.48,3.69c-4.73,0.97-9.53,1.43-14.35,1.43c-10.51,0-20.64-2.61-30.2-6.87
		C145.28,670.7,143.96,670.14,143.18,670.02L143.18,670.02z M237.9,634.01c9.01-14.74,12.82-31.28,12.82-48.7
		c0-12.44-2.31-24.51-7.05-36.01c-4.26-10.34-10.42-19.51-18.82-26.93c-10.28-9.08-22.2-13.95-35.94-13.95c-6.46,0-13,1.3-19.18,3.1
		c-6.01,1.76-12.19,4.18-17.41,7.69c-1.89,1.27-9.41,6.45-11.67,6.45c-4.24,0-5.31-3.93-5.31-7.47c0-1.83-0.15-6.12-1.83-7.37
		c-2.14-1.4-9.08-1.43-11.54-1.41c-9.04,0.09-18.47,2.15-27.12,4.66c-12.12,3.53-24.06,8.36-35.54,13.57
		c-4.85,2.2-10.66,5.32-14.29,9.31c-2.75,3.02-4.18,6.43-4.18,10.52c0,3.1,0.87,5.86,2.88,8.23c2.01,2.37,4.58,3.75,7.65,4.29
		l0.03,0c1.82,0.36,3.65,0.72,5.46,1.13c0.89,0.2,1.99,0.43,2.84,0.77l0.03,0.01c1.28,0.55,2.08,1.62,2.6,2.91
		c0.53,1.4,0.77,3.46,0.95,4.95c0.36,3.01,0.58,6.07,0.78,9.09c0.67,10.38,1,20.84,1.31,31.24l0,0.04l0,0.04
		c-0.27,13.01-0.58,26.06-1.2,39.06c-0.2,4.12-0.42,8.25-0.76,12.37c-0.21,2.53-0.44,5.16-0.89,7.66
		c-1.25,6.84-4.74,12.21-11.12,15.18c-2.3,1.07-5.75,2.85-7.37,4.87L44,689.35c-1.41,1.7-1.72,4.34-1.72,6.47
		c0,7.9,6.29,13.07,12.72,16.49c18.89,10.05,39.81,13.98,61.07,13.98c9.65,0,21.3-0.91,30.11-5.18c5.82-2.82,10.07-6.99,10.07-13.75
		c0-1.53-0.16-4.07-1.17-5.31c-0.26-0.32-0.61-0.64-0.94-0.93c-13.72-0.39-27.34-2.34-41.05-2.97c-6.64-0.3-13.41-0.34-20.04,0.09
		c-4.13,0.27-17.69,1.37-19.65,5.74c-1.28,3.07-3.64,5.31-6.85,6.26c-2.14,0.63-4.43,0.61-6.59,0.07
		c-6.84-1.72-10.88-7.98-8.14-14.84l0.1-0.24c1.19-2.72,2.81-5.2,4.82-7.4c11.95-13.03,36.13-13.87,52.54-13.42
		c9.14,0.25,18.24,1.03,27.34,1.84c-0.01-0.3-0.01-0.61-0.01-0.91c0-4.19,0.65-11.19,6.31-11.19c1.73,0,3.74,0.76,5.29,1.45
		c8.81,3.92,18.14,6.37,27.82,6.37c4.1,0,8.18-0.36,12.21-1.12c0.17-1.08,0.34-2.16,0.53-3.23c-1.22,0.42-2.51,0.66-3.79,0.71
		c-2.86,0.12-5.82-0.67-8.1-2.43c-2.98-2.29-4.22-5.7-3.96-9.39c0.84-12.23,12.24-15.31,22.53-15.62c1.36-4.02,2.98-7.97,4.96-11.75
		l0.13-0.25c2.91-5.11,7.38-9.06,13.08-10.7c4.9-1.41,10.26-0.91,14.76,1.51C233.97,622.72,237.17,628.03,237.9,634.01L237.9,634.01
		z M136.62,569.3c0.58-8.88,3.99-16.58,13.96-16.58c5.88,0,10.9,2.21,15,6.42c8.32,8.54,9.78,23.36,9.78,34.66
		c0,16.26-3.16,38.31-23.83,38.31c-4.38,0-8.87-0.81-12.52-3.36c-3.23-2.25-4.99-5.37-4.99-9.32c0-1.8,0.07-3.6,0.17-5.4
		L136.62,569.3L136.62,569.3z M406.38,511.94c-8.73,6.16-19.57,7.72-28.52,1.37c-7.16,3.54-12.66,9.39-16.92,16.08
		c-1.63,2.57-4.1,5.37-7.41,5.37c-4.56,0-5.99-4.67-6.41-8.42c-0.26-2.31-1.17-10.33-2.49-13.72c-5.03,3.52-11.39,5.44-17.31,2.94
		c-2.49-1.05-4.56-2.77-6.14-4.93c-9.67,1.33-19.31,3.7-28.65,6.48c-5.35,1.6-10.73,3.37-15.88,5.52
		c-3.53,1.47-7.25,3.23-10.39,5.43c-4.24,2.97-7.33,6.92-7.33,12.26c0,6.29,5.35,9.74,10.64,11.82c2.89,1.14,5.8,2.92,7.23,5.77
		c1.59,3.02,1.77,7.8,1.77,11.15c0,10.3-0.1,20.63-0.51,30.92c-0.26,6.58-0.61,13.32-1.44,19.87c5.95,3.94,8.4,10.8,8.11,17.82
		c-0.37,9.11-6.41,20.99-11.22,29.37c1.94,0.51,3.9,0.94,5.87,1.31c-1.42-8.83,1.93-17.37,9.23-22.79
		c6.51-4.82,15.79-6.57,23.03-2.31c7.01,4.12,9.18,11.96,8.2,19.64c-0.24,1.88-0.63,3.74-1.12,5.58c1.49,0.48,2.86,1.26,4.04,2.3
		c3.26-0.07,6.52-0.17,9.77-0.32c4.35-4.95,10.13-7.91,16.82-8.19c5-0.21,9.93,1.09,14.12,3.81c2.56-1.09,4.84-2.6,6.77-4.63
		c2.82-2.97,4.32-6.5,4.32-10.61c0-8.05-6.68-11.88-13.63-13.95c-2.7-0.8-7.1-2.18-9.24-4.07l-0.02-0.02l-0.02-0.02
		c-1.94-1.86-2.96-4.92-3.56-7.47l-0.01-0.05c-0.82-4.19-1.12-8.77-1.35-13.03c-0.37-6.88-0.45-13.8-0.45-20.69
		c0-4.56,0.06-9.16,0.35-13.71c0.17-2.63,0.4-5.69,1.09-8.24c0.99-3.68,3.33-6.16,7.31-6.16c2.84,0,5.4,1.95,7.32,3.85
		c2.58,2.55,5.27,5.04,8.11,7.31c1.93,1.55,4.06,3.1,6.25,4.26c4.05,2.13,8.73,2.78,13.26,2.78c9.43,0,17.7-2.98,24.53-9.53
		l0.03-0.02c3.88-3.54,6.81-7.93,8.92-12.72c2.11-4.79,3.43-9.87,3.43-15.12c0-4.69-1.12-9.33-2.84-13.68
		c-1.68-4.26-3.97-8.38-7.18-11.68C413.87,515.78,410.37,513.47,406.38,511.94L406.38,511.94z M614.07,642.27
		c0.69-2.07,1.08-4.22,1.08-6.41c0-2.91-0.93-4.93-3.96-5.42c-2.01-0.32-5.63-0.89-7.33-1.96c-1.78-1.07-3.11-3.33-3.99-5.15
		c-1.69-3.51-2.41-8.52-2.83-12.36c-0.76-6.89-0.91-14-0.91-20.95l0.33-24.17c0-8.45-0.69-18.64-3.99-26.52
		c-2.91-6.94-8.11-12.47-14.12-16.88c-5.11-3.74-10.69-6.71-16.62-8.92c-10.43,4.72-21.28,4.66-28.54-5.09
		c-0.64-0.01-1.28-0.02-1.92-0.02l-0.35,0c-0.16,0.18-0.31,0.36-0.47,0.53c-5.45,6.09-13.56,10.8-21.93,8.33
		c-3.09-0.91-5.74-2.72-7.86-5.1c-10.5,2.63-20.59,6.53-30.12,11.66c-6.27,3.37-12.05,7.73-16.54,13.29
		c-3.42,4.24-5.95,9.19-5.95,14.75c0,4.39,1.36,8.25,4.6,11.27c3.35,3.13,7.47,4.33,12.01,4.33c12.5,0,22.39-10.6,29.07-20.03
		c2.65-3.74,6.11-8.22,9.78-11.02c2.82-2.15,6.02-3.23,9.57-3.23c6.11,0,10.44,3.04,13,8.54c3.27,7.04,3.68,17.91,3.68,25.56
		c0,3.08-0.29,7.73-2.92,9.83l-0.04,0.03c-2.75,2.01-9.43,2.1-12.71,2.11c-22.14,0.07-46.19,4.35-62.75,20.24
		c-8.27,7.93-13.21,17.36-13.21,28.93c0,6.92,1.69,13.4,4.89,19.53c2.74,5.25,6.41,9.86,11.03,13.57c4.29,1.08,8.19,3.37,11.36,6.44
		c5.1,1.97,10.51,3.09,15.94,3.62c1.71-13.7,5.42-34.38,13.38-45.01c1.82-2.43,4.02-4.55,6.57-6.2c0.09-5.47,1.94-10.28,5.63-14.37
		c3.6-4,8.06-6.35,13.48-6.35l0.05,0c3.2,0.1,6.49,1.06,8.21,3.94c1.95,3.14,2.1,9.2,2.1,12.79c0,3.85-0.28,7.93-1.26,11.69
		c1.22,3.04,1.65,6.33,1.51,9.6c-0.32,7.79-4.81,17.62-8.98,25.34c1.31-0.82,2.6-1.69,3.84-2.61c2.51-1.87,6.2-4.33,9.45-4.33
		c3.1,0,5.68,2.49,7.47,4.72c6.7,7.94,15.59,11.2,25.87,11.2c5.84,0,11.49-1.07,16.92-3.16c0.17-2.72,1.12-5.19,2.97-7.14
		c-0.8-2.49-1.03-5.17-0.69-7.75c0.14-1.02,0.36-2.02,0.67-3c2.11-6.65,8.07-11.9,15.34-11.07c2.85,0.33,5.38,1.5,7.42,3.45
		C612.18,642.91,613.12,642.56,614.07,642.27L614.07,642.27z M696.21,680.08c6.43-0.55,12.9-0.71,19.35-0.64
		c5.64,0.06,11.27,0.59,16.89,1.04c2.18,0.17,4.37,0.35,6.55,0.52c6.42-11.01,11.45-23.42,15.79-35.37l21.42-59.03
		c2.71-7.26,5.57-14.51,8.78-21.56c2.26-4.95,4.78-10.07,7.79-14.62c3.21-4.85,7.61-8.28,13.09-10.32c3.8-1.33,9.37-3.55,12.2-6.52
		c2.3-2.41,3.1-5.46,3.1-8.72c0-1.74-0.32-3.44-1.08-5.02c-4.55-9.44-23.21-10.09-31.95-10.09c-9.4,0-20.31,0.92-28.98,4.81
		c-5.03,2.26-10.25,5.87-10.25,11.96c0,4.03,3.4,8.64,5.88,11.56c3.16,3.73,4.39,8.3,4.39,13.12c0,7.03-2.25,13.78-5.55,19.92
		c-2.19,4.08-6.3,10.73-11.63,10.73c-5.33,0-10-8.12-12.18-12.11c-1.56-2.86-3.11-5.74-4.57-8.65c-0.95-1.9-1.91-3.84-2.71-5.81
		c-1.11-2.74-1.82-5.67-1.82-8.63c0-3.6,1.87-7.18,3.86-10.07c1.68-2.45,3.47-5.73,3.47-8.79c0-7.95-5.32-12.22-12.37-14.75
		c-8.06-2.89-18.15-3.47-26.64-3.47c-14.45,0-29.22,0.79-43.46,3.36c-9.3,1.68-27.62,5.9-27.62,18.29c0,2.39,0.87,4.62,2.12,6.63
		c1.2,1.93,2.77,3.7,4.95,4.52l0.04,0.02l0.04,0.02c4.1,1.84,10.98,5.02,14.1,8.31c1.55,1.63,2.95,3.99,4.07,5.93
		c1.98,3.46,3.76,7.09,5.45,10.69l39.16,83.37c2.35,5.01,4.63,10.2,6.37,15.46c1.08,3.25,2.2,7.22,2.2,10.66
		C696.43,677.93,696.36,679.01,696.21,680.08L696.21,680.08z M722.29,703.11c-2.58-0.19-5.18-0.34-7.75-0.38
		c-16.72-0.24-36.94,1.24-50.95,11.3l-0.17,0.12c-2.52,1.72-5.06,3.41-7.71,4.92c-1.6,0.91-3.26,1.75-4.97,2.48
		c6.53,1.96,13.38,2.74,20.19,2.74c19.26,0,35.94-6.42,49.88-19.74C721.31,704.07,721.8,703.59,722.29,703.11L722.29,703.11z
		 M645.38,683.85c-0.43,4.62-0.8,10.2-0.25,14.98c1.75-1.25,3.42-2.59,5.17-3.8c7.01-5.01,14.83-8.51,23.06-10.9
		c-0.55-2.19-1.11-4.38-1.72-6.55c-0.4-1.42-0.82-2.95-1.37-4.31c-0.84-2.09-2.72-4.26-4.26-5.87l-0.02-0.02
		c-1.46-1.6-3.12-2.98-4.98-4.1c-1.17,0.43-2.38,0.77-3.6,1.02C653.74,671.01,649.64,677.49,645.38,683.85L645.38,683.85z
		 M353.8,624.04c0.29,1.21,0.95,3.52,1.84,4.45c1.32,1.07,5.44,2.33,6.97,2.79c9.59,2.85,17.8,8.71,17.8,19.54
		c0,5.61-2.07,10.57-5.93,14.63c-2.69,2.84-5.93,4.91-9.56,6.33c-1.41,0.55-2.88,0.38-4.13-0.49c-3.28-2.29-7.2-3.36-11.19-3.2
		c-5.26,0.22-9.66,2.6-13,6.59c-0.82,0.98-1.89,1.51-3.17,1.57c-3.71,0.18-7.42,0.3-11.13,0.37c-1.23,0.02-2.3-0.4-3.18-1.27
		c-0.81-0.79-1.82-1.31-2.93-1.51c-1.28-0.23-2.3-0.91-2.98-2.02c-0.69-1.11-0.85-2.32-0.48-3.57c0.59-1.99,1.07-4.03,1.33-6.1
		c0.68-5.3-0.44-10.97-5.36-13.87c-5.18-3.05-12-1.44-16.6,1.97c-5.83,4.32-8.27,11.14-6.76,18.15l0.17,0.72
		c0.34,1.48-0.05,2.91-1.09,4.02c-1.04,1.11-2.45,1.58-3.94,1.33c-3.48-0.58-6.96-1.33-10.35-2.32c-1.35-0.4-2.34-1.3-2.86-2.61
		c-0.52-1.31-0.42-2.65,0.29-3.86c4.33-7.4,11.01-19.78,11.35-28.25c0.21-5.13-1.4-10.32-6.04-13.05c-1.57-0.92-2.38-2.59-2.14-4.39
		c0.89-6.65,1.25-13.53,1.51-20.24c0.41-10.22,0.51-20.47,0.51-30.69c0-2.11-0.09-6.52-1.1-8.43c-0.01-0.03-0.03-0.05-0.04-0.08
		c-0.71-1.41-2.78-2.43-4.16-2.97c-7.69-3.03-14.33-8.36-14.33-17.25c0-7.29,3.98-12.95,9.81-17.04
		c7.63-5.35,19.08-9.12,27.95-11.77c9.91-2.96,20.15-5.45,30.42-6.79c1.72-0.22,3.31,0.5,4.26,1.95c4.22,6.41,11.58,4.51,16.8,0.37
		c0.96-0.76,2.06-1.07,3.27-0.92c1.22,0.15,2.21,0.71,2.96,1.68l0.04,0.05c2.79,3.53,3.83,13.46,4.31,17.84
		c0.07,0.63,0.34,2.42,0.78,3.17c0.76-0.35,1.99-2.1,2.31-2.61c5.01-7.89,11.57-14.64,20.14-18.61c1.53-0.71,3.2-0.52,4.54,0.5
		c7.19,5.5,15.91,3.76,22.83-1.36c1.22-0.9,2.68-1.12,4.1-0.61c5.12,1.82,9.61,4.71,13.4,8.61c3.76,3.86,6.46,8.61,8.43,13.6
		c1.99,5.04,3.25,10.39,3.25,15.82c0,6.07-1.49,11.94-3.92,17.48c-2.43,5.52-5.82,10.56-10.29,14.65
		c-7.91,7.57-17.61,11.12-28.53,11.12c-5.51,0-11.06-0.86-15.98-3.45c-5.57-2.93-11.29-8.18-15.75-12.58
		c-0.57-0.56-2.34-2.17-3.22-2.17c-1.17,0-1.39,0.77-1.67,1.83c-0.57,2.14-0.76,4.9-0.9,7.1c-0.28,4.42-0.34,8.9-0.34,13.33
		c0,6.78,0.08,13.6,0.44,20.38C352.78,615.85,353.05,620.16,353.8,624.04L353.8,624.04z M520.32,605.49
		c-3.72,0.02-6.6,1.67-9.07,4.42c-2.84,3.16-4.16,6.75-4.13,11l0,0.23c0.01,1.61-0.77,2.99-2.15,3.82c-2.19,1.3-4.05,3.07-5.57,5.11
		c-7.44,9.94-10.95,31.21-12.42,43.58c-0.28,2.36-2.38,4.07-4.74,3.88c-6.56-0.53-13.1-1.82-19.24-4.23
		c-0.59-0.23-1.05-0.53-1.49-0.97c-2.52-2.5-5.66-4.37-9.12-5.19c-0.66-0.16-1.19-0.41-1.72-0.83c-5.38-4.25-9.66-9.57-12.83-15.64
		c-3.63-6.97-5.55-14.38-5.55-22.23c0-13.17,5.58-24.1,15-33.14c17.73-17.01,43.03-21.79,66.78-21.86c1.67-0.01,7.4-0.11,9.14-0.91
		c0.61-1.01,0.72-4.23,0.72-5.21c0-6.59-0.32-17.03-3.14-23.1c-1.59-3.43-3.88-5.16-7.7-5.16c-2.27,0-4.23,0.66-6.04,2.04
		c-3.14,2.39-6.29,6.55-8.55,9.74c-7.91,11.17-19.17,22.5-33.84,22.5c-6.03,0-11.55-1.76-15.99-5.9c-4.42-4.13-6.45-9.52-6.45-15.54
		c0-6.94,2.96-13.11,7.25-18.42c4.98-6.17,11.36-11.01,18.32-14.76c10.23-5.51,21.07-9.66,32.36-12.4c1.7-0.41,3.38,0.16,4.48,1.52
		c1.46,1.81,3.32,3.21,5.56,3.87c6.05,1.79,12.08-2.32,15.93-6.62c0.27-0.3,0.54-0.61,0.81-0.92c0.86-1.02,2.01-1.55,3.34-1.55l1,0
		c0.93,0,1.86,0.01,2.79,0.03c1.45,0.04,2.67,0.69,3.51,1.88c5.67,8.08,14.1,7.33,22.26,3.5c1.1-0.52,2.24-0.57,3.39-0.15
		c6.65,2.43,12.9,5.72,18.61,9.9c6.88,5.04,12.72,11.39,16.05,19.33c3.64,8.67,4.45,19.47,4.45,28.78c0,0.02,0,0.04,0,0.06
		l-0.33,24.12c0,7.06,0.09,24.37,3.17,30.76c0.3,0.63,1.16,2.26,1.75,2.69c0.02,0.01,0.03,0.02,0.02,0.02
		c1.01,0.53,4.06,0.99,5.21,1.18c5.92,0.95,8.87,5.38,8.87,11.18c0,3.11-0.6,6.16-1.67,9.09c-0.5,1.38-1.54,2.34-2.95,2.74
		c-1.15,0.32-2.3,0.74-3.36,1.3c-1.82,0.95-3.99,0.55-5.35-0.99c-1.19-1.34-2.68-2.11-4.46-2.31c-5.17-0.59-8.93,4.36-9.56,9.04
		c-0.26,1.93-0.04,3.96,0.67,5.77c0.68,1.76,0.22,3.67-1.2,4.91c-1.18,1.04-1.65,2.41-1.71,3.96l-0.03,0.64
		c-0.07,1.77-1.11,3.24-2.75,3.91c-6.39,2.59-13.07,3.92-19.96,3.92c-12.01,0-22.51-4.01-30.33-13.27
		c-0.02-0.03-0.04-0.05-0.07-0.08c-0.44-0.54-2.17-2.51-2.94-2.57c-1.52,0-4.81,2.32-5.96,3.18c-2.85,2.12-5.88,3.98-9.03,5.6
		c-1.77,0.91-3.84,0.56-5.21-0.88c-1.37-1.44-1.62-3.53-0.63-5.25c4.05-7.03,10.35-18.93,10.69-27.11c0.1-2.55-0.22-5.16-1.23-7.52
		c-0.42-0.97-0.48-1.92-0.2-2.94c0.94-3.35,1.17-7.13,1.17-10.6c0-2.05-0.11-7.92-1.22-9.71c-0.02-0.03-0.03-0.05-0.04-0.07
		C523.11,605.71,521.25,605.52,520.32,605.49L520.32,605.49z M622.81,547.79c-3.36-1.3-5.84-3.83-7.72-6.86
		c-1.83-2.95-2.99-6.21-2.99-9.7c0-16.2,19.66-21.73,32.42-24.04c14.58-2.63,29.7-3.45,44.5-3.45c9.23,0,19.86,0.67,28.61,3.81
		c9.44,3.38,16.24,9.74,16.24,20.24c0,4.35-2.08,8.58-4.49,12.1c-1.23,1.78-2.83,4.52-2.83,6.76c0,2.2,0.57,4.41,1.4,6.44
		c1.87,4.61,4.61,9.48,7,13.86c1.34,2.45,2.96,5.19,4.84,7.26c0.39,0.43,1.65,1.71,2.22,1.81c2.08,0,5.69-6.18,6.49-7.66
		c2.84-5.28,4.85-11.11,4.85-17.16c0-3.41-0.76-6.7-3-9.35c-3.53-4.16-7.26-9.66-7.26-15.34c0-8.61,6.39-14,13.7-17.29
		c9.49-4.26,21.08-5.32,31.37-5.32c11.67,0,31.3,1.13,37.21,13.39c1.14,2.37,1.65,4.93,1.65,7.55c0,4.79-1.36,9.24-4.71,12.75
		c-3.6,3.77-9.65,6.29-14.41,7.97c-4.29,1.6-7.7,4.24-10.23,8.06c-2.84,4.28-5.22,9.15-7.34,13.82c-3.16,6.92-5.96,14.05-8.61,21.14
		l-21.41,59.02c-4.49,12.38-9.71,25.18-16.37,36.56l-0.32,0.54c-0.87,1.49-2.42,2.3-4.14,2.17c-2.49-0.19-4.98-0.39-7.47-0.59
		c-5.48-0.44-10.98-0.97-16.48-1.02c-6.87-0.07-13.76,0.11-20.6,0.79c-1.46,0.14-2.79-0.38-3.76-1.49
		c-0.97-1.11-1.31-2.49-0.97-3.92c0.3-1.25,0.41-2.53,0.41-3.81c0-6.25-5.38-18.04-8.01-23.64l-39.16-83.37
		c-1.63-3.46-3.33-6.95-5.24-10.27c-0.85-1.48-2.05-3.57-3.23-4.82C632.58,552.25,626.01,549.23,622.81,547.79L622.81,547.79z
		 M728.66,704.95c-1.23,1.31-2.51,2.58-3.81,3.82c-15.02,14.36-33.16,21.36-53.92,21.36c-8.85,0-17.74-1.23-26.04-4.41
		c-1.79-0.69-2.9-2.36-2.83-4.28c0.07-1.92,1.29-3.51,3.13-4.07c2.66-0.8,5.22-2,7.63-3.37c2.52-1.44,4.93-3.05,7.27-4.65l0.11-0.08
		c15.17-10.89,36.29-12.65,54.42-12.38c3.72,0.05,7.46,0.33,11.17,0.63c1.73,0.14,3.14,1.19,3.77,2.81
		C730.19,701.96,729.85,703.68,728.66,704.95L728.66,704.95z M670.27,663.4c2.1,2.2,4.27,4.85,5.42,7.69
		c0.63,1.57,1.12,3.29,1.58,4.92c0.73,2.61,1.4,5.24,2.05,7.87l0.05,0.19c0.58,2.32-0.81,4.69-3.12,5.32
		c-8.06,2.21-15.73,5.52-22.55,10.4c-0.02,0.02-0.04,0.03-0.07,0.05c-2.45,1.68-4.68,3.58-7.23,5.18c-1.27,0.79-2.73,0.9-4.11,0.3
		c-1.38-0.6-2.29-1.74-2.57-3.22c-1.13-5.93-0.69-13.13-0.12-19.15c0.07-0.76,0.3-1.4,0.73-2.04c4.35-6.5,8.55-13.12,12.28-19.99
		c0.66-1.21,1.73-1.98,3.08-2.23c1.29-0.24,2.57-0.58,3.78-1.07c1.28-0.52,2.6-0.44,3.81,0.24
		C665.91,659.31,668.24,661.19,670.27,663.4L670.27,663.4z M142.45,569.64l-2.44,44.71c-0.09,1.69-0.16,3.39-0.16,5.09
		c0,2.04,0.83,3.37,2.5,4.53c2.61,1.82,6.06,2.31,9.18,2.31c2.88,0,5.72-0.54,8.2-2.06c8.82-5.39,9.79-21.36,9.79-30.42
		c0-9.49-1.09-23.37-8.12-30.59c-3-3.08-6.51-4.66-10.82-4.66c-1.51,0-3.1,0.25-4.36,1.13
		C143.37,561.67,142.65,566.53,142.45,569.64L142.45,569.64z"/>
	<path class="st1" d="M121.95,507.99c6.6,0,10.71,0.55,12.37,1.66c1.61,1.16,2.44,3.99,2.44,8.54c0,3.99,1.28,6.05,3.88,6.05
		c1.05,0,4.71-2.05,10.87-6.21c4.66-3.11,10.59-5.77,17.81-7.88c7.21-2.11,13.7-3.16,19.58-3.16c13.76,0,26.07,4.77,36.89,14.31
		c8.21,7.27,14.64,16.42,19.19,27.46c4.77,11.59,7.16,23.8,7.16,36.56c0,20.48-5.19,38.27-15.56,53.34
		c0.02-0.32,0.03-0.64,0.03-0.95c0.85-20.09-24.55-26.2-34.85-8.09l-0.12,0.22c-2.06,3.93-3.76,8.18-5.17,12.46
		c-9.94,0.13-21.33,2.65-22.14,14.32c-0.67,9.72,10.18,12.6,16.34,8.51c-0.43,2.31-0.83,4.62-1.17,6.95
		c-4.36,0.89-8.85,1.34-13.47,1.34c-9.21,0-18.64-2.16-28.4-6.49c-1.94-0.89-3.55-1.33-4.71-1.33c-3.27,0-4.88,3.27-4.88,9.76
		c0,0.85,0.03,1.68,0.08,2.48c-29.95-2.68-74.01-6.88-84.9,17.98l-0.09,0.22c-4.82,12.05,14.2,18.81,18.95,7.41
		c3.59-8.03,33.79-7.04,41.07-6.71c13.68,0.62,27.49,2.57,41.06,2.97l0.47,0.01c0.69,0.58,1.19,1.06,1.5,1.43
		c1,1.22,1.5,3.33,1.5,6.21c0,6.55-3.61,11.54-10.87,15.03c-7.27,3.55-17.47,5.32-30.73,5.32c-23.46,0-44.04-4.71-61.74-14.15
		c-8.99-4.77-13.48-10.71-13.48-17.75c0-3.22,0.67-5.71,2.05-7.38c1.33-1.66,3.94-3.44,7.88-5.27c5.6-2.61,9.04-7.32,10.32-14.15
		c1.22-6.82,2.16-26.46,2.83-58.85c-0.78-26.63-1.72-41.6-2.94-44.82c-0.44-1.11-1.05-1.77-1.83-2.11c-0.83-0.33-3.5-0.94-8.04-1.83
		c-3.49-0.61-6.32-2.22-8.49-4.77c-2.16-2.55-3.22-5.6-3.22-9.15c0-4.38,1.5-8.15,4.55-11.48c3-3.33,7.93-6.54,14.75-9.65
		C85.29,514.32,106.37,508.21,121.95,507.99L121.95,507.99z M138.04,569.4l-2.44,44.71c-0.11,1.83-0.17,3.61-0.17,5.33
		c0,3.38,1.44,6.1,4.38,8.15c2.94,2.05,6.82,3.11,11.7,3.11c14.98,0,22.41-12.31,22.41-36.89c0-15.98-3.11-27.18-9.37-33.67
		c-3.94-3.99-8.6-5.99-13.98-5.99C142.87,554.14,138.71,559.19,138.04,569.4L138.04,569.4z M345.09,510.51l0.07,0.09
		c1.28,1.61,2.38,6.82,3.38,15.59c0.5,4.77,2.22,7.16,4.99,7.16c2.16,0,4.27-1.61,6.21-4.71c5.15-8.05,11.24-13.71,18.27-16.97
		c7.73,5.91,18.32,5.94,28.14-1.32c4.43,1.58,8.33,4.08,11.72,7.53c3.05,3.16,5.55,7.21,7.49,12.15c1.94,4.88,2.94,9.65,2.94,14.2
		c0,5.1-1.22,10.32-3.55,15.7c-2.38,5.32-5.49,9.76-9.26,13.2c-6.93,6.66-15.48,9.93-25.52,9.93c-5.55,0-10.15-0.94-13.92-2.94
		c-3.72-1.94-8.65-5.88-14.7-11.81c-2.27-2.27-4.38-3.44-6.32-3.44c-3.05,0-5.05,1.72-5.94,5.1c-0.94,3.44-1.39,10.59-1.39,21.58
		c0,16.31,0.61,27.51,1.78,33.45c0.78,3.27,1.83,5.49,3.16,6.77c1.39,1.22,4.27,2.5,8.71,3.77c9.76,2.94,14.64,8.04,14.64,15.31
		c0,4.44-1.61,8.32-4.71,11.59c-2.18,2.29-4.83,4.03-7.97,5.25c-3.88-2.71-8.67-4.21-13.9-3.99c-6.77,0.28-12.25,3.45-16.2,8.16
		c-3.45,0.17-7.12,0.29-11,0.37c-1.39-1.37-3.2-2.35-5.26-2.71c0.66-2.25,1.19-4.53,1.48-6.79c0.91-7.12-0.98-14.39-7.51-18.23
		c-6.75-3.97-15.42-2.25-21.46,2.23c-7.22,5.35-10.32,13.92-8.44,22.68l0.17,0.73c-3.63-0.61-6.91-1.34-9.84-2.2
		c6.07-10.36,11.62-21.97,11.96-30.3c0.34-8.25-3.16-14.06-8.22-17.03c1.39-10.36,2.06-27.53,2.06-51.51c0-4.88-0.5-8.38-1.61-10.48
		c-1.05-2.11-3.22-3.83-6.49-5.1c-7.71-3.05-11.54-7.43-11.54-13.15c0-5.21,2.66-9.71,7.93-13.42c5.32-3.72,14.2-7.43,26.68-11.15
		c11-3.29,20.91-5.49,29.73-6.65C326.73,516.52,336.22,517.55,345.09,510.51L345.09,510.51z M531.26,506.99
		c0.89,0,1.78,0.01,2.66,0.03c6.73,9.58,17.05,9.98,27.74,4.96c6.32,2.31,12.16,5.41,17.52,9.31c6.93,5.1,11.81,10.93,14.59,17.47
		c2.72,6.54,4.11,15.59,4.11,27.07l-0.33,24.19c0,16.81,1.22,27.68,3.61,32.67c1.16,2.39,2.33,3.88,3.44,4.55
		c1.05,0.67,3.33,1.22,6.82,1.77c3.44,0.56,5.16,2.83,5.16,6.82c0,2.48-0.46,5-1.4,7.57c-1.49,0.42-2.9,0.95-4.21,1.63
		c-1.78-2.01-4.21-3.42-7.27-3.77c-7.67-0.88-13.49,5.73-14.43,12.84c-0.36,2.7-0.03,5.48,0.93,7.95c-1.86,1.64-3.09,3.98-3.21,7.09
		l-0.03,0.64c-5.92,2.4-12.02,3.6-18.31,3.6c-11.37,0-20.36-3.88-26.96-11.7c-2.27-2.83-4.38-4.22-6.38-4.22
		c-2.16,0-4.99,1.33-8.6,4.05c-2.71,1.99-5.51,3.72-8.41,5.21c5.79-10.05,10.95-21.11,11.28-29.13c0.15-3.63-0.45-6.79-1.59-9.45
		c0.89-3.18,1.33-7.11,1.33-11.78c0-5.99-0.61-9.98-1.89-12.04c-1.22-2.05-3.61-3.16-7.04-3.27c-4.77,0-8.93,1.94-12.43,5.88
		c-3.55,3.88-5.27,8.54-5.27,13.98l0,0.23c-2.49,1.48-4.83,3.56-6.85,6.26c-7.64,10.22-11.49,30.73-13.27,45.7
		c-6.69-0.54-12.68-1.86-17.98-3.94c-3.16-3.13-7.03-5.36-11.21-6.35c-4.8-3.78-8.72-8.55-11.65-14.22
		c-3.38-6.43-5.05-13.15-5.05-20.19c0-11.32,4.55-21.25,13.65-29.95c14.2-13.64,35.45-20.52,63.74-20.63
		c6.27,0,10.21-0.61,11.87-1.83c1.61-1.28,2.39-4.16,2.39-8.71c0-11.48-1.17-19.8-3.55-24.96c-2.39-5.1-6.27-7.71-11.7-7.71
		c-3.27,0-6.16,1-8.71,2.94c-2.55,1.94-5.71,5.49-9.48,10.71c-9.65,13.76-19.75,20.64-30.23,20.64c-5.32,0-9.65-1.55-12.98-4.71
		c-3.38-3.11-5.05-7.27-5.05-12.31c0-5.21,2.05-10.43,6.27-15.64c4.16-5.16,9.82-9.71,16.97-13.65c10.2-5.4,20.63-9.4,31.31-12
		c6.79,8.42,18.61,8.15,28.22-2.58c0.3-0.33,0.59-0.67,0.88-1.01L531.26,506.99L531.26,506.99z M777.54,587.09l-21.41,59.02
		c-5.32,14.64-10.65,26.57-16.03,35.83l-0.32,0.54c-2.48-0.19-4.96-0.39-7.45-0.58c-5.53-0.44-11.24-0.98-16.79-1.04
		c-6.92-0.07-14.02,0.11-21.08,0.81c0.35-1.5,0.53-3.11,0.53-4.83c0-5.1-2.83-13.65-8.43-25.52l-39.16-83.37
		c-4.16-8.71-7.21-14.09-9.26-16.25c-2.05-2.16-6.6-4.83-13.65-7.99c-2.22-0.83-4.05-2.55-5.66-5.1c-1.55-2.55-2.33-4.99-2.33-7.38
		c0-9.65,9.6-16.2,28.79-19.69c12.76-2.27,27.35-3.38,43.71-3.38c11.48,0,20.52,1.16,27.13,3.55c8.87,3.16,13.31,8.49,13.31,16.09
		c0,2.72-1.22,5.94-3.72,9.6c-2.39,3.44-3.61,6.55-3.61,9.26c0,2.61,0.61,5.33,1.72,8.1c1.16,2.83,3.55,7.6,7.21,14.31
		c4.16,7.6,7.77,11.37,10.93,11.37c3.33,0,6.82-3.33,10.37-9.98c3.6-6.66,5.38-13.09,5.38-19.25c0-4.99-1.39-9.04-4.05-12.2
		c-4.16-4.88-6.21-9.04-6.21-12.48c0-5.55,3.72-9.98,11.09-13.26c7.32-3.33,17.2-4.94,29.57-4.94c22.97,0,34.45,5.49,34.45,16.53
		c0,4.05-1.17,7.27-3.49,9.71c-2.33,2.44-6.6,4.72-12.76,6.88c-5.21,1.94-9.32,5.21-12.37,9.76
		C789.19,558.47,783.76,570.45,777.54,587.09L777.54,587.09z M725.44,701.92c-1.19,1.26-2.4,2.48-3.65,3.65
		c-14.03,13.43-31.01,20.14-50.87,20.14c-9.14,0-17.29-1.37-24.46-4.12c2.8-0.85,5.67-2.13,8.54-3.76c2.62-1.5,5.12-3.17,7.62-4.86
		l0.15-0.11c14.28-10.26,34.74-11.8,51.79-11.55C717.68,701.36,721.37,701.6,725.44,701.92L725.44,701.92z M661.14,661.7
		c2.17,1.21,4.14,2.79,5.91,4.71c2.27,2.38,3.83,4.49,4.55,6.32c0.78,1.89,1.89,5.93,3.44,12.2l0.05,0.19
		c-8.53,2.34-16.66,5.86-23.95,11.06c-1.25,0.86-4.65,3.56-7.07,5.07c-0.99-5.19-0.59-12.3-0.06-17.9
		c4.4-6.57,8.71-13.37,12.49-20.33C658.1,662.73,659.68,662.3,661.14,661.7L661.14,661.7z"/>
	<path d="M60,698.77c-1.21,3.03,4.25,4.25,5.26,1.82c8.49-19,67.93-8.9,89.16-8.29c13.75,0.4,29.11-1.01,41.45-8.09
		c-1.01,15.97,1.82,31.54,15.77,31.34c10.78-0.15,22.7-13.07,30.62-24.2c-0.27,6.49-0.17,12.19,0.32,16.32
		c0.4,3.44,8.9,13.55,11.12,7.28c1.82-5.66,5.86-15.37,9.91-22.44c6.07-10.31,5.05-5.05,4.04,4.45c-0.4,3.24-0.81,6.87-1.01,9.91
		c-0.61,15.57,10.11,20.62,19.81,8.69c6.15-7.49,13.57-23.75,17.59-33.33c0.33,0.06,0.67,0.12,1.01,0.17
		c-2.02,10.11-5.66,33.97,10.31,32.96c6.87-0.45,13.42-8.3,18.58-16.73c1.65,7.84,6.98,14.31,16.6,14.31
		c6.07,0,11.12-4.25,14.35-9.5c4.66-0.19,8.91-3.51,12.51-7.74c-0.06,0.36-0.12,0.71-0.18,1.07c-3.44,20.62,11.32,21.23,20.42,7.08
		l7.28-11.73c-0.61,3.44-0.81,6.27-1.01,8.69c-1.21,13.75,7.08,22.24,17.59,12.74c2.89-2.56,6.46-7.08,10.16-13.49
		c2.01,12.5,12.32,22.59,22.59,7.02c3.64-5.46,6.87-13.14,9.3-18.8c1.01,7.68,0.2,16.58-0.81,24.06
		c-11.12,8.29-21.84,13.55-25.68,28.1c-6.67,25.07,18.8,35.18,29.32,6.67c3.84-10.31,6.87-24.46,8.09-37.2
		c4.77-4.24,9.54-9.43,13.96-16.43c-0.17,5.61-0.04,10.54,0.39,14.21c0.4,3.44,8.9,13.55,11.12,7.28
		c1.82-5.66,5.86-15.37,9.91-22.44c6.07-10.31,5.05-5.05,4.04,4.45c-0.4,3.24-0.81,6.87-1.01,9.91
		c-0.61,15.57,10.11,20.62,19.81,8.69c6.47-7.89,14.35-25.47,18.2-34.77c1.62-2.83-3.64-5.46-5.26-1.82
		c-3.84,9.1-10.72,24.67-16.58,32.55c-6.07,7.89-5.46,3.64-5.05-3.23c0.4-5.46,1.42-10.92,1.62-16.38
		c0.4-15.57-12.74-15.97-20.62-1.82c-1.82,3.23-3.64,6.67-5.26,10.31c0-6.27,0.2-12.33,0.81-19.61c6.47-9.3,21.23-31.74,21.63-43.47
		c0.61-12.94-12.74-15.57-20.42-5.46c-6.49,8.78-10.74,29.75-12.49,48.36c-4.31,9.45-9.16,16.17-14.2,21.59
		c0.2-8.69-0.4-25.47-12.54-23.25c-4.04-7.08-11.93-11.12-19.61-7.68c-5.57,2.46-9.12,8.44-10.71,15.18
		c-5.42,12.01-10.61,20.03-14.36,23.44c-4.04,3.44-3.03-3.64-2.83-6.47c0.4-4.85,2.83-15.97,5.26-25.27
		c1.82-7.48-9.91-6.47-11.32-3.64c-6.67,11.52-11.93,20.62-15.97,26.89c-7.08,10.72-5.46,3.44-4.25-2.63
		c1.62-7.68,3.64-15.57,4.85-23.25c0.61-4.45-9.91-8.29-10.92-4.85c-0.56,3.5-1.3,6.97-2.09,10.44
		c-5.08,9.91-9.42,14.53-12.67,16.25c0.81-3.44,1.21-8.29-2.22-10.51c-0.2-8.69-6.87-15.77-15.97-15.37
		c-8.24,0.33-13.64,7.2-15.57,15.28c-4.73,9.14-12.53,22.59-17.59,23.34c-5.86,0.81,0.61-27.5,1.21-29.52
		c0.4-1.82-0.81-3.44-2.63-3.44c-2.83,0.2-5.86,0.4-8.69,0c1.82-4.45,4.04-10.11,4.65-14.96c2.63-20.42-26.89-12.74-22.85,6.07
		c1.32,6.18,5.21,10.43,10.43,12.75c-3.94,9.23-10.36,23.49-15.89,30.92c-6.07,7.89-5.46,3.64-5.05-3.23
		c0.4-5.46,1.42-10.92,1.62-16.38c0.4-15.57-12.74-15.97-20.62-1.82c-1.82,3.23-3.64,6.67-5.26,10.31c0-6.27,0.2-12.33,0.81-19.61
		c6.47-9.3,21.23-31.74,21.63-43.47c0.61-12.94-12.74-15.57-20.42-5.46c-6.45,8.73-10.69,29.51-12.46,48.04
		c-5.36,9.24-20.06,29.81-30.81,30c-7.08,0-5.46-22.85-4.65-28.91c5.46-8.09,10.92-16.78,14.96-24.67
		c6.07-0.2,10.72-2.02,10.51-6.67c-0.2-2.83-4.85-2.43-5.26,0.81c-0.2,0.2-2.02,0.2-2.43,0.2c1.97-4.5,3.74-8.97,3.84-13.14
		c0.61-12.13-14.35-15.97-21.03-4.25c-2.22,4.25-4.45,9.91-6.27,16.58c-6.27-0.4-19.61-1.01-20.22,7.28c-0.2,3.44,5.66,3.24,5.66,0
		c0-2.02,10.92-1.62,12.94-1.62c-1.21,5.05-3.03,13.14-4.04,21.84c-11.32,8.09-27.5,9.5-41.24,9.1
		C130.36,685.83,70.72,674.31,60,698.77L60,698.77z M221.54,645.8l-2.22,4.85c-1.62,0-3.44,0-5.46-0.2
		c1.62-4.85,3.23-8.9,4.85-11.52C221.44,634.22,226.36,632.96,221.54,645.8L221.54,645.8z M216.29,656.51l-6.67,11.52
		c0.81-4.04,1.62-8.09,2.63-11.73C213.66,656.31,215.07,656.31,216.29,656.51L216.29,656.51z M256.32,667.84
		c1.62-8.69,4.25-20.02,8.29-27.7c1.01-2.02,5.86-7.89,5.66-2.43C269.86,645.6,260.36,661.37,256.32,667.84L256.32,667.84z
		 M301.2,674.91c-2.22-1.42-3.64-3.64-3.84-6.27c-0.4-5.46,9.1-13.34,8.09-7.08C304.84,665.81,302.82,670.87,301.2,674.91
		L301.2,674.91z M359.43,685.83c-5.58,1.67-6.4,11.55,0,16.17c-2.22,2.83-5.05,5.26-8.29,5.26c-9.91,0-8.29-20.22-1.42-25.68
		C354.38,677.95,358.02,680.78,359.43,685.83L359.43,685.83z M362.67,693.92c0,0.81-0.2,1.62-0.4,2.43l-1.01-1.42
		C361.86,694.93,362.46,694.52,362.67,693.92L362.67,693.92z M461.53,720c-1.62,7.68-3.64,15.16-5.86,21.23
		c-5.46,14.76-18.4,19-13.14,0.2C445.36,731.32,452.43,726.27,461.53,720L461.53,720z M449.4,704.43c-2.63,4.25-5.05,7.48-6.67,1.21
		c-1.62-6.87,0.2-23.05,7.89-25.68c3.84-1.42,7.08,1.62,8.49,5.05C456.68,690.48,453.04,698.77,449.4,704.43L449.4,704.43z
		 M502.57,667.84c1.62-8.69,4.25-20.02,8.29-27.7c1.01-2.02,5.86-7.89,5.66-2.43C516.12,645.6,506.62,661.37,502.57,667.84
		L502.57,667.84z M605.48,670.06c0.2-3.44-10.92-5.66-11.12-0.61c-0.4,10.72-2.63,24.87-1.01,35.38
		c2.22,13.55,11.73,15.57,20.42,5.86c3.98-4.45,7.89-10.66,11.22-16.9c0.29,4.55,1.06,8.78,2.52,12.25
		c7.08,16.78,21.43,7.28,30.93,0.81c15.77-11.32,37.4-13.14,56.21-12.94c22.64,0.4,77.64,10.92,87.34-10.72
		c1.01-2.22-4.25-4.45-5.26-1.82c-7.28,16.17-62.47,7.08-81.28,6.87c-20.42-0.2-43.06,1.82-60.05,13.95
		c-6.47,4.45-15.97,13.95-18.6,0.61c-1.42-7.28-0.4-18.2,0-22.04c5.46-8.09,10.92-16.78,14.96-24.67c6.07-0.2,10.72-2.02,10.51-6.67
		c-0.2-2.83-4.85-2.43-5.26,0.81c-0.2,0.2-2.02,0.2-2.43,0.2c1.97-4.5,3.74-8.97,3.84-13.14c0.61-12.13-14.35-15.97-21.03-4.25
		c-2.22,4.25-4.45,9.91-6.27,16.58c-6.27-0.4-19.61-1.01-20.22,7.28c-0.2,3.44,5.86,3.23,5.86,0c-0.2-2.02,10.72-1.62,12.74-1.62
		c-1.36,5.56-3.43,15.26-4.29,25.25c-3.67,8.73-9.2,18.66-14.91,25.9c-6.87,8.49-6.47,3.03-6.47-4.85
		C603.87,691.29,605.08,680.57,605.48,670.06L605.48,670.06z M602.86,648.63c-6.94-0.77-9.02,13.12-1.82,14.15
		C608.15,663.8,609.49,649.41,602.86,648.63L602.86,648.63z M650.77,645.6l-2.22,4.85c-1.62,0-3.44,0-5.46-0.2
		c1.62-4.85,3.24-8.9,4.85-11.52C650.67,634.01,655.59,632.76,650.77,645.6L650.77,645.6z M638.84,667.84
		c0.81-4.04,1.62-8.09,2.63-11.73c1.42,0,2.83,0,4.04,0.2C643.7,659.95,641.27,663.79,638.84,667.84L638.84,667.84z"/>
	<path d="M284.49,476.99c-3.84,12.33,0.61,28.71,15.97,28.31c5.86,0,11.12-4.45,14.35-9.5c4.4-0.18,8.51-3.28,12.03-7.3
		c-0.19,1.02-0.35,2.03-0.5,3.06c-2.83,18.2,9.1,22.04,19.61,7.28c2.02-2.83,4.45-6.67,7.48-11.52c1.62,4.65,6.07,6.47,10.72,5.26
		c3.04-0.79,6.52-2.9,10.06-6.71c0.01,0.35,0.03,0.69,0.05,1.05c1.42,22.24,19.21,29.92,34.17,10.92
		c5.34-6.68,9.96-15.15,13.52-23.22c0.34,0.06,0.69,0.12,1.03,0.17c-2.02,10.11-5.66,33.97,10.31,32.96
		c12.33-0.81,23.66-25.47,27.7-34.57c1.21-2.63-4.04-4.65-5.26-1.82c-2.43,5.26-14.35,29.72-21.23,30.73
		c-5.86,0.81,0.61-27.5,1.21-29.52c0.4-1.82-0.81-3.44-2.63-3.44c-2.83,0.2-5.86,0.4-8.69,0c1.82-4.45,4.04-10.11,4.65-14.96
		c2.63-20.42-26.89-12.74-22.85,6.07c1.32,6.17,5.2,10.41,10.4,12.74c-3.33,7.44-7.54,15.41-12.63,21.63
		c-8.29,10.31-16.38,11.73-18.4-1.82c8.9-0.61,20.82-4.85,22.24-15.77c2.42-18.84-25.46-22.75-32.2-2.51
		c-4.48,7.94-8.86,11.72-12.28,12.62c-7.28,1.82-4.25-9.3-2.22-12.94c2.43-4.25-2.63-6.87-5.05-2.43
		c-6.47,11.32-11.12,19-14.76,24.06c-3.84,5.46-5.26,5.66-3.84-1.01c1.82-8.69,4.85-20.02,6.47-28.1c0.2-2.02-10.51-7.28-11.12-4.04
		c-0.67,3.58-1.53,7.13-2.43,10.67c-5.02,9.58-9.32,14.31-12.74,16.02c1.01-3.44,1.21-8.29-2.22-10.51
		c-0.4-12.94-15.16-20.02-24.26-12.33c-14.76,12.94-44.88,10.92-73.19,9.1c-30.93-2.02-60.05-4.04-67.93,14.15
		c-1.42,3.03,4.25,4.45,5.26,1.82c6.07-13.95,32.96-12.13,61.87-10.31C241.42,482.85,266.9,484.47,284.49,476.99L284.49,476.99z
		 M309.36,478.2c-2.02,0.61-3.44,2.22-4.25,4.25c-1.42,4.04,0.61,9.3,4.04,11.73c-2.02,3.03-5.05,5.46-8.29,5.46
		c-9.7,0-8.09-20.22-1.42-25.68C304.1,470.32,307.94,473.15,309.36,478.2L309.36,478.2z M312.59,486.29l-0.61,2.43
		c-0.4-0.4-0.61-1.01-1.01-1.62C311.58,487.1,312.19,486.9,312.59,486.29L312.59,486.29z M385.17,487.1
		c0.4-5.05,2.22-11.93,7.08-14.35c4.04-2.22,10.72-2.02,9.91,4.04C401.15,484.27,392.05,486.29,385.17,487.1L385.17,487.1z
		 M419.14,467.28c-2.22-1.42-3.64-3.64-3.84-6.27c-0.4-5.46,9.1-13.34,8.09-7.08C422.78,458.19,420.76,463.24,419.14,467.28
		L419.14,467.28z M515.58,462.43c0.2-3.44-10.92-5.66-11.12-0.61c-0.4,10.72-2.63,24.87-1.01,35.38
		c2.22,13.55,11.73,15.57,20.42,5.86c3.98-4.45,7.89-10.66,11.22-16.9c0.29,4.55,1.06,8.78,2.52,12.25
		c7.08,16.78,21.43,7.28,30.93,0.81c15.77-11.32,37.4-13.14,56.21-12.94c22.64,0.4,77.64,10.92,87.34-10.72
		c1.01-2.22-4.25-4.45-5.26-1.82c-7.28,16.17-62.47,7.08-81.28,6.87c-20.42-0.2-43.06,1.82-60.05,13.95
		c-6.47,4.45-15.97,13.95-18.6,0.61c-1.42-7.28-0.4-18.2,0-22.04c5.46-8.09,10.92-16.78,14.96-24.67c6.07-0.2,10.72-2.02,10.51-6.67
		c-0.2-2.83-4.85-2.43-5.26,0.81c-0.2,0.2-2.02,0.2-2.43,0.2l1.42-3.23c1.42-3.84,2.43-7.28,2.43-9.91
		c0.61-12.13-14.35-15.97-21.03-4.25c-2.22,4.25-4.45,9.91-6.27,16.58c-6.27-0.4-19.61-1.01-20.22,7.28c-0.2,3.44,5.86,3.23,5.86,0
		c-0.2-2.02,10.72-1.62,12.74-1.62c-1.36,5.56-3.43,15.26-4.29,25.25c-3.67,8.73-9.2,18.66-14.91,25.9
		c-6.87,8.49-6.47,3.03-6.47-4.85C513.96,483.66,515.18,472.95,515.58,462.43L515.58,462.43z M512.95,441
		c-3.64-0.4-5.86,3.44-6.27,6.47c-0.4,3.03,0.81,7.28,4.45,7.68c3.44,0.61,5.86-3.23,6.07-6.27
		C517.6,445.65,516.39,441.41,512.95,441L512.95,441z M560.87,437.97l-2.22,4.85c-1.62,0-3.44,0-5.46-0.2
		c1.62-4.85,3.23-8.9,4.85-11.52c1.21-2.22,5.05-5.66,4.85-1.01C562.69,432.1,562.08,434.73,560.87,437.97L560.87,437.97z
		 M548.94,460.21c0.81-4.04,1.62-8.09,2.63-11.73c1.42,0,2.83,0,4.04,0.2C553.79,452.32,551.37,456.16,548.94,460.21L548.94,460.21z
		"/>
</g>
</svg>
