<?xml version="1.0" encoding="utf-8"?>
<!-- Generator: Adobe Illustrator 25.0.0, SVG Export Plug-In . SVG Version: 6.00 Build 0)  -->
<svg version="1.1" id="Layer_1" xmlns="http://www.w3.org/2000/svg" xmlns:xlink="http://www.w3.org/1999/xlink" x="0px" y="0px"
	 viewBox="0 0 864 864" style="enable-background:new 0 0 864 864;" xml:space="preserve">
<style type="text/css">
	.st0{fill-rule:evenodd;clip-rule:evenodd;}
	.st1{fill:#CCCCCC;}
</style>
<g>
	<path class="st0" d="M118.47,100.01c6.68,0,10.83,0.56,12.51,1.68c1.63,1.18,2.47,4.04,2.47,8.64c0,4.04,1.29,6.11,3.93,6.11
		c1.06,0,4.77-2.08,10.99-6.28c4.71-3.14,10.71-5.83,18.01-7.97c7.29-2.13,13.86-3.2,19.8-3.2c13.91,0,26.36,4.82,37.3,14.47
		c8.3,7.35,14.81,16.6,19.41,27.77c4.82,11.72,7.24,24.07,7.24,36.97c0,27.6-9.31,50.37-27.93,68.21
		c-14.36,13.91-30.69,20.87-49.03,20.87c-9.31,0-18.85-2.19-28.72-6.56c-1.96-0.9-3.59-1.35-4.77-1.35c-3.31,0-4.94,3.31-4.94,9.87
		c0,8.7,2.92,14.92,8.69,18.74c5.31,3.59,8.49,5.99,9.6,7.29c-2.94,1.19-5.82,2.55-8.57,4.1c-1.24-2.16-2.91-4.09-5.11-5.69
		l-0.22-0.16l-0.23-0.15c-5.72-3.81-13.9-4.15-20.57-4.08c-21.99,0.22-47.49,9.89-67.65,18.92l-0.59-0.31
		c-9.09-4.82-13.63-10.83-13.63-17.95c0-3.25,0.67-5.78,2.08-7.46c1.35-1.68,3.98-3.48,7.97-5.33c5.67-2.64,9.14-7.41,10.43-14.3
		c1.23-6.9,2.19-26.76,2.86-59.52c-0.79-26.93-1.74-42.07-2.97-45.32c-0.45-1.12-1.07-1.79-1.85-2.13
		c-0.84-0.34-3.54-0.95-8.13-1.85c-3.53-0.62-6.39-2.24-8.58-4.83c-2.19-2.58-3.25-5.67-3.25-9.26c0-4.43,1.51-8.25,4.6-11.61
		c3.03-3.37,8.02-6.62,14.92-9.76C81.39,106.4,102.71,100.23,118.47,100.01L118.47,100.01z M134.74,162.11l-2.47,45.21
		c-0.11,1.85-0.17,3.65-0.17,5.39c0,3.42,1.46,6.17,4.43,8.25c2.97,2.08,6.9,3.14,11.84,3.14c15.15,0,22.66-12.45,22.66-37.3
		c0-16.15-3.14-27.49-9.48-34.05c-3.98-4.04-8.7-6.06-14.14-6.06C139.62,146.68,135.41,151.79,134.74,162.11L134.74,162.11z
		 M333.59,100.18c5.83,0,9.37,0.79,10.6,2.47c1.29,1.63,2.41,6.9,3.42,15.76c0.5,4.83,2.24,7.24,5.05,7.24
		c2.19,0,4.32-1.63,6.28-4.77c8.75-13.69,20.19-20.53,34.33-20.53c9.98,0,18.12,3.2,24.46,9.65c3.09,3.2,5.61,7.29,7.57,12.29
		c1.96,4.94,2.97,9.76,2.97,14.36c0,5.16-1.23,10.43-3.59,15.88c-2.41,5.38-5.55,9.87-9.37,13.35
		c-7.01,6.73-15.65,10.04-25.81,10.04c-5.61,0-10.26-0.95-14.08-2.97c-3.76-1.96-8.75-5.95-14.87-11.95
		c-2.3-2.3-4.43-3.48-6.39-3.48c-3.09,0-5.1,1.74-6,5.16c-0.95,3.48-1.4,10.71-1.4,21.82c0,16.49,0.62,27.82,1.8,33.83
		c0.78,3.31,1.85,5.55,3.2,6.84c1.4,1.23,4.32,2.52,8.81,3.81c9.87,2.97,14.81,8.13,14.81,15.48c0,4.41-1.57,8.28-4.61,11.55
		c-2.2-0.08-4.37,0.48-6.28,2.02c-1.26,1.01-2.19,2.31-2.76,3.77c-1.2,0.42-2.47,0.78-3.8,1.06c-2.31,0.48-4.87,0.91-7.67,1.29
		c-7.79-7.06-19.87-8.82-29.01-1.1l-0.11,0.09c-1.3,1.14-2.8,2.13-4.47,3.01c-1.66,0.02-3.35,0.02-5.08,0.02
		c-19.41,0-34.11-1.74-44.2-5.1c-8.98-3.09-13.46-8.42-13.46-15.93c0-5.72,3.25-10.83,9.82-15.31c3.2-2.08,5.38-3.98,6.62-5.67
		c1.18-1.68,2.02-4.04,2.47-7.01c1.74-9.93,2.58-28.39,2.58-55.37c0-4.94-0.5-8.47-1.63-10.6c-1.07-2.13-3.25-3.87-6.56-5.16
		c-7.8-3.09-11.67-7.52-11.67-13.3c0-5.27,2.69-9.82,8.02-13.57c5.38-3.76,14.36-7.52,26.98-11.27
		C307.45,102.81,321.81,100.29,333.59,100.18L333.59,100.18z M532.39,99c19.07,0,35.23,4.82,48.47,14.47
		c7.01,5.16,11.95,11.05,14.75,17.67c2.75,6.62,4.15,15.76,4.15,27.37l-0.34,24.46c0,17,1.23,27.99,3.65,33.04
		c1.18,2.41,2.36,3.93,3.48,4.6c1.07,0.67,3.37,1.23,6.9,1.79c3.48,0.56,5.22,2.86,5.22,6.9c0,5.27-2.08,10.77-6.34,16.44
		c-4.21,5.72-9.65,10.49-16.32,14.3c-8.25,4.82-16.83,7.24-25.8,7.24c-11.5,0-20.59-3.93-27.26-11.84
		c-0.65-0.81-1.29-1.51-1.92-2.08c2.55-2.28,4.13-5.5,3.94-9.88l-0.01-0.21c-0.25-3.5-1.97-5.95-4.32-7.36
		c0.27-1.4,0.44-2.81,0.46-4.17c0.38-8.98-4.42-15.19-10.8-17.75c0.09-1.37,0.14-2.83,0.14-4.36c0-6.06-0.62-10.1-1.91-12.17
		c-1.23-2.08-3.65-3.2-7.12-3.31c-4.82,0-9.03,1.96-12.57,5.95c-3.59,3.93-5.33,8.64-5.33,14.14c0,3.87,0.67,7.17,2.02,9.94
		c-1.99,3.87-3.65,8.02-5.03,12.22c-5.13,0.07-10.63,0.77-14.91,3c-1.8-2.04-4.26-3.46-7.35-3.82c-7.76-0.89-13.64,5.8-14.6,12.98
		c-0.36,2.73-0.03,5.54,0.94,8.04c-1.41,1.24-2.46,2.88-2.95,4.96c-2.11-1.02-4.1-2.17-5.97-3.46c-5.78-4.04-10.43-9.37-13.8-15.88
		c-3.42-6.51-5.1-13.3-5.1-20.42c0-11.44,4.6-21.48,13.8-30.29c14.36-13.8,35.85-20.76,64.45-20.87c6.34,0,10.32-0.62,12-1.85
		c1.63-1.29,2.41-4.21,2.41-8.81c0-11.61-1.18-20.03-3.59-25.24c-2.41-5.16-6.34-7.8-11.84-7.8c-3.31,0-6.23,1.01-8.81,2.97
		c-2.58,1.96-5.78,5.55-9.59,10.83c-9.76,13.91-19.97,20.87-30.57,20.87c-5.38,0-9.76-1.57-13.13-4.77
		c-3.42-3.14-5.1-7.35-5.1-12.45c0-5.27,2.08-10.55,6.34-15.82c4.21-5.22,9.93-9.82,17.17-13.8C490.09,104.27,510.79,99,532.39,99
		L532.39,99z M493.4,267.23c-0.96,0.04-1.93,0.06-2.91,0.06c-1.04,0-2.07-0.02-3.08-0.05c0.04-0.76,0.07-1.52,0.1-2.29
		c0.08-1.36-0.12-2.61-0.54-3.74c2.65,0.29,5.44-0.27,7.66-1.68C494.16,262.09,493.75,264.66,493.4,267.23L493.4,267.23z
		 M781.45,180l-21.65,59.69c-5.38,14.81-10.77,26.87-16.21,36.24c-4.4,7.58-9.25,14.24-14.62,19.99c-1.53-0.75-3.13-1.43-4.79-2.02
		c-10-3.59-21.69-4.43-32.25-4.43c-4.33,0-8.69,0.07-13.04,0.23c1.47-1.2,2.8-2.54,3.95-4.04c0.94,0.36,1.99,0.54,3.15,0.54
		c3.42,0,6.23-1.46,8.58-4.43c2.3-2.97,3.42-6.62,3.42-11c0-5.16-2.86-13.8-8.53-25.8l-39.6-84.31c-4.21-8.81-7.29-14.25-9.37-16.44
		c-2.08-2.19-6.68-4.88-13.8-8.08c-2.24-0.84-4.1-2.58-5.72-5.16c-1.57-2.58-2.36-5.05-2.36-7.46c0-9.76,9.7-16.38,29.11-19.91
		c12.9-2.3,27.66-3.42,44.2-3.42c11.61,0,20.75,1.18,27.43,3.59c8.97,3.2,13.46,8.58,13.46,16.27c0,2.75-1.23,6-3.76,9.7
		c-2.41,3.48-3.65,6.62-3.65,9.37c0,2.64,0.62,5.39,1.74,8.19c1.18,2.86,3.59,7.68,7.29,14.47c4.21,7.68,7.85,11.5,11.05,11.5
		c3.37,0,6.9-3.37,10.49-10.1c3.64-6.73,5.44-13.24,5.44-19.47c0-5.05-1.4-9.14-4.09-12.34c-4.21-4.94-6.28-9.14-6.28-12.62
		c0-5.61,3.76-10.1,11.22-13.41c7.4-3.37,17.39-4.99,29.9-4.99c23.22,0,34.84,5.55,34.84,16.72c0,4.09-1.18,7.35-3.53,9.82
		c-2.36,2.47-6.68,4.77-12.9,6.96c-5.27,1.96-9.42,5.27-12.51,9.87C793.23,151.06,787.73,163.17,781.45,180L781.45,180z
		 M622.81,277.72c0.82-6.49,3.46-12.06,7.85-16.77c5.44-5.72,12.12-8.64,19.97-8.64c7.91,0,14.25,2.64,19.07,7.91
		c2.3,2.41,3.87,4.54,4.6,6.39c0.1,0.24,0.21,0.52,0.32,0.84c-3.31,0.17-6.43,1.87-8.02,5.67c-1.2,2.37-8.32,3.82-10.53,4.18
		c-8.43,1.37-17.93,1.18-26.45,0.79C627.35,277.99,625.08,277.86,622.81,277.72L622.81,277.72z"/>
	<path class="st0" d="M118.47,303.57c6.68,0,10.83,0.56,12.51,1.68c1.63,1.18,2.47,4.04,2.47,8.64c0,4.04,1.29,6.11,3.93,6.11
		c1.06,0,4.77-2.08,10.99-6.28c4.71-3.14,10.71-5.83,18.01-7.97c6.27-1.83,12.01-2.88,17.27-3.14c1.86,0.46,3.82,0.5,5.65,0.02
		c12.66,0.67,24.07,5.47,34.19,14.39c8.3,7.35,14.81,16.6,19.41,27.77c4.82,11.72,7.24,24.07,7.24,36.97
		c0,27.6-9.31,50.37-27.93,68.21c-7.33,7.1-15.16,12.38-23.52,15.86c-7.43-0.34-14.87-0.43-22.13,0.09
		c-5.79,0.42-11.91,1.31-17.56,3.27c-4.77-1.09-9.61-2.73-14.54-4.92c-1.96-0.9-3.59-1.35-4.77-1.35c-3.31,0-4.94,3.31-4.94,9.87
		c0,6.27,1.52,11.25,4.53,14.98c-1.81,7.55,6.35,12.73,12.99,11.37c-2.67,1.11-5.28,2.37-7.79,3.78c-1.24-2.16-2.91-4.09-5.11-5.69
		l-0.22-0.16l-0.23-0.15c-5.72-3.81-13.9-4.15-20.57-4.08c-21.99,0.22-47.49,9.89-67.65,18.92l-0.59-0.31
		c-9.09-4.82-13.63-10.83-13.63-17.95c0-3.25,0.67-5.78,2.08-7.46c1.35-1.68,3.98-3.48,7.97-5.33c5.67-2.64,9.14-7.4,10.43-14.3
		c1.23-6.9,2.19-26.76,2.86-59.52c-0.79-26.93-1.74-42.07-2.97-45.33c-0.45-1.12-1.07-1.79-1.85-2.13
		c-0.84-0.34-3.54-0.95-8.13-1.85c-3.53-0.62-6.39-2.24-8.58-4.83c-2.19-2.58-3.25-5.67-3.25-9.26c0-4.43,1.51-8.25,4.6-11.61
		c3.03-3.37,8.02-6.62,14.92-9.76C81.39,309.96,102.71,303.79,118.47,303.57L118.47,303.57z M134.74,365.66l-2.47,45.21
		c-0.11,1.85-0.17,3.65-0.17,5.39c0,3.42,1.46,6.17,4.43,8.25c2.97,2.07,6.9,3.14,11.84,3.14c15.15,0,22.66-12.45,22.66-37.3
		c0-16.15-3.14-27.49-9.48-34.05c-3.98-4.04-8.7-6.06-14.14-6.06C139.62,350.24,135.41,355.34,134.74,365.66L134.74,365.66z
		 M346.23,312.43c0.49,2.49,0.95,5.67,1.39,9.53c0.5,4.83,2.24,7.24,5.05,7.24c2.19,0,4.32-1.63,6.28-4.77
		c1.92-3.01,3.97-5.68,6.15-8.03c3,1.72,6.43,2.36,10,1.21c2.88-0.93,5.11-2.95,6.5-5.58c3.72,17.07,20.05,21.67,32.27,1.24
		c0.42-0.7,0.84-1.41,1.25-2.12c0.9,0.74,1.77,1.54,2.61,2.39c3.09,3.2,5.61,7.29,7.57,12.29c1.96,4.94,2.97,9.76,2.97,14.36
		c0,5.16-1.23,10.43-3.59,15.88c-2.41,5.38-5.55,9.87-9.37,13.35c-7.01,6.73-15.65,10.04-25.81,10.04c-5.61,0-10.26-0.95-14.08-2.97
		c-3.76-1.96-8.75-5.95-14.87-11.95c-2.3-2.3-4.43-3.48-6.39-3.48c-3.09,0-5.1,1.74-6,5.16c-0.95,3.48-1.4,10.71-1.4,21.82
		c0,16.49,0.62,27.82,1.8,33.83c0.78,3.31,1.85,5.55,3.2,6.84c1.4,1.23,4.32,2.52,8.81,3.81c9.87,2.97,14.81,8.13,14.81,15.48
		c0,4.49-1.63,8.41-4.77,11.72c-1.47,1.55-3.15,2.84-5.04,3.9c-3.87-3.78-10.67-4.5-15.19,0.72c-0.52-4.72-5.11-7.78-9.15-9.63
		c-4.72-2.16-10.92-3.44-14.87,1.02c-1.04,1.17-1.73,2.6-2.02,4.13c-0.59,3.16-1.34,6.29-2.11,9.41l-0.17,0.32l-2.03,0.04
		c-5.3-13.79-22.96-20.63-35.28-10.22l-0.11,0.09c-3.31,2.9-7.97,4.9-13.37,6.25c-1.36-0.36-2.65-0.74-3.88-1.15
		c-8.98-3.09-13.46-8.42-13.46-15.93c0-5.72,3.25-10.83,9.82-15.31c3.2-2.08,5.38-3.98,6.62-5.67c1.18-1.68,2.02-4.04,2.47-7.01
		c1.74-9.93,2.58-28.39,2.58-55.37c0-4.94-0.5-8.47-1.63-10.6c-1.07-2.13-3.25-3.87-6.56-5.16c-7.8-3.09-11.67-7.52-11.67-13.3
		c0-5.27,2.69-9.82,8.02-13.58c5.38-3.76,14.36-7.52,26.98-11.27c9.04-2.7,17.35-4.68,24.93-5.95c4.15,6.16,10.89,10.26,20.19,10.02
		C339.46,315.48,343.03,314.33,346.23,312.43L346.23,312.43z M545.78,303.41c13.36,1.78,25.06,6.31,35.08,13.62
		c7.01,5.16,11.95,11.05,14.75,17.67c2.75,6.62,4.15,15.76,4.15,27.37l-0.34,24.46c0,17,1.23,27.99,3.65,33.04
		c1.18,2.41,2.36,3.93,3.48,4.6c1.07,0.67,3.37,1.23,6.9,1.79c3.48,0.56,5.22,2.86,5.22,6.9c0,5.27-2.08,10.77-6.34,16.44
		c-4.21,5.72-9.65,10.49-16.32,14.3c-8.25,4.82-16.83,7.24-25.8,7.24c-4.08,0-7.86-0.5-11.33-1.49c3.25-5.03,6.4-10.17,9.25-15.42
		c7.25-1.33,13.72-5.46,13.34-14.07l-0.01-0.21c-0.25-3.5-1.98-5.95-4.32-7.36c0.27-1.4,0.44-2.81,0.46-4.18
		c0.86-20.31-24.82-26.49-35.24-8.19l-0.12,0.23c-2.08,3.98-3.81,8.27-5.23,12.6c-5.13,0.07-10.63,0.77-14.91,2.99
		c-0.31-0.34-0.63-0.67-0.97-0.98c6.21-1.96,9.32-9.18,9.32-21.61c0-6.06-0.62-10.1-1.91-12.17c-1.23-2.08-3.65-3.2-7.12-3.31
		c-4.82,0-9.03,1.96-12.57,5.95c-3.59,3.93-5.33,8.64-5.33,14.14c0,5.27,1.23,9.48,3.76,12.73c0.63,0.79,1.3,1.49,2.03,2.09
		c-4.96,1.85-8.44,6.95-9.16,12.33c-0.36,2.73-0.03,5.54,0.94,8.04c-1.88,1.66-3.12,4.02-3.25,7.17c-0.13,3.41-0.41,6.88-0.71,10.38
		c-2.17,0.21-4.38,0.31-6.62,0.31c-8.24,0-15.58-1.02-22.01-3.04c-1.9-4.78-7.97-7.61-13.03-6.3c-5.68-4.02-10.26-9.3-13.59-15.73
		c-3.42-6.51-5.1-13.3-5.1-20.42c0-11.44,4.6-21.48,13.8-30.29c14.36-13.8,35.85-20.76,64.45-20.87c6.34,0,10.32-0.62,12-1.85
		c1.63-1.29,2.41-4.21,2.41-8.81c0-11.61-1.18-20.03-3.59-25.24c-2.41-5.16-6.34-7.8-11.84-7.8c-3.31,0-6.23,1.01-8.81,2.97
		c-2.58,1.96-5.78,5.55-9.59,10.83c-9.76,13.91-19.97,20.87-30.57,20.87c-5.38,0-9.76-1.57-13.13-4.77
		c-3.42-3.14-5.1-7.35-5.1-12.45c0-5.27,2.08-10.55,6.34-15.82c4.21-5.22,9.93-9.82,17.17-13.8l0.8-0.42
		c6.77,3.25,15.49,1.13,22.9-7.15c0.9-1.01,1.78-2.06,2.63-3.14l0.52-0.15c7.38,13.09,20.16,12.83,32.97,5.52
		c2.65-1.51,5.18-3.2,7.7-4.92l0.15-0.11C540.41,306.2,543.03,304.7,545.78,303.41L545.78,303.41z M530.99,456.67
		c-0.99,0.59-2.06,1.31-3.2,2.17c-1.24,0.91-2.5,1.77-3.79,2.58l0-0.07c0.08-1.36-0.12-2.61-0.54-3.74
		c2.65,0.29,5.44-0.27,7.66-1.68L530.99,456.67L530.99,456.67z M781.45,383.56l-21.65,59.69c-5.38,14.81-10.77,26.87-16.21,36.24
		c-4.41,7.58-9.25,14.25-14.62,19.99c-1.53-0.75-3.13-1.43-4.79-2.02c-7.56-2.71-16.09-3.85-24.35-4.25
		c10.23-2.49,18.44-7.24,22.28-15.79c5.17-11.5-14.13-19.54-18.99-7.9c-0.63,1.24-2.9,2.23-5.23,2.95
		c-0.57-5.27-3.39-13.28-8.42-23.94l-39.6-84.31c-4.21-8.81-7.29-14.25-9.37-16.44c-2.08-2.19-6.68-4.88-13.8-8.08
		c-2.24-0.84-4.1-2.58-5.72-5.16c-1.57-2.58-2.36-5.05-2.36-7.46c0-9.76,9.7-16.38,29.11-19.91c12.9-2.3,27.66-3.42,44.2-3.42
		c11.61,0,20.75,1.18,27.43,3.59c8.97,3.2,13.46,8.58,13.46,16.27c0,2.75-1.23,6-3.76,9.7c-2.41,3.48-3.65,6.62-3.65,9.37
		c0,2.64,0.62,5.39,1.74,8.19c1.18,2.86,3.59,7.68,7.29,14.47c4.21,7.68,7.85,11.5,11.05,11.5c3.37,0,6.9-3.37,10.49-10.1
		c3.64-6.73,5.44-13.24,5.44-19.46c0-5.05-1.4-9.14-4.09-12.34c-4.21-4.94-6.28-9.14-6.28-12.62c0-5.61,3.76-10.1,11.22-13.41
		c7.4-3.37,17.39-4.99,29.9-4.99c23.22,0,34.84,5.55,34.84,16.72c0,4.09-1.18,7.35-3.53,9.82c-2.36,2.47-6.68,4.77-12.9,6.96
		c-5.27,1.96-9.42,5.27-12.51,9.87C793.23,354.61,787.73,366.73,781.45,383.56L781.45,383.56z M657.29,494.87
		c-4.06,0.48-8.1,1.08-12.11,1.8c-6.05,1.09-12.57,2.75-18.57,5.28c-1.64-2.88-2.79-5.99-3.44-9.32c1.24,0,2.46,0.01,3.67,0.02
		C634.46,492.77,645.44,494.03,657.29,494.87L657.29,494.87z M625.53,471.96c1.3-2.69,3.01-5.18,5.14-7.46
		c5.44-5.72,12.12-8.64,19.97-8.64c7.91,0,14.25,2.64,19.07,7.91c2.3,2.41,3.87,4.54,4.6,6.39c0.4,0.97,0.88,2.49,1.47,4.59
		c-3.28-0.02-6.54-0.14-9.66-0.28c-7.11-0.32-14.21-0.88-21.3-1.45c-5.6-0.45-11.37-0.99-16.98-1.05L625.53,471.96L625.53,471.96z"
		/>
	<path class="st1" d="M319.33,279.39c-3.88,12.47,0.61,29.03,16.15,28.62c5.93,0,11.25-4.5,14.52-9.61
		c4.75-0.2,9.17-3.75,12.88-8.22c-0.52,3.34-0.78,6.45-0.61,9.04c0.61,8.38,10.02,15.33,12.88,9c4.09-9,8.59-18.81,13.29-27.4
		c2.25-4.29,2.66-2.66,2.25,1.02c-0.61,6.54-1.64,12.88-2.25,19.42c-1.43,16.77,8.18,26.38,19.01,8.18
		c4.7-7.77,10.84-20.04,17.38-33.74c1.23-2.66-3.89-4.91-5.32-2.04c-8.18,17.58-13.49,28.01-16.56,33.74
		c-3.68,6.95-3.89,3.27-3.27-3.27c0.82-7.77,2.25-18.2,2.45-20.86c1.43-16.77-9.41-21.06-17.17-7.77
		c-4.29,7.16-7.77,14.72-11.25,22.29c1.43-9.41,3.88-18.61,5.73-27.6c0.61-2.86-10.02-9.61-10.84-5.32
		c-0.62,2.84-1.5,6.27-2.41,9.91c-5.28,10.28-9.78,15.3-13.34,17.08c1.02-3.48,1.23-8.38-2.25-10.63
		c-0.41-13.09-15.33-20.24-24.53-12.47c-14.93,13.09-45.39,11.04-74.01,9.2c-31.28-2.04-60.72-4.09-68.7,14.31
		c-1.43,3.07,4.29,4.5,5.32,1.84c6.13-14.11,33.33-12.27,62.56-10.43C275.78,285.31,301.55,286.95,319.33,279.39L319.33,279.39z
		 M344.48,280.61c-2.04,0.61-3.48,2.25-4.29,4.29c-1.43,4.09,0.61,9.41,4.09,11.86c-2.04,3.07-5.11,5.52-8.38,5.52
		c-9.81,0-8.18-20.45-1.43-25.97C339.17,272.64,343.05,275.5,344.48,280.61L344.48,280.61z M347.75,288.79l-0.61,2.45
		c-0.41-0.41-0.61-1.02-1.02-1.64C346.73,289.61,347.34,289.4,347.75,288.79L347.75,288.79z M480.04,264.66
		c0.2-3.48-11.04-5.72-11.25-0.61c-0.41,10.84-2.66,25.15-1.02,35.78c2.25,13.7,11.86,15.74,20.65,5.93
		c4.02-4.5,7.98-10.78,11.35-17.09c0.3,4.6,1.08,8.88,2.55,12.39c7.16,16.97,21.67,7.36,31.28,0.82
		c15.95-11.45,37.82-13.29,56.84-13.09c22.9,0.41,78.51,11.04,88.33-10.84c1.02-2.25-4.29-4.5-5.32-1.84
		c-7.36,16.36-63.18,7.16-82.19,6.95c-20.65-0.2-43.55,1.84-60.72,14.11c-6.54,4.5-16.15,14.11-18.81,0.61
		c-1.43-7.36-0.41-18.4,0-22.29c5.52-8.18,11.04-16.97,15.13-24.94c6.13-0.2,10.84-2.04,10.63-6.75c-0.2-2.86-4.91-2.45-5.32,0.82
		c-0.2,0.2-2.04,0.2-2.45,0.2l1.43-3.27c1.43-3.89,2.45-7.36,2.45-10.02c0.61-12.27-14.52-16.15-21.26-4.29
		c-2.25,4.29-4.5,10.02-6.34,16.77c-6.34-0.41-19.83-1.02-20.45,7.36c-0.2,3.48,5.93,3.27,5.93,0c-0.2-2.04,10.84-1.64,12.88-1.64
		c-1.38,5.62-3.47,15.43-4.34,25.53c-3.71,8.83-9.3,18.87-15.08,26.19c-6.95,8.59-6.54,3.07-6.54-4.91
		C478.4,286.13,479.63,275.3,480.04,264.66L480.04,264.66z M477.38,242.99c-3.68-0.41-5.93,3.48-6.34,6.54
		c-0.41,3.07,0.82,7.36,4.5,7.77c3.48,0.61,5.93-3.27,6.13-6.34C482.08,247.69,480.86,243.4,477.38,242.99L477.38,242.99z
		 M525.84,239.93l-2.25,4.91c-1.64,0-3.48,0-5.52-0.2c1.64-4.91,3.27-9,4.91-11.65c1.23-2.25,5.11-5.72,4.91-1.02
		C527.68,234,527.06,236.65,525.84,239.93L525.84,239.93z M513.77,262.42c0.82-4.09,1.64-8.18,2.66-11.86c1.43,0,2.86,0,4.09,0.2
		C518.68,254.44,516.23,258.33,513.77,262.42L513.77,262.42z"/>
	<path class="st0" d="M118.47,507.13c6.68,0,10.83,0.56,12.51,1.68c1.63,1.18,2.47,4.04,2.47,8.64c0,4.04,1.29,6.11,3.93,6.11
		c1.06,0,4.77-2.08,10.99-6.28c4.71-3.14,10.71-5.83,18.01-7.97c7.29-2.13,13.86-3.2,19.8-3.2c13.91,0,26.36,4.83,37.3,14.47
		c8.3,7.35,14.81,16.6,19.41,27.77c4.82,11.72,7.24,24.07,7.24,36.97c0,20.71-5.24,38.71-15.73,53.94c0.02-0.32,0.03-0.64,0.03-0.96
		c0.86-20.31-24.82-26.49-35.24-8.19l-0.12,0.23c-2.08,3.98-3.81,8.27-5.23,12.6c-10.05,0.13-21.58,2.68-22.39,14.48
		c-0.68,9.83,10.3,12.74,16.52,8.6c-0.44,2.33-0.84,4.67-1.18,7.02c-4.41,0.9-8.95,1.35-13.62,1.35c-9.31,0-18.85-2.19-28.72-6.56
		c-1.96-0.9-3.59-1.35-4.77-1.35c-3.31,0-4.94,3.31-4.94,9.87c0,0.86,0.03,1.7,0.09,2.51c-30.29-2.71-74.84-6.96-85.85,18.18
		l-0.09,0.22c-4.88,12.19,14.36,19.02,19.16,7.49c3.63-8.12,34.17-7.12,41.53-6.78c13.83,0.63,27.8,2.6,41.52,3l0.48,0.01
		c0.69,0.58,1.2,1.07,1.52,1.45c1.01,1.23,1.51,3.37,1.51,6.28c0,6.62-3.65,11.67-11,15.2c-7.35,3.59-17.67,5.38-31.08,5.38
		c-23.73,0-44.54-4.77-62.43-14.3c-9.09-4.82-13.63-10.83-13.63-17.95c0-3.25,0.67-5.78,2.08-7.46c1.35-1.68,3.98-3.48,7.97-5.33
		c5.67-2.64,9.14-7.41,10.43-14.3c1.23-6.9,2.19-26.76,2.86-59.52c-0.79-26.93-1.74-42.07-2.97-45.33
		c-0.45-1.12-1.07-1.79-1.85-2.13c-0.84-0.34-3.54-0.95-8.13-1.85c-3.53-0.62-6.39-2.24-8.58-4.83c-2.19-2.58-3.25-5.67-3.25-9.26
		c0-4.43,1.51-8.24,4.6-11.61c3.03-3.37,8.02-6.62,14.92-9.76C81.39,513.52,102.71,507.35,118.47,507.13L118.47,507.13z
		 M134.74,569.22l-2.47,45.21c-0.11,1.85-0.17,3.65-0.17,5.39c0,3.42,1.46,6.17,4.43,8.25c2.97,2.08,6.9,3.14,11.84,3.14
		c15.15,0,22.66-12.45,22.66-37.3c0-16.16-3.14-27.49-9.48-34.05c-3.98-4.04-8.7-6.06-14.14-6.06
		C139.62,553.8,135.41,558.9,134.74,569.22L134.74,569.22z M344.13,509.67l0.07,0.09c1.29,1.63,2.41,6.9,3.42,15.76
		c0.5,4.83,2.24,7.24,5.05,7.24c2.19,0,4.32-1.63,6.28-4.77c5.21-8.14,11.37-13.87,18.48-17.16c7.81,5.98,18.53,6.01,28.46-1.33
		c4.48,1.59,8.43,4.13,11.85,7.61c3.09,3.2,5.61,7.29,7.57,12.29c1.96,4.94,2.97,9.76,2.97,14.36c0,5.16-1.23,10.43-3.59,15.88
		c-2.41,5.38-5.55,9.87-9.37,13.35c-7.01,6.73-15.65,10.04-25.81,10.04c-5.61,0-10.26-0.95-14.08-2.97
		c-3.76-1.96-8.75-5.95-14.87-11.95c-2.3-2.3-4.43-3.48-6.39-3.48c-3.09,0-5.1,1.74-6,5.16c-0.95,3.48-1.4,10.71-1.4,21.82
		c0,16.49,0.62,27.82,1.8,33.83c0.78,3.31,1.85,5.55,3.2,6.84c1.4,1.23,4.32,2.52,8.81,3.81c9.87,2.97,14.81,8.13,14.81,15.48
		c0,4.49-1.63,8.41-4.77,11.72c-2.2,2.32-4.88,4.08-8.06,5.31c-3.92-2.74-8.76-4.25-14.06-4.03c-6.85,0.28-12.39,3.49-16.38,8.25
		c-3.49,0.17-7.2,0.29-11.12,0.37c-1.41-1.39-3.24-2.38-5.32-2.74c0.67-2.28,1.2-4.58,1.5-6.86c0.92-7.2-0.99-14.56-7.59-18.44
		c-6.83-4.01-15.6-2.28-21.71,2.25c-7.3,5.41-10.44,14.07-8.53,22.94l0.17,0.73c-3.67-0.62-6.99-1.36-9.95-2.23
		c6.13-10.47,11.75-22.21,12.09-30.65c0.34-8.35-3.19-14.22-8.31-17.23c1.4-10.47,2.08-27.84,2.08-52.09c0-4.94-0.5-8.47-1.63-10.6
		c-1.07-2.13-3.25-3.87-6.56-5.16c-7.8-3.09-11.67-7.52-11.67-13.3c0-5.27,2.69-9.82,8.02-13.57c5.38-3.76,14.36-7.52,26.98-11.27
		c11.12-3.32,21.15-5.55,30.06-6.72C325.55,515.75,335.15,516.8,344.13,509.67L344.13,509.67z M532.39,506.12
		c0.9,0,1.8,0.01,2.69,0.03c6.8,9.69,17.24,10.09,28.06,5.02c6.39,2.33,12.3,5.47,17.72,9.42c7.01,5.16,11.95,11.05,14.75,17.67
		c2.75,6.62,4.15,15.76,4.15,27.37l-0.34,24.46c0,17,1.23,27.99,3.65,33.04c1.18,2.41,2.36,3.93,3.48,4.6
		c1.07,0.67,3.37,1.23,6.9,1.79c3.48,0.56,5.22,2.86,5.22,6.9c0,2.5-0.47,5.06-1.42,7.66c-1.5,0.42-2.94,0.96-4.25,1.65
		c-1.8-2.04-4.26-3.46-7.35-3.81c-7.76-0.89-13.64,5.8-14.6,12.98c-0.36,2.73-0.03,5.54,0.94,8.04c-1.88,1.66-3.12,4.02-3.25,7.17
		l-0.03,0.65c-5.99,2.42-12.15,3.64-18.51,3.64c-11.5,0-20.59-3.93-27.26-11.84c-2.3-2.86-4.43-4.26-6.45-4.26
		c-2.19,0-5.05,1.35-8.7,4.1c-2.74,2.01-5.58,3.76-8.51,5.27c5.86-10.17,11.07-21.35,11.4-29.46c0.15-3.67-0.45-6.87-1.61-9.55
		c0.9-3.22,1.35-7.19,1.35-11.92c0-6.06-0.62-10.1-1.91-12.17c-1.23-2.08-3.65-3.2-7.12-3.31c-4.82,0-9.03,1.96-12.57,5.94
		c-3.59,3.93-5.33,8.64-5.33,14.14l0,0.23c-2.52,1.5-4.88,3.6-6.92,6.33c-7.73,10.33-11.61,31.07-13.42,46.22
		c-6.76-0.55-12.82-1.88-18.18-3.99c-3.19-3.17-7.11-5.42-11.34-6.42c-4.85-3.83-8.82-8.64-11.78-14.38
		c-3.42-6.51-5.1-13.3-5.1-20.42c0-11.44,4.6-21.48,13.8-30.29c14.36-13.8,35.85-20.76,64.45-20.87c6.34,0,10.32-0.62,12-1.85
		c1.63-1.29,2.41-4.21,2.41-8.81c0-11.61-1.18-20.03-3.59-25.24c-2.41-5.16-6.34-7.8-11.84-7.8c-3.31,0-6.23,1.01-8.81,2.97
		c-2.58,1.96-5.78,5.55-9.59,10.83c-9.76,13.91-19.97,20.87-30.57,20.87c-5.38,0-9.76-1.57-13.13-4.77
		c-3.42-3.14-5.1-7.35-5.1-12.45c0-5.27,2.08-10.55,6.34-15.82c4.21-5.22,9.93-9.82,17.17-13.8c10.31-5.46,20.86-9.51,31.66-12.13
		c6.87,8.51,18.82,8.24,28.53-2.61c0.3-0.33,0.6-0.67,0.89-1.02L532.39,506.12L532.39,506.12z M781.45,587.12L759.8,646.8
		c-5.38,14.81-10.77,26.87-16.21,36.24l-0.32,0.55c-2.51-0.19-5.02-0.39-7.53-0.59c-5.6-0.45-11.37-0.99-16.98-1.05
		c-7-0.07-14.18,0.11-21.32,0.82c0.36-1.51,0.54-3.14,0.54-4.88c0-5.16-2.86-13.8-8.53-25.8l-39.6-84.31
		c-4.21-8.81-7.29-14.25-9.37-16.44c-2.08-2.19-6.68-4.88-13.8-8.08c-2.24-0.84-4.1-2.58-5.72-5.16c-1.57-2.58-2.36-5.05-2.36-7.46
		c0-9.76,9.7-16.38,29.11-19.91c12.9-2.3,27.66-3.42,44.2-3.42c11.61,0,20.75,1.18,27.43,3.59c8.97,3.2,13.46,8.58,13.46,16.27
		c0,2.75-1.23,6-3.76,9.7c-2.41,3.48-3.65,6.62-3.65,9.37c0,2.64,0.62,5.39,1.74,8.19c1.18,2.86,3.59,7.68,7.29,14.47
		c4.21,7.68,7.85,11.5,11.05,11.5c3.37,0,6.9-3.37,10.49-10.1c3.64-6.73,5.44-13.24,5.44-19.47c0-5.05-1.4-9.14-4.09-12.34
		c-4.21-4.94-6.28-9.14-6.28-12.62c0-5.61,3.76-10.1,11.22-13.41c7.4-3.37,17.39-4.99,29.9-4.99c23.22,0,34.84,5.55,34.84,16.72
		c0,4.09-1.18,7.35-3.53,9.82c-2.36,2.47-6.68,4.77-12.9,6.96c-5.27,1.96-9.42,5.27-12.51,9.87
		C793.23,558.17,787.73,570.29,781.45,587.12L781.45,587.12z M728.76,703.24c-1.2,1.28-2.43,2.51-3.69,3.69
		c-14.19,13.58-31.36,20.36-51.44,20.36c-9.25,0-17.49-1.39-24.74-4.16c2.83-0.86,5.73-2.15,8.63-3.81c2.65-1.51,5.18-3.2,7.7-4.92
		l0.15-0.11c14.45-10.37,35.13-11.93,52.37-11.68C720.91,702.67,724.64,702.92,728.76,703.24L728.76,703.24z M663.74,662.57
		c2.2,1.23,4.19,2.82,5.97,4.76c2.3,2.41,3.87,4.54,4.6,6.4c0.79,1.91,1.91,6,3.48,12.34l0.05,0.19
		c-8.63,2.37-16.85,5.92-24.22,11.19c-1.26,0.87-4.7,3.6-7.15,5.13c-1-5.25-0.6-12.43-0.06-18.1c4.45-6.65,8.8-13.52,12.64-20.56
		C660.67,663.61,662.25,663.17,663.74,662.57L663.74,662.57z"/>
	<path class="st1" d="M55.82,700.06c-1.23,3.07,4.29,4.29,5.32,1.84c8.59-19.22,68.7-9,90.17-8.38c13.9,0.41,29.44-1.02,41.91-8.18
		c-1.02,16.15,1.84,31.9,15.95,31.69c10.9-0.15,22.95-13.22,30.96-24.48c-0.27,6.56-0.17,12.33,0.32,16.5
		c0.41,3.48,9,13.7,11.24,7.36c1.84-5.72,5.93-15.54,10.02-22.7c6.13-10.43,5.11-5.11,4.09,4.5c-0.41,3.27-0.82,6.95-1.02,10.02
		c-0.61,15.74,10.22,20.85,20.04,8.79c6.22-7.58,13.73-24.01,17.79-33.7c0.34,0.06,0.68,0.12,1.02,0.17
		c-2.04,10.22-5.73,34.35,10.43,33.33c6.94-0.46,13.57-8.39,18.79-16.92c1.67,7.93,7.06,14.47,16.79,14.47
		c6.13,0,11.25-4.29,14.52-9.61c4.71-0.19,9.01-3.55,12.65-7.83c-0.06,0.36-0.12,0.72-0.18,1.08c-3.48,20.85,11.45,21.47,20.65,7.16
		l7.36-11.86c-0.61,3.48-0.82,6.34-1.02,8.79c-1.23,13.9,7.16,22.49,17.79,12.88c2.92-2.59,6.53-7.16,10.27-13.64
		c2.03,12.64,12.46,22.85,22.85,7.09c3.68-5.52,6.95-13.29,9.41-19.01c1.02,7.77,0.2,16.77-0.82,24.33
		c-11.25,8.38-22.08,13.7-25.97,28.42c-6.75,25.35,19.02,35.58,29.65,6.75c3.88-10.43,6.95-24.74,8.18-37.62
		c4.82-4.29,9.64-9.54,14.12-16.62c-0.17,5.67-0.04,10.66,0.4,14.37c0.41,3.48,9,13.7,11.24,7.36c1.84-5.72,5.93-15.54,10.02-22.7
		c6.13-10.43,5.11-5.11,4.09,4.5c-0.41,3.27-0.82,6.95-1.02,10.02c-0.61,15.74,10.22,20.85,20.04,8.79
		c6.54-7.97,14.52-25.76,18.4-35.17c1.64-2.86-3.68-5.52-5.32-1.84c-3.88,9.2-10.84,24.94-16.77,32.92
		c-6.13,7.97-5.52,3.68-5.11-3.27c0.41-5.52,1.43-11.04,1.64-16.56c0.41-15.74-12.88-16.15-20.85-1.84
		c-1.84,3.27-3.68,6.75-5.32,10.43c0-6.34,0.2-12.47,0.82-19.83c6.54-9.41,21.47-32.1,21.88-43.96
		c0.61-13.09-12.88-15.74-20.65-5.52c-6.57,8.88-10.86,30.08-12.63,48.91c-4.36,9.55-9.26,16.35-14.36,21.84
		c0.2-8.79-0.41-25.76-12.68-23.51c-4.09-7.16-12.06-11.25-19.83-7.77c-5.64,2.48-9.22,8.54-10.83,15.35
		c-5.48,12.15-10.73,20.25-14.52,23.7c-4.09,3.48-3.07-3.68-2.86-6.54c0.41-4.91,2.86-16.15,5.32-25.56
		c1.84-7.57-10.02-6.54-11.45-3.68c-6.75,11.65-12.06,20.85-16.15,27.19c-7.16,10.84-5.52,3.48-4.29-2.66
		c1.64-7.77,3.68-15.74,4.91-23.51c0.61-4.5-10.02-8.38-11.04-4.91c-0.56,3.54-1.32,7.05-2.11,10.55
		c-5.14,10.02-9.53,14.69-12.81,16.43c0.82-3.48,1.23-8.38-2.25-10.63c-0.2-8.79-6.95-15.95-16.15-15.54
		c-8.33,0.33-13.8,7.28-15.75,15.45c-4.79,9.25-12.67,22.85-17.79,23.6c-5.93,0.82,0.61-27.81,1.23-29.85
		c0.41-1.84-0.82-3.48-2.66-3.48c-2.86,0.2-5.93,0.41-8.79,0c1.84-4.5,4.09-10.22,4.7-15.13c2.66-20.65-27.19-12.88-23.1,6.13
		c1.34,6.25,5.27,10.54,10.54,12.9c-3.98,9.34-10.48,23.75-16.07,31.27c-6.13,7.97-5.52,3.68-5.11-3.27
		c0.41-5.52,1.43-11.04,1.64-16.56c0.41-15.74-12.88-16.15-20.85-1.84c-1.84,3.27-3.68,6.75-5.32,10.43c0-6.34,0.2-12.47,0.82-19.83
		c6.54-9.41,21.47-32.1,21.88-43.96c0.61-13.09-12.88-15.74-20.65-5.52c-6.53,8.83-10.81,29.84-12.6,48.58
		c-5.42,9.34-20.29,30.14-31.15,30.34c-7.16,0-5.52-23.1-4.7-29.24c5.52-8.18,11.04-16.97,15.13-24.94
		c6.13-0.2,10.84-2.04,10.63-6.75c-0.2-2.86-4.91-2.45-5.32,0.82c-0.2,0.2-2.04,0.2-2.45,0.2c1.99-4.55,3.78-9.07,3.88-13.29
		c0.61-12.27-14.52-16.15-21.26-4.29c-2.25,4.29-4.5,10.02-6.34,16.77c-6.34-0.41-19.83-1.02-20.45,7.36c-0.2,3.48,5.72,3.27,5.72,0
		c0-2.04,11.04-1.64,13.09-1.64c-1.23,5.11-3.07,13.29-4.09,22.08c-11.45,8.18-27.81,9.61-41.71,9.2
		C126.97,686.97,66.66,675.32,55.82,700.06L55.82,700.06z M219.18,646.49l-2.25,4.91c-1.64,0-3.48,0-5.52-0.2
		c1.64-4.91,3.27-9,4.91-11.65C219.08,634.77,224.05,633.51,219.18,646.49L219.18,646.49z M213.87,657.32l-6.75,11.65
		c0.82-4.09,1.64-8.18,2.66-11.86C211.21,657.12,212.64,657.12,213.87,657.32L213.87,657.32z M254.35,668.77
		c1.64-8.79,4.29-20.24,8.38-28.01c1.02-2.04,5.93-7.97,5.72-2.45C268.05,646.28,258.44,662.23,254.35,668.77L254.35,668.77z
		 M299.74,675.93c-2.25-1.43-3.68-3.68-3.88-6.34c-0.41-5.52,9.2-13.49,8.18-7.16C303.42,666.73,301.38,671.84,299.74,675.93
		L299.74,675.93z M358.62,686.97c-5.64,1.69-6.48,11.68,0,16.36c-2.25,2.86-5.11,5.32-8.38,5.32c-10.02,0-8.38-20.45-1.43-25.97
		C353.51,679,357.19,681.86,358.62,686.97L358.62,686.97z M361.9,695.15c0,0.82-0.2,1.64-0.41,2.45l-1.02-1.43
		C361.08,696.17,361.69,695.76,361.9,695.15L361.9,695.15z M461.88,721.52c-1.64,7.77-3.68,15.33-5.93,21.47
		c-5.52,14.93-18.61,19.22-13.29,0.2C445.52,732.97,452.68,727.86,461.88,721.52L461.88,721.52z M449.61,705.78
		c-2.66,4.29-5.11,7.57-6.75,1.23c-1.64-6.95,0.2-23.31,7.97-25.97c3.88-1.43,7.16,1.64,8.59,5.11
		C456.97,691.67,453.29,700.06,449.61,705.78L449.61,705.78z M503.38,668.77c1.64-8.79,4.29-20.24,8.38-28.01
		c1.02-2.04,5.93-7.97,5.72-2.45C517.08,646.28,507.47,662.23,503.38,668.77L503.38,668.77z M607.45,671.02
		c0.2-3.48-11.04-5.72-11.25-0.61c-0.41,10.84-2.66,25.15-1.02,35.78c2.25,13.7,11.86,15.74,20.65,5.93
		c4.02-4.5,7.98-10.78,11.35-17.09c0.3,4.6,1.08,8.88,2.55,12.39c7.16,16.97,21.67,7.36,31.28,0.82
		c15.95-11.45,37.82-13.29,56.84-13.09c22.9,0.41,78.51,11.04,88.33-10.84c1.02-2.25-4.29-4.5-5.32-1.84
		c-7.36,16.36-63.18,7.16-82.19,6.95c-20.65-0.2-43.55,1.84-60.72,14.11c-6.54,4.5-16.15,14.11-18.81,0.61
		c-1.43-7.36-0.41-18.4,0-22.29c5.52-8.18,11.04-16.97,15.13-24.94c6.13-0.2,10.84-2.04,10.63-6.75c-0.2-2.86-4.91-2.45-5.32,0.82
		c-0.2,0.2-2.04,0.2-2.45,0.2c1.99-4.55,3.78-9.07,3.88-13.29c0.61-12.27-14.52-16.15-21.26-4.29c-2.25,4.29-4.5,10.02-6.34,16.77
		c-6.34-0.41-19.83-1.02-20.45,7.36c-0.2,3.48,5.93,3.27,5.93,0c-0.2-2.04,10.84-1.64,12.88-1.64c-1.38,5.62-3.47,15.43-4.34,25.53
		c-3.71,8.83-9.3,18.87-15.08,26.19c-6.95,8.59-6.54,3.07-6.54-4.91C605.81,692.49,607.04,681.65,607.45,671.02L607.45,671.02z
		 M604.79,649.35c-7.02-0.78-9.12,13.27-1.84,14.31C610.15,664.7,611.5,650.14,604.79,649.35L604.79,649.35z M653.25,646.28
		l-2.25,4.91c-1.64,0-3.48,0-5.52-0.2c1.64-4.91,3.27-9,4.91-11.65C653.15,634.57,658.12,633.3,653.25,646.28L653.25,646.28z
		 M641.19,668.77c0.82-4.09,1.64-8.18,2.66-11.86c1.43,0,2.86,0,4.09,0.2C646.09,660.8,643.64,664.68,641.19,668.77L641.19,668.77z"
		/>
	<path class="st1" d="M282.84,475.77c-3.88,12.47,0.61,29.03,16.15,28.62c5.93,0,11.25-4.5,14.52-9.61
		c4.45-0.19,8.61-3.31,12.16-7.38c-0.19,1.03-0.36,2.06-0.51,3.09c-2.86,18.4,9.2,22.29,19.83,7.36c2.04-2.86,4.5-6.75,7.56-11.65
		c1.64,4.7,6.13,6.54,10.84,5.32c3.08-0.8,6.6-2.93,10.17-6.78c0.01,0.35,0.03,0.7,0.05,1.06c1.43,22.49,19.42,30.26,34.55,11.04
		c5.4-6.75,10.07-15.32,13.68-23.48c0.35,0.06,0.69,0.12,1.04,0.17c-2.04,10.22-5.72,34.35,10.43,33.33
		c12.47-0.82,23.92-25.76,28.01-34.96c1.23-2.66-4.09-4.7-5.32-1.84c-2.45,5.32-14.52,30.06-21.47,31.08
		c-5.93,0.82,0.61-27.81,1.23-29.85c0.41-1.84-0.82-3.48-2.66-3.48c-2.86,0.2-5.93,0.41-8.79,0c1.84-4.5,4.09-10.22,4.7-15.13
		c2.66-20.65-27.19-12.88-23.1,6.13c1.34,6.24,5.26,10.53,10.52,12.89c-3.37,7.52-7.63,15.58-12.77,21.87
		c-8.38,10.43-16.56,11.86-18.61-1.84c9-0.61,21.06-4.91,22.49-15.95c2.45-19.06-25.74-23.01-32.56-2.54
		c-4.53,8.03-8.96,11.85-12.42,12.76c-7.36,1.84-4.29-9.41-2.25-13.09c2.45-4.29-2.66-6.95-5.11-2.45
		c-6.54,11.45-11.25,19.22-14.93,24.33c-3.88,5.52-5.32,5.73-3.88-1.02c1.84-8.79,4.91-20.24,6.54-28.42
		c0.2-2.04-10.63-7.36-11.25-4.09c-0.68,3.62-1.55,7.21-2.46,10.79c-5.08,9.69-9.43,14.47-12.88,16.2
		c1.02-3.48,1.23-8.38-2.25-10.63c-0.41-13.09-15.33-20.24-24.54-12.47c-14.93,13.09-45.39,11.04-74.01,9.2
		c-31.28-2.04-60.72-4.09-68.7,14.31c-1.43,3.07,4.29,4.5,5.32,1.84c6.13-14.11,33.33-12.27,62.56-10.43
		C239.29,481.7,265.05,483.34,282.84,475.77L282.84,475.77z M307.98,477c-2.04,0.61-3.48,2.25-4.29,4.29
		c-1.43,4.09,0.61,9.41,4.09,11.86c-2.04,3.07-5.11,5.52-8.38,5.52c-9.81,0-8.18-20.45-1.43-25.97
		C302.67,469.03,306.55,471.89,307.98,477L307.98,477z M311.26,485.18l-0.61,2.45c-0.41-0.41-0.61-1.02-1.02-1.64
		C310.23,486,310.85,485.79,311.26,485.18L311.26,485.18z M384.66,486c0.41-5.11,2.25-12.06,7.16-14.52
		c4.09-2.25,10.84-2.04,10.02,4.09C400.81,483.13,391.61,485.18,384.66,486L384.66,486z M419.01,465.96
		c-2.25-1.43-3.68-3.68-3.88-6.34c-0.41-5.52,9.2-13.49,8.18-7.16C422.69,456.76,420.64,461.87,419.01,465.96L419.01,465.96z
		 M516.53,461.05c0.2-3.48-11.04-5.72-11.25-0.61c-0.41,10.84-2.66,25.15-1.02,35.78c2.25,13.7,11.86,15.74,20.65,5.93
		c4.02-4.5,7.98-10.78,11.35-17.09c0.3,4.6,1.08,8.88,2.55,12.39c7.16,16.97,21.67,7.36,31.28,0.82
		c15.95-11.45,37.82-13.29,56.84-13.09c22.9,0.41,78.51,11.04,88.33-10.84c1.02-2.25-4.29-4.5-5.32-1.84
		c-7.36,16.36-63.18,7.16-82.19,6.95c-20.65-0.2-43.55,1.84-60.72,14.11c-6.54,4.5-16.15,14.11-18.81,0.61
		c-1.43-7.36-0.41-18.4,0-22.29c5.52-8.18,11.04-16.97,15.13-24.94c6.13-0.2,10.84-2.04,10.63-6.75c-0.21-2.86-4.91-2.45-5.32,0.82
		c-0.2,0.2-2.04,0.2-2.45,0.2l1.43-3.27c1.43-3.89,2.45-7.36,2.45-10.02c0.61-12.27-14.52-16.15-21.26-4.29
		c-2.25,4.29-4.5,10.02-6.34,16.77c-6.34-0.41-19.83-1.02-20.45,7.36c-0.2,3.48,5.93,3.27,5.93,0c-0.2-2.04,10.84-1.64,12.88-1.64
		c-1.38,5.62-3.47,15.43-4.34,25.53c-3.71,8.83-9.3,18.87-15.08,26.19c-6.95,8.59-6.54,3.07-6.54-4.91
		C514.9,482.52,516.12,471.68,516.53,461.05L516.53,461.05z M513.88,439.38c-3.68-0.41-5.93,3.48-6.34,6.54
		c-0.41,3.07,0.82,7.36,4.5,7.77c3.48,0.61,5.93-3.27,6.13-6.34C518.58,444.08,517.35,439.79,513.88,439.38L513.88,439.38z
		 M562.33,436.31l-2.25,4.91c-1.64,0-3.48,0-5.52-0.2c1.64-4.91,3.27-9,4.91-11.65c1.23-2.25,5.11-5.73,4.91-1.02
		C564.17,430.38,563.56,433.04,562.33,436.31L562.33,436.31z M550.27,458.8c0.82-4.09,1.64-8.18,2.66-11.86c1.43,0,2.86,0,4.09,0.2
		C555.18,450.83,552.72,454.71,550.27,458.8L550.27,458.8z"/>
</g>
</svg>
