<?xml version="1.0" encoding="utf-8"?>
<!-- Generator: Adobe Illustrator 25.0.0, SVG Export Plug-In . SVG Version: 6.00 Build 0)  -->
<svg version="1.1" id="Layer_1" xmlns="http://www.w3.org/2000/svg" xmlns:xlink="http://www.w3.org/1999/xlink" x="0px" y="0px"
	 viewBox="0 0 864 864" style="enable-background:new 0 0 864 864;" xml:space="preserve">
<g>
	<path d="M244.36,316.54c2.84-0.57-0.28-4.26-1.99-5.11c-4.26-1.99-8.8-2.56-13.35-1.99c-12.21,1.7-27.54,2.84-47.13,6.53
		c-4.83,0.85-9.94,1.7-14.76,3.12c-2.27,0.57-4.54-0.57-5.39-2.84c-0.57-1.7-1.14-3.41-1.7-5.11c-2.84-14.76-17.6-34.07-29.81-40.6
		c-5.39-3.12-11.36-5.68-17.6-7.1c-7.67-1.7-15.9,0.28-21.3,5.68c-5.96,5.68-9.09,12.49-10.22,20.44
		c-0.85,5.11,6.81,12.78,14.2,10.22c7.38-2.56,14.48-5.11,21.86-7.95c4.26-1.7,8.8-2.27,13.06-2.56c3.69-0.28,6.25,1.14,7.95,4.26
		c4.26,7.67,6.25,15.9,7.1,24.7c0.28,1.42,0,2.84,0,3.97c-0.28,1.99-1.42,3.41-3.12,4.26c-3.41,1.42-6.81,2.56-10.22,3.69
		c-23.85,8.23-57.64,30.1-76.1,55.94c-7.67,10.79-14.48,22.15-18.46,34.92c-6.51,22.3,11.25,39.01,31.23,34.92
		c11.36-2.27,21.86-6.25,31.52-12.78c26.39-17.53,46.9-44.71,57.07-74.68c2.84-8.52,5.11-17.32,5.39-26.69c0-2.56,0-5.4,0.28-7.95
		c0-2.56,1.42-4.54,3.69-5.11c19.31-5.11,41.17-10.22,60.48-10.22C233,318.53,238.96,318.25,244.36,316.54L244.36,316.54z
		 M121.7,277.93c-9.09,5.11-18.46,9.37-27.83,13.34c-0.28,0-1.14-0.85-1.14-0.85c3.12-5.11,7.1-9.37,12.21-12.49
		c1.42-1.14,3.12-1.7,4.83-1.99c4.26-0.57,8.23-0.57,12.21,0.85C121.7,277.08,121.7,277.64,121.7,277.93L121.7,277.93z
		 M121.7,407.69c-7.1,11.36-16.47,20.73-26.69,29.25c-7.95,6.81-17.6,10.79-27.83,13.35c-2.27,0.57-4.54,0.57-5.39,0.57
		c-9.37,0-15.9-5.96-16.75-14.48c-0.57-4.54-0.28-8.8,1.14-13.35c2.27-5.96,4.54-11.93,7.95-17.32
		c10.51-17.89,24.42-32.65,41.17-44.86c13.34-9.65,27.54-17.32,42.87-23.28c1.14-0.57,2.56-0.57,3.97-0.85
		c0.85-0.28,2.84,1.14,2.84,2.27c0,0.85,0.28,1.7,0,2.84C142.43,365.67,134.19,387.53,121.7,407.69L121.7,407.69z M364.41,294.68
		c-5.11,3.3-10.53,5.77-16.13,8.23c-10.22,4.54-19.88,9.65-29.81,14.2c-3.69,1.7-7.38,3.41-11.07,5.39
		c-7.38,3.98-15.05,6.25-23,8.52c-2.07,0.59-12.94,2.76-11.36-1.99c2.82-8.79,10.85-14.66,16.47-21.58
		c3.98-4.83,3.41-10.51-1.7-14.48c-2.84-2.27-5.96-3.98-9.65-5.11c-6.53-1.99-13.06-4.26-19.31-6.53c-4.54-1.7-6.25-2.56-3.69-7.95
		c1.7-3.69,3.12-7.67,4.83-11.36c1.7-3.69,0.85-6.25-2.84-9.65c-3.11-2.84-9.64-6.39-13.63-4.26c-1.99,1.14-4.26,1.99-5.4,3.98
		c-5.39,9.37-4.83,18.74,1.42,26.69c6.74,8.51,15.03,9.47,24.99,12.49c12.99,3.95,11.34,2.11,1.42,15.33
		c-4.26,5.68-5.68,12.49-6.81,19.02c-0.28,1.7,0,3.69,0.57,5.4c1.99,5.96,7.38,9.37,15.62,9.65c1.42-0.28,4.54-0.57,7.67-1.42
		c13.06-3.69,26.12-7.38,38.33-13.63c4.54-2.27,9.09-4.54,13.63-6.53c9.09-3.98,18.17-8.52,26.97-13.06
		c1.36-0.68,2.67-1.4,3.94-2.15c3.13,5.05,9.32,4.82,14.24,3c4.54-1.42,7.95-4.26,11.93-6.53c1.14-0.85,2.56-1.14,3.69-1.7
		c0.28,0,0.85,0.28,0.85,0.57c0.28,2.84,0.57,5.4,0.85,8.23c1.99,10.51,7.95,18.17,17.89,22.43c4.54,1.99,9.37,2.84,14.76,2.84
		c10.22,0.28,20.73,0,30.95-3.12c13.06-3.69,26.41-7.1,39.18-11.93c7.84-2.81,15.53-6.05,22.98-9.92
		c0.19,9.18,8.29,14.92,17.62,15.6c10.79,0.85,21.01-1.42,30.95-3.98c1.86-0.47,59.57-15.08,80.36-20.31
		c-0.24,12.25,2.69,22.4,13.91,29.11c11.64,7.1,31.8,7.67,45.43,4.83c11.07-2.27,21.86-5.11,32.65-9.37
		c10.22-3.98,20.44-7.67,30.67-11.36c16.18-5.96,31.8-13.35,47.7-20.73c1.42-0.57,2.84-1.7,4.54-2.84c2.56-1.7-0.28-7.1-3.12-7.1
		c-1.42,0.28-2.84,0.28-3.97,0.57c-15.05,5.96-29.81,11.64-44.58,17.6c-19.02,7.95-38.05,15.05-57.64,20.73
		c-9.12,2.69-13.84,2.79-23,3.98c-7.67,1.14-28.96-1.7-30.67-9.94c-0.85-4.54-0.28-9.09,2.56-13.06c2.33-3.87,4.68-2.51,8.23-3.12
		c9.65-1.7,18.46-5.11,25.27-12.78c2.27-2.56,3.12-7.1,1.7-10.22c-11.01-22.27-41.65-8.37-48.37,15.07
		c-13.93,2.85-27.36,7.21-40.78,10.77c-14.48,3.69-29.25,7.1-43.73,11.07c-9.37,2.56-18.74,3.12-28.39,2.84
		c-8.52-0.28-7.95-1.7-5.39-9.09c1.99-5.96,5.96-11.36,10.22-16.18c3.98-4.26,8.8-7.67,14.48-9.65c4.74-1.62,3.8,3.8,6.81,6.81
		c1.14,1.14,3.69,1.14,5.11-0.28c1.16-1.16,2.76-5.72,0.57-8.8c-6.25-8.8-13.63-11.36-22.15-8.8
		c-11.24,3.48-21.97,14.01-25.54,28.04c-3.62,1.48-7.26,3-10.8,4.61c-21.58,9.65-44.29,16.47-67.29,21.01
		c-10.51,2.27-21.01,1.7-30.95-2.27c-5.39-2.27-7.1-5.96-7.1-10.79c0.28-5.54,2.36-9.1,5.11-13.91c1.14-1.99,2.56-3.69,3.98-5.68
		c2.27-3.98,2.27-6.25-0.85-9.94c-1.99-2.56-5.68-3.41-8.52-1.99c-1.99,0.85-3.98,2.27-5.96,3.41c-1.7-1.99-3.41-3.98-5.39-5.96
		c-5.11-5.68-14.48-4.83-18.74-1.42C372.05,279.2,365.43,286.91,364.41,294.68L364.41,294.68z M396.27,288.43
		c-0.28,0.85-0.85,1.99-1.42,2.27c-5.68,2.84-11.36,5.68-17.04,8.52c-1.38,0-2.42-0.01-3.12-1.42c3.41-5.11,7.95-8.8,13.34-11.36
		C390.25,285.37,397.33,285.25,396.27,288.43L396.27,288.43z M684.75,282.75c3.12-1.14,5.68-1.14,4.54,0.57c0,0-0.57,0.57-0.85,0.85
		c-1.42,1.7-15.33,7.95-15.33,6.81C673.39,288.43,682.76,283.61,684.75,282.75L684.75,282.75z"/>
	<path d="M180.43,568.19c-4.52,1.9-9.02,3.82-13.3,5.96c-16.64,8.32-46.63,19.83-65.31,24.13c-4.83,1.14-9.65,1.14-14.76,1.14
		c-0.57,0-1.7-1.14-1.7-1.7c0-9.65,2.84-19.02,5.39-28.39c2.27-7.95,1.99-7.95,9.09-14.2c13.89-12.06,23.38-24.35,28.96-42.31
		c1.42-4.54,1.99-9.09,1.7-13.63c-0.28-3.12-1.14-5.96-3.69-8.52c-11.62-11.62-22.47-0.65-29.53,9.94
		c-7.38,11.07-13.06,23-16.47,35.78c-3.98,15.05-7.67,30.1-8.8,45.43c-2.27,9.37-2.27,19.02-2.27,29.81c0,9.65,0,20.73,2.84,31.52
		c2.56,9.65,5.11,19.31,9.94,28.11c1.99,3.69,4.54,6.81,7.38,9.65c4.86,4.86,13.42,9.03,19.59,3.69c5.49-4.75,7.44-14.83,7.1-21.58
		c-0.28-5.39-0.85-10.79-2.27-15.9c-3.12-11.36-7.95-21.3-16.18-29.53c-1.7-1.7-3.12-3.12-4.83-4.83c-1.28-1.27-0.75-3.54,1.42-4.26
		c14.76-4.83,30.1-7.1,44.29-13.06c11.13-4.62,24.1-8.82,34.86-13.8c-0.25,2.02-0.13,4.03,0.35,6.13c0.57,3.98,4.54,7.38,8.8,7.1
		c2.27,0,4.54-0.28,6.53-1.14c4.54-1.42,7.95-4.26,11.93-6.53c1.14-0.85,2.56-1.14,3.69-1.7c0.28,0,0.85,0.28,0.85,0.57
		c0.28,2.84,0.57,5.4,0.85,8.23c1.99,10.51,7.95,18.17,17.89,22.43c4.54,1.99,9.37,2.84,14.76,2.84c10.22,0.28,20.73,0,30.95-3.12
		c13.06-3.69,26.41-7.1,39.18-11.93c9.81-3.52,19.39-7.71,28.56-12.96c9.8,24.81,47.62,32.83,77.35,24.89
		c15.91-4.22,42.39-11.47,60.93-20.35c0.21,4.6,0.95,8.67,2.39,12.12c3.12,7.1,6.81,14.2,12.78,19.31
		c10.51,8.8,23,13.06,36.63,11.36c12.78-1.7,24.99-5.4,36.34-11.64c14.5-8.25,28.82-17.21,42.83-26.59
		c-0.4,4.09,1.58,7.64,5.16,10.12c4.05,2.58,10.43,1.41,14.2-1.7c3.12-2.84,5.96-5.39,9.09-8.23c4.26-4.26,9.09-7.67,14.48-10.22
		c3.41-1.7,8.8-2.56,11.93,2.84c1.7,2.56,4.26,4.83,5.96,7.38c3.69,5.96,8.8,10.22,14.48,14.48c12.49,9.09,28.39,9.94,41.46,3.69
		c3.69-1.99,7.38-3.69,10.79-5.68c29.25-15.9,36.91-21.86,52.24-33.5c1.99-1.7,3.69-3.98,5.39-6.25c2.56-2.84-2.56-8.8-4.83-6.81
		c-9.66,8.08-19.11,17.13-30.1,23.57c-6.53,3.69-12.78,7.38-18.74,11.07c-7.95,4.83-16.18,8.52-24.99,11.36
		c-4.26,1.42-8.8,1.99-13.35,1.7c-12.67-0.4-16.52-7.3-23.57-16.18c-2.84-3.69-5.39-7.67-8.23-10.79
		c-5.96-6.53-16.47-10.22-26.41-5.11c-1.99,1.14-3.98,2.27-5.68,3.41c-7.95,5.68-8.23,6.25-13.06,10.22
		c-1.42,0.95-2.56-0.35-2.56-1.42c2.27-10.22,7.1-21.01,10.79-29.25c0.57-1.14,1.7-2.27,2.84-3.12
		c24.7-17.6,38.62-30.38,57.07-56.22c4.54-6.25,7.95-13.06,9.94-20.73c4.54-15.05-15.33-26.12-30.95-16.18
		c-6.53,4.26-12.21,9.65-17.04,15.62c-9.94,12.78-17.89,26.41-24.13,41.17c-8.97,21.4-15.52,40.19-19.65,60.14
		c-11.88,7.33-23.53,14.89-35.44,22.2c-4.54,3.12-9.09,5.96-13.91,8.52c-10.79,6.25-21.86,10.79-34.36,13.06
		c-9.09,1.63-20.3,0.75-26.69-6.53c-5.96-7.1-9.37-15.33-9.37-24.99c0.28-7.1,2.27-13.63,3.69-20.16
		c2.84-11.36,6.53-22.72,10.79-33.79c0.85-2.27,2.56-3.69,4.83-3.98c37.48-6.81,67.01-12.78,97.39-11.64c2.84,0,5.39,0,8.23-0.28
		c0.57,0,1.42-1.14,1.7-1.7c0.44-1.85-1.65-5.64-5.96-6.25c-10.95-1.55-24.58-2.7-35.49-1.7c-11.93,1.14-20.44,2.56-45.71,6.53
		c-5.39,0.85-10.79,1.99-16.18,2.84c-0.85,0-1.7-1.14-1.42-1.7c2.27-5.68,4.54-11.07,6.53-16.47c0.96-2.57-0.45-6.05-1.99-7.67
		c-5.39-5.96-10.22-4.54-13.35,0.85c-4.26,7.1-7.1,14.76-10.79,22.15c-3.41,7.1-1.7,7.38-10.79,7.38c-5.39,0-16.18,0.85-19.31-3.98
		c-1.14-1.7-2.56-3.41-4.83-4.54c-1.42-0.85-3.98,0-4.26,1.7c-0.28,0.85-0.57,1.99-0.28,2.56c1.7,9.09,11.07,15.9,31.8,15.9
		c-3.8,15.7-7.12,30.15-8.11,42.18c-0.91,0.34-1.74,0.69-2.39,0.98c-18.74,8.52-32.09,13.91-55.37,19.02
		c-21.01,4.54-39.75,7.1-55.94-3.12c-11.36-7.1-9.09-12.78-9.09-34.64c0-2.84,0.28-7.95-1.99-9.09c-0.57-0.28-2.27-1.42-4.83-2.27
		c-4.54-1.42-8.23,0-9.09,3.41c-2.08,8.61-2.79,15.48-1.95,22.4c-4.28,1.74-8.61,3.52-12.81,5.43
		c-21.58,9.65-44.29,16.47-67.29,21.01c-10.51,2.27-21.01,1.7-30.95-2.27c-5.39-2.27-7.1-5.96-7.1-10.79
		c0.28-5.54,2.36-9.1,5.11-13.91c1.14-1.99,2.56-3.69,3.98-5.68c2.27-3.97,2.27-6.25-0.85-9.94c-1.99-2.56-5.68-3.41-8.52-1.99
		c-1.99,0.85-3.98,2.27-5.96,3.41c-1.7-1.99-3.41-3.98-5.39-5.96c-5.11-5.68-14.48-4.83-18.74-1.42
		C184.95,563.3,182.52,565.64,180.43,568.19L180.43,568.19z M98.7,541.21c3.98-11.27,9.55-26.87,17.89-35.21
		c1.26-1.26,1.67-0.03,1.99,0.28c0,0.28,0.28,0.85,0,1.14c-9.65,9.65-8.23,25.27-17.89,34.92C99.56,543.47,98.17,542.79,98.7,541.21
		L98.7,541.21z M98.7,635.48c2.27,5.4,3.69,11.07,5.68,16.75c1.14,3.41,0.85,7.1,1.14,9.37c0,7.76,0.36,8.83-3.41,15.62
		c-0.85,1.42-3.69,1.7-4.83,0.57c-2.98-2.98-6.07-8.95-7.67-12.78c-3.69-9.09-5.96-19.02-5.96-29.25c0-5.11,0.57-9.65,0.57-15.05
		c0-0.28,0.57-0.85,0.57-1.14c0-0.85,1.99,0,2.56,0.57C91.88,624.69,96.14,629.51,98.7,635.48L98.7,635.48z M205.74,575.28
		c-0.28,0.85-0.85,1.99-1.42,2.27c-5.68,2.84-11.36,5.68-17.04,8.52c-1.5,0-2.4,0.02-3.12-1.42c3.41-5.11,7.95-8.8,13.34-11.36
		c1.7-0.57,3.69-0.57,5.4-0.57C204.32,572.73,206.03,574.43,205.74,575.28L205.74,575.28z M349.7,546.04c1.7,0.57,3.41,0.85,5.11,0
		c3.41-1.7,5.68-5.11,5.68-9.09c0-12.78-22.15-13.06-17.89,1.7C343.74,542.34,346.29,544.9,349.7,546.04L349.7,546.04z
		 M640.74,545.47c1.14-5.96,22.15-42.02,31.52-53.66c5.96-7.1,19.31-18.46,18.74-10.51c0,1.42-0.28,2.56-0.85,3.98
		c-2.56,7.38-5.96,14.2-10.51,20.44c-11.64,17.04-21.86,28.39-36.63,40.32C641.87,546.89,640.74,546.6,640.74,545.47L640.74,545.47z
		"/>
	<path d="M189.79,193.4c-2.79-0.7-9.06-1.74-9.06-4.18c0-4.12,10.82-3.9,15.13,0l5.37-6.06c-5.37-4.18-9.62-5.16-16.31-5.16
		c-7.04,0-12.76,5.44-12.76,10.87c0,8.09,7.18,9.27,11.99,10.59c2.65,0.77,8.5,1.46,8.5,4.25c0,3.52-8.83,5.01-15.26-0.35
		l-5.23,6.27c9.06,9.24,29.07,6.59,29.07-5.37C201.22,198.07,196.76,195.15,189.79,193.4L189.79,193.4z M271.85,215.15h9.83
		l-13.59-35.62l-0.7-1.53h-8.43l-0.7,1.53l-13.66,35.62h9.83l2.37-6.76h12.69L271.85,215.15L271.85,215.15z M259.23,201.56
		l3.9-11.08l3.9,11.08H259.23L259.23,201.56z M340.45,215.15h8.43L363.18,178h-9.83l-8.71,24.68L335.92,178h-9.83L340.45,215.15
		L340.45,215.15z M437.22,186.99V178H407.6v37.15h29.62v-8.92h-20.63v-5.16h15.2v-8.99h-15.2v-5.09H437.22L437.22,186.99z
		 M495.65,178h-14.01v37.15h14.01c10.25,0,18.54-8.36,18.54-18.61C514.19,186.36,505.9,178,495.65,178L495.65,178z M495.65,206.23
		h-5.09v-19.31h5.09c5.3,0,9.62,4.32,9.62,9.62C505.27,201.91,500.95,206.23,495.65,206.23L495.65,206.23z M606.29,195.91
		c8.34-5.86,3.61-17.91-7.18-17.91h-18.82v37.15c7.06,0,14.13,0,21.19,0C613.36,215.15,617.39,200.76,606.29,195.91L606.29,195.91z
		 M589.28,185.18h8.43c5.14,0,5.14,7.81,0,7.81h-8.43V185.18L589.28,185.18z M599.39,207.97h-10.11v-7.81h10.11
		C605.37,200.17,605.37,207.97,599.39,207.97L599.39,207.97z M690.93,178h-10.39l-8.85,15.4l-8.92-15.4h-10.32l14.78,25.58v11.57
		h8.92v-11.57L690.93,178L690.93,178z"/>
	<path d="M223.38,402.59h-30.53v8.99h10.94v28.16h8.92v-28.16h10.66V402.59L223.38,402.59z M288.07,402.59v14.08h-13.24v-14.08
		h-8.99v37.15h8.99v-14.08h13.24v14.08h8.99v-37.15H288.07L288.07,402.59z M363.07,425.73c11.44-5.84,7.31-23.14-5.51-23.14h-18.05
		v37.15h8.92v-12.76c0,0,2.51,0,5.09,0l7.32,12.76h10.39L363.07,425.73L363.07,425.73z M348.44,409.98h8.29
		c2.61,0,4.67,2.04,4.67,5.02c0,2.58-2.16,4.67-4.67,4.67h-8.29V409.98L348.44,409.98z M430.83,402.59
		c-10.25,0-18.54,8.29-18.54,18.54c0,10.32,8.29,18.61,18.54,18.61c10.25,0,18.61-8.29,18.61-18.61
		C449.44,410.88,441.08,402.59,430.83,402.59L430.83,402.59z M430.83,430.82c-5.3,0-9.62-4.32-9.62-9.69c0-5.3,4.32-9.62,9.62-9.62
		c5.37,0,9.62,4.32,9.62,9.62C440.45,426.5,436.2,430.82,430.83,430.82L430.83,430.82z M512.6,402.59v23.7
		c0,3.14-2.93,5.72-6.62,5.72c-3.67,0-6.62-2.4-6.62-5.99v-23.42h-8.99v24.12c0.28,7.25,7.18,13.03,15.61,13.03
		c8.43,0,15.27-5.79,15.54-13.03c0.07-0.14,0.07-24.12,0.07-24.12H512.6L512.6,402.59z M598.41,421.13v-1.74h-15.82v6.83h6.83
		c-1.69,2.82-4.96,4.6-8.23,4.6c-5.3,0-9.62-4.32-9.62-9.69c0-8.11,9.51-12.59,15.75-7.39l7.6-5.09
		c-11.6-12.55-32.27-4.25-32.27,12.48c0,16.26,19.9,25.41,32.27,12.55c1.04-1.08,3.27-4.34,3.49-5.51V421.13L598.41,421.13z
		 M663.09,402.59v14.08h-13.24v-14.08h-8.99v37.15h8.99v-14.08h13.24v14.08h8.99v-37.15H663.09L663.09,402.59z"/>
</g>
</svg>
