<?xml version="1.0" encoding="utf-8"?>
<!-- Generator: Adobe Illustrator 25.0.0, SVG Export Plug-In . SVG Version: 6.00 Build 0)  -->
<svg version="1.1" id="Layer_1" xmlns="http://www.w3.org/2000/svg" xmlns:xlink="http://www.w3.org/1999/xlink" x="0px" y="0px"
	 viewBox="0 0 864 864" style="enable-background:new 0 0 864 864;" xml:space="preserve">
<style type="text/css">
	.st0{fill:#333232;}
</style>
<g>
	<path class="st0" d="M56.7,596.8v-50.77h23.59v50.77h10.76h10.76V473.56H80.29v50.77H56.7v-50.77H35V596.8H56.7L56.7,596.8z
		 M171.94,575.09v-29.06h24.16v-13.28c-1.74,0.24-3.51,0.37-5.31,0.39c-7.75,0.09-14.95-2.07-21.05-6.88
		c-6.42-5.06-9.37-12.26-10.02-20.29c-1.04-12.76,6.09-22.91,15.58-30.63c0.74-0.6,1.49-1.19,2.26-1.77h-27.13V596.8h56.05v-21.7
		H171.94L171.94,575.09z M182.37,495.27h24.1v-16.6c-2.66,1.25-5.3,2.57-7.9,3.96c-5.31,2.96-10.16,6.7-14.54,10.91
		C183.45,494.09,182.9,494.67,182.37,495.27L182.37,495.27z M366.43,473.56v2.39c0.28,1.27,0.47,2.57,0.58,3.9
		c0.12,1.43-0.08,2.78-0.58,4.03v51.96l-23.59-62.28h-21.7V596.8h21.7v-62.09l23.4,62.09h21.89V473.56H366.43L366.43,473.56z
		 M458.08,575.09v-29.06h24.16v-21.7h-24.16v-29.06h34.54v-21.7h-56.05V596.8h56.05v-21.7H458.08L458.08,575.09z M590.49,473.56
		l-16.42,83.6l-16.42-83.6h-22.08l24.16,123.23h28.69l24.16-123.23H590.49L590.49,473.56z M677.04,575.09v-29.06h24.16v-21.7h-24.16
		v-29.06h34.54v-21.7h-56.05V596.8h56.05v-21.7H677.04L677.04,575.09z M760.19,596.8h21.7v-50.77h19.63l3.96,3.96v46.8H827v-55.86
		l-5.66-5.66l5.66-5.85v-39.25l-16.61-16.61h-50.2V596.8L760.19,596.8z M781.9,495.27h19.63l3.96,3.96v21.33l-3.96,3.77H781.9
		V495.27L781.9,495.27z"/>
	<path class="st0" d="M159.23,725.43V623.9h-21.7v123.23h56.05v-21.7H159.23L159.23,725.43z M264.1,725.43v-29.06h24.16v-21.7H264.1
		V645.6h34.54v-21.7h-56.05v123.23h56.05v-21.7H264.1L264.1,725.43z M369.92,624.09l-24.16,123.04h22.08l3.59-17.55h19.25
		l3.59,17.55h22.08l-24.16-123.04H369.92L369.92,624.09z M381.06,680.13l5.47,27.74h-10.95L381.06,680.13L381.06,680.13z
		 M508.95,623.9l-16.42,83.6l-16.42-83.6h-22.08l24.16,123.23h28.69l24.16-123.23H508.95L508.95,623.9z M599.67,725.43v-29.06h24.16
		v-21.7h-24.16V645.6h34.54v-21.7h-56.05v123.23h56.05v-21.7H599.67L599.67,725.43z M750.97,691.27l-16.61-16.61h-24.72l-3.96-3.96
		v-21.33l3.96-3.77h15.66l3.96,3.77v10.19h21.7V640.5l-16.61-16.61h-33.78l-16.42,16.61v39.25l16.61,16.61h24.72l3.77,3.96v21.33
		l-3.96,3.77h-15.66l-3.96-3.77v-14.34h-21.51v23.21l16.61,16.61h33.59l16.61-16.61V691.27L750.97,691.27z"/>
	<path class="st0" d="M279.95,190.47h24.16v-21.7h-24.16V139.7h34.35V118h-56.05v123.23h21.7V190.47L279.95,190.47z M373.86,118.19
		L349.7,241.23h22.08l3.59-17.55h19.25l3.59,17.55h22.08l-24.16-123.04H373.86L373.86,118.19z M384.99,174.24l5.47,27.74h-10.95
		L384.99,174.24L384.99,174.24z M484.94,219.53V118h-21.7v123.23h56.05v-21.7H484.94L484.94,219.53z M585.83,219.53V118h-21.7
		v123.23h56.05v-21.7H585.83L585.83,219.53z"/>
	<path class="st0" d="M367.19,304.91h13.19v-11.85h-13.19v-15.86h18.75v-11.85h-30.6v67.27h11.85V304.91L367.19,304.91z
		 M445.86,274.41l-9.07-9.07h-18.34l-9.07,9.07v49.14l9.07,9.07h18.34l9.07-9.07V274.41L445.86,274.41z M434.01,318.71l-2.06,2.06
		h-8.65l-2.06-2.06v-39.46l2.06-2.06h8.65l2.06,2.06V318.71L434.01,318.71z M472.4,332.62h11.85v-27.71h10.71l2.16,2.16v25.55h11.74
		v-30.49l-3.09-3.09l3.09-3.19v-21.43l-9.07-9.07h-11.13H472.4V332.62L472.4,332.62z M484.24,277.19h10.71l2.16,2.16V291l-2.16,2.06
		h-10.71V277.19L484.24,277.19z"/>
	<path class="st0" d="M166.97,201.95l0.33-0.24c5.32-3.83,11.24-6.69,16.81-9.74c5.8-1.38,13.68-2.1,19.53-6.1
		c4.97-3.58,12.9-15.76,3.95-18.9c-2.34-1.01-6.47-0.3-9.02,0.35c-8.34,1.59-16.93,7.46-21.43,18.13c-4.6,2.89-9.38,5.68-14.24,8.21
		c0.09-4.81-0.44-8.84-3.16-13.35c-6.79-12.16-13.11-3.76-14.06,3.67c-1.01,6.98,1.47,14.46,2.94,20.09
		c-9.13,6.47-17.61,15.06-26.16,23.38c0.45-5.06-1.66-9.48-4.55-13.64c-1.87-2.75-3.99-6.29-7.55-7.49
		c-6.27,3.12-6.31,14.57-5.82,20.79c0.49,6.22,2.06,11.24,6.36,15.25c-6.91,9.4-13.66,19.33-19.74,30.94
		c-3.56-5.84-6.91-13.78-16.63-17.55c-4.51-1.92-8.65-0.34-9.55,5.59c-1.59,10.2,9.65,21.61,17.9,29.03
		c-4.47,9.8-7.54,19.01-10.69,28.4c-4.08-6.11-13.49-17.23-23.12-16.54c-3.8,6.4-2.35,13.34,0.34,19.16
		c3.11,6.71,7.68,14.84,17.41,18.17c-2.62,8.79-4.19,18.11-5.75,26.13c-4.95-6.57-18.54-13.91-24.59-8.69
		c-3.91,7.89,0.77,14.53,4.95,20.04c4.53,5.68,10.89,11.23,17.98,15.83c-0.02,14.78,2.13,30.48,8.25,44.5
		c0.84,1.77,1.66,4.84,3.48,5.58c1.82,0.73,4.83-1.22,5.74-2.95c1.46-3.21-2.47-8.36-3.37-11.26c-3.54-11.35-6.21-22.68-5.19-35.17
		c11.33-2.67,26.24-4.57,33.59-18.6c1.63-3.12,2.77-7.82,0.7-9.34c-2.42-1.71-6.81-0.48-9.1,0.09c-8.44,2.2-15.79,6.96-22.82,13.21
		c0.6-12.93,2.69-26.19,5.21-39.44c6.99,0.57,12.38-2.56,18.78-7.6c4.27-3.51,9-8.75,11.2-14.22c1.29-3.3,0.82-6.19-3.45-7.33
		c-8.7-2.35-16.65,6.5-22.63,12.43c2.47-10.19,5.46-20.54,10.22-31.29c5.51,0.02,11.64-0.3,17.81-2.81
		c5.29-2.08,12.27-5.71,15.01-11.78c1.47-3.64,0.04-6.82-4.24-7.08c-7.33-0.75-15.04,4.26-21.03,6.42
		c7.12-11.06,14.4-21.16,22.25-29.4c9.84,2.29,23.08,0.61,30.46-5.89c0.89-0.86,1.96-2.06,2.61-3.71
		c-0.44-8.84-15.38-5.19-19.84-5.1c7.57-7.29,14.9-15.37,22.88-21.34c10.14,5.09,22.86,7.78,30.05,2.06
		c1.25-1.11,2.68-3.01,2.63-5.02c-5.46-6.82-15.33-4.87-21.63-5.83C166.95,201.97,166.97,201.95,166.97,201.95L166.97,201.95z
		 M695.03,201.95l-0.33-0.24c-5.32-3.83-11.24-6.69-16.81-9.74c-5.8-1.38-13.68-2.1-19.53-6.1c-4.97-3.58-12.9-15.76-3.95-18.9
		c2.34-1.01,6.47-0.3,9.02,0.35c8.34,1.59,16.93,7.46,21.43,18.13c4.6,2.89,9.38,5.68,14.24,8.21c-0.09-4.81,0.44-8.84,3.16-13.35
		c6.79-12.16,13.11-3.76,14.06,3.67c1.01,6.98-1.47,14.46-2.94,20.09c9.13,6.47,17.61,15.06,26.16,23.38
		c-0.45-5.06,1.66-9.48,4.55-13.64c1.87-2.75,3.99-6.29,7.55-7.49c6.27,3.12,6.31,14.57,5.82,20.79
		c-0.49,6.22-2.06,11.24-6.36,15.25c6.91,9.4,13.66,19.33,19.74,30.94c3.56-5.84,6.91-13.78,16.63-17.55
		c4.51-1.92,8.65-0.34,9.55,5.59c1.59,10.2-9.65,21.61-17.9,29.03c4.47,9.8,7.54,19.01,10.69,28.4
		c4.08-6.11,13.49-17.23,23.12-16.54c3.8,6.4,2.35,13.34-0.34,19.16c-3.11,6.71-7.68,14.84-17.41,18.17
		c2.62,8.79,4.19,18.11,5.75,26.13c4.95-6.57,18.54-13.91,24.59-8.69c3.91,7.89-0.77,14.53-4.95,20.04
		c-4.53,5.68-10.89,11.23-17.98,15.83c0.02,14.78-2.13,30.48-8.25,44.5c-0.84,1.77-1.66,4.84-3.48,5.58
		c-1.82,0.73-4.83-1.22-5.74-2.95c-1.46-3.21,2.47-8.36,3.37-11.26c3.54-11.35,6.21-22.68,5.19-35.17
		c-11.33-2.67-26.24-4.57-33.59-18.6c-1.63-3.12-2.77-7.82-0.7-9.34c2.42-1.71,6.81-0.48,9.1,0.09c8.44,2.2,15.79,6.96,22.82,13.21
		c-0.6-12.93-2.69-26.19-5.21-39.44c-6.99,0.57-12.38-2.56-18.78-7.6c-4.27-3.51-9-8.75-11.2-14.22c-1.29-3.3-0.82-6.19,3.45-7.33
		c8.7-2.35,16.66,6.5,22.63,12.43c-2.47-10.19-5.46-20.54-10.22-31.29c-5.51,0.02-11.64-0.3-17.81-2.81
		c-5.29-2.08-12.27-5.71-15.01-11.78c-1.47-3.64-0.04-6.82,4.24-7.08c7.33-0.75,15.04,4.26,21.03,6.42
		c-7.12-11.06-14.4-21.16-22.25-29.4c-9.84,2.29-23.08,0.61-30.46-5.89c-0.89-0.86-1.96-2.06-2.61-3.71
		c0.44-8.84,15.38-5.19,19.84-5.1c-7.57-7.29-14.9-15.37-22.88-21.34c-10.14,5.09-22.86,7.78-30.05,2.06
		c-1.25-1.11-2.68-3.01-2.63-5.02c5.46-6.82,15.33-4.87,21.63-5.83C695.05,201.97,695.03,201.95,695.03,201.95L695.03,201.95z"/>
	<path class="st0" d="M243.43,491.31c-16.88,25.26-34.44,38.03-52.69,38.33c-7.39,0-13.69-2.04-18.85-6.13
		c-5.16-4.05-8.06-9.99-8.7-17.83c-0.82-10.03,3.96-19.24,14.3-27.63c16.29-13.3,41.78-23.25,76.33-29.94
		c16.07-34.09,33.42-82.97,36.38-120.56c0.26-3.19,0.23-6.28-0.01-9.25c-1.82-22.21-27.91-23.29-48.78-23.29
		c-26.18,0-49.66,3.6-70.39,10.77c-20.25,7.01-42.63,20.96-49.87,40.93c-1.48,4.12-2.04,8.25-1.7,12.41
		c0.69,8.47,4.51,15.15,11.44,20.02c3.91,2.82,8.28,4.94,13.03,6.31c6.85,2.03,5.63,11.29-0.71,11.29c-4.16,0-9.79-2.49-16.96-7.5
		c-11.38-7.91-17.55-17.94-18.55-30.12c-1.46-17.83,9.75-34.61,24.11-45.83c30.33-23.71,71.6-30.01,113.09-30.01
		c14.3,0,26.27,1.93,35.95,5.87c12.92,5.35,19.95,15.08,21.11,29.16c0.95,11.55-1.25,27.86-6.54,48.95
		c-7,27.93-16.11,54.19-27.31,78.81c15.49-2.11,31.78-2.28,47.3-0.67c21.2,2.19,35.77,9.51,43.69,21.99
		c2.55,3.97,4.05,8.21,4.42,12.74c0.41,4.97-5.51,7.99-9.69,4.12c-3.51-3.25-0.74-5.58-4.66-11.55
		c-9.69-14.76-34.9-16.53-54.32-16.53c-10.96,0-21.88,0.89-32.76,2.71C256.82,469.7,250.61,480.5,243.43,491.31L243.43,491.31z
		 M190.54,518.09c9.01-0.22,18.15-5.16,27.54-14.78c10.3-10.7,19.98-24.59,29.02-41.67c-17.97,3.68-34.72,9.66-50.23,17.94
		c-5.33,2.97-10.44,6.8-15.26,11.44c-4.86,4.64-7.06,9.51-6.64,14.67C175.68,514.32,180.95,518.09,190.54,518.09L190.54,518.09z
		 M333.62,419.63c-6.09,0-11.66-2.27-16.71-6.8c-18.84-16.93-3.35-50.44,16.52-50.44c6.55,0,11.96,5.4,12.48,11.85
		c0.3,3.64-0.31,7.09-1.86,10.44c-4.87,9.43-12.61,15.23-23.16,17.42c2.1,4.35,6.03,6.54,11.83,6.54c7.06,0,14.76-2.08,23.18-6.28
		c8.39-4.16,16.3-9.1,23.74-14.86c7.41-5.7,13.34-11.1,17.78-16.24c0.99-2.41,2.79-4.49,5.42-6.27c3.04-2.05,8.28-0.03,8.66,4.57
		c0.41,5.02-4.31,4.48-4.05,7.73c0.76,9.25,18.93,27.11,12.04,45.05c14.97-4.49,29.21-11.59,42.72-21.28
		c13.54-9.69,24.73-19.65,33.55-29.86l1.38-4.46c1.28-3.91,5.47-4.22,8.52-2.08c1.83,1.29,2.51,4.17,1.91,6.09
		c-3.61,11.7-5.04,21.88-4.33,30.57c0.73,8.88,5.68,6.51,10.64,1.11c7.26-7.91,14.93-20.47,23.03-37.66
		c1.22-2.6,2.34-4.35,5.22-4.35c2.79,0,5.7,2.01,5.99,5.53c0.05,0.59-0.91,4.35-2.9,11.29c-1.96,6.91-2.5,15.75-1.62,26.48
		c0.47,5.79,2.76,10.59,6.82,14.37c6.41,5.91,17.11,3.41,26.22,0c24.69-9.35,46.68-24.97,65.97-46.85c0.99-2.4,2.79-4.49,5.42-6.26
		c3.04-2.05,8.28-0.03,8.66,4.57c0.41,5.02-4.31,4.48-4.05,7.73c0.76,9.25,18.93,27.11,12.04,45.05
		c14.97-4.49,29.21-11.59,42.72-21.28c13.54-9.69,24.73-19.65,33.55-29.86c2.9-3.25,9.2-1.49,9.64,3.9c0.11,1.34-0.28,2.53-1.23,3.6
		c-12.1,13.22-27.91,26.11-47.42,38.7c-19.51,12.55-38.98,18.87-58.4,18.87c-16.77,0-30.79-20.76-24.8-25.78
		c2.65-2.22,7.72-2.04,9.32,2.71c2.08,6.16,6.93,12.07,14.14,12.07c8.35,0,13.71-5.41,13.02-13.82c-0.75-9.16-7.36-17.26-11.02-25.3
		c-18.66,19.39-39.81,33.36-63.46,41.94c-13.51,4.92-30.27,6.55-39.96-4.9c-5.97-7.07-8.85-16.49-8.39-26.33
		c-10.59,16.57-23.75,28.75-34.92,16.27c-5.5-6.15-5.75-14.43-5.21-22.58c-10.02,9.1-21.85,18.05-35.48,26.85
		c-19.51,12.55-38.98,18.87-58.4,18.87c-16.77,0-30.79-20.76-24.8-25.78c2.65-2.22,7.72-2.04,9.32,2.71
		c2.08,6.16,6.93,12.07,14.14,12.07c8.35,0,13.71-5.41,13.02-13.82c-0.75-9.17-7.38-17.29-11.04-25.34
		c-5.58,5.37-12.03,10.55-19.36,15.54C362.02,413.65,346.69,419.63,333.62,419.63L333.62,419.63z M319.65,390.99
		c6.54-1.75,11.32-5.61,14.39-11.63c4.09-8.57-2.68-6.25-5.25-4.27C324.14,378.68,320.51,385.66,319.65,390.99L319.65,390.99z"/>
</g>
</svg>
