<?xml version="1.0" encoding="utf-8"?>
<!-- Generator: Adobe Illustrator 25.0.0, SVG Export Plug-In . SVG Version: 6.00 Build 0)  -->
<svg version="1.1" id="Layer_1" xmlns="http://www.w3.org/2000/svg" xmlns:xlink="http://www.w3.org/1999/xlink" x="0px" y="0px"
	 viewBox="0 0 864 864" style="enable-background:new 0 0 864 864;" xml:space="preserve">
<g>
	<path d="M222.84,79.68c-34.03,6.32-68.57,4.78-102.08,6.93c-38.21,2.6-32.98-0.47-31.93,35.67c1.05,32.47,5.23,63.94,7.85,95.91
		c0.52,9.34,3.14,15.14,13.61,13.19c15.7-2.92,25.13,5.59,32.46,19.83c-9.95,5.62-20.42,7.04-31.41,7.41
		c-7.33,0.42-9.42,4.05-8.38,10.87c3.66,19.42,7.33,38.32,9.42,57.72c2.09,20.44,1.05,20.95-19.37,22.76
		c-21.46,2.31-20.94,1.8-30.88-18.24c-10.47-22.66-13.61-47.31-17.8-70.92c-9.95-57.63-8.9-115.2-2.09-173.21
		c2.62-19.85,3.14-18.28,23.56-17.99c23.56,0.33,47.11-2.47,70.67-4.23c21.99-1.78,44.49-0.94,67-1.14
		C213.41,64.36,220.74,68.13,222.84,79.68L222.84,79.68z M320.72,332.42c-14.13,0.85-29.31,5.87-42.92-2.7
		c-7.85-4.82-12.04-12.21-14.13-20.62c-2.62-11.03-4.19-21.52-4.19-32.51c0.52-10.46,0-20.42,0-30.88
		c-6.28,0.96-6.81,5.14-8.38,7.73c-6.8,10.9-13.09,21.8-20.42,32.16c-12.04,17.1-36.64,22.51-54.96,12.83
		c-8.9-4.84-13.09-12.23-15.7-21.69c-8.9-30.57,7.33-77.98,33.5-96.45c16.75-11.28,43.45-10.38,60.72,1.39
		c3.14,2.14,5.23,6.88,12.04,8.02c1.57-8.88,3.14-17.75,5.23-25.58c3.66-11.46,7.85-14.55,18.32-14.4
		c27.17,0.39,28.26,19.43,27.22,39.65l-3.14,87.9c0,11.52-0.52,23.02,5.23,35.67c10.47,0.15,35.07-62.84,42.4-85.25
		c1.36-3.79,2.86-7.57,4.43-11.35c0.39-1.77,0.81-3.55,1.24-5.32c3.66-12.51,5.76-13.53,18.32-11.78
		c35.07,4.16,35.6,8.36,32.45,38.67c-1.57,17.78-2.09,36.09-1.05,54.42c0,3.14-0.52,5.23,4.71,8.97
		c18.32,0.26,38.21-49.71,45.54-72.11c0.77-2.14,1.58-4.28,2.43-6.42c-1.18-36.98,2.07-73.64,4.99-110.3
		c1.05-17.78,0.52-17.79-16.75-17.51c-10.99,0.37-22.51,1.25-33.5,2.14c-9.42,0.39-18.32-1.31-23.03-12.89
		c17.8-4.46,35.07-4.74,52.35-5.54c20.75-1.15,27.22-2.01,27.22-24.74c8.38-37.57,12.04-52.7,47.64-36.49
		c9.95,4.33,13.09,21.12,12.56,30.54c-1.57,23.01,5.23,19.97,22.51,19.16c22.51-1.25,44.49-2.51,67-3.24
		c5.76,0.08,13.09-2.95,16.75,5.47c-4.71,6.74-12.56,5.58-18.84,6.54c-24.08,2.8-47.64,6.13-71.19,8.93
		c-10.99,0.89-16.75,4.47-18.32,17.54c-7.33,62.19-9.95,124.44-2.09,186.85c1.57,14.68,3.66,41.93,14.66,42.09
		c14.66-1.36,40.83-77.94,48.16-100.34c0.13-0.36,0.26-0.73,0.4-1.1c-0.61-27.7,1.22-55.29,5.19-82.67
		c3.14-22.46,11.52-43.28,27.22-60.86c19.89-21.7,43.97-26.07,69.1-12.1c12.04,6.98,19.89,17.56,18.84,31.15
		c-1.92,41.33-3.49,70.62-64.74,109.53c1.05,15.2,2.62,30.4,4.71,45.61c0,1.05,1.05,1.59,2.62,3.18c5.76-3.58,5.76-9.86,8.38-15.06
		c7.85-17.16,18.32-31.67,32.98-42.98c6.28-4.1,12.56-7.15,20.42-7.04c21.46-0.22,30.36,7.76,29.84,29.74
		c-0.52,19.88-2.62,40.27-3.66,60.15c-0.52,8.37-0.52,16.74,2.62,25.16c2.62,6.32,5.76,7.41,10.99,3.3
		c10.47-10.84,28.79-60.84,36.12-83.24c2.62-7.29,5.76-14.58,8.9-21.86c2.09-4.16,6.28-5.67,10.99-4.03
		c5.76,2.18,5.76,6.89,4.71,10.54c-3.14,10.42-6.8,20.32-10.99,30.73c-9.07,21.86-17.97,41.62-32.11,68.12
		c-7.33,15.08-16.75,24.36-33.5,22.03c-14.13-1.77-21.99-23.87-24.6-35.42c-3.14-15.75-0.52-31.94,0-47.64
		c0.52-13.08,1.05-26.68,1.05-40.29c0-5.76-3.14-7.37-8.38-4.31c-7.85,5.12-13.09,12.38-18.32,19.63
		c-12.04,17.1-20.42,35.83-26.7,55.63c-2.09,7.3-2.09,14.63-0.52,21.98l3.14,10.51c6.28,32.54,6.28,32.02-26.7,37.31
		c-10.99,1.94-17.27-1.29-23.03-10.27c-13.63-21.44-18.47-47.25-21.4-71.66c-12.05,33.79-31.73,81.22-59.04,81.6
		c-42.4,0.44-51.82-20.1-58.1-35.37c-7.38-18.35-10.8-37.72-13.25-57.57c-10.63,23.71-27.64,54.07-51.75,59.35
		c-10.99,2.98-24.08,1.75-39.78-4.23c-11.52-3.83-18.32-12.3-19.37-23.83c-0.58-5.23-1-10.45-1.25-15.64
		C351.08,300.87,337.94,324.05,320.72,332.42L320.72,332.42z M201.9,287.8c10.47-2.47,14.66-9.21,19.37-14.38
		c12.04-14.05,22.51-30.13,31.41-46.75c9.42-17.14,8.9-21.34-5.23-34.62c-14.13-13.81-19.89-13.89-29.84,1.67
		C199.28,222.33,196.14,253.17,201.9,287.8L201.9,287.8z M411.72,160.88c-0.52,4.7-1.57,10.45-8.9,9.82
		c-8.9-0.13-17.27-7.05-16.23-13.32c0.52-6.8,4.19-10.93,11.52-10.83C405.44,146.66,411.72,153.03,411.72,160.88L411.72,160.88z
		 M655.74,208.14c12.56-11.34,30.88-25.73,38.74-37.66c12.04-17.63,18.32-36.91,17.8-58.38c0-11.52-4.19-21.52-12.56-29.49
		c-8.38-9.02-17.27-8.62-25.13,0.69c-7.85,9.83-11.52,21.3-13.61,33.31C655.74,147.42,654.17,177.76,655.74,208.14L655.74,208.14z"
		/>
	<path d="M69.82,442.55c0-2.12-2.01-3.68-3.01-4.9c-5.8-8.58-8.47-18.72-8.47-28.98c0-8.4,1.95-18.66,6.46-25.97
		c0.78-1.23,1.45-2.01,1.45-3.34c0-4.05-4.67-4.52-6.46-2.01c-1.45,2.56-2.79,5.35-4.01,7.91c-3.01,7.58-4.35,15.6-4.35,23.63
		c0,2.12-0.11,3.79,0.22,5.68c0,3.41,1.76,9.46,2.67,12.93c0.48,3.72,6.01,12.91,8.25,15.94c1,1.34,2.12,2.79,3.9,2.79
		C68.37,446.23,69.82,444.67,69.82,442.55L69.82,442.55z M91.51,381.59v55.06h-4.79c-0.56,0-1.56,0.78-1.56,1.23v6.91
		c0,0.78,1.11,1.34,1.56,1.34h22.07c0.78,0,1.67-0.67,1.67-1.45v-6.58c0-0.56-0.89-1.45-1.67-1.45h-6.69v-23.63h12.82v7.91
		c0,0.78,0.89,1.34,1.34,1.34h6.35c0.45,0,1.34-0.67,1.34-1.11v-25.75c0-0.78-0.78-1-1.23-1h-6.58c-0.33,0-1.23,0.56-1.23,1v8.02
		H102.1v-21.85h31.77v14.6c0,0.33,0.56,0.89,0.89,0.89h6.58c0.45,0,1-0.78,1-1.34v-21.96c0-0.45-0.45-1.23-1.23-1.23H89.62
		c-0.56,0-1.23-0.11-2.01,0.22c-0.45,0-1.89,0.56-1.89,1v6.46C85.72,381.55,90.49,381.59,91.51,381.59L91.51,381.59z M155.11,442.55
		c0,2.12,1.45,3.68,3.34,3.68c1.78,0,2.9-1.45,3.9-2.79c6.79-9.19,9.42-17.44,10.92-28.87c0.33-1.9,0.22-3.57,0.22-5.68
		c0-8.02-1.34-16.05-4.35-23.63c-1.23-2.56-2.56-5.35-4.01-7.91c-1.8-2.51-6.46-2.04-6.46,2.01c0,1.98,2.84,5.04,3.23,6.8
		c1.45,3.12,2.34,6.02,3.23,9.25c1,4.35,1.45,8.81,1.45,13.26c0,10.25-2.68,20.4-8.47,28.98
		C157.12,438.88,155.11,440.44,155.11,442.55L155.11,442.55z M187.72,418.81c0,9.47,4.24,19.17,12.59,23.96
		c21.3,12.43,41.97-10.95,34.55-33.33c-3.23-9.81-12.04-17.94-22.85-17.94C197.53,391.51,187.72,405.1,187.72,418.81L187.72,418.81z
		 M197.75,418.81c0-8.14,5.46-16.94,14.38-16.94c8.81,0,14.04,9.03,14.04,16.94c0,8.02-5.24,17.16-14.04,17.16
		C203.21,435.98,197.75,426.84,197.75,418.81L197.75,418.81z M254.89,441.1c0,2.79,2.12,5.02,4.9,5.02h11.93
		c6.83,0,7.11-10.14-0.22-10.14v-26.19c0-1.66,5.74-7.69,12.37-7.69c7.67,0,3.54,6.8,10.25,6.8c3.91,0,6.88-4.2,3.57-9.47
		c-5.55-9.29-18.79-8.95-26.19-3.79c-0.33-0.11-0.33-0.89-0.67-1c-0.78-1.67-2.23-3.23-4.12-3.23h-9.92c-3.21,0-5.93,5.13-3.46,8.02
		c1.78,2.67,4.9,2.23,7.91,2.23v34.33l-2.56,0.11C256.34,436.87,254.89,438.76,254.89,441.1L254.89,441.1z M318.37,401.43
		L330.19,443c0.95,3.67,8.03,4.88,9.47-0.22l7.13-23.41l4.79,23.07c0.83,3.98,7.86,6.1,9.81,0l13.49-40.35l2.34-0.22
		c2.35-0.31,3.9-3,3.9-5.02c0-2.34-1-3.9-2.9-4.68c-0.56-0.11-1-0.33-1.34-0.33h-13.15c-4.69,0-7.1,8.64,0.33,10.25l-6.46,19.28
		h-0.11l-4.12-19.5c0-0.79,0.74-0.05,2.68-2.12c2.89-3.09,0.35-8.25-3.79-8.25h-10.59c-5.53,0-7.18,8.97-0.45,10.14l0.11,0.22
		l-6.24,20.95l-6.02-20.95v-0.45c7.65-0.92,5.5-10.14,0.45-10.14H316.7c-4.5,0-7.14,7.81-0.89,9.92
		C316.59,401.54,317.59,401.43,318.37,401.43L318.37,401.43z M395.9,431.52c0,5.8,3.34,11.03,8.69,13.26c2.56,1,5.35,1.45,8.25,1.45
		c11.01,0,17.31-6.24,18.28-6.24c1.89,3.46,4.24,5.24,8.25,5.68l4.35-0.11c2.56-0.56,4.35-2.56,4.35-5.13
		c0-2.68-2.45-5.02-5.13-5.02l-2.45,0.33h-0.11c-0.56-0.78-0.56-1.34-0.56-1.78l-0.45-22.18c-0.02-1.76-0.63-4.32-1.11-6.24
		c-5.46-19.53-32.43-17.63-38.68-5.24c-0.78,1.67-1.67,3.01-1.67,4.68c0,6.14,7.83,6.83,9.7,2.23c0.33-0.89,0.67-2.01,1.45-2.79
		c2.23-2.34,5.13-3.46,8.81-3.46c5.06,0,8.67,2.05,10.37,6.58c-4.46-0.11-9.03,0.56-13.38,1.78
		C405.15,412.57,395.9,420.82,395.9,431.52L395.9,431.52z M405.93,431.52c0-5.57,6.13-10.48,10.92-11.93
		c4.84-1.74,7.07-1.78,12.26-1.78l0.11,9.92c-3.9,4.79-10.03,8.25-16.38,8.25C409.61,435.98,405.93,435.2,405.93,431.52
		L405.93,431.52z M465.85,441.1c0,2.79,2.12,5.02,4.9,5.02h11.93c6.83,0,7.11-10.14-0.22-10.14v-26.19c0-1.66,5.74-7.69,12.37-7.69
		c7.67,0,3.54,6.8,10.25,6.8c3.91,0,6.88-4.2,3.57-9.47c-5.55-9.29-18.79-8.95-26.19-3.79c-0.33-0.11-0.33-0.89-0.67-1
		c-0.78-1.67-2.23-3.23-4.12-3.23h-9.92c-3.21,0-5.93,5.13-3.46,8.02c1.78,2.67,4.9,2.23,7.91,2.23v34.33l-2.56,0.11
		C467.3,436.87,465.85,438.76,465.85,441.1L465.85,441.1z M522.21,419.7c0,13.93,10.03,26.53,24.63,26.53
		c6.24,0,11.26-2.12,16.27-6.46c-0.11,2.79,0.45,4.79,3.01,6.02c0.56,0.11,1.11,0.33,1.45,0.33h8.47c5.15,0,6.6-8.6,0.56-10.03
		c-1.23-0.33-2.01-0.11-3.46-0.11v-60.52c0-0.52-1.42-4.24-4.57-4.24h-7.02c-2.56,0-4.35,2.56-4.35,5.13c0,2.23,1.56,4.12,3.68,4.9
		l2.23,0.22v17.5c-4.35-4.35-10.14-6.8-16.27-6.8C532.13,392.17,522.21,405.88,522.21,419.7L522.21,419.7z M532.35,419.82
		c0-8.36,5.35-17.39,14.49-17.39c8.92,0,14.38,9.03,14.38,17.28c0,8.36-5.57,16.27-14.38,16.27
		C537.92,435.98,532.35,428.18,532.35,419.82L532.35,419.82z M595.39,441.1c0,2.31,1.92,5.02,4.24,5.02h23.41
		c1.79,0,4.24-2.17,4.24-5.02c0-2.78-2.37-5.02-4.24-5.02h-6.24V396.3c0-2.12-2.23-4.79-4.46-4.79h-10.37
		c-1.82,0.3-4.24,2.42-4.24,5.02c0,2.12,1,4.12,3.12,4.68c1.06,0.61,3.9,0.33,5.68,0.33v34.55h-6.91
		C599.49,436.22,595.39,436.39,595.39,441.1L595.39,441.1z M602.3,380.25c0,3.57,3.12,6.24,6.69,6.24c3.57,0,6.69-2.67,6.69-6.24
		c0-3.68-3.12-6.35-6.69-6.35C605.42,373.9,602.3,376.57,602.3,380.25L602.3,380.25z M650.63,446.01l9.03,0.11
		c6.68,0,7.45-9,0.89-10.14V410.9c0.19-0.82,7.19-9.58,14.38-9.58c6.58,0,8.14,8.14,8.14,13.26v21.4c-5.7,0.71-5.82,7.75-2.23,9.47
		c0.78,0.33,1.45,0.67,2.23,0.67h10.14c5.54,0,6.51-9.31-0.11-10.14v-23.07c0-9.92-6.23-21.85-18.06-21.85
		c-9.47,0-14.6,6.37-14.6,5.02c-0.24-0.24,0.03-0.59-0.33-1.11c-0.78-1.67-2.45-2.9-4.24-2.9h-9.59c-2.56,0-4.79,2.34-4.79,4.9
		c0,2.23,1.45,4.12,3.68,4.9c0.72,0.46,3.85,0.22,5.24,0.22v33.88C643.89,436.83,644.14,445.74,650.63,446.01L650.63,446.01z
		 M713.34,450.02c0,2.12,0.22,4.12,0.78,6.13c1.78,5.46,7.36,8.47,12.71,9.36c5.63,0.92,25.88,1.44,31.1-1.23
		c6.8-2.12,9.92-6.13,9.92-13.26c0-13.49-12.71-15.27-23.74-15.27c-4.67,0-10.03,0.57-14.82,0.78c-1,0-2.67-0.33-3.01-1.78v-0.78
		c0-3.23,2.23-5.46,5.02-6.46l3.01,0.22c11.26,0,18.06-7.69,18.06-18.84l-0.33-4.46c1.45-1.67,3.9-3.34,6.13-4.12
		c0.78-0.11,1.56-0.11,2.34-0.11c4.29,0,7.08-7.25,0.67-9.81c-0.78-0.33-1.45-0.22-2.23-0.22c-4.46,0-8.36,2.12-11.81,4.9
		c-1.27-0.42-4.72-4.57-12.82-4.57c-19.97,0-21.97,22.29-13.49,31.88c-3.01,3.01-4.79,7.13-4.79,11.59c0,3.77,1.56,5.84,1.56,6.24
		c-0.5,0.5-1.16,0.8-2.01,1.89C713.78,444.34,713.34,447.01,713.34,450.02L713.34,450.02z M723.37,450.02c0-1.9,1.78-2.56,3.46-2.9
		c0.89,0,3.23-0.45,3.57-0.45c2.29-0.05,15.91-0.92,19.06-0.45c1.11,0.11,2.23,0.33,3.46,0.56c3.01,0.45,4.57,1.23,4.57,4.24
		c0,2.34-1,3.23-3.12,3.68c-2.58,1.1-10.44,1.3-13.49,1.56c-3.94-0.09-9.57,0.23-13.26-1C724.59,454.48,723.37,453.14,723.37,450.02
		L723.37,450.02z M726.38,408.89c0-5.68,2.12-8.02,7.91-8.02c5.24,0,7.91,2.68,7.91,8.02c0,5.68-2.01,8.58-7.69,8.58
		C728.61,417.48,726.38,414.58,726.38,408.89L726.38,408.89z"/>
	<path d="M69.82,546.29c0-2.12-2.01-3.68-3.01-4.9c-5.8-8.58-8.47-18.72-8.47-28.98c0-8.4,1.95-18.66,6.46-25.97
		c0.78-1.23,1.45-2.01,1.45-3.34c0-4.05-4.67-4.52-6.46-2.01c-1.45,2.56-2.79,5.35-4.01,7.91c-3.01,7.58-4.35,15.6-4.35,23.63
		c0,7.3,1.02,11.49,2.9,18.61c0.48,3.72,6.01,12.91,8.25,15.94c1,1.34,2.12,2.79,3.9,2.79C68.37,549.97,69.82,548.41,69.82,546.29
		L69.82,546.29z M100.85,479.31l-14.82,58.85h-5.8c-0.56,0-1.34,0.78-1.34,1.56v6.46c0,0.78,0.67,1.56,1.45,1.56h19.62
		c0.78,0,1.67-0.56,1.67-1.34c0-9.24,1.04-8.25-5.35-8.25l2.45-9.92h19.5l2.9,9.92h-5.57c-0.56,0-1.56,0.56-1.56,1.34v6.91
		c0,0.56,0.78,1.34,1.34,1.34h20.95c0.78,0,1.56-1,1.56-1.78c0-8.7,1.02-7.8-6.58-7.8l-17.5-58.74
		C111.48,471.69,102.81,471.75,100.85,479.31L100.85,479.31z M101.18,518.31l6.35-25.19l7.69,25.19H101.18L101.18,518.31z
		 M146.81,546.29c0,2.12,1.45,3.68,3.34,3.68c1.78,0,2.9-1.45,3.9-2.79c6.79-9.19,9.42-17.44,10.92-28.87
		c0.33-1.89,0.22-3.57,0.22-5.68c0-8.02-1.34-16.05-4.35-23.63c-1.23-2.56-2.56-5.35-4.01-7.91c-1.8-2.51-6.46-2.04-6.46,2.01
		c0,1.98,2.84,5.04,3.23,6.8c1.45,3.12,2.34,6.02,3.23,9.25c1,4.35,1.45,8.81,1.45,13.26c0,10.25-2.68,20.4-8.47,28.98
		C148.82,542.61,146.81,544.17,146.81,546.29L146.81,546.29z M175.16,544.73c0,2.56,1.89,5.13,4.46,5.13h22.96
		c4.7,0,6.73-8.22,0.78-9.92c-1.54-0.44-5.02-0.22-6.8-0.22v-56.73c0-1.47-2.21-4.35-4.68-4.35h-9.47c-2.79,0-4.9,2.45-4.9,5.02
		c0,2.77,2.27,5.13,4.68,5.13h4.24v50.94h-6.69C177.17,539.71,175.16,542.17,175.16,544.73L175.16,544.73z M216.89,544.73
		c0,2.56,1.89,5.13,4.46,5.13h22.96c4.7,0,6.73-8.22,0.78-9.92c-1.54-0.44-5.02-0.22-6.8-0.22v-56.73c0-1.47-2.21-4.35-4.68-4.35
		h-9.47c-2.79,0-4.9,2.45-4.9,5.02c0,2.77,2.27,5.13,4.68,5.13h4.24v50.94h-6.69C218.9,539.71,216.89,542.17,216.89,544.73
		L216.89,544.73z"/>
	<path d="M69.82,648.82c0-2.12-2.01-3.68-3.01-4.9c-5.8-8.58-8.47-18.72-8.47-28.98c0-8.4,1.95-18.66,6.46-25.97
		c0.78-1.23,1.45-2.01,1.45-3.34c0-4.05-4.67-4.52-6.46-2.01c-1.45,2.56-2.79,5.35-4.01,7.91c-3.01,7.58-4.35,15.6-4.35,23.63
		c0,7.3,1.02,11.49,2.9,18.61c0.48,3.72,6.01,12.91,8.25,15.94c1,1.34,2.12,2.79,3.9,2.79C68.37,652.5,69.82,650.94,69.82,648.82
		L69.82,648.82z M104.91,588.08v54.84H87.97c-0.56,0-2.01,0.78-2.01,1.67v6.13c0,1.23,1.56,1.67,2.45,1.67h43.91
		c0.78,0,2.56-0.33,2.56-1.56v-6.35c0-0.78-1.23-1.56-2.01-1.56H114.5v-54.84h16.27c0.56,0,1.89-0.67,1.89-1.45v-6.58
		c0-0.78-1.11-1.34-1.67-1.34H88.42c-0.45,0-1.67,0.67-1.67,1.23v6.8c0,0.56,1.23,1.34,1.78,1.34H104.91L104.91,588.08z
		 M150.82,648.82c0,2.12,1.45,3.68,3.34,3.68c1.78,0,2.9-1.45,3.9-2.79c6.79-9.19,9.42-17.44,10.92-28.87
		c0.33-1.9,0.22-3.57,0.22-5.68c0-8.02-1.34-16.05-4.35-23.63c-1.23-2.56-2.56-5.35-4.01-7.91c-1.8-2.51-6.46-2.04-6.46,2.01
		c0,1.98,2.84,5.04,3.23,6.8c1.45,3.12,2.34,6.02,3.23,9.25c1,4.35,1.45,8.81,1.45,13.26c0,10.25-2.68,20.4-8.47,28.98
		C152.82,645.14,150.82,646.7,150.82,648.82L150.82,648.82z M195.27,648.6c0.64,0,7.76,3.9,16.5,3.9c9.59,0,24.41-4.46,24.41-16.38
		c0-9.03-8.14-15.27-16.05-17.61c-0.78-0.11-2.79-0.67-3.12-0.78l-12.04-1.23c-3.01-0.45-6.13-1-8.25-3.57
		c-0.33-0.56-0.89-1.23-0.89-2.01c0-2.73,6.43-4.01,8.69-4.01c2.26,0,5.26-0.12,7.47,0.33c6.23,1.17,5.97,1.4,11.26,3.79v3.79
		c0,2.11,2.91,4.57,5.13,4.57c2.56,0,5.13-2.12,5.13-4.68v-12.37c0-4.29-5.49-6.43-8.58-3.34c-0.33,0.33-0.78,0.89-0.89,0.89
		c-5.35-1.89-10.81-3.12-16.5-3.23c-9.03,0-21.73,3.01-21.73,14.27c0,8.25,7.91,14.27,15.72,15.16c4.64,0.55,13.88,1.36,18.17,3.01
		c3.89,1.49,11.09,7.85,1.34,11.48c-3.59,0.93-5.43,1.67-9.14,1.67c-3.9,0-7.69-0.78-11.37-2.45c-1.45-0.78-4.79-2.45-4.68-2.56
		h-0.11c0-1,0-2.23-0.11-3.45c-0.45-2.34-2.45-4.12-5.02-4.12c-2.56,0-5.02,2.01-5.02,4.57v12.82
		C185.57,651.55,192.63,653.87,195.27,648.6L195.27,648.6z M263.57,648.6c0.64,0,7.76,3.9,16.5,3.9c9.59,0,24.41-4.46,24.41-16.38
		c0-9.03-8.14-15.27-16.05-17.61c-5.18-0.74-9.83-1.46-15.16-2.01c-3.01-0.45-6.13-1-8.25-3.57c-0.33-0.56-0.89-1.23-0.89-2.01
		c0-2.73,6.43-4.01,8.69-4.01c2.26,0,5.26-0.12,7.47,0.33c6.23,1.17,5.97,1.4,11.26,3.79v3.79c0,0.11,0.22,0.45,0.22,0.78
		c0.78,2.12,2.68,3.79,4.9,3.79c2.56,0,5.13-2.12,5.13-4.68v-12.37c0-4.29-5.49-6.43-8.58-3.34c-0.33,0.33-0.78,0.89-0.89,0.89
		c-5.35-1.89-10.81-3.12-16.5-3.23c-9.03,0-21.73,3.01-21.73,14.27c0,8.25,7.91,14.27,15.72,15.16c4.64,0.55,13.88,1.36,18.17,3.01
		c3.89,1.49,11.09,7.85,1.34,11.48c-3.59,0.93-5.43,1.67-9.14,1.67c-3.9,0-7.69-0.78-11.37-2.45c-1.45-0.78-4.79-2.45-4.68-2.56
		h-0.11c0-1,0-2.23-0.11-3.45c-0.45-2.34-2.45-4.12-5.02-4.12c-2.56,0-5.02,2.01-5.02,4.57v12.82
		C253.88,651.55,260.94,653.87,263.57,648.6L263.57,648.6z M325.42,622.63c0,3.6,0.01,7.72,0.67,11.26
		c2.01,10.03,7.8,18.61,18.84,18.61c5.24,0,9.7-1.89,14.04-4.46l0.33,1.23c0.78,1.67,2.56,3.12,4.24,3.12h7.69
		c2.79,0,4.79-2.56,4.79-5.13c0-2.56-2.01-4.68-4.68-5.02h-2.23v-39.9c0-1.66-2.15-4.68-4.79-4.68h-7.47
		c-4.45,0-7.58,8.09-0.45,10.03c0.89,0.33,1.34,0.22,2.56,0.22v26.3c0,1.55-16.26,16.2-21.62,1.78c-1.58-4.24-1.67-6.46-1.67-11.15
		c0-5.91,0.67-11.7,1.89-17.39c0.45-1.78,1.23-3.12,1.23-4.79c0-2.89-2.35-5.13-4.68-5.13h-8.14c-5.22,0-7,9.84,1.11,10.14
		c0,1.3-0.81,4.09-1,5.57L325.42,622.63L325.42,622.63z M392.94,624.41c0,10.92,5.57,22.51,16.5,26.3c3.01,1.23,5.8,1.78,9.03,1.78
		c6.35,0,12.26-2.79,16.38-7.69c1.23-1.45,2.45-2.79,2.45-4.68c0-3.01-2.45-5.13-5.02-5.13c-3.34,0-4.01,2.56-6.13,4.35
		c-7.08,6.15-19.53,2.32-22.29-8.92h33.55c0,0,4.53-0.87,4.35-5.35c-1.23-15.27-8.25-29.2-25.19-29.2c-2.12,0-4.12,0.45-6.02,0.89
		C398.96,600,392.94,613.27,392.94,624.41L392.94,624.41z M416.57,606.24c8.71,0,12.88,6.18,14.27,14.04h-27.42l0.78-3.01
		c1.23-4.35,4.46-9.47,8.92-10.7C414.45,606.24,415.23,606.24,416.57,606.24L416.57,606.24z M468.6,648.6c0.64,0,7.76,3.9,16.5,3.9
		c9.59,0,24.41-4.46,24.41-16.38c0-9.03-8.14-15.27-16.05-17.61c-5.18-0.74-9.83-1.46-15.16-2.01c-3.01-0.45-6.13-1-8.25-3.57
		c-0.33-0.56-0.89-1.23-0.89-2.01c0-2.73,6.43-4.01,8.69-4.01c2.26,0,5.26-0.12,7.47,0.33c6.23,1.17,5.97,1.4,11.26,3.79v3.79
		c0,2.11,2.91,4.57,5.13,4.57c2.56,0,5.13-2.12,5.13-4.68v-12.37c0-4.29-5.49-6.43-8.58-3.34c-0.33,0.33-0.78,0.89-0.89,0.89
		c-5.35-1.89-10.81-3.12-16.5-3.23c-9.03,0-21.73,3.01-21.73,14.27c0,8.25,7.91,14.27,15.72,15.16c4.64,0.55,13.88,1.36,18.17,3.01
		c3.89,1.49,11.09,7.85,1.34,11.48c-3.59,0.93-5.43,1.67-9.14,1.67c-3.9,0-7.69-0.78-11.37-2.45c-1.45-0.78-4.79-2.45-4.68-2.56
		h-0.11c0-1,0-2.23-0.11-3.45c-0.45-2.34-2.45-4.12-5.02-4.12c-2.56,0-5.02,2.01-5.02,4.57v12.82
		C458.9,651.55,465.97,653.87,468.6,648.6L468.6,648.6z"/>
	<path d="M69.82,753.77c0-2.12-2.01-3.68-3.01-4.9c-5.8-8.58-8.47-18.72-8.47-28.98c0-8.4,1.95-18.66,6.46-25.97
		c0.78-1.23,1.45-2.01,1.45-3.34c0-4.05-4.67-4.52-6.46-2.01c-1.45,2.56-2.79,5.35-4.01,7.91c-3.01,7.58-4.35,15.6-4.35,23.63
		c0,7.3,1.02,11.49,2.9,18.61c0.48,3.72,6.01,12.91,8.25,15.94c1,1.34,2.12,2.79,3.9,2.79C68.37,757.44,69.82,755.88,69.82,753.77
		L69.82,753.77z M107.02,691.57v56.62H96.98c-0.56,0-1.67,0.78-1.67,1.34v6.46c0,0.78,1,1.34,1.56,1.34h29.42
		c0.56,0,1.67-0.56,1.67-1.34v-6.46c0-0.56-1.23-1.34-1.78-1.34h-9.25v-56.62h11.93c2.12,0,3.68,1.23,3.68,3.57v14.94
		c0,0.45,0.67,1.23,1,1.23h6.8c0.45,0,1.11-0.67,1.11-1.11v-26.53c0-0.78-0.89-1.11-1.34-1.23l-52.27-0.22
		c-0.83,0-3.23-0.27-3.23,1.11v26.42c0,0.45,0.67,1.23,1.23,1.23h6.35c0.78,0,1.34-0.67,1.34-1.11l0.22-13.6
		c0-2.56,1.56-4.68,4.35-4.68H107.02L107.02,691.57z M156.02,753.77c0,2.12,1.45,3.68,3.34,3.68c1.78,0,2.9-1.45,3.9-2.79
		c6.79-9.19,9.42-17.44,10.92-28.87c0.33-1.9,0.22-3.57,0.22-5.68c0-8.02-1.34-16.05-4.35-23.63c-1.23-2.56-2.56-5.35-4.01-7.91
		c-1.8-2.51-6.46-2.04-6.46,2.01c0,1.98,2.84,5.04,3.23,6.8c1.45,3.12,2.34,6.02,3.23,9.25c1,4.35,1.45,8.81,1.45,13.26
		c0,10.25-2.67,20.4-8.47,28.98C158.03,750.09,156.02,751.65,156.02,753.77L156.02,753.77z M189.09,730.03
		c0,9.47,4.24,19.17,12.59,23.96c21.3,12.43,41.97-10.95,34.55-33.33c-3.23-9.81-12.04-17.94-22.85-17.94
		C198.9,702.72,189.09,716.32,189.09,730.03L189.09,730.03z M199.12,730.03c0-8.14,5.46-16.94,14.38-16.94
		c8.81,0,14.04,9.03,14.04,16.94c0,8.02-5.24,17.16-14.04,17.16C204.59,747.19,199.12,738.05,199.12,730.03L199.12,730.03z"/>
	<path d="M69.82,849.06c0-2.12-2.01-3.68-3.01-4.9c-5.8-8.58-8.47-18.72-8.47-28.98c0-8.4,1.95-18.66,6.46-25.97
		c0.78-1.23,1.45-2.01,1.45-3.34c0-4.05-4.67-4.52-6.46-2.01c-1.45,2.56-2.79,5.35-4.01,7.91c-3.01,7.58-4.35,15.6-4.35,23.63
		c0,7.3,1.02,11.49,2.9,18.61c0.48,3.72,6.01,12.91,8.25,15.94c1,1.34,2.12,2.79,3.9,2.79C68.37,852.74,69.82,851.18,69.82,849.06
		L69.82,849.06z M86.5,788.32v54.84h-4.35c-0.56,0-1,0.89-1,1.23v7.02c0,0.56,0.56,1.23,1.11,1.23h19.17c0.78,0,1.23-0.56,1.23-1.34
		v-6.91c0-0.33-0.33-1.23-1.11-1.23h-5.46V819.3h32.21v23.52h-5.68c-0.45,0-1,0.78-1,1.34v6.91c0,0.33,0.56,1.23,0.89,1.23h19.62
		c0.56,0,0.89-1,0.89-1.34c0-9.45,1.01-8.14-5.13-8.14v-54.84h4.35c0.33,0,0.78-0.89,0.78-1.23v-7.02c0-0.33-0.33-1.23-0.78-1.23
		h-19.84c-0.33,0-0.78,0.89-0.78,1.23v7.02c0,0.33,0.45,1.23,0.78,1.23h5.91v21.73H96.08v-21.4h5.57c0.56,0,1-0.89,1-1.23v-7.02
		c0-0.33-0.33-1.11-0.78-1.11H81.93c-0.45,0-0.78,0.89-0.78,1.23v6.91c0,0.33,0.45,1.23,0.78,1.23H86.5L86.5,788.32z M154.33,849.06
		c0,2.12,1.45,3.68,3.34,3.68c1.78,0,2.9-1.45,3.9-2.79c6.79-9.19,9.42-17.44,10.92-28.87c0.33-1.9,0.22-3.57,0.22-5.68
		c0-8.03-1.34-16.05-4.35-23.63c-1.23-2.56-2.56-5.35-4.01-7.91c-1.8-2.51-6.46-2.04-6.46,2.01c0,1.98,2.84,5.04,3.23,6.8
		c1.45,3.12,2.34,6.02,3.23,9.25c1,4.35,1.45,8.81,1.45,13.26c0,10.25-2.68,20.4-8.47,28.98
		C156.34,845.38,154.33,846.94,154.33,849.06L154.33,849.06z M182.82,824.65c0,10.92,5.57,22.51,16.5,26.3
		c3.01,1.23,5.8,1.78,9.03,1.78c6.35,0,12.26-2.79,16.38-7.69c1.23-1.45,2.45-2.79,2.45-4.68c0-3.01-2.45-5.13-5.02-5.13
		c-3.34,0-4.01,2.56-6.13,4.35c-7.08,6.15-19.53,2.32-22.29-8.92h33.55c0,0,4.53-0.87,4.35-5.35c-1.23-15.27-8.25-29.2-25.19-29.2
		c-2.12,0-4.12,0.45-6.02,0.89C188.84,800.24,182.82,813.51,182.82,824.65L182.82,824.65z M206.45,806.48
		c8.71,0,12.88,6.18,14.27,14.04H193.3l0.78-3.01c1.23-4.35,4.46-9.47,8.92-10.7C204.33,806.48,205.11,806.48,206.45,806.48
		L206.45,806.48z M242.74,838.03c0,5.8,3.34,11.03,8.69,13.26c2.56,1,5.35,1.45,8.25,1.45c11.01,0,17.31-6.24,18.28-6.24
		c1.89,3.46,4.24,5.24,8.25,5.68l4.35-0.11c2.56-0.56,4.35-2.56,4.35-5.13c0-2.68-2.45-5.02-5.13-5.02l-2.56,0.33
		c-0.56-0.78-0.56-1.34-0.56-1.78l-0.45-22.18c-0.02-1.76-0.63-4.32-1.11-6.24c-5.46-19.53-32.43-17.63-38.68-5.24
		c-0.78,1.67-1.67,3.01-1.67,4.68c0,6.14,7.83,6.83,9.7,2.23c0.33-0.89,0.67-2.01,1.45-2.79c2.23-2.34,5.13-3.46,8.81-3.46
		c5.06,0,8.67,2.05,10.37,6.58c-4.46-0.11-9.03,0.56-13.38,1.78C251.99,819.08,242.74,827.33,242.74,838.03L242.74,838.03z
		 M252.77,838.03c0-5.57,6.13-10.48,10.92-11.93c4.84-1.74,7.07-1.78,12.26-1.78l0.11,9.92c-3.9,4.79-10.03,8.25-16.38,8.25
		C256.45,842.48,252.77,841.7,252.77,838.03L252.77,838.03z M308.35,808.04h4.46l15.72,41.46c1.42,3.59,7.2,5.14,9.59-0.45
		l17.5-40.46h3.9c0.67-0.11,4.68-1.52,4.68-5.13c0-2.56-2.01-5.13-5.02-5.13h-16.16c-3.01,0-5.13,2.45-5.13,5.13
		c0,2.34,1.56,4.46,4.12,4.9c0.89,0.33,1.34,0.22,2.56,0.22l-11.03,25.41l-9.92-25.97l2.9-0.11c2.12-0.78,3.68-2.56,3.68-4.9
		c0-3.05-2.58-5.13-4.46-5.13h-17.28c-2.34,0-4.35,3.01-4.35,5.13C304.11,806.74,308.15,808.04,308.35,808.04L308.35,808.04z
		 M373.95,824.65c0,10.92,5.57,22.51,16.5,26.3c3.01,1.23,5.8,1.78,9.03,1.78c6.35,0,12.26-2.79,16.38-7.69
		c1.23-1.45,2.45-2.79,2.45-4.68c0-3.01-2.45-5.13-5.02-5.13c-3.34,0-4.01,2.56-6.13,4.35c-7.08,6.15-19.53,2.32-22.29-8.92h33.55
		c0,0,4.53-0.87,4.35-5.35c-1.23-15.27-8.25-29.2-25.19-29.2c-2.12,0-4.12,0.45-6.02,0.89
		C379.97,800.24,373.95,813.51,373.95,824.65L373.95,824.65z M397.58,806.48c8.71,0,12.88,6.18,14.27,14.04h-27.42l0.78-3.01
		c1.23-4.35,4.46-9.47,8.92-10.7C395.46,806.48,396.24,806.48,397.58,806.48L397.58,806.48z M443.12,852.52l9.03,0.11
		c6.68,0,7.45-9,0.89-10.14v-25.08c0.19-0.82,7.19-9.58,14.38-9.58c6.58,0,8.14,8.14,8.14,13.26v21.4c-5.7,0.71-5.82,7.75-2.23,9.47
		c0.78,0.33,1.45,0.67,2.23,0.67h10.14c5.54,0,6.51-9.31-0.11-10.14v-23.07c0-9.92-6.23-21.85-18.06-21.85
		c-9.47,0-14.6,6.37-14.6,5.02c-0.24-0.24,0.03-0.59-0.33-1.11c-0.78-1.67-2.45-2.9-4.24-2.9h-9.59c-2.56,0-4.79,2.34-4.79,4.9
		c0,2.23,1.45,4.12,3.68,4.9c0.72,0.46,3.85,0.22,5.24,0.22v33.88C436.38,843.34,436.64,852.25,443.12,852.52L443.12,852.52z"/>
</g>
</svg>
