<?xml version="1.0" encoding="utf-8"?>
<!-- Generator: Adobe Illustrator 25.0.0, SVG Export Plug-In . SVG Version: 6.00 Build 0)  -->
<svg version="1.1" id="Layer_1" xmlns="http://www.w3.org/2000/svg" xmlns:xlink="http://www.w3.org/1999/xlink" x="0px" y="0px"
	 viewBox="0 0 864 864" style="enable-background:new 0 0 864 864;" xml:space="preserve">
<g>
	<path d="M67.82,236.15c6.32,0,6.07,0.71,6.07-2.8v-12.08c0-2.1,0.06-2.22,2.16-2.22L86.84,219c0.77-0.09,0.82-1.19,0.82-1.87v-5.19
		c-0.06-1.75-0.17-1.87-1.98-1.87l-10.97-0.06c-0.92-0.11-0.82-1.23-0.82-2.04c0-7.4-0.61-7.23,2.57-7.23l15.05-0.06
		c0.98-0.05,0.99-0.82,0.99-2.04c0-6.8,0.56-6.83-2.45-6.83l-24.15,0.06c-1.24,0.14-0.93,1.42-0.93,2.63v38.85
		C64.98,236.41,64.7,236.15,67.82,236.15L67.82,236.15z M138.99,236.15c3.26,0,2.68,0.52,2.68-6.71c0-2.22-0.06-2.28-2.33-2.28
		h-15.81c-0.93-0.06-1.23-0.35-1.28-1.23v-6.36c0-1.41,1.12-1.28,2.92-1.28c3.33,0,6.59,0.06,9.86,0c1.34,0,1.57-0.23,1.57-1.46
		c-0.04-8.28,0.56-7.53-2.8-7.53h-8.93c-3.15,0-2.62,0.18-2.62-6.07c0-2.39,0-2.39,2.33-2.39l15.81-0.06
		c0.93-0.06,1.23-0.29,1.28-1.22v-5.19c0-2.45,0-2.45-2.51-2.45h-23.28c-2.57,0-2.57,0-2.57,2.51l0.06,40.89
		c0.12,1.01,1.32,0.81,2.57,0.82C123.65,236.21,131.35,236.15,138.99,236.15L138.99,236.15z M194.76,236.21
		c8.22-0.22,8.48,0.82,7.35-2.68l-13.83-40.31c-0.29-0.87-0.76-1.34-1.75-1.28h-7.58c-2.28,0-2.28,0-3.03,2.16
		c-3.91,11.38-7.76,22.75-11.67,34.13c-0.7,2.1-1.46,4.2-2.16,6.36c-0.41,1.28-0.23,1.58,1.05,1.58h7.12
		c1.02-0.06,1.21-1.07,1.52-2.04c0.64-1.87,1.28-3.79,1.98-5.66c0.58-1.75,0.58-1.75,2.51-1.75h11.73c2.22,0,2.22,0,2.97,2.22
		c0.7,1.98,1.4,3.97,2.04,6.01C193.3,235.8,193.82,236.21,194.76,236.21L194.76,236.21z M184.43,217.72h-2.22v-0.06
		c-5.91,0-5,0.92-2.63-6.3l2.28-6.48c0.49-0.9,1.11,0.59,1.23,0.93l3.68,10.91C187.04,217.9,185.53,217.72,184.43,217.72
		L184.43,217.72z M251.63,236.15c2.16,0,2.33-0.23,1.52-2.16l-6.18-15.34c-0.8-2.12,6.08-3.13,5.95-13.13
		c-0.12-8.23-6.94-13.83-13.77-13.65c-4.96,0.06-9.92,0-14.88,0c-2.39,0-2.39,0-2.39,2.39v38.85c0,3.24-0.95,3.14,6.71,3.03
		c2.1-0.06,2.16-0.12,2.22-2.22v-11.9c0.16-2.25-0.21-1.98,4.67-1.98c2.33,0,2.28-0.12,3.21,2.22l4.73,11.9
		c0.82,1.93,0.82,1.98,2.86,1.98C248.07,236.15,249.82,236.09,251.63,236.15L251.63,236.15z M231.91,211.01
		c-0.82,0-1.11-0.35-1.11-1.17v-7.82c0-1.69,1.7-1.23,4.78-1.23c1.37,0,3.78-0.14,4.96,0.29c5.14,1.87,4.11,9.62-1.23,9.92
		C236.87,211.13,234.36,211.07,231.91,211.01L231.91,211.01z M322.74,236.15c3.26,0,2.68,0.52,2.68-6.71c0-2.22-0.06-2.28-2.33-2.28
		h-15.81c-0.93-0.06-1.23-0.35-1.28-1.23v-6.36c0-1.41,1.12-1.28,2.92-1.28c3.33,0,6.59,0.06,9.86,0c1.34,0,1.57-0.23,1.57-1.46
		c-0.04-8.28,0.56-7.53-2.8-7.53h-8.93c-3.15,0-2.62,0.18-2.62-6.07c0-2.39,0-2.39,2.33-2.39l15.81-0.06
		c0.93-0.06,1.23-0.29,1.28-1.22v-5.19c0-2.45,0-2.45-2.51-2.45h-23.28c-2.57,0-2.57,0-2.57,2.51l0.06,40.89
		c0.12,1.01,1.32,0.81,2.57,0.82C307.4,236.21,315.1,236.15,322.74,236.15L322.74,236.15z M378.92,236.21
		c9.05-0.23,8.58,0.84,8.58-2.68v-38.85c0-1.57,0.26-2.67-1.05-2.68c-8.69-0.11-7.93-0.76-7.93,2.92l-0.12,26.37
		c-0.06,0.23-0.47,0.35-0.64,0.17L356.4,193.1c-0.58-0.88-1.28-1.23-2.33-1.17c-8.01,0.34-7.82-1.15-7.82,2.68v38.85
		c0,3.12-0.63,2.8,6.3,2.68c2.57,0,2.63,0,2.63-2.51c0-7.99-0.06-15.98,0-23.98c0-0.7-0.35-1.52,0.41-2.04
		c0.76,0.17,1.05,0.88,1.4,1.4c6.3,8.28,12.54,16.63,18.78,24.97C376.78,235.43,377.17,236.21,378.92,236.21L378.92,236.21z
		 M410.88,236.15c4.49,0.06,8.93,0.06,13.36,0c12.66-0.06,22.52-10.09,22.23-22.75c-0.23-11.78-10.03-21.41-21.82-21.47l-15.4,0.06
		c-0.95,0.13-0.75,1.41-0.76,2.63v39.2C408.49,236.15,408.49,236.15,410.88,236.15L410.88,236.15z M419.52,226.58
		c-1.28,0-1.52-0.23-1.52-1.52l-0.06-21.53c0-1.98,0.12-2.1,2.1-2.1c6.29-0.12,12.03-0.04,15.58,7.12
		c3.97,7.99-1.63,17.56-10.5,18.03C423.25,226.7,421.38,226.64,419.52,226.58L419.52,226.58z M470.79,234.52
		c7,6.24,19.25,4.67,23.1-5.43c2.96-7.78-0.82-14-7.82-17.62c-2.26-1.17-6.64-3.03-8.34-4.43c-4.33-3.56,3.75-10.79,8.11-4.73
		c0.64,0.93,0.7,0.99,1.81,0.64c1.87-0.53,3.68-1.11,5.48-1.69c1.63-0.58,1.81-0.88,0.99-2.45c-2.45-5.08-6.59-7.64-12.43-7.82
		c-13.13,0.06-19.32,15.84-9.33,23.33c5.74,4.3,15.99,5.8,12.95,11.96c-1.8,3.64-7.86,4.48-10.15-0.99
		c-0.41-0.93-0.64-1.05-1.63-0.88c-7.77,1.46-7.86,0.83-6.88,3.85C467.47,230.73,468.87,232.77,470.79,234.52L470.79,234.52z
		 M577.78,236.15c5.28,0,5.47,0.57,6.07-1.93l9.8-41.42c0.07-0.99-1.04-0.88-1.87-0.88c-6.94,0-6.87-0.66-7.58,2.39
		c-1.81,7.64-3.68,15.28-5.54,22.93c-0.49,2.1-0.99,2.53-1.57,0.17l-5.78-23.86c-0.41-1.58-0.47-1.63-2.16-1.63h-5.19
		c-2.45,0-2.45,0-2.98,2.33c-1.87,7.64-3.68,15.28-5.54,22.93c-0.17,0.64-0.12,1.34-0.76,1.81c-0.88-0.35-0.76-1.17-0.88-1.87
		c-1.81-7.35-3.62-14.7-5.37-22.05c-1.05-3.91,0.14-3.07-7.47-3.15c-2.86-0.06-2.86,0-2.16,2.8l9.86,39.84
		c0.35,1.4,0.52,1.58,1.87,1.58c2.74,0.06,5.48,0.06,8.17,0c1.23,0,1.4-0.18,1.69-1.28c1.78-6.49,3.24-14.01,4.96-20.42
		c0.68-2.55,1.03-2.63,1.69-0.17c1.28,5.42,2.63,10.79,3.91,16.22C572.54,237.31,571.38,236.15,577.78,236.15L577.78,236.15z
		 M643.87,236.15c2.57,0,2.57,0,2.63-2.51c0-6.53,0-13.01,0-19.54v-19.13c0-3.8,0.46-3.03-7.7-3.03c-1.53,0-1.34,1.03-1.34,2.45
		v13.07c0,1.69-0.18,1.87-1.93,1.87h-12.31c-1.93,0-2.04-0.12-2.04-2.16v-13.88c-0.06-0.99-0.29-1.28-1.23-1.34h-6.48
		c-1.47,0.05-1.23,1.11-1.23,2.62c0,13.01,0,26.02,0,39.03c0,3.04-0.44,2.68,6.65,2.57c2.22,0,2.28,0,2.28-2.28l0.06-14.47
		c0.06-1.12,0.8-1.11,2.16-1.11h11.9c2.1,0.06,2.16,0.12,2.16,2.28v14.29c0.06,0.99,0.35,1.28,1.4,1.28
		C640.54,236.21,642.18,236.21,643.87,236.15L643.87,236.15z M692.99,236.15c3.26,0,2.68,0.52,2.68-6.71c0-2.22-0.06-2.28-2.33-2.28
		h-15.81c-0.93-0.06-1.23-0.35-1.28-1.23v-6.36c0-1.41,1.12-1.28,2.92-1.28c3.33,0,6.59,0.06,9.86,0c1.34,0,1.57-0.23,1.57-1.46
		c-0.04-8.28,0.56-7.53-2.8-7.53h-8.93c-3.15,0-2.62,0.18-2.62-6.07c0-2.39,0-2.39,2.33-2.39l15.81-0.06
		c0.93-0.06,1.23-0.29,1.28-1.22v-5.19c0-2.45,0-2.45-2.51-2.45h-23.28c-2.57,0-2.57,0-2.57,2.51l0.06,40.89
		c0.12,1.01,1.32,0.81,2.57,0.82C677.64,236.21,685.34,236.15,692.99,236.15L692.99,236.15z M746.24,236.15
		c2.16,0,2.33-0.23,1.52-2.16l-6.18-15.34c-0.8-2.12,6.08-3.13,5.95-13.13c-0.12-8.23-6.94-13.83-13.77-13.65
		c-4.96,0.06-9.92,0-14.88,0c-2.39,0-2.39,0-2.39,2.39v38.85c0,3.24-0.95,3.14,6.71,3.03c2.1-0.06,2.16-0.12,2.22-2.22v-11.9
		c0.16-2.25-0.21-1.98,4.67-1.98c2.33,0,2.28-0.12,3.21,2.22l4.73,11.9c0.82,1.93,0.82,1.98,2.86,1.98
		C742.69,236.15,744.44,236.09,746.24,236.15L746.24,236.15z M726.53,211.01c-0.82,0-1.11-0.35-1.11-1.17v-7.82
		c0-1.69,1.7-1.23,4.78-1.23c1.37,0,3.78-0.14,4.96,0.29c5.14,1.87,4.11,9.62-1.23,9.92C731.49,211.13,728.98,211.07,726.53,211.01
		L726.53,211.01z M794.02,236.15c3.26,0,2.68,0.52,2.68-6.71c0-2.22-0.06-2.28-2.33-2.28h-15.81c-0.93-0.06-1.23-0.35-1.28-1.23
		v-6.36c0-1.41,1.12-1.28,2.92-1.28c3.33,0,6.59,0.06,9.86,0c1.34,0,1.57-0.23,1.57-1.46c-0.04-8.28,0.56-7.53-2.8-7.53h-8.93
		c-3.15,0-2.62,0.18-2.62-6.07c0-2.39,0-2.39,2.33-2.39l15.81-0.06c0.93-0.06,1.23-0.29,1.28-1.22v-5.19c0-2.45,0-2.45-2.51-2.45
		h-23.28c-2.57,0-2.57,0-2.57,2.51l0.06,40.89c0.12,1.01,1.32,0.81,2.57,0.82C778.68,236.21,786.38,236.15,794.02,236.15
		L794.02,236.15z"/>
	<path d="M260.03,582.69h19.16c12.24,0,16.98-14.24,10.48-22.13c-1.46-1.75-1.4-1.4-0.47-3.55c3.87-8.78-2.02-18.47-11.36-18.52
		h-16.72c-2.56,0-2.56,0-2.56,2.74v38.39C258.57,581.8,258.28,582.6,260.03,582.69L260.03,582.69z M273.13,555.54
		c-1.46,0-2.91,0.06-4.43,0c-0.93-0.06-1.22-0.29-1.22-1.22c-0.11-7.08-0.53-6.93,2.27-6.93l8.15,0.06c4.87,0.65,4.52,7.9-0.29,8.1
		C276.1,555.6,274.65,555.54,273.13,555.54L273.13,555.54z M274.18,573.66c-1.75,0-3.55,0.06-5.36,0c-1.05,0-1.34-0.29-1.34-1.34
		c-0.06-2.21-0.06-4.43,0-6.64c0.02-1.24,0.82-1.22,2.21-1.22c1.78,0,8.94-0.12,10.37,0.17c4.66,0.96,5.05,8.85-1.22,9.03
		C277.27,573.72,275.75,573.66,274.18,573.66L274.18,573.66z M349.1,582.69c3.25,0,2.68,0.52,2.68-6.7c0-2.21-0.06-2.27-2.33-2.27
		h-15.79c-0.93-0.06-1.22-0.35-1.28-1.22v-6.35c0-1.41,1.12-1.28,2.91-1.28c3.32,0,6.58,0.06,9.84,0c1.34,0,1.57-0.23,1.57-1.46
		c-0.04-8.27,0.56-7.51-2.8-7.51H335c-3.15,0-2.62,0.18-2.62-6.06c0-2.39,0-2.39,2.33-2.39l15.79-0.06
		c0.93-0.06,1.22-0.29,1.28-1.22v-5.18c0-2.45,0-2.45-2.5-2.45h-23.24c-2.56,0-2.56,0-2.56,2.5l0.06,40.83
		c0.12,1.01,1.32,0.81,2.56,0.82C333.78,582.75,341.47,582.69,349.1,582.69L349.1,582.69z M400.13,582.69
		c9.09,2.62,18.87-0.58,24.46-7.92c0.58-0.7,0.87-1.46,0.87-2.39v-14.62c-0.04-2.07-0.61-1.75-3.03-1.75h-12.23
		c-1.05,0.06-1.34,0.29-1.34,1.34l0.06,7.4c0.19,0.79,0.93,0.82,2.04,0.82c4.45,0,4.97-0.5,5.01,1.92c0.03,1.89,0.18,2.67-1.16,3.67
		c-9.92,7.38-22.07-0.61-21.55-10.72c0.29-5.48,2.97-9.55,7.98-11.77c5.23-2.31,10.52-1.28,14.62,2.62
		c1.22,1.11,1.22,1.11,2.62,0.06l5.18-4.19c0.96-0.88-0.1-1.76-1.11-2.68c-5.48-5.24-12-7.34-19.4-6.29
		c-12.06,1.75-20.39,12.47-19.34,24.64C384.58,572.09,391.16,580.07,400.13,582.69L400.13,582.69z M464.62,582.69
		c2.39,0,2.39,0,2.39-2.39v-38.74c0-3.63,0.59-3.03-6.17-3.03c-2.85,0-2.74-0.06-2.74,2.74c0,12.87,0,25.75,0,38.62
		C458.09,582.87,457.32,582.94,464.62,582.69L464.62,582.69z M533.36,582.75c9.04-0.23,8.56,0.84,8.56-2.68v-38.79
		c0-1.56,0.26-2.66-1.05-2.68c-8.67-0.11-7.92-0.75-7.92,2.91l-0.12,26.33c-0.06,0.23-0.47,0.35-0.64,0.17l-21.32-28.31
		c-0.58-0.87-1.28-1.22-2.33-1.16c-8,0.34-7.81-1.15-7.81,2.68v38.79c0,3.11-0.63,2.8,6.29,2.68c2.56,0,2.62,0,2.62-2.5
		c0-7.98-0.06-15.96,0-23.94c0-0.7-0.35-1.51,0.41-2.04c0.76,0.17,1.05,0.87,1.4,1.4c6.29,8.27,12.52,16.6,18.76,24.93
		C531.22,581.96,531.62,582.75,533.36,582.75L533.36,582.75z M577.98,581.06c6.99,6.23,19.22,4.66,23.07-5.42
		c2.96-7.77-0.81-13.98-7.81-17.59c-2.26-1.16-6.63-3.03-8.33-4.43c-4.32-3.55,3.75-10.77,8.1-4.72c0.64,0.93,0.7,0.99,1.81,0.64
		c1.86-0.52,3.67-1.11,5.48-1.69c1.63-0.58,1.81-0.87,0.99-2.45c-2.45-5.07-6.58-7.63-12.41-7.81c-13.11,0.06-19.29,15.82-9.32,23.3
		c5.73,4.29,15.96,5.79,12.93,11.94c-1.79,3.63-7.85,4.48-10.14-0.99c-0.41-0.93-0.64-1.05-1.63-0.87
		c-7.76,1.46-7.85,0.83-6.87,3.84C574.66,577.27,576.06,579.31,577.98,581.06L577.98,581.06z"/>
	<path d="M42.14,555.74c12.08-2.9,24.87-6.44,36.99-9.49c4.04-1.02,6.03-3.39,6.34-6.54c0.33-3.38,0.63-6.93,0.63-10.09v-96.83
		c0-10.85,0.56-11.38,14.42-13.26c8.87-1.2,17.79-2.09,26.61-3.5c5.76-0.92,8.46-2.77,8.63-6.75c0.38-8.97,0.39-17.96,0-26.96
		c-0.17-3.86-2.31-5.2-8.63-4.79c-7.55,0.49-15.05,1.47-22.58,2.23c-4.04,0.41-8.08,0.6-11.56,0.75c-8.65,0.38-6.89-5.37-6.89-11.96
		v-61.04c0-7.71,1.12-8.45,10.93-9.01c9.84-0.56,20.28-1.12,30.65-1.45c8.63-0.27,17.89-0.31,26.53-0.81
		c5.77-0.34,7.87-1.93,8.08-6.21c0.34-6.8,0-13.62,0-20.46c0-10.6-0.55-11.04-14.97-11.03c-31.6,0.04-63.21,0.11-94.73,0.15
		c-17.35,0.02-17.23,0-17.35,14.19c-0.19,22.72-0.24,45.31-0.24,67.88c0,22.57,0.24,45.16,0.24,67.82c0,44.65-0.56,89.02,0,133.8
		c0.04,2.86-0.45,6.25,0,9.01C35.91,555.49,37.51,556.85,42.14,555.74L42.14,555.74z M221.23,260.1l43.96-0.06
		c6.89-0.01,8.08,0.36,9.19,5.12c6.28,26.99,13.21,54.19,19.64,81.1c4.56,19.05,9.27,37.9,13.86,56.73
		c4.59,18.83,9.44,37.5,13.94,56.19c3.02,12.53,6.08,25.42,9.19,37.93c0.93,3.74-0.56,5.06-6.34,5.6
		c-12.75,1.2-25.43,2.57-38.1,4.04c-5.78,0.67-7.1,0.09-8.08-3.74c-2.51-9.82-4.4-19.79-6.97-29.65c-0.92-3.51-2.3-4.5-8.08-3.83
		c-13.31,1.55-26.62,3.21-39.84,5.03c-5.79,0.8-6.95,1.81-8.08,6.08c-2.91,10.94-5.85,21.94-8.71,33.05
		c-1.1,4.25-2.3,5.31-8.08,6.36c-11.96,2.17-23.93,4.47-35.8,6.84c-5.79,1.15-7.2,0.08-6.34-4.28c4.36-21.91,9.26-43.64,13.86-65.29
		c5.54-26.08,11.07-51.88,16.71-77.37c5.6-25.31,11.32-50.33,16.79-75.2c2.92-13.27,5.5-26.58,8.63-39.74
		C213.59,260.9,214.9,260.12,221.23,260.1L221.23,260.1z M232.24,437.67l22.5-2.35c5.78-0.56,7.35-1.96,6.42-5.82
		c-4.85-20-9.56-39.97-14.5-60.5c-0.3-1.25-1.02-5.18-2.85-5.06c-1.9,0.12-3.1,4.2-3.49,5.9c-2.52,11.01-5.09,22.23-7.52,33.35
		c-2.16,9.85-4.93,19.58-6.89,29.52C225.02,437.23,226.46,438.32,232.24,437.67L232.24,437.67z M417.12,498.23
		c0.71-0.01,1.51,0.08,2.3,0c2.94-0.31,4.77-1.52,5.23-3.44c0.65-2.69,0.55-5.75,0.55-8.41V270.53c0-8.38,1.5-11.52-8.08-11.78
		c-8.64-0.23-16.71-0.39-25.43-0.39c-17.35,0-17.35,0-17.35,11.84v216.04c0,10.33-1.38,13.11,8.08,12.92
		C393.99,498.93,405.55,498.37,417.12,498.23L417.12,498.23z M560.41,505.1c19.66,2.5,19.09,2.59,19.09-10.42V302.22
		c0-8.32,1.11-8.84,13.23-8.83c9.27,0.01,18.53,0.38,27.8,0.57c3.4,0.07,6.33,0.41,9.19,0.21c5.77-0.4,7.3-1.48,7.52-5.54
		c0.33-6.13,0.55-12.23,0.55-18.74c0-11.42,0-11.43-16.71-11.45c-44.52-0.04-88.95-0.06-134.02-0.09c-2.53,0-5.07-0.1-7.53,0
		c-6.98,0.29-8.48,1.54-8.71,6.48c-0.32,6.88-0.32,14.06,0,20.94c0.23,4.94,1.75,5.91,9.27,6.12c10.38,0.28,20.84,0.04,31.76,0.3
		c16.24,0.4,16.24,0.54,16.24,11.36v185.64c0,8.52-1.73,12.22,8.08,13.44C544.27,503.63,552.35,504.07,560.41,505.1L560.41,505.1z
		 M809.44,553.54c17.36,4.51,17.35,4.55,17.35-10.09V272.91c0-2.35-0.15-5.16-0.63-8.04c-0.71-4.23-2.31-5.41-6.89-5.66
		c-4.06-0.23-8.09-0.74-11.56-0.51c-10.4,0.68-20.2-1.87-30.02,1.78c-4.12,7.68-1.63,15.4-1.74,22.63
		c-0.21,13.8-0.48,27.54-0.55,41.12l-0.08,48.87c0,7.23-1.76,8.19-10.38,7.53c-6.75-0.52-13.47-1.42-20.2-2.08
		c-16.16-1.57-16.16-1.57-16.16-13.74v-91.41c0-3.04-0.37-5.62-0.63-8.71c-0.37-4.35-1.75-5.48-7.53-5.66
		c-8.64-0.27-17.27-0.47-25.43-0.48c-17.27-0.02-17.14-0.03-17.27,12.98c-0.19,19.88-0.32,39.77-0.24,59.65
		c0.08,19.88,0.24,39.83,0.24,59.71c0,39.55-0.55,78.48,0,118.1c0.09,6.49-1.88,13.84,5.78,15.36c12.67,2.53,25.35,5.13,38.1,7.83
		c4.04,0.85,5.97-0.44,6.34-3.92c0.27-2.53,0.63-5.51,0.63-8.1v-95.32c0-8.71,1.11-9.45,12.12-8.01c7.69,1,15.37,2.02,23.05,3.07
		c3.43,0.47,10.53,1.3,11.01,6.06c0.33,3.25,0.55,6.39,0.55,10v92.7c0,3.16,0.34,6.32,0.63,10.12c0.34,4.51,2.35,6.29,8.08,7.89
		C792.15,548.96,800.74,551.28,809.44,553.54L809.44,553.54z"/>
	<path d="M432.21,673.71c4.41,0.09,4.28,0.13,4.28-4.15c0-16.2,0-8.58,0-24.78v-14.64c0-2.72,0.26-2.85,2.98-2.98h6.22
		c0.78,0,1.43,0.13,2.07,0c1.3-0.13,1.68-0.52,1.68-1.81c0.13-1.94,0.13-3.89,0.13-5.96c0-3.63,0-3.63-3.76-3.63h-9.33v-13.04
		c0-4.28,0.13-4.28-4.28-4.15c-1.81,0-3.63-0.13-5.44,0c-1.3,0-1.69,0.52-1.81,1.68v2.59v12.91h-9.2h-1.68
		c-1.56,0.13-1.94,0.52-1.94,2.2c-0.13,2.33-0.13,4.8,0,7.13c0,1.69,0.39,2.07,2.07,2.07c2.33,0.13,4.67-0.05,7.13,0
		c3.63,0.08,3.63,0.13,3.63,3.76v20.32c0,10.36,0,7.83,0,18.19v2.59c0,1.17,0.52,1.63,1.81,1.68
		C428.58,673.78,430.4,673.67,432.21,673.71L432.21,673.71z"/>
</g>
</svg>
