<?xml version="1.0" encoding="utf-8"?>
<!-- Generator: Adobe Illustrator 25.0.0, SVG Export Plug-In . SVG Version: 6.00 Build 0)  -->
<svg version="1.1" id="Layer_1" xmlns="http://www.w3.org/2000/svg" xmlns:xlink="http://www.w3.org/1999/xlink" x="0px" y="0px"
	 viewBox="0 0 864 864" style="enable-background:new 0 0 864 864;" xml:space="preserve">
<g>
	<path d="M258.43,341.47v6.34c-11.61,3.81-19.11,14.24-19.11,26.23v49.85c-5.12,5.12-12.68,9.03-22.67,11.81
		c-27.81,7.86-56.15,7.3-83.46,7.3c-17.8,0-34.05-4.08-48.81-12.25c-14.76-8.08-26.58-19.8-35.26-35
		C40.34,380.64,36,362.49,36,341.47V328.7c0-21.19,4.78-39.34,14.24-54.54C69.41,243.53,101.87,227,137.79,227h12.68
		c15.81,0,32.57,2.08,50.29,6.34c17.72,4.26,30.57,10.6,38.56,19.02v50.9h-6.34c-3.56-16.94-12.94-31.79-28.05-44.47
		c-15.11-12.77-31.09-19.11-48.03-19.11c-12.94,0-24.67,3.82-35.26,11.46c-22.5,16.23-34.74,42.78-34.74,71.22v25.45
		c0,28.15,12.29,55.12,34.74,71.13c10.6,7.56,22.32,11.29,35.26,11.29c11.29,0,21.89-2.52,31.53-7.56v-48.64
		c0-11.96-7.27-22.45-19.11-26.23v-6.34H258.43L258.43,341.47z M366.56,290.58c22.29,0,34.21,27.1,17.98,43.34
		c-5.04,5.04-11.03,7.56-17.98,7.56c-10.86,0-18.76-5.47-23.62-16.33c-2.78-7.12-1.39-14.85,4-23.1c-4.34,3.91-7.3,8.08-8.6,12.59
		c-1.39,4.52-2,9.21-1.82,14.07h0.26c-7.47,5.99-14.5,15.11-21.11,27.53v47.86c0,15.75,10.28,28.43,25.45,32.57V443H239.58v-6.34
		c15.02-4.19,25.19-16.83,25.19-32.57v-62.62c0-7.12-1.39-13.11-4.17-18.07c-2.78-4.95-7.73-7.38-14.68-7.38v-6.34l11.2-2.61
		c17.8-2.69,33.09-10.34,45.86-22.84h12.68v39.69c6.6-9.21,14.42-17.02,23.45-23.54C348.06,293.88,357.27,290.58,366.56,290.58
		L366.56,290.58z M526.63,402.01c0,10.68,1.65,18.07,4.86,22.06c6.14,7.63,17.89,13.03,27.18,13.03v6.69
		c-1.82,0.35-3.65,0.61-5.3,0.96c-14.76,3.39-27.88,5.21-39.34,5.47c-11.46,0.26-20.93-3.65-28.4-11.81
		c-12.85,5.47-25.71,8.51-38.56,9.29c-12.77,0.78-22.76,0.52-29.88-0.61c-8.77-1.22-15.98-4.95-21.63-11.38
		c-5.56-6.34-8.34-13.81-8.34-22.49c0-19.8,7.56-34.31,22.84-43.34c15.29-9.12,37.26-12.16,65.92-9.03v-47.59
		c0-15.63-20.49-22.17-29.27-8.16c-5.73-4.95-12.85-6.69-21.37-5.38c9.03,1.04,15.29,4.52,18.85,10.51h-0.26
		c10.49,15.92-1.55,38.13-21.63,38.13c-19.81,0-30.72-20.57-21.8-38.39c0.67-1.33,0.73-0.78,0.96-1.56
		c4.52-7.12,10.6-12.85,18.07-17.2c7.47-4.34,15.72-6.43,24.93-6.43h31.53c14.07,0,26.06,4.95,36.04,14.85
		c9.9,9.9,14.85,21.8,14.85,35.78L526.63,402.01L526.63,402.01z M475.99,424.41l0.52-0.52c-0.35-1.3-0.52-2.78-0.52-4.34v-46.03
		h-12.68c-14.23,0-25.27,11.55-25.27,25.45c0,5.07,0.74,9.29,2.95,14.5c2,4.6,5.73,7.99,11.2,10.34
		C457.75,426.06,465.66,426.24,475.99,424.41L475.99,424.41z M632.5,424.67c7.47-0.52,14.94-4.08,22.32-10.86
		c7.3-6.69,11.99-13.64,13.81-20.93h6.34l-0.69,4.52c-2.67,17.43-14.04,31.31-30.4,39.6c-9.9,5.02-20.72,6.77-34.22,6.77
		c-20.58,0-38.13-7.3-52.72-21.89c-14.59-14.59-21.89-32.14-21.89-52.72v-9.9c0-13.72,3.56-26.23,10.6-37.43
		c14.26-22.72,38.49-36.91,65.75-36.91c13.38,0,24.58,2.08,33.61,6.25c8.95,4.17,15.81,9.64,20.58,16.42
		c4.78,6.77,7.64,14.24,8.69,22.41c0.52,1.91,0.69,3.73,0.69,5.65c0,14.45-11.35,25.36-25.45,25.36
		c-14.41,0-25.36-10.95-25.36-25.36c0-7.99,3.21-14.5,9.64-19.63c-0.17,0-0.26,0-0.26,0c6.95-4.56,14.8-5.17,22.93-1.82
		c-4.26-3.21-8.51-4.95-12.77-5.3c-4.26-0.35-8.6,0.09-12.94,1.3c-5.3-8.14-18.03-7.11-26.75-3.82c-4.95,1.82-9.12,7.21-12.68,15.98
		c-3.56,8.86-5.38,23.88-5.38,45.08c0,14.94,2.43,26.49,7.3,34.74c4.78,8.16,10.77,13.98,17.89,17.37
		C618.26,422.94,625.38,424.67,632.5,424.67L632.5,424.67z M828,374.3h-95.19c3.39,18.85,9.55,31.61,18.41,38.39
		c8.95,6.77,19.63,9.47,32.22,7.9c15.91-1.45,28.18-12.43,38.39-27.18H828c-5.99,18.76-14.24,31.96-24.84,39.52
		c-14.2,10.13-32.13,11.38-48.98,11.38c-19.89,0-36.83-7.21-50.98-21.54c-14.24-14.33-21.28-32.66-21.28-54.8v-6.43
		c0-22.15,7.03-40.39,21.28-54.72c14.16-14.24,31.09-21.37,50.98-21.37h4.08c19.28,0,35.78,6.86,49.33,20.5
		C821.14,319.58,828,336,828,355.19V374.3L828,374.3z M783.71,329.75c0-9.47-1.56-16.07-4.69-19.72c-3.21-3.65-6.95-5.47-11.38-5.47
		h-3.04c-8.16,0-15.46,5.56-21.97,16.68c-6.6,11.12-9.81,24.58-9.81,40.3h40.91c5.49,0,9.99-4.1,9.99-9.64V329.75L783.71,329.75z"/>
	<path d="M77.09,533.62c-1.55,0-2.33,0.39-9.51,6.4c-8.66,7.19-21.49,17.82-25.03,14.55c-3.69-3.69,1.94-18.24,10.48-26.58
		c7.31-7.22,11.45-6.07,11.45,0.97c0,2.33,1.16,3.69,3.1,3.49c4.69-0.49,2.32-13.57-4.85-14.94c-7.95-1.36-19.98,10.28-25.03,24.83
		c-3.1,8.73-1.94,15.13,3.3,17.66c3.69,1.55,8.15,0.39,15.72-4.46c2.62-1.57,16.9-13.23,20.69-16.8
		c-5.41,21.85-6.6,30.01-4.88,31.74c0.19,0.19,1.16,0.39,2.13,0.39c1.16-0.19,1.75-0.78,4.46-6.21c3.49-6.79,8.73-15.13,13.97-22.51
		c3.49-5.04,10.28-13.19,11.06-13.19c0.19,0,0.78,2.33,1.16,4.85c1.36,7.95,3.88,11.84,8.34,13.78c4.27,1.83,8.41-0.73,12.83-5.53
		c-2.85,9.44-3.2,18.31,0.08,20.27c0.58,0.19,1.75,0.58,2.72,0.58c1.36,0,2.13-0.58,4.46-2.91c5.19-5.19,13.17-17.56,19.79-27.16
		v4.66c0,8.54,1.94,14.94,5.63,19.01c5.43,5.82,12.22,4.66,18.04-3.1c0.3-0.41,0.62-0.86,0.95-1.32c0.21,1.47,1.26,1.69,2.65,1.52
		c1.36,0,2.72-1.36,8.34-8.15c7.76-9.51,14.75-16.69,19.21-20.57l3.3-2.52c0.31,3.06,0.14,4.55-0.78,9.12
		c-0.58,2.91-1.16,7.76-1.36,10.48c-0.19,4.66-0.19,5.43,0.97,7.57c1.75,3.88,5.63,4.85,9.89,2.72c2.35-1.27,8.41-6.74,12.05-10.94
		c0.82,2.56,3.98,3.24,8.23,1.14c3.51-1.86,12.12-9.82,13-9.73c0.78,0.16-2.52,10.83-5.43,18.95
		c-4.46,11.77-11.06,24.77-17.46,33.63l-2.13,3.04l-9.31,1.55c-20.57,3.56-34.92,8.96-47.53,16.75c-5.63,3.65-7.37,5.17-9.7,8.41
		c-6.21,7.79-6.4,16.43-0.39,20.44c2.13,1.75,7.95,2.91,11.06,2.91c11.45-0.19,26.97-8.44,40.55-21.83
		c6.58-6.34,13.45-15.51,18.04-22.7l15.52-2.17c9.87-1.27,27.38-1.27,37.5,0.69c0.51,1.41,1.53,2.53,3.06,3.32
		c2.52,1.35,6.07,1.38,9.75,0.1c3.91,1.25,5,1.71,6.72,3.46c1.36,1.1,3.1,2.81,3.88,4.11c1.75,3.91,3.69,3.91,4.66,0
		c0.39-1.49,0.19-2.59-1.16-4.75c-2.34-3.41-4.03-4.69-7.68-6.45c8.3-6.43,13.25-17.45,11.77-27.5c-0.58-3.3-0.58-3.69,0.58-4.66
		c0.97-1.16,6.21-5.63,21.54-18.04c4.46-3.69,5.82-4.85,5.82-6.01c0.19-1.75-0.58-2.91-2.13-2.91c-1.16,0-17.46,12.61-25.22,19.6
		l-3.1,2.72l-3.1-5.82c-5.04-9.31-5.24-11.45-1.55-17.07c2.52-3.88,12.42-13.77,15.91-15.91c2.72-1.55,3.1-1.94,3.1-3.49
		c0-1.55-1.94-2.91-3.49-2.52c-3.99,1.05-19.12,15.23-22.6,23.7c-1.76-1.44-4,0.1-10.49,5.01c-6.98,5.24-10.67,7.57-13.97,8.54
		c-1.94,0.58-4.66,0.39-4.66-0.39c0-0.19,1.16-0.97,2.72-1.75c3.69-1.75,9.31-7.37,11.45-11.84c1.55-3.1,1.75-4.07,1.75-7.76
		c0-3.88,0-4.07-1.55-5.63c-1.36-1.36-2.13-1.75-3.88-1.75c-3.1,0-5.24,1.36-9.31,5.63c-6.6,6.79-10.09,16.1-8.15,22.7
		c0.58,2.52,3.69,5.43,6.21,6.21c1.16,0.19,2.52,0.39,3.1,0.58c1.94,0,7.37-1.94,10.48-3.88c3.37-1.99,11.72-8.11,15.35-11.16
		c-0.01,5.28,5.17,14.13,8.22,20.08c-8.64,7.82-21.25,18.68-23.93,28.06c-9.86-1.47-21.39-1.9-32.93-1.1
		c-2.33,0-15.33,1.75-15.52,1.36c0,0,1.55-2.43,3.3-5.14c8.34-13,13.19-24.38,19.01-44.43c3.69-13.29,3.88-15.23,3.49-16.59
		c-0.78-2.72-4.27-2.33-6.98,1.36c-0.97,1.36-1.16,1.36-2.91,0.78c-1.36-0.19-2.91-0.39-3.88-0.19
		c-3.82,0.79-10.36,6.34-13.57,10.92c-1.77-1.08-4.21,1.56-6.52,4.21c-5.63,6.79-11.06,10.67-12.61,9.31
		c-0.78-0.97-0.39-6.98,0.97-14.55c1.94-11.06,1.36-16.1-2.13-16.49c-3.69-0.39-7.57,2.33-16.69,11.45l-7.18,7.18l2.33-5.43
		c2.33-5.82,2.33-7.57,0.19-8.34c-1.94-0.58-2.91,0.58-5.43,6.6c-0.7,1.5-1.61,3.59-2.57,5.84c-1.53,0.13-2.27,1.16-6.65,8.52
		c-6.98,11.25-10.67,14.36-14.16,11.64c-1.75-1.36-3.69-5.04-4.46-8.54c-1.36-6.4-0.19-18.63,2.33-24.64
		c1.94-4.27,2.13-5.82,0.78-6.98c-3.77-3.29-6.5,5.82-7.57,5.82c-0.19,0-0.97-0.78-1.94-1.55c-5.24-5.43-14.16-0.78-20.95,10.86
		c-0.91,1.56-1.76,3.2-2.53,4.88c-1.2-0.38-3.62,1.17-7.27,4.82c-5.04,4.66-6.01,5.04-8.54,2.72c-5.03-4.83-1.78-20.83-10.28-18.24
		c-3.3,0.97-11.25,10.28-19.21,22.12c-2.33,3.69-4.46,6.6-4.46,6.4c0-0.19,0.97-4.07,1.94-8.34c1.75-6.79,2.13-8.15,3.69-10.09
		c4.85-6.01,13.77-20.37,18.63-30.27c8.73-17.27,13.19-30.85,13.19-39.77c0-4.85-0.78-7.57-2.52-9.31
		c-4.07-4.07-9.51,0.19-15.52,12.03c-6.48,13.11-13.59,40.1-20.71,68.31C78.3,533.8,77.83,533.71,77.09,533.62L77.09,533.62z
		 M88.25,518.48c0-0.39,1.16-4.46,2.33-8.73c4.46-17.46,10.48-35.89,13.97-42.49c2.91-5.63,6.21-9.89,6.79-8.92
		c3.49,6.4-5.24,31.43-18.82,54.32C88.64,519.07,87.67,520.62,88.25,518.48L88.25,518.48z M134.92,550.11
		c-6.88,9.52-5.98,6.74-4.85,0.58c2.13-12.22,9.31-25.61,15.52-28.71c1.16-0.58,2.33-0.97,2.91-0.78c0.97,0.39,2.91,3.1,2.91,4.07
		C151.41,526.25,140.35,542.93,134.92,550.11L134.92,550.11z M297.26,589.72c-2.32-0.72-4.86-1.36-7.58-1.9
		c2.03-6.07,13.01-16.12,20.25-23.16v2.72c0.58,8.34-5.43,18.63-12.61,22.31L297.26,589.72L297.26,589.72z M245.71,532.16
		c-3.69,3.43-7.76,6.14-7.57,5.43c0-0.19,1.36-1.81,2.72-3.27c2.52-2.72,7.95-6.73,8.34-5.95
		C249.4,528.54,247.84,530.16,245.71,532.16L245.71,532.16z M209.04,612.68c-11.83,11.67-25.22,19.24-34.92,20.08
		c-4.07,0.39-6.98-0.19-9.12-1.71c-2.13-1.75-2.52-3.23-1.75-6.5c2.52-10.57,22.12-21.18,50.44-27.45c5.43-1.29,9.7-1.94,9.7-1.71
		C223.79,596.03,214.09,607.47,209.04,612.68L209.04,612.68z M270.84,541.18c-0.78,0-0.78-0.19,0-2.72
		c1.16-3.88,2.91-6.98,6.01-10.28c3.3-3.1,5.04-4.46,5.63-4.07c0.58,0.78,0.19,3.88-1.16,6.79c-1.55,3.69-4.07,6.6-7.18,8.73
		C272.98,540.41,271.42,541.18,270.84,541.18L270.84,541.18z M414.62,533.81c-1.55-0.39-3.1,0.39-9.7,5.43
		c-6.98,5.24-10.67,7.57-13.97,8.54c-1.94,0.58-4.66,0.39-4.66-0.39c0-0.19,1.16-0.97,2.72-1.75c3.69-1.75,9.31-7.37,11.45-11.84
		c1.55-3.1,1.75-4.07,1.75-7.76c0-3.88,0-4.07-1.55-5.63c-1.36-1.36-2.13-1.75-3.88-1.75c-3.1,0-5.24,1.36-9.31,5.63
		c-6.6,6.79-10.09,16.1-8.15,22.7c0.58,2.52,3.69,5.43,6.21,6.21c1.16,0.19,2.52,0.39,3.1,0.58c1.94,0,7.37-1.94,10.48-3.88
		c3.32-1.96,11.43-7.9,15.16-11c-3.98,17.74-4.5,21.06-2.25,23.41c3.1,3.1,8.92-0.97,16.88-12.22c2.52-3.69,2.91-4.07,4.07-3.49
		c0.58,0.19,2.52,0.39,4.27,0.39c4.83,0,11.92-4.33,15.64-7.52c-0.52,2.68-0.49,5.26,0.18,7.52c0.58,2.52,3.69,5.43,6.21,6.21
		c1.16,0.19,2.52,0.39,3.1,0.58c1.94,0,7.37-1.94,10.48-3.88c2.99-1.77,9.88-6.77,13.94-10.01c-2.46,5.14-4.53,10.02-4.72,10.78
		c-0.33,1.33,0.58,3.85,2.91,3.69c1.36-0.19,2.33-1.16,6.4-6.21c2.52-3.49,7.18-9.12,10.09-12.61c5.04-6.21,5.43-6.6,5.82-5.43
		c3.1,8.34,6.79,11.06,12.42,9.7c1.14-0.28,2.09-0.65,2.85-1.08c-0.84,3.68-0.85,5.48-0.04,7.29c0.97,2.52,2.33,3.69,4.85,3.69
		c4.07,0,8.15-2.91,19.98-14.55c4.07-4.07,7.37-7.18,7.37-7.18c0,1.16-10.28,25.03-14.16,32.98c-2.33,5.04-2.91,5.63-10.67,13.58
		c-8.73,8.73-12.61,13.39-15.13,18.24c-2.13,4.66-1.94,7.57,1.16,8.54c0.97,0.39,2.33,0,4.46-1.16c3.69-2.33,13.77-15.52,19.4-25.8
		c2.33-4.07,2.91-4.85,13.39-13.97c6.01-5.24,13.58-11.83,17.07-14.74c1.79-1.68,3.47-3.25,4.65-4.46
		c-0.6,4.61-0.68,9.55-0.09,12.22c0.39,1.94,2.91,5.24,4.46,6.01c0.58,0.19,2.33,0.39,3.88,0.19c5.24-0.39,11.45-4.46,23.28-14.94
		c2.8-2.55,4.73-4.48,5.96-5.97c-5.42,21.87-6.61,30.05-4.89,31.77c0.19,0.19,1.16,0.39,2.13,0.39c1.16-0.19,1.75-0.78,4.46-6.21
		c3.49-6.79,8.73-15.13,13.97-22.51c3.49-5.04,10.28-13.19,11.06-13.19c0.19,0,0.78,2.33,1.16,4.85c1.36,7.95,3.88,11.84,8.34,13.78
		c5.38,2.3,10.57-2.6,14.67-7.62c-0.11,0.98-0.18,1.91-0.21,2.77c0,4.27,0.19,5.04,1.36,6.98c0.78,1.55,1.94,2.72,3.49,3.49
		c6.09,3.04,16.47-0.82,28.4-10.66c-3.2,7.49-4.32,11.56-0.16,11.05c1.36,0,2.72-1.36,8.34-8.15c7.76-9.51,14.74-16.69,19.21-20.57
		l3.3-2.52c0.31,3.06,0.14,4.55-0.78,9.12c-0.58,2.91-1.16,7.76-1.36,10.48c-0.19,4.66-0.19,5.43,0.97,7.57
		c1.75,3.88,5.63,4.85,9.9,2.72c2.35-1.27,8.41-6.74,12.05-10.94c0.82,2.56,3.98,3.24,8.23,1.14c3.51-1.86,12.12-9.82,13-9.73
		c0.78,0.16-2.52,10.83-5.43,18.95c-4.46,11.77-11.06,24.77-17.46,33.63l-2.13,3.04l-9.31,1.55c-20.57,3.56-34.92,8.96-47.53,16.75
		c-5.63,3.65-7.37,5.17-9.7,8.41c-6.21,7.79-6.4,16.43-0.39,20.44c2.13,1.75,7.95,2.91,11.06,2.91
		c11.45-0.19,26.97-8.44,40.55-21.83c6.58-6.34,13.45-15.51,18.04-22.7l15.52-2.17c10.48-1.23,23.86-1.23,34.53,0.23
		c2.52,0.23,8.15,1.52,12.42,2.81c6.79,2.17,7.95,2.36,10.09,4.53c1.36,1.1,3.1,2.81,3.88,4.11c1.75,3.91,3.69,3.91,4.66,0
		c0.39-1.49,0.19-2.59-1.16-4.75c-0.97-1.29-2.52-3.46-3.69-4.11c-9.51-6.95-32.79-10.32-56.07-8.7c-2.33,0-15.33,1.75-15.52,1.36
		c0,0,1.55-2.43,3.3-5.14c8.34-13,13.19-24.38,19.01-44.43c3.69-13.29,3.88-15.23,3.49-16.59c-0.78-2.72-4.27-2.33-6.98,1.36
		c-0.97,1.36-1.16,1.36-2.91,0.78c-1.36-0.19-2.91-0.39-3.88-0.19c-3.82,0.79-10.36,6.34-13.57,10.92
		c-1.77-1.08-4.21,1.56-6.52,4.21c-5.63,6.79-11.06,10.67-12.61,9.31c-0.78-0.97-0.39-6.98,0.97-14.55
		c1.94-11.06,1.36-16.1-2.13-16.49c-3.69-0.39-7.57,2.33-16.69,11.45l-7.18,7.18l2.33-5.43c2.33-5.82,2.33-7.57,0.19-8.34
		c-1.94-0.58-2.91,0.58-5.43,6.6c-0.81,1.72-1.88,4.22-2.99,6.84c-1.23-0.42-3.19,0.65-6.81,3.64c-7.95,6.6-15.33,10.48-20.18,10.48
		c-3.49,0-4.07-1.16-4.07-6.21c0-4.46,1.16-9.7,3.69-15.91c1.55-3.49,1.55-3.88,0.78-5.04c-0.97-1.36-2.72-1.55-3.88-0.19
		c-1.69,1.81-3.6,6.92-4.86,12.21c-1.25-0.17-3.61,1.4-7.08,4.86c-5.04,4.66-6.01,5.04-8.54,2.72c-5.03-4.83-1.78-20.83-10.28-18.24
		c-3.3,0.97-11.25,10.28-19.21,22.12c-2.33,3.69-4.46,6.6-4.46,6.4c0-0.19,0.97-4.07,1.94-8.34c1.75-6.79,2.13-8.15,3.69-10.09
		c8.82-10.98,20.36-32.16,26.11-46.72c3.51,0.26,5.9,0.86,8.52,1.91c2.13,0.97,3.3,1.16,3.88,0.78c1.68-0.98,2.32-6.48-10.43-7.98
		c2.81-8.16,6.23-22.32,1.22-27.33c-4.07-4.07-9.51,0.19-15.52,12.03c-1.93,4.02-3.85,8.8-6.02,15.22
		c-4.87,0.31-10.33,0.8-16.4,1.46c-4.46,0.39-8.15,0.78-8.34,0.58c-0.19-0.19,0.39-1.36,0.97-2.52c1.75-2.72,1.75-4.07,0.39-5.24
		c-1.75-1.55-3.3-0.58-5.82,4.07c-1.16,2.13-2.33,4.27-2.33,4.46c-0.39,0.78-37.64,5.82-42.49,5.82c-4.46,0-5.92-2.97-7.76-0.19
		c-1.55,2.52,0.58,4.85,5.24,5.43c2.91,0.58,10.67-0.19,27.36-2.72c7.76-0.97,13.97-1.75,14.16-1.75c0,0-1.55,3.49-3.49,7.37
		c-6.01,12.56-11.16,26.83-13.7,37.36c-0.22-0.24-0.47-0.41-0.76-0.49c-1.12-0.16-19.95,16.79-26.58,22.31l1.16-2.91
		c2.72-5.82,9.12-21.15,11.06-26.39c2.91-7.95,2.72-11.25-0.97-11.25c-1.36,0-2.72,1.16-13.19,11.64
		c-10.86,10.86-17.07,16.1-18.63,16.1c-1.75,0,0-7.37,3.88-17.27c2.52-6.21,2.72-6.4,1.75-7.57c-0.97-1.55-2.72-1.75-3.88-0.39
		c-1.01,1.01-4.35,9.46-6.11,15.22c-0.88-0.44-2.34-0.44-4.28,0.1c-9.71,2.45-4.31-12.61-11.06-12.61c-1.94,0-3.69,1.36-8.34,6.98
		c-2.13,2.33-3.88,4.66-4.07,4.85c-0.19,0.19,0.39-1.75,1.55-4.66c2.72-6.79,2.52-9.31-0.58-9.31c-1.75,0-1.94,0.39-3.88,5.82
		c-0.66,1.73-2.15,5.28-3.83,9.08c-1.77-1.71-4.17-0.01-10.63,4.88c-6.98,5.24-10.67,7.57-13.97,8.54
		c-1.94,0.58-4.66,0.39-4.66-0.39c0-0.19,1.16-0.97,2.72-1.75c3.69-1.75,9.31-7.37,11.45-11.84c1.55-3.1,1.75-4.07,1.75-7.76
		c0-3.88,0-4.07-1.55-5.63c-1.36-1.36-2.13-1.75-3.88-1.75c-3.1,0-5.24,1.36-9.31,5.63c-2.86,2.94-5.13,6.36-6.64,9.82
		c-1.93-1.01-3.8,0.46-6.27,2.21c-4.66,3.1-8.92,5.24-11.25,5.43c-0.97,0-1.94-0.19-2.13-0.39c-0.62-0.62,11.38-21.44,6.79-26
		c-2.52-2.72-5.63-0.58-9.12,6.21c-3.69,6.98-5.04,11.64-4.85,16.49v3.88c-0.26,0.83-10.95,15.25-11.64,14.55
		c0,0,0.97-5.04,2.33-11.06c3.69-15.72,4.46-22.12,2.91-23.48c-0.78-0.97-3.1-0.78-3.88,0c-0.39,0.58-0.78,2.91-0.97,5.24
		c-0.24,1.53-0.69,4.13-1.22,6.9C415.06,533.98,414.85,533.88,414.62,533.81L414.62,533.81z M385.13,541.18
		c-0.78,0-0.78-0.19,0-2.72c1.16-3.88,2.91-6.98,6.01-10.28c3.3-3.1,5.04-4.46,5.63-4.07c0.58,0.78,0.19,3.88-1.16,6.79
		c-1.55,3.69-4.07,6.6-7.18,8.73C387.26,540.41,385.71,541.18,385.13,541.18L385.13,541.18z M458.87,541.18
		c-0.78,0-0.78-0.19,0-2.72c1.16-3.88,2.91-6.98,6.01-10.28c3.3-3.1,5.04-4.46,5.63-4.07c0.58,0.78,0.19,3.88-1.16,6.79
		c-1.55,3.69-4.07,6.6-7.18,8.73C461,540.41,459.45,541.18,458.87,541.18L458.87,541.18z M610.31,534.2
		c-2.53,0.84-21.03,20.18-27.74,20.18c-1.16,0-1.55-0.39-2.33-1.94c-2.91-6.98,4.46-32.01,16.3-55.68l3.49-7.37
		c9.09-1.24,16.9-2.25,26.4-2.8c-3.3,10.56-9.16,32.75-12.87,47.44C612.82,533.39,611.57,533.42,610.31,534.2L610.31,534.2z
		 M632.28,486.33l8.44-0.19c-3.38,8.34-7.94,17.59-13.24,26.52c-6.35,10.59-4.77,7.8-1.94-2.91
		C627.6,501.74,629.97,493.52,632.28,486.33L632.28,486.33z M642.84,480.6c-2.59-0.09-5.48-0.07-8.67,0.04
		c2.02-5.88,3.9-10.64,5.35-13.38c2.91-5.63,6.21-9.89,6.79-8.92C648.13,461.68,646.62,470.08,642.84,480.6L642.84,480.6z
		 M677.84,506.26c2.13-3.1,0.97-6.01-1.94-5.43c-1.94,0.58-3.1,4.27-2.13,6.6C674.35,508.98,676.48,508.4,677.84,506.26
		L677.84,506.26z M761.08,532.16c-3.69,3.43-7.76,6.14-7.57,5.43c0-0.19,1.36-1.81,2.72-3.27c2.52-2.72,7.95-6.73,8.34-5.95
		C764.77,528.54,763.22,530.16,761.08,532.16L761.08,532.16z M724.42,612.68c-11.83,11.67-25.22,19.24-34.92,20.08
		c-4.07,0.39-6.98-0.19-9.12-1.71c-2.13-1.75-2.52-3.23-1.75-6.5c2.52-10.57,22.12-21.18,50.44-27.45c5.43-1.29,9.7-1.94,9.7-1.71
		C739.16,596.03,729.46,607.47,724.42,612.68L724.42,612.68z"/>
</g>
</svg>
