<?xml version="1.0" encoding="utf-8"?>
<!-- Generator: Adobe Illustrator 25.0.0, SVG Export Plug-In . SVG Version: 6.00 Build 0)  -->
<svg version="1.1" id="Layer_1" xmlns="http://www.w3.org/2000/svg" xmlns:xlink="http://www.w3.org/1999/xlink" x="0px" y="0px"
	 viewBox="0 0 864 864" style="enable-background:new 0 0 864 864;" xml:space="preserve">
<g>
	<path d="M261.57,275.63c2.41-2.32,1.68-1.31,2.57-0.25c0.81,0.97,0.78,1.69,0.68,2.89v22.2c-0.05,4.82,4.28,12.45,11.78,12.45
		c4.52-0.04,11.86-2.09,13.95-6.55c1.17-2.5-0.33-3.59,0.69-5.96c0.87-2.02,1.62-2.84,1.85-5.25c0.14-1.47-0.03-2.82-0.31-4.26
		c-0.35-1.24-2.62-2.19-3.86-2.16c-2.92,0.18-3.53,3.21-3.72,5.62c-0.14,2.18,0.33,3.36-1.07,5.25c-1.14,1.54-0.69,2.77-1.47,3.94
		c-0.78,1.18-2.79,1.51-4.09,1.29l-0.22-0.04c-2.01-0.45-3.22-1.93-4.04-3.73c-2.05-4.94-1.47-17.61-1.52-23.34
		c-0.01-1.33,0.51-2.05,1.64-2.77c1.65-1.05,4.02-0.63,5.94-0.66c2.16-0.03,5.26-0.16,5.6-2.85l0.03-0.2
		c0.53-5.44-7.56-5.36-12.31-5.36c-3.26-3.26,2.31-14.21-3.78-14.77c-3.85-0.24-5.04,3.48-5.4,6.64c-0.16,1.47-0.25,5.76,0.71,6.98
		c-1.12-0.08-1.81,0.21-2.56,1.07l-0.23,0.26c-0.02,0.01-1.66,0.03-1.88,0.05c-3.01,0.25-6.55,1.71-6.27,5.3
		c0.26,3.33,3.63,5.57,6.82,4.38L261.57,275.63L261.57,275.63z M344.91,305.17c-2.39-0.07-2.39-4.19-2.42-5.85
		c-0.09-4.54,0.37-9.13,0.27-13.72c-0.07-3.37-0.36-6.87-1.67-10.01c-0.21-0.49-1.59-4.09-1.79-4.37c-0.12-0.16-1.47-1.17-1.71-1.38
		c-0.79-0.68-1.5-1.35-2.23-2.1c-4.44-4.6-11.59,0.17-15.49,3.17c-1.28,0.99-2.5,2.02-3.7,3.1c0.01-4.88,0.43-9.54,0.62-14.38
		c0.14-3.65,0.4-9.09-3.41-11.04c-2.58-1.32-6.48-0.95-9.25-0.55c-3.27,0.48-6.84,7.65,1.05,7.65l2.81,0.09l0.26,46.95
		c-0.09,2.55-2.02,2.72-3.43,2.64c-9.13-0.5-1.77,6.77-1.41,6.94c4.5,2.19,10.41,0.67,15.03,0.97c4.42,0.28,6.33-7.91-0.35-7.91
		c-0.88,0-1.85-0.53-1.93-2.81c0.25-6,0.34-11.97,0.43-17.97c0.01-1.01-0.06-0.81,0.72-1.51c1.08-0.97,1.91-1.35,3.14-2.03
		c1.76-0.98,0.19-3.83,5.63-5.1c2.1-0.49,5.23-1.14,6.53,1.14c0.48,0.84,0.72,1.7,1.27,2.62c0.76,1.28,0.52,1.75,0.53,3.18
		c0.01,0.87,0.02,1.74,0.03,2.61c0.04,2.89,0.08,5.78,0.11,8.67c0.03,2.02,0.05,4.05,0.08,6.07c-0.09,2.56-0.44,4.94-3.52,5.29
		c-5.17,0.69-4.25,6.79-1.76,6.87c6.32,0.2,10.22,2.94,19.16-0.35C350.61,311.28,351.48,305.83,344.91,305.17L344.91,305.17z
		 M361,312.92h17.06c5.75,0,5.17-8.09-2.9-8.09c-5.16,0-0.87-21.91,3.52-25.32v0.09c2.63-2.05,7.61-6.83,9.06-4.31
		c-2.63,3.94,1.6,5.76,2.84,6.99c3.9,3.87,4.74-0.81,5.86-1.63c3.41-2.47,3.2-3.44,1.85-6.86c-2.1-5.29-3.3-6.15-11.25-6.15
		c-9.02,0-14.07,8.86-14.07,9.14c-0.34-0.35,3.67-5.24-0.7-7.03c-17.91-7.31-17.09,6.59-8.44,5.89c4.06-0.33,2.37,6.49,2.37,14.33
		c0.07,16.23,1.5,15.03-5.19,15.03C355.39,305.01,355.51,312.92,361,312.92L361,312.92z M406.1,296.66c0,4.19-0.07,3.74,3.34,8.18
		c3.15,4.1,6.39,8.62,12.84,8.62c7.47,0,12.84-7.82,17.58-17.58c1.99-5.42,0.81-15.56-1.32-20.66c-0.17-0.35-0.62-1.58-0.53-1.5
		c-1.05-1.85-6.68-9.32-11.34-9.14c-2.15,0.08-12.41,1.71-13.54,3.17C405.48,277.59,402.38,289.17,406.1,296.66L406.1,296.66z
		 M420.87,272.22c1.14-0.53,1.76-0.35,2.72,0.18c5.02,1.97,8.09,3.95,8.92,9.52c0.32,2.16,0.4,4.82,0.49,7.02
		c0.12,2.98-0.61,3.66-1.6,6.27c-1.03,2.73-1.73,4.64-4.3,6.34c-1.72,1.13-4.94,2.1-6.93,1.27l-0.18-0.08
		C412.63,298.78,408.28,281.29,420.87,272.22L420.87,272.22z M487.91,306.41c-7.49-2.99-2.69-10.63-2.69-23.55
		c0-16.83-5.12-17.42-13.36-18.11c-3.77,3.28-6.89,7.29,1.05,8.62c4.88,0.81,7.07,32.4-10.73,33.14c-0.54-2.33-3.12-4.1-3.16-6.15
		l0.35-27.78c1.26-10.45-7.95-7.08-9.76-3.6c-1.53,2.93,1.42,5.09,1.5,5.01l-0.18,26.46c-0.17,4.97,2.36,11.75,6.59,12.13
		c9.39,0.85,13.31,1.41,19.69-5.27c0,6.98,4.3,5.71,9.85,5.71C491.9,313.01,493.36,308.6,487.91,306.41L487.91,306.41z
		 M528.91,330.51c8.44,0,9.33-3.09,10.9-3.87c6.84-3.38,6.77-4.85,6.77-11.69c-0.02-4.97-0.37-11.19-5.71-13.31
		c-2.27-0.9-4.33-0.89-6.71-1.01c-2.17-0.11-2.84-1.24-5.24-1.34c-0.85-0.04-1.71,0.04-2.56,0.1c-7.42,0.82-17.76-1.29-17.76-3.78
		c0-1.14,2.2-2.2,5.71-2.46c2.13,1.27,5.55,3.41,8.17,2.77c0.93-0.23,1.99-0.66,2.96-0.93c1.25-0.35,1.84-0.47,3.09-0.52
		c1.03-0.04,3.02-1.58,3.83-2.14c0.67-0.46,1.33-0.92,1.99-1.38c6.63-4.08,3.84-8.96,4.57-13.36c4.02,0,8.22,1.45,9.14-2.64
		c1.04-4.61-1.33-7.81-5.88-8.46c-4.87-0.7-8.01,2.71-10.48,1.07c-2.99-1.85-6.07-2.64-9.14-2.64c-14.18,0-19.92,16.4-15.3,19.87
		c-0.22,2.89-8.4,6.18-5.54,13.1c2.82,6.81-1.19,3.63-3.18,13.24c-1.79,8.65,4.24,14.86,11.88,16.12
		C514.58,328.66,522.41,330.51,528.91,330.51L528.91,330.51z M506.41,310.7c6.03-7.66,15.06-4.11,18.69-3.45
		c3.57,0.65,8.36-0.16,10.06,1.02c6.13,4.96,4.31,7.26,0.35,11.96c-0.45,0-0.02,0.88-3.25,0.88c-4.19,0-12.37,4.7-19.34-0.09
		C510.12,319.16,503.55,314.33,506.41,310.7L506.41,310.7z M519.59,273.63c12.57-1.79,7.65,1.96,12.66,2.46
		c0.82,2.45-5.72,17.22-11.78,13.19C508.61,281.38,515.43,273.99,519.59,273.63L519.59,273.63z M602.58,305.17
		c-2.42-0.1-2.44-5.36-2.47-6.99c-0.12-5.33,0.56-10.77,0.38-16.05c-0.17-4.3-1.25-5.09-2.66-8.86c-1.09-2.92-1.33-2.23-3.41-4.17
		c-1.87-1.74-2.96-3.06-5.74-3.2c-5.15-0.25-11.07,4.73-14.72,7.99l-0.12,0.11c0-18.18,4.94-28.45-12.04-25.96
		c-3.27,0.48-6.84,7.65,1.05,7.65l2.81,0.09l0.26,46.95c-0.09,2.55-2.02,2.72-3.43,2.64c-9.13-0.5-1.77,6.77-1.41,6.94
		c4.5,2.19,10.41,0.67,15.03,0.97c4.42,0.28,6.33-7.91-0.35-7.91c-0.88,0-1.85-0.53-1.93-2.81c0.25-6.09,0.3-12.11,0.43-18.2
		c0.02-0.83-0.05-0.57,0.56-1.14c1.13-1.07,1.84-1.3,3.07-2.07c2.01-1.25,1.35-4.12,4.01-4.82c0.53-0.14,1.13-0.24,1.67-0.36
		c1.86-0.41,5.22-1.07,6.55,0.73c0.68,1.03,0.34,1.75,1.31,2.93c0.84,1.02,0.64,2.41,0.64,3.69c0,4.89,0.12,9.85,0.19,14.75
		c0.01,0.72,0.02,1.45,0.03,2.17c-0.09,2.56-0.44,4.94-3.52,5.29c-5.17,0.69-4.25,6.79-1.76,6.87c6.32,0.2,10.22,2.94,19.16-0.35
		C608.28,311.28,609.15,305.83,602.58,305.17L602.58,305.17z"/>
	<path d="M382.8,594.57c-2.83-1.33-6.19-0.87-9.06,0.02c-4.55,1.46-0.55,3.45-0.55,9.34c0,6.48-2.45,13.33-3.39,19.68
		c-2.63-6.32-2.43-16.16-4.67-23.07c0.22,0.44,5.22-1.83,3.75-4.76c-1.43-2.67-3.3-1.32-5.48-1.76c-8.25-1.69-14.68,0.79-7.24,7.35
		c2.92,2.55,2.21,8.2,3.75,13.55c2.84,10.07,4.03,17.12,4.67,20.87c0.92,5.86,1.19,7.23,4.85,7.23c6.33,0,5.92-8.11,7.87-18.03
		l1.46-10.69c0.77,6.12,2.08,12.5,3.15,18.79c2.98,17.51,10.72,9.31,11.41,2.15c1.28-13.23,2.69-4.6,3.23-15.91l3.11-19.99
		c0.46-0.6,5.53-0.82,2.9-5.4c-2.38-4.13-11.91-0.54-13.44,0.69c-1.33,1.07,0.98,3.29,1.19,5.56c0.64,7.02-1.37,14.76-2.12,21.86
		c-0.82-2.61-1.69-5.26-2.49-7.87c-0.6-1.98-0.2-3.16-0.5-5.08c-0.36-2.25-1.24-3.71-1.85-5.74
		C382.33,599.94,389.25,597.8,382.8,594.57L382.8,594.57z M459.79,634.57c-4,0-2.22-16.18-2.11-23.2c0.07-4.14-3.5-12.01-3.98-12.38
		c-4.62-3.55-4.09-4.95-7.92-5.13c-6.68-0.31-11.53,4.32-15.93,8.25c0-18.89,5.16-29.63-12.54-27.04c-3.41,0.5-7.12,7.97,1.1,7.97
		l2.93,0.09l0.27,48.89c-0.09,2.65-2.11,2.84-3.57,2.75c-9.5-0.52-1.85,7.04-1.46,7.23c4.66,2.28,10.85,0.7,15.65,1.01
		c4.61,0.29,6.59-8.24-0.37-8.24c-0.92,0-1.92-0.55-2.01-2.93c0.27-6.62,0.37-12.95,0.46-19.64c4.84-4.21,3.71-1.29,5.46-5.08
		c1.16-2.52,1.37-2.3,3.81-2.87c6.61-1.55,9.2-0.24,9.27,7.86l0.23,17.32c-0.09,2.67-0.46,5.14-3.66,5.51
		c-5.39,0.72-4.43,7.07-1.83,7.16c6.58,0.21,10.64,3.06,19.96-0.37C465.72,640.93,466.62,635.25,459.79,634.57L459.79,634.57z
		 M476.36,634.22c3.29,4.27,6.65,8.97,13.37,8.97c9.6-0.05,18.2-15.46,19.09-21.53c1.45-9.91-2.7-19.85-2.7-19.85
		c-1.92-3.3-7.22-9.19-11.2-9.49l-11.71,1.63c-3.02,0.48-10.62,8.48-11.02,15.5c-0.17,3.11-2.61,6.77,0.22,15.08
		C474.15,629.61,470.7,626.88,476.36,634.22L476.36,634.22z M482.03,607.67c1.53-2.78,4.86-9.52,9.07-7.23
		c9.64,4.5,9.31,6.33,9.83,18.14c0.09,2.01-2.73,12.11-9.5,13.61C481.4,634.4,477.27,616.31,482.03,607.67L482.03,607.67z"/>
	<path d="M146.12,303.88c6.81,5.17,20.28,7.93,28.51,12.84c2.43,1.45-2.25,5.07-1.63,8.47c0.19,0.84,0.74,1.28,1.46,1.68
		c2.86,1.21,3.71-0.83,4.73-3.11l6.93-15.58c0.14-1.37-3.32-6.06-6.04-0.33c-0.69,1.44-0.96,2.73-2.4,3.65
		c-6.76-4.77-22.45-12.04-30.6-12.74c-0.27-0.46-0.31-0.96-0.03-1.58c0.94-2.22,1.92-4.56,2.78-6.75c0.46-1.22-0.74-1.56-1.4-1.85
		c-0.86-0.39-3.41-1.32-4.11,0.24l-7.56,16.98c-0.71,1.56-0.87,2.91,0.91,3.8c1.19,0.6,2.5-0.22,3.41-1
		C143.51,306.53,141.83,300.76,146.12,303.88L146.12,303.88z M211.32,266.72c0.96-3.35-0.21-7.67-2.29-10.41
		c-1.17-1.54-2.58-2.65-4.23-3.64c-1.42-0.89-2.7-2.28-4.39-0.91c-1.4,1.14-1.16,3.53-0.05,4.77c1.63,1.81,6.01,4.2,5.53,7.91
		c-0.79,6.17-2.41,4.8-8.19,5.58c-2.46,0.3-3.44-0.77-5.48-1.81c-4.29-2.11-7.82-3.31-11.2-6.64c-2.25-2.22-8.8-11.25-6.4-13.98
		c0.36-0.41,0.99-0.78,1.46-1.21c1.37-1.14,4.05-1.44,5.74-1c1.36,0.36,2.38,1.1,3.76,1.54c3.21,1.01,3.27,2.6,5.17,0.59
		c0.61-0.64,1.55-2.14,1-3.04c-2.98-3.82-6.22-5.81-10.53-8.02c-1.66-0.78-4.74-0.77-4.38,1.82c0.33,2.53-0.33,2.24-2.27,3.42
		c-1.05,0.68-1.71,1.48-2.98,1.72c-1.92,0.35-2.17,0.81-2.6,2.77c-0.18,0.81-0.42,1.7-0.58,2.48c-0.77,4.37,3.79,11.82,6.7,14.89
		c0.4,0.42,0.94,0.86,1.38,1.31c4.67,4.66,9.27,8.05,15.65,9.95c1.73,0.52,3.49,1.24,5.23,1.72c2,0.55,5.87-0.75,7.58-1.85
		C209.93,271.48,209.62,272.87,211.32,266.72L211.32,266.72z M228.62,242.01c-0.69-1.51-2.09-1.48-3.34-0.79l0.04-0.05
		c-3.62,1.71-6.32-3.11-4.97-7.13c0.49-1.47,4.82-5.81,5.55-5.39c0.51,0.29,1.77,2.31,3.79,3.28c1.5,0.66,1.57,1.76,1.3,3.12l0-0.09
		c-0.12,1.35-1.3,2.79,1.31,3.73l-0.09,0c1.28,0.54,2.77,0.42,3.88-0.66l5.8-6.08c2.7-2.92,0.15-6.52-3.35-4.45
		c-4.5,2.67-2.73,0.9-8.75-1.96c-0.93-0.44-1.12-0.62-1.92-1.15c-0.85-0.57-1.39-0.42-2.03-0.81c-1.65-1.01-3.32-2.2-4.94-3.28
		c-5.38-3.55-10.79-7.05-16.23-10.51c-5.8-3.63-9.74,2.41-5.83,6.65c1.68,1.84,3.18,4.74,6.04,7.9c1.45,1.6,2.86,4.58,4.05,6.42
		c3.33,4.8,6.66,9.6,10,14.39c1.53,2.18,0.05,1.61-1.06,2.87c-2.19,2.49,1.9,7.8,6.58,2.33c1.38-1.61,1.44-3.67,3.31-4.53
		C229.54,245.02,229.45,243.82,228.62,242.01L228.62,242.01z M206.5,217.64l3.61,1.77c1.2,0.8,2.49,1.6,3.73,2.27
		c2.6,1.45,4.54,2.72,6.71,4.78c-1.25,1.37-2.54,3.46-4.32,4.14c-1.37,0.52-2.46-2.29-2.7-2.65L206.5,217.64L206.5,217.64z
		 M240.01,179.01c3.07-1.86,4.2-1.86,6.74,0.98c1.98,2.22,10.07,13.63,12.37,16.8c0.37,0.51-0.63-0.4-0.74-0.48
		c-2.79-2.11-5.34-3.1-8.49-4.46c-1.11-0.48-1.59-1.09-2.65-1.65c-1.24-0.66-2.43-1.14-3.69-1.86c-3.22-1.84-6.28-3.9-9.45-5.79
		c-1.29-0.77-1.53-0.93-3.11-0.76c-3.38,0.38-5.7,3.32-8.26,5.45c-0.49,0.38-0.57,1.08-0.24,1.6c1.28,1.81,2.69,2.1,4.42,0.63
		c0.6-0.51,1.24-0.76,2.04-0.77c0.34,0,0.24-0.01,0.51,0.32c4.83,6.19,15.15,24.28,20.72,26.87c0.97,0.45,1.47,1.31-0.06,1.36
		c-1.2,0.04-1.64,0.43-2.12,1.58c-0.68,1.6-0.72,3.67,1.14,4.46c1.59,0.67,2.88-1.05,4.03-1.96c2.25-1.76,4.57-3.48,6.8-5.25
		c1.39-1.1,1.8-2.25,0.54-3.74c-1.33-1.57-2.6-0.02-4.01,0.29c-2.02,0.38-1.73-0.54-2.77-2.02c-1.1-1.56-2.23-2.28-3.69-3.38
		c-1.22-0.93-1.46-1.7-2.29-2.92c-2.09-3.07-4.84-6.12-7.25-8.98c-1.16-1.38-2.32-2.76-3.48-4.14c-0.68-1.09-1.98-1.79,0.14-0.83
		c1.82,0.82,3.33,1.74,5.02,2.8c7.69,4.87,15.49,9.66,23.3,14.33l-0.04-0.05c4.34,2.77,4.63,0.36,5.98-2.56
		c0.5-1.09-0.86-2.35-1.53-3.18l-15.55-19.74c-2.76-3.56-0.62-4.58-5.36-7.06c-1.03-0.54,0.31-1.22,1.29-2.16
		c0.89-0.97-0.35-6.83-4.95-3.49c-1.56,1.13-7.79,5.66-8.17,6.85C236.79,177.24,238.52,179.7,240.01,179.01L240.01,179.01z
		 M300.45,182.2c-1.65,0.54-2.51,2.55-1.89,4.23c1.21,2.94,3.68,0.91,4.23,0.66c4.65-2.1,9.31-4.15,13.94-6.29
		c1.8-0.83,2.18-1.69,3.47-3.06c1.51-1.61,2.11-2.65,2.66-4.79c1.16-4.85-0.84-13.37-2.73-17.96c-1.89-4.57-5.18-9.51-9.03-12.65
		c-2.48-2.03-7.23-3.28-10.43-3.13c-5.92,0.27-11.9,4.47-16.63,6.11c-1.43,0.44-3.22,1.12-2.38,3.59c0.87,2.16,3.05,2.54,4.98,1.54
		c2.14-1.1,3,0.95,3.83,2.53c2.21,4.25,3.75,9.12,5.74,13.54c1.77,3.91,3.69,7.61,5.72,11.39
		C303.11,180.09,303.01,181.3,300.45,182.2L300.45,182.2z M300.9,165.09l-8.6-16.6c-0.79-1.47-0.06-1.7,1.27-2.27
		c4.28-1.79,9.55-2.04,13.63,0.38c6,3.56,8.68,11.72,10.06,18.17c0.11-0.3,0.12,0.33,0.17,0.58c1.15,5.42,0.7,7.89-3.69,11.64
		c-1.14,0.96-3.27,1.97-4.73,2.23c-2.15,0.39-1.91-1.83-2.48-3.13L300.9,165.09L300.9,165.09z M331.71,152.21
		c0.76,2.8,1.71,4.07,3.16,6.38c2.11,3.37,3.2,5.72,7.19,7.55l2.93,0.94c5.31,1.7,8.3,0.95,11.68-3.62
		c6.49-8.79,1.77-20.85-1.26-30.33c-5.58-17.44-24.58-14.24-25.76-0.59c-0.45,5.15-0.47,5.57-0.28,10.31
		C329.55,147.44,330.62,148.16,331.71,152.21L331.71,152.21z M339.32,153.78c-0.54-0.9-0.99-1.38-1.69-2.14
		c-2.03-2.69-3.11-11.31-2.96-14.79c0.56-13.24,9.7-11.82,12.26-7.77c0.78,1.24,1.88,3.73,2.48,5.13c2.5,5.85,4.09,11.89,4.54,18.25
		c0.27,3.87-2.74,9.62-4.57,9.71C345.58,162.36,340.89,158.47,339.32,153.78L339.32,153.78z M402.16,151.35
		c-3.84-1.03-2.67-6.73,1.28-8.73c1.11-0.57,2-0.4,3.21-0.51c5.84-0.54,4.04,0.22,4.49,3.48c0.32,2.29,1.67,3.22-0.67,5.01
		c0.19-0.22-0.3,0.22-0.4,0.29c-1.92,1.33-1.38,5.47,2.19,5.34l8.38-0.64c4.33-0.33,4.22-5.49-0.06-5.64c-1.77-0.09-3-0.76-3.3-2.62
		c-0.38-2.35-0.59-2.7-1.45-4.84c-0.46-1.15-0.51-1.9-1.1-3.1c-0.65-1.32-0.82-2.33-1.16-3.73l-5.75-21.44
		c-1.86-6.54-8.85-4.78-8.78,1.04c0.04,2.39-0.96,6.12-0.79,10.14c0.05,1.23-1.02,5.57-1.3,7.25l-2.29,18.03
		c-0.08,0.63-0.47,1.21-1.17,0.96c-4.14-1.37-5.5,5.1-0.9,5.89c4.97,0.86,4.94-1.95,8.65-0.98c1.64,0.43,2.42-1.03,2.8-2.38
		C404.72,151.84,402.13,151.36,402.16,151.35L402.16,151.35z M406.68,129.19c0.96,2.82,1.55,5.06,1.79,8.05
		c-2.18,0.19-3.72,0.84-5.99,0.22c-1.34-0.38-0.3-3.32-0.26-3.58c0.17-1.09,1.64-12.59,1.71-12.6
		C404.28,121.24,406.44,128.52,406.68,129.19L406.68,129.19z M452.84,115.88c1.85,0.05,2.52-1.23,2.44-2.96
		c-0.14-3.09-4.2-2.97-6.45-3.14c-3.31-0.25-6.65-0.54-9.96-0.76c-1.83-0.12-3.79,0.09-3.78,2.43c0.01,1.99,2.05,3.08,3.81,3.27
		c3.66,0.42,2.74,3.32,2.4,7.26l-1.95,25.38c-0.4,4.8-2.18,1.28-5.29,2.76c-5.38,2.55-0.85,7.09,2.1,5.73
		c2.08-0.96,5.61-0.74,7.9-0.55c3.91,0.34,7.83,0.64,11.74,1c1.14,0.1,1.69,0.39,2.99,0.26c0.88-0.09,2.36-0.55,2.91-1.26
		c2.87-3.69,2.49-7.49,2.62-11.86c0.06-1.93,0.48-4.15-1.49-5.33c-1.39-0.84-3.6-0.22-4.1,1.44c-0.63,2.07,1.56,10.77-2.44,11.73
		c-2.67,0.64-9.05-0.29-11.96-0.76c-1.17-2.81,1.46-11.23,1.85-14.79l0.68-19.81C447.37,115.22,451.84,115.84,452.84,115.88
		L452.84,115.88z M499.23,148.81c-0.05,3.02,0.04,6.32-2.58,8.34c-1.97,0.15-4.07-0.04-6.08-0.4l-6.38-1.52
		c-0.71-2.69,1.8-9.17,2.65-11.96c1.6-5.27,2.85-21.06,3.34-22.2c0.38-0.63,4.7,0.3,5.57,0.48c1.93,0.39,2.87-0.4,3.12-2.37
		c0.41-3.3-3.78-3.62-6.08-4.03c-3.27-0.58-6.57-1.21-9.84-1.76c-1.81-0.3-3.78-0.29-4.01,2.04c-0.19,1.97,1.73,3.29,3.46,3.64
		c2.3,0.47,2.71,1.68,2.32,4.06l-5.15,28.47c-0.96,5.39-2.69-0.13-7,3.01c-1.09,0.79-1.88,1.66-1.03,3.28
		c0.97,1.62,2.71,2.43,4.21,1.76c1.25-0.54,4.04-0.17,5.78-0.03l13.73,2.58c1.9,0.62,3.49,0.83,5.34-0.13
		c0.92-0.48,2.22-2.69,2.65-3.68c1.37-3.18,1.22-6.89,1.81-10.28C505.77,143.99,499.35,141.58,499.23,148.81L499.23,148.81z
		 M550.28,137.67c5.74,2.59,5.75,0.57-0.02,12.95c-0.51,1.13-1.15,2.4-1.68,3.58c-2.59,6.5-3.02,7.7-6.78,14.09
		c-1.58,2.69-0.33,3.15-3.19,2.08c-2.02-0.75-3.91-0.36-4.92,1.67c-0.59,1.3,0.32,2.08,1.32,2.79c3.15,2.14,6.75,3.16,10.14,4.82
		c6.59,3.24,6.71-0.83,5.46-2.55c-1.37-1.89-3.51-1.51-3.77-4.37c-0.13-1.41,9.85-21.15,11.3-25.62c0.74-2.23,1.65-4.84,4.53-4.25
		c1.93,0.37,2.05,0.24,2.12,2.28c0.08,2.11-0.85,7.08-2.56,8.37c-2.18,1.43-1.74,2.28-0.96,4.5c1.19,3.4,4.13,2.55,5.71-0.1
		c0.33-0.55,0.64-0.94,0.97-1.56c0.76-1.43,3.12-7.13,3.36-8.59c0.38-2.37-2.19-7.1-3.97-8.07l-4.81-1.45
		c-2.97-0.91,0.87-2.89-11.13-5.27c-0.32-0.06-0.65-0.13-0.97-0.19c-2.79-1.94-5.37-2.23-6.28,2.18l-0.01-0.14
		c-1.05,3.64-4.62,7.75-3.62,10.58c0.52,1.48,2.09,1.74,3.45,1.36c1.92-0.53,3.22-5.03,4.27-7.1
		C548.77,138.68,549.27,138.16,550.28,137.67L550.28,137.67z M564.87,144.65C564.85,144.61,564.87,144.67,564.87,144.65
		L564.87,144.65z M593.22,181.53c4.02,2.48-2.43,6.57-5.21,13.65c-0.13,0.32-0.2,0.32-0.58,0.46c-1.66,0.61-1.95-0.83-3.97-0.38
		c-1.18,0.27-2.02,1.29-2.31,2.44c-0.38,1.53,1.1,2.15,2.16,2.88c1.34,0.93,6.81,4.95,8.28,5.2c1.11,0.19,1.58-1.16,2.06-1.99
		c0.92-1.59,1.04-1.4-0.17-2.83c-1.49-1.76-0.66-3.43,0.43-5.19l14.96-23.23c1.63-2.79,2.05-1.48,5.11-0.76
		c0.52,0.11,1.15-0.07,1.4-0.57c2.17-4.25-0.81-5.25-3.86-7.31c-1.45-0.98-3.77-2.82-5.51-2.84c-0.98-0.01-5.82,2.24-1.28,5.45
		c1.73,1.23-5.83,13.49-8.92,11.39c-2.36-1.59-4.65-3.05-7.04-4.59c-0.88-0.57-1.09-0.7,0.88-3.77l6.01-8.92
		c2.15,1.45,4.24,2.43,5.04-1.91c0.5-2.27-7.2-6.09-9.27-7.41c-1.56-1-4.25-1.62-4.47,2.27c0.22,1.65,3.14,3.49,3.33,3.97
		c0.15,0.5-15.8,24.99-17.12,27.05c-0.78,1.21-1.44,2.5-3,1.71c-4.48-2.37-5.83,0.77-4.66,2.29c1.27,1.64,6.7,5.05,8.84,6.29
		c1.75,1.01,3.38,1.52,4.38-0.75c0.96-3.12-2.71-1.64-2.35-5.21c0.17-1.65,1.43-1.18,2.64-2.46c2.76-2.93,1.83-9.41,8.49-7.66
		C589.5,179.36,591.48,180.47,593.22,181.53L593.22,181.53z M631.9,189.22c-5.18,3.79-10.55,12.05-14.65,17.24
		c-1.76,2.22-3.69,4.28-5.67,6.3c-1.16,1.12-1.39,0.65-2.55-0.3c-1.4-1.14-3.51-3.5-5.36-3.56c-1.8,0.05-3.39,2.22-2.48,3.97
		c0.81,1.41,4.48,4.33,5.93,5.58c1.09,0.94,8.75,7.64,9.25,7.86c1.3,0.58,6.69-1.48,2.14-5.6c-1.09-0.95-2.59-1.93-2.91-3.42
		c6.14-4.95,17.96-17.88,20.94-25.69c1.1-0.21,1.74,0.59,2.51,1.23c0.75,0.62,4.37,3.65,4.94,3.9c1.55,0.69,4.28-3.48,2.89-4.92
		l-13.29-11.42c-1.49-1.29-2.95-2.76-4.78-0.89c-1.04,1.07-0.36,2.13-0.05,3.37C629.52,185.96,636.23,185.61,631.9,189.22
		L631.9,189.22z M668.91,228.79c-2.56,2.4-12.61,10.2-15.93,12.85c2.18-2.98,3.06-5.23,4.33-8.62c0.6-1.6,1.49-2.78,2.15-4.38
		c1.87-4.55,4.81-9.07,7.08-13.5c0.11-0.22,0.27-0.51,0.34-0.75c0.15-4.17-2.43-6-5.01-8.76c-1.12-1.19-1.88-1.99-3.28-0.39
		c-2.38,2.73,2.67,4.81,0.8,6.37c-6.86,5.73-14.96,10.77-22.02,17.16c-1.59,1.44-2.57,2.56-3.6,4.46c-1.34,2.52-1.41-0.22-1.9-0.94
		c-0.72-1.05-4.67-2.19-5.67,0.53c-0.59,1.6,1.01,2.6,1.87,3.6l5.24,6.15c0.8,0.87,1.9,2.81,3.88,1.46c1.7-1.15,1.08-2.25,0.5-3.29
		c-0.12-0.23-0.39-0.64-0.35-0.59c-0.35-1.13-0.65-1.79,0.4-2.45c2.43-1.53,2.9-2.35,4.53-4.73c0.9-1.31,1.6-1.52,2.81-2.45
		c3.62-2.75,7.17-6.32,10.53-9.43c0.62-0.57,3.03-2.47,3.32-2.92c-0.91,2.51-1.67,3.94-2.98,6.25c-4.57,8.04-9.17,16.36-13.42,24.39
		c-1.85,3.49-0.32,4.25,2.88,5.27c1.56,0.5,2.56-0.9,3.65-1.86l14.24-12.33c1.63-1.41,3.27-2.92,4.91-4.29
		c1.6-1.34,3.02-1.18,4.52-2.49c2.14-1.94,1.39-3.94,2.73-2.86c1.34,1.09,1.13,1.89,3.15,1.36c2.21-0.58,3.18-2.15,1.97-4.28
		c-0.64-1.13-6.68-8.65-8-8.78c-1.18-0.12-3.17,1.61-2.65,2.87c0.21,0.5,0.81,1.38,1.1,2C672.17,225.84,670.6,227.18,668.91,228.79
		L668.91,228.79z M678.02,281.6c1.56-0.59,2.36-1.64,3.15-1.88c1.22,1.51,1.59,1.78,2.66,2.7c1.07,0.92,2.18,1.45,3.62,0.29
		c1.93-1.71,0.93-4.04-0.44-5.73c-1.04-1.29-1.02-1.4-1.74-2.82c-0.65-1.28-1.74-2.44-2.57-3.65c-0.71-1.04-2.19-3.38-3.65-3.17
		c-1.61,0.4-3.37,1.24-2.7,3.18c0.44,1.27,2.03,3.28,2.24,4.22c0.16,0.69-0.73,0.86-1.28,1.08c-5.36,2.24-4.87,2.56-9.9,1.25
		c-1.19-0.31-1.27-0.42-1.74-1.63c-0.94-2.42-1.01-4.54-0.42-7.1c0.11-0.46,0.68-1.05,0.99-1.43c4.84-6.1,9.69-10.3,17.26-12.46
		c4.28-1.22,6.93-3.02,10.26-1.21c-0.57-0.08,5.32,2.97,1.07,10.05c-0.68,1.14-1.49,2.18-2.34,3.2c-1.36,1.64-5,3.07-2.84,5.33
		c0.76,0.75,3.03,1.75,4.07,1.28c1.24-0.56,2.94-1.82,3.95-2.76c1.25-1.13,6.03-2.63,7-4.42c0.4-0.74,1.26-2.48,0.81-3.29
		c-0.44-0.77-1.98-1.58-2.92-1.52c-1.07,0.07-0.88,0.2-0.64-1.14c0.69-6.18-2.33-10.99-8.55-12.27c-4.63-0.95-5.68-1.52-10.19,0.53
		c-1.82,0.84-3.27,1.54-5.19,2.2c-3.6,1.22-7.34,3.61-9.98,6.35c-1.22,1.3-1.96,2.08-3.37,3.19c-3.86,3.03-4.89,7.57-5.57,12.76
		c-0.31,2.77,0.89,3.68,2.32,5.87c1.75,2.69,1.89,2.67,4.97,3.83c2.3,0.87,0.64,0.31,0.61,2.74c-0.03,1.76,1.44,2.5,2.3,2
		L678.02,281.6L678.02,281.6z M688.01,278.45C688.02,278.47,688.02,278.47,688.01,278.45L688.01,278.45z M716.02,286.23
		c-6.11-3.98-15.6,1.49-16.43,8.38c-0.86,7.08,3.62,19.53-6.27,21.92c-6.04,1.33-9.29-4.7-8.02-10.02c0.65-2.62,2.43-4.9,5.09-5.79
		c4.19-1.41,2.97-7.3-0.76-5.73l-10.81,5.09c-1.58,0.85-2.22,2.15-1.68,3.34c1.26,1.84,2.21,1.2,2.69,1.86
		c0.48,0.67-0.37,2.32-0.44,3.29c-0.1,1.32,0.52,3.11,0.8,4.47c1.11,5.29,4.04,8.41,9.54,9.03c0.64,0.07,1.19,0.22,1.94,0.27
		c6,0.19,11.08-4.08,13.46-9.33c0.61-1.35,0.36-2.93,0.35-4.38c0-3.05,0.16-5.79-0.37-8.83c-0.41-2.36-0.13-3.23,0.97-5.34
		c2.09-3.89,4.71-4.19,8.5-2.37c1.5,0.72,1.9,1.71,2.34,3.24c0.74,2.83-0.34,5.6-1.47,8.17c-0.54,1.22-1.74,1.4-2.9,1.96
		c-1.9,0.93-3.13,2.4-1.84,4.5c1.46,2.38,4.58,0.54,6.47-0.27c1.36-0.59,2.6-1.26,3.46-2.52c0.8-0.93,1.73,1.04,3.84-0.88
		c1.59-1.45,1.88-4.01-0.47-4.91c-2.85-1.08-1.57-2.97-1.73-5.63C722.03,291.5,719.42,288.51,716.02,286.23L716.02,286.23z"/>
	<path d="M158.61,584.14c3.59-1.87,6.43-5.15,8.02-8.85c0.92-2.12,0.28-5.57,0.2-8.36c-0.16-7.56-2.13-7.46,0.12-12.3
		c2.05-4.41,5.32-4.79,9.59-2.73c1.22,0.59,1.42,1.38,1.91,2.58c0.32,0.78,0.65,1.59,0.65,2.44c-0.1,3.01-0.53,4.55-1.66,7.31
		c-0.44,1.09-1.55,1.3-2.57,1.84c-2.05,1.09-3.8,2.73-2.15,5.11c1.78,2.58,4.91,0.46,7.02-0.57c1.71-0.83,2.24-1.34,3.46-2.77
		c1.02-1.21,2.16,0.98,4.33-1.34c1.15-1.27,1.7-3.2,0.41-4.56c-1-1.06-2.43-0.82-2.6-0.93c-0.16-0.11-0.84-1.99-0.83-2.54
		c0.02-1.74,0.23-2.64-0.16-4.48c-0.84-3.9-3.67-6.56-6.93-8.62c-6.69-4.12-16.21,2.08-17.4,8.8c-1.29,7.33,5.3,21.57-5.52,25.01
		c-3.51,1.06-7.07-0.42-8.62-3.8c-2.22-4.85-0.74-11.22,4.62-13.19c4.02-1.41,2.65-8.12-1.37-6.07c-3.89,1.98-7.7,3.71-11.43,6.06
		c-1.67,1-2.29,2.45-1.65,3.7c1.13,1.92,2.76,1.11,3.16,2.08c0.3,0.72-0.44,2.3-0.57,3.07c-0.31,1.79,0.75,2.57,1.05,4.29
		c1.01,5.83,4.62,9.53,10.59,10.09C153.66,585.72,155.42,585.73,158.61,584.14L158.61,584.14z M192.4,602.3
		c-1.09,0.78-2.39,1.61-3.54,2.43c-5.62,4.38-7.74,6.13-14.41,9.65c-1.46,0.77-1.31,0.82-2.22,2.05c-0.19,0.25-0.02,0.08-0.27-0.41
		c-0.79-1.46-1.08-1.47-2.25-2.49c-1.57-1.39-3.15-1.24-4.77-0.05c-2.51,1.85,4.51,9.92,5.92,11.86c1.07,1.48,1.63,3.02,3.28,4.03
		c1.27,0.78,1.25,1.78,2.96,0.7c2.12-1.18,0.67-4.65,0.48-5.35c-0.34-1.4,1.61-4.68,2.94-6.28l15.45-10.88
		c2.17-1.54,3.62-2.32,5.72-4.22c1.65-1.44,4.29-3.52,6.4-1.71c1.66,1.42,1.85,1.87,0.77,3.82c-1.06,1.85-4.7,5.9-6.87,6.12
		c-2.89,0.29-2.78,0.97-3.39,3.99c-0.62,3.06,2.32,4.56,5.23,2.86c0.16-0.12,0.33-0.23,0.74-0.36c2.49-1.21,5.71-3.99,7.93-5.78
		c2.98-2.4,2.66-5.62,2.38-9.52c-0.14-1.96-3.11-3.7-4.58-5.77c-0.53-0.79-0.31-1.58-0.49-2.44c-0.64-3-4.63-6.25-6.85-8.29
		c-1.67-1.54-2.84-6.87-7.67-1.96c0.14-0.33-0.3,0.23-0.45,0.38c-1.61,1.46-6.76,4.24-7.91,5.69c-2.49,3.12,1.1,5.59,3.19,4.86
		c2.43-0.85,6.92-5.59,9.02-5c0.53,0.15,3.62,3.31,2.91,4.85C201.44,596.42,194.41,600.91,192.4,602.3L192.4,602.3z M204.24,663.8
		c1.53,1.99,3.19,1.99,4.72,0.85c2.55-2.02,0.56-3.52-0.65-4.48c-3.47-2.82,3.53-5.54,8.67-12.91c2.78-3.99,13.4,5.62-1.13,20.65
		c-3.23,3.34-1.17,4.58,0.04,7.03c1.16,2.36,3.51,3.79,5.97,2.23c4.41-3.01-4.75-3.8,3.07-11.66c3.27-3.27,3.91-5.71,4.28-7.38
		l-0.05,0.05c0.27-0.67,0.39-1.7,1.32-1.7c3.91,0.76,7.26-0.53,10.87-1.85c2.93-1.07,2.33-2.68,3.69-5.14
		c0.68-1.23,1.15-1.81,1.67-3.2c0.82-2.36,0.91-4.77,0.67-7.23c-0.11-1.09-0.15-0.92-0.77-1.81c-2.28-3.25-3.78-7.47-7.56-9.23
		c-1.43-0.63-1.69-0.5-2.56-1.88c-1.33-2.02-4.41-4-6.43-5.4c-1.3-0.9-1.86-3.32-4.19-1.17c-1,0.92-1.07,1.56-0.55,2.82
		c1.43,3.41,5.08,2.5,0.79,6.57c-0.83,0.79-1.62,1.53-2.41,2.36c-1.2,1.27-2.57,2.83-3.85,4.57c-1.01,1.07-2.9,2.98-3.86,4
		c-3.99,4.2-7.97,8.41-11.96,12.61c-1.12,1.18-2.07,1.8-3.39,0.46c-0.94-1.25-2.83-2.57-4.51-0.39c-1.42,1.91-1.22,3.79,0.99,4.92
		C201.09,659.53,201.64,660.26,204.24,663.8L204.24,663.8z M234.81,631.93c3.6,3.95,7.23,5.74,6.2,11.97
		c-1.14,6.9-6.58,7.29-11.97,4.35c-2.27-1.24-4.3-2.86-6.21-4.59c-1.75-1.57,2.15-4.8,3.95-7.42l-0.05,0.05
		c1.23-1.7,2.42-3.25,3.71-4.52C231.69,630.56,233.15,630.37,234.81,631.93L234.81,631.93z M244.28,689.58
		c-1.1-0.4-2.13-0.9-3.15,0.67c-1.17,1.56-0.42,2.61,0.56,3.56c6.26,6.02,16.14,12.25,24.34,15.12c1.84,0.64,1.94-0.23,3.09-1.47
		c3.46-3.76,8.06-7.99,7.48-14.08c-0.1-1.09-2.36-1.64-3.23-1.44c-1.52,0.34-2.62,3.09-3.36,4.38c-0.72,1.26-2.51,4.26-3.74,4.93
		c-2.38,0.46-4.48-0.12-6.11-1.17l-3.92-3.19c-1.87-1.03-3.34-2.13-2.05-4.36c2.15-3.71,3.65-6.85,7.11-9.93
		c6.19-5.51,1.44,6.92,0.81,8.83c-0.55,1.66,3.22,5.49,9.28-2.99c2.22-3.13,6.04-9.46,6.45-13.25c0.13-1.2-0.64-2.56-1.68-3.07
		c-2.8-1.27-4.46,6.28-7.16,5.54c-0.59-0.16-3.12-1.66-3.4-2.1c-0.91-1.45,0.98-2.36,1.7-3.33c0.38-0.51,0.74-1.16,1.13-1.7
		c6.04-7.96,3.99-8.92,9.53-5.31c1.14,0.74,6.96,4.54,7.29,5.38c0.82,3.67-5.09,7.41-4.59,9.64c0.74,2.4,3.68,3.56,4.58,2.18
		l1.28-2.21c0.33-0.51,0.82-1.14,1.49-1.67l3.46-5.82c2.52-4.17-0.25-7.43-2.53-6.9c-0.73,0.17-0.81,0.14-1.48-0.26
		c-1.05-0.62-2.27-1.39-3.29-2.05c-1.46-0.96-1.69-1.15-2.51-2.7c-0.83-1.55-5.79-4.41-7.55-5.02c-2.12-0.73-1.82-1.36-3.24-2.06
		c-0.93-0.46-1.95-0.37-3-0.64c-1.97-0.5-2.97-0.25-3.83,1.67c-1.61,3.92,3.26,3.94,3.08,5.87c-0.2,1.28-2.44,3.41-3.3,4.57
		c-1.02,1.39-1.05,2-1.65,3.47l-6.63,10.41c-7.67,11.8-7.84,11.69-9.05,11.46L244.28,689.58L244.28,689.58z M334.17,688.05
		c-1.19-0.57-6.49-2.83-7.55-2.44c-1.21,0.44-2.44,3.27-0.98,4.24c2.89,1.93,4.17,2.19,2.76,6.71c-0.89,2.84-7.65,17.65-9.17,21.08
		c0.67-4.32,0.29-7.27-0.27-11.52c-0.15-1.11-0.07-4.34-0.14-5.86c-0.17-3.7,0.2-10.93,0.26-14.94c0.02-1.19-0.8-2.29-1.58-3.13
		c-2.15-2.29-5.99-2.97-9.01-4.07c-0.62-0.25-1.32,0.05-1.63,0.65c-1.15,2.35-0.24,3.87,2.07,4.57c0.65,0.3,1.23,0.8,1.59,1.43
		c0.17,0.29,0.12,0.21-0.03,0.6c-2.87,7.3-14.79,28.23-13.93,34.04c0.21,1.32-0.61,2.33-1.36,0.67c-1.12-2.47-6.72-0.66-6.12,2.56
		c0.32,1.73,2.41,1.94,3.76,2.48c2.97,1.21,5.99,2.49,8.97,3.65c1.76,0.69,3,0.38,3.7-1.54c0.93-2.55-2.44-2.61-3.16-4.64
		c-0.24-0.68,0.57-1.63,0.9-2.28c1.22-2.49,1.06-4.05,1.51-6.59c0.13-0.74,0.47-1.13,0.81-1.8c2.37-4.53,6.63-18.35,7.68-19.42
		c0.7,1.72-0.02,14.97-0.1,18.1c-0.18,6.2-0.3,12.4-0.38,18.61l0.03-0.06c-0.28,6.34,3.3,4.16,5.49,4.22
		c1.4,0.03,1.75-1.69,2.17-2.79l10.35-26.07c1.58-3.99,3.85-2.65,3.54-8.55c-0.06-1.14,1.43-0.39,2.73,0.08
		c1.09,0.39,2.72-1.75,3.03-2.54C341.4,690.18,337.06,689.45,334.17,688.05L334.17,688.05z M381.05,733.83
		c1.66-0.12,2.94-0.58,3.1-2.78c0.27-3.73-5.14-3.7-7.41-4.47c-2.74-0.94-2.09-0.47-4.33-0.89c-1.4-0.26-5.51-1.41-6.44-0.01
		c-2.69,4.51,0.62,4.76,3.97,5.68c2.36,0.68,1.55,0.8,0.74,2.94c-0.81,2.16-0.99,2.86-2.39,4.84c-0.95,1.35-1.99,1.76-3.41,2.56
		c-1.99,1.11-2.66,0.93-4.66-0.3c-1.76-1.11-4.19-3.43-4.52-5.55c-0.64-4.18-0.64-10.65,0.43-14.66c1.75-6.55,2.84-7.38,5.62-12.79
		c1.2-2.34,2.2-4.12,4.94-4.76c-0.52,0.4,7.46-2.13,8.8,9.27c0.22,1.79,0.52,2.91,0.02,4.69c-0.28,1-0.26,2.02,0.3,2.93
		c0.82,1.33,4.58,0.09,5.37-0.65c0.97-1.03,1.42-4.52,1.48-5.96c0.05-1.33,2.52-6.27,2.15-8.45c-0.87-5.12-4.55-3.23-5.3-2.4
		c-0.75,0.83-0.51,0.94-1.18-0.09c-3.22-4.83-9.42-6.91-14.7-4.28c-1.12,0.56-1.99,1.44-3.13,2.11c-4.22,2.48-4.5,3.74-6.38,8.39
		c-0.45,1.11-0.98,2.87-1.63,3.79c-1.44,2.14-3.01,8.61-3.11,11.29c-0.06,2.12,0.05,3.91-0.17,6.08c-0.61,6.13,0.9,8.07,4.14,13.03
		c2.54,3.9,5.22,4.59,9.96,4.86c2.19,0.09,4.71-1.75,5.39-1.58c0.48,0.2,1.06,3.17,3.27,2.87c0.6-0.08,1.13-0.42,1.32-1.01
		l3.58-14.64C376.9,733.85,380.39,733.88,381.05,733.83L381.05,733.83z M422.65,755.44c1.76,0.14,2.94-0.07,4.61-0.64
		c1.07-0.37,1.26-1.07,1.14-2.15c-0.27-2.35-3.4-2.46-4.54-3.49c-1.33-1.2-2.31-3.97-2.76-5.7l0.61-22.48
		c0.1-3.68-1.31-8.83,2.37-9.68c2.21-0.5,2.51-0.45,3.46,1.65c0.92,2.14,1.92,7.01,0.85,9.15c-1.66,2.4-0.65,3.1,1.16,5.12
		c2.41,2.5,5.02,0.55,5.41-2.49c0.11-0.89,0.3-1.57,0.36-2.53c0.18-2.61-0.05-5.4-0.12-8.03c-0.1-2.66-0.96-3.62-2.92-5.3
		c-0.48-0.42-3.24-2.44-3.8-2.59c-1.6-0.43-4.79,0.3-6.53,0.49c-1.26,0.12-1.6-0.6-2.61-1.07c-2.7-1.26-8.04,0.01-10.92,0.61
		c-1.7,0.35-6.94-1.71-6.03,4.49c0.06,0.42,0.02,0.36,0.07,0.81c0.38,3.84-1.43,9.74,1.09,11.94c1.09,0.95,3.03,0.27,3.96-0.53
		c1.18-1.12,0.65-2.13,0.87-3.58c0.47-3.04-0.54-6.36,1.31-7.96c0.3-0.26,3.79-0.14,4.28-0.03c1.56,0.34,1.5,1.69,1.54,3.03
		c0.12,4.79-0.6,10.84-0.41,15.4c0.23,5.65-0.08,10.39-0.89,15.98c-0.18,1.25-0.07,1.38,0.11,2.55c0.07,0.87-0.59,0.45-1.31,0.41
		c-0.73-0.05-2.72,0.4-3.44,0.77c-1.33,0.7-1.88,2.16-1.76,3.62C408.07,756.11,419.17,755.17,422.65,755.44L422.65,755.44z
		 M469.05,745.83c-0.18-1.73,1.01-2.33,0.28-5.24c-1.18-4.72-3.94-8.75,4.87-11.07c6.46-1.69,6.97-0.78,7.46,5.5
		c0.24,3.06,0.57,5.78,1.53,8.72c0.11,0.34,0.03,0.42-0.17,0.78c-0.92,1.62-2.04,0.7-3.41,2.28c-0.91,1.05-0.94,2.5-0.38,3.73
		c0.77,1.68,2.63,1.07,4.15,0.93c12.17-1.13,11.21-0.69,10.34-5.57c-0.45-2.51-4.41,0.99-5.22-5.8
		c-1.08-10.01-2.52-19.79-3.85-29.77c-0.47-3.52,0.89-2.69,3.72-4.14c0.51-0.27,0.9-0.86,0.76-1.45c-0.73-3.15-2.24-4.22-5.44-3.7
		c-4.38,0.69-11.32-0.14-10.5,5.33c0.44,2.92,3.64,1.29,4.56,2.33c1.57,1.79,3.93,14.63-0.37,15.28l-9.48,1.13
		c-0.94-0.12-1.14-2.78-1.26-3.77l-1.25-11.6c2.8-0.3,5.21-0.95,2.84-5.1c-1.28-2.17-10.22-0.1-13.05,0.36
		c-2.75,0.45-3.87,2.23-2.14,4.69c1.19,1.7,5.24,0.86,5.75,1.28c0.49,0.4,2.15,14.83,2.32,16.14c0.82,6.28,1.76,12.62,2.49,18.9
		c0.31,3.29-1.46,2.41-3.73,3.71c-1.32,0.76-2.19,2.25-1.05,3.61c1.38,1.65,8.93,0.31,11.74-0.16c1.04-0.17,3.44-0.47,4.06-1.39
		c0.72-1.07,0.31-3.62-1.19-3.8C471.77,747.8,469.49,748.92,469.05,745.83L469.05,745.83z M541.51,727.72
		c-0.59,1.76-3.09,3.75-5.3,4.27c-1.43,0.34-2.85,0.67-4.28,1.01c-1.9,0.82-3.75,1.35-4.7-1.01c-1.19-2.98-2.13-4.66-2.89-7.92
		c-0.37-1.57-1.13-5.06-0.29-6.52c1.36-2.07,6.45,6.53,7.16,7.51c1.06,1.42,8.62,1.26,0.25-16.85c-0.59-1.28-1.45-3.07-2.36-4.14
		c-1.23-1.4-1.37-2.23-3.5-2.2c-4.98,0.08,1.39,7.46-1.18,9.34c-0.45,0.33-3.2,1.43-3.67,1.36c-1.83-0.27-1.16-2.17-1.85-4.14
		l-2.51-7.71c-0.93-2.86-0.1-2.9,2.55-3.86c1.58-0.57,8.66-3.23,9.92-2.83c3.41,1.46,2.6,8.73,4.97,9.54
		c1.6,0.54,5.01-0.27,4.25-2.56c-0.41-1.23-0.84-2-1.17-3.36c-0.61-2.54-1.65-4.83-2.63-7.3c-0.94-2.37-2.71-4.15-5.45-3.49
		c-2.2,0.63-0.72,1.55-3.32,2.59c-7.74,3.09-4.96,0.39-9.42,1.85c-1.85,0.61-3.71,1.16-5.38,2.18c-3.83,2.37-2.55-0.07-6.72,3.77
		c-2.52,2.32-0.38,5.15,1.32,5.45c2.51,0.44,4.34-2.73,5.34,1.42c0.6,2.53,0.46,3.76,1.96,6.09c1.44,2.22,3.75,9.62,4.75,12.48
		c0.79,2.24,4.01,11.02,4.03,12.79c0.02,1.42-0.55,1.43-1.63,2.01c-1.84,0.99-3.21,1.56-2.15,3.95c0.82,1.86,3,1.22,4.57,0.94
		c8.19-1.48,18.25-5.23,25.23-9.77c1.63-1.06,1.04-1.66,0.74-3.35c-0.94-5.32-1.2-10.22-5.79-13.93c-1.1-0.89-1.37-1-2.66-0.18
		c-2.36,1.5-1.3,3.32-0.35,5.43C540.03,722.03,541.84,726.35,541.51,727.72L541.51,727.72z M567.32,670.21
		c-1.2,1.08,0.8,4.55,2.37,3.89c3.51-1.48,4.74-1.36,7,2.01c1.75,2.61,8.96,16.87,10.75,20.32c-2.73-2.97-5.23-4.62-8.64-6.67
		c-1.46-0.88-2.44-2.07-3.94-3.03c-3.15-2.02-12.69-10.51-13.47-10.82c-2.99-0.71-5.01,0.03-7.49,1.64c-0.6,0.39-4.1,2.6-4.34,2.86
		c-1.01,1.1,0.6,3.06,1.72,3.41c1.64,0.51,2.55-0.82,3.91-1.06c0.22-0.04,1.24-0.11,1.38-0.01c0.18,0.12,10.77,22.15,13.14,26.28
		c1.45,2.52,2.41,4.11,4.68,6.01c2.46,2.05-0.72,1.27-2.01,2.45c-1.23,1.13-1.81,3.58-0.7,4.91c1.82,1.98,3.32,0.44,5.13-0.65
		c2.77-1.67,5.66-3.12,8.45-4.74c1.6-0.93,2.15-2.11,1.11-3.82c-0.95-1.57-2.37-0.97-3.75-0.46c-0.38,0.14-1.71,0.18-2.12-0.13
		c-0.61-0.46-0.89-3.35-4.29-6.35c-0.28-0.23-0.57-0.6-1.21-1.31c-0.64-1.81-1.78-3.94-3.21-6.45l-6.92-11.23
		c-0.47-0.76-0.23-0.54-0.49-1.15c-0.36-0.88-1.27-1.34,0.05-0.51c3.14,1.96,5.59,4.3,8.4,6.7c1.77,1.52,19.35,16.39,19.6,16.42
		c-0.1-0.13,0.69,0.57,0.72,0.59c4.31,3.33,4.93-1.4,5.92-2.21c1.03-0.84,0.16-1.87-0.34-2.75c-4.74-8.32-9.52-16.61-14.25-24.94
		c-0.96-1.69-0.88-1.73-1.19-3.54c-1.05-6.01-6.65-3.68-1.6-6.81c0.99-0.61,0.33-3.21-0.1-3.96c-1.8-3.04-5.24-0.19-8.64,1.56
		C571.26,667.53,568.76,668.96,567.32,670.21L567.32,670.21z M639.87,664.14c-2.58-3.1-6.36-5.29-10.32-6.05
		c-2.1-0.4-3.92,0.38-5.91,0.91c-3.33,0.87-6.03,1.41-9.21,2.9c-1.56,0.74-2.05,0.61-3.73,0.36c-5.57-0.86-7.28-3.44-6.1-8.91
		c0.56-2.6,4.12-3.79,6.45-3.98c1.45-0.12,5.3-0.03,6.41,0.83c1.03,0.79,3.6,6.02,6.81,2.79c2.27-2.27-0.9-5.51-2.39-7.3
		c-0.94-1.13-1.65-1.73-2.98-2.36c-1.6-0.72,0.56-2-2.18-3.88c-2.23-1.46-5.17-0.53-5.06,2.41c0.03,0.86,0.06,0.93-0.74,1.42
		c-1.74,1.05-2.07,0.73-3.92,1.16c-4.61,1.12-7.32,4.76-8.87,9.02c-2.46,6.89,3.86,14.45,10.66,15.34
		c7.72,0.97,21.11-10.15,27.05,0.37c4.96,9.13-10.11,16.09-15.82,7.38c-2.33-3.56-8.45-1.02-5.66,2.58
		c2.76,3.43,5.17,6.75,8.26,9.95c1.32,1.43,2.86,1.74,3.96,0.86c1.65-1.5,0.52-2.94,1.39-3.52c1.41-0.77,2.95,0.77,5.12-0.76
		c1.07-0.75,1.08-0.8,2.32-1.33c5.45-2.29,7.97-6.5,7.38-12.39C642.45,668.53,642,666.91,639.87,664.14L639.87,664.14z
		 M675.04,616.93c1.06,0.9,2.05,1.72,2.7,2.97c-5.6-2.97-17.8-9.31-23.94-10.79c-1.79-0.57-5.76-7.25-10.35-1.92
		c-0.92,1.07-4.5,5.04-2.65,6.33c1.27,0.88,2.43,0.74,3.74,0.15c0.75-0.34,0.89-0.01,1.57,0.49c5.42,4,7.7,4.89,12.24,10.15
		c3.89,4.5,6.12,5.44,11.18,8.17c0.97,0.53,5.89,3.29,5.98,4.27c0.02,0.26-0.24,0.81-0.33,1.1c-0.75,2.89,0.54,4.85,3.58,3.03
		c1.93-1.16,4.02-3.24,5.33-5.06c1.55-2.18,3.2-3.08,1.21-5.16c-2.71-2.74-5.39,0.85-6.18,0.91c-2.46,0.17-16.29-11.44-17.61-13.34
		c0.04,0,1.46,0.87,1.68,0.97c0.97,0.47,1.87,0.77,2.87,1.3c4.54,2.38,9.12,4.66,13.64,7.09c1.21,0.65,1.3,0.83,2.64,1.11
		c2.23,0.48,4.38,1.94,6.58,0.26c1.49-1.23,1.16-3.58,0.17-5l-15.76-16.72c-0.92-1-1.19-1.5-1.94-2.56
		c-2.19-3.07-5.06-2.85-5.55-5.76c-0.06-0.36,0.4,0.04,0.59,0.16c3.2,1.99,4.78,3.44,7.04,6.44c2.39,3.17,3.58,2.67,6.68,4.47
		c1.69,1,3.58,2.46,5.18,3.67c2.58,1.95,4.8,3.76,4.19,7.31c-0.22,1.28,0.11,2.59,1.51,2.93c2.12,0.52,3.59-2.08,4.68-3.52
		c0.95-1.25,2.64-3.16,2.92-4.66c0.31-1.71-0.87-3.28-2.68-3.3c-2.95-0.03-1.85,1.5-4.64-0.61c-7.7-5.8-14.48-10.82-22.02-17.01
		c-3.68-3.02-5.81-1.95-6.25-6.99c-0.34-3.78-4.47-0.84-5.69,0.72c-0.66,0.85-2.44,3.75-2.62,4.7c-0.33,2.49,2.05,2.38,3.06,4.45
		c0.58,1.2,0.58,1.14,1.47,2.18C661.03,601.95,672.96,615.2,675.04,616.93L675.04,616.93z M718.39,566.46
		c1.25,4.48-0.88,6.63-3.11,10.05c-1.01,1.6-1.58,4.04-4.2,2.9c-2.12-0.93-4.44-1.81-6.39-2.98c-1.09-0.65-6.66-4.27-5.93-5.86
		c0.43-0.83,3.28-0.79,10.27,1.01c1.65,0.38,5.15-3.65-3.7-8.83c-2.88-1.69-10.76-5.59-14.31-5.15c-1.08,0.13-2.39,0.98-2.69,2.04
		c-0.74,2.65,6.88,3.77,6.3,6.56c-0.14,0.53-1.39,3.28-1.75,3.52c-1.34,0.88-2.48-0.91-4.25-1.81c-1.49-0.76-2.95-1.71-4.46-2.52
		c-5.19-2.77-5.35-2.05-2.79-6.99c0.66-1.28,3.75-7.19,4.57-7.75c2.72-1.63,8.09,4.36,10.14,3.56c1.77-0.69,3.56-3.71,1.48-4.85
		c-1.2-0.66-2.02-0.79-3.25-1.7c-1.64-1.22-7.91-4.26-9.87-4.19c-0.97,0.03-1.66,0.36-2.41,0.95c-1.16,0.97-1.35,1.76-1.1,3.16
		c0.21,1.17-0.45,2.03-0.98,3.07c-0.93,1.82-1.51,3.53-3.1,4.39c-1.46,0.76-1.68,1.86-2.38,3.26c-1.17,2.35-1.53,2.58-2.21,5.3
		c-0.6,2.4-1.61,1.51-1.93,4.9c-0.1,1.09-0.35,2.39,0.11,3.42c0.59,1.22,3.06,2.28,4.62,1.04c1.29-1.14,1.39-2.42,2.06-3.04
		c1.72-1.41,4.71,3.16,8.49,3.64c1.34,0.17,2.65,1.07,3.85,1.7c5.45,2.85,11.1,5.63,16.45,8.61c0.98,0.53,4.25,2.07,3.76,3.51
		c-0.38,1.1-1.31,3.17-0.78,4.21c0.5,0.98,2.23,1.8,3.35,1.18c1.78-0.99,6.25-8.58,7.37-10.66c2.65-4.94,5.13-10.67,6.45-16.12
		c0.45-1.89-0.16-1.78-1.47-2.75c-4.37-3.27-8.34-6.97-14.24-6.39c-1.5,0.15-1.76,0.73-1.97,2.17c-0.36,2.53,2.05,3.07,3.93,3.87
		C713.93,563.58,717.36,565.08,718.39,566.46L718.39,566.46z"/>
	<path d="M47.98,504.66c3.07,5.43,15.81,16.99,22.89,18.64c4.94,1.4,10.89,7.08,21.47,7.08c5.66,0,10.49-2.51,15.57-4.72
		c6.25-1.25,13.15-7.31,17.93-12.03c10.85-12.47,13.92-25.68,12.51-40.5c-0.22-4.55,1.38-11.83-6.14-14.63
		c-8.58-3.2-14.19,7.09-15.1,7.55l-1.42,9.2c-1.09,7.48,1.27,2.83-1.89,13.84c-1.65,5.66-3.07,11.09-9.44,14.16
		c-12.24,6.81-15.38,10-25.95-1.42l-8.73-11.09c-4.95-2.6-5.9-8.26-6.37-12.27c-1.06-18.13-10.71-45.07-4.48-62.53
		c3.02-9.06,13.83-47.43,28.08-47.43c2.9,0,3.93,2.12,8.02,2.12c10.85,5.19,16.52,13.69,17.46,25.48c0.14,3.62,3.07,9.42,3.3,11.09
		c0.36,2.54-1.27,8.36,2.59,10.15c7.34,3.38,15.81,1.02,16.75-2.12c5.31-17.65,4.29-32.31,1.65-50.49
		c-1.13-7.78-11.23-20.49-19.58-3.77c-11.61-5.42-10.41-5.62-22.18-8.73c-6-12-28.1-0.63-30.91,4.72
		c-11.56,6.37-25.48,44.12-25.48,51.67c0,1.98-3.54,17.21-3.54,33.98C35,467.28,41.14,482.11,47.98,504.66L47.98,504.66z
		 M200.16,526.13c13.81-0.69,24.54,1.19,24.54-9.44c0-10.24-6.47-6.99-15.34-9.2c-0.93-2.17-4.01-5.44-4.48-9.67
		c18.74-15.23-26.48-52.61,40.11-53.8c14.23-0.25,9.67,16.36,9.67,33.5c0,6.61,0.24,14.16,1.89,21.94
		c-0.03,0.24-2.48,4.75-5.66,4.95c-6.61,0.24-12.51,5.19-12.03,12.03c0.36,10.32,6.67,8.97,13.21,9.2
		c46.98,1.68,40.11,2.29,40.11-14.63c0-8.82-15.68,1.31-15.57-22.65c0.47-12.98,0.47-26.19,0.47-39.17l-0.24-66.3
		c-0.52-12.45,4.51-9.31,14.87-12.98c1.89-0.71,3.54-2.59,3.3-4.72c-0.94-11.56-6.61-16.28-18.4-15.34l-27.13-0.47
		c-1.89,1.18-3.3,1.89-7.08,3.3c-0.01,0.01-12.91,19.1,8.73,19.35c8.11,0.4,9.08,55.35-5.19,54.98
		c-10.85-0.24-21.24-0.24-32.09-0.24c-4.01,0-4.95,0-4.95-13.92l0.94-41.06c9.91,0.24,18.64-0.94,12.27-16.52
		c-2.75-8.38-37.14-4.72-45.06-4.72c-7.08,0-16.99,3.54-9.67,16.52c4.12,4.85,17.29,4.74,18.88,5.9c0.94,1.42,0.71,3.78,0.71,5.66
		v118.21c0,14.68-6.06,7.89-9.83,10.4c-1.41,0.94-0.56,0.4-1.76,0.61c-13.75,2.5-9.7,14.05-6.11,15.42
		C175.91,525.82,191.86,526.13,200.16,526.13L200.16,526.13z M336.78,528.01c12.74-4.25,19.94-3.04,32.56-0.71
		c8.73,1.42,12.98-2.6,14.16-9.2c1.65-11.33-7.08-10.38-12.51-9.91c-16.08,1.31-3.73-21.98-8.97-54.03
		c-2.79-17.11,48.83-17.67,46.95,55.68c-0.35,13.76,4.56,14.45,15.34,17.22c2.12,0.71,3.07,1.42,6.37,1.89
		c7.55,1.18,14.39-2.36,16.04-9.91c2.49-11.31-6.21-7.87-10.38-12.03l-2.12-0.47c-7.79-6.37-8.02-15.1-7.79-24.77
		c0.71-26.61-12.82-32.63-7.55-36.57c9.55-5.57,17.62-17.37,21.47-27.61c4.62-8.69,4.01-5.68,4.01-13.21c0-2.84-4.64-5.27-4.72-8.97
		c-0.71-16.04-9.91-27.61-21.94-37.75c-5.43-0.71-10.15-2.12-15.1-3.54c-29.25-9.39-34.09,0.47-38.46,0.47
		c-1.18-2.12-3.3-3.3-5.66-2.12c-5.9-0.47-19.82,0.47-26.9,2.12c-4.45,1.26-14.31-5.49-13.69,10.15c0.16,4.09,9.24,8.3,15.34,7.08
		c12.76-3.21,7.55,17.94,7.55,25.25c0,6.13,0.24,13.45,1.18,21c0,5.19-0.24,14.63-0.24,19.58l-0.24,61.11
		c0.24,6.14-1.65,9.91-7.55,9.44c-5.43-0.94-13.45,0.24-12.51,9.91C322.15,525.89,327.81,531.55,336.78,528.01L336.78,528.01z
		 M370.75,371.82c13.8,1.15,29.76-2.26,41.06,10.85c20.31,23.57,8.11,47.39-43.41,48.13c-8.47,0.19-6.76-22.96-7.88-29.09
		c-0.94-7.31-1.55-13.38-1.32-19.75C359.43,375.83,362.73,371.82,370.75,371.82L370.75,371.82z M484.72,350.82
		c-5.41,0-12.16-1.34-14.63,5.9c-2.36,7.31,1.89,9.91,5.9,11.8c0.94,0.47,1.89,0.71,2.59,2.36c3.36,1.55,6.91,1.16,10.38,0.24
		c22.29-4.77,11.33,1.69,11.33,34.21c0,21.32,5.96,81.59,1.99,96.18c-2.48,9.12-34.21-5.46-35.03,13.53
		c-0.52,11.98,10.22,11.56,17.93,11.56c21.47,0,43.18,0,64.65-0.24c4.98-0.03,17.21-21.38-7.08-21.71
		c-5.75-0.08-12.75,0.8-16.99-2.6c6.85-32.8,5.34-102-3.77-126.47c1.18-1.65,2.83-2.6,5.43-2.6c9.2-0.24,18.88-0.47,27.84-0.94
		c4.96-0.32,4.25-5.03,4.25-7.79c0-3.6-0.79-13.94-7.31-13.92L484.72,350.82L484.72,350.82z M680.08,508.43
		c6.13-8.26,8.49-17.22,8.49-26.66c0-15.57-7.08-31.38-18.64-43.41l-22.18-9.91c-8.49-4.25-18.64-8.26-28.55-9.91
		c-10.85-9.67-16.05-17.46-16.05-24.77c0-7.08,5.9-14.63,15.57-21.71c0.14-0.05,12.83-0.72,17.22,1.89
		c10.38,5.66,13.04,8.99,19.64,16.54c3.73,4.41,2.3,0.81,2.3,6.35c0,7.27-1.07,19.74,10.62,20.06
		c12.75,0.34,11.19-14.32,11.33-20.76c0.21-5.07,0.44-15.38-3.54-19.11c-1.67-2.5,4.44-3.83,4.25-8.26
		c-0.74-16.64-17.3-19.5-21.71-7.55l-7.79-1.18c-3.59,0-20.81-19.56-54.03,0.71c-23.63,14.41-19.4,54.21-0.24,68.66
		c20.91,15.78,76.11,17.86,69.6,57.34c-6.1,36.99-64.64,20.21-59.7-14.63c2-14.78-21.23-21.36-21.23-5.43
		c0,15.45-0.69,29.97,0.71,45.54c0.47,6.84,4.01,11.09,8.97,11.09c9.44,0,7.92-11.89,16.04-3.78c10.11,9.39,6.55,4.68,19.42,7.27
		C649.61,530.91,670.65,525.59,680.08,508.43L680.08,508.43z M715,415c0.94,1.18,3.3,2.12,4.48,1.89
		c8.26-1.65,14.16-4.48,12.03-14.63c1.42-4.72,0.94-9.2,0.71-14.39c-0.24-5.9-0.47-11.56,3.77-16.05c24.05,0,20.91-7.04,20.29,45.07
		c0,4.72-0.24,10.15-0.24,15.1c0.71,7.79,0.94,15.81,0.94,23.36c0,13.69-0.94,28.08-3.3,43.18l2.13,5.48
		c-0.5-0.52-1.59-0.52-2.37-0.52c-2.83,0-4.95-0.94-7.79,0.71c-8.26,1.18-13.69,4.72-13.21,15.1c0.22,9.74,37.89,6.37,46.48,6.37
		c16.15,0,3.98,2.22,18.6-1.35c5.85-1.35,7.56-1.41,7.35-6.91c-0.32-8.45-8.49-10.31-14.39-12.27
		c-4.72-1.89-10.15-14.16-12.03-21.23l0.47-77.63c0-12.73-5.76-36.1,9.91-36.1c2.12,0,4.48-0.71,6.13-1.65
		c0,1.65,0.71,3.54,2.12,4.48c3.95,4.18,9.55,28.92,5.43,35.16c-5.67,8.58-2.05,10.96,4.48,17.93c7.53,8.04,17.84,2.63,18.88-9.2
		c0-0.71,0-1.42,0.47-2.83c1.65-7.79-0.47-28.08-0.47-35.39c0-2.91-1.73-5.94-2.83-8.73c-1.93-6.27-14.84-14.05-20.06-16.99
		c-3.22-2.76-21.39,1.62-25.72,1.89c-4.07,0.13-4.98-5.43-17.93-5.43c-5.43,0-14.87,1.42-30.44,5.19
		c-12.74-2.36-22.18,0.71-18.4,17.46c1.94,9.87-0.47,14.36-0.47,23.83c0,3.07,0,5.43,0.71,8.26c-1.18,4.25,0.94,6.37,2.83,8.73
		L715,415L715,415z"/>
</g>
</svg>
