<?xml version="1.0" encoding="utf-8"?>
<!-- Generator: Adobe Illustrator 25.0.0, SVG Export Plug-In . SVG Version: 6.00 Build 0)  -->
<svg version="1.1" id="Layer_1" xmlns="http://www.w3.org/2000/svg" xmlns:xlink="http://www.w3.org/1999/xlink" x="0px" y="0px"
	 viewBox="0 0 720 974.13" style="enable-background:new 0 0 720 974.13;" xml:space="preserve">
<style type="text/css">
	.st0{fill-rule:evenodd;clip-rule:evenodd;}
</style>
<g>
	<path class="st0" d="M573.92,282.76h11.83c0.65,0,1.18,0.53,1.18,1.18v28.67h18.2c0.65,0,1.18,0.53,1.18,1.18v11.83
		c0,0.65-0.53,1.18-1.18,1.18h-18.2v62.22c0,0.65-0.54,1.18-1.18,1.18h-11.83c-0.65,0-1.18-0.53-1.18-1.18v-62.22h-18.2
		c-0.65,0-1.18-0.53-1.18-1.18V313.8c0-0.65,0.53-1.18,1.18-1.18h18.2v-28.67C572.74,283.29,573.27,282.76,573.92,282.76
		L573.92,282.76z"/>
	<path d="M90.47,471.58c-10.81-2.39-17.95-11.49-21.18-27.23c-6.2-31.73,6.1-144.16,18.29-236.73
		c6.58-49.37,13.16-93.28,19.96-131.64c6.69-38.35,11.6-60.91,14.61-67.78c7.36-11.77,23.93-11.11,27.2,3.55
		c1.82,6.42-1.66,28.52-3.01,38.54c-1.23,9.49-3.01,22.04-5.24,37.76c-6.47,46.57-11.6,84.21-15.27,113
		c-3.79,28.81-7.14,57.9-10.15,87.41c-7.47,67.41-11.15,112.15-11.15,134.34c0,6.13,0.33,10.56,1,13.39
		c0.46,2.6,29.52-18.38,37.91-24.37c33.59-24.12,72.94-52.25,101.24-55.05c5.5-0.54,14.64-0.86,16.06,5.88
		c1.52,7.36-2.85,10.82-13.71,12.84c-9.65,1.79-19.1,6.59-28.77,12.32c-18.73,10.99-44.49,30.38-77.15,58.24
		c-8.92,7.35-15.83,12.94-20.85,16.55C111.85,468.66,101.14,474.41,90.47,471.58L90.47,471.58z M227.38,346.33
		c-13.14-15.63-17.81-46.43-18.28-66.54c-0.44-18.73-0.65-27.46,0.67-43.44c1.67-25.81,5.69-49.84,11.93-71.87
		c6.13-22.01,13.27-37.88,21.3-47.37c5.56-6.22,12.51-9.87,18.28-9.95c9.57,0.68,17.93,8.02,15.72,18.07
		c-0.99,4.5-2.85,9.23-4.91,14.2l-4.24,11.23c0,1.14,15.21,6.63,17.62,7.51c10.75,3.92,23.38,7.66,34.68,8.84
		c8.32,0.89,13.06,1.09,18.84-0.09c0.44-4.95,1-9.61,1.67-13.98c3.12-16.92,10.15-25.87,21.3-26.97c6.03-0.6,11.52,2.11,14.61,7.36
		c3,5.39,1.19,16.95,0.67,23.12c-1.35,15.69-1.07,56.19,0,72.81c1.03,15.89,3.62,43.28,5.91,58.06c1.11,7.25,2.01,10.73,2.68,10.66
		c1.2-0.48,17.25-59.92,22.19-78.23c14.94-55.33,26.31-95.14,33.78-119.63c7.47-24.49,12.93-38.07,16.17-40.84
		c6.44-5.89,14.15-2.77,11.48,7.67c-0.67,2.96-1.9,7.21-3.68,12.85c-9.59,29.38-24.19,84.56-43.71,165.32l-13.38,55.73
		c-1.52,6.21-4.63,18.22-6.24,22.92c-4.79,12.29-11.71,18.88-20.63,19.77c-5.46,0.54-9.39-1.18-13.71-4.55
		c-8.92-7.37-16.17-25.27-21.85-53.7c-4.35-22.87-6.8-41.92-7.47-57.13c-0.96-21.84-1.3-28.77-0.8-44.02
		c-4.98,1.04-10.39,1.51-15.59,1.6c-15.39,0.18-28.88-1.94-40.47-6.48c-0.63-0.22-4.46-1.56-4.24-0.58
		c10.03,20.86,15.61,43.06,16.61,66.7c0.76,12.97,0.17,24.25-1.9,37.98c-2.01,13.8-5.24,26.38-9.81,37.87
		c-3.23,8.24-8.03,15.51-14.16,22.03C255.98,356.27,241.39,361.2,227.38,346.33L227.38,346.33z M261.95,310.92
		c9.47-17.39,15.05-41.17,15.05-62.59c0-19.73-4.46-38.47-13.38-56.1c-0.67-1.41-2.98-7.9-3.9-7.53
		c-2.21,0.87-7.91,41.76-8.47,46.33c-2.25,19.55-2.68,35.83-2.68,49.55c0,10.47,1.67,21.23,1.67,30.83
		c0.33,2.51,0.5,10.08,3.57,10.8C255.37,322.05,258.04,318.33,261.95,310.92L261.95,310.92z M506.9,300.09
		c-5.24-0.71-10.26-3.45-15.05-7.99c-11.45-9.9-17.82-31.79-19.96-46.53c-1-7.59-1.56-16.68-1.56-27.05
		c0.22-22.32,3.57-42.39,10.15-60.54c6.47-18.03,15.39-31.74,26.76-41.11c10.64-8.2,28.59-16.38,40.47-5.67
		c4.35,4.81,6.58,10.5,6.58,16.97c0,9.83-5.32,24.67-9.81,32.41c-7.84,13.5-22.7,32-35.57,39.75l-4.01,2.29
		c-0.33,5.82-0.89,13.01-0.89,18.71c0,9.37,0.78,18.43,2.56,27.17c2.23,11.6,5.24,19.11,9.14,22.62c1.49,1.34,3.87,0.1,5.24-0.85
		c8.25-5.61,16.5-14.79,24.64-27.52c8.14-12.85,15.5-26.17,22.08-40.2c6.47-14.13,11.26-25.75,14.38-34.98
		c3.46-8.15,6.69-12.37,9.81-12.68c4.15-0.41,5.46,5.9,5.46,8.94c0,3.68-0.67,8.43-2.23,14.27c-2.34,8.26-6.47,19.37-12.26,33.21
		c-5.8,13.84-12.71,27.79-20.74,41.85C550.54,273.39,529.85,302.92,506.9,300.09L506.9,300.09z M516.71,167.89
		c7.8-9.91,12.49-19.3,14.05-27.92c0.45-5.05-1.81-2.45-4.91,1.49c-7.07,8.87-11.98,19.62-14.72,30.55
		c-0.73,2.93,0.08,1.72,0.33,1.53C512.36,173.11,514.04,171.16,516.71,167.89L516.71,167.89z"/>
	<path d="M71.32,973.88C52.6,970,40.8,957.53,36.15,936.45c-1.35-7.31-1.21-17.33-0.32-23.99c4.22-28.77,17.32-57.88,39.39-87.33
		c12.05-15.79,35.42-39.44,50.97-51.03l5.41-4l0.32-11.4c0.87-17.51,1.41-39.1,1.73-64.89c0.6-47.29,0.79-89.99-0.11-132.89
		c-0.22-10.26-0.32-15.77-0.32-16.42c-3.71,0.37-12.26,2.42-19.26,4.28c-7.03,1.89-17.21,4.51-30.52,7.89
		c-41.45,11.13-63.42,17.63-66.02,19.62c-1.3,1.05-4.22,2.1-5.95,2.43C5.13,579.64,0,579.11,0,571.96c0-4.44,3.68-8.05,11.15-10.95
		c21.98-8.6,74.58-22.44,102.7-29.2c9-2.16,19.55-4.49,26.62-7.07c2.13-0.78,6.3-1.49,8.55-1.71c4.54-0.45,18.03-3.32,24.13-4.66
		c12.45-2.75,24.13-5.09,35.17-7.16c14-2.48,30.18-6.34,44.05-7.71c4.64-0.61,22.77-4.52,25.76-3.09c2.04,0.99,3.79,3.32,3.79,5.58
		c0,2.14-2.12,5.39-3.68,6.32c-3.42,2.03-12.84,3.67-18.07,4.71c-15.14,3.01-30.31,5.66-45.45,8.82
		c-11.92,2.49-23.89,5.2-35.82,7.54c-5.97,1.1-9.01,1.61-12.77,2.78c-2.6,0.81-2.49,0.83-2.49,2.52c0,3.3,1.35,10.6,2.06,16.14
		c2.43,19.18,3.46,41.13,4.11,61.82c0.83,26.43,0.76,84.16,0.76,119.29c0,4.04,0.22,19.8,0.97,21.98c0.63,1.82,0.93,0.91,1.73,2.97
		c1.74,4.46,1.89,4.61-1.41,8.04l-2.49,3.17l-0.97,15.9c-3.26,55.28-8.73,112.9-36.36,152.62c-13.2,19.05-29,30.03-47.4,32.93
		C80.26,974.1,74.83,974.35,71.32,973.88L71.32,973.88z M88.85,935.36c6.07-3.5,12.78-12.36,16.45-19.05
		c16.19-29.07,20.55-67.59,23.59-107.41l0.76-14.47c-1.48,0.15-13.47,13.63-15.04,15.45c-6.12,6.98-14.14,16.56-18.83,23.4
		C75.65,862.31,65.58,888.85,65.37,913c0,13.09,3.35,21.2,10.17,24.32C79.56,939.27,84.65,937.57,88.85,935.36L88.85,935.36z
		 M241.33,830.24c-14.43-1.95-24.15-17.86-28.25-30.43c-5.95-16.78-7.25-31.05-7.25-48.74c0.22-21.67,3.46-41.14,9.85-58.76
		c6.28-17.5,14.93-30.8,25.97-39.9c10.33-7.96,27.75-15.9,39.28-5.51c4.22,4.67,6.39,10.19,6.39,16.47c0,9.54-5.16,23.94-9.52,31.46
		c-7.61,13.1-22.03,31.06-34.52,38.58l-3.9,2.22c-0.94,16.66-1.85,27.02,1.62,44.54c2.16,11.26,5.09,18.54,8.87,21.96
		c1.44,1.3,3.76,0.1,5.09-0.83c8.01-5.44,16.02-14.35,23.92-26.71c7.9-12.47,15.04-25.4,21.43-39.02
		c6.28-13.72,10.93-25,13.96-33.95c0.54-1.28,1.08-2.45,1.61-3.53c0.03-0.4-6.15-15.11,0.56-37.91
		c4.44-14.18,11.69-27.78,21.86-40.8c11.15-14.28,29.07-27.14,46.64-26.47c8.01,0.51,14.39,5.5,19.05,15.22
		c2.06,4.88,3.14,10.84,3.14,17.76c0,11.58-2.92,26.15-8.87,43.73c-2.45,6.67-5.81,13.88-7.9,20.37
		c-1.23,3.11-8.49,15.39-10.82,16.98c-3.25,2.21-10.5,0.53-10.5-3.29c0-3.49-0.03-3.96,1.3-8.25c2.58-8.3,5.72-23.48,7.58-34.62
		c0.93-5.58,1.65-25.73,0-30.73c-0.42-1.26-1.21-2.9-1.84-2.74c-5.51,1.43-17.52,17.15-21,22.1c-5.74,8.15-11.36,22.75-11.36,32.18
		c0,2.38,0.54,4.92,1.62,7.74c1.62,6.01,7.03,12.51,16.13,19.73c12.5,9.78,26.71,20.57,32.68,30.32l1.51,2.45
		c1.08-1.41,2.16-2.92,3.25-4.54c5.09-7.43,10.39-14.88,16.13-22.48c2.72-3.56,5.52-6.97,8.37-10.24
		c0.73-33.3,4.14-54.79,10.24-64.54c7.46-11.07,24.85-11.31,29.87,0.73c1.7,4.07,1.62,14.04,1.62,20.94
		c0,19.12-0.32,38.25-0.32,57.39c0,17.93,0.35,22.73,0.87,37.36l3.25-7.03c4-9.49,9.52-23.34,16.45-41.56
		c6.93-18.22,13.2-35.61,18.72-52.28c7.58-22.5,12.45-35.21,14.61-38.24c2.19-3.39,6.84-4.9,10.71-4.52
		c5.95,0.28,9.74,6.61,11.47,18.89c1.99,11.86,0.97,24.96,0.65,37.06c-1.04,37.03-1.28,81.63,2.81,109.68
		c0.73,5.03,1.1,7.86,3.46,11.45c4.9,7.45-0.28,16.48-8.22,17.26c-8.87,0.88-13.94-5-17.42-17.33
		c-7.69-27.21-9.91-74.93-11.47-107.63l-7.58,27.7c-6.17,21.6-10.82,37.86-14.07,49.01c-3.93,13.21-8.3,27.25-13.2,34.85
		c-8.66,13.55-21.29,18.34-34.85,7.23c-5.52-4.65-9.63-12.9-12.34-24.43c-3.92-15.75-4.95-28.47-5.3-46.25
		c-6.66,9.48-12.9,19.23-18.72,29.25c5.66,16.41,7.25,28.47,4.98,46.15c-1.84,15.44-6.06,29.71-12.66,42.81
		c-9.09,17.35-17.42,28.24-25,32.77c-8.42,4.86-19.64,11.34-28.57,3.91c-8.21-6.46-5.78-22.33-3.79-31.33
		c2.27-8.67,8.01-22.22,17.1-40.65c5.94-13.01,12.49-25.01,19.37-37.52l4.11-7.98l-2.27-4.86c-4.15-8.47-15.31-19.57-23.38-24.96
		c-3.25-2.17-6.82-4.74-10.93-7.79c-7.57-5.45-12.16-8.21-17.75-14.63c-2.37,7.54-6,17.1-10.82,28.6
		c-5.63,13.43-12.34,26.98-20.13,40.62C283.69,804.33,263.61,832.99,241.33,830.24L241.33,830.24z M250.86,701.93
		c7.58-9.62,12.12-18.73,13.64-27.1c0.44-4.9-1.76-2.38-4.76,1.44c-6.87,8.62-11.62,19.04-14.29,29.66
		c-0.71,2.84,0.08,1.67,0.32,1.48C246.64,707,248.26,705.1,250.86,701.93L250.86,701.93z M382.02,817.64
		c1.66-4.99,3.25-12.48,3.25-17.1c0-2.16-0.22-3.23-0.65-3.18l-6.06,11.75c-3.57,7.71-6.93,15.62-10.17,23.62
		c-3.14,8.1-5.3,16.11-6.6,24.03c4.44-6.17,8.44-12.41,12.01-18.61C377.48,831.83,380.18,824.96,382.02,817.64L382.02,817.64z
		 M610.91,827.05c2.27-8.67,8.01-22.22,17.1-40.65c5.94-13.01,12.49-25.01,19.37-37.52l4.11-7.98l-2.27-4.86
		c-4.15-8.48-15.31-19.57-23.38-24.96c-7.16-4.78-14.41-10.15-21.32-15.32c-13.31-10.91-19.91-24.76-19.91-41.43
		c0-21.64,11.14-44.03,25-61.78c11.15-14.28,29.07-27.14,46.64-26.47c8.01,0.51,14.39,5.5,19.05,15.22
		c2.06,4.88,3.14,10.84,3.14,17.76c0,11.58-2.92,26.15-8.87,43.73c-2.45,6.67-5.81,13.88-7.9,20.37
		c-1.24,3.11-8.49,15.39-10.82,16.98c-3.25,2.21-10.5,0.53-10.5-3.29c0-3.49-0.03-3.96,1.3-8.24c2.58-8.3,5.72-23.48,7.58-34.62
		c0.93-5.58,1.65-25.74,0-30.74c-0.42-1.26-1.21-2.9-1.84-2.74c-2.18,0.57-6.3,4.32-9.85,8.12c-3.79,4.05-7.47,8.75-11.15,13.98
		c-5.74,8.15-11.36,22.75-11.36,32.18c0,2.38,0.54,4.92,1.62,7.74c1.62,6.01,7.03,12.51,16.12,19.73
		c12.5,9.78,26.71,20.57,32.68,30.32l1.52,2.45c1.08-1.41,2.16-2.92,3.25-4.54c5.09-7.43,10.39-14.88,16.13-22.48
		c5.74-7.49,11.8-14.37,18.07-20.51c4-3.53,7.47-5.5,10.17-5.77c2.72-0.27,5.41,1.69,5.41,4.88c0,2.16-1.19,4.99-3.46,8.57
		c-15.26,18.07-28.79,37.26-40.58,57.58c5.66,16.41,7.25,28.47,4.98,46.15c-1.84,15.44-6.06,29.71-12.66,42.81
		c-9.09,17.35-17.42,28.24-25,32.77c-8.42,4.86-19.64,11.34-28.57,3.91C606.86,852.04,608.59,837.54,610.91,827.05L610.91,827.05z
		 M653.34,790.82c1.66-4.99,3.25-12.48,3.25-17.1c0-2.16-0.22-3.23-0.65-3.18l-6.06,11.75c-3.57,7.71-6.93,15.62-10.17,23.62
		c-3.14,8.1-5.3,16.11-6.6,24.03c4.44-6.17,8.44-12.41,12.01-18.61C648.79,805.02,651.5,798.15,653.34,790.82L653.34,790.82z"/>
	<path d="M325.65,539.57c-2.73-16.06-4.26-29.77-4.58-41.05c-0.9-31.78-0.65-61.38,3.62-92.26c1.78-12.63,3.62-22.6,5.59-29.85
		c3.98-14.08,17.2-14.2,19.07-5.44c1.16,5.46,0.08,13.79-0.64,20.34c-2.67,24.38-2.94,30.26-3.69,44.92
		c-0.13,2.49-0.25,4.79-0.38,6.9c-1.19,17.59-1.54,31.43-1.14,49.24c0.25,17.39,1.53,33.72,3.75,49.01
		c1.72,13.75,3.11,20.67,4.07,20.83l1.53,0.23c1.97-0.19,5.08-7.11,9.28-20.68c4.29-13.86,8.09-27.84,11.38-41.9v-5.36
		c0-15.76,1.33-30.51,4.07-44.19c1.85-9.25,4.54-21.35,12.52-22.47c4.77-0.67,8.12,0.75,9.09,4.31c1.03,3.79,0.93,7.8,0.19,11.74
		c-3.64,19.27-6.46,49.28-5.59,67.54c0.41,8.6,1.37,24.07,3.75,30.58l0.7,1.77c5.85-11.51,11.5-25.29,16.97-41.34
		c1.85-5.43,3.59-10.64,5.22-15.65l-0.01-22.69c0.09-23.8,0.69-59.06,2.86-78.84c1.54-14.06,2.22-21.94,4.77-35.68
		c2.37-13.56,18.1-14.72,20.85-4.35c2.18,8.11-0.8,33.8-2.03,44.75c-3.06,27.1-3.87,36.78-5.21,61.97l-1.33,26.95l42.2-44.97
		c5.94-6.17,9.28-9.82,12.58-10.14c2.18-0.22,4.75,0.76,5.91,2.91c1.81,3.37,0.27,5.76-2.22,9.18c-7.24,9.93-24.18,27.3-34.83,38.91
		l-13.86,14.72c-2.95,3.12-2.86,2.91-1.78,3.67c1.5,1.06,6.65,2.73,9.6,3.56c6.13,1.66,12.26,3.63,18.37,5.43
		c3.69,1.64,12.29,3.75,16.91,4.81c4.01,0.92,6.55,1.75,6.55,4.95c0,2.01-1.62,4.1-3.18,4.25c-2.03,0.2-9.74-1.24-12.27-1.71
		c-12.68-2.35-25.84-7.99-38.58-9.28l-5.21-1.01c-0.34,4.7-0.57,5.91-0.57,12.96c0,13.77,0.69,33.49,2.1,46.13
		c0.52,4.72,0.48,6.23,2.42,9.61c1.22,2.13,1.27,2.65,1.27,4.01c0,2.5-1.69,5.42-3.88,6.42c-5.27,2.41-9.06,0.37-12.65-4.6
		c-5.6-7.83-6.29-30.45-7.18-41.05c-0.64-6.67-0.83-15.14-1.12-23.38c-3.72,11.73-11.53,35.4-16.29,41.31
		c-3.6,4.47-8.52,6.17-13.41,4.12c-6.47-2.71-11.1-11.84-14.35-27.48c-3.33,13.66-8.24,32.73-16.48,43.37
		c-5.28,6.88-13.9,8.49-20.21,2C331.22,568.42,327.94,551.49,325.65,539.57L325.65,539.57z M395.11,402.92
		c-7.94-3.98-3.2-16.71,0.38-17.33c4.01-0.69,6.98-1.24,10.04,2.19c3.45,3.86,1,12.36-3.43,14.58
		C399.6,403.61,397.42,404.05,395.11,402.92L395.11,402.92z M530.04,521.97c-8.47-1.15-14.18-10.49-16.59-17.87
		c-3.44-10.12-4.31-17.34-4.26-28.62c0.1-20.13,6.05-46,21.04-57.94c6.03-4.81,8.95-5.4,13.98-5.89c9.97-0.99,14.09,7.6,12.46,16.12
		c-2.2,11.46-7.29,19.18-14.74,27.77c-4.68,5.39-7.87,7.94-13.03,10.88c-0.55,9.79-1.08,15.87,0.95,26.15
		c1.27,6.61,2.99,10.89,5.21,12.9c0.81,0.73,2.15,0.09,2.99-0.49c4.7-3.2,9.41-8.43,14.05-15.69c4.64-7.32,8.83-14.92,12.58-22.92
		c3.69-8.05,6.42-14.68,8.2-19.94c0.85-2,3.65-8.87,6.86-6.78c5.86,3.52-3.85,25.58-6.42,31.71c-5.81,13.88-15.5,32.83-25.99,42.99
		C541.75,519.76,536.12,522.72,530.04,521.97L530.04,521.97z M535.64,446.62c4.09-5.2,8.01-12.26,8.01-16.81
		c0-1.82-1.56,0.16-2.8,1.74c-4.35,5.53-6.57,10.78-8.39,17.42c-0.07,0.27-0.35,1.25,0,1.08L535.64,446.62L535.64,446.62z"/>
</g>
</svg>
