<?xml version="1.0" encoding="utf-8"?>
<!-- Generator: Adobe Illustrator 25.0.0, SVG Export Plug-In . SVG Version: 6.00 Build 0)  -->
<svg version="1.1" id="Layer_1" xmlns="http://www.w3.org/2000/svg" xmlns:xlink="http://www.w3.org/1999/xlink" x="0px" y="0px"
	 viewBox="0 0 864 864" style="enable-background:new 0 0 864 864;" xml:space="preserve">
<g>
	<path d="M370.16,121.13c0,7.36-1.63,12.97-2.3,19.65c-0.38-1.44-0.96-2.78-1.44-4.12c-2.34-4.93-0.82-7.27-2.68-12.85
		c-1.02-2.57-2.02-4.62,0-5.94c3.81-2.49-0.81-9.13-11.03-5.85c-2.97,0.86-2.78,3.74-0.96,5.66c0.29,1.25,0.38,2.68,0.38,4.12
		c0,6.79-2.56,13.96-3.55,20.61c-2.76-6.62-2.55-16.93-4.89-24.16c0.24,0.49,5.48-1.98,3.93-4.99c-1.46-2.82-3.88-1.43-5.44-1.78
		c-3.01-0.69-11.2-1.95-11.24,2.84c-0.01,1.25,0.35,4.6,3.36,4.79l1.24,0.08c0.41,0.03,0.07,1.33,0.2,1.65
		c1.09,2.6,1.49,8.99,2.49,12.46c2.97,10.55,4.22,17.93,4.89,21.86c0.96,6.14,1.25,7.57,5.08,7.57c5.37,0,6.14-5.08,7.1-13.33
		c0.29-1.92,0.77-3.64,1.15-5.56c0.69-3.51,0.76-5.5,1.04-9.08c0.15-1.9,0.59-2.64,0.56-0.44c-0.1,5.9,2.35,12.29,3.39,18.72
		c0.53,3.81,1.02,7.25,4.41,9.67c1.18,0.84,2.43,0.19,3.52-0.47c2.86-1.74,3.57-4.55,3.87-7.67c0.43-4.57,0.6-5.28,2.19-9.66
		c0.84-2.31,1.13-3.74,1.14-5.84l3.28-22.08c1.81-0.91,5.85-1.61,2.78-6.14c-2.06-3.03-10.16-0.88-12.76,0.59
		c-1.37,0.77-1.46,1.14-1.3,2.69C368.86,116.87,370.13,112.87,370.16,121.13L370.16,121.13z M418.82,154.04
		c-1.1,0.09-1.97-0.06-3.05-0.13c-3.03-0.19-3.68-1.44-3.71-4.3c-0.03-4.54,1.06-10.48,1.05-17.93c0-4.69-0.35-9.37-0.94-14.02
		c-0.2-1.56-0.74-1.83-2.06-2.54c-4.94-2.67-8.24-1.68-12.34-1.75c-2.97-0.1-6.52,0.29-6.33,4.41c0.1,3.64,3.64,4.51,6.52,4.12
		c2.94-0.45,5.03,0.26,6.07,3.23c0.39,1.11,0.19,2.49,0.15,3.68c-0.27,8.15-0.26,17.01,0.11,25.12h-7.86c-6.93,0-7.1,8.71-0.16,8.82
		l20.96-0.2c2.94-0.13,6.85-1.47,6.82-5.01C423.94,153.96,421.78,153.76,418.82,154.04L418.82,154.04z M414.26,104.15
		c-0.48-4.89-4.89-6.9-8.73-7.67c-4.99-0.96-6.52,2.68-6.52,6.81c0,5.18,2.88,7,7.57,6.9C410.52,110.29,414.74,109.43,414.26,104.15
		L414.26,104.15z M440.15,148.77c-0.07,4.42,1.13,6.1,4.08,9.29c0.67,0.73,2.25,2.48,2.96,2.97c4.6,3.18,18.35,0.4,21.08-5.96
		c1.13-2.67-0.21-3.49,0.49-5.8c0.91-3,3.02-3.89,1.98-10.39c-0.25-1.57-1.11-2-2.56-2.42c-5.82-1.69-6.11,3.96-5.81,8.11
		c0.13,1.8-0.37,2.08-1.44,3.38c-1.55,1.91,0.12,3.04-2.16,4.69c-0.53,0.38-1.09,0.86-1.65,1.1c-1.74,0.74-5.75-2.3-6.62-4.31
		c-1.34-3.15-1.63-7.45-1.63-15.58c0-17.21-0.65-8.47,2.82-13.44c0.24-0.34,1.01-0.24,1.38-0.24l5.39-0.09
		c2.11,0.1,4.41,0.1,4.79-3.16c0.67-6.78-9.37-5.21-13.35-5.84c-0.34-0.05-0.96-1.63-1.12-2.05c-0.38-1.03,0.09-7.91,0.09-9.46
		c0.1-2.01,0.1-4.31-3.16-4.6c-2.94-0.17-4.65,2.05-5.49,4.61c-0.63,1.94-0.33,8.25-0.06,10.22c0.5,3.66-9.31-1.83-11.23,6.06
		c-0.82,3.66,1.3,5.4,4.59,6.24c2.22,0.57,2.85-0.31,4.04-1.36c1.29-1.14,1.04-0.41,2.07,0.97c0.78,1.05,0.52,2.23,0.52,3.44
		C440.14,133.02,440.15,140.89,440.15,148.77L440.15,148.77z M525.1,150.43l-0.1-14.4c-0.07-0.86,0.1-3.99,0.1-3.55
		c0.35-3.96,0.41-6.16-1.34-9.85c-1.98-4.19-1.21-5.02-5.07-8.19c-2.81-2.3-3.71-3.4-7.46-3.15c-4.15,0.29-7.38,2.32-10.67,4.66
		l-4.41,3.95l0.29-9.91c0.06-1.39,0.21-13.95-0.17-14.72c-0.35-0.69-1.43-1.55-2.03-2.1c-2.42-2.19-4.35-2.35-7.5-2.09
		c-1.11,0.09-3.73,0.38-4.69,0.8c-2.41,1.05-3.72,4.1-2.46,6.49c1.04,1.96,3.45,1.48,5.32,1.57c0.79,0.04,1.54,0.08,2.33,0.08
		c0.5,13.58,0.29,35,0.29,35v16.2c0.03,5.09-7.07,1.36-8.37,3.67c-0.86,1.63,1.44,5.57,2.78,6.59c0.84,0.64,3.79,1.26,4.91,1.39
		c3.85,0.45,7.92-0.38,11.8-0.14c2.78,0.19,4.12-1.73,4.12-4.22c0.09-7.98-6.62-1.1-6.62-7.48c0.27-6.58,0.37-13.11,0.45-19.69
		c0.01-0.91,0.06-0.93,0.74-1.52c1-0.88,1.53-1.25,2.7-1.89c2.71-1.5,1.67-2.43,3.1-4.4c0.79-1.09,1.69-1.07,2.88-1.37
		c7.17-1.84,7.02-0.38,9.49,3.88c0.67,1.15,0.52,1.56,0.52,2.84c-0.02,6.4,0.36,13.24,0.25,19.63c-0.1,2.8-0.48,5.39-3.84,5.77
		c-3.16,0.48-5.18,2.78-3.45,6.52c0.64,1.09,1.87,0.99,2.97,1.12c6.34,0.72,10.75,2.17,17.2,0.26c1-0.29,2.81-0.75,3.32-1.76
		c2.01-4.64-1.56-5.92-5.36-6.56C525.29,153.55,525.11,152.22,525.1,150.43L525.1,150.43z"/>
	<path d="M161.91,142.06c1.13,9.48,7.18,10.19,15.32,9.08c5.71-0.79,8.68-0.53,9.97,5.98c1.72,8.7,0.98,41.43,0.8,51.55
		c-0.25,16.97-0.51,37.99-0.51,65.09c-0.05,18.06-8.5,20.78-23.06,26.43c-3.48,1.35-3.31,2.11-7.05,0.49
		c-7.75-3.33-9.71-2.13-7.97-6.34c1.1-2.66,1.2-2.2,1.62-5.25c0.76-5.43,3.29-12.79-1.81-16.96c-2.96-2.41-7.46-2.85-11.12-2.94
		c-14.18-0.51-18.74,7.34-18.99,19.75c0.09,15.02,3.86,23.52,19.02,27.89c9.94,2.86,20.09,7.35,30.62,7.31
		c16.31-0.28,23.78-8.96,33.57-20.56c1.95-2.3,3.56-5.04,5.3-7.55c3.24-4.68,3.79-6.77,3.47-12.42c-0.13-2.32-0.04-4.65-0.03-6.98
		c0-16.16,0-32.32,0-48.48c0-18.74,0.25-37.73,0.25-56.48c0-15.72-0.33-17.99,13.39-19.84c3.19-0.43,6.22-0.84,9.43-1.14
		c5.22-0.49,8.05-2.5,8.52-7.99c0.27-3.15-0.68-4.77-3.33-6.52c-11.46-7.37-41.51-6.29-55.24-4.28
		C178.89,132.69,161.81,135.23,161.91,142.06L161.91,142.06z M268.27,257.29l78.76-0.51c2.88-0.23,4.59-1.86,4.81-4.77
		c0.16-2.04,0.23-4.6,0.27-6.67c0.22-12.86-4.79-39.66-14.21-48.74c-1.2-1.15-13.8-8.2-19.34-9.64
		c-11.01-2.87-19.59-4.07-22.08-3.91c-5.57,0.36-12.01,4.38-16.44,7.52c-3.72,2.64-7.45,5.28-11.19,7.89
		c0-0.01-13.08,7.63-15.86,21.97c-0.5,2.57-0.96,3.85-1.77,6.28c-3.23,9.67-2.61,20.36-1.97,30.32c0.3,4.53,0.43,8.43,0.39,12.97
		c-0.1,11.43,2.54,10.39,6.85,19.84c1.85,4.05,2.01,5.89,4.87,9.77c7.89,10.48,9.56,12.71,21.82,17.47c3.36,1.3,6.15,2.44,9.39,4.05
		c7.35,3.66,9.28,2.54,16.82,0.02c5.5-1.85,13.09-4.44,18.8-5.36c4.79-0.77,7.29-1.56,10.47-5.57c2.31-2.9,7.95-14.66,10.45-19.21
		c3.4-6.18,4.99-12.97,2.53-19.82c-2.7-7.52-9.38-7.44-15.57-4.23c-4.95,2.66-4.11,4.3-5.44,9.1c-1.76,6.38-6.57,11.82-10.39,17.08
		c-2.25,3.11-4.17,3.8-7.69,5.09c-11.7,4.29-19.12,2.1-27.76-6.62c-2.19-2.21-3.41-3.07-5.85-4.88c-7.66-5.66-8.38-15.88-9.85-24.55
		L268.27,257.29L268.27,257.29z M303.73,206.39c2.03,0,4.05,0.51,6.33,1.77c5.74,5.33,18.43,16.56,17.72,25.07
		c-0.21,2.49-1.62,1.93-3.6,1.7c-10.26-1.15-30.45,2.13-42.46,2.1c-1.75-0.01-7.73-0.21-9.01-0.94c-1.65-1.08,0.56-6.5,1.23-7.76
		c2.2-4.07,11.36-14.44,15.75-16.89C294.02,209.02,298.71,206.46,303.73,206.39L303.73,206.39z M384.34,312.73
		c4.45,1.84,8.07,1.39,11.57-2c5.55,3.89,11.92,5.13,18.52,6.85c4.43,1.16,8.61,2.45,13.05,3.6c7.83,2.02,18,2.15,25.62-0.72
		c4.74-1.78,11.16-5.69,13.56-10.26c1.82-3.45,4.84-10.03,5.84-13.6c1.67-6.06,2.9-11.97,2.92-18.28
		c-0.14-8.98-3.45-17.88-11.24-22.96c-3.4-2.17-4.59-2.04-7.89-5.12c-4.88-4.56-4.75-3.87-11.38-4.92
		c-7.33-1.15-28.08-4.83-34.93-6.87c-2.65-0.79-10.03-7.9-10.85-9.96c-0.76-1.91,0.46-6.1,1.26-7.99
		c3.23-7.59,6.19-13.11,15.5-10.19c4.33,1.36,7.45,2.56,12.02,3.42c22.28,4.2,14.22,5.02,22.51,12.37c1.87,1.66,2.31,2.84,3.72,4.89
		c10.77,15.74,13.81,1.41,17.95-6.76c6.38-12.58,0.95-13.32-0.72-23.31c-0.68-4.05-0.72-9.16-4.12-12.07
		c-3.62-3.11-9.42-0.85-12.99,1.19c-1.44,0.83-3.42,2.51-5.14,2.37c-0.51-0.1-1.76-1.19-2.47-1.57c-1.9-1.01-3.82-1.25-5.8-1.96
		c-11.52-4.17-21.7-2.02-32.8-1.99c-5.48,0.01-7.86,0.45-11.73,4.71c-10.27,11.33-11.66,8.77-16.54,22.87
		c-1.81,5.23-3.82,8.58-3.9,14.99c0.07,8.37,5.12,14.51,11.04,19.91c4.53,4.13,10.42,4.69,16.75,9.13c8.25,5.8,17.74,5.36,27.68,6.6
		c6.04,0.75,17.09,2.17,19.27,9c2.4,7.51-0.11,11.22-3.27,17.25c-3.01,5.75-6.46,9.59-13.48,8.62
		c-9.99-1.37-22.13-11.27-29.36-17.04c-5.26-4.2-5.8-1.32-5.8-5.09c-0.04-7.15-3.13-10.08-10.34-9.37
		c-7.49,0.74-11.91,6.44-12.24,13.73c-0.38,8.27-2.29,13.26,0.47,21.78C378.2,308.84,379.56,310.72,384.34,312.73L384.34,312.73z
		 M613.96,305.41l0.51,0.25c-10.13-4.05-13.42-11.9-12.41-22.03c0-0.25,0-0.76,0.25-2.03c1.01-6.58,3.8-24.82,3.8-44.07
		c-0.03-18.46-2.46-50.36-26.99-51.39c-2.64-0.11-4.76-0.24-7.39-0.51c-5.05-0.52-5.12,0.49-8.68,3.79
		c-2.98,2.76-6.35,6.07-6.57,10.38c0,5.06,3.55,8.61,14.18,10.38c6.08,1.01,9.88,16.46,9.88,34.7
		c-0.14,24.07-8.51,56.23-36.52,60.45c-5.11,0.77-4.45-0.86-6.49-4.64c-2.37-4.19-6.51-7.66-6.88-12.76
		c0.51-12.66,0.51-28.11,0.51-43.31v-31.91c0-0.56,0.51-6.06,0.51-4.81c0.76-6.34,1.28-11.58-2.95-16.96
		c-2.68-3.41-5.84-2.93-9.7-2.68c-7.1,0.45-12.55,2.96-15.69,9.72c-2.57,5.54-0.66,9.02,3.26,12.96c0.51,0.76,1.01,1.27,1.27,1.01
		c0,25.31,0.29,50.6-0.49,75.9c-0.36,11.53,2.62,24.09,11.66,31.94c3.94,3.42,6.7,3.29,11.56,3.95c14.09,1.91,29.32,1.16,42-5.79
		c2.38-1.3,3.8-3.14,5.67-5.07c1.6-1.65,3.21-3.3,4.81-4.95c0,17.73,10.38,17.22,21.02,16.46c7.76-0.83,16.3,3,18.74-7.09
		C624.81,309.12,619.46,307.24,613.96,305.41L613.96,305.41z M665.37,310.73c7.32,5.13,17.53,6.02,25.82,8.97
		c9.04,3.22,22.08,4.14,31.02,0.89c4.93-1.79,11.35-5.66,13.89-10.37l5.22-11.39c2-6.73,3.54-13.46,3.57-20.52
		c-0.16-9.82-4.14-19.51-13.32-24.12c-4.04-2.03-4.45-2.81-7.69-5.74c-2.91-2.63-5.74-2.59-9.48-3.14
		c-4.93-0.71-33.35-5.74-36.28-7.36c-1.79-1.04-5.18-4.79-6.96-6.46c-2.78-2.6-3.15-3.56-2.43-7.42c0.38-2.02,0.97-3.49,1.97-5.28
		c1.82-6.05,6.62-10.81,13.32-8.91c4.81,1.36,16.14,4.35,16.06,4.35c4.23,0.97,13.01,2.01,15.26,6.09c1.74,3.16,2.23,3.62,4.94,6.11
		c1.49,1.37,3.09,4.15,4.4,5.91c7.39,9.91,11.14,6,14.98-4c2.21-5.75,5.96-9.68,4.65-16.52c-0.64-3.32-3.03-6.09-3.7-12.79
		c-1.1-11.13-6.03-14.61-16.23-9.35c-1.52,0.82-2.58,1.72-3.93,2.51c-1.61,0.93-2.28-0.28-3.52-0.93
		c-4.22-2.23-11.75-4.17-16.52-4.63c-6.82-0.67-13.53-0.08-20.33,0.18c-6.94,0.23-9.7-0.57-14.73,5.27
		c-11.93,13.87-10.46,6.06-16.27,22.85c-1.72,4.85-3.69,8.52-3.69,14.49c0.08,8.97,5.98,15.56,12.43,21.13
		c2.3,1.99,11.03,4.66,15,7.66c7.2,5.44,16.06,5.56,24.48,6.41c6.73,0.85,20.43,1.74,22.85,9.5c0.89,2.86,1.01,8.99-0.2,11.72
		c-2.72,6.14-6.95,13.94-14.29,14.23c-9.73-0.08-23.04-10.1-30.15-15.95c-1.71-1.41-3.55-3.08-5.7-3.75
		c-1.9-0.59-1.58-0.62-1.61-2.68c-0.11-7.15-2.97-9.87-10.19-9.29c-7.49,0.69-12.14,6.43-12.37,13.76
		c-0.19,6.1-1.66,10.7-0.64,17.13c0.58,3.65,2.06,8.99,5.06,11.36c2.75,2.17,7.57,3.82,11.06,2.75
		C662.8,312.9,664.09,311.94,665.37,310.73L665.37,310.73z"/>
	<path d="M54.93,419.23c9.09,0,18.36,0.06,27.41-0.25c3.54-0.13,9.22-1.89,8.97-6.82c-0.34-6.62-6.94-3.95-8.72-4.29
		c-4.09-0.79-7.07,0.29-7.07-5.94c0-2.15,0.25-4.55,0.51-7.58c1.06-12.39,1.31-19.16-0.07-32.61c-0.42-4.09-1.86-5.05-5.56-6.42
		c-3.59-1.34-7.03-1.45-10.8-1.26c-1.14,0-2.02,0.13-2.91,0.13c-3.92-0.13-8.59,0.38-8.34,5.81c0.13,4.8,4.8,5.94,8.59,5.43
		c4.67-0.76,7.07,0.88,8.34,5.31c-0.25,6.19-0.38,12.38-0.38,18.69c0,5.81,0.13,12.5,0.38,18.19H54.93
		C45.45,407.61,45.92,419.55,54.93,419.23L54.93,419.23z M66.93,331.95c-6.57-1.26-8.59,3.54-8.59,8.97c0,6.82,3.79,9.22,9.98,9.09
		c5.73,0.1,10.96-1.36,10.06-8.34C77.6,335.69,72.24,333.05,66.93,331.95L66.93,331.95z M129.58,417.34
		c1.01-0.13,1.9-1.14,2.02-2.15c0.13-1.26,0.38-4.29,0.38-4.04c-0.14-6.8-6.7-6.93-7.12-7.96c-0.58-1.42-0.21-11.13-0.19-13.25
		l0.11-9.36c1.19-3.79,3.27-6.58,5.59-9.72c1.27-1.71,2.29-1.9,4.24-2.69c3.61-1.48,7.26-3.12,10.64-5.07
		c1.15-0.56,1.68,0.25,2.36,1.17c1.66,2.26,1.2,4.33,3.23,6.55c1.26,1.38,1.03,2.35,1.16,4.14c0.66,9.22,1.25,25.6-7.01,31.09
		c-1.69,1.12-1.93-0.13-3.5,0.39c-1.99,0.87-1.41,2.78-1.59,4.67c-0.28,2.96-0.17,4.63,2.37,6.58c0.88,0.67,1.84,0.47,2.99,0.5
		c5.15,0.16,10.15,0.45,15.29,0.7c7,0.35,6.59-0.16,10.33-5.59c1.46-2.11,1.42-2.46,0.48-4.86c-2.07-5.3-6.94-3.25-8.61-4.64
		c-0.75-0.63,0.22-2.7,0.54-3.82c3.06-10.89,2.07-12.88,0.43-23.24c-0.84-5.48,3.64-3.93,0.01-12.55c-0.55-1.31-0.97-2.59-1.48-3.91
		c-1.3-3.35-6.81-8.22-10.57-8.88l-9.35-0.76c-2.84,0.04-6.98,0.4-9.17,2.4c-1.51,1.38-2.22,2.04-3.56,3.65
		c-1.62,1.95-3.3,3.55-5.08,5.32c-0.02-3.33-0.47-5.48-3.16-7.7c-3.29-4.79-7.08-4.04-12.24-3.21c-4.55,0.73-4.45,2.74-4.61,6.91
		c-0.12,3.3,0.12,4.02,2.66,6.26c5.57,4.86,5.36-0.29,5.36,4.78c0,2.44,0.1,4.84,0.12,7.26c0.03,4.6-2.44,5.27-2.79,8.67
		c-0.6,5.86,7.32,4.51,5.36,12.36c-0.57,2.29-1.88,2.94-3.18,4.73c-1.65,2.27-1.14,2.39-3.43,2.62c-1.64,0.13-3.16,0.25-4.93,2.02
		c-3.09,3.98-1.76,6.46,1.16,9.91c2.48,2.91,4.63,1.95,8.02,1.77C118.45,418.1,124.01,417.85,129.58,417.34L129.58,417.34z
		 M282.44,366.72c-3.16-6.3-1.63-7.46-8.27-12.44c-1.28-0.96-3.52-2.5-5.1-2.78c-5.67-1-13.05,2.68-17.34,6.1l-5.81,5.2
		c0-4.4,0.06-8.3,0.34-12.7c0.25-3.9,0.08-13.16,0.1-17.49c0.01-2.62-0.7-2.91-2.51-4.62c-3.64-3.48-6.58-3.58-11.41-3.03
		c-2.17,0.24-4.37,0.34-6.23,1.58c-2.44,1.79-3.71,5.41-2.04,8.09c2.25,3.16,6.93,1.19,9.88,2.14c0.79,2.94,0.64,38.12,0.58,42.49
		c-0.11,7.71-0.33,15.32-0.12,23.04c0.08,2.86-0.06,5.27-3.54,5.55c-2.21,0.18-4.89-0.64-6.89,0.49c-2.46,1.6,1.66,8.5,3.38,9.44
		c0.71,0.39,3.77,1.21,4.61,1.38c5.61,1.07,11.12-0.23,16.77,0.04c3.96,0.19,5.71-1.78,5.8-5.54c0.13-5.81-2.65-5.81-5.94-5.81
		c-1.26,0-2.65-0.76-2.78-4.04c0.35-8.73,0.57-17.77,0.59-26.51c0.27-1.3,1.44-1.91,2.51-2.65c3.38-2.32,2.84-0.61,5.02-4.95
		c1.85-3.67,3.94-3.94,7.73-4.63c6.61-1.19,6.99,1.05,9.67,5.83c1.05,1.82,0.69,4.26,0.73,6.3c0.12,7.66,0.43,15.41,0.29,23.06
		c-0.09,4.03-0.5,7.01-5.04,7.81c-4.43,0.78-6.59,3.77-4.76,8.11c0.9,2.13,2.94,1.78,4.86,2c4.76,0.56,8.58,1.49,13.53,1.53
		c2.65-0.03,11.67-1.01,12.78-3.63c2.48-5.82-1.59-7.41-6.34-8.44c-3.94-0.86-3.43-3.36-3.4-6.75c0.05-5.74,0.15-11.49-0.16-17.23
		C283.58,377.43,285.76,373.54,282.44,366.72L282.44,366.72z M322.72,403.87c-1.91-1.7-3.68-3.11-5.56-4.72
		c-2.82-2.97-3.54-9.78-4.16-13.76l39.28-0.26c2.07-0.01,2.56-1.88,2.4-3.54c0.69-6.91-1.93-22.2-7.34-26.82
		c-1.52-1.3-3.79-1.03-5.78-1.76c-1.75-0.64-2.53-1.13-4.47-1.61c-3.2-0.81-5.91-2.06-8.95-2.94c-3.46-1-10.75,4.69-13.16,6.37
		c-5.35,3.74-8.44,6.19-9.74,12.9c-0.36,1.86-1.16,3.48-1.53,5.55c-0.76,4.25-0.32,8.73-0.13,13.02c0.06,1.54,0.13,3.09,0.19,4.64
		c-0.48,4.64,0.86,6.37,3.11,10.1c1.17,1.94,0.77,2.94,2.56,5.28c3.49,4.58,4.38,6.21,10.02,8.59c2.44,1.03,4.64,1.78,7.1,2.92
		c2.61,1.21,3.12,0.58,5.83-0.26c3.21-1,7.52-2.52,10.74-3.03c6.42-1.02,6.05-6.03,8.94-10.4c2.36-3.57,4.06-7.2,2.55-11.53
		c-2.07-5.96-9.22-3.03-10.07,0.17c-1.23,4.64-1.67,5.24-4.52,9.03c-2.4,3.2-3.55,3.84-7.43,4.74
		C328.52,407.46,325.91,406.43,322.72,403.87L322.72,403.87z M342.68,373.5c-0.11,1.12-1.02,0.79-1.99,0.71
		c-5.66-0.44-12.72,0.76-18.57,0.99c-0.93,0.03-6.73,0.17-7.08-0.5c-0.41-0.78,0.43-3.13,0.86-3.89c1.36-2.27,3.81-4.5,5.57-6.66
		c1.29-1.59,9.16-6.32,12.78-2.89C337.43,364.27,342.93,368.95,342.68,373.5L342.68,373.5z M390.29,404.45
		c-0.38-8.84,1.77-17.94,3.79-26.4c0.9-3.03,2.04-5.66,4.72-7.49c2.34-1.64,7.79-6.67,10.37-7.02c1.37-0.18,2.78,0.39,1.92,1.93
		c-0.97,1.73-1.08,1.91-0.46,3.88c0.9,2.87,2.89,3.71,5.1,5.43c4.49,3.5,4.78,1.75,8.21-1.85c3.57-3.75,5.06-4.49,3.08-9.87
		c-1.94-5.26-3.26-8.18-9.37-8.96c-1.37-0.17-2.7-0.17-4.11-0.34c-5.85-0.69-11.67,0.89-16.17,4.7c-2.86,2.42-4.55,4.85-6.81,7.74
		c-1.86,2.37,5.24-6.31-0.78-9.26c-1.13-0.54-2.65-0.97-3.94-1.52c-4.33-1.83-8.49-2.69-13.01-0.83c-3.1,1.27-4.45,4.23-3.3,7.42
		c1.71,4.72,8.21,2.08,10.24,3.79c1.25,1.06,1.05,3.54,1.01,5.03l-0.23,14.92l0.13,13.89c0.03,9.59-0.7,7.23-6.07,7.62
		c-2.82,0.2-5.91-0.06-7,3.34c-0.78,2.43-0.38,6.15,2.2,7.46c1.82,0.93,5.47,0.66,7.61,0.66c6.71,0,13.47,0.06,20.18,0
		c8.34-0.07,6.48-10.19-1.25-11.44C393.34,406.81,390.78,407.88,390.29,404.45L390.29,404.45z M537.32,403.02
		c0-4.66,0.19-14.6-0.13-18.97c-0.38-5.98,1.62-9.92-0.99-16.28c-0.93-2.21-1.92-3.98-2.77-6.32c-1.21-3.34-1.52-3.42-4.42-5.82
		c-1.64-1.36-3.03-2.27-4.78-3.41c-2.69-1.76-8.58-0.42-11.42,0.76c-2.83,1.18-5.35,2.87-7.84,4.63l-5.81,5.2
		c0-4.27,0.04-8.44,0.35-12.7l0.08-13.68c-0.12-6.74,1-4.97-2.75-8.65c-4.34-4.26-9.34-3.11-14.98-2.27
		c-2.53,0.38-5.31,3.16-5.18,6.57c0.36,4.81,4.11,4.42,6.69,4.42c1.34,0.04,2.69,0.07,4.03,0.14c0.6,10.94,0.7,34.9,0.39,46.22
		v21.22c0.05,8.64-15.89-1.94-9.98,10.04c0.71,1.44,1.96,3.36,3.53,3.97c6.94,2.69,13.95,0.85,21.11,1.15
		c3.68,0.15,5.33-2.08,5.41-5.56c0.13-5.81-2.65-5.81-5.94-5.81c-1.26,0-2.65-0.76-2.78-4.04c0.33-8.18,0.48-16.34,0.57-24.53
		c0.22-5.48,4.64-4.77,6.52-7.56c0.97-1.43,1.79-4.51,3.08-5.14c1.2-0.58,7.08-1.86,8.57-1.87c4.3-0.02,5.16,3.34,6.86,6.36
		c0.8,1.41,0.63,3.57,0.66,5.18c0.14,8.04,0.38,16.2,0.27,24.23c-0.13,3.68-0.63,7.09-5.05,7.6c-4.17,0.63-6.82,3.66-4.55,8.59
		c0.25,0.65,1.39,1.28,2.02,1.28c7.79,0.19,15.54,3.69,25.93,0.16c2.54-0.88,3.29-1.63,3.68-4.4c0.49-3.49-2.24-4.74-5.09-5.62
		C539.13,407,537.39,408.08,537.32,403.02L537.32,403.02z M583.3,406.85c-5.05,0-9.13-4.49-12.88-7.71
		c-2.85-3.01-3.51-9.74-4.17-13.77l39.28-0.25c2.07-0.01,2.56-1.88,2.4-3.54c0.72-6.65-2.12-23.3-7.83-27.24
		c-1.2-0.83-3.36-0.67-4.98-1.2c-1.52-0.5-2.88-1.18-4.51-1.68c-2.23-0.68-3.94-1.16-6.15-2.01c-3.57-1.38-5.36-1.33-8.84,0.38
		c-2.03,0.99-6.69,4.52-9.12,6.23c-4.5,4.31-7.26,4.99-8.08,12.25c-1.52,3.66-1.89,6.95-1.89,10.48c0.07,3.23,0.6,10.21,0.42,12.94
		c-0.29,5.02,2.29,7.01,4.03,11.25c1.4,3.42,4.64,7.72,7.72,9.79c2.76,1.72,6.6,3.21,9.66,4.43c5.16,2,6.08,0.78,10.99-0.79
		c2.75-0.88,4.87-1.38,7.66-2c5.97-1.62,5.51-5.83,8.41-10.38c2.29-3.59,3.81-6.57,2.63-10.98c-1.77-6.63-9.33-3.42-10.17-0.48
		c-0.81,2.83-0.91,3.9-2.59,6.5C591.87,404.34,590.09,406.38,583.3,406.85L583.3,406.85z M595.68,374.39
		c-5.66-0.88-14.29,0.57-20.31,0.8c-0.9,0.03-6.82,0.18-7.13-0.52c-0.39-0.88,0.62-3.38,1.12-4.18c0.92-1.43,5.23-6.37,6.52-7.32
		c2.2-1.64,6.7-3.71,9.49-2.99c3.24,1,8.88,7.48,10.1,10.67C595.98,372.21,596.03,373.03,595.68,374.39L595.68,374.39z
		 M678.72,401.38c-3.67-1.16-4.68,1.48-5.86,4.35c-0.26,0.62-1.73,1.79-2.32,2.53c-0.56,0.63-0.71,0.24-0.97-0.38
		c-0.67-1.64,0.26-4.12,0.54-5.91c0.6-3.77,0.55-7.67,0.48-11.48c-0.04-2.17-0.39-3.21-0.64-5.21c-0.3-2.3,0.16-5.03,0.11-7.46
		c-0.05-2.69-0.05-2.17,0.63-4.71c2.07-7.7-2.25-13.57-8.11-18c-3.13-2.35-10.05-3.88-13.93-3.97c-2.59-0.05-10.65-0.4-12.64,0.49
		c-2.56,1.15-7.68,5.02-9.57,7.13c-1.72,1.98-2.38,3.81-2.47,6.42c0.03,2.04,0.78,5.92,1.8,7.61c3.19,5.27,7.38,4.72,10.8,0.04
		c1.29-1.77,0.69-9.24,7.57-10.02c3.88-0.36,8.23,0.41,11.9,1.67c4.12,1.55,4.91,5.04,3.57,8.94c-1.11,3.22-4.27,2.54-7.12,2.74
		c-7.56,0.59-15.44,4.44-22.57,6.72c-1.99,0.64-3.15,2.33-4.49,3.82c-4.84,5.39-7.79,11.37-5.16,18.6
		c1.54,3.78,4.94,8.05,8.33,10.32c1.4,0.94,5.71,1.74,7.52,2.13c5.89,1.29,12.3,2.35,18-0.28c3.13-1.54,3.33-3.22,7.23-3.77
		c1.92,2.53,2.34,2.22,5.34,3.08c4.66,1.33,9.3,3.33,13.36-0.67c2.26-2.23,3.26-6.44,2.91-9.53
		C682.66,403.82,681.29,402.28,678.72,401.38L678.72,401.38z M632.98,403.7c-1.02-0.97-1.26-2.9-1.09-4.23
		c0.43-2.22,2.38-4.29,3.92-5.85c1.26-1.28,7.24-3.87,9.15-4.5c2.49-0.82,5.18-1.37,7.81-1.34c5.08,0.16,9.27,2.49,7.82,8.28
		c-1.84,7.12-8.59,8.47-14.42,10.52C641.04,408.39,637.02,407.24,632.98,403.7L632.98,403.7z M723.89,418.73
		c5.58,0,7.67-5.33,2.65-9.73c-2.72-2.29-4.54-1.58-7.57-2c-2.61-0.47-2.44-2-2.45-4.34c-0.04-8.27,1.93-16.6,3.84-24.61
		c0.87-3.02,1.92-5.3,4.41-7.31c0.85-0.82,3.62-3,4.6-3.58c1.72-1.02,4.39-3.41,6.11-3.66c0.99-0.14,2.49,0.2,2.05,1.51
		c-0.71,2.11-1.19,2.3-0.48,4.66c0.82,2.2,1.96,3.02,3.87,4.18c0.73,0.45,1.62,1.49,2.61,2.12c4.08,2.57,4.5-1.33,7.07-3.59
		c2.21-1.95,4.05-3.34,3.48-6.73c-0.27-1.6-2.01-6.19-2.91-7.55c-3-4.26-7.31-3.92-11.93-4.36c-9.68-0.75-15.61,3.4-21.18,10.91
		c-2.07,2.79-0.32-0.26,0.12-1.64c0.94-2.94,0.2-4.98-2.61-6.31c-0.81-0.24-1.69-0.61-2.53-0.88c-2.78-1.26-6.69-2.78-10.1-2.15
		c-4.16,0.65-8.05,1.98-7.4,7.11c0.54,4.3,4.66,4.38,8.01,4.37c3.5-0.01,3.59,1.83,3.55,4.86c-0.14,7.27-0.26,14.32-0.19,21.59
		c0.16,18.03,0.89,15.33-5.99,15.67c-2.99,0.19-6.17,0-7.1,3.68c-0.66,2.6-0.13,6.1,2.6,7.26c1.84,0.78,6.22,0.52,8.39,0.52
		C711.15,418.73,717.52,418.73,723.89,418.73L723.89,418.73z M775.29,400.83c-0.08,6.52,2.04,8.7,6.38,13.34
		c2.81,3.01,4.08,4.03,8.26,4.45c7.1,0.64,20.58-2.66,22.74-10.43c0.95-3.44-1.04-4.17,1.26-8.94c1.88-3.91,2.43-6.03,1.86-10.42
		c-0.38-2.92-1.04-3.54-3.96-4.27c-6.55-1.63-7.44,3.62-7.29,8.79c0.14,3.64-0.18,3.71-1.82,6.84c-1.51,2.89-1.3,5.73-5.1,7.18
		c-2.91,1.11-7.6-3.37-8.68-5.67c-1.77-4.15-2.15-9.81-2.15-20.53c0-4.41-0.02-8.82-0.01-13.23c0-1.85,0.1-1.47,1.5-2.47
		c3.79-2.7,0.3-2.29,7.85-2.41c4.6-0.08,9.78,1,9.63-5.04c-0.1-4.25-3.8-5.83-7.47-6.24c-1.13-0.09-9.95-0.5-10.13-0.58
		c-0.65-0.27-1.42-2.72-1.5-3.45c-0.4-3.37,0.9-13.15-0.3-15.66c-1.97-4.12-11.02-2.75-11.35,6.58c-0.14,3.71-0.51,5.38,0.28,9.16
		c0.39,1.85-0.44,1.81-2.01,2.57c-2.76,1.35-1.97,0.8-5.09,1.01c-4.29,0.29-6.42,1.92-7.67,6.05c-1.18,5.24,2.29,7.5,6.93,8.39
		c1.1,0.21,1.17,0.18,2.22-0.31c2.15-1,3.66-3.88,5.19,0.07c0.76,1.96,0.44,4.11,0.44,6.22C775.3,381.5,775.29,391.17,775.29,400.83
		L775.29,400.83z"/>
	<path d="M84.66,688.02c4.89-0.2,10.81-2.87,9.16-8.82c-1.3-4.7-6.26-2.49-9.24-2.92c-4.7-0.67-7,0-7.07-6.16
		c0-2.25,0.26-4.77,0.53-7.95c1.07-12.41,1.49-21.99-0.28-35.59c-0.11-0.87-0.22-2-0.85-2.64c-5.08-4.99-14.11-3.96-20.24-3.92
		c-4.41,0.03-8.07,1.3-7.61,6.51c0.44,4.99,5.36,5.76,9.43,5.23c4.75-0.62,6.95,1.17,8.3,5.63c-0.27,6.49-0.4,12.98-0.4,19.61
		c0,6.05,0.15,12.01,0.35,18.06c0.04,1.25,0.2,0.99-1.04,1.02c-3,0.08-10.05-0.32-12.47,0.37c-6.8,1.93-6.16,11.87,2.67,11.82
		C65.53,688.23,75.02,688.41,84.66,688.02L84.66,688.02z M80.57,607.32c-0.66-6.76-6.76-9.54-12.06-10.6
		c-6.89-1.33-9.01,3.71-9.01,9.41c0.12,8.43,5.28,9.94,12.69,9.51C77.61,615.32,80.97,613.21,80.57,607.32L80.57,607.32z
		 M129.12,671.16c-0.36-0.96-0.03-14.43-0.01-16.59c0.03-2.28,0.05-4.56,0.08-6.83c0.8-2.65,2.38-5.43,4.11-7.82
		c1.06-1.32,1.99-2.52,2.78-3.84c5.03-1.82,10.28-4.27,14.99-6.82c0.61-0.33,0.42-0.24,1.19,0.43c2.14,1.87,2.04,3.48,2.89,5.78
		c1.09,2.96,2.21,1.06,2.58,5.78c0.7,8.94,1.47,27.27-7.03,32.98c-2.11,1.42-4.1-0.29-5.17,1.89c-0.63,1.29-0.79,6.02-0.37,7.43
		c0.41,1.37,1.73,2.86,2.97,3.5c0.22,0.12,13.18,0.58,14.75,0.69c2.42,0.16,8.31,0.7,10.34-0.32c1.42-0.71,3.09-3.49,4.04-4.85
		c1.74-2.49,1.87-3.7,0.42-6.45c-1.47-2.8-3.78-3.2-6.71-3.42c-3.15-0.29-2.34-1.14-1.56-3.81c3.28-11.27,2.48-14.3,0.6-25.27
		c-1.03-5.94,4.9-3.07-1.65-17.38c-1.06-2.31-2.36-3.57-4.17-5.28c-2.29-2.15-4.7-3.54-7.85-3.91c-2.66-0.26-5.65-0.52-8.32-0.67
		c-3.46-0.19-7.84,0.49-10.51,2.86c-2.36,2.11-6.55,7.58-8.52,8.84c-0.24-0.28,0.33-3.73-2.02-6.57c-5.71-6.9-7.03-5.51-16.08-4.36
		c-2.83,0.35-2.44,2.57-2.65,4.66c-0.58,5.85-1.07,5.66,3.83,9.89c1.09,0.94,2.62,1.61,4.08,1.47c0.38-0.03,0.21,1.33,0.2,1.67
		l0,11.26c-1.04,2.76-3.12,3.96-2.84,7.53c0.41,5.15,7.69,3.77,5.69,11.53c-0.66,2.58-2.56,4.54-4.23,6.52
		c-2.42,2.87-7.13-0.08-9.4,5.92c-1.17,3.3,0.86,5.88,2.97,8.27c0.66,0.75,2.16,1.91,3.21,1.88c3.19-0.11,22-1.15,23.08-1.65
		c1.79-0.83,1.62-3.08,1.76-4.73c0.17-1.93,0.28-3.27-0.69-5.15C134.05,672.6,129.84,672.53,129.12,671.16L129.12,671.16z
		 M296.28,671.28c0-4.89,0.2-15.32-0.13-19.9c-0.09-1.17,0.13-5.54,0.13-4.9c0.91-10.37-0.81-10.17-4.17-19.23
		c-1.18-3.2-3.45-4.98-6.13-6.98c-3.81-2.84-5.24-3.56-10.02-2.97c-4.6,0.58-10.09,3.54-13.61,6.34l-6.1,5.45v-3.86
		c0-3.33,0.13-6.65,0.4-9.83c0-5.43-0.16-11.44,0.07-16.82c0.14-3.33-0.65-4.4-3.16-6.56c-4.23-3.62-8.15-3.08-13.35-2.4
		c-2.97,0.39-5.15,0.95-6.72,3.82c-1.63,2.99-0.99,7.24,2.93,7.91l7.51,0.26c0.53,14.31,0.53,22.92,0.53,31.93
		c0,6.36,0,11.66-0.13,16.56v-0.13c-0.13,4.51-0.13,8.75-0.13,12.99c0,2.65,0,6.49,0.13,9.41c-0.53,6.78-7.86,2.41-11,4.5
		c-2.56,1.7,1.5,8.52,3.53,9.77c5.55,3.32,15.87,1.35,22.86,1.63c3.86,0.15,5.59-2.18,5.68-5.83c0.13-6.09-2.78-6.09-6.23-6.09
		c-1.33,0-2.78-0.8-2.92-4.24c0.36-8.86,0.53-17.73,0.63-26.59c0.02-1.66,0.07-1.89,1.35-3.07c2.39-2.21,4.58-1.96,6.32-5.61
		c1.01-2.13,1.35-3.32,3.75-4.23c2.06-0.67,6.67-1.77,8.79-1.4c3.5,0.61,4.68,3.91,6.12,6.7c0.73,1.41,0.53,3.99,0.56,5.64
		c0.15,7.94,0.51,17.27,0.32,25.09c-0.13,3.86-0.66,7.44-5.3,7.97c-4.37,0.66-7.16,3.84-4.77,9.01c0.27,0.68,1.46,1.35,2.12,1.35
		c8.19,0.16,17.41,4.41,28.83-0.51c1.63-0.7,2.13-2.7,2.27-4.29c0.35-3.85-3.06-4.73-6.01-5.77
		C298.69,675.5,296.35,677.01,296.28,671.28L296.28,671.28z M355.68,683.88c3.4-0.97,5.76-0.42,8.11-3.83
		c1.49-2.17,1.98-4.68,3.45-7.01c2.03-3.22,3.49-5.13,3.64-9.13c0-10.52-9.8-7.26-11.02-3.79c-0.44,1.25-0.59,2.5-1.14,3.9
		c-1.12,2.71-4.3,7.51-6.7,9.17c-2.29,1.47-6.33,2.42-9.06,2.02c-4.9-0.72-7.06-4.35-10.81-7.06c-4.17-3.01-4.64-10.1-5.54-15.37
		l41.21-0.26c2.17-0.01,2.69-1.97,2.52-3.71c0.85-7.18-2.2-23.45-7.81-28.26c-1.91-1.46-4.11-0.76-6.61-1.95
		c-3.34-1.54-6.98-2.16-10.48-3.55c-3.81-1.5-4.55-1.53-8.3,0.17c-3.27,1.53-7.61,4.88-10.62,7.1c-4.43,3.27-6.5,5.65-7.86,11.06
		c-1.25,4.96-2.19,6.8-2.22,12.2c-0.02,2.98,0.22,5.98,0.32,8.96c0.1,3.31-0.21,7.49,1.07,10.49c0.82,1.93,2.15,3.9,3.08,5.93
		c1.41,3.07,2.03,3.84,4.01,6.49c4.15,5.58,9.13,6.21,15.02,8.97c3.76,1.79,4.6,0.91,8.34-0.28
		C350.73,685.35,353.21,684.58,355.68,683.88L355.68,683.88z M345.17,626.14c1.06,0,2.12,0.27,3.31,0.93
		c3.28,3.04,9.08,8.14,9.33,12.88c0.09,1.62-1.6,1.16-2.85,1.08c-7.58-0.51-19.43,2-25.76,0.79c-0.45-0.09-0.27-0.03-0.57-0.55
		c-0.12-0.22,0.45-2.39,0.57-2.72c0.98-2.59,3.87-5.22,5.73-7.36C337.18,628.62,341.68,626.33,345.17,626.14L345.17,626.14z
		 M389.69,687.75c8.54,0,17.17,0.08,25.7,0c3.13-0.03,5.51-1.33,5.74-4.76c0.21-3.16-3.18-6.33-6.03-7.06
		c-3.42-0.87-7.14,0.66-7.39-3.16c-0.31-8.9,1.72-19.13,3.99-27.74c1.88-7.14,7.12-9.43,12.52-13.5c1.1-0.83,3.48-2.38,4.87-1.4
		c0.88,0.62,0.05,2.6-0.05,3.66c0.08,4.56,1.78,5.14,5.09,7.72c5.28,4.14,5.51,1.84,10.11-3.02c3.22-3.4,3.75-4.44,2.04-9.06
		c-2.37-6.29-3.77-9.19-11.57-9.63c-0.52-0.03-1.03-0.03-1.56-0.04c-11.49-1.3-17.26,2.55-24.14,11.59c-1.62,2.14-0.2-0.48,0.18-1.5
		c1.09-2.98,0.81-5.06-1.41-6.55c-0.86-0.57-2.83-1.24-3.78-1.55c-2.92-1.33-7.02-2.92-10.6-2.25c-3.45,0.53-7.82,1.46-7.82,6.49
		c0,5.3,4.77,5.7,8.35,5.56c3.18-0.4,3.84,1.46,3.84,4.64c-0.13,6.62-0.27,12.32-0.27,16.96l0.13,14.57c0.04,10.06-0.74,7.59-6.37,8
		c-0.54,0.04-1.04,0.08-1.58,0.09c-3.98,0-6.1,1.85-6.1,5.83C383.59,685.9,385.71,687.75,389.69,687.75L389.69,687.75z
		 M561.94,671.28c0-4.89,0.2-15.32-0.13-19.9c-0.21-2.74,0.3-5.86,0.36-8.65c0.16-6.81-1.61-8.12-4.7-16.19
		c-1.03-2.71-3.41-4.37-5.65-6.12c-4.09-3.19-6.13-3.95-11.3-2.91c-1.66,0.33-3.21,0.82-4.76,1.49c-2.77,1.23-5.28,2.9-7.74,4.65
		c-1.67,1.49-3.36,3.07-5.04,4.52c-1.04,0.9-1.01,0.94-1.07-0.42c-0.21-4.2,0.39-11.38,0.43-15.98l-0.04-16.11
		c-0.55-1.9-4.47-4.89-6.3-5.67c-3-1.29-6.27-0.83-9.42-0.44c-3.19,0.4-5.72,0.79-7.41,3.91c-1.51,2.78-1.04,7.04,2.61,7.85
		l7.84,0.33c0.56,15.37,0.8,33.08,0.4,48.49c0-0.4-0.34,14.82,0,22.26c-0.53,6.78-7.86,2.42-11,4.5c-2.43,1.99,1.26,7.92,3.04,9.42
		c4.5,3.64,16.91,1.82,23.36,1.98c4.94,0.12,6.17-3.76,5.55-8.02c-1.1-7.52-8.91-0.01-9.03-8.15c0.38-9.25,0.49-18.43,0.65-27.69
		c0.02-1.04-0.1-0.6,0.74-1.39c1.65-1.55,2.31-1.83,4.18-2.93c3.78-2.22,2.52-6.33,6.43-7.51c1.81-0.55,5.83-1.53,7.67-1.5
		c2.86,0.05,4.39,1.59,5.77,3.93c2.48,4.33,2.01,4.16,2.04,8.94c0.1,8.23,0.47,16.4,0.34,24.65c-0.18,4.24-0.56,7.1-5.28,7.97
		c-4.38,0.81-6.83,3.61-5.17,8.1c1,2.72,2.76,2.24,5.27,2.5c5.72,0.6,9.83,1.86,15.86,1.54c3.6-0.2,6.87-0.89,10.2-2.29
		c1.78-0.76,2.32-3.3,2.27-5.02c-0.27-3.15-3.17-4.21-5.84-4.97C563.9,675.56,562.01,676.53,561.94,671.28L561.94,671.28z
		 M616.93,643.1c-7.75,0.65-14.82,4.11-22.12,6.51c-3.83,1.26-5.37,3.21-7.8,6.29c-7.75,9.8-6.1,19.41,3.35,27.42
		c2.83,2.4,5.83,2.58,9.3,3.35c6.51,1.42,13,2.59,19.3-0.41c2.58-1.22,3.25-3.13,6.56-3.68c1.01-0.17,0.62-0.14,1.48,0.92
		c1.45,1.67,2.33,1.43,4.4,2.05c4.83,1.46,9.6,3.64,13.99-0.18c3.97-3.46,6.08-14.38-1.66-16.02c-4.24-0.9-4.54,3.92-6.38,5.84
		c-0.24,0.26-1.8,1.85-1.94,1.9c-0.69,0.2-0.89-2.03-0.88-2.38c0.04-1.33,0.55-2.87,0.81-4.22c0.64-4.07,0.64-8.99,0.53-13.13
		c-0.06-2.29-0.77-4.02-0.76-6.54c0.01-2.1,0.23-3.99,0.18-6.17c-0.03-5.5,2.6-7.56,0.37-13.78c-1.83-4.65-6.69-9.65-11.34-11.52
		c-7.62-3.07-12.5-2.51-20.37-2.52c-4.35-0.01-4.73,0.5-8.27,2.98c-6.74,4.7-10.41,7.97-7.9,16.89c1.61,5.72,6.49,9.59,11.37,4.24
		c3.34-3.67,1.43-11.47,9.42-11.87c5.17-0.27,9.81,0.79,14.44,2.78c1.19,1.46,1.99,3.45,1.99,5.04c0,1.19-0.4,2.78-0.93,4.11
		C623.22,643.27,619.82,642.91,616.93,643.1L616.93,643.1z M619.46,671.42c-2.73,1.38-3.63,1.89-6.64,2.7
		c-4.39,1.17-6.14,2.88-10.97,1.16c-4.75-1.69-8.73-5.28-5.39-10.4c0.88-1.35,2.49-3.3,3.86-4.12c16.05-9.63,29.44-5.68,24.3,5.44
		C623.5,668.61,621.78,670.19,619.46,671.42L619.46,671.42z M685.3,671.32c-0.46-1.06-0.17-9.25-0.15-11
		c0.05-4.2,0.1-8.39,0.15-12.59c1.25-3.98,3.43-6.9,5.87-10.19c1.31-1.77,2.76-2.16,4.76-2.97c3.81-1.56,7.16-3.08,10.7-5.16
		c1.13-0.66,1.89,0.35,2.6,1.26c2.05,2.65,1.39,5,3.3,6.8c1.15,0.99,1.11,1.38,1.26,2.93c0.41,4.39,0.53,10.45,0.31,14.91
		c-0.35,6.82-1.66,15.02-7.68,19.24c-1.62,1.13-2.59-0.52-4.22,0.83c-1.28,1.48-1.07,3.65-1.14,5.49c-0.1,2.29,0.63,4.74,2.79,5.92
		c1.21,0.66,4.85,0.48,6.43,0.52c4.78,0.14,9.56,0.58,14.29,0.7c5.74,0.15,5.8-1.13,8.8-5.46c1.65-2.37,1.91-3.11,0.72-5.85
		c-1.53-3.52-4.15-3.83-7.65-4.05c-2.36-0.13-1.59-1.25-1.03-3.07c0.63-2.06,0.68-3.67,1.44-5.72c1.82-4.89,0.46-13.86-0.53-19.25
		c-0.95-5.22,1.55-5.23,1.3-9.05c-0.16-2.44-1.85-6.03-2.77-8.49c-1.76-4.68-7.32-9.47-12.4-10.04c-2.47-0.25-5.12-0.43-7.61-0.62
		c-3.4-0.26-7.96,0.19-10.68,2.4c-2.3,1.86-2.73,2.7-4.59,4.84c-1.15,1.32-2.48,2.63-3.76,3.84c-0.99,0.92-0.67,0.83-0.84-0.75
		c-0.46-4.32-1.44-4.61-4.13-7.75c-3.56-4.15-8.3-2.65-13.02-1.99c-3.66,0.49-3.31,2.46-3.62,5.55c-0.49,5.05-0.11,5.81,3.84,9.01
		c3.23,2.62,4.41,0.39,4.5,3.15c0.05,1.52-0.11,3.21-0.07,4.83c0.11,3.55,0.66,5.58-1.2,8.81c-1.19,2.06-2.13,3.8-1.44,6.27
		c1.09,3.9,6.84,2.91,5.59,10.07c-0.5,2.84-2.21,4.35-4.02,6.48c-0.41,0.49-0.89,1.1-1.33,1.55c-1.08,0.88-5.84-0.99-8.39,4.83
		c-1.21,3.02,0.71,5.71,2.62,7.92c2.78,3.21,5.62,2.09,9.47,1.87c2.5-0.14,15.85-0.66,17.16-1.28c1.76-0.83,1.64-3.05,1.78-4.69
		c0.18-2.19,0.21-3.97-1.15-5.92C689.53,672.55,685.99,672.44,685.3,671.32L685.3,671.32z M670.04,650.4
		C670.04,650.38,670.04,650.38,670.04,650.4L670.04,650.4z M672.53,657.28C672.68,657.32,672.68,657.33,672.53,657.28L672.53,657.28
		z M795.01,685.37c5.89,0.66,14.21,0.93,18.81-3.53c1.75-1.69,2.21-4.26,0.36-6.04c-1.96-1.89-2.31-1.96-5.17-2.15
		c-7.26-0.47-9.4,0.38-9.23-7.63c0.13-7.82,0.13-15.64,0.13-23.58v-43.06c0-3.84,0-7.29-4.64-10.07c-5.73-1.77-8.54-0.43-14.03-1
		c-3.35-0.35-5.33,0-6.78,3.43c-1.2,2.82,0.36,4.72,2.19,6.73c3.23,3.53,5.33,1.42,9.59,2.92c5.81,2.06,3.43,1.4,4.07,10.54
		c0.21,3.01,0.52,8.9-1.49,11.29c-1.32-0.39-3.58-2.14-5.04-2.92c-11.66-6.08-26.12-4.95-32.23,8.12c-1.41,3.04-3.08,6.09-3.45,9.46
		c-0.5,4.67-1.12,4.43-2.87,8.31c-1.8,4-1.64,7.96,0.69,11.7c1.97,3.17,1.23,2.37,1.48,6c0.58,8.4,6.91,15.42,12.68,21.04
		c3.51,3.37,5.33,2.93,9.91,3.01c5.36,0.1,5.01-1.34,9.5-2.62c3.04-0.87,4.8-0.92,7.24-3.66c1.95-2.31,0.58-1.94,1.61,0.71
		C789.41,685.1,792.55,685.08,795.01,685.37L795.01,685.37z M776.39,628.12c1.77,0.51,3.8,2.76,5.08,4.09
		c4.13,4.3,8.07,9.44,8.67,15.57c0.84,8.61-0.01,17.23-7.64,22.5c-1.41,0.97-3.11,2.4-4.58,3.06c-2.04,1.02-4.16,1.39-6.38,1.8
		c-5.07,0.79-4.37-2.45-6.92-5.91c-1.83-2.42-3.36-3.46-5.48-5.44c-2.61-2.44-1.94-3.55-1.96-6.86c-0.05-6.55-0.14-11.33,2.02-17.67
		c0.82-2.25,0.74-2.65,2.49-4.73C764.79,630.84,771.42,626.86,776.39,628.12L776.39,628.12z"/>
	<path d="M63.99,757.5c4.95,1.3,9.76,1.74,13.84-2.02c1.69-1.56,3.11-6.32,3.56-8.59c0.94-4.8,0.12-7.98-3.74-11.13
		c-4.9-3.85-5.28-3.09-10.89-4.03c-1.96-0.33-6.47-1.02-8.01-2.07c-1.2-0.87-2.92-2.53-2.69-4.14c0.27-1.9,1.8-4.45,3.78-4.89
		c1.35-0.24,4.35,0.86,5.86,1.18c6.1,1.27,5.37,1.57,9.07,6.21c3.37,4.22,4.33,0.72,5.85-2.59c2.14-4.61,0.09-4.47-0.37-8.45
		c-0.48-4.13-2.41-4.94-5.97-2.86c-0.4,0.24-1.19,1.07-1.65,0.46c-0.46-0.61-4.52-1.61-5.33-1.72c-1.94-0.24-9.18-0.21-10.29,0.32
		c-1.64,0.84-5.84,5.17-6.77,6.86c-1.16,2.12-2.32,6.84-1.64,9.2c0.66,1.97,2.86,4.59,4.72,5.54c1.6,0.81,2.77,1.18,4.38,2.18
		c4.99,2.93,10.97,1.29,14.27,3.53c2.94,2.54,1.62,6.22-0.57,8.75c-4.21,4.64-10.97-2.52-14.1-4.61c-1.36-0.83-1.29,0.12-1.36-1.61
		c-0.09-2.64-2.1-3.22-4.25-2.61c-3.47,1.16-3.46,4.52-3.58,7.67c-0.12,3.06,0.42,6.87,4.15,7.33c1.62,0.2,2.32-1.03,3.11-0.7
		C59.33,756.33,59.65,756.38,63.99,757.5L63.99,757.5z M99.1,734.83c0,4.63,0.02,9.27,0,13.9c-0.02,5.47-7.09,1.03-7.57,4.08
		c-0.28,1.75,1.84,5.14,3.49,5.79c4.13,1.65,9.21,0.55,13.58,0.67c2.01,0.06,3.43-0.43,3.89-2.61c0.3-1.43,0.22-4.14-1.47-4.75
		c-2.02-0.73-4.12,0.81-4.28-2.98c0.22-5.53,0.2-11.05,0.39-16.56c0.2-2.72,1.7-2.74,3.57-4.49c2.55-2.39,3.14-5.16,7.56-5.22
		c7.32-0.09,6.13,8.61,6.23,13.54c0.08,3.39,0.15,6.77,0.09,10.16c-0.06,2.94-0.26,4.68-3.38,5.44c-2.95,0.6-4.41,2.34-3.26,5.36
		c0.61,1.59,1.78,1.25,3.31,1.44c5.61,0.71,9.54,1.81,15.23,0.1c1.89-0.57,2.76-1.16,2.94-3.27c0.34-4.15-5.31-3.05-6.57-4.93
		c-1.02-1.71-0.39-17.2-0.33-19.74c0.1-4.33-1.02-6.64-2.77-10.48c-2.06-4.31-6.58-7.42-11.49-6.31c-4.95,1.28-7.33,3.74-11.01,6.94
		c-0.78,0.68-0.52-0.03-0.5-0.98c0.15-6.29,0.19-12.59,0.31-18.88c-0.07-1.87-0.92-2.54-2.35-3.66c-2.54-1.98-5.55-1.79-8.57-1.28
		c-2.56,0.43-4.57,1.75-4.51,4.61c0.08,3.68,4.24,2.82,6.77,3.06c0.53,0.05,0.38-0.08,0.45,0.66c0.21,2.01,0.15,4.48,0.2,6.54
		C99.27,718.93,99.31,726.87,99.1,734.83L99.1,734.83z M155.38,746.38c-2.38-1.78-3.17-6.27-3.39-9.07c-0.07-0.98-0.35-0.79,1.3-0.8
		l24.6-0.15c2.24-0.02,2.03-1.65,2.04-3.46c0.02-4.42-1.36-15.16-5.79-17.29c-1.77-0.85-4.93-1.52-6.99-2.25
		c-2.87-1.02-5.66-2.13-8.64-0.88c-2.52,1.23-8.74,5.63-10.23,7.94c-1.82,2.83-2.94,8.51-2.96,11.88c0.01,2.76,0.18,5.71,0.27,8.49
		c0.11,3.07,1.48,5.3,2.83,7.97c2.75,4.8,6.48,7.99,11.91,9.36c3.81,0.96,7.62-0.54,11.22-1.77c4.37-1.5,4.13-2.28,6.17-6.22
		c1.72-3.3,3.36-5.43,1.96-9.23c-1.38-2.85-5.76-2.08-6.63,0.74c-1.59,4.77-3.97,9.27-9.69,9.34
		C160.05,750.99,157.95,748.41,155.38,746.38L155.38,746.38z M154.24,729.6c-1.36-0.16-1.32-0.55-0.86-1.87
		c0.56-1.6,2.96-4.29,4.22-5.48c1.51-1.43,3.63-2.43,5.69-2.72c3.53-0.34,8.46,6.05,8.53,8.89c0.02,0.91-0.61,0.65-1.27,0.6
		C165.04,728.59,159.76,730.19,154.24,729.6L154.24,729.6z M230.66,719.14c-0.26-1.49-0.86-1.6-2.24-2.25
		c-3.69-1.76-7.02-1.55-10.97-1.39c-2.69,0.11-5.26,0.61-5.13,3.94c0.12,3.09,2.78,3.9,5.42,3.7c7.58-0.55,5.8,4.25,5.71,12.52
		l0.16,15.57c-0.32,1.27-10.18-1.93-11.46,3.33c-0.71,2.92,1.77,4.53,4.42,4.71l17.13-0.12c2.67-0.02,6.89-0.53,7.44-3.81
		c0.34-2.01-0.62-3.71-2.71-3.86c-1.32-0.1-2.31,0.22-3.83,0.06c-3.71-0.4-4.13-1.03-4.02-4.97c0.15-5.19,0.94-10.05,0.91-15.35
		C231.48,727.36,231.3,722.95,230.66,719.14L230.66,719.14z M232.52,707.39c-0.42-4.33-4.33-6.12-7.73-6.79
		c-4.42-0.85-5.78,2.38-5.78,6.03c0.25,5.63,3.59,6.54,8.63,6.06C231.19,712.28,232.54,711.03,232.52,707.39L232.52,707.39z
		 M269.85,713.86c-3.32-0.88-4.57-1.19-8.09-1.16c-6.29,0.05-7.33,0.6-11.34,5.45c-2.03,2.44-2.71,4.61-3.19,7.73
		c-0.62,4.03,1.87,7.29,5.21,9.06c1.43,0.73,2.72,1.31,4.14,2.09c4.66,2.56,7.82,1.33,12.29,2.68c3.27,0.99,4.04,2.89,3.23,6.02
		c-0.57,2.05-1.86,4.06-3.85,4.95c-3.7,1.15-9.06-3.69-11.87-5.74c-1.81-1.3-1.32,0.03-1.76-2.36c-0.7-3.6-5.44-2.68-6.82-0.06
		c-1.19,2.26-2.47,12.62,3.25,12.88c1.51,0.02,2.33-0.67,2.71-0.67c0.11,0,3.29,1.24,4.03,1.45c1.77,0.48,3.52,0.97,5.29,1.45
		c5.53,1.46,12.25,1.33,15.07-4.59c2.44-5.41,4.11-12.77-1.35-16.98c-5.6-4.25-6.38-3.55-12.96-4.6c-3.41-0.55-6.12-0.97-8.45-3.82
		c-1.19-2.03-0.21-4.43,1.28-5.99c2.03-2.13,4.55-0.47,6.95,0.08c1.82,0.37,5.16,0.74,6.52,2.04c1.21,1.24,4.75,6.95,6.38,6.2
		c1.6-0.73,3.53-5.84,3.6-7.61c0.07-1.84-1.23-8.09-2.82-9.06c-1.81-1.1-4.36,1.28-5.59,1.42L269.85,713.86L269.85,713.86z
		 M348.56,744.01c1.25-7.66,3.86-28.97-6.61-31.2c-1.76-0.37-4.42-0.75-5.98,0.32c-1.09,0.75-3.09,3-2.89,4.45
		c0.4,2.94,4.22,2.61,5.43,3.52c4.05,3.04,4.91,27.95-8.17,31.2c-2.98,0.71-3.62-0.92-4.98-3.18c-0.83-1.36-0.9-2.06-0.92-3.63
		c0.19-6.58,0.1-12.9,0.08-19.45c0-2.22,0.05-4.35,0.3-6.56c0.24-2.01,0.12-4.23-1.48-5.71c-0.99-0.91-4.54-0.3-5.64,0.24
		c-2.29,1.15-3.47,3.97-1.95,6.3c1.11,1.7,1.07,1.13,1.04,3.43c-0.1,7.61,0.01,15.15-0.18,22.77c-0.03,4.04,1.12,10.3,5.44,11.91
		c3.81,1.35,14.23,0.91,17.47-2.37c0.83-0.84,1.65-1.7,2.48-2.54c0.17,7.01,4.14,5.34,9.29,5.55c2.17,0.09,3.77-0.4,4.08-2.85
		C356.04,750.93,346.87,754.91,348.56,744.01L348.56,744.01z M405.51,746.22c1.56-6.77,1.31-7.29,0.44-14.06
		c-0.67-5.26,1.75-4.26,0.07-9.45c-0.81-2.51-2.15-5.01-4.16-6.75c-3.78-3.28-12.72-3.8-16.39-1.39c-1.65,1.13-4.73,5.38-5.84,5.84
		c-0.55,0.22-0.02-2.28-2.01-4.58c-2.58-2.98-4.69-3.15-8.58-2.42c-2.67,0.5-3.09,1.65-3.19,4.28c-0.13,3.46,1.39,4.64,4.23,5.88
		c1.55,0.68,1.34,1.05,1.38,2.84c0.04,1.72,0.12,4.72-0.5,6.33c-0.81,1.89-2.22,3.33-0.89,5.67c1.11,1.95,3.69,1.94,3.1,5.71
		c-0.29,1.85-1.49,3.01-2.68,4.34c-2.08,2.31-3.59-0.09-5.72,3.26c-1.99,3.12,1.98,7.16,3.64,7.2c1.19,0.03,2.96-0.19,4.24-0.25
		c1.79-0.09,9.64-0.31,10.67-0.91c1.61-1.28,1.21-5.52-0.01-7.02c-1.33-1.64-3.87-1.51-3.97-2.77c-0.07-0.89,0.04-2.63,0.04-3.63
		c-0.01-3.1-0.35-10.07,0.79-12.69c0.45-1.04,3.22-5.54,4.21-6.02c0.86-0.42,2.2-0.84,3.17-1.27c7.09-3.16,6.18-4.63,9.06,1.51
		c1.77,3.82,1.62,6.76,1.54,10.87c-0.12,4.05-0.97,10.42-4.45,13.03c-2.72,2.04-3.87-0.83-4.07,4.74c-0.07,2.02,0.91,4.03,3.14,4.1
		c2.94,0.09,11.85,0.78,14.09,0.35c1.84-0.39,2.8-2.22,3.76-3.74c0.89-1.41,0.84-1.92,0.12-3.44c-1.89-3.96-6.31-1.32-5.79-3.75
		C405.08,747.45,405.33,746.81,405.51,746.22L405.51,746.22z M452.25,743.19c-0.1-2.95-1.12-5.03-3.37-6.89
		c-1.33-1.08-3.97-3.2-5.61-3.59c-3.43-0.81-11.45-1.33-14.06-3.09c-5.63-3.79-0.58-8.41,0.98-8.88c1.73-0.38,4.26,0.67,5.97,1.14
		c2.67,0.54,4.77,0.4,6.55,2.82c4.28,5.79,5.56,7.68,8.62,0.58c1.3-3.01,0.51-4.29-0.21-7.29c-1.15-4.76-1.62-6.26-6.49-3.69
		c-1.69,0.89-1.46-0.01-3.3-0.55c-3.86-1.13-4.69-1.05-8.65-0.96c-5.87,0.09-6.22,0.48-10.04,4.94c-2.29,2.68-3.62,5.76-3.7,9.33
		c0.02,3.16,1.64,5.2,4.02,7.11c1.06,0.85,3.79,1.91,5.24,2.78c5.24,2.89,10.27,1.34,13.81,3.27c3.51,2.32,2.34,6,0.14,8.81
		c-4.09,5.01-10.88-2.08-14.61-4.5c-1.99-1.29-0.32-2.84-2.42-4c-2.14-1.19-5.22,0.6-5.91,2.92c-0.71,2.39-1.23,9.73,1.51,11.2
		c3.61,1.94,3.84-0.43,5.62,0.3c1.62,0.66,3.08,1.17,4.78,1.62c5.9,1.51,11.63,3.74,16.93-0.82
		C450.74,753.44,452.32,746.79,452.25,743.19L452.25,743.19z M493.4,735.97c-5.33-0.65-4.31,2.88-4.77,6.75
		c-0.31,2.62-1.69,6.6-3.92,8.13c-2.59,1.79-5.82-1.74-6.78-4.15c-1.52-4.63-1.22-15.51-1.22-20.75c0.07-2.13,0.69-2.8,2.37-4.01
		c2.44-1.74,11.52,2.16,10.37-4.49c-0.93-5.38-10.17-2.74-12.01-4.29c-2.21-1.86,0.62-9.97-1.32-13.02
		c-1.49-1.69-4.5-0.89-5.83,0.84c-3.35,5.05-0.08,9.75-1.99,11.64c-2.97,2.24-8.04-0.52-9.23,5.32c-0.8,3.89,2.81,5.92,6.35,4.82
		c2.07-0.64,3.29-1.17,3.6,1.83c0.21,2.06,0.05,4.57,0.04,6.68c0,5.33,0,10.67,0,16c0.14,4.1,1.88,6.46,4.79,9.19
		c2.91,2.72,5.81,2.79,9.6,2.21c4.38-0.67,9.87-2.62,10.74-7.57c0.42-2.38,0.15-3.14,1.08-5.66c0.96-2.7,1.52-4.52,0.88-7.4
		C495.72,736.41,494.89,736.29,493.4,735.97L493.4,735.97z M534.54,723.28c-1.17-3.64-3.61-6.51-6.63-8.85
		c-3.69-2.86-5.5-2.3-9.81-1.63c-8.19,1.23-7.37,1.5-12.59,7.5c-3.57,4.15-2.64,4.34-3.32,9.48c-0.86,6.55-0.62,6.87,0.46,13.37
		c0.91,5.48,1.03,4.75,4.42,9.22c2.5,3.29,4.51,5.48,8.64,6.65c9.08,2.59,15.76-7.92,19.01-14.87
		C537.81,737.54,536.64,729.99,534.54,723.28L534.54,723.28z M523.06,721c5.59,3.42,5.92,8.88,5.89,14.85
		c-0.02,2.77-1.01,4.5-1.99,7c-1.47,3.77-3.01,5.67-7.22,6.39c-4.82,0.49-6.68-2.18-8.48-6.27c-3.07-6.99-1.93-14.46,2.53-20.56
		C516.74,718.47,519.35,719.06,523.06,721L523.06,721z M554.32,730.24c0,10.59,0.04,21.15,0.1,31.73c0.01,2.67,0.07,4.8-3.17,4.86
		c-2.33,0.04-4.73,0.18-5.19,3.08c-0.61,3.85,2.72,4.65,5.74,4.67c4.94,0.03,9.86-0.03,14.81,0.03c2.33,0.03,4.08-0.37,4.11-3.17
		c0.02-2.42-1.57-4.11-3.95-4.4c-3.37-0.41-4.44-0.94-5.1-4.88c-0.34-2.12-0.34-7.5,1.11-9.1c0.36-0.33,0.67,0.13,1.06,0.41
		c8.46,5.81,18.36,3.46,21.85-6.67c3.37-9.79,3.3-21.79-3.01-30.41c-3.66-5-7.44-4.33-12.9-3.78c-3.6,0.37-5.14,2.2-7.79,4.33
		c-1.81-4.23-2.11-4.2-7.1-4.28c-2.29-0.03-4.89,0.01-7.19,0.07c-2.7,0.07-4.02,1.01-3.73,3.95c0.37,3.87,3.32,4.81,6.68,4.13
		c1.8-0.37,1.81-0.48,3.56-0.09C554.46,722.92,554.32,727.59,554.32,730.24L554.32,730.24z M563.24,727.27
		c1.33-3.29,3.58-6.46,6.81-8.12c2.31-1.18,5.26,0.28,6.73,2.14c5.85,7.4,3.67,25.29-4.38,27.95c-4.32,1.43-8.88-3.3-9.83-7.17
		l-0.77-7.5C561.79,732.93,562.29,728.22,563.24,727.27L563.24,727.27z M612.23,757.01c0.05-0.58,0.51-4.82,1.8-3.89
		c8.67,6.21,18.5,4.11,22.28-6.28c3.49-9.78,3.21-21.37-2.79-30.14c-3.61-5.27-7.48-4.72-13.14-4.08c-3.59,0.4-4.26,1.71-7,3.74
		c-1.04,0.77-0.73,0.65-1.29-0.64c-0.94-2.16-1.43-2.62-3.85-2.93c-1.84-0.16-10.48-0.24-11.85,0.21c-2.97,0.99-2.25,6.72,1.22,7.8
		c3.56,1.1,7.45-2.58,7.43,2.51c-0.01,2.06-0.1,4.11-0.1,6.2c0,10.94,0.07,21.87,0.09,32.81c0.02,7.48-4,2.74-7.25,5.5
		c-1.82,1.55-1.59,4.84,0.72,6.06c1.84,0.97,5.39,0.69,7.54,0.69c3.94,0,7.91,0.05,11.85,0.04c2.45-0.01,3.61-1.23,3.34-3.76
		C620.43,763.37,610.87,772.28,612.23,757.01L612.23,757.01z M613.72,727.45c0.36-0.57,0.8-1.79,1.23-2.55
		c1.35-2.35,4.57-6.14,7.5-6.15c7.18-0.03,8.72,11.53,8.18,16.84c-0.52,4.78-2.77,12.82-8.32,13.83c-4.9,0.69-8.78-4.42-9.35-8.82
		C612.5,737.02,611.85,730.77,613.72,727.45L613.72,727.45z M679.09,729.53c0.07-0.5,0.15-1,0.23-1.5c0.94-5.55-1.33-8.96-5.75-12.1
		c-3.53-2.48-10.54-2.57-14.73-2.46c-3.16,0.08-4.27,1-6.71,2.85c-3.45,2.61-5.07,5.15-3.8,9.6c1.42,4,4.22,6.78,7.67,2.62
		c2.12-2.73,0.5-6.01,5.18-7.18c2.55-0.33,8.61,0.31,10.27,2.42c0.97,1.55,1.14,3.84,0.12,5.38c-1.34,1.62-4.1,1.05-6.18,1.37
		c-3.8,0.63-8.44,2.41-12.08,3.82c-6.86,2.65-13.16,13.57-3.45,21.54c2.3,1.89,5.03,2.23,7.85,2.77c4.24,0.82,8.12,1.05,11.88-1.43
		c3.98-2.74,2.59-0.98,6.16,0.17c3.98,1.08,8.16,3.05,10.81-1.55c1.6-2.77,1.76-8.05-2.21-8.62c-2.84-0.41-3.43,2.94-5.02,4.58
		c-1.72,1.78-0.25-5.43-0.21-5.88C679.66,740.4,678.36,735.36,679.09,729.53L679.09,729.53z M671.09,739.18
		c2.31,1.87,1.95,4.08,0.65,6.48c-1.83,3.11-6.03,4.21-9.31,5.24c-3.02,0.79-7.25,0.32-8.79-2.76c-1.55-3.08,1.82-6.05,4.32-7.34
		C661.81,738.82,666.98,736.87,671.09,739.18L671.09,739.18z M719.06,715.05c-2.34,0.3-4.42,1.13-6.39,2.4
		c-4.2,2.75-2.74,2.88-2.95-3.22c-0.12-3.54-0.46-4.98-0.38-9.1c0.13-7.31-1.5-9.15-8.74-8.01c-3.82,0.6-7.57-1.41-7.23,3.74
		c0.22,3.32,3.33,4.94,6.41,3.79c1.53-0.57,1.74-0.76,1.73,1.39c-0.01,4.16-0.62,9.93,0.42,13.84c1.21,4.41,1.57,4.44,1.42,9.31
		c-0.08,2.79-0.03,3.96-0.99,6.66c-1.13,3.17-0.39,6.95-0.37,10.34c0.02,2.34-0.34,8.52,0.68,10.34c1.14,2.04,3.64,2.19,5.32,0.69
		c1.83-1.7,1.82-1.79,4.2-0.13c8.17,5.68,18.67,1.27,21.53-7.82c2.81-8.95,4.59-25.4-4.66-31.23
		C725.56,715.83,723.34,714.49,719.06,715.05L719.06,715.05z M713.06,725.15c2.83-3.8,8.27-4.47,11.59-0.88
		c4.1,4.43,4.91,10.54,3.69,16.26c-1.01,4.61-2.77,9.87-7.8,11.41c-2.37,0.72-4.3-0.76-6.27-1.89c-3.52-2.03-3.69-4.36-4.07-8.1
		C709.56,735.6,709.28,730.84,713.06,725.15L713.06,725.15z M763.66,725.15c0.03-4.93,0.06-9.86,0.1-14.79
		c-0.14-2.2-0.37-1.87-0.03-4.26c0.39-4.15-0.6-9.89-6.09-9.01c-3.72,0.6-2.07,0.55-5.7-0.19c-3.14-0.64-11.22,0.07-8.66,5.24
		c0.95,1.92,2.98,3.52,5.24,3.08c1.62-0.32,6.55-2.22,7.01,0.5c0.47,2.79,0.74,12.84,0.19,15.99c-0.63,3.45-0.89,3.37-0.34,7.08
		c0.92,6.19,0.47,11.61,0.59,17.83c0.05,4.89-2.06,4.22-6.14,3.95c-2.55-0.17-3.56-0.12-5.72,1.53c-2.7,2.06-3.24,4.41-0.4,6.69
		c3.5,2.83,7.1,0.38,11.08-0.24c2.7-0.42,8.26-0.47,10.75,0.48c2.38,0.9,4.03,2.04,6.82,1.2c5.29-1.6,2.81-9.77-1.97-9.66
		c-2.75,0.06-7.68,0.98-7.45-3.47c0.18-2.27,0.89-3.76,0.78-6.32c-0.08-1.89-0.22-3.16-0.15-5.12
		C763.67,732.15,763.65,728.64,763.66,725.15L763.66,725.15z M788.13,740.53c-0.08-0.43-0.63-3.48-0.32-3.79
		c0.4-0.39,23.96-0.37,26.15-0.38c1.39,0,1.72-1.26,1.61-2.38c0.31-4.91-1-16.02-5.94-18.43c-1.67-0.82-4.73-1.51-6.66-2.15
		c-6.53-2.19-7.15-2.42-13.08,1.73c-5.48,3.84-7.08,5.92-8.39,12.56c-0.87,4.54-0.3,9.18-0.21,13.76c0.13,2.78,1.48,4.44,2.66,6.85
		c2.86,5.73,6,7.65,11.9,9.74c3.76,1.33,5.89-0.26,9.45-1.17c5.65-1.44,5.9-2.26,8.45-7.32c1.48-2.92,2.86-4.83,1.79-8.19
		c-1.17-3.32-5.51-2.86-6.74,0.12c-1.44,3.7-0.98,3.13-3.42,6.54c-1.21,1.7-2.11,2.05-4.16,2.57c-4.49,1.13-6.9-1.17-9.95-4.06
		C789.24,744.6,788.71,743.26,788.13,740.53L788.13,740.53z M800.44,729.12c-3.53,0.28-7.55,0.95-11.06,0.43
		c-2.32-0.49,2.84-6.92,5.38-8.45c2.04-1.21,4.94-2.31,7.07-0.71c1.38,1.03,8.65,8.01,3.99,8.57
		C804.01,729.12,802.24,728.98,800.44,729.12L800.44,729.12z"/>
	<path d="M115.9,563.99c-1.69,0-4.7-1.88-8.09-4.48c0-5.27,1.5-10.91,3.39-15.99c0.56-1.32,2.07-3.35,3.2-5.42
		c3.2-4.33,6.21-9.59,4.51-16.74c-0.38-1.69-0.56-3.73-0.56-5.8c0-3.95,1.88-7.34,8.28-8.28c6.4-1.13,13.17-6.4,3.2-13.33
		c-7.77-4.86-31.08-1.65-38.65,3.13c-2,1.3-2.94,3.52-1.25,5.49c3.36,3.58,14.78,4.64,14.88,16.37c0,4.11-1.32,9.75-5.27,16.9
		c-0.56-0.19-1.32-1.13-1.69-1.88c-1.75-3.12-2.94-3.45-4.7-5.64c-1.69-2.26-3.39-5.64-4.33-8.65c-1.88-4.11-3.57-8.43-6.96-11.44
		c-3.99-3.73-4.13-4.91-0.96-9.34c1.59-2.22,2.96-2.73,4.91-4.5c5.05-4.57,7.74-6.83,10.33-13.54c4.09-10.62,3.84-26.35-3.9-35.29
		c-3.87-4.47-10.72-7.05-17.33-7.02c-7.26,0.05-13.61,2.47-19.64,6.37c-2.21,1.43-3.74,2.01-5.51,4.2
		c-1.97,2.44-2.28,5.65-2.84,8.63c-0.8,4.25-1.34,8.21-1.36,12.55c0.07,8.35,1.72,13.1,6.5,19.72c2.27,3.15,5.15,7.2,2.3,11
		c-0.51,0.68-2.18,2.06-2.89,2.78c-16.66,16.75-19.41,36.51-10.36,57.93c1.06,2.5,4.74,10.42,6.57,12.47
		c1.84,2.06,15.56,6.23,18.91,6.6c10.66,1.2,21.11-4.14,28.55-11.44l0.28-0.28c4.01,4.51,6.47,4.53,10.91,7.34
		c4.33,2.44,7.61,4.51,12.6,4.51c3.57,0,6.77-1.13,9.97-3.76c7.54-6.36,12.74-13.57,10.05-23.92c-1.29-4.98-4.56-7.36-9.74-6.6
		c-6.47,0.95-6.94,6.96-8.98,11.89C119.54,560.17,118.02,563.86,115.9,563.99L115.9,563.99z M59.85,517.81c2.48-6,5.98-5.49,9.03,0
		c1.67,2.87,3.29,5.48,5.25,8.17c3.85,5.62,6.68,11.83,9.61,17.95c1.86,3.89,4.44,2.73,3.56,8c-1.34,8.06-8.81,13.15-17.38,10.59
		c-5.39-1.6-10.06-5.58-13.87-9.58c-2.44-2.58-3.91-7.75-3.91-11.31C52.13,533.75,56.85,525.02,59.85,517.81L59.85,517.81z
		 M71.88,455.45c1.13,0,2.45,0.19,3.76,0.75c5.35,2.6,8.42,11.56,5.83,16.9c-2.46,5.08-4.91,10.3-9.78,13.51
		c-8.59-3.92-11.23-12.93-9.85-21.72C62.52,460.56,67.45,455.58,71.88,455.45L71.88,455.45z M283.41,541.88
		c-0.03-1.16,3.27-12.48-7.99-12.1c-6.66,0.56-11.34,5.08-11.45,11.89c-0.18,12.08-8.51,16.56-18.68,21.23
		c-10.26,4.72-21.94-1.24-25.46-11.68c-1.31-3.88-5.41-14.97-7.39-18.52c-2.24-4-1.79-6.53-1.48-11.3
		c0.65-9.94,3.59-19.08,8.83-27.55c2.31-3.67,3.38-3.07,7.33-4.14c4.8-1.32,8.67-2.72,13.19-4.81c4.02-1.72,7.75,0.41,11.35,2.27
		c1.41,0.73,3.95,1.75,4.86,2.49c-0.21,1.16-2.23,3.85-2.86,5.63c-0.74,3.74-0.43,11.18,1.54,14.51c3.88,6.55,14.22,2.48,19.52,0.18
		c2.82-1.22,3.67-2.62,4.65-5.49c1.72-5.04,0.9-10.54,1.03-15.77c0.13-4.61-0.97-4.95-3.86-8.29c-1.53-1.77-5.58-6.94-7.09-8.03
		c-2.02-1.46-4.52-1.13-6.95-1.53c-3.01-0.49-5.25-1.21-8.42-1.49c-2.61-0.24-4.8-0.52-7.39-0.94c-9.63-1.56-19.05-1.47-27.47,4.07
		c-1.49,0.98-2.27,1.45-3.86,2.25c-27.19,13.83-27.12,55.07-16.36,79.4c5.73,12.48,13.57,22.52,27.73,25.3
		c4.65,0.91,3.01,0.85,6.76,3.06c3.96,2.33,9.04,1.93,13.44,1.42c4-0.46,3.72-2.24,6.94-3.9c2.13-1.1,4.13-1.88,6.29-3.1
		C274.3,568.95,284.02,559.11,283.41,541.88L283.41,541.88z M321.21,574.07c8.64,7.78,16.85,11.23,24.19,11.23
		c18.01-0.12,30.06-18.64,37.78-32.67c1.04-1.89,5.09-9.34,5.51-10.91c4.52-16.76,2.42-32.88-2.87-49.02l-1.76-5.04
		c-2.59-4.54-16.42-22.9-27.87-22.47c-5.62,0.22-9.07,1.08-13.18,1.94c-5.26,0.74-10.29,2.08-15.63,2.53
		c-4.99,0.42-4.13,4.34-6.25,7.72c-2.24,3.57-7.05,6.87-10.35,9.61c-3.29,2.74-4.29,3.47-4.95,7.86c-0.56,3.71-1.59,3.59-1.01,8.02
		c0.66,4.98-0.97,7.29-1.96,11.91c-2.09,10-0.41,17.16,2.05,26.78c0.9,3.52,0.68,4.66,0.9,8.14c0.32,5.11,2.31,6.35,5.14,10.23
		C314.4,564.63,317.8,569.36,321.21,574.07L321.21,574.07z M343.46,559.81c-1.3-0.22-3.24-0.65-3.67-0.86
		c-11.23-6.48-17.5-22.47-17.5-37.16c0.04-11.83,3.43-17.93,8.97-27.48c2.81-4.81,6.31-9.21,11.9-10.8c2.7-0.77,4.31,0.45,6.78,1.24
		c6.52,2.07,11.61,4.63,15.63,10.39c5.74,8.38,5.75,17.83,5.99,27.55c0.06,2.52,0.73,6.32-0.13,8.53c-0.59,1.53-1.72,2.99-2.41,4.72
		c-1.5,3.71-1.84,7.28-3.71,11.17C361.01,556.08,353,559.42,343.46,559.81L343.46,559.81z M434.62,505.37
		c0,3.67-0.65,7.78-1.08,12.53c-0.65,6.05-1.08,13.83-1.08,22.03c0,3.02,0,7.78,0.22,11.23c-0.22,3.67-0.22,7.34,0.86,11.02
		c-0.86,2.38-4.97,2.81-7.56,2.81c-7.78-0.22-15.34,1.08-20.09,8.64c-0.79,1.75-0.39,5.68,0.09,7.53c0.71,2.79,2.97,3.27,5.45,3.31
		c7.1,0.12,14.3,0.09,21.41,0.14c13.04,0.1,26.11,0.03,39.15,0.03c4.54,0.43,9.51,0.22,10.37-7.34c0.61-8.4-8.04-12.1-13.61-12.1
		c-0.65,0-1.08-0.22-1.73-0.22c-12.53-0.65-15.34-4.54-15.34-10.15c0-1.94,0.43-4.97,0.86-7.99c0.97-8.25,1.42-14.34-0.24-22.59
		c-0.64-3.21-0.3-7.22-0.23-10.56c0.08-4,0.17-8,0.25-12.01c0-5.62,2.38-8.86,8.21-8.64h8.21c5.42-0.06,11.44-2.22,12.43-8.28
		c1.19-7.27-6.97-8.53-6.8-8.79c0.05-0.08-1.97-0.88-2.26-1.05c-4.04-2.31-9.16-1.8-13.3-0.02c-3.3,1.81-3.89,3.65-3.89-5.4
		c0.02-4.39,0.7-8.69,0.94-13.09c0.18-3.33,1.22-3.73,3.7-5.7c5.16-4.11,12.93-9.8,19.49-5.19c0.48,0.34,0.43,0.27-0.15,1.07
		c-0.67,0.93-1.46,1.91-2.16,2.83c-2.86,5.57-1.4,8.88,2.08,13.51c-0.17,0.02,2.95,6.15,8.34,6.81c7.31,0.88,14.53-5.12,17.23-11.61
		c2.54-6.1,1.7-13.29-1.59-18.94c-6.5-11.15-18-13.66-29.83-15.22c-6.92-0.91-14.52,0.21-20.44,4.06
		c-7.18,4.67-11.44,12.57-14.58,20.3c-0.96,2.38-1.87,5.13-2.9,7.4c-1.01,2.24-2.29,3.16-2.26,6.04c0.04,3.41,3.69,6.64,3.29,9.04
		c-0.37,2.25-6.19,4.68-7.95,5.39c-8.83-1.26-17.89-7.44-23,6.62c-1.08,2.98,0.07,5.28,2.15,7.48c4.06,4.28,9.98,2.94,15.35,3.25
		C431.14,494.05,434.56,496.82,434.62,505.37L434.62,505.37z M532.48,493.49c11.02,0.22,13.61,4.1,13.61,11.88
		c0,3.67-0.65,7.78-1.08,12.53c-0.65,6.05-1.08,13.83-1.08,22.03c0,3.02,0,7.78,0.22,11.23c-0.22,3.67-0.22,7.34,0.86,11.02
		c-0.86,2.38-4.97,2.81-7.56,2.81c-7.33-0.18-14.53,1-19.18,7.29c-1.71,2.31-1.56,4.82-1.1,7.55c0.6,3.57,2.18,4.57,5.73,4.67
		c2.53,0.02,5.09-0.04,7.64-0.01c7.13,0.06,14.26,0.17,21.39,0.17h31.54c4.54,0.43,9.5,0.22,10.37-7.34
		c0.34-6.66-4.73-10.66-10.79-11.82l-4.55-0.5c-18.05-0.81-15.72-8.57-14.47-18.15c1.1-8.47,1.37-14.34-0.38-23.32
		c-0.52-2.68,0.12-17.33,0.16-21.83c0-5.62,2.38-8.86,8.21-8.64h8.21c13.08-0.07,15.87-11.71,8.84-15.67l-5.81-2.65
		c-4.05-2.09-10.05-1.64-13.9,0.73c-2.21,1.36-2.64,1.51-2.85-1.64c-0.39-5.83,0.41-10.67,0.75-16.37c0.28-4.68,1.65-5.16,5.21-7.86
		c5.78-4.37,11.68-8.23,18.57-3.85l-2.81,3.67c-2.78,5.42-1.49,8.67,1.87,13.24c1.01,1.37,1.74,2.95,2.97,4.3
		c4.96,5.4,13.48,2.31,18.09-2.04c7.73-7.29,7.95-18.56,2.26-27.12c-6.81-10.23-18-12.35-29.3-13.87
		c-18.86-1.84-28.17,8.2-34.69,24.4c-1.02,2.52-2.58,7.31-3.93,9.26c-4.5,6.97,4.93,10.96,1.1,14.74c-1.59,1.56-4.57,2.88-6.66,3.74
		c-2.58,1.07-17.01-9.45-23.17,6.32c-1.2,3.08-0.42,5.18,1.73,7.61C522.13,494.13,527.15,493.49,532.48,493.49L532.48,493.49z
		 M648.48,526.97l67.18-0.43c3.54-0.01,4.38-3.21,4.1-6.05c1.21-11.52-3.56-39.08-13.04-46.38c-3.03-2.33-5.46-0.53-9.32-2.26
		c-3.11-1.4-3.9-2.22-7.51-3.01c-3.14-0.69-4.89-1.14-7.92-2.3c-2.49-0.96-7.49-3.28-9.98-3.01c-1.66,0.18-8,2.92-9.67,3.93
		c-4.8,2.92-10.5,7.05-15.05,10.5c-6.52,4.95-10.19,9.89-11.9,17.97c-0.7,3.29-1.92,6.13-2.6,9.51c-2.25,11.51,0.38,21.2-0.17,32.38
		c-0.32,6.54,1.56,9.97,5.02,15.24c1.96,2.99,1.36,3.79,2.59,6.44c0.98,2.09,3.33,4.69,4.77,6.7c8.16,11.37,16.27,10.91,25.99,15.85
		c3.85,1.96,4.06,2.02,8.24,0.68c5.39-1.72,10.82-3.22,16.22-4.98c2.12-0.68,2.73-0.59,4.82-0.95c6.76-1.15,9.34-5.18,11.76-11.15
		c0.38-0.93,0.57-1.8,1-2.82c1.16-2.72,2.56-3.95,3.99-6.41c3.13-5.39,4.61-10.6,2.84-16.8c-2.12-7.42-8.45-7.36-14.24-4.04
		c-3.79,2.17-2.82,3.97-3.93,7.46c-2.05,6.43-5.66,9.79-9.31,15.14c-1.21,1.76-2.76,2.28-4.72,3.1c-9.97,4.15-17.2,3.08-24.81-4.78
		c-3.33-3.47-6.76-5.07-8.37-7.27C650.84,544.26,649.54,533.19,648.48,526.97L648.48,526.97z M684.13,485.07
		c6.05,5.62,15.12,13.82,15.12,20.95c0,0.65-0.22,1.3-0.43,2.16c-13.21-2.12-33.08,3.25-46.66,0.86c-0.71-1.59-0.36-0.42-0.25-1.95
		c0.46-6.38,6.31-10.6,10.13-15.29c2.26-2.77,2.64-2.79,5.8-4.55C673.14,484.31,678.37,481.98,684.13,485.07L684.13,485.07z
		 M819.79,533.45c-2.73,0.05-5.61,1.27-7.83,2.79c-2.49,1.9-2.32,5.61-3.49,8.53c-2.05,5.15-4.89,7.93-7.93,12.33
		c-1.93,2.79-2.92,3.2-6.01,4.46c-9.99,4.08-17.44,2.26-24.78-5.55c-5.3-5.64-8.29-3.54-11.25-14.86
		c-1.22-4.68-1.84-9.43-2.65-14.18l67.18-0.43c3.54-0.01,4.38-3.21,4.1-6.05c1.27-11.43-3.68-40.23-13.71-46.84
		c-2.29-1.51-4.52-0.5-7.27-1.32c-3.09-0.92-4.71-2.62-8.36-3.37c-4.7-0.96-5.1-1.33-9.23-2.83c-8.98-3.27-7.59-3.27-15.34-0.49
		c-3.17,1.14-5.69,3.26-8.44,5.2c-1.58,1.11-9.37,6.86-8.31,5.8c-7.56,5.18-12.96,11.66-14.04,21.17
		c-2.59,6.26-3.24,11.88-3.24,17.93c0.03,6.42,0.77,12.97,0.88,19.39c0.04,2.4-0.37,4.13-0.03,6.72c0.61,4.79,2.8,7.64,5.19,11.6
		c1.54,2.55,1.3,3.92,2.42,6.17c1.11,2.23,3.39,4.58,4.89,6.83c5.5,8.09,12.26,10.16,20.88,13.44c2.37,0.9,4.26,1.98,6.5,2.96
		c3.64,1.6,6.24,0.07,9.73-1.05c4.24-1.36,8.57-2.6,12.83-3.93c4.73-1.47,8.73-0.78,12.65-4.78c2.39-2.43,3.72-5.93,4.84-9.09
		c2.12-6,10.37-12.14,7.36-23.98C826.31,536.03,824.07,533.54,819.79,533.45L819.79,533.45z M786.09,483.55
		c1.73,0,3.46,0.43,5.4,1.51c4.91,4.56,15.68,14.09,15.11,21.36c-0.03,0.34-0.27,1.45-0.54,1.61c-0.15,0.08-5.22-0.33-5.91-0.34
		c-7.96-0.16-16.14,1.05-24.08,1.63c-3.29,0.23-13.38,0.72-16.15-0.35c-1.28-0.49-0.7-2.17-0.46-3.21
		c1.29-5.74,5.76-8.96,9.37-13.26c2.66-3.22,2.71-3.22,6.41-5.24C778.59,485.43,782.18,483.63,786.09,483.55L786.09,483.55z"/>
</g>
</svg>
