<?xml version="1.0" encoding="utf-8"?>
<!-- Generator: Adobe Illustrator 25.0.0, SVG Export Plug-In . SVG Version: 6.00 Build 0)  -->
<svg version="1.1" id="Layer_1" xmlns="http://www.w3.org/2000/svg" xmlns:xlink="http://www.w3.org/1999/xlink" x="0px" y="0px"
	 viewBox="0 0 864 864" style="enable-background:new 0 0 864 864;" xml:space="preserve">
<g>
	<path d="M54.98,303.3c0.93,5.72,8.62-4.2,13.1,5.23c15.32,29.2,17.42,21.25,8.44,33.09c-2.1,2.77,1.31,5.53,3.15,4.41l27.54-16.55
		c2.2-2.32-0.88-5.73-4.05-4.53c-1.36,0.49-7.97,5.78-11.34,0.18c-24.35-39.48-18.7-23.35-6.88-35.18c3.23-3.23-1.99-8.46-5.64-5.24
		c-1.13,1-6.78,8.59-10.75,1.98c-3.76-6.26-9.58-15.45-9.35-21.09c0.58-14.49,13.67-6.71,17.97-6.82c3.23-0.08,5.99-4.26,3.48-7.73
		c-8.02-11.08-24.66,1.91-29.18,10.24c-8.45,15.54,11.79,28.42,5.15,38.38C55.81,300.81,54.76,302.1,54.98,303.3L54.98,303.3z
		 M151.03,307.34c3.46-1.66,2.41-10.06-4.01-8.01c-3.15,1-5.47,2.64-8.1-2.42l-28.74-64.12c-4.43-11.2-18.69,8.14-19.77,11.07
		c-1.57,4.27,4.91,2.75,6.77,2.27c6.48-1.66,8.58,7.14,13.25,14.78l18.4,42.27c2.73,6.62-2.62,7.23-6.21,10.71
		c-2.59,2.51-0.43,8.54,8.85,3.32L151.03,307.34L151.03,307.34z M188.38,246.03c-3.29-11.56-14.31-17.68-25.23-10.43
		c-32.42,21.52-2.34,30.6-1.1,15.89c0.16-2.03-0.54-6.8,0.12-8.71c4.16-11.37,22.88,8.12,11.91,19.93
		c-5.74,6.18-15.91,13.46-14.6,24.88c0.84,7.35,11.76,16.09,22.7,3.58c13.37-15.28,5.67-6.38,14.75-4.39
		c12.24,2.75,15.64-13.06,10.65-13.03C197.83,273.47,197.91,279.89,188.38,246.03L188.38,246.03z M181.52,268.48
		c2.25,6.08,7.85,16.27-5.97,16.66c-3.74,0.11-8.72-7.29,0.55-17.38C178.13,265.48,180.53,265.81,181.52,268.48L181.52,268.48z
		 M253.21,211.15c-0.71-4.17-12.29-0.41-16.99,0.84c-5.45,1.45-5.31,6.61,1.03,6.64c11.45,0.05,10.73,33.05,5.63,34.41
		c-3.6,0.96-15.45-17.11-19.69-22.57c-6.05-7.81,1.28-6.81,0.33-10.39c-0.59-2.2-1.88-3.18-4.05-3.04
		c-0.55,0.05-25.57,3.54-13.4,10.48c12.29,7.01,27.26,35.85,35.53,43.37c3.46,3.05,7.44,1.41,8.03-3.02
		c1.18-8.66-1.31-10.18,3.3-19.12c3.64-7.07,8.19,8.14,13.56,13.9c3.18,3.41,8.49,1.67,8.64-5.68c0.24-12.17,3.79-24.87,3.97-38.14
		c0.15-11.05,3.24-7.78,4.29-14.83c1.03-6.92-12.06-1.53-17.45,0.23c-3.35,1.09-3.32,3.79-0.09,5.76
		c7.63,4.89,4.36,12.52,3.53,20.99c-0.38,3.83-0.24,12.85-5.28,8.91c-3.87-2.94-7.06-10.48-9.37-15.31
		C252.52,220.16,254.09,216.65,253.21,211.15L253.21,211.15z M305.48,226.35c4.01,20.61,26.07,39.09,45.82,18.02
		c3.07-3.28,2.81-9.22-1.38-8c-2.07,0.68-3.65,5.45-5.68,6.41c-13.13,6.42-22.64-5.13-23.1-16.01c-0.33-7.87,12.51-3.95,26.6-8.75
		c4.4-1.53,4.71-10.92,1.99-14.51c-5.67-7.96-9.27-9.25-19.17-10.65C318.68,191.15,303.19,207.09,305.48,226.35L305.48,226.35z
		 M330.22,198.34c4.37,0.63,7.98,2.08,8.71,8.2c2.1,10.42-6.77,10.47-14.35,9.37c-7.4-1.09-5.36-16.92,4.21-17.54
		C328.79,198.37,330.07,198.36,330.22,198.34L330.22,198.34z M430.32,239.79c-0.88-3.41-13.21,1.49-11.52-12.1
		c0.81-6.57-2.01-45.07-0.23-63.57c1.04-10.76-8.73-7.05-18.32-4.97c-3.73,0.81-4.65,3.9-1,5.71c3.3,1.64,7.2,3.86,7.29,7.36
		c0.45,18.84,4.02,17.01-18.75,18.94c-7.05,0.6-12.84,9.51-15.71,15.31c-5.25,10.59-2.66,15.72-0.71,24.2
		c2.69,11.69,17.69,22.58,31.06,14.34c3.08-1.89,4.67-3.93,8.1-0.33C417.08,251.56,431.02,242.36,430.32,239.79L430.32,239.79z
		 M380.65,220.49c-0.35-14.79,3.22-28.76,21.5-22.84c9.52,3.08,4.92,17.59,4.75,32.32C406.74,243.79,381.15,241.65,380.65,220.49
		L380.65,220.49z M522.15,238.69c3.25,0.09,6.72,11.25,11.4,13.67c9.41,4.86,26.58-0.97,26.06-13.22
		c-0.35-8.38-9.04-0.39-17.22-0.91c-4.69-0.29-13.67-5.82-11.51-11.54c7.79-20.62,23.95-21.86,28.63-26.37
		c2.49-2.4-2.39-5.01-4.67-5.28c-3.44-0.41-18.88-1.41-21.78,0.13c-6.25,3.29,5.38,5.95,2.6,10.62
		c-8.31,13.95-12.28,10.42-21.15-6.39c-5.26-9.97,8.03-5.72,13.86-22.55c3.23-9.33-4.98-23.58-20.9-21.68
		c-6.57,0.78-10.98,1.01-14.5,6.29c-12.37,18.58,10.58,29.85-2.12,32.25c-8.91,1.69-18.18,8.91-20.49,18.18
		c-1.21,4.85-3.39,13.8-1.94,18.67c6.02,20.24,33.92,27.84,49.91,11.39C519.47,240.8,520.3,238.61,522.15,238.69L522.15,238.69z
		 M499.79,238.89c-5.42-1.36-9.43-1.41-14.19-7.13c-7.25-8.83-1.9-22.17,2.91-26.86c2.54-2.47,5.86-9.42,11.08-5.27
		c6.25,4.97,27.01,30.31,15.29,36.33C509.86,238.51,505.07,240.23,499.79,238.89L499.79,238.89z M517.07,174.36
		c-0.44,3.65-6.01,14.31-10.37,10.08c-10.65-10.35-3.1-27.18,6.58-20.41C516.85,166.6,517.58,170.12,517.07,174.36L517.07,174.36z
		 M633.44,233c3.1,2.18,9.41-7.53,2.79-13.24c-16.56-14.28-39.28,4.34-26.4,21.22c6.38,8.36,18.02,19.54,8.98,24.31
		c-16.07,8.47-12.29-20.37-19.06-12.43c-10.49,12.31,4.58,19.91,13.68,21.01c12.33,1.49,23.14-9.28,20.52-20.14
		c-3.17-13.11-23.72-27.08-13.79-32.22C629.27,216.81,632.1,232.03,633.44,233L633.44,233z M660.2,241.29
		c-4.69,11.16-19.16,36.58-7.58,45.1c12.69,9.34,26.37-0.41,21.63-3.98c-4.61-3.48-22.83,14.74-4.17-29.74
		c1.37-3.28,3.37-9.52,5.73-10.16c4.17-1.03,14.83,0.48,15.25-1.49c2-8.14-14.58-6.18-14.88-11.41c-0.3-3.29,3.54-10.82-3.52-9.34
		c-2.76,0.59-1.96,7.88-14.34,9.67l-0.19,0.12C655.01,233,663.15,234.56,660.2,241.29L660.2,241.29z M714.66,265.08
		c5.21-12.25,13.25-18.43-6.6-16.85c-11.62,0.92-0.18,7.21-6.85,18.72c-5.89,10.15-9,23.57-16.13,25.29
		c-4.69,1.14-3.08,5.49-2.18,5.87c-0.41,0.98,28.22,17.51,19.92-0.36c-2.09-4.49,0.86-8.06,3.23-13.46
		C707,282.06,712.06,271.23,714.66,265.08L714.66,265.08z M718.01,222.94c-5.12,12.08,9.46,9.41,9.58,9.46
		c5.73-2.59,7.92-12.87-4.01-13.13C720.38,219.16,719.28,219.93,718.01,222.94L718.01,222.94z M738.48,326.03
		c3.38,1.82,9.55-3.97,4.12-7.95c-2.67-1.95-5.35-2.87-2.81-7.98l34.96-60.96c6.46-10.17-17.57-10.33-20.58-9.47
		c-4.37,1.24,0.67,5.59,2.14,6.81c5.15,4.26-0.73,11.14-4.16,19.4l-23.36,39.75c-3.75,6.1-7.39,2.14-12.32,1.28
		c-3.55-0.62-7.16,4.68,2.52,9.11L738.48,326.03L738.48,326.03z M773.6,346.56c3.29,1.98,9.73-3.52,4.49-7.75
		c-2.57-2.08-5.21-3.12-2.43-8.1l37.77-59.26c6.92-9.87-17.08-11.14-20.11-10.43c-4.42,1.03,0.4,5.61,1.82,6.9
		c4.95,4.5-1.25,11.1-5.06,19.19l-25.19,38.61c-4.03,5.92-7.48,1.79-12.37,0.7c-3.52-0.78-7.38,4.33,2.09,9.22L773.6,346.56
		L773.6,346.56z"/>
	<path d="M134.61,573.95c-12.08-4.78-20.4-22.36-24.79-52.87c-2.64-18.27-3.34-46.48-4.16-70.13
		c-6.42,11.77-11.53,23.37-25.26,55.85c-4.6,10.89-11.84,28.43-15.45,34.52c-1.94,3.27-5.67,7.93-8.55,9.26
		c-8.57,3.93-16.22-1.8-18.44-10.12c-2.89-11.12-2.04-30.4-0.94-42.75c0.55-5.73,1.41-12.86,2.67-21.42
		c5.45-37.21,12.74-73.02,21.02-100.33c1.41-4.64,6.22-8.21,11.14-7.06c7.24,1.57,8.84,8.52,7.61,14.98
		c-1.27,5.35-2.96,15.46-4.39,22.51c-5.49,27.53-9.81,52.25-12.87,73.98c-1.57,10.95-3.86,25.64-4.32,35.61
		c3.19-6,7.13-14.69,10.75-22.28c13.96-29.26,23.53-48.17,28.71-56.72c1.55-2.45,5.34-7.16,7.61-8.32
		c4.72-2.41,9.27-1.08,12.63,3.45c9.52,12.85,1.4,87.16,19.3,120.1c1.72,3.14,2.98,4.71,3.69,4.71c2.72,0,10.46-15.13,12-18.59
		c5.81-13.81,11.38-32.71,16.71-56.79c5.76-25.83,11.24-57.28,12.55-83.55c0.15-3.01,1-20.31,0.16-21.34
		c-0.5-0.61-0.92-0.57-1.88-0.63c-6.44-0.36-7.13-6-5.49-8.86c1.86-3.24,6.37-6.75,10.12-6.75c1.18,0,2.43,0.31,3.69,0.94
		c3.77,1.49,6.12,5.18,6.9,10.98c1.65,12.91,1.2,25.27,0.16,39.3c-2.79,37.44-12.89,95.07-25.26,128.49
		c-6.88,18.58-15.24,31.79-25.5,34.36C141.61,574.63,137.41,575.35,134.61,573.95L134.61,573.95z M234.16,535.51
		c-18.27-4.82-23.93-28.63-23.93-47.54c0-9.65,1.33-20.32,3.92-31.93c5.1-23.46,12-39.85,20.95-49.19c10.6-11,20.14-2.86,21.57-2.51
		c6.12,0,13.92,16.23,26.91,22.28c5.81,2.59,11.53,4.24,17.26,4.79c9.93,1.03,18.32,1.74,26.48-1.04
		c1.34-17.92,3.88-42.17,7.49-50.89c2.13-5.16,5.62-7.01,10.35-6.9c5.21,0.24,8.24,2.99,8.47,7.61l-0.47,4.79
		c-2.32,22.95-3.43,36.33-4.31,58.84l-1.18,21.89l2.04-4.86c9.49-22.51,19.85-37.81,31.06-45.97c5.65-4.17,10.25-5.26,16.55-5.26
		c7.61,0,14.04,5.49,19.3,16.55l4.16,9.18c0.82,2.36,1.54,4.48,3.45,5.73c4.36,2.85,3.68,9.06,0,11.3
		c-9.11,5.54-13.16-2.81-16.79-10.12c-2-4.03-6.6-12.54-8.55-14.51c-1.45-1.47-1.89-1.8-3.45-1.8c-2.75,0-6.04,1.88-9.88,5.73
		c-18.29,18.5-32.37,65.51-35.38,93.82c-0.47,4.39-0.94,10.43-1.33,18.12c-0.25,6.65-6.43,11.98-13.57,9.41
		c-4.16-1.33-6.67-4.94-7.61-10.83c-3.63-23.4-2.71-71.01-1.27-97.55c-4.77,1.69-9.22,2.62-13.33,2.79
		c-13.09,0.52-22.11,0.67-32.71-2.43l-3.92-1.18c1.36,7.07,2.04,12.64,2.04,20c0,15.53-3.69,31.22-10.98,47.15
		c-6.28,12.71-13.65,20.63-22.12,23.69C242.17,535.68,237.24,535.94,234.16,535.51L234.16,535.51z M243.34,512.76
		c11.16-8.3,19.83-31.27,20-48.24c0.1-10.1-0.47-16.09-3.92-24.32c-1.55-3.69-3.9-9.51-7.77-9.41c-1.57,0.08-3.06,1.96-4.63,5.49
		c-3.91,9.24-8.45,27.14-10.12,37.42c-1.94,11.95-2.73,28.43,1.41,37.97C239.61,514.64,240.22,515.49,243.34,512.76L243.34,512.76z
		 M460.32,591.83c-6.59-0.78-10.59-8.32-11.92-22.75c-1.19-15.11-0.72-58.64,0-76.72c1.62-37.08,6.51-109.2,10.28-143.01
		c0.28-2.46,0.47-2.63,0.47-4.79c-6.39,0-46.39,7.42-55.62,9.1c-16.31,2.97-17.67-14.24-3.22-17.18
		c12.55-3.92,30.83-7.06,54.76-9.41l6.43-0.71l1.8-12.63c0.49-3.76,1.76-14.54,2.67-16.79c3.15-7.84,13.03-8.05,18.28-2.28
		c4.81,5.19,4.08,20.18,4.08,29.89h27.61c0.64-5.86,1.32-11.38,2.04-16.55c0.72-5.85,0.63-9.28,3.92-12.63
		c7.01-7.15,16.09-2.23,17.73,7.37c0.37,2.56,0.24,18.03,0.14,22c9.71,0.24,28.09,1.18,35,6.95c4.41,3.68,5.82,10.87,1.8,14.67
		c-3.87,3.66-8.69,2.32-10.51-1.8c-0.75-1.86-1.1-2.45-3.37-2.9c-6.24-1.25-15.85-1.5-23.6-1.65c-1.04,16.74-1.59,34.99-2.21,55.54
		c-0.89,29.74-1.14,47.7-1.41,73.82l2.04-5.1c12.63-28.01,24.48-44.09,35.69-48.25c4.45-1.65,9.34-1.62,13.73,0.47
		c9.52,4.53,14.82,17.42,18.44,29.18c1.33,4.47,3.14,10.51,5.26,18.12c1.83,6.87,6.99,28.04,10.43,29.18
		c1.33,0.47,2.2,0.71,2.67,0.71c1.81,0,3.69-0.94,5.49-2.98c4.02-4.47,6.91-9.22,10.59-14.67c5.2-7.67,10.18-15.39,14.99-23.2
		c1.11-8.89,2.44-17.22,3.99-24.96c2.2-11.45,4.55-19.14,6.98-23.14c2.72-4.12,5.11-4.55,8.24-4.55c4.03,0,8.5,3.18,9.1,6.67
		c0.23,5.44,0.19,9.69,0,15.06c-0.1,2.95-0.31,6.35-0.31,9.26c0,2.89,0.13,7.87-1.18,9.26c-5.45,5.77-5.04-1.39-6.2,8.71
		c-2.7,23.59-4.03,39.41-3.53,56.64c0.06,2.06-0.2,3.77,0.55,3.77l5.96-13.49c16.71-39.38,30.05-64.72,40.01-75.86
		c5.03-5.79,9.65-9.46,15.38-11.61c7.15-2.68,15.21,1.06,19.53,6.98c8.68,11.79,13.65,37.77,15.61,65.27c0.74,0,4.39-3.6,6.43-5.49
		c9.15-8.44,22.96-19.87,32.63-24.87c4.36-2.25,11.71-4.68,15.93-4.31c1.15,0.2,3.92,2.53,4.08,4.31c0.29,3.22-1.33,5.91-5.26,6.9
		c-4.32,0.94-9.02,3.14-14.28,6.67c-8.71,5.73-18.75,14.28-30.12,25.73l-8,8.32l-0.24,27.14c-0.12,28.81-0.35,41.14-3.69,67.07
		c-5.96,47.93-18.83,81.51-38.59,100.65c-4.94,4.94-9.88,8.63-14.9,11.06c-11.19,5.59-19.56,6.71-31.07,2.28
		c-11.06-5.18-17.18-15.93-18.36-32.16c-2.48-32.51,16.36-75.29,34.67-104.57c11.75-18.8,30.55-43.05,45.5-60.64
		c2.8-3.31,5.65-6.67,8.55-9.89l-0.47-10.12c-1.26-26.24-4.75-55.77-11.06-64.72c-1.11-1.58-1.66-1.96-2.51-1.96
		c-5.59,0-16.04,16.36-19.77,22.75c-6.69,11.46-17.43,36.45-22.91,50.44c-2.82,7.2-11.5,29.99-15.45,36.32
		c-3.79,6.06-9.03,8.3-15.92,6.82c-7.45-2.51-11.53-14.28-12.16-35.46l0.29-20.02c-6.99,11.01-13.85,21.68-21.07,27.08
		c-7.08,5.3-12.58,7.28-18.91,3.29c-16.63-10.47-22.25-55.13-29.65-73.74c-1.59-3.99-3.27-6.63-5.8-5.57
		c-2.28,0.78-4.94,3.29-8,7.61c-12.24,17.81-22.36,44.09-30.36,78.84c-0.61,2.9-1.76,8.77-2.75,10.83
		c-4.87,10.13-17.86,8.59-21.81-2.12c-2.1-5.8-3.69-34.3-3.84-49.5c-0.11-17.89-0.28-46.43,0.16-62.6c0.86-29.6,2.28-55.27,4.19-77
		c-5.65,0.06-10.75,0.19-15.33,0.36c-5.91,0.22-11.29,0.39-11.85,1.49c-0.55,1.11-0.44,3.92-0.71,5.96l-3.69,34.91
		c-2.9,26.99-5.02,47.85-6.43,62.6c-2.55,26.69-5.12,66.06-6.12,89.82c-0.37,8.86-1.59,35.17,0.16,40.79
		c0.76,2.25,1.95,3.97,1.8,6.98c0,3.53-1.57,6.04-4.79,7.61C464.42,592.07,463.3,591.83,460.32,591.83L460.32,591.83z
		 M697.94,688.87c15.93-4.94,28.95-22.12,39.07-51.54c8.56-25.5,14.33-67.56,15.06-104.41l0.31-14.36
		c-0.53,0-9.96,11.95-11.45,13.89c-2.9,3.76-5.41,7.14-7.61,10.2c-10.67,14.12-19.3,26.75-25.73,37.81
		c-14.43,24.9-27.38,58.45-27.38,84.72C680.21,683.91,685.69,691.8,697.94,688.87L697.94,688.87z"/>
</g>
</svg>
