<?xml version="1.0" encoding="utf-8"?>
<!-- Generator: Adobe Illustrator 25.0.0, SVG Export Plug-In . SVG Version: 6.00 Build 0)  -->
<svg version="1.1" id="Layer_1" xmlns="http://www.w3.org/2000/svg" xmlns:xlink="http://www.w3.org/1999/xlink" x="0px" y="0px"
	 viewBox="0 0 792 900.16" style="enable-background:new 0 0 792 900.16;" xml:space="preserve">
<g>
	<path d="M584.46,0.29c17.28,0,25.94,0.49,25.94,1.49c0.77,1.84,1.14,4.92,1.14,9.26c0,4.25-0.21,6.87-0.86,6.95
		c-7.19,1.16-20.4,0.05-34.31-0.16c-3.37,0-5.06,0.33-5.06,1.02c-0.41,2.2-0.45,1.41-0.45,4.55c0,6.32,0.67,9.48,2,9.48
		c1.47,0.2,2.63,0.29,3.51,0.29l20.4-0.63c1.77,0,2.65,0.27,2.65,0.86c0.33,1.82,0.51,4.94,0.51,9.36c0,1.62,0.32,7.41-0.8,7.47
		c-1.29,0.16-2.35,0.24-3.16,0.24l-21.33-0.65c-2.37,0-3.55,0.29-3.55,0.86c-0.27,0.73-0.41,1.79-0.41,3.16
		c0,3.91-0.26,11.1,2.18,11.16l6.45,0.12c4.51,0,13.87-0.18,28.04-0.53c2.53,0,3.81,0.35,3.81,1.04c0.61,2.04,0.9,4.77,0.9,8.22
		c-0.18,4.9-0.71,7.36-1.55,7.36c-0.69,0.49-1.8,0.75-3.37,0.75l-8.63-0.51c-3.49,0-15.99,0.2-37.53,0.63
		c-3.98,0-6.38-0.67-7.18-2.02c-0.51-0.45-0.84-1.61-1.04-3.43c0.35-3.57,0.63-8.36,0.86-14.38c-0.08-6.96-0.12-12.79-0.12-17.46
		l-0.12-40.24c0-2.41,1.41-3.63,4.2-3.63C563.47,0.51,572.44,0.29,584.46,0.29L584.46,0.29z M478.66,0
		c19.31,0,30.63,0.77,33.92,2.32c4.63,1.82,7.83,4.75,9.59,8.73c1.77,4.43,2.65,9.16,2.65,14.15c0,9.46-3.22,16.28-9.61,20.46v0.27
		c0.73,1.69,2.14,6.75,4.2,15.18c3.45,11.1,5.18,17.64,5.18,19.6c0,2.14-17.07,1.5-17.07,0.51c-0.88,0-3.16-6.63-6.85-19.89
		c-1.41-6.12-2.43-10.08-3.04-11.89c-5.57,0-13.72-1.31-13.73,0.8l-0.18,13.91c0,4.9,0.14,8.77,0.39,11.61
		c0,3.26-0.96,5.1-2.92,5.57c-0.73-0.08-1.2-0.12-1.37-0.12c-1.2,0-4.26,0.04-9.2,0.12c-1.77,0-3.02-0.98-3.79-2.94l-0.41-2.63
		c0.08-5.22,0.12-8.51,0.12-9.89c0-21.03,0.14-42.16,0.39-63.35c0-1.61,2.2-2.41,6.55-2.41C475.89,0.04,477.62,0,478.66,0L478.66,0z
		 M483.89,24.78c0,4.9,0.63,7.36,1.88,7.36c4.24,0.46,10.26-0.39,14.89-0.39c5.04,0,6.1-3.26,6.1-7.95c0-7.06-6.92-6.2-12.65-6.2
		c-0.69,0-3-0.18-6.94-0.53C484.52,16.95,483.89,20.48,483.89,24.78L483.89,24.78z M410.91,0.29c17.28,0,25.94,0.49,25.94,1.49
		c0.77,1.84,1.14,4.92,1.14,9.26c0,4.25-0.21,6.87-0.86,6.95c-7.19,1.16-20.4,0.05-34.31-0.16c-3.37,0-5.06,0.33-5.06,1.02
		c-0.41,2.2-0.45,1.41-0.45,4.55c0,6.32,0.67,9.48,2,9.48c1.47,0.2,2.63,0.29,3.51,0.29l20.4-0.63c1.77,0,2.65,0.27,2.65,0.86
		c0.33,1.82,0.51,4.94,0.51,9.36c0,1.62,0.32,7.41-0.8,7.47c-1.29,0.16-2.35,0.24-3.16,0.24l-21.33-0.65
		c-2.37,0-3.55,0.29-3.55,0.86c-0.27,0.73-0.41,1.79-0.41,3.16c0,3.91-0.26,11.1,2.18,11.16l6.45,0.12c4.51,0,13.87-0.18,28.04-0.53
		c2.53,0,3.81,0.35,3.81,1.04c0.61,2.04,0.9,4.77,0.9,8.22c-0.18,4.9-0.71,7.36-1.55,7.36c-0.69,0.49-1.8,0.75-3.37,0.75l-8.63-0.51
		c-3.49,0-15.99,0.2-37.53,0.63c-3.98,0-6.38-0.67-7.18-2.02c-0.51-0.45-0.84-1.61-1.04-3.43c0.35-3.57,0.63-8.36,0.86-14.38
		c-0.08-6.96-0.12-12.79-0.12-17.46l-0.12-40.24c0-2.41,1.41-3.63,4.2-3.63C389.92,0.51,398.88,0.29,410.91,0.29L410.91,0.29z
		 M300.69,0.41c4.38,0,10.24,0,10.24,2.77l-0.12,28.09c-0.02,1.94,2.79,1.99,5.69,2.02c11.61-0.43,17.4-0.84,17.4-1.28
		c0.2-0.26,0.29-0.51,0.29-0.75c0-1.41-0.06-2.47-0.18-3.16c0.35-6.79,0.53-12.81,0.53-18.11V9.38c0-2.77-0.33-5.3-0.98-7.59
		c0.16-0.57,0.82-0.86,2-0.86h13.91c1.08,0,1.61,0.84,1.61,2.53c0.12,4.71,0.18,8.51,0.18,11.38v46.28c0,4.2-0.06,10.28-0.18,18.21
		c0,1.77-1.08,2.65-3.28,2.65c-1.53,0.08-2.55,0.12-3.04,0.12c-4.83-0.08-7.51-0.12-8.04-0.12c-1.53,0-2.43-0.73-2.71-2.18
		c0.12-8.36,0.18-14.09,0.18-17.19c0-1.96-0.06-5.83-0.18-11.61c-0.21-1.31-1.82-1.04-2.75-1.04c-1.47,0-2.65,0.04-3.57,0.12
		c-7.85-0.29-12.81-0.45-14.89-0.45c-2.32,0-1.69,1.45-1.79,2.63c-0.41,2.43-0.63,4.9-0.63,7.47v18.34c0,4.36-1.13,3.51-3.67,3.51
		c-0.96,0-3.28,0.16-6.96,0.51c-4.22,0-6.32-0.49-6.32-1.49c0-0.2-0.04-0.37-0.12-0.53c0-2.26,0.04-3.94,0.12-5.04
		c-0.08-14.11-0.12-25.8-0.12-35.06c0-12.62-0.21-38.47,1.67-38.81C296.33,0.67,298.24,0.41,300.69,0.41L300.69,0.41z M192.19,0.92
		c3.22,0,4.83,1.1,4.83,3.28l8.22,37.02h0.12c0.76-0.88,1.61-3.71,2.53-8.46c1.88-8.08,3.94-18.36,6.2-30.86
		c0-0.61,2.12-0.94,6.34-0.98c7.49,0,11.26,0.63,11.26,1.9c0.22,0.53,1.49,6.77,3.79,18.68c1.92,8.97,3.39,15.54,4.43,19.72h0.22
		c2-2.88,6.98-35.26,8.63-38.39c1.34-2.53,4.88-1.41,9.08-1.43c3.16-0.01,7.79-1.05,7.57,1.26c-2.75,14.6-7.55,37.22-14.42,67.82
		c-1,5.71-1.67,9.16-2,10.34c-0.55,0.51-1.59,0.77-3.18,0.77c-1.86,0-4.65,0.04-8.32,0.1c-3.16,0-5.22-0.78-6.22-2.35
		c-0.33-1.14-1.14-5.04-2.41-11.65c-2.1-9.01-4.12-17.13-6.02-24.39h-0.12c-0.92,0-2.67,6.91-5.24,20.7
		c-1.8,11.3-3.18,16.95-4.14,16.95c0,1.4-6.27,1.16-7.87,1.16c-5.02,0-7.85-0.55-8.46-1.67c-0.49-0.53-1.47-4.24-2.92-11.08
		c-3.69-13.58-8.4-35.88-14.15-66.92V2.02C179.95,1.29,184.03,0.92,192.19,0.92L192.19,0.92z"/>
	<path d="M597.67,99.85c63.55,2.54,62.12,2.41,104.53,2.41c37.73,0,60.66,9.55,68.78,28.66C784.99,153.79,792,188.4,792,234.74
		c-2.23,84.03-4.38,126.01-6.53,126.01c-2.55,11.21-8.2,20.91-17.04,29.11c-14.97,10.31-26.19,15.42-33.83,15.42
		c-21.02,4.59-54.53,6.85-100.55,6.85c-48.64,0-73-1.35-73-3.99c-3.11-1.43-5.09-15.8-6.05-42.96c1.99-59.81,3.03-94.56,3.03-104.27
		C556.04,196.9,555,160.49,555,151.84c0-23.25,1.99-38.14,6.05-44.76C566.78,102.26,579.04,99.85,597.67,99.85L597.67,99.85z
		 M669.96,167.71c-17.51-0.3-29.06-0.45-34.47-0.45c-5.81,0-8.68,6.17-8.68,18.51c-0.56,14.82-0.88,31.45-0.88,49.8
		c0,72.75,1.83,109.08,5.57,109.08c1.79,2.66,5.03,2.56,8.2,2.48c44.74-2.11,67.11-3.84,67.11-5.34c6.85-4.51,10.27-9.1,10.27-13.62
		c3.1-6.92,4.7-21.21,4.7-43.03v-30.17c0-54.77-6.13-83.88-18.47-87.27c-2.31-0.9-4.14-1.35-5.57-1.35
		C687.45,166.36,687.8,166.37,669.96,167.71L669.96,167.71z M386.88,98.95c32.32,0,63.77,5.64,94.18,16.93
		c12.02,5.49,21.26,16.93,27.78,34.45c4.86,17.3,7.24,41,7.24,71.17v40.32c0,63.79-3.98,101.11-11.94,111.94
		c-6.53,13.84-16.08,23.4-28.66,28.66c-13.69,6.47-43.79,9.7-90.28,9.7c-49.28,0-79.77-12.26-91.39-36.79
		c-8.12-16.17-12.1-37.69-12.1-64.62c0-8.65,0.08-21.74,0.4-39.19c-1.35-36.71-2.07-58.53-2.07-65.45
		c0-50.25,15.36-82.45,46.17-96.52C343.5,102.49,363.72,98.95,386.88,98.95L386.88,98.95z M352.33,194.34
		c0,10.31,0.16,30.39,0.48,60.18L351.46,305c0,25.88,4.38,38.82,13.29,38.82c8.84,2.48,20.62,3.76,35.43,3.76H413
		c19.42,0,29.14-4.51,29.14-13.47c2.47-10.76,3.74-26.48,3.74-47.17c0-7.05,0-14.09,0-21.14c0-12.49-0.24-26.48-0.72-41.9
		c0.48-12.94,0.72-25.05,0.72-36.34c0-7.52-3.26-12.64-9.79-15.42c-11.38-3.84-25.16-5.79-41.48-5.79
		c-27.86,0-41.79,7.6-41.79,22.72C352.49,191.26,352.33,193.06,352.33,194.34L352.33,194.34z M100.55,104.22h48.24
		c40.12,0,66.79,14.44,80.01,43.18c5.89,13.84,8.84,27.76,8.84,41.68c0,5.87-1.51,8.8-4.62,8.8c-12.9,4.14-28.34,6.17-46.17,6.17
		c-13.69,0-20.54-3.08-20.54-9.25c-2.63-11.89-5.33-17.83-8.2-17.83c-8.04-6.77-21.57-10.16-40.52-10.16
		c-21.81,0-34.31,2.56-37.58,7.75c-6.53,10.01-9.79,31.3-9.79,63.87c0.8,66.28,2.87,99.45,6.29,99.45c0,2.93,4.46,5.72,13.29,8.35
		c6.76,1.69,25.04,1.96,39.41,1.96c20.06,0,32.88-6.92,38.45-20.91c1.75-4.44,2.63-9.25,2.63-14.52c0-8.43-1.51-12.56-4.46-12.56
		c-2.95-0.75-6.77-1.13-11.38-1.13h-2.15c-24.84,0.75-38.29,1.13-40.36,1.13c-4.54,0-4.62-12.99-4.62-22.94
		c0-26.18,2.71-39.27,8.12-39.27c1.11-1.58,7.4-2.71,18.95-3.23l42.19,1.96c2.79,0,16.8-1.05,41.95-3.08
		c10.11,0,16.48,4.36,19.11,13.24c2.39,8.5,3.5,18.88,3.5,31.07c0,31.9-4.78,63.79-14.41,95.84c-5.97,13.24-15.36,22.64-28.26,28.21
		c-16.32,6.77-44.66,10.16-85.1,10.16h-8.2c-41.16,0-68.38-8.35-81.6-25.13C9.87,373.61,3.03,360.07,3.03,346.23
		c0.32-9.4,0.48-15.42,0.48-18.05C1.19,303.35,0,278,0,252.12c0-66.13,5.81-106.67,17.51-121.65c7.56-10.31,18.55-17.45,32.88-21.37
		C64.8,105.87,81.52,104.22,100.55,104.22L100.55,104.22z"/>
	<path d="M690.39,426.88c13.29,0,24.23,2.12,32.82,6.38c7.82,4.07,14.05,17.63,14.05,27.01c0,3.56,0.66,6.21-3.21,6.21
		c-17.06,0-25.55-0.73-25.55-2.12c-0.53,0-1.12-1.49-1.75-4.46c-1.02-1.36-5.09-2.55-12.1-3.6h-6.78c-9.95,0-15.63,1.19-17.06,3.6
		c-1.33,2.52-1.36,5.45-1.36,8.33c0,5.62,1.16,9.59,3.47,11.9c2.21,0.83,4.96,1.26,8.23,1.26h16.86c18.15,0,29.68,5.85,34.57,17.52
		c3.54,7.7,5.32,15.57,5.32,23.63c0,12.53-3.54,23.14-10.64,31.77c-5.62,6.64-20.53,9.98-44.76,9.98
		c-20.13,0-33.09-5.92-38.81-17.72c-2.28-7.57-3.4-13.02-3.4-16.36c0-3.11,1.55-4.66,4.66-4.66c7.8-0.46,14.91-0.66,21.29-0.66
		c2.21,0,3.74,1.82,4.56,5.52c1.62,3.67,6.12,5.52,13.55,5.52c11.3,0,18.68-1.32,22.18-4c2.16-3.11,2.12-4.66,2.12-8.13
		c0-9.09-4.43-13.65-13.35-13.65l-15.77,0.69c-12.66,0-22.48-3.21-29.45-9.59c-6.38-7.17-9.59-17.42-9.59-30.71v-1.95
		c0-12.89,3.01-23.34,8.99-31.27c7.3-6.97,19.2-10.45,35.73-10.45H690.39L690.39,426.88z M561.94,426.49
		c29.12,0,43.7,0.83,43.7,2.51c1.29,3.11,1.92,8.3,1.92,15.6c0,7.1-0.34,11.58-1.45,11.7c-6.09,0.98-8.37,0.79-14.71,0.79
		c-5.62,0-20-0.36-43.1-1.06c-5.69,0-8.53,0.56-8.53,1.72c-0.5,1.29-0.76,3.37-0.76,6.21c0,9.7,0.54,17.23,3.37,17.42
		c2.48,0.33,4.43,0.5,5.92,0.5l34.38-1.06c2.97,0,4.46,0.46,4.46,1.45c0.56,3.07,0.86,8.33,0.86,15.77v6.97
		c0,3.73-0.43,5.62-1.36,5.62c-2.18,0.26-3.97,0.4-5.32,0.4l-35.93-1.09c-4,0-5.98,0.5-5.98,1.45c-0.46,1.22-0.69,3.01-0.69,5.32
		c0,6.58-0.44,18.7,3.67,18.81l10.87,0.2c7.6,0,23.37-0.3,47.23-0.89c4.26,0,6.41,0.59,6.41,1.75c1.02,3.44,1.52,8.03,1.52,13.85
		c-0.3,8.26-1.19,12.39-2.61,12.39c-1.16,0.83-3.04,1.26-5.69,1.26c-0.66,0-1.29-0.12-1.29,0.2l-13.25-1.06
		c-5.88,0-26.94,0.33-63.23,1.06c-6.71,0-10.74-1.12-12.1-3.4c-0.86-0.76-1.42-2.71-1.75-5.78c0.59-6.02,1.06-14.08,1.45-24.23
		c-0.13-11.73-0.2-21.55-0.2-29.42l-0.2-67.79c0-4.07,2.38-6.11,7.07-6.11C526.57,426.85,541.68,426.49,561.94,426.49L561.94,426.49
		z M425.92,456.9c-7.27-0.13-12.06-0.2-14.31-0.2c-2.41,0-3.6,2.71-3.6,8.13c-0.23,6.51-0.36,13.82-0.36,21.88
		c0,31.96,0.76,47.93,2.31,47.93c0.74,1.16,2.07,1.12,3.4,1.09c18.58-0.93,27.86-1.69,27.86-2.35c2.84-1.98,4.26-4,4.26-5.98
		c1.29-3.04,1.95-9.32,1.95-18.91c0-18.57,0.78-48.63-7.67-51.6c-2.36-0.83-2.31-0.59-4.93-0.59
		C433.88,456.3,430.91,456.5,425.92,456.9L425.92,456.9z M395.9,427.08c26.4,1.12,25.78,1.06,43.4,1.06
		c15.67,0,25.19,4.2,28.56,12.59c5.82,10.05,8.73,25.25,8.73,45.61c-0.93,36.92-1.82,55.37-2.71,55.37
		c-1.06,4.93-3.4,9.19-7.07,12.79c-6.21,4.53-10.87,6.78-14.05,6.78c-8.73,2.02-22.64,3.01-41.75,3.01
		c-20.2,0-30.31-0.59-30.31-1.75c-1.29-0.63-2.12-6.94-2.51-18.87c0.83-26.28,1.26-41.55,1.26-45.81
		c-0.83-28.13-1.26-44.13-1.26-47.93c0-10.21,0.83-16.76,2.51-19.67C383.08,428.14,388.17,427.08,395.9,427.08L395.9,427.08z
		 M328,427.54c3.67,0,8.89,0.07,15.67,0.2c1.29,0,2.18,0.66,2.64,1.95c-0.13,1.85-0.2,3.27-0.2,4.26c0,10.51,0.07,21.78,0.2,33.78
		l-0.5,13.09l0.5,68.75c0,8.96-0.73,13.45-2.15,13.45c-0.53,0.83-1.95,1.26-4.26,1.26h-16.66c-4.4,0-6.58-1.06-6.58-3.21
		c0.26-41.55,0.56-68.79,0.86-81.61c-0.13-15.7-0.4-31.53-0.86-47.47C316.62,428.55,323.76,427.54,328,427.54L328,427.54z
		 M203.15,427.08h8.33c2.51,0,3.77,1.29,3.77,3.87c0.89,0,1.36,12.2,1.36,36.59l-1.06,57.51c0,3.64,1.65,6.05,5.02,7.27
		c3.6,1.42,9.09,2.15,16.46,2.15c12.41,0,17.62-5.73,17.62-16.86c0-0.86-0.2-6.25-0.56-16.16c0-3.5,0.13-21.32,0.36-53.48
		c-0.13-5.72-0.17-10.35-0.17-13.85c0-8.56,5.26-6.88,9.75-6.88c5.18,0,9.13,0.12,14.35-0.17c6.99-0.19,5.32,5.23,5.32,8.69v33.02
		c0.2,14.84,1.06,29.8,1.06,44.76c0,18.51-3.34,31.67-10.05,39.4c-8,7.57-20.92,11.34-38.74,11.34c-15.44,0-27.86-2.71-37.28-8.13
		c-8.4-6.38-12.59-19.96-12.59-40.69l0.69-30.67l-0.5-51.53C186.3,429.13,191.92,427.08,203.15,427.08L203.15,427.08z M95.82,429
		h20.03c16.66,0,27.73,6.35,33.22,18.97c2.45,6.08,3.67,12.2,3.67,18.31c0,2.58-0.63,3.87-1.92,3.87
		c-5.36,1.82-11.77,2.71-19.17,2.71c-5.69,0-8.53-1.36-8.53-4.07c-1.09-5.22-2.21-7.83-3.4-7.83c-3.34-2.97-8.96-4.46-16.82-4.46
		c-9.06,0-14.25,1.12-15.6,3.4c-2.71,4.4-4.07,13.75-4.07,28.06c0.33,29.12,1.19,43.7,2.61,43.7c0,1.29,1.85,2.51,5.52,3.67
		c2.81,0.74,10.39,0.86,16.36,0.86c11.22,0,17.06-5.94,17.06-15.57c0-3.7-0.63-5.52-1.85-5.52c-1.22-0.33-2.81-0.5-4.73-0.5h-0.89
		c-10.31,0.33-15.9,0.5-16.76,0.5c-1.89,0-1.92-5.73-1.92-10.08c0-11.5,1.12-17.25,3.37-17.25c0.46-0.69,3.07-1.19,7.87-1.42
		l17.52,0.86c1.16,0,6.97-0.46,17.42-1.35c4.2,0,6.84,1.92,7.93,5.82c0.99,3.74,1.45,8.3,1.45,13.65c0,14.01-1.98,28.03-5.98,42.11
		c-2.48,5.82-6.38,9.95-11.73,12.4c-8.1,3.63-21.83,4.46-38.74,4.46c-17.09,0-28.39-3.67-33.88-11.04
		c-5.69-5.88-8.53-11.83-8.53-17.92c0.13-4.13,0.2-6.78,0.2-7.93c-0.96-10.91-1.45-22.05-1.45-33.42c0-29.05,2.41-46.87,7.27-53.45
		c3.14-4.53,7.7-7.67,13.65-9.39C80.98,429.72,87.92,429,95.82,429L95.82,429z"/>
	<path d="M439.67,585.65c19.08,0,28.64,0.54,28.64,1.65c0.84,2.04,1.26,5.44,1.26,10.22c0,4.69-0.23,7.59-0.95,7.67
		c-7.93,1.28-22.53,0.06-37.89-0.17c-3.73,0-5.59,0.37-5.59,1.13c-0.32,0.84-0.5,2.21-0.5,4.07c0,6.36,0.35,11.29,2.21,11.42
		c1.62,0.22,2.9,0.32,3.88,0.32l22.53-0.69c1.95,0,2.92,0.3,2.92,0.95c0.37,2.01,0.56,5.46,0.56,10.33c0,1.79,0.36,8.18-0.89,8.25
		c-1.43,0.17-2.6,0.26-3.49,0.26l-23.55-0.71c-2.62,0-3.92,0.33-3.92,0.95c-0.3,0.8-0.46,1.97-0.46,3.49
		c0,4.31-0.29,12.26,2.4,12.33l7.13,0.13c4.98,0,15.32-0.19,30.96-0.59c2.79,0,4.2,0.39,4.2,1.15c0.67,2.25,1,5.26,1,9.08
		c-0.19,5.42-0.78,8.12-1.71,8.12c-0.76,0.54-1.99,0.82-3.73,0.82l-0.84,0.13l-8.69-0.69c-3.86,0-17.65,0.22-41.44,0.69
		c-4.4,0-7.04-0.74-7.93-2.23c-0.56-0.5-0.93-1.78-1.15-3.79c0.39-3.94,0.69-9.23,0.95-15.88c-0.09-7.69-0.13-14.12-0.13-19.28
		l-0.13-44.43c0-2.66,1.56-4.01,4.64-4.01C416.49,585.89,426.39,585.65,439.67,585.65L439.67,585.65z M330,585.78
		c4.84,0,11.31,0,11.31,3.05l-0.13,31.02c0,1.41,1.23,2.1,3.75,2.1c0.15,0,1,0.04,2.53,0.13c12.82-0.48,19.21-0.93,19.21-1.41
		c0.22-0.28,0.32-0.56,0.32-0.82c0-1.56-0.06-2.73-0.19-3.49c0.39-7.5,0.58-14.15,0.58-19.99v-0.69c0-3.05-0.37-5.85-1.08-8.38
		c0.17-0.63,0.91-0.95,2.21-0.95h15.36c1.19,0,1.78,0.93,1.78,2.79c0.13,5.2,0.2,9.4,0.2,12.56v51.1c0,4.64-0.06,11.35-0.2,20.1
		c0,1.95-1.19,2.92-3.62,2.92c-1.69,0.09-2.82,0.13-3.36,0.13c-5.33-0.09-8.3-0.13-8.88-0.13c-1.69,0-2.69-0.8-2.99-2.4
		c0.13-9.23,0.19-15.55,0.19-18.98c0-2.17-0.06-6.43-0.19-12.82c-0.24-1.45-2.01-1.15-3.03-1.15c-1.62,0-2.92,0.04-3.94,0.13
		c-8.67-0.32-14.15-0.5-16.44-0.5c-2.56,0-1.86,1.6-1.97,2.9c-0.45,2.69-0.69,5.42-0.69,8.25v20.25c0,4.81-1.25,3.88-4.05,3.88
		c-1.06,0-3.62,0.17-7.69,0.56c-4.66,0-6.98-0.54-6.98-1.65c0-0.22-0.04-0.41-0.13-0.58c0-2.49,0.04-4.35,0.13-5.57
		c-0.09-15.58-0.13-28.49-0.13-38.71c0-13.94-0.24-42.48,1.84-42.85C325.19,586.07,327.29,585.78,330,585.78L330,585.78z"/>
	<path d="M718.09,691.17c11.65,0,21.24,1.85,28.77,5.59c6.86,3.57,12.31,15.45,12.31,23.67c0,3.12,0.58,5.45-2.81,5.45
		c-14.95,0-22.4-0.64-22.4-1.85c-0.46,0-0.99-1.3-1.54-3.91c-0.9-1.19-4.46-2.23-10.6-3.16h-5.94c-8.72,0-13.7,1.04-14.95,3.16
		c-1.16,2.21-1.19,4.78-1.19,7.3c0,4.93,1.01,8.4,3.04,10.43c1.94,0.72,4.35,1.1,7.21,1.1h14.78c15.91,0,26.02,5.13,30.3,15.36
		c3.1,6.75,4.66,13.65,4.66,20.72c0,10.98-3.1,20.28-9.33,27.84c-4.93,5.82-17.99,8.75-39.23,8.75c-17.64,0-29-5.19-34.01-15.53
		c-2-6.63-2.98-11.42-2.98-14.34c0-2.72,1.36-4.09,4.08-4.09c6.84-0.41,13.07-0.58,18.66-0.58c1.94,0,3.27,1.59,4,4.84
		c1.42,3.22,5.36,4.84,11.88,4.84c9.91,0,16.37-1.16,19.44-3.51c1.89-2.72,1.85-4.09,1.85-7.13c0-7.97-3.88-11.97-11.7-11.97
		l-13.82,0.61c-11.1,0-19.7-2.81-25.81-8.4c-5.59-6.29-8.4-15.27-8.4-26.92v-1.71c0-11.3,2.64-20.45,7.88-27.41
		c6.4-6.11,16.83-9.16,31.32-9.16H718.09L718.09,691.17z M619.78,690.82c25.52,0,38.3,0.72,38.3,2.2c1.13,2.72,1.68,7.27,1.68,13.67
		c0,6.25-0.3,10.15-1.27,10.26c-5.34,0.86-7.33,0.7-12.89,0.7c-4.93,0-17.53-0.32-37.78-0.93c-4.98,0-7.47,0.49-7.47,1.51
		c-0.43,1.13-0.67,2.96-0.67,5.45c0,8.5,0.47,15.1,2.95,15.27c2.17,0.29,3.88,0.43,5.19,0.43l30.13-0.93c2.61,0,3.91,0.41,3.91,1.27
		c0.49,2.69,0.75,7.3,0.75,13.82c0,2.4,0.48,10.94-1.19,11.04c-1.91,0.23-3.48,0.35-4.66,0.35l-31.49-0.96
		c-3.51,0-5.24,0.43-5.24,1.28c-0.41,1.07-0.61,2.64-0.61,4.66c0,5.77-0.38,16.39,3.22,16.49l9.53,0.17c6.66,0,20.48-0.26,41.4-0.78
		c3.74,0,5.62,0.52,5.62,1.54c0.9,3.01,1.33,7.04,1.33,12.14c-0.26,7.24-1.04,10.86-2.29,10.86c-1.01,0.72-2.67,1.1-4.98,1.1h-2.23
		l-10.52-0.75c-5.16,0-23.61,0.29-55.42,0.93c-5.88,0-9.42-0.99-10.6-2.98c-0.75-0.67-1.25-2.38-1.54-5.07
		c0.52-5.27,0.93-12.34,1.27-21.24c-0.12-10.29-0.17-18.89-0.17-25.79l-0.17-59.42c0-3.56,2.09-5.36,6.2-5.36
		C588.78,691.14,602.03,690.82,619.78,690.82L619.78,690.82z M514.84,717.48c-6.37-0.12-10.57-0.17-12.55-0.17
		c-2.11,0-3.16,2.38-3.16,7.13c-0.2,5.71-0.32,12.11-0.32,19.18c0,28.02,0.67,42.01,2.03,42.01c0.65,1.02,1.81,0.99,2.98,0.96
		c16.28-0.81,24.42-1.48,24.42-2.06c2.49-1.74,3.74-3.51,3.74-5.24c1.13-2.67,1.71-8.17,1.71-16.57c0-16.28,0.68-42.63-6.72-45.23
		c-2.07-0.73-2.02-0.52-4.32-0.52C521.82,716.96,519.21,717.13,514.84,717.48L514.84,717.48z M488.53,691.34
		c23.14,0.98,22.59,0.93,38.04,0.93c13.73,0,22.08,3.68,25.03,11.04c5.1,8.81,7.65,22.13,7.65,39.98
		c-0.81,32.36-1.59,48.53-2.38,48.53c-0.93,4.32-2.98,8.05-6.2,11.21c-5.45,3.97-9.53,5.94-12.31,5.94
		c-7.65,1.77-19.85,2.64-36.59,2.64c-17.7,0-26.57-0.52-26.57-1.54c-1.13-0.55-1.85-6.08-2.2-16.54c0.72-23.03,1.1-36.42,1.1-40.16
		c-0.72-24.66-1.1-38.68-1.1-42.01c0-8.95,0.72-14.69,2.2-17.24C477.29,692.27,481.75,691.34,488.53,691.34L488.53,691.34z
		 M443.3,691.75c3.22,0,7.79,0.06,13.73,0.17c1.13,0,1.91,0.58,2.32,1.71c-0.12,1.62-0.17,2.87-0.17,3.74
		c0,9.21,0.06,19.09,0.17,29.61l-0.43,11.47l0.43,60.26c0,7.85-0.64,11.79-1.88,11.79c-0.46,0.72-1.71,1.1-3.74,1.1h-14.6
		c-3.85,0-5.77-0.93-5.77-2.81c0.23-36.42,0.49-60.29,0.75-71.53c-0.12-13.76-0.35-27.64-0.75-41.6
		C433.32,692.63,439.58,691.75,443.3,691.75L443.3,691.75z M405.34,691.75c9.47,0,14.2,0.49,14.2,1.45l0.14,1.36
		c0,0.41-1.74,6.23-5.24,17.47c-3.85,12.46-7.97,27.49-12.31,45.08l-13.41,45.49c-0.46,5.62-1.13,8.4-2.03,8.4
		c-1.36,0.29-2.55,0.43-3.56,0.43c-2.43,0-6,0.06-10.69,0.17c-6.46,0-10.63-1.3-12.49-3.91c-0.72-1.68-2.98-10.14-6.69-25.38
		c-2.9-10.05-7.16-23.38-12.75-39.98c-6.58-25-10.86-40.56-12.89-46.67c-0.17,0-0.29-0.58-0.35-1.71c0-1.01,2.69-1.51,8.05-1.51
		l13.07-0.52c3.19,0,5.21,2.61,6.11,7.82c6,16.92,9.01,26.71,9.01,29.35c3.85,16.43,7.21,28.62,10.11,36.59h0.15
		c0.7-0.67,2.06-5.48,4.09-14.43c1.77-4.98,6.37-20.98,13.85-47.95c2.03-7.36,3.88-11.04,5.59-11.04
		C398.41,691.92,401.11,691.75,405.34,691.75L405.34,691.75z M258.41,750.91l-0.49,19.44c0,9.97,1.59,14.95,4.84,14.95
		c3.22,0.96,7.5,1.45,12.89,1.45h4.66c7.07,0,10.6-1.74,10.6-5.19c2.11-9.72,1.41-31.83,1.1-42.44c0.17-4.98,0.26-9.65,0.26-13.99
		c0-2.9-1.19-4.87-3.56-5.94c-4.14-1.48-9.16-2.23-15.09-2.23c-10.14,0-15.21,2.93-15.21,8.75
		C257.49,732.44,258.34,743.9,258.41,750.91L258.41,750.91z M270.81,691c11.76,0,23.21,2.17,34.27,6.52
		c4.37,2.11,7.74,6.52,10.11,13.27c3.04,9.85,2.64,29.93,2.64,42.94c0,24.57-1.45,38.94-4.35,43.11
		c-2.38,5.33-5.85,9.01-10.43,11.04c-4.98,2.49-15.93,3.74-32.85,3.74c-17.93,0-29.03-4.72-33.26-14.17
		c-2.96-6.23-4.4-14.52-4.4-24.89c0-3.33,0.03-8.37,0.14-15.09c-0.49-14.14-0.75-22.54-0.75-25.21c0-19.35,5.59-31.75,16.8-37.17
		C255.02,692.36,262.38,691,270.81,691L270.81,691z M157.81,726.98c0,7.24,0.93,10.86,2.78,10.86c1.07,0.12,1.77,0.17,2.06,0.17
		c8.81-0.52,15.47-0.75,19.93-0.75c6,0,9.01-3.45,9.01-10.28v-1.45c0-10.42-10.22-9.16-18.69-9.16c-1.01,0-4.43-0.26-10.26-0.78
		C158.74,715.42,157.81,720.64,157.81,726.98L157.81,726.98z M150.08,690.39c28.51,0,45.23,1.13,50.09,3.42
		c6.84,2.69,11.56,7.01,14.17,12.89c2.61,6.55,3.91,13.53,3.91,20.89c0,13.96-4.75,24.05-14.2,30.22v0.41
		c1.07,2.49,3.16,9.97,6.2,22.42c5.1,16.4,7.65,26.05,7.65,28.94c0,1.36-3.68,2.03-11.04,2.03c-9.44,0-14.17-0.43-14.17-1.27
		c-1.3,0-4.66-9.79-10.11-29.38c-2.09-9.04-3.59-14.89-4.49-17.56c-10.16,0-11.77-0.83-16.98-0.52c-2.2,0.17-3.3,0.75-3.3,1.71
		l-0.26,20.54c0,7.24,0.2,12.95,0.58,17.15c0,4.81-1.42,7.53-4.32,8.23c-1.07-0.12-1.77-0.17-2.03-0.17
		c-1.77,0-6.29,0.06-13.59,0.17c-2.61,0-4.46-1.45-5.59-4.35l-0.61-3.88c0.12-7.71,0.17-12.57,0.17-14.6
		c0-31.06,0.2-62.26,0.58-93.55c0-2.38,3.25-3.56,9.68-3.56C145.99,690.45,148.54,690.39,150.08,690.39L150.08,690.39z
		 M58.06,726.31c0,4.47-0.37,12.81,2.96,12.81h1.27c16.69-0.41,25.03-0.87,25.03-1.45c3.71-1.63,4.52-6.77,4.52-10.43
		c0-6.4-3.42-9.59-10.28-9.59h-4.84c-3.45,0-8-0.32-13.65-0.93c-2.9,0.32-4.35,1.56-4.35,3.71
		C58.37,720.43,58.17,722.4,58.06,726.31L58.06,726.31z M50.93,691.49c28.86,0.52,43.28,1.16,43.28,1.88
		c6.17,1.25,11.1,3.51,14.75,6.78c6.26,5.87,9.36,15.93,9.36,28.54c0,27.2-17.34,36.38-40.16,35.9c-9.56-0.41-14.98-0.61-16.22-0.61
		c-2.69,0-4.14,0.84-4.14,2.81v27.26c0,1.39,0.14,4.72,0.43,9.91c0,4.49-1.39,7.01-4.17,7.65c-0.7,0-1.68-0.06-2.98-0.17
		c-5.01,0.12-9.39,0.17-13.07,0.17c-2.55,0-4.35-1.51-5.42-4.49c0-0.12-0.12-1.16-0.35-3.16c0-28.74,0.2-64.78,0.61-108.12
		c0-2.61,2.46-3.91,7.45-3.91L50.93,691.49L50.93,691.49z"/>
	<path d="M648,829.55c1.08,0.05,1.18,6.13,1.18,11.43c0,5.51-0.3,11.91-0.9,19.2v1.72c0,5.25,0.19,16.92,0.54,35.02
		c0,1.79-3.29,2.84-9.9,3.17c-3.22,0.08-4.82-0.61-4.9-1.82c-0.42-3.5-0.64-7.4-0.64-11.69c0.3-13.32,0.46-26.56,0.46-39.72
		c0-3.59,0.46-2.18-6.23-2.18c-1.88,0-1.74-2.49-1.74-4.26c0-2.11,0.51-5.56,1.54-10.35C628.66,829.51,646.19,830.15,648,829.55
		L648,829.55z M616.32,829.55c1.08,0.05,1.18,6.13,1.18,11.43c0,5.51-0.3,11.91-0.9,19.2v1.72c0,5.25,0.19,16.92,0.54,35.02
		c0,1.79-3.29,2.84-9.9,3.17c-3.22,0.08-4.82-0.61-4.9-1.82c-0.42-3.5-0.64-7.4-0.64-11.69c0.3-13.32,0.46-26.56,0.46-39.72
		c0-3.59,0.46-2.18-6.23-2.18c-1.88,0-1.74-2.49-1.74-4.26c0-2.11,0.51-5.56,1.54-10.35C596.99,829.51,614.51,830.15,616.32,829.55
		L616.32,829.55z M583.32,849.24c2.52,0,2.53,3.87,2.53,6.97c0,5.22-0.3,7.82-0.89,7.82c-0.83,0.3-1.91,0.46-3.28,0.46
		c-1.18,0-3.93-0.12-8.26-0.35c-0.29,0.1-0.54,0.15-0.74,0.15c-1.32,0-1.98-0.84-1.98-2.53l0.1-8.05c0-2.67,0.95-4,2.82-4
		C578.2,849.39,581.44,849.24,583.32,849.24L583.32,849.24z M583.32,884.87c2.52,0,2.53,3.86,2.53,6.97c0,5.2-0.3,7.82-0.89,7.82
		c-0.83,0.29-1.91,0.44-3.28,0.44c-1.18,0-3.93-0.12-8.26-0.35c-0.29,0.1-0.54,0.15-0.74,0.15c-1.32,0-1.98-0.84-1.98-2.52l0.1-8.07
		c0-2.67,0.95-4,2.82-4C578.2,885.01,581.44,884.87,583.32,884.87L583.32,884.87z M527.11,878.54c0.29,4.09,1.2,6.13,2.72,6.13
		c2.01,0.42,4.19,0.64,6.54,0.64c3.4,0,8.25,0.05,9.64-1.98c1.6-2.33,2.38-9.11-2.28-10.33c-3.46-0.91-14.04-1.94-15.79,1.72
		C527.38,875.82,527.11,877.09,527.11,878.54L527.11,878.54z M526.96,851.32c0.32,3.93,1.38,5.89,3.16,5.89
		c3.47,0.25,13.85,1.73,16.04-1.82c1.49-2.42,2.39-8.55-3.07-9.71c-1.35-0.29-3.75-0.51-7.18-0.64c-5.08,0.17-7.62,0.74-7.62,1.74
		C527.4,847.72,526.96,849.24,526.96,851.32L526.96,851.32z M536.01,829.91c9.98,0,15.7,0.85,19.15,4.15
		c4.51,3.66,6.77,9.49,6.77,17.51c0,5.99-0.91,10.72-2.72,14.15c2.08,3.73,3.12,7.68,3.12,11.87c0,3.46-0.98,8.05-2.92,13.8
		c-1.45,2.94-3.51,5.08-6.18,6.43c-3.86,1.96-10.4,2.28-18.3,2.28c-10.96,0-18.03-3.06-21.23-9.15c-1.14-2.21-1.64-5.76-1.64-10.54
		c0-6.33,1.06-11.5,3.17-15.49c-2.77-2.33-3.13-11.59-3.17-14.69c0-7.75,2.75-13.51,8.26-17.28
		C523.99,830.92,529.22,829.91,536.01,829.91L536.01,829.91z M459.91,830.09l41.71,0.25c2.34,0,2.08,2.62,2.08,4.56
		c0,6.4-0.35,9.59-1.08,9.59c-0.24,0.42-0.83,0.64-1.79,0.64l-31.76,0.1c-0.76,1.13-0.35,3.89-0.08,7.87l0.19,0.1
		c5.78-0.37,10.64-0.56,14.59-0.56c8.8,0,14.4,1.93,17.33,8.36c1.74,3.63,2.62,8.53,2.62,14.71c0,10.62-1.74,17.11-5.23,19.49
		c-1.66,1.59-4.41,2.79-8.27,3.61c-5.07,0.86-9.91,1.28-14.49,1.28c-10.17,0-16.68-2.9-19.59-8.71c-1.38-3.95-2.08-7.01-2.08-9.15
		c0-1.28,1.01-1.92,3.06-1.92l8.38-0.34c2.63,0,3.95,1.01,3.95,3.06c0.24,2.58,8.73,2.28,13.46,2.28c2.94,0,4.71-1.03,5.34-3.07
		c0.37,0,0.54-3.6,0.54-10.77c0-4.27-7.51-3.82-10.77-3.82c-9.22,0-8.13,2.2-9,3.17c-1.59,1.01-4.24,1.52-7.97,1.52
		c-2.59,0-6.54,0.2-6.74-1.44c-0.84-4.67-0.35-10.33-0.34-16.41c-0.07-6.01-0.1-11.23-0.1-15.69c0-5.34,0.54-8,1.64-8
		C455.47,830.53,456.95,830.29,459.91,830.09L459.91,830.09z M376.8,829.8c3.77,0,8.81,0,8.81,2.38l-0.1,24.18
		c-0.02,1.67,2.4,1.72,4.9,1.74c10-0.37,14.98-0.73,14.98-1.1c0.17-0.22,0.25-0.44,0.25-0.64c0-1.22-0.05-2.13-0.15-2.72
		c0.3-5.84,0.46-11.03,0.46-15.59v-0.54c0-2.38-0.29-4.56-0.84-6.54c0.14-0.49,0.71-0.74,1.72-0.74h11.97
		c0.93,0,1.38,0.73,1.38,2.18c0.29,23.48,0.18,41.39,0,65.3c0,1.52-0.93,2.28-2.82,2.28c-1.32,0.07-2.2,0.1-2.62,0.1
		c-4.15-0.07-6.47-0.1-6.92-0.1c-1.32,0-2.09-0.62-2.33-1.87c0.1-7.19,0.15-12.12,0.15-14.79c0-1.69-0.05-5.02-0.15-10
		c-0.18-1.13-1.57-0.89-2.36-0.89c-1.27,0-2.28,0.03-3.07,0.1c-6.75-0.25-11.03-0.39-12.82-0.39c-1.99,0-1.45,1.25-1.54,2.26
		c-0.35,2.09-0.54,4.22-0.54,6.43v15.79c0,3.75-0.97,3.02-3.16,3.02c-0.85,0-11.43,1.29-11.43-0.84c0-0.17-0.03-0.32-0.1-0.46
		c0-1.94,0.03-3.39,0.1-4.34c0.19-5.76-1.01-63.16,1.33-63.58C373.05,830.02,374.69,829.8,376.8,829.8L376.8,829.8z M330,874.18
		c0,1.19,10.69,1.91,10.69,0.34c0-2.12-4.21-17.51-5.25-17.51h-0.2c-1.15,1.38-2.75,6.16-4.8,14.35
		C330.23,872.12,330.1,873.05,330,874.18L330,874.18z M334.49,829.45c3.07,0,8.67-0.31,8.92,1.64c2.08,8.24,3.95,14.49,5.64,18.74
		c4.71,16.77,8.24,29.05,10.59,36.86c1.64,6.64,2.47,10.77,2.47,12.41c0,1.68-14.69,1.25-14.69-0.54c0-2.84-0.68-5.74-2.03-8.7
		c-0.14,0-0.25-0.1-0.35-0.3c0,0.1-5.83,0.24-17.51,0.39c-1.25,0-1.87,0.52-1.87,1.54c-1.28,5.39-2.38,8.07-3.26,8.07
		c-2.48,0.14-14.35,1.72-14.35-1.28c0-1.82,2.65-11.04,7.97-27.66l5.74-20.15c0.95-4.09,2.01-7.89,3.16-11.42
		c1.03-6.11,2.14-9.15,3.36-9.15C329.98,829.6,332.06,829.45,334.49,829.45L334.49,829.45z M290.32,830.24c1.87,0,4.54,0.03,8,0.1
		c1.85,0.02,1.25,2.07,1.25,3.17c0,5.37,0.03,11.13,0.1,17.26l-0.25,6.69l0.25,35.12c0,4.58-0.37,6.87-1.1,6.87
		c-0.27,0.42-1,0.64-2.18,0.64h-8.51c-2.25,0-3.36-0.54-3.36-1.64c0.14-21.23,0.29-35.14,0.44-41.69
		c-0.07-8.02-0.2-16.11-0.44-24.25C284.5,830.76,288.15,830.24,290.32,830.24L290.32,830.24z M244.06,874.18
		c0,1.19,10.69,1.91,10.69,0.34c0-2.12-4.21-17.51-5.25-17.51h-0.2c-1.15,1.38-2.75,6.16-4.8,14.35
		C244.29,872.12,244.16,873.05,244.06,874.18L244.06,874.18z M248.55,829.45c3.07,0,8.67-0.31,8.92,1.64
		c2.08,8.24,3.95,14.49,5.64,18.74c4.71,16.77,8.24,29.05,10.59,36.86c1.64,6.64,2.47,10.77,2.47,12.41
		c0,1.68-14.69,1.25-14.69-0.54c0-2.84-0.68-5.74-2.03-8.7c-0.14,0-0.25-0.1-0.35-0.3c0,0.1-5.83,0.24-17.51,0.39
		c-1.25,0-1.87,0.52-1.87,1.54c-1.28,5.39-2.38,8.07-3.26,8.07c-2.48,0.14-14.35,1.72-14.35-1.28c0-1.82,2.65-11.04,7.97-27.66
		l5.74-20.15c0.95-4.09,2.01-7.89,3.16-11.42c1.03-6.11,2.14-9.15,3.36-9.15C244.04,829.6,246.12,829.45,248.55,829.45
		L248.55,829.45z M190.62,829.8c1.72,0.46,10.61-0.51,18.05,3.36c4,2.08,7.18,9.01,7.18,13.8c0,1.82,0.34,3.17-1.64,3.17
		c-8.71,0-13.05-0.37-13.05-1.08c-0.27,0-0.57-0.76-0.9-2.28c-0.52-0.69-2.6-1.3-6.18-1.84h-3.46c-8.78,0-9.41,1.14-9.41,6.1
		c0,2.87,0.59,4.9,1.77,6.08c1.48,0.95,10.64,0.64,12.82,0.64c9.27,0,15.16,2.99,17.66,8.95c1.81,3.93,2.72,7.95,2.72,12.07
		c0,6.4-1.81,11.82-5.44,16.23c-2.87,3.39-10.49,5.1-22.86,5.1c-10.28,0-16.9-3.02-19.82-9.05c-1.17-3.87-1.74-6.65-1.74-8.36
		c0-1.59,0.79-2.38,2.38-2.38c3.99-0.24,7.62-0.34,10.87-0.34c1.13,0,1.91,0.93,2.33,2.82c1.56,4.76,16.53,2.58,18.25,0.78
		c1.7-1.78,2.64-11.31-5.74-11.13l-8.05,0.35c-6.47,0-11.48-1.64-15.05-4.9c-3.58-3.63-4.9-9.97-4.9-16.68
		c0-6.59,1.54-11.92,4.59-15.97C176.46,830.05,183.73,830.32,190.62,829.8L190.62,829.8z M148.61,830.24c1.87,0,4.54,0.03,8,0.1
		c1.85,0.02,1.25,2.07,1.25,3.17c0,5.37,0.03,11.13,0.1,17.26l-0.25,6.69l0.25,35.12c0,4.58-0.37,6.87-1.1,6.87
		c-0.27,0.42-1,0.64-2.18,0.64h-8.51c-2.25,0-3.36-0.54-3.36-1.64c0.14-21.23,0.29-35.14,0.44-41.69
		c-0.07-8.02-0.2-16.11-0.44-24.25C142.8,830.76,146.44,830.24,148.61,830.24L148.61,830.24z"/>
	<path d="M103.1,665.96c2.75-1.05,6.31-1.86,10.19-3.18c10.61-3.64,19.49-9.48,21.73-20.92c0.74-3.76,0.93-7.48,2.05-11.43
		c0.12-0.46,0.46-0.85,0.97-0.93l13.48-2.83c5.58-1.2,11.31-2.44,16.97-3.41c8.11-1.37-5.54,0.71-14.37,14.49
		c-3.49,5.38-4.45,9.88-4.45,14.14c0,2.83,0.43,5.58,0.78,8.44c0.04,0.62,0.81,0.89,1.32,0.46c1.9-1.51,4.45-2.94,7.09-4.72
		c18.19-12.21,13.81-22.17,17.47-33.27c0.15-0.47,0.58-0.81,1.05-0.85c11.95-1.24,20.62-1.49,32.42,0.43v0.27
		c-11.7,1.82-22.48,9.27-23.98,21.5c-0.41,3.35-0.24,6.38-0.19,9.68c0,0.58,0.7,0.89,1.16,0.54c3.66-2.89,7.96-3.98,14.29-9.26
		c8.59-7.16,8.76-13.46,14.25-20.99c0.27-0.39,0.77-0.58,1.24-0.46c7.28,1.63,14.91,4.07,22.66,7.28l8.41,3.84
		c0,0.19-0.23,0.08-0.54,0.04c-11.63-1.66-24.48,1.67-30.09,12.63c-1.47,2.9-2.4,5.93-3.45,9.02c-0.19,0.54,0.35,1.08,0.89,0.89
		c3.69-1.3,9.83-1,17.58-3.72c10.75-3.76,12.76-10.12,20.14-15.84c0.39-0.31,0.93-0.39,1.36-0.15c8.87,4.65,18.09,10.27,27.85,16.96
		c2.28,1.54,4.45-1.82,2.32-3.29c-9.95-6.86-19.33-12.55-28.35-17.27c-0.43-0.23-0.66-0.7-0.66-1.16
		c0.07-9.18,4.35-16.02-2.21-26.45c-3.1-4.88-7.09-8.44-10.88-11.27c-3.17-2.36-6.23-4.22-8.48-6.04c-0.5-0.43-1.28-0.15-1.36,0.5
		c-0.5,3.14-1.16,6.12-1.16,9.34c0,18.09,22.86,34.14,18.32,31.91c-10.39-5.09-20.83-8.64-31.49-11.15
		c-0.47-0.12-0.85-0.5-0.97-0.97c-2.43-9.7-0.49-17.14-10.19-24.79c-4.76-3.8-10.07-5.89-14.76-7.28c-3.99-1.16-7.52-1.9-10.27-2.83
		c-0.62-0.23-1.24,0.27-1.12,0.93c1.62,8.82,2.32,13.56,10.65,20.84c6.42,5.61,13.13,9.04,20.18,12.74c0,0.15-0.19,0.08-0.35,0.04
		c-6.01-0.97-12.09-1.47-18.13-1.47c-4.92,0-10.07,0.35-15.57,1.01c-0.5,0.04-1.01-0.15-1.28-0.58
		c-5.39-8.29-5.73-15.43-16.73-20.53c-9.35-4.34-16.28-3.6-21.53-5.31c-0.58-0.19-1.2,0.31-1.01,0.89c0.89,3.14,1.67,6.24,3.1,9.26
		c8.13,17.28,35.39,16.52,30.21,17.31c-11.07,1.69-21.75,4.7-32.34,6.54c-0.46,0.08-0.97-0.12-1.24-0.5
		c-5.45-7.65-5.53-14.17-14.72-20.96c-6.38-4.72-11.98-6.44-15.07-8.79c-0.46-0.35-1.12,0-1.08,0.58c0.04,3.25-0.04,6.43,0.46,9.64
		c1.99,12.39,12.86,19.07,24.79,20.92c0.7,0.11,0.51,0.22-0.04,0.31c-10.96,1.76-20.78,2.25-31.84,1.32
		c-2.41-0.2-9.76-6.62-14.87-9.06c-11.46-5.48-23.82-2.74-30.75-3.99c-0.58-0.12-1.01,0.54-0.7,1.05c1.7,3.25,3.33,6.47,5.81,9.41
		c9.39,11.25,27.41,12.6,40.44,7.01c0.46-0.19,0.97-0.27,1.47-0.23c11,0.86,20.29,0.13,31.14-1.51c0.75-0.11,0.6,0.04,0.12,0.31
		c-1.59,0.74-3.25,1.63-5,2.59c-8.46,4.76-19.23,12.59-22.39,21.81c-1.09,3.21-1.4,6.39-1.9,9.64
		C101.82,665.72,102.48,666.19,103.1,665.96L103.1,665.96z M688.9,665.96c-2.75-1.05-6.31-1.86-10.19-3.18
		c-10.61-3.64-19.49-9.48-21.73-20.92c-0.74-3.76-0.93-7.48-2.05-11.43c-0.12-0.46-0.46-0.85-0.97-0.93l-13.48-2.83
		c-5.58-1.2-11.31-2.44-16.97-3.41c-8.11-1.37,5.54,0.71,14.37,14.49c3.49,5.38,4.45,9.88,4.45,14.14c0,2.83-0.43,5.58-0.78,8.44
		c-0.04,0.62-0.81,0.89-1.32,0.46c-1.9-1.51-4.45-2.94-7.09-4.72c-18.19-12.21-13.81-22.17-17.47-33.27
		c-0.16-0.47-0.58-0.81-1.05-0.85c-11.95-1.24-20.62-1.49-32.42,0.43v0.27c11.7,1.82,22.48,9.27,23.98,21.5
		c0.41,3.35,0.24,6.38,0.19,9.68c0,0.58-0.7,0.89-1.16,0.54c-3.66-2.89-7.96-3.98-14.29-9.26c-8.59-7.16-8.76-13.46-14.25-20.99
		c-0.27-0.39-0.77-0.58-1.24-0.46c-7.28,1.63-14.91,4.07-22.66,7.28l-8.41,3.84c0,0.19,0.23,0.08,0.54,0.04
		c11.63-1.66,24.48,1.67,30.09,12.63c1.47,2.9,2.4,5.93,3.45,9.02c0.19,0.54-0.35,1.08-0.89,0.89c-3.69-1.3-9.83-1-17.58-3.72
		c-10.75-3.76-12.76-10.12-20.14-15.84c-0.39-0.31-0.93-0.39-1.36-0.15c-8.87,4.65-18.09,10.27-27.85,16.96
		c-2.28,1.54-4.45-1.82-2.32-3.29c9.95-6.86,19.33-12.55,28.35-17.27c0.43-0.23,0.66-0.7,0.66-1.16
		c-0.07-9.18-4.35-16.02,2.21-26.45c3.1-4.88,7.09-8.44,10.88-11.27c3.17-2.36,6.24-4.22,8.48-6.04c0.5-0.43,1.28-0.15,1.36,0.5
		c0.5,3.14,1.16,6.12,1.16,9.34c0,18.09-22.86,34.14-18.32,31.91c10.39-5.09,20.83-8.64,31.49-11.15c0.47-0.12,0.85-0.5,0.97-0.97
		c2.43-9.7,0.49-17.14,10.19-24.79c4.76-3.8,10.07-5.89,14.76-7.28c3.99-1.16,7.52-1.9,10.27-2.83c0.62-0.23,1.24,0.27,1.12,0.93
		c-1.62,8.82-2.32,13.56-10.65,20.84c-6.42,5.61-13.13,9.04-20.18,12.74c0,0.15,0.19,0.08,0.35,0.04
		c6.01-0.97,12.09-1.47,18.13-1.47c4.92,0,10.07,0.35,15.57,1.01c0.5,0.04,1.01-0.15,1.28-0.58c5.39-8.28,5.73-15.43,16.73-20.53
		c9.35-4.34,16.28-3.6,21.53-5.31c0.58-0.19,1.2,0.31,1.01,0.89c-0.89,3.14-1.67,6.24-3.1,9.26c-8.13,17.28-35.39,16.52-30.21,17.31
		c11.07,1.69,21.75,4.7,32.34,6.54c0.46,0.08,0.97-0.12,1.24-0.5c5.45-7.65,5.53-14.17,14.72-20.96c6.38-4.72,11.98-6.44,15.07-8.79
		c0.46-0.35,1.12,0,1.08,0.58c-0.04,3.25,0.04,6.43-0.46,9.64c-1.99,12.39-12.86,19.07-24.79,20.92c-0.7,0.11-0.51,0.22,0.04,0.31
		c10.96,1.76,20.78,2.25,31.84,1.32c2.41-0.2,9.76-6.62,14.87-9.06c11.46-5.48,23.82-2.74,30.75-3.99c0.58-0.12,1.01,0.54,0.7,1.05
		c-1.7,3.25-3.33,6.47-5.81,9.41c-9.39,11.25-27.41,12.6-40.43,7.01c-0.46-0.19-0.97-0.27-1.47-0.23c-11,0.86-20.29,0.13-31.14-1.51
		c-0.75-0.11-0.6,0.04-0.12,0.31c1.59,0.74,3.25,1.63,5,2.59c8.46,4.76,19.23,12.59,22.39,21.81c1.09,3.21,1.4,6.39,1.9,9.64
		C690.18,665.72,689.52,666.19,688.9,665.96L688.9,665.96z"/>
</g>
</svg>
