<?xml version="1.0" encoding="utf-8"?>
<!-- Generator: Adobe Illustrator 25.0.0, SVG Export Plug-In . SVG Version: 6.00 Build 0)  -->
<svg version="1.1" id="Layer_1" xmlns="http://www.w3.org/2000/svg" xmlns:xlink="http://www.w3.org/1999/xlink" x="0px" y="0px"
	 viewBox="0 0 864 864" style="enable-background:new 0 0 864 864;" xml:space="preserve">
<g>
	<path d="M210.97,313.35c2.79-2.73,4.49-6.3,4.49-10.56c0-8.9-7.28-13.92-16.25-12.94l-20.15,2.19v51.48l21.62-2.35
		C218.07,339.27,222.42,319.37,210.97,313.35L210.97,313.35z M199.21,300.88c6.04-0.66,5.95,8.47,0,9.12l-8.38,0.91v-9.12
		L199.21,300.88L199.21,300.88z M200.68,330.13l-9.85,1.07v-9.85l9.85-1.07C207.18,319.57,207.17,329.43,200.68,330.13
		L200.68,330.13z M249.99,324.48v-9.12l18.38-2v-11.18l-18.38,2v-8.53l20.22-2.2v-11.32l-31.99,3.47v51.47l32.36-3.51v-11.32
		L249.99,324.48L249.99,324.48z M328.64,328.3c11.18-1.21,19.12-7.96,19.12-17.89c0-18.46-25.81-10.85-25.81-19.55
		c0-2.06,1.84-4.1,5.52-4.5c4.71-0.51,7.13,1.51,8.9,4.99l9.93-6.89c-3.75-7.17-10.37-10.49-18.83-9.57
		c-8.9,0.97-17.28,7.61-17.28,17.54c0,18.73,25.81,10.9,25.81,19.41c0,1.99-1.4,4.34-6.99,4.95c-5.81,0.63-8.97-1.89-10.81-5.96
		l-10.15,6.98C310.92,325.08,317.83,329.47,328.64,328.3L328.64,328.3z M401.41,267.9l-38.24,4.15v11.32l13.24-1.44v40.15
		l11.77-1.28v-40.15l13.24-1.44V267.9L401.41,267.9z M448.66,314.24l12.65-1.37l-10.96-17.71c5.66-3.48,9.49-9.63,9.49-15.96
		c0-9.78-7.87-16.79-17.65-15.73l-20.59,2.24v51.47l11.77-1.28v-16.91l5.59-0.61L448.66,314.24L448.66,314.24z M433.36,275.46
		l8.82-0.96c3.24-0.35,5.88,2.23,5.88,5.98c0,3.75-2.65,6.91-5.88,7.26l-8.82,0.96V275.46L433.36,275.46z M505.69,309.08
		c14.78-1.6,26.77-14.52,26.77-29.67s-11.99-25.47-26.77-23.86c-14.78,1.6-26.77,14.52-26.77,29.67S490.91,310.68,505.69,309.08
		L505.69,309.08z M505.69,297.61c-8.38,0.91-15-4.48-15-13.67c0-9.19,6.62-16.01,15-16.92c8.38-0.91,15,4.47,15,13.67
		C520.69,289.88,514.07,296.7,505.69,297.61L505.69,297.61z M582.79,248.2v27.94l-19.85-25.79l-8.82,0.96v51.48l11.77-1.28v-27.94
		l19.85,25.79l8.82-0.96v-51.48L582.79,248.2L582.79,248.2z M669.39,261.6l-25.81,2.8v10.3l13.75-1.49
		c-1.84,5.13-6.32,8.63-13.16,9.37c-10,1.09-16.18-4.64-16.18-13.39c0-17.42,21.43-21.71,27.72-12.42l10-6.82
		c-4.34-6.44-12.65-10.39-22.5-9.32c-15.15,1.64-26.99,14.84-26.99,29.77c0,14.78,11.62,25.43,27.8,23.68
		c14.41-1.56,25.37-12.31,25.37-28.05V261.6L669.39,261.6z M753.41,277.78l-6.47-6.5c2.21-3.62,3.75-7.61,4.71-11.32l-9.85-4.52
		c-0.59,3.08-1.4,5.89-2.43,8.35l-9.49-9.49c-2.28-2.25-4.04-3.97-4.04-6.84c0-2.5,1.99-4.55,4.93-4.87
		c3.31-0.36,5.37,1.55,6.69,4.86l10.07-6.9c-3.16-7.23-9.49-10.22-16.91-9.42c-14.67,1.59-20,15.78-14.41,24.8
		c-5.29,3.96-8.24,9.79-8.24,15.67c0,9.71,7.79,14.67,18.38,13.52c5.29-0.57,9.71-2.6,13.31-5.49l4.56,4.43L753.41,277.78
		L753.41,277.78z M727.3,274.29c-9.25,1-8.73-7.57-4.71-11.25l9.85,9.52C730.9,273.53,729.21,274.08,727.3,274.29L727.3,274.29z"/>
	<path d="M126.6,441.12l-5.49,8.3c-15.53,33.48-37.71,65.16-69.21,82.94c-9.76,4.8-19.52,2.94-26.17-5.08
		c-7.27-10.63-8.74-24.9-9.32-37.4c-1.59-10.92,4.98-48.73,7.1-59.47c7.7-39.04,32.02-96.4,59.89-125.67
		c4.44-4.56,9.76-9.68,15.97-12.69c6.65-3.51,13.75-2.2,17.3,3.11c3.75,6.86,15.12,4.68,13.75-3.09
		c-3.99-12.8-16.86-20.47-29.72-16.6c-8.87,2.47-15.53,6.87-21.74,12.98c-11.53,9.91-20.41,22.13-27.95,33.74
		c-16.41,26.06-27.95,54.15-36.38,80.52c-4.88,15.71-8.43,33.46-11.53,49.83c-1.33,8.6-2.22,18.03-2.66,26.51
		c-0.89,8.99-0.44,20.91,1.33,30.44c1.77,9.98,4.88,20.67,11.53,29.13c7.1,7.96,15.97,13.04,28.39,11.89
		c9.76-0.81,18.19-5.43,26.62-11.39c21.69-16.33,37.65-37.05,52.05-60.17c-0.33,7.15-1.43,18.72,2.96,24.74
		c3.11,5.81,9.32,6.79,15.08,2.95c9.44-6.37,12.9-14.14,17.3-23.51c5.12-11.83,12.3-36.22,9.32-47.77
		c-1.77,2.89,3.99-7.17,6.65-11.94c4.44-8.55,8.87-16.66,14.2-17.79c4.88,3.81,4.88,19.78,4.44,32.7c0,1.77-0.89,3.66-0.89,5.44
		c-2.22,11.82-4.44,23.19-5.77,34.9c-0.89,7.21-0.44,14.7,2.22,20.57c3.11,8.48,11.09,9.67,18.19,2.11c2.66-3,4.88-5.95,6.65-8.84
		c4.88-8.17,9.76-18.99,13.75-28.82l0.44,16.8c0.89,9.65,2.66,18.73,12.42,23.7c7.54,1.7,14.2-1.82,19.96-8.77
		c5.63-7.25,11.16-17.05,16.42-27.13c-0.07,5.14,0.91,13.79,2.21,17.65c3.71,9.78,13.43,7.61,16.86-0.83
		c1.38-3.22,2.72-6.03,3.99-9.38c2.66-9.21,4.44-12.99,6.21-18.1l4.88-14.38c1.77-5.99,3.11-11.93,5.32-16.65l4.44,6.53
		c8.39,13.5,18.89,10.78,31.63,5.23c-0.49,1.28-0.98,2.54-1.46,3.78c-2.66,7.44-3.11,16.37-3.11,23.91c0,7.1,1.77,12.64,10.65,12.83
		c4.88-1.6,9.07-4.81,12.37-8.68c9.51-10.13,14.46-22.52,20.91-35.06c0,8.53-0.85,12.24,3.11,20.45c3.99,9.25,11.98,13.11,24.4,7.97
		c10.02-4.62,19.66-13.18,28.08-23.34c3.61,6.16,12.14,5.23,17.17,1.14c3.8-3.45,8.82-8.66,6.98-6.54
		c11.38-12.96,20.14-29.91,25.85-46.9l3.55-9.33c2.32,12.59,3.99,28.46,3.99,43.41l-2.22,1.61c-25.29,19.21-46.58,40.12-64.33,66.35
		c-12.86,18.06-23.51,36.72-30.61,55.82c-3.99,12.93-6.65,31.91-4.88,45.87c2.22,14.36,9.32,25.87,20.85,34.6
		c8.87,5.96,19.08,8.65,30.61,6.73c12.87-2.09,23.96-9.72,33.27-20.67c7.54-9.39,13.31-20.78,17.3-31.49
		c10.65-31.09,16.86-65.15,19.52-97.88c0.44-6.27,0.44-13.37,0.44-20.91v-36.82l27.5-17.72c1.67-0.46,3.2-1.12,4.58-1.92
		c-0.73,6.36-0.73,13.08-0.14,19.54c0.89,11.42,8.87,17.94,20.85,15.96c3.11-0.4,7.1-1.8,9.32-2.97
		c9.76-5.24,18.19-11.64,24.84-21.37l6.9-9.18c-0.73,8.27-0.89,16.51-0.69,24.35c1.58,9.31,7.98,18.23,18.19,11.42
		c9.44-6.37,12.9-14.14,17.3-23.51c4.83-9.54,8.43-20.93,8.43-31.69c0-2.99,1.68-13,0.89-16.08c-1.77,2.89,3.99-7.17,6.65-11.94
		c4.44-8.55,8.87-16.66,14.2-17.79c4.88,3.81,4.88,19.78,4.44,32.7c0,1.77-0.89,3.66-0.89,5.44c-2.22,11.82-4.44,23.19-5.77,34.9
		c-0.89,7.21-0.44,14.7,2.22,20.57c3.11,8.47,11.09,9.67,18.19,2.11c2.66-3,4.88-5.95,6.65-8.84c4.88-8.17,9.76-18.99,13.75-28.82
		l0.44,16.8c0.89,9.65,2.66,18.74,12.42,23.7c7.54,1.7,14.2-1.82,19.96-8.77c8.79-11.32,19.59-32.66,26.95-48.58
		c0.46,0.65,0.94,1.29,1.44,1.91c3.55,3.98,6.65,8.46,11.09,12.33c0,0.21-0.17,0.41-0.44,0.94c-10.65,13.34-18.19,26.28-23.51,40.72
		c-2.66,7.88-4.44,15.65-3.99,23.58c1.77,16.63,16.86,20.91,27.95,15.5c6.65-3.07,11.53-7.24,15.53-13.52
		c7.54-11.17,11.98-22.38,13.75-34.59c1.33-13.04-0.89-25.17-7.99-35.8c1.48-2.02,1.59-2.45,3.55-4
		c7.99-7.68,16.41-15.41,26.62-21.6c2.66-1.67,4.88-3.29,7.54-2.74c0.6,0.4,2.97,5.83,5.77,5.03c6.47-1.86,8.61-6.61,7.54-11.61
		c-0.89-1.66-1.33-2.05-1.33-2.05c-4.88-5.59-11.09-7.45-18.63-4.27c-9.76,4.35-19.52,11.37-27.5,19.05l-10.65,9.79l-2.22,1.61
		c-1.33-1.6-4.88-5.14-4.44-4.76c-4.04-4.87-7.76-8.75-8.87-15.28c-0.44-7.48,3.99-16.48,9.76-22.54c1.29-1.01,2.18-0.81,3.11-0.84
		c10.36-0.36,9.48-14.99,1.77-15.31c-6.65,0.41-7.98,1.02-11.09,3.19c-12.08,8.02-20.39,22.27-20.83,35.71
		c-1.29,1.59-2.26,3.44-3.12,5.07c-5.32,11.33-18.19,35.6-24.4,46.6c-1.77,3.33-3.55,6.22-6.65,8.39
		c-0.9-3.98-2.66-11.92-2.66-18.74c-0.44-7.93,0-15.97,0.44-23.57c0-5.37,0.99-11.32,1.77-16.64c0.44-7.6,0.44-16.03,1.33-24.57
		c0-15.2-14.6-9.34-14.64-5.67c-4.88,20.59-11.98,42.35-19.08,62.77c-3.55,8.88-7.99,18.32-13.31,26.55l1.33-13.04
		c1.33-5.94,5.77-28.24,5.77-48.21c0-27.78-8.94-47.86-34.16-25.35c-4.94,4.24-11.32,15.22-13.75,20.39
		c-6.21-4.53-15.08-3.39-22.18,5.06c-5.21,5.96-7.21,10.78-9.33,18.3c-0.15,0.08-0.3,0.17-0.43,0.25c-4.69,4.35-8.4,9.86-12.42,14.9
		c-5.77,8.72-11.98,16.62-19.08,22.4c-4.88,4.62-10.65,8.46-17.3,8.43c-4.28-4.95-3.55-10.58-3.55-16.4
		c2.11,0.43,4.58,1.38,5.77,0.15c7.54-7.18,12.42-15.34,17.74-23.12c3.55-5.33,6.65-11.5,8.43-14.83
		c2.22-9.16,1.77-20.63-8.87-24.59c-15.78-0.94-26.68,18.79-31.05,31.48c-1.16,3.33-2.12,6.82-2.9,10.48
		c-0.47-0.08-0.98-0.13-1.53-0.15l-12.87,7.41l-22.18,12.15c-0.81-0.97-1.33-1.14-1.33-2.49c-0.44-6.6-0.89-13.64-1.77-18.85
		c-1.9-15.16-3.35-28.18-6.65-43.07c-0.89-4.77-3.11-7.14-8.43-6.46c-4.44,0.57-6.65,2.63-8.87,7.79l-1.33,5.05l-4.44,16.09
		c-4.44,0.57-9.32,2.97-12.87,5.2c-6.21,6.56-12.87,14.51-17.74,21.35c-1.46,2.68-2.86,5.41-4.19,8.17
		c-0.26,0.1-0.51,0.24-0.69,0.44c-5.32,6-8.43,11.73-11.53,17.89c-4.88,9.05-9.32,17.61-23.96,26.58c-7.1,4.9-11.98,1.53-11.98-7.78
		v-28.84c0.44-2.72,0.44-6.27,0-8.87c-1.33-5.6-4.44-8.3-7.54-6.58l-7.1,4.9c-10.65-0.41-21.74,5.44-27.95,13.34
		c-1.55,2.34-0.86,2.1-3.99,3.17l-17.3,7.54c-3.99,0.95-7.54,0.52-9.32-2.8c-1.33-2.93-1.77-5.98-2.22-9.48v-12.87
		c0-9.26-7.62-12.02-12.87-8.11c-6.65,7.06-9.32,11.84-24.84,52.87c0-4.46,0.95-13.86,1.33-18.8c0.44-5.82,1.33-12.15,2.22-17.58
		c0.43-5.29,1.77-6.12,1.77-10.43c0-10.26-13.01-6.94-14.2,3.15c-1.33,5.49-2.66,12.76-3.55,18.2c-0.59,3.32-1.18,6.83-1.64,10.39
		c-0.72,1.13-1.34,2.3-1.91,3.37c-5.32,11.33-18.19,35.6-24.4,46.6c-1.77,3.33-3.55,6.22-6.65,8.39c-1.87-5.55-2.66-12.9-2.66-18.74
		c-0.44-7.93,0-15.97,0.44-23.57c0-5.36,0.99-11.32,1.77-16.64c0.44-7.6,0.44-16.03,1.33-24.57c0-14.99-12.47-12.06-14.64-5.67
		c-4.88,20.59-11.98,42.35-19.08,62.77c-3.55,8.88-7.99,18.32-13.31,26.55l1.33-13.04c1.33-5.94,5.77-28.24,5.77-48.21
		c0-27.78-9.59-49.01-34.16-25.35c-4.94,4.24-11.32,15.22-13.75,20.39c-8.51-6.21-16.58-0.85-22.67,5.58
		C130.29,431.49,128.29,435.79,126.6,441.12L126.6,441.12z M147.73,467.75c-2.22,8.27-6.21,17.65-11.53,24.54
		c-0.89,1-0.89,1.44-1.77,1.56c-3.55-18.62,5.77-43.33,13.31-58.93c0.36-0.08,0.4,0.06,0.44,0.39c-0.44,3.61,0.89,8.32,2.66,10.31
		C150.83,453.55,148.99,460.02,147.73,467.75L147.73,467.75z M463.57,408.27c3.61-7.78,9.68-16.61,18.21-24.52
		c-4.88,17.04-12.42,31.31-25.29,44.94c0.44-4.05,2.22-7.83,3.99-12.05C461.61,413.89,462.62,411.24,463.57,408.27L463.57,408.27z
		 M377.53,426.81c-4.88,11.27-9.32,21.6-17.74,31.55c1.77-11.32,4.44-22.75,10.2-32.8l5.77-6.51c1.33-1.5,4.97-4.2,7.64-4.99
		L377.53,426.81L377.53,426.81z M503.07,438.69c0,8.88,0.44,17.79,0.44,26.56c0,19.57-4.98,52.81-9.32,72.17
		c-2.66,14.54-6.65,30.57-12.42,45.95c-3.55,8.44-8.43,17.94-14.64,24.06c-10.95,10.66-26.35,13.38-38.6,4.05
		c-9.32-6.79-14.64-16.31-15.08-29.12c-0.44-11.92,3.55-29.73,7.99-41.39c8.87-18.88,21.74-40.05,34.6-56.33
		c12.86-15.84,28.39-31.14,45.25-45.27L503.07,438.69L503.07,438.69z M586.47,363.25c2.01,3.76-4.23,14.68-6.21,18.1
		c-3.11,4.83-6.21,9.22-9.76,13.67C573.16,382.69,576.27,372.09,586.47,363.25L586.47,363.25z M642.37,404.45
		c-2.22,8.27-6.21,17.65-11.53,24.54c-0.89,1-0.89,1.44-1.77,1.56c-3.55-18.62,5.77-43.33,13.31-58.93c0.45-0.6,0.44,0.09,0.44,0.39
		c-0.44,3.61,0.89,8.32,2.66,10.31C645.48,390.25,643.63,396.72,642.37,404.45L642.37,404.45z M777.68,457.67
		c0-4.88,0.89-9.43,2.66-13.65c4.88-12.6,11.09-24.04,20.85-35.94c1.77,2.88,2.66,5.87,3.11,8.92c1.77,13.08-1.33,27.23-8.87,39.73
		c-3.55,4.45-6.21,7.01-11.53,9.46C779.45,464.98,777.68,461.66,777.68,457.67L777.68,457.67z"/>
	<path d="M543.64,548.95c7.63,0,13.35-4.5,13.35-12.66v-25.17h-8.48v25.17c0,2.28-1.11,4.4-4.82,4.4c-2.86,0-4.08-1.11-5.25-3.18
		l-7.36,4.24C533.52,546.46,537.76,548.95,543.64,548.95L543.64,548.95z M582.19,548.95c10.65,0,19.29-8.37,19.29-19.29
		c0-10.91-8.64-19.28-19.29-19.28c-10.65,0-19.28,8.37-19.28,19.28C562.91,540.58,571.55,548.95,582.19,548.95L582.19,548.95z
		 M582.19,540.68c-6.04,0-10.81-4.4-10.81-11.02c0-6.62,4.77-11.02,10.81-11.02c6.04,0,10.81,4.4,10.81,11.02
		C593,536.29,588.23,540.68,582.19,540.68L582.19,540.68z M619.32,548.95c8.05,0,13.78-4.24,13.78-11.39c0-7.84-6.3-9.8-11.92-11.5
		c-5.78-1.75-6.68-2.91-6.68-4.61c0-1.48,1.32-2.81,3.97-2.81c3.39,0,5.14,1.64,6.41,4.29l7.15-4.19c-2.7-5.46-7.47-8.37-13.56-8.37
		c-6.41,0-12.45,4.13-12.45,11.28c0,7.1,5.4,9.75,10.91,11.29c5.56,1.54,7.68,2.44,7.68,4.72c0,1.43-1.01,3.02-5.03,3.02
		c-4.19,0-6.46-2.07-7.79-5.14l-7.31,4.24C606.55,545.24,611.53,548.95,619.32,548.95L619.32,548.95z M658.62,511.12v14.2h-11.66
		v-14.2h-8.48v37.09h8.48v-14.73h11.66v14.73h8.48v-37.09H658.62L658.62,511.12z M688.91,548.95c8.16,0,14.31-4.77,14.31-12.72
		v-25.11h-8.48v24.37c0,2.81-1.32,5.19-5.83,5.19c-4.5,0-5.83-2.38-5.83-5.19v-24.37h-8.48v25.11
		C674.61,544.18,680.75,548.95,688.91,548.95L688.91,548.95z M733.24,548.21h9.27l-12.61-37.09H719.1l-12.61,37.09h9.27l1.85-5.83
		h13.78L733.24,548.21L733.24,548.21z M720.16,534.43l4.34-13.62l4.34,13.62H720.16L720.16,534.43z M767.4,511.12l-9.7,3.5
		l2.07,7.26l6.57-1.8v28.13h8.48v-37.09H767.4L767.4,511.12z M787.36,530.94c2.76,0,5.03-2.28,5.03-5.03s-2.28-5.03-5.03-5.03
		s-5.03,2.28-5.03,5.03S784.61,530.94,787.36,530.94L787.36,530.94z M787.36,548.95c2.76,0,5.03-2.28,5.03-5.03
		c0-2.75-2.28-5.03-5.03-5.03s-5.03,2.28-5.03,5.03C782.33,546.67,784.61,548.95,787.36,548.95L787.36,548.95z M824.81,523.47
		c0-7.68-5.56-13.09-13.77-13.09c-8.16,0-13.78,5.4-13.78,13.09c0,7.21,4.98,12.45,12.34,13.03l-8.05,11.71h9.75l11.34-17.22
		C824.01,528.92,824.81,526.33,824.81,523.47L824.81,523.47z M805.73,523.47c0-3.23,2.49-5.14,5.3-5.14c2.86,0,5.3,1.85,5.3,5.14
		s-2.44,5.14-5.3,5.14C808.22,528.6,805.73,526.7,805.73,523.47L805.73,523.47z"/>
</g>
</svg>
