<?xml version="1.0" encoding="utf-8"?>
<!-- Generator: Adobe Illustrator 25.0.0, SVG Export Plug-In . SVG Version: 6.00 Build 0)  -->
<svg version="1.1" id="Layer_1" xmlns="http://www.w3.org/2000/svg" xmlns:xlink="http://www.w3.org/1999/xlink" x="0px" y="0px"
	 viewBox="0 0 864 864" style="enable-background:new 0 0 864 864;" xml:space="preserve">
<g>
	<path d="M189.08,215.23h10.68c2.09,0,3.76-1.7,3.76-3.8v-5.11c0-15.08-11.77-27.85-26.86-28.3c-15.66-0.45-28.56,12.16-28.56,27.73
		v36.6c0,15.08,11.8,27.85,26.89,28.3c15.66,0.45,28.53-12.16,28.53-27.73v-5.69c0-2.09-1.67-3.8-3.76-3.8h-10.68
		c-2.09,0-3.76,1.7-3.76,3.8v5.44c0,4.92-3.67,9.23-8.59,9.71c-5.63,0.51-10.39-3.92-10.39-9.46V206c0-4.92,3.67-9.23,8.56-9.71
		c5.66-0.51,10.42,3.92,10.42,9.46v5.69C185.32,213.52,186.99,215.23,189.08,215.23L189.08,215.23z M304.59,178.02h-10.68
		c-2.09,0-3.76,1.67-3.76,3.76v33.45h-18.98v-33.45c0-2.09-1.7-3.76-3.76-3.76H256.7c-2.09,0-3.76,1.67-3.76,3.76v85.1
		c0,2.09,1.67,3.76,3.76,3.76h10.71c2.06,0,3.76-1.67,3.76-3.76v-33.45h18.98v33.45c0,2.09,1.67,3.76,3.76,3.76h10.68
		c2.09,0,3.76-1.67,3.76-3.76v-85.1C308.35,179.69,306.68,178.02,304.59,178.02L304.59,178.02z M386.26,178.02
		c-15.28,0-27.72,12.45-27.72,27.73v37.18c0,15.28,12.45,27.73,27.72,27.73c15.28,0,27.69-12.45,27.69-27.73v-37.18
		C413.95,190.46,401.54,178.02,386.26,178.02L386.26,178.02z M395.75,242.92c0,5.24-4.28,9.49-9.49,9.49
		c-5.24,0-9.49-4.25-9.49-9.49v-37.18c0-5.24,4.25-9.49,9.49-9.49c5.21,0,9.49,4.25,9.49,9.49V242.92L395.75,242.92z M479.86,203.81
		c1.87-9.52,15.54-10.23,18.37-0.8c0.48,1.61,1.96,2.73,3.63,2.73h10.94c2.32,0,4.08-2.09,3.73-4.41
		c-2.22-13.73-14.51-24.12-29.04-23.29c-13.77,0.8-25.02,11.97-25.99,25.73c-1.13,16.11,11.74,29.62,27.69,29.65
		c5.79,0.03,10.42,5.34,9.26,11.35c-1.81,9.51-15.52,10.43-18.4,0.84c-0.48-1.58-1.93-2.7-3.6-2.7h-10.94
		c-2.35,0-4.12,2.09-3.73,4.41c2.19,13.73,14.54,24.15,29.08,23.25c13.77-0.8,25.02-12,25.92-25.76
		c1.09-16.08-11.68-29.56-27.56-29.59C483.21,215.2,478.67,209.74,479.86,203.81L479.86,203.81z M608.43,196.25
		c2.09,0,3.76-1.7,3.76-3.76v-10.71c0-2.09-1.67-3.76-3.76-3.76h-38.79c-2.09,0-3.76,1.67-3.76,3.76v85.1
		c0,2.09,1.67,3.76,3.76,3.76h38.79c2.09,0,3.76-1.67,3.76-3.76v-10.71c0-2.06-1.67-3.76-3.76-3.76h-24.32v-18.98h11.32
		c2.09,0,3.76-1.67,3.76-3.76v-10.68c0-2.09-1.67-3.76-3.76-3.76h-11.32v-18.98H608.43L608.43,196.25z M712.13,178.02h-10.68
		c-2.09,0-3.76,1.67-3.76,3.76v41.14l-21.42-42.81c-0.64-1.29-1.93-2.09-3.38-2.09h-8.65c-2.09,0-3.76,1.67-3.76,3.76v85.1
		c0,2.09,1.67,3.76,3.76,3.76h10.71c2.06,0,3.76-1.67,3.76-3.76v-41.14l21.39,42.81c0.64,1.29,1.96,2.09,3.38,2.09h8.65
		c2.09,0,3.76-1.67,3.76-3.76v-85.1C715.9,179.69,714.23,178.02,712.13,178.02L712.13,178.02z"/>
	<path d="M79.22,451.33h-39.4c-2.12,0-3.82,1.7-3.82,3.82v86.44c0,2.12,1.7,3.82,3.82,3.82H50.7c2.09,0,3.82-1.7,3.82-3.82v-33.97
		h11.5c2.12,0,3.82-1.7,3.82-3.82v-10.85c0-2.12-1.7-3.82-3.82-3.82h-11.5v-19.27h24.7c2.12,0,3.82-1.73,3.82-3.82v-10.88
		C83.04,453.03,81.34,451.33,79.22,451.33L79.22,451.33z M164.08,451.33c-15.52,0-28.16,12.64-28.16,28.16v37.76
		c0,15.52,12.64,28.16,28.16,28.16c15.52,0,28.13-12.64,28.13-28.16v-37.76C192.21,463.97,179.6,451.33,164.08,451.33L164.08,451.33
		z M173.72,517.25c0,5.32-4.34,9.64-9.64,9.64c-5.32,0-9.64-4.31-9.64-9.64v-37.76c0-5.32,4.31-9.64,9.64-9.64
		c5.29,0,9.64,4.31,9.64,9.64V517.25L173.72,517.25z M308.04,539.86l-17.67-34.76c16.06-7.33,21.38-27.49,11.56-41.52
		c-5.46-7.84-14.01-12.25-23.23-12.25h-24.34c-2.09,0-3.82,1.7-3.82,3.82v86.44c0,2.12,1.73,3.82,3.82,3.82h10.88
		c2.09,0,3.82-1.7,3.82-3.82v-33.97h1.8l18.2,35.71c0.65,1.27,1.96,2.09,3.4,2.09h12.18C307.48,545.41,309.35,542.41,308.04,539.86
		L308.04,539.86z M285.5,486.28c-1.8,1.83-4.21,2.84-6.79,2.84h-9.64v-19.27h9.64C287.28,469.85,291.58,480.31,285.5,486.28
		L285.5,486.28z M415.67,490.34h-21.85c-2.12,0-3.85,1.73-3.85,3.85v10.85c0,2.12,1.73,3.82,3.85,3.82H401v8.13
		c0,5-3.72,9.38-8.72,9.87c-5.72,0.52-10.55-3.99-10.55-9.6v-37.5c0-5,3.72-9.38,8.69-9.87c4.74-0.42,8.89,2.58,10.16,6.83
		c0.49,1.63,1.96,2.78,3.69,2.78h11.11c2.35,0,4.15-2.12,3.79-4.44c-2.19-13.69-14.28-24.14-28.65-23.72
		c-15.32,0.46-27.31,13.43-27.31,28.75v36.59c0,15.32,11.99,28.29,27.31,28.75c15.91,0.46,28.98-12.35,28.98-28.16v-23.06
		C419.49,492.07,417.79,490.34,415.67,490.34L415.67,490.34z M492.14,451.33h-10.88c-2.12,0-3.82,1.7-3.82,3.82v86.44
		c0,2.12,1.7,3.82,3.82,3.82h10.88c2.09,0,3.82-1.7,3.82-3.82v-86.44C495.96,453.03,494.23,451.33,492.14,451.33L492.14,451.33z
		 M609.73,451.33h-11.21c-1.73,0-3.27,1.21-3.69,2.91L582.13,505l-12.68-50.77c-0.42-1.7-1.96-2.91-3.72-2.91h-11.21
		c-2.48,0-4.31,2.35-3.69,4.77l21.59,86.41c0.42,1.7,1.96,2.91,3.72,2.91h11.99c1.73,0,3.27-1.21,3.69-2.91l21.63-86.41
		C614.04,453.68,612.21,451.33,609.73,451.33L609.73,451.33z M711.48,469.85c2.12,0,3.82-1.73,3.82-3.82v-10.88
		c0-2.12-1.7-3.82-3.82-3.82h-39.4c-2.12,0-3.82,1.7-3.82,3.82v86.44c0,2.12,1.7,3.82,3.82,3.82h39.4c2.12,0,3.82-1.7,3.82-3.82
		v-10.88c0-2.09-1.7-3.82-3.82-3.82h-24.7v-19.27h11.5c2.12,0,3.82-1.7,3.82-3.82v-10.85c0-2.12-1.7-3.82-3.82-3.82h-11.5v-19.27
		H711.48L711.48,469.85z M824.18,451.33h-10.85c-2.12,0-3.82,1.7-3.82,3.82v41.78l-21.76-43.48c-0.65-1.31-1.96-2.12-3.43-2.12
		h-8.79c-2.12,0-3.82,1.7-3.82,3.82v86.44c0,2.12,1.7,3.82,3.82,3.82h10.88c2.09,0,3.82-1.7,3.82-3.82v-41.78l21.72,43.48
		c0.65,1.31,1.99,2.12,3.43,2.12h8.79c2.12,0,3.82-1.7,3.82-3.82v-86.44C828,453.03,826.3,451.33,824.18,451.33L824.18,451.33z"/>
	<path d="M121.81,682.02l-17.17-33.77c15.6-7.12,20.78-26.72,11.24-40.34c-5.3-7.62-13.62-11.9-22.57-11.9H69.66
		c-2.03,0-3.71,1.65-3.71,3.71v83.99c0,2.06,1.68,3.71,3.71,3.71h10.57c2.03,0,3.71-1.65,3.71-3.71v-33.01h1.75l17.68,34.69
		c0.63,1.24,1.9,2.03,3.3,2.03h11.84C121.27,687.42,123.08,684.5,121.81,682.02L121.81,682.02z M99.91,629.96
		c-1.75,1.78-4.09,2.76-6.6,2.76h-9.36V614h9.36C101.64,614,105.82,624.16,99.91,629.96L99.91,629.96z M210.4,614
		c2.06,0,3.71-1.68,3.71-3.71v-10.57c0-2.06-1.65-3.71-3.71-3.71h-38.28c-2.06,0-3.71,1.65-3.71,3.71v83.99
		c0,2.06,1.65,3.71,3.71,3.71h38.28c2.06,0,3.71-1.65,3.71-3.71v-10.57c0-2.03-1.65-3.71-3.71-3.71h-24v-18.73h11.17
		c2.06,0,3.71-1.65,3.71-3.71v-10.54c0-2.06-1.65-3.71-3.71-3.71H186.4V614H210.4L210.4,614z M284.55,596h-20.44
		c-2.06,0-3.71,1.65-3.71,3.71v83.99c0,2.06,1.65,3.71,3.71,3.71h20.44c16.85,0,30.54-13.68,30.54-30.57v-30.28
		C315.08,609.68,301.4,596,284.55,596L284.55,596z M297.12,656.85c0,6.95-5.65,12.57-12.57,12.57h-6.16V614h6.16
		c6.92,0,12.57,5.62,12.57,12.57V656.85L297.12,656.85z M405.04,614c2.06,0,3.71-1.68,3.71-3.71v-10.57c0-2.06-1.65-3.71-3.71-3.71
		h-38.28c-2.06,0-3.71,1.65-3.71,3.71v83.99c0,2.06,1.65,3.71,3.71,3.71h38.28c2.06,0,3.71-1.65,3.71-3.71v-10.57
		c0-2.03-1.65-3.71-3.71-3.71h-24v-18.73h11.17c2.06,0,3.71-1.65,3.71-3.71v-10.54c0-2.06-1.65-3.71-3.71-3.71h-11.17V614H405.04
		L405.04,614z M497.02,614c2.06,0,3.71-1.68,3.71-3.71v-10.57c0-2.06-1.65-3.71-3.71-3.71h-38.28c-2.06,0-3.71,1.65-3.71,3.71v83.99
		c0,2.06,1.65,3.71,3.71,3.71h38.28c2.06,0,3.71-1.65,3.71-3.71v-10.57c0-2.03-1.65-3.71-3.71-3.71h-24v-18.73h11.17
		c2.06,0,3.71-1.65,3.71-3.71v-10.54c0-2.06-1.65-3.71-3.71-3.71h-11.17V614H497.02L497.02,614z M597.99,596h-8.51
		c-1.43,0-2.7,0.79-3.33,2.03l-11.01,21.9c-0.35,0.67-1.33,0.67-1.68,0l-10.82-21.87c-0.63-1.27-1.94-2.06-3.33-2.06h-8.57
		c-2.06,0-3.71,1.65-3.71,3.71v83.99c0,2.06,1.65,3.71,3.71,3.71h10.57c2.03,0,3.71-1.65,3.71-3.71v-40.31l8.32,16.76
		c0.35,0.7,1.33,0.7,1.68,0.03l8.73-17.33v40.85c0,2.06,1.65,3.71,3.71,3.71h10.54c2.06,0,3.71-1.65,3.71-3.71v-83.99
		C601.7,597.65,600.05,596,597.99,596L597.99,596z M693.37,614c2.06,0,3.71-1.68,3.71-3.71v-10.57c0-2.06-1.65-3.71-3.71-3.71
		h-38.28c-2.06,0-3.71,1.65-3.71,3.71v83.99c0,2.06,1.65,3.71,3.71,3.71h38.28c2.06,0,3.71-1.65,3.71-3.71v-10.57
		c0-2.03-1.65-3.71-3.71-3.71h-24v-18.73h11.17c2.06,0,3.71-1.65,3.71-3.71v-10.54c0-2.06-1.65-3.71-3.71-3.71h-11.17V614H693.37
		L693.37,614z M767.52,596h-20.44c-2.06,0-3.71,1.65-3.71,3.71v83.99c0,2.06,1.65,3.71,3.71,3.71h20.44
		c16.85,0,30.54-13.68,30.54-30.57v-30.28C798.05,609.68,784.37,596,767.52,596L767.52,596z M780.09,656.85
		c0,6.95-5.65,12.57-12.57,12.57h-6.16V614h6.16c6.92,0,12.57,5.62,12.57,12.57V656.85L780.09,656.85z"/>
	<path d="M154.43,423.36c5.3-0.83,9.67-3.59,12.43-8.57c1.11-2.21,2.99-8.29,3.82-10.78c19.92,2.49,35.81-5.34,52.1-14.8
		c-3.63,15.33-3.55,26.97,2.84,32.95c3.59,3.32,9.39,3.32,14.37,2.49c12.16-1.66,24.04-9.95,34.82-15.75
		c11.41-6.05,22.23-12.89,33.29-19.36c-0.51,4.78,0.04,10.16,2.87,15.53c4.93,9.39,10.68,14.09,22.8,14.09
		c6.95,0,14.6-2.49,21.78-6.63l17.13-9.39l19.9-11.61l8.84-5.53c2.27-1.36,4.72-2.35,6.9-3.88c3.93,1.71,8.28,3.25,12.39,4.11
		c-13.86,2.21-25.38,3.59-31.18,13.77c-14.09,22.61,38.64,38.36,49.97-4.37c7.74-1.66,20.22-4.42,27.96-6.63
		c6.34-1.52,13.38-3.04,18.77-6.88c3.93,1.71,8.3,3.25,12.41,4.12c-13.86,2.21-25.38,3.59-31.18,13.77
		c-14.09,22.61,38.64,38.36,49.97-4.37c7.74-1.66,20.22-4.42,27.96-6.63c2.01-0.48,4.09-0.97,6.17-1.52
		c-0.91,5.26-0.66,11.43,2.58,17.59c4.93,9.39,10.69,14.09,22.8,14.09c6.95,0,14.6-2.49,21.78-6.63l17.13-9.39l16.35-9.54
		c-5.64,28.84,27.42,26.22,36.19,3.74c0-0.28,0.28,0,0.28,0.28c-2.49,25.97,18.51,22.66,25.15,21c5.25-1.38,10.78-3.04,15.47-5.8
		c4.7-2.49,30.4-16.58,36.75-20.45l9.12-5.53c2.76-1.7,5.8-3.09,8.29-5.25c2.21-1.93,3.04-4.42,1.38-6.91
		c-1.66-2.44-4.14-3.55-6.91-1.93l-6.08,3.32c-9.95,6.03-46.7,29.57-63.56,32.05c-2.49,0.55-4.97,0-6.63-2.49
		c-3.59-5.53-3.04-15.2,1.38-20.22l11.61-13.17c11.88-14.14,21.83-29.61,29.84-46.19c3.32-6.95,6.63-14.42,8.01-21.88
		c1.11-7.78-4.97-12.76-12.43-9.99c-4.97,1.66-8.84,5.57-12.43,9.44c-12.43,12.71-21.55,29.06-28.19,45.64
		c-3.59,9.12-6.35,18.56-8.84,28.19h-0.28c-6.46-4.04-14.23-8.29-21.77-5.96c-0.33,0.09-0.67,0.2-1.03,0.35
		c-2.82,1.05-3.67,2.07-5.98,3.39l-10.23,5.8c-11.88,6.91-24.04,14.37-36.2,21c-5.25,2.76-10.96,4.7-16.49,5.8
		c-7.6,1.93-12.11-0.83-14.92-7.74c-1.38-4.14-0.83-5.53,3.64-6.91c9.58-3.04,15.98-9.12,20.86-17.41
		c2.21-3.59,3.04-7.74,2.21-12.16c-1.11-5.25-4.93-8.84-10.36-8.29c-3.13,0.55-6.49,1.66-9.3,3.32
		c-5.94,3.59-10.36,8.84-13.86,14.92l-0.03,0.05l-0.43,0.23c-10.22,4.97-25.42,8.01-40.94,11.01c-5.8-8.8-12.99-10.18-17.13-12.07
		l-10.55-4.42c-12.66-5.25,3.87-17.09,12.21-11.83c2.49,1.93,4.42,5.2,7.74,5.48c3.04,0,6.08-2.72,5.8-5.76
		c-0.55-3.32-3.59-7.14-6.36-9.07c-10.78-8.01-26.53-1.38-33.67,8.24c-2.21,2.76-3.87,6.31-3.87,9.9c0,3.59,1.66,7.19,4.15,9.63
		c0.19,0.2,0.43,0.41,0.72,0.64c-9.98,3.97-23.35,6.63-36.96,9.26c-5.8-8.8-12.99-10.18-17.13-12.07l-10.55-4.42
		c-12.66-5.25,3.87-17.09,12.21-11.83c2.49,1.93,4.42,5.2,7.74,5.48c3.04,0,6.08-2.72,5.8-5.76c-0.55-3.32-3.59-7.14-6.36-9.07
		c-10.78-8.01-26.53-1.38-33.67,8.24c-2.21,2.76-3.87,6.31-3.87,9.9c0,3.59,1.66,7.19,4.15,9.63c0.29,0.3,0.7,0.64,1.19,1.01
		l-8.93,5.07c-11.88,6.91-24.04,14.37-36.2,21c-5.25,2.76-10.96,4.7-16.49,5.8c-7.6,1.93-12.11-0.83-14.92-7.74
		c-1.38-4.14-0.83-5.53,3.64-6.91c9.58-3.04,15.98-9.12,20.86-17.41c2.21-3.59,3.04-7.74,2.21-12.16
		c-1.11-5.25-4.93-8.84-10.36-8.29c-3.13,0.55-6.49,1.66-9.3,3.32c-5.94,3.59-10.36,8.84-13.86,14.92l-0.11,0.19l-2.61,1.42
		c-20.73,12.43-41.45,25.7-63.56,35.37c-4.7,2.21-19.89,5.8-11.88-20.17c1.93-6.08,3.87-11.88,6.08-17.96
		c4.42-12.16,22.66-55.27,26.25-64.94c2.21-5.53,7.46-17.96-0.83-20.72c-3.04-0.83-5.8,0.83-6.91,3.32
		c-12.03,30.42-25.29,60.12-33.06,84.01l-2.26,1.23c-8.84,5.48-17.69,11.28-27.36,15.15c-4.7,2.21-9.67,3.59-14.92,4.15
		c-0.83,0.28-10.5,0.55-10.5,0c1.38-17.36-9.86-21.51-17.64-19.02c-3.04,1.11-7.74,1.38-22.43,14.32c0-6.63-0.55-11.33,0-21.83
		c3.32-3.04,23.3-20.17,30.21-29.61c4.93-6.63,8.75-13.82,9.86-22.11c1.66-13.03-7.42-19.94-19.57-14.97
		c-6.36,2.49-11.38,7.46-15.52,12.99c-8.29,10.82-13.54,31.87-14.92,45.41c-4.7,3.04-14.09,8.84-15.75,9.67l-5.8,3.91
		c-2.49,1.93-2.76,4.37-1.38,6.86c1.38,2.76,4.15,3.04,6.91,2.21c3.04-1.11,13.26-7.42,14.37-7.69l1.66,31.13l0.83,8.57
		c0.55,3.04,1.93,4.97,4.97,5.25c3.04,0.28,4.97-1.66,6.08-4.15c1.11-2.76,1.66-7.46,3.04-10.22c3.87-8.29,9.99-14.6,18.28-18.47
		c1.66-0.83,9.12-2.49,5.85,7.69c-4.47,0.28-8.89,1.11-12.76,3.59c-3.59,2.21-7.23,5.53-8.61,9.67
		C136.97,417.01,145.59,425.02,154.43,423.36L154.43,423.36z M132.83,354.28c7.46-26.02,15.8-39.33,24.41-42.65
		c0.55-0.28,1.11-0.28,1.66-0.28c6.03,0.28-0.83,12.76-2.21,14.97C152.22,334.62,144.21,344.06,132.83,354.28L132.83,354.28z
		 M153.32,413.65c-1.66,0.55-4.42,1.11-5.53-1.11c-2.21-5.25,8.89-8.84,12.2-8.84C160.28,403.7,156.69,411.99,153.32,413.65
		L153.32,413.65z M566.8,380.49c1.98-5.8,9.03-15.47,12.94-13.54C583.33,369.43,572.74,378.28,566.8,380.49L566.8,380.49z
		 M685.25,365.89c0,0.28-0.28,0-0.28-0.28c6.36-20.77,30.67-57.57,33.71-56.74C722,311.64,699.34,349.81,685.25,365.89
		L685.25,365.89z M643.53,401.49c-3.82-2.21,4.42-25.7,19.07-16.9l0.28,0.28C662.59,390.99,649.33,403.7,643.53,401.49
		L643.53,401.49z M323.63,380.49c1.98-5.8,9.03-15.47,12.94-13.54C340.17,369.43,329.57,378.28,323.63,380.49L323.63,380.49z
		 M425.41,397.25c-3.31,10.23-22.11,16.26-24.32,10.78C398.89,402.78,411.55,399.46,425.41,397.25L425.41,397.25z M503.34,397.25
		c-3.32,10.23-22.11,16.26-24.32,10.78C476.81,402.78,489.48,399.46,503.34,397.25L503.34,397.25z"/>
</g>
</svg>
