<?xml version="1.0" encoding="utf-8"?>
<!-- Generator: Adobe Illustrator 25.0.0, SVG Export Plug-In . SVG Version: 6.00 Build 0)  -->
<svg version="1.1" id="Layer_1" xmlns="http://www.w3.org/2000/svg" xmlns:xlink="http://www.w3.org/1999/xlink" x="0px" y="0px"
	 viewBox="0 0 864 864" style="enable-background:new 0 0 864 864;" xml:space="preserve">
<g>
	<path d="M86.36,381.75c0,19.65,20.98,31.83,36.85,18.07c-0.1,2.51,0.4,4.32,2.71,5.42c1.7,0.57,6.89,0.3,8.94,0.3
		c4.64,0,5.95-7.75,0.5-9.04c-1.1-0.3-1.81-0.1-3.11-0.1v-54.52c0-0.47-1.28-3.82-4.12-3.82h-6.33c-2.31,0-3.92,2.31-3.92,4.62
		c0,2.01,1.41,3.71,3.31,4.42l2.01,0.2v15.76c-3.92-3.92-9.14-6.12-14.66-6.12C95.3,356.95,86.36,369.3,86.36,381.75L86.36,381.75z
		 M95.5,381.85c0-7.53,4.82-15.66,13.05-15.66c8.03,0,12.95,8.13,12.95,15.56c0,7.53-5.02,14.66-12.95,14.66
		C100.52,396.41,95.5,389.38,95.5,381.85L95.5,381.85z M154.33,380.95c0,8.53,3.82,17.27,11.35,21.59
		c19.19,11.2,37.81-9.86,31.13-30.02c-2.91-8.84-10.84-16.16-20.58-16.16C163.16,356.35,154.33,368.6,154.33,380.95L154.33,380.95z
		 M163.36,380.95c0-7.33,4.92-15.26,12.95-15.26c7.93,0,12.65,8.13,12.65,15.26c0,7.23-4.72,15.46-12.65,15.46
		C168.28,396.41,163.36,388.18,163.36,380.95L163.36,380.95z M213.46,380.35c0,9.84,5.02,20.28,14.86,23.7
		c2.71,1.1,5.22,1.61,8.13,1.61c5.72,0,11.04-2.51,14.76-6.93c1.1-1.31,2.21-2.51,2.21-4.22c0-2.71-2.21-4.62-4.52-4.62
		c-3.01,0-3.61,2.31-5.52,3.92c-6.38,5.54-17.59,2.09-20.08-8.03h30.22c0,0,4.08-0.74,3.92-4.82c-1.1-13.76-7.43-26.31-22.69-26.31
		c-1.91,0-3.71,0.4-5.42,0.8C218.88,358.36,213.46,370.31,213.46,380.35L213.46,380.35z M234.75,363.98
		c7.85,0,11.6,5.57,12.85,12.65h-24.7l0.7-2.71c1.1-3.92,4.02-8.53,8.03-9.64C232.84,363.98,233.54,363.98,234.75,363.98
		L234.75,363.98z M281.83,402.14c0.57,0,6.99,3.51,14.86,3.51c8.63,0,21.99-4.02,21.99-14.76c0-9.3-9.05-14.8-17.27-16.57
		l-10.84-1.1c-2.71-0.4-5.52-0.9-7.43-3.21c-0.3-0.5-0.8-1.1-0.8-1.81c0-2.46,5.79-3.61,7.83-3.61c4.81,0,9.23,0.11,13.76,2.31
		l3.11,1.41v3.41c0,2.1,2.62,4.12,4.62,4.12c2.31,0,4.62-1.91,4.62-4.22v-11.14c0-3.87-4.95-5.79-7.73-3.01
		c-0.3,0.3-0.7,0.8-0.8,0.8c-4.82-1.71-9.74-2.81-14.86-2.91c-8.13,0-19.58,2.71-19.58,12.85c0,7.43,7.13,12.85,14.16,13.66
		c4.18,0.5,12.5,1.23,16.37,2.71c3.51,1.35,9.99,7.07,1.2,10.34l-5.42,1.41c-9.41,1.16-17.27-4.42-17.27-4.42h-0.1
		c0-0.9,0-2.01-0.1-3.11c-0.4-2.11-2.21-3.71-4.52-3.71c-2.31,0-4.52,1.81-4.52,4.12v11.55
		C273.1,404.79,279.46,406.88,281.83,402.14L281.83,402.14z M392.97,405.45l8.13,0.1c6.02,0,6.71-8.11,0.8-9.14v-22.59
		c0.17-0.74,6.47-8.64,12.95-8.64c5.92,0,7.33,7.33,7.33,11.95v19.28c-5.14,0.64-5.24,6.98-2.01,8.53c0.7,0.3,1.31,0.6,2.01,0.6
		h9.14c4.99,0,5.86-8.39-0.1-9.14v-20.78c0-9.02-5.66-19.68-16.27-19.68c-8.53,0-13.15,5.73-13.15,4.52c0,0-0.7-3.61-4.12-3.61
		h-8.63c-2.31,0-4.32,2.11-4.32,4.42c0,2.63,2.5,4.62,4.12,4.62h3.92v30.52C386.9,397.18,387.13,405.21,392.97,405.45L392.97,405.45
		z M445.58,380.95c0,8.53,3.82,17.27,11.35,21.59c19.19,11.2,37.81-9.86,31.13-30.02c-2.91-8.84-10.84-16.16-20.58-16.16
		C454.42,356.35,445.58,368.6,445.58,380.95L445.58,380.95z M454.62,380.95c0-7.33,4.92-15.26,12.95-15.26
		c7.93,0,12.65,8.13,12.65,15.26c0,7.23-4.72,15.46-12.65,15.46C459.54,396.41,454.62,388.18,454.62,380.95L454.62,380.95z
		 M507.52,365.39h6.22v18.98l0.7,8.23c1.61,8.13,6.12,13.05,14.86,13.05c5.62,0,9.94-1.81,12.65-6.93c0.7-1.51,1.71-2.81,1.71-4.42
		c0-5.31-7.16-5.7-8.43-2.51c-0.1,0.3-0.8,1.71-1.1,2.01c-1.1,2.41-2.41,2.61-4.72,2.61h-1.2c-4.72-0.2-5.32-9.15-5.32-12.95
		l0.1-18.07h6.23c2.41,0,4.12-2.31,4.12-4.62c0-3.81-3.79-4.49-3.92-4.62h-6.43v-10.24c0-2.31-2.41-4.12-4.52-4.12
		c-2.61,0-4.61,1.95-4.62,3.61l-0.1,10.74h-6.43c-1.43,0.22-4.02,0.68-4.02,4.62C503.31,363.08,505.12,365.39,507.52,365.39
		L507.52,365.39z M615.96,405.45l9.34,0.1c2.31-0.3,4.22-2.21,4.22-4.52c0-3.76-4.02-4.58-4.02-4.62v-25.8c0-0.07,0.16-0.46,0.2-0.5
		c0-0.03,2.84-4.82,5.92-4.82c2.32,0,3.51,3.05,3.51,4.62v26.41c-5.5,1.2-4.91,7.46-1,8.84c0.3,0.1,0.58,0.2,0.8,0.2
		c1.73-0.01,9.73,0.2,10.84-0.2c1.91-0.9,2.81-2.31,2.81-4.32c0-3.96-4.22-4.33-4.22-4.52v-25.9c0-0.01,2.32-4.22,5.52-4.22
		c2.51,0,3.82,3.41,3.82,5.62v24.6c-5.87,0.77-4.76,9.04,0.2,9.04h9.04c2.31,0,4.22-2.21,4.22-4.52c0-1.91-1.1-3.61-2.81-4.32
		l-1.31-0.3l-0.1-25.5c-0.62-7.12-5.26-13.76-13.05-13.76c-5.7,0-8.71,3.51-9.14,3.51c-7.24-8.14-15.7-2.31-16.37-2.31
		c-0.7-0.7-1.81-1.61-3.11-1.61h-9.14c-5.32,0-4.79,9.14-0.1,9.14h4.22v30.62C610.22,397.08,610.61,404.75,615.96,405.45
		L615.96,405.45z M682.82,392.4c0,5.22,3.01,9.94,7.83,11.95c2.31,0.9,4.82,1.31,7.43,1.31c9.92,0,15.59-5.62,16.47-5.62
		c2.19,3.99,4.79,5.12,9.04,5.12c0.7,0,1.61,0,2.31-0.1c2.31-0.5,3.92-2.31,3.92-4.62c0-2.41-2.21-4.52-4.62-4.52l-2.21,0.3h-0.1
		c-0.5-0.7-0.5-1.2-0.5-1.61l-0.4-19.98c-0.02-1.58-0.57-3.89-1-5.62c-4.92-17.59-29.22-15.88-34.84-4.72
		c-0.7,1.51-1.51,2.71-1.51,4.22c0,5.53,7.05,6.15,8.74,2.01c0.3-0.8,0.6-1.81,1.3-2.51c2.01-2.11,4.62-3.11,7.93-3.11
		c4.55,0,7.81,1.85,9.34,5.92c-4.02-0.1-8.13,0.5-12.05,1.61C691.15,375.33,682.82,382.76,682.82,392.4L682.82,392.4z M691.86,392.4
		c0-5.02,5.52-9.44,9.84-10.74c4.36-1.57,6.37-1.61,11.04-1.61l0.1,8.94c-3.51,4.32-9.04,7.43-14.76,7.43
		C695.17,396.41,691.86,395.71,691.86,392.4L691.86,392.4z M745.27,400.93c0,2.31,1.71,4.62,4.02,4.62h16.57
		c1.5,0,4.12-1.8,4.12-4.62c0-2.31-1.81-4.22-4.22-4.52h-3.21v-6.83l8.03-7.13l11.04,13.86c-0.4,0-1.61,0.1-2.01,0.1
		c-1.69,0.06-3.61,0.43-3.61,4.52c0,2.41,1.81,4.52,4.32,4.52h15.26c5.57,0,6.14-8.91-0.1-9.04c-0.3,0-1.91-0.1-2.31-0.1l-0.2-0.3
		l-15.46-19.68l11.04-9.94c0.5-0.3,0.9-0.7,1.1-1.2h3.92c0.66,0,3.82-1.41,3.82-4.52c0-2.31-1.71-4.62-4.02-4.62h-17.77
		c-2.07,0.23-3.82,2.55-3.82,4.62c0,3.76,4.3,4.5,4.32,4.52l-13.55,12.25v-32.03c0.09-1.54-0.93-4.02-4.52-4.02h-8.33
		c-4.57,0-6.51,7.13-0.8,9.04l4.42,0.1v45.88h-3.92C749.19,396.6,745.27,396.7,745.27,400.93L745.27,400.93z M813.64,380.35
		c0,9.84,5.02,20.28,14.86,23.7c2.71,1.1,5.22,1.61,8.13,1.61c5.72,0,11.04-2.51,14.76-6.93c1.1-1.31,2.21-2.51,2.21-4.22
		c0-2.71-2.21-4.62-4.52-4.62c-3.01,0-3.61,2.31-5.52,3.92c-6.38,5.54-17.59,2.09-20.08-8.03h30.22c0,0,4.08-0.74,3.92-4.82
		c-1.1-13.76-7.43-26.31-22.69-26.31c-1.91,0-3.71,0.4-5.42,0.8C819.06,358.36,813.64,370.31,813.64,380.35L813.64,380.35z
		 M834.92,363.98c7.85,0,11.6,5.57,12.85,12.65h-24.7l0.7-2.71c1.1-3.92,4.02-8.53,8.03-9.64
		C833.01,363.98,833.72,363.98,834.92,363.98L834.92,363.98z"/>
	<path d="M25.12,472.79h6.22v18.98l0.7,8.23c1.61,8.13,6.12,13.05,14.86,13.05c5.62,0,9.94-1.81,12.65-6.93
		c0.7-1.51,1.71-2.81,1.71-4.42c0-5.31-7.16-5.7-8.43-2.51c-0.1,0.3-0.8,1.71-1.1,2.01c-1.1,2.41-2.41,2.61-4.72,2.61h-1.2
		c-4.72-0.2-5.32-9.15-5.32-12.95l0.1-18.07h6.23c2.41,0,4.12-2.31,4.12-4.62c0-3.81-3.79-4.49-3.92-4.62h-6.43v-10.24
		c0-2.31-2.41-4.12-4.52-4.12c-2.61,0-4.61,1.95-4.62,3.61l-0.1,10.74h-6.43c-1.58,0.13-4.02,0.68-4.02,4.62
		C20.91,470.48,22.72,472.79,25.12,472.79L25.12,472.79z M86.26,508.43c0,2.62,2.51,4.52,3.92,4.52h14.46c0.4,0,0.9-0.3,1.41-0.4
		c1.61-0.9,2.41-2.31,2.41-4.12c0-2.11-1.51-4.22-3.82-4.52c-0.5,0-1.81-0.1-2.11-0.1v-23.19c3.83-3.7,8.64-7.93,14.26-7.93
		c5.54,0,4.92,7.85,4.92,11.75l-0.1,19.38c-0.8,0-1.81-0.1-2.61,0.2c-5.58,1.78-3.51,8.94,0.8,8.94h13.76c0.3,0,0.6-0.1,0.7-0.2
		c2.31-0.5,3.41-2.11,3.41-4.42c0-3.05-2.6-4.52-4.02-4.52h-2.71v-24.2l-0.9-5.32c-1.71-6.43-6.43-10.74-13.25-10.74
		c-3.61,0-7.43,1.1-10.54,3.01c-0.4,0-3.21,1.61-3.51,1.91h-0.2v-15.36c0-1.91-2.21-4.02-4.12-4.02h-8.73
		c-1.93,0-5.36,2.98-3.51,6.83c1.61,2.71,4.42,2.41,7.13,2.41l-0.1,45.58l-3.41,0.1C89.72,504.05,86.26,504.83,86.26,508.43
		L86.26,508.43z M161.05,508.43c0,2.08,1.24,4.52,3.82,4.52h21.08c1.61,0,3.82-1.95,3.82-4.52c0-2.5-2.13-4.52-3.82-4.52h-5.62
		v-35.84c0-1.91-2.01-4.32-4.02-4.32h-9.34c-1.64,0.27-3.82,2.18-3.82,4.52c0,5.28,4.98,4.52,7.93,4.52v31.13h-6.22
		C164.75,504.03,161.05,504.19,161.05,508.43L161.05,508.43z M167.28,453.61c0,3.21,2.81,5.62,6.02,5.62c3.21,0,6.02-2.41,6.02-5.62
		C179.33,446.06,167.28,446.06,167.28,453.61L167.28,453.61z M222.29,512.85l8.13,0.1c6.02,0,6.71-8.11,0.8-9.14v-22.59
		c0.17-0.74,6.47-8.63,12.95-8.63c5.92,0,7.33,7.33,7.33,11.95v19.28c-5.14,0.64-5.24,6.98-2.01,8.53c0.7,0.3,1.31,0.6,2.01,0.6
		h9.14c4.99,0,5.86-8.39-0.1-9.14v-20.78c0-9.02-5.66-19.68-16.27-19.68c-8.53,0-13.15,5.73-13.15,4.52c0,0-0.7-3.61-4.12-3.61
		h-8.63c-2.31,0-4.32,2.11-4.32,4.42c0,2.63,2.5,4.62,4.12,4.62h3.92v30.52C216.22,504.58,216.45,512.61,222.29,512.85
		L222.29,512.85z M290.26,516.46c0,1.91,0.2,3.72,0.7,5.52c2.42,8.03,13.35,9.24,20.48,9.24c4.01-0.18,15.61-0.19,18.98-1.91
		c6.12-1.91,8.94-5.52,8.94-11.95c0-12.15-11.45-13.76-21.39-13.76c-4.21,0-9.04,0.51-13.35,0.7c-0.9,0-2.41-0.3-2.71-1.61v-0.7
		c0-2.91,2.01-4.92,4.52-5.82c0.3,0,1.51,0.1,1.81,0.1c0.53,0.53,17.17,0.62,17.17-16.87l-0.3-4.02c1.31-1.51,3.51-3.01,5.52-3.71
		c0.7-0.1,1.41-0.1,2.11-0.1c3.86,0,6.38-6.53,0.6-8.84c-0.7-0.3-1.31-0.2-2.01-0.2c-4.02,0-7.53,1.91-10.64,4.42
		c-1.14-0.38-4.25-4.12-11.55-4.12c-17.99,0-19.8,20.08-12.15,28.72c-2.71,2.71-4.32,6.43-4.32,10.44c0,3.4,1.41,5.26,1.41,5.62
		l-1.81,1.71C290.66,511.34,290.26,513.75,290.26,516.46L290.26,516.46z M299.29,516.46c0-2.51,4.43-3.01,6.33-3.01
		c2.06-0.05,14.33-0.83,17.17-0.4c4.04,0.6,7.23,0.53,7.23,4.32c0,2.11-0.9,2.91-2.81,3.31c-2.32,1-9.4,1.17-12.15,1.41
		c-3.55-0.08-8.62,0.21-11.95-0.9C300.4,520.48,299.29,519.27,299.29,516.46L299.29,516.46z M302,479.41c0-5.12,1.91-7.23,7.13-7.23
		c4.72,0,7.13,2.41,7.13,7.23c0,5.12-1.81,7.73-6.93,7.73C304.01,487.15,302,484.54,302,479.41L302,479.41z M374.09,509.54
		c0.57,0,6.99,3.51,14.86,3.51c8.63,0,21.99-4.02,21.99-14.76c0-9.3-9.05-14.8-17.27-16.57l-10.84-1.1c-2.71-0.4-5.52-0.9-7.43-3.21
		c-0.3-0.5-0.8-1.1-0.8-1.81c0-2.46,5.79-3.61,7.83-3.61c8.49,0,9.72,0.49,16.87,3.72v3.41c0,0.1,0.2,0.4,0.2,0.7
		c0.7,1.91,2.41,3.41,4.42,3.41c2.31,0,4.62-1.91,4.62-4.22v-11.14c0-3.86-4.95-5.79-7.73-3.01c-0.3,0.3-0.7,0.8-0.8,0.8
		c-4.82-1.71-9.74-2.81-14.86-2.91c-8.13,0-19.58,2.71-19.58,12.85c0,7.43,7.13,12.85,14.16,13.66c4.18,0.5,12.5,1.23,16.37,2.71
		c3.51,1.35,9.99,7.07,1.2,10.34l-5.42,1.41c-9.41,1.16-17.27-4.42-17.27-4.42h-0.1c0-0.9,0-2.01-0.1-3.11
		c-0.4-2.11-2.21-3.71-4.52-3.71c-2.31,0-4.52,1.81-4.52,4.12v11.55C365.35,512.19,371.71,514.28,374.09,509.54L374.09,509.54z
		 M486.63,487.75c0,9.84,5.02,20.28,14.86,23.7c2.71,1.1,5.22,1.61,8.13,1.61c5.72,0,11.04-2.51,14.76-6.93
		c1.1-1.31,2.21-2.51,2.21-4.22c0-2.71-2.21-4.62-4.52-4.62c-3.01,0-3.61,2.31-5.52,3.92c-6.38,5.54-17.59,2.09-20.08-8.03h30.22
		c0,0,4.08-0.74,3.92-4.82c-1.1-13.76-7.43-26.31-22.69-26.31c-1.91,0-3.71,0.4-5.42,0.8C492.05,465.76,486.63,477.71,486.63,487.75
		L486.63,487.75z M507.91,471.38c7.85,0,11.6,5.57,12.85,12.65h-24.7l0.7-2.71c1.1-3.92,4.02-8.53,8.03-9.64
		C506.01,471.38,506.71,471.38,507.91,471.38L507.91,471.38z M555.8,499.8c0,5.22,3.01,9.94,7.83,11.95
		c2.31,0.9,4.82,1.31,7.43,1.31c9.92,0,15.59-5.62,16.47-5.62c2.19,3.99,4.79,5.12,9.04,5.12c0.7,0,1.61,0,2.31-0.1
		c2.31-0.5,3.92-2.31,3.92-4.62c0-2.41-2.21-4.52-4.62-4.52l-2.31,0.3c-0.5-0.7-0.5-1.2-0.5-1.61l-0.4-19.98
		c-0.02-1.58-0.57-3.89-1-5.62c-4.92-17.59-29.22-15.88-34.84-4.72c-0.7,1.51-1.51,2.71-1.51,4.22c0,5.53,7.05,6.15,8.74,2.01
		c0.3-0.8,0.6-1.81,1.31-2.51c2.01-2.11,4.62-3.11,7.93-3.11c4.55,0,7.81,1.85,9.34,5.92c-4.02-0.1-8.13,0.5-12.05,1.61
		C564.13,482.73,555.8,490.16,555.8,499.8L555.8,499.8z M564.84,499.8c0-5.02,5.52-9.44,9.84-10.74c4.36-1.57,6.37-1.61,11.04-1.61
		l0.1,8.94c-3.51,4.32-9.04,7.43-14.76,7.43C568.15,503.81,564.84,503.11,564.84,499.8L564.84,499.8z M636.72,509.54
		c0.57,0,6.99,3.51,14.86,3.51c8.63,0,21.99-4.02,21.99-14.76c0-9.3-9.05-14.8-17.27-16.57l-10.84-1.1c-2.71-0.4-5.52-0.9-7.43-3.21
		c-0.3-0.5-0.8-1.1-0.8-1.81c0-2.46,5.79-3.61,7.83-3.61c8.49,0,9.72,0.49,16.87,3.72v3.41c0,0.1,0.2,0.4,0.2,0.7
		c0.7,1.91,2.41,3.41,4.42,3.41c2.31,0,4.62-1.91,4.62-4.22v-11.14c0-3.86-4.95-5.79-7.73-3.01c-0.3,0.3-0.7,0.8-0.8,0.8
		c-4.82-1.71-9.74-2.81-14.86-2.91c-8.13,0-19.58,2.71-19.58,12.85c0,7.43,7.13,12.85,14.16,13.66c4.18,0.5,12.5,1.23,16.37,2.71
		c3.51,1.35,9.99,7.07,1.2,10.34l-5.42,1.41c-9.41,1.16-17.27-4.42-17.27-4.42h-0.1c0-0.9,0-2.01-0.1-3.11
		c-0.4-2.11-2.21-3.71-4.52-3.71c-2.31,0-4.52,1.81-4.52,4.12v11.55C627.98,512.19,634.34,514.28,636.72,509.54L636.72,509.54z
		 M698.56,508.43c0,2.11,1,3.51,2.91,4.22c0.3,0.1,0.6,0.3,0.9,0.3h21.08c1.61,0,3.82-1.95,3.82-4.52c0-2.5-2.13-4.52-3.82-4.52
		h-5.62v-35.84c0-1.91-2.01-4.32-4.02-4.32h-9.34c-1.64,0.27-3.82,2.18-3.82,4.52c0,5.28,4.98,4.52,7.93,4.52v31.13h-6.22
		C702.25,504.03,698.56,504.19,698.56,508.43L698.56,508.43z M704.78,453.61c0,3.21,2.81,5.62,6.02,5.62c3.21,0,6.02-2.41,6.02-5.62
		C716.83,446.06,704.78,446.06,704.78,453.61L704.78,453.61z M751.26,487.75c0,9.84,5.02,20.28,14.86,23.7
		c2.71,1.1,5.22,1.61,8.13,1.61c5.72,0,11.04-2.51,14.76-6.93c1.1-1.31,2.21-2.51,2.21-4.22c0-2.71-2.21-4.62-4.52-4.62
		c-3.01,0-3.61,2.31-5.52,3.92c-6.38,5.54-17.59,2.09-20.08-8.03h30.22c0,0,4.08-0.74,3.92-4.82c-1.1-13.76-7.43-26.31-22.69-26.31
		c-1.91,0-3.71,0.4-5.42,0.8C756.68,465.76,751.26,477.71,751.26,487.75L751.26,487.75z M772.54,471.38
		c7.85,0,11.6,5.57,12.85,12.65h-24.7l0.7-2.71c1.1-3.92,4.02-8.53,8.03-9.64C770.64,471.38,771.34,471.38,772.54,471.38
		L772.54,471.38z M823.14,508.43c0,2.51,1.91,4.52,4.42,4.52h10.74c6.15,0,6.41-9.14-0.2-9.14c0-2.8-0.38-23.72,0.3-24.4
		c0.3-0.3,0.7-0.9,0.8-1.2c2.51-2.71,6.12-4.92,10.04-4.92c6.91,0,3.19,6.12,9.24,6.12c3.52,0,6.2-3.78,3.21-8.53
		c-5-8.37-16.93-8.06-23.59-3.41c-0.3-0.1-0.3-0.8-0.6-0.9c-0.7-1.51-2.01-2.91-3.72-2.91h-8.94c-1.88,0-5.84,3.63-3.11,7.23
		c1.61,2.41,4.42,2.01,7.13,2.01v30.92l-2.31,0.1C824.45,504.62,823.14,506.32,823.14,508.43L823.14,508.43z"/>
	<path d="M20.91,620.6c0,2.08,1.73,4.52,3.82,4.52h21.08c1.61,0,3.82-1.95,3.82-4.52c0-2.5-2.13-4.52-3.82-4.52h-5.62v-35.84
		c0-1.91-2.01-4.32-4.02-4.32h-9.34c-1.64,0.27-3.82,2.18-3.82,4.52c0,5.28,4.98,4.52,7.93,4.52v31.13h-6.22
		C24.6,616.21,20.91,616.36,20.91,620.6L20.91,620.6z M27.13,565.78c0,3.21,2.81,5.62,6.02,5.62c3.21,0,6.02-2.41,6.02-5.62
		C39.18,558.24,27.13,558.24,27.13,565.78L27.13,565.78z M74.42,584.96h6.22v18.98l0.7,8.23c1.61,8.13,6.12,13.05,14.86,13.05
		c5.62,0,9.94-1.81,12.65-6.93c0.7-1.51,1.71-2.81,1.71-4.42c0-5.31-7.16-5.7-8.43-2.51c-0.1,0.3-0.8,1.71-1.1,2.01
		c-1.1,2.41-2.41,2.61-4.72,2.61h-1.2c-4.72-0.2-5.32-9.15-5.32-12.95l0.1-18.07h6.23c2.41,0,4.12-2.31,4.12-4.62
		c0-3.81-3.79-4.49-3.92-4.62h-6.43v-10.24c0-2.31-2.41-4.12-4.52-4.12c-2.61,0-4.61,1.95-4.62,3.61l-0.1,10.74h-6.43
		c-1.24,0.1-4.02,0.68-4.02,4.62C70.2,582.65,72.01,584.96,74.42,584.96L74.42,584.96z M190.78,625.02l9.34,0.1
		c2.31-0.3,4.22-2.21,4.22-4.52c0-3.76-4.02-4.58-4.02-4.62v-25.8c0-0.07,0.16-0.46,0.2-0.5c0-0.03,2.84-4.82,5.92-4.82
		c2.32,0,3.51,3.05,3.51,4.62v26.41c-6.47,1.41-4.02,9.04-0.2,9.04c1.74,0,9.73,0.2,10.84-0.2c1.91-0.9,2.81-2.31,2.81-4.32
		c0-3.96-4.22-4.33-4.22-4.52v-25.9c0-0.01,2.32-4.22,5.52-4.22c2.51,0,3.82,3.41,3.82,5.62v24.6c-5.87,0.77-4.76,9.04,0.2,9.04
		h9.04c2.31,0,4.22-2.21,4.22-4.52c0-1.91-1.1-3.61-2.81-4.32l-1.31-0.3l-0.1-25.5c-0.62-7.12-5.26-13.76-13.05-13.76
		c-5.7,0-8.71,3.51-9.14,3.51c-7.24-8.14-15.7-2.31-16.37-2.31c-0.7-0.7-1.81-1.61-3.11-1.61h-9.14c-5.32,0-4.79,9.14-0.1,9.14h4.22
		v30.62C185.05,616.65,185.44,624.32,190.78,625.02L190.78,625.02z M265.58,611.97c0,5.22,3.01,9.94,7.83,11.95
		c2.31,0.9,4.82,1.31,7.43,1.31c9.92,0,15.59-5.62,16.47-5.62c2.19,3.99,4.79,5.12,9.04,5.12c0.7,0,1.61,0,2.31-0.1
		c2.31-0.5,3.92-2.31,3.92-4.62c0-2.41-2.21-4.52-4.62-4.52l-2.31,0.3c-0.5-0.7-0.5-1.2-0.5-1.61l-0.4-19.98
		c-0.02-1.58-0.57-3.89-1-5.62c-4.92-17.59-29.22-15.88-34.84-4.72c-0.7,1.51-1.51,2.71-1.51,4.22c0,5.53,7.05,6.15,8.74,2.01
		c0.3-0.8,0.6-1.81,1.31-2.51c2.01-2.11,4.62-3.11,7.93-3.11c4.55,0,7.81,1.85,9.34,5.92c-4.02-0.1-8.13,0.5-12.05,1.61
		C273.91,594.9,265.58,602.33,265.58,611.97L265.58,611.97z M274.62,611.97c0-5.02,5.52-9.44,9.84-10.74
		c4.36-1.57,6.37-1.61,11.04-1.61l0.1,8.94c-3.51,4.32-9.04,7.43-14.76,7.43C277.93,615.98,274.62,615.28,274.62,611.97
		L274.62,611.97z M335.96,620.5c0,2.31,1.71,4.62,4.02,4.62h16.57c1.5,0,4.12-1.8,4.12-4.62c0-2.31-1.81-4.22-4.22-4.52h-3.21v-6.83
		l8.03-7.13l11.04,13.86c-0.4,0-1.61,0.1-2.01,0.1c-1.37,0.01-3.61,0.43-3.61,4.52c0,2.41,1.81,4.52,4.32,4.52h15.26
		c5.57,0,6.14-8.91-0.1-9.04c-0.3,0-1.91-0.1-2.31-0.1l-0.2-0.3l-15.46-19.68l11.04-9.94c0.5-0.3,0.9-0.7,1.1-1.21h3.92
		c0.66,0,3.82-1.41,3.82-4.52c0-2.31-1.71-4.62-4.02-4.62h-17.77c-2.07,0.23-3.82,2.55-3.82,4.62c0,3.76,4.3,4.5,4.32,4.52
		l-13.55,12.25v-32.03c0.04-1.78-0.93-4.02-4.52-4.02h-8.33c-4.57,0-6.51,7.13-0.8,9.04l4.42,0.1v45.88h-3.92
		C339.88,616.17,335.96,616.27,335.96,620.5L335.96,620.5z M412.26,599.92c0,9.84,5.02,20.28,14.86,23.7
		c2.71,1.1,5.22,1.61,8.13,1.61c5.72,0,11.04-2.51,14.76-6.93c1.1-1.31,2.21-2.51,2.21-4.22c0-2.71-2.21-4.62-4.52-4.62
		c-3.01,0-3.61,2.31-5.52,3.92c-6.38,5.54-17.59,2.09-20.08-8.03h30.22c0,0,4.08-0.74,3.92-4.82c-1.1-13.76-7.43-26.31-22.69-26.31
		c-1.91,0-3.71,0.4-5.42,0.8C417.68,577.93,412.26,589.88,412.26,599.92L412.26,599.92z M433.55,583.55
		c7.85,0,11.6,5.57,12.85,12.65h-24.7l0.7-2.71c1.1-3.92,4.02-8.53,8.03-9.64C431.64,583.55,432.34,583.55,433.55,583.55
		L433.55,583.55z M488.56,621.71c0.57,0,6.99,3.51,14.86,3.51c8.63,0,21.99-4.02,21.99-14.76c0-9.3-9.05-14.8-17.27-16.57
		l-10.84-1.1c-2.71-0.4-5.52-0.9-7.43-3.21c-0.3-0.5-0.8-1.1-0.8-1.81c0-2.46,5.79-3.61,7.83-3.61c4.81,0,9.23,0.11,13.76,2.31
		l3.11,1.41v3.41c0,1.9,2.62,4.12,4.62,4.12c2.31,0,4.62-1.91,4.62-4.22v-11.14c0-3.87-4.95-5.79-7.73-3.01
		c-0.3,0.3-0.7,0.8-0.8,0.8c-4.82-1.71-9.74-2.81-14.86-2.91c-8.13,0-19.58,2.71-19.58,12.85c0,7.43,7.13,12.85,14.16,13.65
		c4.18,0.5,12.5,1.23,16.37,2.71c3.51,1.35,9.99,7.07,1.2,10.34l-5.42,1.41c-9.41,1.16-17.27-4.42-17.27-4.42h-0.1
		c0-0.9,0-2.01-0.1-3.11c-0.4-2.11-2.21-3.71-4.52-3.71c-2.31,0-4.52,1.81-4.52,4.12v11.55
		C479.83,624.36,486.19,626.45,488.56,621.71L488.56,621.71z M601.91,584.96h6.22v18.98l0.7,8.23c1.61,8.13,6.12,13.05,14.86,13.05
		c5.62,0,9.94-1.81,12.65-6.93c0.7-1.51,1.71-2.81,1.71-4.42c0-5.31-7.16-5.7-8.43-2.51c-0.1,0.3-0.8,1.71-1.1,2.01
		c-1.1,2.41-2.41,2.61-4.72,2.61h-1.2c-4.72-0.2-5.32-9.15-5.32-12.95l0.1-18.07h6.23c2.41,0,4.12-2.31,4.12-4.62
		c0-3.81-3.79-4.49-3.92-4.62h-6.43v-10.24c0-2.31-2.41-4.12-4.52-4.12c-2.61,0-4.61,1.95-4.62,3.61l-0.1,10.74h-6.43
		c-1.37,0.13-4.02,0.68-4.02,4.62C597.7,582.65,599.5,584.96,601.91,584.96L601.91,584.96z M661.05,620.6
		c0,2.62,2.51,4.52,3.92,4.52h14.46c2.14,0,3.82-2.43,3.82-4.52c0-2.11-1.51-4.22-3.82-4.52c-0.5,0-1.81-0.1-2.11-0.1v-23.19
		l2.81-2.71c3.11-2.41,7.13-5.22,11.45-5.22c5.54,0,4.92,7.85,4.92,11.75l-0.1,19.38c-0.8,0-1.81-0.1-2.61,0.2
		c-5.58,1.78-3.51,8.94,0.8,8.94h13.76c2.45,0,4.12-2.36,4.12-4.62c0-3.05-2.6-4.52-4.02-4.52h-2.71v-24.2l-0.9-5.32
		c-1.71-6.43-6.43-10.74-13.25-10.74c-3.61,0-7.43,1.1-10.54,3.01c-0.4,0-3.21,1.61-3.51,1.91h-0.2v-15.36
		c0-1.91-2.21-4.02-4.12-4.02h-8.73c-1.93,0-5.36,2.98-3.51,6.83c1.61,2.71,4.42,2.41,7.13,2.41l-0.1,45.58l-3.41,0.1
		C664.5,616.22,661.05,617.01,661.05,620.6L661.05,620.6z M734.34,599.92c0,9.84,5.02,20.28,14.86,23.7
		c2.71,1.1,5.22,1.61,8.13,1.61c5.72,0,11.04-2.51,14.76-6.93c1.1-1.31,2.21-2.51,2.21-4.22c0-2.71-2.21-4.62-4.52-4.62
		c-3.01,0-3.61,2.31-5.52,3.92c-6.38,5.54-17.59,2.09-20.08-8.03h30.22c0,0,4.08-0.74,3.92-4.82c-1.1-13.76-7.43-26.31-22.69-26.31
		c-1.91,0-3.71,0.4-5.42,0.8C739.76,577.93,734.34,589.88,734.34,599.92L734.34,599.92z M755.62,583.55
		c7.85,0,11.6,5.57,12.85,12.65h-24.7l0.7-2.71c1.1-3.92,4.02-8.53,8.03-9.64C753.72,583.55,754.42,583.55,755.62,583.55
		L755.62,583.55z M809.64,625.02l9.34,0.1c2.31-0.3,4.22-2.21,4.22-4.52c0-3.76-4.02-4.58-4.02-4.62v-25.8c0-0.07,0.16-0.46,0.2-0.5
		c0-0.03,2.84-4.82,5.92-4.82c2.32,0,3.51,3.05,3.51,4.62v26.41c-6.47,1.41-4.02,9.04-0.2,9.04c1.74,0,9.73,0.2,10.84-0.2
		c1.91-0.9,2.81-2.31,2.81-4.32c0-3.96-4.22-4.33-4.22-4.52v-25.9c0-0.01,2.32-4.22,5.52-4.22c2.51,0,3.82,3.41,3.82,5.62v24.6
		c-5.87,0.77-4.76,9.04,0.2,9.04h9.04c2.31,0,4.22-2.21,4.22-4.52c0-1.91-1.1-3.61-2.81-4.32l-1.31-0.3l-0.1-25.5
		c-0.62-7.12-5.26-13.76-13.05-13.76c-5.7,0-8.71,3.51-9.14,3.51c-7.24-8.14-15.7-2.31-16.37-2.31c-0.7-0.7-1.81-1.61-3.11-1.61
		h-9.14c-5.32,0-4.79,9.14-0.1,9.14h4.22v30.62C803.9,616.65,804.29,624.32,809.64,625.02L809.64,625.02z"/>
	<path d="M21.81,750.95c0,2.31,1.81,4.62,4.12,4.62h11.85c5.23,0,6.86-9.14-1-9.14v-15.46c3.92,3.92,8.94,6.23,14.56,6.23
		c13.25,0,22.19-12.25,22.19-24.8c0-12.65-8.94-24-22.19-24c-5.16,0-10.92,2.09-14.56,5.72c0-2.78-1.15-5.52-4.02-5.52
		c-1.99,0-7.5-0.18-9.14,0.2c-1.61,0.8-2.71,2.41-2.71,4.32c0,3.23,3.06,4.52,3.82,4.52h2.71v48.8c-0.8,0-1.61-0.1-2.51,0.2
		C23.02,747.13,21.81,748.94,21.81,750.95L21.81,750.95z M38.38,712.29c0-7.63,4.92-14.66,12.95-14.66
		c8.03,0,13.05,7.03,13.05,14.66c0,7.43-4.92,15.56-13.05,15.56C43,727.85,38.38,719.62,38.38,712.29L38.38,712.29z M97.38,712.69
		c0,8.53,3.82,17.27,11.35,21.59c19.19,11.2,37.81-9.86,31.13-30.02c-2.91-8.84-10.84-16.16-20.58-16.16
		C106.22,688.09,97.38,700.34,97.38,712.69L97.38,712.69z M106.42,712.69c0-7.33,4.92-15.26,12.95-15.26
		c7.93,0,12.65,8.13,12.65,15.26c0,7.23-4.72,15.46-12.65,15.46C111.34,728.15,106.42,719.92,106.42,712.69L106.42,712.69z
		 M175.66,733.88c0.57,0,6.99,3.51,14.86,3.51c8.63,0,21.99-4.02,21.99-14.76c0-9.3-9.05-14.8-17.27-16.57l-10.84-1.1
		c-2.71-0.4-5.52-0.9-7.43-3.21c-0.3-0.5-0.8-1.1-0.8-1.81c0-2.46,5.79-3.61,7.83-3.61c8.49,0,9.72,0.49,16.87,3.72v3.41
		c0,2.87,2.62,4.12,4.62,4.12c2.31,0,4.62-1.91,4.62-4.22v-11.14c0-3.86-4.95-5.79-7.73-3.01c-0.3,0.3-0.7,0.8-0.8,0.8
		c-4.82-1.71-9.74-2.81-14.86-2.91c-8.13,0-19.58,2.71-19.58,12.85c0,7.43,7.13,12.85,14.16,13.66c4.18,0.5,12.5,1.23,16.37,2.71
		c3.51,1.35,9.99,7.07,1.2,10.34l-5.42,1.41c-9.41,1.16-17.27-4.42-17.27-4.42h-0.1c0-0.9,0-2.01-0.1-3.11
		c-0.4-2.11-2.21-3.71-4.52-3.71c-2.31,0-4.52,1.81-4.52,4.12v11.55C166.92,736.53,173.29,738.62,175.66,733.88L175.66,733.88z
		 M247.21,733.88c0.57,0,6.99,3.51,14.86,3.51c8.63,0,21.99-4.02,21.99-14.76c0-9.3-9.05-14.8-17.27-16.57l-10.84-1.1
		c-2.71-0.4-5.52-0.9-7.43-3.21c-0.3-0.5-0.8-1.1-0.8-1.81c0-2.46,5.79-3.61,7.83-3.61c8.49,0,9.72,0.49,16.87,3.72v3.41
		c0,2.74,2.62,4.12,4.62,4.12c2.31,0,4.62-1.91,4.62-4.22v-11.14c0-3.86-4.95-5.79-7.73-3.01c-0.3,0.3-0.7,0.8-0.8,0.8
		c-4.82-1.71-9.74-2.81-14.86-2.91c-8.13,0-19.58,2.71-19.58,12.85c0,7.43,7.13,12.85,14.16,13.66c4.18,0.5,12.5,1.23,16.37,2.71
		c3.51,1.35,9.99,7.07,1.21,10.34l-5.42,1.41c-9.41,1.16-17.27-4.42-17.27-4.42h-0.1c0-0.9,0-2.01-0.1-3.11
		c-0.4-2.11-2.21-3.71-4.52-3.71c-2.31,0-4.52,1.81-4.52,4.12v11.55C238.48,736.53,244.84,738.62,247.21,733.88L247.21,733.88z
		 M308.92,732.77c0,2.08,1.73,4.52,3.82,4.52h21.08c1.61,0,3.82-1.95,3.82-4.52c0-2.5-2.13-4.52-3.82-4.52h-5.62v-35.84
		c0-1.91-2.01-4.32-4.02-4.32h-9.34c-1.64,0.27-3.82,2.18-3.82,4.52c0,5.28,4.98,4.52,7.93,4.52v31.13h-6.22
		C312.62,728.38,308.92,728.53,308.92,732.77L308.92,732.77z M315.15,677.95c0,3.21,2.81,5.62,6.02,5.62c3.21,0,6.02-2.41,6.02-5.62
		C327.2,670.41,315.15,670.41,315.15,677.95L315.15,677.95z M366.72,678.45v54.82c0,2.05,2.55,4.12,4.62,4.12
		c2.11,0,4.02-1.41,4.52-3.71c0.3-1.1,0.2-2.21,0.2-3.01c15.41,14.23,36.55,1.47,36.55-18.68c0-19.73-20.39-33.52-36.65-18.78
		v-19.48c0-2.31-1.81-4.02-4.12-4.52h-2.81c-2.71,0.1-4.92-0.3-6.43,2.11C360.4,675.06,363.11,678.45,366.72,678.45L366.72,678.45z
		 M377.66,711.99c0-7.43,4.72-15.66,12.85-15.66c8.03,0,12.95,8.33,12.95,15.66c0,7.23-4.92,15.46-12.95,15.46
		C382.38,727.45,377.66,719.22,377.66,711.99L377.66,711.99z M436.26,732.67c0,2.31,1.71,4.62,4.02,4.62h20.68
		c4.24,0,6.06-7.41,0.7-8.94c-1.39-0.4-4.52-0.2-6.12-0.2c0-4.9,0.18-50.93-0.1-51.61c-0.74-1.97-2.35-3.41-4.12-3.41h-8.53
		c-2.51,0-4.42,2.21-4.42,4.52c0,2.5,2.04,4.62,4.22,4.62h3.82v45.88h-6.02C438.07,728.15,436.26,730.36,436.26,732.67
		L436.26,732.67z M489.04,712.09c0,9.84,5.02,20.28,14.86,23.7c2.71,1.1,5.22,1.61,8.13,1.61c5.72,0,11.04-2.51,14.76-6.93
		c1.1-1.31,2.21-2.51,2.21-4.22c0-2.71-2.21-4.62-4.52-4.62c-3.01,0-3.61,2.31-5.52,3.92c-6.38,5.54-17.59,2.09-20.08-8.03h30.22
		c0,0,4.08-0.74,3.92-4.82c-1.1-13.76-7.43-26.31-22.69-26.31c-1.91,0-3.71,0.4-5.42,0.8C494.46,690.1,489.04,702.05,489.04,712.09
		L489.04,712.09z M510.33,695.72c7.85,0,11.6,5.57,12.85,12.65h-24.7l0.7-2.71c1.1-3.92,4.02-8.53,8.03-9.64
		C508.42,695.72,509.12,695.72,510.33,695.72L510.33,695.72z M557.98,732.47c0,6.53,8.84,6.56,8.84,0.1
		C566.82,726.28,557.98,726.59,557.98,732.47L557.98,732.47z"/>
	<path d="M11.15,387.16C3.03,381.44-1,370.87-1,355.51c0-11.74,2.63-24.76,7.88-39.01c7.53-20.44,19.97-39.19,37.38-56.24
		c17.4-17.05,40-29.37,67.86-37.03l7.48-20.67c10.75-30.13,20.73-56.41,29.96-78.9c-46.89,5.84-79.72,18.51-98.52,38.14
		c4.53,0.28,5.83,0.34,10.75-1.52c3.38-1.28,6.83,0.81,6.83,4.79c0,1.93-0.99,3.39-3.04,4.26c-4.03,1.75-7.94,2.57-11.8,2.57
		c-13.7,0-15.91-10.69-10.98-16.06c14.95-15.42,36.21-26.63,63.83-33.7C138.34,114.03,174.2,110,214.26,110
		c23.13,0,44.62,1.17,64.47,3.56c6.26,1.01,5.55,10.34-1.17,9.93c-19.33-2.39-39.65-3.56-61.09-3.56c-17.69,0-36.15,0.76-55.3,2.39
		c-9.93,23.24-22.43,56.01-37.61,98.17c10.8-2.04,22.37-3.04,34.57-3.04c19.91,0,30.89,1.34,32.82,4.09
		c1.12,1.59,0.95,2.5,0.53,4.09c-0.7,2.62-2.84,3.59-5.49,3.45c-9.46-1.05-18.51-1.58-27.21-1.58c-14.13,0-27.16,1.4-39.19,4.15
		c-13.9,39.24-28.09,73.82-42.69,103.83c-14.54,30.02-29.43,48.18-44.73,54.6C24.56,392.23,17.94,391.47,11.15,387.16L11.15,387.16z
		 M28.96,380.62c12.85-5.55,26.1-22.54,39.65-50.87c13.61-28.32,26.63-60.03,39.19-95.07c-23.94,7.88-43.51,19.56-58.75,35.04
		c-15.24,15.42-26.16,32.24-32.76,50.34c-4.91,13.61-7.36,25.35-7.36,35.27c0,8.76-0.28,17.89,7.71,23.42
		C20.51,381.42,24.54,382.32,28.96,380.62L28.96,380.62z M268.98,308.97c-8.23,0-14.37-1.17-18.45-3.45
		c-10.04-5.43-15.07-14.13-15.07-25.99c-7.5,13.05-16.17,21.55-26.34,21.55c-13.85,0-16.92-20.61-3.27-33.52
		c5.14-4.79,10.98-7.18,17.64-7.18c4.79,0,7.18,1.69,7.18,5.14c0,3.38-2.84,5.22-4.96,5.14l-2.39-0.18
		c-8.61-0.31-16.29,7.78-16.29,16.59c0,1.11,0.23,2.16,0.7,3.1c0,0.64,0.7,0.99,2.04,0.99c4.5,0,9.69-4.79,15.77-14.37
		c3.21-5.26,6.83-9.75,10.92-13.49c4.74-3.87,11.06,1.1,10.63,5.31l-0.35,1.69c-1.67,7.59-2.12,15.84,2.57,21.72
		c3.8,4.67,9.81,7.01,18.16,7.01c9.99-0.12,20.03-3.8,30.08-11.1c8.07-5.73,14.2-10.72,18.41-14.96c0.91-1.84,1.96-3.7,3.14-5.6
		c2.94-4.84,8.54-1.23,8.94,1.05c0.73,4.2-1.55,5.44-2.36,7.58c-0.2,0.88-0.62,1.71-1.25,2.46c-2.14,4.53-3.22,8.71-3.22,12.5
		c0,15.5,16.5,13.02,27.68,8.76c16.26-6.2,35.95-18.49,49.25-29.28c0.94-9.96,4.01-23.08,9.26-39.34c0.82-3.45,3.1-10.16,6.83-20.21
		c-7.18,0.58-14.78,1.64-22.78,3.1c-3.39,0-5.08-1.46-5.08-4.44c0-2.86,1.4-4.67,4.26-5.49c9.81-1.81,19.1-2.92,27.86-3.27
		c9.29-21.67,17.58-32.47,25-32.47c3.45,0,6.25,1.93,8.41,5.78c0.64,1.87,0.99,4.09,0.99,6.72c0,5.2-1.34,12.09-4.09,20.5
		c6.25,0.58,12.5,1.23,18.63,1.87c6.34,0.75,5.97,9.93-1.52,9.93c-6.72-0.76-13.61-1.4-20.56-1.87
		c-7.91,20.21-21.63,45.38-36.75,60.4c0.27,3.62-0.43,3.28-0.65,3.87c-0.03,0.55-0.04,1.09-0.04,1.61c0,15.07,7.59,22.6,22.72,22.6
		c11.68,0,23.18-3.68,34.69-10.98c10.58-6.75,18.57-12.65,23.96-17.75c2.56-6.91,5.76-14.74,9.62-23.48
		c6.19-13.67,12.79-26.4,19.8-38.13c7.01-11.74,13.55-20.21,19.56-25.35c4.56-3.39,8.76-5.14,12.5-5.14c4.2,0,7.71,1.58,10.45,4.61
		c8.3,8.39,0.09,23.82-8.58,35.45c-13.08,17.7-30.89,36.09-53.38,55.25c-1.81,5.02-3.33,9.52-4.61,13.55
		c3.21-5.72,6.48-10.45,9.93-14.25c2.72-2.95,6.21-4.57,9.58-4.26c3.8,0.7,6.48,2.1,8.23,4.26c2.51,3.21,3.97,7.77,4.44,13.72
		c0,2.98,0.7,6.02,2.04,9.23c1.69,3.68,4.61,5.49,8.76,5.49c6.13,0,16.64-5.72,31.48-17.11c16.29-12.67,34.57-19.62,54.9-20.91
		c38.19-2.16,77.73-3.21,118.55-3.21c38.13,0,75.69,1.69,112.77,5.14c5.22,0.45,5.53,6.17,2.8,8.53c-1.18,1.02-2.4,1.47-3.85,1.4
		c-36.62-3.33-73.7-4.96-111.37-4.96c-43.33,0-82.81,1.05-118.38,3.21c-18.28,1.05-34.69,7.24-49.29,18.69
		c-16.25,12.77-29.35,19.6-38.49,19.16c-11.86-1.17-18.51-9.17-19.86-23.94c-0.24-2.59-0.71-7.02-2.22-8
		c-0.58-0.35-1.23-0.64-1.87-0.76c-2.52,1.89-12.55,17.92-15.24,21.72c-3.68,4.91-7.01,7.36-10.1,7.36c-3.74,0-5.66-2.39-5.66-7.18
		c0-3.31,0.64-7.49,1.9-12.55c-3.54,2.54-7.7,5.36-12.47,8.46c-12.21,7.77-25.4,12.03-39.54,12.85l-5.84-0.18
		c-16.42-2.21-25.62-11-27.62-26.33c-5.71,3.91-13.77,8.97-24.18,15.17c-14.37,8.7-27.91,13.49-40.53,14.37
		c-3.91,0-7.42-0.7-10.63-2.22c-7.91-3.77-11.77-10.74-11.62-20.32C297.97,300.67,286.76,307.44,268.98,308.97L268.98,308.97z
		 M329.54,256.58c-6.19,0-5.74-7.41-2.63-10.4c3.6-3.45,9.29-2.78,9.29,3.04C336.2,253.74,332.74,256.58,329.54,256.58
		L329.54,256.58z M438.51,200.81c3.07-8.94,5.73-18.37,4.44-22.25c-3.27,2.63-7.83,9.93-13.49,21.9L438.51,200.81L438.51,200.81z
		 M411.48,253.2c9.58-13.37,17.34-27.56,23.3-42.63h-9.75c-3.1,7.3-5.43,13.78-7.01,19.33L411.48,253.2L411.48,253.2z
		 M507.31,253.72c13.9-12.91,25.17-24.82,33.81-35.8c8.58-10.92,13.14-19.21,13.61-24.76c0.13-3.11-2.61-5.67-6.89-3.45
		c-6.37,3.45-13.2,11.33-20.44,23.71C520.16,225.81,513.44,239.24,507.31,253.72L507.31,253.72z"/>
</g>
</svg>
