<?xml version="1.0" encoding="utf-8"?>
<!-- Generator: Adobe Illustrator 25.0.0, SVG Export Plug-In . SVG Version: 6.00 Build 0)  -->
<svg version="1.1" id="Layer_1" xmlns="http://www.w3.org/2000/svg" xmlns:xlink="http://www.w3.org/1999/xlink" x="0px" y="0px"
	 viewBox="0 0 864 864" style="enable-background:new 0 0 864 864;" xml:space="preserve">
<g>
	<path d="M133.22,507.6c-12.79,0-22.5-4.25-29.01-12.79c-8.13-10.64-11.1-24.7-9.27-39.1c-15.22,21.12-28.35,31.71-39.43,31.71
		c-5.52,0-10.31-2.54-14.39-7.56c-4.08-5.02-6.12-11.25-6.12-18.81c0-14.95,3.75-31.66,11.31-50.08c2.34-5.71,8.55-6.34,12.91-3.09
		c2.63,1.96,3.19,6.28,2.1,9.04c-6.78,17.37-10.15,32.48-10.15,45.39c0,13.56,8.06,9.25,15.66,1.65
		c11.75-11.75,24.65-30.39,38.77-55.92c2.69-4.9,6.07-8.23,11.8-5.63c3.14,1.38,4.69,3.86,4.69,7.39c0,0.88-1.87,6.45-5.68,16.77
		c-3.75,10.26-5.63,23.38-5.63,39.32c0,8.6,2.81,15.72,8.38,21.34c8.95,8.92,25.55,4.87,38.94,0
		c37.75-13.87,72.27-37.02,103.54-69.45c4.48-8.94,9.6-17.35,15.36-25.24c6.42-8.79,19.12,0.98,12.96,9.71
		c-8.6,11.75-15.5,24.49-20.68,38.27c3.2-4.08,8.6-9.38,16.16-15.77c7.5-6.4,15.11-9.6,22.78-9.6c7.72,0,13.51,2.43,17.37,7.28
		c8.77,11.11,6.36,29.08,0.55,41.53c37.02-8.1,66.26-22.93,87.87-44.55c6.88-8.01,14.58-12.03,23.14-12.03
		c3.42,0,5.74,0.77,6.95,2.26c0.83-0.22,1.71-0.28,2.59-0.28c6.12,0,10.86,4.3,14.17,12.91c3.53,9.32,3.24,22.3,0.5,32.65
		c6.34,6.34,15.39,9.54,27.13,9.54c24.38,0,51.29-8.88,80.79-26.53c10.43-6.09,19.22-12.84,26.43-20.25
		c1.52-4.39,3.23-8.63,5.11-12.73c2.56-5.64,9.06-5.84,12.91-2.65c2.52,2.09,3.06,6.1,1.77,9.15c-5.02,11.2-8.66,23.82-10.81,37.94
		c7.67-12.79,17.65-25.04,29.89-36.67c8.71-8.38,16.27-12.63,22.61-12.63c16.34,0,13.7,19.31,10.04,31.71
		c-2.25,7.61-5.18,21.23-5.18,31.16c0,9.05,1.25,18.94,8.88,24.27c4.03,2.76,8.71,4.19,14.06,4.19c7.67,0,15.72-1.6,24.27-4.69
		c38-13.57,72.63-36.62,103.85-69.16c4.88-4.9,13.9-2.07,13.9,5.79c0,1.99-0.72,3.69-2.26,5.18
		c-33.14,34.69-69.98,59.18-110.52,73.51c-10.42,3.7-20.29,5.52-29.56,5.52c-10.2,0-19.25-3.86-27.02-11.47
		c-18.26-17.87-11.62-50.69-3.97-77.87c-3.75,2.54-7.45,5.63-10.97,9.21c-15.94,15.94-28.02,33.59-36.23,53
		c-1.38,3.31-3.92,4.96-7.56,4.96c-3.69-0.11-6.12-1.82-7.28-5.13c-4.05-11.5-4.62-23.41-2.67-35.77
		c-13.03,9.23-29.78,17.9-43.38,23.47c-17.21,7.05-37.3,12.63-55.76,12.63c-13.24,0-24.93-3.42-35.08-10.2
		c-3.03,4.96-6.84,9.15-11.53,12.68c-4.69,3.47-10.04,5.24-15.94,5.24c-7.67,0-13.9-3.14-18.81-9.54
		c-6.04-7.84-8.04-17.4-7.22-28.09c-16.7,11.19-35.92,19.69-57.69,25.5c-9.98,2.59-20.02,4.91-30,6.95l-0.66,0.17
		c-5.52,6.07-11.69,10.59-18.53,13.57c-8.07,3.55-19.58,7.23-25.59,1.71c-2.04-1.87-3.09-4.3-3.09-7.33
		c0-9.6,12.91-17.15,38.66-22.61c7.17-8.93,10.81-18.42,10.81-28.46c0-5.9-2.7-8.88-8.11-8.88c-2.87,0-6.89,1.93-11.91,5.79
		c-7.22,5.85-13.35,12.63-18.31,20.41c-14.95,22.83-22.45,49.03-22.45,78.64c0,8.82,0.44,17.76,1.32,26.69
		c0,7.41-7.68,11.08-13.13,6.62c-2.98-2.48-4.52-15.33-4.52-38.6c0-28.85,3.37-54.96,10.1-78.33
		c-26.22,22.26-54.63,38.76-85.21,49.54C152.52,505.78,142.6,507.6,133.22,507.6L133.22,507.6z M428.27,472.02
		c5.79,0,10.75-4.74,14.84-14.23c-5.57-9.54-8.38-20.63-8.38-33.09c-5.85,2.15-10.2,6.23-13.13,12.24c-4.6,9.6-5.92,19.23-2.1,29.17
		C421.05,470.09,423.91,472.02,428.27,472.02L428.27,472.02z"/>
	<path d="M186.07,288.15c4.06-7.06,6.3-16.11,5.31-24.18c-1.81-14.76-13.28-27.16-25.8-34.36l-7.28-4.26
		c-0.89-0.51-2.09-0.22-2.6,0.67c-3.26,5.8-6.56,11.51-9.87,17.26l-9.83,17.31c-0.51,0.89-0.28,1.97,0.61,2.48
		c3.23,1.86,3.27,1.78,6.5,3.64c9.53,5.48,7.01,6.34,12.12-2.55l6.6-11.18c0.24-0.42,0.76-0.57,1.12-0.24
		c16.34,14.9,5,32.85-8.85,34.44c-15.96,1.83-45.61-15.07-40.31-34.59c0.99-3.63,3.57-7.98,6.16-10.58c3.18-3.2,7.21-4.7,11.1-5.33
		c1.02-0.16,1.74-1.18,1.6-2.17l-2.62-16.63c-0.18-1.03-1.26-1.61-2.24-1.44c-13.44,2.43-22.48,8.33-29.38,20.34
		c-6.64,11.54-7.95,23.84-2.58,36.13c8.58,19.64,33.9,34.62,54.76,34.98C165.26,308.16,178.71,300.93,186.07,288.15L186.07,288.15z
		 M269.71,197.44c2.48-1.27,2.42-1.39,4.92-2.67c7.8-4,7.16-2.22,2.78-10.77c-3.95-7.72-7.85-15.47-11.83-23.19
		c-0.23-0.45-0.03-1.06,0.42-1.29c3.8-1.95,3.81-1.93,7.59-3.86c0.5-0.26,1.12-0.21,1.58,0.12l20.99,13.84l10.39,7.06
		c0.94,0.64,2.26,0.73,3.27,0.21l11.71-6.19c2.93-1.5,2.99-1.38,5.93-2.89c0.71-0.36,0.81-1.44,0.08-1.9
		c-2.53-1.69-2.52-1.72-5.04-3.39l-15.26-10.02c-2.52-1.67-2.45-1.78-4.98-3.47l-10.2-6.62c-0.41-0.28-0.51-0.89-0.21-1.31
		c6.68-9.62,7.12-21.45,1.82-31.81c-2.24-4.38-3.61-6.31-7.19-9.51c-6.36-5.66-13.95-7.34-22.28-6.38
		c-8.79,1.02-14.81,4.23-22.47,8.16l-21.77,11.05c-0.91,0.47-1.22,1.63-0.75,2.54c1.43,2.79,1.33,2.84,2.77,5.65l5.79,11.16
		c2.87,5.61,5.73,11.17,8.68,16.75c3.78,7.5,7.62,14.93,11.45,22.4l14.29,28c0.47,0.91,1.61,1.33,2.52,0.86L269.71,197.44
		L269.71,197.44z M262.36,140.42c-2.44,1.25-2.47,1.19-4.9,2.43c-0.47,0.24-0.95,0.05-1.18-0.4c-3.55-6.93-7.14-13.91-10.75-20.8
		c-0.23-0.45,0.01-0.94,0.48-1.17c6.82-3.49,19.47-12.06,26.48-6.93c2.86,2.09,5.14,7.63,5.26,10.52c0.18,4-2.51,8.1-5.4,10.52
		C269.64,136.86,265.43,138.85,262.36,140.42L262.36,140.42z M396.64,153.26l17.71,0.25c1.09,0.03,2.17-0.53,2.5-1.57l6.16-19.72
		c0.17-0.52,0.74-0.77,1.3-0.75l13.37,0.19c4.45,0.11,8.91,0.25,13.37,0.36c0.54,0.01,1.01,0.44,1.15,0.97l5.34,19.94
		c0.3,1.05,1.24,1.73,2.35,1.76c2.94,0.07,2.94,0.2,5.88,0.28l11.83,0.21c0.88,0.02,1.66-0.81,1.39-1.71l-7.07-23.78
		c-4.69-15.85-9.19-31.77-13.79-47.65c-1.71-5.93-3.61-11.9-5.32-17.83c-2.71-9.27-0.64-7.69-10.17-7.93L430.4,56
		c-1.11-0.03-2.04,0.65-2.42,1.68l-8.11,23.44c-2.71,7.81-5.44,15.61-8.17,23.41c-2.71,7.81-5.41,15.63-8.13,23.44
		c-2.02,5.87-4.21,11.67-6.24,17.51c-1.03,2.94-0.86,2.99-1.87,5.92C395.16,152.26,395.68,153.24,396.64,153.26L396.64,153.26z
		 M430.2,113.15c-0.46-0.01-0.71-0.52-0.56-0.97l3.49-11.22c0.9-2.79,1.03-2.76,1.95-5.55c0.37-1.14,3.26-11.4,3.75-11.39
		c0.11,0,0.19,0.07,0.23,0.2l7.63,28.39c0.12,0.46-0.17,0.89-0.63,0.88l-10.56-0.29C432.86,113.15,432.86,113.21,430.2,113.15
		L430.2,113.15z M576.06,202.57c7.36,4.72,15.14,7.2,23.83,6.61c3.11-0.21,9.21-1.58,12.28-2.61c1-0.33,1.5-1.41,1.23-2.4
		l-2.83-10.04c-0.72-2.51-0.85-2.46-1.59-4.98c-0.27-0.98-1.26-1.5-2.17-1.18c-8.59,3.05-17.74,0.47-24.04-6.46
		c-3.06-3.37-4.39-6.58-4.8-11.04c-0.42-4.73,0.18-7.49,1.76-12.02c3.09-8.91,9.53-18.71,17.7-24.02c7.49-4.86,14.94-5.04,22.65-0.1
		c5.72,3.67,9.11,8.44,10.29,14.67c0.19,0.99,1.12,1.67,2.08,1.44c5.19-1.26,10.39-2.51,15.59-3.77c1.02-0.25,1.61-1.25,1.4-2.26
		c-1.54-7.2-4.68-14.84-9.71-20.25c-4.7-5.05-13.43-10.42-19.98-12.42c-14.44-4.42-29.07,0.61-40.02,10.49
		c-8.53,7.7-16.56,20.02-19.96,31.01C553.79,172.6,558.85,191.54,576.06,202.57L576.06,202.57z M668.31,303.15l9.67,16.47
		c5.01,8.72,3.14,7.57,10.28,3.46l9.46-5.31c0.89-0.51,1.18-1.66,0.67-2.55c-1.56-2.72-1.62-2.69-3.18-5.41
		c-4.17-7.25-8.5-14.17-12.37-21.86c-4.09-8.14-5.26-5.24,2.85-9.9c3.81-2.19,7.56-4.47,11.35-6.65c0.43-0.25,1.09-0.07,1.34,0.36
		l14.08,24.79c0.51,0.89,1.69,1.11,2.58,0.6c3.23-1.86,3.21-1.89,6.44-3.75c9.33-5.36,8.88-3.21,4.34-11.11l-8.47-14.86
		c-4.04-7.03-4.65-4.99,2.07-8.85l9.24-5.34c0.45-0.26,1.02-0.06,1.27,0.37l9.08,15.71c2.01,3.5,4.06,6.97,6.06,10.46
		c4.66,8.1,3.04,7.32,10.17,3.22l9.42-5.39c0.89-0.51,1.15-1.62,0.64-2.51c-8.26-14.35-16.41-28.76-24.66-43.11
		c-1.54-2.68-1.58-2.66-3.15-5.35c-0.49-0.85-1.68-1.17-2.53-0.68l-27.26,15.65c-7.27,4.18-14.54,8.37-21.76,12.63l-21.86,12.45
		l-10.85,6.34c-0.89,0.51-1.21,1.57-0.7,2.46L668.31,303.15L668.31,303.15z"/>
	<path d="M132.22,675.4c5.2,6.14,12.87,11.25,20.71,13.04c14.33,3.26,29.71-3.26,40.59-12.49l6.4-5.34c0.77-0.65,0.9-1.87,0.25-2.64
		c-4.3-4.97-8.5-9.96-12.75-14.96l-12.81-14.94c-0.65-0.77-1.74-0.92-2.51-0.27c-2.81,2.38-2.75,2.45-5.56,4.83
		c-8.28,7.02-8.25,4.39-1.68,12.13l8.18,9.88c0.31,0.36,0.28,0.89-0.15,1.12c-19.38,10.21-32.22-6.38-29.06-19.75
		c1.72-7.31,7.58-14.53,13.26-19.35c10.87-9.22,25.84-15.33,36.77-2.45c4.6,5.42,5.88,10.73,4.65,17.26c-0.19,1,0.51,2.01,1.48,2.21
		l16.35,3.13c1.02,0.18,1.92-0.63,2.09-1.6c2.24-13.31-0.23-23.7-9.08-34.14c-8.51-10.03-19.51-15.37-32.73-14.5
		c-21.14,1.4-43.54,19.93-50.86,39.21C120.58,649.37,122.81,664.26,132.22,675.4L132.22,675.4z M246.38,765.92
		c2.52,1.11,2.57,1,5.11,2.12c7.92,3.51,6.16,4.12,10-4.57c1.31-2.95,1.39-2.92,2.68-5.85l7.77-17.66c0.2-0.45,0.8-0.68,1.25-0.48
		c3.86,1.71,3.85,1.73,7.69,3.43c0.51,0.23,0.85,0.73,0.89,1.29l2.43,24.73l1.05,12.37c0.09,1.12,0.85,2.19,1.87,2.64l12.04,5.14
		c2.97,1.32,2.92,1.43,5.91,2.76c0.72,0.32,1.61-0.27,1.51-1.12c-0.28-2.99-0.25-3.01-0.53-5.98l-1.8-17.96
		c-0.28-2.97-0.16-2.99-0.44-5.98l-1.26-11.95c-0.04-0.49,0.37-0.94,0.88-0.98c11.54-0.85,20.91-7.88,25.56-18.4
		c1.97-4.45,2.6-6.7,2.82-11.44c0.39-8.4-3.04-15.28-8.96-21.08c-6.25-6.12-12.47-8.74-20.25-12.18l-22.03-9.84
		c-0.93-0.41-2.01,0.08-2.42,1c-1.25,2.83-1.35,2.79-2.62,5.65c-4.14,9.5-8.35,18.94-12.43,28.47c-3.41,7.57-6.73,15.15-10.08,22.73
		l-12.61,28.39c-0.41,0.93-0.02,2.06,0.91,2.47L246.38,765.92L246.38,765.92z M285.6,724.79c-2.48-1.1-2.45-1.16-4.92-2.25
		c-0.47-0.21-0.63-0.7-0.43-1.16c3.11-7.04,6.24-14.13,9.29-21.2c0.2-0.45,0.72-0.57,1.2-0.37c6.92,3.06,21.37,7.45,21.8,16.02
		c0.17,3.5-2.67,8.69-4.8,10.59c-2.96,2.63-7.79,3.11-11.44,2.4C292.87,728.17,288.71,726.17,285.6,724.79L285.6,724.79z
		 M395.06,810.4l17.48-0.88c1.08-0.04,2.11-0.66,2.37-1.71l4.82-19.84c0.13-0.52,0.68-0.8,1.24-0.82l13.2-0.67
		c4.4-0.17,8.8-0.33,13.21-0.5c0.54-0.02,1.03,0.37,1.2,0.88l6.54,19.33c0.36,1.02,1.33,1.63,2.43,1.58c2.9-0.11,2.91,0.01,5.81-0.1
		l11.68-0.55c0.87-0.03,1.59-0.91,1.27-1.77l-8.49-23c-1.4-3.81-2.78-7.7-4.16-11.53l-12.48-34.58c-2.08-5.77-4.32-11.5-6.39-17.24
		c-3.26-8.97-1.12-7.54-10.54-7.17l-12.09,0.5c-1.1,0.04-1.97,0.77-2.28,1.81l-6.5,23.63c-1.09,3.94-2.18,7.86-3.26,11.81
		c-2.21,7.89-4.38,15.73-6.54,23.63l-3.28,11.81c-1.61,5.89-3.41,11.77-5.03,17.67c-0.83,2.96-0.66,3-1.47,5.96
		C393.54,809.51,394.12,810.44,395.06,810.4L395.06,810.4z M425.61,768.69c-0.45,0.02-0.73-0.47-0.62-0.92l2.72-11.29
		c0.65-2.59,4.34-17.06,4.54-17.07c0.11,0,0.2,0.06,0.24,0.18l9.34,27.51c0.15,0.45-0.12,0.89-0.57,0.91l-10.43,0.39
		C428.23,768.52,428.23,768.59,425.61,768.69L425.61,768.69z M597.86,766.97c7.77-3.77,13.87-9.06,17.86-16.69
		c1.42-2.72,3.42-8.58,4.13-11.7c0.23-1.01-0.42-2-1.39-2.27l-9.92-2.79c-2.49-0.68-2.52-0.55-5.02-1.22
		c-0.97-0.28-1.92,0.29-2.11,1.22c-1.86,8.81-8.75,15.21-17.84,16.94c-10.92,2.08-19.09-5.5-24.55-14.24
		c-8.23-13.17-13.48-33.06,4-41.55c6.04-2.93,11.82-3.33,17.67-1.11c0.93,0.35,1.99-0.09,2.28-1.01c0.81-2.52,0.78-2.53,1.6-5.04
		c1.05-3.34,2.18-6.71,3.26-10.05c0.31-0.99-0.22-2.01-1.19-2.34c-6.88-2.41-14.92-3.7-22.08-2.25
		c-6.68,1.36-15.71,5.96-20.77,10.45c-11.17,9.9-14.47,24.83-11.79,39.16c2.09,11.16,8.34,24.29,15.86,32.82
		C561.03,770.21,579.56,775.85,597.86,766.97L597.86,766.97z M718.61,664.43l11.56-14.92c6.16-7.8,5.79-5.66-0.6-10.7l-8.35-6.73
		c-0.79-0.63-1.96-0.48-2.58,0.32c-2.57,3.26-5.23,6.45-7.78,9.68c-3.81,4.93-7.68,9.72-11.53,14.6c-5.58,7.06-2.88,6.75-10.13,1.02
		c-3.41-2.69-6.88-5.3-10.27-7.97c-0.39-0.31-0.47-0.97-0.16-1.36l17.58-22.02c0.63-0.79,0.4-1.96-0.4-2.59
		c-2.89-2.28-2.92-2.25-5.81-4.53c-8.36-6.6-6.21-6.97-11.79,0.1l-10.52,13.22c-4.96,6.29-2.87,6.1-8.88,1.35l-8.29-6.52
		c-0.41-0.32-0.43-0.91-0.12-1.3l11.08-14.1c2.47-3.13,4.91-6.28,7.37-9.4c5.72-7.25,5.6-5.48-0.78-10.52l-8.4-6.66
		c-0.79-0.63-1.91-0.47-2.54,0.33l-26.4,33.47c-2.6,3.3-5.26,6.51-7.86,9.84c-0.6,0.76-0.46,1.97,0.3,2.57l24.37,19.27
		c6.52,5.15,13,10.26,19.58,15.32l19.45,15.49l9.8,7.63c0.79,0.63,1.89,0.53,2.51-0.26L718.61,664.43L718.61,664.43z"/>
</g>
</svg>
