<?xml version="1.0" encoding="utf-8"?>
<!-- Generator: Adobe Illustrator 25.0.0, SVG Export Plug-In . SVG Version: 6.00 Build 0)  -->
<svg version="1.1" id="Layer_1" xmlns="http://www.w3.org/2000/svg" xmlns:xlink="http://www.w3.org/1999/xlink" x="0px" y="0px"
	 viewBox="0 0 864 864" style="enable-background:new 0 0 864 864;" xml:space="preserve">
<g>
	<path d="M166.89,414.96L143.1,561.02l-22.98-141.33l0.76-4.73H82.69l0.76,4.73L60.46,561.02L36.67,414.96H0l39.76,244.17h41.36
		l20.66-126.84l20.66,126.84h41.36l39.76-244.17H166.89L166.89,414.96z M311.21,458.9c-2.11-24.63-22.73-43.94-47.87-43.94
		c-25.14,0-45.76,19.31-47.87,43.94l-0.17,152.15c0,26.58,21.51,48.08,48.04,48.08c26.53,0,48.04-21.55,48.04-48.08L311.21,458.9
		L311.21,458.9z M275.17,611.77c0,6.55-5.28,11.83-11.83,11.83c-6.51,0-11.79-5.28-11.79-11.83c0-49.74,0-99.64,0-149.48
		c0-6.51,5.28-11.79,11.79-11.79c6.55,0,11.83,5.28,11.83,11.79C275.17,512.12,275.17,561.98,275.17,611.77L275.17,611.77z
		 M417.35,545.05c11.49-8.75,18.89-22.6,18.89-38.15V463c0-26.53-21.51-48.04-48.04-48.04h-56.41v244.17h36.17V554.81h14.53
		l32.49,104.32h37.9L417.35,545.05L417.35,545.05z M367.95,450.5h20.24c6.51,0,11.79,5.28,11.79,11.79c0,15.18,0,30.15,0,45.34
		c0,6.51-5.28,11.79-11.79,11.79v-0.13h-20.24V450.5L367.95,450.5z M509.22,517.76l-1.73,0.08c-6.51,0-11.79-5.28-11.79-11.83
		c0-14.66,0-29.07,0-43.73c0-6.51,5.28-11.79,11.79-11.79c6.55,0,11.83,5.28,11.83,11.79v15.55h36.21V463
		c0-26.53-21.51-48.04-48.04-48.04c-26.53,0-48.04,21.51-48.04,48.04v42.29c0,26.53,21.51,48.04,48.04,48.04l1.73-0.08
		c6.55,0,11.83,5.28,11.83,11.83c0,15.61,0,31.12,0,46.73c0,6.51-5.28,11.79-11.83,11.79c-6.51,0-11.79-5.28-11.79-11.79v-15.55
		h-36.25v14.79c0,26.58,21.51,48.08,48.04,48.08c26.58,0,48.08-21.51,48.08-48.08V565.8C557.3,539.26,535.8,517.76,509.22,517.76
		L509.22,517.76z M643.69,414.96v140.19h-28.35V414.96h-36.17v244.17h36.17v-67.81h28.35v67.81h36.21V414.96H643.69L643.69,414.96z
		 M737.6,659.13V414.96h-36.17v244.17H737.6L737.6,659.13z M815.96,414.96h-56.41v244.17h36.17V554.81l20.24,0.13
		c26.53,0,48.04-21.51,48.04-48.04V463C864,436.47,842.49,414.96,815.96,414.96L815.96,414.96z M827.75,507.62
		c0,6.51-5.28,11.79-11.79,11.79v-0.13h-20.2V450.5h20.2c6.51,0,11.79,5.28,11.79,11.79C827.75,477.4,827.83,492.5,827.75,507.62
		L827.75,507.62z"/>
	<path d="M68.13,331.56c-7.88,1.43-17.62,11.38-23.94,18.97c0.01-0.11,0.24-0.85,0.27-1.25c0.58-7.06-8.12-8.07-10.98-2.72
		c-8.95,16.42-13.29,25.02-14.92,30.29c-0.82,2.6-1.39,5.66,1.47,8.21c1.62,1.64,3.82,1.7,5.15,1.41c2.99-0.64,5.02-2.82,6.84-4.64
		c10.75-10.76,22.54-29.83,34.83-37.59c-2.09,7.03-11.17,19.41-8.83,28.53c1.26,4.87,5.76,6.81,10.47,5.49
		c3.94-1.08,7.26-3.57,11.55-7.42c7.77-6.96,11.03-10.08,16.43-13.76c-2.25,5.8-3.61,13.04,1.3,18.34
		c5.09,5.55,14.13,6.45,28.57,4.3c11.53-1.77,30.46-6.88,47.78-14.13c-1.56,6.74-0.3,14.6,7.38,16.62
		c9.84,2.59,24.84-6.94,33.83-13.36c0.42,1.81,1.53,4.02,3.22,5.49c5.06,4.53,12.99,5.15,25.68,3.68
		c12.2-1.48,31.65-5.97,49.28-13.77c-3.27,12.79,6.47,19.65,19.4,14.45c9.96-4.02,21.24-9.68,36.73-21
		c0.92,17.35,11.81,23.09,28.49,21c12.93-1.64,29.6-7.46,50.89-16.15c0.59,5.16,2.84,9.9,6.85,13.49
		c21.4,19.14,79.55-4.13,107.64-21.91c5.18-3.28,3.69-10.76-2.16-10.76c-1.02,0-2.41,0.4-3.31,1.02
		c-23.73,15.06-78.4,36.63-93.94,22.7c-2.43-2.15-3.68-4.81-3.79-8.15c10.11-3.2,21.81-8.45,25.25-16.36
		c3.32-7.64-2.36-15.13-12.83-13.19c-9.4,1.75-18.21,10.64-21.86,20.1c-21.5,8.83-56.56,23.13-65.84,16.08
		c-4.09-3.1-4-10.76-3.03-17.38c27.17-19.7,66.67-55.54,91.95-90.02c7.53-10.19,12.75-19.87,15.53-28.19
		c2.78-8.27,4-16.08-0.93-21.46c-5.81-6.43-15.87-2.82-22.49,0.85c-8.9,4.93-19.94,13.81-34.09,27.97
		c-22.5,22.53-52.83,69.91-60.48,103.04c-1.03-1.87-3.6-5.1-8.92-7.13c-4.71-1.87-10.25-2.04-15.9-0.74
		c-7.46,1.72-15.37,6.05-22.01,13.11c-17.58,11.4-46.68,19.16-60.92,20.86c-11.09,1.3-16.45,0.34-16.54-2.6
		c-0.02-1.81,1.95-5.04,6.75-9.74c0.99-1.02,2.49-2.04,3.01-2.83c3.61-3.96,3.47-7.64,1.19-9.51c-2.13-1.64-5.7-1.53-9.12,1.47
		c-7.23-7.88-19.8-6.19-28.92-2.89c-2.43,0.87-4.84,1.94-7.16,3.19c-0.75,0.19-1.51,0.51-2.06,0.89
		c-16.88,10.98-50.3,21.46-65.44,23.78c-13.02,1.98-17.82-0.17-18.65-1.02c-2.06-2.17,2.33-10.65,3.58-13.13
		c1.57-3.1,4.18-7.24,2.35-11.21c-1.19-2.58-4-3.62-6.51-3.4c-3.49,0.4-5.47,1.76-8.86,3.74c-10.54,6.17-14.42,10.02-24.82,19.36
		c-0.79,0.68-1.22,1.02-2.07,1.7c2.59-7.47,6.99-12.31,8.33-20.49C80.11,335.62,75.46,329.95,68.13,331.56L68.13,331.56z
		 M553.01,288.49c-3.18,0-5.75-2.58-5.75-5.75s2.58-5.75,5.75-5.75h101.02l8.09-11.22l26.95-31.99c4.96-5.89,14.37,1.49,8.55,7.53
		c-6.69,6.96-13.41,14.83-19.54,22.59c-4.04,5.03-4.93,6.69-9.55,12.68l-0.29,0.4h92.96c3.18,0,5.75,2.58,5.75,5.75
		s-2.58,5.75-5.75,5.75H660.26c-19.29,28.72-33.16,56.16-37.34,68.21c-7.04,20.02,13.35,16.66,35.25,11.1
		c28.69-7.22,46.66-14.55,67.25-23.35l0.03-0.03c4.27-3.99,10.81-8.49,16.84-8.49c5.72,0,10.08,2.72,13.58,6.23
		c10.68,5.66,26.11,9.4,43.04,9.4c12.96,0,26.7-2.49,39.94-7.76c5.9-2.67,11.48,7.47,2.67,10.76c-14.16,6.23-29.1,8.89-43.6,8.89
		c-14.38,0-27.87-2.6-38.34-6.68c-0.91,2.83-2.25,5.94-4.49,9.06c-8.7,12.74-21.05,20.32-31.62,20.72c-5.27,0-10.81-2.04-12.88-7.13
		c-3.01-5.13-0.77-11.42,1.82-17.25c-14.62,5.91-30.17,11.38-52.07,16.91c-13.76,3.45-28.02,5.38-37.99,2.72
		c-10.69-2.89-16.33-11.27-10.46-28.08c4.56-13.07,17.35-38.66,34.43-65.2H553.01L553.01,288.49z M192.67,356.5
		c1.47-0.87,4.05-2.25,5.19-3.48c1.77-0.99,3.63-1.85,5.49-2.54c4.47-1.66,13.78-3.42,16.59-0.06c-10.77,9-19.96,14.72-27.33,18.23
		c-3.89,1.87-7.31,3.45-7.34,0.4C185.26,364.31,188.5,359.88,192.67,356.5L192.67,356.5z M311.59,354.45
		c0.29-0.19,0.57-0.39,0.85-0.58c1-0.68,1.76-1.59,2.24-2.6c4.48-4.07,9.42-6.44,13.71-7.42c3.23-0.74,6.57-0.74,8.93,0.23
		c3.17,1.3,4.32,3.91,4.35,5.55c-13.32,9.68-23.54,14.83-32.33,18.4c-3.4,1.36-4.51,1.08-4.73,0.4c-0.23-0.68,0.09-2.43,1.4-5.27
		C307.59,359.78,309.5,356.9,311.59,354.45L311.59,354.45z M459.56,216.63c0.25,0.45,1.07,4.13-1.1,10.47
		c-2.19,6.62-6.83,15.4-13.72,24.74c-20.88,28.42-52.53,58.48-78.05,78.7c10.51-29.58,33.62-65.48,53.41-85.38
		c12.63-12.7,30.17-27.87,38.32-28.53C459.17,216.57,459.45,216.57,459.56,216.63L459.56,216.63z M448.98,343.28
		c0.93-1.19,1.94-1.68,2.98-1.81C451.47,342.05,450.4,342.77,448.98,343.28L448.98,343.28z M731.69,353.73
		c-3.48,3.79-6.87,8.58-8.61,12.31c-2.32,4.81-2.46,7.13-2.02,7.93c1.87,3.53,16.24-2.04,24.43-13.93c3.36-4.98,3.09-7.19,2.74-8.38
		c-0.55-0.9-0.39-0.79-0.49-0.9l-6.01-3.96c-2.72,0-5.9,2.89-8.42,5.27L731.69,353.73L731.69,353.73z"/>
</g>
</svg>
