<?xml version="1.0" encoding="utf-8"?>
<!-- Generator: Adobe Illustrator 25.0.0, SVG Export Plug-In . SVG Version: 6.00 Build 0)  -->
<svg version="1.1" id="Layer_1" xmlns="http://www.w3.org/2000/svg" xmlns:xlink="http://www.w3.org/1999/xlink" x="0px" y="0px"
	 viewBox="0 0 864 864" style="enable-background:new 0 0 864 864;" xml:space="preserve">
<style type="text/css">
	.st0{fill:#4D4D4F;}
	.st1{fill-rule:evenodd;clip-rule:evenodd;fill:#4D4D4F;}
</style>
<g>
	<path class="st0" d="M109.88,425.15c0.35-5.53,1.04-10.36,1.04-15.88c35.57-35.91,68.71-75.62,95.99-119.47
		c12.78-20.37,28.66-44.54,33.84-73.89c6.56-35.91-9.32-61.81-46.27-59.05c-30.04,2.42-44.89,29.7-56.28,52.14
		c-11.74,23.83-21.41,48.69-29.7,77.69C95.37,333.3,83.98,389.24,86.74,451.74c0.35,8.29,0.69,20.37,3.11,23.83
		c4.49,6.22,17.96,3.11,22.1-0.69c5.87-5.18,7.94-15.54,11.05-23.48c3.45-7.94,6.22-16.92,12.09-22.44
		c2.42,23.83,1.04,52.14,2.07,79.07c1.04,24.52,1.38,54.9,10.7,71.48c3.11,5.18,11.05,11.74,17.61,12.43
		c16.92,1.73,21.41-19.68,25.21-32.11c2.76-8.29,5.52-17.26,7.94-24.86c6.56-20.54,12.35-41.07,18.15-62.01
		c4.09,6.04,13.06,12.93,23.29,11.94c13.12-1.38,23.83-12.78,32.46-20.37c9.72-8.18,19.65-17.46,28.34-27.85
		c-2.13,11.53-1.22,23.24,5.5,33.03c3.11,4.49,7.94,10.36,13.47,12.09c10.7,3.8,17.96-3.11,23.14-8.29
		c-1.38,29.7-0.69,64.23,15.88,77.69c6.91,5.52,16.57,7.25,23.13,1.38c9.32-7.94,16.57-23.48,21.41-36.95
		c5.52-14.5,10.01-29.35,13.81-44.54c4.13-15.63,8.25-29.49,13.06-42.52c-1.84,36-0.46,74.2,8,103.29
		c3.45,5.52,15.54,6.91,21.75,3.45c3.45-2.07,5.87-9.67,7.25-13.81c12.78-36.26,25.55-75.97,37.98-109.8
		c10.37-1.19,21.25-0.59,30.9-1.93c-6.18,14.81-15.76,46.07-6.03,62.35c3.8,6.22,13.12,13.81,23.83,12.78
		c13.12-1.38,23.83-12.78,32.46-20.37c13.83-11.63,28.07-25.49,38.56-41.59c-2.16,18.31-4.73,37.07-4.73,56.44
		c0,8.98,0.69,24.52,5.87,28.31c2.07,1.38,8.63,2.07,12.43,1.38c8.98-2.76,12.09-17.96,14.85-26.24
		c6.91-20.72,14.16-40.4,23.14-58.7c4.49-9.32,8.98-18.99,16.92-23.13c-1.04,18.99-5.18,35.91-8.98,54.21
		c-3.8,17.26-10.01,34.53-8.29,55.25c0.69,11.39,5.87,18.3,19.34,17.26c6.91-0.69,12.09-5.18,15.88-9.67
		c6.56-8.98,11.74-21.41,17.61-32.46c11.05-21.75,23.14-44.2,34.18-65.95c2.42-5.18,5.87-11.39,8.29-16.92
		c2.07-4.83,6.56-13.81-0.35-17.61c-17.27,34.87-36.26,71.13-56.63,103.93c-3.11,4.83-6.56,10.01-10.01,14.85
		c-3.45,4.14-6.91,9.67-12.43,11.74c0.69-49.38,21.06-80.8,22.1-128.1c-6.22-4.83-17.96-10.7-26.93-4.14
		c-5.18,3.45-8.98,11.74-12.78,17.96c-10.87,17.66-23.41,39.33-30.72,59.1c-0.12,0.33-0.24,0.66-0.36,0.98
		c0.01-0.29,0.03-0.58,0.05-0.88c1.51-27.64,9.95-53.63,7.9-81.3c-6.22-2.07-16.92-4.49-23.48-1.38c0.28,8.75-0.15,17.58-0.91,26.51
		c-8.47,11.9-18.8,22.56-29.13,32.89c-13.81,14.16-27.97,29.7-50.41,35.22c-3.8-20.72,4.83-41.78,13.12-54.21
		c4.14,1.04,8.63,0,11.39-1.38c9.32-4.14,22.1-17.96,27.28-27.62c8.63-15.54-1.04-30.04-19.34-29.35
		c-17.26,0.69-24.52,14.5-31.77,26.24c-2.39,4.23-4.69,8.37-6.88,12.72l-0.37,0.06c-8.98,1.04-18.3,1.38-27.28-0.35
		c-1.73-1.04-1.04-3.8-2.07-4.83c-3.8,0-7.6-3.11-12.43-2.07c-2.42,0.35-5.87,5.52-7.25,8.63c-13.12,24.17-21.06,56.63-35.22,75.97
		c-0.69-24.86-2.07-63.53,2.42-89.09c1.38-8.29,4.49-21.06,0.35-26.93c-3.45-4.83-14.85-6.91-19.68-5.87
		c-3.45,12.43-5.52,26.93-6.91,42.13l-0.34,0.69c-6.22,9.32-10.7,22.1-15.54,33.84c-12.09,29.35-20.37,62.15-33.49,90.12
		c-2.42,5.52-4.83,11.39-10.01,14.85c-4.83-9.67-4.83-23.83-4.83-37.29c0-29,5.52-50.41,9.32-74.93
		c2.07-12.09,4.83-25.21,1.73-37.64c-5.18-1.73-20.03-8.98-21.75-1.04c-7.25-2.76-18.65-6.22-26.59-2.07
		c-3.8,2.07-8.29,8.29-11.74,12.78c-1.59,2.19-3.83,5.17-5.52,7.25c-8.63,12.43-19.34,23.48-30.04,34.18
		c-13.81,14.16-27.97,29.7-50.41,35.22c-3.8-20.72,4.83-41.78,13.12-54.21c4.14,1.04,8.63,0,11.39-1.38
		c9.32-4.14,22.1-17.96,27.28-27.62c8.63-15.54-1.04-30.04-19.34-29.35c-17.26,0.69-24.52,14.5-31.77,26.24
		c-4.49,7.94-8.63,15.54-12.43,24.86c-3.55,9.19-8.37,23.57-9.47,37.16c-9.45,26.86-18.54,53.56-29.2,79.55
		c-6.56,16.57-10.01,34.18-19.68,48.34c-4.83-9.32-5.18-22.79-5.52-36.26c-0.35-26.93,0.69-56.28,0.69-82.53
		c0-14.5,2.07-28.66,1.04-41.09c-0.69-10.36-9.67-18.65-21.75-17.26c-6.22,1.04-11.05,7.94-15.19,12.09
		C118.16,416.17,114.36,421.7,109.88,425.15L109.88,425.15z M121.96,375.77c-3.11,3.45-5.52,7.94-9.67,9.67
		c4.83-43.16,13.12-81.49,26.24-120.51c6.22-17.61,12.43-35.57,21.06-52.49c8.63-15.88,20.37-37.64,39.02-43.16
		c9.32-2.42,16.92,4.49,20.03,10.01c11.39,19.34,0,49.38-6.91,64.92c-20.03,46.96-50.07,84.25-80.45,120.85
		C128.52,368.87,125.07,372.32,121.96,375.77L121.96,375.77z M272.16,371.98c1.73-0.69,3.11,2.07,3.8,3.11
		c-2.07,13.81-11.39,20.03-22.1,25.21C258.35,392,263.88,375.43,272.16,371.98L272.16,371.98z M331.9,420.66
		c5.18-10.36,12.78-25.21,24.52-26.24c-1.73,15.88-4.14,31.42-10.7,43.51c-6.22,12.09-12.78,23.83-23.13,31.77
		C318.09,453.12,324.99,435.51,331.9,420.66L331.9,420.66z M586.04,371.98c1.73-0.69,3.11,2.07,3.8,3.11
		c-2.07,13.81-11.39,20.03-22.1,25.21C572.23,392,577.75,375.43,586.04,371.98L586.04,371.98z"/>
	<path class="st0" d="M316.32,234.74c-1.18-1.48-0.77-4.7-1.04-6.31c-0.62-3.86-3.52-5.93-7.04-3.86
		c-5.59,3.24-12.01,5.28-16.35,10.18c-1.52,1.77-3.8,3.59-2.28,5.97c2.82,4.39,10.14,1.27,10.14,11.56c0,8.52-0.9,31.21-2.07,39.19
		c-1.32,8.99-5.52,8.04-8.9,13.83c-1.24,2.28-0.41,5.17,1.86,6.21c2.07,0.83,4.55,1.45,6.83,1.45c7.45,0,14.7-0.62,22.15-0.62
		c12.55,0,8.37-7.24,7.24-7.24l-4.14-3.07c-4.35-2.9-6-7.45-6.21-12.18c-0.41-9.94-0.62-23.56-0.62-33.26
		c0-4.31,1.86-8.04,3.93-11.76c4.55-8.63,24.19-7.84,25.67,7.87c0.41,4.93,0.41,10.11,0.21,15.04c-0.41,11.35,0.83,26.63-6.83,36.74
		c-1.45,2.07-0.62,4.97,1.66,6.21c1.66,0.83,3.73,1.66,5.8,1.66c6,0.41,11.8,0.62,17.8,0.62c1.66,0,3.52-0.62,5.17-1.45
		c2.69-1.28,3.11-4.59,0.83-6.66c-3.3-3.15-7.39-2.62-7.87-11.83c-0.62-11.83-0.41-27.39-0.41-39.43c0-4.11,1.01-9.64,5.17-11.42
		c13.66-6,22.77-3.73,25.67,13.08c1.86,7.28,0,20.56,0,29.46c0,2.07-0.41,4.17-0.62,6.24c-0.62,4.97-2.48,9.35-7.87,10.8
		c-3.18,0.83-6.47,6.59-2.07,9.11c1.86,1.07,4.35,2.1,6.42,2.1c7.87,0,15.52,0.21,23.18,0.21c1.86,0,3.73-0.62,5.17-1.24
		c4.35-1.69,4.76-5.62,1.24-8.11c-3.17-2.17-8.19-3.28-8.69-10.38c-0.21-2.48-0.41-4.76-0.21-7.07c0.83-9.94,0.41-22.18,2.07-31.95
		c1.45-7.69-0.83-13.9-3.93-20.49c-1.66-3.66-4.35-6.31-8.28-7.52c-10.35-3.28-20.08-3.07-28.98,4.48
		c-3.53,2.85-5.37,6.46-10.56,2.24c-8.85-7.07-10.09-11.11-24.42-7.56C325.11,228.06,320.41,239.8,316.32,234.74L316.32,234.74z
		 M506,250.51c0.41-5.42-1.03-10.8-2.9-15.8c-0.83-2.07-2.07-4.55-3.73-5.8c-6.83-4.97-14.08-7.45-22.56-5.38
		c-7.24,1.66-10.56,2.9-17.39,5.59c-3.31,1.24-8.69,5.8-10.56,8.49c-4.14,6.24-0.83,12.9,6.62,13.52c5.38,0.41,9.52-1.66,11.8-6.45
		c1.24-2.69,2.69-9.56,4.55-11.83c3.1-3.52,8.69-3.31,11.8,0.21c4.35,5.17,4.76,15.56,3.93,22.01c-0.83,5.21-5.59,8.93-9.52,11.01
		c-6.83,3.31-12.01,4.8-20.49,10.38c-5.8,3.97-10.35,9.14-12.01,16.21c-2.07,8.07,3.31,16.97,11.38,19.46
		c6.62,2.07,12.21,0,17.8-3.1c3.1-1.66,11.38-7.24,14.7-7.66c4.14-0.62,1.45,5.17,7.66,9.11c15.32,9.94,27.94-9.94,21.11-12.42
		c-5.96-2.4-12.23-1.01-13.25-9.52C503.52,278.52,505.17,260.89,506,250.51L506,250.51z M485.3,277.7c0,2.52,0.21,10.38-0.21,13.11
		c-1.03,6.62-6,8.69-12.63,7.66l-3.73-1.03c-3.93-1.45-4.97-7.9-3.11-11.63c2.69-5.59,7.24-9.14,12.63-11.83
		C482.2,271.9,485.3,273.56,485.3,277.7L485.3,277.7z M582.66,230.98c0,1.45,1.45,2.28,2.28,3.1c3.31,3.52,2.69,6.83,0.41,10.56
		c-3.1,4.97-7.45,8.49-12.21,11.38c-2.28,1.45-5.17,0.21-5.38-2.48c-0.41-3.73-0.41-7.66-0.41-11.59c0-16.35-0.21-18.63,0.41-34.98
		c0.21-7.24-0.41-14.28-1.86-21.11c-0.62-3.1-2.69-4.76-5.59-4.97c-2.07-0.21-4.35-0.41-6,0.41c-6,2.69-12.21,4.97-17.8,8.07
		c-0.62,0.41-1.45,1.66-1.24,2.28c1.11,3.82,3.83,2.38,8.9,3.73c5.59,1.45,6.83,2.69,7.24,8.49c0.21,5.8,0.21,11.38,0,17.39
		c-0.62,14.49,0.83,15.52-0.41,30.01c-1.03,13.45,0.62,30.36-1.45,43.33c-1.16,7.48-5.9,7.89-11.38,10.52
		c-3.21,1.54-2.53,5.43-0.62,6.38c0.83,0.41,1.66,0.83,2.48,0.83c9.52,0,19.04,0.62,28.56,0.62c1.66,0,3.31-1.03,4.76-1.86
		c4.13-2.32-0.41-6.78-2.28-8.87c-2.48-2.66-4.76-7.42-4.76-11.11c0-2.28-0.21-9.28,0-11.56c0.41-3.28,3.93-10.49,8.49-6.8
		c4.14,3.52,8.07,11.76,10.35,16.7c1.45,3.31,2.28,8.04,0.41,11.52c-0.61,1.18-2.03,4.39-2.07,5.59c-0.21,2.86,1.24,5.14,4.55,5.55
		c10.35,1.24,20.7,0.21,31.05,0.21c1.24,0,2.28-0.41,3.52-0.83c2.07-0.83,3.1-3.31,1.66-4.93c-2.48-2.69-6.21-3.73-9.31-5.38
		c-7.04-3.9-10.14-8.62-14.9-15.21c-1.24-1.86-3.93-7-5.38-8.66c-3.93-4.55-7.66-12.59-9.94-18.18c-1.04-2.48-0.83-4.76,1.24-6.42
		c4.76-3.93,9.31-8.28,14.49-11.59c4.93-3.22,17.52-7.85,18.42-8.49c0.83-0.62,1.66-2.07,1.45-2.9c-1.07-3.76-2.7-4-6-4.55
		c-7.66-1.45-15.32,0-22.98,0.62C588.25,226.02,582.66,226.43,582.66,230.98L582.66,230.98z M645.25,268.45
		c1.03,14.08,6.21,27.32,19.04,37.26c10.14,7.66,20.7,9.52,32.29,4.55c4.35-1.86,8.28-4.76,11.8-7.87c2.07-1.66,3.11-4.35,3.93-6.83
		c0.83-2.69-1.45-5.38-4.55-4.97c-3.11,0.62-6.21,7.24-9.31,8.28c-13.04,4.76-20.7-1.03-26.08-8.9c-3.73-4.76-5.17-12.42-4.55-18.22
		c0.21-4.55,2.9-6.21,9.11-6.42c10.76-0.41,19.87,0.62,30.84-1.66c6.62-1.45,8.69-14.97,5.38-20.63
		c-6.83-12.49-11.8-14.97-25.87-18.7c-5.38-1.45-10.14-0.62-14.9,1.66c-7.87,3.52-14.08,8.69-19.04,15.8
		C647.94,249.54,645.25,257.89,645.25,268.45L645.25,268.45z M685.82,232.23c6.21,1.66,11.18,4.38,11.18,13.35
		c1.24,15.42-11.59,13.97-22.35,11.07c-8.49-2.31-5.17-13.8-2.9-17.11c2.69-4.83,5.17-7.11,9.94-7.73L685.82,232.23L685.82,232.23z"
		/>
	<path class="st0" d="M162.53,677.17c-2.53-2.3-5.75,1.38-7.13,2.07c-8.51,4.14-16.57,3.68-25.54,2.99
		c-8.94-1.12-16.83-9.77-19.56-17.95c-2.53-8.05-2.3-16.34-1.38-24.39c1.38-11.05,7.36-19.33,17.03-24.85
		c7.82-4.6,14.73-2.07,18.41,6.9c0.92,2.07,1.38,4.37,2.3,6.67c2.99,5.98,10.12,6.67,15.19,2.99c4.6-3.45,5.75-8.05,3.22-13.58
		c-4.37-9.43-12.2-14.04-21.86-15.42c-14.96-2.3-22.09-0.92-34.52,8.05c-14.96,11.28-22.09,26.92-21.63,45.79
		c0.23,10.35,5.29,19.33,11.05,27.61c14.27,20.25,40.27,20.71,57.07,6.67c2.76-2.3,5.06-5.29,6.9-8.74
		C162.53,681.08,164.6,678.78,162.53,677.17L162.53,677.17z M185.1,613.2c-1.15,0.92-8.05,5.29-5.29,9.89
		c2.53,4.14,11.28-1.61,11.97,7.13c0.69,8.78,0.23,17.53,1.38,26.54c0.69,5.56-0.92,11.08-0.92,16.64c0,4.83-1.84,8.28-5.52,11.28
		c-2.3,1.88-4.6,3.72-6.67,5.79c-1.38,1.38-1.84,3.45-1.15,5.29c0.92,2.07,2.53,2.99,4.6,2.99c5.06,0,9.89,0.96,14.96,1.19
		c7.36,0.23,14.96,0.46,22.55,0.46c9.67,0,11.72-9.38,0.69-12.69c-5.98-1.88-7.59-6.25-8.51-12c-1.38-8.55,0-17.1,0.23-25.62
		c0.23-7.4,1.61-14.53,2.53-21.71c0.69-5.52,2.07-10.12,6.9-8.51c4.83,1.61,9.2,5.06,14.96,4.14c7.13-1.15,9.2-11.51,4.14-17.49
		c-3.45-4.14-8.05-6.67-14.04-4.37c-6.21,2.3-8.05,10.35-17.03,11.28c-2.3,0.23-3.68-2.53-5.06-3.91
		c-1.84-3.68-9.61-3.62-13.12-1.61C189.93,609.52,187.63,611.36,185.1,613.2L185.1,613.2z M338.83,649.33
		c0-3.45-0.23-9.43-0.23-12.2c0-11.28-5.98-19.79-14.5-26.69c-4.83-3.91-26-9.43-32.45-8.74c-4.72,0.79-11.31,2.82-15.65,4.6
		c-7.13,2.99-13.58,6.67-17.95,13.35c-9.89,14.73-14.73,42.34,0,61.9c4.83,6.44,10.35,13.12,18.41,15.65
		c24.11,7.42,30.82,3.44,46.48-7.59c2.99-2.07,5.06-5.29,7.13-8.05C336.75,671.65,338.83,660.61,338.83,649.33L338.83,649.33z
		 M317.66,656c0.23,13.81-6.44,23.7-17.26,30.83c-4.6,2.99-8.97,2.99-13.81-0.46c-12.43-9.2-17.49-21.4-16.34-36.59
		c0.23-4.6,1.38-12.66,2.3-17.03c1.15-5.75,4.83-9.89,8.74-14.04c3.45-3.45,7.36-5.29,11.97-5.98c5.52-0.69,9.43,0.92,12.89,5.29
		c4.14,5.06,5.75,7.36,7.82,11.74C317.2,636.9,317.43,649.1,317.66,656L317.66,656z M426.97,607.68c0.46-5.06-5.75-4.83-9.2-5.06
		c-5.75-0.23-11.74-0.69-17.72-0.69c-1.84,0-3.91,0.46-5.52,1.38c-2.53,1.38-2.99,5.06-0.92,6.67c1.61,1.15,3.45,2.3,5.29,2.76
		c12.66,3.68,8.97,30.83,3.68,41.42c-1.84,3.68-3.22,14.73-9.2,14.73c-2.99,0-4.14-2.76-5.29-5.29
		c-5.75-12.2-10.82-25.77-16.11-38.2c-6.21-14.73,4.83-10.12,4.83-16.11c0-3.68-1.61-5.75-5.06-6.44
		c-4.6-0.69-20.25-0.69-25.54,0.69c-3.91,0.92-5.06,4.37-2.53,7.36c0.92,1.15,1.84,1.84,2.76,2.76
		c8.05,7.82,13.58,20.71,17.26,31.29c0.92,2.76,1.84,5.52,2.99,8.28c4.14,10.35,7.82,20.94,11.97,31.29
		c1.61,4.14,2.99,8.05,5.29,11.74c4.14,6.21,11.05,5.29,13.81-1.38c1.84-4.37,2.99-8.74,4.14-13.35c1.38-5.98,5.06-10.82,8.97-15.19
		c2.53-2.76,5.52-2.3,7.13,1.15c1.38,2.99,2.07,6.21,2.76,9.43c1.15,5.75,2.76,11.51,5.52,16.8c2.76,5.06,8.51,5.75,12.2,1.61
		c1.84-1.84,2.99-4.37,3.68-6.9c2.3-7.59,6.21-17.72,9.43-24.85c6.21-13.81,9.66-22.55,12.66-33.14c1.61-5.75,3.68-11.51,8.51-14.96
		c2.07-1.61,3.45-4.14,4.37-6.44c1.61-3.45-0.69-6.9-4.6-7.13c-7.59-0.23-15.19-0.23-22.78,0.23c-4.6,0.23-6.21,3.22-4.37,6.67
		c0.57,0.57,1.07,1.53,1.84,2.3c9.89,10.82,1.61,21.4-3.22,34.29c-1.38,3.68-2.76,7.59-4.37,11.05c-1.61,3.91-5.06,4.14-7.59,0.69
		c-4.83-6.21-6.67-19.33-8.28-27.84C422.14,621.49,426.05,616.65,426.97,607.68L426.97,607.68z M583.46,688.45
		c-0.69-2.99-4.83-2.07-6.9-2.76c-10.82-3.45-12.89-6.21-11.28-17.26c1.38-9.2,0.46-27.61,0-36.82c-0.46-11.28,0-14.96,0.23-26.23
		c0.46-16.57,0.23-23.24,1.84-39.81c0.23-1.61,0-3.45-0.23-5.06c-0.69-5.06-4.6-8.05-9.89-7.13c-5.06,0.92-10.35,2.07-15.42,2.99
		c-1.38,0.23-2.76,0.23-3.91,0.46c-2.53,0.46-4.6,1.38-5.29,3.91c-0.69,2.76,1.38,4.14,3.45,5.29c2.3,1.15,3.45,2.3,5.75,3.68
		c3.45,1.84,5.75,4.6,5.75,8.51c0,10.35,0.46,10.82,0,21.17c-0.23,4.14-2.76,6.21-6.67,6.9c-1,0-2.09,0.23-3.22,0.23
		c-7.59,0.46-13.81,1.15-21.17,1.61c-3.91,0.23-7.13,1.84-10.12,4.14c-6.9,5.06-11.74,12.2-15.88,20.02
		c-5.75,11.04-7.13,22.32-3.22,34.29l1.15,4.83c2.07,11.97,10.12,19.56,20.48,25.08c9.89,5.52,19.56,5.06,29.22-0.69
		c1.61-0.92,3.22-2.07,5.06-2.99c2.76-1.61,5.75,0.23,8.05,2.76c2.3,2.53,4.83,4.6,8.51,4.37c6.9-0.46,12.66-1.61,18.64-5.75
		C579.78,693.28,584.15,691.21,583.46,688.45L583.46,688.45z M503.84,655.31c0-7.13,0.69-8.28,1.38-17.03
		c0.23-4.37,4.37-14.04,8.28-17.03c4.6-3.22,9.66-5.75,15.65-4.83c3.45,0.46,6.9,1.61,10.35,2.76c6.9,2.53,9.66,8.51,9.2,16.11
		c-0.69,12.2-2.3,24.16-2.76,36.36c-0.23,6.9-8.05,14.96-15.19,13.81c-5.75-0.92-11.97-0.92-16.57-5.75
		C507.76,672.57,503.84,664.52,503.84,655.31L503.84,655.31z M587.85,650.94c1.15,15.65,6.9,30.37,21.17,41.42
		c11.28,8.51,23.01,10.58,35.9,5.06c4.83-2.07,9.2-5.29,13.12-8.74c2.3-1.84,3.45-4.83,4.37-7.59c0.92-2.99-1.61-5.98-5.06-5.52
		c-3.45,0.69-6.9,8.05-10.35,9.2c-14.5,5.29-23.01-1.15-28.99-9.89c-4.14-5.29-5.75-13.81-5.06-20.25c0.23-5.06,3.22-6.9,10.12-7.13
		c11.97-0.46,22.09,0.69,34.29-1.84c7.36-1.61,9.66-16.64,5.98-22.93c-7.59-13.88-13.12-16.64-28.76-20.79
		c-5.98-1.61-11.28-0.69-16.57,1.84c-8.74,3.91-15.65,9.66-21.17,17.56C590.84,629.92,587.85,639.21,587.85,650.94L587.85,650.94z
		 M632.95,610.67c6.9,1.84,12.43,4.87,12.43,14.84c1.38,17.14-12.89,15.53-24.85,12.31c-9.43-2.57-5.75-15.34-3.22-19.02
		c2.99-5.37,5.75-7.9,11.05-8.59C629.76,610.21,631.52,610.67,632.95,610.67L632.95,610.67z M774.71,688.45
		c-0.69-2.99-4.83-2.07-6.9-2.76c-10.82-3.45-12.89-6.21-11.28-17.26c1.38-9.2,0.46-27.61,0-36.82c-0.46-11.28,0-14.96,0.23-26.23
		c0.46-16.57,0.23-23.24,1.84-39.81c0.23-1.61,0-3.45-0.23-5.06c-0.69-5.06-4.6-8.05-9.89-7.13c-5.06,0.92-10.35,2.07-15.42,2.99
		c-1.38,0.23-2.76,0.23-3.91,0.46c-2.53,0.46-4.6,1.38-5.29,3.91c-0.69,2.76,1.38,4.14,3.45,5.29c2.3,1.15,3.45,2.3,5.75,3.68
		c3.45,1.84,5.75,4.6,5.75,8.51c0,10.35,0.46,10.82,0,21.17c-0.23,4.14-2.76,6.21-6.67,6.9c-1,0-2.09,0.23-3.22,0.23
		c-7.59,0.46-13.81,1.15-21.17,1.61c-3.91,0.23-7.13,1.84-10.12,4.14c-6.9,5.06-11.74,12.2-15.88,20.02
		c-5.75,11.04-7.13,22.32-3.22,34.29c3.66,15.39,6.71,21.95,21.63,29.91c9.89,5.52,19.56,5.06,29.22-0.69
		c1.61-0.92,3.22-2.07,5.06-2.99c2.76-1.61,5.75,0.23,8.05,2.76c2.3,2.53,4.83,4.6,8.51,4.37c6.9-0.46,12.66-1.61,18.64-5.75
		C771.03,693.28,775.4,691.21,774.71,688.45L774.71,688.45z M695.1,655.31c0-7.13,0.69-8.28,1.38-17.03
		c0.23-4.37,4.37-14.04,8.28-17.03c4.6-3.22,9.66-5.75,15.65-4.83c3.45,0.46,6.9,1.61,10.35,2.76c6.9,2.53,9.66,8.51,9.2,16.11
		c-0.69,12.2-2.3,24.16-2.76,36.36c-0.23,6.9-8.05,14.96-15.19,13.81c-5.75-0.92-11.97-0.92-16.57-5.75
		C699.01,672.57,695.1,664.52,695.1,655.31L695.1,655.31z"/>
	<path class="st1" d="M744.06,503.88l-12.41-1.58c-2.86-0.36-3.53-4.71-1.45-5.52c-1.97-6.26,4.44-3.62,15.35-2.06l2.49-14.43
		c1.31-1.69,3.52-2.59,4.76,0.23c6.62-3.47,3.55,4.14,1.81,15.66c2.43,0.49,12.88,1.64,12.44,4.06c4.36,3.44-0.19,5.37-0.2,5.37
		c-5.05,3.94,2.21,2.52-13.69-0.24c-0.49,3.03-4.02,28.9-6.59,28.28c-0.7,0.58-1.8,5.68-4.04,2.69c-1.02,0.33-4.23-5.08-3.65-6.78
		L744.06,503.88L744.06,503.88z"/>
	<path class="st0" d="M583.33,119.25c-121.33,3.63-242.66-4.05-363.93-1.4c-52.05,0.92-115.64-0.64-168.1,4.92l-1.16,3.09
		c2.79,13.39-2.01,29.23-2,42.88c0.64,18.21-1.36,36.55,0.13,54.71c1.04,12.57-2.08,26.47-2.23,39.29
		c-0.94,83.48,2.06,166.91-0.77,250.39c3.38,74.29-1.58,147.91-2.15,222.08c0.06,11.44,14.75,11.98,14.76,11.99
		c3.91,1.77,241-2.89,247.95-5.66c15.25-2.92,33.34,1.94,49.16,1.58c22.46-0.52,45.08,1.11,67.48-0.1
		c15.49-0.84,32.63,1.69,48.43,1.8c102.95,0.76,205.84-1.67,308.8,0.62c4.49-0.02,26.44-0.2,29.8-1.37c4.81-1.67,7.9-6.45,7.21-8.86
		c-1.64-91.38,4.74-181.93,2.5-273.25c-0.49-14.75-3.85-125.92-6.54-129.33c-3.6-12.36,2.4-27.04,1.95-39.87
		c-0.64-18.21,1.36-36.55-0.13-54.71c-1.04-12.57,2.08-26.47,2.23-39.29c0.26-23.11,0.13-46.19,0.06-69.29
		c-0.06-5.78-6.41-10.01-11.9-9.65C730.83,120.18,657.39,120.73,583.33,119.25L583.33,119.25z M45.94,116.68
		c18.93-3.96,57.55-2.55,77.42-2.83c164.27-2.36,328.68,0.93,492.81-2.31c63.14-1.25,125.63-0.01,188.7,0.39
		c10.09,0.1,15.53,4.26,19.9,10.71c2.45,3.61,1.64,10.72,1.56,14.67c-0.23,12.07,1.05,24.14,0.54,36.21
		c-1.83,42.84-2.87,85.72-3.96,128.58c-0.07,2.67-2.62,28.89-2.27,28.89c4.88,15.36,3.14,36.98,3.49,53.09
		c2.55,116.98,0.85,234.1,1.76,351.13c-0.04,6.88-5.03,13.03-12.81,15.71c-2.82,0.94-5.16,1.32-8.21,1.36
		c-0.13,0.08-52.86,0.76-58,0.87c-66.72,1.32-133.44,0.28-200.15-0.53c-14.88-0.18-29.76,0.85-44.65,0.44
		c-52.84-1.48-105.71-2.33-158.57-3.21c-11.98-0.2-23.89-1.78-35.82-1.88c-17.29,4.16-225.58,4.14-249.78,3.99
		c-11.5-0.07-20.57-7.43-20.65-16.75c0.1-83,0.79-165.71-1.46-248.71c-1.63-54.1-0.35-108.21,0.65-162.31
		c0.23-12.07-1.05-24.13-0.54-36.21c1.82-42.84,2.87-85.72,3.96-128.58c0.25-10,2.21-23.59,2.2-33.56
		C42.07,122.86,43.19,118.32,45.94,116.68L45.94,116.68z M236.34,720.53c-8.63,4.32-32.58,1.92-42.98,1.24
		c-24.81-1.29-64.75,1.72-86.1-3.27c-10.45,1.36-21.21,2.08-31.93,2.43c0.5-23.43,1.78-46.71,1.31-70.26
		c-0.88-25.63-4.72-61.28-0.25-85.84c-5.43-27.35-2.74-49.54-7.17-74.96c2.54-1.01,3.55-3.32,3.97-5.45
		c-5.29-50.85-1.94-101.92-5.29-152.8c0.98-3.25,3.02-4.12,2.91-8.11c-3.71-36.04,4.85-64.58-0.18-98.2
		c2.86-12.37,1.99-41.65,2.11-55.33c0.11-12.01,1.42-16.98,1.41-27.41c18.75-0.38,35.71-0.91,55.06,1.59
		c8.64-4.32,32.58-1.92,42.98-1.24c24.8,1.29,64.75-1.71,86.09,3.27c50.16-5.52,104.28-0.97,155.43-1.5
		c31.61-0.72,75.56-3.83,105.85-0.21c33.72-4.41,61.09-2.22,92.45-5.82c1.25,2.06,4.1,2.87,6.71,3.22
		c58.17-3.51,115.27-2.23,173.22-3.79c3.68,36-4.86,64.52,0.17,98.11c-2.86,12.36-1.99,41.66-2.11,55.33
		c-0.03,3.67-1.57,39.46-1.59,39.46c0.29,18.9,2.01,39.18-1.66,57.85c5.33,6.99,2.37,26.43,1.52,34.85
		c-1.6,20.11,2.11,52.5-4.03,69.81c6.8,40.68,1.2,84.55,1.85,126.04c0.88,25.63,4.72,61.27,0.25,85.84
		c1.28,5.86,2.44,12.26,3.2,18.56c-12.81,0.23-25.19,0.48-38.56,2.09c-1.25-2.06-4.1-2.88-6.71-3.22
		c-62.71,4.29-125.68,1.57-188.43,4.29c-4-0.79-5.09-2.44-10-2.36c-44.44,3.01-79.64-3.93-121.1,0.15
		c-15.26-2.32-51.37-1.61-68.23-1.71c-16.2-0.1-32.76-1.52-48.86-1.14C307.67,721.99,242.96,721.39,236.34,720.53L236.34,720.53z
		 M66.27,134.75c-0.82,0.12-1.65,0.25-2.46,0.41l-4.19,34.42c-1.81,98.81-6.56,197.61-5.93,296.44
		c0.25,38.95,3.45,77.69,4.75,116.59c0.38,11.21-1.88,22.36-1.53,33.57c1.26,39.75,0.74,79.28,0.5,119.02l0.48,0.4
		c0.06,0.07,77.36,0.57,84.64,0.59c9.4-3.08,20.98-1.06,31.39-1.12c10.33-0.2,20.69-2.53,31.34-2.77c4.37-0.09,8.78,1.5,13.27,1.51
		c27.7,0.12,59.37-0.5,86.6-4.28c0,0.05,46.22,4.21,50.92,4.27c121.85,1.47,243.69,5.32,365.57,4.81
		c9.02-0.05,81.87-0.88,84.49-2.41l0.47-1c-0.23-0.28-2.12-43.5-2.26-47.63c-0.38-11.21,1.88-22.36,1.53-33.57
		c-1.99-63.04-0.07-126.07,0.25-189.12c-3.79-7.61-1.31-17-1.39-25.44c-0.24-8.38-3.12-16.78-3.41-25.43
		c-0.11-3.54,1.85-7.12,1.86-10.76c0.15-22.43-0.61-48.01-5.25-70.06c0.04,0,5.16-37.49,5.23-41.29l4.05-163.24l-2.33-1.28
		c-0.66-0.76-149.4-1.39-163.46-1.33c-48.03,0.2-95.8,2.8-143.78,3.85c-13.82,0.3-27.58-1.53-41.4-1.24
		c-77.74,1.62-155.46,0.06-233.21-0.2c-9.4,3.08-20.97,1.06-31.39,1.13c-10.33,0.2-20.69,2.53-31.35,2.77
		c-4.37,0.09-8.79-1.5-13.28-1.51C119.16,130.74,93.5,130.72,66.27,134.75L66.27,134.75z"/>
</g>
</svg>
