<?xml version="1.0" encoding="utf-8"?>
<!-- Generator: Adobe Illustrator 25.0.0, SVG Export Plug-In . SVG Version: 6.00 Build 0)  -->
<svg version="1.1" id="Layer_1" xmlns="http://www.w3.org/2000/svg" xmlns:xlink="http://www.w3.org/1999/xlink" x="0px" y="0px"
	 viewBox="0 0 864 864" style="enable-background:new 0 0 864 864;" xml:space="preserve">
<g>
	<path d="M126.78,529.13c0-1.89-3.14-18.61-3.14-20.5s-0.31-5.05,0.31-6.94c0.63-3.15,2.82-6.94,2.82-8.83v-55.2
		c0-2.21-2.82-29.97-2.82-36.28c0-7.57,3.76-17.35,0.94-23.03c-2.19-4.42-5.64-7.89-7.21-11.99c-0.63-1.26,0-4.42-0.63-5.36
		c-1.57-2.52-5.96-6.94-7.84-7.89c-3.14-1.58-9.72-1.89-11.29-1.89c-2.19,0-7.21-0.32-10.03,1.26c-3.45,1.58-7.52,5.36-7.84,7.89
		c-1.88,10.73-1.88,31.55-1.88,33.12c0,31.23,4.08,29.65,4.08,43.85c0,1.58-1.25,9.46-1.25,12.93c0,15.77-1.88,46.37-1.88,48.26
		v26.5c0,1.89,1.25,3.47,1.25,4.1c0,6.94-0.63,14.2-1.25,20.5c0,1.26,0,3.15-0.94,4.42c-12.86,13.88-10.97,19.56-24.14,19.56
		c-2.19,0-7.84-3.15-9.41-3.15c-6.9,0-9.41,13.56-9.41,18.3c0,1.89-0.31,4.73,0,5.99c0.31,0.32,5.64,10.41,10.03,10.41
		c1.88,0,14.11-3.79,15.99-3.79c2.19,0,9.72,2.21,11.6,2.21c19.44,0,48.6-14.83,48.6-41.32c0-3.79,1.88-9.15,2.51-12.62
		c0-1.58,1.57-3.15,1.88-4.1C126.47,539.23,126.78,530.71,126.78,529.13L126.78,529.13z M292.33,563.2
		c-1.25-1.89-7.84-7.26-9.72-7.26c-1.88,0-6.27,0.63-7.84,0.63c-1.88,0-36.37,0-42.95-1.58c-4.7-1.58-10.03-7.89-10.03-9.78v-36.28
		c0-2.21,8.15-9.78,10.03-9.78h21.63c2.19,0,9.41-8.2,9.72-9.78c0.94-5.05,0.31-13.25,0.31-14.83c0-1.89,0-11.36-0.31-14.51
		c0-0.63-7.53-9.78-9.72-9.78h-22.57c-1.88,0-7.84-5.68-8.78-9.15c-1.57-6.31,0-13.25-1.25-18.3c-0.94-3.47-3.76-8.83-3.76-10.41
		c0-2.84,3.76-9.46,8.47-9.46h55.5c3.76,0,10.35-10.09,10.35-10.73c0.31-2.21,0.31-5.05,0.31-6.62c0-2.21-0.31-17.03-1.25-24.92
		c-0.31-3.79-6.9-9.15-9.41-9.46c-2.82-0.63-8.78-0.32-10.66-0.32c-1.57,0-43.58,0.32-47.34,0.95c-6.9,1.26-17.87,8.52-19.13,8.52
		c-1.88,0-19.75-9.46-21.63-9.46c-1.88,0-10.97,0.32-16.62,0.95c-5.02,0.63-9.72,9.46-9.72,11.99v76.34c0,1.89,0,12.93,0.94,18.3
		c1.57,6.31,3.76,17.98,3.76,19.56c0,1.89-2.19,9.46-3.76,14.2l-0.94,100.31c3.14,11.67,7.84,12.93,16.93,12.93
		c1.88,0,31.67,0.95,33.86,0.95c1.57,0,18.19-2.52,19.75-2.52c2.19,0,49.23,2.52,51.11,2.52c1.88,0,4.08,0.32,5.33-0.32
		c2.82-1.26,9.41-6.94,9.41-8.83V563.2L292.33,563.2z M440.68,404.85c0-0.63,4.21-5.39,5.15-5.39c0.63,0.63,2.39,7.16,1.45,8.74
		L440.68,404.85L440.68,404.85z M448.71,398.8c-0.94,0-6.96-5.67-7.59-6.62l2.84-3.62l5.15,0.3L448.71,398.8L448.71,398.8z
		 M472.3,522.83c0-1.89-0.94-13.25-3.45-17.35c-2.82-5.05-5.33-10.09-7.21-16.4c-0.63-2.21,0.31-5.36-0.63-6.62
		c-13.17-15.77-30.73-27.44-46.09-37.54c-8.15-5.36-20.69-12.62-24.77-17.67c-3.14-4.1-5.64-12.93-5.64-14.51v-19.87
		c0-2.21,5.96-9.15,9.41-9.15c2.51,0,10.66,8.83,11.6,10.73c2.51,6.31,2.2,18.61,2.82,22.08c0.31,3.47,5.02,7.57,7.21,8.2
		c3.76,0.95,9.09,0.95,10.97,0.95c1.88,0,20.38-5.68,22.26-5.68c1.88,0,7.21,2.52,9.09,2.52c3.45,0,6.58-6.31,6.58-8.83
		c0-1.89-3.76-11.67-3.76-13.88c0-1.89,4.7-9.15,4.7-11.04c0-38.17-50.48-46.06-70.23-46.06c-34.18,0-74.62,11.99-71.17,65.93
		c0,3.15-1.25,8.2-1.25,9.78c0,7.57,2.19,21.45,5.64,29.65c10.03,25.87,37.62,35.96,61.14,55.2c4.08,3.79,10.35,5.99,13.48,9.78
		c4.39,5.05,5.33,11.99,6.9,15.46c4.08,9.46,5.33,4.1,5.33,12.93c0,2.21,0,5.68-1.25,7.26c-1.57,2.52-4.39,5.05-5.02,7.57
		c-0.31,2.21,1.57,11.99-6.27,11.99c-5.96,0-16.62-12.3-16.62-18.3v-28.71c0-1.89-8.15-9.78-10.66-10.09
		c-6.9-0.95-18.5-0.32-20.38-0.32c-11.29,0-30.1-5.05-30.1,16.4c0,1.89,0.31,7.89,1.88,11.04c0.94,1.58,3.14,3.79,3.45,5.36
		c0.31,6.94-1.57,18.93-1.25,22.08c2.19,15.14,23.2,33.44,35.43,36.28c5.02,1.26,14.11,4.1,15.68,4.1c2.19,0,11.91-7.89,13.8-7.89
		c7.52,0,10.66,8.83,20.07,8.83c7.84,0,26.02-6.31,30.73-9.78c4.39-3.15,9.72-7.26,12.23-10.41c2.19-2.21,2.51-6.31,4.39-8.52
		c2.82-2.52,10.97-12.3,10.97-21.45V522.83L472.3,522.83z M542.53,427.24c0,3.79-6.27,6.94-7.84,6.94c-5.96,0-5.96-6.94-6.27-8.52
		c1.25-2.52,7.21-3.47,7.84-3.47C539.71,422.2,542.53,425.04,542.53,427.24L542.53,427.24z M656.97,363.52
		c-1.88-10.41-6.9-13.88-13.8-13.88c-1.88,0-15.05,2.52-16.62,2.52c-2.19,0-17.87-2.52-19.75-2.52c-6.27,0-11.6-1.58-17.24,10.73
		l-0.63,121.45c3.14,13.25,9.41,38.17,9.41,40.06c0,2.21-6.27,12.3-8.47,18.93c-1.57,4.1-0.63,11.67-2.82,15.77
		c-1.57,2.52-4.7,4.42-6.58,4.42c-3.14,0-8.15-5.36-8.15-8.2V402.01c0-1.89-5.33-20.5-5.33-22.4s4.7-17.03,4.7-18.93
		c0-2.52-4.08-9.46-9.09-10.73c-5.96-1.58-18.5-0.95-20.07-0.95c-1.88,0-17.24-0.95-25.4,0.95c-11.6,2.52-9.09,16.09-10.03,23.03
		c-0.31,2.21-2.19,5.99-2.19,7.89v159.93c0,1.89,4.7,12.62,5.96,18.3c1.25,5.36,0.94,16.09,3.76,19.87
		c19.44,23.97,42.64,30.91,66.47,30.91c1.88,0,20.38-1.89,28.53-4.1c6.58-1.89,15.68-11.67,18.81-12.93
		c21.01-9.15,26.96-32.49,27.9-48.9L656.97,363.52L656.97,363.52z M826.91,538.6c0-23.66-12.23-47.63-40.13-70.98
		c-10.66-8.83-25.4-15.77-31.67-23.03c-11.29-12.62-20.07-29.02-23.2-41.96c-2.19,0.95-5.96,2.52-7.21,5.05
		c-3.45,5.68-6.58,14.83-6.58,16.72c0,1.89,7.84,18.61,7.84,20.5s-3.45,5.68-4.39,7.89c0.31,3.15-2.82,8.83-2.82,10.73
		c0,10.09,30.41,29.02,33.86,32.49c8.78,7.89,21.01,21.77,28.85,29.65c1.57,1.58,1.57,4.73,1.57,6.31c0,1.89-4.39,8.2-4.39,10.73
		c-1.25,14.83-11.6,24.92-23.83,24.92c-6.27,0-18.19-3.15-22.58-12.62c-3.45-7.57-0.31-14.2-1.88-19.56
		c-1.25-3.47-5.64-7.26-7.84-7.89c-6.27-1.58-20.07-2.52-21.63-2.52c-15.68,0-14.11,15.46-14.11,22.4c0,45.74,37.94,57.1,69.61,57.1
		c2.19,0,14.11,0,21.01-1.89c3.76-0.95,7.84-5.05,10.97-5.68C822.52,588.76,826.91,560.36,826.91,538.6L826.91,538.6z
		 M824.71,399.17c0-5.99-8.47-29.65-9.09-30.91c-1.88-3.15-9.09-10.41-13.17-12.62c-3.14-1.89-9.09-2.84-12.54-4.42
		c-9.41-4.1-13.8-7.57-21.32-7.57c-1.88,0-10.66,0-25.08,0.63c-6.27,0.32-15.99,5.05-18.19,5.36
		c-24.46,3.15-38.57,32.49-38.57,50.16c0,2.21,4.7,15.14,4.7,22.08c0,2.52-0.31,5.36,0,7.26c0.94,3.15,5.64,7.26,6.9,8.83
		c1.25,2.52,1.25,7.57,1.88,10.09c0.94,3.47,8.78,9.46,11.29,10.73c0.63-1.58,2.51-4.73,2.51-6.31c0-2.21-5.96-10.09-7.21-13.88
		c-0.63-0.32-0.94-1.26-2.82-1.26c-1.88,0-0.94,0.95-2.82,0.95c-1.88,0-0.35-1.49-0.98-2.12c3.14-4.1,5.06-7.34,7.25-11.76
		c0.94-1.89,0.94-5.99,1.25-7.89c0.94-3.15,4.08-6.62,4.39-8.52c0.31-1.89,2.51-16.4,9.41-16.4c3.14,0,8.78,3.15,10.35,3.15
		c3.45,0,10.35-14.83,25.08-14.83c7.84,0,15.05,3.15,21.01,13.88c1.57,2.52,1.25,8.52,1.88,10.09c2.19,5.99,6.27,9.15,10.97,9.15
		c1.88,0,17.24-3.15,19.13-3.15c1.88,0,4.08,1.58,5.96,1.58C823.15,411.47,824.71,402.64,824.71,399.17L824.71,399.17z"/>
	<path d="M50.91,71.71h-3.82c-0.4-0.44-1.01-0.66-1.01-1.99c0-1.55,0.6-1.11,0.6-2.22c1.41,0.44,3.22-0.89,4.83,1.33L50.91,71.71
		L50.91,71.71z M66.2,21.4c0-12.19-11.07-11.52-19.93-11.52c-3.62,0-10.27,2.88-10.27,9.53c0,1.55,2.01,5.98,2.01,7.31
		c0,1.11-1.81,2.22-2.01,3.32C35.81,31.6,35,34.48,35,35.59v105.7c0,1.11,0.6,2.44,0.81,3.55c0.4,3.77,0,10.64,1.81,14.4
		c1.01,2.22,2.42,4.65,4.03,6.2c0.6-0.44,1.21-0.66,1.81-1.11c0.4-1.33-1.81-9.31,2.01-9.31c1.01,0,3.62,0.66,3.62,2.88
		c0,1.55-0.81,5.54-0.81,8.42c0,2.22-1.61,3.55-3.02,3.55c-1.21,0-2.62-1.55-3.62-2.22c-2.42,2.88-6.24,9.97-6.24,13.52
		c0,7.33,13.09,6.11,13.89,5.76c2.21-1.11,4.83-3.1,6.04-3.1c1.21,0,1.61,0.44,2.82,0.44c2.42,0,7.85-5.98,7.45-9.75l0.6-129.63
		c-0.6-3.32-2.01-8.86-2.01-9.97C64.19,34.7,66.2,29.16,66.2,21.4L66.2,21.4z M130.23,16.75c-1.41-4.21-7.05-6.2-9.26-6.2
		c-1.21-0.22-4.43,1.33-5.64,1.33c-1.21-0.22-5.03-1.55-6.24-1.55c-10.27-0.66-6.24,7.98-6.64,17.73c-0.4,7.98,0,8.86,0.6,15.07
		c0.4,5.32,0.4,15.96,0.6,16.84c1.81,5.1,8.25,7.31,10.87,7.53c5.64,0.22,8.66-1.55,9.66-10.42c0-1.55,1.81-9.75,1.61-10.86
		c-0.81-4.88,0-4.65,0.4-7.53c0.4-1.77,1.61-6.2,1.61-7.98c-0.2-6.65,1.01,0,1.81-10.64C129.63,18.97,130.64,18.08,130.23,16.75
		L130.23,16.75z M193.86,113.59c0,1.55-2.42,4.43-4.23,6.2h-1.81c-0.4-1.11-1.01-3.1-1.01-4.65c0-1.99,1.01-5.1,4.03-5.1
		C192.05,110.04,193.86,112.26,193.86,113.59L193.86,113.59z M208.44,113.72c0,0-2.1,1.64-2.1,2.3h-3.82
		c-1.21-1.99-2.82-2.66-4.23-3.55c1.21-0.44,2.57-3.43,3.57-4.54C205.31,113,206.7,111.8,208.44,113.72L208.44,113.72z
		 M202.92,182.5c0-1.33-1.21-7.76-3.22-11.52c-1.01-1.77-2.82-3.55-3.22-3.99c-0.2,1.77-1.01,6.43-2.42,7.76
		c-0.4-0.44-1.01-0.44-1.61-1.11c-1.81,4.21-3.62,5.32-3.62,8.42c0,4.21,3.62,7.76,7.45,7.76
		C196.68,189.82,202.92,185.61,202.92,182.5L202.92,182.5z M296.92,53.09c0-1.33-1.61-6.43-2.62-8.86c-0.81-1.99-2.62-3.55-3.82-5.1
		c-0.2-1.55,0.81-2.66,0.2-5.32c-3.02-1.99-9.06-4.21-13.89-8.2c-3.82-2.88-9.86-9.97-19.32-9.97c-3.62,0-9.46-1.99-10.27-1.99
		c-1.41,0-5.23,1.55-6.04,3.32c-2.21,5.98-2.21,16.4-2.82,23.49c-0.2,3.55-1.41,7.76-1.61,10.42c-0.2,2.88,0.4,6.43,0.2,8.86
		c-0.2,3.99-1.21,9.75-2.21,13.74h-3.42c-1.41-1.55-2.42-3.55-2.62-4.88c-2.62-15.73-4.23-39-7.45-50.52
		c-0.6-2.22-4.03-4.43-5.44-4.88c-1.61-0.44-4.43-0.44-6.04-0.89c-4.63-1.33-10.87-1.55-16.91-1.55c-1.41,0-14.09-0.44-20.53,0.89
		c-2.21,0.44-6.24,4.88-6.24,6.2v65.15c0,1.33,2.42,9.31,2.82,13.96c0.81,6.65-1.61,17.73,5.84,21.05c0.97,9.6-7.86,5.84-7.45,23.27
		c0,1.55-0.6,3.32-0.6,4.65c0,6.87,5.43,6.2,5.43,9.53c0,1.33-2.62,11.74-3.02,17.28c0,2.66,1.21,4.65,0.81,6.2
		c-0.67,3.03-3.26,3.5,2.42,9.75c1.61-0.66,4.23-0.89,5.23-1.99c2.42-2.66,5.43-7.76,7.05-10.19c0.6-0.66,3.02-0.44,3.62-0.89
		c4.82-3.83,3.73-10.86,6.84-10.86c1.21,0,1.61,0.66,2.01,1.11c1.41-4.43,0.2-10.64,0.81-13.52c1.01-3.99,3.02-8.2,3.82-11.08
		c0.6-1.99-1.01-5.98-0.81-7.76c0.6-5.1,1.01-10.86,3.22-14.85h5.03c1.81,3.77,3.22,8.2,3.42,10.86c0,1.33,1.01,2.44,0.6,3.55
		c-1.81,8.42,1.61,25.26,3.62,39.89c0.4,3.1,0.2,6.87,0.81,9.31c0.8,3.32,4.03,7.53,7.85,7.53c1.21,0,12.28,0,13.69,0
		c1.81,0,6.44-5.1,6.84-7.53c1.81-14.85,4.03-29.92,5.43-44.98c0.6-4.88-0.6-10.86-0.2-14.85c0.4-2.22,1.41-4.43,2.21-6.43
		c1.21,1.11,1.81,2.66,2.42,3.77c0.4,0,1.41,0,2.01,0.22c1.01,0.89,2.01,2.44,1.81,3.55l-0.4,38.78c1.01,7.09,0.4,14.85,1.01,22.16
		c0.2,1.77,4.23,3.1,5.43,3.1c1.21,0,5.23-1.77,6.24-1.77c7.45,0,7.05,3.99,17.71,3.99c2.42,0,5.84-3.55,5.84-7.53
		c0-1.33-2.62-7.53-2.62-8.64c0-1.33,3.02-15.96,3.02-17.51c0-1.55-2.01-11.52-3.42-16.62l4.03-21.49v-14.4
		c0-1.55,0.4-13.52,0.4-14.85V53.09L296.92,53.09z M442.67,87c0,6.97-3.62,8.77-3.62,11.08v35.46c0,1.33,0.81,2.66,1.01,3.77
		c0.2,3.99-0.4,7.76-0.81,11.74c-0.2,1.99-0.4,5.32-1.41,7.31c-0.4,1.11-3.82,5.1-5.43,5.1c-2.21,0-5.43-3.99-5.64-5.76
		c-0.6-2.88-0.4-7.53-0.81-10.41c-1.01-6.43-0.4-11.97,0-17.95c0.2-3.55-0.6-8.86-0.8-13.74c-0.2-8.42,1.01-17.28,0.8-26.15
		c-0.2-3.32-0.8-7.98-1.01-11.52c-0.2-0.89-1.41-2.88-1.41-4.21c0-1.11,1.01-3.1,1.41-4.65c1.61-7.76,0.4-15.73,1.81-23.27
		c0.2-1.99,4.63-5.76,6.04-5.76c1.21,0,3.22,2.66,4.63,2.66c1.21,0,0.2-0.44,1.41-0.44c1.21,0,2.01,0.89,2.21,1.77
		c0.2,3.32,0.6,8.86,0.6,10.42c0,1.33-2.62,16.18-2.62,17.73c0,1.11,0.4,6.2,0.81,8.42C439.86,79.68,442.67,83.01,442.67,87
		L442.67,87z M481.92,83.45c0-1.55-1.61-14.18-1.21-20.39c0.6-11.97-2.21-28.14-6.64-35.01c-2.82-4.43-9.66-8.64-11.27-10.64
		C454.95,8.33,438.85,7,432.41,7c-15.9,0-36.23,4.43-45.29,29.47c-1.41,3.77-2.82,12.19-2.82,13.52v13.74
		c0,1.11,1.61,3.32,1.41,4.88c-0.4,2.22-2.01,5.98-2.01,10.19v43.65c0,1.11,1.61,3.99,1.41,5.54c-0.4,5.54-1.01,11.08-0.6,15.95
		c0,2.22,1.01,4.88,1.21,6.65c0.4,26.81,22.14,42.55,45.69,42.55c1.21,0,12.68-2.22,18.72-3.55c0.4-0.44,1.41-1.55,2.01-1.99
		c2.62-0.44,6.64-3.1,8.45-3.77c16.3-5.98,18.52-25.04,19.93-38.11c0.6-5.32-0.4-11.08,0-15.51c0.4-6.43,0.6-10.19-0.2-21.72
		c-0.2-1.55,0.81-3.32,1.01-4.43C481.72,90.32,481.92,84.56,481.92,83.45L481.92,83.45z M609.96,24.51c0-3.55,1.01-13.96-6.24-15.96
		c-2.42-0.66-7.05-0.22-8.05-0.22c-1.21,0-5.84-0.22-8.05,0.22c-1.61,0.22-5.64,4.65-5.64,5.98c0,7.31-0.2,15.07-0.81,21.05
		l0.6,38.78c-1.41,4.88,1.01,12.19-1.81,17.06h-4.03c-1.01,0-1.61-2.44-1.61-2.66c-6.84-23.27-16.1-56.73-20.53-70.47
		c-2.62-8.42-9.26-9.97-13.49-9.97c-1.41,0-2.21-0.22-3.22,0.22c-2.62,1.11-5.64,5.76-7.45,6.87c-1.61,0.66-4.83,1.11-6.04,1.11
		c-1.21,0-4.83-2.66-6.04-2.66c-2.21,0-5.03,9.31-5.03,10.19c-0.81,3.32-0.81,9.31-0.81,10.42c0,1.55,0.6,34.79,0.6,36.12v15.51
		c0,1.11,2.01,9.31,2.01,10.42c0,1.55-2.62,19.72-2.62,21.05c0,5.98,1.21,14.85,3.22,20.61c1.01,0.44,2.42,1.55,2.42,2.66
		c-0.4,0.44-1.41,1.11-1.81,1.55c-0.2,2.22-0.4,4.88-0.8,6.87c-2.82,11.08-2.42,12.41-2.42,19.94c0,14.85,1.41,17.95,16.51,17.95
		c4.43,0,11.67-0.66,11.67-9.75c0-5.54-2.01-9.31-1.01-16.4c0.2-2.22,0-5.1,0.4-6.2l0.6-67.14c0.4-4.65,1.21-4.65,4.03-4.65
		c1.41,0,2.21-0.22,2.82,1.99c8.25,27.26,18.32,61.6,23.95,81.55c4.23,14.85,7.65,20.61,17.51,20.61c1.21,0,9.46-1.11,13.89-1.77
		c1.61-0.22,3.62-2.66,4.03-3.99c1.41-4.21,2.62-12.85,2.62-13.74V70.6c0-1.55-2.42-9.97-2.42-11.3c0-1.55,1.61-7.31,1.81-9.09
		C609.76,42.68,609.96,25.84,609.96,24.51L609.96,24.51z M725.73,176.08c0-1.33,0.2-3.77-0.2-5.1c-2.21-5.76-5.23-6.2-7.65-6.2
		c-1.21,0-3.02,0.89-4.63,1.55h-9.86c-1.21-0.22-1.61-1.55-2.62-1.55h-13.49c-1.21,0-4.23,0-6.04-0.66
		c-2.21-0.89-5.43-4.43-5.43-5.76v-26.59c0-1.55,0-7.98-0.6-11.08c-0.4-1.77-1.81-4.43-1.81-5.54c-0.45-5.49,1.86-6.81,1.21-16.18
		c0-1.11-1.01-1.99-1.21-2.66c-0.2-5.1-1.61-15.07-1.61-16.4c0-1.11,3.22-11.08,3.42-13.52c0.74-9.44,0.87-29.25,0-36.12
		c-0.4-2.66-2.42-6.2-2.82-7.76c0-0.89,0.6-3.1,0.2-3.99c-3.62-8.2-9.66-6.65-14.29-6.65c-1.41,0-5.64-0.44-7.45,0.22
		c-2.01,0.66-5.23,3.99-5.64,5.98c-1.01,5.32-0.6,18.17-0.6,19.5l0.6,46.54c2.62,7.76-0.81,11.74,1.21,23.27
		c0.6,3.32-0.4,7.53-0.2,10.64c0.2,2.22,1.01,5.32,1.01,6.43c0,1.55-1.01,1.77-1.41,2.22c-0.6,7.09-1.21,23.05-1.21,24.15
		c0,8.64-1.01,14.63,3.42,24.82c1.01,2.44-0.2,3.99-1.21,6.43c-0.6,1.77,2.42,6.65,4.03,7.53h69.04c1.21,0,4.23-3.99,5.03-6.2
		C725.73,181.4,725.73,177.41,725.73,176.08L725.73,176.08z M783.72,120.24c-1.01,0.44-2.01,1.77-3.22,1.77
		c-3.03,0-3.92-4.26-1.01-5.54C780.5,117.13,782.11,119.13,783.72,120.24L783.72,120.24z M772.26,91.41c0,1.99,0,5.36-0.6,6.91
		c-0.4-0.44-2.64-3.13-3.04-3.57C769.02,93.64,771.26,91.86,772.26,91.41L772.26,91.41z M826.99,17.42c0-0.66-3.22-6.2-4.83-6.43
		c-1.41-0.22-3.22-0.89-4.23-0.89c-1.21,0-9.06-0.22-13.49,0.89c-2.01,0.44-5.23,3.55-6.04,5.54c-3.42,8.42-7.45,23.49-8.05,27.03
		c-0.8,4.43,0.81,9.53-0.4,13.3c-0.6,3.1-4.43,5.54-5.03,7.76c-1.21,3.1-1.01,7.76-0.4,11.74c-0.81,1.99-2.82,8.64-4.83,8.64
		c-5.64,0-8.45-12.41-8.86-13.74c-1.81-5.98-3.22-11.52-4.43-15.95c-1.41-5.1-4.03-11.97-5.23-16.18c-0.6-1.99-0.81-4.65-1.81-6.65
		c-1.01-1.77-3.02-2.66-3.22-3.77c-0.2-1.77-0.2-3.55-0.4-4.88c-0.2-2.22-1.61-5.54-2.42-7.31c-1.67-3.68-7.69-1.69-11.47-3.1
		c-7.05-2.44-6.84-2.66-9.66-2.66c-2.82,0-8.45,1.11-8.45,6.43c0,2.66,7.45,12.41,7.45,12.63c0.4,4.43,0,10.64,0.8,13.52
		c3.82,13.3,7.45,27.26,13.69,39.89c4.43,9.31,4.43,13.3,11.67,28.81c2.21,4.43,4.63,11.97,4.63,13.07c0,1.33-1.01,11.74-1.21,14.4
		c-0.8,9.53-0.8,27.03-0.8,28.36c0,1.33-0.4,9.97,0.2,14.4c0.2,1.77,3.82,5.98,5.64,6.2h16.71c0.81,0,7.65-3.55,7.65-6.65v-48.97
		c0-1.11-2.42-4.43-2.42-5.76c0-1.33,6.44-9.31,8.25-13.96c1.61-4.21,3.02-9.75,4.03-12.85c1.61-4.88,5.23-14.85,5.23-15.51V74.59
		c-0.4,0-1.01-0.67-2.21-0.67c-1.21,0-5.43,3.32-6.84,3.32c-2.62,0-6.04-2.88-6.04-6.87c0-1.33,2.42-4.21,2.82-5.98
		c0.6-1.99,0-4.65,2.21-6.43c1.41-0.22,4.03-0.66,5.03-0.66c1.41,0,1.61,0.44,2.62,0.44c1.21,0,5.84-2.66,7.85-4.43
		c2.82-2.88,7.05-9.75,8.05-11.74C822.16,34.48,826.99,18.74,826.99,17.42L826.99,17.42z"/>
	<path d="M75.61,263.79c-0.49,0-3.04-0.66-3.52-1.15c0-0.32,0.82-3.9,1.31-4.22l3.21-0.3c0.69-0.21,1.05,2.47,1.05,3.66
		L75.61,263.79L75.61,263.79z M111.68,206.04c0-0.81-4.06-3.25-4.87-3.25c-0.97,0-1.46,0.81-1.79,0.81
		c-3.25,0.32-8.77,0.49-9.58,0.49c-0.97,0-10.88-2.11-12.02-2.11c-0.97,0-2.27,0.97-3.74,1.3c-1.14,0.32-3.25,0-4.06,0
		c-0.97,0-3.25,0.16-4.71-0.16c-1.3-0.16-4.39-1.46-5.36-1.46c-0.97,0-12.67,0.65-13.81,0.65c-3.57,0-7.96-0.16-11.04-0.49
		c-6.01,3.41-5.36,6.33-5.36,9.42c0,11.68,7.51,9.45,18.84,8.93c0.81,0,1.14-0.65,2.11-0.65c0.97,0,3.9,1.95,5.85,2.44
		c2.27,15.16-0.81,13.98-0.81,15.76v65.13c0,0.97,0.49,2.76,0.97,3.41c0.32,0.49,1.14,0.81,1.46,1.14
		c-0.34,11.97-3.32,7.61-2.27,20.3c0,0.32,3.74,5.04,5.04,5.04H80.5c1.3,0,4.87-4.22,5.2-5.85l0.49-39.79
		c-0.49-2.76-1.3-5.68-1.62-8.12c-0.49-3.25,0.81-6.66,0.97-9.26c0.16-2.92-0.65-6.17-0.65-8.93c0-1.3,0.81-2.6,0.65-3.74
		c-0.16-1.3-1.46-2.44-1.79-3.74c-0.81-2.27-1.3-5.04-0.81-6.66c0.65-2.11,1.14-4.55,0.97-5.85c-0.32-2.6-1.46-6.5-1.46-7.47
		s0.32-5.04,0.49-7.47c3.23-2.35,3.8-6.01,6.5-6.01c0.97,0,9.1,0.81,9.91,0.81c6.33,0,11.53,2.44,10.88-11.86
		C110.06,207.99,111.68,207.01,111.68,206.04L111.68,206.04z M160.57,286.11c-0.81,1.95-3.09,5.2-5.04,5.2
		c-0.97,0-0.32-0.32-11.86-0.49c-2.6,0-4.87-4.22-5.04-5.2l8.61-46.29h4.22L160.57,286.11L160.57,286.11z M158.95,214.16
		c-0.32,3.9-4.06,4.39-5.85,4.39c-2.44,0-2.27-1.62-2.27-2.92c0-0.32,0-3.9,2.27-3.9C154.4,211.72,157.97,213.35,158.95,214.16
		L158.95,214.16z M192.57,326.91c0-0.97-2.76-9.85-3.09-13.89c-0.32-5.47-2.6-16.03-4.55-23.66c-1.46-5.85-1.95-13.81-3.09-18.68
		c-0.65-2.76-3.09-6.01-3.74-8.12c-0.97-3.09-0.65-6.33-0.65-9.58c0-0.81-1.95-2.11-1.79-2.92c0.97-8.12-0.97-16.24-2.92-24.36
		c-1.3-6.33-1.62-14.29-3.41-19.17c-0.65-1.62-2.76-3.25-4.87-4.06c-2.92-0.97-7.31-0.49-8.12-0.49c-1.14,0-13.32-1.14-19.17,0.16
		c-2.6,0.49-4.06,3.9-4.55,5.04c-1.95,5.04-4.55,17.22-4.55,18.19c0,0.97,3.57,8.61,3.57,9.75s-5.85,5.2-6.82,8.77
		c-3.57,14.62-5.2,25.66-6.82,36.71c-0.65,3.9-1.62,8.61-2.44,11.69c-1.79,7.15-5.85,28.64-5.85,29.29c0,8.39,3.09,10.5,11.37,10.5
		c1.14,0,4.55,0.32,5.2,0c11.53-6.47,0.16-18.9,12.99-22.93l17.38-0.46c3.25,0,4.39-0.97,8.61,4.33c0.81,1.14,0.81,2.92,1.46,4.03
		c0.49,0.97,1.62,1.46,1.79,1.62c1.79,3.22,0.49,8.39,1.14,9.69c2.11,4.36,2.92,3.71,4.71,3.71c0.97,0,6.82-1.14,7.96-1.14
		c0.97,0,4.39,0.81,5.36,0.81C188.51,331.75,192.57,329.81,192.57,326.91L192.57,326.91z M272.97,323.63c0-0.97,0.16-2.76-0.16-3.74
		c-2.8-7.42-9.36-3.51-9.91-3.41h-7.96c-0.97-0.16-1.3-1.14-2.11-1.14c-2.69,0-13.52,0.29-15.76-0.49
		c-1.79-0.65-4.39-3.25-4.39-4.22c0-3.92,0.3-24.24-0.49-27.61c-0.32-1.3-1.46-3.25-1.46-4.06c-0.37-4.1,1.51-4.87,0.97-11.86
		c0-0.81-0.81-1.46-0.97-1.95c-0.16-3.74-1.3-11.04-1.3-12.02c0-0.81,2.6-8.12,2.76-9.91c0.59-6.92,0.7-21.44,0-26.48
		c-0.32-1.95-1.95-4.55-2.27-5.68c0-0.65,0.49-2.27,0.16-2.92c-2.92-6.01-7.8-4.87-11.53-4.87c-1.14,0-4.55-0.32-6.01,0.16
		c-1.62,0.49-4.22,2.92-4.55,4.39c-0.81,3.9-0.49,13.32-0.49,14.29l0.49,34.11c2.11,5.68-0.65,8.61,0.97,17.05
		c0.49,2.44-0.32,5.52-0.16,7.8c0.16,1.62,0.81,3.9,0.81,4.71c0,1.14-0.81,1.3-1.14,1.62c-0.49,5.2-0.97,16.89-0.97,17.7
		c0,6.33-0.81,10.72,2.76,18.19c0.81,1.79-0.16,2.92-0.97,4.71c-0.49,1.3,1.95,4.87,3.25,5.52h55.71c0.97,0,3.41-2.92,4.06-4.55
		C272.97,327.53,272.97,324.61,272.97,323.63L272.97,323.63z M365.39,328.18c0-0.97-7.15-17.7-11.86-25.83
		c-3.33-5.98-12.02-5.57-12.02-9.58c0-2.44,3.25-8.77,3.25-8.93c0-1.95-9.42-17.05-9.42-22.25c0-4.71,5.36-10.72,7.63-15.11
		c1.95-3.74,4.22-7.8,6.5-10.88c1.46-2.11,2.27-8.12,2.76-10.23c0.65-3.57,6.98-3.74,8.12-8.93c0.16-0.65,0.16-1.79,0.32-1.95
		c1.3-1.95,3.09-4.22,4.71-6.17c-2.76-6.17-4.71-5.2-6.82-5.2c-0.97,0-7.15,0.65-10.72,0.65c-1.3,0-3.41,0.81-4.22,1.62
		c-6.33,6.17-11.04,17.38-15.59,25.83c-2.44,4.55-6.5,10.56-8.77,15.11c-0.54,1.15-1.23,5.55-2.76,5.68
		c-1.14-0.16-2.76-0.16-3.9-0.65c-0.49-0.32-0.81-0.97-0.81-1.3c-0.23-3.76-1.79-9.65-0.97-12.99c0.16-0.81,0.97-1.95,0.97-2.76
		v-26.15c0-0.97-3.74-4.55-4.87-4.87c-1.37-0.32-12.94-0.19-14.78,0c-6.17,0.65-5.52,11.69-5.52,15.76c0,0.97-0.16,6.33,0.16,7.96
		c1.46,6.01,1.46,4.71,1.46,7.63c0,3.25-0.49,3.9-1.46,7.63c-0.49,2.27-0.16,7.96-0.16,8.77c0,0.97-0.16,9.26,0.65,12.51
		c0.32,1.95,2.6,4.87,2.6,7.31c0,2.11-3.25,5.68-3.25,10.07v47.43c0,2.27,5.68,5.52,6.82,5.52c0.97,0,2.76-0.97,4.06-1.46
		c2.41-0.79,8.17,0.65,9.42,0.65c1.95,0,4.22-3.09,4.87-5.36l-0.32-24.85c0.32-1.62-0.49-16.4,6.66-16.4c1.46,0,3.57,0.81,4.22,2.27
		c6.17,13.48,16.08,36.06,18.84,40.61c3.57,6.01,7.8,4.55,10.72,4.55c0.97,0,6.5-0.16,9.75-0.81
		C362.63,332.73,365.39,330.62,365.39,328.18L365.39,328.18z M393.15,248.18l-3.72-0.04c-0.32-0.32-1.22-1.42-1.22-2.4
		c0-1.14,0.9-1.79,0.9-2.6c1.14,0.32,3.54-0.24,4.84,1.39L393.15,248.18L393.15,248.18z M404.86,210.26c0-8.93-8.93-8.45-16.08-8.45
		c-2.92,0-8.28,2.11-8.28,6.98c0,1.14,1.62,4.39,1.62,5.36c0,0.81-1.46,1.62-1.62,2.44c-0.16,1.14-0.81,3.25-0.81,4.06v77.48
		c0,0.81,0.49,1.79,0.65,2.6c0.32,2.76,0,7.8,1.46,10.56c0.81,1.62,1.95,3.41,3.25,4.55c0.49-0.32,0.97-0.49,1.46-0.81
		c0.32-0.97-1.46-6.82,1.62-6.82c0.81,0,2.92,0.49,2.92,2.11c0,1.14-0.65,4.06-0.65,6.17c0,1.62-1.3,2.6-2.44,2.6
		c-0.97,0-2.11-1.14-2.92-1.62c-1.95,2.11-5.04,7.31-5.04,9.91c0,5.35,10.52,4.49,11.21,4.22c1.79-0.81,3.9-2.27,4.87-2.27
		c0.97,0,1.3,0.32,2.27,0.32c1.95,0,6.33-4.39,6.01-7.15l0.49-95.02c-0.49-2.44-1.62-6.5-1.62-7.31
		C403.23,220.01,404.86,215.95,404.86,210.26L404.86,210.26z M509.13,329.81c-1.14-39.14-0.65-31.51-1.14-64.32
		c0-4.87,3.09-52.3,0.81-60.42c-1.46-5.2-23.06-2.92-27.29-2.44c-1.3,0.16-3.9,2.44-3.9,3.41v42.56c0,1.44-3.58,1.87-4.06,1.14
		c-5.85-14.62-9.91-29.56-16.73-43.85c-2.11-4.55-6.82-3.41-8.93-3.41c-14.62,0-2.11,7.31-12.51,7.31c-1.14,0-4.87-1.14-5.85-1.14
		c-3.09,0-4.87,8.93-4.87,9.58v42.88c0,0.81,1.79,5.68,1.79,6.5c0,1.14-1.46,4.06-1.79,6.17v25.99c0.65,2.6,4.06,5.36,4.06,6.33
		s-3.25,4.55-4.06,6.98v17.22c0.32,1.3,2.6,3.09,3.9,3.25c4.06,0.65,9.75,0.16,10.72,0.16c3.57,0,16.89,1.14,16.89-4.71v-41.42
		c1.3-1.79,1.95-0.81,3.74-1.46c3.41,10.23,6.98,20.63,10.56,30.7c1.46,4.55,2.44,9.58,4.87,13.97c0.81,1.3,3.09,2.6,4.39,2.76
		c3.74,0.65,12.18,0.16,13.32,0.16s7.63,0.65,11.69-0.16C506.86,333.22,509.13,330.78,509.13,329.81L509.13,329.81z M589.95,286.86
		c-0.49,0.49-2.67,1.24-3,1.24c-0.16-0.32-0.5-2.64,0.64-3.29L589.95,286.86L589.95,286.86z M588.87,281.62
		c0,1.14-1.29,1.57-1.77,1.89c-0.32-0.32-1.18-2.04-1.51-2.86C586.59,280.16,588.87,280.05,588.87,281.62L588.87,281.62z
		 M599.61,265.32c0-1.3-3.9-4.06-5.52-4.06c-1.3,0-5.52,1.62-6.5,1.62c-0.97,0-4.87-0.81-5.85-0.81c-5.36,0-5.68,1.95-8.61,1.95
		c-2.24,0-2.41-2.43-7.63,1.3c0,0.81-0.16,1.79,0,2.6c0.32,0.49,0.81,1.3,0.97,1.62c-0.16,1.62-0.49,3.57-0.16,4.55
		c1.95,4.55,9.91,5.68,10.07,9.26c0.54,10.33,1.29,21.2-1.3,25.5c-4.55,7.31-7.96,6.82-11.53,6.82c-0.97,0-2.11,0-2.76-0.16
		c-2.44-0.49-8.28-4.22-9.1-7.15c-1.3-4.39-0.81-9.26-1.46-13.32c-0.16-1.46-0.65-3.74-0.65-4.55c0-5.36,2.11-7.8,0.97-14.94
		c-1.44-9.06-2.08-12.31-0.97-24.69c0.32-3.25,1.46-8.77-0.16-11.53c-0.97-1.62-2.6-2.92-2.92-4.06c-0.65-1.62-1.79-4.87-1.79-5.68
		c0-2.34,3.3-1,0.32-6.5c-0.65-0.97-2.76-1.79-2.76-2.76c0-0.81,0.81-3.57,1.46-5.04h1.14c0.32,0.32,1.14,0.97,1.14,1.46
		c-0.97,4.39-0.16,7.15,4.39,7.15c6.5,0,3.57-4.55,15.11-4.55c0.97,0,2.6-0.32,3.25,0.16c2.44,1.79,4.87,5.04,6.33,7.47
		c0.81,1.46,0.65,3.9,0.97,5.2c0.81,3.09,5.52,3.41,4.87,7.31c1.79,1.14,4.06,1.62,6.01,2.44c0,1.3,0.16,2.6,0.49,3.74
		c1.46,0,3.9,0.49,4.87,0.49c0.81,0,6.5-0.81,6.5-4.71c0-0.97-1.79-1.95-1.95-2.76c-0.16-1.14-0.49-2.76-0.49-3.74
		s2.44-6.01,2.44-6.98c0-1.14-2.92-6.98-4.39-10.07c-2.44-0.97-6.5-3.41-7.31-3.41c-0.81,0-1.46,0.49-2.44,0.49
		c-3.57,0-3.74-4.55-2.27-6.33c-0.81-1.3-1.14-2.6-1.3-3.25c-0.32-1.79-8.61-4.22-14.29-4.22c-0.97,0-9.58,1.14-12.51,1.3
		c-0.49,0.32-0.49,0.65-1.46,0.65c-0.97,0-1.95-0.81-2.76-0.81c-1.14,0-4.71,1.3-7.31,2.27c-0.65,0.16-2.11,1.3-2.76,1.79
		c-1.46,0.81-3.25,2.92-4.87,4.06c-6.82,4.39-9.42,17.38-9.42,24.2v65.62c0,1.14,0.49,7.63,1.3,11.21c0.32,1.95,1.62,5.04,2.44,6.5
		c0.32,0.65,9.75,12.34,12.67,12.34h10.07c2.44,0,5.68,4.06,11.86,4.06c19.98,0,35.57-11.86,35.57-33.95V265.32L599.61,265.32z
		 M702.11,264.16c-0.49,0-2.44-1.6-2.92-2.09c0-0.32,0.79-2.51,1.27-2.84l2.35,0.08c0.69-0.21,0.11,2.85,0.11,4.04L702.11,264.16
		L702.11,264.16z M737.99,206.04c0-0.81-4.06-3.25-4.87-3.25c-0.97,0-1.46,0.81-1.79,0.81c-3.25,0.32-8.77,0.49-9.58,0.49
		c-0.97,0-10.88-2.11-12.02-2.11c-0.97,0-2.27,0.97-3.74,1.3c-1.14,0.32-3.25,0-4.06,0c-0.97,0-3.25,0.16-4.71-0.16
		c-1.3-0.16-4.39-1.46-5.36-1.46s-12.67,0.65-13.81,0.65c-3.57,0-7.96-0.16-11.04-0.49c-6.01,3.41-5.36,6.33-5.36,9.42
		c0,11.68,7.51,9.45,18.84,8.93c0.81,0,1.14-0.65,2.11-0.65c0.97,0,3.9,1.95,5.85,2.44c2.27,15.16-0.81,13.98-0.81,15.76v65.13
		c0,0.97,0.49,2.76,0.97,3.41c0.32,0.49,1.14,0.81,1.46,1.14c-0.34,11.97-3.32,7.61-2.27,20.3c0,0.32,3.74,5.04,5.04,5.04h13.97
		c1.3,0,4.87-4.22,5.2-5.85l0.49-39.79c-0.49-2.76-1.3-5.68-1.62-8.12c-0.49-3.25,0.81-6.66,0.97-9.26
		c0.16-2.92-0.65-6.17-0.65-8.93c0-1.3,0.81-2.6,0.65-3.74c-0.16-1.3-1.46-2.44-1.79-3.74c-0.81-2.27-1.3-5.04-0.81-6.66
		c0.65-2.11,1.14-4.55,0.97-5.85c-0.32-2.6-1.46-6.5-1.46-7.47s0.32-5.04,0.49-7.47c3.23-2.35,3.8-6.01,6.5-6.01
		c0.97,0,9.1,0.81,9.91,0.81c6.33,0,11.53,2.44,10.88-11.86C736.37,207.99,737.99,207.01,737.99,206.04L737.99,206.04z M795,258.34
		c0,5.1-2.92,6.43-2.92,8.12v25.99c0,0.97,0.65,1.95,0.81,2.76c0.16,2.92-0.32,5.68-0.65,8.61c-0.16,1.46-0.32,3.9-1.14,5.36
		c-0.32,0.81-3.09,3.74-4.39,3.74c-1.79,0-4.39-2.92-4.55-4.22c-0.49-2.11-0.32-5.52-0.65-7.63c-0.81-4.71-0.32-8.77,0-13.16
		c0.16-2.6-0.49-6.5-0.65-10.07c-0.16-6.17,0.81-12.67,0.65-19.17c-0.16-2.44-0.65-5.85-0.81-8.45c-0.16-0.65-1.14-2.11-1.14-3.09
		c0-0.81,0.81-2.27,1.14-3.41c1.3-5.68,0.32-11.53,1.46-17.05c0.16-1.46,3.74-4.22,4.87-4.22c0.97,0,2.6,1.95,3.74,1.95
		c0.97,0,0.16-0.32,1.14-0.32c0.97,0,1.62,0.65,1.79,1.3c0.16,2.44,0.49,6.5,0.49,7.63c0,0.97-2.11,11.86-2.11,12.99
		c0,0.81,0.32,4.55,0.65,6.17C792.73,252.98,795,255.42,795,258.34L795,258.34z M826.67,255.74c0-1.14-1.3-10.4-0.97-14.94
		c0.49-8.77-1.79-20.63-5.36-25.66c-2.27-3.25-7.8-6.33-9.1-7.8c-6.33-6.66-19.33-7.63-24.53-7.63c-12.83,0-29.24,3.25-36.55,21.6
		c-1.14,2.76-2.27,8.93-2.27,9.91v10.07c0,0.81,1.3,2.44,1.14,3.57c-0.32,1.62-1.62,4.39-1.62,7.47v32c0,0.81,1.3,2.92,1.14,4.06
		c-0.32,4.06-0.81,8.12-0.49,11.69c0,1.62,0.81,3.57,0.97,4.87c0.32,19.65,17.87,31.19,36.87,31.19c0.97,0,10.23-1.62,15.11-2.6
		c0.32-0.32,1.14-1.14,1.62-1.46c2.11-0.32,5.36-2.27,6.82-2.76c13.16-4.39,14.94-18.35,16.08-27.94c0.49-3.9-0.32-8.12,0-11.37
		c0.32-4.71,0.49-7.47-0.16-15.92c-0.16-1.14,0.65-2.44,0.81-3.25C826.51,260.78,826.67,256.55,826.67,255.74L826.67,255.74z"/>
	<path d="M162.94,634.49c0-10.52-2.16-16.94-15.15-16.94c-2.16,0-16.5,1.46-18.12,1.46c-1.62,0-9.47-1.46-11.09-1.46H87.74
		c-1.89,0-2.98,2.04-4.33,2.63c-2.7,0.88-6.22,0.88-7.84,0.88c-8.38,0-4.87-3.51-22.45-3.51c-2.16,0-7.57-0.88-10.28,0.29
		c-2.71,0.88-7.84,6.72-7.84,8.18v17.24c0,1.75,6.22,8.47,8.11,8.47h26.78c1.35,0,7.84,7.6,8.38,9.35c1.35,7.6,0,24,0,25.76
		l-0.54,43.58c1.35,4.97,2.7,12.85,2.7,14.61c0,1.75-2.7,11.44-2.7,13.19v85.99c0,2.04,6.22,8.81,7.84,8.81H111
		c1.89,0,8.66-7.35,8.66-9.11V660.78c0-2.05,7.03-9.06,8.66-9.06h25.97c2.43,0,8.11-8.47,8.38-9.64
		C163.21,640.04,162.94,636.24,162.94,634.49L162.94,634.49z M215.65,768.92c0,7.79-14.04,10.85-14.04,0.28
		c0-4.09,4.91-11.18,7.07-11.18C212.46,758.02,215.65,767.46,215.65,768.92L215.65,768.92z M276.88,741.71
		c0,1.46-2.7,16.07-2.7,17.82v42.36c0,9.64,2.7,23.08-13.25,23.08c-1.62,0-12.44-0.88-17.58-3.21c-6.49-2.63-11.9-12.85-11.9-18.4
		v-19.57c0-1.75-3.25-21.62-3.25-23.66c0-6.72,2.43-11.98,2.98-15.19c1.08-3.8,0.27-14.61,0.27-16.36s0.54-17.24-1.62-26.59
		c-0.27-2.34-5.14-5.84-7.57-9.64c-0.27-0.58-0.27-0.88-0.27-2.63c0-5.84,6.49-11.69,7.84-16.36c2.16-6.43,4.06-14.31,7.3-21.33
		c2.16-4.97,7.3-6.72,9.74-6.72c9.74,0,27.32,16.65,26.78,30.97c0,1.75,1.89,4.38,2.16,7.89c0.81,6.14-0.81,10.22-1.62,15.48
		c-0.27,4.09-0.81,18.11,0,26.88C274.72,731.77,276.88,739.66,276.88,741.71L276.88,741.71z M315.29,678.31
		c0-2.04-2.43-9.64-2.43-12.27c-0.54-29.21-29.21-47.03-48.96-47.03c-1.89,0-11.36,1.46-12.71,1.46c-1.62,0-11.09-1.46-12.44-1.46
		c-5.14,0-9.74,2.92-13.79,4.97c-4.6,2.05-10.01,3.8-13.52,5.55c-1.89,0.88-5.68,4.97-5.68,6.43c0,2.04,5.41,11.69,5.41,13.73
		c0.28,4.85-5.19,4.22-9.74,5.26c-4.06,0.88-11.09,10.52-11.09,14.9v138.48c0,14.61,14.06,38.56,30.56,44.11
		c15.42,5.26,23.53,5.26,27.86,5.26c21.64,0,49.23-0.88,63.29-38.27c1.89-4.67,3.25-15.19,3.25-16.65V678.31L315.29,678.31z
		 M452.77,670.42c-2.43,1.46-2.97,5.55-2.97,8.18c-2.43,2.04-7.84,4.67-9.74,8.18c-2.16,3.8-4.33,16.07-4.33,21.62v85.01
		c0,2.92-3.79,17.53-10.01,17.53c-2.43,0-7.57-5.55-7.57-7.6v-42.07c0-1.75-0.81-5.26-1.08-7.6c-0.54-6.43,1.08-18.7,1.08-20.45
		v-44.41c0-1.46-2.7-16.07-2.7-18.11c0-4.67,1.89-10.81,7.84-10.81c5.41,0,7.84,5.26,15.15,13.15c1.35,0,3.25,0.58,4.87,0.58
		c1.62,0,5.14-3.51,7.84-4.38C451.15,669.25,451.96,669.84,452.77,670.42L452.77,670.42z M493.34,783.77c0-9.93,0-20.74-2.16-33.01
		c-0.27-2.92,0.81-6.43,0.54-9.35c-0.27-2.92-1.62-7.01-2.98-9.64c-1.62-0.58-8.93-5.26-8.93-8.47c0-2.63,4.6-9.93,7.57-10.23
		c1.62-7.89,5.95-23.37,5.95-25.12c0-1.75-2.16-9.93-2.16-11.39v-18.7c0-6.72-11.63-22.5-17.04-27.46
		c-5.95-5.84-16.77-5.26-21.1-6.43c-4.87-1.46-14.06-4.97-15.42-4.97c-1.89,0-9.2,1.46-10.82,1.46c-1.89,0-9.47-0.88-13.52-2.04
		l-31.92-0.88c-1.62,0-8.38-0.29-11.63,0.29c-0.54,0-8.93,5.84-8.93,9.06v115.69c0,1.75,2.7,17.24,2.7,18.7
		c0,2.04-2.7,16.36-2.7,18.11v66.32c0,3.21,8.38,9.06,8.93,9.06c2.43,0.29,7.3,0,8.93,0l68.43-0.58
		C494.7,853.89,493.34,813.57,493.34,783.77L493.34,783.77z M604.32,763.03c0,8.76-0.81,15.78-11.36,15.78
		c-5.41,0-10.28-4.38-13.25-12.56c-1.35-3.51-0.27-9.64-0.27-11.69c0-6.43-0.27-20.45,3.25-33.3c1.65-6.26-0.13-10.67,4.33-15.48
		h9.2c3.52,3.8,4.33,9.93,5.14,14.9C603.5,731.48,604.32,761.28,604.32,763.03L604.32,763.03z M659.76,848.92
		c0-1.75-8.66-65.73-13.79-98.45c-1.62-11.69-5.14-35.06-6.22-43.53c-1.35-11.69-1.08-23.66-3.25-35.35
		c-0.54-4.38-2.7-10.22-3.52-13.73c-2.16-11.39,1.08-28.92-7.03-37.98c-4.33-4.67-12.44-3.21-18.39-3.21
		c-1.89,0-27.59,2.92-29.21,2.92c-2.58,0-18.35-3.67-21.1-2.04c-2.7,1.75-5.68,5.26-5.95,7.3c-1.62,9.35,0.54,23.96,0,27.75
		c-0.81,7.89-5.68,17.24-6.22,21.91c-6.22,46.45-10.55,97.87-14.61,135.26c-1.89,17.24-5.95,37.1-5.95,38.86
		c0,2.63,5.41,5.26,7.57,5.26c1.62,0,23.53,0.88,25.42,0.88c6.49,0,17.58,0.29,19.47-9.06c1.89-7.89,1.35-19.28,2.43-22.5
		c2.98-7.6,7.3-12.27,12.71-12.27c1.62,0,3.52,0.29,4.33,0.88c4.33,3.51,9.2,9.64,10.55,13.44c1.89,7.01,1.89,14.61,2.43,21.91
		c0,1.46,1.62,3.51,2.43,4.38c4.6,4.09,8.93,1.75,14.34,2.63c4.06,0.88,15.15,1.17,16.77,1.17c1.89,0,10.01,0.88,13.25-1.46
		C657.87,852.72,659.76,850.38,659.76,848.92L659.76,848.92z M827,626.6c0-10.23-11.63-9.35-15.42-9.35
		c-2.16,0-17.31,1.17-26.24,2.63c-0.54,0.29-2.16,1.17-2.7,1.46c-1.35,2.04-2.7,4.38-3.25,6.43c-8.11,26.88-14.88,53.75-22.99,80.92
		c-5.41-4.38-6.22-14.32-8.11-19.57c-1.35-4.67-8.38-10.22-9.47-13.73c-1.62-4.38,0.27-11.98-0.54-16.07
		c-1.62-8.18-3.52-24.83-8.93-33.89c-4.06-7.01-9.2-8.18-12.71-8.18c-7.84,0-34.08,2.92-35.97,9.06c-0.27,2.34-1.08,4.38-1.08,6.14
		c0,1.46,4.33,10.81,5.41,14.61c3.52,13.73,5.95,28.34,10.55,41.78c6.76,20.74,17.04,41.48,24.61,61.93
		c0.27,1.17-0.27,4.09,0.27,5.26c4.6,10.81,8.66,21.62,8.66,32.72v21.03c0,9.06-5.95,29.51,7.57,40.32c1.62,1.17,4.33,0,5.41,0.58
		c5.41,1.75,11.9,1.75,15.69,1.75c1.62,0,9.2,0.29,12.98,0c2.16-0.29,8.38-7.01,8.38-9.06v-66.61
		C779.12,771.21,827,628.65,827,626.6L827,626.6z"/>
</g>
</svg>
